<svg xmlns="http://www.w3.org/2000/svg" width="261.167" height="111.073" viewBox="0 0 261.167 111.073"><defs><style>.a{fill:#1bb1a3;}.b{fill:#fff;font-size:14px;font-family:ProximaNova-Bold, Proxima Nova;font-weight:700;}</style></defs><g transform="translate(-256.827 -1433.771)"><g transform="translate(0 -29)"><path class="a" d="M-6146.415-1795.536h10.76l7.029,7.267v7.984l-3.812,9.1-13.978,3.693-8.013-3.693-4.423-9.1v-6.413Z" transform="translate(6514 3261)"></path><text class="b" transform="translate(360 1484)"><tspan x="0" y="0">HQ</tspan></text><path class="a" d="M634.584,1117.287c1.246,2.722,1.1,5.553.8,8.259a14.249,14.249,0,0,1-2.723,6.405c-1.894,2.7-4.635,4.19-7.6,5.283a25.749,25.749,0,0,1-6.057,1.624,16.78,16.78,0,0,1-5.045.16,12.828,12.828,0,0,1-4.3-1.291,14.935,14.935,0,0,1-7.375-9.718,14.187,14.187,0,0,1,.778-8.6,17.873,17.873,0,0,1,7.568-9.124,24.071,24.071,0,0,1,6.778-3.052c3.938-.908,7.768-.728,11.148,1.547a14.7,14.7,0,0,1,4.048,4.381,14.555,14.555,0,0,1,1.986,4.121m-26.482.242c-.215.286-.453.558-.64.862a15.93,15.93,0,0,0-1.66,4.792,8.268,8.268,0,0,0,.21,4.826,13.888,13.888,0,0,0,3.219,5.092,6.64,6.64,0,0,0,4.508,2.256,25.876,25.876,0,0,0,5.508-.228,24.6,24.6,0,0,0,8.2-3.156,5.828,5.828,0,0,0,1.565-1.253c2.348-2.9,3.674-6.179,2.86-9.934a15.977,15.977,0,0,0-1.353-4.1c-.557-1.062-1.314-1.928-1.944-2.9a8.269,8.269,0,0,0-4.735-3.336c-1.48-.468-3.049-1.021-4.568.066-.218.156-.612.055-.922.094-2.055.261-4.006.755-5.433,2.426-.678.794-1.359,1.586-2.053,2.367-.131.148-.347.361-.49.337C609.151,1115.533,608.769,1116.584,608.1,1117.529Z" transform="translate(-248.199 356.043)"></path><path d="M890.371,1344.39a3.063,3.063,0,0,1-.234-.978c-.013-2.411-.081-4.826.021-7.233a28.246,28.246,0,0,1,.643-4.231c.062-.314.448-.763.712-.783s.689.349.847.651a6.186,6.186,0,0,1,.648,1.814,28.471,28.471,0,0,1,.333,3.24c.134,2.58.061,5.182.369,7.739.452,3.766.458,7.54.681,11.308.131,2.21.011,4.436.28,6.619.6,4.832.1,9.67.288,14.5a1.82,1.82,0,0,1,0,.321c-.1.708-.176,1.457-1,1.715-.469.146-1.214-.562-1.487-1.355a2.228,2.228,0,0,1-.087-.607c-.111-2.206-.08-4.43-.366-6.613-.248-1.892-.088-3.794-.344-5.651-.165-1.2-.089-2.4-.285-3.568-.4-2.365-.013-4.772-.356-7.1A76.9,76.9,0,0,1,890.371,1344.39Z" transform="translate(-489.98 167.739)"></path><path d="M663.012,1417.982c-.812.119-1.475.105-2.138.231a8.987,8.987,0,0,1-3.523-.324c-.336-.076-.642-.788-.716-1.248-.027-.169.061-.934.746-.933.278,0,.552-.273.835-.289,2.262-.129,4.547-.072,6.782-.382,1.9-.263,3.806-.047,5.66-.331,1.633-.25,3.28-.019,4.856-.319,1.635-.311,3.271-.047,4.859-.316a19.535,19.535,0,0,1,3.738-.264c.806.018,1.143-.3,1.126-1.108-.03-1.448-.015-2.9-.006-4.346.006-.937.414-1.539,1.083-1.64.743-.112,1.177.221,1.481,1.238.159.531.213,1.092.333,1.634a45.077,45.077,0,0,1,.549,6.181c.193,2.388.49,4.864-.213,7.27-.116.4.066.876-.044,1.275a1.191,1.191,0,0,1-.648.717.9.9,0,0,1-.781-.333,4.254,4.254,0,0,1-.47-1.248,14.95,14.95,0,0,1-.664-4.723,2.535,2.535,0,0,0-.257-.853c-.406-1.207-.765-1.431-1.855-1.137-.237.064-.455.256-.688.271-2.047.126-4.1.225-6.144.333a51.251,51.251,0,0,0-6.137.371C668.231,1418.154,665.7,1417.842,663.012,1417.982Z" transform="translate(-294.094 104.37)"></path><path d="M1414.973,1411.89a45.532,45.532,0,0,0,5.965-.385,32.323,32.323,0,0,1,3.9-.257c1.67-.114,3.34-.254,5.012-.3a6.045,6.045,0,0,1,1.792.314,1.251,1.251,0,0,1,1.041,1.35,1.305,1.305,0,0,1-1.028,1.21,13.641,13.641,0,0,1-2.147.627c-1.231.179-2.479.259-3.723.336a50.531,50.531,0,0,0-6.125.394c-1.482.277-2.927.12-4.38.259-4.558.438-9.128.286-13.694.334-1.091.011-2.171-.4-3.277-.034-.3.1-.625.133-.763-.463-.358-1.552-1.2-2.984-1.239-4.623-.025-.949.309-1.454,1.079-1.6.789-.152,1.073.526,1.429,1.024a2.855,2.855,0,0,1,.376.806c.163.525.13,1.238.472,1.541.306.271,1.01.141,1.534.108,2.266-.139,4.534-.027,6.808-.161A60.327,60.327,0,0,1,1414.973,1411.89Z" transform="translate(-914.69 102.412)"></path><path d="M1204.743,1351.043c-.107-4.351,0-8.561-.374-12.727-.5-5.591-.043-11.176-.3-16.755-.056-1.215.824-1.63,1.432-2.306.065-.072.473.057.633.2a3.023,3.023,0,0,1,.864,2.209c.453,5.47.271,10.952.332,16.43.062,5.638.193,11.276.324,16.913.022.922.3,1.842.287,2.761-.012,1.189-.18,2.378-.311,3.564-.02.179-.236.329-.3.513-.226.618-.538,1.261-1.283,1.081-.7-.169-.986-.751-1-1.56C1204.988,1357.976,1204.85,1354.59,1204.743,1351.043Z" transform="translate(-753.4 177.748)"></path><path d="M960.271,1345.236c.107-2.1.195-4.038.333-5.973a6.051,6.051,0,0,1,.377-1.929c.155-.362.339-1.058,1.057-.782.187.072.44.246.47.408.273,1.508.542,3.016.74,4.541.323,2.489-.037,4.978.281,7.425.558,4.3.18,8.594.266,12.889.087,4.337.019,8.678.019,13.017,0,.214.083.484-.015.633-.312.472-.234,1.281-1.07,1.324a2.148,2.148,0,0,1-1.485-1.419c-.126-1.347-.218-2.7-.328-4.045-.437-5.306-.069-10.637-.4-15.932C960.3,1352.052,960.423,1348.726,960.271,1345.236Z" transform="translate(-548.853 163.271)"></path><path d="M1265.02,1404.61c-.107-3.01,0-5.889-.388-8.7a66.607,66.607,0,0,1-.233-6.95,6.364,6.364,0,0,1,.375-2.248c.14-.4.648-.962.965-.946a1.644,1.644,0,0,1,1.173.86,11.332,11.332,0,0,1,.673,2.612c.463,2.832.077,5.721.405,8.538.285,2.438.157,4.849.229,7.27a8.088,8.088,0,0,1-.336,2.428,1.614,1.614,0,0,1-.912.948c-.264.088-.767-.236-1.028-.506a2.412,2.412,0,0,1-.624-1.832A8.8,8.8,0,0,0,1265.02,1404.61Z" transform="translate(-804.018 121.927)"></path><path d="M1334.777,1407.066a25.984,25.984,0,0,1-.64-7.431,4.29,4.29,0,0,1,1.037-2.773c.64-.716,1.155-.67,1.509.242a18.554,18.554,0,0,1,.971,3.442c.392,2.206.764,4.425.955,6.655a52.375,52.375,0,0,1,.019,5.449,1.207,1.207,0,0,1-1.049,1.17,1.256,1.256,0,0,1-1.488-.884,28.688,28.688,0,0,1-.98-3.441A21.932,21.932,0,0,1,1334.777,1407.066Z" transform="translate(-862.505 113.031)"></path><path d="M1040.091,1400.632a41.46,41.46,0,0,1-.629-7.6,6.84,6.84,0,0,0-.665-3.1,6.523,6.523,0,0,1-.608-3.585,2.946,2.946,0,0,1,.758-1.436,1.262,1.262,0,0,1,2.109.369,7.568,7.568,0,0,1,.675,2.3c.375,2.163.242,4.387.9,6.522a8.494,8.494,0,0,1,.036,2.4c0,1.553-.022,3.105.013,4.657a.81.81,0,0,1-.567.894c-.514.257-.871.293-1.223-.137A6.462,6.462,0,0,1,1040.091,1400.632Z" transform="translate(-614.184 123.007)"></path><path d="M1124.5,1408.362c-.107-.277-.306-.39-.308-.508-.022-1.279-.061-2.561.007-3.837a1.377,1.377,0,0,1,.927-1.421c.587-.125,1.292-.189,1.687.515a1.563,1.563,0,0,1,.253.531c.126,1.18.208,2.365.34,3.544a12.147,12.147,0,0,0,.292,1.316c.294,1.3-.433,2.348-.879,3.457-.043.106-.579.169-.73.051A3.571,3.571,0,0,1,1124.5,1408.362Z" transform="translate(-686.36 107.872)"></path><g transform="translate(0 387)"><path d="M-6245.874-2174.053c1.726.415,14.015,11.47,14.86,12.215s8.815,14.99,8.815,14.99l-4.087,4.446-4.729,4.26-1.164,12.081s4.446,13.415,5,13.671,8.454,7.287,9.324,7.306,10.327.82,10.327.82,6.79-1.213,7.094-1.815,0-4.469,0-4.469l1.277-2.875s7.865-1.337,8.708-1.12,6.972,4,6.972,4l7.044,10.917v10.109s-2.356,9.328-2.956,9.487-4.408,2.127-7.117,2.772a64.649,64.649,0,0,1-7.967.977l-11.092-.977-17.619-10.632-21.787-22.653-9.331-26.247v-18.034l5.442-16.837Z" transform="translate(6514 3261)"></path><path d="M27.089,108.136c-.322,1.744-.977,3.347-.887,4.906a38.6,38.6,0,0,0,1.259,6.859,23.289,23.289,0,0,0,1.6,4.48,9.406,9.406,0,0,0,1.991,3.054A38.062,38.062,0,0,1,37.26,134.5a4.816,4.816,0,0,0,2.207,1.589,18.17,18.17,0,0,0,8.451,1.325,22.05,22.05,0,0,0,6.577-1.586,1.664,1.664,0,0,0,.807-1.905,31.714,31.714,0,0,1-.508-3.328,2.158,2.158,0,0,1,1.36-2.187,8.159,8.159,0,0,1,4.3-1.3c.807.036,1.643-.352,2.438-.27a29.035,29.035,0,0,1,12.971,4.056,27.5,27.5,0,0,1,6,4.864,18.678,18.678,0,0,1,4.241,7.084,10.064,10.064,0,0,1,.566,2.832,9.837,9.837,0,0,0,.342,1.942,7.231,7.231,0,0,1,.266,1.011c.041.749-.023,1.5.019,2.252.152,2.7-1.164,4.848-2.554,6.995a24.626,24.626,0,0,1-3.775,4.705,20.722,20.722,0,0,1-5.344,3.8c-2.209,1.022-4.395,2.175-6.936,2.312-1.528.082-3.054.63-4.559.553a31.386,31.386,0,0,1-4.1-.5,30.349,30.349,0,0,1-4.062-.726c-.846-.279-1.681-.6-2.5-.964-2.63-1.162-5.287-2.275-7.861-3.553-2.055-1.02-4.019-2.228-6-3.4-1.471-.87-2.938-1.757-4.335-2.738-1.47-1.032-2.858-2.181-4.276-3.286q-2.253-1.756-4.491-3.531a10.051,10.051,0,0,1-.8-.792c-1.669-1.669-3.356-3.321-5-5.011a64.188,64.188,0,0,1-6.87-8.407c-1.548-2.245-2.98-4.537-4.3-6.919A96.359,96.359,0,0,1,4.479,118a82.607,82.607,0,0,1-2.774-8.82c-.583-2.156-.643-4.449-1.029-6.665A45.7,45.7,0,0,1,.088,91.833a35.847,35.847,0,0,1,1.435-8.882,49.7,49.7,0,0,1,3.541-8.677,2.316,2.316,0,0,0,.125-1.07,5.175,5.175,0,0,1,2.548-4.343,8.288,8.288,0,0,1,4.8-1.534,10.152,10.152,0,0,1,5.1,1.586,33.552,33.552,0,0,1,7.875,6.968,49.835,49.835,0,0,1,7.691,12.248c1.13,2.483,2.366,4.925,3.334,7.469a10.381,10.381,0,0,1,.9,4,2.155,2.155,0,0,1-1.344,2.087,14.95,14.95,0,0,1-5.118,1.637,1.8,1.8,0,0,0-1.667,1.066c-.621,1.256-1.468,2.4-2.219,3.753M18.235,75.617a24.141,24.141,0,0,0-4.275-3.667c-1.918-1.168-2.351-1.169-3.573.576-.052.074.007.227-.046.3A26.147,26.147,0,0,0,7.63,78.143,33.865,33.865,0,0,0,4.62,89.751a61.771,61.771,0,0,0,.162,9.854c.222,2,.548,3.995.748,6a15.859,15.859,0,0,0,.484,2.533,66.125,66.125,0,0,0,2.713,8.856c1.068,2.508,1.992,5.08,3.106,7.567a43.909,43.909,0,0,0,2.612,4.872c1.338,2.2,2.735,4.361,4.216,6.461a48.539,48.539,0,0,0,3.173,3.841c1.5,1.72,2.943,3.5,4.584,5.08,2.11,2.025,4.358,3.914,6.613,5.78,1.656,1.37,3.394,2.646,5.145,3.895,2.02,1.44,4.041,2.892,6.16,4.177a48.187,48.187,0,0,0,6.59,3.51c2.615,1.073,5.384,1.773,8.091,2.619a5.432,5.432,0,0,0,1.475.313c1.877.037,3.756.018,5.634.012a4.172,4.172,0,0,0,1.1-.064,35.131,35.131,0,0,0,5.681-1.833,5.153,5.153,0,0,0,2.8-2.789c.519-1.287,1.118-2.544,1.594-3.847,1.083-2.963,2.395-5.884,1.948-9.177a12.819,12.819,0,0,0-.133-1.558,20.009,20.009,0,0,0-5.36-8.873c-1.649-1.675-3.53-3.12-5.281-4.7a2.61,2.61,0,0,0-2.02-1.018,23.541,23.541,0,0,1-2.48-.541,37.236,37.236,0,0,0-4.494-.026c-.719.037-.857.505-.68,1.278.115.5.076,1.036.169,1.544a5.075,5.075,0,0,0,.432,1.587c.68,1.2.693,1.475-.065,2.442a9.11,9.11,0,0,1-3.726,2.673,17.271,17.271,0,0,1-6.826,1.4c-1.5-.012-3.007.042-4.507-.018a12.487,12.487,0,0,1-2.9-.371,20.4,20.4,0,0,1-8.844-5.022,33.973,33.973,0,0,1-4.754-5.749,32.753,32.753,0,0,1-4.147-9.216,22.01,22.01,0,0,1-1.064-7.132c.123-1.94-.007-3.875.276-5.831a10.19,10.19,0,0,1,2.577-5.7,27.731,27.731,0,0,1,5.291-4.69,1,1,0,0,0,.537-1.2,10.761,10.761,0,0,0-.685-1.647c-1.79-3.232-3.664-6.419-5.394-9.682a45.423,45.423,0,0,0-6.939-9.748M82.147,145a9.089,9.089,0,0,1,.307,1.631c.021,2.526.222,5.077-.939,7.463a4.912,4.912,0,0,0-.322,1.306.424.424,0,0,0,.182.366.438.438,0,0,0,.407-.118c.672-1.323,1.347-2.647,1.959-4a2.461,2.461,0,0,0,.295-1.453c-.153-.6-.766-1.1-.876-1.7-.1-.57.648-1.152.029-1.852a1.816,1.816,0,0,1-.373-1.264c.162-1.5-.837-2.55-1.327-3.794-.052-.133-.29-.193-.441-.286-.048.176-.184.388-.13.522C81.306,142.783,81.733,143.729,82.147,145Z" transform="translate(256.827 1017.592)"></path></g></g></g></svg>