<svg xmlns="http://www.w3.org/2000/svg" width="59" height="59" viewBox="0 0 59 59"><g id="Group_17702" data-name="Group 17702" transform="translate(-992 -2181)"><g id="Rectangle_5485" data-name="Rectangle 5485" transform="translate(992 2181)" stroke="#151515" stroke-width="2"><rect width="59" height="59" rx="7" stroke="none"></rect><rect x="1" y="1" width="57" height="57" rx="6" fill="none"></rect></g><g id="Group_17682" data-name="Group 17682"><path id="Rectangle_5486" data-name="Rectangle 5486" d="M2,0H12a2,2,0,0,1,2,2V12a2,2,0,0,1-2,2H0a0,0,0,0,1,0,0V2A2,2,0,0,1,2,0Z" transform="translate(1002 2195)" fill="#fff"></path><path id="Rectangle_5487" data-name="Rectangle 5487" d="M2,0H12a2,2,0,0,1,2,2V12a2,2,0,0,1-2,2H0a0,0,0,0,1,0,0V2A2,2,0,0,1,2,0Z" transform="translate(1016 2213) rotate(90)" fill="#fff"></path><path id="Rectangle_5488" data-name="Rectangle 5488" d="M2,0H19a2,2,0,0,1,2,2V19a2,2,0,0,1-2,2H0a0,0,0,0,1,0,0V2A2,2,0,0,1,2,0Z" transform="translate(1041 2202) rotate(90)" fill="#fff"></path><path id="Path_28184" data-name="Path 28184" d="M11.245,14.791V8.83a.957.957,0,0,0-.955-.955H4.33a.957.957,0,0,0-.955.955v5.963a.957.957,0,0,0,.955.955h5.963A.96.96,0,0,0,11.245,14.791ZM5.819,12.168,6.832,13.6l1.491-2.146,1.968,2.862H4.33Z" transform="translate(1001.648 2190.441)"></path><path id="Icon_ionic-md-videocam" data-name="Icon ionic-md-videocam" d="M8.429,9.657v-1.5a.433.433,0,0,0-.437-.427h-5.3a.433.433,0,0,0-.437.427v4.271a.434.434,0,0,0,.437.428h5.3a.434.434,0,0,0,.437-.427v-1.5l1.685,1.708v-4.7Z" transform="translate(1002.773 2209.607)"></path><path id="Icon_material-location-on" data-name="Icon material-location-on" d="M11.406,3A3.9,3.9,0,0,0,7.5,6.906c0,2.929,3.906,7.254,3.906,7.254s3.906-4.324,3.906-7.254A3.9,3.9,0,0,0,11.406,3Zm0,5.3A1.395,1.395,0,1,1,12.8,6.906,1.4,1.4,0,0,1,11.406,8.3Z" transform="translate(1019.5 2203.461)"></path></g></g></svg>