<svg xmlns="http://www.w3.org/2000/svg" id="Layer_1" data-name="Layer 1" viewBox="0 0 570 380"><defs><style>.cls-1{fill:#cce3ff;}.cls-2{fill:#e9c869;}</style></defs><path d="M457.35,71.86a9.21,9.21,0,0,0-6.74-8.4A50.42,50.42,0,0,0,440.4,61.7c-6.82-.27-13.66,0-20.49-.07-14.5-.17-29-.58-43.5-.6q-28.77-.06-57.48-1.71c-10.88-.64-21.78-.94-32.68-1.17-6-.13-12,.14-18,.36-15,.56-29.92,1.24-44.89,1.8-13.4.51-26.82.93-40.23,1.37a29.87,29.87,0,0,1-3.15-.29c8.32-7.43,11.08-16.69,11.46-26.81.38-9.89-3.4-18.24-11.31-24-6.37-4.65-13.47-8.33-21.72-8.71a5.11,5.11,0,0,1-2.06-.56,5.05,5.05,0,0,0-4.5-.06c-2.09.88-4.24,1.66-6.27,2.66-2.9,1.42-5.68,3.07-8.57,4.5a23.5,23.5,0,0,0-8.56,7c-10.38,13.89-11.61,28.94-5.69,44.9.28.73.52,1.48.87,2.48-1.39.06-2.44.14-3.48.16-4.32.09-8.63.19-12.94.24-4.16,0-7.58,2.12-10.86,4.27a9.93,9.93,0,0,0-2.86,4,26.57,26.57,0,0,0-1.46,4.79C89.79,85,89.71,94,89.39,103c-.36,10.29.12,20.61.22,30.91,0,2.62,0,5.24,0,7.86a63.5,63.5,0,0,0-20.73,10.75c-3,2.36-3.11,2.37-1.49,5.8a7.64,7.64,0,0,1,.68,5.22c-1.3,5.44-5.45,7.83-10.87,6.23-3.17-.94-3.16-.93-4.72,1.9a64.88,64.88,0,0,0-7.68,24.17c-.18,1.5-.29,3-.46,4.76,1.53.28,2.69.47,3.84.72a8.68,8.68,0,0,1,6.17,4.53,6.16,6.16,0,0,1,.7,4.07c-.89,3.16-2.47,6.08-5.89,7.2-1.91.63-2.35,1.87-2,3.58a17.69,17.69,0,0,0,.78,2.76,63.16,63.16,0,0,0,9.41,17.7c3.22,4.24,3.21,4.24,8.08,2.41,6.6-2.49,12.68,2.43,11.52,9.35a14.13,14.13,0,0,1-.79,2.75c-.69,1.7-.21,2.55,1.55,3.24,4.1,1.59,8.1,3.45,12.28,5.26.43,5.62.7,11.24,1.35,16.82a40.73,40.73,0,0,0,2.15,10.13C96.54,299,102.11,304,111,304.14c8,.12,16,0,24.06-.05,16.06-.17,32.1-.6,48.11-2a75.34,75.34,0,0,1,12.2.16c11.84.91,23.67,1.66,35.54.92a30.29,30.29,0,0,1,3.27.16c-.9,6.36-1.72,12.29-2.58,18.21-.51,3.52-2.42,6-5.84,7-3.89,1.12-7.85,2.08-11.83,2.81-3.76.68-7.6.94-11.4,1.45-2.2.29-4.48,1-5.53,3a89.45,89.45,0,0,0-4.93,11.1c-.62,1.69.34,2.45,2.4,2.48,1.8,0,3.6,0,5.39,0,20.62.2,41.24.71,61.85.54,29.84-.25,59.67-1.76,89.52-.87a14,14,0,0,0,2.51-.12c2.52-.4,3.26-1.48,2.66-4-1.37-5.83-4.34-10.1-10.81-10.89-1.31-.15-2.61-.37-3.91-.54-4.74-.65-9.52-1.08-14.22-2-6.48-1.22-10.23-5.36-11.43-11.82-.28-1.53-.57-3.07-.72-4.61-.45-4.73-.85-9.46-1.29-14.45,25.5-.7,50.44,1.06,76.21,1.53l0,0a3.46,3.46,0,0,1,.56,0,7.05,7.05,0,0,1,1.3-.1,7.14,7.14,0,0,1,1.36.18h0a5.48,5.48,0,0,1,1.24.14,6.76,6.76,0,0,1,1.85-.18c9,.23,18,.14,27,.43,7.36.25,14.06-2.48,21-4a12.61,12.61,0,0,0,2-.89c3.82-1.65,5.66-4.67,5.93-8.7.16-2.37.17-4.76.23-7.14.35-13.9.92-27.79,1-41.69s-.57-27.56-.51-41.34q.18-39.19.84-78.38c.22-14.24.38-28.5,3.22-42.57A24.27,24.27,0,0,0,457.35,71.86ZM121.82,48.78c-.31-5.43-.81-10.88,1-16.37ZM243.55,60.64c16.05-.49,32.1-1.19,48.14-1.06,14.36.12,28.71,1.31,43.07,1.89,11.85.48,23.71.77,35.57,1.14a13.53,13.53,0,0,1,1.79.16c-50,1.19-99.92-.7-149.71-.85C229.45,61.48,236.5,60.86,243.55,60.64Zm-65.5-.43a107.59,107.59,0,0,0,11.43-28.85C189.48,42.52,187.41,52.84,178.05,60.21Zm8.12-27.12c-1.71-8.14-3.24-16.37-10.75-22.2C184.44,14.45,188.47,22.79,186.17,33.09Zm-59.49,7.62A71,71,0,0,1,130,22.37a12.78,12.78,0,0,1,3.81-5.95c2.1-1.78,4.23-3.52,6.38-5.25,4.41-3.55,9.53-4.84,15.11-4.69a36.73,36.73,0,0,1,16.19,4.18,18.37,18.37,0,0,1,8.16,7.87,37.85,37.85,0,0,1,4.22,21.19c-.68,7-4.29,12.41-9.14,17A65.52,65.52,0,0,1,153.55,70.1c-9.36,3.72-21-1.67-24.7-11C126.5,53.16,126.29,46.94,126.68,40.71ZM176,58.84c-3.84,5.92-8.49,9.83-16.09,10.93C165.55,66,170.5,62.58,176,58.84ZM124.94,34.66V53.13A44.85,44.85,0,0,1,124.94,34.66ZM90.86,99.48c.12-7.73.43-15.56,2.51-23.13.3-1.09.66-2.16,1.21-4,1.27,25.92,1.14,51,.73,76.58-2.65-1.31-4.11-2.77-4.13-5.31C91,128.92,90.62,114.2,90.86,99.48ZM99,153.88c-5.09.86-8.58-1.15-10.38-5.69C91.41,151.26,94.64,153.55,99,153.88Zm-10.59-6-2.55-1C87.67,146.1,88.22,146.71,88.42,147.86Zm-5.74.85L70.48,157C71.74,154.13,76.25,151,82.68,148.71ZM71.37,164.62c1.42,5-2,9.26-7.15,8.85A13.51,13.51,0,0,0,71.37,164.62Zm-22.62,32-.59-.1q.75-4.29,1.49-8.59l.64.1Zm3.27,23a18.74,18.74,0,0,0,4.07-3.93c2.9-3.94,3.87-8.17.54-12.91,2.21-.05,2.9,1.21,3.47,2.4,1.59,3.37.94,6.54-1.31,9.35s-4.61,5.41-7.14,8.35C50.63,221.37,50.75,220.57,52,219.64Zm9.12,20.77c1-1.44,2.23-1.08,4-.95C63.65,240.41,62.76,241.38,61.14,240.41Zm20,13.11c0,1,.08,1.73.12,2.73C80.11,255.11,80.11,255.11,81.09,253.52Zm5.12,5.29c-1.86-.54-2.94-1.4-3.11-3.69-.93-13-12-18-21.39-17.42-.47,0-.94,0-1.59,0q-3-6.33-5.91-12.62c-.61-1.3-.07-2.3.76-3.26,1.72-2,3.44-4,5.14-6a10.48,10.48,0,0,0,2.51-6.93c.06-4-1.52-6.95-5.31-8.52q-2.33-1-4.66-1.9a2.21,2.21,0,0,1-1.71-2.41,68.16,68.16,0,0,1,6.29-22.47c1.77.64,3.29,1.29,4.87,1.75a8.39,8.39,0,0,0,10.73-5.24,13.28,13.28,0,0,0,.71-8.79c-.3-1-.59-2-1-3.46A133.84,133.84,0,0,1,86.13,149c.68.78,1,1.11,1.3,1.49,5.19,7.37,12.77,7.27,19.31,2a36.27,36.27,0,0,0,5.42-5.72c2.12-2.67,4.46-3.68,7.82-2.46,2.8,1,5.75,1.63,8.63,2.45,3.26.93,4.26,1.91,4.28,5.28,0,10,5.64,13.35,13.65,14.32,2,.24,4.05.41,6.07.62a4.48,4.48,0,0,1,4.28,3.67c.91,3.46,2,6.87,3.13,10.6-.37.42-.9,1-1.44,1.62-4.2,4.59-4.64,10.86-.7,15.71a40.1,40.1,0,0,0,6.83,6.3c2,1.57,3,3.16,2.27,5.78-.92,3.34-1.61,6.75-2.36,10.14-.42,1.86-1.33,2.71-3.43,2.83a16.76,16.76,0,0,0-10.55,3.94c-4.43,3.95-5.91,8.85-5.1,14.57.24,1.66.64,3.29,1,4.92a2.06,2.06,0,0,1-1.2,2.66l-1.32.57-14.09,6c-4-6.69-10.32-7.83-17.22-6.93-7.35,1-12.11,4.88-12.46,12.92a27.82,27.82,0,0,1-3.37-.41C93.32,260.92,89.77,259.84,86.21,258.81Zm23.07-111.36c.77-4.19.77-4.19,4-4.72C111.79,144.46,110.67,145.8,109.28,147.45ZM151.39,244A10.79,10.79,0,0,1,155,232.65a6.38,6.38,0,0,1,6.64-1.47c3,1,3.29.74,4.62-2.17A64,64,0,0,0,172,203.58a19.66,19.66,0,0,0-.18-2l-3.37-1c-5.54-1.64-7.69-6.42-5.06-11.54a17.14,17.14,0,0,1,2.86-3.63,25,25,0,0,1,2.66-2.2,64.45,64.45,0,0,0-13.64-23.57,4.19,4.19,0,0,0-4.14-1.46,36.43,36.43,0,0,1-5,.62c-5.94.12-9.43-3.62-9-9.49l.26-3.44c-3-1.22-5.83-2.52-8.76-3.52s-6-1.71-9.3-2.64c0-1.22,0-2.51,0-3.8.16-13.89,1-27.79-.08-41.69-.3-3.92,0-7.87,0-12.08a13.78,13.78,0,0,1,1.88-.29c21.33-.4,42.66-.93,64-1.16,33.09-.36,66.17-.79,99.25-.68,36.44.12,72.88.9,109.32,1.22,10.3.09,20.61-.43,30.91-.65,2.26,0,4.51,0,6.76,0,1.33,5.36,1.34,163.63,0,172.38-2.28.17-4.64.52-7,.49q-31.1-.42-62.19-1c-22.77-.39-45.54-1.21-68.31-1.17-33.44.07-66.88.78-100.32,1.11-13.79.14-27.57,0-41.36,0-.91,0-1.82-.11-3.54-.22,1.93-1.5,3.15-2.44,4.46-3.47A49.26,49.26,0,0,1,151.39,244Zm-3.18-7.4c-.1.22-.16.46-.27.67s-.17.14-.26.22c0-7.38,6.64-12.36,16-12,0,1.18-.21,2.27-1.75,2.05C154.63,226.52,150.81,230.62,148.21,236.6Zm13-58.15a71.43,71.43,0,0,1-2.29-7.25,24.55,24.55,0,0,1,5.64,10.63c-5.16,6-5.52,6.87-5.82,13.85-1.65-1-1.66-2.58-1.7-4-.09-3,.69-5.81,3.11-7.68C162.31,182.34,162.16,180.69,161.18,178.45Zm-6-12.95c-6.76-1.15-13.86.13-18.47-6.44.6.38,1.2.75,1.79,1.14A13,13,0,0,0,148.76,162C151.83,161.31,153.74,162.23,155.18,165.5ZM129.89,259,126.58,260c-1.81-5-5-8.46-10.47-8.34-6.81.15-11.44,3.61-13.52,10.31-.08-5.12,2.12-8.38,7-9.95a19.34,19.34,0,0,1,11.24-.56,10.85,10.85,0,0,1,6.39,4.28C127.93,256.8,128.83,257.72,129.89,259ZM163,302q-18.33.34-36.64.72c-3.83.08-7.66.21-11.49.41-13.83.72-20.23-7.79-21.79-18.15-1-6.59-1.25-13.29-1.91-20.68l5.36,1.18c.15,2.06.26,4,.43,5.85.49,5.36,1,10.72,1.53,16.07a19.56,19.56,0,0,0,1,4.17c2.25,6.68,6.77,9.63,13.86,9.61,18.09,0,36.18.07,54.26.13a1.63,1.63,0,0,1,1.43.69C167.06,302,165,301.94,163,302Zm44.61-.63h24.81C228.75,302.5,216.71,302.64,207.63,301.34Zm118.22,32.32c4.17,1,8.47,1.41,12.73,2,2.36.34,4.78.42,7.12.88,4.9,1,6.85,3.19,7.56,8.2.07.46.21.91.42,1.79h-4.63c-18.2,0-36.41,0-54.62.15-16.41.13-32.81.6-49.22.7-13.53.08-27.07-.13-40.61-.26-3.2,0-6.39-.31-10.08-.5,1.28-3,2.29-5.53,3.44-8s3.42-3.25,5.87-3.57c4.27-.55,8.6-.8,12.83-1.56A73.37,73.37,0,0,0,227,330.74a9.63,9.63,0,0,0,6.81-8.08c1-6.26,1.83-12.54,2.74-18.82.12-.82.26-1.64.44-2.75,1.06-.11,2.1-.31,3.13-.33,6.11-.11,12.22-.14,18.33-.27q25-.54,49.93-1.13c1.19,0,2.38,0,3.27,0,.17,3.13.21,6.29.55,9.42.45,4.27.91,8.57,1.77,12.78C315.32,328,319.44,332.17,325.85,333.66Zm12.89-34.25H324.41v0h14.42Zm15,0,76.19.95,0,.9C404.56,301.21,379.14,301.08,353.75,299.38Zm93-4.5-.54-.5,2.09-2.23.6.54Zm2-6.91a3.93,3.93,0,0,1-.71,2c-3.2,3.95-6.68,7.68-12.26,7.65q-31.63-.15-63.28-.53c-25.17-.32-50.32-.87-75.5.17-19.39.8-38.82.78-58.23,1.06-20.38.28-40.75.63-61.13.66-17.85,0-35.71-.34-53.57-.51-3.7,0-7.41,0-11.12.08-6,.07-9.07-2.07-11-7.79-1.59-4.68-1.78-9.57-2.12-14.68H449a13.27,13.27,0,0,1,.41,2.57Q449.15,283.32,448.75,288Zm2.12-19.82-.58,0c-.3-5.84-.52-11.68-.9-17.52-.53-8.23-1.28-16.45-1.73-24.68-.3-5.62-.51-11.26-.29-16.87.49-12.55,1.26-25.08,1.93-37.62q.57-10.74,1.15-21.47l.42.14Zm1.49-187.36c-.25,8.74-.49,17.48-.79,26.22-.2,6-.4,12-.75,17.94-.5,8.49-1.17,17-1.71,25.44-.43,6.69-.75,13.39-1.15,20.08-.58,9.68-1.38,19.35-1.72,29q-.42,12,.06,24.08c.41,10.4,1.26,20.79,1.89,31.18.26,4.19.46,8.38.63,12.57.07,2,0,4,0,6.44l-349.3-.55c-.11-2.5-.21-4.71-.31-7.09,1.32,0,2.25,0,3.18,0s1.87.16,3.11.27c.3-1.24.6-2.36.84-3.5a9.41,9.41,0,0,1,10.17-7.74c3.09.18,5,1.91,6.18,4.71,2,4.7,2.07,4.84,6.91,2.83a116.4,116.4,0,0,0,12.25-6,12.59,12.59,0,0,1,6.42-1.74c20.14,0,40.28.19,60.41-.25,38.36-.84,76.72-1.42,115.08-.91,18.81.25,37.61,1.43,56.43,1.76,17,.3,34,0,51.05,0a21.16,21.16,0,0,0,2.45-.31,48.78,48.78,0,0,0,.58-4.9c.27-12.58.69-25.17.66-37.75-.08-34.88-.36-69.77-.55-104.65-.05-8.63,0-17.26-.06-25.89,0-4.1-.69-4.44-4.64-4.29-12.1.46-24.2,1.07-36.3,1-26.73-.08-53.46-.61-80.19-.78q-37.93-.24-75.87-.11-36.33.07-72.65.45c-15.1.17-30.2.69-45.29,1.05-.71,0-1.42.13-2.28.21a7.79,7.79,0,0,0-.58,2c0,4.68-.06,9.36.25,14,.92,14.14.48,28.27-.11,42.4a5.67,5.67,0,0,1-.43,1.28c-1.37-.12-2.77-.2-4.16-.39-3.17-.45-4.07.19-5.22,3.36a23.54,23.54,0,0,1-2.53,5.1c-1.36,2-3.4,2.92-6.37,2.49-.06-1.37-.16-2.75-.16-4.13.07-13.9.27-27.81.2-41.71,0-8.5-.55-17-.77-25.5a24.53,24.53,0,0,1,.39-5c.82-4.36,3.87-7.44,8.27-7.73,6-.41,12-.35,17.94-.55,1.41,0,2.13.72,2.9,1.71a17.58,17.58,0,0,0,10.51,6.4c5.64,1.23,11.24,2.21,17.08,1.34,5.08-.75,9.85-2.19,14-5.26a20.31,20.31,0,0,1,12.65-4c20.38-.1,40.75-.85,61.13-.86,21.21,0,42.43.79,63.64.81,27.33,0,54.66-.36,82-.6q10.6-.09,21.22-.32c6.71-.15,13.41-.5,20.12-.55,4.9,0,9.83,0,14.71.47,5.58.5,8.28,3.49,8.69,9.12C452.61,76,452.42,78.39,452.36,80.79Zm3.24-2.27-1.92-11.7C457.18,70.46,456,74.55,455.6,78.52Z"></path><path d="M534,37.2c-.24,7.87-1.3,14.59-4,21a27.13,27.13,0,0,1-3,5.7c-7.15,9.62-15.78,16.75-28.35,18.27s-23.43-1.84-32.47-10.75c-5.47-5.38-8-12.2-8.68-19.63a64.25,64.25,0,0,1,1.75-20.33A32.09,32.09,0,0,1,469,15a12.11,12.11,0,0,0,2.77-3.23c4.86-9.92,18.82-14.36,27.69-12.55C507.79.93,515.63,3.81,521.77,10a59.38,59.38,0,0,1,4.12,5c.37.46.47,1.22.91,1.52,5,3.43,5.6,9,6.61,14.2A52.77,52.77,0,0,1,534,37.2ZM468.3,43.55c0,3.11,0,6.22,0,9.32a12.74,12.74,0,0,0,2.21,6.71c10.07,16,35.06,18.67,47.32,2.67a59.7,59.7,0,0,0,6.78-10.94c2.41-5.2,4.23-10.67,3.31-16.64-1.44-9.31-6.12-16.61-13.09-22.83-7.63-6.82-16.1-8-25.34-4.63a52.32,52.32,0,0,0-15.9,9.6,9.85,9.85,0,0,0-3.3,5.38A78,78,0,0,0,468.3,43.55Zm18.57,35.69c-.65-.3-1.28-.63-1.93-.89-9.29-3.81-15.95-10-18.36-20.09a8,8,0,0,0-.51-1.34A41.84,41.84,0,0,1,462.4,38c.13-3.65.76-7.29,1.17-10.92a15.11,15.11,0,0,0-1.76,4.51,137,137,0,0,0-1.95,14.21C458.8,64.59,471,76.66,486.87,79.24ZM526,55.09c-5,8.46-10.95,15.85-20.74,18.89s-19,1.21-28.53-4c4.45,4.71,10.74,7.58,16.34,7.52,9.24-.1,17.54-3.2,25.17-8.24A8.67,8.67,0,0,0,520.53,67,38.13,38.13,0,0,0,526,55.09ZM503.45,3.39c-7.5-3.94-20.12-1.47-26,5.48C486.1,4.49,494.21,1.07,503.45,3.39Zm20.3,12.83c-1.52-3.38-5.31-5.73-9-8.23ZM466.11,31.79l-.87-.07-.68,9.37.67.06C465.52,38,465.82,34.91,466.11,31.79Zm65.17,3.44H531c0,1,.09,1.91.14,2.86l.26-.22C531.36,37,531.32,36.14,531.28,35.23Z"></path><path d="M410.6,360a5.66,5.66,0,1,1,.39,11.31A5.66,5.66,0,1,1,410.6,360Zm.24,2.45a3.17,3.17,0,0,0-3.16,3.17,3.13,3.13,0,0,0,3.1,3.2,3.3,3.3,0,0,0,3.24-3.14A3.36,3.36,0,0,0,410.84,362.46Z"></path><path d="M386.74,40.35a5.47,5.47,0,0,1-5.37,5.53,5.25,5.25,0,0,1-5.4-5,5.43,5.43,0,0,1,5.11-5.74A5.52,5.52,0,0,1,386.74,40.35Zm-5.52-2.58a2.76,2.76,0,0,0-2.77,2.71,3,3,0,0,0,2.72,2.84,2.78,2.78,0,0,0,2.93-2.92A2.87,2.87,0,0,0,381.22,37.77Z"></path><path d="M90.88,22.38l-4.39-2.49c-.7,1-1.37,2.09-2.17,3.06-.24.28-1,.51-1.21.36-.36-.34-.77-1-.65-1.41A38.8,38.8,0,0,1,84,18.22a35.45,35.45,0,0,1-3.11-2.52,1.59,1.59,0,0,1-.22-1.52,1.63,1.63,0,0,1,1.52-.27,27,27,0,0,1,3,1.78,33.94,33.94,0,0,1,2.14-3.22,1.61,1.61,0,0,1,1.52-.34,1.62,1.62,0,0,1,.4,1.48A35.56,35.56,0,0,1,87.8,17C88.48,19,92.12,18.85,90.88,22.38Z"></path><path d="M65.45,288.34h3.92c.29,2.62-2.39,1.79-3.1,3.28L67,296c-3.35.47-2.37-2.66-3.65-3.58H58.92c0-2.58,2.38-1.92,3.44-3.16.5-1.36-1.63-3,.08-4.55C64.82,284.71,64,287.34,65.45,288.34Z"></path><path d="M480.14,116.18a3.86,3.86,0,0,1,3.92,4.1,4.09,4.09,0,0,1-4,3.77,4,4,0,0,1-3.91-4.2A3.82,3.82,0,0,1,480.14,116.18Zm-.14,2.06c-.52.83-1.15,1.39-1.09,1.86s.83.83,1.28,1.24c.41-.46,1.14-.91,1.14-1.37S480.63,119,480,118.24Z"></path><path d="M171.25,339.44a3.07,3.07,0,0,1-3.13,3.19,3.47,3.47,0,0,1-3.16-3.3,3.54,3.54,0,0,1,3.45-3.41A3.24,3.24,0,0,1,171.25,339.44Z"></path><path d="M39,85.17a3.15,3.15,0,0,1-3-3A3.32,3.32,0,0,1,39.53,79a3.08,3.08,0,0,1,2.78,3.13A3.33,3.33,0,0,1,39,85.17Z"></path><path d="M435.7,14.74a3.07,3.07,0,1,1-6.14-.26,3.08,3.08,0,0,1,6.14.26Z"></path><path class="cls-1" d="M86.13,149c.68.78,1,1.11,1.3,1.49,5.19,7.37,12.77,7.27,19.31,2a36.27,36.27,0,0,0,5.42-5.72c2.12-2.67,4.46-3.68,7.82-2.46,2.8,1,5.75,1.63,8.63,2.45,3.26.93,4.26,1.91,4.28,5.28,0,10,5.64,13.35,13.65,14.32,2,.24,4.05.41,6.07.62a4.48,4.48,0,0,1,4.28,3.67c.91,3.46,2,6.87,3.13,10.6-.37.42-.9,1-1.44,1.62-4.2,4.59-4.64,10.86-.7,15.71a40.1,40.1,0,0,0,6.83,6.3c2,1.57,3,3.16,2.27,5.78-.92,3.34-1.61,6.75-2.36,10.14-.42,1.86-1.33,2.71-3.43,2.83a16.76,16.76,0,0,0-10.55,3.94c-4.43,3.95-5.91,8.85-5.1,14.57.24,1.66.64,3.29,1,4.92a2.06,2.06,0,0,1-1.2,2.66l-1.32.57-14.09,6c-4-6.69-10.32-7.83-17.22-6.93-7.35,1-12.11,4.88-12.46,12.92a27.82,27.82,0,0,1-3.37-.41c-3.57-1-7.12-2.07-10.68-3.1-1.86-.54-2.94-1.4-3.11-3.69-.93-13-12-18-21.39-17.42-.47,0-.94,0-1.59,0q-3-6.33-5.91-12.62c-.61-1.3-.07-2.3.76-3.26,1.72-2,3.44-4,5.14-6a10.48,10.48,0,0,0,2.51-6.93c.06-4-1.52-6.95-5.31-8.52q-2.33-1-4.66-1.9a2.21,2.21,0,0,1-1.71-2.41,68.16,68.16,0,0,1,6.29-22.47c1.77.64,3.29,1.29,4.86,1.75a8.39,8.39,0,0,0,10.74-5.24,13.28,13.28,0,0,0,.71-8.79c-.3-1-.59-2-1-3.46A133.84,133.84,0,0,1,86.13,149Zm19.6,71.66c9,0,14.8-2.92,19.36-8.29,3.23-3.79,4-8,1.38-12.6a44,44,0,0,1-2.1-4.93C120,184.46,105.81,180,96.89,186.43A24.29,24.29,0,0,0,86.6,203.06a12.37,12.37,0,0,0,5.74,13C96.93,219.1,102,220.73,105.73,220.69Z"></path><path class="cls-2" d="M155.28,6.48a36.73,36.73,0,0,1,16.19,4.18,18.37,18.37,0,0,1,8.16,7.87,37.85,37.85,0,0,1,4.22,21.19c-.68,7-4.29,12.41-9.14,17A65.52,65.52,0,0,1,153.55,70.1c-9.36,3.72-21-1.67-24.7-11-2.35-6-2.56-12.18-2.17-18.41A71,71,0,0,1,130,22.37a12.78,12.78,0,0,1,3.81-5.95c2.1-1.78,4.23-3.52,6.38-5.25C144.58,7.62,149.7,6.33,155.28,6.48Zm11.28,11.93c-2.06.21-5.3.4-8.48.9-6.73,1.07-13.43,2.36-20.16,3.44-2,.33-2.73,1.53-2.47,3.24,1.05,6.86,2,13.73,3.43,20.52.73,3.57,1.41,4,5,3.65q9.65-.91,19.21-2.52a89.06,89.06,0,0,0,11.1-2.86c2.07-.62,3.61-2,3.29-4.5-.69-5.46-1.19-11-2.2-16.37C174.39,19.06,172.8,18.15,166.56,18.41Z"></path><path d="M445.64,296.6a41.6,41.6,0,0,0,10.55,5.31c7.72,2.61,15.7,3.26,23.73,3.44,7.07.15,14.14,0,21.2,0,6.45,0,11.4,2.39,14.24,8.43a23.9,23.9,0,0,0,1.43,2.33c-1.27.78-2.45,1.57-3.69,2.27-7,4-9.47,9.68-6.92,17.25A73.31,73.31,0,0,0,512,348.73c4.6,8,9.64,15.72,14.55,23.53a22,22,0,0,0,2.45,3.09,7.28,7.28,0,0,0,6.48,2.41c8.51-.94,16.33-3.66,23-9.18,4.24-3.5,5.59-7.9,4.17-13.18a53.4,53.4,0,0,0-7.14-15.24c-4.13-6.31-8.63-12.37-13-18.51-.62-.88-1.46-1.59-2.14-2.42-5.07-6.26-11.43-7.94-19-5.23-1.79.64-3,.28-3.85-1.4-.11-.21-.29-.39-.39-.6-3.21-6.64-8.92-9-15.85-9.2-3.95-.11-7.91-.06-11.86,0-9.95.12-19.92.37-29.63-2.37A43,43,0,0,1,446.18,294,5.61,5.61,0,0,1,445.64,296.6ZM516.82,319c1.76,2.8,3.3,5.2,4.79,7.63A2.09,2.09,0,0,1,522,328c-.82,3.79,1.46,6.45,4,8.27a19.92,19.92,0,0,1,5.63,6.24c.55.92,1.22,1.88,2.81.84a12.48,12.48,0,0,0-.75-2.15c-1.18-2.11-3.16-4-1.58-6.78.23-.4-.09-1.17-.29-1.73-1.24-3.58-3-6.57-7.5-6.44L519.21,318c6.06-4,12.62-3.58,17.49,1.14,7.12,6.9,12.49,15.14,17.44,23.63a82.47,82.47,0,0,1,5.69,12c2.07,5.48.79,9-3.79,12.6-5.22,4.09-11.23,6.21-17.63,7.62-4.27.94-7.45,0-9.78-3.88-5-8.29-10.35-16.4-15.18-24.8a74.9,74.9,0,0,1-5.18-12.18c-1.69-4.71-.26-8.74,3.61-11.84C513.26,321.15,514.85,320.3,516.82,319Zm12.35,16.16c-2.82-1-3.71-3.1-4.78-5.14C527.34,328.65,529.17,330.56,529.17,335.2Z"></path><path class="cls-2" d="M468.3,43.55a78,78,0,0,1,2-21.36,9.85,9.85,0,0,1,3.3-5.38,52.32,52.32,0,0,1,15.9-9.6c9.24-3.34,17.71-2.19,25.34,4.63,7,6.22,11.65,13.52,13.09,22.83.92,6-.9,11.44-3.31,16.64a59.7,59.7,0,0,1-6.78,10.94c-12.26,16-37.25,13.29-47.32-2.67a12.74,12.74,0,0,1-2.21-6.71C468.26,49.77,468.3,46.66,468.3,43.55Zm37.29,9.78a25.87,25.87,0,0,0,.64,4,8.79,8.79,0,0,0,1.49,2.14A12.69,12.69,0,0,0,509.6,58c.39-.42.49-1.09.82-1.59a85.36,85.36,0,0,1,5.65-8.22c3.57-4.18,4.39-9,3.72-14.1-.41-3.05-2.17-4.49-5.25-5l-1.7-.27c-.57-1.08-1-2-1.57-3-3-5.3-6.4-7.06-12.47-6.32A34.58,34.58,0,0,0,482,26.27a10.2,10.2,0,0,0-4.53,8.89c.1,3.22.28,6.45.6,9.66.41,4.16,1,8.31,1.5,12.46.14,1.13-.14,2.64,1.39,3,1.76.41,2.07-1.24,2.69-2.33s1.21-2.63,2-3.78a20.51,20.51,0,0,1,2.72-2.61c3.6,5,6.18,5.84,11.63,4C501.86,55,503.58,54.16,505.59,53.33Z"></path><path d="M321.05,156.22c12.47,0,25,.05,37.62,0,10.91-.06,21.81-.46,32.71-.29,8.51.13,10.43,2.36,10.83,10.83.36,7.6-1.95,10.39-9.66,10.57-13.53.32-27.07.37-40.61.42-10.67,0-21.34-.06-32-.17a4.33,4.33,0,0,0-3.87,2c-3.77,4.95-9.09,6.85-15.1,7a13.06,13.06,0,0,1-9.67-4c-3.2-3.15-6.77-5.15-11.69-4.95-12.45.48-24.93.47-37.39.63-4.18.06-8.37.09-12.55,0a16.11,16.11,0,0,1-4.22-.78,5.36,5.36,0,0,1-4.13-5.26,48.3,48.3,0,0,1,.2-6.81c.54-4.71,2.67-7.13,7.43-7.94a86.74,86.74,0,0,1,12.86-1.29c9-.14,17.95.07,26.93.13,4.08,0,8.16,0,12.23.09a4.4,4.4,0,0,0,4-1.81c5.07-6.26,12.05-8.2,19.77-8.21.59,0,1.19.18,1.79.18,6.44-.06,10.91,3,13.71,8.67A11.36,11.36,0,0,0,321.05,156.22Zm-1.44,18.95h6.21q30.54,0,61.07-.12a68.65,68.65,0,0,0,8.24-.51c3.16-.39,4.48-1.78,4.61-4.95a31.35,31.35,0,0,0-.51-6.4c-.57-3.35-1.19-4.09-4.62-4.43a124.56,124.56,0,0,0-13.24-.61c-13.17.11-26.34.42-39.51.58-5.75.07-11.5,0-17.25,0a24,24,0,0,0-2.43.2C321.28,164.57,320.47,169.72,319.61,175.17Zm-36.73.18c-2.26-5.8-1.8-11.08-.69-16.58h-3.55c-12.8,0-25.6-.08-38.39-.05a53.33,53.33,0,0,0-7.15.47c-8.24,1.12-9.82,3.1-9.46,11.53.13,3.05.9,4.22,3.87,4.63a66.82,66.82,0,0,0,10,.68c11.71-.14,23.43-.46,35.14-.67C275.86,175.3,279.08,175.35,282.88,175.35Zm19.85-26.74c-2.41,0-5.1.32-6.82,2.27-4.28,4.88-8,10.15-8.63,17-.52,5.51,3.91,11.55,9.42,12.75a4.8,4.8,0,0,0,1.77.07,28.43,28.43,0,0,0,11.33-4.23,11.85,11.85,0,0,0,5.43-8.12,88.9,88.9,0,0,0,1-8.89,7.65,7.65,0,0,0-2.82-6.69A18.47,18.47,0,0,0,302.73,148.61Zm14.62,7.49c0,6.47.17,12.7-3,18.39C319.39,169.65,320.7,161.6,317.35,156.1Zm-3.12,23.1c-6.27,4.68-12.92,6.62-20.46,3.14C299.13,187.24,308.92,185.76,314.23,179.2Zm-28.22-14c.85-2.06,1.59-4.19,2.59-6.18s2.15-3.62,3.24-5.41C287.32,156.19,285.91,160.33,286,165.17Zm1.58,13.05c-1.31-2.73-2.7-4.92-3.41-7.32s-.85-5.26-1.32-8.56C282.33,168.54,282.09,174,287.59,178.22Zm23.32-.61-6.66,3.09A8.69,8.69,0,0,0,310.91,177.61Z"></path><path d="M369.06,118.59c4.08,0,8-.08,12,0,4.66.12,9.33.19,14,.67s5.9,1.81,6.64,6.2a40.83,40.83,0,0,1,.42,8.2,5.94,5.94,0,0,1-4.91,5.88,22.17,22.17,0,0,1-4.59.64q-13.11.42-26.22.69a7.37,7.37,0,0,0-4.6,1.52c-5.51,4.13-11.57,6.16-18.53,4.23a20,20,0,0,0-3.21-.33c-3.21-.34-6.1-1.44-8.14-4a4.52,4.52,0,0,0-4-1.75c-26.36.13-52.71.19-79.06.33-3.11,0-6.22.52-9.32.5a107.34,107.34,0,0,1-12.17-.59c-4.33-.51-6-2.61-6.05-7a39.15,39.15,0,0,1,.3-5.73c.51-4,2.55-6.84,6.63-7.47a96.84,96.84,0,0,1,13.89-1.39c19.52-.14,39.05,0,58.57,0,9.1,0,18.21,0,27.31.06a5.34,5.34,0,0,0,4.64-2c3.62-4.27,8.7-6.21,13.84-7.91a35.08,35.08,0,0,1,4.21-.93c8.09-1.54,14.15,1.57,17.77,9.11A10.65,10.65,0,0,0,369.06,118.59Zm-39.55,2.93h-4c-28.52,0-57,0-85.56.08a71.29,71.29,0,0,0-11,1.29,5.3,5.3,0,0,0-4.71,4.75,40,40,0,0,0-.48,6.07c0,3,.91,4.25,3.86,4.66a68.54,68.54,0,0,0,10,.64c4.67,0,9.33-.53,14-.57q36.68-.27,73.35-.41h4.21A25.77,25.77,0,0,1,329.51,121.52ZM334.25,134c-.46,2.9,1.37,5.45,4.29,7.59,4,2.94,8.18,3.88,12.68,1.33,3.11-1.76,6.17-3.62,9.14-5.6a11.33,11.33,0,0,0,4.66-6.63A20.81,20.81,0,0,0,363.78,116a9.79,9.79,0,0,0-10.33-5.52c-2.24.3-4.43.93-6.65,1.36a10.26,10.26,0,0,0-6.15,4.06A29.72,29.72,0,0,0,334.25,134ZM366,138.36c1.1.09,1.56.18,2,.17q12.19-.33,24.4-.7a25.43,25.43,0,0,0,3.54-.53,4,4,0,0,0,3.69-4.19,62.75,62.75,0,0,0-.78-8.52,3,3,0,0,0-2.68-2.56,22.73,22.73,0,0,0-3.87-.67c-7.29,0-14.59.06-21.88.12-.19,0-.37.25-.76.53C370.38,127.58,369.67,133.05,366,138.36ZM332.31,132c1.72-5,3.4-9.92,5.25-15.3C333.58,121.36,331.66,126.18,332.31,132Zm-2,3.85c.7,4.47,2.85,7.16,5.86,7.51Zm23.3,7.55a11.45,11.45,0,0,0,8.92-5.89Zm13.64-18.45h-.19v3h.19Z"></path><path d="M372.41,213.05c-6.47,0-12.94.06-19.41,0a5.18,5.18,0,0,0-4.64,1.86c-7.26,8.37-17.24,9.45-26.34,3.07a11.17,11.17,0,0,1-2.56-1.95c-2.34-3.05-5.49-3.19-9-3.16-19.29.18-38.58.18-57.87.33-5,0-10.06.55-15.08.57a62.77,62.77,0,0,1-10.71-.78c-4.12-.71-5.48-2.56-5.61-6.66a38.68,38.68,0,0,1,.23-5.38c.56-5,2.61-7.46,7.49-8.28a97.66,97.66,0,0,1,13.21-1.29c5.85-.17,11.72.14,17.58.13,18.81,0,37.63-.13,56.44-.14a7.8,7.8,0,0,0,4.53-1.61,41.59,41.59,0,0,1,9.12-4.84c6.75-2.3,12.81-.41,17.81,4.48a7.49,7.49,0,0,0,6.05,2.27c9.46-.31,18.93-.6,28.39-.65,4.65,0,9.31.39,13.95.79a5.56,5.56,0,0,1,5.43,5.28A54.41,54.41,0,0,1,402,206c-.13,3.3-2,5.27-5.22,6a30.84,30.84,0,0,1-6.06.69c-6.1.08-12.21,0-18.32,0Zm-55.9-19.19H311.9q-32,.09-63.95.17a141.3,141.3,0,0,0-14.71.43c-8.38.92-9.9,3-9.6,11.38.11,3.23.89,4.41,4.11,4.8a85.41,85.41,0,0,0,11.08.57c6.46-.07,12.92-.54,19.38-.58,17.25-.11,34.49-.08,51.74-.11h4.21C311.23,204.43,313.14,199.38,316.51,193.86Zm35.21,16.58c.6.05,1.19.16,1.77.15,11.73-.1,23.45-.19,35.18-.34a51.36,51.36,0,0,0,6.44-.45c3.16-.43,4.51-1.78,4.63-4.93a51.43,51.43,0,0,0-.53-6.76A4.17,4.17,0,0,0,395,194c-3.45-.29-6.91-.71-10.36-.67-10.53.13-21,.45-31.58.71a5.47,5.47,0,0,0-1,.19c.38,2.86,1,5.45,1,8A57.62,57.62,0,0,1,351.72,210.44Zm-3.56-9.26a17.83,17.83,0,0,0-2.38-9.23c-1.45-2.79-3.78-4.48-7-3.93a77.34,77.34,0,0,0-9.34,2.35c-5.62,1.7-8.63,5.68-10.41,11.23-2.58,8.06,5.43,19.34,15.13,17.47C342.37,217.49,348.14,210.43,348.16,201.18Zm-30.88-4.78c-4,3.41-4.8,12-.1,14.74C315.5,206.22,316.12,201.42,317.28,196.4Zm32-.18c.68,5.48.33,10.81-2.17,15.87C350.38,207.14,351.89,202,349.25,196.22Zm-24.58-5.32,10-3.9A12.6,12.6,0,0,0,324.67,190.9Z"></path><path d="M105.73,220.69c-3.76,0-8.8-1.59-13.39-4.66a12.37,12.37,0,0,1-5.74-13,24.29,24.29,0,0,1,10.29-16.63c8.92-6.44,23.13-2,27.48,8.44a44,44,0,0,0,2.1,4.93c2.61,4.58,1.85,8.81-1.38,12.6C120.53,217.77,114.7,220.72,105.73,220.69Zm16.57-18.85c0-4.37-.67-5.55-4.49-7.8-1.75-1-3.61-1.85-5.44-2.72-6.21-3-11.33-.67-16.09,3.35a5.58,5.58,0,0,0-2.13,5.74,33.09,33.09,0,0,0,2.39,7.07c2.58,5.21,7,7.66,12.79,7.49.71,0,1.54-.33,2.13-.08,2.61,1.14,4.3-.41,6-1.92A14.23,14.23,0,0,0,122.3,201.84ZM88.64,203c-1,5.23.65,9.17,4,10.39C91.36,210.1,90,206.52,88.64,203Zm28.47-11.72c-4-4-8.91-5.06-13.31-3C108.37,187.59,112.44,189.31,117.11,191.29Zm9.16,13.84-.55-.09-.53,2.52a1.94,1.94,0,0,0,.88-1.22A11.74,11.74,0,0,0,126.27,205.13Z"></path><path d="M274.93,280.76c3.58,0,7.17-.05,10.75,0,3,.06,3.48.45,3.77,3.49a17.93,17.93,0,0,1-.19,4.26,3.8,3.8,0,0,1-3,3.23,16.74,16.74,0,0,1-4.58.7c-6.81-.15-13.61-.4-20.41-.7-1.52-.07-3.5-.14-3.84-2a19.25,19.25,0,0,1-.08-6.6c.1-.66,1.85-1.45,2.89-1.53,4.88-.38,9.77-.54,14.66-.78Zm-15.32,8.42c8.36.56,16.34,1.25,24.36.53,2.51-.22,3-.92,3.07-3.49a25.61,25.61,0,0,0-.35-3.11l-27.36.88Z"></path><path d="M166.56,18.41c6.24-.26,7.83.65,8.74,5.5,1,5.41,1.51,10.91,2.2,16.37.32,2.5-1.22,3.88-3.29,4.5a89.06,89.06,0,0,1-11.1,2.86q-9.56,1.59-19.21,2.52c-3.61.35-4.29-.08-5-3.65-1.39-6.79-2.38-13.66-3.43-20.52-.26-1.71.45-2.91,2.47-3.24,6.73-1.08,13.43-2.37,20.16-3.44C161.26,18.81,164.5,18.62,166.56,18.41ZM147.71,32.56a46.64,46.64,0,0,0-6.13,15.81,130.08,130.08,0,0,0,32.16-5.26c-3.42-4.47-6.37-8.49-10.93-11-2.33,1.52-4.14,4.35-7.16,3.7C153,35.19,150.6,33.76,147.71,32.56ZM139,24.47a39.92,39.92,0,0,0,3.32,2.42c3.61,2.1,7.31,4.05,10.89,6.2a4.38,4.38,0,0,0,5.86-.57c3.26-3.15,6.45-6.38,9.64-9.61A35.41,35.41,0,0,0,170.91,20C159.88,20.92,149.67,21.75,139,24.47Zm36.59,17.19c-.65-7-.79-13.4-3.05-20l-7.93,8.51ZM146,31.33l-8.64-5.26c.89,6.15,1.28,11.79,2.92,17.3A60,60,0,0,0,143,37.61C143.92,35.56,144.93,33.55,146,31.33Z"></path><path d="M505.59,53.33c-2,.83-3.73,1.66-5.53,2.26-5.45,1.8-8,.93-11.63-4a20.51,20.51,0,0,0-2.72,2.61c-.83,1.15-1.32,2.54-2,3.78s-.93,2.74-2.69,2.33c-1.53-.35-1.25-1.86-1.39-3-.54-4.15-1.09-8.3-1.5-12.46-.32-3.21-.5-6.44-.6-9.66A10.2,10.2,0,0,1,482,26.27a34.58,34.58,0,0,1,16.78-6.75c6.07-.74,9.48,1,12.47,6.32.53.93,1,1.89,1.57,3l1.7.27c3.08.52,4.84,2,5.25,5,.67,5.14-.15,9.92-3.72,14.1a85.36,85.36,0,0,0-5.65,8.22c-.33.5-.43,1.17-.82,1.59a12.69,12.69,0,0,1-1.88,1.42,8.79,8.79,0,0,1-1.49-2.14A25.87,25.87,0,0,1,505.59,53.33ZM482.25,54.6c1.67-4,5.22-5.23,8.6-6.72,3.07-1.35,6.17-2.64,9.15-4.15a64.31,64.31,0,0,0,8.39-4.8c3.44-2.46,3.82-4.12,2.35-8a35.82,35.82,0,0,0-2.69-5.45A6.89,6.89,0,0,0,501.76,22c-7.3-.13-13.54,2.57-19.13,7a7.69,7.69,0,0,0-2.77,6C479.59,41.6,481.16,48,482.25,54.6Zm9-4.22c.93,3.06,2.91,3.89,5.18,3.39a58.27,58.27,0,0,0,7.36-2.55c1.16-.43,2.28-.93,3.56-1.45l1.28,3.57c2.17-2.66,4.24-5.1,6.22-7.62,2.6-3.32,3-7.19,2.46-11.2-.24-1.74-1.21-3-3.61-2.93,1.33,4.55-.93,7.44-4.15,9.57a93.72,93.72,0,0,1-9.68,5.34C497.12,47.88,494.25,49,491.25,50.38Z"></path><path class="cls-1" d="M282.88,175.35c-3.8,0-7,0-10.24,0-11.71.21-23.43.53-35.14.67a66.82,66.82,0,0,1-10-.68c-3-.41-3.74-1.58-3.87-4.63-.36-8.43,1.22-10.41,9.46-11.53a53.33,53.33,0,0,1,7.15-.47c12.79,0,25.59,0,38.39.05h3.55C281.08,164.27,280.62,169.55,282.88,175.35Z"></path><path class="cls-2" d="M302.73,148.61a18.47,18.47,0,0,1,10.69,4.11,7.65,7.65,0,0,1,2.82,6.69,88.9,88.9,0,0,1-1,8.89,11.85,11.85,0,0,1-5.43,8.12,28.43,28.43,0,0,1-11.33,4.23,4.8,4.8,0,0,1-1.77-.07c-5.51-1.2-9.94-7.24-9.42-12.75.63-6.8,4.35-12.07,8.63-17C297.63,148.93,300.32,148.65,302.73,148.61Z"></path><path class="cls-1" d="M329.51,121.52a25.77,25.77,0,0,0-.4,16.51H324.9q-36.67.19-73.35.41c-4.67,0-9.33.53-14,.57a68.54,68.54,0,0,1-10-.64c-2.95-.41-3.85-1.65-3.86-4.66a40,40,0,0,1,.48-6.07,5.3,5.3,0,0,1,4.71-4.75,71.29,71.29,0,0,1,11-1.29c28.52-.11,57-.08,85.56-.08Z"></path><path class="cls-2" d="M334.25,134a29.72,29.72,0,0,1,6.4-18.07,10.26,10.26,0,0,1,6.15-4.06c2.22-.43,4.41-1.06,6.65-1.36A9.79,9.79,0,0,1,363.78,116,20.81,20.81,0,0,1,365,130.64a11.33,11.33,0,0,1-4.66,6.63c-3,2-6,3.84-9.14,5.6-4.5,2.55-8.67,1.61-12.68-1.33C335.62,139.4,333.79,136.85,334.25,134Z"></path><path class="cls-1" d="M316.51,193.86c-3.37,5.52-5.28,10.57-2.35,16.66H310c-17.25,0-34.49,0-51.74.11-6.46,0-12.92.51-19.38.58a85.41,85.41,0,0,1-11.08-.57c-3.22-.39-4-1.57-4.11-4.8-.3-8.41,1.22-10.46,9.6-11.38A141.3,141.3,0,0,1,248,194q32-.12,63.95-.17Z"></path><path class="cls-2" d="M348.16,201.18c0,9.25-5.79,16.31-14,17.89-9.7,1.87-17.71-9.41-15.13-17.47,1.78-5.55,4.79-9.53,10.41-11.23a77.34,77.34,0,0,1,9.34-2.35c3.21-.55,5.54,1.14,7,3.93A17.83,17.83,0,0,1,348.16,201.18Z"></path><path d="M499.13,34.16A3.05,3.05,0,0,1,496,37.32a2.92,2.92,0,0,1-2.95-3c0-1.65,1.44-2.91,3.39-2.9A2.57,2.57,0,0,1,499.13,34.16Z"></path><path d="M488,34.93a2.6,2.6,0,0,1,2.61,2.77,3.22,3.22,0,0,1-3.28,3.06,2.93,2.93,0,1,1,.67-5.83Z"></path><path d="M506.38,30.6a2.79,2.79,0,0,1-2.39,3,2.74,2.74,0,0,1-2.7-2.73,2.78,2.78,0,0,1,2.41-3A2.62,2.62,0,0,1,506.38,30.6Z"></path><path d="M517.81,219.67a98.32,98.32,0,0,1-2.18,11.23A59.07,59.07,0,0,1,495,261.77c-5.72,4.46-12,7.27-19.42,7.52A23.61,23.61,0,0,1,462,265.5c-7.24-4.54-11.72-11.14-14.21-19.22-.77-2.51-1.58-5-2.59-7.44a44.43,44.43,0,0,1-1-32.3,32.75,32.75,0,0,1,11.93-16.27,58.4,58.4,0,0,1,35-11.28,16.4,16.4,0,0,1,13.64,6.79,26.87,26.87,0,0,0,4,4.08,19.91,19.91,0,0,1,5.72,8.57C516.19,203.11,517.65,211.47,517.81,219.67Zm-5.23.79c0-9.72-2.31-18.33-5.75-26.73a9.12,9.12,0,0,0-7.05-5.88c-14.19-3.15-27.32-.44-39.54,7.17-2.84,1.77-4.54,4.58-6,7.5a60.58,60.58,0,0,0-6.37,28.12,35.56,35.56,0,0,0,3.93,15.54c3.83,7.54,9.8,11.76,18.4,11.33,12.28-.62,24-3.33,34-11a10.8,10.8,0,0,0,3.17-3.7C510.79,235.55,512.81,228,512.58,220.46Zm-57.5,34.48c7.32,13.33,24.27,15.78,35.53,6.71C477.89,264.09,465.69,263.9,455.08,254.94Zm-9.74-24.37c.25-3.85.51-7.39.72-10.93.68-11.46,5-21.08,14.23-28.23a15.09,15.09,0,0,0,1.48-1.51C447.94,196.6,440.05,216.31,445.34,230.57Zm28,29.53c13,1.94,25-2.39,28.62-9.14C492.88,256.45,483.16,258.46,473.32,260.1Zm28-74.16c-2.53-2.9-4.66-4.18-7.77-4.39-7.08-.46-13.65,1.42-19.92,4.59C482.7,184.54,491.74,183,501.34,185.94Zm13.87,32.57c.53-6.16-.82-12.79-3.3-19.26C513.05,205.86,514.18,212.48,515.21,218.51Z"></path><path class="cls-2" d="M512.58,220.46c.23,7.5-1.79,15.09-5.23,22.32a10.8,10.8,0,0,1-3.17,3.7c-10,7.7-21.68,10.41-34,11-8.6.43-14.57-3.79-18.4-11.33a35.56,35.56,0,0,1-3.93-15.54,60.58,60.58,0,0,1,6.37-28.12c1.44-2.92,3.14-5.73,6-7.5,12.22-7.61,25.35-10.32,39.54-7.17a9.12,9.12,0,0,1,7.05,5.88C510.27,202.13,512.57,210.74,512.58,220.46Zm-42.64,19.41c.88.13,1.7.26,2.52.37A45.25,45.25,0,0,0,496.73,237c4.29-1.85,7.16-5,7.54-9.73a37.15,37.15,0,0,0-4.66-21.45,9.14,9.14,0,0,0-7.91-4.89c-9.66-.47-18.49,1.86-26.22,7.92-5.81,4.55-8.49,15.13-3.79,21.78a8,8,0,0,1,1,4c.15,2.87-.05,5.75.08,8.62a14.76,14.76,0,0,0,1.12,3.44C466.92,244.9,467.73,242,469.94,239.87Z"></path><path d="M469.94,239.87c-2.21,2.15-3,5-6,6.82a14.76,14.76,0,0,1-1.12-3.44c-.13-2.87.07-5.75-.08-8.62a8,8,0,0,0-1-4c-4.7-6.65-2-17.23,3.79-21.78,7.73-6.06,16.56-8.39,26.22-7.92a9.14,9.14,0,0,1,7.91,4.89,37.15,37.15,0,0,1,4.66,21.45c-.38,4.71-3.25,7.88-7.54,9.73a45.25,45.25,0,0,1-24.27,3.23C471.64,240.13,470.82,240,469.94,239.87Zm-5,1.63c.69-.25,1-.27,1.09-.42,1.59-3.51,4.15-3.58,7.66-3a40.07,40.07,0,0,0,22.11-3.1c3.7-1.59,6.16-4.34,6.31-8.44a36.14,36.14,0,0,0-4.33-19.37,7.3,7.3,0,0,0-6.76-4,54.28,54.28,0,0,0-9.62.86c-5.81,1.19-11.24,3.38-15.54,7.69s-5.85,11.42-2.91,16.19a13.61,13.61,0,0,1,2,9.41A36.84,36.84,0,0,0,464.92,241.5Z"></path><path d="M489,224.77c-2.62-2.09-2.13-5.39-3.78-8-.72.71-1.32,1.68-2.17,2s-1.74-.14-2.6-.25c-.53,2.45,1.91,4.76-.11,7.57a10.36,10.36,0,0,1-1.32-2.22c-.56-2.08-.93-4.2-1.44-6.29-.26-1.09-.64-2.38.59-2.82.78-.29,1.9.32,2.85.59a5.32,5.32,0,0,1,1.12.62,28.25,28.25,0,0,1,1.6-2.7c.92-1.26,2.23-1.27,2.79.17,1.3,3.32,2.31,6.75,3.36,10.16C489.94,223.89,489.36,224.32,489,224.77Z"></path><path d="M475.88,216.62c-2.81.75-5.42,1.26-5.24,4.6,5.29,2.3,6.76,3.95,5.73,6.37-.77,1.81-3.84,2.81-6.43,1.69l5-3.22c-1.54-.82-2.54-1.72-3.66-1.89-3.37-.53-3.82-4-2.22-6.07a13.25,13.25,0,0,1,3.47-3C473.8,214.35,475,214.72,475.88,216.62Z"></path><path d="M494.84,210.56c-.17.27-.24.54-.42.65-.93.59-2.38.6-2.19,2.31s1.42,1.62,2.53,2c2.24.82,3.37,2.77,2.89,4.71s-2.13,2.86-4.87,2.5a10.82,10.82,0,0,1,1.19-1.69c2-1.89,1.86-2.62-.69-3.58-3-1.12-4.13-3.38-2.94-6.08a4.8,4.8,0,0,1,1.54-1.91C493.28,208.52,494.31,209,494.84,210.56Z"></path></svg>