<svg xmlns="http://www.w3.org/2000/svg" width="355.834" height="492.41" viewBox="0 0 355.834 492.41"><defs><style>.a{fill:#f28f84;stroke:#707070;}.b{fill:#bf941f;}.c{font-size:15px;font-family:ProximaNova-Regular, Proxima Nova;}</style></defs><g transform="translate(-510 -2599.815)"><path class="a" d="M-3098.876,3552.194l-1.243-22.21,40.827-1.2h3.821l-3.821,5.56v19.867l-39.584,1.208Z" transform="translate(3630 -699)"></path><path class="b" d="M-2809.585,3568.625c.211-3.4-4.693-29.017,0-34.044s31.7-4.679,31.7-4.679,1.538-1.216,2.375,0,8.17,1.613,9.209,15.658,2.91,23.945-2.312,25.543-27.681,0-27.681,0S-2809.8,3572.026-2809.585,3568.625Z" transform="translate(3630 -699)"></path><path class="b" d="M-2809.585,3568.625c.211-3.4-4.693-29.017,0-34.044s31.7-4.679,31.7-4.679,1.538-1.216,2.375,0,8.17,1.613,9.209,15.658,2.91,23.945-2.312,25.543-27.681,0-27.681,0S-2809.8,3572.026-2809.585,3568.625Z" transform="translate(3347 -508)"></path><text class="c" transform="translate(663.24 2622.594)"><tspan x="0" y="0">Send Email</tspan></text><text class="c" transform="translate(524.856 2763.21)"><tspan x="0" y="0">Not opened</tspan></text><text class="c" transform="translate(529.972 2881.925)"><tspan x="0" y="0">Send SMS</tspan></text><text class="c" transform="translate(510 3088.225)"><tspan x="0" y="0">Push notification</tspan></text><text class="c" transform="translate(519.392 2955.306)"><tspan x="0" y="0">Not delivered</tspan></text><text class="c" transform="translate(812.972 2763.21)"><tspan x="0" y="0">Clicked</tspan></text><text class="c" transform="translate(646.5 2719.686)"><tspan x="0" y="0">Open not clicked</tspan></text><g transform="translate(525 2599.815)"><path d="M426.348,35.571c-1.232.075-2.391.021-3.543.089a7.072,7.072,0,0,1-4.307-.909,1.619,1.619,0,0,0-.923-.293c-2.31.248-3.324-1.692-3.521-3.682-.393-3.957-.748-7.918-1.214-11.867-.547-4.633-1.2-9.253-1.8-13.879a.767.767,0,0,1,.007-.446c.326-.517.685-1.013,1.033-1.516.457.5,1.222.956,1.315,1.519.341,2.055.45,4.148.668,6.225a2.755,2.755,0,0,0,.282.7c.2-.236.571-.465.582-.709a6.711,6.711,0,0,0-.166-2.031A5.29,5.29,0,0,1,418.585,2.2c3.331-.654,6.71-1.077,10.077-1.536,7.684-1.048,15.414-.519,23.125-.595,7.389-.073,14.779-.048,22.169,0,3.629.022,7.258.143,10.884.3,3.087.135,6.183.263,9.248.618a150.872,150.872,0,0,0,15.161.963c1.705.025,3.67-.142,5.207,1.2A3.955,3.955,0,0,1,515.711,6.4c0,4.675-.024,9.35.015,14.025.014,1.618.25,3.234.272,4.852.027,1.974-1.732,4.913-3.839,5.539-4.178,1.239-8.278,2.8-12.75,2.738-1.867-.027-3.736.233-5.606.271-6.191.126-12.383.239-18.575.294-1.767.016-3.537-.282-5.3-.266-6.343.055-12.686.167-19.028.292-2.674.053-5.347.172-8.019.3q-5.683.271-11.362.606c-1.7.1-3.395.293-5.167.52m72.019-5.354c2.128-.2,4.262-.361,6.384-.614a12.481,12.481,0,0,0,6.727-2.632,2.87,2.87,0,0,0,.842-2.29,22.535,22.535,0,0,0-1.439-4.062c-1.612-4.107-3.266-8.2-4.848-12.316-.633-1.648-.1-2.237,1.577-1.918.286.054.575.1.862.146-.144-.343-.2-.779-.451-1A2.48,2.48,0,0,0,506.79,4.9c-3.145-.44-6.291-.9-9.451-1.207-3.989-.384-7.988-.676-11.989-.908-3.17-.184-6.349-.257-9.525-.311-7.4-.125-14.794-.236-22.191-.292-2.069-.015-4.138.207-6.208.279-6.149.214-12.3.312-18.445.649a57.575,57.575,0,0,0-8.69,1.212c-2.411.509-3.3,1.112-3.213,4.075q.115,3.934.3,7.867a21.509,21.509,0,0,0,.317,3.489c.742,3.45,1.613,6.872,2.377,10.317.3,1.364.852,2.134,2.445,1.986,2.31-.215,4.639-.232,6.959-.331,4.742-.2,9.482-.484,14.226-.585,7.848-.168,15.7-.229,23.548-.317q14.865-.167,29.731-.316c.362,0,.721-.189,1.383-.289m15.083-18.1c-.05-2.036-.095-4.073-.153-6.108-.028-.978-1.821-2.139-2.6-1.646-.177.112-.223.623-.152.906q.89,3.538,1.86,7.055c.2.741.513,1.453.775,2.178a11.509,11.509,0,0,0,.272-2.384M416.771,25.843a4.016,4.016,0,0,0-.316-.918,4.779,4.779,0,0,0-.721-.741,6.336,6.336,0,0,0-.11,1.1c.035.519.167,1.031.24,1.549.207,1.469.343,2.953.644,4.4.086.413.636.73.973,1.092.166-.374.528-.786.464-1.115C417.613,29.512,417.173,27.832,416.771,25.843Z" transform="translate(-287.029 0)"></path><path d="M51.538,787.8c-2.652-1.228-5.438-.629-8.141-.854-11.465-.954-22.949-.454-34.425-.557-1.152-.01-2.218.314-3.424-.261a2.966,2.966,0,0,1-1.879-3c.035-2.472.286-4.943.249-7.412a47.361,47.361,0,0,0-.578-5.478c-.264-1.99-.663-3.965-.871-5.96-.124-1.195-.275-2.164-1.6-2.684-.895-.352-1.287-1.108-.263-1.905.234-.182.558-.4.608-.645.523-2.589,2.427-2.59,4.48-2.555,8.2.139,16.4.274,24.6.3,5.033.014,10.086.038,15.09-.4,1.72-.15,3.419.086,5.117-.164.8-.118,1.663,1.491,1.018,1.945-2.325,1.633-.754,3.71-.746,5.534.009,1.886.685,3.761.812,5.657.379,5.649.653,11.3.89,16.962.019.456-.561.937-.938,1.482M39.1,759.82c-6.483.1-12.967.185-19.45.309-3.071.059-6.142.172-9.21.311a16.007,16.007,0,0,0-2.233.411,19.4,19.4,0,0,0,1.622,1.357q7.24,4.865,14.506,9.69c2.016,1.34,2.018,1.319,3.872-.264a4.256,4.256,0,0,1,1.085-.644,24.513,24.513,0,0,0,4.341-1.852c3.854-2.649,7.577-5.489,11.343-8.265a4.286,4.286,0,0,0,.577-.633c-.293-.14-.584-.394-.881-.4-1.756-.038-3.513-.019-5.572-.019m-1.961,15.837c-.355-.355-.7-.716-1.066-1.064-1.779-1.719-2.664-1.782-4.67-.452-1.292.856-2.624,1.654-3.955,2.451a1.414,1.414,0,0,1-2.113-.449,11.821,11.821,0,0,0-2.61-2.171,1.275,1.275,0,0,0-1.2.146c-3.145,2.875-6.249,5.795-9.351,8.717a6.247,6.247,0,0,0-.679.919,6.368,6.368,0,0,0,1.095.19q10.393.017,20.787.009c.351,0,.7-.02,1.054,0,2.93.2,5.858.406,8.79.572.1.006.389-.528.326-.61-2.067-2.718-4.166-5.412-6.411-8.26M9.081,764.8c-.627-.426-1.241-.873-1.888-1.267-.237-.144-.7-.31-.8-.211a1.36,1.36,0,0,0-.318.9q.114,4.307.3,8.612a31.043,31.043,0,0,0,.306,3.338c.251,1.64.583,3.268.9,4.9a7.681,7.681,0,0,0,.3.929,7.556,7.556,0,0,0,.846-.567c.377-.329.687-.739,1.076-1.053q4.62-3.742,9.266-7.453c.689-.548.676-1.012-.024-1.478-3.267-2.171-6.54-4.333-9.962-6.648m39.969,4.374c-.151-1.342-.3-2.683-.454-4.025-.094-.812-.192-1.623-.307-2.432a2.03,2.03,0,0,0-.2-.482c-.166.084-.421.129-.48.261a5,5,0,0,0-.5,1.443c-.082.743.043,1.508-.032,2.253-.379,3.747-.882,7.484-1.157,11.238-.128,1.747.206,3.523.251,5.288.051,1.99.3,2.122,2.247,1.606a1.93,1.93,0,0,0,1.691-2.287c-.314-4.237-.608-8.475-1.061-12.864m-4.826.3c.151-.99.31-1.978.447-2.97a5.874,5.874,0,0,0,0-.8,2.566,2.566,0,0,0-.824.242c-1.656,1.218-3.286,2.474-4.935,3.7-.646.481-1.363.876-1.956,1.412a1.014,1.014,0,0,0-.066.994c2.075,2.248,4.542,4.161,5.847,7.059.088.2.585.206.892.3a5.247,5.247,0,0,0,.056-.814,14.041,14.041,0,0,1-.2-2.01C43.641,774.265,43.871,771.945,44.223,769.473Z" transform="translate(0 -528.1)"></path><path d="M115.539,304.867c-2.991.426-5.844.777-8.665,1.307-1.741.327-3.4,1.069-5.147,1.375-2.771.488-3.739,2.44-4.281,4.809-1.125,4.917-2.287,9.826-3.3,14.767-.555,2.718-.672,5.531-1.316,8.222a4.76,4.76,0,0,1-2.224,2.576c-.433.248-1.7-.478-2.285-1.065-1.625-1.634-3.084-3.432-4.628-5.148a3,3,0,0,0-.738-.448c-.093.308-.348.681-.254.913,1.455,3.592,2.692,7.3,5.2,10.361a2.031,2.031,0,0,0,2.959.085c1.349-1.676,2.477-3.536,3.887-5.156a30.238,30.238,0,0,1,4.468-4.246,3.154,3.154,0,0,1,2.562.073c.564.231,1.381,1.3.444,1.855-4.235,2.511-6.008,7.184-9.392,10.442a4.6,4.6,0,0,1-6.761-.027c-2.738-2.541-4.01-5.936-5.505-9.191a13.686,13.686,0,0,1-1.547-6.454,2.749,2.749,0,0,1,2.03-2.7,3.673,3.673,0,0,1,2.888.32,65.26,65.26,0,0,1,4.756,4.893,8.509,8.509,0,0,0,1.013.786c.062-.369.127-.738.186-1.108.5-3.16.894-6.343,1.537-9.474.785-3.822,1.936-7.573,2.646-11.407.809-4.371,3.622-6.651,7.6-7.521,4.7-1.027,9.466-1.738,14.225-2.44,3.585-.529,7.2-.859,10.809-1.223,3.39-.342,6.786-.624,10.182-.91,3.745-.316,7.495-.573,11.237-.918,3.909-.36,7.813-.783,11.717-1.2,4.569-.489,9.131-1.046,13.7-1.491,3.79-.369,7.613-.457,11.38-.972a23.62,23.62,0,0,1,8.071.388,8.179,8.179,0,0,1,2.923,1.265,1.972,1.972,0,0,1,.661,1.735,1.881,1.881,0,0,1-1.6.831c-1.342-.157-2.636-.777-3.976-.885a55.909,55.909,0,0,0-6.154-.043c-1.355.04-2.7.254-4.058.381-4.307.4-8.618.775-12.922,1.217-3.458.355-6.9.839-10.361,1.186-4.454.447-8.915.822-13.374,1.215-3.544.312-7.095.557-10.633.919-4.422.452-8.836.987-13.251,1.5C118.739,304.445,117.216,304.666,115.539,304.867Z" transform="translate(-55.178 -205.572)"></path><path d="M753.545,295.09c5.094-.2,10.036-.471,14.981-.587,7.095-.165,14.2-.441,21.286-.244,5.223.145,10.517.489,15.549,2.086a15.425,15.425,0,0,1,8.5,6.544c2.623,4.137,4.116,8.761,5.425,13.431,1.581,5.638,3,11.321,4.554,16.967.866,3.151,1.844,6.27,2.8,9.395a4.013,4.013,0,0,0,.625.946,7.009,7.009,0,0,0,.474-.952c.636-1.949,1.166-3.938,1.9-5.85.522-1.362,1.49-1.624,2.749-1.013a2.246,2.246,0,0,1,.8,2.877c-.946,2.272-1.822,4.573-2.728,6.862-.085.216-.169.434-.276.64-.829,1.6-1.2,3.1-.121,4.873.547.9,1.017,2.328-.241,3.323-.939.744-2.346.34-3.178-1.2a2.269,2.269,0,0,0-2.3-1.337c-3.366.382-5.853-1.347-8.118-3.351a44.323,44.323,0,0,1-4.709-5.269,2.73,2.73,0,0,1-.227-3.449,2.909,2.909,0,0,1,3.777-.5c2.144,1.139,4.292,2.274,6.39,3.495.5.293.773.962,1.23,1.368a3.09,3.09,0,0,0,1.014.386,4.385,4.385,0,0,0-.085-.921c-1.632-5.254-3.314-10.493-4.913-15.757-2.167-7.136-3.491-14.54-6.8-21.31a12.56,12.56,0,0,0-9.423-7.206,69.667,69.667,0,0,0-8.7-1.189c-6.092-.338-12.2-.513-18.3-.617-3.273-.056-6.552.146-9.827.281-4.241.174-8.479.409-12.719.592-2.923.126-5.848.2-8.772.308-2.572.094-5.147.3-7.715.236a3.844,3.844,0,0,1-2.12-1.3c-.164-.16.216-1.048.529-1.465a1.628,1.628,0,0,1,1.133-.466c1.456-.053,2.915.009,4.372-.027q4.764-.12,9.526-.3c1.167-.046,2.331-.192,3.647-.293m66.363,52.035c.177.177.324.416.537.517a10.892,10.892,0,0,0,1.232.428c-.185-.413-.265-.945-.574-1.216a36.542,36.542,0,0,0-2.957-2.275c-.18-.128-.524-.024-.793-.027.07.277.048.664.225.812C818.272,345.942,819.027,346.444,819.909,347.125Z" transform="translate(-512.796 -205.448)"></path><path d="M1028.447,784.577a12.571,12.571,0,0,1,6.221,3.922,13.933,13.933,0,0,1,3.386,7.633,41.934,41.934,0,0,1,.3,6.948,12.921,12.921,0,0,1-.814,4.167c-.789,2.087-2.989,2.163-4.722,2.617a34.156,34.156,0,0,1-11.985,1.2,30.465,30.465,0,0,1-6.539-1.634c-1.1-.368-1.519-2.955-1.081-4.656a84.257,84.257,0,0,1,5.281-15.59,10.147,10.147,0,0,1,.909-1.58c.8-1.1,1.251-2.085.373-3.495-.629-1.01,1.952-4.756,3.193-4.962.852-.142,2.313,1.212,2.455,2.281.02.148-.007.3,0,.452.071.923-.162,2.107.324,2.683.355.42,1.659.039,2.69.015m4.977,22.624c.469-.2.944-.389,1.406-.607.395-.186.773-.406,1.159-.611-.4-.3-.781-.809-1.21-.856a32.689,32.689,0,0,0-5.292-.294,30.078,30.078,0,0,0-4.748.869c-2.11.466-4.208.987-6.3,1.511a3.641,3.641,0,0,0-.828.458c.3.246.567.618.908.706.47.122,1.012-.051,1.5.043,4.494.878,8.806-.14,13.415-1.219M1020.3,797.1a5.606,5.606,0,0,1-.857.84,5.773,5.773,0,0,0-2.912,4.478c-.042.462.376.965.583,1.449.157-.373.3-.752.475-1.117a11.78,11.78,0,0,1,1.363-2.729c1.333-1.546,2.9-2.889,4.293-4.384a36.679,36.679,0,0,0,2.443-3.047c.149-.2.1-.544.143-.821-.248.081-.566.09-.734.254a69.736,69.736,0,0,0-4.8,5.076m11.01,1.961c-.129-.8-.5-.786-.95-.248q-1.349,1.609-2.644,3.263a.7.7,0,0,0,0,.6c.04.086.363.126.5.063a3.287,3.287,0,0,0,1.321-.75c.624-.864,1.089-1.842,1.77-2.925m-6.335,1.508c-.647.6-1.3,1.2-1.939,1.812-.491.471-.962.962-1.441,1.444a12.049,12.049,0,0,0,2.134-.262,2.084,2.084,0,0,0,1.246-2.994m-1.659-10.708-.455-.453c-.854.984-1.726,1.954-2.536,2.973-.093.116.155.5.245.766.212-.09.494-.121.623-.279a22,22,0,0,0,2.124-3.007m8.6,1.056a12.771,12.771,0,0,0,1.391.572c.059.018.411-.512.353-.594a10.4,10.4,0,0,0-1.463-1.756c-.222-.2-.722-.09-1.1-.121a9.453,9.453,0,0,0,.257,1.029,3.746,3.746,0,0,0,.557.871m3.771,11.915a7.767,7.767,0,0,0,.453-1.035,1.31,1.31,0,0,0-.547-.3,1.541,1.541,0,0,0-.475.793C1035.1,802.5,1035.385,802.746,1035.687,802.827Z" transform="translate(-707.458 -544.109)"></path><path d="M101.651,1428.27a34.343,34.343,0,0,1-.356,4.986,3.364,3.364,0,0,1-2.469,2.844c-2.954.647-5.92,1.244-8.89,1.816a19.33,19.33,0,0,1-8.963-.3,9.748,9.748,0,0,1-3.043-.969,3.667,3.667,0,0,1-1.526-2.474,17.625,17.625,0,0,1,.856-5.336c1.382-4.237,2.964-8.41,4.5-12.6a4.992,4.992,0,0,1,.942-1.707,2.687,2.687,0,0,0,.445-3.25c-.272-.709.393-1.814.724-2.708a2.985,2.985,0,0,1,2.7-2.3c1.131-.022,2.11,1.606,2.111,3.2,0,.05,0,.1,0,.151,0,2.047,0,2.018,2.006,2.058a8.714,8.714,0,0,1,5.651,2.359,14.025,14.025,0,0,1,5.015,10.13c.078,1.315.2,2.629.3,4.094m-12.066,7.391c2.938-.654,5.88-1.295,8.811-1.979.311-.073.563-.4.842-.613a3.32,3.32,0,0,0-.9-.558,10.137,10.137,0,0,0-3.2-.572c-3.082.326-6.147.835-9.2,1.361a37.844,37.844,0,0,0-3.79,1.008c-.442.124-.869.3-1.3.454.448.249.884.685,1.347.717,2.411.167,4.828.232,7.395.182m-3.318-13.876a1.59,1.59,0,0,0-.2-.084c-1.848,3.249-3.7,6.5-5.5,9.769-.1.175.129.527.2.8.213-.062.5-.058.626-.2a8.4,8.4,0,0,0,1.478-1.792c1.2-2.41,2.3-4.866,3.415-7.318a1.905,1.905,0,0,0-.014-1.174m2.262,2.866c-.135.035-.353.029-.394.111-.936,1.859-1.862,3.723-2.755,5.6-.069.145.12.412.189.622.3-.118.788-.16.873-.367a54.338,54.338,0,0,0,2.087-5.968m5.581-7.692c-.122.5-.642,1.036.282,1.375.606.222,1.14.636,1.728.92.208.1.562.178.7.072a.709.709,0,0,0,.145-.684c-.561-.833-1.169-1.637-1.8-2.419a2.938,2.938,0,0,0-.735-.488,6.81,6.81,0,0,0-.319,1.224m4.223,9.351c-.1,1.062-.239,2.123-.266,3.186,0,.189.434.43.709.56.082.039.439-.217.442-.343.032-1.521.026-3.043.012-4.564a1.612,1.612,0,0,0-.183-.5c-.2.116-.516.188-.584.357a4.646,4.646,0,0,0-.129,1.3m-2.715,1.207c.2-.57.442-1.13.585-1.714a2.321,2.321,0,0,0-.123-.841c-.254.181-.606.307-.746.554a27.962,27.962,0,0,0-1.447,2.864c-.127.3.049.728.086,1.1a3.523,3.523,0,0,0,1.3-.469c.26-.245.244-.782.351-1.492m-5.43,1.508.01.614.593-.487C90.59,1429.008,90.389,1428.865,90.188,1429.024Z" transform="translate(-53.355 -982.075)"></path><path d="M574.459,505.512c0,3.114.054,6.079-.026,9.041a2.9,2.9,0,0,0,1.426,2.7c3.5,2.174,3.584,5.683,2.642,8.762a13.908,13.908,0,0,1-3.581,5.754c-3.1,3.11-7.5,2.069-9.641-1.486a14.441,14.441,0,0,1-2.28-8.851c.277-3.234,1.509-5.9,4.595-7.372a3.665,3.665,0,0,1,1.787-.375c1.236.1,1.588-.4,1.476-1.554a24.241,24.241,0,0,1-.016-2.711c.1-6.337.184-12.675.306-19.012.067-3.475.258-6.949.274-10.423.011-2.419-.25-4.839-.235-7.258a3.428,3.428,0,0,1,.889-2,1.732,1.732,0,0,1,1.544-.435,1.791,1.791,0,0,1,.8,1.368c.094,1.821.009,3.649.043,5.474.083,4.479.278,8.958.274,13.437,0,4.931-.179,9.862-.28,14.944m-6.636,19.457c-.728-2.474.126-4.547,1.628-6.462a10.954,10.954,0,0,0,.607-.956,4.316,4.316,0,0,0-1.615-.074c-.386.136-.674.675-.913,1.089a8.257,8.257,0,0,0-.9,6.6,13.089,13.089,0,0,0,.768,1.737C567.539,526.358,567.681,525.814,567.823,524.969Z" transform="translate(-393.136 -328.391)"></path><path d="M562.1,178.361c-.009-1.13-.031-2.052,1.145-2.534s1.788.228,2.5.891q1.513,1.412,3.077,2.768a6.588,6.588,0,0,0,1.04.615,4.406,4.406,0,0,0,.366-1.2c.029-3.669.017-7.338.017-11.007,0-5.948.061-11.9-.027-17.844-.04-2.684-.445-5.36-.537-8.045a6.361,6.361,0,0,1,.659-2.723,1.49,1.49,0,0,1,1.365-.538,2.453,2.453,0,0,1,1.2,1.522c.22,2.562.254,5.14.354,7.712s.238,5.143.294,7.716c.125,5.738.253,11.477.289,17.216a56.569,56.569,0,0,1-.337,7.859c-.323,2.409-2.176,3.685-4.3,2.764a4.687,4.687,0,0,0-1.429-.136,4.164,4.164,0,0,0,.076,1.275c.847,2.162,1.692,4.328,2.654,6.439.689,1.512,1.672,1.717,2.648.428,2.532-3.342,4.913-6.8,7.347-10.216.772-1.084,1.477-2.219,2.295-3.265.55-.7,1.31-1.294,2.245-.707a1.629,1.629,0,0,1,.588,2.506c-2.443,3.714-4.8,7.489-7.389,11.1a18.968,18.968,0,0,1-4.13,4.126,4.04,4.04,0,0,1-6.166-1.2,95.971,95.971,0,0,1-4.023-10.086C563.26,182.051,562.7,180.273,562.1,178.361Z" transform="translate(-392.54 -96.863)"></path><path d="M969.039,760.806c2.137-.3,4.122-.615,6.111-.9,2.186-.315,4.367-.771,6.564-.87,3.312-.148,6.64-.156,9.951,0a85.465,85.465,0,0,1,8.968.935c.693.106,1.263,1.022,1.89,1.565-.548.462-1.086.937-1.647,1.384-1.126.9-2.265.584-3.61.41a40.09,40.09,0,0,0-6.8.2c-.151.007-.3,0-.452,0-4.533.1-9.067.184-13.6.309-1.97.054-3.953.082-5.9.325a4.717,4.717,0,0,0-3.753,3.4,26.963,26.963,0,0,0-1.3,6.241,50.92,50.92,0,0,0-.3,8.012c.216,3.866.757,7.713,1.158,11.568.005.05,0,.1,0,.151q.15,3.256.3,6.511c.042.867-.264,1.483-1.213,1.479s-1.161-.629-1.218-1.489c-.263-3.95-.63-7.893-.876-11.843-.255-4.086-.684-8.188-.536-12.265.136-3.757.3-7.65,2.766-10.895.468-.615.194-.98-.6-.9a16.57,16.57,0,0,1-3.487.242c-.729-.088-1.922-.747-1.952-1.21-.045-.715.6-1.46,1.758-1.486,2.082-.046,4.159-.349,6.236-.567C967.97,761.051,968.427,760.906,969.039,760.806Z" transform="translate(-670.071 -529.99)"></path><path d="M28.419,1391.129a24.136,24.136,0,0,1-3.941.239c-.73-.074-1.931-.728-1.967-1.195-.054-.7.579-1.439,1.738-1.5,3.05-.169,6.093-.508,9.127-.88,1.643-.2,3.253-.658,4.891-.915a57.5,57.5,0,0,1,6.429-.837c3.312-.14,6.64-.154,9.951,0a85.839,85.839,0,0,1,8.968.934c.7.106,1.275,1.011,1.907,1.549-.542.468-1.067.96-1.631,1.4-1.123.874-2.259.595-3.609.414a39.2,39.2,0,0,0-6.8.193c-.2.009-.4,0-.6,0-4.382.1-8.765.184-13.147.308-2.071.059-4.153.083-6.206.326a4.625,4.625,0,0,0-3.819,3.5,40.308,40.308,0,0,0-1.522,8.707,90.643,90.643,0,0,0,.252,10.276c.217,3.851.577,7.695.892,11.541a8.376,8.376,0,0,1,.237,2.126c-.091.463-.734,1.128-1.136,1.132a1.65,1.65,0,0,1-1.166-1.1c-.237-1.5-.229-3.027-.358-4.542-.39-4.561-.905-9.113-1.16-13.68a60.828,60.828,0,0,1,.276-7.413,29.54,29.54,0,0,1,.636-5.168,35.569,35.569,0,0,1,1.774-4.385A1.55,1.55,0,0,0,28.419,1391.129Z" transform="translate(-15.718 -967.859)"></path><path d="M76.727,1459.115c3.427.1,6.722.021,9.975.356a29.128,29.128,0,0,0,8.248-.692c1.955-.352,3.072-1.874,3.16-4.438.135-3.967.153-7.947,0-11.913-.136-3.552-.569-7.092-.868-10.637a1.219,1.219,0,0,1,.01-.6,5.95,5.95,0,0,1,1.14-1.876c.187-.161,1.306.313,1.521.738a4.678,4.678,0,0,1,.341,2.328c-.048.728-.628,1.458-.563,2.149a144.709,144.709,0,0,1,.848,19.386c-.1,2.583-.576,5.073-3.243,6.419-.179.09-.241.413-.357.627a2.053,2.053,0,0,0,.731.245,10.779,10.779,0,0,1,2.132-.231,1.52,1.52,0,0,1,.991,1.01c.058.28-.457.86-.835,1.01a6.6,6.6,0,0,1-1.972.332c-3.183.219-6.369.407-9.553.612-4.651.3-9.3.848-13.953.827a97.123,97.123,0,0,1-11.111-1.152,4.225,4.225,0,0,1-1.662-.7,1.208,1.208,0,0,1-.035-2.166c1.731-1.275,3.495-2.241,5.836-1.993,2.237.237,4.52.026,6.781.065.764.013,1.526.188,2.44.288m-10.105,1.81-1.056.565a4.036,4.036,0,0,0,1.135.617,18.783,18.783,0,0,0,3.036.312c4.337.032,8.674.022,13.01,0,.295,0,.588-.26.882-.4-.31-.163-.612-.444-.933-.469-1.831-.141-3.665-.249-5.5-.315C73.772,1461.111,70.347,1461.026,66.622,1460.926Z" transform="translate(-42.609 -998.14)"></path><path d="M1014.029,832.116c3.327.1,6.522.021,9.673.355a28.838,28.838,0,0,0,8.247-.691c1.955-.352,3.073-1.874,3.159-4.438.135-3.967.153-7.947,0-11.912-.136-3.552-.57-7.092-.868-10.637a1.218,1.218,0,0,1,.01-.6,5.952,5.952,0,0,1,1.14-1.876c.187-.161,1.305.313,1.521.738a4.676,4.676,0,0,1,.341,2.328c-.048.727-.628,1.458-.563,2.149a144.756,144.756,0,0,1,.848,19.386c-.1,2.583-.576,5.073-3.243,6.419-.179.09-.241.413-.357.628a2.053,2.053,0,0,0,.731.244,10.789,10.789,0,0,1,2.132-.231,1.519,1.519,0,0,1,.991,1.01c.059.28-.458.86-.834,1.01a6.6,6.6,0,0,1-1.972.332c-3.183.219-6.369.407-9.553.612-4.651.3-9.3.848-13.953.827a97.068,97.068,0,0,1-11.111-1.152,4.229,4.229,0,0,1-1.662-.7,1.208,1.208,0,0,1-.035-2.166c1.731-1.274,3.495-2.249,5.836-1.991,2.136.235,4.319.02,6.48.063.966.02,1.928.188,3.043.288m1.81,3.469c1.283-.05,2.568-.071,3.847-.171a2.981,2.981,0,0,0,.952-.46c-.292-.142-.582-.4-.878-.406-1.52-.042-3.045.036-4.563-.03-3.83-.168-7.656-.41-11.486-.563-.373-.015-.763.386-1.145.594a3.4,3.4,0,0,0,1.039.561c1.2.161,2.419.263,3.633.317C1010.054,835.551,1012.871,835.635,1015.839,835.585Z" transform="translate(-696.962 -560.276)"></path><path d="M1026.052,628.923a11.926,11.926,0,0,1-3.776-5.924,6.366,6.366,0,0,1-.154-2.764c.087-.464.919-1.163,1.32-1.1a2.519,2.519,0,0,1,1.59,1.2c.726,1.342,1.056,2.926,1.909,4.162a13.233,13.233,0,0,0,2.94,2.5c.193.15.533.112.8.161a6.888,6.888,0,0,1-.18-.731,19.5,19.5,0,0,1-.292-2.437c-.033-3.265-.053-6.532,0-9.8.052-3.426.391-6.859.239-10.273-.179-4.013-.787-8.006-1.135-12.014a3.513,3.513,0,0,1,1.483-3.426c.287-.191,1.013-.217,1.165-.024.422.534,1.021,1.318.89,1.835-.726,2.856.41,5.537.573,8.3.107,1.805.351,3.607.375,5.412.057,4.22.047,8.441,0,12.661-.018,1.768-.221,3.533-.264,5.3a4.083,4.083,0,0,0,.437,1.3c.248-.4.488-.8.747-1.2a48.142,48.142,0,0,1,2.706-3.987c.353-.435,1.448-.828,1.767-.607a2.7,2.7,0,0,1,1.177,1.954,8.8,8.8,0,0,1-1.084,3.587,37.879,37.879,0,0,1-3.827,5.642c-2.619,3.092-5.671,2.633-8.718.672C1026.552,629.2,1026.334,629.1,1026.052,628.923Z" transform="translate(-713.735 -410.852)"></path><path d="M96.866,1239.88c-.1,3.878-.187,7.607-.312,11.333-.031.916-.227,1.825-.271,2.741a2.583,2.583,0,0,0,.332.908,3.085,3.085,0,0,0,.736-.554c1.462-2.052,2.842-4.166,4.363-6.174a25.068,25.068,0,0,1,3.024-3.264,1.683,1.683,0,0,1,2.546.163c.814.868.236,1.443-.374,2.2-2.107,2.615-4.058,5.356-6.136,8a27.807,27.807,0,0,1-3.52,3.951,3.59,3.59,0,0,1-5.283-.271,62.756,62.756,0,0,1-4.692-5.589,1.9,1.9,0,0,1,.27-2.726c.864-.729,1.754-.387,2.462.386.66.721,1.268,1.491,1.932,2.208a4.467,4.467,0,0,0,.816.566,4.008,4.008,0,0,0,.178-.808c.11-8.251.225-16.5.293-24.753.012-1.415-.249-2.831-.265-4.248a2.63,2.63,0,0,1,1.408-2.556c1.162-.616,1.873.262,2.674.753a6.145,6.145,0,0,1,1.182,1.156c.826.9.677,1.955-.487,2.227-1.641.385-1.557,1.492-1.476,2.69.086,1.266.231,2.529.291,3.8C96.681,1234.585,96.765,1237.157,96.866,1239.88Z" transform="translate(-60.636 -852.809)"></path><path d="M105.772,993.291c-.2,2.327-.424,4.5-.6,6.681-.319,3.991-.656,7.983-.869,11.98a4.842,4.842,0,0,0,.7,2.4c.685,1.257.617,2.243-.425,2.907a2.4,2.4,0,0,1-3.006-.98,6.09,6.09,0,0,1-.6-2.3,65.264,65.264,0,0,1,.006-7.077c.272-3.559.776-7.1,1.169-10.651.123-1.111.255-2.224.3-3.34.126-3.422.231-6.846.294-10.27.013-.709-.24-1.42-.273-2.135-.063-1.356.671-2.449,1.617-2.258a2.118,2.118,0,0,1,1.678,2.24C105.789,984.7,105.772,988.922,105.772,993.291Z" transform="translate(-70.448 -683.141)"></path><path d="M106.814,623.814a5.643,5.643,0,0,1-.269,2.14,1.923,1.923,0,0,1-1.544.819,2.194,2.194,0,0,1-1.757-2.255c-.059-2.164.16-4.335.248-6.5.029-.7-.011-1.407.007-2.109q.142-5.363.3-10.725c.1-3.625.226-7.25.285-10.876.015-.911-.422-1.884-.214-2.72a4,4,0,0,1,1.537-1.994c.269-.2,1.1.221,1.583.519a1.344,1.344,0,0,1,.412,1c.028,3.985.056,7.971.005,11.956-.039,3.073-.183,6.146-.291,9.218-.092,2.621-.213,5.241-.294,7.862C106.784,621.317,106.814,622.491,106.814,623.814Z" transform="translate(-72.093 -411.701)"></path><path d="M168.305,1393.773a2.648,2.648,0,0,1,1.742,3.11,4.165,4.165,0,0,1-4.838,3.334c-1.328-.588-1.306-2.033-1.2-3.335A3.6,3.6,0,0,1,168.305,1393.773Z" transform="translate(-114.505 -973.294)"></path><path d="M1102.764,767.144c2.328-.711,3.6-.3,4.179,1.329a3.831,3.831,0,0,1-2.057,4.46c-1.085.6-2.244,1.186-3.316-.174a4.27,4.27,0,0,1,.278-4.687A10.7,10.7,0,0,1,1102.764,767.144Z" transform="translate(-768.88 -535.499)"></path></g></g></svg>