<svg xmlns="http://www.w3.org/2000/svg" width="201" height="207.772" viewBox="0 0 201 207.772"><defs><style>.a{fill:#222;}.b{fill:#fff;}</style></defs><g transform="translate(-102 -879)"><circle class="a" cx="100.5" cy="100.5" r="100.5" transform="translate(102 879)"></circle><g transform="translate(112.15 935)"><path class="b" d="M756.447,11.223c.154,1.1.265,2.174.413,3.244.163,1.179.372,2.352.536,3.532.13.932.209,1.871.334,2.8.129.958.371,1.909.409,2.869a18.787,18.787,0,0,1-.193,2.963,3.889,3.889,0,0,1-.442,1.118,1,1,0,0,1-.955.692,1.21,1.21,0,0,1-.994-.826c-.994-2.037-1.924-4.106-2.962-6.119-.559-1.084-1.308-2.069-1.936-3.12-.677-1.131-1.29-2.3-1.98-3.422a3.181,3.181,0,0,0-.874-.823c-.289-.209-.586.036-.637.478a9.5,9.5,0,0,0,.468,4.234c.573,1.667,1.124,3.343,1.738,5,.818,2.2,1.722,4.369,2.518,6.576a27.356,27.356,0,0,1,.925,3.371c.271,1.223.472,2.462.656,3.7.119.8.14,1.609.23,2.412.133,1.193.295,2.383.43,3.576.087.767.134,1.538.223,2.3.171,1.468.346,2.936.546,4.4.159,1.162.362,2.317.539,3.477.185,1.212.435,2.421.523,3.641a15.363,15.363,0,0,1-.112,3c-.136,1.082-.415,2.146-.627,3.218-.256,1.291-.531,2.58-.755,3.877-.18,1.041-.291,2.093-.444,3.138-.173,1.178-.38,2.351-.537,3.531-.136,1.022-.215,2.051-.335,3.075-.135,1.157-.3,2.31-.429,3.467-.093.839-.141,1.682-.224,2.522q-.208,2.115-.435,4.229c-.1.954-.192,1.909-.332,2.858-.146.984-.354,1.959-.518,2.94-.128.767-.233,1.537-.346,2.307-.183,1.249-.379,2.5-.539,3.749-.1.8-.168,1.607-.219,2.413-.087,1.366-.152,2.734-.22,4.1-.043.856-.1,1.712-.1,2.568-.013,3.03-.03,6.06,0,9.09.019,1.712.126,3.424.212,5.135.053,1.06.143,2.117.214,3.176q.166,2.491.327,4.981.11,1.7.217,3.393c.075,1.222.151,2.443.217,3.666.045.837.092,1.675.107,2.513.046,2.471.049,4.942.124,7.412.037,1.211.206,2.418.283,3.629.01.163-.147.451-.271.479-.166.037-.5-.082-.545-.209a6.911,6.911,0,0,1-.338-1.491c-.078-.724-.081-1.457-.12-2.185-.034-.638-.094-1.276-.1-1.915,0-.438.107-.878.094-1.315-.056-1.894-.139-3.787-.21-5.68-.038-1.007-.063-2.015-.112-3.022-.062-1.295-.137-2.589-.217-3.883-.064-1.041-.144-2.081-.216-3.121-.109-1.57-.225-3.139-.324-4.709-.083-1.312-.169-2.624-.215-3.938-.088-2.491-.192-4.983-.21-7.476-.018-2.434.03-4.87.108-7.3.049-1.535.194-3.068.32-4.6.085-1.027.182-2.056.33-3.075.185-1.275.436-2.541.643-3.813.158-.972.289-1.948.439-2.922.177-1.141.379-2.279.537-3.422.105-.764.151-1.536.224-2.3q.218-2.3.435-4.61c.078-.84.122-1.685.225-2.522.118-.959.3-1.911.426-2.869.124-.914.2-1.835.334-2.749.2-1.436.43-2.869.65-4.3.178-1.159.345-2.32.548-3.475.213-1.213.468-2.419.7-3.63a12.178,12.178,0,0,0,.268-1.681,21.829,21.829,0,0,0-.007-2.956c-.1-1.058-.346-2.1-.523-3.152-.186-1.1-.382-2.206-.542-3.313-.234-1.613-.459-3.228-.651-4.846-.142-1.2-.213-2.414-.336-3.619-.131-1.284-.269-2.568-.437-3.847a34.534,34.534,0,0,0-.559-3.581,48.17,48.17,0,0,0-1.378-4.707c-.862-2.452-1.875-4.851-2.72-7.308a39.669,39.669,0,0,1-1.4-5.075,11.023,11.023,0,0,1-.016-3.039,1.117,1.117,0,0,1,1.726-.839,5.972,5.972,0,0,1,2.5,2.749c.781,1.365,1.61,2.7,2.354,4.089.675,1.257,1.269,2.557,1.888,3.844.524,1.089,1.026,2.188,1.557,3.273.058.118.248.172.377.255a2.049,2.049,0,0,0,.175-.315,5.712,5.712,0,0,0,.3-2.95c-.175-.977-.211-1.979-.346-2.964-.157-1.144-.371-2.28-.534-3.423-.13-.913-.208-1.834-.335-2.748s-.3-1.8-.426-2.706a16.072,16.072,0,0,1-.211-2.141q0-2.291.106-4.581a6.016,6.016,0,0,1,.885-2.731,1.293,1.293,0,0,1,1.929-.108A4.637,4.637,0,0,1,759.7,5.26c.316,1.3.744,2.563,1.059,3.858.506,2.082.97,4.174,1.431,6.266.415,1.882.824,3.765,1.189,5.656.142.737.154,1.5.232,2.248a2.6,2.6,0,0,0,.094.371c.077-.118.213-.233.221-.356a36.157,36.157,0,0,0,.2-3.719c-.054-1.63-.243-3.258-.421-4.882-.142-1.29-.342-2.574-.54-3.857-.241-1.566-.58-3.121-.735-4.695a18.009,18.009,0,0,1,.009-3.714A3.053,3.053,0,0,1,763.926.267c.853-.544,1.813-.255,2.4.865a13.289,13.289,0,0,1,1.416,4.257c.2,1.374.37,2.752.546,4.129.084.658.144,1.319.223,1.978a.591.591,0,0,0,.111.331,4.3,4.3,0,0,1,.862,2.639,50.414,50.414,0,0,1,.345,7.375,12.83,12.83,0,0,0,.326,2.2c.035.18.241.326.368.488a4.627,4.627,0,0,0,.269-.478,31,31,0,0,0,1.429-5.67c.439-2.058.943-4.1,1.46-6.144.3-1.192.655-2.374,1.042-3.541a8.954,8.954,0,0,1,1.647-2.963c.359-.427.8-.833,1.394-.671a1.577,1.577,0,0,1,1.072,1.187,11.474,11.474,0,0,1,.429,2.484c.038,1.671.019,3.349-.106,5.015-.133,1.767-.4,3.525-.641,5.282-.183,1.312-.381,2.625-.659,3.919-.288,1.339-.7,2.65-1.017,3.983-.177.752-.279,1.524-.381,2.292-.162,1.226-.369,2.453-.418,3.685a22.529,22.529,0,0,0,.182,3.294,14.155,14.155,0,0,0,.458,2.148c.178.656.651.811,1.115.332.925-.956,1.823-1.943,2.679-2.961s1.645-2.114,2.486-3.156a15.688,15.688,0,0,1,1.544-1.751,14.264,14.264,0,0,1,5.962-3.329,3.512,3.512,0,0,1,2.694.215,1.561,1.561,0,0,1,.651,2.493,25.965,25.965,0,0,1-3.681,4.579,11.423,11.423,0,0,0-1.889,2.157,15.665,15.665,0,0,0-1.219,2.755,16.3,16.3,0,0,1-2.46,4.31c-.58.732-1.364,1.3-1.966,2.018-.616.735-1.12,1.564-1.68,2.346a5.7,5.7,0,0,1-.648.818c-1.216,1.166-2.5,2.27-3.659,3.486a14.156,14.156,0,0,0-1.774,2.416,11.015,11.015,0,0,0-1.549,3.113,9.828,9.828,0,0,0-.1,3.624c.085.658.178,1.316.217,1.977.091,1.566.146,3.133.225,4.7q.1,1.915.218,3.829c.1,1.534.164,3.073.339,4.6.193,1.68.516,3.345.74,5.021.149,1.111.213,2.233.336,3.347a97.766,97.766,0,0,1,.208,9.871c.011,1.2-.091,2.4-.093,3.6,0,1.019.061,2.038.1,3.057.03.747.1,1.494.1,2.241.045,4.031.06,8.062.121,12.093.026,1.712.136,3.424.21,5.135.071,1.657.148,3.315.217,4.972q.063,1.528.109,3.058c.04,1.327.058,2.656.114,3.983.052,1.241.138,2.48.214,3.72.068,1.1.149,2.19.215,3.285.045.746.121,1.5.1,2.241-.036,1.314-.116,2.627-.213,3.938-.08,1.082-.2,2.162-.329,3.239-.039.324-.145.66-.594.657s-.557-.341-.581-.665a7.21,7.21,0,0,1,.092-1.043,1.653,1.653,0,0,0-.016-.537,7.134,7.134,0,0,1-.2-3.256.658.658,0,0,0,0-.109c.036-1.346.076-2.691.108-4.037.04-1.69.069-3.381.111-5.071.027-1.092.1-2.184.1-3.275,0-1.11-.057-2.22-.1-3.33-.065-1.567-.15-3.133-.214-4.7-.08-1.947-.145-3.9-.22-5.843-.031-.8-.074-1.6-.107-2.4-.074-1.8-.138-3.605-.221-5.407-.06-1.313-.106-2.629-.225-3.937-.141-1.561-.363-3.115-.532-4.675-.125-1.151-.2-2.307-.336-3.456-.153-1.253-.368-2.5-.533-3.749-.1-.729-.14-1.464-.224-2.2-.137-1.193-.295-2.383-.43-3.576-.056-.491-.1-.985-.108-1.479-.045-2.779-.093-5.558-.106-8.337-.006-1.327.062-2.655.1-3.983.031-1.037.073-2.075.108-3.112.038-1.146.077-2.292.108-3.439.041-1.509.129-3.019.094-4.527-.034-1.426-.214-2.849-.307-4.274a6.626,6.626,0,0,1,.887-3.713,32.167,32.167,0,0,1,1.791-3.062,10.789,10.789,0,0,1,1.859-1.878,13.069,13.069,0,0,0,2.179-2.524c1.229-1.742,2.5-3.456,3.682-5.228.8-1.2,1.442-2.491,2.217-3.7a19.653,19.653,0,0,1,2.13-2.972,41.342,41.342,0,0,0,3.549-4.464c.616-.864,1.307-1.674,1.963-2.51.107-.136.212-.273.307-.417.292-.44.17-.737-.387-.813a3.245,3.245,0,0,0-1.211,0,13.377,13.377,0,0,0-4.59,2.193,23.294,23.294,0,0,0-4.073,4.5c-1.13,1.39-2.332,2.728-3.59,4a3.5,3.5,0,0,1-1.664.8,1.1,1.1,0,0,1-1.225-.775,15.977,15.977,0,0,1-.758-2.621,12.27,12.27,0,0,1-.216-2.736c.06-1.323.265-2.639.415-3.957.1-.9.164-1.807.338-2.693.252-1.282.594-2.546.887-3.821.252-1.095.522-2.187.725-3.291.252-1.373.45-2.757.658-4.137.06-.4.089-.8.11-1.206.045-.892.077-1.784.111-2.676.038-1,.128-2,.093-3a21.349,21.349,0,0,0-.325-2.639c-.029-.179-.228-.348-.388-.472-.034-.026-.258.148-.359.261a7.506,7.506,0,0,0-1.518,3.016q-.7,2.409-1.328,4.839c-.348,1.348-.638,2.711-.966,4.064a35.735,35.735,0,0,1-1.538,5.949,3.327,3.327,0,0,1-.814,1.009.652.652,0,0,1-.962.018c-.274-.244-.5-.192-.634.177a.76.76,0,0,1-.193.35,1.56,1.56,0,0,1-.713.408c-.187.011-.442-.234-.574-.427a1.409,1.409,0,0,1-.223-.717c-.053-1.744-.12-3.49-.105-5.234.011-1.349.21-2.7.186-4.046a53.643,53.643,0,0,0-.329-5.36c-.233-1.962-.581-3.915-.978-5.852a7.613,7.613,0,0,0-1.285-3.057.583.583,0,0,0-.906-.111,2.8,2.8,0,0,0-.945,1.784,15.584,15.584,0,0,0,.211,4.011c.1.747.126,1.5.228,2.249.136.989.318,1.972.474,2.959.1.632.207,1.263.278,1.9.157,1.408.337,2.816.423,4.229a20.163,20.163,0,0,1-.1,2.566,13.791,13.791,0,0,1-.229,2.084,3.713,3.713,0,0,1-1.1,2.258c-.137.111-.407.235-.507.174a.933.933,0,0,1-.428-.555c-.245-1.684-.4-3.382-.68-5.06a66.783,66.783,0,0,0-1.828-8.6c-.335-1.091-.686-2.182-1.112-3.24a3.7,3.7,0,0,0-2.159-2c-.3-.123-.433-.041-.442.282-.033,1.237-.081,2.474-.1,3.711a5.64,5.64,0,0,0,.13,1.04m16.52,73.129c.036.983.039,1.968.117,2.948.114,1.43.28,2.856.429,4.283q.1.936.222,1.868c.01.074.1.138.155.206.055-.066.142-.125.159-.2a1.453,1.453,0,0,0,.006-.379q-.107-2.1-.216-4.209c-.039-.765-.068-1.53-.11-2.295-.068-1.222-.161-2.443-.212-3.665-.056-1.345-.075-2.691-.114-4.036q-.051-1.774-.109-3.547a.566.566,0,0,0-.036-.256,2.584,2.584,0,0,0-.264-.323,1.16,1.16,0,0,0-.126.38c.011.294.1.588.095.88-.023,1.346-.1,2.691-.095,4.037,0,1.4.065,2.8.1,4.309M758.923,6.3A4.14,4.14,0,0,0,758.7,5.5a19.135,19.135,0,0,0-.948-1.673c-.224-.348-.552-.286-.729.037a3.277,3.277,0,0,0-.35,1.1c-.01.069.413.2.636.3a.563.563,0,0,1,.088.05,14.769,14.769,0,0,0,1.529.984m9.852,15.187a.352.352,0,0,1-.053-.086c-.041-.152-.077-.305-.115-.458-.071.159-.205.319-.2.477.015.886.056,1.772.105,2.657.006.115.109.226.167.338a2.119,2.119,0,0,0,.254-.328.577.577,0,0,0,.006-.267c-.035-.76-.072-1.519-.163-2.334m15.3,21.609-.208.336c.048.015.131.052.137.042a2.917,2.917,0,0,0,.177-.349C784.184,43.1,784.144,43.067,784.071,43.093Z" transform="translate(-664.979 0)"></path><path class="b" d="M241.2,182.965c.753-1.559,1.466-3.1,2.208-4.621a27.97,27.97,0,0,0,2.08-5.727c.478-1.986,1.126-3.931,1.6-5.918a26.418,26.418,0,0,0,.45-3.353,22.6,22.6,0,0,0,.2-2.957,20.634,20.634,0,0,0-.375-2.667c-.067-.421-.162-.838-.259-1.253a2.077,2.077,0,0,0-.162-.366c-.136.065-.345.094-.4.2a7.582,7.582,0,0,0-.615,1.483,6.353,6.353,0,0,0-.022,1.266c-.033.963-.064,1.927-.126,2.888-.028.428-.159.849-.191,1.277-.059.782-.026,1.573-.129,2.347a13.587,13.587,0,0,1-.558,2.706,1.84,1.84,0,0,1-1.923,1.24,9.7,9.7,0,0,1-4.488-1.006,5.134,5.134,0,0,1-2.883-3.532,7.815,7.815,0,0,1,.095-2.716,7.981,7.981,0,0,1,.725-2.25,4.114,4.114,0,0,1,3.221-2.245c1.055-.16,2.147-.057,3.215-.15a4.8,4.8,0,0,0,1.559-.425c.774-.357.784-.984.081-1.454-.059-.04-.1-.133-.156-.148a13.562,13.562,0,0,0-1.989-.442,22.127,22.127,0,0,0-3.489-.1,8.2,8.2,0,0,0-3.954,1.2,6.658,6.658,0,0,0-1.219,1.359c-1.042,1.23-2.312.717-3-.428a6.14,6.14,0,0,1-.679-2.6q-.221-2.005-.436-4.011c-.11-1.025-.206-2.052-.33-3.076-.131-1.085-.3-2.165-.429-3.249-.124-1.024-.176-2.058-.342-3.074-.17-1.04-.42-2.069-.677-3.092a8.581,8.581,0,0,0-.517-1.362c-.056-.126-.226-.2-.344-.3-.092.12-.237.227-.269.361a7.555,7.555,0,0,0-.149,3.285,9.346,9.346,0,0,1,.117,1.259c.077,1.24.139,2.48.222,3.72q.09,1.344.219,2.685a.928.928,0,0,1-.678.969c-.416.164-.714-.2-.838-.552-.324-.92-.63-1.85-.873-2.794-.331-1.284-.552-2.6-.915-3.871a2.83,2.83,0,0,0-.827-1.052c-.118-.116-.494-.174-.561-.1a1.079,1.079,0,0,0-.289.722c.137,1.075.328,2.143.519,3.21.111.621.271,1.233.38,1.854a2.245,2.245,0,0,1,.03.9.808.808,0,0,1-.47.486.823.823,0,0,1-.921-.366c-.255-.344-.482-.709-.739-1.052a2.144,2.144,0,0,0-.351-.305c-.109.162-.312.323-.312.485a19.35,19.35,0,0,0,.1,2.2c.106.924.265,1.843.431,2.759.13.72.3,1.433.461,2.148.1.446.264.9-.331,1.161-.069.03-.093.268-.066.394.332,1.512.682,3.019,1.018,4.53.484,2.177.956,4.357,1.439,6.534.424,1.91.856,3.818,1.283,5.728.219.98.4,1.971.671,2.936a5.815,5.815,0,0,0,.664,1.246,14.664,14.664,0,0,1,1.162,3.709c.424,1.571.829,3.148,1.172,4.738a29.164,29.164,0,0,1,.662,3.965,37.793,37.793,0,0,1,.095,5.5,42.911,42.911,0,0,1-.869,4.743c-.143.76-.269,1.522-.4,2.285-.2,1.2-.375,2.415-.611,3.613-.316,1.605-.686,3.2-1.021,4.8-.3,1.438-.6,2.876-.866,4.321-.182,1-.286,2.021-.445,3.029-.206,1.309-.441,2.613-.648,3.921-.159,1.008-.28,2.022-.442,3.03s-.363,2.028-.533,3.043c-.157.935-.281,1.876-.447,2.81-.224,1.265-.4,2.543-.725,3.783-.617,2.386-1.345,4.742-1.975,7.125-.288,1.088-.443,2.211-.679,3.314a4.372,4.372,0,0,1-.294.693c-.15.366-.418.643-.806.5-.415-.157-.475-.591-.411-.991.083-.521.207-1.037.321-1.553.251-1.129.495-2.26.765-3.385.257-1.07.568-2.128.808-3.2.265-1.184.5-2.376.708-3.571.274-1.56.514-3.127.767-4.691.184-1.14.324-2.289.555-3.419.3-1.481.7-2.943,1.011-4.422.272-1.291.517-2.59.714-3.895.369-2.443.492-4.918,1.081-7.335.508-2.088.912-4.2,1.312-6.315.266-1.406.461-2.827.657-4.246.138-1,.256-2.011.325-3.021.1-1.492.241-2.99.2-4.481a22.375,22.375,0,0,0-.612-4.851c-.373-1.492-.566-3.028-.9-4.532-.422-1.923-.915-3.831-1.352-5.751-.329-1.446-.615-2.9-.927-4.352q-.4-1.848-.81-3.692c-.379-1.693-.8-3.377-1.137-5.078-.306-1.554-.475-3.135-.788-4.687-.223-1.107-.6-2.181-.876-3.28-.206-.827-.367-1.667-.51-2.508a.57.57,0,0,1,.207-.49c.5-.218.331-.6.272-.939a13.291,13.291,0,0,1-.171-4.467c.087-.527.257-.991.842-1.083.677-.107.98.443,1.341.869.123.146.255.284.383.426-.017-.2-.018-.4-.053-.589-.178-1-.387-1.986-.54-2.985a13.523,13.523,0,0,1-.114-1.7c-.032-1.264.709-1.62,1.831-1.161a3.093,3.093,0,0,1,1.74,2.38c.427,1.666.741,3.36,1.112,5.041a1.118,1.118,0,0,0,.207.319,1.009,1.009,0,0,0,.107-.353c-.058-.606-.135-1.211-.212-1.815-.068-.533-.165-1.063-.212-1.6-.088-.985-.159-1.971-.219-2.958a17.309,17.309,0,0,1-.087-2.511,7.6,7.6,0,0,1,.54-2.163c.29-.718,1-.769,1.574-.242a4.644,4.644,0,0,1,1.225,2.541c.264,1.133.468,2.281.659,3.429q.31,1.868.543,3.748c.108.873.128,1.756.231,2.63.118,1,.306,1.982.422,2.978.1.892.126,1.793.231,2.684.114.96.28,1.913.435,2.867.013.079.115.144.175.215.048-.071.131-.137.14-.213a2.568,2.568,0,0,1,1.581-1.938,9.7,9.7,0,0,1,3.916-1.336,14.882,14.882,0,0,1,5.563.57,7.72,7.72,0,0,1,2.962,1.4.521.521,0,0,0,.442,0c1.084-.471,1.784-.142,2.076,1.036.246.991.486,1.987.654,2.993a23.844,23.844,0,0,1,.325,2.966c.054,1.383.069,2.773,0,4.154-.06,1.142-.276,2.275-.417,3.413-.079.64-.128,1.285-.223,1.923-.188,1.261-.363,2.526-.608,3.776-.574,2.93-2.163,5.422-3.53,8.006-.859,1.625-1.754,3.232-2.665,4.829-.6,1.046-1.321,2.024-1.859,3.1a14.337,14.337,0,0,0-1.208,3.139,21.607,21.607,0,0,0-.451,3.786c-.073,1.454-.045,2.915-.008,4.372.029,1.168.141,2.335.208,3.5.078,1.367.14,2.734.221,4.1.063,1.059.154,2.117.213,3.176.083,1.493.178,2.987.214,4.482.061,2.561.108,5.122.108,7.684,0,2.616-.059,5.231-.1,7.847-.017.965-.092,1.929-.1,2.894q-.068,6.645-.112,13.29c-.007.925.026,1.852-.007,2.776-.048,1.35-.106,2.7-.222,4.046-.1,1.105-.3,2.2-.416,3.3-.045.415-.249.388-.542.323a1.856,1.856,0,0,0-.588-.063c-.519.057-.771-.113-.72-.634.116-1.195.285-2.384.424-3.576q.073-.628.109-1.261c.044-.819.07-1.639.112-2.458.069-1.349.145-2.7.216-4.046.039-.747.091-1.494.106-2.241.046-2.307.07-4.615.115-6.922.019-.947.046-1.895.11-2.839.421-6.262.138-12.531.2-18.8.012-1.2-.132-2.407-.206-3.611-.071-1.149-.151-2.3-.216-3.448-.08-1.421-.134-2.843-.223-4.264-.093-1.48-.22-2.958-.321-4.437a16.656,16.656,0,0,1-.1-2.185c.1-1.539.2-3.085.441-4.607a28.811,28.811,0,0,1,.992-4.485c.464-1.427,1.208-2.762,1.8-4.152.418-.99.78-2,1.194-3.036m-4.327-20.82a8.528,8.528,0,0,1-.114.932c-.541,2.341.8,3.772,2.679,4.551a10.178,10.178,0,0,0,3.256.686c.978.064,1.267-.22,1.449-.988a20.861,20.861,0,0,0,.346-2.741c.09-.91.152-1.824.221-2.736.076-1,.158-2.005.2-3.009,0-.1-.3-.337-.373-.306a8.074,8.074,0,0,1-2.76.3,11.223,11.223,0,0,0-2.188.231,2.964,2.964,0,0,0-2.072,1.37c-.269.514-.4,1.1-.644,1.711m10.016,12.3c.026-.171.051-.342.077-.512.083-.546.174-1.09.243-1.638.012-.094-.068-.2-.105-.3-.071.087-.183.165-.208.264q-.289,1.134-.549,2.275a29.464,29.464,0,0,1-1.995,5.048c-.3.709-.754,1.356-1.045,2.069a43.588,43.588,0,0,1-2.4,5.645c-.064.11,0,.294,0,.443a1.356,1.356,0,0,0,.308-.282c1.044-1.851,2.09-3.7,3.111-5.564a28.184,28.184,0,0,0,2.555-7.449m-18.616,17.309c0-.236.007-.472,0-.707a.753.753,0,0,0-.082-.218c-.08.061-.214.109-.231.184a4.883,4.883,0,0,0-.115.824c-.046.9-.07,1.8-.116,2.694-.016.313-.1.624-.093.934a2.1,2.1,0,0,0,.2.59,1.867,1.867,0,0,0,.213-.527c.089-1.22.154-2.442.226-3.773m0-2.286c-.073-.548-.14-1.1-.226-1.643-.009-.06-.128-.1-.2-.154-.037.059-.107.119-.1.175.023.5.046,1,.1,1.5a10.286,10.286,0,0,0,.179,1.064c.016.077.112.137.171.205a.789.789,0,0,0,.078-.222c.009-.271,0-.542,0-.921m4.572-33.312c.089.019.207.085.264.051.348-.215.677-.458,1.021-.679.255-.164.527-.3.781-.466.058-.038.072-.144.106-.218a.955.955,0,0,0-.223.021A3.8,3.8,0,0,0,232.846,156.158Z" transform="translate(-194.096 -120.468)"></path><path class="b" d="M1417.642,120.858a2.8,2.8,0,0,1,1.877,2.761c.075,1.077.127,2.155.223,3.23.127,1.429.259,2.859.438,4.282.184,1.456.438,2.9.642,4.357.162,1.153.322,2.308.431,3.467a6.968,6.968,0,0,1-.72,3.345c-.587,1.408-1.172,2.817-1.73,4.236-.546,1.389-.992,2.821-1.605,4.178a11.491,11.491,0,0,1-1.533,2.407,6.025,6.025,0,0,0-1.027,2.734c-.32,1.569-.543,3.158-.775,4.743-.206,1.409-.382,2.823-.545,4.238q-.2,1.7-.326,3.4c-.126,1.677-.276,3.355-.319,5.035-.078,3.032-.1,6.066-.114,9.1-.006,1,.058,2,.1,3,.065,1.422.148,2.843.214,4.264.045.964.069,1.93.114,2.894.014.306-.081.588-.4.556a.778.778,0,0,1-.565-.436c-.167-.666-.245-1.355-.348-2.036-.186-1.231-.377-2.46-.54-3.694-.071-.543-.083-1.094-.114-1.642-.041-.747-.071-1.494-.111-2.241q-.105-2-.218-3.992c-.032-.566-.093-1.131-.1-1.7-.045-2.271-.07-4.542-.115-6.813-.02-1.019-.116-2.039-.1-3.057.034-1.676.1-3.354.217-5.026a29.237,29.237,0,0,1,1.1-6.4,4.4,4.4,0,0,1,.837-1.389,17.235,17.235,0,0,0,1.619-1.842,28.117,28.117,0,0,0,1.26-2.9c.9-2.04,1.852-4.059,2.719-6.113a45.069,45.069,0,0,0,1.779-4.755,6.065,6.065,0,0,0-.084-2.28c-.1-.853-.3-1.694-.414-2.545-.167-1.243-.308-2.49-.437-3.738-.125-1.205-.21-2.414-.333-3.62-.132-1.3-.257-2.606-.455-3.9a1.58,1.58,0,0,0-.585-.824c-.582-.485-1.121-.243-1.361.509-.373,1.167-.772,2.328-1.23,3.463-.1.257-.5.4-.761.589-.168-.233-.45-.451-.483-.7-.123-.943-.149-1.9-.242-2.846-.129-1.3-.3-2.6-.427-3.9-.094-.948-.154-1.9-.221-2.849-.112-1.588-.21-3.176-.33-4.763a24.032,24.032,0,0,0-1.422-6.541,18.131,18.131,0,0,0-.981-2.15.559.559,0,0,0-1.062.047,11.484,11.484,0,0,0-.647,2.393c-.131.988-.084,2-.134,3-.061,1.222-.129,2.445-.228,3.665a1.871,1.871,0,0,1-.3.606c-.148-.234-.416-.464-.426-.7-.073-1.634-.158-3.273-.112-4.907a19.408,19.408,0,0,0-1.227-6.63,3.247,3.247,0,0,0-.646-.98c-.265-.318-.576-.251-.81.055a5.162,5.162,0,0,0-1.022,3c-.028.672.078,1.348.083,2.023,0,.137-.179.276-.276.414-.085-.11-.241-.22-.242-.331-.008-.641-.574-1.211-.246-1.9.011-.024-.079-.135-.13-.142a.263.263,0,0,0-.218.073,6.659,6.659,0,0,1-1.655,1.481,2.428,2.428,0,0,0-.582,1.262q-.643,2.653-1.2,5.327c-.131.629-.115,1.289-.243,1.918a2.107,2.107,0,0,1-.471.886c-.349.412-.646.324-.818-.2-.329-.989-.648-1.981-.988-2.966-.041-.119-.183-.2-.279-.3-.086.091-.218.168-.251.275-.41,1.319-.855,2.63-1.185,3.97a16.764,16.764,0,0,0-.239,2.3c-.142,1.392-.273,2.785-.439,4.174-.159,1.325-.375,2.642-.535,3.967a32.832,32.832,0,0,0-.408,4.119c.01,1.628.247,3.256.408,4.881.125,1.266.237,2.537.445,3.791.237,1.43.55,2.849.871,4.264.372,1.638.787,3.265,1.185,4.9s.843,3.253,1.181,4.9a38.154,38.154,0,0,1,.548,3.8,19.2,19.2,0,0,1,.105,2.946c-.087,1.667-.277,3.328-.418,4.991-.079.931-.124,1.865-.224,2.794-.121,1.122-.291,2.238-.428,3.358-.085.694-.135,1.393-.223,2.086-.134,1.048-.3,2.092-.43,3.141-.122.969-.215,1.942-.331,2.912-.139,1.174-.3,2.346-.43,3.521-.091.821-.159,1.644-.219,2.468-.116,1.587-.217,3.176-.33,4.763-.065.914-.154,1.826-.214,2.74-.083,1.257-.141,2.516-.222,3.774-.062.969-.144,1.936-.215,2.9-.11,1.5-.209,2.995-.33,4.491-.094,1.154-.192,2.308-.329,3.457-.2,1.654-.435,3.3-.646,4.956-.153,1.191-.272,2.386-.444,3.574-.107.744-.273,1.48-.437,2.214-.03.136-.176.245-.269.367a.964.964,0,0,1-.152-.316c-.036-.614-.057-1.228-.071-1.843a4.045,4.045,0,0,1,.063-.407q.221-2.658.436-5.317c.041-.511.068-1.023.11-1.533.143-1.736.291-3.472.434-5.208q.063-.766.109-1.533c.075-1.24.14-2.48.22-3.72q.155-2.409.327-4.818.152-2.11.326-4.219c.1-1.262.2-2.524.329-3.783q.192-1.926.435-3.847c.206-1.653.438-3.3.649-4.955.154-1.209.287-2.42.438-3.629.176-1.4.373-2.788.539-4.184.1-.82.139-1.646.224-2.467.137-1.32.291-2.637.432-3.957.046-.437.089-.876.108-1.316a25.094,25.094,0,0,0,.087-3.164,39.819,39.819,0,0,0-.639-4.193c-.278-1.435-.617-2.859-.976-4.275-.352-1.391-.751-2.771-1.15-4.15-.58-2.008-1.225-4-1.75-6.021a30.6,30.6,0,0,1-.674-3.748c-.228-1.751-.435-3.51-.539-5.271-.11-1.867-.138-3.743-.109-5.614a25.557,25.557,0,0,1,.33-3.781,44.409,44.409,0,0,1,1-4.481c.473-1.719,1.036-3.414,1.6-5.1a4.973,4.973,0,0,1,.74-1.376,1.813,1.813,0,0,1,2.7-.265,3.431,3.431,0,0,1,.353.668c.047.092.093.185.139.277.064-.095.17-.183.186-.285.121-.769.154-1.56.348-2.309.385-1.484.8-2.965,1.314-4.408a8.557,8.557,0,0,1,1.179-2.063,1.157,1.157,0,0,1,1.477-.419c.27.111.441-.092.606-.359a4.436,4.436,0,0,1,1.028-1.244,1.639,1.639,0,0,1,2.524.464,7.9,7.9,0,0,1,1.115,3.076.234.234,0,1,0,.428.15,1.866,1.866,0,0,1,3.253.093,13.862,13.862,0,0,1,1.962,4.9,26.539,26.539,0,0,1,.437,3.138c.117,1.381.129,2.771.236,4.154.111,1.43.289,2.855.426,4.284.084.876.162,1.753.214,2.631.031.512,0,1.028.011,1.542,0,.075.074.149.113.223.077-.047.19-.077.223-.145.065-.135.071-.3.125-.437.346-.9.715-1.6,1.977-1.444.181.022.366,0,.577.03m-5.96,45.1c0,.471.027.944-.007,1.413-.045.624-.161,1.244-.2,1.868a8.941,8.941,0,0,0,.094.933c.018.422,0,.846.008,1.269a1.873,1.873,0,0,0,.063.329c.087-.109.24-.213.249-.328q.087-1.035.116-2.075c.018-.6-.038-1.212.012-1.812.12-1.464.281-2.925.428-4.387.108-1.079.162-2.166.34-3.233.235-1.411.567-2.806.857-4.209.013-.063.018-.128.027-.192-.1.01-.254-.017-.292.037a2.477,2.477,0,0,0-.482.828c-.356,1.816-.728,3.633-.974,5.466-.177,1.315-.165,2.656-.238,4.094m-19.7-43.11c-.073.894-.176,1.787-.209,2.682-.036.983-.013,1.969,0,2.953a1.675,1.675,0,0,0,.109.407c.071-.142.2-.284.2-.427,0-.311-.107-.625-.087-.932.033-.5.151-.99.2-1.487.086-.82.124-1.645.227-2.463.2-1.6.432-3.19.647-4.785.077-.567.143-1.136.219-1.7.069-.514.165-1.025.2-1.541.012-.157-.124-.325-.192-.488a1.589,1.589,0,0,0-.224.41c-.161.788-.271,1.587-.453,2.369a23.644,23.644,0,0,0-.643,5m9.907-20.466c.154-.154.315-.3.457-.464a1.025,1.025,0,0,0,.12-.265c-.124-.007-.284-.067-.364-.011a2.085,2.085,0,0,0-.5.494,4.114,4.114,0,0,0-.306.634c.179-.111.358-.222.592-.388m-3.81,9.145.122.381.2-.257A.589.589,0,0,0,1398.073,111.523Z" transform="translate(-1239.573 -87.154)"></path><path class="b" d="M1119.969,341.806a8.054,8.054,0,0,1,.348-4.284c.4-1.063,1.167-1.378,2.226-.607a9.292,9.292,0,0,1,2.816,4.053,40.958,40.958,0,0,1,1.7,4.629c.541,1.78.95,3.6,1.4,5.408.321,1.284.635,2.571.921,3.864.295,1.334.546,2.677.825,4.014.219,1.05.431,2.1.7,3.142a.877.877,0,0,0,.547.451.736.736,0,0,0,.914-.542,14.965,14.965,0,0,0,.657-2.175c.258-1.207.465-2.427.658-3.647.141-.893.2-1.8.338-2.693.182-1.226.379-2.45.6-3.669.248-1.343.525-2.682.81-4.018a16.316,16.316,0,0,1,1.192-4.241c.2-.387.379-.786.544-1.19a1.229,1.229,0,0,1,1.214-.873,1.589,1.589,0,0,1,1.536.955,14.943,14.943,0,0,1,.721,2.474,31.772,31.772,0,0,1,.537,3.855c.073,1.139-.05,2.291-.085,3.437,0,.163.013.328,0,.49-.142,1.482-.281,2.965-.436,4.446-.1.918-.241,1.831-.318,2.75-.1,1.183-.16,2.37-.222,3.556a26.106,26.106,0,0,0-.094,2.839c.076,1.323.313,2.636.406,3.958.09,1.269.095,2.545.117,3.819.018,1.016.06,2.036-.011,3.047-.083,1.178-.307,2.345-.413,3.523a9.627,9.627,0,0,0,.09,3.914,3.687,3.687,0,0,1,.115,1.094c.01,1.978.061,3.957-.011,5.932a20.726,20.726,0,0,1-1.307,5.6c-.7,2.161-1.389,4.326-2.029,6.506a7.76,7.76,0,0,0-.232,1.916c-.061,1.853-.106,3.707-.11,5.561,0,1.491.037,2.983.109,4.472.073,1.517.175,3.034.328,4.545.179,1.764.408,3.524.649,5.281.23,1.676.5,3.347.758,5.019.211,1.362.471,2.719.63,4.087a4.381,4.381,0,0,1-.257,1.3c-.04.19-.231.383.027.571.048.035.032.166.032.253,0,.478.014.956-.005,1.434a2.678,2.678,0,0,1-.133.541,1.642,1.642,0,0,1-.287-.43c-.13-.478-.4-.963-.019-1.458.027-.034-.082-.252-.13-.253-.782-.022-.954-.2-1.064-.882-.267-1.661-.575-3.316-.863-4.975-.22-1.27-.423-2.543-.657-3.811-.273-1.48-.594-2.952-.851-4.435a23.567,23.567,0,0,1-.332-2.745c-.079-1.489-.128-2.982-.109-4.472.023-1.749.077-3.5.222-5.243.147-1.766.369-3.53.653-5.28.243-1.5.616-2.969.941-4.451q.547-2.493,1.114-4.982c.28-1.225.587-2.443.866-3.668.2-.865.363-1.737.552-2.6a.952.952,0,0,1,.152-.257c.057.081.115.161.169.243.041.062.075.128.112.192.035-.066.1-.133.1-.2-.066-1.385-.141-2.77-.212-4.156-.042-.812-.6-1.5-.463-2.382a13.037,13.037,0,0,0,.021-2.5c-.051-1.386-.132-2.771-.214-4.155-.06-1-.167-2.007-.209-3.013-.06-1.4-.073-2.8-.119-4.2-.011-.336.031-.551.454-.539.1,0,.3-.274.3-.413-.04-.806-.173-1.609-.193-2.415-.034-1.4-.08-2.8.011-4.189.088-1.346.345-2.681.523-4.021.08-.6.162-1.208.216-1.815.119-1.333.236-2.666.325-4a20,20,0,0,0,.092-2.838c-.089-1.148-.334-2.284-.525-3.423-.093-.556-.191-1.114-.338-1.658-.048-.177-.256-.426-.4-.43s-.375.2-.469.372a12.48,12.48,0,0,0-1.2,3.913c-.3,1.624-.7,3.23-1.038,4.847-.241,1.136-.519,2.268-.681,3.417a52.961,52.961,0,0,1-1.436,8.009,2.929,2.929,0,0,1-1.437,1.966,1.866,1.866,0,0,1-1.973-.23,3.223,3.223,0,0,1-1.25-2.3c-.533-2.143-1.081-4.286-1.491-6.455a28.079,28.079,0,0,0-1.49-4.178c-.552-1.548-1.177-3.071-1.7-4.628-.761-2.264-1.455-4.55-2.193-6.822a3.5,3.5,0,0,0-.462-.948c-.195-.271-.38-.211-.522.122a4.662,4.662,0,0,0-.266,2.847c.485,2.159,1.17,4.273,1.67,6.429.266,1.146.292,2.345.462,3.515.235,1.621.469,3.244.767,4.854.28,1.506.744,2.984.936,4.5a13.938,13.938,0,0,1-.1,3.322,1.188,1.188,0,0,1-1.613.875,1.607,1.607,0,0,0-2.274.977,8.346,8.346,0,0,0-.9,3.282,3.313,3.313,0,0,1-1.068,2.707,12.812,12.812,0,0,1-1.216.877,1.159,1.159,0,0,0-.63,1.2q.239,2.123.54,4.238c.467,3.252,1.655,6.316,2.482,9.473.488,1.861.877,3.754,1.2,5.652.244,1.447.342,2.922.447,4.389.111,1.546.24,3.1.2,4.644-.038,1.593-.269,3.182-.41,4.773-.045.51-.06,1.023-.113,1.533-.137,1.338-.294,2.673-.43,4.011-.085.84-.131,1.683-.224,2.522-.129,1.157-.293,2.311-.428,3.467-.055.473-.075.949-.112,1.424-.108,1.37-.211,2.741-.328,4.11-.1,1.153-.213,2.305-.325,3.457-.143,1.464-.3,2.927-.433,4.392-.12,1.3-.226,2.594-.327,3.892-.116,1.478-.245,2.956-.321,4.437-.071,1.4-.074,2.8-.121,4.2-.01.309-.094.616-.124.925-.023.231-.007.466-.022.7a1.911,1.911,0,0,1-.09.689c-.066.135-.306.186-.469.274-.09-.2-.313-.49-.25-.581.539-.775.051-1.495-.061-2.231a2.251,2.251,0,0,1-.066-.243c-.04-1.2-.118-2.4-.1-3.6.019-1.223.121-2.445.209-3.665q.141-1.948.326-3.892c.131-1.375.285-2.747.433-4.12.142-1.319.282-2.638.437-3.956.174-1.486.375-2.969.538-4.456.132-1.2.2-2.415.336-3.619.16-1.433.377-2.86.533-4.293.107-.982.144-1.972.226-2.957.139-1.664.331-3.325.422-4.991.091-1.651.1-3.307.114-4.962.006-.583-.066-1.167-.1-1.751-.108-1.747-.268-3.483-.51-5.222a51.865,51.865,0,0,0-2.073-8.295c-.4-1.269-.847-2.524-1.177-3.81-.3-1.175-.5-2.379-.695-3.577-.148-.892-.237-1.794-.332-2.694a2.4,2.4,0,0,1,1.375-2.5,3.071,3.071,0,0,0,1.693-2.89,6.491,6.491,0,0,1,.817-3.028,17.425,17.425,0,0,1,1.01-1.647,1.649,1.649,0,0,1,1.832-.461c.853.19,1.084.038,1.114-.814a18.462,18.462,0,0,0-.774-4.634c-.3-1.348-.644-2.691-.849-4.054a68.6,68.6,0,0,0-1.208-7.722c-.312-1.162-.587-2.334-.871-3.5a2.146,2.146,0,0,1,0-.442m16.438,79.525c-.145-1.317-.3-2.633-.43-3.953-.069-.731-.062-1.469-.12-2.2-.048-.612-.143-1.221-.21-1.832-.011-.1.025-.21.023-.315,0-.336-.009-.673-.032-1.008-.005-.075-.089-.144-.136-.216a.917.917,0,0,0-.072.229c-.041.927-.147,1.859-.1,2.781.085,1.52.247,3.038.428,4.55.137,1.145.352,2.28.539,3.418a.868.868,0,0,0,.12.235.77.77,0,0,0,.089-.264c-.025-.439-.067-.876-.1-1.423m3.157-48.227c-.036-.184-.14-.385-.1-.547a2.627,2.627,0,0,0-.12-1.818c-.043-.1-.073-.2-.11-.3a1.207,1.207,0,0,0-.1.356q.039,1.287.108,2.572a3.417,3.417,0,0,0,.122.556c.067-.182.137-.362.2-.546A1.285,1.285,0,0,0,1139.564,373.1Z" transform="translate(-994.346 -299.856)"></path><path class="b" d="M482.092,474.437c-.109.59-.2,1.129-.329,1.66-.355,1.5-.665,3.019-1.1,4.5-.9,3.086-1.9,6.147-2.812,9.229-.722,2.426-1.367,4.875-2.08,7.3q-1.217,4.146-2.5,8.272c-.537,1.734-1.148,3.446-1.682,5.181-.59,1.917-1.137,3.849-1.689,5.778-.168.586-.273,1.192-.453,1.774-.049.158-.269.263-.41.393a2.439,2.439,0,0,1-.114-.456c-.01-.172.044-.348.042-.522a2.383,2.383,0,0,0-.076-.41c-.126.072-.328.117-.365.221-.183.506-.319,1.029-.48,1.544-.053.169-.131.33-.2.495-.084-.133-.221-.258-.241-.4a1.776,1.776,0,0,1,.016-.782c.449-1.318.932-2.625,1.4-3.935.58-1.61,1.2-3.209,1.733-4.833.7-2.108,1.338-4.236,2-6.357.826-2.652,1.68-5.3,2.464-7.959.872-2.964,1.667-5.95,2.516-8.92.672-2.35,1.421-4.679,2.049-7.041.541-2.036,1.009-4.095,1.412-6.162a5.284,5.284,0,0,0-.683-3.352,41.257,41.257,0,0,1-3.229-7.48,3.132,3.132,0,0,0-1.052-1.639,8.2,8.2,0,0,1-1.909-2.138,4.557,4.557,0,0,1-.025-4.135c.264-.585,1.031-.978,1.629-1.368.515-.336,1.13-.514,1.671-.816a1.567,1.567,0,0,0,.8-2.021c-.362-1.215-.615-2.463-1-3.671-.837-2.64-1.784-5.238-2.858-7.8a26.343,26.343,0,0,1-1.15-4.2,21.617,21.617,0,0,1-.631-3.485,5.7,5.7,0,0,1,.226-3.048c.352-.705.894-.694,1.42-.236a11.192,11.192,0,0,1,2.865,4.309c.953,2.309,1.784,4.671,2.59,7.036.69,2.023,1.26,4.086,1.91,6.123a12.009,12.009,0,0,0,.651,1.471c.044.093.164.151.249.225a1.656,1.656,0,0,0,.069-.287,13.123,13.123,0,0,0,.1-1.967c-.13-1.453-.339-2.9-.531-4.348-.132-.994-.323-1.981-.424-2.978-.143-1.4-.233-2.811-.332-4.218a17.063,17.063,0,0,1-.1-2.24c.1-1.594.269-3.183.424-4.773a28.353,28.353,0,0,1,.342-2.855,10.7,10.7,0,0,1,.767-2.4c.352-.752,1.274-.653,1.714.144a22.65,22.65,0,0,1,1.846,4.894c.4,1.419.742,2.855,1.065,4.294.2.888.32,1.794.466,2.693.187,1.158.379,2.315.54,3.476.1.728.154,1.463.222,2.2.112,1.206.216,2.414.334,3.62.006.064.115.117.176.176.048-.072.13-.14.138-.216.116-1.133.183-2.274.343-3.4.169-1.187.417-2.363.644-3.541.246-1.275.43-2.569.781-3.816a35.549,35.549,0,0,1,1.407-3.986c.469-1.13,1.053-2.215,1.633-3.3a2.882,2.882,0,0,1,.783-.868,1.149,1.149,0,0,1,1.751.492,8.2,8.2,0,0,1,.717,3.077c.114,1.642.254,3.283.319,4.927.075,1.907.131,3.817.1,5.724-.02,1.3-.171,2.6-.318,3.892-.142,1.254-.418,2.495-.515,3.75a19.984,19.984,0,0,0,.093,2.783c.045.715.1,1.434.22,2.14.214,1.3.508,2.59.706,3.894a26.085,26.085,0,0,1,.353,3.386c.023,1.184-.235,2.377-.167,3.555a32.544,32.544,0,0,0,.591,4.047,17.18,17.18,0,0,1,.462,4.212,19.122,19.122,0,0,1-1,3.826c-.266.969-.445,1.964-.617,2.956-.276,1.6-.49,3.2-.784,4.8a3.912,3.912,0,0,1-.543,1.24,9.154,9.154,0,0,0-1.193,3.865c-.417,4.085-.1,8.179-.212,12.266-.043,1.549-.07,3.1-.227,4.644-.375,3.687-.125,7.38-.2,11.069-.02,1,.036,2-.012,2.993a25.233,25.233,0,0,1-.5,4.953,16.039,16.039,0,0,0-.151,2.668,2.027,2.027,0,0,1-.267.7,3.789,3.789,0,0,0-.363.61c-.093.349-.351.289-.546.242a.474.474,0,0,1-.217-.395c.086-.9.253-1.8.3-2.7a10.92,10.92,0,0,0-.2-1.6c-.054-.527-.093-1.058-.11-1.587-.046-1.418-.1-2.836-.1-4.255,0-.91.1-1.821.093-2.731-.007-1.4-.073-2.8-.1-4.2-.043-2.235-.092-4.469-.1-6.7-.006-1.164.042-2.33.107-3.492.085-1.5.209-2.995.322-4.491.066-.878.113-1.758.225-2.63.138-1.076.337-2.145.505-3.217.123-.785.218-1.574.362-2.355a8.962,8.962,0,0,1,2.086-4.913,2.05,2.05,0,0,0,.4-1.073c.177-1.151.225-2.325.465-3.461.367-1.739.812-3.465,1.3-5.174a9.394,9.394,0,0,0,.124-4.813,27.834,27.834,0,0,1-.557-3.25c-.134-1.215-.2-2.441-.217-3.664-.011-.658.193-1.319.186-1.978a12.966,12.966,0,0,0-.23-2.241c-.247-1.323-.593-2.627-.833-3.95a23.424,23.424,0,0,1-.43-5.7c.069-1.07.285-2.129.419-3.2.089-.712.182-1.426.214-2.141.091-2.019.2-4.04.209-6.06.008-1.439-.087-2.883-.214-4.317s-.346-2.863-.538-4.293a1.872,1.872,0,0,0-.2-.57c-.074-.148-.223-.4-.294-.381a.737.737,0,0,0-.473.314c-.637,1.277-1.333,2.534-1.839,3.863-.586,1.538-1.037,3.133-1.473,4.723-.306,1.116-.513,2.262-.721,3.4-.244,1.338-.444,2.685-.659,4.028-.149.937-.28,1.877-.444,2.812a1.552,1.552,0,0,1-.275.644c-.448.6-1.031.457-1.434-.34a6.823,6.823,0,0,1-.556-2c-.223-1.406-.387-2.822-.553-4.236-.127-1.078-.187-2.164-.339-3.238-.18-1.276-.418-2.544-.647-3.813-.243-1.348-.428-2.714-.78-4.034-.424-1.59-1-3.141-1.508-4.707-.02-.062-.1-.1-.146-.157-.1.1-.24.178-.277.293a7.464,7.464,0,0,0-.327,1.278c-.168,1.334-.323,2.671-.438,4.01-.136,1.586-.308,3.175-.309,4.763a41.222,41.222,0,0,0,.318,4.707c.185,1.608.568,3.195.724,4.8.142,1.462.114,2.943.12,4.416a4.833,4.833,0,0,1-.217,1.376c-.2.685-.732,1.005-1.357.342a9.331,9.331,0,0,1-2.009-3.793c-.615-1.994-1.231-3.987-1.887-5.968-.612-1.849-1.273-3.681-1.921-5.518a9.713,9.713,0,0,0-1.766-3.079,3.856,3.856,0,0,0-.236-.334,4.706,4.706,0,0,0-.451-.34c-.089.181-.255.362-.253.543a22.259,22.259,0,0,0,.108,2.4,19.017,19.017,0,0,0,.428,2.215c.394,1.648.725,3.319,1.249,4.927.513,1.574,1.26,3.069,1.852,4.619.527,1.38.974,2.789,1.474,4.18a11.554,11.554,0,0,1,.758,3.552A2.317,2.317,0,0,1,478.37,453a4.223,4.223,0,0,0-1.815,3.955,8.946,8.946,0,0,0,1.655,4.1,30.832,30.832,0,0,1,1.9,3.455,27.744,27.744,0,0,1,1.219,3.249,15.232,15.232,0,0,1,.865,5.737c-.02.3-.07.592-.107.943m11.648,42.729c-.036-1.207-.108-2.414-.1-3.62q.027-5.638.111-11.275c.019-1.186.15-2.37.205-3.557.054-1.163.074-2.328.114-3.492.032-.953.079-1.905.105-2.858.015-.562.016-1.125-.008-1.687-.005-.119-.149-.231-.229-.346a2.286,2.286,0,0,0-.084.326c-.077.7-.172,1.389-.215,2.087-.122,1.986-.247,3.972-.324,5.96-.07,1.822-.086,3.647-.113,5.47-.015,1-.012,2,0,2.993.005.348.095.7.1,1.044.013,1.149.007,2.3,0,3.447,0,.359-.017.717-.031,1.075-.024.606-.091,1.214-.067,1.818.032.788.157,1.572.2,2.36.035.621,0,1.246.012,1.869,0,.061.076.121.117.182.032-.051.087-.1.092-.154.042-.51.076-1.022.113-1.642m-17.854-61.182a2.956,2.956,0,0,1,.84-2.157c.064-.057.056-.195.082-.3-.064-.006-.142-.04-.19-.015a3.015,3.015,0,0,0-1.662,1.446,3.382,3.382,0,0,0-.087,2.588,8.467,8.467,0,0,0,1.026,1.585c.131.182.451.459.514.42.385-.24-.081-.417-.11-.645a1.566,1.566,0,0,0-.2-.46,6.253,6.253,0,0,1-.217-2.466m4.572,10.669c-.6-1.291-1.2-2.584-1.811-3.872-.049-.1-.174-.173-.264-.259a1.008,1.008,0,0,0,.012.345q1.023,2.458,2.065,4.909a.611.611,0,0,0,.143.211.573.573,0,0,0,.189.074.59.59,0,0,0,.009-.191C480.692,467.5,480.574,467.131,480.459,466.653Z" transform="translate(-416.67 -374.463)"></path><path class="b" d="M1.981,360.541a10.88,10.88,0,0,1-.561-1.492c-.22-.914-.379-1.842-.554-2.766-.195-1.027-.355-2.062-.573-3.084a16.038,16.038,0,0,1-.215-4.731,7.228,7.228,0,0,1,.957-3.15,7.692,7.692,0,0,1,2.83-2.825,17.508,17.508,0,0,0,2.6-2.251,15.618,15.618,0,0,1,1.879-1.229c.3-.19.51-.349.383-.811-.549-1.991-1.077-3.99-1.537-6-.291-1.272-.44-2.576-.669-3.862q-.47-2.632-.967-5.26c-.252-1.346-.531-2.686-.768-4.035s-.47-2.718-.642-4.085a4.574,4.574,0,0,1,.109-1.528.806.806,0,0,1,1.255-.523,5.254,5.254,0,0,1,2.321,2.883c.8,2.063,1.582,4.134,2.406,6.188.637,1.586,1.394,3.127,1.976,4.732.573,1.581,1,3.216,1.477,4.831.139.471.225.958.352,1.434.024.089.125.156.191.234.043-.109.145-.233.121-.325a10.712,10.712,0,0,1,.114-4.077c.058-.472.059-.951.116-1.424.173-1.45.36-2.9.541-4.347.146-1.173.262-2.352.442-3.52a22.225,22.225,0,0,1,1.852-7.177,4.685,4.685,0,0,1,.7-.961.59.59,0,0,1,.983.009,7.741,7.741,0,0,0,1.607,1.484,5.683,5.683,0,0,1,1.708,3.152,19.512,19.512,0,0,1,.561,4.89c-.019,1.29.086,2.582.09,3.874,0,1-.1,2-.094,3,.014,2.253.061,4.506.1,6.758.028,1.491.095,2.982.1,4.473,0,1.11-.056,2.22-.1,3.329-.063,1.476-.151,2.951-.213,4.428a6.92,6.92,0,0,0,.808,3.31,6.981,6.981,0,0,1,.729,2.971,22.986,22.986,0,0,1-.877,6.282c-.337,1.3-.47,2.665-.909,3.927a45.151,45.151,0,0,0-1.65,5.246c-.2.9-.343,1.821-.5,2.734-.191,1.139-.377,2.279-.542,3.422-.1.674-.186,1.353-.216,2.032-.091,2.074-.092,4.153-.246,6.222-.1,1.353-.409,2.69-.619,4.036a2.813,2.813,0,0,0-.012.431c0,2.413-.016,4.826.01,7.239.007.66.14,1.318.2,1.979a2.2,2.2,0,0,1-.037.418,1.915,1.915,0,0,1-.337-.208,8.345,8.345,0,0,1-.834-.844,1.268,1.268,0,0,1-.3-.684c-.059-2-.081-4-.13-6a.684.684,0,0,0-.2-.452,1.2,1.2,0,0,1-.441-1.128c.143-1.083.293-2.165.433-3.249.08-.622.166-1.244.215-1.869.121-1.514.21-3.031.334-4.545.088-1.063.191-2.126.327-3.185.236-1.838.5-3.673.757-5.509.181-1.3.336-2.612.552-3.91.221-1.334.524-2.654.748-3.987.181-1.077.33-2.161.435-3.248.141-1.458.256-2.919.326-4.382q.111-2.315.109-4.635c0-1.745-.105-3.49-.089-5.234.014-1.531.151-3.06.2-4.591.087-2.6.316-5.21.178-7.8-.16-3-.1-6-.191-9-.044-1.395-.27-2.783-.419-4.174a18.444,18.444,0,0,0-.361-2.9,7.864,7.864,0,0,0-1.107-2.037.489.489,0,0,0-.83.166,30.393,30.393,0,0,0-.953,3.032c-.382,1.648-.7,3.313-.984,4.981-.169.979-.224,1.977-.339,2.965-.177,1.522-.362,3.043-.542,4.565-.011.089,0,.181,0,.272-.036,1.11-.041,2.222-.119,3.329-.056.793-.2,1.581-.323,2.368a1.012,1.012,0,0,1-.217.451c-.352.436-.693.4-.891-.144-.381-1.041-.72-2.1-1.061-3.153-.77-2.385-1.417-4.817-2.325-7.148-1.059-2.716-2.361-5.334-3.253-8.125a14.736,14.736,0,0,0-1.308-2.557,1.388,1.388,0,0,0-.526-.421.37.37,0,0,0-.32.017c-.046.027-.025.19-.012.288.111.842.206,1.687.345,2.525q.321,1.929.7,3.848c.257,1.3.563,2.6.82,3.9.413,2.1.769,4.211,1.21,6.305.507,2.413,1.105,4.807,1.609,7.221.151.726-.113,1.126-.823,1.544a9.581,9.581,0,0,0-1.522.9,13.978,13.978,0,0,0-1.469,1.658c-.755.917-1.526,1.823-2.226,2.781a10.568,10.568,0,0,0-2,3.686,6.308,6.308,0,0,0-.12,2.806c.1.48.057.987.125,1.476.162,1.162.319,2.326.538,3.479.337,1.777.732,3.543,1.087,5.317.3,1.51.6,3.021.865,4.539.153.891.235,1.794.333,2.694q.268,2.478.5,4.959c.007.079-.2.266-.263.249-.757-.2-.945-.469-1-1.223-.13-1.628-.2-3.268-.452-4.879-.352-2.246-.85-4.469-1.285-6.7-.056-.287-.109-.575-.191-.89m21.2-5.144c.038-.256.073-.513.115-.768a6.644,6.644,0,0,0-.108-3.133c-.2-.621-.469-1.219-.726-1.818a3.37,3.37,0,0,0-.34-.515q-.015.275-.029.55c0,.018,0,.036,0,.054q-.054,2.995-.109,5.989a1.581,1.581,0,0,1,0,.163c-.144,1.172-.279,2.346-.438,3.516q-.167,1.228-.391,2.447c-.141.771-.325,1.534-.468,2.3-.023.125.066.272.1.409a1.656,1.656,0,0,0,.211-.371c.363-1.373.724-2.747,1.068-4.125.381-1.529.744-3.063,1.114-4.7m-1.2-34.51c0-.457,0-.915,0-1.372,0-.069-.06-.138-.092-.207-.041.078-.119.158-.116.235.025.6.064,1.2.107,1.8,0,.051.064.1.1.146.038-.045.109-.089.109-.134A1.308,1.308,0,0,0,21.985,320.888Z" transform="translate(0 -277.251)"></path></g></g></svg>