<svg xmlns="http://www.w3.org/2000/svg" width="93.766" height="61.037" viewBox="0 0 93.766 61.037"><defs><style>.a{fill:#44d0c5;}</style></defs><g transform="translate(-901.636 -2944.139)"><path class="a" d="M4755.16,92.966c.283-.892,16.718-4.994,18.031-10.468,4.624,3.477,13.92,7.244,13.92,7.244l6.6,1.487s2.333,23.168-11.723,33.875c-7.261,4.21-8.8,2.613-8.8,2.613S4750.736,113.689,4755.16,92.966Z" transform="translate(-3802 2873)"/><g transform="translate(334.692 1088.148)"><path d="M655.362,1127.97c-.572,1.665-1.061,3.32-1.669,4.931a38.475,38.475,0,0,1-3.907,7.159c-.64.992-1.215,2.03-1.91,2.982a19.482,19.482,0,0,1-1.656,1.759c-.364.386-.729.772-1.071,1.177a24.1,24.1,0,0,1-4.431,4.17,12.885,12.885,0,0,1-3.978,1.759,6.187,6.187,0,0,1-4.982-1c-1.322-.766-2.576-1.652-3.845-2.509a10.289,10.289,0,0,1-1.309-1.046c-.91-.86-1.8-1.743-2.679-2.632a15.573,15.573,0,0,1-1.473-1.6c-1.207-1.622-2.417-3.246-3.527-4.934-.75-1.14-1.322-2.4-2.006-3.58-.074-.129-.461-.246-.53-.182a4.659,4.659,0,0,1-2.4.945c-1.4.288-2.824.5-4.243.706-1.563.222-3.131.406-4.7.584-1.19.135-2.385.226-3.575.355-1.7.184-3.407.373-5.107.584-1.043.13-2.08.311-3.122.457-.361.051-.427.262-.464.589-.173,1.55-.389,3.095-.569,4.644-.134,1.151-.285,2.3-.342,3.46-.113,2.272-.135,4.548-.256,6.82a1.653,1.653,0,0,1-2.254,1.359c-1.135-.438-1.637-1.457-2.26-2.356a33.958,33.958,0,0,1-3.969-8.819,20.806,20.806,0,0,0-2.664-5.929c-.153-.208-.29-.428-.457-.623a.835.835,0,0,0-1.2-.235,17.392,17.392,0,0,1-5.229,1.7,27.124,27.124,0,0,1-5.673.314,8.435,8.435,0,0,1-2.272-.263,2.194,2.194,0,0,1-1.43-2.094c-.2-1.733-.417-3.472-.452-5.213-.037-1.845.2-3.695.19-5.542-.017-2.991-.18-5.981-.2-8.972-.011-1.711.216-3.425.19-5.135-.018-1.178-.322-2.349-.427-3.529a27.99,27.99,0,0,1-.11-3.168c.015-.6,1.13-1.573,1.791-1.642a20.441,20.441,0,0,1,2.983-.215c1.238.054,2.466.321,3.7.425a12.694,12.694,0,0,0,1.811-.1c.116-.007.232,0,.349,0,1.418-.038,2.836-.074,4.253-.117.72-.022.88-.224.907-.962a16.447,16.447,0,0,1,.91-5.027,4.083,4.083,0,0,1,2.9-2.589,12.373,12.373,0,0,1,2.94-.472c2.872-.127,5.748-.184,8.622-.247,2.561-.056,5.122-.111,7.683-.111,2.58,0,5.161.063,7.741.11,1.244.023,2.487.07,3.73.115,2.022.073,4.043.16,6.066.229,1.437.049,2.874.077,4.311.119,1.147.034,2.294.062,3.44.119,1.209.06,2.422.1,3.623.239,2.452.276,4.907.554,7.344.938a3.782,3.782,0,0,1,3.245,3.413c.221,1.176.653,2.323.773,3.5a29.216,29.216,0,0,1,.016,4.085c-.029.73-.238,1.452-.317,2.183a.612.612,0,0,0,.273.5,34.147,34.147,0,0,0,3.932,1.584c1.778.513,3.61.849,5.429,1.212,1.208.241,2.437.383,3.65.6a2.066,2.066,0,0,1,.832.363,1.056,1.056,0,0,1,.443,1.315,3.322,3.322,0,0,0,.095,1.52,13.592,13.592,0,0,1,.242,3.712,35.045,35.045,0,0,1-.97,5.54c-.207.856-.5,1.693-.777,2.568m-40.953,1.308c-.039-.042-.1-.077-.114-.127a22.017,22.017,0,0,1-1.741-9.934,23.919,23.919,0,0,1,.493-3.636c.276-1.072.73-1.827,2.054-1.717a3.851,3.851,0,0,0,1.5-.063c1.372-.465,2.729-.989,4.058-1.565,1.594-.692,3.159-1.452,4.721-2.212a.8.8,0,0,0,.4-.567c0-.972-.1-1.945-.081-2.916.011-.563-.158-.7-.709-.7q-8.114-.027-16.228-.112c-2.139-.025-4.276-.147-6.414-.224-1.127-.04-2.254-.084-3.381-.115-1.611-.045-3.223-.113-4.835-.109-2.193.005-4.386.055-6.579.112-2.255.059-4.509.143-6.763.231-1.6.063-3.191.152-4.787.23-1.576.077-3.152.158-4.729.231-.972.045-1.945.061-2.916.123a20.119,20.119,0,0,0-2.225.249.693.693,0,0,0-.416.525,11.032,11.032,0,0,0,.206,1.357c.2,1.469.434,2.936.568,4.411.085.942.005,1.9.018,2.847.032,2.406.057,4.813.121,7.218.04,1.5.175,3,.215,4.5.022.816-.093,1.634-.1,2.451-.017,1.841-.01,3.682,0,5.522a2.663,2.663,0,0,0,.125.819c.045.134.234.219.358.326a3.177,3.177,0,0,0,.087-.407c.006-.063-.056-.13-.075-.2-.238-.834-.014-1.321.686-1.607a27.053,27.053,0,0,1,6.331-1.273c.66-.1,1.324-.172,1.985-.263a4.447,4.447,0,0,1,3.264.344,16.652,16.652,0,0,1,2.619,2.372,12.94,12.94,0,0,1,1.692,2.315c1.764,3.045,2.6,6.477,3.968,9.69.294.692.614,1.374.932,2.055.042.09.146.152.222.226.041-.067.112-.132.118-.2.122-1.4.228-2.811.357-4.215.059-.646.148-1.291.246-1.932.138-.908.324-1.81.441-2.721.112-.874.115-1.764.256-2.632a2.261,2.261,0,0,1,.911-1.7,4.717,4.717,0,0,1,1.471-.643c1.086-.219,2.195-.318,3.291-.489a2.4,2.4,0,0,0,1.6-.668,2.368,2.368,0,0,1,1.191-.592c2.145-.5,4.291-1,6.456-1.392,1.748-.318,3.523-.5,5.289-.706a10.826,10.826,0,0,1,1.568-.007c1.037.03,2.074.075,3.111.114l.258.012a.857.857,0,0,0-.027-.279c-.35-.747-.708-1.49-1.065-2.349m36.855-1.976c.039-.352.076-.705.117-1.057.115-1,.261-1.994.342-2.995.139-1.713.221-3.431.363-5.144.064-.771.216-1.535.33-2.3.051-.348-.04-.589-.433-.653-.906-.147-1.809-.309-2.714-.462a28.055,28.055,0,0,1-7.773-2.564,25.727,25.727,0,0,1-7.385-4.767c-.254-.261-.458-.257-.733.032a26.29,26.29,0,0,1-4.263,3.721,35.383,35.383,0,0,1-5.961,3.161,52.429,52.429,0,0,1-7.746,2.637.638.638,0,0,0-.4.388,5.857,5.857,0,0,0-.126,1.285c.016,1.031.058,2.061.111,3.091a15.8,15.8,0,0,0,1.045,4.8c.736,1.941,1.508,3.874,2.386,5.753a46.787,46.787,0,0,0,4.337,7.273,34.922,34.922,0,0,0,5.057,5.622,14.8,14.8,0,0,0,1.539,1.193c1.685,1.163,3.373,2.323,5.087,3.442a1.582,1.582,0,0,0,1.1.25,10.357,10.357,0,0,0,2.436-.838,21.619,21.619,0,0,0,6.408-5.631c1.222-1.485,2.235-3.141,3.374-4.7a13.49,13.49,0,0,0,2.218-5.243c.445-2.071.822-4.156,1.287-6.294m-64.351-24.357a.745.745,0,0,1,.243-.112c1.731-.083,3.461-.167,5.193-.234,1.32-.052,2.641-.1,3.962-.115,3.956-.049,7.912-.063,11.867-.128,1.693-.028,3.386-.126,5.076-.231,1.368-.085,2.731-.245,4.1-.337,1.5-.1,3-.185,4.5-.23,1.239-.037,2.482-.056,3.719.009a2.24,2.24,0,0,1,1.986,1.264,11.075,11.075,0,0,1,.924,3.861c.04.33.093.658.141.988a7.535,7.535,0,0,0,.647-.589c.708-.806,1.4-1.625,2.1-2.442a4.959,4.959,0,0,1,.854-.989,1.917,1.917,0,0,1,2.541.694,3.3,3.3,0,0,0,.716.973c1.184.9,2.408,1.751,3.622,2.613a.936.936,0,0,0,.284.085.711.711,0,0,0,.018-.278c-.1-.268-.239-.521-.341-.789-.592-1.557-1.158-3.124-1.773-4.671a10.96,10.96,0,0,1-1.043-3.645.791.791,0,0,0-.511-.558q-2.165-.353-4.348-.6-1.986-.223-3.982-.349c-1.632-.1-3.268-.158-4.9-.24-1.421-.072-2.842-.157-4.263-.231-1.556-.081-3.112-.2-4.67-.225-3.665-.065-7.331-.143-10.995-.111-5.044.045-10.094-.249-15.132.222-1.019.1-2.044.179-3.049.362-.745.136-1.6.244-1.879,1.141a17.129,17.129,0,0,0-.53,2.162c-.13.732-.157,1.482-.267,2.219-.061.41.119.732.528.733.275,0,.548-.094.824-.1,1.243-.048,2.486-.082,3.846-.12m68.3,16.451a11.651,11.651,0,0,0-.473-3.581c-.027-.117-.162-.21-.247-.314-.07.119-.187.232-.2.358-.093.74-.192,1.482-.234,2.226-.1,1.709-.126,3.423-.252,5.13-.072.971-.288,1.931-.417,2.9a1.622,1.622,0,0,0,.1.512c.109-.144.273-.272.317-.434.2-.734.388-1.472.54-2.217.3-1.485.578-2.976.865-4.58m-81.442,16.1c-.177.039-.353.083-.532.115-1.079.2-2.16.381-3.236.59a1.831,1.831,0,0,0-.476.257c.18.067.367.2.539.188a29.613,29.613,0,0,0,2.984-.352c1.256-.247,2.491-.6,3.731-.923.115-.03.2-.169.3-.257-.14-.063-.292-.2-.417-.177-.93.168-1.854.368-2.9.558m64.932-36.332.077.291.156-.1A.383.383,0,0,0,638.707,1099.166Z" transform="translate(3.565 761.99)"/><path d="M712.043,1327.141c1.123,0,2.189.01,3.254,0,2.85-.033,5.7-.1,8.551-.1a32.459,32.459,0,0,1,3.389.23,2.659,2.659,0,0,1,2,2.143,15.658,15.658,0,0,1,.127,1.635c.038.519-.693,1.2-1.74,1.206-2.615.018-5.229-.005-7.844.011-1.127.007-2.253.11-3.38.1-3.451-.019-6.9-.082-10.352-.1-1.068-.006-2.137.076-3.206.107-.51.015-1.024-.039-1.529.012a1.319,1.319,0,0,1-1.415-.982,3.922,3.922,0,0,1,.048-2.912,1.5,1.5,0,0,1,1.421-.887c2.664-.105,5.327-.228,7.99-.344C710.235,1327.219,711.11,1327.179,712.043,1327.141Z" transform="translate(-116.858 556.047)"/><path d="M696.915,1250.726a4.661,4.661,0,0,0-1.265.3,1.028,1.028,0,0,1-1.609-.722,5.418,5.418,0,0,1,.114-2.262,2.279,2.279,0,0,1,2.1-1.6c1.335-.149,2.683-.2,4.026-.244,2.036-.064,4.073-.1,6.109-.12q6.627-.072,13.255-.115c1.917-.011,2.476,1.218,2.482,2.815a1.457,1.457,0,0,1-1.4,1.25l-5.412.116q-2.851.06-5.7.116c-2.075.04-4.151.073-6.226.118-1.436.031-2.873.058-4.308.123-.706.032-1.408.147-2.17.225m22.206-2.732c.073.1.144.271.221.274a1.386,1.386,0,0,0,.453-.134,2.007,2.007,0,0,0-.331-.192A.518.518,0,0,0,719.122,1247.993Z" transform="translate(-111.845 627.695)"/></g></g></svg>