<svg xmlns="http://www.w3.org/2000/svg" width="375.165" height="224" viewBox="0 0 375.165 224"><defs><style>.a,.b{fill:none;}.b{stroke:#b9b9b9;stroke-width:5px;}.c{fill:#b9b9b9;}.d{fill:#255959;}</style></defs><g transform="translate(-345.38 -62.164)"><rect class="a" width="54.212" height="8.519" transform="translate(345.38 166.898)"></rect><line class="b" x2="127.938" transform="translate(553.143 166.937)"></line><path class="b" d="M0,0H49.553" transform="translate(572.468 213.953)"></path><line class="b" x2="74.33" transform="translate(371.186 227.643)"></line><line class="b" x2="22.524" transform="translate(371.186 227.643) rotate(90)"></line><rect class="c" width="99.904" height="76.671" transform="translate(459.999 208.719)"></rect><path class="d" d="M-635.277-17012.314l-44.357-106.312s-7.041-16.547,14.786-15.844h171.442s24.995-.7,14.434,21.828l-43.653,95.752-39.428-15.488v-6.687s7.041-12.324,7.041-17.6c0,0,10.355-12.754,2.963-13.107l5.423-18.365-2.588-11.709-8.258-9.367-15.531-6.41s-15.777,1.727-16.27,1.973-12.449,7.52-12.449,7.52l-5.3,10.352-1.972,4.439v6.408l1.972,8.627,3.7,6.533.616,1.727s-10.6,1.111,2.342,12.818l8.628,14.422-3.574,11.092-2.589-.738-13.928,3.7-17.379,8.381Z" transform="translate(1085.592 17202.668)"></path><g transform="translate(347.436 62.164)"><path d="M1081.565,198.709c-.763-1.7-1.636-3.235-2.263-4.85-1.143-2.935-2.184-5.908-3.18-8.89-.648-1.933-1.188-3.9-1.695-5.869q-.8-3.1-1.424-6.238a23.33,23.33,0,0,1-.3-2.949c-.4-5.594-.358-11.2-.229-16.794.033-1.46.137-2.945.24-4.416.129-1.838.29-3.679.576-5.5a72.167,72.167,0,0,1,1.459-7.693,27.461,27.461,0,0,1,2.559-6.194,20.5,20.5,0,0,1,3.437-5.067c.443-.427.286-.938.086-1.437-1.1-2.728-2.148-5.472-3.281-8.186-.878-2.1-1.85-4.167-2.788-6.246q-1.739-3.855-3.495-7.7c-.673-1.471-1.387-2.926-2.062-4.4-1.037-2.262-2.039-4.539-3.089-6.8-.928-1.994-1.936-3.957-2.846-5.958-.994-2.19-1.883-4.421-2.878-6.61-.909-2-1.94-3.955-2.84-5.96-1.187-2.648-2.312-5.321-3.438-7.992-.626-1.489-1.2-3-1.8-4.5-.736-1.846-1.481-3.689-2.209-5.538-1.426-3.622-2.887-7.232-4.248-10.874-1.218-3.261-2.318-6.561-3.476-9.842-.565-1.6-1.117-3.207-1.732-4.791a5.425,5.425,0,0,0-.845-1.269,16.545,16.545,0,0,1-2.565-5.667,15.9,15.9,0,0,1-.876-4.194c-.014-.675-.279-1.35-.255-2.019A9.977,9.977,0,0,1,1039,7.412a12.435,12.435,0,0,1,5.783-3.037,30.315,30.315,0,0,1,5.667-1.114c1.8-.128,3.578-.5,5.366-.768.093-.014.19,0,.286,0,1.962-.088,3.941-.062,5.883-.3,1.872-.228,3.766-.024,5.6-.289,1.79-.259,3.569-.008,5.322-.233,2.771-.357,5.572.009,8.313-.3,2.6-.294,5.173-.072,7.753-.21,9.536-.509,19.088,0,28.618-.337,4.543-.159,9.091.113,13.607-.242,4.45-.349,8.9.049,13.324-.249,7.4-.5,14.8-.134,22.191-.218,7.434-.084,14.88-.232,22.3.055,5.164.2,10.328-.1,15.466.251,2.926.2,5.853-.04,8.745.259,1.926.2,3.836.106,5.75.227a58.363,58.363,0,0,1,6.047.562c1.37.232,2.811.366,3.952,1.444a6.457,6.457,0,0,0,2.577.888,20.333,20.333,0,0,1,5.72,2.906,9.677,9.677,0,0,1,3.5,3.833,5.677,5.677,0,0,1,.642,1.874c.159,1.606.642,3.2.056,4.845a12.211,12.211,0,0,0-.257,2.284,40.976,40.976,0,0,1-2.085,7.466c-.914,2.612-2.039,5.159-3.023,7.75-.559,1.473-.978,2.993-1.54,4.466-.693,1.815-1.47,3.6-2.211,5.4-1.165,2.834-2.305,5.678-3.506,8.5-.909,2.134-1.915,4.232-2.847,6.356-1.067,2.429-2.069,4.882-3.16,7.3-.9,2-1.93,3.959-2.841,5.96s-1.717,4.041-2.618,6.045c-.593,1.324-1.3,2.6-1.906,3.924-1.4,3.054-2.73,6.136-4.163,9.176-1.187,2.517-2.5,4.98-3.723,7.484-1.419,2.913-2.781,5.85-4.193,8.766-.489,1.011-1.074,1.981-1.57,2.989-.828,1.677-1.592,3.381-2.435,5.051-.771,1.524-1.587,3.03-2.437,4.517-.345.6.1.977.356,1.358a19.345,19.345,0,0,0,1.394,1.6,20.579,20.579,0,0,1,4.1,8.4,45.944,45.944,0,0,1,.927,5.115,86.017,86.017,0,0,1,.54,11.9,17.927,17.927,0,0,1,.246,2.15c-.332,2.756-.157,5.522-.3,8.276a12.535,12.535,0,0,1-.908,2.965,2.5,2.5,0,0,0-.186.591c-.107,2.226-.166,4.453-.3,6.677a32.98,32.98,0,0,1-.552,5.373,4.7,4.7,0,0,0-.01,1.062,21.455,21.455,0,0,1-.559,4.708c-.17.792-.157,1.617-.309,2.415-.345,1.813-.748,3.616-1.11,5.426-.216,1.074-.407,2.153-.595,3.232a57.274,57.274,0,0,1-2.021,8.142c-.581,1.764-1.335,3.477-1.978,5.225a5.568,5.568,0,0,1-1.689,2.537,1.553,1.553,0,0,0-.538,1.739,7.987,7.987,0,0,1,0,1.7c-.009.345-.039.691-.076,1.036-.027.25.016.6-.14.734-.8.712-.376,1.562-.358,2.351a16.541,16.541,0,0,1,.157,3.5c-.339,1.7-2.608,3.171-4.07,3.277-6.729.49-13.461.134-20.19.209-6.766.075-13.54-.112-20.3.071-3.392.091-6.8-.005-10.172.277-2.4.2-4.809-.051-7.175.236-3.016.366-6.046-.028-9.031.285-2.308.241-4.621-.04-6.888.253-2.924.377-5.858-.045-8.747.274a60.067,60.067,0,0,1-7.466.189,47.749,47.749,0,0,1-6.192-.534,3.129,3.129,0,0,1-2.645-2.372,21.5,21.5,0,0,1-.31-2.28c-.153-.957-.368-1.9-.51-2.862a10.327,10.327,0,0,1-.054-1.444c-.006-1.375.02-2.752-.019-4.127-.009-.311-.129-.8-.356-.9-1.469-.662-2.169-1.969-2.966-3.123-1.34-1.941-2.469-4.01-3.669-6.033a10.119,10.119,0,0,1-.714-1.589m8.293-60.569-.266-.019a.555.555,0,0,1,.266.285l.265.02a.548.548,0,0,1-.265-.286m107.958-23.029a.976.976,0,0,1,.286-.532c.4-.731.838-1.448,1.2-2.194,1.426-2.906,2.814-5.828,4.247-8.73a52.121,52.121,0,0,0,2.374-4.666c.842-2.26,2.1-4.332,3.08-6.524.829-1.852,1.823-3.639,2.668-5.485,1-2.184,1.885-4.413,2.881-6.6.706-1.545,1.549-3.036,2.269-4.575,1.213-2.589,2.359-5.206,3.568-7.8.772-1.653,1.637-3.268,2.4-4.924.293-.639.418-1.345.762-2.021.007-.082.013-.165.02-.247a.566.566,0,0,1-.306.247,2.579,2.579,0,0,0-.422.5c-.778,1.65-1.508,3.318-2.311,4.958-.621,1.269-1.374,2.482-1.976,3.758-1.22,2.586-2.365,5.2-3.566,7.8-.7,1.5-1.463,2.98-2.159,4.485-.974,2.105-1.895,4.232-2.87,6.337-.819,1.767-1.7,3.511-2.525,5.274-1.358,2.888-2.682,5.789-4.051,8.673q-2.134,4.5-4.328,8.965a13.2,13.2,0,0,0-1.244,2.766.993.993,0,0,1-.286.532l-.021.247a.565.565,0,0,1,.307-.247M1090.43,139.47c-.027-.112-.053-.225-.079-.338l-.187.053a2.145,2.145,0,0,1,.266.551c1.048,2.125,2.079,4.257,3.163,6.367a1.986,1.986,0,0,0,.9.828c.242.108.639-.079.965-.14.922-.176,1.836-.419,2.767-.519,2.061-.22,4.127-.4,6.2-.534,1.579-.1,3.156-.059,4.747-.229,2.511-.269,5.078.177,7.594-.316,7.3.165,14.6-.268,21.9.24,3.9.27,7.83-.156,11.748.264,2.609.28,5.252-.122,7.891.254,1.929.276,3.918-.044,5.885.276,1.5.244,3.053.06,4.6.242,2.505.3,5.06.221,7.594.327,1.438.061,2.887.1,4.31.282,1.51.2,3,.555,4.494.843a4.6,4.6,0,0,1,3.935,3.372c.227.9.427,1.792.589,2.706a41.855,41.855,0,0,1,.818,6.33c.024,1.06.349,1.367,1.519,1.37q4.075.01,8.149,0c1.011,0,1.394-.329,1.48-1.266.037-.4-.119-.845.03-1.189a9.2,9.2,0,0,0,.478-3.649,105.6,105.6,0,0,0-.169-12.4c-.239-2.118-.487-4.221-.874-6.323a21.593,21.593,0,0,0-2.155-5.96,45.225,45.225,0,0,0-3.495-5.175c-.443-.626-.606-.608-.949.086-.6,1.229-1.135,2.49-1.729,3.725-1.114,2.321-2.342,4.6-3.355,6.958a96.262,96.262,0,0,1-4.939,9.672c-.147.258-.307.608-.552.7a2.587,2.587,0,0,1-1.327.129c-.395-.083-.413-.5-.416-.883a8.071,8.071,0,0,1,.561-3.248c.841-2.029,1.6-4.091,2.3-6.167a86.71,86.71,0,0,1,4.027-9.095c.9-1.917,1.9-3.793,2.849-5.689.47-.94.466-.942-.506-1.557-.595-.376-1.177-.772-1.787-1.125a39.011,39.011,0,0,0-4.466-2.495c-2.732-1.132-5.558-2.071-8.361-3.055-3.256-1.143-6.526-2.253-9.795-3.368-2.861-.976-5.873-1.525-8.694-2.631-.34-.134-1.135-.013-1.233.19-.488,1.03-1.168,1.946-1.746,2.921a22.773,22.773,0,0,1-6.333,6.839,11.416,11.416,0,0,1-4.245,2.026c-1.062.238-2.149.332-3.189.554a15.207,15.207,0,0,1-6.874-.485,12.409,12.409,0,0,1-5.419-3.213c-2.467-2.245-4.836-4.586-7.181-6.943a3.091,3.091,0,0,0-2.91-.824,11.522,11.522,0,0,0-2.455.89c-2.165.921-4.3,1.913-6.477,2.793-2.544,1.026-5.155,1.911-7.69,2.956-2.418,1-4.812,2.055-7.154,3.2a39.977,39.977,0,0,0-9.294,6.455,1.152,1.152,0,0,0-.263,1.668c.9,1.648,1.873,3.267,2.714,4.943,1.417,2.824,2.751,5.682,4.124,8.524.815,1.683,1.649,3.356,2.441,5.048a.625.625,0,0,1-.176.608.729.729,0,0,1-.655-.1,5.121,5.121,0,0,1-1.011-1.2c-.716-1.318-1.341-2.678-2.05-4-.19-.351-.553-.623-.837-1.065m69.351-46.99a15.281,15.281,0,0,1-4.057,5.361,1.469,1.469,0,0,0-.666,1.48c.3,1.84.542,3.689.9,5.519a.739.739,0,0,0,.918.7c1.268-.259,2.408.356,3.57.645,2.3.572,4.563,1.295,6.819,2.014,1.959.625,3.889,1.326,5.83,2,2.392.834,4.793,1.651,7.171,2.522,2.335.855,4.722,1.63,6.945,2.7,2.052.984,4.351,1.645,5.967,3.333a.609.609,0,0,0,.476-.159c.232-.394.385-.827.592-1.234.433-.854.9-1.691,1.32-2.553,1.191-2.469,2.347-4.952,3.545-7.418.635-1.309,1.37-2.577,1.988-3.893,1.217-2.592,2.372-5.208,3.575-7.806.7-1.506,1.463-2.985,2.146-4.5.886-1.965,1.693-3.962,2.588-5.923.914-2,2.029-3.928,2.814-5.968,1.414-3.677,3.265-7.173,4.917-10.75,1.148-2.487,2.475-4.9,3.7-7.36,1.351-2.717,2.651-5.457,4.014-8.169,1.4-2.789,2.9-5.536,4.271-8.337,1.536-3.133,3.04-6.282,4.444-9.467A34.975,34.975,0,0,0,1236.6,26.4c.316-2.1,1.044-4.146,1.363-6.246.273-1.8.22-3.649.326-5.475a10.194,10.194,0,0,1,.226-1.765A3.17,3.17,0,0,0,1237.5,9.6a19.924,19.924,0,0,0-7.437-4.191,10.629,10.629,0,0,0-3.794-.778c-.536.034-1.064.228-1.6.248-3.439.125-6.876-.1-10.324.223a52.912,52.912,0,0,1-6.453-.209c-5.582-.168-11.166.193-16.757-.229-4.374-.33-8.781.126-13.178-.272-3.468-.313-6.967.1-10.464-.255-2.984-.306-6.016.068-9.031-.281-2.368-.275-4.77.026-7.177-.243-2.79-.313-5.631.031-8.457-.285-2.607-.292-5.248.061-7.892-.252a63.246,63.246,0,0,0-8.166-.3c-6.776.082-13.548-.12-20.331.193-8.385.386-16.8-.269-25.188.31-2.528.174-5.065-.143-7.607.239-1.93.29-3.912-.062-5.89.256-1.637.263-3.342.112-5.025.262-2.158.193-4.323.333-6.482.549-1.641.163-3.275.374-4.91.53a37.145,37.145,0,0,0-5.668,1.112,11.944,11.944,0,0,0-4.524,2.052c-2.888,2.256-3.013,5.3-2.727,8.387a20.285,20.285,0,0,0,1.121,4.349c.492,1.5.906,3.061,2.216,4.206a2.023,2.023,0,0,1,.5.732c.532,1.259,1.04,2.528,1.549,3.8q1.205,3,2.4,6,1.087,2.709,2.175,5.418c.822,2.035,1.654,4.065,2.475,6.1.99,2.458,1.965,4.921,2.96,7.377,1.2,2.955,2.388,5.911,3.618,8.854.958,2.292,1.983,4.56,2.956,6.847,1.441,3.393,2.844,6.8,4.3,10.189.719,1.674,1.544,3.309,2.275,4.979,1.543,3.531,3.049,7.077,4.584,10.611.743,1.71,1.521,3.406,2.285,5.109,1.2,2.686,2.378,5.384,3.622,8.054.736,1.581,1.612,3.1,2.377,4.674,1.147,2.352,2.291,4.707,3.35,7.094.289.65.568.557,1,.262.806-.553,1.59-1.136,2.4-1.689a37.992,37.992,0,0,1,6.129-3.575c2.311-1.019,4.631-2.016,6.952-3.014a104.023,104.023,0,0,1,11.893-4.447c1.985-.58,3.9-1.344,6.043-1.2a1.6,1.6,0,0,0,.528-.093c1.258-.366,2.455-1.1,3.865-.446.332.154.392-.142.51-.408a22.259,22.259,0,0,0,1.673-4.547c.269-1.313.624-2.612.832-3.932a2.391,2.391,0,0,0-.5-1.937,50.882,50.882,0,0,1-3.257-4.714,30.884,30.884,0,0,1-3.373-7.094.684.684,0,0,0-.834-.519,1.956,1.956,0,0,1-1.5-.468c-1-.787-1.965-1.608-2.918-2.442a9.292,9.292,0,0,1-2.186-3.414c-.692-1.531-.5-3.124-.576-4.709a3.1,3.1,0,0,1,.608-2.031,3.308,3.308,0,0,1,1.361-1.254c.428-.144,1.05-.772,1.617-.085.037.045.354-.026.358-.055a.66.66,0,0,0-.074-.447,21.105,21.105,0,0,1-3.589-6.473c-.527-1.425-.8-2.89-1.2-4.335a38.956,38.956,0,0,1-1.018-6.242,20.51,20.51,0,0,1,.781-7.525,26.285,26.285,0,0,1,4.054-8.551,30.945,30.945,0,0,1,5.991-6.479,31.877,31.877,0,0,1,7.621-4.432c3.8-1.57,7.809-1.983,11.851-2.261a28.435,28.435,0,0,1,4.747.163,31.451,31.451,0,0,1,5.953,1.134,30.832,30.832,0,0,1,7.65,3.381,26.232,26.232,0,0,1,4.283,2.918c1.316,1.247,2.87,2.292,4.082,3.614a29.069,29.069,0,0,1,4.081,6.133,20.8,20.8,0,0,1,2.347,8.946c.033.725-.153,1.417-.057,2.182a16.65,16.65,0,0,1-1.045,7.021,48.046,48.046,0,0,1-3.751,8.939c-.1.189-.568.546.24.55,1.709.01,2.238.583,2.934,2.119.529,1.168.064,2.175-.223,3.188a16.445,16.445,0,0,1-3.36,6.267c-.788.915-1.354,2.182-2.813,2.547-.23.057-.412.511-.489.81-.149.572-.186,1.169-.306,1.749-.273,1.312-.525,2.63-.865,3.927a13.211,13.211,0,0,1-1.848,4.4m14.871,123.534q2.357,0,4.717,0c.426,0,.842.029,1.124-.375a1.83,1.83,0,0,1,1.834-.7,6.851,6.851,0,0,0,.972-.055,26,26,0,0,1,4.473-.126c.726.093,1.46.08,2.181.189.4.06.642-.036.573-.479-.106-.671-.239-1.343-.28-2.019a53.777,53.777,0,0,0-.25-5.885c-.3-1.751.019-3.553-.283-5.347-.295-1.751.039-3.556-.293-5.346-.267-1.442-.026-2.931-.276-4.417-.273-1.619-.021-3.288-.295-4.945-.266-1.623.013-3.288-.282-4.949-.28-1.573.027-3.2-.292-4.814-.267-1.351.014-2.756-.282-4.151a37.167,37.167,0,0,1-.266-4.014c-.22-2.228-.4-4.465-.6-6.7-.162-1.794-.43-3.581-.552-5.37a33.947,33.947,0,0,0-.652-4.164c-.287-1.486-.838-2.145-2.488-2.13-8.292.073-16.585-.029-24.876.052-8.253.081-16.5-.124-24.763.188-9.337.351-18.695.238-28.043.326-.525.005-1.051.023-1.573,0-1.487-.076-2.973-.162-4.457-.272a1.729,1.729,0,0,1-.732-.266c-.214-.13-.513-.337-.516-.514s.283-.475.492-.522a29.572,29.572,0,0,1,3.049-.538c1.052-.117,2.1-.053,3.179-.23a42.3,42.3,0,0,1,5.162-.313c2.628-.1,5.258-.176,7.887-.281.169-.007.332-.176.5-.269-.176-.084-.355-.244-.528-.24-1.251.027-2.494.063-3.749.2-2.226.242-4.49-.023-6.743.289-1.746.244-3.538.209-5.309.3a2.523,2.523,0,0,0-.285,0c-1.551.264-3.106.507-4.649.8a32.951,32.951,0,0,0-3.5.808c-1.544.481-3.014,1.56-2.7,3.289a15.281,15.281,0,0,0,.232,2.035c.2.639-.176,1.415-.215,2.135-.146,2.713-.014,5.423-.229,8.147-.359,4.561.165,9.155-.32,13.731a25.858,25.858,0,0,0,.246,3.48c.182,5.6-.133,11.193.237,16.8.366,5.539-.176,11.109.309,16.66.066.749.31.844.971.808,2.485-.14,4.966.105,7.467-.226,2.452-.326,4.957,0,7.458-.26a92.717,92.717,0,0,1,9.311-.309c19.205-.023,38.412-.012,57.9-.012M1162.927,71.447c.047-.425.117-.851.127-1.277a.434.434,0,0,0-.3-.306,11.987,11.987,0,0,0-2,.016c-.21.026-.486.388-.533.629-.233,1.206-.317,2.441-.612,3.631a31.448,31.448,0,0,1-1.347,4.269,3.642,3.642,0,0,1-2.57,2.411,16.682,16.682,0,0,1-3.078.456,44.123,44.123,0,0,1-5.89-.214c-2.91-.3-4.7-1.7-4.813-4.6-.067-1.728-.018-3.46-.007-5.19,0-.427-.066-.829-.592-.873a9.765,9.765,0,0,0-2,.017c-.213.026-.576.45-.532.609a10.355,10.355,0,0,1-.052,5.373,4.5,4.5,0,0,1-3.1,3.663,10.4,10.4,0,0,1-2.665.423c-2.81.053-5.622.05-8.434.008a3.713,3.713,0,0,1-3.488-2.554c-.276-1.644-.42-3.309-.583-4.968a14.451,14.451,0,0,1,0-1.862c.01-.321-.057-.506-.461-.459a6.155,6.155,0,0,1-.714,0c-2.1-.006-2.324.23-1.979,2.12.009.043-.011.092,0,.132.636,1.8.651,3.719,1.14,5.55.472,1.772.891,3.557,1.384,5.324a23.335,23.335,0,0,0,2.641,5.9c.952,1.554,2.023,3.05,3.126,4.517q1.681,2.236,3.543,4.353a9.172,9.172,0,0,0,1.978,1.643,15.241,15.241,0,0,0,6.173,1.837,59.2,59.2,0,0,0,6.166.3,4.707,4.707,0,0,0,1.064-.169,18.275,18.275,0,0,0,4.572-1.938,21.033,21.033,0,0,0,7.1-5.49,18.177,18.177,0,0,0,2.9-5,27.494,27.494,0,0,0,1.7-6.268c.2-1.629.556-3.241.839-4.862.117-.666.227-1.333.336-2,.272-1.671.539-3.341.952-5.145M1136.044,56.8c-.438-.089-.878-.166-1.311-.268-1.723-.408-3.43-.894-5.17-1.219-2.229-.417-4.381-1.076-6.782-.7-2.9.454-4.341,2.225-5.347,4.407a10.587,10.587,0,0,0-.668,3.725c-.106,1.724-.042,3.459-.013,5.189a3.063,3.063,0,0,0,.289,1.082.569.569,0,0,0,.452.246c.541-.04,1.075-.2,1.615-.2.661-.006,1.052-.117,1.087-.854a1.716,1.716,0,0,1,1.083-1.439,10.014,10.014,0,0,1,4.6-.857c3.146-.1,6.306.076,9.455.236a2.724,2.724,0,0,1,2.384,1.021c.236.385.263.879.489,1.271.14.244.612.6.7.551.809-.464,1.669-.166,2.488-.182a.945.945,0,0,0,.991-.619,2.431,2.431,0,0,1,1.878-1.508,21.98,21.98,0,0,1,3.592-.284q4.573-.055,9.149,0a18.249,18.249,0,0,1,2.737.274,1.757,1.757,0,0,1,.884.541c.093.1-.123.415-.1.621.017.148.2.388.318.4.616.041,1.238,0,1.856.024.641.025.928-.2.954-.829a16.142,16.142,0,0,1,.277-2.152c.267-1.49.518-2.984.866-4.458a12.147,12.147,0,0,1,1.135-3.551c.216-.365.51-.689.751-1.043a1.143,1.143,0,0,0,.1-.357c-.134.04-.267.085-.4.119-1.968.483-3.812,1.29-5.808,1.747a49.234,49.234,0,0,1-8.178,1.178,14.873,14.873,0,0,1-3.892-.2c-1.11-.228-2.289-.041-3.452-.278-1.856-.379-3.766-.523-5.638-.845-1.042-.179-2.053-.517-3.365-.783m-60.771,109.29a7.418,7.418,0,0,1,.272,1.221c.03.548.28.82.859.772a16.959,16.959,0,0,0,2.73-.292c1.533-.386,3.114-.455,4.659-.752.941-.18,1.928-.145,2.874-.3.492-.083.942-.278.925-.973q-.086-3.522-.01-7.05a40.26,40.26,0,0,1,.32-5.071,6.984,6.984,0,0,1,.676-2.391,7.385,7.385,0,0,1,2.947-3.235c.267-.146.455-.333.182-.74a19.121,19.121,0,0,1-1.527-2.733c-1.281-2.831-2.511-5.683-3.752-8.529-.961-2.2-1.906-4.408-2.865-6.61-.072-.163-.176-.4-.315-.434-.253-.069-.383.036-.576.326a36.684,36.684,0,0,0-2.622,4.581,46.353,46.353,0,0,0-2.247,5.524,60.147,60.147,0,0,0-2.21,10.84,55.291,55.291,0,0,0-.308,6.4c-.047,3.059-.011,6.118-.011,9.443m51.048-55.51c1.482,1.379,2.921,2.8,4.456,4.128,2.006,1.736,4.122,3.331,7.087,3.327,1.777.714,3.593.2,5.323-.06a11.206,11.206,0,0,0,5.4-2.582,25.466,25.466,0,0,0,5.913-7.024,1.652,1.652,0,0,0,.1-1.559c-.465-1.242-.867-2.507-1.251-3.774-.206-.68-.3-1.391-.489-2.075-.1-.369-.169-.643-.8-.287-2.043,1.15-4.151,2.208-6.287,3.2a6.673,6.673,0,0,1-2.454.558,25.188,25.188,0,0,1-9.393-1.021c-2.113-.72-4.144-1.478-5.588-3.187a7.436,7.436,0,0,0-1.011-.937.8.8,0,0,0-.48-.1c-.037,0-.1.222-.1.342a11.813,11.813,0,0,1-.892,4.049,28.684,28.684,0,0,1-1.637,3.356c-.526,1.019-.509,1.212.338,2.006.536.5,1.077,1,1.759,1.638M1089,191.919c-.154-3.729.049-7.456-.207-11.2a58.562,58.562,0,0,1,.176-11.19c.186-1.495.033-1.511-1.447-1a2.376,2.376,0,0,1-.389.089c-1.69.268-3.372.623-5.075.776-1.968.176-3.9.711-5.9.566-.193-.013-.565.105-.571.178-.031.529-.628.873-.362,1.547a16.543,16.543,0,0,1,.622,2.821c.478,2.342.849,4.708,1.46,7.021.632,2.395,1.466,4.746,2.264,7.1a98.854,98.854,0,0,0,5.173,11.966c1.218,2.463,2.745,4.794,4.141,7.179.056.093.2.144.3.214a1.136,1.136,0,0,0,.1-.358c-.087-1.249-.256-2.5-.267-3.746-.036-3.9-.013-7.8-.013-11.969m110.961-14.909c.094-.14.267-.278.273-.422a34.209,34.209,0,0,1,.25-3.489c.276-1.893.243-3.826.332-5.741a14.5,14.5,0,0,1,.076-2.106c.2-1.02-.086-1.35-1.121-1.12a7,7,0,0,1-1.613.214c-.582-.009-1.158-.218-1.742-.237-1.237-.039-2.478-.012-3.716-.012-1.757,0-1.757,0-1.606,1.559,0,.044,0,.089,0,.133.094,2.4.175,4.808.293,7.211a26.947,26.947,0,0,0,.214,3.494c.279,1.568.031,3.2.325,4.808.207,1.142.04,2.312.253,3.489.262,1.438.046,2.937.315,4.412.214,1.183.051,2.4.26,3.619.254,1.486.123,3.023.295,4.545.27,2.387.236,4.8.336,7.207a2.984,2.984,0,0,0,.1.491,2.1,2.1,0,0,0,.453-.426,5.482,5.482,0,0,0,.3-.816c.857-2.432,1.616-4.887,2.348-7.356.851-2.871,1.251-5.805,1.925-8.7.289-1.238.312-2.529.608-3.765a28.525,28.525,0,0,0,.839-7m-83.078,44.595a1.831,1.831,0,0,1,.6-.254c3.771-.1,7.543-.162,11.312-.286,2.581-.085,5.152.037,7.747-.193,3.6-.321,7.255-.206,10.88-.262,8.149-.125,16.308-.278,24.458.18,2.136.12,4.286.009,6.429.025.452,0,.911-.021,1.044-.454a12.078,12.078,0,0,0,.3-1.748c.077-.51-.046-.809-.724-.744a35.149,35.149,0,0,1-3.881.261c-7.534-.113-15.068-.061-22.6-.165-12.72-.174-25.454-.377-38.176.173-3.15.136-6.3.185-9.456.274-.184.005-.439-.041-.539.051-.18.162-.43.522-.365.611.492.654.24,1.372.214,2.039-.026.684.206.793.872.775,2.3-.067,4.59.023,6.888-.248a45.385,45.385,0,0,1,5-.035M1142.908,40.83c1.35-.178,2.7-.409,4.054-.519,1.766-.144,3.54-.248,5.312-.261,1.294-.009,2.593.257,3.884.226a29.765,29.765,0,0,1,6.929.845,37.488,37.488,0,0,1,4.27,1.319,1.093,1.093,0,0,1,.563,1.416.959.959,0,0,1-1.32.37,17.061,17.061,0,0,0-4.57-.953,31.8,31.8,0,0,0-5.162-.294c-1.2-.01-2.4.169-3.6.245-1.486.094-2.966.044-4.464.206-2.1.228-4.226.335-6.332.593-.257.032-.649-.1-.542.343.024.1.416.231.566.176,1.592-.592,3.332.083,4.916-.517l11.318.266a2.027,2.027,0,0,1,.286,0c2.082.352,4.161.719,6.246,1.059a4.676,4.676,0,0,1,3.426,2.189.453.453,0,0,1-.027.44c-.337.362-.656.858-1.094,1a30.076,30.076,0,0,1-3.749.892c-1.777.316-3.572.548-5.361.811-1.835.27-3.661.643-5.507.769s-3.656.34-5.482.535c-1.995.213-4.015.215-6.026.29a12.467,12.467,0,0,0-2.554.06,13.772,13.772,0,0,1-4.753.131c-.811-.074-1.647-.081-2.464-.178-.1-.012-.223.089-.336.138a3.8,3.8,0,0,0,.376.118c.874.181,1.74.418,2.624.522a44.865,44.865,0,0,0,5.622.51c3.39-.034,6.785.278,10.18-.193,1.486-.206,2.993-.284,4.478-.557,1.775-.326,3.582-.5,5.356-.828,1.524-.283,3.033-.663,4.53-1.059,1.53-.4,3.042-.87,4.552-1.337a.558.558,0,0,0,.289-.449,18.313,18.313,0,0,0-.313-3.607c-.366-1.389-.4-2.9-1.38-4.122a1.757,1.757,0,0,1-.288-.684,1.119,1.119,0,0,0-1.235-.977,1.511,1.511,0,0,1-.684-.063,13.517,13.517,0,0,0-5.875-1.206,111.2,111.2,0,0,0-13.458.211c-.821.069-1.643.143-2.454.27-1.554.243-3.107.5-4.647.8-1.614.318-3.216.69-4.817,1.06-1.466.339-2.941.657-4.383,1.075-1.64.476-3.25,1.044-4.865,1.6-.18.062-.3.279-.446.425.224.032.483.149.668.083a36.1,36.1,0,0,1,5.406-1.364c1.985-.377,3.955-.8,5.969-1.019a18.1,18.1,0,0,0,2.308-.283,16.316,16.316,0,0,1,4.057-.515m3.146,27.156a2.513,2.513,0,0,0-.987.023c-.436.216-1.115.2-1.164.9-.076,1.073-.26,2.143-.263,3.215a23.591,23.591,0,0,0,.23,4.817c.265,1.305.51,1.877,1.968,2.209a19.2,19.2,0,0,0,3.758.523c1.529.037,3.063-.164,4.6-.231a2.694,2.694,0,0,0,2.591-1.889,23.646,23.646,0,0,0,1.477-4.9,28.694,28.694,0,0,0,.529-3.776c.007-.685-.31-.919-1.018-.9a5.456,5.456,0,0,1-1.47-.194,9.27,9.27,0,0,0-2.7-.039c-.22.012-.645.13-.353.565a6.609,6.609,0,0,1,.984,5.67,3.255,3.255,0,0,1-1.928,2.3c-1.184.532-2.937.248-3.48-.671a5.107,5.107,0,0,1-.871-3.494c.263-1.368.343-2.893,1.774-3.835.109-.072.127-.291.137-.445a.658.658,0,0,0-.362-.1c-1.057.078-2.112.171-3.453.26m-14.442-.4a6.2,6.2,0,0,1,1.078,1.573,7.2,7.2,0,0,1-.51,6.049,3.868,3.868,0,0,1-4.659,1.021,2.3,2.3,0,0,1-.485-.576c-.493-.606-.366-1.409-.638-2.013-.545-1.209-.044-2.3.141-3.382a3.19,3.19,0,0,1,1.226-2.311c.285-.188.212-.505-.217-.486-1.531.069-3.068.123-4.589.293a.81.81,0,0,0-.8.937c.159,1.018.227,2.05.3,3.077.113,1.646.19,3.294.293,4.94.089,1.432.844,2.121,2.392,2.193a36.822,36.822,0,0,1,3.888.215,20.61,20.61,0,0,0,4.557.023c1.06-.079,2.306-.2,2.859-1.192a9.282,9.282,0,0,0,1.134-5.124,20.278,20.278,0,0,0-.847-4.05c-.14-.5-.209-1.04-1.23-1.142a29.125,29.125,0,0,0-3.889-.045m9.295,80a4.7,4.7,0,0,1-1.337.511c-2.435.134-4.876.185-7.312.293-1.629.073-3.249.012-4.893.2-2.361.266-4.777.016-7.167.3-1.171.141-2.38-.005-3.569.031-2.106.065-4.209.168-6.314.268a1.361,1.361,0,0,0-.436.2c.149.109.3.319.445.313,1.2-.061,2.4-.189,3.6-.246,3.007-.14,6.013.028,9.034-.209,3.845-.3,7.733-.217,11.6-.269,12-.162,24.012-.06,36.019-.06.38,0,.762.008,1.142-.005.073,0,.143-.087.215-.132a.745.745,0,0,0-.23-.124c-.721-.1-1.441-.23-2.168-.262a59.625,59.625,0,0,1-6.462-.242c-1.695-.258-3.435-.063-5.172-.237-2.7-.27-5.441-.012-8.168-.3-2.515-.266-5.079.249-7.6-.28a2.5,2.5,0,0,0-1.223.25M1126.321,39.765c1.032-.355,2.072-.7,3.1-1.068,1.682-.61,3.333-1.3,5.039-1.845,2.427-.77,4.865-1.529,7.347-2.116,2.091-.5,4.243-.789,6.383-1.076,1.375-.184,2.778-.19,4.167-.293.144-.011.279-.139.419-.213-.156-.1-.316-.3-.463-.3-1.058.06-2.116.246-3.172.234a41.265,41.265,0,0,0-7.514.781,82.142,82.142,0,0,0-8.455,1.9,78.6,78.6,0,0,0-9.608,3.469,46.224,46.224,0,0,0-7.953,4.623c-1.366.944-1.4,1.268-.013,2.155.074.047.15.125.227.126a1.089,1.089,0,0,0,.533-.068c.064-.038.044-.314-.031-.43-.4-.617-.116-1.05.38-1.465a17.76,17.76,0,0,1,4.726-2.554c1.528-.634,3.068-1.245,4.889-1.866M1200.39,3.29c5,0,10.006-.014,15.01.012a21.48,21.48,0,0,0,3.02.209,29.311,29.311,0,0,1,3.748-.226,1.374,1.374,0,0,0,.375-.118,1.244,1.244,0,0,0-.343-.138c-1.247-.1-2.492-.209-3.742-.262-.871-.038-1.738.07-2.622.015-3.053-.19-6.109,0-9.179-.228-4.466-.329-8.966-.022-13.46-.275-4.369-.246-8.765.007-13.148-.07-4.774-.084-9.543.19-14.326-.2-3.357-.272-6.761-.056-10.144-.041-.173,0-.345.164-.516.252.169.09.336.253.509.258,2.867.094,5.73.018,8.605.227,4.661.338,9.347.011,14.035.25,6.808.348,13.641.244,20.464.332.476.006.952,0,1.716,0m-43.183,26.358c-.143,0-.353-.058-.419.009-.709.706-1.624.505-2.489.523a8.456,8.456,0,0,0-.858.006q-3.112.386-6.222.795c-.629.082-1.264.143-1.882.274-.646.137-1.274.345-1.909.524-.127.036-.249.085-.373.127.12.046.247.144.356.129.488-.068.971-.171,1.456-.257,2-.353,4.068-.032,6.053-.529,1.63.63,3.386.029,5.065.5a32.937,32.937,0,0,1,4.689,1.683c.542.244.491.7.087,1.187a.948.948,0,0,1-1.12.331,4.158,4.158,0,0,0-2.185-.224c-2.2.05-4.4.15-6.6.261a15.011,15.011,0,0,0-1.74.262,1.369,1.369,0,0,0-.325.146,1.418,1.418,0,0,0,.377.111c1.81.007,3.623-.027,5.432.016a19.774,19.774,0,0,1,3.593.283c2.2.467,4.367,1.1,6.548,1.657a4.523,4.523,0,0,0,.589.072,2.507,2.507,0,0,0-.252-.545,25.074,25.074,0,0,0-2.654-3.221c-1.587-1.427-3.372-2.664-5.216-4.115m-45.472,42.6a7.474,7.474,0,0,0,1.4,5.863,20.579,20.579,0,0,0,3.556,4.068,1.549,1.549,0,0,0,.482.179,1.535,1.535,0,0,0-.034-.281,44.859,44.859,0,0,1-1.562-7.772,14.037,14.037,0,0,0-.573-2.434,1.519,1.519,0,0,0-.591-.817,2.963,2.963,0,0,0-1.247-.379c-.521-.044-1.131.7-1.434,1.573m-18.017,146.7c-.475,0-.951-.015-1.424.009-.149.008-.422.144-.415.193a7.14,7.14,0,0,0,.369,1.842,1.451,1.451,0,0,0,.979.6,18,18,0,0,0,2.727.277c1.8.041,3.608.015,5.412.011.42,0,.842-.027,1.262-.041a4.54,4.54,0,0,1-.458-.938,5.11,5.11,0,0,1-.019-1.058c-.016-1.143-.019-1.181-1.288-1.147-2.288.061-4.574.17-7.147.258M1153.775,48.55c1.4-.177,2.79-.384,4.191-.524,1.288-.129,2.585-.179,3.878-.285.129-.011.245-.169.367-.258-.124-.088-.255-.259-.372-.251-1.01.066-2.015.209-3.024.245-3.149.111-6.3.186-9.449.274a2.657,2.657,0,0,0-.286,0c-1.254.175-2.5.387-3.762.521-1.241.132-2.492.177-3.736.279-.866.071-1.733.154-2.594.268-1.21.159-2.408.4-3.622.515-1.477.142-2.966.19-4.45.278-.094.006-.216-.034-.28.008a3.647,3.647,0,0,0-.415.355c.139.057.279.168.415.162,1.96-.077,3.921-.157,5.88-.262a42.254,42.254,0,0,0,4.461-.208,58.107,58.107,0,0,1,6.011-.325c1.247-.065,2.5-.131,3.736-.276.929-.108,1.843-.341,3.05-.519m-3.718,8.254c2.053-.118,4.112.191,6.169-.243,1.806-.38,3.663-.544,5.491-.836a2.545,2.545,0,0,0,.749-.414c-.27-.035-.539-.086-.811-.1a3.332,3.332,0,0,0-1,.007,21.475,21.475,0,0,1-5.5.8c-.349,0-.7.195-1.045.2-1.194.006-2.414.323-3.572-.207-.107-.049-.213-.1-.32-.152.126-.038.253-.072.377-.115a5.118,5.118,0,0,1,.739-.259c1.544-.278,3.084-.608,4.643-.788A47.825,47.825,0,0,0,1162.5,53.6c1.144-.3,2.261-.689,3.379-1.067.139-.047.21-.269.313-.41a1.626,1.626,0,0,0-.485-.026c-1.746.459-3.473.989-5.235,1.383-1.7.381-3.432.654-5.161.92-1.436.221-2.911.264-4.323.57a16.467,16.467,0,0,1-4.054.5c-2.482-.082-4.966-.212-7.448-.223-.35,0-.655-.444-1.01-.083a9.166,9.166,0,0,0,1.067.561,2.878,2.878,0,0,0,.708.017,20.8,20.8,0,0,1,2.875.284,36.514,36.514,0,0,0,6.932.778m38.036,163.2c.34-.088.682-.169,1.019-.268a2.837,2.837,0,0,0,2.271-2.722c.01-.543-.132-.586-.645-.3a9.914,9.914,0,0,1-3.875.867c-1.657.185-3.336.21-5.006.281-.342.015-.483.064-.5.43a11.909,11.909,0,0,1-.269,1.482c-.12.652.182.992.818.728a5.755,5.755,0,0,1,2.176-.23,17.009,17.009,0,0,0,4.012-.272M1165.214,70.116c-.143.788-.27,1.578-.432,2.363-.469,2.258-.955,4.512-1.417,6.771-.027.136.1.3.159.451.134-.078.313-.129.395-.241.25-.341.471-.7.691-1.062.942-1.541,2.275-2.872,2.764-4.659.284-1.043.911-2.019.825-3.132-.042-.525-.182-1.195-.878-1.261s-1.577-.273-2.106.77m-12.3-24.494c-1.865.089-3.728.2-5.593.258a32.765,32.765,0,0,0-4.27.072c-.784.128-1.55.123-2.321.2-.816.085-1.632.193-2.451.262-1.244.1-2.5.118-3.733.284-2.276.307-4.542.684-6.808,1.058-.832.137-1.653.342-2.474.535-.094.022-.157.165-.235.251.12.091.252.269.36.258.535-.056,1.061-.194,1.6-.245,1.147-.11,2.3-.153,3.448-.281,1.258-.141,2.5-.38,3.762-.515,1.241-.132,2.491-.176,3.735-.28.819-.068,1.636-.162,2.451-.265,2.072-.26,4.134-.635,6.213-.771,2.9-.189,5.82-.2,8.731-.291a1.3,1.3,0,0,0,.423-.01,2.43,2.43,0,0,0,.452-.317c-.144-.069-.287-.194-.435-.2-.855-.019-1.712-.009-2.854-.009m-34.032-10.916c1.962-1.471,3.872-3.007,5.9-4.39a26.494,26.494,0,0,1,4.027-2.161c1.261-.57,2.615-.958,3.922-1.444.127-.047.2-.212.3-.323a4.008,4.008,0,0,0-.44-.2.5.5,0,0,0-.28,0c-1.374.437-2.722.972-4.125,1.3a18.739,18.739,0,0,0-7.593,4.074,73.866,73.866,0,0,0-5.369,5.221,11.034,11.034,0,0,0-1.065,1.445,4.03,4.03,0,0,0-.219.393c.163-.017.378.021.479-.061a4.108,4.108,0,0,0,.871-.856c.839-1.288,2.2-2.02,3.586-3.009m12.869-1.331c.541-.178,1.07-.393,1.623-.526,2.193-.529,4.334-1.24,6.575-1.618a28.023,28.023,0,0,1,4.507-.8,1.536,1.536,0,0,0,.595-.258,1.323,1.323,0,0,0,.223-.187.731.731,0,0,0-.252-.071c-.772.081-1.539.206-2.312.255a39.548,39.548,0,0,0-6.1,1.07,51.784,51.784,0,0,0-8.521,2.694,59.194,59.194,0,0,0-9.6,5.411,24.5,24.5,0,0,0-2.109,1.688c-.073.06-.084.184-.126.278.13,0,.293.05.382,0,2.252-1.371,4.5-2.742,6.738-4.135a44.488,44.488,0,0,1,8.376-3.8m1.144,10.383a1.662,1.662,0,0,1-.455.258c-.746.148-1.51.23-2.249.4-2.409.563-4.823,1.114-7.211,1.749-1.65.438-3.253,1.027-4.89,1.508-.591.174-.591.31-.226.759.725.9,1.35,1.865,2.022,2.8.05.071.175.177.212.161a1.89,1.89,0,0,0,.1-1.348c-.29-.2-.6-.373-.888-.567-.433-.286-.349-.569.031-.826a4.059,4.059,0,0,1,.894-.553c1.2-.408,2.412-.783,3.628-1.146,2.309-.691,4.6-1.446,6.942-2.025s4.707-.979,7.069-1.434c1.1-.212,2.216-.362,3.32-.562.066-.012.109-.216.124-.336,0-.042-.114-.146-.16-.139-1.284.209-2.565.434-3.849.644-1.376.225-2.754.436-4.417.654M1143.48,28.05c-1.073.266-2.148.522-3.214.8-.407.108-.8.276-1.2.416a8.165,8.165,0,0,0,1.344.023c1.468-.211,2.923-.616,4.4-.679,2.661-.113,5.331-.052,8-.02.818.01,1.635.172,2.454.247a1.024,1.024,0,0,0,.369-.122,1.548,1.548,0,0,0-.3-.278c-.881-.478-1.746-.993-2.67-1.385-.285-.121-.872-.4-1.092.329-.063.21-.692.374-1.065.382a52.871,52.871,0,0,0-7.024.283m-16.158,3.594a24.494,24.494,0,0,0-8.211,5.257,1.659,1.659,0,0,0-.229.465,2.057,2.057,0,0,0,.483-.188,57.818,57.818,0,0,1,9.47-5.326c1.724-.81,3.526-1.474,5.293-2.205.109-.046.215-.1.322-.15a2.033,2.033,0,0,0-.376-.11,1.457,1.457,0,0,0-.568,0c-1.037.339-2.066.7-3.094,1.059-.985.347-1.966.708-3.091,1.2m9.724-4.26c1.516-.222,3.027-.473,4.548-.656a26.276,26.276,0,0,0,3.427-.325,14.738,14.738,0,0,1,2.318-.226c.1-.011.192-.132.287-.2-.1-.108-.187-.281-.312-.309a4.3,4.3,0,0,0-.708-.016,27.517,27.517,0,0,0-7.624.8c-1.807.42-3.623.814-5.422,1.265-.5.125-1.184.039-1.377.714.515-.119,1.027-.255,1.547-.353,1.055-.2,2.113-.375,3.315-.693m-5.434,43.929a3.888,3.888,0,0,0-1.3-3.079c-.263-.281-.466-.337-.8-.041-1.034.922-1.174,2.2-1.609,3.36-.039.1.043.242.07.365a4.1,4.1,0,0,0,.4-.257,1.833,1.833,0,0,1,2.226-.209c.233.144.4.381.616.545a1.2,1.2,0,0,0,.4.112v-.8m-15.157-19.169-3.4-3.169c-.832-.775-1.673-1.543-2.5-2.329-.39-.374-.27-.019-.426.169-.54.656-.062.712.452.957.955.456,1.869,1.02,1.583,2.264-.049.212-.1.423-.153.634.242-.157.571-.267.709-.482.326-.51.752-.365,1.128-.185a1.231,1.231,0,0,1,.4,1.532c-.232.485-.472.966-.7,1.454a1.431,1.431,0,0,0-.069.353,1.688,1.688,0,0,0,.373-.119,2.235,2.235,0,0,0,.306-.275c1.124-.98,1.244-.971,2.165.137a1.8,1.8,0,0,0,.3.231c.039-.118.131-.249.1-.35a5.556,5.556,0,0,1-.273-.821m-39.466,84.131a23.892,23.892,0,0,1,1.167-3.124,42.446,42.446,0,0,1,3.734-6.25,1.867,1.867,0,0,0,.236-.83.343.343,0,0,0-.169-.3.476.476,0,0,0-.365.1,2.383,2.383,0,0,0-.313.4,27.8,27.8,0,0,0-3.6,6.428c-.456,1.107-.852,2.234-1.241,3.362-.023.064.264.221.55.2m75.356-64.3.6.506a1.756,1.756,0,0,0,.1-.612,13.968,13.968,0,0,0-.585-2.406c-.336-.843-1.014-.885-1.74-.245a3.683,3.683,0,0,0-1.093,2.344c-.056.336.117.542.462.363a2.648,2.648,0,0,1,2.252.05m38.465,57.374q.8-1.681,1.606-3.363a.534.534,0,0,0,.016-.187c-.129,0-.342-.042-.373.01a10.842,10.842,0,0,0-.515.994c-.819,1.719-1.629,3.442-2.451,5.16-.948,1.98-1.93,3.944-2.838,5.94a4.66,4.66,0,0,0-.17,1.422,10.747,10.747,0,0,0,.695-1.177c.695-1.591,1.309-3.213,2.043-4.787.595-1.276,1.32-2.5,1.988-4.013m-23.879-66.693c.1-.271.206-.541.3-.814.806-2.346,1.629-4.688,2.4-7.045a3.167,3.167,0,0,0-.077-1.152c-.167.306-.343.608-.5.918a8.076,8.076,0,0,0-.536,1.12q-1.16,3.54-2.263,7.1c-.066.212-.279.683.313.644.09-.006.152-.414.37-.768m-55.91-7.322c.19-.367.4-.729.561-1.106a.361.361,0,0,0-.125-.333,2.358,2.358,0,0,0-1.221.705q.583,2.815,1.182,5.627a8.566,8.566,0,0,0,.3,1.073c.04.112.192.19.292.283a1.053,1.053,0,0,0,.146-.325c.063-.8-.173-1.64.292-2.4.137-.224.513-.435-.177-.482-.982-.067-1.237-.4-1.251-1.32-.009-.485,0-.97,0-1.721m3.718,5.591a6.212,6.212,0,0,1-.3,1.211c-.27.584.04,1.54-1.13,1.615-.092.006-.279.494-.2.683.307.764.7,1.5,1.067,2.242.049.1.166.16.252.239.106-.105.3-.207.3-.316.029-.618.01-1.238.014-1.858a5.826,5.826,0,0,1,.073-1.965,2.024,2.024,0,0,0-.073-1.851m5.291-7.322c.8-.217,1.611-.426,2.411-.659.12-.035.2-.179.3-.273-.074-.045-.17-.143-.22-.126-.7.234-1.041-.458-1.616-.546a1.862,1.862,0,0,1-.409-.166,2.255,2.255,0,0,0,.123.45,3.931,3.931,0,0,0,.317.471,3.045,3.045,0,0,1-.716.3,1.342,1.342,0,0,1-.639-.139c-.43-.17-.815-.621-.954.324-.066.453-.817.813-1.237,1.233-.072.072-.04.233-.057.352.163.011.429.084.47.024.491-.714,1.427-.682,2.222-1.245M1087,121.367c-.726.5-1.46.987-2.173,1.5a1.13,1.13,0,0,0-.385.508c-.049.138.054.321.089.484.1-.07.207-.134.3-.211.8-.653,1.606-1.3,2.385-1.976.066-.057-.044-.289-.216-.307m23.451-70.287a9.371,9.371,0,0,0-.014-1.169,1.813,1.813,0,0,0-.306-.562,1.479,1.479,0,0,0-.24.494,15.274,15.274,0,0,0,0,1.559c0,.088.147.171.226.256a2.52,2.52,0,0,1,.336-.579m57.053,2.8.369-.454-.655-.078a.519.519,0,0,0,.286.532M1113.166,42.96l-.389.7c.224-.145.458-.28.665-.443C1113.49,43.183,1113.45,43.049,1113.166,42.96Z" transform="translate(-977.379 0)"></path><path d="M622.034,806.688c-6.16.374-12.185.295-18.206.249a8.24,8.24,0,0,1-6.272-2.453,6.723,6.723,0,0,1-1.759-3.626,75.047,75.047,0,0,1-.679-7.572c-.1-1.892.017-3.806-.258-5.671a58.207,58.207,0,0,1-.55-8.526,14.747,14.747,0,0,1-.236-2.438c.39-2.161.017-4.345.317-6.478a8.928,8.928,0,0,1,.746-3.467,5.224,5.224,0,0,1,3.654-2.792c1.543-.132,3.107-.1,4.639-.3,2.46-.317,4.934-.095,7.385-.275,7.318-.537,14.642-.084,21.96-.239,1.49-.032,2.982-.017,4.473,0a17.679,17.679,0,0,0,4.67-.531,3.563,3.563,0,0,1,.863-.01c2.213,0,4.425-.016,6.638.012a5.892,5.892,0,0,1,1.466.264,2.329,2.329,0,0,1,2.03,2.44,38.925,38.925,0,0,1-.05,5.643c-.29,2.082,0,4.164-.266,6.214-.5,3.865-.094,7.733-.266,11.595-.032.728-.187,1.45-.278,2.176a8.25,8.25,0,0,1-.239,2.057,16.905,16.905,0,0,0-.351,2.7c-.514,2.679-.74,5.412-2.55,7.765a6.047,6.047,0,0,1-3.991,2.138,39.041,39.041,0,0,1-5.354.316c-2.749.106-5.519.028-8.242.331-1.706.188-3.41.009-5.076.249a30.583,30.583,0,0,1-4.216.231M597.211,775.88a63.465,63.465,0,0,0,.541,10.675c.252,1.457.094,2.965.277,4.46.284,2.319-.169,4.681.319,7.014.2.974.078,2.015.338,2.971.391,1.437,1.1,2.726,2.933,3a20.084,20.084,0,0,0,3.223.506c5.538-.093,11.082.323,16.616-.226,2.112-.209,4.238.081,6.379-.232,2.085-.3,4.235-.083,6.368-.269,3.258-.284,6.554.1,9.833-.293a4.247,4.247,0,0,0,3.71-2.579c1.128-2.51,1.254-5.193,1.672-7.817a42.519,42.519,0,0,0,.317-5.4c.119-3.952.2-7.9.3-11.857,0-.175-.054-.411.044-.515.522-.556-.1-.547-.373-.638a2.211,2.211,0,0,0-.716-.014c-7.027.166-14.054-.193-21.089.222-6,.354-12.04-.224-18.054.3-1.239.108-2.5.016-3.749.016-2.741,0-5.481,0-8.222.005-.288,0-.744-.167-.661.668m10.824-3.094c3.474-.011,6.946-.15,10.415-.217,8.269-.16,16.545-.052,24.818-.052a3.971,3.971,0,0,0,1.143-.028c1.815-.577,3.537-.065,5.244.389.457.121.648.325.67-.28.084-2.295.166-4.59.3-6.883.037-.641-.354-1.239-.8-1.207-.738.052-1.685-.8-2.222.217a1.583,1.583,0,0,1-1.659.8c-12.418.029-24.838-.148-37.253.265q-4.269.142-8.538.27a1.051,1.051,0,0,0-.144,0c-1.253.214-2.523.526-2.671,1.933-.158,1.5-.1,3.022-.105,4.535,0,.085.235.239.369.248,1.594.105,3.19.263,4.786.26C604.171,773.031,605.959,772.876,608.035,772.786Z" transform="translate(-320.982 -632.867)"></path><path class="c" d="M605.5,264.219c0,1.075.03,2.017-.006,2.957-.076,1.979-.131,3.962-.316,5.934a3.084,3.084,0,0,1-.832,1.667c-.225.243-.873.211-1.324.19-.636-.03-1.265-.225-1.9-.238-.688-.014-1.3-.4-2.091-.066-.764.322-2.027-.67-2.177-1.555a16.878,16.878,0,0,1-.288-2.709c-.027-4.883-.034-9.766.01-14.649a1.252,1.252,0,0,0-.912-1.39,6.924,6.924,0,0,1-4.2-4.766,5.727,5.727,0,0,1,1-5.041,17.288,17.288,0,0,1,2.913-2.751,4.51,4.51,0,0,1,3.42-.714c.56.05.712.389.406.875-.138.218-.44.346-.575.564-.97,1.566-1.106,3.976.874,5.205a2.777,2.777,0,0,0,3.144-.352,3.38,3.38,0,0,0,1.034-3.559c-.187-.554-.409-1.1-.607-1.647s.078-1.305.605-1.334a6.526,6.526,0,0,1,2.2.211c2.509.76,3.631,2.6,4.261,4.855,1.087,3.9-.918,6.8-3.645,8.828a2.654,2.654,0,0,0-1.259,2.206c-.056,1.791-.04,3.584,0,5.375a19.174,19.174,0,0,0,.275,1.905m-7.5-.135v3.494a3.338,3.338,0,0,0,.018.8c.037.149.252.258.387.385.057-.139.174-.283.163-.417-.066-.778.019-1.554.014-2.331-.013-2.33.025-4.66-.018-6.989-.021-1.129-.171-2.256-.289-3.382-.012-.111-.209-.205-.32-.307-.081.129-.264.294-.229.383.539,1.376.2,2.8.261,4.2.057,1.3.012,2.6.012,4.166m0,5.112c0,.39-.013.781.012,1.17,0,.071.209.208.243.189A.762.762,0,0,0,598,269.2Z" transform="translate(-288.022 -220.361)"></path><path d="M80.484,589.679c.216-1.042.343-2.019.513-2.99a5.079,5.079,0,0,1,.384-1.328c.363-.753.625-1.831,1.264-2.112a10.445,10.445,0,0,1,2.456-.606,27.027,27.027,0,0,1,3.912-.285c4.517-.032,9.041-.159,13.548.039,2.99.131,5.992.021,8.958.281,1.8.158,3.581.091,5.364.216a12.006,12.006,0,0,1,2.433.361,2.715,2.715,0,0,1,2.075,2.761c.021,4.031.109,8.066-.035,12.093a6.37,6.37,0,0,1-2.829,5.072,5.042,5.042,0,0,1-2.722.653c-3.366.182-6.754.078-10.11.338-5.392.418-10.786.26-16.171.171a19.887,19.887,0,0,1-6.566-.733,2.877,2.877,0,0,1-1.967-2.4c0-.09,0-.179,0-.269-.1-2.337-.038-4.692-.346-7a31.734,31.734,0,0,1-.159-4.263m3.1,6.256c-.1,1.353-.225,2.7-.278,4.058-.04,1.028.124,1.055,1.142,1.486a6.018,6.018,0,0,0,1.913.246,17.863,17.863,0,0,0,1.9.252c9.145-.061,18.294.222,27.435-.248a2.942,2.942,0,0,0,2.287-1.014c1.177-1.474,1.144-3.262,1.391-4.974-.515-.531-.271-1.178-.278-1.771-.026-2.42-.006-4.841-.013-7.262,0-.953-.355-1.309-1.37-1.4-1.113-.1-2.227-.234-3.343-.262-3.855-.095-7.709.069-11.569-.237-2.721-.216-5.478-.042-8.219-.042s-5.482-.029-8.222.021a3.6,3.6,0,0,0-1.919.485c-.313.224-.258.961-.269,1.47-.03,1.479.064,2.963-.032,4.436C84.045,592.681,83.779,594.171,83.586,595.935Z" transform="translate(251.673 -488.58)"></path><path d="M550.876,1408.129a42.027,42.027,0,0,1-8.309-1.121c-1.607-.416-3.161-1.2-3.685-2.935a11.653,11.653,0,0,1-.408-1.724,22.84,22.84,0,0,0-.326-2.839c-.482-1.756-.183-3.519-.24-5.276a4.43,4.43,0,0,1,.337-1.878,3.123,3.123,0,0,1,3.088-1.988c6.636.008,13.28-.159,19.907.075,3.04.108,6.091-.026,9.112.245,1.457.129,2.912.105,4.355.242a48.369,48.369,0,0,1,6.595,1.049,2.283,2.283,0,0,1,1.562,1.781,23.643,23.643,0,0,1,.631,3.528,8.9,8.9,0,0,1,.273,1.234,11.021,11.021,0,0,1-2.187,7.49,5.372,5.372,0,0,1-2.919,1.541,12.7,12.7,0,0,1-3.042.3c-3.229.113-6.484-.005-9.684.331a85.45,85.45,0,0,1-10.129.156c-1.583-.022-3.187-.2-4.931-.21m-10.391-15.741a2.6,2.6,0,0,0-.575,1.928,25.349,25.349,0,0,0,.234,3.526,31.782,31.782,0,0,1,.335,4.851,2.687,2.687,0,0,0,2.315,2.747,42.14,42.14,0,0,0,9.493,1.29c5.05.042,10.1.268,15.164-.172,2.965-.257,5.975.034,8.96-.291a9.271,9.271,0,0,0,3.092-.841c.915-.443,1.571-1.468,1.313-2.062-.766-1.769-.375-3.669-.782-5.476-.131-.582-.054-1.17-.223-1.785a5.27,5.27,0,0,1,.108-2.743c.179-.628-.029-.553-.464-.572-2.362-.1-4.72-.032-7.093-.2-4.554-.327-9.137-.067-13.716-.268-5.992-.265-12.009-.066-18.159.068m41.563,5.112c-.1-.229-.191-.457-.289-.686-.033-.077-.073-.149-.11-.225-.059.09-.175.183-.169.269.085,1.205-.254,2.442.278,3.618a2.909,2.909,0,0,1,.112.357,1.21,1.21,0,0,0,.171-.4C582.056,1399.546,582.049,1398.658,582.049,1397.5Z" transform="translate(-537.869 -1202.538)"></path><path class="c" d="M133.566,1124.151c.706-.022,1.337-.163,1.973-.188.918-.038,1.88.184,2.322-.954.161-.413.627-.576,1.171-.244.592.362,1.269.6,1.9.919.815.412.924.7.648,1.559a1.368,1.368,0,0,0,.39,1.652,3.538,3.538,0,0,1,.755,1.045,1.34,1.34,0,0,0,1.244.866c1.519.055,1.786.331,1.935,1.8a6.975,6.975,0,0,1,0,1.075,1.32,1.32,0,0,1-1.5,1.382,1.171,1.171,0,0,0-1.3.919,5,5,0,0,1-.595,1.125,1.285,1.285,0,0,0-.2,1.543,1.207,1.207,0,0,1-.482,1.726c-.666.447-1.319.912-2.01,1.324a1.243,1.243,0,0,1-1.676-.362.912.912,0,0,0-1.082-.591c-.1.007-.192,0-.288,0-1.75-.012-1.75-.012-2.638,1.421-.461.744-.82.846-1.693.461a19.13,19.13,0,0,1-2.151-.993.956.956,0,0,1-.293-1.565,1.259,1.259,0,0,0-.394-2.022,1.1,1.1,0,0,1-.43-.5,1.831,1.831,0,0,0-2.155-1.4.9.9,0,0,1-.712-.464,6.564,6.564,0,0,1-.306-1.762c-.057-1.643,0-1.674,1.693-2.33a1.347,1.347,0,0,0,.592-.481c.235-.349.381-.748.592-1.113.392-.678.805-1.234-.136-1.951-.763-.581-.605-1.065.168-1.715a7.279,7.279,0,0,1,.793-.482c2.1-1.337,2.1-1.337,3.862.3m.072,11.1a3.319,3.319,0,0,1,.389.1,5.014,5.014,0,0,0,5.175-.724c1.983-2.03,1.7-4.4-.253-6.167a4.782,4.782,0,0,0-7.215,1.331,2.987,2.987,0,0,0-.43,2.006A5.818,5.818,0,0,0,133.639,1135.251Z" transform="translate(-92.867 -1066.033)"></path><path class="c" d="M8.875,1159.329a6.92,6.92,0,0,1-1.852-.132,1.206,1.206,0,0,1-.956-1,2.741,2.741,0,0,0-2.049-1.753,1.063,1.063,0,0,0-.525.106c-1.169.561-1.167.565-1.989-.191-.171-.157-.345-.312-.509-.476-.893-.895-.973-1.449-.071-2.294.954-.895.328-1.941.493-2.9.012-.069-.371-.171-.536-.295-1.072-.808-1.1-.895-.426-2.035a11.509,11.509,0,0,1,1.3-1.909,1.1,1.1,0,0,1,1.624-.25,1.679,1.679,0,0,0,2.123-.146,1.217,1.217,0,0,0,.589-.987c.026-1,.382-1.246,1.482-1.273a4.993,4.993,0,0,0,.988-.051c1.355-.318,2.142.19,2.1,1.491a1.211,1.211,0,0,0,.882,1.41.955.955,0,0,0,1-.125c1.226-.8,1.243-.779,2.282.2a3.376,3.376,0,0,1,.744.787,1.264,1.264,0,0,1-.661,1.582c-.717.233-.722.627-.787,1.186a2.338,2.338,0,0,0,1.058,2.429c.376.256.529.484.153.961a5.532,5.532,0,0,0-.611,1.636c-.33.942-.779,1.164-1.835.909a1.856,1.856,0,0,0-2.2,1.532,4.831,4.831,0,0,0,0,.538c.05.628-.265.884-.929.86a2.621,2.621,0,0,0-.877.192m.505-11.234c-.2-.089-.438-.294-.592-.25-1.014.3-2.162.262-3.025.942a3.635,3.635,0,0,0-1.663,3.34,3.891,3.891,0,0,0,2.626,2.981,3.631,3.631,0,0,0,3.836-.872C12.626,1152.594,12.155,1149.552,9.38,1148.095Z" transform="translate(14.939 -1084.259)"></path><path d="M1712.492,1349.392a10.1,10.1,0,0,1-1.322.257c-2.386.013-4.738-.2-6.438-2a9.536,9.536,0,0,1-2.443-4.149c-.569-2.267-.914-4.541.384-6.738a8.539,8.539,0,0,1,5.581-4.031,11.2,11.2,0,0,1,5.233-.039,9.24,9.24,0,0,1,5.04,3.168,11.064,11.064,0,0,1,1.827,3.18c1.075,2.745.244,5.083-1.5,7.207a8.672,8.672,0,0,1-6.36,3.147m-4.907-9.552c-.123-.044-.312-.161-.358-.124-.989.786-1.97,1.579-2.924,2.4-.105.09-.039.352-.053.535.245-.056.573-.039.723-.182.846-.81,1.65-1.659,2.612-2.63m5.484,6.189c-.138.229-.769.043-.532.544a1.184,1.184,0,0,0,.659-.143c1.026-.74,2.031-1.507,3.029-2.278.105-.082.136-.248.2-.375a1.491,1.491,0,0,0-.488.128c-.916.654-1.818,1.325-2.869,2.124m-8.226-7.4c-.241.347-.488.69-.714,1.046-.032.048.029.159.071.227a.284.284,0,0,0,.189-.047c.671-.617,1.342-1.236,1.995-1.87a.411.411,0,0,0-.015-.335c-.154-.028-.372-.06-.472.017-.325.25-.609.549-1.054.962m6.061-3.5c-.3.281-.607.56-.9.848-.036.035-.035.164-.01.176.077.036.212.081.254.047.387-.317.733-.679,1.141-.967.326-.233,1.134-.323.7-.795-.383-.413-.671.366-1.184.691m2.454.942a4.189,4.189,0,0,0,1.053-.21c.188-.087.253-.4.371-.613a2.31,2.31,0,0,0-.674.144A5.143,5.143,0,0,0,1713.358,1336.072Z" transform="translate(-1546.982 -1153.142)"></path><path d="M788.755,886.636c3.173,0,6.2-.016,9.231.012a7.432,7.432,0,0,1,2.034.287c.341.1.575.513.858.784-.335.267-.655.743-1.009.767a45.755,45.755,0,0,1-6.938.227c-1.451-.125-2.828.046-4.24.06-4.375.044-8.75.016-13.125.016a3.67,3.67,0,0,1-1-.017c-.521-.156-.946-.384-.843-1.081.095-.644.417-.778,1.02-.793,2.846-.073,5.689-.192,8.535-.254C785.052,886.6,786.831,886.636,788.755,886.636Z" transform="translate(-474.714 -740.26)"></path><path d="M716.5,1009.021c.162-1.15.348-1.244,1.529-1.02a6.311,6.311,0,0,0,1.151.011q10.955,0,21.91.012a15.545,15.545,0,0,1,1.755.253c.51.062.825.338.681.774a1.072,1.072,0,0,1-.768.553c-1.4.141-2.8.272-4.2.28q-8,.047-16,0c-1.69-.011-3.382-.141-5.068-.278C717.166,1009.579,716.874,1009.268,716.5,1009.021Z" transform="translate(-425.763 -845.223)"></path><path d="M663.94,1040.655a14.374,14.374,0,0,1,6.095.026c.217.038.426.406.512.659.032.094-.283.312-.465.443a1.041,1.041,0,0,1-.478.211c-1.352.1-2.7.254-4.058.264-4.658.032-9.316.016-13.974.005-.409,0-.815-.118-1.226-.148-.625-.044-.651-.482-.52-.833a1.334,1.334,0,0,1,.725-.606,2.436,2.436,0,0,1,.855-.021Z" transform="translate(-368.661 -873.292)"></path><path d="M638.76,888.249c-2.3.508-4.486.187-6.658.254a1.71,1.71,0,0,1-1-.3c-.3-.226-.676-.626-.641-.909a1.249,1.249,0,0,1,1.107-.917,4.523,4.523,0,0,1,.863-.009c2.067,0,4.148-.145,6.2.039,2.176.2,4.343.2,6.517.241a3.278,3.278,0,0,1,1.17.274c.219.092.357.353.531.538-.235.174-.456.477-.706.5-1.445.133-2.9.222-4.348.283C640.829,888.282,639.866,888.249,638.76,888.249Z" transform="translate(-352.14 -739.99)"></path><path d="M850,931.9c-2.455.09-4.766.164-7.075.279a2.409,2.409,0,0,1-1.652-.493c-.178-.136-.426-.472-.373-.543.237-.32.538-.771.876-.822a19.878,19.878,0,0,1,3.353-.065c3.547.079,7.1.02,10.647.041a4.127,4.127,0,0,1,1.313.272c.266.094.681.364.659.5-.041.258-.34.49-.562.707a.624.624,0,0,1-.374.116c-2.07.1-4.141.189-6.212.261C850.45,932.157,850.294,931.985,850,931.9Z" transform="translate(-532.205 -777.985)"></path><path d="M714.658,925.776c-.273-1.363-.251-1.4.982-1.41,2.064-.01,4.144-.146,6.188.041,1.79.164,3.571.171,5.357.25a6.4,6.4,0,0,1,1.914.532c.239.091.386.39.575.594-.224.155-.431.408-.676.446a20.8,20.8,0,0,1-2.614.275q-2.23.064-4.464,0c-2.025-.057-4.05-.153-6.072-.277A3.768,3.768,0,0,1,714.658,925.776Z" transform="translate(-424.069 -772.875)"></path><path d="M830.449,1043.92c0-.4-.054-.844.159-1.036a2,2,0,0,1,1.2-.49c3.171-.039,6.353-.165,9.508.042,1.5.1,3,.143,4.5.206a3.3,3.3,0,0,1,.432,0c.722.124,1.382.7,1.124,1.03a1.8,1.8,0,0,1-1.207.556,30.6,30.6,0,0,1-5.324-.024,66.8,66.8,0,0,0-7.24-.207,3.8,3.8,0,0,0-2.062.224C831.317,1044.341,830.866,1044.077,830.449,1043.92Z" transform="translate(-523.264 -875.009)"></path><path d="M651.81,970.165a54.578,54.578,0,0,1-7.816.269c-.192,0-.385,0-.577,0-.834-.018-1.43-.418-1.42-.952s.623-.928,1.444-.929c4.425,0,8.85.023,13.274-.027.7-.008,1.35.315,1.352.69,0,.405-.692.618-1.319.719A32.148,32.148,0,0,1,651.81,970.165Z" transform="translate(-362.015 -811.142)"></path><path d="M786.6,968.532a11.429,11.429,0,0,1-2.15-.04.82.82,0,0,1-.781-.863c.029-.555.362-.726.719-.908a1.979,1.979,0,0,1,.829-.07c2.639,0,5.279-.031,7.918.01,1.353.021,2.7.167,4.055.258.091.006.208-.006.268.04.333.26.652.535.976.8a5.549,5.549,0,0,1-1.048.747,2.79,2.79,0,0,1-1,.023Z" transform="translate(-483.243 -809.509)"></path><path d="M638.978,1006.346c-.258-1.265.032-1.664,1.154-1.676,1.586-.017,3.172.012,4.757-.012a2.364,2.364,0,0,1,1.8.814c.225.23.3.445-.153.548-.166.038-.315.258-.458.247C643.73,1006.092,641.405,1006.929,638.978,1006.346Z" transform="translate(-359.357 -842.414)"></path><path d="M912.461,969.022c.489.955.478,1.042-.341,1.268a6.872,6.872,0,0,1-1.6.267c-1.241.039-2.485.035-3.727,0-.958-.023-1.467-.632-1.171-1.386a.841.841,0,0,1,.577-.469c1.863-.036,3.727-.029,5.59-.009A1.694,1.694,0,0,1,912.461,969.022Z" transform="translate(-587.524 -811.278)"></path><path d="M643.189,926.293c-1.392.09-2.639.2-3.889.259a1.205,1.205,0,0,1-1.306-.9c-.023-.479.559-.959,1.239-.968,1.288-.017,2.576-.011,3.864,0a1.347,1.347,0,0,1,.652.131c.32.195.826.453.833.695.012.434-.465.562-.939.528C643.546,926.031,643.436,926.2,643.189,926.293Z" transform="translate(-358.589 -773.19)"></path><path d="M922.445,1006.346c-.615-1.207-.439-1.555.754-1.532a7.017,7.017,0,0,1,2.009.286c.367.118.847.546.861.852.019.426-.529.483-.984.469C924.23,1006.4,923.374,1006.413,922.445,1006.346Z" transform="translate(-601.694 -842.548)"></path><path d="M145.39,642.164c-.867.352-1.841.02-2.526.723-.237.243-.621.357-.883.585-.444.388-.933.92-.646,1.445a1.966,1.966,0,0,0,1.707.961,11.136,11.136,0,0,1,2.18.282c.268.064.626.436.622.664a.908.908,0,0,1-.657.612c-1.519-.1-3.088.42-4.558-.405-1.364-.766-2.014-2.632-1.01-3.739A6.441,6.441,0,0,1,143,640.871a3.059,3.059,0,0,1,2.124.16C145.564,641.257,145.861,641.6,145.39,642.164Z" transform="translate(201.487 -539.182)"></path><path d="M258.935,653.2a1.218,1.218,0,0,1-1.293.859c-.763,0-1.154.2-1.111.981a.749.749,0,0,1-.412.6.78.78,0,0,1-.66-.332,1.7,1.7,0,0,0-2.009-.981c-.145.016-.315-.216-.468-.21-.6.021-.457-.526-.719-.754a5.667,5.667,0,0,1,.876-.62,1.619,1.619,0,0,1,.71-.014c.62.036.962-.166.993-.8a1.188,1.188,0,0,1,.4-.766,1.109,1.109,0,0,1,.842-.277c.219.073.406.448.454.714.194,1.062.175,1.041,1.352,1.147A3.26,3.26,0,0,1,258.935,653.2Z" transform="translate(104.683 -547.932)"></path><path d="M204.5,651.215c.479.282,1.263.327,1.128,1.14-.015.089.585.314.922.4.526.129,1.079.163,1.607.287.577.135.353.463.053.612a2.989,2.989,0,0,1-1.38.427,1.292,1.292,0,0,0-1.526,1.148c-.059.258.024.608-.421.481-.274-.079-.71-.311-.709-.473,0-.878-.583-.874-1.246-.864a1.653,1.653,0,0,1-.8-.137.676.676,0,0,1,.213-1.242,2.385,2.385,0,0,0,1.885-1.515C204.265,651.4,204.362,651.346,204.5,651.215Z" transform="translate(147.858 -548.233)"></path><path d="M590.041,1426.9c.558-.44.768-.011.922.253a10.881,10.881,0,0,1,.593,1.376,1.274,1.274,0,0,0,1.37.876,1.325,1.325,0,0,0,1.235-.869,4.111,4.111,0,0,0,.577-2.058c-.027-1.027-.041-2.056,0-3.082a1.06,1.06,0,0,1,1.462-.985.914.914,0,0,1,.532.523,7.821,7.821,0,0,1-1.231,6.926,2.714,2.714,0,0,1-2.927,1.12,2.825,2.825,0,0,1-2.375-1.664C589.965,1428.567,589.513,1427.8,590.041,1426.9Z" transform="translate(-582.301 -1230.258)"></path><path d="M652.6,1436.546c.482.511-.126.752-.134,1.067-.26-.056-.52-.109-.778-.171-.04-.011-.073-.058-.1-.093-.334-.4-.307-1.114-1-1.18-.552-.052-1.133.146-1.682.085-.531-.058-.615.218-.758.54a3.574,3.574,0,0,1-.467.886,2.879,2.879,0,0,1-.731.459c-.189-.346-.861-.41-.591-1.031.664-1.531,1.263-3.088,1.926-4.619a3.708,3.708,0,0,1,.727-1.056,1.252,1.252,0,0,1,2.132.182,10.7,10.7,0,0,1,1.458,4.931m-2.453-2.422-.3-.8a5.222,5.222,0,0,0-.689.8c-.065.112.122.351.194.531C649.648,1434.488,650.3,1435.035,650.149,1434.125Z" transform="translate(-630.648 -1237.682)"></path><path d="M741.022,1441.055a2.733,2.733,0,0,1-.927-.748,1.575,1.575,0,0,0-1.894-.849c-.791.245-1.872-.052-2.261,1.053a.727.727,0,0,1-1.063.307c-.378-.236-.612-.467-.241-1.048.975-1.526,1.725-3.176,2.652-4.731.522-.876,1.484-1.1,2.131-.163a9.144,9.144,0,0,1,1.11,2.113,9.037,9.037,0,0,1,.777,3.721c-.01.118-.091.231-.283.346m-3.175-3.9c-.477,1.017-.43,1.262.25,1.192.3-.031.818-.3.807-.428a2.192,2.192,0,0,0-.482-1C738.355,1436.824,738.045,1436.89,737.847,1437.153Z" transform="translate(-706.078 -1240.576)"></path><path d="M695.229,1436.284a13.9,13.9,0,0,1-.785-1.534,3.074,3.074,0,0,1-.272-1.091c0-.214.212-.576.39-.612a1.01,1.01,0,0,1,.846.215c.589.924,1.092,1.9,1.622,2.854.02.035-.011.093,0,.132.139.348.283.694.426,1.041.146-.3.282-.6.439-.893.476-.888.926-1.792,1.464-2.648.151-.239.571-.331.868-.491a2.4,2.4,0,0,1,.239.9,4.409,4.409,0,0,1-.461,1.289c-.49.974-1.052,1.916-1.526,2.9a1.212,1.212,0,0,1-2.3.077C695.808,1437.772,695.59,1437.044,695.229,1436.284Z" transform="translate(-671.615 -1239.505)"></path></g></g></svg>