<svg xmlns="http://www.w3.org/2000/svg" width="179.565" height="101.925" viewBox="0 0 179.565 101.925"><defs><style>.a{fill:#dec887;}</style></defs><g transform="translate(-256.827 -1722.919)"><g transform="translate(0 -19)"><circle class="a" cx="14" cy="14" r="14" transform="translate(390 1791)"></circle><path d="M739.095,2075.8c.51-.736,1.062-1.333,1.519-2a3.483,3.483,0,0,1,2.175-1.5c1.6-.362,3.189-.759,4.795-1.079.756-.151,1.544-.129,2.31-.239,1.37-.2,2.732-.438,4.1-.643a5.66,5.66,0,0,1,.873-.006,11.938,11.938,0,0,0,3.425-.435,1.01,1.01,0,0,1,.218,0c1.5-.072,3-.162,4.5-.214,2.519-.087,5.048-.035,7.556-.247,4.706-.4,9.412-.062,14.116-.2a1.656,1.656,0,0,0,.875-.243,1.85,1.85,0,0,1,2.221-.11,2.314,2.314,0,0,0,1.625.6c.2-.008.417.2.626.312-.138.182-.238.424-.419.534-.99.606-.961.588-.7,1.862a10.3,10.3,0,0,1,.03,1.631c.065,1.719.052,3.447.245,5.151.15,1.324.264,2.656.452,3.968.217,1.511-.014,3.023.208,4.5.2,1.362,0,2.735.219,4.061.311,1.872.038,3.738.193,5.6.436,5.248.127,10.5.2,15.754A32.429,32.429,0,0,1,790.2,2118c-.191,1.294,0,2.584-.2,3.846-.32,2.047.013,4.113-.24,6.136-.2,1.62-.079,3.224-.181,4.832-.033.519-.15,1.031-.209,1.549s.1,1.047-.2,1.561c-.127.217-.008.571-.023.861a9.652,9.652,0,0,1-1.1,4.133,3.78,3.78,0,0,1-4.687,2.026,3.324,3.324,0,0,0-1.73,0,14.425,14.425,0,0,1-4.656.638c-1.719.023-3.444.055-5.152.228-2,.2-3.991.531-5.976.863-1.932.323-3.848.742-5.779,1.073-.8.137-1.629.083-2.417.246-1.431.3-2.906.262-4.322.636a1.551,1.551,0,0,1-.327,0c-1.937.072-3.887.029-5.806.255-1.544.182-3.094.006-4.606.225-1.147.165-2.277.1-3.412.182a14.372,14.372,0,0,1-1.766.2,38.877,38.877,0,0,1-4.838-.463,5.157,5.157,0,0,1-2.42-1.208,4.031,4.031,0,0,1-.934-2.546c-.35-2.63-.289-5.274-.465-7.9-.1-1.577.022-3.164-.194-4.717-.183-1.324-.008-2.663-.23-3.949a21.636,21.636,0,0,1-.165-3.632c-.026-4.88-.036-9.761,0-14.642.022-3.03.01-6.069.259-9.083.14-1.69-.034-3.386.212-5.043.171-1.154.263-2.326.493-3.485a14.032,14.032,0,0,1,2.247-4.545c.906-1.5,1.915-2.929,2.908-4.37.513-.744,1.076-1.455,1.639-2.163.917-1.154,1.85-2.294,2.781-3.437a2.714,2.714,0,0,0,.384-.5m38.583,64.706a4.544,4.544,0,0,0,1.516-.031,11.059,11.059,0,0,1,2.24-.375,4.945,4.945,0,0,1,2.782.365c.517.223,1-.1,1.34-.609a6.908,6.908,0,0,0,.714-3.3c.225-1.919.178-3.87.264-5.806.079-1.791-.081-3.578.176-5.38.236-1.656-.07-3.364.234-5.045a7.4,7.4,0,0,0-.187-1.544c-.089-1.791-.09-3.583-.175-5.376-.227-4.771.127-9.558-.261-14.333-.128-1.568-.154-3.145-.227-4.718a2.844,2.844,0,0,0-.02-.32c-.137-.853-.325-1.7-.406-2.56-.117-1.241-.157-2.489-.23-3.733a.786.786,0,0,0,0-.109,23.221,23.221,0,0,1-.445-4.19c-.032-1.464-.132-2.927-.216-4.39-.009-.161-.159-.316-.16-.475-.015-2.139-.083-4.281.013-6.415.041-.9.169-.971-.758-.945-1.61.045-3.219.135-4.827.212-2.264.109-4.524-.082-6.8.173-2.425.271-4.889.194-7.336.261-.582.016-1.166,0-1.748.005-.21,0-.42.039-.629.062l-3.228.359c-.42-.5-.8.169-1.253.042a3.369,3.369,0,0,0-1.518-.013,16.535,16.535,0,0,1-3.429.421,3.689,3.689,0,0,0-.98.012c-1.381.381-2.82.338-4.216.626-1.124.231-2.3.219-3.414.488a2.748,2.748,0,0,0-1.905.942c-.289.438-.682.806-.993,1.231q-2.33,3.184-4.639,6.384c-1.5,2.073-3,4.147-4.476,6.235a1.2,1.2,0,0,0-.238,1.425c.3.557.13.859-.486,1a.938.938,0,0,0-.716.9c-.148,1.346-.171,2.705-.255,4.059-.022.36.209.331.418.3a29.806,29.806,0,0,1,2.99-.413c1.844-.062,3.672-.215,5.5-.437,1.415-.172,2.852-.167,4.279-.237.182-.009.365.008.546,0,.6-.035.859-.334.688-.912a7.4,7.4,0,0,1-.008-3.65c.082-.4.142-.715.615-.676.393.032.453.313.51.673.177,1.118.41,2.228.648,3.336a3.547,3.547,0,0,0,.371,1.045c.326.556.651-.107,1.03-.069,1.046.105,2.11.008,3.165.044,1.155.04,1.159-.186,1.112-1.166-.115-2.409.137-4.819-.186-7.236-.246-1.841.085-3.725-.224-5.593a13.24,13.24,0,0,1-.01-3.054,11.349,11.349,0,0,1,.426-2,.484.484,0,0,1,.642-.392.8.8,0,0,1,.427.506,24.368,24.368,0,0,1,.44,2.658c.111,1.2.044,2.411.185,3.63.239,2.063.2,4.16.26,6.243.026.91.036,1.823,0,2.732a8.425,8.425,0,0,1-.184,2.651c-.214.588.236,1.038.888,1.012,1.318-.053,2.635-.159,3.954-.2.382-.012.4-.178.381-.462-.066-.917-.017-1.828-.173-2.759a16.974,16.974,0,0,1-.029-3.6,5.621,5.621,0,0,1,.4-1.575c.081-.224.324-.389.493-.582.2.23.549.437.591.693.2,1.206.348,2.423.452,3.641.112,1.315.172,2.634.219,3.953.018.514.237.7.726.681.655-.02,1.311,0,1.967-.006,1.178-.006,1.356-.2,1.251-1.346,0-.036,0-.073,0-.109-.218-1.658-.553-3.311-.629-4.976-.133-2.881.054-5.769-.215-8.654a16.865,16.865,0,0,1,.207-3.4,4.835,4.835,0,0,1,.465-1.332c.165-.378.545-.334.851-.269.1.021.159.323.192.5.227,1.256.514,2.506.639,3.773.123,1.238.124,2.49.2,3.735.2,3.387.189,6.786.261,10.18,0,.146-.012.293,0,.437.111,1.073.3,1.265,1.375,1.229.846-.028,1.689-.2,2.533-.194,1.136.01,2.272.123,3.406.214.118.01.324.181.316.263a1.021,1.021,0,0,1-.224.588,1.288,1.288,0,0,1-.552.229,28.291,28.291,0,0,1-4.537.65,7.964,7.964,0,0,0-1.2.026,5.578,5.578,0,0,1-2.8.233,8.689,8.689,0,0,0-1.761.177c-1.683.049-3.362.016-5.049.2-2.141.23-4.3-.023-6.468.2-2.609.271-5.253.2-7.883.262-.983.023-1.967,0-2.951,0a1.8,1.8,0,0,0-.651.011,10.338,10.338,0,0,1-3.108.37,55.143,55.143,0,0,1-5.786.051,2.873,2.873,0,0,1-.723-.1c-.713-.19-.866-.088-.885.673-.09,3.612.071,7.223-.171,10.841a41.584,41.584,0,0,0,.129,7.124c.278,2.646-.133,5.33.237,8,.191,1.373-.011,2.773.2,4.174.233,1.511,0,3.062.216,4.609.251,1.8-.058,3.648.225,5.483a44.7,44.7,0,0,1,.252,4.6,1.118,1.118,0,0,0,.906,1.157,6.693,6.693,0,0,0,1.893.417,46.914,46.914,0,0,0,5.6-.143,45.7,45.7,0,0,1,4.622-.457c2.168-.094,4.33-.182,6.485-.457,1.055-.135,2.124-.156,3.187-.23a4.048,4.048,0,0,0,.417-.048q2.343-.411,4.685-.824,1.631-.286,3.263-.565c1.02-.176,2.037-.372,3.061-.521.73-.107,1.473-.123,2.2-.232,1.3-.2,2.581-.519,3.884-.628C773.726,2140.591,775.6,2140.58,777.678,2140.507Z" transform="translate(-354.102 -315.386)"></path><path d="M866.66,2409.186c.38-.235.71-.409,1.032-.6a9.6,9.6,0,0,1,3.992-1.472c.99-.091,1.971-.375,2.99-.4a17.9,17.9,0,0,1,6.6,1.221,17.13,17.13,0,0,1,5.6,3.378,14.761,14.761,0,0,1,3.266,4.433,10.475,10.475,0,0,1,1.155,5.955,12.786,12.786,0,0,1-2.539,6.478,21.985,21.985,0,0,1-3.735,3.784,18.588,18.588,0,0,1-3.814,2.419,17.719,17.719,0,0,1-2.943,1.087c-1.17.309-2.343.655-3.516.983a8.524,8.524,0,0,1-5.179-.251,11.242,11.242,0,0,1-5.417-4.037,17.976,17.976,0,0,0-1.759-1.789,9.578,9.578,0,0,1-2.572-4.834,21.415,21.415,0,0,1-.153-6.023,10.633,10.633,0,0,1,2.158-5.848,31.563,31.563,0,0,1,3.212-3.225c.477-.452,1.043-.81,1.624-1.266m.492,22.024c.317.292.613.61.953.87a10.262,10.262,0,0,0,4.958,1.726,11.1,11.1,0,0,0,5.425-.848,25.411,25.411,0,0,0,2.768-1.5,17.5,17.5,0,0,0,5.261-4.355,4.793,4.793,0,0,0,1.131-1.929c.233-.943.787-1.818.943-2.765a7.584,7.584,0,0,0-.07-3.29,15.618,15.618,0,0,0-1.582-3.609,10.947,10.947,0,0,0-2.856-3.1c-1.769-1.392-3.915-1.972-5.954-2.775a4.988,4.988,0,0,0-1.414-.272c-.553-.044-.616.059-.4.617a12.789,12.789,0,0,1,.579,2.6c.17,1.083.427,2.152.644,3.227a20.677,20.677,0,0,1,.418,2.225c.05.569.274.725.8.725a16.591,16.591,0,0,0,4.192-.44,12.073,12.073,0,0,1,4.506.45,1.275,1.275,0,0,1,.551.729c.11.395-.255.509-.566.609-.127.041-.24.155-.365.168-.843.085-1.687.167-2.532.221-1.172.075-2.339.039-3.521.177-2.027.236-4.087.192-6.133.262a2.585,2.585,0,0,0-.761.013c-1.294.478-2.655.177-3.984.368a51.829,51.829,0,0,1-6.13.264c-.38.009-.5.087-.478.479a21.124,21.124,0,0,0,3.615,9.151m7.432-22.079a18.865,18.865,0,0,0-2.632.244,14.408,14.408,0,0,0-2.96,1.008,12,12,0,0,0-3.375,2.671,8.268,8.268,0,0,0-2.294,6.151c.006.45.206.678.648.633a13.708,13.708,0,0,1,1.438-.2,49.614,49.614,0,0,0,5.715-.432c1.452-.159,2.921-.161,4.382-.237.61-.031.765-.166.707-.781a12.772,12.772,0,0,0-.311-1.615,17.334,17.334,0,0,1-.748-4.809c.044-.782-.572-1.542-.056-2.332A.967.967,0,0,0,874.585,2409.131Z" transform="translate(-471.12 -616.583)"></path></g><g transform="translate(0 638)"><path d="M-6245.874-2174.053c1.726.415,14.015,11.47,14.86,12.215s8.815,14.99,8.815,14.99l-4.087,4.446-4.729,4.26-1.164,12.081s4.446,13.415,5,13.671,8.454,7.287,9.324,7.306,10.327.82,10.327.82,6.79-1.213,7.094-1.815,0-4.469,0-4.469l1.277-2.875s7.865-1.337,8.708-1.12,6.972,4,6.972,4l7.044,10.917v10.109s-2.356,9.328-2.956,9.487-4.408,2.127-7.117,2.772a64.649,64.649,0,0,1-7.967.977l-11.092-.977-17.619-10.632-21.787-22.653-9.331-26.247v-18.034l5.442-16.837Z" transform="translate(6514 3261)"></path><path d="M27.089,108.136c-.322,1.744-.977,3.347-.887,4.906a38.6,38.6,0,0,0,1.259,6.859,23.289,23.289,0,0,0,1.6,4.48,9.406,9.406,0,0,0,1.991,3.054A38.062,38.062,0,0,1,37.26,134.5a4.816,4.816,0,0,0,2.207,1.589,18.17,18.17,0,0,0,8.451,1.325,22.05,22.05,0,0,0,6.577-1.586,1.664,1.664,0,0,0,.807-1.905,31.714,31.714,0,0,1-.508-3.328,2.158,2.158,0,0,1,1.36-2.187,8.159,8.159,0,0,1,4.3-1.3c.807.036,1.643-.352,2.438-.27a29.035,29.035,0,0,1,12.971,4.056,27.5,27.5,0,0,1,6,4.864,18.678,18.678,0,0,1,4.241,7.084,10.064,10.064,0,0,1,.566,2.832,9.837,9.837,0,0,0,.342,1.942,7.231,7.231,0,0,1,.266,1.011c.041.749-.023,1.5.019,2.252.152,2.7-1.164,4.848-2.554,6.995a24.626,24.626,0,0,1-3.775,4.705,20.722,20.722,0,0,1-5.344,3.8c-2.209,1.022-4.395,2.175-6.936,2.312-1.528.082-3.054.63-4.559.553a31.386,31.386,0,0,1-4.1-.5,30.349,30.349,0,0,1-4.062-.726c-.846-.279-1.681-.6-2.5-.964-2.63-1.162-5.287-2.275-7.861-3.553-2.055-1.02-4.019-2.228-6-3.4-1.471-.87-2.938-1.757-4.335-2.738-1.47-1.032-2.858-2.181-4.276-3.286q-2.253-1.756-4.491-3.531a10.051,10.051,0,0,1-.8-.792c-1.669-1.669-3.356-3.321-5-5.011a64.188,64.188,0,0,1-6.87-8.407c-1.548-2.245-2.98-4.537-4.3-6.919A96.359,96.359,0,0,1,4.479,118a82.607,82.607,0,0,1-2.774-8.82c-.583-2.156-.643-4.449-1.029-6.665A45.7,45.7,0,0,1,.088,91.833a35.847,35.847,0,0,1,1.435-8.882,49.7,49.7,0,0,1,3.541-8.677,2.316,2.316,0,0,0,.125-1.07,5.175,5.175,0,0,1,2.548-4.343,8.288,8.288,0,0,1,4.8-1.534,10.152,10.152,0,0,1,5.1,1.586,33.552,33.552,0,0,1,7.875,6.968,49.835,49.835,0,0,1,7.691,12.248c1.13,2.483,2.366,4.925,3.334,7.469a10.381,10.381,0,0,1,.9,4,2.155,2.155,0,0,1-1.344,2.087,14.95,14.95,0,0,1-5.118,1.637,1.8,1.8,0,0,0-1.667,1.066c-.621,1.256-1.468,2.4-2.219,3.753M18.235,75.617a24.141,24.141,0,0,0-4.275-3.667c-1.918-1.168-2.351-1.169-3.573.576-.052.074.007.227-.046.3A26.147,26.147,0,0,0,7.63,78.143,33.865,33.865,0,0,0,4.62,89.751a61.771,61.771,0,0,0,.162,9.854c.222,2,.548,3.995.748,6a15.859,15.859,0,0,0,.484,2.533,66.125,66.125,0,0,0,2.713,8.856c1.068,2.508,1.992,5.08,3.106,7.567a43.909,43.909,0,0,0,2.612,4.872c1.338,2.2,2.735,4.361,4.216,6.461a48.539,48.539,0,0,0,3.173,3.841c1.5,1.72,2.943,3.5,4.584,5.08,2.11,2.025,4.358,3.914,6.613,5.78,1.656,1.37,3.394,2.646,5.145,3.895,2.02,1.44,4.041,2.892,6.16,4.177a48.187,48.187,0,0,0,6.59,3.51c2.615,1.073,5.384,1.773,8.091,2.619a5.432,5.432,0,0,0,1.475.313c1.877.037,3.756.018,5.634.012a4.172,4.172,0,0,0,1.1-.064,35.131,35.131,0,0,0,5.681-1.833,5.153,5.153,0,0,0,2.8-2.789c.519-1.287,1.118-2.544,1.594-3.847,1.083-2.963,2.395-5.884,1.948-9.177a12.819,12.819,0,0,0-.133-1.558,20.009,20.009,0,0,0-5.36-8.873c-1.649-1.675-3.53-3.12-5.281-4.7a2.61,2.61,0,0,0-2.02-1.018,23.541,23.541,0,0,1-2.48-.541,37.236,37.236,0,0,0-4.494-.026c-.719.037-.857.505-.68,1.278.115.5.076,1.036.169,1.544a5.075,5.075,0,0,0,.432,1.587c.68,1.2.693,1.475-.065,2.442a9.11,9.11,0,0,1-3.726,2.673,17.271,17.271,0,0,1-6.826,1.4c-1.5-.012-3.007.042-4.507-.018a12.487,12.487,0,0,1-2.9-.371,20.4,20.4,0,0,1-8.844-5.022,33.973,33.973,0,0,1-4.754-5.749,32.753,32.753,0,0,1-4.147-9.216,22.01,22.01,0,0,1-1.064-7.132c.123-1.94-.007-3.875.276-5.831a10.19,10.19,0,0,1,2.577-5.7,27.731,27.731,0,0,1,5.291-4.69,1,1,0,0,0,.537-1.2,10.761,10.761,0,0,0-.685-1.647c-1.79-3.232-3.664-6.419-5.394-9.682a45.423,45.423,0,0,0-6.939-9.748M82.147,145a9.089,9.089,0,0,1,.307,1.631c.021,2.526.222,5.077-.939,7.463a4.912,4.912,0,0,0-.322,1.306.424.424,0,0,0,.182.366.438.438,0,0,0,.407-.118c.672-1.323,1.347-2.647,1.959-4a2.461,2.461,0,0,0,.295-1.453c-.153-.6-.766-1.1-.876-1.7-.1-.57.648-1.152.029-1.852a1.816,1.816,0,0,1-.373-1.264c.162-1.5-.837-2.55-1.327-3.794-.052-.133-.29-.193-.441-.286-.048.176-.184.388-.13.522C81.306,142.783,81.733,143.729,82.147,145Z" transform="translate(256.827 1017.592)"></path></g></g></svg>