<svg xmlns="http://www.w3.org/2000/svg" width="59" height="59" viewBox="0 0 59 59">
  <g id="Group_17700" data-name="Group 17700" transform="translate(-770 -2181)">
    <g id="Rectangle_5483" data-name="Rectangle 5483" transform="translate(770 2181)" stroke="#151515" stroke-width="2">
      <rect width="59" height="59" rx="7" stroke="none"/>
      <rect x="1" y="1" width="57" height="57" rx="6" fill="none"/>
    </g>
    <g id="Group_17680" data-name="Group 17680">
      <path id="Path_54" data-name="Path 54" d="M38.34,45.576a9.579,9.579,0,0,0-6.455,2.607A7.666,7.666,0,0,0,29.5,54.677c-.98-.121-1.872-.255-2.769-.33a1.72,1.72,0,0,0-.94.159c-.871.492-1.707,1.047-2.7,1.666.182-.822.3-1.541.507-2.233a.85.85,0,0,0-.386-1.123c-3.009-2.124-4.277-5.3-3.328-8.576a8.49,8.49,0,0,1,5.965-5.821,10,10,0,0,1,10.926,3.2,7.483,7.483,0,0,1,1.559,3.957ZM26.805,44.556A1.155,1.155,0,0,0,25.694,43.4a1.123,1.123,0,0,0-1.168,1.085,1.109,1.109,0,0,0,1.1,1.151,1.141,1.141,0,0,0,1.181-1.08ZM32.824,43.4a1.157,1.157,0,0,0-1.13,1.139A1.158,1.158,0,1,0,32.825,43.4Z" transform="translate(766.418 2161.08)" fill="#fff"/>
      <path id="Path_55" data-name="Path 55" d="M138.471,135.526a8.5,8.5,0,0,0-2.3-.964,12.8,12.8,0,0,0-2.392.447,7.992,7.992,0,0,1-6.483-2.115c-3.456-3.2-2.963-8.1,1.037-10.721a8.719,8.719,0,0,1,11.274,1.679,6.4,6.4,0,0,1-.74,8.932c-.773.686-1.051,1.25-.555,2.154a2.564,2.564,0,0,1,.155.589Zm-9.034-8.748a.934.934,0,1,0-.931-.937.934.934,0,0,0,.931.937Zm5.824-1.865a.934.934,0,0,0-.927.893.921.921,0,1,0,.927-.893Z" transform="translate(671.919 2086.755)" fill="#fff"/>
    </g>
  </g>
</svg>
