<svg xmlns="http://www.w3.org/2000/svg" width="451" height="354.671" viewBox="0 0 451 354.671"><defs><style>.a{fill:#7f7c89;opacity:0.426;}.b{fill:#f3a7ca;}.b,.c{opacity:0.273;}.c{fill:#c0d841;}.d{opacity:0.511;}.e{fill:#144c82;}.f{opacity:0.417;}.g{fill:#bf9416;}.h{fill:#fff;}.i{opacity:0.335;}</style></defs><g transform="translate(-14168 940.671)"><circle class="a" cx="7.5" cy="7.5" r="7.5" transform="translate(14562 -601)"></circle><circle class="b" cx="18" cy="18" r="18" transform="translate(14520 -712)"></circle><circle class="c" cx="15.5" cy="15.5" r="15.5" transform="translate(14191 -881)"></circle><g class="d" transform="translate(14373.684 -940.671)"><g transform="translate(24.844 24.609)"><path class="e" d="M217.273,210a5.273,5.273,0,1,0,5.273,5.273A5.279,5.279,0,0,0,217.273,210Z" transform="translate(-212 -210)"></path></g><path class="e" d="M29.883,0a30,30,0,0,0,0,60A30.319,30.319,0,0,0,60,29.883,30.118,30.118,0,0,0,29.883,0ZM42.422,38.672a7.017,7.017,0,0,1-5.744-3A8.793,8.793,0,1,1,35.391,22.9v-.045a1.758,1.758,0,1,1,3.516,0v8.789a3.516,3.516,0,0,0,7.031,0c0-11.765-7.785-17.578-15.82-17.578a15.82,15.82,0,1,0,0,31.641,15.65,15.65,0,0,0,9.617-3.258,1.758,1.758,0,0,1,2.142,2.788,19.147,19.147,0,0,1-11.759,3.986,19.336,19.336,0,1,1,0-38.672c9.714,0,19.336,7.164,19.336,21.094A7.038,7.038,0,0,1,42.422,38.672Z"></path></g><g class="f" transform="translate(14168 -705.385)"><circle class="g" cx="23.5" cy="23.5" r="23.5" transform="translate(0 0.385)"></circle><g transform="translate(13.132 15.722)"><g transform="translate(1.092 0)"><path class="h" d="M44.455,61H26.539a1.888,1.888,0,0,0-.818.191l9.734,9.734,2.182-2.1h0l7.637-7.636A1.888,1.888,0,0,0,44.455,61Z" transform="translate(-25.721 -61)"></path></g><g transform="translate(14.358 1.092)"><g transform="translate(0 0)"><path class="h" d="M345.4,86.728l-7.187,7.186L345.4,101.1a1.888,1.888,0,0,0,.191-.818V87.546A1.888,1.888,0,0,0,345.4,86.728Z" transform="translate(-338.213 -86.728)"></path></g></g><g transform="translate(0 1.092)"><path class="h" d="M.191,86.721A1.888,1.888,0,0,0,0,87.539v12.736a1.889,1.889,0,0,0,.191.818l7.187-7.186Z" transform="translate(0 -86.721)"></path></g><g transform="translate(1.092 9.179)"><g transform="translate(0 0)"><path class="h" d="M38.08,277.211l-2.182,2.1a.636.636,0,0,1-.9,0l-2.1-2.1L25.714,284.4a1.888,1.888,0,0,0,.819.192H44.448a1.888,1.888,0,0,0,.818-.191Z" transform="translate(-25.714 -277.211)"></path></g></g></g></g><g class="i" transform="translate(14569 -842.461)"><circle cx="25" cy="25" r="25" transform="translate(0 0.461)"></circle><path class="h" d="M136.133,136.992a6.841,6.841,0,0,1-3.028,1.788,6.392,6.392,0,0,1-3.3.046,20.29,20.29,0,0,1-5.953-2.7,27.7,27.7,0,0,1-4.658-3.788,28.675,28.675,0,0,1-3.482-4.31,22.269,22.269,0,0,1-2.627-5.431,6.973,6.973,0,0,1,1.659-6.961l1.31-1.363a1.661,1.661,0,0,1,2.378-.011l.011.011,4.182,4.257a1.734,1.734,0,0,1,.01,2.421l-.01.011-2.456,2.5a1.32,1.32,0,0,0-.126,1.651,28.554,28.554,0,0,0,2.865,3.4,27.865,27.865,0,0,0,3.764,3.219,1.281,1.281,0,0,0,.245.136,1.248,1.248,0,0,0,1.384-.28l1.875-1.909.521-.53a1.661,1.661,0,0,1,2.378-.011l.01.011,4.182,4.257a1.734,1.734,0,0,1,0,2.421Z" transform="translate(-100.266 -101.604)"></path></g><g transform="translate(14279 -837.708)"><path d="M189.668,80.646a4.689,4.689,0,0,0-.149.542c-.211,1.978-.468,3.953-.6,5.937a28.23,28.23,0,0,1-1.855,7.948c-.524,1.411-1.066,2.821-1.7,4.186-.912,1.968-1.847,3.932-2.895,5.829-1.549,2.805-3.144,5.59-4.837,8.31-1.509,2.425-3.14,4.776-4.785,7.112-1.632,2.318-3.285,4.627-5.047,6.846-1.9,2.4-3.908,4.722-5.939,7.016a54.473,54.473,0,0,1-4.327,4.468A55.78,55.78,0,0,1,147,146.41a46.325,46.325,0,0,1-8.831,3.955c-2.338.7-4.676,1.419-7.052,1.965a49.217,49.217,0,0,1-5.332.784c-2.488.291-4.985.505-7.475.787a3.318,3.318,0,0,0-1.121.417,3.152,3.152,0,0,1-2.382.15,13.537,13.537,0,0,0-2.5-.413c-1.657-.1-3.319-.108-4.979-.172-.7-.027-1.4-.107-2.1-.146-.6-.033-.624.42-.683.836a.649.649,0,0,0,0,.076c-.051,2.322-.1,4.645-.159,6.966a5.651,5.651,0,0,1-.148.93,3.044,3.044,0,0,0,1.246,2.914,38.174,38.174,0,0,1,2.842,2.864c.778.911,1.791,1.686,2.071,2.955a6.728,6.728,0,0,1,.251,1.268c.07,3.29.329,6.594.11,9.866a34.414,34.414,0,0,1-2.852,12.707,15.628,15.628,0,0,1-1.767,3.445,5.036,5.036,0,0,1-2.633,1.274,5.1,5.1,0,0,1-2.328-.212c-1.262-.33-1.795-.054-1.976,1.261a5.751,5.751,0,0,1-1.1,3.129,10.553,10.553,0,0,1-1.85,1.48,27.6,27.6,0,0,1-3.629,2.5,12.1,12.1,0,0,1-3.442.89,25.946,25.946,0,0,1-3.614.314,23.583,23.583,0,0,1-8.775-1.676c-.913-.338-1.132-.165-1.132.783,0,1.375-.036,2.752.008,4.126.07,2.149.183,4.3.3,6.445.079,1.436.21,2.87.3,4.306.161,2.585.306,5.171.461,7.757.1,1.639.224,3.277.3,4.917.12,2.606.192,5.214.319,7.82a31.2,31.2,0,0,0,.323,3.156c.033.22.4.573.594.558a50.445,50.445,0,0,0,5.775-.634c.988-.2,1.9-.79,2.979-.714,1.466.1,2.412,1.544,1.739,2.464a2.861,2.861,0,0,1-1.8,1.008c-1.594.184-3.219.079-4.82.216a46.6,46.6,0,0,0-4.615.66,2.111,2.111,0,0,1-2.4-1.146,25.35,25.35,0,0,1-.955-2.506,11.886,11.886,0,0,1-.331-2.232c-.173-2.1-.285-4.205-.474-6.3-.164-1.829-.408-3.652-.6-5.479-.214-2.029-.414-4.059-.613-6.089-.209-2.131-.421-4.262-.609-6.395-.17-1.922-.305-3.847-.463-5.77-.147-1.8-.3-3.593-.46-5.388-.084-.927-.172-1.856-.311-2.776a1.2,1.2,0,0,0-1.594-1.07,4.048,4.048,0,0,1-.777.149c-1.634.062-3.269.105-4.9.159-1.431.047-2.861.129-4.292.147-5.149.064-10.3.1-15.448.163-1.457.018-2.913.077-4.368.153-1.487.077-2.972.2-4.458.3a1.321,1.321,0,0,0-1.271,1.268c.105,1.545.3,3.083.44,4.625.072.792.119,1.587.154,2.382.061,1.4.091,2.811.159,4.215q.132,2.727.3,5.451c.089,1.436.22,2.869.3,4.306.119,2.173.2,4.348.314,6.521.081,1.487.17,2.975.309,4.458.172,1.829.419,3.651.6,5.479.094.968.044,1.953.18,2.913a2.591,2.591,0,0,1-.456,2.342,2.177,2.177,0,0,1-.855.644,10.216,10.216,0,0,1-2.25.462c-1.707.107-3.422.178-5.131.138a3.4,3.4,0,0,1-1.7-.66c-.24-.163-.429-.863-.291-1.029a2.912,2.912,0,0,1,1.478-1.127,18.332,18.332,0,0,1,2.754.15,30.2,30.2,0,0,0,3.226-.158.7.7,0,0,0,.609-.865q-.249-2.5-.46-5.006c-.07-.818-.113-1.638-.154-2.458-.059-1.176-.1-2.352-.156-3.528q-.221-4.261-.459-8.521c-.089-1.563-.217-3.124-.3-4.688-.116-2.2-.2-4.4-.311-6.6q-.14-2.8-.307-5.6c-.086-1.411-.162-2.824-.336-4.225-.034-.272-.492-.494-.761-.732-.029-.025-.1,0-.15,0-2.348-.051-4.7-.026-7.042-.175a23.341,23.341,0,0,1-6.437-1.042,4.564,4.564,0,0,1-3.306-4.289,1.743,1.743,0,0,1,1.351-1.524,1,1,0,0,0,.641-1.256c-.12-.642-.225-1.288-.306-1.936-.214-1.7-.43-3.395-.608-5.1-.134-1.279-.2-2.565-.314-3.846-.2-2.285-.406-4.569-.609-6.853-.052-.59-.114-1.18-.15-1.771-.061-1-.116-1.995-.153-2.993-.06-1.634-.08-3.27-.161-4.9-.133-2.689-.314-5.375-.448-8.063-.08-1.608-.095-3.218-.161-4.827-.09-2.174-.2-4.348-.3-6.521-.1-1.919-.186-3.839-.309-5.757-.134-2.1-.3-4.2-.456-6.305a1.467,1.467,0,0,0-.046-.21,1.956,1.956,0,0,0-.107.2c-.205.526-.43,1.047-.6,1.586a.649.649,0,0,0,.142.536,2,2,0,0,1,.32,2.05c-.363,1.746-.631,3.512-.935,5.271-.193,1.118-.4,2.234-.57,3.354-.137.892-.224,1.791-.35,2.684-.183,1.3-.387,2.592-.571,3.889-.124.868-.236,1.738-.342,2.609-.258,2.11-.524,4.219-.756,6.332-.061.554.044,1.126-.019,1.679-.174,1.524-.406,3.04-.6,4.562a27.913,27.913,0,0,0-.3,2.853c-.081,3.671-.1,7.344-.178,11.016-.009.45.209.385.494.41a8.574,8.574,0,0,1,3.292.724,3.858,3.858,0,0,1,2.13,3.234,14.661,14.661,0,0,1-.251,5.369c-.587,2.117-2.854,4.31-5.515,3.722a5.716,5.716,0,0,1-3.577-2.564,9.47,9.47,0,0,1-1.691-3.4,4.959,4.959,0,0,1,1.187-4.736,1.253,1.253,0,0,0,.439-1.05c-.04-.788-.021-1.579-.009-2.368.047-3.214.076-6.428.16-9.641.058-2.226.2-4.449.3-6.674.057-1.3.064-2.61.163-3.909.173-2.287.4-4.569.6-6.854.1-1.1.172-2.212.313-3.311.17-1.321.4-2.634.6-3.951.207-1.367.394-2.737.615-4.1A67.57,67.57,0,0,1,8.378,137.8c.31-.916.582-1.847.934-2.746.145-.371.389-.867.7-.973.589-.2.555-.563.547-1.006a4.1,4.1,0,0,1,.385-2.286,3.4,3.4,0,0,1,2.506-1.633,30.213,30.213,0,0,1,4.224-.318c1.531-.024,3.07.182,4.6.107a34.387,34.387,0,0,0,4.1-.594c.379-.065.408-.375.11-.593-.931-.68-1.9-1.314-2.824-2-1.487-1.094-3.008-2.153-4.416-3.342a27.564,27.564,0,0,1-3.169-3.164c-1.49-1.749-2.944-3.54-4.276-5.41-1.626-2.283-3.2-4.611-4.622-7.026a33.26,33.26,0,0,1-2.129-4.843c-.861-2.217-1.737-4.438-2.416-6.714C1.9,92.8,1.313,90.291.8,87.773a48.742,48.742,0,0,1-.626-5.091,18.178,18.178,0,0,1-.135-3.448c.2-2.1.565-4.184.893-6.27a25.743,25.743,0,0,1,2.617-7.547,13.494,13.494,0,0,1,4.116-5.149c.061-.044.11-.154.163-.154,1.778.019,2.477-1.526,3.53-2.5A48.663,48.663,0,0,1,21.705,50.1a50.509,50.509,0,0,1,8.872-3.851c1.711-.517,3.5-.783,5.245-1.179a33.175,33.175,0,0,1,7.937-.766c.742.013,1.134-.549,1.418-1.093.973-1.86,1.838-3.777,2.832-5.625a47.418,47.418,0,0,1,5.343-8.332c1.552-1.834,3.143-3.635,4.695-5.47A45.864,45.864,0,0,1,66.3,16.461c2.252-1.637,4.4-3.446,6.777-4.874A92.659,92.659,0,0,1,82.361,6.72c3.187-1.452,6.48-2.692,9.792-3.838A56.351,56.351,0,0,1,98.33,1.375q2.632-.587,5.288-1.064A15.147,15.147,0,0,1,105.845.15c2.245-.064,4.495-.2,6.736-.129,2.034.068,4.06.377,6.09.583.952.1,1.912.149,2.852.316,1.937.345,3.893.644,5.786,1.162a62.063,62.063,0,0,1,7.339,2.382,82.2,82.2,0,0,1,7.68,3.773c2.175,1.178,4.289,2.48,6.35,3.849,1.658,1.1,3.2,2.38,4.785,3.586a59.7,59.7,0,0,1,7.724,7.15c1.971,2.139,3.852,4.375,5.618,6.687,2.3,3.015,4.482,6.125,6.659,9.233q3.352,4.785,6.592,9.648a65.022,65.022,0,0,1,4.767,8.568,44.705,44.705,0,0,1,2.834,8.068,49.027,49.027,0,0,1,.929,5.27c.306,2.205.542,4.421.768,6.636.122,1.2.161,2.4.276,3.6.038,0,.038.076.038.115m-43.25,52.075a5.259,5.259,0,0,1,1.427-.782,6.252,6.252,0,0,0,3.413-2.261q2.694-2.96,5.192-6.1,2.584-3.248,4.969-6.652c1.341-1.917,2.556-3.925,3.794-5.913,1.145-1.839,2.373-3.641,3.334-5.574a78.861,78.861,0,0,0,3.211-7.453,54.568,54.568,0,0,0,1.694-5.868,30.077,30.077,0,0,0,.619-3.64c.241-1.949.48-3.9.6-5.86a35.129,35.129,0,0,0-.131-3.679c-.045-1-.094-2-.153-2.993-.1-1.639-.159-3.282-.319-4.915-.106-1.077-.335-2.144-.547-3.208-.357-1.784-.775-3.556-1.11-5.344a17.364,17.364,0,0,0-1.779-5.3c-1.867-3.342-3.845-6.626-5.887-9.865A51.406,51.406,0,0,0,156.4,36.943c-.773-.719-1.534-1.451-2.316-2.159-1.442-1.3-2.827-2.687-4.361-3.873-3.089-2.388-6.24-4.7-9.411-6.974a20.526,20.526,0,0,0-3.91-2.355c-2.581-1.084-5.253-1.952-7.892-2.9a30.176,30.176,0,0,0-10.836-1.869c-2.429.047-4.857.194-7.285.295-1.278.053-2.556.094-3.833.157-.54.027-1.082.078-1.617.153q-2.054.288-4.1.609c-1.051.163-2.1.315-3.146.524-1.263.254-2.52.545-3.77.861a4.66,4.66,0,0,0-.945.482,4.412,4.412,0,0,0,.78.691c1,.535,2.077.933,3.024,1.541,2.564,1.646,5.112,3.322,7.6,5.086a33.744,33.744,0,0,1,4.856,3.908,42.145,42.145,0,0,1,3.867,5.1,47.258,47.258,0,0,1,4.582,8.339c1,2.284,1.991,4.581,2.8,6.936.817,2.37,1.481,4.8,2.071,7.239a33.429,33.429,0,0,1,.629,4.479c.24,2.357.555,4.719.586,7.082.04,3.038-.138,6.08-.287,9.118a22.776,22.776,0,0,1-.459,3.475c-.346,1.678-.8,3.334-1.207,5a34.645,34.645,0,0,1-2.736,7.8c-1.239,2.375-2.559,4.72-4.013,6.968-1.6,2.471-3.345,4.85-5.112,7.2-1.2,1.595-2.532,3.087-3.823,4.61-1.538,1.813-3.044,3.657-4.66,5.4-1.3,1.406-2.761,2.67-4.122,4.026a.926.926,0,0,0-.209.761c.039.147.434.313.646.285a16.666,16.666,0,0,1,3.667-.284c2.183.189,4.386.155,6.581.183a1.882,1.882,0,0,1,1.714.928,1.365,1.365,0,0,0,1.4.783,3.545,3.545,0,0,1,1.447.173,8.681,8.681,0,0,1,4.312,3.147c1.124,1.518,2.076,3.162,3.132,4.732a40.053,40.053,0,0,1,4.19,7.74.866.866,0,0,0,1.261.611c1.218-.38,2.44-.746,3.653-1.143a40.219,40.219,0,0,0,7.545-3.366c3.233-1.859,6.44-3.763,9.734-5.725m-78.17,69.918c.6-.154.453-.607.272-.923a10.9,10.9,0,0,0-1.011-1.341,5.084,5.084,0,0,1-1.183-2.953,14.7,14.7,0,0,1,1.156-5.566c1.254-3.721,2.744-7.365,4.219-11.008.971-2.4,2.078-4.742,3.133-7.106,1.544-3.461,3.065-6.933,4.658-10.371.942-2.033,2.013-4,3.007-6.014a9.705,9.705,0,0,0,1.066-2.452,29.914,29.914,0,0,0,.2-3.749c.1-2.027-.692-1.962-2.027-2.471a26.867,26.867,0,0,1-3.908-1.62,60.443,60.443,0,0,1-5.77-3.773,59.482,59.482,0,0,1-5.868-4.813c-2.731-2.625-5.32-5.4-7.9-8.182a3.812,3.812,0,0,0-3.6-1.478c-.819.132-1.645.225-2.471.308-2.1.213-4.212.4-6.317.617-1.853.19-3.711.352-5.55.634a2,2,0,0,0-1.864,1.241c-.093.267-.6.5-.948.545a32.366,32.366,0,0,1-3.92.307,27.473,27.473,0,0,0-6,.15c-3.009.648-6.057,1.11-9.076,1.717-1.807.363-1.953.482-2.144,1.852a64.939,64.939,0,0,0-.759,7.931c-.078,5.121.044,10.247.127,15.369.026,1.614.19,3.227.294,4.84.1,1.537.186,3.075.31,4.61.132,1.645.274,3.29.461,4.929.226,1.986.534,3.963.749,5.95.241,2.229.464,4.462.605,6.7.122,1.935.159,3.879.156,5.819,0,2.28-.138,4.56-.121,6.839a1.8,1.8,0,0,1-1.956,1.949c-.161-.013-.46.162-.482.287a.821.821,0,0,0,.209.607c1.3,1.4,3.09,1.624,4.8,1.649,4.485.066,8.973-.054,13.459-.117,1.787-.025,3.574-.1,5.361-.148q3.063-.081,6.125-.153c2.4-.055,4.8-.111,7.2-.152,3.417-.058,6.834-.1,10.251-.159,1.533-.028,3.065-.1,4.6-.155.108,0,.213-.1.472-.147M94.382,98.259c-1.076.974-2.127,1.978-3.234,2.916a30.811,30.811,0,0,1-6.243,4.107c-2.216,1.1-4.44,2.188-6.7,3.2-1.888.849-3.8,1.671-5.752,2.343a60.061,60.061,0,0,1-5.82,1.626c-1.871.439-3.774.741-5.667,1.082a.738.738,0,0,0-.507,1.233c.55.717,1.1,1.436,1.676,2.132,1.07,1.293,2.121,2.605,3.249,3.847,1.306,1.437,2.618,2.88,4.051,4.185,1.634,1.489,3.416,2.814,5.107,4.242a1.655,1.655,0,0,0,1.885.324c2-.9,3.988-1.812,5.966-2.754a89.43,89.43,0,0,0,10.251-5.872,50,50,0,0,0,8.267-6.4c1.694-1.695,3.316-3.472,4.85-5.313,1.6-1.925,3.153-3.91,4.568-5.976a60.737,60.737,0,0,0,5.652-9.727c.873-1.98,1.713-3.98,2.452-6.013a34.391,34.391,0,0,0,2.03-8.262,44.324,44.324,0,0,0,.586-6.245,40.668,40.668,0,0,0-.192-4.9c-.482-2.977-1.13-5.931-1.812-8.871-.757-3.266-1.529-6.535-2.482-9.747a30.264,30.264,0,0,0-3.488-7.868c-1.327-2.051-2.832-3.991-4.33-5.925A30.658,30.658,0,0,0,106,32.575a30.248,30.248,0,0,0-4.494-4.106C97.842,26.1,94,24.011,90.219,21.814a2.477,2.477,0,0,0-2.575.06c-2.174,1.218-4.316,2.49-6.486,3.716A38.489,38.489,0,0,0,73.8,30.853c-1.833,1.706-3.516,3.573-5.256,5.377-.7.723-1.384,1.457-2.047,2.211a3.93,3.93,0,0,0-.427.785,2.491,2.491,0,0,0,.894.028,21.223,21.223,0,0,1,5.575-.718c2.107-.184,4.234-.182,6.353-.173,4.564.018,9.127.124,13.691.128a23.413,23.413,0,0,1,6.01.636,9.784,9.784,0,0,1,6.754,5.118,28.3,28.3,0,0,1,2.545,9.1,47.624,47.624,0,0,1,.452,5.844c.021,3.906.315,7.833-.726,11.684-.436,1.614-.668,3.283-1.105,4.9a7.357,7.357,0,0,0-.587,2.809c.082.694-.225,1.006-.9,1.2-3.484,1.012-6.83,2.507-10.491,2.9-1.862.2-3.71.521-5.57.744-.889.107-1.794.079-2.686.169-1.777.18-3.546.484-5.327.584-2.368.134-4.745.125-7.118.168a2.123,2.123,0,0,1-.492-.1A15.34,15.34,0,0,1,69,82.377a18.888,18.888,0,0,1-5.306-4.853c-1.612-2.075-2.342-4.594-3.609-6.84a24.453,24.453,0,0,1-2.614-6.406,1.3,1.3,0,0,0-1.521-1.013c-1,.039-2,.1-2.993.151a1.789,1.789,0,0,0-1.9,1.651c-.224.976-.42,1.961-.687,2.925a44.4,44.4,0,0,0-1.429,8.722c-.125,1.732-.043,3.48-.017,5.221.023,1.559.015,3.124.171,4.672a33.3,33.3,0,0,0,.765,4.265,1.374,1.374,0,0,1-.276,1.459.566.566,0,0,0,.342.877,3.52,3.52,0,0,0,.813-.058c.838-.124,1.672-.274,2.512-.389,1.232-.169,2.47-.3,3.7-.476,1.681-.237,3.357-.508,5.038-.746.92-.13,1.847-.206,2.767-.335,1.682-.235,3.36-.5,5.043-.734.947-.129,1.9-.191,2.852-.315,1.446-.188,2.887-.409,4.332-.605.919-.125,1.844-.211,2.762-.347,1.171-.174,2.334-.407,3.507-.564,1.048-.14,2.111-.173,3.157-.323,1.53-.219,3.044-.551,4.577-.741,1.712-.212,3.439-.308,5.157-.478.674-.067,1.34-.225,2.014-.294,1.164-.118,1.848.238,1.958,1.343a4.838,4.838,0,0,1-.518,2.46,27.959,27.959,0,0,1-5.214,7.653m46.382-77.1c2.194,1.175,4.384,2.357,6.582,3.523a33.341,33.341,0,0,1,7.195,5.1c2.348,2.2,4.534,4.571,6.769,6.889a17.921,17.921,0,0,1,1.725,2.035c1.772,2.493,3.491,5.024,5.254,7.524a49.05,49.05,0,0,1,4.85,8.231,2.056,2.056,0,0,1,.08,2.135,1.3,1.3,0,0,0,.034,1c.523,1.336,1.174,2.626,1.642,3.979.657,1.9,1.246,3.823,1.764,5.763a39.075,39.075,0,0,1,.885,4.369c.279,1.888.492,3.789.626,5.693a1.194,1.194,0,0,1-.654,1.347,1.355,1.355,0,0,0-.712,1.354,39.3,39.3,0,0,1-.436,8.519c-.326,1.645-.585,3.311-1.043,4.919-.581,2.039-1.259,4.058-2.028,6.034-1.049,2.7-2.193,5.357-3.352,8.009a45.637,45.637,0,0,1-4.5,8.372c-2.172,3.041-4.385,6.058-6.707,8.984-1.741,2.195-3.651,4.259-5.548,6.323a9.568,9.568,0,0,1-2.641,2.281,17.761,17.761,0,0,0-3.72,2.613,51.375,51.375,0,0,1-7.423,4.965,4.681,4.681,0,0,0-.852.852,4.432,4.432,0,0,0,1.145-.267c3.1-1.68,6.188-3.388,9.277-5.092a52.7,52.7,0,0,0,10.187-7.664c1.873-1.73,3.588-3.632,5.351-5.479a21.96,21.96,0,0,0,1.94-2.253c1.724-2.384,3.436-4.777,5.081-7.216a74.042,74.042,0,0,0,6.919-12.719,59.9,59.9,0,0,0,3.406-10.812c.27-1.277.443-2.576.616-3.871a60.834,60.834,0,0,0,.73-6.179c.072-2.347-.133-4.7-.277-7.054a35.97,35.97,0,0,0-.471-4.62,87.617,87.617,0,0,0-2.557-10.013,69.115,69.115,0,0,0-3.856-10.17c-1.445-2.873-2.971-5.71-4.6-8.485a32.554,32.554,0,0,0-2.983-4.037c-1.688-2.067-3.338-4.185-5.2-6.084-2.171-2.209-4.548-4.217-6.854-6.29-.992-.891-2-1.771-3.058-2.581-1.654-1.264-3.319-2.519-5.047-3.678-2.5-1.677-5.045-3.292-7.6-4.88-1.673-1.038-3.388-2.012-5.116-2.958a6.654,6.654,0,0,0-5.027-1.032c-.72.189-1.16-.3-.907-1.017a3.509,3.509,0,0,1,.658-1.244c.343-.362.167-.569-.1-.7a9.341,9.341,0,0,0-2.018-.836q-4.419-.982-8.865-1.845a47.572,47.572,0,0,0-8.991-.611c-.565,0-1.129.1-1.694.145-1.9.155-3.806.229-5.69.481a49.17,49.17,0,0,0-5.818,1.074A81.36,81.36,0,0,0,85.8,7.592a71.961,71.961,0,0,0-9.03,4.563c-3.06,1.834-6,3.869-8.944,5.892A17.3,17.3,0,0,0,65.4,20.3c-.189.193-.188.573-.274.866a3.566,3.566,0,0,0,.605-.239c2.777-1.723,5.529-3.486,8.329-5.171a45.184,45.184,0,0,1,4.808-2.593c2.167-.969,4.4-1.817,6.636-2.6,1.85-.651,3.745-1.186,5.644-1.679.914-.237,1.894-.2,2.825-.389a5.085,5.085,0,0,1,2.968.394,1,1,0,0,1,.533.783c-.053.331-.04.879-.69.884-.956.006-1.911.1-2.867.138a7.227,7.227,0,0,0-1.52.029c-1.713.459-3.438.908-5.1,1.524-2.337.868-4.645,1.824-6.919,2.846a63.517,63.517,0,0,0-9.344,5.1c-2.074,1.389-4.05,2.929-6.022,4.462a43.436,43.436,0,0,0-3.429,2.97,73.138,73.138,0,0,0-5.409,5.461,37.822,37.822,0,0,0-3.789,5.6,47.7,47.7,0,0,0-2.975,6.173,32.416,32.416,0,0,0-2.037,7.335c-.247,1.742-.614,3.466-.893,5.2-.143.893-.194,1.8-.317,2.7-.188,1.369-.415,2.734-.594,4.1-.024.185.136.395.211.593a3.094,3.094,0,0,0,.275-.425c.189-.426.358-.861.535-1.293l3.4-8.3c.669-1.633,1.276-3.3,2.022-4.892A44,44,0,0,1,54.669,44.8c1.108-1.736,2.428-3.34,3.7-4.964,1.336-1.7,2.72-3.363,4.1-5.024.544-.653,1.154-1.252,1.719-1.889.967-1.088,1.838-2.279,2.9-3.259,1.7-1.569,3.531-3,5.312-4.489a35.775,35.775,0,0,1,7.4-4.829c3.372-1.618,6.8-3.141,10.266-4.541a69.9,69.9,0,0,1,6.808-2.191c1.534-.443,3.1-.779,4.676-1.067,1.742-.319,3.5-.6,5.258-.76,1.322-.12,2.664-.005,4-.027a40.818,40.818,0,0,1,8.933.748c2.694.553,5.43.9,8.132,1.418.753.144,1.671.206,1.913,1.274.051.223.458.4.735.529.816.366,1.687.623,2.467,1.048,2.58,1.406,5.13,2.868,7.768,4.386M6.125,93.6c.051.945.054,1.9.169,2.834a6.6,6.6,0,0,0,.492,1.93c1.04,2.27,2.1,4.536,3.238,6.756a24.7,24.7,0,0,0,4.321,6c1.312,1.34,2.736,2.569,4.12,3.837a25.46,25.46,0,0,0,5.412,3.718,59.8,59.8,0,0,0,13.239,5.285c1.816.455,3.683.709,5.528,1.046a11.355,11.355,0,0,0,1.723.254,5.482,5.482,0,0,0,2.343-.145,26.46,26.46,0,0,0,4.158-2.489c.858-.619.82-1.058.357-1.657a22.268,22.268,0,0,1-1.535-2.115q-2.67-4.464-5.267-8.972c-.725-1.26-1.228-1.586-2.617-1.375a22.242,22.242,0,0,1-5.252.357,21.02,21.02,0,0,1-4.107-.83,12.588,12.588,0,0,1-6.35-3.97,15.139,15.139,0,0,0-4.138-3.808,1.4,1.4,0,0,1-.3-2.435,6.072,6.072,0,0,1,2.16-1.207c2-.552,4.035-.988,6.07-1.4,2.267-.454,4.553-.807,6.824-1.24,1.329-.253,1.58-.675,1.332-1.777-.478-2.125-.9-4.261-1.365-6.39a4.213,4.213,0,0,0-.28-.69,5.949,5.949,0,0,0-.661.425,1.555,1.555,0,0,0-.275.416,5.255,5.255,0,0,1-2.979,2.521c-2.146.66-4.284,1.343-6.437,1.978a12.488,12.488,0,0,1-3.12.732,8.083,8.083,0,0,1-5.272-2.146,11.263,11.263,0,0,1-2.973-4.635,13.847,13.847,0,0,1-1.214-8.149,6.894,6.894,0,0,1,2.768-4.445c1.63-1.167,3.551-1.332,5.422-1.666,1.36-.243,2.734-.409,4.1-.62,1.937-.3,3.868-.639,5.81-.906,1.458-.2,2.933-.279,4.388-.5a1.178,1.178,0,0,0,.708-.77c.407-1.622.665-3.284,1.111-4.894.567-2.047,1.207-4.078,1.92-6.079.837-2.349,1.794-4.655,2.674-6.989.1-.278.181-.8.052-.884a1.43,1.43,0,0,0-1.039-.2c-.936.236-1.838.6-2.767.871a48.843,48.843,0,0,0-11.172,4.755,40.708,40.708,0,0,0-7.832,5.589,60.519,60.519,0,0,0-4.706,5.148,36.326,36.326,0,0,0-6.1,11.141,56.743,56.743,0,0,0-1.593,5.526,38.2,38.2,0,0,0-.625,3.792C6.364,86.723,6.1,88.317,6,89.92c-.076,1.168.077,2.35.128,3.679m94.446-18.186a10.061,10.061,0,0,0,.752-1.445c.764-2.283,1.526-4.568,2.2-6.878a14.2,14.2,0,0,0,.868-5.22c-.07-.818-.081-1.64-.163-2.457a21.846,21.846,0,0,0-.35-2.529c-.354-1.6-.754-3.2-1.18-4.781a5.8,5.8,0,0,0-1.125-2.9c-1.2-1.218-2.385-2.459-3.556-3.707a3.158,3.158,0,0,0-2.477-1.045,12.658,12.658,0,0,1-1.922-.148,30.845,30.845,0,0,0-3.873-.574c-3.543-.038-7.087.063-10.63.126-1.634.029-3.272.046-4.9.166-1.257.093-2.506.314-3.752.522a19.567,19.567,0,0,0-5.14,1.6c-1.408.663-2.894,1.279-3.467,2.9a9.636,9.636,0,0,0-.542,2.595,16.758,16.758,0,0,0,.037,4.212,42.357,42.357,0,0,0,1.8,6.272c.992,2.716,2.07,5.411,3.312,8.02,1.047,2.2,2.363,4.272,3.6,6.378a5.23,5.23,0,0,0,5.214,2.624c1.023,0,2.046-.084,3.068-.144,1.613-.1,3.227-.189,4.838-.307,1.873-.138,3.746-.282,5.615-.46,2.468-.235,4.936-.475,7.4-.769a6.412,6.412,0,0,0,4.373-2.053m-17.04,62.429-.367-.215a61.064,61.064,0,0,0-5.928-3.4,17.234,17.234,0,0,1-4.639-3.36c-.837-.768-1.556-1.673-2.43-2.392a50.278,50.278,0,0,1-6.6-6.329c-1.729-2.052-3.457-4.106-5.129-6.2a57.405,57.405,0,0,1-6.236-9.8c-1.5-2.952-2.722-6.052-3.962-9.128a59.374,59.374,0,0,1-1.945-5.763c-.534-1.853-.951-3.744-1.335-5.635-.28-1.377-.451-2.779-.618-4.176-.143-1.2-.21-2.411-.315-3.616-.2-2.31-.47-4.616-.588-6.93-.073-1.45.092-2.911.127-4.367.061-2.576.1-5.153.161-7.73a9.4,9.4,0,0,1,.155-1.54c.285-1.482.62-2.954.892-4.438.04-.217-.153-.476-.238-.716a1.975,1.975,0,0,0-.55.288,3.033,3.033,0,0,0-.706.912c-.4,1.032-.753,2.085-1.082,3.143-1.04,3.347-2.448,6.588-2.913,10.1-.294,2.218-.663,4.428-.89,6.653a30.431,30.431,0,0,0-.017,3.691c.027,1.329.15,2.658.135,3.986a29,29,0,0,0,.932,6.649c.556,2.492,1.073,5,1.725,7.464.469,1.776,1.1,3.511,1.715,5.246.6,1.712.9,3.564,2.2,4.973a2.058,2.058,0,0,1,.313.556c.855,1.887,1.63,3.814,2.576,5.654.911,1.772,1.937,3.492,3.02,5.165,1.153,1.78,2.394,3.507,3.672,5.2a34.168,34.168,0,0,0,2.478,2.795c.424.45.984.777,1.387,1.242,1,1.151,1.86,2.431,2.929,3.507,1.437,1.447,2.986,2.787,4.543,4.108,1.872,1.588,3.788,3.126,5.712,4.651a53.569,53.569,0,0,0,9.147,5.77c2.015,1.02,4.1,1.9,6.166,2.819a1.263,1.263,0,0,0,1.761-.511c.663-1.12,1.28-2.269,1.9-3.416.416-.774.27-1.143-.524-1.552-2.162-1.115-4.319-2.24-6.631-3.36m2.063,21.319c-.968,1.866-1.96,3.72-2.9,5.6q-2.02,4.05-3.974,8.133c-.844,1.762-1.688,3.528-2.437,5.331-.922,2.216-1.711,4.487-2.622,6.707-.8,1.959-1.743,3.863-2.526,5.829a2.334,2.334,0,0,0,.615,3.01,6.439,6.439,0,0,1,.6.589,52.126,52.126,0,0,0,4.165,3.957,29.711,29.711,0,0,0,7.311,4.27A22.017,22.017,0,0,0,88.5,203.82a20.281,20.281,0,0,0,4.118.021,2.944,2.944,0,0,0,2.505-1.076,23.945,23.945,0,0,0,1.731-3.556.9.9,0,0,0-.424-1.256c-1.173-.553-2.312-1.179-3.487-1.728-2.759-1.289-5.436-2.661-7.312-5.213-.9-1.219-1.363-3.034.172-4.071a6.318,6.318,0,0,1,1.561-.646c.425-.141.946-.708.752-.91a9.933,9.933,0,0,0-1.311-1.228,11.364,11.364,0,0,1-3.754-4.648,2.711,2.711,0,0,1,1.853-3.732,17.01,17.01,0,0,1,2.523-.2.969.969,0,0,0,.677-.33.817.817,0,0,0-.14-.7c-.356-.477-.807-.883-1.169-1.356a15.356,15.356,0,0,1-2.07-2.885c-.792-1.791-.62-3.664,1.84-4.248a8.464,8.464,0,0,1,3.415.275c.962.19,1.87.642,2.816.929a.93.93,0,0,0,.731-.127c.4-.311-.028-.482-.193-.689a36.719,36.719,0,0,1-2.345-3.009c-.368-.577-.895-1.242-.58-2.056a2.267,2.267,0,0,1,2.4-1.642,40.634,40.634,0,0,1,5.045.7c.826.144,1.2-.057,1.183-.843a2.335,2.335,0,0,0,0-.381c-.352-1.891-.7-3.782-1.073-5.668a1.529,1.529,0,0,0-1.119-1.346c-1.831-.491-3.645-1.052-5.484-1.51-1.456-.363-1.475-.317-2.148,1.03-1.212,2.426-2.414,4.857-3.621,7.439M52.2,97.037c-1.14.009-1.369.3-.985,1.393a21.243,21.243,0,0,0,1.156,2.88c1.512,2.867,3.086,5.7,4.646,8.543a1.624,1.624,0,0,0,1.754.932c3.192-.959,6.385-1.918,9.57-2.9a99.353,99.353,0,0,0,12.7-5.3,43.8,43.8,0,0,0,6.562-3.71c2.525-1.764,5.146-3.408,7.1-5.854a3.336,3.336,0,0,0,.359-.917,4.938,4.938,0,0,0-.865-.251,2.737,2.737,0,0,0-.711.11c-.977.163-1.952.337-2.931.485-1.416.214-2.835.416-4.254.613-1.519.211-3.037.431-4.56.606-1.2.137-2.412.191-3.615.318-1.751.185-3.5.417-5.248.6-1.2.127-2.413.185-3.616.316-1.65.181-3.294.412-4.943.6-1.051.121-2.109.179-3.157.315-2.193.286-4.382.606-6.573.911-.747.1-1.494.2-2.394.306m47.987,74.884c-.183.051-.382.176-.546.141-.977-.212-1.961-.412-2.913-.71-2.138-.669-4.254-1.412-6.391-2.085a14.038,14.038,0,0,0-2.371-.535c-.537-.071-.983.172-.542.806a37.294,37.294,0,0,0,2.493,3.393,24.452,24.452,0,0,0,7.478,5.526c.7.354,1.376.74,2.051,1.134a1.2,1.2,0,0,1,.477,1.452,1,1,0,0,1-1.083.8,4.651,4.651,0,0,1-1.612-.215A61.219,61.219,0,0,0,87.041,178.2c-.377-.072-1.011-.063-1.14.147a1.257,1.257,0,0,0,.1,1.184,24.709,24.709,0,0,0,3,3.009,38.473,38.473,0,0,0,7.823,4.512c.649.3,1.387.419,1.832,1.162a1.59,1.59,0,0,1-.124,1.628,1.131,1.131,0,0,1-.975.39c-1.345-.217-2.667-.576-4.012-.8-1.629-.275-3.269-.488-4.91-.676a.853.853,0,0,0-.706.389.928.928,0,0,0,.206.794,13.2,13.2,0,0,0,1.493,1.358,11.305,11.305,0,0,0,1.943,1.392c2.409,1.183,4.839,2.327,7.3,3.4a25.364,25.364,0,0,0,3.555,1.184c1,.27,2.169-.636,2.7-2.015a40.934,40.934,0,0,0,3.042-12.166,95.685,95.685,0,0,0-.131-9.862,4,4,0,0,0-1.306-3.043c-1.086-.919-2.078-1.951-3.184-2.844a24.074,24.074,0,0,0-6.855-4.277,10.693,10.693,0,0,0-2.343-.6c-.668-.078-.829.245-.406.727a22.107,22.107,0,0,0,2.038,2.046c1.673,1.465,3.365,2.91,5.089,4.316a1.434,1.434,0,0,1,.556,1.507c-.135.605-.616.918-1.429.853m5.96-40.5a5.453,5.453,0,0,0-1.317-1.182,5,5,0,0,0-1.828-.187,25.676,25.676,0,0,0-6.71.746c-2.269.565-4.573.988-6.842,1.554-1.858.464-3.691,1.031-5.522,1.6-.3.091-.523.4-.782.614.234.278.413.658.71.817,2.059,1.1,4.165,2.116,6.212,3.239a4.491,4.491,0,0,0,4.714.156,1.413,1.413,0,0,1,1.093-.16c1.135.525,2.188,1.228,3.33,1.734a6.707,6.707,0,0,1,2.74,2.727,2.9,2.9,0,0,0,1.217.86c.513.23,1.1.291,1.632.482a12.525,12.525,0,0,0,5.259.761c.514-.04.823-.113.616-.788-.6-1.969-1.112-3.966-1.7-5.939a28.319,28.319,0,0,0-2.821-7.031m7.947,20.326c.616-.051,1.233-.153,1.848-.144a47.15,47.15,0,0,0,9.774-.745c2.729-.534,5.477-.919,8.169-1.679a55.182,55.182,0,0,0,10.253-3.838,51.86,51.86,0,0,0,5.952-3.7,57.567,57.567,0,0,0,6.073-4.676c1.965-1.806,3.675-3.892,5.465-5.884.168-.187.113-.573.161-.867a2.364,2.364,0,0,0-.721.251c-1.845,1.461-3.688,2.927-5.5,4.425a51.615,51.615,0,0,1-8.891,5.842,62.724,62.724,0,0,1-10.766,4.814,48.046,48.046,0,0,1-7.071,1.926c-1.268.184-2.527.437-3.8.6-1.822.234-3.65.418-5.476.616-.249.027-.5.017-.754.025a32.167,32.167,0,0,1-3.764.1c-1.56-.131-3.1-.475-4.652-.736-1.165-.2-2.324-.427-3.492-.6-.9-.135-1.8-.226-2.7-.306-.514-.046-.688.21-.584.725.133.665.153,1.356.329,2.007a1.677,1.677,0,0,0,1.4,1.382c.973.127,1.95.257,2.929.3,1.887.086,3.777.112,5.819.163M31.8,83.206a5.346,5.346,0,0,0,.426-.739,65.1,65.1,0,0,0,2.935-10c.13-.619-.308-1.032-.967-.952-.562.069-1.129.094-1.691.159-1.261.145-2.522.285-3.779.46-1.7.237-3.414.447-5.1.778-1.346.265-2.667.67-3.985,1.059a4.154,4.154,0,0,0-2.453,2.29,3.689,3.689,0,0,0-.221,2.87,20.384,20.384,0,0,0,2.968,6.553c.53.741,1.115,1.714,1.878,1.965a8.079,8.079,0,0,0,6.137-.293A7.676,7.676,0,0,0,31.8,83.206M24.388,51.648a40.014,40.014,0,0,0-3.666,2.021c-2.2,1.512-4.384,3.054-6.424,4.765a50.35,50.35,0,0,0-4.127,4.233A18.715,18.715,0,0,0,8.447,64.7a34.127,34.127,0,0,0-3.721,6.4A24.6,24.6,0,0,0,2.792,79a47.849,47.849,0,0,0,.13,4.9,1.207,1.207,0,0,0,.16.615,2.317,2.317,0,0,0,.535.429c.072-.123.192-.24.208-.37A50.272,50.272,0,0,1,5.9,76.267a31.849,31.849,0,0,1,2.9-6.9c.754-1.29,1.406-2.645,2.234-3.884a33.552,33.552,0,0,1,5.8-6.747c1.073-.935,2.061-1.976,3.185-2.843,1.584-1.222,3.257-2.328,4.893-3.483.611-.431,1.227-.854,1.831-1.294.085-.062.112-.2.166-.309-.116-.026-.251-.1-.344-.07-.7.265-1.4.552-2.176.909m16.123,49.133c-.216-.674-.42-1.352-.649-2.022-.458-1.34-1.025-1.628-2.4-1.427-2.026.3-4.062.529-6.1.772-1.411.169-2.823.372-4.24.428-.521.02-.884.262-.932.582a1.409,1.409,0,0,0,.461,1.067,18.934,18.934,0,0,0,2.052,1.475,16.9,16.9,0,0,0,5.708,2.8c1.408.3,2.821.58,4.24.82a24.333,24.333,0,0,0,2.7.3c.613.034.773-.258.588-.78-.464-1.31-.9-2.629-1.43-4.021m74.732,32.4a10.607,10.607,0,0,0-.986-1.108c-.174-.152-.5-.132-.754-.191a2.354,2.354,0,0,0-.088.56c.142,1.694.289,3.387.455,5.079.192,1.953.4,3.9.61,5.855.147,1.355.359,1.587,1.563,1.484,1.138-.1,2.271-.266,3.4-.457a1.079,1.079,0,0,0,.838-1.443c-.183-.634-.383-1.265-.608-1.885a24.513,24.513,0,0,0-1.475-3.811,41.984,41.984,0,0,0-2.953-4.083M185.236,72.2c.1,1.205.265,2.409.292,3.615.048,2.137.026,4.276.006,6.414a13.977,13.977,0,0,1-.157,2.149c-.271,1.635-.569,3.268-.914,4.889-.4,1.888-.835,3.771-1.318,5.639-.294,1.14-.741,2.241-1.049,3.379a5.222,5.222,0,0,0-.016,1.325,4.06,4.06,0,0,0,.844-.968c1-2.435,2.036-4.864,2.887-7.354a21.557,21.557,0,0,0,.644-3.782,50.691,50.691,0,0,0,.731-5.335c.1-2.314-.043-4.64-.128-6.96a18.546,18.546,0,0,0-.305-2.7c-.319-1.717-.668-3.431-1.07-5.13-.283-1.2-.665-2.369-1.027-3.544-.041-.133-.24-.216-.366-.322a3.322,3.322,0,0,0-.268.486.8.8,0,0,0-.005.379q.376,2.439.763,4.876c.148.93.3,1.859.458,2.941M77.495,205.161a17.18,17.18,0,0,0,8.186,1.594.516.516,0,0,0,.389-.265.472.472,0,0,0-.188-.413c-.528-.3-1.077-.568-1.621-.84-1.938-.969-3.941-1.83-5.8-2.935a51.915,51.915,0,0,1-5.079-3.578c-.984-.758-1.81-1.718-2.752-2.537a1.56,1.56,0,0,0-.948-.242c-.094,0-.191.375-.288.578a1.349,1.349,0,0,0,.311,1.422,27.974,27.974,0,0,0,2.316,3.21,7.4,7.4,0,0,0,2.453,1.378,5.22,5.22,0,0,1,2.112,1.774,7.985,7.985,0,0,0,.908.853m7.183-184a.931.931,0,0,0,.258-.112c.227-.2.44-.409.659-.615-.363.013-.793-.1-1.079.059-1.708.927-3.39,1.906-5.069,2.886a56.75,56.75,0,0,0-10.13,7.8c-1.055.989-2.076,2.016-3.068,3.069-1.909,2.025-3.789,4.077-5.666,6.132-.114.125-.09.375-.13.567a1.889,1.889,0,0,0,.573.03c1-.263,1.5-1.139,2.123-1.828,1.938-2.135,3.789-4.35,5.751-6.463a30.44,30.44,0,0,1,3.205-2.91c2.01-1.624,4.008-3.278,6.137-4.734,2.035-1.392,4.232-2.548,6.434-3.884M96.292,145.1a1.845,1.845,0,0,0,.021-.723,1.382,1.382,0,0,0-2.044-.722,10.469,10.469,0,0,0-1.9,1.46,6.81,6.81,0,0,0-1,2.016c-.276.685-.088,1.072.57,1.249q2.064.558,4.141,1.069c.584.142,1.019-.48.868-1.106-.248-1.023-.441-2.06-.657-3.244M5.59,191.941c-.382.5-.995.953-1.1,1.505a4.686,4.686,0,0,0,1.335,4.23,1.8,1.8,0,0,0,2.262.378A3.838,3.838,0,0,0,9.312,194.6c-.021-.043-.071-.072-.106-.109a20.219,20.219,0,0,0-1.912-2.014,4.562,4.562,0,0,0-1.7-.532M47.846,66.09a1.457,1.457,0,0,0-.106.261c-.187.949-.557,1.689-1.711,1.675-.105,0-.31.359-.307.549.016.972.088,1.944.136,2.916q.155,3.106.308,6.213c.015.29-.151.728.313.734.146,0,.306-.455.445-.71.032-.059,0-.15.005-.227.1-1.485.244-2.969.3-4.457a23.58,23.58,0,0,1,1.351-6.776,7.346,7.346,0,0,0,.321-1.39c.019-.141-.177-.319-.3-.46a.458.458,0,0,0-.269.163,12.356,12.356,0,0,0-.485,1.507m53.565,83.061c-.331-1.055-.621-2.126-1.011-3.159-.186-.494-.664-.9-1.206-.622a1.194,1.194,0,0,0-.425,1.035c.223,1.108.56,2.195.892,3.278.223.729.75.906,1.453.546.374-.192.374-.192.3-1.078m-39.2-81.532a4.487,4.487,0,0,0-.391-.826c-.114-.156-.358-.217-.544-.32a2.121,2.121,0,0,0,.027.683c.574,1.466,1.141,2.937,1.783,4.374a13.706,13.706,0,0,0,1.183,1.95c.1.144.336.191.51.283.01-.259.112-.56.015-.77-.815-1.775-1.667-3.533-2.584-5.373M102.1,155.645c0-.533,0-1.065,0-1.6,0-.415-.577-1.032-.892-.91a.885.885,0,0,0-.636,1.04c.1.591.178,1.19.314,1.774a9.624,9.624,0,0,0,.49,1.546c.09.213.35.47.425-.074s.2-1.083.3-1.777m.306-79.163c-.484.484-.982.956-1.447,1.459a5.085,5.085,0,0,0-.483.738c.337-.079.676-.152,1.01-.245.039-.011.032-.164.077-.185a3.651,3.651,0,0,0,2.362-3.484,2.416,2.416,0,0,0-.178-.608,3.566,3.566,0,0,0-.424.5,16.042,16.042,0,0,0-.918,1.826M14.76,133.256a.967.967,0,0,0-1.157-1.125c-.16.033-.423.167-.428.265-.036.761-.042,1.526,0,2.287.009.181.218.353.335.529.141-.12.329-.214.414-.366.275-.493.512-1.008.84-1.59m92-117.828a3.938,3.938,0,0,0,.545-.159,2.52,2.52,0,0,0,.4-.273c-.179-.111-.356-.311-.537-.314a9.385,9.385,0,0,0-1.235.134c-.9.106-1.8.193-2.694.329-.189.029-.353.231-.528.353a4.7,4.7,0,0,0,.588.228,1.354,1.354,0,0,0,.456,0c.951-.1,1.9-.2,3.005-.3M56.328,47.369a3.92,3.92,0,0,0,.09.608c.016.054.238.119.267.088a6.933,6.933,0,0,0,.881-1.05c.087-.143-.065-.431-.107-.654a1.438,1.438,0,0,0-.463.2c-.221.219-.4.483-.668.805m48.446,1.07a4.578,4.578,0,0,0-.438-.572c-.062-.061-.232-.028-.347-.008-.029.005-.07.139-.051.194.2.551.4,1.1.612,1.644.04.1.155.173.235.259.073-.122.211-.247.205-.365a4.845,4.845,0,0,0-.217-1.152m-51.5,5.655c.143-.3.3-.586.421-.89a1.029,1.029,0,0,0,.006-.364c-.14.008-.374-.03-.406.033-.21.413-.376.848-.556,1.275a1.4,1.4,0,0,0,.535-.054m48.446-10.545c.089.14.147.331.274.406a1.863,1.863,0,0,0,.563.132c-.129-.212.419-.614-.205-.7-.121-.017-.208-.212-.333-.287a1.333,1.333,0,0,0-.361-.1,1.505,1.505,0,0,0,.062.549M33.939,83.665l.015.627a1.917,1.917,0,0,0,.353-.563c.027-.124-.159-.3-.249-.446a1.094,1.094,0,0,0-.119.382M30.272,126l-.109-.382-.2.145C30.068,125.89,30.17,126.02,30.272,126Z" transform="translate(0 0)"></path><path d="M487.278,309.837c.908.7,1.791,1.355,2.646,2.041a15.08,15.08,0,0,1,4.169,4.971,18.121,18.121,0,0,1,1.365,3.934,13.652,13.652,0,0,1,.18,3.061,10.445,10.445,0,0,1-2.31,6.143,13.205,13.205,0,0,1-5.048,3.974,9.916,9.916,0,0,1-5.945,1.1,12.366,12.366,0,0,1-6.006-2.609,29.315,29.315,0,0,1-3.923-3.918,9.3,9.3,0,0,1-2.122-5.3,29.758,29.758,0,0,1-.145-3.3,9.787,9.787,0,0,1,2-5.586,11.418,11.418,0,0,1,2.5-2.377,18.217,18.217,0,0,1,7.2-3.43,6.806,6.806,0,0,1,5.45,1.287m-5.922,5.54c.962-.81,1.946-1.6,2.875-2.442a4.642,4.642,0,0,0,.665-1.048c-.533-.095-1.065-.2-1.6-.275-.1-.013-.207.1-.313.152a17.3,17.3,0,0,0-4.689,3.954,5.464,5.464,0,0,0-.913,1.523,2.259,2.259,0,0,0-.02.863c.256-.043.573,0,.756-.143,1.072-.813,2.113-1.668,3.241-2.585m2.827,1.3c-.3.458-.623.907-.907,1.378a1.583,1.583,0,0,0-.1.516c.248.017.575.145.731.033.637-.456,1.212-1,1.83-1.485q1.23-.966,2.493-1.889a1.133,1.133,0,0,0,.231-1.447c-.153-.194-.349-.354-.521-.535a.832.832,0,0,0-1.42.174,9.658,9.658,0,0,1-.65,1.1c-.518.706-1.071,1.387-1.685,2.154m5.272,10.469c.287-.491.606-.968.851-1.479a5.653,5.653,0,0,0,.28-1.027c-.367.011-.867-.129-1.079.058a35.757,35.757,0,0,0-2.655,2.627,12.484,12.484,0,0,0-1.187,1.642,1.485,1.485,0,0,0-.1.559,1.971,1.971,0,0,0,.678.045,2.315,2.315,0,0,0,.738-.42c.806-.632,1.6-1.283,2.471-2m-10.469,1.6c.269-.523.542-1.044.8-1.571.2-.4.394-.8.565-1.213a2.031,2.031,0,0,0,.074-.5,1.726,1.726,0,0,0-.557.122c-.388.241-.736.547-1.121.794-.653.419-1.195,1.1-2.15.782-.4-.134-.738.371-.573.77a3.263,3.263,0,0,0,2.207,1.743,4.142,4.142,0,0,0,.626.116c.041-.3.083-.592.124-1.041m-2.216-5.12a3.141,3.141,0,0,0,.313-.632,6.917,6.917,0,0,0,.11-.932,5.679,5.679,0,0,0-1.031.046c-.481.107-.942.3-1.415.446a1.17,1.17,0,0,0-.8,1.264,14.668,14.668,0,0,0,.625,1.877c.12.272.443.454.674.676a3.243,3.243,0,0,0,.52-.612c.333-.674.621-1.37,1-2.134m13.831-5.272a6.592,6.592,0,0,0-1.03.45.555.555,0,0,0-.089.529.7.7,0,0,0,.59.139.808.808,0,0,0,.529-1.118m-9.169,12.226c.057-.159.191-.342.15-.47-.048-.149-.24-.261-.388-.362-.034-.023-.213.1-.211.1A2.1,2.1,0,0,0,481.432,330.583Z" transform="translate(-398.283 -261.284)"></path><path d="M139.579,500.691a4.2,4.2,0,0,1-4.523-.517,6.134,6.134,0,0,1-2.427-4.332,4.65,4.65,0,0,1,1.3-3.908,5.309,5.309,0,0,1,3.055-1.379,4.451,4.451,0,0,1,4.549,2.272,5.091,5.091,0,0,1,.588,5.468,5.209,5.209,0,0,1-2.547,2.4m-2.178-6.228a2.186,2.186,0,0,1-.109.409.573.573,0,0,0,.352.862c.231.073.758-.079.788-.213a6.142,6.142,0,0,0,.027-1.375A7.914,7.914,0,0,0,137.4,494.464Z" transform="translate(-112.326 -415.536)"></path></g></g></svg>