<svg width="40" height="40" viewBox="0 0 40 40" fill="none" xmlns="http://www.w3.org/2000/svg">
<path d="M4.66713 21.9845C2.97558 24.5873 2.88644 27.9204 4.43648 30.61L7.10733 35.2445C7.92655 36.666 9.77459 37.0994 11.1391 36.19C12.3972 35.3515 12.7785 33.6732 12.0066 32.3724L9.81915 28.6861L31.1569 30.1985C32.4751 30.2919 33.3617 28.8726 32.7011 27.7268L19.1105 4.15866C18.4956 3.09215 16.9728 3.0512 16.3014 4.08311L4.66713 21.9845Z" fill="#683D99"/>
<path d="M5.30511 20.9949C3.24859 24.1578 5.34067 28.3693 9.10077 28.6357L31.1567 30.1985C32.4749 30.2919 33.3615 28.8726 32.7009 27.7268L19.1103 4.15866C18.4953 3.09215 16.9726 3.0512 16.3012 4.08311L5.30511 20.9949Z" fill="#9C5CE6"/>
<path fill-rule="evenodd" clip-rule="evenodd" d="M28.8652 14.4732C28.41 13.6837 28.68 12.6743 29.4685 12.2185L33.7516 9.74265C34.5401 9.28686 35.5484 9.55734 36.0036 10.3468C36.4589 11.1362 36.1887 12.1457 35.4002 12.6015L31.1171 15.0773C30.3286 15.5331 29.3205 15.2626 28.8652 14.4732Z" fill="#683D99"/>
<path fill-rule="evenodd" clip-rule="evenodd" d="M36.6631 18.6466C36.6046 19.5562 35.8205 20.2461 34.9119 20.1875L31.9461 19.9961C31.0374 19.9373 30.3485 19.1523 30.407 18.2427C30.4657 17.3329 31.2498 16.6431 32.1583 16.7017L35.124 16.8932C36.0327 16.9519 36.7216 17.7369 36.6631 18.6466Z" fill="#683D99"/>
<path fill-rule="evenodd" clip-rule="evenodd" d="M29.1542 5.62558C29.9704 6.02961 30.3049 7.01958 29.9013 7.83672L28.584 10.5041C28.1804 11.3212 27.1916 11.6561 26.3754 11.2521C25.5594 10.848 25.2249 9.85808 25.6284 9.04094L26.9458 6.37356C27.3492 5.55642 28.338 5.22154 29.1542 5.62558Z" fill="#683D99"/>
</svg>
