<svg width="40" height="40" viewBox="0 0 40 40" fill="none" xmlns="http://www.w3.org/2000/svg">
<path d="M3.33337 10C3.33337 7.23858 5.57195 5 8.33337 5H31.6667C34.4281 5 36.6667 7.23858 36.6667 10V25C36.6667 27.7614 34.4281 30 31.6667 30H8.33337C5.57195 30 3.33337 27.7614 3.33337 25V10Z" fill="#F2CA55"/>
<path fill-rule="evenodd" clip-rule="evenodd" d="M16.4167 18.3334C16.4167 20.3124 18.021 21.9167 20 21.9167C21.9791 21.9167 23.5834 20.3124 23.5834 18.3334H26.4167C26.4167 21.8772 23.5439 24.75 20 24.75C16.4562 24.75 13.5834 21.8772 13.5834 18.3334H16.4167Z" fill="#8C5D00"/>
<path fill-rule="evenodd" clip-rule="evenodd" d="M15.25 15V10.8334H18.0833V15H15.25ZM21.9167 15V10.8334H24.75V15H21.9167Z" fill="#8C5D00"/>
<path d="M23.3333 30V35L16.6666 30H23.3333Z" fill="#8C5D00"/>
</svg>
