<svg width="40" height="40" viewBox="0 0 40 40" fill="none" xmlns="http://www.w3.org/2000/svg">
<path d="M19.0001 2.24398C19.6189 1.88671 20.3813 1.88671 21.0001 2.24398L34.8772 10.2559C35.496 10.6132 35.8772 11.2735 35.8772 11.988V28.0119C35.8772 28.7265 35.496 29.3867 34.8772 29.744L21.0001 37.7559C20.3813 38.1132 19.6189 38.1132 19.0001 37.7559L5.12295 29.744C4.50415 29.3867 4.12295 28.7265 4.12295 28.0119V11.988C4.12295 11.2735 4.50415 10.6132 5.12295 10.2559L19.0001 2.24398Z" fill="#3A73B5"/>
<path d="M28.665 2.81763L39.2152 8.90879V21.0911L28.665 27.1823L18.1147 21.0911V8.90879L28.665 2.81763Z" fill="white"/>
<path d="M28.8836 6.66663L36.1005 10.8333V19.1666L28.8836 23.3333L21.6667 19.1666V10.8333L28.8836 6.66663Z" fill="#E65CA1"/>
</svg>
