<svg width="40" height="40" viewBox="0 0 40 40" fill="none" xmlns="http://www.w3.org/2000/svg">
<path d="M3.33325 11.6667C3.33325 7.06433 7.06421 3.33337 11.6666 3.33337H36.6666V20.3969C36.6666 24.9992 32.9356 28.7302 28.3333 28.7302H11.2698L3.33325 36.6667V11.6667Z" fill="#3A73B5"/>
<path d="M16.0319 17.6983C16.0319 19.0133 14.9659 20.0793 13.651 20.0793C12.336 20.0793 11.27 19.0133 11.27 17.6983C11.27 16.3834 12.336 15.3174 13.651 15.3174C14.9659 15.3174 16.0319 16.3834 16.0319 17.6983Z" fill="#0D4680"/>
<path d="M24.0479 17.6983C24.0479 19.0133 22.9819 20.0793 21.6669 20.0793C20.352 20.0793 19.286 19.0133 19.286 17.6983C19.286 16.3834 20.352 15.3174 21.6669 15.3174C22.9819 15.3174 24.0479 16.3834 24.0479 17.6983Z" fill="#0D4680"/>
<path d="M32.0634 17.6983C32.0634 19.0133 30.9974 20.0793 29.6825 20.0793C28.3675 20.0793 27.3015 19.0133 27.3015 17.6983C27.3015 16.3834 28.3675 15.3174 29.6825 15.3174C30.9974 15.3174 32.0634 16.3834 32.0634 17.6983Z" fill="#0D4680"/>
<path d="M14.3652 16.0317C14.3652 17.3467 13.2992 18.4127 11.9842 18.4127C10.6693 18.4127 9.60327 17.3467 9.60327 16.0317C9.60327 14.7167 10.6693 13.6508 11.9842 13.6508C13.2992 13.6508 14.3652 14.7167 14.3652 16.0317Z" fill="white"/>
<path d="M22.3811 16.0317C22.3811 17.3467 21.3151 18.4127 20.0002 18.4127C18.6852 18.4127 17.6192 17.3467 17.6192 16.0317C17.6192 14.7167 18.6852 13.6508 20.0002 13.6508C21.3151 13.6508 22.3811 14.7167 22.3811 16.0317Z" fill="white"/>
<path d="M30.3967 16.0317C30.3967 17.3467 29.3307 18.4127 28.0157 18.4127C26.7008 18.4127 25.6348 17.3467 25.6348 16.0317C25.6348 14.7167 26.7008 13.6508 28.0157 13.6508C29.3307 13.6508 30.3967 14.7167 30.3967 16.0317Z" fill="white"/>
</svg>
