<svg width="40" height="40" viewBox="0 0 40 40" fill="none" xmlns="http://www.w3.org/2000/svg">
<path d="M11.6666 3.75L13.7779 2.82395C14.8286 2.36311 16.0425 2.47499 16.9912 3.12012L19.6332 4.91667L11.6666 3.75Z" fill="#DE8644"/>
<path d="M28.7404 15.8333H17.3993C15.2958 15.8333 13.7182 17.7577 14.1307 19.8204L14.4641 21.487C14.7757 23.0451 16.1437 24.1667 17.7327 24.1667H25.9767C28.451 24.1667 30.7219 25.5371 31.8751 27.7263L32.0402 28.0398C33.0603 29.9764 31.9687 32.3539 29.8351 32.8426L18.2063 35.5058C17.2603 35.7224 16.2837 35.7722 15.3206 35.6528L3.33331 34.1666V10.7639L9.58543 5.1956C10.3181 4.54307 11.301 4.24646 12.2723 4.38478L34.6126 7.56614C36.9195 7.89466 37.9328 10.6589 36.3847 12.4006C34.4438 14.584 31.6618 15.8333 28.7404 15.8333Z" fill="#DE8644"/>
<path d="M19.1667 20C19.1667 16.088 22.2871 12.9167 26.1364 12.9167H31.3637C35.2129 12.9167 38.3334 16.088 38.3334 20C38.3334 23.912 35.2129 27.0834 31.3637 27.0834H26.1364C22.2871 27.0834 19.1667 23.912 19.1667 20Z" fill="white"/>
<path fill-rule="evenodd" clip-rule="evenodd" d="M31.3889 14.5833C34.3037 14.5833 36.6666 17.0084 36.6666 20C36.6666 22.9915 34.3037 25.4166 31.3889 25.4166H29.2778V21.0833L31.3889 21.0833C31.9718 21.0833 32.4444 20.5983 32.4444 20C32.4444 19.4017 31.9718 18.9166 31.3889 18.9166L29.2778 18.9166V14.5833L31.3889 14.5833Z" fill="#3A73B5"/>
<path fill-rule="evenodd" clip-rule="evenodd" d="M26.1111 14.5833C23.1963 14.5833 20.8333 17.0084 20.8333 20C20.8333 22.9915 23.1963 25.4166 26.1111 25.4166H28.2222L28.2222 21.0833H26.1111C25.5281 21.0833 25.0555 20.5983 25.0555 20C25.0555 19.4017 25.5281 18.9166 26.1111 18.9166H28.2222V14.5833L26.1111 14.5833Z" fill="#3A73B5"/>
</svg>
