<svg width="40" height="40" viewBox="0 0 40 40" fill="none" xmlns="http://www.w3.org/2000/svg">
<path fill-rule="evenodd" clip-rule="evenodd" d="M5.92118 28.9482L3.58325 37.5L12.3004 35.1984C14.7031 36.5243 17.4033 37.2181 20.1477 37.2146C29.1984 37.2146 36.5612 29.8044 36.5612 20.6983C36.5612 16.2798 34.8586 12.1302 31.7526 9.00514C28.6466 5.88007 24.5226 4.16663 20.1312 4.16663C11.0806 4.16663 3.71685 11.5757 3.73416 20.6983C3.72972 23.5921 4.4838 26.4366 5.92118 28.9482ZM13.1857 32.5268L12.6848 32.2242L12.6831 32.2251L7.49004 33.6032L8.87626 28.5292L8.55902 28.0075C7.18922 25.8241 6.47109 23.2871 6.47109 20.6992C6.47109 13.1392 12.5994 6.97269 20.1304 6.97269C23.7708 6.97269 27.2105 8.41794 29.7838 11.004C32.3552 13.5919 33.7742 17.0524 33.7742 20.7156C33.7742 28.2755 27.6459 34.4421 20.1322 34.4421C17.6866 34.4402 15.2867 33.7786 13.1857 32.5268Z" fill="#C1C5C8"/>
<path fill-rule="evenodd" clip-rule="evenodd" d="M5.92118 27.2815L3.58325 35.8333L12.3004 33.5318C14.7031 34.8577 17.4033 35.5515 20.1477 35.5479C29.1984 35.5479 36.5612 28.1378 36.5612 19.0317C36.5612 14.6132 34.8586 10.4636 31.7526 7.33851C28.6466 4.21344 24.5226 2.5 20.1312 2.5C11.0806 2.5 3.71685 9.90912 3.73416 19.0317C3.72972 21.9255 4.4838 24.77 5.92118 27.2815ZM13.1857 30.8602L12.6848 30.5575L12.6831 30.5585L7.49004 31.9365L8.87626 26.8626L8.55902 26.3408C7.18922 24.1575 6.47109 21.6205 6.47109 19.0326C6.47109 11.4725 12.5994 5.30606 20.1304 5.30606C23.7708 5.30606 27.2105 6.75132 29.7838 9.33734C32.3552 11.9253 33.7742 15.3858 33.7742 19.049C33.7742 26.6089 27.6459 32.7755 20.1322 32.7755C17.6866 32.7736 15.2867 32.112 13.1857 30.8602Z" fill="url(#paint0_linear_163_7781)"/>
<path d="M12.6852 30.5575L13.1861 30.8602C15.2871 32.1119 17.6869 32.7736 20.1326 32.7755C27.6462 32.7755 33.7745 26.6089 33.7745 19.049C33.7745 15.3857 32.3556 11.9252 29.7841 9.33731C27.2108 6.75128 23.7712 5.30603 20.1307 5.30603C12.5997 5.30603 6.47144 11.4725 6.47144 19.0325C6.47144 21.6205 7.18957 24.1574 8.55937 26.3408L8.8766 26.8625L7.49038 31.9365L12.6834 30.5585L12.6852 30.5575Z" fill="url(#paint1_linear_163_7781)"/>
<path fill-rule="evenodd" clip-rule="evenodd" d="M16.0399 12.1097C15.7399 11.4207 15.4054 11.4044 15.1218 11.4044C14.871 11.3871 14.6037 11.3871 14.3201 11.3871C14.0529 11.3871 13.602 11.488 13.2184 11.9079C12.8339 12.3279 11.7822 13.3196 11.7822 15.353C11.7822 17.3855 13.2521 19.3516 13.452 19.6197C13.652 19.8888 16.2908 24.1901 20.4648 25.8535C23.9381 27.2307 24.6398 26.9625 25.3915 26.878C26.1423 26.7943 27.8121 25.8872 28.163 24.9118C28.4966 23.9547 28.4966 23.1148 28.3966 22.9466C28.2966 22.7785 28.0121 22.6776 27.6113 22.4594C27.194 22.2576 25.1906 21.2505 24.8061 21.115C24.4225 20.9805 24.1553 20.9132 23.8881 21.3168C23.6208 21.7368 22.8364 22.6612 22.5855 22.9294C22.3519 23.1984 22.1019 23.232 21.701 23.0302C21.2829 22.8294 19.9649 22.3921 18.3942 20.9805C17.1761 19.8888 16.358 18.5281 16.1072 18.1245C15.8736 17.7045 16.0735 17.4864 16.2908 17.2846C16.4744 17.1 16.7089 16.7974 16.9089 16.5619C17.1089 16.3265 17.1752 16.142 17.3261 15.8729C17.4597 15.6048 17.3925 15.3521 17.2925 15.1512C17.1925 14.9658 16.4071 12.9333 16.0399 12.1097Z" fill="white"/>
<defs>
<linearGradient id="paint0_linear_163_7781" x1="20.0695" y1="35.8369" x2="20.0695" y2="2.50455" gradientUnits="userSpaceOnUse">
<stop stop-color="#F9F9F9"/>
<stop offset="1" stop-color="white"/>
</linearGradient>
<linearGradient id="paint1_linear_163_7781" x1="20.069" y1="35.2599" x2="20.069" y2="3.08185" gradientUnits="userSpaceOnUse">
<stop stop-color="#20B038"/>
<stop offset="1" stop-color="#60D66A"/>
</linearGradient>
</defs>
</svg>
