<svg xmlns="http://www.w3.org/2000/svg" width="85.942" height="93.987" viewBox="0 0 85.942 93.987"><defs><style>.a{fill:#c8dbf9;opacity:0.966;}.b{fill:#f5f7f9;}</style></defs><g transform="translate(-204.059 -1290.322)"><path class="a" d="M-4980.735,2043.8l15.15-2.212s8.57-3.69,8.6-5.908,0-17.122,0-17.122l23.821-4.06h15.946s6.42,19.68,7.427,21.182,5.341,24.343,5.007,29.424-.06,27.854-3.31,31.9-5.356,5.108-15.326,6a219.277,219.277,0,0,1-28.281,0c-1.807-.268-16.118-3.162-18.792-2.913s-10.244,0-10.244,0-5.343-2.729-3.63-8.4S-4980.735,2043.8-4980.735,2043.8Z" transform="translate(5193.777 -720.448)"></path><path class="b" d="M-4966.733,2071.147s.678,14.759,1.586,15.271a18.809,18.809,0,0,0,8.934,1.643c4.038-.335,5.172-2.787,5.172-2.787l-3.721-8.649,3.721,1.683s1.6-3.933,1.321-5.325-4.543-3.157-10.844-2.3S-4966.733,2071.147-4966.733,2071.147Z" transform="translate(5189 -723)"></path><g transform="translate(-55.941 130.612)"><path d="M83.514,153.805c-.22,1.236-.342,2.418-.552,3.585-.186,1.032-.471,2.046-.71,3.069-.55,2.359-1.536,3.4-4.1,3.884-1.788.339-3.662.24-5.37.955-1.356.567-2.813.737-4.2,1.181a2.462,2.462,0,0,1-.718.01,55.293,55.293,0,0,1-6.6-.067,38.359,38.359,0,0,1-4.51-.358,3.67,3.67,0,0,0-2.546.155c-.351.178-.867.029-1.307.029a26.4,26.4,0,0,0-3.961.035,41.461,41.461,0,0,1-7.6.157,33.96,33.96,0,0,1-5.576-.412c-.986-.194-2.037-.074-3.015-.29-1.014-.224-2.082.01-3.058-.441-.165-.076-.4,0-.6-.012-1.289-.077-2.583-.114-3.866-.249-1.908-.2-3.819-.41-5.71-.728-1.93-.325-3.832-.815-5.758-1.172a23.179,23.179,0,0,0-2.663-.25c-1.408-.094-2.817-.195-4.228-.231a5.28,5.28,0,0,0-2.076.194,2.325,2.325,0,0,1-2.362-1.229c-.2-.392-.277-.856-.5-1.232-.269-.45-.294-1.019-.808-1.363a1.912,1.912,0,0,1-.612-1.534A11.925,11.925,0,0,1,.5,156.171a22.9,22.9,0,0,0-.474-4.61,4.455,4.455,0,0,1-.008-.84c0-2.685-.031-5.37.009-8.054.039-2.612-.017-5.242.281-7.828.271-2.343.06-4.669.2-7,.043-.73.15-1.457.236-2.184s-.221-1.493.229-2.191c.073-.113.012-.314.01-.474a18.7,18.7,0,0,1,.464-3.891c.172-.87.161-1.775.262-2.661a25.768,25.768,0,0,1,.452-3.293,17.467,17.467,0,0,0,.265-2.539c.16-1.7.221-3.411.523-5.082a18.105,18.105,0,0,0,.192-2.433.933.933,0,0,0-.107-.314,2.238,2.238,0,0,0-.253.242,7.11,7.11,0,0,1-.695.905c-.175.164-.575.34-.693.257a1,1,0,0,1-.385-.751,2.847,2.847,0,0,1,.379-1.391q1.539-2.15,3.218-4.2c1.382-1.686,2.815-3.329,4.245-4.975.8-.92,1.616-1.83,2.465-2.7q5-5.15,10.027-10.273c.976-1,1.937-2.014,2.972-2.947a12.777,12.777,0,0,1,1.965-1.336,1.762,1.762,0,0,1,2.3.318,1.371,1.371,0,0,0,1.7.453,19.094,19.094,0,0,1,3.385-.544c1.189-.206,2.362-.5,3.551-.705.72-.127,1.457-.154,2.182-.252a38.586,38.586,0,0,0,4.273-.7c.666-.168,1.375-.156,2.06-.259,1.505-.228,3-.5,4.511-.709.882-.124,1.785-.113,2.662-.26,1.765-.3,3.58.01,5.3-.3,1.286-.235,2.435.231,3.664.1a23.726,23.726,0,0,1,3.843-.013,44.637,44.637,0,0,1,4.607.483,5.943,5.943,0,0,1,4.9,3.424c1.018,2.342,2.025,4.693,2.924,7.082.679,1.806,1.166,3.684,1.763,5.522,1.009,3.107,2.066,6.2,3.044,9.316.547,1.743,1.024,3.513,1.438,5.292.259,1.112.275,2.28.523,3.4.359,1.611.233,3.284.7,4.875a1.335,1.335,0,0,1,0,.239,62.56,62.56,0,0,1,.181,10.474c-.272,3.663-.037,7.312-.183,10.964-.071,1.77-.125,3.542-.249,5.309-.114,1.62-.3,3.235-.474,4.85-.144,1.338-.3,2.675-.482,4.008-.264,1.93-.557,3.855-.9,5.842M4.707,128.5c-.04.3-.093.607-.118.912a22.3,22.3,0,0,1-.27,3.14c-.415,1.81-.367,3.663-.664,5.483a40.9,40.9,0,0,0-.27,4.344,1.345,1.345,0,0,1-.006.359A10.347,10.347,0,0,0,3.2,147.2c.133,1.575.23,3.161.42,4.735.1.846.13,1.7.257,2.543a10.9,10.9,0,0,0,.424,1.5,5.574,5.574,0,0,0,2.156,2.549,4.918,4.918,0,0,0,2.612,1.2c1.724.151,3.459.17,5.188.264,1.09.06,2.179.145,3.266.241a8.832,8.832,0,0,1,1.82.251,52.873,52.873,0,0,0,6.6,1.168c1.888.331,3.8.5,5.709.74,1.944.243,3.884.529,5.834.707,1.643.151,3.3.251,4.948.239,3.133-.024,6.266-.137,9.4-.226,4.655-.132,9.317.274,13.968-.226,1.083-.117,2.177-.1,3.27-.2,1.775-.168,3.556-.28,5.33-.5a1.317,1.317,0,0,0,1.107-.709c.8-1.469,1.673-2.912,2.326-4.446a33.418,33.418,0,0,0,1.281-4.157,35.87,35.87,0,0,0,1.017-4.281c.19-1.263.439-2.532.667-3.8.209-1.162.348-2.337.556-3.5.279-1.563.611-3.116.885-4.68.126-.72.1-1.469.263-2.18a12.872,12.872,0,0,0,.461-3.29c-.112-3.012.146-6.022-.188-9.043-.213-1.926-.193-3.882-.519-5.808-.211-1.247-.3-2.515-.5-3.766-.3-1.915-.63-3.824-.957-5.734-.314-1.832-.594-3.672-.973-5.49-.428-2.056-.916-4.1-1.439-6.135-.65-2.53-1.32-5.057-2.064-7.561-.485-1.633-1.1-3.228-1.69-4.829q-.728-1.981-1.534-3.933c-.183-.445-.621-.824-.686-1.271a2.032,2.032,0,0,0-2.048-1.7c-2.163-.278-4.349-.4-6.529-.5-1.64-.075-3.286-.046-4.928-.006-1.691.041-3.38.151-5.07.232a2.905,2.905,0,0,0-.351.025c-1.347.23-2.691.479-4.04.691a12.969,12.969,0,0,0-2.174.274,27.7,27.7,0,0,1-3.8.668c-1.394.274-2.832.318-4.243.515-1.468.2-2.927.478-4.391.712-1.542.247-3.089.469-4.629.728-.852.143-.887.169-.854,1.029.107,2.811-.209,5.626.206,8.441.234,1.587.188,3.216.267,4.825a1.136,1.136,0,0,0,.006.358,5.621,5.621,0,0,1-.151,3.836c-.159.574.046.539.39.5,1.138-.144,2.273-.31,3.407-.482a.384.384,0,0,0,.269-.2c.336-1.119.913-.518,1.518-.276a4.3,4.3,0,0,0,1.464.231c1.243.033,1.769.5,1.742,1.755-.023,1.01-.125,2.02-.235,3.026-.137,1.258-.242,2.527-.5,3.764a10.821,10.821,0,0,0-.487,4.06,20.952,20.952,0,0,1,.034,2.88,2.878,2.878,0,0,1-1.359,2.54,15.937,15.937,0,0,1-8.39,2.631,17.01,17.01,0,0,1-3.644-.46,10.829,10.829,0,0,1-4.395-1.838,7.569,7.569,0,0,1-3.12-6.133,18.527,18.527,0,0,1,.221-2.064c.1-1.168.152-2.339.253-3.506a6.652,6.652,0,0,1,.233-.983,8.235,8.235,0,0,1-1.043.1c-2.973-.07-5.945-.154-8.917-.234a1.4,1.4,0,0,1-.24,0c-.762-.157-1.12.132-.839.807a13.051,13.051,0,0,1,.793,2.935,7.271,7.271,0,0,1,.108,2.2c-.237,1.615-.312,3.236-.445,4.856a10.1,10.1,0,0,1-.278,2.412c-.242.707-.031,1.415-.234,2.066a19.858,19.858,0,0,0-.432,2.941c-.15.958-.086,1.953-.277,2.9a33.3,33.3,0,0,0-.58,4.373m25.247-28.373c-.48,0-.961-.017-1.441.008a1.36,1.36,0,0,0-.646.168,16.863,16.863,0,0,1-7.985,2.463c-.874.071-.981.168-.871,1.05a2.048,2.048,0,0,1,0,.48c-.074.648-.208,1.293-.227,1.942a28.964,28.964,0,0,0,.016,3.839,5.011,5.011,0,0,0,2.131,3.908,17.591,17.591,0,0,0,2.833,1.291,10.554,10.554,0,0,0,4.364.48,11.817,11.817,0,0,0,4.248-1.057,2.593,2.593,0,0,0,1.584-1.682,11.791,11.791,0,0,0,.721-6.127,57.133,57.133,0,0,1-.743-6.179c-.057-.59-.24-.876-.841-.826-.967.08-1.935.16-3.143.24M23.582,83.654c-.649-1.032-.655-1.039-1.512-.169q-7.9,8.009-15.785,16.024a1.034,1.034,0,0,0-.167.171c-.112.189-.212.385-.316.578.232.116.466.334.7.33.929-.018,1.863-.095,2.786-.16,1.7-.12,3.387-.346,5.076-.553a22.171,22.171,0,0,0,3.137-.54c1.753-.478,3.472-1.077,5.21-1.613a9.468,9.468,0,0,0,3.712-2.3,2.49,2.49,0,0,0,.772-3.182c.2-1.77-.714-3.209-1.459-4.675-.642-1.262-1.426-2.451-2.147-3.913m56.866,72.5a9.52,9.52,0,0,0,.343-1.41,5.873,5.873,0,0,0-.125-1.212c-.113.353-.252.7-.334,1.059a23.963,23.963,0,0,1-2.41,6.193c-.188.345-.82.68-.37,1.04.229.183.928-.079,1.327-.3a1.5,1.5,0,0,0,.67-.895c.305-1.442.526-2.9.9-4.477M26.588,84.256a1.741,1.741,0,0,1-.115-.427c-.01-1.113,0-2.226-.008-3.338,0-.526-.265-.773-.685-.539a6.509,6.509,0,0,0-1.226,1.066c-.04.038.029.213.073.313.493,1.11,1.2,2.11,1.629,3.261.122.328.464.227.331-.336m.24,13.946c.286-.24.512-.5.3-.9-.2.16-.394.322-.595.478a1.7,1.7,0,0,1-.283.184c-1.2.591-2.394,1.175-3.587,1.77a3.369,3.369,0,0,0-.461.335,2.842,2.842,0,0,0,.574.05c.139-.014.261-.152.4-.179A10.049,10.049,0,0,0,26.828,98.2m9.5,2.765c0-.428.009-.856-.01-1.284,0-.063-.136-.121-.208-.181-.088.236-.272.486-.239.7C35.913,100.505,35.516,101.029,36.326,100.967Z" transform="translate(260 1087.139)"></path><path d="M177.1,409.754c1.873-1.873,3.61-3.77,5.516-5.48,3.309-2.969,6.509-6.045,9.654-9.185a6.1,6.1,0,0,1,3.095-1.506c.577-.127.86.3,1.178.635a1.059,1.059,0,0,1,.078,1.294c-.629,1.224-1.227,2.471-1.96,3.633q-2.5,3.966-5.127,7.852c-.955,1.421-2,2.78-3.018,4.16-1.31,1.782-2.618,3.567-3.95,5.333-.7.923-1.446,1.8-2.166,2.71-1.221,1.536-2.427,3.084-3.658,4.612-.8,1-1.657,1.952-2.456,2.952a32.43,32.43,0,0,1-2.322,2.989c-1.557,1.536-2.827,3.458-5.169,4.032a9.623,9.623,0,0,1-3.709.062c-1.845-.261-2.888-1.571-3.838-2.991-.062-.093-.105-.2-.17-.29-.567-.8-.6-.86-1.39-.41a3.609,3.609,0,0,1-1.977.46c-.56-.017-1.122,0-1.682,0a12.881,12.881,0,0,0-3.887.481.522.522,0,0,1-.12,0c-1.85.08-3.7.18-5.549.231a2.384,2.384,0,0,1-2.045-1.595,12.8,12.8,0,0,1-.242-2.182,22.585,22.585,0,0,0-.485-4.609,3.327,3.327,0,0,1-.007-.719,22.4,22.4,0,0,0-.025-2.761,23.37,23.37,0,0,1,.047-2.568,15.2,15.2,0,0,1,.232-2.662,2.7,2.7,0,0,1,2.261-2.124c1.091-.187,2.2-.258,3.282-.5a30.8,30.8,0,0,1,7.5-.451,9.76,9.76,0,0,1,4.652,1.508,1.533,1.533,0,0,1,.541,1.18,14.5,14.5,0,0,1-.175,3.636c-.346,1.268-.106,1.525,1.169,1.948a22.5,22.5,0,0,0,2.9.825,2.974,2.974,0,0,0,2.062-.5,19.656,19.656,0,0,0,3.623-2.875c2.4-2.383,4.853-4.713,7.345-7.124m-33,7.995c.08.087.222.168.231.262.1,1.047.235,2.1.235,3.145a32.313,32.313,0,0,0,.758,4.986,2.355,2.355,0,0,0,1.722,2,5.508,5.508,0,0,0,.976.254c.719.114,1.458.135,2.16.31a5.3,5.3,0,0,0,2.083-.056,26.5,26.5,0,0,1,4.635-.672c.554.017.462-.327.408-.613-.039-.207-.226-.383-.323-.584-.855-1.768-1.552-3.608-2.356-5.392-.573-1.273-.865-2.74-1.974-3.756-.391-.358.081-.709.245-.693.675.065,1.329-.182,2.049.276a12.827,12.827,0,0,0,3.011,1.117c.191.061.557.19.58-.321.051-1.13-.232-2.284.221-3.39a.352.352,0,0,0-.081-.316,4.343,4.343,0,0,0-1.271-.979,20.07,20.07,0,0,0-7-.477c-1.791.086-3.566.468-5.353.679-.479.057-.608.251-.735.706a14.8,14.8,0,0,0-.216,3.513m35.346-3.366c.227-.307.43-.634.684-.917,1.493-1.668,3-3.325,4.5-4.986.71-.786,1.458-1.542,2.116-2.37q2.542-3.2,5.009-6.455c.631-.838,1.144-1.765,1.707-2.654a1.213,1.213,0,0,0,.091-.253c-.108,0-.268-.038-.317.018-.411.464-.757.992-1.2,1.415-2.325,2.2-4.675,4.366-7.013,6.549-1.33,1.242-2.669,2.475-3.975,3.74-3.148,3.048-6.252,6.142-9.432,9.156a30.306,30.306,0,0,1-3.955,3.212,5.379,5.379,0,0,1-4.607.929c-2.019-.539-3.983-1.22-5.966-1.854a2.612,2.612,0,0,0-.409-.064,1.339,1.339,0,0,0,.043.408c.529,1.183,1.034,2.378,1.617,3.534.753,1.493,1.521,2.984,2.379,4.418.622,1.04,1.408,1.981,2.11,2.974a.852.852,0,0,0,1.135.341,5.373,5.373,0,0,0,1.431-1.176c1.867-2.218,3.662-4.5,5.543-6.7,1.451-1.7,2.98-3.341,4.5-4.988,1.286-1.4,2.6-2.768,4.024-4.271m-8.3,12.383c-1.159,1.32-2.323,2.636-3.475,3.962-.228.262-.411.563-.615.845.33-.168.662-.331.986-.51.052-.029.053-.14.1-.194,1.323-1.533,2.659-3.055,3.971-4.6.673-.791,1.308-1.615,1.95-2.432a.887.887,0,0,0,.087-.321c-.113.034-.266.032-.333.107-.857.96-1.7,1.931-2.548,2.9A.716.716,0,0,1,171.153,426.766Z" transform="translate(135.392 804.741)"></path></g></g></svg>