<svg xmlns="http://www.w3.org/2000/svg" width="76" height="76" viewBox="0 0 76 76"><g id="multi-route-icon" transform="translate(-642 -3485)"><circle id="Ellipse_2" data-name="Ellipse 2" cx="38" cy="38" r="38" transform="translate(642 3485)" fill="#222"></circle><g id="Group_13535" data-name="Group 13535" transform="translate(-518 1462)"><g id="multiroute" transform="translate(1176 2040)"><g id="Group_13534" data-name="Group 13534" transform="translate(0 0)"><path id="Path_24597" data-name="Path 24597" d="M592.313,304.3v-15.45c0-4.243-4.815-9.753-15.523-17.74l7.943-.769-.189-1.924L573,269.538l1.953,11.433,1.906-.324-1.389-8.105c10.019,7.458,14.909,12.8,14.909,16.311V304.3h1.933Z" transform="translate(-573 -257.953)" fill="#fff" stroke="#fff" stroke-width="1"></path><path id="Path_24598" data-name="Path 24598" d="M603.358,280.972l1.956-11.431-11.547-1.12-.187,1.924,7.937.769C590.813,279.1,586,284.609,586,288.852V304.3h1.931v-15.45c0-3.507,4.892-8.853,14.911-16.313l-1.389,8.109Z" transform="translate(-560.894 -257.952)" fill="#fff" stroke="#fff" stroke-width="1"></path><path id="Path_24599" data-name="Path 24599" d="M589.274,309.35V266.876l5.518,5.935,1.416-1.317-7.9-8.494-7.9,8.494,1.416,1.317,5.518-5.935V309.35Z" transform="translate(-566.099 -263)" fill="#fff" stroke="#fff" stroke-width="1"></path></g></g></g></g></svg>