<svg xmlns="http://www.w3.org/2000/svg" id="Layer_1" data-name="Layer 1" viewBox="0 0 570 380"><defs><style>.cls-1{fill:#9ed67b;}.cls-2{fill:#cce3ff;}.cls-3{fill:#ddce7c;}</style></defs><path d="M183,108.83c1.18,0,2,0,2.84,0,.58,0,1.15-.13,2-.24.38-11.48-.64-22.89,1.22-34.19.27,11.34-.29,22.69.43,34l.74.36c.45-.47,1.23-.91,1.28-1.43a38.58,38.58,0,0,0,0-4.3c-.05-9.23-.13-18.45-.12-27.67,0-3.51.68-4.2,4.15-4.43s6.95-.29,10.42-.44A2.4,2.4,0,0,1,208.77,73c.39,4,1,8.08,1.22,12.14.42,6.46.64,12.92.94,19.38,0,.94.13,1.87.22,3.14,1.43,0,2.7,0,4,0s2.59-.13,4-.2c-.18-3.71-.07-7.19-.57-10.58-.83-5.57,0-11,.95-16.4a56.78,56.78,0,0,0,.78-7.12c.23-5.69.27-5.84,5.43-8.2-.54-6.81-1.47-13.69-.6-20.63,1.13,6.59.59,13.35,2.4,19.83,0-2.65,0-5.29,0-7.94,0-3.83-.07-7.67,0-11.5,0-2.38.66-3.26,2.78-3.38,3.59-.21,7.19-.14,10.78-.13,1.79,0,2.51,1.26,2.74,2.79.32,2.25.54,4.52.76,6.78.4,4.27.76,8.54,1.18,13.2L255,63.6c-.19-3.93-.46-7.69-.54-11.47q-.22-9.69-.23-19.39a6.38,6.38,0,0,1,1.14-3.34v8.13c0,2.88-.06,5.75,0,8.63s.27,5.5.46,8.25A47.51,47.51,0,0,0,257,62.88c0-.94,0-1.89,0-2.83.23-9.7.49-19.39.71-29.09,0-2,.93-3.19,2.93-3.4q4.63-.48,9.29-.84c1.92-.14,2.88,1.09,3.2,2.75a65.66,65.66,0,0,1,1,7.1c.53,6.93.93,13.86,1.43,20.79.12,1.63.44,3.24.65,4.71h9.71V39l.53-.12a13.64,13.64,0,0,1,.49,2.4c.12,5.27.16,10.54.26,15.81a7.74,7.74,0,0,0,1.57,5.31,21.52,21.52,0,0,0,.41-3.23c-.22-5.62-.61-11.24-.74-16.87-.15-6.21.16-6.42,6.32-6.62,2.87-.09,5.75-.27,8.62-.36,2.48-.07,3,.31,3.19,2.78.49,5.49.87,11,1.35,16.47.17,2,.5,4,.77,6.09H315c.56-4.14.08-8.28.41-12.44,1.87,3.81.44,8.17,1.68,12.06l.75,0c0-1.46,0-2.93,0-4.4-.07-2.28-.29-4.55-.27-6.82,0-3,.41-3.34,3.3-3.37,3.47,0,6.95,0,10.42,0,2.54,0,2.92.27,3.36,2.75.59,3.29.95,6.63,1.4,10,.06.45.09.91.16,1.56H346.9c.23-8.36.47-16.56.7-24.84,1.6.52,1.22,1.78,1.2,2.73-.13,5.39-.41,10.77-.49,16.16,0,1.94-.51,4,1.24,6.66.26-2,.49-3.22.56-4.44.35-6.34.66-12.68,1-19,.18-3.36.43-3.61,3.81-3.83s6.7-.39,10.05-.52c3.17-.13,3.83.39,4,3.61.2,4.19.11,8.39.26,12.58.12,3.32.41,6.64.66,10.42,2.39-.17,4.58,0,6.58-.52,9-2.31,16.08,4.39,16.48,12.8q.49,10.41.9,20.83c.35,9.45.87,18.91.92,28.37.07,11.38-.16,22.77-.54,34.14a44.68,44.68,0,0,0,1.16,13.5,31.91,31.91,0,0,1,.82,4.23c.28,2-.25,2.91-2.18,3.5-7.46,2.26-15,4-22.87,4-25.53-.08-51,.89-76.51,2.66-13.15.91-26.31,1.6-39.47,2.33-5.74.32-11.49.35-17.22.79-3.94.31-7.55-.9-11.25-1.78a4.75,4.75,0,0,1-3.67-3.58,18.19,18.19,0,0,1-.53-2.82c-.59-6.19-1.09-12.4-1.73-18.59a171.65,171.65,0,0,1-.21-30.16c.47-6.25.43-12.43-1.32-18.72a7,7,0,0,0-1.55-.24q-30.52,1.32-61,2.66c-2.19.1-4.44.61-6.59-.22,0-1.78,1-2,2.15-2.09,1.8-.06,3.6,0,5.39-.14,1.4-.08,2.8-.27,4.28-.41.17-7.9-.68-15.49.5-23,.24,7.57.41,15.11,1.23,23.13,1.65-1.13,1.19-2.27,1.19-3.2,0-6.22-.1-12.44-.06-18.67,0-3.85.65-4.51,4.5-5,3-.36,6-.67,8.94-.84,2.72-.16,3,.13,3.5,2.89a26.62,26.62,0,0,1,.33,3.57c.26,6,.48,12,.73,18C182.77,107.3,182.87,107.88,183,108.83ZM390.07,81.61c-.78,0-1.59,0-2.4,0-5.26.24-10.52.61-15.79.74-21.55.55-43.13.63-64.67,1.63-27,1.26-54.09,2.21-81.17,2.49a25.72,25.72,0,0,0-2.76.35c-.05,1-.13,1.7-.13,2.4,0,8.14,0,16.29.18,24.43.13,5.36-.32,10.72.56,16.11,1,6,1.47,12.1,1.9,18.18.69,9.79,1.15,19.6,1.73,29.4,0,.82.31,1.64.39,2.46.17,1.81,1.17,2.38,2.9,2.37,10.9,0,21.81.21,32.7-.07,18.34-.48,36.47-3.29,54.68-5.21,12-1.27,24.07-2,36.2-1.21,9.19.62,18.43.74,27.64.83a13.71,13.71,0,0,0,6.07-1.69,4.91,4.91,0,0,0,2.4-3.31c.41-5.71.64-11.45.58-17.18,0-3.93-.89-7.84-1-11.77-.17-7.43,0-14.86,0-22.28V81.61ZM223,83.67c1.41.1,2.23.22,3.05.2,18.56-.37,37.14-.62,55.7-1.18,17-.51,34-1.43,51-2,17.6-.59,35.21-1,52.82-1.47,1.62,0,3.23-.35,4.88-.53a22.54,22.54,0,0,0-1.17-11.63c-1.22-2.91-3.26-4.69-6.49-4.87s-6.22-.44-9.33-.4c-7.19.1-14.4.06-21.55.63-16.11,1.28-32.19,2.85-48.27,4.41a233.63,233.63,0,0,1-37.68.91,245.32,245.32,0,0,0-36.27-.14,36.15,36.15,0,0,0-4.27.56,2.72,2.72,0,0,0-2.45,3C223,75.2,223,79.26,223,83.67ZM193.79,73.56c-.07,11.8-.72,23.2.69,34.9,4.78-.29,9.37,0,14.08-.75a277.75,277.75,0,0,0-2.3-34.81ZM273.54,62.7c-1.24-11.29-.7-22.43-3.09-33.66l-10,.92c-1.25,11.28-1.86,22.27-.38,33.48Zm80.09-27c-.42,8.34-1.32,16.11-1,24.29l14.77-.61c-1.15-8.13,0-16-1.11-23.68ZM306,61.05c-.67-8-1.3-15.57-1.95-23.36l-13.37.9c.33,7.92.61,15.37,1.24,23Zm-138.4,48.56,12.68-.79c-.4-8.25-.24-16.18-1.24-24.18-2.4.23-4.3.36-6.19.59s-3.68.57-5.59.87A130.86,130.86,0,0,0,167.61,109.61Zm62.75-65.67V65.09l12.91-.9c-.66-7-1.3-13.58-1.94-20.25Zm103,16.28a43.24,43.24,0,0,0-1.31-12H320.5v12Zm-69.59,5.47c19.75,2.3,39.11.1,58.47-2.22l0-.74Zm-40.34,69.75-.8,0c0,5.08-.19,10.18.06,15.25s.74,10.27,1.48,15.35c.72,4.93,0,10.07,2.1,14.8C225.4,165.71,225,150.53,223.38,135.44Zm94.76,43.35,42.7-1.08C346.69,175.82,332.4,176.52,318.14,178.79Zm73.38-30.9c1.43-8.75,1.37-22,0-32.25ZM220.77,85.46a19.69,19.69,0,0,0,0,13.14Zm173,82.62c-.62,2.76-1.06,4.77-1.52,6.8C395.3,174.61,395.3,174.61,393.81,168.08Zm-79.4,11V179h-1.69v.11Z"></path><path d="M151.59,305.7c.06-1.35.17-2.52.15-3.69q-.28-14.73-.62-29.46c-.14-5.87-.58-11.74-.51-17.6.17-12.93.61-25.85,2-38.72.55-5,2.72-8.38,7.73-9.51,5.48-1.23,10.94-2.68,16.5-3.36,9.16-1.13,18.4-.85,27.64-.67,9.81.2,19.64-.21,29.45-.66,21.67-1,43.34-1.94,65-1.65,3.46.05,6.93.43,10.39.74,4.77.42,8.26,2.75,9.48,7.47,1.35,5.19,3,10.47,3.21,15.76.39,11.72-.06,23.47-.22,35.21,0,3.48-.23,6.95-.36,10.42q-.88,24.25-1.79,48.5c0,1.19,0,2.38,0,3.63,3.32,1.87,6.67,3.69,9.95,5.62,2.72,1.59,2.84,2.88.52,4.94-1.24,1.11-2.59,2.1-4.07,3.28,2.22,3.44,4.35,6.75,6.51,10,1.12,1.71,2.32,3.35,3.45,5,2.08,3.12,2,3.43-.5,6.11-3.17,3.41-6.2,7-9.35,10.39-1,1-2.1,1.85-3.53,3.09-1.07-1.75-2-3.1-2.74-4.53A57,57,0,0,0,308,350.6c-2.51,1.22-4.4,3.21-6.39,5.06-2.37,2.21-3.16,2-4-1.09-.3-1.15-.61-2.3-1-3.84-3.05,0-6.13.1-9.19,0a518,518,0,0,0-53.16,1.16,80.88,80.88,0,0,1-20-1.55,186,186,0,0,0-38.64-2.58,4,4,0,0,0-3.15,1.22c-8,8.49-17.89,10.52-28.94,7.76a32,32,0,0,1-7-2.64,20.86,20.86,0,0,1-11-20.95c1.61-13.44,9.11-22,21.82-26.23C148.65,306.45,150,306.13,151.59,305.7Zm178.62,42.11c.51.82,1,1.65,1.52,2.48l.58-.42-2-2.18c-1.56-3.59-4.54-7.93-6.64-9.33C325.55,341.71,327.2,345.21,330.21,347.81ZM296,330.26c.13-1.26.27-2.53.41-3.79l-.4,0v3.81c.84,5.76,1.65,11.53,2.53,17.29.21,1.37.61,2.71.92,4.07.51-.49.61-.85.56-1.18q-1.5-9.69-3.08-19.36C296.93,330.77,296.35,330.55,296,330.26ZM152.9,225.59c1.3-.55,1-1.75,1.11-2.76.79-5.4,1.52-10.82,7.24-14.61-5,1.17-6.53,2.75-7.09,6.79-.48,3.52-.84,7.06-1.26,10.59v3.86l.36,0Zm22.62,117.87c5.61.67,10.58,1.74,15.55,1.77,33.55.2,67.11.17,100.66.22h3.52a7.36,7.36,0,0,0,.18-1.42q-1.14-10.53-2.31-21.06c-.44-3.92.08-7.57,3-10.91a22.86,22.86,0,0,1,3.59,1c4.26,1.88,8.48,3.89,12.72,5.82.79.36,1.63.61,2.81,1,0-5.88-.21-11.27,0-16.64.48-10.28,1.45-20.54,1.81-30.81s.23-20.59.28-30.89c0-6,0-11.92,0-17.8-4.64-.75-158.32,2.68-161.32,3.55-.18,1.37-.48,2.79-.55,4.22-.6,12.92-1.39,25.84-1.65,38.78-.24,11.47-.21,23,2.65,34.34,2.46.46,5,1,7.59,1.43a16.55,16.55,0,0,1,13.47,11.09c3,7.92,3.39,15.89-.85,23.62C176.43,341.4,176.17,342.05,175.52,343.46Zm-19-119.69c5.83.72,157.88-2.76,160.88-3.69,0-1.84.11-3.75,0-5.64-.35-5.1-3-7.86-8.13-8.34a57.4,57.4,0,0,0-7.18-.29c-9.69.3-19.39.58-29.08,1.1a256,256,0,0,1-41.62-.76,103.48,103.48,0,0,0-12.16-.91c-10.55.13-21.09.36-31.62.94a146.07,146.07,0,0,0-18.52,2.25c-8.8,1.61-11.25,4.54-12.33,13.35C156.67,222.37,156.61,223,156.52,223.77ZM174,332.64c-.21-2.37-.32-5.25-.76-8.08a27.45,27.45,0,0,0-4.14-11.37c-1.65-2.45-3.76-4.66-6.89-4.57-3.32.1-6.88.2-9.87,1.44-11.09,4.59-18.67,12.41-20.33,24.8-.9,6.71,2.55,16.15,12.14,18.86,9,2.55,16.74-.2,23.75-5.72,3.49-2.74,6.12-6.06,5.83-10.92A39,39,0,0,1,174,332.64Zm153.57-1.85c-9.17-8-20.05-10.63-31.29-14,1.93,11.52,2.61,22.65,5.36,33.73.72-.5,1.09-.79,1.49-1,4.34-2.66,6.13-2.37,9.44,1.53.23.27.45.56.69.82L324.47,364l9.15-8.73c-2.61-3.54-5.1-6.75-7.4-10.09a55,55,0,0,1-4.19-7.09c-1.23-2.55-.8-3.46,1.63-5C324.77,332.44,325.9,331.79,327.57,330.79ZM209.46,347.92c8.8,1.76,17.59,3.22,26.62,2.64,9.2-.6,18.42-1.12,27.64-1.27s18.69.23,28,.32a45.84,45.84,0,0,0,4.87-.53c-.76-.7-1-1.13-1.26-1.13Q252.43,347.91,209.46,347.92ZM313.94,205.07a17.43,17.43,0,0,0-3.89-1.25c-6.2-.43-12.41-1-18.61-.95-15.54.19-31.09.68-46.63,1.12-3.6.1-7.18.46-10.77.71a41.71,41.71,0,0,0,7.86,1.07c14.83.88,29.65-.09,44.47-.61C295.51,204.84,304.67,203.69,313.94,205.07ZM143.65,311.53c-12.26,4.23-20.25,23.17-13.45,31.82C127.61,329.72,133.2,319.63,143.65,311.53ZM319,262.74c1.62-32.31,1.61-35.27-.55-39Zm-.64,12.94c-.58,14.5-2.53,28.95-1.49,43.51C317.24,304.68,319.51,290.24,318.39,275.68Zm-144.5,39.65c1,6.12,2,11.84,3.06,17.94C177.68,326.85,177.15,321.05,173.89,315.33ZM324.75,367.1l-3.61-2.7-.41.44,2.17,4ZM154.26,304.55l.37,0-.11-1.9h-.26Z"></path><path d="M403.66,185.76c.65-4.49,1.18-9,2-13.48,1.24-7.12,4.91-12.89,10.16-17.75a10.33,10.33,0,0,0,2.35-2.65c3.55-6.94,9.58-10.47,16.8-12.41a24.18,24.18,0,0,1,12.07-.34c7.91,1.88,15.38,4.63,21.25,10.55a63.09,63.09,0,0,1,4.15,4.92c.45.55.62,1.42,1.16,1.78,4.13,2.73,5.09,7.17,6,11.47,2.29,11.28,1.26,22.48-4.24,32.49-5.31,9.67-12.81,17.5-24.36,20.25-7.87,1.88-15.58,2.44-23.35-.16C412.14,215.26,402.86,201.67,403.66,185.76Zm10.26-2.37.38.08c.23,3.22.56,6.44.65,9.66a11.71,11.71,0,0,0,2.24,6.31,28.08,28.08,0,0,0,18.18,12.42c10.48,2.22,19.75,0,27.29-7.88a44.28,44.28,0,0,0,11.26-20.93,22.23,22.23,0,0,0,.74-7.09,36.55,36.55,0,0,0-3.86-13c-2.75-5.36-7-9.35-11.53-13.13-5.34-4.46-11.69-5.44-18.24-4.31-7.62,1.31-13.89,5.61-19.94,10.19a10.82,10.82,0,0,0-4.53,7.44Q415.23,173.26,413.92,183.39Zm-3.85-16.18a9.91,9.91,0,0,0-1,1.58c-2.39,8-3.57,16.22-2.28,24.48,2.11,13.55,10.75,21.43,23.44,25.38a17.82,17.82,0,0,0,2.66.3,9.94,9.94,0,0,0-1.19-.72c-9.5-3.93-16.34-10.28-18.75-20.65a8.83,8.83,0,0,0-.54-1.33c-3.4-8.78-4.88-17.74-2.47-27.06A13,13,0,0,0,410.07,167.21Zm62.33,28c-5,8.42-11.12,15.78-21,18.64s-19.1,1-28-3.82c4.9,4.64,10.59,7.49,17.35,7.19a46.26,46.26,0,0,0,23.24-7.71,10.84,10.84,0,0,0,2.89-2.63A35.38,35.38,0,0,0,472.4,195.2Zm-23.12-52.57c-8.1-3.28-20.09-.55-25.08,5.78,1.73-.82,3.07-1.51,4.47-2.1,6.07-2.53,12.15-5.08,19-3.49A5.75,5.75,0,0,0,449.28,142.63Zm13.28,5.61,7.75,8.43C468.49,152.34,464.71,149.93,462.56,148.24ZM412,180.38c.22-3.31.43-6.61.68-10.35C411,173.66,411.43,177,412,180.38Z"></path><path d="M161,71.33l42.56-18.64c.07-5,2.42-8.07,8-8.25,3.33-8.19,6.66-16.38,10.09-24.8-1.66-1.85-3.35-3.91-2.64-6.6a8.5,8.5,0,0,1,2.28-3.91c2.93-2.68,6.23-2,10.16,2L262.91,6C264.14,2.89,266,.26,269.84.47c3.3.17,5.07,2.36,6.13,5.53l25.17,4.42c2.13-2.93,4.75-5,8.53-3.43,3.4,1.37,4.23,4.3,3.88,8,2.21,1.3,4.46,2.63,6.72,3.93l14,8.05c1,.6,2,1.11,3.33.45,6.73-3.36,13.51-6.65,20.35-10a28.88,28.88,0,0,1-.19-2.94,10.08,10.08,0,0,1,9.33-9.7,9.54,9.54,0,0,1,10.16,7.77c1.39,7-5.86,12.85-13,10.35-1.76-.61-3.3-1.84-5.31-3-.48.19-1.37.47-2.2.88-6.13,3-12.27,6-18.35,9.05a4.2,4.2,0,0,1-4.62-.21c-7.09-4.22-14.29-8.26-21.53-12.42-2.24,1.4-4.46,2.52-7.12,1.47s-3.73-3.22-4.29-5.73c-3.28-.6-6.33-1.17-9.39-1.7C286.28,10.3,281.1,9.43,276,8.57c-4.69,5.85-8.45,5.9-13,0l-15.3,2.48c-5.19.84-10.39,1.66-15.73,2.51-.88,4.3-3.28,6.9-8.09,6.91-3.34,8.2-6.68,16.38-10.07,24.72,1.52,1.93,3.4,3.88,2.69,6.63a8.82,8.82,0,0,1-1.93,3.73c-2.42,2.55-5.67,2.31-9.88-.56-.86.34-1.86.68-2.83,1.1q-17.76,7.77-35.51,15.55c-2.51,1.09-4.73,1.92-5.27,5.39s-4.77,5-8.1,3.67a6.28,6.28,0,0,1-3.28-8.38,6.19,6.19,0,0,1,8.79-2.81A26.53,26.53,0,0,1,161,71.33ZM367.55,20.58c4,0,7.14-3,7.05-6.59a6.83,6.83,0,0,0-6.87-6.44,7.25,7.25,0,0,0-7.17,7.39C360.63,18.18,363.63,20.6,367.55,20.58ZM155.47,71.19a3.69,3.69,0,0,0-3.69,3.6,3.74,3.74,0,0,0,3.8,3.87,3.78,3.78,0,0,0,3.53-3.41A3.9,3.9,0,0,0,155.47,71.19Zm52.89-17.08c2.21.93,3.63.75,4.83-.72s1.05-2.62-.24-4.46C211.48,50.58,210,52.27,208.36,54.11Zm14.25-37.67c1.13-2.34,2.12-4.71,5.38-5-2.83-1.55-4.1-1.53-5.46-.19S221.16,14,222.61,16.44Zm81.72-5.84,6.5,2.5a3.25,3.25,0,0,0-2.15-3.81A3.3,3.3,0,0,0,304.33,10.6ZM266.51,8.35c2.31,2.8,3.8,2.78,6.14-.26C270.46,7.41,268.52,7.22,266.51,8.35Zm42.71,7.42a6.52,6.52,0,0,0-5.39-2.23C305,16.72,305.87,17.07,309.22,15.77ZM266.46,5h6.29C269.85,2.39,268.73,2.43,266.46,5Zm-41,12.56c2.09-.25,3.1-1.17,3.37-3.15C226.21,14,225.8,15.53,225.41,17.59ZM210,47.5c-3,.82-3,.82-3.08,3.44C209,50.8,209.78,49.51,210,47.5Z"></path><path d="M68.82,212.39c.05-9.75,2.52-18.7,8.58-26.51a27.12,27.12,0,0,1,10.3-8.17c3.15-1.45,6.1-3.31,9.22-4.82a16.06,16.06,0,0,1,10.27-1.49,57.7,57.7,0,0,1,18.8,6.73c10.48,5.85,15,15.06,15,26.72a46.55,46.55,0,0,1-1,7.48c-1.76,10.37-7.71,17.85-16.35,23.44-1.5,1-3.16,1.73-4.6,2.8-9.06,6.7-19.12,7.23-29.82,5.45-9.61-1.59-14.81-7.58-18-16.11A44.07,44.07,0,0,1,68.82,212.39Zm5.79-5.11c-.35.55-1,1.08-1,1.64-.08,3.88,0,7.76,0,11.65a10.88,10.88,0,0,0,.61-4.15c.11-3.07.26-6.13.37-9.23.07-1.08.15-2.17.22-3.25l-.62,0Zm1.47,6.86A38.07,38.07,0,0,0,78,228.3a19.61,19.61,0,0,0,25.87,11.38A69.8,69.8,0,0,0,123.3,227.5c7.66-6.81,11.36-15.28,9.88-25.65-.27-1.9-.73-3.76-1.14-5.63-2-9.43-7.77-15.42-17-18.05a37.07,37.07,0,0,0-5.93-1.42c-7.07-.8-13.9-.32-19.72,4.49a76.15,76.15,0,0,0-6.54,5.59,14.69,14.69,0,0,0-3.2,5.07A67.46,67.46,0,0,0,76.08,214.14Zm51.55,15.75c8.3-6.37,13.24-20.34,10.9-29.72C137.11,210.67,132.83,220.43,127.63,229.89Zm8-25.68c2.33-11.72-1.83-19.89-10.55-23.36C131.47,186.88,132.56,189.25,135.66,204.21Zm-10.34,24.64-16.35,11C116.4,238.79,121.53,235,125.32,228.85ZM73.07,198.57a43.65,43.65,0,0,0-2.25,18C71.6,210.3,72.34,204.43,73.07,198.57Z"></path><path d="M423.25,284.2l-13.19-10.26c-.58,1.45-1.06,2.5-1.42,3.59-2,5.91-3.89,11.83-5.83,17.75-1,3.07-1.3,3.1-4.64,3-5.51-.2-6.37,0-4.87-6.64s2.93-13.55,4.44-20.57c-1.23-.36-2.34-.73-3.48-1q-17.55-4.54-35.12-9a11,11,0,0,0-5.26-.33c-3.12.68-5.29-.86-5.46-4.08a27.19,27.19,0,0,1,.86-8.86,80.81,80.81,0,0,1,20.55-34.93,31.7,31.7,0,0,1,6.71-4.7,4.16,4.16,0,0,1,5.52,1c1.51,1.68,3.15,3.27,4.51,5.06q16,21.06,31.84,42.19a14,14,0,0,0,4.82,4.14q5.25,2.76,10.31,5.85c2.73,1.66,2.84,2.28.87,4.78-3.11,4-6.33,7.82-9.53,11.71A13.92,13.92,0,0,1,423.25,284.2Zm-4.84-23.82L383.8,214.54a85.52,85.52,0,0,1-24.68,43.88l51.94,13.31ZM377.2,227.76c2-4.89,3.73-9.47,3.51-14.51-.13-3-1.59-4-4.17-2.49a30.09,30.09,0,0,0-6.68,5.36,83.28,83.28,0,0,0-17.07,28.45,51.07,51.07,0,0,0-2.06,8.34,10.24,10.24,0,0,0,.26,3.88,1.84,1.84,0,0,0,2.73,1.43,12.82,12.82,0,0,0,2.87-1.43A38.45,38.45,0,0,0,365.3,248c-3.9-4.32-4.79-9.25-2.28-13.93C366,228.48,370.87,226.64,377.2,227.76Zm35.92,45.37,10.12,8,9.94-12.27-12.68-7ZM399.87,296c2.54-7.69,5-15,7.47-22.6l-7.13-1.82c-1.74,8-3.42,15.75-5.19,23.84Zm-32.79-50.85c3.3-3.49,7.66-11.12,8.4-14.67a8.75,8.75,0,0,0-10.47,5C363.17,239.78,364,243.41,367.08,245.13Z"></path><path d="M416,336.13c-1.87,17.7-9,31.41-23.86,40.14-11.18,6.58-23.74,3-30.87-8.22a9.24,9.24,0,0,1-.89-1.56c-3.05-7.78-7-15.38-7.48-23.84-.7-12,2.82-22.47,13.38-29.57A48.86,48.86,0,0,1,393,304.81a13.77,13.77,0,0,1,11.86,5.6,12.13,12.13,0,0,0,2.37,2.66,15.56,15.56,0,0,1,6.19,9.4C414.58,327.22,415.26,332.08,416,336.13Zm-58.07,9.75a29.63,29.63,0,0,0,3.16,14.24c2.91,5.77,7.24,9.59,14,9.52,10.91-.13,21.12-2.65,29.93-9.46a5.81,5.81,0,0,0,1.94-2.47,90.48,90.48,0,0,0,3.81-12.3c1.82-9.49-.38-18.53-3.71-27.42-1.38-3.69-3.87-5.5-7.57-6.19-10.07-1.87-19.51,0-28.57,4.48a16.83,16.83,0,0,0-7.83,8.12A52,52,0,0,0,357.94,345.88Zm6.43,22.28c6.61,11.41,21.35,11.31,27.67,5.31C382,375,372.59,374.62,364.37,368.16Zm-8.59-21.54c1.92-24.07,4-22.88,12.8-32.33C358.26,318.87,351.41,336.17,355.78,346.62Zm45.93,18.66c-3.66,1.35-7.27,2.9-11,4S383,371,379.13,371.84C387.59,372.72,395.63,372.12,401.71,365.28Zm-20.46-55c6.72-1.09,13.43-2,20.9.25C397.17,305.78,388,305.88,381.25,310.31Zm31.92,26.37.26-.15V331.8h-.26Z"></path><path d="M155.33,149c0-10.74,4.48-18.94,13.82-24.32,4.77-2.75,9.65-5.39,15.11-6.47a24.6,24.6,0,0,1,29.31,22.38,48.69,48.69,0,0,1-2,17,32.22,32.22,0,0,1-10.85,15.73c-8.46,7-20.18,7.21-29.36.78-2.25-1.58-4.48-3.19-6.71-4.8C157.71,164.3,155.3,157.2,155.33,149Zm53.44,2.12c-.11-9-3.09-16.5-9.73-22.25-10.58-9.15-25.67-7-33.39,4.68-6.9,10.41-5.73,25.53,2.76,34.62a11.5,11.5,0,0,0,3.77,2.63,30,30,0,0,0,23,.57c7.65-2.82,12.19-8.12,13.21-16.29C208.62,153.64,208.68,152.2,208.77,151.1Zm-20.58-30.34a29,29,0,0,1,14.3,7.87c4,4,6.44,9,8.15,15.15C212.56,132.69,202.84,119.93,188.19,120.76Zm-28.6,37.49c-.31-3.45-.77-6.38-.78-9.32s.43-5.84.73-9.36C157.19,145.93,157.12,153.28,159.59,158.25Z"></path><path d="M355.88,223.32c-1.23,1.59-1.87,2.62-3.57,1.77-4.69-2.33-9.46-4.52-14.16-6.84-2.5-1.24-2.94-2.53-1.81-4.5.61-1.08,1.53-1.69,2.66-1.08A137.45,137.45,0,0,1,355.88,223.32Z"></path><path d="M343.64,240.52c-3.69-.21-7.39-.47-11.08-.63a2.65,2.65,0,0,1-2.71-2.34c-.44-1.86.25-2.85,2.18-2.64,2.49.26,5,.8,7.41,1.27,2.23.43,4.44.93,6.66,1.39,1,.22,2,.67,1.57,1.85-.21.56-1.19,1-1.89,1.17a8,8,0,0,1-2.14,0Z"></path><path d="M464.46,280.26a5.7,5.7,0,0,1-5.72,5.65,5.57,5.57,0,0,1-5.59-5.72,5.7,5.7,0,0,1,5.65-5.71A5.84,5.84,0,0,1,464.46,280.26ZM459,277.14a3.22,3.22,0,0,0-3.42,2.89,3.35,3.35,0,0,0,3,3.37,3.16,3.16,0,0,0,3.35-2.95A3,3,0,0,0,459,277.14Z"></path><path d="M367.11,211.61l-2.34,1.79c-3.69-2.5-7.35-4.91-10.92-7.44-1.65-1.17-1.77-2.29-.74-3.57s2.12-1.51,3.65-.15C360.12,205.21,364.12,207.49,367.11,211.61Z"></path><path d="M127,32.15l-2,5.22,4.16,3.57c-2.64,2.44-3.74-1.15-5.79-.67-.52.8-1.11,1.83-1.84,2.76-.23.28-1,.49-1.23.33-.37-.32-.78-1-.66-1.4a33.09,33.09,0,0,1,1.55-3.64l-3.94-3.38c2.27-2.59,3.41.58,5.35.47C124.14,35,123.58,31.69,127,32.15Z"></path><path d="M115.75,302.17l-4.51.43c-.2-2.94,2.49-2.12,3.46-3.55a13.38,13.38,0,0,1-.58-2.56,5.35,5.35,0,0,1,.59-1.8c.56.29,1.33.45,1.64.92a12.18,12.18,0,0,1,1.08,2.59h4.15c.37,2.5-1.91,1.9-3,3.18a13.43,13.43,0,0,1,.53,2.66,6.21,6.21,0,0,1-.69,2c-.54-.36-1.26-.6-1.57-1.1A15.49,15.49,0,0,1,115.75,302.17Z"></path><path d="M497.16,140.74a3.71,3.71,0,0,1-3.87-3.75,3.94,3.94,0,0,1,3.94-4.12,4.11,4.11,0,0,1,3.95,3.82A3.94,3.94,0,0,1,497.16,140.74Zm.11-2.11c.55-.81,1.21-1.37,1.16-1.85a1.26,1.26,0,0,0-2.51.16C495.92,137.42,496.65,137.9,497.27,138.63Z"></path><path d="M208,367.82a3.11,3.11,0,0,1,2.94,3.36,3.06,3.06,0,0,1-3.06,3.23,3.3,3.3,0,0,1,.12-6.59Z"></path><path d="M82.29,133.45a3,3,0,0,1,2.89,3,3.18,3.18,0,0,1-3.08,3.22A3,3,0,0,1,79,136.49,3.19,3.19,0,0,1,82.29,133.45Z"></path><path d="M478.55,49a3,3,0,1,1-6,.13,3,3,0,0,1,6-.13Z"></path><path class="cls-1" d="M193.79,73.56l12.47-.66a277.75,277.75,0,0,1,2.3,34.81c-4.71.7-9.3.46-14.08.75C193.07,96.76,193.72,85.36,193.79,73.56Z"></path><path class="cls-1" d="M273.54,62.7l-13.45.74c-1.48-11.21-.87-22.2.38-33.48l10-.92C272.84,40.27,272.3,51.41,273.54,62.7Z"></path><path class="cls-1" d="M353.63,35.67H366.3c1.14,7.68,0,15.55,1.11,23.68L352.64,60C352.31,51.78,353.21,44,353.63,35.67Z"></path><path class="cls-1" d="M306,61.05l-14.08.59c-.63-7.68-.91-15.13-1.24-23l13.37-.9C304.71,45.48,305.34,53,306,61.05Z"></path><path class="cls-1" d="M167.61,109.61a130.86,130.86,0,0,1-.34-23.51c1.91-.3,3.75-.64,5.59-.87s3.79-.36,6.19-.59c1,8,.84,15.93,1.24,24.18Z"></path><path class="cls-1" d="M230.36,43.94h11c.64,6.67,1.28,13.27,1.94,20.25l-12.91.9Z"></path><path class="cls-1" d="M333.31,60.22H320.5v-12H332A43.24,43.24,0,0,1,333.31,60.22Z"></path><path class="cls-1" d="M327.57,330.79c-1.67,1-2.8,1.65-3.91,2.33-2.43,1.5-2.86,2.41-1.63,5a55,55,0,0,0,4.19,7.09c2.3,3.34,4.79,6.55,7.4,10.09L324.47,364l-11.21-12.18c-.24-.26-.46-.55-.69-.82-3.31-3.9-5.1-4.19-9.44-1.53-.4.24-.77.53-1.49,1-2.75-11.08-3.43-22.21-5.36-33.73C307.52,320.16,318.4,322.78,327.57,330.79Z"></path><path d="M275.69,95.75a35.91,35.91,0,0,1,35.71,32.48,35.52,35.52,0,0,1-28.26,38.63c-12.17,2.5-23.56-.3-33.75-7.38a19.73,19.73,0,0,1-5.52-6,42.46,42.46,0,0,1-4.67-32.22c1.68-7.11,6.28-12.38,11.91-16.62a41.91,41.91,0,0,1,17.82-8.1C271.16,96.12,273.44,96,275.69,95.75Zm23.66,36.05a24.36,24.36,0,0,0-24.73-24.44c-13.12,0-24.09,11.12-24.12,24.4a24.43,24.43,0,1,0,48.85,0ZM269.7,105.19c17.63-1.31,30.51,8.43,31.95,23.73a26.13,26.13,0,0,1-5.82,19.8c-6.06,7.39-14.09,10.41-23.67,9.95-.46,2.12-.89,4.06-1.37,6.23,2.95,0,5.72.58,8.12-.11,7.55-2.16,14.55-5.51,20.08-11.36,5.7-6,8.83-13.54,8.51-21.52-.43-10.48-4.67-19.88-13.52-26.25-5.46-3.92-11.43-7.13-18.66-6-2.24.35-4.49.61-7,.95C268.77,102.17,269.22,103.63,269.7,105.19Zm-1.48,59.17c.47-2.09.91-4,1.27-5.6L257,152.66l-4.24,3.46A32.65,32.65,0,0,0,268.22,164.36ZM251.5,159.3l-9.64-13.5C243.54,151.29,246.11,156.15,251.5,159.3Zm-9.06-41.59-.54-.23-.69,2.3.37.11C241.87,119.16,242.16,118.44,242.44,117.71Zm63.91,1-.58.26,1.05,2.19.44-.23Zm-66.47,7.58.22,0v-1.93h-.22Z"></path><path d="M316.2,129.81c.25-2.37.54-5.94,1-9.48a12.3,12.3,0,0,1,3.53-6.94c8-8.12,17.4-13,29-12.81a30.4,30.4,0,0,1,19.92,8c1.78,1.57,3.77,2.92,5.42,4.61a10.16,10.16,0,0,1,2,3.63c.53,1.44.66,3,1.11,4.49,3.81,12.4,1.7,23.62-7.61,32.75s-20.76,11.23-33.2,6.9a30.35,30.35,0,0,0-3.08-.94c-10.26-2.38-16.74-11-17.64-21.06C316.46,136.3,316.4,133.66,316.2,129.81Zm48.39-22.31c-2.31,4.71-4.52,9.18-6.71,13.67s-4.36,9-6.72,13.91c-1.23-.53-2.44-.92-3.53-1.52-7.43-4.12-14.84-8.29-22.26-12.43-.9-.5-1.86-.91-2.88-1.4a12.78,12.78,0,0,0-.8,1.42,29.05,29.05,0,0,0,15.65,37.38,12.49,12.49,0,0,0,4.17.79,43.32,43.32,0,0,0,21.44-5,19.69,19.69,0,0,0,8.85-8.6,42.34,42.34,0,0,0,5-16.73c.19-2.45.55-5-.95-7.29-4.6,1.5-6.87,1.21-8.4-1.31-.59-1-1.21-2.41-.91-3.34a35.86,35.86,0,0,1,3-5.65c-.65-.61-1.48-1.45-2.39-2.2C366.4,108.64,365.58,108.17,364.59,107.5Zm-24.58-2c-6.61.38-13.34,5.42-16.1,12l23.47,13.13.56-.51C345.29,121.84,342.64,113.61,340,105.46Zm31.29,9.27a2.59,2.59,0,0,0-2.27,2.7,2.82,2.82,0,0,0,3.05,2.76c1.07-.15,2.1-.59,2.16-1.93S372.38,114.69,371.3,114.73Zm-21.55,45.84c5.11.63,14-2.49,15.06-5.28Zm-23.08-5.89-7.89-12.16C319.55,147.75,322.63,151.58,326.67,154.68Zm-8.28-31.45L323.15,113A12.51,12.51,0,0,0,318.39,123.23Zm55,22.53.55.44c1.41-2.55,2.75-5.13,2.64-8.24Q375,141.86,373.42,145.76Z"></path><path d="M229.81,79.26a3.18,3.18,0,0,1-3.12-2.86c-.14-1.7,1.34-3.53,2.82-3.48S232.94,74.63,233,76A3.5,3.5,0,0,1,229.81,79.26Z"></path><path d="M248.63,78a2.71,2.71,0,0,1-2.57-2.81,3.11,3.11,0,0,1,3.06-2.84,2.78,2.78,0,0,1,2.77,3A3.29,3.29,0,0,1,248.63,78Z"></path><path d="M241.92,75.88a2.92,2.92,0,0,1-2.77,2.68,2.53,2.53,0,0,1-2.6-2.72,2.68,2.68,0,0,1,2.64-2.73A3,3,0,0,1,241.92,75.88Z"></path><path d="M216.81,237.13a11.64,11.64,0,0,1,2.15-.48q14.72-.27,29.42-.47c3.11,0,6.23-.1,9.33,0,2.66.1,3.28.65,3.32,3.17.14,9,.23,17.95.21,26.92,0,3.28-.74,3.85-4.11,4q-15.4.9-30.81,1.81a42,42,0,0,1-5,0c-3.13-.2-4-1-4.32-4.12a32.37,32.37,0,0,1-.16-3.94C216.8,255.17,216.81,246.23,216.81,237.13Zm16.82,15-12.84,17,.43.71c4-.21,8-.36,12.06-.65s7.85-.81,11.78-1,7.93-.24,12.34-.36L246,254l-1.61,1.51c-2.56,2.49-3.2,2.53-6,.32Zm-11.34-12.68-.4.74,19.65,14.93c4.44-6,10.62-10.2,15.45-16.65Zm-2.79,1.92c.46,8.6-.4,16.35.05,24.1l.71.21,11.23-14.86Zm38.64,23.34.82-.47c-.17-7.43.28-14.88-.53-22.34l-10.66,10.22c1.78,2.19,3.48,4.32,5.21,6.42S256.42,262.61,258.14,264.67Z"></path><path d="M186.72,275.26c-4.41,0-10.51.08-16.61,0-4.13-.07-4.5-.5-4.64-4.58-.25-8-.43-16-.67-24-.05-1.67-.22-3.34-.39-5-.27-2.71,0-3.17,2.74-3.36q8.78-.63,17.55-1.14c7.41-.43,14.82-.85,22.23-1.22,3.81-.19,4.37.32,4.51,4.18.34,9,.61,17.94.9,26.91,0,.48,0,1,0,1.44-.13,4.8-1.16,5.83-6,6Zm-4.3-13.21c.76-.68,1.66-1.42,2.5-2.24,3.16-3.11,6.27-6.26,9.44-9.35,2.33-2.27,2.88-2.25,5.4-.1.73.62,1.41,1.3,2.13,1.93l7.61,6.64c-.38-7.35.15-13.85-1-20.73l-41.46,2.54c.22,6.76.43,13.23.67,20.48l3.26-3.81c2.52-2.94,3.24-3,6.06-.36Zm27.34,9.75c0-3.11,0-5.59,0-8.07a2.43,2.43,0,0,0-.59-1.61c-4-3.6-8-7.14-12.53-11.17a30,30,0,0,1-2.32,3.08c-3,3.07-6.07,6.12-9.22,9.06-2.61,2.44-3.48,2.35-5.95-.21-1.63-1.68-3.23-3.41-5-5.22-4,4.55-8.51,8.36-5.52,15.2C182.15,273.09,195.61,272.37,209.76,271.8Z"></path><path d="M306.37,271.31a5.13,5.13,0,0,1-5.26-1.87,7.36,7.36,0,0,0-6.13-2.2c-4.42.16-8.85.18-13.27.27-3,.06-6,.22-9,.21-3.38,0-3.62-.28-3.77-3.69q-.54-12.34-1-24.7c-.09-2.29.52-2.92,2.54-3l29.4-.56h.72c3.33,0,4.29.85,4.51,4.17.31,4.77.54,9.55.75,14.33s.33,9.32.48,14C306.39,269.22,306.37,270.15,306.37,271.31Zm-35.88-32.06c.28,8.75.55,17.17.83,25.9,2.15,0,3.8,0,5.45,0,6.1-.09,12.2-.12,18.3-.3,3-.09,5.69.29,7.76,2.71.08.1.43,0,.81-.06.17-9.63-.44-19.23-1.11-29.25Z"></path><path d="M204.37,289.62a2.83,2.83,0,0,1,.9-.36l60.3-1.89a7.85,7.85,0,0,1,3.19.16,3.74,3.74,0,0,1,2,2.25c.25,1.32-1.09,1.73-2.17,1.81-4.06.3-8.12.57-12.19.72-14.24.54-28.47,1-42.71,1.55-2.51.1-5,.37-7.53.44s-2.72-.33-3.07-4.13c1.42,3.44,3.58,2.78,5.72,2.69,13.16-.55,26.33-1,39.49-1.5q8.43-.32,16.86-.75c1.38-.07,2.75-.32,4.24-.51-.77-2-2.14-1.49-3.24-1.46q-12.57.3-25.13.73c-10.65.38-21.29.88-31.94,1.25a34.67,34.67,0,0,1-4.74-.44Z"></path><path d="M269.58,301.57c-21.47,2.55-43.13,2.34-64.95,3.78-.3-1-.6-1.89-.89-2.82,1.55,1.64,3.26,1.43,5.12,1.33,10-.54,20.1-.88,30.14-1.4,8.73-.46,17.45-1,26.17-1.62a5.33,5.33,0,0,0,3.12-1.2,9.09,9.09,0,0,0-2.12-.47q-28.17,1.08-56.35,2.22c-1.44.06-2.88,0-4.31-.05-.28,0-.56-.28-1.54-.82,1.3-.16,1.9-.28,2.51-.31L265,297.87a17.14,17.14,0,0,1,2.15,0C269.35,298.06,269.54,298.34,269.58,301.57Z"></path><path d="M205.5,311.55c.22-.3.43-.86.66-.88q16.46-.89,32.91-1.7c.6,0,1.33-.2,1.76.06.83.51,1.89,1.17,2.12,2,.38,1.36-.9,1.77-2,1.91-3.91.46-7.82.94-11.74,1.29-6.66.59-13.32,1.1-20,1.59a19.78,19.78,0,0,1-3.92-.18c-1.28-.17-1.68-1.15-1.75-2.34-.09-1.52.85-1.78,2-1.78-1,2.25-.84,2.7.94,2.94a10.3,10.3,0,0,0,2.15,0q15.68-1.34,31.35-2.72a5.17,5.17,0,0,0,1.41-.59,5.4,5.4,0,0,0-3.11-.76c-8.21.39-16.43.87-24.65,1.22C211,311.74,208.22,311.58,205.5,311.55Z"></path><path d="M169.11,215.93a2.7,2.7,0,0,1-2.84,2.58,2.41,2.41,0,0,1-2.28-2.66,2.56,2.56,0,1,1,5.12.08Z"></path><path d="M178,213.13a2.82,2.82,0,0,1,2.42,2.6,2.77,2.77,0,0,1-2.9,2.48,2.36,2.36,0,0,1-2.1-2.74A2.47,2.47,0,0,1,178,213.13Z"></path><path d="M193,214.6c0,1.6-.84,2.75-2.12,2.81a2.54,2.54,0,0,1-2.56-2.46,2.28,2.28,0,0,1,2.43-2.48C192.1,212.5,193.07,213,193,214.6Z"></path><path d="M156.1,343.09v5.2c-1.58-.3-1.58-.3-2.89-5.1-1.32-1.13-3.69.51-4.67-1.63.9-1.72,2.35-1.09,3.58-1.19a48.36,48.36,0,0,0,5.67-.51,3.45,3.45,0,0,0,3-3.18,3.8,3.8,0,0,0-2.39-3.71,14.87,14.87,0,0,0-3.78-1c-1.05-.19-2.18-.07-3.2-.35-3.27-.9-4.72-4.16-2.93-7a30.57,30.57,0,0,1,3.89-4.26c-.17-5.09-.17-5.09,1.07-6.47,2,1.58.64,4.14,1.72,5.89,1,1.15,3.6-.3,3.78,2.67-1.12.08-2.14.13-3.16.24a6.31,6.31,0,0,0-4.66,2.35c-1.51,2-1,3.72,1.41,4.29,1,.25,2.15.2,3.2.39a12.63,12.63,0,0,1,3.45.84c2.48,1.26,4.28,3.21,4.11,6.19-.16,2.82-2,4.51-4.54,5.44C158,342.49,157.18,342.73,156.1,343.09Z"></path><path d="M459.3,168.46c5.52.75,7.23,2.67,7.22,8,0,4.57-1.2,8.63-4.53,12.09-1.95,2-3.25,4.68-4.82,7.07a15,15,0,0,0-.76,1.62c-.49,1-1.09,2.25-2.3,1.69-.74-.34-1.19-1.61-1.48-2.55a19,19,0,0,1-.41-3.37c-1.89.79-3.49,1.54-5.15,2.13-5.55,2-8.35,1.12-11.86-3.47-1.68,0-2.45,1.2-3.15,2.46s-1.24,2.59-2,3.81a36.23,36.23,0,0,1-2.62,3.17,23.49,23.49,0,0,1-1.36-4c-.76-6.05-1.44-12.1-2.08-18.16a28.2,28.2,0,0,1-.07-4.31,10.94,10.94,0,0,1,4.8-8.8A34,34,0,0,1,447,159.19c5-.24,8.49,1.89,10.75,6.25C458.24,166.39,458.73,167.35,459.3,168.46Zm-30.49,25.6c1.65-3.46,4.76-4.75,7.83-6.11,3.6-1.6,7.26-3.09,10.75-4.9a69.42,69.42,0,0,0,8.51-5.24,4.82,4.82,0,0,0,1.72-6.34c-.67-1.53-1.23-3.1-1.93-4.62-1.9-4.14-5.28-5.69-9.64-5.23a31.77,31.77,0,0,0-16.39,6.67,7.93,7.93,0,0,0-3.16,6.16C426.13,181.05,427.74,187.43,428.81,194.06Zm31.68-22.73c.4,3.45-.29,6.28-2.85,8.33A32.19,32.19,0,0,1,453,183c-3,1.57-6,2.89-9.06,4.33-2,1-4,1.93-6,2.9,1.53,3,2.9,3.94,5.46,3.32a33.54,33.54,0,0,0,6.7-2.49c4-2,3.93-2.06,5.13,2.11,1.79-2.27,3.4-4.64,5.35-6.7,3.18-3.35,3.77-7.37,3.45-11.66C463.85,173.07,463.15,171.54,460.49,171.33Z"></path><path d="M366.46,8.62c2.5,1.59,2.83,4.74,1,7.65C365.51,13.89,366.2,11.44,366.46,8.62Z"></path><path d="M369.12,18.33c-.63.36-1.12.83-1.32.72a1.85,1.85,0,0,1-.87-1.12c-.05-.2.67-.85.82-.79A6.47,6.47,0,0,1,369.12,18.33Z"></path><path d="M126.61,206.55c.41,6.48-.12,7.39-4.53,8.75a131.84,131.84,0,0,1-23.24,4.42,54.93,54.93,0,0,1-5.72.49c-3.13,0-3.9-.31-4.63-3.31-1.16-4.75-1.94-9.6-2.79-14.42a53.26,53.26,0,0,1-.75-6.42c-.12-2.5.19-2.8,2.63-3.46,7.66-2.07,15.52-2.91,23.37-3.76,2.5-.27,5-.58,7.51-.66,3.45-.1,4.67.83,5.83,4.12a15,15,0,0,1,.77,2.77C125.7,199.57,126.28,204.08,126.61,206.55Zm-3.74,6.56c-3.21-5.31-6.73-8.86-10.79-11-.6.48-1.27,1-1.88,1.51-2.71,2.47-5.57,3-8.78.91-1.25-.82-2.64-1.45-4.21-2.31-2.74,5.24-5.46,10-5.89,16.21A138.13,138.13,0,0,0,122.87,213.11Zm-3-22.28-.37-.73c-10.21.64-20.38,1.61-30.39,4.5a92,92,0,0,0,15.1,9.11c1.48.76,2.85-.05,3.94-1,2.32-2.07,4.6-4.19,6.79-6.39C116.69,194.56,118.25,192.66,119.89,190.83Zm4.6,20.17c-.22-6.36-.2-12.77-2.48-19.42l-8,8.5ZM86.73,196c.89,6.26,1.69,11.84,2.48,17.41l.66,0c1.81-4.06,3.62-8.11,5.46-12.26Z"></path><path d="M376.24,355.14c-1.94,1.72-2.48,4.24-5,5.38a8.88,8.88,0,0,1-.89-2.38,64.65,64.65,0,0,1,0-6.82,6.77,6.77,0,0,0-1-4.05,13.81,13.81,0,0,1,3-17.58c4-3.5,8.78-5.3,13.92-6.26a36.33,36.33,0,0,1,6.07-.63,9.27,9.27,0,0,1,9.36,5.94,35.61,35.61,0,0,1,3,14.32,9.87,9.87,0,0,1-6.57,9.79,37.44,37.44,0,0,1-19.7,2.62Zm-4.14,1.38c.62-.44,1-.57,1.13-.83,1.09-2.49,3-2.74,5.34-2.15a9.55,9.55,0,0,0,1.42.23,34.82,34.82,0,0,0,17.82-2.86,7.4,7.4,0,0,0,4.88-6.57A29,29,0,0,0,399,327.8a5.66,5.66,0,0,0-4.67-3c-7.91-.38-15.25,1.34-21.26,6.79a11.56,11.56,0,0,0-1.88,15,5.74,5.74,0,0,1,1,4A53.68,53.68,0,0,0,372.1,356.52Z"></path><path d="M174.44,167.59c-1.72-1.9-.71-3-.14-4.1,3-5.71,6.07-11.39,9.11-17.08q3.71-7,7.42-13.92a9.49,9.49,0,0,1,1.3-2.12,1.64,1.64,0,0,1,1.51-.35c.33.21.47,1,.41,1.51a5.45,5.45,0,0,1-.75,1.61q-8.45,15.81-16.91,31.61C175.91,165.64,175.24,166.43,174.44,167.59Z"></path><path d="M193.65,147.06a5.14,5.14,0,0,1,5.06,5.35A5.26,5.26,0,1,1,188.2,152,5.08,5.08,0,0,1,193.65,147.06Zm2.65,5.25a3.12,3.12,0,0,0-2.73-2.86,2.92,2.92,0,0,0-2.91,3,2.74,2.74,0,0,0,2.86,2.61A2.85,2.85,0,0,0,196.3,152.31Z"></path><path d="M175.57,137.77a5.27,5.27,0,0,1,5,5.46,5.05,5.05,0,0,1-5.28,4.72,4.88,4.88,0,0,1-4.95-5A5.18,5.18,0,0,1,175.57,137.77Zm-.33,2.64a2.56,2.56,0,0,0-2.45,2.5,2.74,2.74,0,0,0,2.77,2.61,2.6,2.6,0,0,0,2.38-2.91A2.48,2.48,0,0,0,175.24,140.41Z"></path><path class="cls-2" d="M269.7,105.19c-.48-1.56-.93-3-1.42-4.59,2.55-.34,4.8-.6,7-.95,7.23-1.12,13.2,2.09,18.66,6,8.85,6.37,13.09,15.77,13.52,26.25.32,8-2.81,15.48-8.51,21.52-5.53,5.85-12.53,9.2-20.08,11.36-2.4.69-5.17.11-8.12.11.48-2.17.91-4.11,1.37-6.23,9.58.46,17.61-2.56,23.67-9.95a26.13,26.13,0,0,0,5.82-19.8C300.21,113.62,287.33,103.88,269.7,105.19Z"></path><path class="cls-3" d="M268.22,164.36a32.65,32.65,0,0,1-15.48-8.24l4.24-3.46,12.51,6.1C269.13,160.36,268.69,162.27,268.22,164.36Z"></path><path class="cls-1" d="M340,105.46c2.63,8.15,5.28,16.38,7.93,24.61l-.56.51-23.47-13.13C326.67,110.88,333.4,105.84,340,105.46Z"></path><path d="M185.62,250.15a4.65,4.65,0,0,1-9.3-.32,4.65,4.65,0,0,1,9.3.32Zm-1.82-.24c-1.28-.94-2-1.77-2.83-2-1.11-.29-2.33,1.14-2.11,2.29s1,2.11,2.21,1.81C181.91,251.8,182.57,250.9,183.8,249.91Z"></path><path d="M285.68,250.67c-3,0-6,.06-9,0a6.28,6.28,0,0,1-2-.94c.57-.47,1.13-1.33,1.72-1.34,6.22-.12,12.44-.11,18.66-.11a1.8,1.8,0,0,1,1,.26c.34.26.87.82.78,1-.2.46-.7,1.05-1.12,1.08-1.42.13-2.86,0-4.3,0h-5.75Z"></path><path d="M273.48,244.1c.79-.57,1.33-1.29,1.89-1.31,6.46-.23,12.93-.37,19.39-.46,1.13,0,2.55,0,2.37,1.82C294.53,245.17,276.41,245.3,273.48,244.1Z"></path><path d="M290.91,256.37c-.38.49-.68,1.25-1,1.27-4.9.19-9.81.71-15.38-.05.8-1,1.11-1.72,1.45-1.73,4.64-.14,9.28-.2,13.92-.23C290.14,255.63,290.41,256,290.91,256.37Z"></path><path d="M445.7,173.93a3.25,3.25,0,0,1-3.2,3.19,3,3,0,1,1,.52-6A2.66,2.66,0,0,1,445.7,173.93Z"></path><path d="M431.28,177.47a3.18,3.18,0,0,1,3.05-2.92,2.92,2.92,0,0,1,2.94,2.93,3.29,3.29,0,0,1-3.09,2.92A2.78,2.78,0,0,1,431.28,177.47Z"></path><path d="M450.44,167.62a2.83,2.83,0,0,1,2.57,2.89,3,3,0,0,1-2.65,2.87,3.12,3.12,0,0,1-2.6-2.95A2.9,2.9,0,0,1,450.44,167.62Z"></path><path d="M388.92,336.44,385,338.27c.12,1.28.28,3.08.52,5.79-1-1.07-1.69-1.43-1.83-1.93a36.34,36.34,0,0,1-1.12-5.25,9.05,9.05,0,0,1,.44-2.55c.75.18,1.51.34,2.26.54a6.35,6.35,0,0,1,.88.39l2.38-3c2.42,2.49,4.12,7.68,3.44,10.28C389.59,341.08,390.32,338.16,388.92,336.44Z"></path><path d="M380.63,335.9c-1.8.63-3.74,1.11-4,3.75.7.31,1.43.64,2.16.94,2.22.91,3.21,2.33,2.77,4s-2.32,2.44-5.47,2l4.15-2.87c-1.23-.65-2.05-1.17-2.94-1.53-2.8-1.14-3.45-3.24-1.49-5.54a7.92,7.92,0,0,1,2.89-2c.52-.22,1.36.3,2,.48C380.73,335.36,380.68,335.63,380.63,335.9Z"></path><path d="M395,340.91l2.56-3.16c-1.2-.55-2.13-.94-3-1.41-2.28-1.22-2.48-4.92-.31-6.27.88-.56,1.82-.62,2.37.83-.25.26-.52.6-.84.89-1.58,1.44-1.54,2.15.2,3a8.94,8.94,0,0,1,1.92.91,2.88,2.88,0,0,1,1,3.52C398.2,340.77,397.11,341.71,395,340.91Z"></path></svg>