<svg xmlns="http://www.w3.org/2000/svg" xmlns:xlink="http://www.w3.org/1999/xlink" width="335" height="285" viewBox="0 0 335 285"><defs><clipPath id="clip-path"><rect id="Rectangle_731" data-name="Rectangle 731" width="335" height="285" transform="translate(-5305 -12202)" fill="#fff" stroke="#707070" stroke-width="1"></rect></clipPath></defs><g id="Mask_Group_6" data-name="Mask Group 6" transform="translate(5305 12202)" clip-path="url(#clip-path)"><g id="add_on_partnership" transform="translate(-5730.509 -13274.149)"><g id="Group_1699" data-name="Group 1699" transform="translate(425.51 1130.383)"><path id="Path_4607" data-name="Path 4607" d="M-1106.865,3333.264v37.528s-28.017-9.622-26.772,12.509,26.772,14.433,26.772,14.433v38.007h44.206s-8.094-21.163,14.942-21.65,13.7,18.764,13.7,18.764l41.092,2.887V3333.269h-41.092s13.074,16.839-13.7,23.093-14.942-23.093-14.942-23.093Z" transform="translate(1324.026 -3300.131)" fill="#c0d841" stroke="#c0d841" stroke-width="0.569"></path><g id="Group_1698" data-name="Group 1698"><path id="Path_4608" data-name="Path 4608" d="M21.561,317.814V362.2s27.52-8.2,24.282,15.024-24.282,15.7-24.282,15.7v36.194H62.034s.81,31.414,23.472,26.634,12.14-26.634,12.14-26.634h40.47V392.932s-18.623,4.779-26.71-15.707,26.71-21.854,26.71-21.854V317.814H97.648s1.618-28-18.616-23.91-17,23.9-17,23.9Z" transform="translate(-17.726 -289.433)" fill="#e5e5e5"></path><path id="Path_4609" data-name="Path 4609" d="M246.136,393.074a15.918,15.918,0,0,1-6.816,2.548A9.607,9.607,0,0,0,235,397.11a6.844,6.844,0,0,1-2.644.632c-.964.123-1.129.388-.964,1.426a6.969,6.969,0,0,1-1.36,5.1,11.477,11.477,0,0,1-5.476,4.324,5.33,5.33,0,0,1-1.693.284c-.585.02-.887.164-1.02.876a5.689,5.689,0,0,1-2.587,3.426,10.017,10.017,0,0,1-4.871,1.957,14.655,14.655,0,0,1-2.1-.141c-.133,0-.4.326-.378.367.529,1.163-.341,1.814-.906,2.365a14.414,14.414,0,0,1-6.7,3.751,4.327,4.327,0,0,1-.491.123c-.906.164-1.775.141-2.116,1.488a2.946,2.946,0,0,1-2.568,1.934c-1.757.326-3.455,1.141-5.306.856a13.038,13.038,0,0,1-6.684-2.69,11.161,11.161,0,0,1-3.455-5.1c-.171-.49-.341-.856-.887-.265a5.39,5.39,0,0,1-3.812,1.59c-1.757.1-3.512.061-5.268.02a4.1,4.1,0,0,1-3.739-3.262v-.1c.018-.306.057-.632.076-.938a11.54,11.54,0,0,0-1.455.02,7.229,7.229,0,0,1-6.457-1.934A2.925,2.925,0,0,1,161.43,410a.935.935,0,0,0,.057-.347,1.321,1.321,0,0,0-.661-.164,21.432,21.432,0,0,1-3.8.917c-2.1.082-4.21-.164-5.683-2.116a3.077,3.077,0,0,1-.529-2.712c.057-.2.094-.408.151-.612-.246-.041-.529-.2-.737-.1a10.78,10.78,0,0,1-4.532.734,7.32,7.32,0,0,1-6.646-4.892c-.415-1.2-1.02-2.507-.133-3.812-.208-.164-.4-.423-.626-.449a24.5,24.5,0,0,1-3-.244,45.092,45.092,0,0,1-4.91-1.365c-.988-.326-1.228-.244-1.27.815-.057,2.386-.094,4.77-.189,7.156s-.246,4.709-.358,7.074c-.133,2.915-.246,5.831-.358,8.724-.057,1.365-.133,2.752-.171,4.118-.038,1.141-.057,2.3,0,3.445a19.511,19.511,0,0,0,.358,2.569,2.839,2.839,0,0,1-1.455,3.4,11.655,11.655,0,0,1-3.626,1.163c-7.365.876-14.766.244-22.15.408-1.693.041-3.4-.1-5.1-.183-.705-.041-1.4-.1-2.1-.2-.66-.082-.869.284-.775.917a23.7,23.7,0,0,1,.378,2.548,43.413,43.413,0,0,1,.133,4.953,37.224,37.224,0,0,1-.737,5.626,13.8,13.8,0,0,1-2.455,5.158,17.4,17.4,0,0,1-7.137,5.708,14.553,14.553,0,0,1-5.514,1.467,17.689,17.689,0,0,1-4.022-.041,35.438,35.438,0,0,1-5.759-1.529,17.356,17.356,0,0,1-3.777-1.975A18.493,18.493,0,0,1,58.664,450a13.4,13.4,0,0,1-1.789-6.832c0-1.3-.208-2.63-.151-3.935.076-1.488.321-2.977.512-4.444.114-.8-.321-1.019-.887-1.081-1.693-.164-3.4-.326-5.117-.388-3.966-.164-7.949-.265-11.915-.408-1.851-.061-3.7-.123-5.552-.2-1.737-.061-3.455-.1-5.192-.2-1.378-.082-2.739-.224-4.117-.388a3.489,3.489,0,0,1-2.435-3.037c-.076-1.934-.171-3.853-.171-5.784-.018-6.77,0-13.557-.018-20.326,0-1.141-.171-2.283-.171-3.445.018-2.257.094-4.526.171-6.789a5.407,5.407,0,0,1,.208-1.365,1.552,1.552,0,0,1,2.719-.734c.944.917,1.869,1.877,2.869,2.69a7.111,7.111,0,0,0,7.232,1.019,11.867,11.867,0,0,0,6.57-5.973,14.825,14.825,0,0,0,1.06-2.56,18.553,18.553,0,0,0,.721-3.686,24.572,24.572,0,0,0,.171-4.709,16.28,16.28,0,0,0-3.042-8.7,10.775,10.775,0,0,0-7.439-4.241,14.611,14.611,0,0,0-7.534.835,2.9,2.9,0,0,1-3.682-.714,9.4,9.4,0,0,1-1.455-3.139,17.237,17.237,0,0,1-.4-3.833c-.094-4.567-.133-9.134-.208-13.7-.018-1.61-.171-3.2-.171-4.811.018-3.16.076-6.34.189-9.5.076-2.1.151-4.2.378-6.279a22.744,22.744,0,0,1,.887-3.689,6.877,6.877,0,0,1,.642-1.65,2.508,2.508,0,0,1,2.171-1.162c2.058-.1,4.117-.2,6.174-.183q9.8.061,19.6.183c2.1.021,4.192.123,6.269.2.455.02.926.123,1.378.183.718.1.869-.388.718-.938a36.144,36.144,0,0,1-.547-7.686,15.213,15.213,0,0,1,2.02-8.2,16.375,16.375,0,0,1,4.929-5.77,16.116,16.116,0,0,1,6.631-2.813,22.925,22.925,0,0,1,4.21-.55,18.059,18.059,0,0,1,8.063,1.877A13.432,13.432,0,0,1,87.9,297.28a27,27,0,0,1,2.284,3.282,19.9,19.9,0,0,1,2.248,8.215,32.186,32.186,0,0,1-.683,7.889c-.208,1,.264.958.737,1.121a2.1,2.1,0,0,0,.718.021c2.851,0,5.683.02,8.533,0,3.059-.041,6.117-.141,9.17-.183,4.324-.082,8.647-.164,12.991-.183a10.228,10.228,0,0,1,2.833.388c1.737.512,2.322,2.181,2.757,3.792a32.987,32.987,0,0,1,.755,4.545,108.225,108.225,0,0,1,.564,12.864c0,3.262.151,6.524.151,9.785,0,1.467-.228,2.963-.341,4.424-.076.876.114,1.488,1.038,1.773a9.17,9.17,0,0,1,2.568,1.325,2.607,2.607,0,0,1,1.056,1.57,1.572,1.572,0,0,0,1.322,1.65c2.116.693,4.192,1.552,6.307,2.242,2.3.755,4.626,1.552,6.987,2.1a15.659,15.659,0,0,0,8.042-.591c4.985-1.488,9.932-3.139,14.9-4.649,3.266-.979,6.534-1.957,9.838-2.711a47.339,47.339,0,0,1,4.836-.284,17.223,17.223,0,0,0,2.342-.733c1.624-.423,3.243-.835,4.892-1.182,3.668-.734,6.854.917,10.1,2.345,3.342,1.467,6.631,3.078,10.007,4.4a21.586,21.586,0,0,0,6.514,1.488c1.775.123,3.55.531,5.325.734a1.6,1.6,0,0,0,1.171-.326,28.178,28.178,0,0,1,5.816-4.261,10.4,10.4,0,0,1,4.853-1.305,27.857,27.857,0,0,1,7.892.958c.512.141.906-.306.847-.979-.114-1.467-.3-2.963-.358-4.424-.094-2.874-.133-5.749-.189-8.623-.057-2.116-.151-4.241-.171-6.381-.076-5.585-.151-11.146-.171-16.737a3.482,3.482,0,0,1,2.346-3.77,7.873,7.873,0,0,1,2.058-.306c1.693-.041,3.386.021,5.079-.02,2-.041,4-.183,6-.183,2.116,0,4.248.1,6.363.183,2.587.1,5.155.265,7.741.388,1.851.082,3.7.141,5.552.2,2.493.082,4.966.141,7.458.183a1.608,1.608,0,0,1,1.529,1.162,1.738,1.738,0,0,1-.4,1.877,33.374,33.374,0,0,0-2.984,4.039,7.68,7.68,0,0,0-.869,5.708c.415,1.794.793,3.609,1.3,5.382a7.509,7.509,0,0,0,3.266,4.3,19.243,19.243,0,0,0,7.647,2.752,15.019,15.019,0,0,0,8.747-1.162,11.922,11.922,0,0,0,5.324-5.055,18.7,18.7,0,0,0,2.587-8.828,21.986,21.986,0,0,0-.906-7.359,1.795,1.795,0,0,1,1.129-2.364,7.315,7.315,0,0,1,2.266-.423c2.7,0,5.4.1,8.081.183,2.21.061,4.419.141,6.631.183,3.455.082,6.913-.02,10.347.244a32.029,32.029,0,0,1,8.383,1.27,4.359,4.359,0,0,1,2.813,3.853,52.006,52.006,0,0,1,.4,5.689c.094,2.08.189,4.179.171,6.28-.018,3.363-.133,6.727-.171,10.092q-.114,8.9-.189,17.818c-.076,8.827-.171,17.675-.171,26.5,0,5.259.264,10.519.32,15.779.038,3.363-.094,6.727-.171,10.092-.057,2.752-.018,5.5-.208,8.215-.171,2.222-.626,4.4-.964,6.605a7.821,7.821,0,0,1-.4,1.59c-.491,1.27-1.4,1.508-2.3.591-.812-.835-1.662-.164-2.493-.183-.737,0-1.473.326-2.21.347-5.986.1-11.992.164-17.977.2-2.36.02-4.722-.1-7.081-.183-2.813-.1-5.643-.224-8.465-.423a2.013,2.013,0,0,1-1.3-.958,1.573,1.573,0,0,1,.284-1.9c.4-.423.831-.8,1.27-1.182a11.253,11.253,0,0,0,3.644-6.075,8.2,8.2,0,0,0-.491-4.852,10.875,10.875,0,0,0-3.266-4.586,19.946,19.946,0,0,0-7.987-4,4.16,4.16,0,0,0-2.926.164c-1.662.775-3.342,1.529-5.023,2.283a10.373,10.373,0,0,0-5.006,5.4,24.341,24.341,0,0,0-1.964,5.177,10.4,10.4,0,0,0,.846,5.926,9.638,9.638,0,0,1,.3,4.138c-.018.815-1.473,1.672-2.549,1.693-2.077.02-4.173,0-6.25.02a3.769,3.769,0,0,0-.831.164,24.279,24.279,0,0,1-3.135.775c-1.511.183-3.021.183-4.551.224-4.871.082-9.743.224-14.615.164-2.53-.041-5.063-.49-7.59-.734-.547-.061-1.095-.164-1.642-.183-1.511-.061-2.077-.611-2.116-2.257-.018-.693.151-1.387.171-2.08.018-6.055-.018-12.133.018-18.185.018-3.465.094-6.913.171-10.377.038-1.631.114-3.262.189-4.912.038-.917.094-1.834.189-2.752s-.4-.815-.906-.611a3.439,3.439,0,0,1-.793.512M127.671,334.544c-.057-1.243-.151-2.487-.171-3.73-.038-2.116.094-4.239-.057-6.34a11.829,11.829,0,0,0-.906-3.486,1.6,1.6,0,0,0-1.322-.754c-1.851.164-3.668.632-5.514.693-4.059.164-8.119.2-12.16.2-2.813,0-5.626-.1-8.439-.183-1.888-.041-3.755-.123-5.643-.183h-.264c-1.129,0-2.266.061-3.386-.02a2.246,2.246,0,0,1-1.473-.55,2.116,2.116,0,0,1-.227-1.609,26.016,26.016,0,0,0,1.095-7.5c-.094-2.222-.435-4.424-.705-6.631a5.893,5.893,0,0,0-2.1-3.853,24.157,24.157,0,0,0-6.7-4.263,12.9,12.9,0,0,0-3.982-1.141,12.81,12.81,0,0,0-7.27,2.507,10.049,10.049,0,0,0-4.494,5.85,42.931,42.931,0,0,0-2.133,9.419,14.989,14.989,0,0,0,.171,4.852,1.888,1.888,0,0,1-2.493,2.446,2.616,2.616,0,0,0-.683-.1h-34c-.869,0-1.228.388-1.228,1.325.057,4.118.114,8.215.189,12.333.057,2.813.094,5.606.189,8.42.094,2.874.246,5.749.358,8.647.133,3.015.264,6.014.358,9.029.018.755-.114,1.508-.171,2.257a2.326,2.326,0,0,0,.114.612c.208-.1.512-.141.585-.306a6.192,6.192,0,0,1,4.135-3.386,10.979,10.979,0,0,1,7.081.326,14.19,14.19,0,0,1,8.607,8.4,35.754,35.754,0,0,1,2.284,11.662,28.805,28.805,0,0,1-.529,5.81,16.668,16.668,0,0,1-3.342,7.581,16.145,16.145,0,0,1-6.723,5.137,10.788,10.788,0,0,1-11-1.957c-.189-.164-.626-.326-.66-.265a1.8,1.8,0,0,0-.341.9c-.076,6.239-.133,12.459-.189,18.695v2.963c0,2.3-.018,4.628,0,6.931a15.242,15.242,0,0,0,.189,2.257c.228,1.631.246,1.57,1.869,1.529,2-.061,4-.061,6.023,0,3,.082,6,.265,9.007.367,2.266.082,4.551.123,6.816.2.906.041,1.834.082,2.739.2,2.21.306,4.419.591,6.608.979,1.605.284,2.624.326,2.511,2.834-.133,3.057-.189,6.135-.171,9.194a12.143,12.143,0,0,0,.529,3.281,13.532,13.532,0,0,0,4.588,6.542,16.772,16.772,0,0,0,10.649,4.077,16.131,16.131,0,0,0,4.779-.754,13.3,13.3,0,0,0,7.27-4.892,17.351,17.351,0,0,0,3.052-9.69,19.216,19.216,0,0,0-1.473-8.236c-.564-1.448-.038-3.323,1.869-3.18,2.248.183,4.494.306,6.741.388,2.3.1,4.608.141,6.913.2,2.455.061,4.91.164,7.365.183a67.689,67.689,0,0,0,11.839-.564c1.869-.306,2.228-1.081,1.246-2.813a2.116,2.116,0,0,1-.341-1.386,10.087,10.087,0,0,0,.171-2.712c0-2.711.094-5.423.171-8.135.038-1.122.114-2.222.171-3.344.114-2.2.246-4.383.358-6.584.076-1.508.094-3.015.189-4.505.057-1.018.264-2.039.3-3.078.018-.388-.094-.856-.755-.55a12.829,12.829,0,0,1-6.913,1.27,15.872,15.872,0,0,1-6.816-2.345,35.819,35.819,0,0,1-8.686-7.356,3.624,3.624,0,0,1-.926-2.427,3.733,3.733,0,0,0-.358-1.488,14.264,14.264,0,0,1-1.284-5.892,35.556,35.556,0,0,1,.737-7.216,26.9,26.9,0,0,1,4.091-10.5,14.3,14.3,0,0,1,6.874-5.22,12.7,12.7,0,0,1,6.307-.448,37.662,37.662,0,0,1,7.61,1.916c.944.347,1.411-.041,1.411-1.1-.114-7.156-.114-14.353-.114-21.753m190.563,94.336a6.829,6.829,0,0,0,1.095.183c2,.082,4,.141,6,.2,1.757.061,3.512.141,5.268.184,2.511.082,5.023.164,7.534.183a49.009,49.009,0,0,0,4.91-.2c2.133-.2,4.267-.512,6.419-.755.705-.082.906-.611.944-1.243.094-1.9.189-3.792.171-5.689,0-2.283-.151-4.567-.171-6.849-.076-9.134-.114-18.266-.189-27.379-.018-2.671-.171-5.361-.171-8.032,0-2.977.133-5.926.171-8.909.076-5.5.114-11.028.189-16.534.018-1.122.114-2.222.171-3.344.189-3.894.435-7.788.529-11.682.057-2.712-.094-5.423-.171-8.135-.018-.979-.076-1.975-.189-2.963-.208-1.631-.547-3.243-.683-4.852-.076-.9-.435-1.121-1.151-1.141-3.4-.061-6.77-.123-10.178-.2-.944-.02-1.888-.123-2.833-.183-3.23-.2-6.439-.388-9.667-.591-1.095-.061-2.19-.123-3.286-.2a19,19,0,0,1-2.644-.224c-.4-.082-.718-.141-.847.244a1.308,1.308,0,0,0,.114.917,12.737,12.737,0,0,1,.755,11.146,22.643,22.643,0,0,1-2.662,5.158,14.608,14.608,0,0,1-3.739,4.016,28.8,28.8,0,0,1-9.536,4.22,20.571,20.571,0,0,1-7.061.367,21,21,0,0,1-7.55-2.546,12.133,12.133,0,0,1-5.25-5.643,25.078,25.078,0,0,1-2.058-7.5,12.8,12.8,0,0,1,1.834-8.827c.151-.244.264-.53.4-.8a3.687,3.687,0,0,0-.869-.306c-3.512-.082-7.025-.141-10.536-.2-3.059-.061-6.117-.123-9.17-.2-1.246-.041-2.493-.164-3.739-.183-3.322-.082-6.665-.141-9.989-.2-.642-.02-.926.326-.887,1s.171,1.305.171,1.975c.076,5.443.094,10.886.208,16.35.038,2.487.3,4.974.341,7.462.057,4.424.057,8.868,0,13.292-.018,1.834-.964,2.569-2.379,1.957a11.064,11.064,0,0,0-8.081-.1,24.256,24.256,0,0,0-10.14,7.054,51.631,51.631,0,0,0-3.606,4.811.918.918,0,0,0-.094.347c0,1.121-.057,2.243,0,3.363a23.584,23.584,0,0,0,2.36,9.011,10.057,10.057,0,0,0,7.289,5.973,12.117,12.117,0,0,0,8.59-2.1c1.378-.856,2.681-1.834,4.039-2.711a1.86,1.86,0,0,1,2.455.714c.6.775.3,1.552.284,2.365q-.114,6.514-.189,13.028c-.076,7.134-.133,14.29-.189,21.427v2.242a3.092,3.092,0,0,1,0,.591c-.228,1.018.076,1.467,1.02,1.488,2.757,0,5.532-.02,8.289,0l18.341.184h.635c2.851.123,5.7.265,8.554.388.547.02.66-.244.378-.775-.473-.9-.944-1.794-1.34-2.731a11.873,11.873,0,0,1-.529-7.5,20.329,20.329,0,0,1,2.153-5.3,19.691,19.691,0,0,1,4.8-5.784,17.765,17.765,0,0,1,6.307-3.16,13.037,13.037,0,0,1,7.534-.306,19.621,19.621,0,0,1,9.969,6.157,13.932,13.932,0,0,1,3.417,10.54,12.179,12.179,0,0,1-2.606,6.28,8.7,8.7,0,0,0-.491.938,12.556,12.556,0,0,1,1.246.244m-98.676-64.14a7.622,7.622,0,0,1-1.813-.224c-2.908-1.059-5.835-2.116-8.7-3.322-2.549-1.059-5.063-2.257-7.572-3.445a11.828,11.828,0,0,0-8.554-.632,3.477,3.477,0,0,0-.847.53c.245.183.473.347.718.53.133.1.284.183.435.284,3.243,2.039,6.439,4.118,9.743,6.055,2.3,1.365,4.739,2.446,7.081,3.751,2.21,1.243,4.608,2.1,6.382,4.179a4.457,4.457,0,0,1,.435,5.137,8.01,8.01,0,0,1-6.987,3.935c-1.719.041-3.455-.061-5.173-.183a27.256,27.256,0,0,1-4.477-.613,66.152,66.152,0,0,1-7.137-2.181c-1.693-.652-3.286-1.672-4.947-2.466-1.056-.49-1.982-1.448-3.266-1.182a14.852,14.852,0,0,0-2.624.734c-2.02.815-4.022,1.672-5.986,2.589-2,.938-4,1.9-5.91,3.015-2.417,1.387-4.683,3.059-7.119,4.383-4.551,2.446-9.17,4.75-13.8,7.054-1.693.835-3.512,1.411-5.23,2.181a4.862,4.862,0,0,0-2.587,1.795c-1.228,2.019.547,5.1,2.3,5.809a6.743,6.743,0,0,0,4.419.388,12.135,12.135,0,0,0,5.135-2.222,11.731,11.731,0,0,1,3.4-2.222c2.568-.979,4.644-2.854,7.025-4.179,1.171-.652,2.3-1.411,3.512-1.957a2.1,2.1,0,0,1,1.681.02c.869.468.66,1.754-.341,2.345-4.324,2.61-8.629,5.22-12.991,7.747a4.4,4.4,0,0,0-2.36,2.915c-.264.979-.038,1.795,1.129,2.019a14.587,14.587,0,0,0,3.135.2,15.6,15.6,0,0,0,6.4-1.957c1.757-.876,3.437-1.9,5.173-2.813,1.455-.775,2.926-1.508,4.4-2.257.642-.326,1.27-.408,1.737.265.491.714.057,1.223-.415,1.672a3.212,3.212,0,0,1-.775.591c-2.116,1.122-4.267,2.162-6.307,3.386a15.068,15.068,0,0,0-3.021,2.487,2.756,2.756,0,0,0-.775,1.9c.114.835.887,1.243,1.719,1.447a7.5,7.5,0,0,0,3.851.164,7.9,7.9,0,0,0,2.322-.775,23.722,23.722,0,0,1,6.043-2.963c1.038-.326,1.455-.2,1.793.591.4.938-.228,1.411-.793,1.754a23.916,23.916,0,0,1-3.527,1.9,5.055,5.055,0,0,0-2.455,2.08c-.415.693-.321,1.2.4,1.489a2.822,2.822,0,0,0,1.473.367c1.511-.244,3.021-.564,4.515-.958,1.19-.306,2.322-.958,3.568-.306a.713.713,0,0,0,.341-.408,3.122,3.122,0,0,1,1.693-2.345,8.686,8.686,0,0,1,6.4-.265,4,4,0,0,0,.491.041l-.057-.55a14.25,14.25,0,0,1-.491-3.262,3.936,3.936,0,0,1,2.889-3.792,22.923,22.923,0,0,1,4.091-.423c.473-.041.869-.041.718-.734a3.3,3.3,0,0,1,1.34-3.588,9.243,9.243,0,0,1,5.664-1.753c.683,0,.964-.1.683-.979a4.771,4.771,0,0,1-.114-2.3,4.879,4.879,0,0,1,2.21-3.16,7.146,7.146,0,0,1,4.248-.938,11.465,11.465,0,0,1,2.681.564c3.755,1,7.516,1.975,11.254,3.038a18.194,18.194,0,0,0,5.344.449c.151,0,.3-.164.435-.265-.133-.1-.246-.265-.378-.306-3.115-1.04-5.079-3.506-6.631-6.36a27.364,27.364,0,0,1-2.908-11.294,19.342,19.342,0,0,1,1.114-8.379c.358-.917.455-2.1,1.455-2.671a.411.411,0,0,0,.114-.408.464.464,0,0,0-.4-.2c-1.057-.082-2.133-.1-3.191-.2-.737-.021-1.491-.2-2.437-.326m-88.614,4.8c-.906,2.813-1.907,5.606-2.7,8.48-.683,2.487-1.151,5.035-1.642,7.583-.264,1.411-.228,2.874-.6,4.239-.284,1.02.284,1.081.755,1.1a29.516,29.516,0,0,1,6.477,1.552,11.127,11.127,0,0,0,5.608.673,39.8,39.8,0,0,0,8.42-2.874c2.058-.938,4.079-2,6.1-3.015,3.135-1.593,6.288-3.139,9.387-4.852,3.04-1.693,5.986-3.607,9.007-5.361,2.473-1.426,4.966-2.813,7.477-4.138.847-.449,1.851-.53,2.719-.917.683-.306,1.737.265,2.077-.958a2,2,0,0,1,3.135-1.081c1.719.958,3.36,2.1,5.1,3.015a55.367,55.367,0,0,0,8.42,3.588,23.964,23.964,0,0,0,9.216,1.713,5.746,5.746,0,0,0,4.117-2.038c.737-.856.755-1.773.038-2.323a16.9,16.9,0,0,0-2.248-1.488c-2.53-1.346-5.117-2.569-7.647-3.935-1.982-1.081-3.89-2.3-5.816-3.506-2.7-1.693-5.457-3.344-8.063-5.22a7.477,7.477,0,0,0-6.76-1.081c-.705.2-1.3.693-2,.938-2.435.9-4.91,1.713-7.327,2.63-3.437,1.305-6.854,2.61-10.234,4.039a34.677,34.677,0,0,1-9.989,2.752,24.2,24.2,0,0,1-9.12-.775,41.477,41.477,0,0,1-10.084-4.2c-.775-.468-1.27-.265-1.624.512-.755,1.552-1.473,3.16-2.19,4.953m-6.174,3.914c.133-.265.246-.55.378-.8,1.529-2.813,3.626-5.24,4.815-8.3.642-1.672,1.529-3.221,2.284-4.852.114-.244.284-.734.208-.775a5.949,5.949,0,0,0-1.693-.958c-.151-.041-.491.693-.737,1.081-.038.061.018.2-.018.284a2.382,2.382,0,0,1-2.568,1.9c-2.946-.652-5.91-1.284-8.856-1.957a9.358,9.358,0,0,0-6.723,1.223,12.274,12.274,0,0,0-5.759,7.662c-.793,2.69-1.246,5.5-1.851,8.256a12.4,12.4,0,0,0,.076,5.708,11.314,11.314,0,0,0,5.721,7.278,17.046,17.046,0,0,0,9.856,2.162c.6-.041.887-.326.831-.958-.038-.591-.171-1.182-.171-1.773a31.883,31.883,0,0,1,1.129-7.788,28.447,28.447,0,0,1,3.078-7.4m101.774,28.541c.6-1.121,1.151-2.3,1.834-3.386.491-.775.057-.876-.473-1.019-3.342-.876-6.7-1.754-10.045-2.63a19,19,0,0,0-6.023-1.1,2.963,2.963,0,0,0-2.455,1.593,1.991,1.991,0,0,0,.455,2.385,33.59,33.59,0,0,0,2.662,2.874,19.156,19.156,0,0,0,6.948,4.567,4.362,4.362,0,0,0,4.853-.9,28.394,28.394,0,0,0,2.248-2.386m-22.318,4.688.705.755a15.413,15.413,0,0,0,5.361,3.976,7.111,7.111,0,0,0,4.324.693,8.073,8.073,0,0,0,3.871-1.713,3.452,3.452,0,0,0,.906-1.814c.038-.183-.718-.632-1.151-.856-1.511-.775-3.1-1.411-4.57-2.243a18.14,18.14,0,0,1-4.644-3.976,1.5,1.5,0,0,0-.737-.408,7.97,7.97,0,0,0-5.853.917c-.683.347-.926,1.04-.6,2.017.415,1.284,1.473,1.773,2.4,2.649m-1.642,3.71c-.455-.55-.887-1.121-1.36-1.631a.544.544,0,0,0-.529-.02c-.512.591-1.038.408-1.605.184a25.665,25.665,0,0,1-2.889-1.2,1.3,1.3,0,0,0-1.757.408,2.9,2.9,0,0,0-.284,1.937,13.1,13.1,0,0,0,2.473,5.911c.906,1.223,1.869,2.569,3.568,2.323a25.415,25.415,0,0,0,4.608-.958,54.338,54.338,0,0,0,5.135-2.181c.171-.082.264-.347.4-.531a3.093,3.093,0,0,0-.547-.224c-.246-.041-.491.041-.718-.02a12.255,12.255,0,0,1-6.49-4M193.194,422.9a8.019,8.019,0,0,0,2.19.141,28.8,28.8,0,0,0,3.512-1.223,1.809,1.809,0,0,0,.455-.347c-.133-.141-.246-.347-.415-.408a10.18,10.18,0,0,1-5.041-4.342,2.5,2.5,0,0,0-1.1-1.04,12.089,12.089,0,0,0-5.173-.693c-1.3.183-1.586.714-1.129,2.1a10.3,10.3,0,0,0,.718,1.631,8.277,8.277,0,0,0,5.986,4.179m-72.66-27.869c.793-.061,1.586-.1,2.36-.2a8.2,8.2,0,0,0,1.378-.388c.133-.041.228-.184.341-.284-.151-.1-.284-.284-.435-.284-1.964.041-3.925.1-5.872.2-.133,0-.264.265-.415.388.151.123.284.326.455.347a20.682,20.682,0,0,0,2.162.225Z" transform="translate(-19.455 -291.263)"></path></g></g></g></g></svg>