<svg xmlns="http://www.w3.org/2000/svg" width="75" height="115" viewBox="0 0 75 115"><defs><style>.a{fill:#d9dafe;}.b{fill:#fff;}.c{fill:#405e73;font-size:7px;font-family:Lato-Bold, Lato;font-weight:700;opacity:0.301;}.d{fill:#b0eec8;opacity:0.426;}.e{fill:#c5cfd5;opacity:0.522;}</style></defs><g transform="translate(-1231 -1074)"><g transform="translate(1183 -229)"><circle class="a" cx="24" cy="24" r="24" transform="translate(48 1303)"></circle><g transform="translate(59.729 1317.221)"><path class="b" d="M3.415,51.2H1.753l1.175-1.175a3.977,3.977,0,0,0,1.136-2.352A8.383,8.383,0,0,1,0,40.609c0-4.99,4.586-10.061,11.769-10.061,7.609,0,11.689,4.666,11.689,9.624,0,4.99-4.123,9.653-11.689,9.653a15.855,15.855,0,0,1-3.943-.5A6.16,6.16,0,0,1,3.415,51.2Z" transform="translate(0 -30.548)"></path></g><text class="c" transform="translate(64.503 1330.059)"><tspan x="0" y="0">SMS</tspan></text></g><circle class="d" cx="8.5" cy="8.5" r="8.5" transform="translate(1238 1172)"></circle><ellipse class="e" cx="13.5" cy="13" rx="13.5" ry="13" transform="translate(1279 1139)"></ellipse></g></svg>