<svg xmlns="http://www.w3.org/2000/svg" width="59" height="59" viewBox="0 0 59 59"><defs><style>.a,.d{fill:none;}.a{stroke:#151515;stroke-width:2px;}.b{fill:#fff;}.c{stroke:none;}</style></defs><g transform="translate(-855 -2592)"><g class="a" transform="translate(855 2592)"><rect class="c" width="59" height="59" rx="7"></rect><rect class="d" x="1" y="1" width="57" height="57" rx="6"></rect></g><g transform="translate(866.688 2603.063)"><path d="M21.938,10.9h6.4a.348.348,0,0,0,.352-.352h0a2.081,2.081,0,0,0-.752-1.61L22.57,4.465a2.258,2.258,0,0,0-1.448-.52h0a.519.519,0,0,0-.52.52v5.1A1.335,1.335,0,0,0,21.938,10.9Z"></path><path d="M18.773,9.563V3.938H9.563a2.257,2.257,0,0,0-2.25,2.25V29.813a2.257,2.257,0,0,0,2.25,2.25H26.438a2.257,2.257,0,0,0,2.25-2.25V12.727h-6.75A3.169,3.169,0,0,1,18.773,9.563Z"></path></g><path class="b" d="M4.288,7.868,3.35,7.6a.185.185,0,0,1-.126-.229L5.323.136A.185.185,0,0,1,5.552.01L6.49.282a.185.185,0,0,1,.126.229l-2.1,7.231a.184.184,0,0,1-.229.126ZM2.534,6.143,3.2,5.429a.185.185,0,0,0-.012-.265L1.8,3.939,3.191,2.713A.183.183,0,0,0,3.2,2.449l-.669-.714a.185.185,0,0,0-.261-.008L.057,3.8a.183.183,0,0,0,0,.269L2.273,6.15a.183.183,0,0,0,.261-.008Zm5.032.009L9.782,4.074a.183.183,0,0,0,0-.269L7.566,1.726a.186.186,0,0,0-.261.008l-.669.714a.185.185,0,0,0,.012.265L8.041,3.939,6.648,5.164a.183.183,0,0,0-.012.265l.669.714A.185.185,0,0,0,7.566,6.152Z" transform="translate(879.582 2620.06)"></path></g></svg>