<svg xmlns="http://www.w3.org/2000/svg" width="354.322" height="54.586" viewBox="0 0 354.322 54.586"><defs><style>.a{fill:#42baba;fill-rule:evenodd;opacity:0.527;}</style></defs><path class="a" d="M77.856,477.377c.325-.04.444-.344.124-.623.151-.139.294.086.441.193.425-.336.3-.606.571-.923A3.063,3.063,0,0,0,81,475.563c.8,1.147,1.631-.036,2.441.22-.063.986-1.253.491-1.358,1.366,1.241-.524,1.972.258,3.345-.85.327.5.54.933,1.109.124a.981.981,0,0,1-.359,1.378c.177.319.373-.1.553.063-.212-.386.51-.868.025-1.221.766.55,1.563-.43,2.339-.353-1.027.619-1.684,1.214-1.914,1.284.319.854,1.637-.529,2.348-.839.043.627.815.373,1.217.248.1-.174-.139-.311.009-.489.116-.086.225-.023.338-.155.036.2-.149.419.1.6a22.943,22.943,0,0,0,2.793-.879c.068.113,0,.243.1.352-.995.355-1.326.816-2.246,1.194.768.476,1.557-.088,2.329.14.271-.47-.341-.109-.435-.443.193-.327.375-.277.564-.422.507.306.132.963.648.914.217-.226.107-.419.345-.644-.108-.1-.223.075-.334.153-.252-.256-.177-1.229-.437-.443-.646-.6.142-.967.575-.908-.563.43.631.369.2.952.292.195.607-.7.9-.573.32.434-.483.839-.8.932-.282.35.261.621-.021.975.4.271.822-.334,1.222.006-.03.537-.451.419-.688,1.038.392.657.821-.321,1.216.256.209-.461-.5-.168-.651-.676a1.827,1.827,0,0,1,1,.038c-.49-.455-.218-.763-.082-1.334.111-.084.222-.019.336-.151.493.2-.285.512.206.715.5-.839,3.094-.483,2.878.484.3-.472.681-.273.684-.793.579.319.183.717.532,1.051-.554-.076-1.121.472-1.672.268.325.508,1.618.455,2.329.164.213.224-.174.5.2.713.48-.418.976-.881,1.672-.266.074-.632.544-.59.251-1.24.32.5.753-.333,1.328.13-.309-.86.92-.447.912-1.053.8.3-.482.77.086,1.089.346-.524.681-.575,1.009-.441a3.148,3.148,0,0,1-.13.86c-1.151.4-2.25.052-3.126.747.249.445.525-.313.772.3,1.478-1.527,2.875.537,4.346-.705,1.386,1.118,4-.382,4.643.873a11.594,11.594,0,0,1,1.33.143c.255-.948,1.006-.336,1.568-.6.037.2-.151.419.1.6.055-.642.849-.724.782-.18,1.242-.837,2.439.17,3.674-.361-.345-.323.279-.581.463-.759.2.271-.474.6-.356.875,1.024.533,2.082-.317,3.121-.438-.046.921,1.2.891,1.438.277.209.432.439.115.654.445.584-1.38,2.829.376,4.132-.864.951,1.284,2.805-1.028,3.546.3-.328-.12-.669.09-1,.17.237.659,1.367-.35,2.226-.107.35.1,1.6.776,1.664.038.231-.294.435.354.654.455.793-.522,1.56-.134,2.353-.722.91.42,2.882.176,4.328.153,37.441,1.1,75.05-1.366,112.67-2.129.311.3.029.569-.149.843-2.77-.906-5.667.6-8.454-.153-.22.5-.365.432-.8.573-.105-.237.191-.1.35-.35-.433-.3-.92.6-1.334-.059-.347.31.045.652-.265.963-1.17-1.2-3.08-.837-4.668-.2-1.253-.206-2.5-.589-3.79.074-.142-.128-.163-.249-.1-.369-1.99.669-4.741-.189-6.044.778-.3-.331-.02-.451-.425-.5-.12.161.1.327.2.491-2.5-.778-4.533.78-7.116-.187-.249.8-1.5.059-2.119.065-1.03.01-1.776.83-2.232.183a2.258,2.258,0,0,1-2.669-.069c-.506.229.255.493-.252.723-.111.283-.689-.394-.423-.5-.621.633-1.191.069-1.8.457-.223-.166-.111-.327.019-.487-.8.655-1.564.227-2.359.585-.06-.913-.058-.1-.649-.493a.636.636,0,0,1-.578.6.968.968,0,0,0-.312-.611c-.547.927-1.607-.306-2.695.7a.491.491,0,0,1-.09-.608c-1.31.308-4.359.1-4.7.686-.673.141-1.309-.657-2.011.224-.6-.57-1.7-.889-1.993-.264-4.177-.382-8.015.474-12.347.155-.216.164-.1.325-.239.489-.334-.348-.456-.214-.98-.6-2.332.86-5.542-.5-8.256.8-.205-.2-.085-.4-.312-.6a8.235,8.235,0,0,1-3.122.306c.037.35.27,1.389-.723,1.722-.287-.476-.028-.774-.635-.959-.155-.375.609-.887.79-.384.422-.6-.726-.822-.658-.229-1.381-.875-2.832.516-4.212-.4-.331.854-1.269.619-1.887-.082-.236.166-.133.327-.017.487-1.246-.365-2.518-.008-3.765-.407-.113.2.009.405-.13.611-1.8-.35-4.315.654-5.651-.42-.109.126.042.241.1.361-1.994-.132-4.009.378-5.99-.275-1.432.615-3.777.2-5.563.2-.431.3.077.564-.355.867-.152.063-.3.126-.446.023.456-1.37-1.362-.546-1.973-.879-.221.673.5.1.652.459.186.506-.513.4-.681.518-.709-1.537-2.221-.472-3.3-1.057-.432.306.076.566-.358.87-.151.111-.29-.143-.444.023-.112-.2.2-.417.35-.627-.323-.3-.659-.273-1,.172-.02.245.363.47-.02.73.216.233.45-.2.66.212-.384.518-.736-.138-1.124.543-.35-.7-.732-.332-1.1-.434-.083-.6.729.092,1.01-.413-.7-.776.313-.331.573-.638-1.055-.818-.974.176-1.987-.39-.195.254.295.47.2.722-.115.119-.221-.046-.331-.107-.177.329-.074.453.212.476-.576.715-1.126.482-1.7,1.179-.337-.229-.529-.239-.425-.707-.481.031-.993,1.066-1.463.678-.253-.231.359-.506.465-.753-.36-.317-.682.317-.572.636-.345.39-.655-.464-1-.073-.121-.235.267-.5-.2-.719-.526.967-2.233,1.3-2.229.38-.484.107-.955-.294-1.455.459-.586-.942-1.506.269-1.761-.623-.614,1.5-2.039-.64-3.012.55-.918-.264-1.855.181-2.771-.195-.3-.323.569-.075.013-.485-1.513,1.233-2.954-.237-4.454.548.179.22.368.08.546.325.089.157-.153.338-.012.489-.665-.059-1.316-.6-1.983-.585-.124.315.18.227.324.342.19.426-.5-.061-.679.537-.028-.319-.138-.438-.431-.455-.6,1.433-1.757-.34-2.68.686-.394-.3-.384-.621.021-.977-.284-.418-.591.052-.883-.176-.12.21.179.392.322.585-.31.539-.6.424-.9.554-.162-.231-.05-.483.24-.749-.788.527-1.557.166-2.337.294-.122-.233.267-.506-.2-.715-.466,1.292-2.818.635-3.581,1.273-.24-.579-1.129-.342-.422-.94-.475-.088-.522.248-.569.659-.467.124-.565-1.116-1.209-.5.214.4.446-.036.66.184-.149.136-.179.26-.118.379-1.112.051-2.206-.551-3.339.529.041-.68-.052-.585-.419-1.181-.348.4.1.724.309,1.068-.613,1.049-1.172-.489-1.782.4-.673-.388.3-.919-.083-1.33-.415.478-.2.908-.363,1.368-.433.478-.431-.432-.661-.187-.112-.195.195-.422.347-.64-.387-.138-1,.281-.79.682-.767-.745-.763,0-1.313-.847-.736.556-.8.375-1.557.153-.1.332.3.621-.243,1l.544.56c.4-.025.2-.659.666-.067.234-.183.13-.338.011-.487.686-.031,2.835-.518,2.422.74.215.266.454-.417.676-.545.373.463.061.9-.356,1.126.229.132,1.364-.036.9-.564.485-.233.953.266,1.451-.491.2.267-.47.61-.352.883.377.459,1.531-.59,1.209.5.278.262.4-.411.233-.506a1.426,1.426,0,0,1,1.214.262c.111-.214-.013-.407.124-.621.265-.233.516.046.781-.187a1.4,1.4,0,0,1-.125.619,4.246,4.246,0,0,1,2.9-.5c.251.323-.346.073-.456.527.325.319.67-.254.991.281a.883.883,0,0,1-1.328-.13c-.354,1.057-1.525-.031-2.232.678,1.467.187,2.778-.21,3.994-.1.269-.468-.341-.113-.433-.449.726-.745.711.986,1.435.241-.218-.1-.442-.088-.66-.185.312-.667.588.1.9-.564.284.183.045.405-.125.619.184.032.375-.183.553.08.2-.851,2.108-.508,3-.344.187.569-.5-.227-.672.292a12.247,12.247,0,0,1,4.552-.216c.111.195-.2.42-.346.634.463.577.833-.3.792-.667.666-.195-.014.721.642.925.623-.327-.428-.535-.089-.846.925-.029,1.868-.847,2.773-.082.353-.883.759-.52,1.354-.822.4.216.118.478.425.7a3.063,3.063,0,0,1,2.122-.5c.155.449-.588.344-.789.413.455.468,1.3.067,1.9-.482.42.258-.1.575.314.833-.317.424-.79.132-.8.658a6.658,6.658,0,0,0,3.583-1.194c.615.325-.411.757.081,1.091a5.54,5.54,0,0,1,3.545.266c.607-.835,1-.2,1.332-.078.225-.262-.146-.48.242-.749.845.743,2.884-.669,2.984.451,1.384-.21,3.307.422,4.338-.333.685.654,1.41-.126,2.088.751.5-.719.964-.126,1.469-.925.4.224.116.484.424.711,2.591-.117,5.193-.541,7.764.155.074-.319.359-.619-.094-.606a14.645,14.645,0,0,0,6.44.017c.527-.329,1.019.55,1.54.432.1-.164-.137-.319.014-.487a2.627,2.627,0,0,0,2.444-.086l.644.709c2.28-.747,4.527-.319,6.775-.04.072-.124.008-.243.123-.369,3.91.438,7.856-.225,11.77,0,.619-.77,3.3-.111,5.007-.149.924-.021,1.657-.5,2.326.109l.464-.491c.428.891,1.452-.35,2.2.476,1.885-.891,4.56.105,6.8-.65l.428.484c2.884-.868,5.7.164,8.587-.768,1.23.753,2.537-.457,3.768.279.769-.715,1.476.145,2.24-.466a15.826,15.826,0,0,0,6.232-.151c4.587.279,9.22-.627,13.805-.363l.465-.476c.2-.122.195.21.1.367,2.453-.418,4.225-.34,6.708-.738l.422.5c.464-.065.2-.887.908-.447.108.239-.189.1-.347.348.3.16.786.05.792-.327,4.521.025,9.01-.1,13.482-.323l13.25-.491c8.856-.224,17.753-.378,26.773-.017l.353-.319c2.429.571,4.946-.434,7.357.476.437-.113.836-.889.9-.12a1.779,1.779,0,0,1,2.016.04l.472-.424a4.3,4.3,0,0,0,2.577-.006c4.087.99,8.3-.252,12.359,1.393l.473-.417a1.645,1.645,0,0,0,2.237.084c.2.235.075.417.3.654.328-.877.687-.271,1.007.027,1.095-.646,2.389-.317,3.821-.168a.512.512,0,0,1,.076.621c.335.153.413-.82,1.023-.214.112-.107-.036-.25-.09-.38.347-.18.654.308,1.023-.214.221.193.1.34-.03.482a2.759,2.759,0,0,1,1.822-.46c.286.655-.385.279-.71.625,1.372-.432,2.728-.548,4.09-.841l.521.69c-.13.537.326-.26-.193-.518.639-.539,1.2-.325,2.059-.659.132.541.934.428.4.793.372.233.4-.669,1.112.17.538-.436-.261-.42-.415-.55.818-.543,1.563.138,2.385-.489.1.178-.129.306-.251.449.213.172.462-.21.652.344-.177-.7.4-.222.829-.728,1.9,1.143,4.161-1.156,5.812.409.4-1.051,1.592-.715,2.3-.858-.055.772-.973.092-1.379.516.172.26.363.164.534.449a19.548,19.548,0,0,1-1.972,1.03c.1-1.256-1.668-.2-2.016-.071a4.548,4.548,0,0,0,4.626-.371c.1.22-.209.373-.37.55.7-.074,2.128.088,2.194-1,.435-.184.262.508.52.694,1.3-.627,2.111-.531,3.557-1.271a7.747,7.747,0,0,0,5.208-.644,3.851,3.851,0,0,0,3.307-.808c2.153.755,5.985-1.89,8.752.193-.646-1.622,1.7-.667,1.589-2.062.588.185,1.271-1.158,1.811-.191a7.069,7.069,0,0,1,7.047.55c.317-.354.662-.7.52-1.135.38-.1.738.149,1.081.665.372-.516.688-.208,1.024-.2.176-.646.485-.514.743-1.1-.2-.351-.457.141-.667-.109a5.8,5.8,0,0,1,5.666,1.063c.249-.862.9-.98,1.617-.705a9.429,9.429,0,0,1,5.125-2.805l.623.839c-.16-.806,1.011-.466,1.513-.845a.532.532,0,0,1-.03.482c1.619-.141,3.133-.136,4.454-1.074,1.7-.05,3.977-.159,5.376-1.4,1.143.266,3.307-.9,4.247-1.349a15.208,15.208,0,0,0,4.206-2.448c-.426-.063-.415-.482-.623-.839.323-.335.6,0,.922-.331-.539-.31-.795.117-1.1-.434-.578.77-1.482-.539-1.708.319-.274.206-.488-.552-.738-.738a9.408,9.408,0,0,1-2.138,0,11.914,11.914,0,0,0,1.889-1.384c-2.663-.023-6.284-.266-9.4.959-.307.105-.594-.1-.874-.392a1.355,1.355,0,0,0,.072.623,2.807,2.807,0,0,0-1.024.191c-.446-1.169-1.8.457-2.436,1.171-.305-.457.19-.782.523-1.129-.317.105-.779-.3-.741-.736.573-.453.66.021,1.053-.676-.237-.4-.569.7-.785-.01-.422.17-.164.461-.491.648a.448.448,0,0,1-.446-.074c.02-.405.518-.728.522-1.131.116-.059.222.036.341-.065-.287.705.687.26,1.111.187.2.239.076.421.3.661.995-.243,1.228-1.468,2.125-1.592.07.461-.789.763-1.085,1.156.4.075,1.259-.071,1.054-.673,1.053.56,2.2-.333,3.312-.782-.643-.47-1.375.39-2.063.627a1.525,1.525,0,0,1,2.509-.55c.9-.527,1.788-.975,2.614-.409,2.744-1.282,5.354-.443,8.08-1.422-.558-.669-1.179-.327-1.72-1.271a1.735,1.735,0,0,1-1.871-.686c-.221.124-.105.306-.252.445-.431-.883-.965-.183-1.422-.611-.211-.323.075-.556.385-.789-.563-.575-1.2-.073-1.781-.3-.438-.361.251-.528-.055-.864-.854-.485-1.364.373-2.393.443-.259-.707.914-1.059,1.324-1.359a1.03,1.03,0,0,1-.535-.457c-.113.1.036.248.091.38-.461.243-.694-.308-.922.333-.2-.239-.072-.421-.3-.661a3.23,3.23,0,0,1-2.243-.136.673.673,0,0,0-.06.963.9.9,0,0,1-.7.373,6.583,6.583,0,0,1-.353-1.525,3.112,3.112,0,0,0,2.587-1.756,8.464,8.464,0,0,1,4.143.34c-.308-1.019.707-.556,1.263-.394.136.535-.582-.113-.8.227.56.617,1.221-.35,1.827-.419.407.386-.286.558.295.661.17-.808,1.7-.621,2.5-.3.695-.671,1.456-.214,2.389-.443.118-.812-.8-.289-1.1-.432.787-.382-.724-1.04.619-.031.974-.877,4.151.554,4.489-1.538.808.4,1.16-.634,1.813-.172,0,.42-.452.223-.387.787,1.82-.594,3.633-1.6,3.814-3.234-.406-.436-1.14-.919-.918-1.506-.939-.694-2.455-.726-2.67-2.3-.473.611-1.284.222-1.415.973.141.147.3-.065.462-.164.2.5-.063.31-.372.547-.268-.51-.558-.675-.861-.638-.31-.338-.176-.6.165-.826-.284-.126-.557-.052-.58.264-.661-.969-2.267-.407-3.373-.1-1.195-1.28.88.105-.442.793l-.209-.283c.572-1.223-1.617-1.112-.95-1.888-.2-.378,2.993-.119,2.8-.6-1.965,1.085-3.123.447-5.022,1.089-.061-.134.015-.243-.09-.382a3.19,3.19,0,0,0,2.1-1.1c-.275-.411-.6-.021-.876-.392.112.531-.192.61-.58.264a1.548,1.548,0,0,1-.061.969c-.639-.374-2.115-.122-1.861.9-.288.348-.086-.774-.533-.457-.058-.256.453-.187.268-.686-.447-.147-.883.734-.745,1.091-.307.132-.22-.673-.5-.94-.61.262-.244.69-.624.99-.3.235-.366-.438-.192-.522-.458-.3-.381.489-.491.65a1.379,1.379,0,0,1-.623-.839c.29-.411.54-.228.82-.47-.645-.526-.977.31-.954.814-.793.01-1.509-.04-2.082.866-.561-.42.1-.632-.162-1,.46-.132.912-.155,1.367-.256a.964.964,0,0,1,.093-1.449c-.275-.294-.556-.048-.579.267-.032-.592-.53-.117-.622-.839-.644.568-1.211.468-2.052.386-.145-.373.623-.541.788.011.12-.061.07-.151.017-.241l.236-.2c-.418-.5-.893-.128-1.352.013-.2-.522.072-.965-.13-1.487-.258.478-.262.243-.715.612-.4-.353-.257-.613-.5-.94-.292.157-.243.367-.371.547-.3-.294-.009-.491-.4-.8a4.7,4.7,0,0,1-2.019-.1c-.27-.585.278-.268.608-.749-.313-.376-.7.308-.995-.29-.006.2-.264.359-.148.585-1.607-.7-3.318.233-4.931-.342-.124.141.088.34.191.52-.279.271-.557.512-.818.476-.346-1.98-2.206.2-3.134-.283.361-1.686,1.541-1.042,2.469-1.661-.463-.455-1.071.329-1.2-.566l-.714.611c-.267-.248-.193-.441-.3-.661.3.065.628-.438.908-.09-.139-.562.293-.266.387-.791-.46-1.022-1.118,1.063-1.575-.017-.533.6-1.09,1.2-1.577,1.81-.431-.4-.18-.682.062-.967-.334-.669-.732-.273-1.1-.428a.809.809,0,0,1-.507.893c.214.174.463-.2.654.352a.828.828,0,0,1-1.114-.185l-1.071.921c-.146-.741.237-.547-.519-.7-.514-.409.282-.6-.162-1-.212,1.156-.814.705-1.562,1.573a12.309,12.309,0,0,1-1.977-.814c-.567,1.08-1.226,1.208-2.022,1.743-.49-.405.407-.585.284-.929-1.024-.042-2.116,1.46-2.617,2.253,1.035.43,1.418-1.139,2.11-1.361a.508.508,0,0,1,.074.621c.28.267.753-.428.492-.652.9,1.085,2.832-1.563,4.055-.065-.834,1.313-2.546,1.158-3.655.864-.776,1.582-2.352,1.237-3.789,1.208a4.645,4.645,0,0,0,.8-2.064c-.331.466-.61.185-.937.577-.942-1.447-1.408.522-2.316-.747a7.011,7.011,0,0,1-1.722.569c.294.254-.079.394.074.623-.31.134-.6-.053-.923.338-.487-.527.15-.724.49-.654-.083-.566-1.392-.038-1.381.51-.444-.111-.919.313-1.323-.459-.627-.155-1.335,1.009-1.946.541-.379-.753.321-1.332.685-1.965-.812-.021-1.2.934-2.289.608-.378-.526-.157-.6-.639-.591-.389.4.686.26.3.657a1.317,1.317,0,0,0,1.008.04c.137.648.041.571.64.594.1.178-.13.3-.253.445-.312.172-.553-.736-.861-.627-.008.2-.265.363-.149.585-.385.141-.742-.16-1.114-.18-.151-.346-.036-.455.252-.445.221-.094.086.216.309.415.073-.354.254-.69-.043-1.1-1.607,1.716-3.092,1.462-4.635,2.181-.159-.189-.315-.376-.195-.522a2.915,2.915,0,0,1-2.078.887c-.073-.638,1.149-.795,1.084-1.168.289.577.582.325.12-.1a7.947,7.947,0,0,1-3.4.432c-.334-.87,1.194-.386,1.2-1.277-.434-.025-.566-.3-.8.239-1.445-.824-4.15.732-5.676.818-.315-.375.9-.508.284-.933a1.468,1.468,0,0,1-1.3.894c.327.17.65.413,1,.281.062.13-.015.239.088.378-.7.346-1.312-.619-2.035.166-.2-.233-.073-.417-.3-.656-.557.5-1.052.036-1.591.237a.511.511,0,0,1-.075-.621c-.249-.224-.541.292-.772-.245-.24.126-.144.3-.029.483a22.534,22.534,0,0,0-5.5-.243c-.155-.271-.033-.495.268-.692-.332-.105-.683.136-1.013-.034-.552.243.205.682-.28.933-.492-.564-1.024-.422-1.573.006-.3-.292-.013-.491-.4-.795-.209.252.05.577-.162.829-.591-.772-.515,0-1.352.036-.3-.289-.009-.489-.4-.793a.52.52,0,0,0,.075.623c-.717.268-2.209-.732-2.156-1.552-1.069.325.816.828.136,1.487-.383-.065-.255-.376-.743-.724-.54.4-1.143-.134-1.4.762-.49-.053-1.049-.038-1.191-.793l-.593.52c.382.7.166-.495.55.206-.338.866-1.955.013-2.956.526.178-.468.095-.889.622-1.005-.746-.764-.942.82-1.736.841-.475-.837-1.036-.218-1.575.015-.591-.757-1.244-.516-1.888-.4-.138-.547.593-.117.814-.491-.208-.4.34-.68.179-1.07-.641.652-1.529.665-2.108,1.4-.171-.252-.451-.078-.877-.373-.216-.74,1.341.027.5-.9.362-.445.66.227,1.025-.216-.308-.617-1.282.266-1.2-.543-.381.388-.773.153-1.383.526.066-.984-.643-.09-1.19-.783-.714.633-1.369.338-2.064.671-.031.495.519.929.864.615-.093.833-1.059.231-1.472.149a.763.763,0,0,1,.385-.8c-.065-.405-.386-.457-.39-1.032-.077,1.085-.667.214-1.291.908.223.671.527-.025.759.478-.375.01-.773.4-1.115-.164-.1-.248.194-.08.356-.313-.152-.258-.471-.18-.312-.411-.4-.422-.181.77-.565.038.1.422.3.856-.071,1.208-.537-.067-.016-.411-.4-.789-.315.239-.211.537-.161.829-.19.017-.365-.2-.565.042-.563-.608.384-1-.02-1.588a1.645,1.645,0,0,0-.28.936c-.4.493-.713-.627-1.131.086-.4-.342-.259-.606-.507-.923-.515.432-.98.063-1.46-.082-.3.806-1.125.474-1.708.369-.3-.287.6-.4.043-.726-.526.692-1.071.248-1.813.233-.473.22.183.594-.161.833-.656.053-.09-.734-.614-1.064-.3,0-.418.109-.474.422-1.037-1.481-2.275.441-3.348-.468-.413.768-.654.61-1.406,1.022-.2,0-.323-.514-.761-.472-.1-.625.678-.245.935-.6-.676-.464-1.208-.027-1.709.373-.549-.273-.282-.531-.615-1.057-.45.122-.7-.256-.921.367l-.419-.539c.171.677-1.027.81-1.458-.069-.383.848-.685.436-1.25.2-.471.384.045.149.2.514-.279.289-.522-.046-.789.019-.411-.629-.111-.6.055-.967a1.743,1.743,0,0,1-1.4-1.04c.119-.143.234-.157.342-.075-.054-.468-1.1-.348-1.55-.445,1.161.484.925,1.252,2.047,1.605-1.088.921-1.174-.86-1.984-.745.01.529.827,1.164.694,1.674-.284-.5-1.053-.495-1.285-1.141-.329.484-.358,1.007-.648,1.5.158-.854-.4-.864-.826-1.328-.207-.354.5-.585.054-.969-.209.369-.315.361-.277.938-.3-.008-.7-.506-.461.185-.332-.048-.649-.424-.969-.738,0-.376,1.021.076.83-.745-.614.365-3.34,1.124-2.8-.239-.334-.077-.7.466-1.012,0-.516,1.106-1.675.082-2.544,1.16-.171-.824-.877-.373-.615-1.047-.375-.227-.311.6-.829.755-.855-.151-1.7-.579-2.593.061a.451.451,0,0,0-.894-.107c-.3-.678-.66-.3-.974-.722.089.407.259.432.4,1.021-.437.031-.918-.5-1.08-.858-.587-.178-.329.686-1.116-.132-.053.2.118.419-.146.59a1.654,1.654,0,0,1,1.433.535,24.287,24.287,0,0,0-2.458-.285c-.064-.128.012-.243-.093-.375.388-.2,1.072.38,1.145-.359-.573-.441-1.119.485-1.9-.325-.161.166-.32.331-.462.2a.5.5,0,0,0,.08.617c-.51.376-.972-.115-1.476.216-.4-.283-.107-.5-.411-.77-.444.27.218.627-.369.57-.412-.355.281-.575-.3-.636-.322.168.033.409-.145.592-1.692-1.6-3.844-.317-5.237-1.133-.179-.26.335-.451.26-.7-.622-.3-1.314.751-1.9-.311a.513.513,0,0,0,.081.617c-.246.417-.457.107-.7.43-.284-.224-.033-.409.143-.6-.322-.344-.68.015-1.011-.193-.121.151.095.331.2.5-.246.4-.45-.029-.689.193-.03-.2.164-.394-.082-.613l-.475.453c-.306-.266-.014-.487-.415-.761a14.275,14.275,0,0,1-3.288.128l.319.388c-.3-.036-.627.5-.913.178-.284-.224-.036-.409.14-.6-.654-.331-1.858.231-2.172.453-.162-.514-.429-.657-.889-.3.562.493.047.485-.258.718,1.032-.2,1.458.541,2.585.3.126-.22-.105-.1-.213-.26.252-.526.436.334.689-.193.337.623.349.463.855,1.036-1.3-.585-3.125.317-4.042-.52-.075.118-.011.247-.129.361-.438.235.114-.461-.306-.621-.717.973-1.36.35-2.026.153-.208.667-.676.6-1.138.44.175-.482.586-.95.288-1.449.334-.141.9.065.917-.447-.433.071-.443-.044-.65-.514-.2.543-.491.411-.6.824-.381.176-.735-.3-1.131.195-.422-.9-1.432-.447-2.235-.1,0-.74-.4-.69-1-.166a.5.5,0,0,1,.14-.6c-.731-.371-1.513.43-2.249.145-.208.233.271.5-.031.728-.237.331-.419-.638-.67-.029a.5.5,0,0,1-.086-.613c-.355-.12,0,.673-.576.342-.274-.256-.372-.5-.192-.74-.575.338-1.576-.35-1.811.407-.306-.256-.017-.489-.418-.747-.024.753-.588.1-.563.1-.791.076-1.07,1.036-1.917.281-.168.709-1.087.338-1.587.417-.031-.2.159-.4-.086-.612-.369.784-.892,0-1.49.785-.19.5.557.667.767.4.2.111-.529.541-.69.459-.227.571.5.157.66.269.108.208-.2.4-.362.594-.181.063-.616-.787-1.116-.044-.282-.292-.541-.583-.3-.86-.393-.441-.829.2-1.215-.4-.112.319,0,.741-.477.719a3.97,3.97,0,0,1,1.986-2.018,9.087,9.087,0,0,1-1.1-.516c-.172.237-.233.734-.574.352-.118.2,0,.4-.137.6-.509.319-.278-.293-.757-.629.063,1.022-1.918,1.131-2.132.067-.017.6-.474-.01-.807.587.354.443.751-.172,1.106.275-.024.455-.964,0-1.341-.038a1.153,1.153,0,0,1-.478.718c-.276.277-.25-.384.02-.487-.387-.193-.431.627-.147.848.268-.172.517.143.8-.344.1.245.1.491.2.736-.535.344-1.028-.413-1.564-.04-.1-.474.812-1.351.059-1.46.117.661-.166.333-.585.594-.046-.722.388-.315-.418-.741-.058.47-.1.631-.593.835-.162-.927-.845.31-1.322-.52,1.354-.107,2.427-.852,3.93-.262-.535-.833,1.036-.357.836-1.319-.176-.239-.368-.118-.542-.38-.231.795-1.157.2-1.335-.277.3.705-.54.627-.164,1.332-.3-.044-.613.35-.9-.021-.216-.4.9.059.138-.606.245-.537.435.313.681-.224-.207-.212-.082-.409-.311-.617-.673.8-.845.164-.994-.392-.041,1.017-1.448.323-2.149.55-.247.457.028.321.312.617-.767.808-1.984.027-2.383.791-.447-.3.08-.566-.079-.854a4.513,4.513,0,0,1,1.789.046.858.858,0,0,0,.039-.973c-.158.248-.3.128-.446-.013a.556.556,0,0,0-.022.489c-.606-.745-2.3-.033-2.713.661.308-1.229-.8-.61-1.061-1.493a.414.414,0,0,1-.566.109c-.227.654.5.134.653.5.18.51-.476.833-1.069,1.554-.5-.68.493-.688.5-1.2-.548-.48-.441.052-1.021.338.183.289.051.571.079.854-.269.18-.507-.39-.789.1.466.5.99-.51,1.44.4.579-.495,1.156-.913,1.712-.808.191.3-.513.191-.68.226-.222.434.572.453.448.011.1,2.387-3.206.333-4.972,1.087.161.168.321.335.2.493.247.363.539-.363.78.143.052.346-.844.776-1.129.212.218.575-.752,1.345-1.146.72-.13-.132.68-.524.9-.235-.136-.72.258-.713.388-1.334-.481-.287-.328-.459-.867-.74.807-.275,1.265.231,2.267-.684-.46-.583.054-.575-.634-.99.008.407.417.822-.269,1.212a7.15,7.15,0,0,0-2.238-.032c.277.245.375.489.2.732a2.852,2.852,0,0,0,1,.13c-.031.344-.468.562-.7.726-.223-.166-.11-.329.019-.487-.635-.329-.183.7-.914.478-.033-.365.251-.728.156-1.1-.811.915-2.306.006-3.171.944-.154-.285.14-.568-.3-.856-.421.281-.819-.05-1.256.6a1.092,1.092,0,0,1,.422.734c-.534.285-1.048.057-1.586.47-.244-.485.411-1.4.921-.72-.244-.369.188-.728-.07-1.1-.481.856-.986.516-1.943,1.076.243.5.532-.227.78.13-.037.6-.662.094-1.03.6-.208-.2-.083-.405-.313-.611-.282,1.319-1.308-.04-1.924.589-.295-.9.874-.644.94-1.208-.108-.113-.227.053-.34.12-.491-.247.293-.483-.2-.732-.407.371-1-.034-.806.6-.394.533-.737-.249-1.118-.012-.08-.321.133-.784.465-.483-.066-.843-1.457.678-1.548-.5l-.7.722c.275.2.2.409.314.613-.44.292-.439-.172-.653-.495-.712.971-1.363.044-2.561-.39-.676.678-2.112-.313-3.141.243-.032.577.47.132.77.359-.177.646-1.283.516-1.807.5-.175-.606.7-.01.58-.613-.343-.273-.613-.449-.644-.724-.275.25-.785,1-1.172,1.468-.514.185-.375-.634-.753-.849-.267-.078-1.129.669-1-.117a3.055,3.055,0,0,1-2.586.382c-.506-.363.433-.732-.074-1.1-.654.369.17.73-.374,1.1-.51.365-.528-.613-.862-.969-.306.25-.591-.1-.895.006a.865.865,0,0,0-.412-.971c-.02.181-.152.524-.349.367-.272.344.345.04.43.483-.312.44-.6.04-.894.006-.245.323.411.44.547.361a3.309,3.309,0,0,1-.142.854c-.43.032-.431-.415-.679.247-.473-.547.128-.434.14-.852-.454-.327-.42.289-.579.611-.529.2-1.043-.092-1.567.012-.024-.367.349-.734.375-1.1-.493-.178-.936-1.137-1.542-.718-.424-.74-.516-1.137-1.526-1.21.289.245.673.262.648.728-.349.35-.678.178-1.012.126-.228.247.146.485-.248.732.433-.059,1.239.6,1.342-.01.058.285.168.569-.142.854-.387.069-.251-.68-.786.126-.493-.239.293-.487-.2-.728.069.736-.542.713-1.021.373-.29.47.131.572.431.482-.195.237-.377.113-.573.375-.121-.281-.773-.55-.53-.841-.2-.061-.975.7-.779-.105-.362-.218-.593,1.1-1.143.755-.111-.2.2-.411.355-.617-.557-.063-1.564-.713-1.79.036-.166.107-.952-.088-.431-.474a3.261,3.261,0,0,0-2.65,2.368c-.262.048-.518-.078-.788.138-.432-.4.416-.82-.181-1.212.541-.495.535-.168.892-.021.535-.417.652-.824.265-1.221-.11.122.043.241.1.363-.346.235-.69.537-1.012.143-.25-.336.348-.05.464-.5-.282-.5-.61.352-.888-.225-.23,1.189-1.444.388-2.229-.2-.375.447-.7,1.294.066,1.338-.168-.623.289-.418.68-.258.111.212-.193.231-.339.13.172.547,1.335.115,1.89.323-1.822.9-4.554.319-6.736.875-.108-.16.119-.327.239-.491-.293-.172-.588-.26-.9.264-.162-.776-.45-.1-.88-.47-.324-.273.75-.585.139-.852-.425.8-.646.346-1.46.164-.352.629-.783,1.055-1.35.29-.39.575-.751.193-1.141.77-1.148-1.636-3.309-.285-5.333-1.026.038.535-.485,1.005-.68.268-.46.3-.344.581-.362.868-.15.057-.3.118-.446.013.062-.369-.064-.728.368-1.11-.635-.451-.186,1.024-.9.277-.2.873-.385.575-1.025.646-.22-.277.058-.571.36-.866-1.084.7-2.711.195-3.515,1.707-.536.292-.528-.109-.888-.208-.3-.357.3-.743-.081-1.1a.806.806,0,0,0-.251.986c-.546-.1-.411.283-.911.531-.315-.629.421-1.494.939-1.506-.227-.174-.114-.359.006-.245-.747-.657-1.8-1.363-3.019.027-.4-.306.534-.675.029-.975-.41.709-1.5-.013-2.239.111-.221.212-.11.411-.354.625-.033-.2.153-.413-.092-.6-.411.059-.139.172-.463.51-.089-.157.156-.332.014-.489-.47-.482-.971-.025-.91.533-.105-.157-.217-.18-.332-.105-.107-.157.12-.333.237-.5-1.044.027-2.657-.785-3.357.166-1-.615-.755.26-1.337-.18-.594.99-.945.848-1.717,1.424.253.31.516.161.775.327-.349.447-.667-.182-1.011.172-.109-.155.118-.331.236-.5-.707-.021-1.4-.478-2.11-.489-.108-.157.119-.332.239-.5-.334-.029-.667-.183-1.013.187-.385,1.357-2.587-.348-3.7.6,1.3.117,2.606.132,3.9.365-.456.342-.9.105-1.344.084-.185.589.58.1.773.317l-.691.774c-.209-.189-.087-.4-.318-.59-.945.376-.922,1.506-2.041,1.1-.089-.422.751-.562,1.03-.917-.028-.283-.294-.549-.089-.847-.228.193-.817,1.729-1.709,1.2-.163-.233-.049-.483.244-.745-.456-.4-.9,1.1-1.587.829-.458-.3.329-.671-.2-.961-.118.086-.067.164-.006.241.017.331-.6.1-.469.761-.2-.092-.944-.206-.792.415-.258-.082-.529.237-.78-.073-.016-.445.773-.942.594-1.376a7.23,7.23,0,0,0-1.024.673c-.309-.226-.027-.486-.429-.7a8.331,8.331,0,0,1-2.016.124c-.224-.273.431-.176.577-.646-.855-.315-1.073,1.372-1.912.489-.227.13-.468.808-.686.539-.269.363.345.015.434.457l-.344.39c-.66-.413-1.344.12-2-.338-.014-.623.907-.766,1.234-.212a1.409,1.409,0,0,1,.909-.556c-.365.069-1.223-.764-1.794.132-.447-.333.14-.741-.307-1.072-.447.9-1.773.934-2.821,1.063-.25-.424.35-.17.459-.52-.477.046-.252-.39-.654-.682-.606.409-1.194.122-1.8.621-.811-.69-.814.226-2.04,1.128.489-.109.978-.438,1.458-.231.237-.182.133-.334.014-.489a.809.809,0,0,1,.895-.065c.258.191-.356.352-.454.275.145.38,1.231,1.408,1.775.6.35.7,1.6.548,2.342.191.257.333.119.64.556.08a3.68,3.68,0,0,0,3.455.354c.024.835,1.222.1.87.921.187-.266.561-.258,1.02-.432-.182-.22-.372-.084-.551-.331.228-.13.45-.151.676-.285a.522.522,0,0,1-.125.615c.287.373.593.065.881.434.218-.176.1-.331.237-.5.252.338.5.619.779.075.182.17.361.5.551.33.3.224-.585.524-.02.732.457-.975,2.384-.675,2.8-.05.4.258.141-.386.46-.518.112-.082.222-.011.337-.143.416.258.122.562.537.82.747-.822,2.178-.241,3.242-.08.274-.478.529-.353.8-.657-.552-.5-.451.47-1.011.184.28-.4.2-.29-.087-.847.737-.837,1.369-.455,1.559.147-.309.462-.582-.524-.9.055.5-.017.72.671.306,1.076.709-.05,1.408.264,2.115.25-.218.682-.114.4.428.709-.376.18-.746.008-1.106-.432-.2.252.279.47-.019.73.415-.2.816.147,1.227.063.284-.34-.135-.642-.419-.954.636-.2,1.259.139,1.911-.461.094-.329-.128-.644.028-.975.671-.216,0,.634.533.827.112.226-.189.115-.344.38.635.8,2.127.187,2.875,1.074.917-.826,1.8-.344,2.689-.375.292.61-.625.573-.706,1.254.671.451.861-.86,1,.315a1.311,1.311,0,0,0,.035-1.219,3.2,3.2,0,0,1,2.344.008c.261-.955,1.025-.638,1.581-.568.106.159-.121.333-.238.5-.191.138-.369-.187-.549-.34-.153.13-.182.254-.124.373l-.23.254c.4.288.831-.451,1.219.306-.271.34-.522.048-.785.159-.153.665.651.279.881.445-.754,1.066.86.141,1.435.539-.034-.38.123-1.085.589-1.116-.319.636.275.608.3,1.326.117-.164.23-.193.34-.132-.193-.667.558-.611.708-1.242.3.082,1.234.745,1.9.052.394.315.015.652-.03.978.62.287,1.206.306,1.544.675l.462-.5-.432-.474c-.432.705-.818-.078-1.227-.078.537-.545,1.037.206,1.573-.3-.051,1.487,1.2.589,2.082,1.265-.328-.151-.675.214-1-.086-.047.613.876.35,1.218.323a5.278,5.278,0,0,1,.254-.984c.61-.206.29.625.533.835.157-.258.3-.147.447-.017.035-.763.564-.784,1.118-.04-.319-.793.173-.273.7-1,.621.654-.813.623-.036,1.219.212-.906.63-.678.932-1.25.536.552-.651.6-.479.99.544-.013.66-.025,1.027-.644.494.5-.379.3-.246.74.956.824,1.281-.2,2.251-.568.255.275.12.564.532.833.5-.585.969-.063,1.464-.407.136.321-.1.65-.031.973-.158.237-.3.1-.454.254-.37-.237.031-.489.023-.732-.676.143-.894.59-1.689.424.478.178.949.59,1.443.311.37.331-.61.065-.241.5a7.823,7.823,0,0,0-1.556-.189c-.1.168.136.321-.014.487-.432.273-.122-.459-.541-.589a.419.419,0,0,1-.563.142c-.08,1.521-1.08-.3-1.694.669-.4-.308.112-.745-.425-.713-.334.5.081.969-.268,1.471.287.35.6-.105.886.208.116-.164-.1-.321-.21-.478.386-.44.748-.122,1.118-.04.058.441-.359.222-.469.745-.45.1-.889-.082-1.347.292-.4-.308.113-.745-.425-.715-.759,1.812-3.168.623-4.6.772-.066-.321.457-.667.252-.984a17.722,17.722,0,0,0,4.008.344c.215-.443-.491-.419-.67.027-.333-.407-.792-.271-.311-.841a6.419,6.419,0,0,1-1.124.281c-.087-.319.331-.659-.194-.965-.368.715-.478.489-1.018.4-.419-.268.109-.572-.308-.839a2.749,2.749,0,0,0-2.258.81c.013-.2-.228-.4-.094-.606.325-.35.02.619.447-.015-.656-.451-1.341,0-2-.417l-.808.883c-.216-.319-.222-.646-.642-.953-.475.845.272.789.412,1.2-.424.451-.8-.81-1.227-.078-.513-.462.471-1-.179-1.452-.11.126.041.243.1.361a3.831,3.831,0,0,1-2.567,0c-.466.55.243,1.047.643.944-.418.248-.862,1.433-1.256.912-.19-.451.466-.168.353-.627-.208-.533-.454.325-.663-.208-.263.483.028.633-.585.881q-.384-.347.022-.732c-.605-.462-.572,1.007-1.134.541-.16-.355.628-.761.146-1.1-.431.306-.309.585-.583.879-.152.063-.3.126-.447.023-.014-.394.609-.43.475-1-.569.084-.431-.308-.983-.8-1.037-.394-2.156.29-2.912.386.654-.915-1.786-.409-2.549-.728.062-.65,1.037.042,1.472-.68-.9-.554-1.72.757-2.347-.008-.117.17.1.321.211.476-.315.6-.6.074-.908.535-.812-1.166-1.943.042-2.434-.837-1.035.627-1.635,0-2.479.883.406.015.126.159.433.462-1.25.869-1.576-.478-1.634-1.481-.292.5-.069.978-.263,1.479a4.853,4.853,0,0,1-1.443-.279c-.162-.313.591-.321.8-.658.111.275-1.686-.331-2.006-.118-.261-.1-.244-.757.013-.489,0-.585-.447.019-.671.042-.118.17.1.319.209.474-.916.105-2.3-1.271-3.558-.508l-.544-.575c-.23.254-.444-.149-.677.287-.937-1.231-1.94.141-2.879-1.007-1.021.709-2.017.308-3.006-.386.621-.436.66-.707,1.143-1.059-1.115.12-2.264,1.055-2.8.331.011,1.032-.8,1.58-.514,2.717-.557-.092-1.108-.373-1.663-.485.033,1.082,2.04.239,1.972,1.557-.23.3-.437-.342-.66-.436-.1.77-.911.117-1.36.829a.962.962,0,0,0-.418-1.187c.036.589-.319.743-.809,1.158-.34-.441-.968-1.005-1-.29-.4-.294-.177-.732-.654-.68-.218-.441.048-.325.351-.638a1.742,1.742,0,0,0-1.46.246c-.378-.373.424-.848.028-1.221-.2.206-.375,1.2-.8.678-.071.29-.356.6.093.847-.638.331-.535.214-.8.921-.234.438-.434-.625-.667-.187-.521.512.273.461.431.694-.3.132-.591-.195-.895.076-.221-.3.478-.692.023-.975-.146.541-.8.3-.557-.073-.685,1.011-1.827.661-2.79-.126-.039.287-.316.6-.355.883.472.208.258.243.654.677.3-.227.062-.413-.1-.6.935-.268,1.852.382,2.779.612-.8.5-1.557-.407-2.348.082a3.585,3.585,0,0,1,1.216.5c-.453.327-.887-.275-1.353.606-.222-.306.195-.665-.2-.956-.191.247-.375.138-.569.413-.287-.176-.043-.4.125-.619-.217-.222-.45.216-.663-.187-.124.709-.847.352-.918,1.053-.6-.352.03-.812-.421-1.181a1.117,1.117,0,0,1-1.557-.35c-.7.516-.683-.254-1.343.13-.252-.418.35-.176.458-.531-.624-.459-1.269.139-1.894-.18A1.979,1.979,0,0,0,92.394,446a1.013,1.013,0,0,0-1.136.843c-.5-.195.287-.514-.208-.709-.334-.116-.679.373-1.007-.025-.428.359-.148.621-.571.665-.36-.369.535-.864.474-1.265.269-.388.506.749.779.046-.1-.558-.982-.4-1.453.021-.4-.206-.121-.476-.433-.686-.57.48-1.73,1.087-1.909.549-.194-.107-.211.225-.12.378-.412.128-.826.333-1.224-.239-.272.491-.526.206-.8.7.492-.459.954.736,1.454-.034.321.573-.153.864.646,1.154-.657.887-.836.023-1.005-.019-.452.646.439.39.429.927q.348-.619.671-.063c.3-.493.56-.206.572-.667-.367-.237-.681.119-.547-.554.264-.245.511.461.779.044.19.453-.315.665.32.822-.218-.812.5-.027.894-.086.068.136-.06.867-.346.64.312-.048,1.019.684,1.556.336.4,1.007,1.107.248,1.426,1.2.578-.279.513-.8,1.133-.841.114.191-.2.424-.346.642.468.73.961.21,1.441.47.177-.338.07-.457-.214-.468.321-.636.794-.078.8-.688.033.109.136.761.438.445.217.441-.048.325-.349.644.587.38,1.2-.275,1.773.564.227-1.305.82.518,1.352-.6-.126.772.469.26.541.8-.412.126-.824.321-1.221-.258-.382,1.051-1.424.319-2.117-.174a1.54,1.54,0,0,1-.582,1.154c1.1-1.28,3.177,1.428,4.258-.871.706.059,1.418-.182,2.115.182.177-.336.072-.457-.212-.468l.688-.791a.611.611,0,0,1,.665.185c-.344.422-.671.023-1.02.7.327.3.664.227.993.524l.458-.526a.97.97,0,0,1,.555.075c.221.262-.053.571-.355.883.83.145.465-1.223,1.358-.849a.483.483,0,0,0-.1-.6c.23-.229.456-.365.678-.3-.462,1.108,1.268,1.244,1.857,1.664-.662.357-2.292-.233-2.246.684-.672.075-1.332-.291-2.006-.073-.08.7.808.136,1.107.394-.535.377-.534.105-.913.808-.255-1.036-.651-.063-.865-1.141-.568.495-.318.919-.142,1.349-.433.258-.431-.512-.654-.671-.267.31-.525.193-.8.675-.4-.206-.121-.476-.431-.694-.507.646-.289.052-.78-.053-.529.422-1.044.159-1.576.623-.451-.243.072-.573-.092-.845.549-.252,1.546.239,1.466-.736-.3-.052-.606.438-.906.568a.738.738,0,0,0-.212-.47c-.5.579-.6.629-1.008.208-.646.5.058.885-.588,1.393-.114.088-.224.023-.339.157-.4-.287-.02-.648.021-.977-.285-.558-.6.012-.885-.4-.233.183-.129.336-.009.487-.676.363-1.323-.719-2.018.44-1.209-.3-2.139.329-3.114-.426-.386.652-.749.227-1.124.354-.142.606.015.718-.357,1.133.516.484.524.325.875.889.254-.623.049-.443.466-1.018.489-.216.963.17,1.461-.51.278.42-.494.94-.587,1.4.264.288,1.109-.22.993.51.741.117,1.506-.841,2.229.027-.453.422-.9.239-1.35.617.294.08.6-.088.884.4.13-.526.233-.537.445-.044.876-.959,1.7.277,2.567-.13.444.2-.062.5-.237.755.285.411.594-.063.887.163-.187-.42-.187-.869-.753-1.273a1.4,1.4,0,0,1,.124-.621,2.284,2.284,0,0,1,.779.055c.123.231-.265.508.209.709.285-.226.228-.424.349-.636.149-.115.293.132.447-.04.264.5-.243.308-.24.753-.34.35-.66-.371-1.007.208,3.45.235,6.913-.105,10.355.443.246-1.026,1.354-.587,1.557.128.241-.547-.1-1.047.149-1.592.647-.3.572.688,1.222.273.108.155-.118.332-.236.5.557.1,1.129-.512,1.679-.245-.694,1.37,1.316.627,2.191,1.538.454-.277-.04-.484-.2-.713.9-.019.5.145,1.327.388.141-.214-.285-.386-.1-.6a.607.607,0,0,1,.663.193,1.284,1.284,0,0,1,.464-.764c.5-.424.33.613.894-.069.163.233.049.485-.242.749,1.332.262,1.113.644,2.782.158a.532.532,0,0,1-.126.619c1.059-.783,2.083-.153,3.136-.686a.557.557,0,0,1-.013.491c.409,0,.829-.422,1.251-.933.35.222-.019.732-.019.732s.348.683.717,1.611a3.243,3.243,0,0,1,.272,1.549l-.9,1.948c-.043.982-.782.457-1.107-.174a.86.86,0,0,1-1.142,1.045c-.179-.6.7-.048.574-.646-.18-.222-.37-.084-.55-.331-.172.327.1.6-.35.631-.13-.2.3-.424.126-.617-.7-.273-.939.107-.9.545-.56.247.019-.77-.542-.575.061.591-.429.827-.917,1.038-.183-.711-.346.01-.765-.55-.012.527-.577.52-.9.31-.034-.287.236-.164.127-.617-.191.778-1.915.067-1.7,1.223-.4-.314-.836.8-1.234.455-.309-.512.376-.4.693-1.024-.4-.164-.819.132-1.225-.031-.215,1.554-1.72.938-2.146,1.256.044-.464.591-.69.8-.911.224.145.114.317-.012.487.485.241.354-.388.9-.554-.741-.1-.925.08-1.539-.858-.462.317.044.564-.132.86-.648-.839-3.266.306-4.233.073-.148.092-.932.558-.578.9-.588.592-1.091-.417-1.127.585-.326-.3.05-.654.023-.977.19-.143.366.174.55.321.36-.516-.25-.753.468-1.017-.572.036-.655.394-1.354.847a.77.77,0,0,0-.214-.468c-.377.451.23.281.093.845-.339.26-.666-.155-1.012.453a18.409,18.409,0,0,0,5.114.314c.491.206-.289.508.2.715.422-.034.3-.313.571-.65.439.453-.293,1-.7,1.514-.947.038-1.994-.992-3.224-.111-.334.052-.659-.417-1-.281.3.518.213.451-.451.283-.391.279-.014.489-.24.751-.821-.86-1.028-.128-1.778-.09-.308-.218-.028-.483-.429-.694.037.529-.32.917-.794.676-.306-.218.581-.537.017-.732-.155.266-.3.161-.446.04a1.131,1.131,0,0,1-.349.636,4.976,4.976,0,0,1-2.209-.782c-.208,1.057-.734-.187-1.233.472-.224-.441.428-.187.57-.659a1.709,1.709,0,0,1-1.224-.017c-.226.132-.464.818-.681.552.131.627,0,.571-.58,1.154.856-.224,1.2.512,1.893-.057.4.518-.281.461.093.847a.926.926,0,0,0,.356-1.126c.266-.2.523-.09.79-.434.014.8.733.336,1.109.145.277.5-.485.5-.582,1.149.426.065.447-.151.68-.546a1.335,1.335,0,0,0,1.1.636c0-.325.387-.68.69-1.034.133.394-.042.816.419,1.183.306-.39.594-.013.892-.078-.127.3.14.558.092.845a8.565,8.565,0,0,1,3.559-.061c.687-.841,1.331.189,2.012-.405,1.15,1.177,2.875-.967,3.656.581.234-.466.45-.18.682-.539.287.443.581.439.874.665-.459.331-.82-.139-1.018.684.2-.669-.267-.287-.656-.438-.286.539.143.369.433.453-.535.625-1.046.329-1.564.361-.2-.227.513-.438.673-.292-.174-.619-1.335.132-1.891.017.25.447.522-.136.772.31-1.024-.076-1.419.558-2.356.784-.324-.26.744-.623.135-.864l-.459.523a3.025,3.025,0,0,0-2.795.6c.655-.74-.412-.445-.988-.524-.071.321-.356.635.1.6-.789.994-.883-.411-1.563.378-.312-.338-.144-.719-.088-1.089-.3-.159-.806.705-.8.923-.466.338-1.322-.68-1.448.247-.2.013-.943-.258-.767-.543a2.425,2.425,0,0,1-2.68.474c.589-.325.525-.212,1.021-.94l-1.1-.636c-.329.178.325.831-.125.623-.214.654.506-.065.67-.061.082.787-1.232,1.454-1.793.657-.741.021-1.517,1.689-2.244.95l-.454.529c-.372-.2.026-.487.015-.73-.441-.159-.906.849-1.342.375-.224-.439.431-.363.57-.665-1.256.449-2.432,1.059-3.228.191-.372.074-.742.008-1.123.6.256.178.318.373.1.6-.438-.554-1.654.382-2.439-.226.264-.348.53-.671.786-.449-.217-.394-1.4-.277-1.995-.273-.524.665.385-.038.547.55-.382.449-.745.1-1.124.611a.536.536,0,0,1-.124.621c.289.313.409,0,.436.44a.838.838,0,0,0-.449.292c-.554-.866-.719-.6-1.426-.94.381-.642.735.275,1.118-.367-.252-.432-.516-.092-.768-.524.224.464-.807.969-1.241.984-.11-.149.116-.336.231-.51-.287-.556-.592.021-.881-.392-.193.264.3.453.209.709-.786.512-1.554-.012-2.339.388-.013.646.566-.168.885.141.068.113,0,.243.1.354-.563-.172-.723.319-1.344.646.02.69.565.4.78-.216.51.264-.5.8.21.707C78.086,476.632,77.312,476.851,77.856,477.377Zm42.262,2.169c.422-.533.817-.042,1.22.044C120.921,480.007,120.52,479.81,120.118,479.546Zm33.917,2.647c-.356.562-1.117.132-.582.873a2.027,2.027,0,0,1-1.887-.056c.322-.516.381-.193.7-1,.18.153.356.48.544.346.152-.168-.081-.323.015-.487C153.223,482.074,153.65,481.411,154.035,482.193Zm253.623-21.627c.407-.308.329-.818.8-.231A.433.433,0,0,1,407.658,460.566Zm-.068-13.186c.709-.186.792-.3,1.414-.982.226.569.505.315.786.012a3.792,3.792,0,0,1,.594,1.32c.6-.386.227-.938.091-1.449a1.29,1.29,0,0,1,.2,2.108c-.724-1.009-1.608.5-2.363-.034-.371-.585.446-.212.27-.686C408.22,447.9,407.574,447.85,407.59,447.38Zm-69.313-3.637c-.436.375-.813-.233-1.235-.065A.812.812,0,0,1,338.277,443.743Zm-35.19-2.163c-.175-.443-.932-.422-.732-.948C302.638,441.216,303.462,440.867,303.087,441.58Zm-26.607-3.039c.293.136.617-.275.886.334C277.11,439.223,276.318,439.03,276.48,438.541Zm-156.311-.277a1.736,1.736,0,0,1-1.445-.277C119.138,438.006,120.141,437.662,120.169,438.264Zm9.3,7.336c-.047.547-2.028.539-1.668-.264C128.345,445.916,128.928,444.968,129.47,445.6ZM90.139,446.95c.121-.214.064-.413.349-.644.18.241.37.1.553.314C90.733,447.022,90.428,447.358,90.139,446.95Zm30.173,16.265c-.339-.05-1.259.185-1.218-.29C119.434,462.889,120.356,462.6,120.312,463.214Zm-11.022-.048c.005.178-.4,1.072-.679.539C108.414,463.4,109.134,462.884,109.29,463.167ZM81.678,475c-.233-.132-.126.2-.342.4-.32-.745-.676.487-.994-.26C80.73,474.445,81.678,474.577,81.678,475Zm15.632,1.475c-.3.061-.6.491-.891.075C96.909,475.869,97.249,476.433,97.31,476.475Zm15.267,2.645c-.043.48-.75.533-1.111.084C111.847,478.682,112.212,478.942,112.576,479.12ZM115.8,479c-.385.334-1.331.2-1.325-.39C114.914,478.9,115.372,478.378,115.8,479ZM93.3,455.656c.743.006,1.5-.447,2.234-.218A1.729,1.729,0,0,1,93.3,455.656Zm32.072,30.989c-.07.552-.836.591-1.226.2C124.574,486.175,124.977,486.334,125.376,486.645Zm-14.61-15.43c-.37,0-.752.439-1.114.084C109.965,470.921,110.846,470.591,110.766,471.216ZM93.351,453.459c-.158-.352-.875.26-.66-.422C92.992,453.126,93.688,452.709,93.351,453.459Zm.79-.441c.185.678.347.116.773.288-.186.224.24.384.1.6-.545-.013-.39-.48-.892.088l-.33-.334C93.913,453.443,93.854,453.246,94.141,453.017Zm2.088,1.384c-.374.1-.755.585-1.117.105C95.5,453.865,95.867,453.99,96.229,454.4Zm14.009,11.009c.227-.227.453-.359.673-.294-.507.438-.2,1.577-.921,1.286C109.81,465.846,110.63,465.775,110.238,465.41ZM99.7,453.736l-.459.526-.325-.336C99.188,453.4,99.443,453.686,99.7,453.736Zm-6.659-6.826c-.166-.829-.456.109-.89-.157C92.1,445.969,93.787,446.139,93.043,446.909ZM112.7,464.984c.713.466,1.607-.77,1.993.34a.732.732,0,0,1,1.236-.459c-1.076.246-.9,1.1-1.934,1.726-.411-.959-.4.143-.649-.68-.566.227-1.724.854-1.9.264.1.073.706-.086.453-.277a1,1,0,0,1-1.112-.162c.309-.459.6-.174.888.178C112.029,465.521,112.668,465.651,112.7,464.984Zm11.882,13.8c-.027.615-.664.495-1.012.428A.649.649,0,0,1,124.581,478.78Zm-14.3-15.319.435.453c-.229.329-.456.463-.675.292C110.548,463.927,109.78,463.74,110.284,463.461ZM96.936,447.639c-.349.581-.66-.5-1.008.208-.352-.306.051-.871-.542-.8C96.174,446.1,96.272,447.593,96.936,447.639Zm6.44,6.389c-.343.4-.689.933-1.015.453C102.7,454.41,103.051,453.6,103.376,454.028Zm-4.367-4.252c-.385-.657.751-1.624,1.256-1.208a.992.992,0,0,1-.579.9C99.681,448.843,99.244,449.283,99.009,449.776Zm20.552,16.651c0-.627-.438-.2-.675.288-.293-.019-.406-.136-.434-.453-.8.652-1.553-.161-2.348.539-.351-.27.058-1.078-.549-.325-.378-.329-.375-1.309.246-.992-.127.17-.237.34-.012.487.113-1.391,1.406-1.064,2.154-1.5l.541.57c.447-.1.911-.843,1.344-.335a1.549,1.549,0,0,1-1.8.856c.108.164-.059.214-.228.26.37.011.73.5,1.1.4.576-.736,1.146-1.3,1.689-.713C119.688,465.555,119.912,466.087,119.561,466.427Zm-15.4-12.835c.205-.262-.28-.464.017-.732.21.526.455-.342.665.187-.347.436-.259.833-.7,1.277l-.328-.336Zm32.412,33.262c.158.367-.605.9-.788.4C136.054,487.07,136.333,486.332,136.578,486.854Zm-5.117-7.768c-.281.848-1.45-.159-1-.061C130.792,479.126,131.139,478.636,131.46,479.085Zm-28.421-29.9-.457.529c-.111-.155-.329-.3-.214-.47C102.592,449.394,102.626,448.639,103.04,449.182Zm4.185,2.326c-.218.222-.158.42.1.6l-.572.65a5.1,5.1,0,0,1-.992-.524A11.7,11.7,0,0,0,107.224,451.507Zm-3.955-2.589a1.854,1.854,0,0,0,.137-1.107c.219.22.452-.216.665.185-.917.942.8.348.533,1.049-.443-.319-1.492.573-1.554-.352Zm5.927,4.147c-.165-.864-.74.017-1.221-.273C108.285,451.67,109.532,452.1,109.2,453.065Zm.888.18c.406.08.114.763.435.455.2-.3-.071-.564.131-.864l.438.455c-.171.218-.414.438-.129.619-.267.338-.535.652-.789.422.128-.17.239-.342.012-.487-.415.277-.145.5-.466.766C109.213,454.2,109.965,453.7,110.085,453.244Zm3.05,2.939a.838.838,0,0,1-1.448-.015A1.112,1.112,0,0,1,113.134,456.184Zm-8.184-7.531c.566-.344,1.107.371,1.675-.023-.478.566-.789.472-1.464.493C105.276,448.948,105.113,448.8,104.95,448.652Zm17.434,16.263-.461.514q-.423-.745-.892.053l-.324-.342C121.276,464.672,121.827,464.894,122.384,464.915Zm-15-15.491c-.33-.241-.673.046-1-.287C106.669,448.673,107.5,448.876,107.387,449.424ZM137,479.527c-.6.367-1.181-.153-1.781.088C135.446,478.8,136.454,479.278,137,479.527Zm-32-33.315c-.065-.279.212-.589.355-.885a1.329,1.329,0,0,1,.9-.078,2.343,2.343,0,0,1-.137,1.11c.541-.921,1.057-.684,1.583-.854.457.822.9.652,1.651.973-.35.663-1.544.262-2.238.166a.487.487,0,0,1,.1.6c-.67.053-.858-.143-.546-.568-.518.185-2.125.762-2.558-.39C104.653,446.579,104.517,446.139,105.007,446.212Zm5.79,5.276c-.186.627-.391.982-1.021.684C110.525,452.136,110.049,451.444,110.8,451.488Zm-4.259-3.946c.258.157.522,0,.776.308C106.987,448.308,106.193,448.109,106.537,447.542Zm17.406,17.274a.424.424,0,0,0,.562-.155l.541.573c.765-.633.943-.128,1.8-.6-.227.258.15.478-.241.745-.434-.443-.888-.149-1.338.084a.986.986,0,0,1-.256,1.235,2.3,2.3,0,0,1-.987-.549c.344-.428.671-.124,1.019-.673C124.863,465,124.007,465.318,123.944,464.816Zm.318.591c-.381.4-.748.306-1.107-.176C123.533,464.921,123.894,465.3,124.261,465.406ZM109.422,448.3c.494.206-.287.508.206.715a.564.564,0,0,1-.894.067A.923.923,0,0,1,109.422,448.3Zm32.272,34.286c-.306.311-.611.633-.9.287A.664.664,0,0,1,141.694,482.586Zm-32.919-35.213c.231.185.111.4.319.585-.267.378-.525.271-.778-.063Zm9.72,8.411a.879.879,0,0,1,.32.583c-.488.17-.979.524-1.448-.011C117.752,455.767,118.105,456.413,118.494,455.784Zm-7.845-7.455c.585.424,1.2-.289,1.783.113-.6-.065-1.213.879-1.795.378C110.787,448.647,110.55,448.5,110.649,448.329Zm2.617,2.486.459-.522c.13.275.393.537.313.829C113.79,450.676,113.516,451.261,113.267,450.816Zm-3.144-3.784c.153-.338-.72-.6-.2-.961.558-.052-.01.516.538.814l-.574.65c-.124-.279-.788-.09-.544-.568C109.607,446.816,109.861,447.095,110.122,447.032Zm17.931,18.138c-.475-.245-.433.533-1.008.185C127.329,464.837,128.172,464.491,128.053,465.169Zm-11.779-14.214c-.411.107-.827.363-1.231.216C115.466,450.55,115.868,450.871,116.274,450.955Zm30.184,32.006c-.265.195-.532.507-.781.161C145.68,482.655,146.167,482.441,146.458,482.961Zm-26.893-29.806c-.406-.138-.821.128-1.221-.283C118.7,452.371,119.6,452.749,119.565,453.155Zm10.941,11.862a3.935,3.935,0,0,1,1.552.149C131.579,465.714,130.245,465.955,130.506,465.016Zm-15.947-21.362c-.46.48.047.138.212.47-.274.518-.516-.195-.786.182.357.644.736.346,1.1.65.09.21.488,1-.133.862.243-.48-.425-.118-.546-.568-.465.765-.891-.052-1.348.342-.321-.566-.543-.692-1.1-.648-.187.216.237.388.1.6-.977-.592-.4-1.143.054-2.192.248.183.06.4.1.6.19-.214.366.239.555.08a.871.871,0,0,1-.32-.585c.415-.422.7-.019.573-.652.263-.013.525-.168.775.3-.155.273-.456.166-.346.392A2.7,2.7,0,0,1,114.559,443.655Zm3.251,3.9c0-.441.383-.331.683-.537.182.709.827.161,1.328.4-.527.759.484-.027.653.688-.492.3-.961-.214-1.45-.033-.886.774-.676,2.163-1.608,1.823C118.071,449.411,118.865,447.888,117.81,447.552Zm32.451,34.532c.086.279-.588.589-.137.858.612-.39.33-.743.588-1.118.177.25.368.118.546.346-.361.935-.809,1.158-1.168,1.989A2.935,2.935,0,0,0,148.344,483,2.594,2.594,0,0,1,150.261,482.084Zm-17.079-17.222a.655.655,0,0,1-1.014.419A2.917,2.917,0,0,1,133.181,464.862ZM112.019,442.5c-.205.258.281.466-.017.732C111.467,443.429,111.493,442.346,112.019,442.5Zm7.874,6.49-.918,1.032c-.144-.141-.3.006-.441-.214C118.439,449.275,119.376,448.691,119.892,448.994Zm14.175,16.066c.284.275.559.122.317.594-.216-.229-.449.2-.662-.212Zm-18.636-20.5a.508.508,0,0,1,.312.827C115.458,445.13,115.2,444.865,115.431,444.565Zm18.758,20.125C134.379,464.518,134.553,464.928,134.189,464.69ZM111.921,437.4c-.217.545.455.2.34-.147.29.262.162.556.089.847-.5-.09-.4.243-1.119.084C111.394,437.782,111.6,437.463,111.921,437.4Zm45.88,45.152c-.309.449-.6.057-.889.032Q157.375,481.907,157.8,482.548ZM143.183,465.59c.5.348-.137,1.057-.462.51C143.044,465.762,142.772,465.647,143.183,465.59Zm20.269,17.371c-.488.168-.974.363-1.441-.073C162.48,482.556,163.363,482.29,163.451,482.961Zm-41.619-44.192c-.229-.176-1.023-.182-.877-.678C121.2,437.87,121.98,438.329,121.833,438.768Zm9.216,6.243c.356.592.736.294,1.1.663-.421.474-.812-.195-1.245.688-.216-.331-.447-.015-.657-.447A2.809,2.809,0,0,0,131.048,445.012Zm-1.181-5.769c-.423.449-.844.831-1.249.686C129.04,439.483,129.468,438.807,129.867,439.242Zm9.3,10.715c-.271.371-.529.256-.779-.084C138.664,449.5,138.921,449.617,139.171,449.957Zm-3.223-4.47c-.421.4-.836.644-1.234.183C135.135,445.291,135.539,445.467,135.948,445.488Zm2.844,2.054c.582.455,1.2-.248,1.789-.088-.391.9-1.08.579-1.918.7-.121.187-.067.443-.338.14A1.237,1.237,0,0,1,138.792,447.542Zm-6.321-9.555c-.307.313-.6.237-.9.3.224-.42-.037-.808.258-1.233C132.294,437.347,132.071,437.685,132.471,437.987Zm-1.8.6c-.168-.6-.444-.312-.876-.677.77-.172,1.4-1.548,1.8-.6C130.947,437.543,130.985,438.054,130.666,438.585Zm1.886.5c-.221-.491-1.035.231-.882-.439.411-.04.826-.229,1.22.3-.22.214-.161.413.1.606a1.114,1.114,0,0,1-1.125.3C132.031,439.588,132.74,439.538,132.552,439.082Zm7.633,6.685c-.293-.237-.605.227-.889-.2C139.541,445.159,140.328,445.4,140.185,445.767Zm-1.344.069c.336-.3-.328-.552.137-.86C139.463,445.168,139.266,446,138.841,445.835Zm2.506,2.188c.309-.459.6-.332.906-.531.284.5.585.35.881.445-.486.269-.271.275-.692.764-.187-.461-.331-.644-.78-.086A.9.9,0,0,1,141.347,448.023Zm31.247,34.013c.284.176.557-.138.545.355C172.827,482.9,172.278,482.418,172.594,482.036Zm-39.017-43.614a1.156,1.156,0,0,1-1-.317C132.868,437.442,133.68,438.208,133.577,438.422Zm4.341.636c-.232-.143-.126.191-.347.382-.472-.084-.483-.8-1.113-.187-.058.422.657.268.313.837-.442.033-.7-.172-.876-.688C136.515,438.681,137.71,438.315,137.917,439.059Zm6.717,7.22a.915.915,0,0,1,.654.455C144.97,447.314,144.3,446.669,144.634,446.279Zm-5.042-7.18a.915.915,0,0,0-.238.5.931.931,0,0,1-.658-.457A.568.568,0,0,1,139.592,439.1Zm7.269,7.314c-.337.057-.694.854-1.017.415C146.191,446.434,146.53,446.284,146.861,446.412Zm3.18,1.955c-.452.61-.579-.094-.8.638a.921.921,0,0,1-.319-.6C149.309,447.934,149.681,447.92,150.041,448.367Zm-2.451-.155c.431.495.908-.518,1.331.195A.7.7,0,0,1,147.59,448.213Zm-6.473-7.728c-.317.65-.6.105-.889-.2C140.537,439.856,140.821,440.4,141.117,440.485Zm7.294,6.362c-.312.5-.6.168-.9.271A.479.479,0,0,1,148.411,446.846Zm1.372-1.024c-.6.537-.842.579-.931,1.25-.406.025-.265-.4-.425-.717.311-.451.6-.323.909-.518-.146-.122-.45-.042-.326-.354.684-.3.984.157,1.435.558-.123.206-.066.407-.353.619C149.649,446.393,149.939,446.1,149.783,445.822Zm1.637,1.28a2.786,2.786,0,0,1-2.244.323C149.307,446.271,150.664,446.741,151.42,447.1Zm-10.53-10.381c-.568.246-1.119-.019-1.676-.04A1.343,1.343,0,0,1,140.89,436.722Zm3.251,3.493c-.049.325-.105.944-.577.636C143.57,440.708,143.857,439.976,144.14,440.215Zm-.7-2.767c.612.256-.461.592-.136.86.29.235.612-.533.895-.044-.613.6-1.2.382-1.8.332C142.559,438.058,143.165,438.256,143.438,437.448Zm8.83,11.086c.749-.783,1.5.312,1.2,1.053C153.135,449.115,153.211,448.87,152.268,448.534Zm.159-1.588-.576.629c-.109-.16-.33-.311-.211-.48C151.891,447.446,152.188,446.279,152.427,446.946Zm-4.3-5.693c.322.275.039.569-.136.858-.144-.143-.3,0-.441-.227Zm-1.817-2.725a1.131,1.131,0,0,1-.152,1.343A.807.807,0,0,1,146.313,438.528Zm5.6,7.1c.345-.575.892.084.88.455C152.223,446.663,152.39,445.979,151.909,445.623Zm-3.691-7.294a.791.791,0,0,0,.55.344c-.552.317-.654-.178-1.025.646-.157-.759-.548-.122-.989-.571C147.251,438.272,147.717,438.843,148.217,438.329Zm3.1,1.108c-.685-.816-2.02.35-2.332-.527C149.637,438.94,151.436,438.113,151.314,439.437Zm-.673.023c-.226.252.149.482-.243.74-.184-.12-.372-.046-.55-.346C150.347,439.659,150.156,439.254,150.642,439.46Zm3.929-.5c.246.457.525-.119.773.336-.309.254-.611.424-.905.275C154.578,439.359,154.457,439.16,154.571,438.956Zm9.81,7.707c-.391.069-1.548.65-1.218-.336C163.486,446.841,164.427,446.143,164.381,446.663Zm-.317-.6c-.271.365-.522.073-.777-.1.3-.226.293-1.044.587-.864C163.768,445.419,164.038,445.738,164.064,446.061Zm.372-1.1c.56.329.035,1.212-.364.86C164.09,445.535,163.974,445.253,164.436,444.958Zm-4.405-5.588c.315.686.679-.237,1,.329a2.664,2.664,0,0,1-1.689.424Zm4.435,4.615-.462.495-.325-.359C163.956,443.619,164.207,443.919,164.466,443.986Zm1.935,2.391c.594-.629.485.4,1.1.464C167.12,447.053,166.418,446.848,166.4,446.376Zm1.432.581.431.476c-.246.443-1.047.623-.894.021C167.657,447.729,167.794,447.068,167.833,446.957Zm-1.378-2.286c.5.665,1.041.082,1.549.455-.309.5.073.9-.6,1.108-.522-.313-.1-.646-.192-.969-.339.155-.67,0-1.018.386C165.81,445.335,166.1,445,166.456,444.672Zm-3.863-5.028c-.385.411-.774.938-1.133.527C161.839,439.963,162.232,439.269,162.593,439.644Zm8.067,9.685-.464.5-.324-.357C170.144,449.111,170.409,448.977,170.66,449.329Zm3.446-2.993a.4.4,0,0,1,.554.109c-.824.654-1.207-.869-1.639-1.061l-.578.621a2.491,2.491,0,0,0-2.559-.31,1.963,1.963,0,0,1-.71,1.233c-.03-.946-.426.336-.885-.226a6.941,6.941,0,0,0,1.736-1.865c.692,1.063,2.006-.162,2.914-.3-.11.246-.724.5-.472.74.421-.357.827-.231,1.251-.634-.146-.122-.451-.05-.325-.359.4.4,1.422-.42,1.44.334-.539-.315-1.4.636-.934,1.238.083-.887,1.536-.426,1.564-.034C175.05,445.8,173.854,445.468,174.106,446.336Zm.488-1.229c0-.271.494-.615.8-.625-.216.392.5.088.653.472C175.553,445.4,175.077,445.184,174.594,445.107Zm-12.008-5.219a2.6,2.6,0,0,1,1.674.084C163.725,440.228,162.734,440.565,162.586,439.888Zm4.447,4.162c-.218-.134-.456.289-.663-.229C166.556,443.183,167.246,443.729,167.033,444.05Zm2.112.319c-.28.346-1.122.545-1-.1C168.473,444.463,168.818,444.179,169.145,444.37Zm-3.875-4.542a.516.516,0,0,1-.9.264A.659.659,0,0,1,165.27,439.827Zm6.889,4.6c-.274.1-1.124.569-1-.1C171.489,444.458,171.836,444.087,172.16,444.431Zm-2-3.736c-.274.363-.538.495-.787.141C169.646,440.477,169.911,440.345,170.16,440.695Zm6.538,4.978c.3.044.6-.065.892-.019-.377.43-.4.894-.919.747C176.881,446.155,176.4,445.921,176.7,445.673Zm2.307,1.045a.813.813,0,0,0,.547.352l-.232.25c.059.078.111.161-.009.243-.6-.541-.171.529-.471.742-.255-.174-.525.138-.77-.348C178.612,447.538,178.629,447.133,179.006,446.718Zm-1.265-2.163c.139.2.438.394.315.6-.514-.216-1.06.506-1.557-.212C177.085,444.549,177.389,445.079,177.741,444.555Zm32.028,36.355c.388.331.093.652-.258.973a.674.674,0,0,0-.436-.247A.842.842,0,0,1,209.769,480.91ZM190.32,458.444c.381-.258.748-.149,1.107.237-.359.447-.412,1.37-1.034.858C190.738,459.043,190.983,458.634,190.32,458.444Zm-8.756-11.39c-.426.013-.514-.4-.422-.728a1.755,1.755,0,0,1-2.549-.571,2.607,2.607,0,0,0,2.689-.281.986.986,0,0,0,.19.975c.058-.525.1-.567.581-.611.245.2.056.4.089.606.251-.659.252-.212.682-.249-.307-.5.387-.617.679-.246-.005.418-.484.3-.814.858C181.919,446.676,181.876,446.319,181.564,447.055Zm-8.144-10.321c.574.491,1.031-.688,1.367-.761.46.615-.233.548-.488,1.229-.207-.485-.45.065-.681.258C173.34,437.22,173.243,436.98,173.42,436.733Zm8,8.131a9.318,9.318,0,0,0,1.441.355,1.537,1.537,0,0,1-1.019.373C182.05,445.4,180.933,445.516,181.416,444.865Zm-4.035-6.268c0,.323-.5.952-.8.625C176.844,439.072,177.131,438.348,177.381,438.6Zm-.589-2.421c-.276.464-.524.157-.8.625.284.285.559.136.316.6-.337-.147-1.262.126-1.21-.583C175.58,436.45,176.091,435.781,176.792,436.175Zm7.263,9.89c.18.577.965-.338.77.361C184.508,446.563,183.7,446.81,184.055,446.065Zm-2.191-4.489c-.454.184-.9.109-1.351.252C180.56,441.488,181.85,440.974,181.865,441.576Zm-3.985-4.453a.9.9,0,0,0-.24.5c-.262-.237-1.1-.084-.985-.589C177.051,437.373,177.487,436.609,177.879,437.123Zm10.878,8.67a9.448,9.448,0,0,1-2.7.5c.155.283.42.566.081.852-.105-1.03-.466-.248-1.091-.724.427-.484.757-.491.605-1.345C186.354,446.42,187.7,445.287,188.757,445.793ZM217,480.863c-.362-.2-.763.541-1.112-.012C216.2,480.658,217.088,480.282,217,480.863ZM198.243,458.28c.212.39.432.394.671.006.415.749-.77,1.615-1.383,1.21C198.2,458.976,198.171,458.947,198.243,458.28Zm-18.133-20.954c-.682.29-1.342,0-2.015.038l.348-.375C178.991,437.3,179.56,437,180.109,437.326ZM190.515,449.8c-.45-.038-1.49.2-1.546-.478C189.408,449.621,190.465,448.947,190.515,449.8Zm-1.03-2.427c.576.526,1.187.057,1.771.476a1.717,1.717,0,0,1-2.119-.107C189.334,447.9,189.463,447.555,189.485,447.372Zm-8.473-10.293c-.19.2.235.4.092.606-.29-.248-.6.2-.886-.239C180.49,437.125,180.759,436.831,181.012,437.079Zm2.114.35a.791.791,0,0,1-1.127.252C182.375,437.547,182.762,437.144,183.126,437.429Zm6.526,8.359c.655-.568.76.034,1.208.6a1.036,1.036,0,0,0-.359.606l-.214-.241C190.516,446.162,190.206,445.956,189.652,445.788Zm-7.588-10.056c.592.141,1.208-.407,1.782.233-.588.12-.424.915-.927.978-.6-.25.049-1.122-.415-.971-.175.285.1.568-.364.854C181.832,436.464,182,436.1,182.064,435.732Zm2.627,1.687a1.183,1.183,0,0,1-.472.734c-.279-.583-.594-.044-.879-.483l.232-.243C183.894,437.9,184.137,437.3,184.691,437.419Zm8.752,8.588c-.525-.015-2.016,1.154-1.789.011C192.232,446.537,192.866,445.434,193.443,446.007Zm3.28,1.926c-.306.247-.609.4-.9.25A.51.51,0,0,1,196.723,447.934Zm.159-1.338c-.677-.266-2.407.678-2.323-.594C195.246,446.621,196.572,445.875,196.883,446.6Zm3.8,3.063a.649.649,0,0,1-.9.235C199.791,449.508,200.364,449.4,200.681,449.659Zm-.715-1.831c.594,1.036,1.259.191,1.878.625-.4.751-1.62.12-2.351.1C199.817,448.312,199.549,448.067,199.966,447.829Zm.242-.485c.635.659.751-.915,1.466-.353-.621.415-.321.3-.591.849C200.754,447.871,199.852,448.022,200.208,447.343Zm3.79.279c-.354.491-.691.518-1.021.355C203.008,447.531,203.672,447,204,447.622Zm-7.154-9.184c-.4.654-.755.279-1.127.252C196.095,438.556,196.481,438.153,196.844,438.438Zm-.206-.485c-.246.377-1.038.268-.885-.239C196.039,438.017,196.365,437.318,196.638,437.952Zm1.63,1.338c-.2.241.291.489.2.732-.274.352-.54.474-.788.115C198.043,439.925,197.681,439.1,198.267,439.29Zm-.018-2.557c-.056.195-.5.6-.376,1.093.271-.247.521.05.77.371-.572.323-1.157,1.057-1.7.606C197.811,438.21,197.211,436.158,198.249,436.733Zm9.8,13c-.218.533-.964.336-.776-.13C207.528,449.787,207.81,449.229,208.052,449.73Zm-8.191-11.156c-.274.352-.54.476-.788.115C199.346,438.34,199.613,438.216,199.86,438.574Zm6.952,8.468c.529-.111,1.519-.281,1.663.382.416-.4,1.162.269,1.25-.6l.428.491c-.306.459-.56.141-.58.6-.63-.314-.962-.323-1.134.476-.471-.248-.078-.489-.2-.734l-.583.6C207.13,447.561,207.7,447.2,206.813,447.041Zm3.993.768c.6.73-.783,1.242-1.144.718.14-.2.02-.405.135-.608C210.526,447.842,210.281,448.8,210.805,447.809Zm1.262-.841c.535.451-.044.892-.388,1.336-.178-.184-.379.21-.554-.126C211.558,447.37,211.768,447.863,212.068,446.969Zm2.684,2.826c-.344.226-.691.516-1.009.111C214.093,449.484,214.428,449.472,214.751,449.8Zm31.026,29.8c.277-.237,1.121-.453.994.164-.282-.31-.684.136-.689.457A.985.985,0,0,1,245.777,479.594Zm-24.92-31.618c.624.734-1.121,1.6-1.03.579C220.3,448.882,220.268,448.048,220.858,447.976Zm26.708,31.453c.607-.214,1.805-.61,1.99.329-.788-.4-.362.6-.709.942-.4-.46-.227-.9-.275-1.351C248.2,479.924,247.551,480.117,247.565,479.429Zm3.452.029c-.292-.119-.6.222-.89-.04C250.088,478.657,251.448,478.875,251.018,479.458Zm-30.1-41.341a.813.813,0,0,1-1.118-.031C220.19,437.543,220.55,437.84,220.913,438.117Zm2.042-.678c.326-.942.535-.013.894.023-.266-.65.3-1.089.507-1.449.528.543-.7,1.038-.176,1.579.125-.2.071-.405.361-.6.165,0,.855.432.642.749-.625-.432-3.061,1.768-2.461-.067-.451-.017-1.507.506-1.555-.281C221.444,436.924,222.718,436.815,222.955,437.438Zm.72-1.2a2.363,2.363,0,0,1-1.692.321C222.555,436.217,223.132,435.822,223.674,436.24Zm34.753,41.636c.466.346,1.571-.667,1.645.243C259.56,478.011,258.554,478.81,258.428,477.876ZM225.707,435.8c.14.206.436.418.312.617-.543-.39-.785-.271-1.022.338C224.672,436.062,225.293,436.022,225.707,435.8Zm2.072,1.4c.24.472.534-.258.768.384C228.222,437.843,227.426,437.687,227.779,437.2Zm-.786-2.7c.277.25.374.5.193.736-.143-.128-.283-.375-.437-.254-.114.065-.233.231-.341.111Zm36.95,43.537c-.124.2-.074.4-.359.583-.234-.508-.506-.22-.754-.42C263.215,477.864,263.6,477.614,263.943,478.036ZM231.816,437.06c-.082.239.484.283.542.38.143-.2.024-.405.137-.6.592-.09.764.581.292,1.1a6.352,6.352,0,0,1-1.779-.289C231.45,437.391,231.614,437.06,231.816,437.06Zm34.059,42.092-.415-.516C265.825,478.1,266.4,478.818,265.875,479.152ZM234.7,437.624a.671.671,0,0,1,1,.147.679.679,0,0,1-1.01.1C234.758,437.788,234.815,437.706,234.7,437.624Zm36.14,40.071c.248.2.516.093.757.439-.172.128.071.87-.364.573.242-.3-.008-.613-.314-.4a.947.947,0,0,1-.037.73c-.209-.262-.451.132-.651-.31C270.8,478.418,270.272,478,270.843,477.694Zm-32.736-41.169c.479.26,1.572-.164,1.664.438-.328-.189-.676.09-1.012.075.174.266.365.151.544.392-.319.2-.808.344-.817.816A5.582,5.582,0,0,1,238.107,436.525Zm34.951,41.393c-.179.264-.071.56-.378.812C272.437,478.365,272.541,477.5,273.058,477.918Zm-32.627-40.684a1.368,1.368,0,0,1,.268,1.594.721.721,0,0,0-.435-.262C240.528,438.13,239.852,437.654,240.431,437.234Zm33.59,41.389c-.276.325-.54.426-.782.042C273.517,478.342,273.782,478.241,274.021,478.623ZM241.9,436.934a2.374,2.374,0,0,1-1.791-.08c.642-.105.779-.325,1.247-.31-.068.117-.045.243.1.369C241.608,436.787,241.76,436.674,241.9,436.934Zm.874.524c-.138.2.1.411.084.612a1.638,1.638,0,0,1-1.906.04c.37-.31.12-.646.49-.954C241.882,437.379,242.338,437.194,242.775,437.457Zm34.059,40.6c-.422.323-.736.657-.613,1.034-.314-.35-.667,0-.987-.22.663-.728-.3-.5.051-.969C275.776,478.409,276.329,477.792,276.834,478.053Zm-33.22-41.9c.227.214.1.411.31.623.118-.117.052-.241.127-.361.474.308.188.577-.149.847-.143-.13-.282-.378-.436-.262.1.166-.069.321-.244.476l-.32-.378C243.522,436.588,243.414,436.745,243.614,436.154Zm1.494,1.77c.384-.287.743.055,1.118.05C245.827,438.564,245.108,438.648,245.108,437.924Zm2.5-.864c.338-.08.688-.357,1.012-.078-.323.568-.6.111-.906.2.057.124.207.252.1.371A.835.835,0,0,1,247.61,437.06Zm2.534.963c-.361-.271-.754.172-1.107-.292C249.357,437.419,250.235,437.436,250.144,438.023Zm-.234.233c.108.075.223.05.34-.107.276.254.375.5.193.74-.179-.153-.372-.021-.553-.147C250.042,438.587,249.81,438.415,249.91,438.256Zm2.566.233a1.4,1.4,0,0,1-1.8.166C251.3,438.14,251.868,438.705,252.476,438.489Zm.4-1.323c-.253.841-.953.7-1.482.545C251.9,437.19,252.4,436.821,252.871,437.167Zm2.725,1.7c.106.208.036.407.308.621-.5.434-1,.654-1.459.059C255.027,439.521,255.57,439.195,255.6,438.87Zm6.723-1.385c-.281.325.347.069.427.518-.218.375-.958-.073-.773-.418C262.2,437.8,262.11,437.322,262.318,437.484Zm46.195,3.627c.288.227.593.132.865.61a1.81,1.81,0,0,1-1.382.539l-.312-.409C308.328,441.666,308.224,441.759,308.513,441.111Zm3.647,1.124c-.454-.655-1.155.281-.968-.747C311.445,441.809,312.3,441.6,312.16,442.235Zm41.9,41.274c-1.077.705,1.079.4-.089,1.449-.35-.579-.24-.606-.742-.726C353.341,483.9,353.565,483.068,354.064,483.509Zm-1.2,1.273c-.142-.147-.275-.411-.432-.313-.173.229.014,1.127-.5.9-.071-.294.22-.535-.06-.864.6-.023.587-1.049,1.187-1.032C353.159,483.934,353.366,484.413,352.864,484.782Zm-29.7-42.2c.356-.294.68-.073,1.012.029-.015.419-.49.229-.83.732C322.97,443.049,323.366,442.864,323.16,442.587Zm32.58,41.064c.293.451.074.822.146,1.24-.28-.29-.622.409-.889-.138C355.343,484.182,355.407,484.274,355.74,483.651ZM325.479,443.3c-.533-.311-.435.516-.9.111C324.482,443.114,325.666,442.508,325.479,443.3Zm30.587,40.529c.24-.25.461-.216.667.1-.136.281-.252.476-.475.415C356.378,484.2,356.222,484.01,356.066,483.825Zm2.3-39.279c-.383-.445-.84.264-1.231-.075C357.513,443.879,358.431,443.926,358.363,444.546Zm1.8.038c-.555-.13-1.131.086-1.664-.386C359.084,443.8,359.643,443.861,360.162,444.584Zm.817-.482-.476.413-.312-.413C360.483,443.649,360.724,443.989,360.979,444.1Zm34.923,24.49c.337.461.06.824-.3,1.168-.544.237-1.325.082-2.167.493-.106-.18-.315-.378-.194-.522A7.684,7.684,0,0,1,395.9,468.592Zm3.013.382a.853.853,0,0,1,.177.761,8.244,8.244,0,0,1-2.256.111C397.532,469.473,398.216,469.345,398.915,468.974Zm-17.494-24.251a1.012,1.012,0,0,1-1.384.5C380.524,444.654,380.965,444.794,381.421,444.723Zm20.909,23.6c-.992.5-1.84.615-2.348,1.559l-.415-.556C400.247,469.167,401.094,467.68,402.33,468.322Zm-12.87-26.183a.79.79,0,0,1,.58-.269c.54.659-.431,1.068.34,1.764-.416.036-.859.537-1.232-.08C389.874,443.687,390.119,442.894,389.46,442.139Zm21.089,27.823c.312.376-.076.638-.058.967-.248-.224-.529.038-.758-.493C410.011,470.191,410.262,470.373,410.549,469.962Zm-3.944-10.551c.307.2.563-.627.729-.852.463.319.065.5.177.761.117-.046.224,0,.326.178-.562.042-1.037-.141-.832.713C406.732,460.174,406.562,459.725,406.605,459.411Zm-3.841-12.242c-.237-.4-.543.285-.773-.25C402.224,446.42,402.962,446.734,402.764,447.169Zm3.119.527c-.581.293-1.161.556-1.692.08C404.748,447.821,405.351,447.2,405.883,447.7Zm2.212.621c-.311.189-.625.386-.892-.153A.576.576,0,0,1,408.095,448.318Zm-.069-2.454c.27.436.385.455.445.076.482.478-.537.822-.7.371A.765.765,0,0,0,408.025,445.864Zm16.23,7.646c-.027.441-.612.642-.938.57C423.337,453.751,423.951,453.1,424.255,453.51Z" transform="translate(-77.442 -433.492)"/></svg>