<svg width="40" height="40" viewBox="0 0 40 40" fill="none" xmlns="http://www.w3.org/2000/svg">
<path d="M3.33325 11.9048C3.33325 9.93236 4.82564 8.33337 6.66659 8.33337H33.3333C35.1742 8.33337 36.6666 9.93236 36.6666 11.9048V29.7619C36.6666 31.7344 35.1742 33.3334 33.3333 33.3334H6.66659C4.82564 33.3334 3.33325 31.7344 3.33325 29.7619V11.9048Z" fill="#8C2E0E"/>
<path d="M3.33325 10.2488C3.33325 8.27041 4.71677 6.66663 6.42342 6.66663H33.5764C35.2831 6.66663 36.6666 8.27041 36.6666 10.2488C36.6666 11.6056 36.0053 12.846 34.9584 13.4527L21.4906 21.2587C20.5522 21.8026 19.4476 21.8026 18.5092 21.2587L5.04146 13.4527C3.99456 12.846 3.33325 11.6056 3.33325 10.2488Z" fill="#CC5229"/>
</svg>
