<svg width="40" height="40" viewBox="0 0 40 40" fill="none" xmlns="http://www.w3.org/2000/svg">
<path d="M3.33331 6.66667C3.33331 4.82572 4.8257 3.33333 6.66665 3.33333H33.3333C35.1743 3.33333 36.6666 4.82572 36.6666 6.66667V33.3333C36.6666 35.1743 35.1743 36.6667 33.3333 36.6667H6.66665C4.8257 36.6667 3.33331 35.1743 3.33331 33.3333V6.66667Z" fill="#F2CA55"/>
<path fill-rule="evenodd" clip-rule="evenodd" d="M19.0027 31.0565C19.8163 30.2429 19.8163 28.9238 19.0027 28.1102L14.2259 23.3333L19.0027 18.5565C19.8163 17.7429 19.8163 16.4238 19.0027 15.6102C18.1891 14.7966 16.87 14.7966 16.0565 15.6102L8.33331 23.3333L16.0565 31.0565C16.87 31.8701 18.1891 31.8701 19.0027 31.0565Z" fill="#8C5D00"/>
<path d="M3.33331 6.66667C3.33331 4.82572 4.8257 3.33333 6.66665 3.33333H8.33331V36.6667H6.66665C4.8257 36.6667 3.33331 35.1743 3.33331 33.3333V6.66667Z" fill="#8C5D00"/>
<path fill-rule="evenodd" clip-rule="evenodd" d="M23.1666 15C22.3382 15 21.6666 15.6716 21.6666 16.5V30.1667C21.6666 30.9951 22.3382 31.6667 23.1666 31.6667C23.6442 31.6667 24.0696 31.4435 24.3443 31.0958C25.0383 31.4604 25.8284 31.6667 26.6666 31.6667C29.4281 31.6667 31.6666 29.4281 31.6666 26.6667C31.6666 23.9052 29.4281 21.6667 26.6666 21.6667C25.9555 21.6667 25.2791 21.8151 24.6666 22.0827V16.5C24.6666 15.6716 23.9951 15 23.1666 15ZM24.6666 26.8429V26.4904C24.7559 25.4642 25.6173 24.659 26.6666 24.659C27.7754 24.659 28.6743 25.5579 28.6743 26.6667C28.6743 27.7755 27.7754 28.6743 26.6666 28.6743C25.6173 28.6743 24.7559 27.8692 24.6666 26.8429Z" fill="#8C5D00"/>
</svg>
