<svg width="40" height="40" viewBox="0 0 40 40" fill="none" xmlns="http://www.w3.org/2000/svg">
<path d="M20.0084 36.6495C29.2084 36.6495 36.6665 29.1914 36.6665 19.9914C36.6665 10.7914 29.2084 3.33337 20.0084 3.33337C10.8084 3.33337 3.35034 10.7914 3.35034 19.9914C3.35034 29.1914 10.8084 36.6495 20.0084 36.6495Z" fill="#1A73E8"/>
<path d="M26.0707 27.1871H14.7192C13.1049 27.1871 11.6967 25.9678 11.6967 24.3535V24.3363V25.2808C11.6967 26.8951 13.1049 28.3033 14.7191 28.3033H26.0707C27.7021 28.3033 29.0932 26.8779 29.0932 25.2808V24.3363C29.0932 25.9506 27.685 27.1871 26.0707 27.1871ZM11.6795 19.0469V17.7589L9.56721 14.2728C9.44699 14.0839 9.39545 13.9121 9.41265 13.7404V15.2172C9.41265 15.3546 9.46413 15.4921 9.55 15.6466L11.6795 19.0469Z" fill="#185ABC"/>
<path d="M26.0708 13.1736H10.1683C9.53284 13.1736 9.17225 13.7231 9.60158 14.307L11.6795 17.9134V24.3534C11.6795 26.002 12.8817 27.3758 14.5131 27.3758H26.0535C27.685 27.3758 29.076 25.9849 29.076 24.3534V16.2133C29.0932 14.5646 27.7022 13.1736 26.0708 13.1736Z" fill="white"/>
<path d="M25.8817 17.7246H14.9079C14.427 17.7246 13.9634 17.4327 13.9634 16.9689C13.9634 16.5053 14.4271 16.2134 14.9079 16.2134H25.8816C26.3624 16.2134 26.8262 16.5053 26.8262 16.9689C26.8262 17.4327 26.3624 17.7246 25.8816 17.7246H25.8817ZM25.8817 20.7471H14.9079C14.427 20.7471 13.9634 20.4552 13.9634 19.9915C13.9634 19.5278 14.4271 19.2359 14.9079 19.2359H25.8816C26.3624 19.2359 26.8262 19.5278 26.8262 19.9915C26.8262 20.4552 26.3624 20.7471 25.8816 20.7471H25.8817ZM22.842 23.7867H14.8908C14.41 23.7867 13.9463 23.4948 13.9463 23.0312C13.9463 22.5675 14.41 22.2755 14.8908 22.2755H22.842C23.3228 22.2755 23.7865 22.5674 23.7865 23.0312C23.7865 23.4949 23.3228 23.7867 22.842 23.7867Z" fill="#8AB4F8"/>
<path d="M36.6665 19.9055C36.6322 27.2042 31.8752 33.4037 25.315 35.6019C23.6492 36.1686 21.8631 36.4606 20.0085 36.4606C10.8379 36.4606 3.40188 29.0589 3.35034 19.9055V20.0085C3.35034 29.2134 10.8036 36.6666 20.0085 36.6666C21.8631 36.6666 23.6492 36.3575 25.315 35.8079C31.9095 33.5926 36.6665 27.3587 36.6665 20.0085V19.9055Z" fill="#185ABC"/>
<path d="M25.2978 4.19189C23.6321 3.62528 21.846 3.33337 19.9913 3.33337C10.7865 3.33331 3.33325 10.7865 3.33325 19.9914V20.0944C3.38473 10.941 10.8207 3.53934 19.9913 3.53934C21.846 3.53934 23.6321 3.84845 25.2978 4.39805C31.8752 6.59622 36.615 12.7957 36.6494 20.0944V19.9914C36.6666 12.6412 31.9095 6.40733 25.2978 4.19189Z" fill="#8AB4F8"/>
</svg>
