<svg width="35" height="34" viewBox="0 0 35 34" fill="none" xmlns="http://www.w3.org/2000/svg">
<path d="M8.66659 1.75L10.7779 0.823953C11.8286 0.363109 13.0424 0.474989 13.9911 1.12012L16.6332 2.91667L8.66659 1.75Z" fill="#DE8644"/>
<path d="M25.7403 13.8333H14.3993C12.2958 13.8333 10.7181 15.7577 11.1307 17.8204L11.464 19.487C11.7756 21.0451 13.1437 22.1667 14.7326 22.1667H22.9766C25.451 22.1667 27.7218 23.5371 28.875 25.7263L29.0401 26.0398C30.0602 27.9764 28.9687 30.3539 26.8351 30.8426L15.2062 33.5058C14.2602 33.7224 13.2837 33.7722 12.3206 33.6528L0.333252 32.1666V8.76389L6.58537 3.1956C7.31803 2.54307 8.30096 2.24646 9.27227 2.38478L31.6125 5.56614C33.9195 5.89466 34.9327 8.65892 33.3846 10.4005C31.4437 12.584 28.6618 13.8333 25.7403 13.8333Z" fill="#DE8644"/>
</svg>
