<svg width="40" height="40" viewBox="0 0 40 40" fill="none" xmlns="http://www.w3.org/2000/svg">
<path d="M36.6666 20C36.6666 29.2048 29.2047 36.6667 19.9999 36.6667C10.7952 36.6667 3.33325 29.2048 3.33325 20C3.33325 10.7953 10.7952 3.33337 19.9999 3.33337C29.2047 3.33337 36.6666 10.7953 36.6666 20Z" fill="#696BEF"/>
<path d="M36.6666 20C36.6666 29.2048 29.2047 36.6667 19.9999 36.6667C10.7952 36.6667 3.33325 29.2048 3.33325 20C3.33325 10.7953 10.7952 3.33337 19.9999 3.33337C29.2047 3.33337 36.6666 10.7953 36.6666 20Z" fill="#696BEF"/>
<path d="M31.6667 23.3334C31.6667 24.2089 31.4942 25.0758 31.1592 25.8846C30.8242 26.6934 30.3331 27.4284 29.714 28.0474C29.095 28.6665 28.3601 29.1575 27.5512 29.4926C26.7424 29.8276 25.8755 30 25 30L25 23.3334H31.6667Z" fill="white"/>
<path d="M24.8391 18.7089L22.9948 5.15625L15 11.6666L20 19.8438H23.8482C24.4541 19.8438 24.9208 19.3093 24.8391 18.7089Z" fill="#3A3BA6"/>
<path d="M23.0527 28.5944L21.4974 34.7721L20 27.3502H22.0829C22.7342 27.3502 23.2117 27.9628 23.0527 28.5944Z" fill="#3A3BA6"/>
<path fill-rule="evenodd" clip-rule="evenodd" d="M20 27.3486C15.8579 27.3486 12.5 23.9908 12.5 19.8486H21.5C22.3284 19.8486 23 19.1832 23 18.3547V5.14869C22.0307 4.95192 21.0274 4.84863 20 4.84863C11.7157 4.84863 5 11.5644 5 19.8486C5 28.1329 11.7157 34.8486 20 34.8486C20.5062 34.8486 21.0066 34.8236 21.5 34.7746V28.8486C21.5 28.0202 20.8284 27.3486 20 27.3486ZM20.0004 12.3488C20.0004 13.1772 19.3288 13.8488 18.5004 13.8488C17.6719 13.8488 17.0004 13.1772 17.0004 12.3488C17.0004 11.5204 17.6719 10.8488 18.5004 10.8488C19.3288 10.8488 20.0004 11.5204 20.0004 12.3488Z" fill="white"/>
</svg>
