<svg xmlns="http://www.w3.org/2000/svg" width="541.236" height="291.729" viewBox="0 0 541.236 291.729"><defs><style>.a,.b,.c,.d,.e,.f,.g{fill:#fafafa;}.a{font-size:16px;}.a,.c,.d,.g{font-family:ProximaNova-Regular, Proxima Nova;}.b,.c,.f{font-size:14px;}.b{font-family:GeezaPro, Geeza Pro;}.d{font-size:12px;}.e{font-size:8px;font-family:PingFangSC-Regular, PingFang SC;}.f{font-family:KohinoorDevanagari-Regular, Kohinoor Devanagari;}.g{font-size:10px;}</style></defs><g transform="translate(-701.68 -2796.457)"><path d="M11578.971-1134.8s-2.564-9.975,4.182-10.3,26.736.978,26.736.978l6.162,1.564.99,6.2-1.247,11.365-3.339,1.031h-19.4a5.593,5.593,0,0,0-1.551,4.812c.56,2.819-2.434-.937-2.434-.937l-1.1-1.636-2.952-.969-3.738.716-1.071-1.472Z" transform="translate(-10401 4019)"></path><path d="M11618.131-1134.763s1-10.015-5.75-10.335-26.736.978-26.736.978l-6.162,1.564-.99,6.2,1.247,11.365,3.339,1.031h19.4a5.593,5.593,0,0,1,1.551,4.812c-.56,2.819,2.434-.937,2.434-.937l1.1-1.636,2.571-2.577,4.178-.4h3.322Z" transform="translate(-10573 4128)"></path><path d="M11207.711-1021.728l1.452-15.54.662-6.152h11.922l11.259.56,5.019.75,1.175,3.312s.459,7.754,0,9.384.828,6.912.828,6.912a34.3,34.3,0,0,1-2,3.54c-.258.128-5.019.518-5.019.518l-11.259-.518h-2.3l-.663,5.278-3.7-4.339s-6.641-1.369-7.367-3.7" transform="translate(-10039 4039.787)"></path><path d="M11207.711-1018.9l1.642-17.564,1.725-6.954h12.5l12.726.633,5.671.848,1.329,3.743s.518,8.763,0,10.606-1.329,9.336-1.329,9.336.291,2.333,0,2.477-5.671.585-5.671.585l-12.726-.585h-2.6l-.75,5.966-4.186-4.9s-7.5-1.547-8.326-4.187" transform="translate(-10244 3974.914)"></path><path d="M11242.259-1025.255l-.709-11.608-2.266-5.16-11.815-1.4-12.6.6-5.614.8-1.315,3.529s-.513,8.264,0,10,1.315,8.8,1.315,8.8-.288,2.2,0,2.336,5.614.552,5.614.552l12.6-.552h2.576l.743,5.626,4.144-4.624a12.727,12.727,0,0,0,4.353-2.418,9.89,9.89,0,0,0,2.266-4.017" transform="translate(-10141 3948.831)"></path><path d="M11259.02-1018.066l-1.053-16.2-3.365-7.2-17.549-1.949-18.711.833-9.5,1.992-.8,4.05s-.762,11.534,0,13.959,1.953,8.814,1.953,8.814,3.606,4.133,4.034,4.323,5.136,1.312,5.136,1.312l17.881,1.1h3.051l1.879,7.852,6.154-6.454s4.532-.517,7.478-2.945c1.68-1.38,1.823-4.515,2.353-6.037" transform="translate(-10100 3857.831)"></path><path d="M11238.376-1025.45l-.937-11.329-2.463-3.9-9.526-2.745-11.312.587-6.221.257v4s-.461,8.128,0,9.837,1.181,8.659,1.181,8.659a17.213,17.213,0,0,1,2.427.184c.259.134,3.432.72,3.432.72l10.325.225.9,1.09.662,4.4,4.774-4.761a6.965,6.965,0,0,0,4.441-1.676,7.661,7.661,0,0,0,2.034-3.231" transform="translate(-10327.468 3841.352)"></path><path d="M11238.376-1025.45l-.937-11.329-.457-4.8-11.532-1.839-11.312.587-6.221.257v4s-1.937,8.683-1.477,10.392,2.657,8.1,2.657,8.1a17.213,17.213,0,0,1,2.427.184c.259.134,3.432.72,3.432.72l10.325.225.9,1.09.662,4.4,4.874-4.909a6.227,6.227,0,0,0,4.342-1.528c1.016-.973,2.326-.635,2.646-1.708" transform="translate(-10257.468 3868.352)"></path><path d="M11207.711-1022.295l.77-14.29.152-1.451,2.085-5.384h11.164l11.368.546,5.065.731,3.644,2.766s.266,6.379-.2,7.967-1.606,9.193-1.606,9.193a12.221,12.221,0,0,1-1,2.48c-.26.124-5.909.641-5.909.641l-11.368-.5h-2.324l-.67,5.14-3.739-4.226s-6.7-1.333-7.437-3.608" transform="matrix(0.995, -0.105, 0.105, 0.995, -10289.906, 5061.122)"></path><path d="M11207.711-1012.4l2.076-22.223,2.183-8.8h15.813l16.1.8,7.176,1.073,1.681,4.735s.655,11.088,0,13.419-1.681,11.812-1.681,11.812.368,2.951,0,3.134-7.176.74-7.176.74l-16.1-.74h-3.293l-.948,7.548-5.3-6.2s-9.5-1.957-10.534-5.3" transform="translate(-10401 4019)"></path><g transform="translate(701.68 2796.457)"><path d="M1328.968,194.241c-1.837-1.062-3.624-1.987-5.335-3.036a16.756,16.756,0,0,0-7.3-1.994,56.21,56.21,0,0,0-6.745.926c-1.466.4-3.031.415-4.53.714-1.932.384-3.862.807-5.749,1.363a6.126,6.126,0,0,0-1.951,1.287,60.953,60.953,0,0,0-9.057,8.61c-1.1,1.366-2.132,2.765-3.183,4.161a23.275,23.275,0,0,0-3.21,6.823,62.532,62.532,0,0,0-2,7.639,29.52,29.52,0,0,0-.292,8.819,35.1,35.1,0,0,0,1.89,8.5,26.825,26.825,0,0,0,3.3,6.12c1.422,2.043,3.542,2.326,5.643,2.815,1.2-.737,2.593-.147,3.9-.6a29.835,29.835,0,0,1,4.683-.741,16.41,16.41,0,0,0,5.066-1.407,14.8,14.8,0,0,1,3.478-1.2,3.11,3.11,0,0,1,1.675.307c2.732,1.061,5.527,2.083,7.446,4.45,1.481,1.827,3.394,3.324,4.458,5.457a37.325,37.325,0,0,1,2.205,5.393,18.258,18.258,0,0,1,.678,4.2c.112,1.6-.016,3.211.036,4.815a43.247,43.247,0,0,0,.387,6.329c.289,1.584-.058,3.187.319,4.678.537,2.121.271,4.27.5,6.394.282,2.591.967,5.107,1.145,7.712a45.874,45.874,0,0,0,.975,6.065c.438,2.128.995,4.233,1.534,6.339a15.747,15.747,0,0,0,1.239,4.124,15.35,15.35,0,0,1,1.513,3.537c.932,3.163,1.784,6.35,2.674,9.525.573,2.042,1.467,3.741,3.75,4.432.545.165,1.738.762,1.054,1.987a1.147,1.147,0,0,0,.635.572c1.048.065,2.109-.05,3.153.042a19.011,19.011,0,0,0,9.6-2.1c.7-.316,1.432-.564,2.109-.92.871-.458,1.337-1.2.906-1.989-.561-1.029.071-1.657.342-2.455,1.137-3.351,2.182-6.734,3.388-10.06a50.846,50.846,0,0,1,2.386-5.321A56.729,56.729,0,0,1,1367.9,296c.957-1.188,1.817-2.453,2.7-3.7a2.856,2.856,0,0,0,.259-.679,4.309,4.309,0,0,0-.617-.111,9.02,9.02,0,0,0-1.328,0c-2.053.226-3.317-.734-3.64-3.241-.185-1.44-.14-2.912-.368-4.342-.346-2.171-.382-4.388-.754-6.52a16.088,16.088,0,0,1,.16-4.391c.139-1.583,1.456-2.489,2.784-3.057a14.027,14.027,0,0,1,3.359-.706c1.053-.163,2.137-.159,3.176-.377a2.175,2.175,0,0,0,1.241-.872c1.269-1.954,2.4-4,3.7-5.934,1.176-1.75,2.485-3.413,3.774-5.085,3.222-4.179,7.119-7.726,10.793-11.483a11.372,11.372,0,0,0,1.35-1.764c.3-.459.429-.917-.385-1.088-1.367-.288-2.727-.618-4.072-.994-1.434-.4-2.865-.826-4.265-1.331-2.034-.734-3.46-2.292-4.882-3.826-.507-.547-.951-1.153-1.424-1.733-1.958-2.4-4.033-4.717-5.842-7.225-2-2.771-3.849-5.644-6.009-8.3a34.169,34.169,0,0,1-4.834-7.461c-.755-1.682-1.578-3.333-2.337-5.013a1.645,1.645,0,0,1,.51-2.148,1.671,1.671,0,0,1,2.024.391,65.467,65.467,0,0,1,5.621,7.466c2.247,3.476,4.284,7.07,6.348,10.655a46.252,46.252,0,0,0,5.641,8.144c1.54,1.7,2.843,3.611,4.385,5.307a8.979,8.979,0,0,0,5.126,2.43,21.808,21.808,0,0,1,5.5,1.572c.684.34,1.449.517,2.141.843a1.756,1.756,0,0,1,.894,2.589,3.181,3.181,0,0,1-.471.8c-1.634,1.875-3.325,3.7-4.916,5.612-1.771,2.125-3.469,4.312-5.176,6.49q-3.484,4.447-6.927,8.925c-.509.661-.944,1.379-1.416,2.069-.135.2-.277.392-.417.588.266.027.531.077.8.078,3.378.005,6.756-.04,10.133.018,2.576.044,5.139.306,7.7.606a29.945,29.945,0,0,1,4.546.677,5.017,5.017,0,0,1,3.6,4.188,30.359,30.359,0,0,1,.735,7.854c-.024.557.283,1.123.3,1.689a24.83,24.83,0,0,1-.668,6.365,1.86,1.86,0,0,1-1.959,1.53c-.941.011-1.884.034-2.824-.007-.818-.036-1.151.258-1.2,1.114a31.3,31.3,0,0,1-1.687,7.937,10.1,10.1,0,0,1-1.795,2.9c-1.192,1.522-2.518,2.938-3.733,4.443-1.062,1.315-2.039,2.7-3.069,4.04a6.478,6.478,0,0,1-5.467,2.829c-1.179-.024-1.472-.336-1.513-1.44-.1-2.612-.3-5.224-.3-7.836a6.43,6.43,0,0,1,3.078-5.7,13.572,13.572,0,0,0,2.206-2.2c.174-.184.22-.526.416-.645,1.619-.979,1.333-2.374.927-3.842-.378-1.369-1.6-1.508-2.593-1.539-3.6-.114-7.2-.042-10.8-.048-.612,0-.879.281-.911.884a10.309,10.309,0,0,1-2.6,5.9,77.328,77.328,0,0,0-6.717,9.833c-1.278,2.254-2.781,4.379-4.09,6.617a23.776,23.776,0,0,0-2.867,6.949c-.342,1.577-.606,3.173-1.023,4.73a2.548,2.548,0,0,1-1.62,1.8,36.092,36.092,0,0,0-3.966,1.649c-3.493,1.8-7.234,2.023-11.033,1.816a22.912,22.912,0,0,1-4.04-.66,6.121,6.121,0,0,1-3.844-3.741,24.082,24.082,0,0,0-1.191-2.826c-1.38-2.447-1.959-5.177-2.827-7.8-.744-2.25-1.271-4.574-1.848-6.877-.855-3.415-1.625-6.852-2.513-10.258a64.087,64.087,0,0,1-1.342-7.755c-.425-3.178-.812-6.348-1.024-9.554-.2-2.953-.434-5.908-.655-8.861a64.256,64.256,0,0,0-2.85-15.243c-.507-1.552-1.016-3.133-1.521-4.7-.714-2.211-2.608-3.469-4.392-4.763-.676-.49-1.373-.955-2.074-1.408-.344-.223-.719-.557-1.084-.562-2.713-.04-5.427-.017-7.921,1.3q-2.316,1.224-4.64,2.433a9.919,9.919,0,0,1-4.809,1.224,11.55,11.55,0,0,0-1.494.007,9.482,9.482,0,0,1-6.291-1.666c-.127-.081-.324-.078-.419-.18-1.457-1.551-2.88-3.136-4.359-4.666-1.666-1.724-2.492-3.947-3.587-6a27.115,27.115,0,0,1-2.352-6.995,26.831,26.831,0,0,1-.62-8.689,27.979,27.979,0,0,1,2.456-9.769,38.82,38.82,0,0,1,2.443-4.808,1.056,1.056,0,0,0,.182-1.267c-.213-.4.415-1.427.889-1.98,1.421-1.656,2.948-3.222,4.44-4.815,1.757-1.877,3.471-3.8,5.3-5.6a25.589,25.589,0,0,1,3.843-3.152,18.076,18.076,0,0,1,3.26-1.332,43.968,43.968,0,0,1,8.545-2.242c2.182-.4,4.358-.774,6.567-.985a43.007,43.007,0,0,1,5.04-.605,15.639,15.639,0,0,1,8.445,2.422,35.72,35.72,0,0,0,10.373,5.039,13.372,13.372,0,0,0,1.969.453c2.23.253,4.485.34,6.695.709,2.185.365,4.407.378,6.58.921,1.738.434,3.645.244,5.345.763,2.719.829,5.623.185,8.272,1.269a.916.916,0,0,0,.33,0c2.892-.026,2.688.35,2.669-2.442-.014-2.1-.025-4.209.009-6.312.013-.794-.225-1.082-1.076-1.252-2.451-.488-4.966-.5-7.394-1-3.155-.65-5.5-2.523-5.834-6.178a8.593,8.593,0,0,0-.358-2.011,1.3,1.3,0,0,0-.865-.708,10.915,10.915,0,0,0-1.988-.031c-.84.012-1.564-.2-1.87,1.156-.314,1.4-1.825,1.539-3,.55-.338-.285-.777-.567-.918-.945-.619-1.66-2.138-1.483-3.422-1.736-.512-.1-1.146-.235-1.389.625-.13.461-.668.508-1.1.215a9.1,9.1,0,0,1-1.267-.944c-1.583-1.548-3.143-3.121-4.7-4.692a2.866,2.866,0,0,0-2.13-.9c-.772-.005-.636.48-.538.86a2.4,2.4,0,0,0,.571.92c1.161,1.3,2.341,2.578,3.518,3.861,1.29,1.405,2.6,2.789,3.869,4.214.977,1.1.883,1.6-.342,2.619a4.151,4.151,0,0,0-.7.706,1.167,1.167,0,0,1-1.587.333,53.555,53.555,0,0,1-5.245-2.562,23.087,23.087,0,0,1-5.1-4.49c-1.512-1.691-2.919-3.486-4.526-5.08a2.134,2.134,0,0,0-2.986-.454c-1.442.9-3.352,1.005-4.885,1.792a13.132,13.132,0,0,0-6.2,6.258c-1.033,2.278-3.034,3.34-5.207,3.947a22.082,22.082,0,0,1-6.217,1.071c-.949-.012-1.9.231-2.853.3a1.567,1.567,0,0,1-1.545-1.01,12.3,12.3,0,0,1-.76-10.067,8.531,8.531,0,0,1,2.766-3.5,6.325,6.325,0,0,1,1.57-1.013,12.311,12.311,0,0,1,2.907-.981c1.6-.238,3.225-.257,4.841-.364a2.74,2.74,0,0,1,.663,0c.454.083.9.2,1.351.307.049-.589.318-1.275.108-1.748-.733-1.654-.13-3.13.558-4.508a18.5,18.5,0,0,0,1.465-4.378,3.747,3.747,0,0,1,3.453-2.948c1.339,0,2.679.182,4.015.316,1.282.129,2.58-.27,3.866.289a1.474,1.474,0,0,0,1.75-.541,7.3,7.3,0,0,0,1.858-4.546,2.32,2.32,0,0,1,1.388-2.4,4.08,4.08,0,0,0,2.11-2.414,3.32,3.32,0,0,1,3.276-2.016,6.761,6.761,0,0,1,1.986.022c1.586.42,2.1-.713,2.739-1.711a.381.381,0,0,0,.054-.223.542.542,0,0,0-.295-.082c-1.51.176-1.525.177-1.985-1.221-.225-.684-.436-1.374-.611-2.072a5.144,5.144,0,0,0-3.948-4.025,13.012,13.012,0,0,0-6.9.326,4.179,4.179,0,0,1-.994.011q-2.824,0-5.648,0a3.774,3.774,0,0,1-3.783-2.8,24.344,24.344,0,0,1-1.059-5.563,25.424,25.424,0,0,1-.229-4.848c.247-2.306.149-4.678.974-6.895.371-1,.589-2.157,1.852-2.529.244-.072.482-.29.709-.272a8.2,8.2,0,0,0,3.059-.647,7.339,7.339,0,0,1,4.872-.056,1.953,1.953,0,0,0,1.311,0c1.268-.515,2.583-.153,3.857-.322a84.469,84.469,0,0,1,9.5-.333c1.008-.02,2.063-.454,3.007-.262,1.551.316,3.182-.015,4.677.714a3.309,3.309,0,0,1,1.688,2.606,5.128,5.128,0,0,1,.01.829c.108,2.169.2,4.339.338,6.506.073,1.158.76,1.982,1.884,1.872,1.962-.191,3.934-.326,5.894-.521a16.91,16.91,0,0,1,6.165.194,4.032,4.032,0,0,1,2.975,3.287c.419,1.66,1.172,2.429,2.81,2.384a47.374,47.374,0,0,0,5.007-.355,4.458,4.458,0,0,0,1.929-.918,16.9,16.9,0,0,1,5.156-2.807,9.17,9.17,0,0,1,3.091-.567,21.947,21.947,0,0,0,7.32-1.156c1.788-.541,3.666-.781,5.5-1.161a35.852,35.852,0,0,1,4.128-.836c2.039-.174,4.069-1.06,6.158-.184a1.975,1.975,0,0,0,1.09-.13c1.98-.51,3.6-1.748,5.364-2.689a13.528,13.528,0,0,1,4.2-1.532c2.314-.386,4.647-.67,6.952-1.192,1.974-.447,3.977-.826,5.9-1.444,1.942-.624,3.783-1.556,5.7-2.282a68.686,68.686,0,0,1,7.385-2.6,6.257,6.257,0,0,1,4.469.311c2.071,1.156,4.341,1.572,6.525,2.317a7.7,7.7,0,0,1,5.072,4.445,3.562,3.562,0,0,0,3.538,2.477c3.218.166,6.441.257,9.662.338,1.335.034,1.4-.036,1.37-1.4-.086-3.831-.069-7.673-.392-11.485-.137-1.62-.2-3.233-.266-4.851-.027-.667.071-1.187.924-1.206.761-.017,1.042.286,1.094,1.056.068,1,.118.709.766.136a5.709,5.709,0,0,1,3.132-1.145c7.914-.7,15.853-.356,23.779-.3a52.8,52.8,0,0,1,6.663.339c1.354.183,2.7.084,4.023.273,2.921.417,5.919.357,8.75,1.324a3.808,3.808,0,0,1,2.4,2.171c.384.914,1.4,1.648.774,2.843-.042.08.069.228.081.348.261,2.606.568,5.209.757,7.82.107,1.487.019,2.989.02,4.484,0,2.08.268,2.257,2.416,1.681a4.424,4.424,0,0,1,1.128-.085q8.223-.007,16.445.008a9.912,9.912,0,0,1,1.382.256,2.4,2.4,0,0,0,.967.049,10.163,10.163,0,0,1,5.219-.019,22.932,22.932,0,0,0,3.842.357,4.121,4.121,0,0,1,3.316,1.61,5.736,5.736,0,0,0,4.61,2.066,55,55,0,0,1,6,.362c1.412.2,2.5,1.136,1.523,2.813-.232.4-.384.841-.616,1.238-.5.856-1.139,1.681-.161,2.638.087.085-.01.365-.034.553-.06.472-.149.942-.185,1.416-.055.717.367.9,1.011.948,1.336.1,2.385-.69,3.525-1.134a1.079,1.079,0,0,1,1.394.233,1.053,1.053,0,0,1,.16,1.578c-.922,1.025-1.958,1.947-2.88,2.971-2.165,2.4-5.235,3.48-7.739,5.377a3.329,3.329,0,0,0-1.428,2.707c.058,1.892-.318,3.8.277,5.686a2.345,2.345,0,0,1-1.478,2.808c-1.494.7-2.957,1.575-4.754,1.378-1.171-.128-2.056-.767-2.019-1.973.051-1.671-.234-3.337.263-5.025s.047-2.36-1.625-3.322a2.39,2.39,0,0,1-.982-3.533c.344-.64.8-1.218,1.2-1.832a2.271,2.271,0,0,0,.432-.811,4.476,4.476,0,0,0-.113-1.1,4.721,4.721,0,0,0-.911.536c-1.057.988-2.462,1.1-3.74,1.39a84.626,84.626,0,0,0-9.863,2.671,34.512,34.512,0,0,0-7.557,3.81c-.958.635-.982,1.6-.131,2.607a9.06,9.06,0,0,0,3.054,2.244,16.95,16.95,0,0,1,5.495,3.612,5.192,5.192,0,0,1,1.491,3.378c.022.516-.02.914.708.477a6.44,6.44,0,0,1,2.782-.512,136.012,136.012,0,0,1,13.818-.291c1.172,0,2.344.209,3.517.314a17.444,17.444,0,0,1,3.532.28,15.822,15.822,0,0,0,3.834.371,15.826,15.826,0,0,1,3.886.649,10.126,10.126,0,0,0,2.844.342c2.064-.013,3.034,1.183,3.587,3.153a20.255,20.255,0,0,1,.73,5.861c-.029,1.557.269,3.119.28,4.679a14.221,14.221,0,0,1-.345,3.673,5.032,5.032,0,0,1-3.7,3.553,15.25,15.25,0,0,1-4.035.665c-5.647.072-11.3.028-16.943.032-1.347,0-1.352.009-1.531,1.416-.12.95-.155,1.916-.359,2.847a3.481,3.481,0,0,1-.793,1.642,1.161,1.161,0,0,1-1.654.059,8.216,8.216,0,0,1-1.733-2.1c-.355-.727-.555-1.473-1.313-1.922-.98-.58-2.009-.242-3.014-.211-.906.028-1.815.284-2.71.229-1.074-.066-2.2-1.5-2.378-2.816-.339-2.519-.519-5.071-1.042-7.551-.5-2.349-.123-4.682-.292-7.014a3.568,3.568,0,0,0-.093-.459c-.157.109-.4.185-.457.333a37.568,37.568,0,0,0-1.738,4.424c-.511,1.873-1.1,3.547-2.931,4.605a10.57,10.57,0,0,0-2.126,2.086,1.619,1.619,0,0,0-.289.7,7.138,7.138,0,0,1-1.106,2.707c-1.033,1.378-.276,2.787.343,4.035,1.046,2.109,2.957,3.013,5.226,3.312a3.428,3.428,0,0,1,1.564.595.851.851,0,0,1,.4,1.128c-.254.493-.409.873-1.1.942a9.989,9.989,0,0,1-7.078-1.744c-2.786-2.077-5.414-4.457-5.9-8.266a.423.423,0,0,0-.275-.294.462.462,0,0,0-.37.2q-1.095,2.036-2.15,4.093a1.256,1.256,0,0,0-.171.75c.627,2.929,1.011,5.928,2.324,8.668a12.876,12.876,0,0,0,1.249,1.973,9.372,9.372,0,0,1,2,5.626,10.355,10.355,0,0,1-2.194,6.722,35.154,35.154,0,0,1-13.089,9.685c-2.331,1.046-4.76,1.875-7.147,2.8-.857.331-1.007.571-.507,1.4a42.931,42.931,0,0,0,2.584,3.911c1.553,2.045,3.308,3.949,4.324,6.354a12.652,12.652,0,0,1,1.094,3.024,5.841,5.841,0,0,1-1.66,5.1c-.718.723-1.584,1.3-2.307,2.019-.683.681-1.269,1.459-1.89,2.2a16.844,16.844,0,0,1-1.552,1.832c-.311.278-1.154.5-1.259.366-.311-.4-.656-1.139-.479-1.485.453-.883.138-1.381-.443-1.972a33.532,33.532,0,0,0-6.4-5.4c-.95-.576-1.5-.419-1.907.672-.447,1.2-.956,2.381-1.307,3.609a1.908,1.908,0,0,1-1.562,1.592,1.814,1.814,0,0,1-1.945-1.25,32.528,32.528,0,0,0-1.62-2.983,6.741,6.741,0,0,1-.872-3.292c-.013-2.824,0-5.648,0-8.472a2.575,2.575,0,0,0-.025-.985c-.156-.342-.374-.86-.96-.441a2.946,2.946,0,0,1-.683.353,1.8,1.8,0,0,1-2.053-.355,28.354,28.354,0,0,1-3.908-5.044c-1.449-2.012-2.879-4.024-5.077-5.309a3.417,3.417,0,0,0-1.369-.656c-.375-.014-.757.454-1.157.669-.222.119-.6.3-.717.207-1.143-.889-1.846.182-2.435.7a37.159,37.159,0,0,0-5.87,6.682c-.33.473-.65.954-1,1.413-2.176,2.866-2.939,6.317-3.971,9.65a21.4,21.4,0,0,0-1.255,5.1c-.066,1.326-.734,2.643-.13,4.058.353.827-.951,1.7-1.866,1.2a16.115,16.115,0,0,1-3.222-2.227,20.217,20.217,0,0,1-4.847-5.785c-.249-.512-.768-.545-1.281-.5-.79.065-1.229-.076-1.428-1.071a14.839,14.839,0,0,0-1.412-3.222,40.36,40.36,0,0,1-3.2-8.979,47.67,47.67,0,0,0-1.341-4.759c-.082-.257-.546-.5-.865-.549a4.92,4.92,0,0,0-1.654-.01c-1.877.34-4.644-1.868-5.018-4.1a3.627,3.627,0,0,0-2.032-2.558c-1.427-.954-2.888-1.854-4.318-2.8a2.688,2.688,0,0,0-2.251-.466c-2,.524-3.983,1.084-5.986,1.581a1.576,1.576,0,0,1-.876-.258c-2.736-1.283-5.439-2.639-8.205-3.854s-5.584-2.291-8.385-3.417a1.519,1.519,0,0,0-.626-.083,3.281,3.281,0,0,0-.6.141c.067.189.081.434.21.559,2.449,2.36,4.8,4.837,7.423,6.993,1.082.891,2.719,1.14,4.133,1.587,1.47.465,2.986.7,4.449,1.292,2.582,1.037,2.62,2.125,2.166,4.756-.257,1.487-1.282,2.482-2.114,3.613a33.516,33.516,0,0,1-2.988,4.052,22.44,22.44,0,0,1-4.3,3.213,28.651,28.651,0,0,1-4.848,2.315,40.106,40.106,0,0,1-5.085,1.355c-.929.209-1.9.2-2.847.359a5.581,5.581,0,0,1-4.514-1.53,41.632,41.632,0,0,1-10.643-12.493c-1.018-1.85-2.074-3.68-3.088-5.533a13.894,13.894,0,0,1-.82-1.818,1.419,1.419,0,0,1,.551-1.709c.66-.55,1.107.149,1.341.369,1.1,1.038,2.079,2.213,3.091,3.347.791.887,1.518,1.837,2.36,2.67,2.386,2.361,3.944,5.452,6.584,7.565,1.842,1.474,3.85,2.739,5.747,4.148,1.6,1.189,3.241.658,4.833.137a26.534,26.534,0,0,0,9.493-5.15c.892-.785,1.8-1.552,2.677-2.354a4.129,4.129,0,0,0,1.1-2.691c.133-1.029-.106-1.242-1.179-1.239a16.572,16.572,0,0,1-4.542-.671,5.479,5.479,0,0,1-2.551-1.472c-1.268-1.315-2.643-2.532-3.852-3.9-1.339-1.513-2.511-3.172-3.818-4.715-.429-.507-.752-1.173-1.624-1.238a1.719,1.719,0,0,1-1.341-2.1,6.481,6.481,0,0,1,.7-1.7,1.631,1.631,0,0,1,1.467-.855,19.807,19.807,0,0,1,5.489,1.209,57.649,57.649,0,0,1,7.612,3.28c2.172,1.032,4.369,2.017,6.6,2.918a4.027,4.027,0,0,0,2.208.22c1.454-.3,2.84-.952,4.3-1.213a3.935,3.935,0,0,1,3.5.682,40.075,40.075,0,0,0,3.887,2.615c.115.075.235.142.352.213.032-.153.133-.332.086-.455-.732-1.9-.215-3.923-.553-5.892a10.524,10.524,0,0,1,.213-5.5,4.529,4.529,0,0,0,.023-1.156c.1-1.284.215-2.567.331-3.849a1.19,1.19,0,0,1,.1-.29,5.822,5.822,0,0,1,3.826-2.733c6.039-.524,12.09-.323,18.135-.3a32.825,32.825,0,0,1,9.236,1.349,6.646,6.646,0,0,1,4.612,5.228c.8,3.269.546,6.568.648,9.864a22.417,22.417,0,0,1-2.338,10c-.063.14-.09.3-.161.431-.872,1.674-1.666,2.053-3.487,1.672-1.262-.264-1.523-.125-2.13.951-1.04,1.842-2.264,3.6-3.109,5.525-.511,1.164-1.35.936-1.977.756-.47-.134-.746-.965-1.092-1.5-.051-.078-.007-.217-.007-.328,0-.831-.044-1.664.014-2.491.048-.688-.632-1.348-.049-2.079.064-.081-.3-.706-.566-.805a5.768,5.768,0,0,0-1.844-.349c-1.826-.043-3.655-.048-5.481,0a11.7,11.7,0,0,0-2.351.332c-.762.179-.366.841-.268,1.194.26.932.7,1.813,1.021,2.729.752,2.126,1.474,4.262,2.217,6.391.321.919.617,1.851,1.022,2.731a1.415,1.415,0,0,0,.882.546c1.166.3,1.18.38,1.116,1.6a2.553,2.553,0,0,0,.517,1.427c1.339,1.946,2.693,3.885,4.123,5.764a7.7,7.7,0,0,0,1.722,1.418c.375.269.56.092.589-.366.287-4.621,1.9-8.885,3.469-13.177a20.865,20.865,0,0,1,4.5-7.106c2.167-2.327,4.351-4.64,6.589-6.9a10.467,10.467,0,0,1,2.3-1.644c.984-.557,1.422-.382,2.089.469a2.373,2.373,0,0,0,.858.611,14.3,14.3,0,0,1,5.921,4.91c1.217,1.786,2.645,3.431,3.828,5.237a1.5,1.5,0,0,0,1.951.684,5.221,5.221,0,0,1,1.235-.218,1.992,1.992,0,0,1,2.155,2.016,81.164,81.164,0,0,1,.326,9.665,4.568,4.568,0,0,0,.169,1.258c.133.436.42.825.56,1.26a6.94,6.94,0,0,1,.172,1.15,1.938,1.938,0,0,0,.135.77,5.431,5.431,0,0,0,.8.8,8.622,8.622,0,0,1,.24-.9c.419-1.1.806-2.215,1.3-3.281a2.728,2.728,0,0,1,3.608-1.278,12.816,12.816,0,0,1,3.545,2.254c1.377,1.15,2.669,2.4,3.984,3.629.762.709,1.111.82,1.808-.02a12.543,12.543,0,0,0,1.6-2.813c.931-2.031-.275-3.746-1.074-5.412-1.156-2.411-2.585-4.69-3.9-7.027-.529-.943-1.078-1.877-1.579-2.835a2.453,2.453,0,0,1,.465-3.285,16.453,16.453,0,0,1,3.566-2.617,60.946,60.946,0,0,0,9.877-7.091,43.419,43.419,0,0,0,6.157-6.917c1.079-1.568,1.917-3.205,1.149-5.251a21.226,21.226,0,0,1-.385-2.669,6.945,6.945,0,0,0-.839-2.3,10.88,10.88,0,0,1-1.283-9.677,9.826,9.826,0,0,1,1.141-3.184,18.169,18.169,0,0,1,1.349-1.924c1.438-1.513,2.971-1.248,3.966.664.5.952.861,1.971,1.344,2.93a19.46,19.46,0,0,0,1.142,1.851.311.311,0,0,0,.3.014.337.337,0,0,0,.032-.317c-1.123-1.9-.213-3.629.41-5.4a23.923,23.923,0,0,1,2.677-5.047,19.288,19.288,0,0,0,1.331-3.261,51.259,51.259,0,0,1,2.148-5.086c.859-1.591.99-3.355,1.576-5,.207-.581.318-1.2.505-1.785a2.393,2.393,0,0,0-1.044-3.065,27.647,27.647,0,0,0-6.295-3.261,10.926,10.926,0,0,1-4.442-3.573c-.553-.727-.063-2.419.791-3.033a24.579,24.579,0,0,1,8.6-3.716,52.2,52.2,0,0,0,5.673-1.933c3.742-1.406,7.4-3.055,11.314-3.95a3.611,3.611,0,0,1,3.842,1.063c.7.831,1.7,1.467,1.324,2.777a9.849,9.849,0,0,1-.532,1.439,20.972,20.972,0,0,0-1.015,2.069c-.1.307.075.984.3,1.086,2.458,1.088,2.115,3.3,1.821,5.175-.205,1.308-.115,2.582-.227,3.865-.043.5.289.538.618.261,1.448-1.218,2.5-2.647,2.355-4.668-.091-1.229-.159-2.464-.342-3.681-.281-1.863.881-2.746,2.239-3.537,2.052-1.2,4.092-2.412,6.162-3.577.617-.347.63-.618.09-1a10.953,10.953,0,0,0-1.419-.988,2.23,2.23,0,0,1-1.436-2.27,9.315,9.315,0,0,0-.264-3.531c-.291-.818.421-1.462.977-2.059.479-.513.3-1-.387-1.116a6.072,6.072,0,0,0-1-.009c-2.381,0-4.762.008-7.143,0a2.518,2.518,0,0,1-2.794-2.731c-.041-1.17-.107-1.237-1.364-1.251-.941-.011-1.882-.014-2.824,0a4.194,4.194,0,0,1-2.466-.478,2.123,2.123,0,0,0-1.08-.183q-10.714-.015-21.428.007a12.089,12.089,0,0,0-2.35.339.693.693,0,0,0-.368.528c-.134,2.555-.2,5.115-.364,7.668a18.214,18.214,0,0,1-.538,3.762c-.725,2.563-2.844,3.347-5.2,3.619-1.716.2-3.449.288-5.177.325a1.523,1.523,0,0,0-1.309.834c-.768,1.218-1.334,2.572-2.168,3.739a11.163,11.163,0,0,1-2.439,2.437,1.3,1.3,0,0,1-2.077-.751c-.3-1.1-.46-2.248-.684-3.374s-.368-2.274-.7-3.367c-.379-1.246-2.45-2.143-3.829-1.769-.245.066-.472.256-.714.271-2.168.129-4.337.229-6.506.344-2,.106-4.006.3-6.009.307a50.11,50.11,0,0,1-5.343-.322,7.54,7.54,0,0,1-6.141-4.393,25.091,25.091,0,0,1-2.728-7.527c-.2-1.2-.154-2.357-.25-3.53-.079-.964-.532-1.487-1.5-1.467a10.346,10.346,0,0,0-2.873.252,7.862,7.862,0,0,1-2.7-.188c-.432-.037-.865-.051-1.3-.078a51.225,51.225,0,0,1-5.171-.375,4.367,4.367,0,0,1-2.734-2.312c-.494-.781-.825-1.67-1.356-2.421a6.036,6.036,0,0,0-3.186-1.863c-2.262-.82-4.643-1.281-6.789-2.471a4.418,4.418,0,0,0-3.37.019c-3.966,1.1-7.653,2.932-11.534,4.243a30.9,30.9,0,0,1-6.174,1.568c-1.894.23-3.736.861-5.616,1.243a29.019,29.019,0,0,0-3.443.526,13.042,13.042,0,0,0-3.851,1.886,15.822,15.822,0,0,1-6.251,2.574c-2.542.621-5.17.876-7.742,1.385a72.719,72.719,0,0,1-7.558,1.04,23.725,23.725,0,0,0-7.386,2.178,60.057,60.057,0,0,1-10.738,3.752c-.9.208-1.782.505-2.671.768a2.719,2.719,0,0,1-3.05-.974c-.2-.28-.4-.718-.661-.769-1.839-.356-2.444-1.758-3-3.277-.387-1.049-.737-2.291-2.122-2.367a9.773,9.773,0,0,0-2.73-.117,39.419,39.419,0,0,1-5.992.409c-.829.038-1.661-.006-2.491.009-1.127.021-1.45.279-1.246,1.341.453,2.362.259,4.833,1.286,7.1.454,1-.05,1.716-1.127,1.848-1,.123-2.013.214-3.018.338-.735.091-.977.579-.47,1.145a20.606,20.606,0,0,0,2.922,2.9c1.9,1.41,1.831,4.787.314,6.48a14.1,14.1,0,0,1-7.477,4.386,4.861,4.861,0,0,1-2.407-.16c-1.376-.422-1.834-1.468-1.7-2.907.113-1.2.016-1.211-1.178-1.217a20.552,20.552,0,0,0-2.489.021c-.77.091-1.461.266-1.672,1.326a3,3,0,0,1-1.949,2.142,2.031,2.031,0,0,0-1.371,2.079,8.07,8.07,0,0,1-3.593,6.045,1.089,1.089,0,0,1-1.248.107,4.536,4.536,0,0,0-2.477.256c-1.3.308-2.6.666-3.864,1.094-2.388.807-3.2,2.842-3.711,5.039-.286,1.222-.457,2.471-.676,3.709a4.039,4.039,0,0,1-4.939,3.036,14.619,14.619,0,0,0-3.781,0c-.668.038-1.321.289-1.989.392a6.9,6.9,0,0,0-5.262,6.474,12,12,0,0,0,.67,3.884c.489,1.254.963,1.686,2.17,1.241,1.169-.431,2.392-.311,3.56-.621,1.841-.488,3.76-.666,5.372-1.9a6.051,6.051,0,0,0,1.527-2.021,15.153,15.153,0,0,1,7.824-7.121c1.812-.7,3.611-1.442,5.453-2.072a2.217,2.217,0,0,1,1.813.068,12.176,12.176,0,0,1,4.229,3.485c2.71,3.255,5.409,6.579,9.364,8.473a19.293,19.293,0,0,0,1.815.663c.078-.841-.48-1.34-1.013-1.836-1.315-1.224-2.672-2.4-3.959-3.656a7.687,7.687,0,0,1-1.732-2.1,11.509,11.509,0,0,0-2.508-3.112c-.56-.578-.982-1.873-.62-2.35a2.765,2.765,0,0,1,2-1.171,8.783,8.783,0,0,1,7.176,2.762c.843.791,1.478,1.91,2.86,1.926.123,0,.262.187.361.313,1.277,1.633,3.11,1.856,4.987,2a4.461,4.461,0,0,1,3.5,1.888c.1.148.22.288.33.431.111-.143.315-.283.318-.429.024-.956.835-1.062,1.436-1.2a3.283,3.283,0,0,1,2.119.021c.932.538,1.6-.077,2.373-.162a5.3,5.3,0,0,1,1.229-.194,1.11,1.11,0,0,1,.8.6,22.172,22.172,0,0,1,.661,4.038,4.87,4.87,0,0,0,4.2,4.612c1.942.316,3.915.43,5.866.7a21.565,21.565,0,0,1,3.372.682,1.58,1.58,0,0,1,1.218,1.579c-.016,3.156.087,6.317-.062,9.466-.046.972-.091,2.307-1.531,2.64a3.6,3.6,0,0,1-.9.225c-1.891-.09-3.781-.213-5.67-.345-.124-.009-.311-.28-.342-.257-1.668,1.23-3.118.041-4.659-.359-.918-.238-1.9-.216-2.845-.363-1.137-.177-2.262-.424-3.4-.613-.886-.147-1.776-.286-2.67-.369-1.5-.138-3.017-.16-4.511-.354-3.688-.478-7.431-.7-10.963-2a24.712,24.712,0,0,1-3.074-1.56m153.08-89.123c-2.99,0-5.98.028-8.969-.015a31.9,31.9,0,0,1-3.184-.321c-.494-.057-.694.107-.645.626.154,1.612-.025,3.215.267,4.857a52.424,52.424,0,0,1,.4,6.825c.119,2.666.012,5.364.39,7.992a22.687,22.687,0,0,0,3.226,8.453,4.876,4.876,0,0,0,2.558,1.831c.937.426,1.94.122,2.851.348a24.59,24.59,0,0,0,8.165.189,41.818,41.818,0,0,0,5.9-.485,18.855,18.855,0,0,1,4.635-.058,3.9,3.9,0,0,1,3.566,2.175c.971,1.77,1,3.713,1.284,5.618a1.852,1.852,0,0,0,.25.5,1.9,1.9,0,0,0,.4-.359c.9-1.454,1.744-2.938,2.675-4.369a3.259,3.259,0,0,1,2.941-1.614,29.138,29.138,0,0,0,5.169-.351c1.159-.2,2.646-.217,2.971-1.9a19.171,19.171,0,0,0,.515-2.1c.133-1.779.253-3.583.272-5.342.071-6.552.521-13.134-.6-19.651-.123-.712-.257-1.565-1.125-1.812a13.561,13.561,0,0,0-2.172-.369c-2.065-.238-4.129-.54-6.2-.646-2.389-.122-4.784-.212-7.171-.294-5.64-.194-11.291-.066-16.938-.055a3.985,3.985,0,0,0-1.426.325M1434.869,216.75c1.946-.107,3.885-.024,5.848-.256a28.1,28.1,0,0,1,7.822.253,2.388,2.388,0,0,1,1.949,3.011,9.61,9.61,0,0,0-.158,1.925c-.005.124.131.254.2.382.151-.1.362-.172.442-.315.681-1.209,1.33-2.437,2.005-3.65a3.522,3.522,0,0,1,3.618-1.551c1.159.335,1.178.344,1.692-.806a28.677,28.677,0,0,0,2.3-10.324,20.676,20.676,0,0,0-.311-3.512c-.2-1.626-.347-3.267-.685-4.866a3.954,3.954,0,0,0-3.34-2.875c-3-.082-6-.137-9-.272-5.467-.246-10.953-.07-16.431-.07a7.229,7.229,0,0,0-1.16.01,1.9,1.9,0,0,0-1.6,1.69c-.148,1.444-.292,2.894-.33,4.344a47.213,47.213,0,0,0,.657,10.181c.3,1.583.6,3.173,1.012,4.729a2.853,2.853,0,0,0,2.381,2.267,9.809,9.809,0,0,0,3.081-.3M1404.8,284.693c-.069-2.578-.372-5.135-.6-7.7a28.255,28.255,0,0,0-.763-3.53,1.594,1.594,0,0,0-1.39-1.226c-1.789-.23-3.575-.583-5.37-.642-5.486-.181-10.975-.252-16.464-.354-1.383-.026-2.767,0-4.151,0-1.328,0-2.664-.088-3.982.026-1.21.1-2.183,1.6-3.609.649-.029-.019-.152.149-.247.178a2.781,2.781,0,0,0-1.93,3.116c.084,1.962.422,3.912.626,5.869.237,2.286.425,4.578.687,6.861.049.429.276,1.128.54,1.189a7.306,7.306,0,0,0,3.151.3,9.785,9.785,0,0,1,2.206-.237c4.206-.025,8.412-.038,12.617.007a13.467,13.467,0,0,1,2.977.418,3.042,3.042,0,0,1,2.414,2.413,8.732,8.732,0,0,0,.337,1.189c.171.45.357.361.668.044,1.239-1.263,2.508-2.5,3.794-3.712a1.318,1.318,0,0,1,.837-.353c2.128.044,4.261.063,6.378.251.628.056.865-.191.918-.578.174-1.274.245-2.561.356-4.176M1549.16,161.6c-2.056.111-4.115.19-6.167.349a4.267,4.267,0,0,0-2.246.521,5.807,5.807,0,0,0-1.671,2.423,9.191,9.191,0,0,0-.365,3c-.025,2.2.417,4.357.6,6.532.192,2.331.722,4.587,1.04,6.886.117.851.407,1.408,1.4,1.226.568-.1,1.137-.221,1.711-.272a6.914,6.914,0,0,1,4.04.554,2.546,2.546,0,0,1,1.516,2.195c.016.171.288.317.441.475a1.669,1.669,0,0,0,.194-.5c.023-.663-.01-1.328.014-1.991a2.6,2.6,0,0,1,1.769-2.373,5.593,5.593,0,0,1,1.464-.075q8.712-.006,17.424,0c1.1,0,2.255-.132,2.823-1.124a7.106,7.106,0,0,0,1.128-3.52c.016-2.444.194-4.887.3-7.33.007-.165-.056-.368.018-.489.664-1.072.175-2.243.292-3.359.014-.137-.272-.325-.444-.457-1.4-1.085-3.165-.99-4.767-1.279-2.361-.426-4.784-.518-7.184-.709-1.612-.129-3.222-.087-4.848-.265-2.693-.3-5.445.043-8.484-.407m-236.721-46.348a7.95,7.95,0,0,0-2.717,6.364,60.307,60.307,0,0,0,.755,8.014,21.477,21.477,0,0,0,.956,2.912,1.423,1.423,0,0,0,1.668,1.153,44.155,44.155,0,0,0,4.828-.39,20.831,20.831,0,0,0,2.841-.329,8.252,8.252,0,0,1,5.3.265,7.359,7.359,0,0,1,5.309,5.453c.053.2.089.406.132.609.156-.133.389-.236.457-.4a10.517,10.517,0,0,1,2.59-3.241,3.132,3.132,0,0,1,2.085-1,35.553,35.553,0,0,0,3.707-.643.8.8,0,0,0,.669-.949,45.031,45.031,0,0,0-.412-6.648c-.419-2.022-.047-4.044-.528-6.059a29.417,29.417,0,0,1-.386-5.322,1.259,1.259,0,0,0-1.042-1.257,16.578,16.578,0,0,0-3.01-.34,38.535,38.535,0,0,0-4.679.255c-3.029.316-6.1.268-9.146.4-2.056.087-4.116.164-6.164.35a14.758,14.758,0,0,0-3.211.808M1389.02,299.81c-.625.625-1.2,1.308-1.885,1.866-2.165,1.77-2.32,4.251-2.19,6.692.049.926.194,1.9.256,2.851.017.266-.04.605.1.778.167.2.689.43.749.364.437-.478,1.1-.481,1.561-1.09,2.239-2.978,4.553-5.91,7.016-8.7a12.682,12.682,0,0,0,2.874-6.454c.237-1.328.56-2.641.838-3.962.039-.185.044-.377.065-.566-.26-.015-.636-.146-.76-.023a5.108,5.108,0,0,0-1.059,1.374c-.825,1.756-1.53,3.57-2.373,5.317-.751,1.557-1.531,1.7-2.826.577-.514-.445-.91-.518-1.38-.008-.262.284-.545.549-.985.989m-55.65-153.993c-.124.67.188,1.348-.286,2.049-.291.43.053,1.086.764,1.093a5.737,5.737,0,0,0,1.564-.213,11.081,11.081,0,0,0,5.162-3.147,2.307,2.307,0,0,0,.024-3.521c-1.363-1.417-3.063-2.587-3.563-4.654-.112-.463-.294-.571-.631-.277a6.706,6.706,0,0,0-1.243,1.282c-.14.213.114.656.107.994a4.853,4.853,0,0,1-.18,1.015,6.718,6.718,0,0,0-.367,1.495,2.815,2.815,0,0,1-.912,2.12c-.438.436-.937.864-.441,1.765M1492.014,101.8c-4.105.111-8.21.238-12.315.325-1.936.041-3.874.013-5.811,0-.5,0-.991-.016-1.294.487a8.563,8.563,0,0,0,1.223.174c9.8.01,19.593,0,29.389.022.84,0,1.677.239,2.52.3.238.017.494-.214.741-.331-.2-.1-.4-.287-.615-.3-1.56-.1-3.117-.119-4.684-.271-2.921-.283-5.892.054-9.154-.406m21.6,110.968c-1.017.886-2.036,1.769-3.049,2.661a5.506,5.506,0,0,0-.44.488c.226,0,.51.085.67-.02a52.3,52.3,0,0,0,8.151-6.423,10.317,10.317,0,0,0,2.778-5.335,9.24,9.24,0,0,0,.008-2.484c-.009-.166-.284-.318-.437-.476a2.443,2.443,0,0,0-.2.5,13.275,13.275,0,0,1-.285,1.878,15.691,15.691,0,0,1-3.522,5.508c-1.1,1.24-2.334,2.362-3.674,3.7M1276.224,221.9a3.359,3.359,0,0,0-.316,1.021c.082,2.826.17,5.653.343,8.475a7.363,7.363,0,0,0,.639,1.879c.05.14.114.275.172.412.053-.144.162-.292.15-.43-.095-1.06-.28-2.116-.311-3.177a68.738,68.738,0,0,1,.594-8.841,33.094,33.094,0,0,1,1.541-7.5,3.925,3.925,0,0,0-.014-1.288,1.153,1.153,0,0,0-.495,1.131c.013.221-.221.45-.321.685a26.917,26.917,0,0,0-1.983,7.628m113.128,8.8a11.323,11.323,0,0,0-1.412-.985c-2.125-1.058-3.691-2.835-5.469-4.318a26.774,26.774,0,0,1-3.192-3.776c-.437-.532-.852-1.082-1.292-1.612a1.115,1.115,0,0,0-.345-.191c-.017.149-.107.353-.041.44,1.115,1.473,2.173,3,3.4,4.375a44.432,44.432,0,0,0,4.333,4.315c1.207,1.028,2.28,2.394,4.086,2.481l1.1.055a3.488,3.488,0,0,0-1.163-.784m-21.1,69.6q1.872-2.537,3.745-5.075a12.019,12.019,0,0,0,.8-1.159c.076-.134-.025-.369-.045-.557a2.658,2.658,0,0,0-.56.2,1.315,1.315,0,0,0-.29.37c-1.037,1.447-2.114,2.869-3.1,4.351-.913,1.375-1.732,2.812-2.58,4.23a3.807,3.807,0,0,0-.249.68c.234-.159.547-.267.689-.486.5-.777.95-1.591,1.584-2.557m-75.086-50.833c.7-.166,1.4-.321,2.1-.507a1.53,1.53,0,0,0,.422-.3c-.184-.088-.212-.272-.594-.19a31.877,31.877,0,0,1-4.089.485c-.709.058-1.427.006-2.141.015a.955.955,0,0,0-.286.1,1.224,1.224,0,0,0,.281.222,9.6,9.6,0,0,0,4.31.171M1536.535,159.6c-.388,1.266-.781,2.53-1.153,3.8-.038.13.056.3.089.45.155-.11.365-.186.457-.335a5.127,5.127,0,0,0,.607-3.916M1505.8,234.193c-.231-.453-.446-.916-.707-1.351-.058-.1-.279-.1-.425-.144a2.677,2.677,0,0,0,.083.442c.525,1.428,1.519,2.666,1.717,4.229a1.03,1.03,0,0,0,.126.276,1.29,1.29,0,0,0,.2-.339c.246-1.126-.666-1.931-.991-3.114m20.433-86.216.412-.917c-.306.142-.61.287-.918.424-.139.062-.36.067-.416.168-.171.309-.477.757-.37.962a4.243,4.243,0,0,0,1.012.972c.038-.371.079-.741.113-1.112a.907.907,0,0,1,.168-.5M1366.76,214.425c.234.345.458.7.707,1.03a1.373,1.373,0,0,0,.345.243c.035-.15.148-.347.091-.441-.405-.665-.84-1.311-1.286-1.95-.024-.034-.233.061-.356.1A5.534,5.534,0,0,0,1366.76,214.425Z" transform="translate(-1061.937 -83.168)"></path><path d="M175.831,377.98a24.2,24.2,0,0,1-1.626,2.26c-1.36,1.456-2.8,2.836-4.213,4.242a14.435,14.435,0,0,0-4.238,9.549c-.191,2.586-.628,5.154-.974,7.728a3.27,3.27,0,0,1-1.789,2.419,15.332,15.332,0,0,1-4.852,1.918,9.143,9.143,0,0,0-5.391,3.364,10.586,10.586,0,0,0-1.561,3.65,39.6,39.6,0,0,1-3.921,9.338,50.96,50.96,0,0,1-3.386,4.746q-1.826,2.418-3.76,4.754c-.933,1.127-2.025,2.128-2.911,3.289a49.425,49.425,0,0,0-4.523,6.421,5.319,5.319,0,0,0,.5,6.115,6.552,6.552,0,0,1,.87,5.494,34.008,34.008,0,0,1-1.616,4.639,2.2,2.2,0,0,0,.121,2.265c1.435,1.97,2.688,4.107,4.835,5.434a1.9,1.9,0,0,0,1.182.307c.755-.124,1.476-.44,2.224-.623a1.546,1.546,0,0,1,.98.013,2.128,2.128,0,0,1,1.024.913,1.2,1.2,0,0,1-.5,1.056c-1.174.62-2.413,1.118-3.627,1.66-3.933-.473-7.973-.295-11.418-2.948a19.723,19.723,0,0,1-6.043-7,43.828,43.828,0,0,1-3.319-9.6,51.28,51.28,0,0,0-2.057-6.284,60.587,60.587,0,0,1-2.2-6.893,16.486,16.486,0,0,1-.347-2.846c-.139-2.333-.29-4.669-.324-7a16.327,16.327,0,0,0-1.031-6.058c-.408-.993-.983-1.919-1.49-2.871-.05-.093-.144-.215-.232-.229-2.014-.312-1.553-2.009-1.949-3.3-.628-2.049.133-4.2-.624-6.216a1.7,1.7,0,0,1-.008-.5c-.11-2.723-.129-5.453-.359-8.166-.2-2.365-.724-4.7-.928-7.068-.088-1.014-.993-1.324-1.313-2.128a7.051,7.051,0,0,1-.758-1.856,2.467,2.467,0,0,0-.73-1.338c-1.044-1.025-2.214-1.924-3.241-2.964a43.333,43.333,0,0,1-5.641-6.125c-.791-1.187-1.789-2.236-2.572-3.428a7.288,7.288,0,0,1-1.437-3.231c-.193-1.76-.631-3.494-.959-5.239a2.141,2.141,0,0,1,0-.332c-.11-4.052-.266-8.1-.3-12.155a7.257,7.257,0,0,1,.681-2.693,17.719,17.719,0,0,1,2.669-4.38,4.583,4.583,0,0,0,.941-3.1c-.015-.574-.261-.819-.817-.989a24.533,24.533,0,0,1-6.741-3.374q-4.131-2.844-8.3-5.633c-1.03-.685-2.156-1.226-3.195-1.9a30.455,30.455,0,0,1-2.546-1.874c-2.452-1.981-4.773-4.149-7.36-5.932a19.836,19.836,0,0,0-6.441-2.86q-2.868-.715-5.761-1.33c-2.7-.577-5.42-1.067-8.107-1.7a4.364,4.364,0,0,1-1.847-1.114c-.78-.735-1.428-1.611-2.135-2.424-.109-.125-.219-.317-.353-.341-1.486-.27-1.778-1.547-2.314-2.65-1.612-3.32-3.215-6.646-4.911-9.924-.666-1.288-1.608-2.43-2.35-3.682a22.243,22.243,0,0,1-1.177-2.5.636.636,0,0,1,.045-.552c.8-.926.174-1.831-.026-2.727-.578-2.581-1.18-5.156-1.788-7.73s-.941-5.216-1.578-7.8a21.3,21.3,0,0,1-.359-6.483,9.554,9.554,0,0,1,3.047-6.554c1.191-1.114,1.9-2.725,3.215-3.789,1.032-.836,2.089-1.643,3.128-2.471a5.952,5.952,0,0,0,1.849-2.721,41.627,41.627,0,0,0,2.236-6.527,13.175,13.175,0,0,0-.135-5.194c-.33-1.47-.647-2.927-1.047-4.387a6.424,6.424,0,0,0-4.81-5.023c-3.058-.761-5.8-2.323-8.807-3.217a2.268,2.268,0,0,0-2.737.629,17.193,17.193,0,0,1-6.917,4.936,13.747,13.747,0,0,1-3.489,1.165,11.524,11.524,0,0,0-6.678,2.74c-1.04.906-2.318.528-3.453.9-.645.209-.973-.8-1.006-1.353a10.474,10.474,0,0,1,2.607-8.044,28.54,28.54,0,0,1,7.107-5.721c1.688-.949,3.539-1.607,5.3-2.428s3.562-1.595,5.25-2.555a20.687,20.687,0,0,1,7.16-2.806c2.3-.35,4.57-.793,6.9-1,2.067-.18,4.133-.451,6.2-.66,2.289-.232,4.573-.483,6.866-.684,1.452-.127,2.934-.043,4.347-.3,5.371-.988,10.782-.536,16.177-.612a17.423,17.423,0,0,1,7.113,1.659,43.739,43.739,0,0,0,6.753,2.536,7.047,7.047,0,0,0,5.956-1.454c1.282-.926,2.537-1.889,3.82-2.813a5.372,5.372,0,0,1,6.121-.472,52.754,52.754,0,0,0,9.169,3.922,15.036,15.036,0,0,0,5.335.151c1.146-.076,2.275-.388,3.418-.546,1-.139,2.02-.144,3.027-.256a6.605,6.605,0,0,1,5.7,1.809,9.9,9.9,0,0,1,2.34,3.36c.463,1.186.148,1.8-1.113,2.059-3.215.657-6.464,1.187-9.628,2.033a18.786,18.786,0,0,0-7.455,3.622,27.992,27.992,0,0,0-3.6,3.628,5.909,5.909,0,0,0-1.22,3.792c.011,1.34-.3,2.725.32,4.012a11.17,11.17,0,0,0,1,1.743q1.447,1.989,2.983,3.914a2.423,2.423,0,0,0,2.468.827,46.646,46.646,0,0,0,7.765-2.1c1.536-.581,2.362-2.015,3.378-3.186,2.418-2.789,4.69-5.76,7.765-7.839,1.5-1.011,3.2-2.092,5.212-1.788,1.079.163,2.166-.022,3.187.1,1.571.191,2.4,1.7,3.442,2.769a2.1,2.1,0,0,1,.285.543,3,3,0,0,0,3.515,1.894,1.88,1.88,0,0,1,1.111.1c1.569.785,1.908,1.337.818,2.947-.633.935-.659.834.46,1.315,1.881.808,3.719,1.715,5.581,2.568a4.209,4.209,0,0,1,2.5,3.913,29.857,29.857,0,0,1-2.034,11.6,1.864,1.864,0,0,1-.992,1.081c-.741.2-1.261-.384-1.493-1.031-.864-2.4-2.829-3.779-4.811-5.07-1.21-.789-2.718-.575-4.1-.465-1.082.086-2.139.453-3.219.621-1.053.164-2.125.208-3.181.358a4.328,4.328,0,0,0-.992.4,4.59,4.59,0,0,0,.554,1.026,31.463,31.463,0,0,0,2.469,2.462,1.538,1.538,0,0,1,.464,1.9,2.107,2.107,0,0,1-1.6.8,40.4,40.4,0,0,1-7.534-.61,4.2,4.2,0,0,0-3.806,1.213A87.549,87.549,0,0,0,118,270.66c-1.015,1.272-2.156,2.446-3.279,3.628-2.648,2.786-5.346,5.526-7.97,8.335-1.093,1.17-2.032,2.482-3.08,3.7a1.394,1.394,0,0,1-.927.518c-2.133-.129-3.226,1.369-4.406,2.73-.7.807-1.4,1.621-2.02,2.487a7.291,7.291,0,0,0-1.314,3.94c-.081,1.451-.2,2.9-.332,4.347-.066.734-.854,1.823-1.359,1.784a1.871,1.871,0,0,1-1.778-1.27c-.557-1.483-1.223-2.926-1.839-4.387a4.785,4.785,0,0,0-.265-.719c-1.092-1.721-1.08-1.6-3.334-1.272a55.194,55.194,0,0,0-9.334,2.346,28.441,28.441,0,0,0-12.127,7.249c-.808.85-1.612,1.914-1.419,2.849a4.18,4.18,0,0,0,2.691,3.125,15.236,15.236,0,0,0,7.712.475,33.164,33.164,0,0,0,4.751-1.4,9.82,9.82,0,0,1,3.849-.291,1.17,1.17,0,0,1,.8.763,2.261,2.261,0,0,1-1.007,2.7c-2.394,1.222-2.946,3.537-3.6,5.8a3.129,3.129,0,0,0-.008,1.158,1.419,1.419,0,0,0,1.643,1.493c1.163.012,2.326-.019,3.488.008,1.427.034,2.046.794,2.2,2.155.167,1.453-.518,2.688-.776,4.022-.791,4.092.019,5.67,3.032,8.082,1.461,1.169,3.106,2.108,4.665,3.154,1.209.811,1.467.644,2.526-.44,1.95-2,4.072-3.823,6.048-5.8a10.717,10.717,0,0,1,2.714-1.89,4.14,4.14,0,0,1,3.779-.406.766.766,0,0,0,.446.036,11.823,11.823,0,0,1,8.746,1.173c1.965,1.117,4.038,2.048,5.972,3.213,2.45,1.476,4.815,3.1,7.2,4.678a3.683,3.683,0,0,1,.937.936c1.067,1.511,2.684,1.965,4.352,2.342a3.6,3.6,0,0,1,1.332.375c1.039.775,2.271.744,3.436.935a8.339,8.339,0,0,1,6.345,4.21,21.444,21.444,0,0,0,6.128,6.725,24.83,24.83,0,0,0,7.666,3.921,88.894,88.894,0,0,1,9.633,4.037,10.366,10.366,0,0,1,4.805,4.6,30.469,30.469,0,0,1,2.139,4.425,7.043,7.043,0,0,1-1.039,6.732M106.974,227.558a16.6,16.6,0,0,1,3.124-2.067c3.317-1.261,6.6-2.692,10.185-3.1a31.362,31.362,0,0,0,3.377-.669c.115-.026.279-.428.237-.469-1.019-1.005-1.855-2.423-3.441-2.463a20.744,20.744,0,0,0-5.984.377c-2.422.673-4.812.489-7.224.567-.235.008-.471-.194-.717-.259a51.29,51.29,0,0,1-7.821-3.176c-1.026-.464-2.042-.951-3.073-1.4a2.159,2.159,0,0,0-2.118.229,32.55,32.55,0,0,0-2.783,2.106,16.177,16.177,0,0,1-4.376,2.677,8.661,8.661,0,0,1-5.476.205c-2.559-.648-4.887-1.853-7.35-2.72a14.12,14.12,0,0,0-4.446-1.232c-4.715.015-9.439-.414-14.152.24-2.6.361-5.236.545-7.862.666-2.143.1-4.25.434-6.373.638-2.181.209-4.356.5-6.534.667a47,47,0,0,0-7.053,1.07,15.575,15.575,0,0,0-4.588,1.771,59.742,59.742,0,0,1-8.242,4.138A33.261,33.261,0,0,0,5.418,230.8a9.936,9.936,0,0,0-3.257,5.8c-.187.872.048.845.567.735a5.127,5.127,0,0,0,1.395-.629c.542-.307,1.061-.657,1.575-1.011,1.5-1.03,3.3-1.139,4.958-1.671a21.491,21.491,0,0,0,5.421-2.184,30.961,30.961,0,0,0,4.377-3.827,3.361,3.361,0,0,1,2.265-.986,9,9,0,0,1,3.816.851c2.916,1.126,5.826,2.248,8.794,3.246a6.34,6.34,0,0,1,4.159,4.28c.226.809.49,1.235,1.3,1.439a.825.825,0,0,1,.788.787,61.181,61.181,0,0,1,.277,7.511,2.735,2.735,0,0,1-.017.99c-.567,1.359-.376,2.82-.616,4.223-.253,1.48-.143,3.023-.4,4.5a5.661,5.661,0,0,1-1.621,3.327,43.748,43.748,0,0,1-6.175,4.4c-1.358.912-2,1.255-2.281,2.009-.326.864-.6,1.749-.846,2.639a36.825,36.825,0,0,0-.757,4.523,20.953,20.953,0,0,0,.272,8.139c.9,3.663,1.852,7.313,2.809,10.962.486,1.853.636,3.868,2.346,5.177.4.308.537.786.126,1.114-.962.766-.3,1.412.082,2.066.676,1.163,1.5,2.251,2.071,3.464a70.9,70.9,0,0,0,6.332,11.164,2.653,2.653,0,0,0,2.077,1.274,14.378,14.378,0,0,1,2.353.33c3.228.751,6.43,1.629,9.675,2.291a24.237,24.237,0,0,1,9.285,4.039c2.562,1.825,4.9,3.961,7.348,5.951a16.71,16.71,0,0,0,2.145,1.644c2.223,1.272,4.58,2.329,6.392,4.223.087.091.292.07.442.1-.054-.157-.1-.319-.164-.469a2.214,2.214,0,0,0-.357-.678c-1.36-1.326-1.213-2.822-.576-4.41a13.864,13.864,0,0,0,.893-2.614c.254-1.4.158-1.424-1.272-1.461a5.73,5.73,0,0,1-1.4-.213c-1.285-.365-2.566-.748-3.833-1.172A2.784,2.784,0,0,1,74.44,319.3a19.7,19.7,0,0,1,2.885-5.946c.217-.278.444-.549.667-.823-.431-.03-.861-.068-1.292-.081-.089,0-.176.12-.272.134a55.391,55.391,0,0,1-5.961.8,14.589,14.589,0,0,1-4.365-.643c-2.3-.645-4.336-1.8-5.1-4.273a17.01,17.01,0,0,1-.929-4.455c-.108-3.1,3.033-6.221,5.165-7.1a14.733,14.733,0,0,1,2.649-.426,32.257,32.257,0,0,0,4.768-.906,12.227,12.227,0,0,1,3.206-1.153,23.852,23.852,0,0,0,4.44-1.253c1.977-.578,3.827-1.561,5.94-1.721a30.967,30.967,0,0,0,3.4-.608,1.215,1.215,0,0,1,1.3.8,12.08,12.08,0,0,1,.74,2.347c.128.491.175,1,.258,1.507.762-.264.564-1.035.711-1.549a11.4,11.4,0,0,1,2.861-5.48c1.072-1.023,1.861-2.335,2.862-3.441.527-.582,1.22-1.384,1.867-1.413,1.471-.064,2.2-1.181,3.271-1.792a8.3,8.3,0,0,0,2.11-1.559c1.309-1.472,2.428-3.114,3.746-4.577,2.812-3.121,5.708-6.167,8.557-9.255a19.511,19.511,0,0,0,2.431-2.82c.647-1.052,1.743-1.8,1.986-3.172a1.935,1.935,0,0,1,1.455-1.1,41.578,41.578,0,0,1,5.085.105c1.76.114,3.512.334,5.269.5a1.034,1.034,0,0,0,.3-.065,1.074,1.074,0,0,0-.164-.348,6.926,6.926,0,0,1-1.885-2.545c-.623-1.607.023-3.094,1.562-3.342,1.619-.26,3.247-.458,4.873-.671a15.952,15.952,0,0,0,2.843-.362c3.047-.991,5.479.105,7.688,2.071.743.661,1.406,1.412,2.125,2.1.279.268.549.337.666-.183a30.883,30.883,0,0,0,1.034-6.9,3.575,3.575,0,0,0-2.536-3.748A25.8,25.8,0,0,0,145,243.985c-1.54-.23-2-1.27-1.312-2.639a2.875,2.875,0,0,1,.244-.561c.612-.733.126-.756-.463-.772a3.993,3.993,0,0,1-2.992-1.574c-.707-.842-1.305-1.776-1.933-2.683a1.412,1.412,0,0,0-1.989-.55,39.183,39.183,0,0,0-6.267,4.553c-1.136,1.123-2.483,2.029-3.692,3.082a9.547,9.547,0,0,0-2.695,2.835A23.849,23.849,0,0,1,121.908,249a8.16,8.16,0,0,1-3.7,3.256,6.981,6.981,0,0,1-5.607-.139c-.732-.373-1.487-.711-2.182-1.146-2.05-1.283-4.219-2.427-5.553-4.585-.276-.447-.632-.844-.932-1.277-.943-1.36-2.106-2.623-2.334-4.343a26.956,26.956,0,0,1-.253-3.879,9.693,9.693,0,0,1,2.795-6.8c.823-.851,1.776-1.578,2.836-2.527m58.64,137.714a14.491,14.491,0,0,1-1.544-.673q-3.759-2.165-7.49-4.379a37.714,37.714,0,0,0-6.948-3.69,5.6,5.6,0,0,1-3.778-4.146,4.06,4.06,0,0,0-1.489-2.372,46.809,46.809,0,0,0-4.188-3.138,8.325,8.325,0,0,0-3.509-1.539,9.111,9.111,0,0,1-3.274-.924,8.217,8.217,0,0,0-3.026-1.153,6.723,6.723,0,0,1-2.386-1.011c-1.817-.968-2.847-2.713-4.052-4.271a2.515,2.515,0,0,0-.989-.657c-.846-.449-1.79.01-2.518-.343-2.03-.984-4.314-1.451-6.081-3a2.743,2.743,0,0,0-1.569-.574,8.691,8.691,0,0,1-3.6-.954,2.462,2.462,0,0,0-1.643-.358,34.247,34.247,0,0,0-4.226,1.818c-2.9,1.457-4.955,3.882-6.981,6.321-.1.117-.024.382-.021.577a11.565,11.565,0,0,1,0,2.961c-.647,2.482-1.581,4.889-2.239,7.368a30.591,30.591,0,0,0-1.306,6.58c-.129,3.5-.518,7.078.61,10.515a25.672,25.672,0,0,0,2.144,5.577c1.817,2.932,3.782,5.82,6.722,7.842a20.029,20.029,0,0,1,2.007,1.8c.026-.931.038-1.862.079-2.792.1-2.28.079-4.578.374-6.834a30.3,30.3,0,0,0,.624-5.379,7.523,7.523,0,0,1,.008-1.493c.305-1.971.662-3.933.982-5.9.237-1.456.434-2.919.673-4.375a2.222,2.222,0,0,1,1.791-1.376c2.723-.107,5.453-.165,8.171-.244,6.037-.176,12.088.132,18.133.243a1.71,1.71,0,0,1,.332,0c2.427.538,4.926.307,7.364.678a23.77,23.77,0,0,1,5.08.958,3.282,3.282,0,0,1,2.279,2.265,33.811,33.811,0,0,1,.981,6.391c.078,3.66-.169,7.327-.28,10.991a1.64,1.64,0,0,1,0,.331c-.61,2.484-.492,5.058-.955,7.569a51.1,51.1,0,0,0-.38,5.17,15.963,15.963,0,0,1-.334,2.02,1.552,1.552,0,0,1-.349.68,2.548,2.548,0,0,1-2.149.828c-3.331-.138-6.664-.218-9.995-.348-2.17-.084-4.338-.217-6.507-.327a1.245,1.245,0,0,1-.331-.005c-2.083-.735-4.231-.175-6.344-.3-.8-.049-.968.577-.961,1.438.013,1.72.385,3.463-.253,5.168-.5,1.338-1.417,1.726-2.383.758a36.111,36.111,0,0,1-3.258-3.794c-1.034-1.374-1.855-2.948-3.991-2.615-.155.024-.335-.258-.526-.306-1.175-.3-1.735.258-1.483,1.43a22.8,22.8,0,0,1,.642,3.214c.184,2.773.247,5.555.355,8.333.011.276-.088.595.017.824.526,1.145.23,2.349.321,3.524s.308,2.345.3,3.517a7.353,7.353,0,0,0,.99,3.924,10.494,10.494,0,0,1,1.318,3.26,29.131,29.131,0,0,1,.658,5.862,70.589,70.589,0,0,0,.732,8.86,15.16,15.16,0,0,0,.645,2.385c1,3.517,2.583,6.844,3.08,10.534a26.73,26.73,0,0,0,1.726,5.748c1.318,3.482,2.931,6.814,6.075,9.074a38.685,38.685,0,0,0,3.444,2.11c.231.132.59.042.89.054a4.939,4.939,0,0,0-.457-.584,5.907,5.907,0,0,1-1.861-5.467,15.811,15.811,0,0,1,1.753-5.93,2.874,2.874,0,0,0-.038-3.285c-.34-.531-.763-1.009-1.108-1.537-1.7-2.593-2.23-3.222-.713-6.323.815-1.665,1.91-3.191,2.78-4.832a7.593,7.593,0,0,1,2.688-3.355c.294-.172.46-.57.677-.869.68-.936,1.176-2.148,2.079-2.745a7.311,7.311,0,0,0,2.541-3.122c1.106-2.3,1.948-4.733,3.045-7.041.992-2.088,2.116-4.119,3.3-6.108.905-1.525,1.983-2.949,2.995-4.41a22.722,22.722,0,0,1,3.024-4.2,21.656,21.656,0,0,1,7.01-4.276,3.49,3.49,0,0,0,2.666-2.752c.192-1.178.307-2.385.561-3.564.235-1.09.061-2.287.392-3.335a29.906,29.906,0,0,1,5.881-10.692,77.032,77.032,0,0,0,4.9-6.28,2.8,2.8,0,0,0,.57-2.7,9.764,9.764,0,0,0-5.825-5.826,20.838,20.838,0,0,0-3.072-1.006m-58.973,13.456c-.111,1.061-.272,2.12-.319,3.184-.056,1.271-.05,2.547-.006,3.818.112,3.207,1.02,3.665,3.777,4.441,1.2.339,2.478.416,3.7.7,1.6.366,3.117.824,3.924,2.544a14.89,14.89,0,0,0,1.852,2.553,3.418,3.418,0,0,0,.58.486,6.036,6.036,0,0,0,.108-.783c.012-1.107.016-2.214,0-3.321a1.868,1.868,0,0,1,.849-1.775,4.247,4.247,0,0,1,2.36-.732c1.994.2,3.991-.1,6.016.285,1.782.337,3.661.059,5.5.362,1.587.262,3.216.066,4.848.3a49.147,49.147,0,0,0,6.3.079c.778.009,1.078-.328,1.049-1.084a15.789,15.789,0,0,1,.009-2.488c.287-2.358.7-4.7.968-7.062.281-2.447.582-4.9.648-7.362a69.814,69.814,0,0,0-.308-10.819,4.385,4.385,0,0,0-.361-1.669c-.335-.554-.866-1.254-1.418-1.366-2.272-.458-4.579-.759-6.884-1.033-1.276-.151-2.565-.145-3.853-.278-2.479-.257-5-.253-7.495-.34-5.694-.2-11.4-.046-17.1-.074-1.5-.007-1.88-.043-1.753,1.7a29.642,29.642,0,0,1-1.9,11.668c-.1.287-.08,2.507-.115,2.837-.1.956.474,2.1-.314,2.829-.7.647-.662,1.316-.667,2.405m-40.2-79.073.316-.68c-.144-.05-.341-.188-.425-.137-1.345.814-2.758,1.564-3.468,3.084-.066.141.054.37.087.558.166-.086.412-.129.486-.265a6.657,6.657,0,0,1,3-2.559m52.826-51.5A5.038,5.038,0,0,1,116.1,250c-.175.018-.325.27-.486.414.227.078.473.255.679.217a6.586,6.586,0,0,0,3.578-2.414A.685.685,0,0,0,119.267,248.157Z" transform="translate(0 -177.202)"></path><path d="M908.336,31.584a2.577,2.577,0,0,1-2.428-.945,1.973,1.973,0,0,0-1.7-.738c-1.055.03-1.55-.478-1.492-1.6.047-.9-.269-1-1.082-1.069-1.906-.153-3.782-.827-5.7-.6a18.839,18.839,0,0,0-5.089.926c-.506.208-.942.186-1.143.857-.185.617-.912.658-1.4.466-.279-.11-.486-.661-.535-1.038-.086-.653.049-1.336-.039-1.988-.2-1.494.661-2.209,1.788-2.934a21.712,21.712,0,0,1,6.364-2.292c2.2-.594,4.436-1.036,6.611-1.695a35.857,35.857,0,0,1,5.6-1.338,48.137,48.137,0,0,1,6.042-.648c.9-.008,1.789-.257,2.688-.295.514-.022.522-.27.491-.621a35.6,35.6,0,0,0-.261-4.861,21.847,21.847,0,0,1-.07-4.636,4.025,4.025,0,0,0-.527-2.28c-.883-1.433-.593-2.093.926-2.906a7.809,7.809,0,0,1,2.711-.7,46.922,46.922,0,0,1,9.362-.6c3.358.206,6.783.154,10.04,1.022,2.913.776,5.962,1.518,8.25,3.686a5.42,5.42,0,0,1,1.794,3.889c.018,1.661-.037,3.324.018,4.983.039,1.175.209,2.345.318,3.517.067.713.539.824,1.141.818,1.661-.016,3.327-.086,4.982.014,2.46.148,4.914.405,7.367.654a2.383,2.383,0,0,1,2.085,2.392,13.849,13.849,0,0,1-1,4.057,25.808,25.808,0,0,1-2.988,5.227c-1.787,2.3-3.448,4.779-5.805,6.555a10.133,10.133,0,0,1-3.615,1.648c-1.688.414-3.477.4-5.19.735-2,.387-3.855.918-5.132,2.881A20.628,20.628,0,0,1,937.888,46a2.837,2.837,0,0,1-1.755.511,16.87,16.87,0,0,0-3.595.573,12.448,12.448,0,0,0-4.443,2.493,16.4,16.4,0,0,0-2.147,2.059c-2.221,2.3-4.286,4.817-7.6,5.649a8.61,8.61,0,0,1-6.45-.82,2.528,2.528,0,0,1-1.259-2.246,5.318,5.318,0,0,1,.953-3.285,22.154,22.154,0,0,0,1.729-4.084,12.63,12.63,0,0,1,2.481-3.622c1.077-1.161,1.761-2.271,1.245-4.082a8.426,8.426,0,0,1-.137-5.374c.3-.785-.79-1.779-1.9-1.845-2.168-.129-4.339-.227-6.674-.338m47.178.831a3.159,3.159,0,0,0,2.289-1.292c.313-.424.613-.859.941-1.27a22.851,22.851,0,0,0,4.174-7.745c.237-.788.055-.931-.457-1.146a3.728,3.728,0,0,0-1.187-.329c-2.277-.136-4.559-.207-6.835-.356-1.173-.077-2.359.258-3.533-.285-.548-.254-1.052.127-1.041.861a7.688,7.688,0,0,1-.016,1.657c-.293,1.4-.309,2.994-2.006,3.615a9.982,9.982,0,0,1-1.631.467,7.366,7.366,0,0,0-4.522,2.342c-.939,1.086-2.08,2-3.015,3.086a1.646,1.646,0,0,1-1.917.5,1.431,1.431,0,0,1-.874-1.6c.122-.981,0-1.99.038-2.985.02-.594-.227-.968-.794-.989a27.163,27.163,0,0,0-3.485.008c-1.466.134-2.912.527-4.378.609-1.107.062-2.229-.249-3.348-.286a5.515,5.515,0,0,1-5.271-4.221c-.278-.943-.409-1.93-.693-2.871-.133-.44-.414-1.111-.724-1.17a5.455,5.455,0,0,0-2.63-.009c-1.5.5-3.061.169-4.565.584s-3.141.4-4.636.855c-3.561,1.076-7.135,2.074-10.774,2.855a41.612,41.612,0,0,0-4.265,1.322c-.134.044-.2.3-.295.457.183.048.4.182.544.13a15.178,15.178,0,0,1,5.923-.936,2.781,2.781,0,0,0,.991-.012c2.034-.7,4.124-.129,6.178-.306.124-.011.255.2.4.224,1.178.2,1.645,1.181,2.244,2.011,1.611,2.231,1.771,2.027,3.489,1.426a2.623,2.623,0,0,1,.824-.018c2.1,0,4.207-.011,6.31.01a2.769,2.769,0,0,1,1.064.226,3.123,3.123,0,0,1,1.768,4.073,5.96,5.96,0,0,0-.49,2.783c.085.622.268,1.233.319,1.856a27.821,27.821,0,0,1-.983,9.219c-.583,2.274-1.505,4.287-3.734,5.429-.623.319-.892.77-.34,1.425a4.944,4.944,0,0,1,.415.82,2.351,2.351,0,0,0,3.946.635c1.266-1.152,2.631-2.2,3.938-3.3a12.919,12.919,0,0,0,2.377-2.15,12.238,12.238,0,0,1,4.3-3.725,49.034,49.034,0,0,1,7.88-3.02c1.352-.455,2.513-1.023,2.884-2.722a3.694,3.694,0,0,1,1.813-2.405,29.8,29.8,0,0,1,5.5-2.375,38.012,38.012,0,0,1,7.9-1.957M925.28,5.5c-1.47.055-2.94.128-4.41.161-1.444.033-1.9.423-1.884,1.907.007.784.271,1.565.3,2.351.071,1.893.112,3.778.278,5.674.2,2.224.728,4.362,1.118,6.534a3.259,3.259,0,0,0,1.886,2.443,10.227,10.227,0,0,0,5.674.651,35.394,35.394,0,0,1,7.032-.617,2.587,2.587,0,0,1,2.374,1.5,4.518,4.518,0,0,1,.6,2.418.483.483,0,0,0,.188.385.457.457,0,0,0,.424-.12,9.6,9.6,0,0,1,7.4-4.547,1.509,1.509,0,0,0,1.283-1.491c.018-.442.014-.885,0-1.327-.108-3.935-.247-7.87-.321-11.806a4.421,4.421,0,0,0-4.656-4.592c-3.714.1-7.429-.27-11.15.266-1.95.281-3.974.05-6.131.216m-4.817-2.16,13.09-.332c.055,0,.125.022.163,0,.183-.122.357-.258.535-.388-.162-.091-.326-.264-.486-.261q-6.628.144-13.256.333a2.037,2.037,0,0,0-.7.3c-.156.074-.309.154-.463.232.26.038.52.076,1.111.115m31.563,32.892a13.192,13.192,0,0,0,1.334-.357c.187-.07.316-.3.471-.451-.179-.063-.378-.211-.533-.175q-2.4.559-4.779,1.178a2.755,2.755,0,0,0-.612.339,1.706,1.706,0,0,0,.6.12c1.065-.2,2.123-.432,3.516-.653m-34.553-6.313-.423.09.5.5A.8.8,0,0,0,917.473,29.923Z" transform="translate(-740.23)"></path><path d="M2694.318,1231.875a42.248,42.248,0,0,0-.685-4.466,11.225,11.225,0,0,1,.448-5.425c.365-1.01.734-2.021,1.162-3.006a11.68,11.68,0,0,0,.723-2.2,3.587,3.587,0,0,1,1.422-2.028c3.3-2.162,6.77-4.048,10-6.332a8.558,8.558,0,0,1,3.215-1.012c.688-.139.874-.426.921-1.067.191-2.623.258-5.271.7-7.854s.155-5.12.278-7.675c.058-1.224.344-1.563,1.609-1.705.109-.012.268.047.325-.009,1.138-1.11,2.632-.926,4.021-1.125a9.213,9.213,0,0,1,1.247-.188c4.594-.013,9.2-.221,13.775.09,2,.136,4.063-.091,6.051.534a15.584,15.584,0,0,0,3.008.363,3.519,3.519,0,0,1,3.18,3.551,32.239,32.239,0,0,0,1.448,9.035,22.781,22.781,0,0,1,.544,3.425c.112,1.193.235,1.254,1.336.8a4.916,4.916,0,0,0,3.021-4.023c.338-1.774.834-3.52,1.314-5.263.439-1.593,1.788-1.952,2.938-.727a13.574,13.574,0,0,1,3.016,5.549c.655,2.218.722,4.616,2.016,6.638.535.836,1.147,1.623,1.66,2.471a4,4,0,0,1,.637,1.552,10.772,10.772,0,0,0,1.839,5.224,10.6,10.6,0,0,1,1.88,3.87,7.333,7.333,0,0,1,.278,1.373c.02,1.458.117,2.909.071,4.376a7.107,7.107,0,0,1-1.7,4.46c-1.141,1.383-2.388,2.683-3.628,3.981a94.008,94.008,0,0,1-7.439,6.475,63.655,63.655,0,0,1-10.324,6.744,7.2,7.2,0,0,1-6.2.442c-1.112-.38-2.316-.541-3.212-1.492a3.926,3.926,0,0,1-1.122-2.705c-.064-1.672-.188-3.342-.326-5.01a1.547,1.547,0,0,0-2.206-1.516,7.811,7.811,0,0,0-1.892.631,2.079,2.079,0,0,1-2.841-.525,4.209,4.209,0,0,0-2.674-1.23c-3.01-.488-6.009-.12-9.007-.254a10.586,10.586,0,0,0-6.021,1.89,20.875,20.875,0,0,1-6.3,2.458,13.477,13.477,0,0,1-3.689.278,4.326,4.326,0,0,1-3.212-1.447,2.95,2.95,0,0,1-.718-1.7c-.217-2.051-.532-4.091-.892-6.219m41.779,8.887a18.393,18.393,0,0,0,.021,2.324,6.47,6.47,0,0,0,.6,2.231,2.176,2.176,0,0,0,1.9.964c.041,0,.072.094.119.11,1.36.452,2.745.846,4.127.173a39.693,39.693,0,0,0,3.657-1.995c1.725-1.077,3.431-2.19,5.073-3.388,1.38-1.007,2.6-2.236,3.99-3.227,3.1-2.205,5.562-5.073,8.273-7.684.07-.068.092-.183.147-.27a12.047,12.047,0,0,0,1.448-3.74,10.114,10.114,0,0,0-.314-4.842,11.623,11.623,0,0,0-1.846-3.715,8.057,8.057,0,0,1-1.682-4.131,5.536,5.536,0,0,0-1.258-3.127,13.284,13.284,0,0,1-2.714-6.347c-.276-1.806-.583-3.708-1.91-5.178a2.012,2.012,0,0,1-.24-.477c-.152.159-.451.337-.432.473.156,1.163-.467,2.146-.7,3.213a7.765,7.765,0,0,1-4.962,5.9c-1.26.492-1.327.524-1.335,1.812-.008,1.163.034,2.327-.011,3.488-.051,1.3-.522,1.608-1.817,1.374a1.273,1.273,0,0,0-.885.224,3.3,3.3,0,0,1-2.157.417q-8.057,0-16.114,0c-1.739,0-2.178.432-2.274,2.2a1.657,1.657,0,0,1-.009.495,17.638,17.638,0,0,1-1.1,2.527,1.391,1.391,0,0,1-1.875.235,6.16,6.16,0,0,1-1.31-1.609,17.544,17.544,0,0,1-1.64-3.8c-.542-2.276-1.744-2.611-3.682-2.7a20.171,20.171,0,0,0-2.822.014,1.5,1.5,0,0,1-1.464-.851c-.245-.378,0-.818.391-1.129.132-.1.14-.365.2-.554a2.144,2.144,0,0,0-.68.07,52.5,52.5,0,0,0-8.915,4.937c-2.263,1.637-4.306,3.5-5.278,6.249a11.134,11.134,0,0,0-.647,6c.375,1.746.473,3.524.889,5.259a27.252,27.252,0,0,1,.367,3.675c.175,1.78.68,2.5,1.929,2.558a11.733,11.733,0,0,0,4.556-.61,24.106,24.106,0,0,0,5.574-2.6c1.807-1.224,3.988-1.323,6.05-1.376a47,47,0,0,1,9.169.247c1.276.218,2.539.223,3.453,1.335a1.091,1.091,0,0,0,.834.337,13.2,13.2,0,0,0,2.294-.463,3.6,3.6,0,0,1,4.176,1.169,5.7,5.7,0,0,1,.835,3.8m-21.6-42.527c-.111,1.226-.252,2.451-.325,3.679-.134,2.276-.225,4.554-.344,6.831a1.591,1.591,0,0,1-.149.6c-.363.747.056.946.683,1.017.95.109,1.9.211,2.849.334a3.6,3.6,0,0,1,3.272,2.28c.417,1.1.942,2.16,1.3,3.277.153.485-.069,1.092.545,1.4.16-.487.331-.971.473-1.463.044-.153-.018-.334.011-.5a2.5,2.5,0,0,1,1.468-2.054,5.782,5.782,0,0,1,2.566-.627c4.425.013,8.85-.007,13.275.021a9.613,9.613,0,0,1,1.853.321,1.6,1.6,0,0,0,2.09-1.214c.137-1.722.266-3.446.329-5.172.054-1.491.053-2.988,0-4.479a12.324,12.324,0,0,0-.365-3.5,22.255,22.255,0,0,0-2.636-6.032,3.376,3.376,0,0,0-1.772-1.272c-2.49-.821-5.071-.723-7.579-.85-5.131-.26-10.284-.074-15.428-.085a3.141,3.141,0,0,1-1.416-.174c-.765-.413-.694.04-.694.52C2714.5,1193.368,2714.5,1195.636,2714.5,1198.236Z" transform="translate(-2246.05 -990.398)"></path><path d="M1596.651,794.484c1.55,0,2.938-.071,4.316.015,2.734.171,5.467.383,8.191.664,1.964.2,2.868,1.287,3.489,3.275.313,1,.155,2,.364,2.9.364,1.574-.052,3.195.551,4.737a7.951,7.951,0,0,1,.354,2.506c.139,3.107.374,6.22.292,9.324a28.406,28.406,0,0,1-.972,5.725,3.835,3.835,0,0,1-3.646,2.74,65.279,65.279,0,0,1-7.3-.056c-2.011-.214-4.035-.041-6-.336a41.26,41.26,0,0,0-4.355-.269c-.354-.016-.6-.017-.617.495-.057,1.34-.255,2.675-.3,4.014-.026.849-.146,1.8-.882,2.071a2.37,2.37,0,0,1-2.546-.533c-1.051-1.116-2.393-1.988-2.732-3.685-.259-1.3-1.3-1.6-2.533-1.734a8.31,8.31,0,0,1-3.445-.89,4.413,4.413,0,0,1-2.171-3.254c-.679-3.369-.171-6.773-.325-10.157-.121-2.665-.417-5.342-.28-7.995a17.929,17.929,0,0,1,1.859-7.679,3.1,3.1,0,0,1,2.855-1.9,21.135,21.135,0,0,1,3.343-.274c4.1.6,8.217.121,12.487.292m-17.941,23.755a15.4,15.4,0,0,0,.026,2.485c.194,1.169.283,2.515,1.682,2.973a8.951,8.951,0,0,0,2.344.344c2.5.119,3.368.82,4.277,3.319a12.322,12.322,0,0,0,1.266,2.129c.049.079.153.125.231.186a.89.89,0,0,0,.136-.274c.118-1.226.268-2.45.327-3.679.076-1.595.747-2.355,2.34-2.318a21.861,21.861,0,0,1,4.522.261c1.611.371,3.36-.248,4.994.388,2.84-.36,5.668.608,8.527.036a1.714,1.714,0,0,0,1.582-1.274,19.056,19.056,0,0,0,.935-5.405,40.929,40.929,0,0,0-.593-9.854c-.329-1.568-.163-3.234-.405-4.828-.151-.991.152-2.334-1.285-2.74a16.581,16.581,0,0,0-2.443-.508c-1.276-.159-2.573-.166-3.842-.359-2.59-.4-5.164-.888-7.75-1.306a24.919,24.919,0,0,1-3-.372,21.433,21.433,0,0,0-4.716-.584,31.23,31.23,0,0,0-5,.307c-.322.031-.625.354-.917.57s-.4.48-.939.267c-1.128-.447-1.327-.324-1.613.878a22.24,22.24,0,0,0-1.011,5.888c.092,2.721.241,5.439.319,8.16C1578.749,814.586,1578.71,816.247,1578.71,818.239Z" transform="translate(-1314.254 -662.23)"></path><path d="M2582,1015.38c-.918-.471-1.74-.893-2.592-1.24-3.029-1.234-6.062-2.462-9.111-3.647a4.132,4.132,0,0,1-2.148-1.237c-.386-.509-1.318-.564-1.872-.994-1.8-1.4-2.306-3.54-2.949-5.57-.313-.986-.369-2.057-.719-3.025a1.929,1.929,0,0,0-1.147-1.11c-2.858-.609-3.765-2.746-4.514-5.2a3.436,3.436,0,0,1,.322-2.617,20,20,0,0,0,.5-2.117,5.117,5.117,0,0,1,2.456-2.729,7.22,7.22,0,0,0,.777-.524.742.742,0,0,0,.04-1.247c-.318-.308-.638-.615-.938-.94a1.211,1.211,0,0,1,.174-2.031.805.805,0,0,1,.77.025,14.769,14.769,0,0,1,1.906,2.028,2.466,2.466,0,0,0,1.439,1.089c.786.23,1.7.651,1.621,1.887a1.658,1.658,0,0,0,.76,1.292c1.617.776,1.991,2.334,2.116,3.751.187,2.118.116,4.224,1.023,6.239a4.617,4.617,0,0,1,.031,2.138,3.262,3.262,0,0,0,2.179,3.522,6.6,6.6,0,0,1,3.214,2.75,14.281,14.281,0,0,0,3.277,3.1c1.437,1.135,2.98,2.134,4.484,3.183a5.055,5.055,0,0,0,.682.355,7.883,7.883,0,0,1,3.361,2.667c.277.424.695.765.264,1.253-.37.422-.69.952-1.484.578-1.246-.587-2.557-1.037-3.924-1.628m-21.679-26.662c-.111.286-.332.58-.311.856a2.7,2.7,0,0,1-.521,1.944,1.849,1.849,0,0,0-.151,1.977c.582,1.525,1.306,2.926,3.339,2.713.23-.024.48.158.722.239,1.369.46,1.352,1.752,1.544,2.807a26.722,26.722,0,0,0,1.985,6.149c.2.442.384.452.687.419,1.543-.17,1.862-.049,1.96,1.334.045.64.4.667.734.835a3.11,3.11,0,0,0,.893.24c.446.071.9.105,1.346.155-.2-.286-.4-.569-.6-.859a5.954,5.954,0,0,1-.324-.529,6.292,6.292,0,0,0-1.934-2.359,4.153,4.153,0,0,1-2.136-3.247c-.031-.7-.453-1.348.052-2.064.108-.154-.01-.524-.108-.76a15.076,15.076,0,0,0-1.312-2.928,4.574,4.574,0,0,1-.8-3.767,1.329,1.329,0,0,0-.485-1.571,3,3,0,0,1-1.262-1.963c-.036-.7-.1-1.4-.146-2.094-.54.418-1.08.837-1.622,1.253C2561.41,987.85,2560.947,988.2,2560.318,988.717Z" transform="translate(-2132.068 -818.091)"></path><path d="M2962.171,1105.78c-1.025-1.225-2.438-1.618-3.688-2.2a30.243,30.243,0,0,1-3.964-2.831c-.244-.165-.3-.636-.4-.979-.129-.447-.209-.909-.322-1.361-.257-1.025.483-1.712,1.549-1.446a10.821,10.821,0,0,0,4.58,0,14.489,14.489,0,0,1,9.5,1.135c1.906,1.008,3.766,2.116,5.723,3.016a30.439,30.439,0,0,0,3.689,1.109,3.808,3.808,0,0,1,1.677.709c1.1,1.226,2.266,1.02,3.656.663a6.49,6.49,0,0,1,5.435.573,5.462,5.462,0,0,1,2.018,2.7.99.99,0,0,1-.436,1.287,6.163,6.163,0,0,1-1.373.686c-3.121.77-2.71,1-1.813,3.411a12.656,12.656,0,0,1,.617,1.4,2.8,2.8,0,0,1-1.1,2.834,2.077,2.077,0,0,1-2.58.357,34.427,34.427,0,0,1-3.844-2.363c-2.075-1.417-4.291-2.377-7.016-1.693a45.017,45.017,0,0,1-6.184.719c-1.754.187-2.739-.821-3.548-2.2a22.8,22.8,0,0,1-1.611-4.646,3.708,3.708,0,0,0-.571-.876m5.731,5.731a2.314,2.314,0,0,1,.693-.32c2.746-.24,5.428-.95,8.246-.732a10.277,10.277,0,0,1,5.209,1.9c1.108.763,2.274,1.442,3.426,2.14.165.1.326.572.585.108a1,1,0,0,0,.18-.672c-.258-.72-.579-1.419-.9-2.115a3.13,3.13,0,0,1,1.266-4.285,15,15,0,0,1,1.382-.667c.218-.1.451-.168.678-.251-.179-.25-.305-.594-.548-.732a3.769,3.769,0,0,0-2.973-.263c-1.925.589-3.842.175-5.758.226a.819.819,0,0,1-.622-.438c-.419-1.226-1.57-1.192-2.5-1.535a11.241,11.241,0,0,1-2.707-1.05,31.979,31.979,0,0,0-6.19-3.1,8.536,8.536,0,0,0-3.141-.785c-2.219-.032-4.443.172-6.663.3a1.011,1.011,0,0,0-.543.269.4.4,0,0,0,.028.372c1.477.734,2.6,2.056,4.293,2.466a5.456,5.456,0,0,1,1.839,1.143c1.65,1.278,2.042,3.212,2.565,5.071A3.925,3.925,0,0,0,2967.9,1111.511Z" transform="translate(-2463.07 -914.471)"></path><path d="M2798.581,819.869c1.269-.925,2.868-.858,3.985-1.932.426-.409,1.046-.183,1.57.313a24.109,24.109,0,0,1,5.913,9.352,13.528,13.528,0,0,0,2.541,4.095c1.123,1.329,2.438,2.505,3.478,3.892a10.507,10.507,0,0,1,1.632,3.293,3.939,3.939,0,0,1-.849,3.253c-.87,1.3-1.737,2.6-2.578,3.917-.218.341-.311.757-.5,1.121a9.489,9.489,0,0,1-2.208,2.911,1.205,1.205,0,0,1-1.477.082,5.4,5.4,0,0,1-2.611-3.052c-1.042-2.391-2.124-4.777-2.96-7.242a8.787,8.787,0,0,0-2.394-3.994c-1.466-1.294-1.807-3.114-2.293-4.865-.071-.255.023-.561-.064-.805-.426-1.184-.82-2.237-2.52-2.176-1.4.05-3.136-1.76-3.39-3.147a3.067,3.067,0,0,1,.984-2.562,9.576,9.576,0,0,1,3.736-2.454m8.223,19.685c.665,1.493,1.326,2.988,1.995,4.48.5,1.119.984,2.248,1.534,3.342.163.325.579.633.781-.008a18.373,18.373,0,0,1,3.4-5.89c1.076-1.344,1.052-2.249.115-3.756a20.4,20.4,0,0,0-3.779-4.721,13.348,13.348,0,0,1-3.381-5.576,12.072,12.072,0,0,0-.835-1.972c-.847-1.373-1.776-2.7-2.681-4.032-.295-.435-.561-1.1-.954-1.195-.332-.081-.822.516-1.255.791-.124.079-.314.052-.442.128-1.291.759-2.583,1.513-3.855,2.3-.5.307-1.184.688-.891,1.346.193.433.848.672,1.318.961.12.074.332-.021.489.016,1.531.357,2.865.976,3.308,2.672.183.7.29,1.424.491,2.119.37,1.278.355,2.949,1.432,3.665C2805.479,835.483,2806.115,837.318,2806.8,839.554Z" transform="translate(-2329.714 -681.884)"></path><path d="M2722.94,1023.418a5.009,5.009,0,0,1-5.009.74c-1.635-.518-3.284-.973-4.182-2.73-.359-.7-1.162-1.17-1.714-1.788a1.453,1.453,0,0,0-1.144-.474,16.554,16.554,0,0,0-5.466.854,17.2,17.2,0,0,1-5.107.494,1.532,1.532,0,0,1-1.509-1.271,41.87,41.87,0,0,1-.671-5.695,4.315,4.315,0,0,1,1.73-3.9,10.961,10.961,0,0,1,2.364-1.09c1.385-.533,2.81-.965,4.182-1.526a10.912,10.912,0,0,0,4.156-2.8c.476-.538,1.006-1.028,1.522-1.529s1.2-1.116,1.776-.717c.644.445,1.461.916,1.536,1.987.127,1.8.368,3.589.663,5.367a10.554,10.554,0,0,0,.78,2.161c.135.331.53.651.5.941-.22,1.918,1.334,2.305,2.491,3.1,1.466,1.005,3.065,1.859,3.868,3.63,1.035,2.284,1.063,2.418-.765,4.245m-21.015-5.233c1.041-.155,2.1-.236,3.119-.481a22.525,22.525,0,0,1,5.78-.879,4.084,4.084,0,0,1,2.712,1.057c.838.746,1.49,1.7,2.258,2.526a2.88,2.88,0,0,0,1.01.749,20.2,20.2,0,0,0,3.067.987,1.91,1.91,0,0,0,2-1.049c.326-.585-.229-1.14-.677-1.576a9.4,9.4,0,0,0-1.082-.994,37.505,37.505,0,0,0-3.9-2.6,2.057,2.057,0,0,1-1.184-2,3.838,3.838,0,0,0-.348-1.832c-1.028-1.576-.99-3.378-1.287-5.108-.118-.685-.12-1.389-.176-2.085a13.989,13.989,0,0,0-1.723,1.418,11.163,11.163,0,0,1-3.961,2.868c-1.643.7-3.4,1.137-5.1,1.695a2.636,2.636,0,0,0-2.006,2.68,11.659,11.659,0,0,0,.042,2.643C2700.633,1016.915,2700.405,1018,2701.925,1018.185Z" transform="translate(-2249.92 -835.431)"></path><path d="M1766,503.1a28.625,28.625,0,0,1-2.148-4.2c-.7-2.074-.377-2.855,1.762-3.353a43.623,43.623,0,0,1,6.247-1.285,8.821,8.821,0,0,1,7.662,3.064c1.014,1.152,2.161,2.185,3.248,3.272.547.547,1.061,1.132,1.648,1.632.929.79,1.915,1.512,2.862,2.281a3.854,3.854,0,0,1,1.556,3.459,1.883,1.883,0,0,1-1.489,1.79,12.179,12.179,0,0,1-3.423-.055c-2.5-.312-4.479-1.784-6.469-3.161a3.1,3.1,0,0,0-2.2-.7c-2.183.258-4.11-.626-6.08-1.33-.675-.241-1.375-.414-2.039-.68A6.208,6.208,0,0,1,1766,503.1m10.715.415c1.562.9,3.187,1.7,4.667,2.718a7.2,7.2,0,0,0,4.618,1.259.868.868,0,0,0,.5-.25c.041-.039-.067-.3-.163-.4a7.27,7.27,0,0,0-.817-.822c-1.77-1.453-3.588-2.85-5.31-4.357a19.228,19.228,0,0,1-2.121-2.425,6.545,6.545,0,0,0-6.331-2.625c-1.74.289-3.474.73-5.236.891-.732.067-.724.484-.581.839a16.511,16.511,0,0,0,1.537,3.16c.231.34,1.068.261,1.624.393.091.022.144.185.238.221C1771.606,502.972,1773.868,503.871,1776.711,503.517Z" transform="translate(-1470.558 -412.129)"></path><path d="M798.564,222.529c-.843-.979-.877-1.276-.216-1.925a8.061,8.061,0,0,1,1.386-1.053c.3-.185.813-.143.985-.381,1.07-1.481,2.61-1.306,4.126-1.3,2.378.014,4.767-.136,7.132.039a13.2,13.2,0,0,1,7.982,3.177,4.387,4.387,0,0,1,.183,5.9,36.31,36.31,0,0,1-6.02,5.446,7.438,7.438,0,0,1-5.4,1.348c-1.791-.284-3.691-2.521-2.558-4.732.959-1.872,1.955-3.725,2.925-5.592a1.282,1.282,0,0,0-.435-1.912,9.93,9.93,0,0,0-2.942-1.266,7.327,7.327,0,0,0-2.567.489,8.045,8.045,0,0,0-3.241,1.4,3.467,3.467,0,0,1-1.341.351m17.11-1.329a9.34,9.34,0,0,0-4.4-.993c-.484.009-.6.308-.277.614,1.545,1.476.656,2.826-.144,4.217-.847,1.472-1.7,2.946-2.456,4.464a1.276,1.276,0,0,0,1.2,1.995,3.344,3.344,0,0,0,2.286-.5c.754-.545,1.627-.932,2.358-1.5a32.465,32.465,0,0,0,4.219-4.149c.845-.952.7-1.711-.275-2.6A10.087,10.087,0,0,0,815.674,221.2Z" transform="translate(-665.342 -181.642)"></path><path d="M3071.5,1577.746a18.54,18.54,0,0,1,4.214-1.674c1.516-.24,2.864-.889,4.324-1.209,1.594-.35,2.7-1.519,3.978-2.382.552-.373,1.038-.67,1.592-.358a1.576,1.576,0,0,1,.775,1.658c-.223,2.222-.53,4.441-2.328,5.989a15.208,15.208,0,0,1-4.927,2.893c-2.459.858-4.894,1.791-7.312,2.758a11.153,11.153,0,0,1-5.239.493,4,4,0,0,1-2.139-1.161c-1.1-1.046-.863-1.939.428-2.72,1.115-.675,2.139-1.5,3.236-2.2s2.208-1.335,3.4-2.082m-.582,5.565c1.2-.443,2.382-.927,3.6-1.321a27.071,27.071,0,0,0,7.217-3.364,10.6,10.6,0,0,0,1.962-2.244c.093-.118-.032-.409-.056-.62-.162.08-.321.166-.487.238-1.031.445-2.039.963-3.1,1.311-1.416.465-2.877.792-4.316,1.187a27.6,27.6,0,0,0-8.416,4.486.493.493,0,0,0-.2.372.407.407,0,0,0,.292.273A9.021,9.021,0,0,0,3070.915,1583.311Z" transform="translate(-2554.787 -1310.852)"></path><path d="M1410.922,386.288c-.8,1.784-.814,3.64-1.25,5.4-.621,2.515-2.04,3.6-4.435,2.718a3.116,3.116,0,0,0-.969-.062c-2.28-.058-3.575-1.748-2.781-3.9a16.771,16.771,0,0,1,3.475-6.189,5.613,5.613,0,0,0,.933-1.269c.408-.764-.16-1.308-.595-1.8a3.369,3.369,0,0,1-.967-2.1,2.347,2.347,0,0,1,1.482-2.391,10.791,10.791,0,0,1,6.393-.264,2.984,2.984,0,0,1,1.6,3.968,11.761,11.761,0,0,1-2.673,5.036c-.15.143-.093.5-.214.848m-3.239,3.572c.111-.783.186-1.573.34-2.347a7.8,7.8,0,0,1,1.463-3.678,12.732,12.732,0,0,0,2.06-4.144c.274-.7.034-.992-.632-1.322-1.283-.637-2.49-.065-3.714.059-.552.056-.747.825-.3,1.31a3.124,3.124,0,0,1,.785,2.5c-.014.218-.085.533.028.641.747.72.067,1.294-.226,1.816-.359.641-.992,1.126-1.364,1.762-.855,1.461-1.663,2.952-2.408,4.471-.3.607.083,1,.8,1.1.458.062.9.255,1.357.315,1.092.143,1.256-.01,1.481-1.127C1407.427,390.866,1407.572,390.532,1407.682,389.859Z" transform="translate(-1168.476 -313.589)"></path><path d="M591.424,792.561a17.066,17.066,0,0,1-8.462-3.972,7.428,7.428,0,0,1-1.468-1.2c-.41-.6-1.75-.755-1.06-1.949-.122-.064-.24-.138-.366-.19a4.321,4.321,0,0,1-1.256-.537c-.323-.289-.741-.975-.62-1.157.283-.427,1.166-1,1.275-.91.773.672,1.5,0,2.078-.126a8.035,8.035,0,0,1,7.8,2.181,8.49,8.49,0,0,0,3.72,2.259,5.377,5.377,0,0,1,3.184,2.983c.7,1.439-.082,2.689-1.818,2.923a5.386,5.386,0,0,1-3.007-.307m-9.469-7.309c.807.586,1.642,1.136,2.416,1.763a17.9,17.9,0,0,0,8.311,3.536,3.315,3.315,0,0,0,1.067-.17,4.861,4.861,0,0,0-.7-.667,13.97,13.97,0,0,0-1.489-.8,11.225,11.225,0,0,1-1.673-.747,19.7,19.7,0,0,1-2.214-1.862,6.845,6.845,0,0,0-5.258-1.694C582.2,784.616,582,784.92,581.955,785.252Z" transform="translate(-482.124 -652.334)"></path><path d="M2967.55,1575.237c1.79,1.3.7,2.727.155,3.931-.968,2.124-3.124,2.99-5.048,4.013a1.185,1.185,0,0,1-1.54-.6,5.477,5.477,0,0,1-.847-1.624,10,10,0,0,1-.036-5.174,2.038,2.038,0,0,1,1.945-1.525,14.357,14.357,0,0,1,5.087.859.66.66,0,0,0,.284.114m-3.489,1.329a8.167,8.167,0,0,0-1.15.019c-.131.019-.352.348-.327.382.6.8.24,1.57.011,2.381a3.112,3.112,0,0,0,.174,1.2c.3-.2.6-.4.9-.607a5.455,5.455,0,0,0,1.128-.827c.426-.509,1.034-1.124,1.021-1.681C2965.8,1576.556,2964.711,1577.133,2964.061,1576.566Z" transform="translate(-2468.2 -1312.746)"></path><path d="M3214.378,1538.66a5.637,5.637,0,0,0-1.887.261,1.786,1.786,0,0,1-1.99-.258c-.127-.127-.436-.247-.421-.315.375-1.624-.545-3.525,1.265-4.87a12.291,12.291,0,0,0,2.028-2.615c.67-.885,1.53-1.539,2.656-1.143,1.093.384,1.342,1.526,1.657,2.509a9.573,9.573,0,0,1,.339,1.85,4.438,4.438,0,0,1-.635,2.891,2.605,2.605,0,0,1-2.486,1.373c-.119,0-.24.206-.526.317m1-5.482v-.663c-.2.084-.446.117-.576.26-.8.876-1.591,1.76-2.343,2.676a7.158,7.158,0,0,0-.641,1.144c.387-.087.772-.179,1.16-.258.106-.022.227.021.33-.007,2.64-.709,2.465.118,2.348-2.869C3215.652,1533.422,3215.58,1533.384,3215.375,1533.178Z" transform="translate(-2676.821 -1275.505)"></path><path d="M1365.883,387.974a2.134,2.134,0,0,1,2.325,1.337c.492.812.61,1.876,1.721,2.284.192.07.253.879.142,1.283a2.728,2.728,0,0,1-.794,1.15c-.78.737-1.591,1.447-2.435,2.11a2.279,2.279,0,0,1-3.3-.492,5.43,5.43,0,0,0-1.008-.881c-1.2-.956-1.424-1.933-.4-3.159a33.733,33.733,0,0,1,3.749-3.631m.664,2.824c.046-.439-.2-.688-.54-.421a12.353,12.353,0,0,0-1.619,1.611c-.147.168-.244.624-.145.719.479.459.993,1.063,1.575,1.166.371.066,1.011-.571,1.3-1.037C1367.518,392.186,1367.02,391.558,1366.548,390.8Z" transform="translate(-1135.315 -323.498)"></path><path d="M2371.719,960.709c-.7,1.972-1.388,3.783-2.105,5.581-.132.33-.408.6-.57.923-.434.869-1.116.374-1.464.1-1.634-1.271-2.4-5.076-1.51-7.021a4.113,4.113,0,0,1,4.135-2.187c.59.154,1.064.9,1.487,1.462.159.21.026.642.026,1.139m-3.489.665a6.909,6.909,0,0,0-.47,1.262c-.033.185.243.425.378.64a4.081,4.081,0,0,0,.336-.49c.311-.629.619-1.26.9-1.9a.463.463,0,0,0-.092-.422c-.085-.077-.36-.094-.415-.026C2368.677,960.664,2368.548,960.945,2368.23,961.373Z" transform="translate(-1972.706 -798.886)"></path><path d="M292.085,310.343c1.218,0,2.271-.032,3.321.007,2.446.09,4.893.182,7.335.342a14.106,14.106,0,0,1,2.949.49c2.053.589,2.609,2.351,3,4.163a25.6,25.6,0,0,1,.306,7,57.909,57.909,0,0,1-.6,7.372,22.226,22.226,0,0,0-.041,2.817,17.523,17.523,0,0,1-.349,2.68,1.288,1.288,0,0,1-.728.693,6.428,6.428,0,0,1-2.044.656,67.581,67.581,0,0,1-9.154.268c-2.067-.165-4.124-.117-6.181-.242-.706-.043-1.111.185-1.15.985-.04.843-.21,1.68-.316,2.521-.208,1.647-1.509,3.267-3.58,2.148a9.383,9.383,0,0,1-4.05-3.442c-.45-.8-1.284-.873-1.973-1.2-.97-.454-2-.785-3.005-1.163a4.821,4.821,0,0,1-2.966-3.69c-.407-1.747-.4-3.587-.729-5.358a42.8,42.8,0,0,1-.331-6.011,37.573,37.573,0,0,1,.329-4.907c.3-1.794,1.611-2.682,2.95-3.567.514-.34,1.085-.592,1.611-.914.179-.11.44-.33.425-.475-.11-1.022.662-1.113,1.3-1.159q3.33-.241,6.671-.341c1.659-.052,3.322-.04,4.982.005.621.017,1.237.206,2.022.317m-1.163,23.921a35.415,35.415,0,0,0,3.678.312c3.495-.052,6.988-.21,10.482-.3.7-.019.963-.337.96-1-.012-2.912.382-5.793.621-8.688.195-2.362.053-4.753.025-7.131a1.525,1.525,0,0,0-.337-1,2.819,2.819,0,0,1-1.111-2.032c-.009-.261-.6-.636-.973-.725a15.433,15.433,0,0,0-3.7-.647c-2.344.038-4.677-.172-7.028-.085-4.338.161-8.687-.075-13,.681a14.981,14.981,0,0,0-4.563,1.406,3.478,3.478,0,0,0-1.806,2.177,13.4,13.4,0,0,0-.333,3.009c0,1,.287,2.01.291,3.015a54.731,54.731,0,0,0,.977,8.387,3.441,3.441,0,0,0,2.24,3,12.044,12.044,0,0,0,2.6.918,3.926,3.926,0,0,1,2.535,1.7,21.021,21.021,0,0,0,2.807,2.617c.244.2.837.244.846-.527a13.885,13.885,0,0,1,.331-2.679,3.565,3.565,0,0,1,.641-1.221C287.968,334.2,289.268,334.188,290.922,334.265Z" transform="translate(-226.641 -258.492)"></path></g><text class="a" transform="translate(831 2999)"><tspan x="-16.288" y="0">Hola</tspan></text><text class="b" transform="translate(982 2948)"><tspan x="-13.712" y="0"></tspan></text><text class="c" transform="translate(766 2866)"><tspan x="-16.079" y="0">Hello</tspan></text><text class="d" transform="translate(1185 3012)"><tspan x="-13.782" y="0">Hello</tspan></text><text class="e" transform="translate(1197 2888)"><tspan x="-20" y="0"></tspan></text><text class="d" transform="translate(1134 2836)"><tspan x="-20.13" y="0"></tspan></text><text class="f" transform="translate(1084 2923)"><tspan x="-14.469" y="0"></tspan></text><text class="g" transform="translate(1025 2997)"><tspan x="-17.15" y="0">Bonjour</tspan></text><text class="c" transform="translate(964 2841)"><tspan x="-10.5" y="0">Hei</tspan></text><text class="d" transform="translate(896 2815)"><tspan x="-13.566" y="0">Hallo</tspan></text></g></svg>