<svg width="24" height="24" viewBox="0 0 24 24" fill="none" xmlns="http://www.w3.org/2000/svg">
<path fill-rule="evenodd" clip-rule="evenodd" d="M3.55266 17.3689L2.1499 22.5L7.38017 21.1191C8.82181 21.9146 10.4419 22.3309 12.0886 22.3288C17.519 22.3288 21.9367 17.8827 21.9367 12.419C21.9367 9.76789 20.9151 7.27815 19.0515 5.40311C17.1879 3.52807 14.7135 2.5 12.0787 2.5C6.6483 2.5 2.23006 6.94547 2.24045 12.419C2.23778 14.1553 2.69023 15.862 3.55266 17.3689ZM7.91138 19.5161L7.61086 19.3345L7.60979 19.3351L4.49397 20.1619L5.32571 17.1175L5.13537 16.8045C4.31349 15.4945 3.88261 13.9723 3.88261 12.4195C3.88261 7.88353 7.55959 4.18364 12.0782 4.18364C14.2625 4.18364 16.3262 5.05079 17.8702 6.60241C19.4131 8.15516 20.2645 10.2315 20.2645 12.4294C20.2645 16.9653 16.5875 20.6653 12.0793 20.6653C10.6119 20.6642 9.172 20.2672 7.91138 19.5161Z" fill="#C1C5C8"/>
<path fill-rule="evenodd" clip-rule="evenodd" d="M3.55266 16.3689L2.1499 21.5L7.38017 20.1191C8.82181 20.9146 10.4419 21.3309 12.0886 21.3288C17.519 21.3288 21.9367 16.8827 21.9367 11.419C21.9367 8.76789 20.9151 6.27815 19.0515 4.40311C17.1879 2.52807 14.7135 1.5 12.0787 1.5C6.6483 1.5 2.23006 5.94547 2.24045 11.419C2.23778 13.1553 2.69023 14.862 3.55266 16.3689ZM7.91138 18.5161L7.61086 18.3345L7.60979 18.3351L4.49397 19.1619L5.32571 16.1175L5.13537 15.8045C4.31349 14.4945 3.88261 12.9723 3.88261 11.4195C3.88261 6.88353 7.55959 3.18364 12.0782 3.18364C14.2625 3.18364 16.3262 4.05079 17.8702 5.60241C19.4131 7.15516 20.2645 9.23146 20.2645 11.4294C20.2645 15.9653 16.5875 19.6653 12.0793 19.6653C10.6119 19.6642 9.172 19.2672 7.91138 18.5161Z" fill="url(#paint0_linear_914_1916)"/>
<path d="M7.61106 18.3345L7.91159 18.5161C9.1722 19.2671 10.6121 19.6641 12.0795 19.6653C16.5877 19.6653 20.2647 15.9653 20.2647 11.4294C20.2647 9.23142 19.4133 7.15511 17.8704 5.60236C16.3264 4.05074 14.2627 3.18359 12.0784 3.18359C7.5598 3.18359 3.88281 6.88348 3.88281 11.4195C3.88281 12.9722 4.31369 14.4944 5.13557 15.8045L5.32591 16.1175L4.49418 19.1619L7.61 18.3351L7.61106 18.3345Z" fill="url(#paint1_linear_914_1916)"/>
<path fill-rule="evenodd" clip-rule="evenodd" d="M9.62394 7.26586C9.44396 6.85245 9.24326 6.84264 9.0731 6.84264C8.92257 6.83228 8.76223 6.83228 8.59206 6.83228C8.43172 6.83228 8.16121 6.89281 7.93105 7.14478C7.70035 7.39675 7.06934 7.99177 7.06934 9.21181C7.06934 10.4313 7.95123 11.611 8.07122 11.7719C8.1912 11.9333 9.77447 14.5141 12.2789 15.5122C14.3628 16.3384 14.7839 16.1775 15.2349 16.1268C15.6854 16.0766 16.6873 15.5323 16.8978 14.9471C17.098 14.3728 17.098 13.8689 17.038 13.768C16.978 13.6671 16.8073 13.6066 16.5668 13.4757C16.3164 13.3546 15.1144 12.7503 14.8837 12.669C14.6535 12.5883 14.4932 12.548 14.3328 12.7901C14.1725 13.0421 13.7018 13.5967 13.5513 13.7576C13.4111 13.9191 13.2611 13.9392 13.0206 13.8182C12.7697 13.6976 11.9789 13.4353 11.0365 12.5883C10.3057 11.9333 9.81483 11.1169 9.6643 10.8747C9.52414 10.6227 9.64412 10.4918 9.77447 10.3708C9.88464 10.2601 10.0253 10.0784 10.1453 9.93718C10.2653 9.79592 10.3051 9.68521 10.3957 9.52377C10.4758 9.36288 10.4355 9.21127 10.3755 9.09073C10.3155 8.97948 9.84428 7.75998 9.62394 7.26586Z" fill="white"/>
<defs>
<linearGradient id="paint0_linear_914_1916" x1="12.0416" y1="21.5022" x2="12.0416" y2="1.50273" gradientUnits="userSpaceOnUse">
<stop stop-color="#F9F9F9"/>
<stop offset="1" stop-color="white"/>
</linearGradient>
<linearGradient id="paint1_linear_914_1916" x1="12.0413" y1="21.1559" x2="12.0413" y2="1.84909" gradientUnits="userSpaceOnUse">
<stop stop-color="#20B038"/>
<stop offset="1" stop-color="#60D66A"/>
</linearGradient>
</defs>
</svg>
