<svg xmlns="http://www.w3.org/2000/svg" width="333.592" height="311.354" viewBox="0 0 333.592 311.354"><defs><style>.a{fill:#1e75ba;}.b{fill:#f28f84;}.c{fill:#b2d4fe;}.d{fill:#9fd67b;}.e,.f{fill:#fff;}.f{opacity:0.6;}.g{fill:#edbe86;}.h,.i{fill:#333;}.i{font-size:4px;font-family:Lato-Bold, Lato;font-weight:700;}.j,.k{fill:none;}.j{stroke:#333;stroke-width:2px;}</style></defs><g transform="translate(-856.408 -190)"><path class="a" d="M2264.025,949.237s-2.806,5.286-6.773,4.307l-1.742,3.622-3.967,3.915-1.451,3.328.871,1.175s2.708-.685,3.095,0,3.676,2.447,4.064,2.836a21.391,21.391,0,0,1,1.451,3.23l-.58,3.622v4.894l-.871,1.468-4.064-6.361-2.722-4.281-1.246-3.269-2.665-.58v3.664l1.33,4.244,3.127,4.613,4.4,3.981,2.705.338h2.225l2.806-2.349h1.742l2.805,2.349h1.741l5.9-1.37,5.709-7.831,1.839-8.026-.581-7.048h-3.387v2.153l-3.581-.783,2.419,3.328-.871,4.992-1.547,3.23-1.934,4.209-2.321,2.545h-2.419l-.967-2.545a2.965,2.965,0,0,1,0-2.056,18.32,18.32,0,0,0,0-4.7l-4.548-1.664s-1.258-.979-1.451-1.664a23.369,23.369,0,0,1,0-3.719l1.451-1.958a30.285,30.285,0,0,1,2.321-2.153,29.207,29.207,0,0,1,3.967-1.273l-4.548-1.175-.773-.978,1.355-1.37,2.225-2.545.967-2.349Z" transform="translate(-1103.23 -565.831)"></path><path class="b" d="M23414.348-11367.666l.6-8.668.9-3.088,4.883-1.4,22.318.7,2.289,2.391v13.152l-1.193,3.587-26.7.8-3.088-1.894Z" transform="translate(-22292 11610)"></path><path class="c" d="M23283.906-11386.731s.375-1.51.766-3.264a3.235,3.235,0,0,1,3.105-1.85c2.6.084,14.428-.164,22.178.105a26.736,26.736,0,0,1,6.279.906l.77,8.041-.42,4.779-.35.767-2.338.747-.73,3.648-2.791-.906-2.373-2.268-2.268-.907-12.932.433h-5.025l-2.791-1.061-.662-2.756Z" transform="translate(-22292 11610)"></path><path class="d" d="M23166.229-11397.3l2.391-3.188,5.879,4.185-1.2,1.993,5.879,8.469,2.59-3.389,6.08,7.872s-6.877,3.786-11.857,0-7.672-7.473-8.369-11.06A19.51,19.51,0,0,0,23166.229-11397.3Z" transform="translate(-22292 11610)"></path><path class="e" d="M10.679.412S.075,2.395,0,11.133c0,0,1.689,3.011,5.14,0s7.49-6.241,7.49-6.241,1.615-2.423-.441-4.038S10.679.412,10.679.412Z" transform="matrix(-0.616, 0.788, -0.788, -0.616, 1070.602, 338.729)"></path><path class="e" d="M8.759.049A4.853,4.853,0,0,0,6.946.956,26.8,26.8,0,0,1,4.352,3.371C2.355,4.73.029,6.6,0,10.134c0,0,1.462,2.651,4.449,0S11.676,3.92,11.676,3.92s.655-1.416-1.125-2.839S8.759.049,8.759.049Z" transform="matrix(-0.799, -0.602, 0.602, -0.799, 1046.068, 390.45)"></path><path class="e" d="M12.574.468S.087,2.716,0,12.621c0,0,1.988,3.413,6.052,0s8.819-7.076,8.819-7.076,1.9-2.747-.519-4.578S12.574.468,12.574.468Z" transform="translate(1072.627 371) rotate(143.989)"></path><path class="e" d="M10.148.39S.07,2.264,0,10.521c0,0,1.6,2.845,4.884,0S12,4.623,12,4.623s1.535-2.29-.419-3.817S10.148.39,10.148.39Z" transform="matrix(0.755, 0.656, -0.656, 0.755, 977.969, 374.372)"></path><path class="e" d="M1794.2,954.7s-10.6,1.983-10.679,10.721c0,0,1.689,3.011,5.14,0s7.49-6.242,7.49-6.242,1.615-2.423-.441-4.038S1794.2,954.7,1794.2,954.7Z" transform="translate(-833.48 -568.298)"></path><ellipse class="e" cx="1.5" cy="3.5" rx="1.5" ry="3.5" transform="translate(1017 300.813)"></ellipse><circle class="e" cx="3.5" cy="3.5" r="3.5" transform="translate(908 278.813)"></circle><path class="e" d="M1633.935,668.9s-3.437,14.509,8.973,16.228c0,0,5.918,1.05,2.864-4.1,0,0-5.728-1.05-5.632-11.359,0,0-.764-5.346-5.632-1.718Z" transform="translate(-746.338 -401.241)"></path><path class="e" d="M1635.4,614.661c-.668,0-.859,9.451-.859,9.451s2.673,8.3,5.918.573V612.752A41.145,41.145,0,0,1,1635.4,614.661Z" transform="translate(-746.943 -369.918)"></path><path class="e" d="M1736.229,782.292c0-.5,4.964-8.439,4.964-8.439l4.22,8.439-.869,1.117-4.467-1.985-2.633,1.985-1.215.787Z" transform="translate(-806.01 -463.494)"></path><path class="e" d="M20.5,0A20.734,20.734,0,0,1,37.852,9.346,19.317,19.317,0,0,1,41,20,20.255,20.255,0,0,1,20.5,40,20.255,20.255,0,0,1,0,20,20.255,20.255,0,0,1,20.5,0Z" transform="translate(1064 257.813)"></path><path class="f" d="M16,0c8.837,0,16,6.716,16,15S24.837,30,16,30,0,23.284,0,15,7.163,0,16,0Z" transform="translate(925 229.813)"></path><ellipse class="e" cx="13" cy="14.5" rx="13" ry="14.5" transform="translate(1017 266.813)"></ellipse><g transform="translate(856.408 190)"><g transform="translate(130.383 193.728)"><path class="g" d="M1895.876,1062.311c.209-.2,0-7.12,0-7.12l-7.251-5.671-18.43-32.961-3.9-11.694s-1.063-8.152,3.9-6.734a25.864,25.864,0,0,1,7.8,3.544l8.152,11.694V971.9l1.73-22.736s7.838-8.453,9.966,1.825,0,26.227,0,26.227l2.127,20.911s1.772-12.759,7.8-9.215a11.479,11.479,0,0,1,6.025,9.215s6.38-13.114,14.531,0c0,0,6.025-6.38,10.987,0,0,0,6.734,6.734-2.481,41.113l-5.732,15.949-1.613,7.119-16.777.806h-10S1895.666,1062.508,1895.876,1062.311Z" transform="translate(-1866.201 -945.897)"></path></g><g transform="translate(0 0)"><path class="h" d="M204.644,158.787c-1.564-.776-3.012-1.488-4.761-1.264-3.295.419-6.643.622-9.788,1.718a21.465,21.465,0,0,0-5.509,2.813,7.666,7.666,0,0,0-1.476,1.729,18.241,18.241,0,0,0-3.772,9.012c-.2,1.742-.377,3.517-.734,5.216-.288,1.363.13,2.791-.576,4.091-.238.441.96,2.283,1.467,2.385.1.02.241-.132.362-.21,2.347-1.493,4.66-3.047,7.06-4.462a39.458,39.458,0,0,1,4.967-2.477,55.8,55.8,0,0,1,9.009-3.123c.362-.08.74-.362,1.06-.3,1.043.192,1.283-.629,1.509-1.193a6.348,6.348,0,0,0,.383-2.341,2.637,2.637,0,0,1,1.7-2.645c1.26-.577,2.076.279,2.937.811,1.524.941,2.059,2.571,2.579,4.12.172.517.338.569.765.557a9.218,9.218,0,0,0,1.719-.022c2.353-.526,4.769-.027,7.093-.374a55.386,55.386,0,0,1,7.109-.254c.869-.02,1.745.31,2.614.293a69.173,69.173,0,0,0,8.123-.387c1.524-.214,3.021-.132,4.523-.265,4.34-.386,8.718-.793,12.757-2.416a44.115,44.115,0,0,0,8.938-4.9c1.723-1.215,3.514-2.352,5.138-3.681a20.543,20.543,0,0,0,3.71-4.5c1.464-2.135,2.191-4.585,3.417-6.813.076-.136.135-.281.21-.417.828-1.512.828-1.512.828-3.73,0-7.9-.014-15.795.014-23.693a9.821,9.821,0,0,1,.285-3.716c.21-.539-.088-1.262-.166-1.9a6.847,6.847,0,0,1-.126-.78c-.007-7.119-.251-14.251.09-21.352.2-4.077.095-8.144.231-12.213a2.564,2.564,0,0,0-.281-1.9c-.219-.29-.012-.946.116-1.406.433-1.546.2-2.146-1.425-2.333-3.916-.451-7.359-2.125-10.828-3.725a19.359,19.359,0,0,1-3.391-2.138,23.76,23.76,0,0,1-5.733-5.837,26.081,26.081,0,0,1-4.331-10.287,21.5,21.5,0,0,1-.616-5.9c.246-2.124.272-4.317,1.29-6.311.99-1.939,1.892-3.921,2.947-5.826a36.532,36.532,0,0,1,3.845-5.483A25.439,25.439,0,0,1,269.1,24.2a23.454,23.454,0,0,1,6.107-1.867,26.146,26.146,0,0,1,5.067-.621,2.463,2.463,0,0,1,.855.016c2.414,1.1,5.119,1.048,7.623,1.921a38.8,38.8,0,0,1,10.5,5.223,21.667,21.667,0,0,1,7.433,9.825c.848,2.235,1.571,4.492,2.245,6.772a3.476,3.476,0,0,1,.112.955c.01,1.613.114,3.234-.017,4.837a30.3,30.3,0,0,1-2.485,10.007,7.535,7.535,0,0,0-.692,2.311,5.9,5.9,0,0,1-1.521,2.854,26.519,26.519,0,0,1-3.9,3.769,31.65,31.65,0,0,1-6.745,3.946,35.818,35.818,0,0,1-9.766,3c-1.031.123-1.993.6-3.01-.019-.052-.031-.438.256-.466.425a8.564,8.564,0,0,0-.022,1.331q0,33.537-.024,67.074a21.457,21.457,0,0,1-.54,3.277,17.107,17.107,0,0,1-.8,3.686,29.719,29.719,0,0,1-13.54,15.445,22.729,22.729,0,0,1-6.49,2.546c-1.742.432-3.39,1.213-5.114,1.734a27.109,27.109,0,0,1-4.436.949c-3.292.422-6.6.4-9.887.689-5.767.505-11.523.065-17.278.27-2.6.092-5.193.2-7.786.34-.876.047-1.747.2-2.615.327a.871.871,0,0,0-.816,1.013,20.734,20.734,0,0,1-3.471,10.946,6.215,6.215,0,0,1-2.312,2.329c-1.559.778-3.29-.11-4.219-1.718a6.263,6.263,0,0,1-.51-4.842c.565-2.194,1.4-4.325,2.166-6.467.241-.679-.2-.694-.573-.581-2.688.829-5.381,1.652-8.037,2.571a38.18,38.18,0,0,0-9.892,5.088c-1.095.788-2.205,1.557-3.311,2.333-.545.381-.585.776-.2,1.333a4.291,4.291,0,0,1,.686,1.551.941.941,0,0,0,1.379.754,7.088,7.088,0,0,1,2.981-.282c2.067-.042,4.138-.062,6.2.01a8.558,8.558,0,0,1,2.876.509c.99.407,1.986.983,2.107,2.266a3.255,3.255,0,0,1-1.742,3.542,8.087,8.087,0,0,1-3.881,1.006c-1.321-.012-2.645-.045-3.964.012-1.162.048-2.322.19-3.476.342-.153.022-.364.339-.377.532-.141,1.73-.192,3.471-.377,5.2-.141,1.306-.41,2.6-.681,3.894-.355,1.7-.158,2.076,1.4,2.708q4.04,1.635,8.054,3.336a54.754,54.754,0,0,0,11.564,4,13.183,13.183,0,0,0,3.5.609c2.61-.277,5.259-.247,7.83-1a13.067,13.067,0,0,0,5.609-3.437,38.761,38.761,0,0,0,5.837-6.679c1.04-1.642,2.036-3.309,3.124-4.919.895-1.323,1.879-2.591,2.854-3.863.788-1.026,1.56-2.076,2.446-3.02a20.344,20.344,0,0,1,7.645-5.079,11.8,11.8,0,0,1,5.611-.951,48.422,48.422,0,0,1,4.919.976c1.886.419,3.745.969,5.645,1.3a27.477,27.477,0,0,1,7.306,2.686c3.566,1.727,7.187,3.347,10.778,5.027.481.225.917.537,1.381.8a1.1,1.1,0,0,0,1.743-.5,20.334,20.334,0,0,1,3.112-4.926,56.8,56.8,0,0,1,4.4-4.359,19.743,19.743,0,0,1,4.747-2.97,37.435,37.435,0,0,1,7.619-2.743c1.115-.2,2.216-.545,3.338-.636a5.177,5.177,0,0,1,3.269.389c.178.109.49.29.567.232.848-.661,1.664.077,2.488.017,2.431-.177,4.536.854,6.7,1.672,4.891,1.844,8.624,5.207,12.035,8.89a21.3,21.3,0,0,1,4.14,7.834,26.459,26.459,0,0,1,1.359,10.951,34.964,34.964,0,0,1-.99,4.261,18.147,18.147,0,0,1-.587,3.105,35.8,35.8,0,0,1-2.419,4.7c-.866,1.448-1.871,2.823-2.872,4.191a27.169,27.169,0,0,1-8.94,8.022,25.2,25.2,0,0,1-8.092,2.5,29.022,29.022,0,0,1-7.274.207,32.143,32.143,0,0,1-9.536-2.245,29.5,29.5,0,0,1-10.931-7.861,21.571,21.571,0,0,1-4.191-7.153c-.088-.242-.241-.461-.34-.7-.3-.739-.852-1.5.251-2.111.116-.062.148-.434.079-.609-.324-.814-.19-1.776-.981-2.46a2.123,2.123,0,0,1-.7-1.361,28.477,28.477,0,0,1,.028-5.661,50.207,50.207,0,0,1,1.81-6.77c.509-1.652.571-1.61-1.048-2.426-2.931-1.48-5.8-3.1-8.787-4.453a69.26,69.26,0,0,0-13.235-4.527,24.915,24.915,0,0,0-7.13-.644,16.994,16.994,0,0,0-10.33,4.1,38.121,38.121,0,0,0-7.548,9.322c-1.4,2.271-2.576,4.7-4.191,6.813-1.871,2.449-3.952,4.82-7.174,5.787a2.956,2.956,0,0,0-.671.452,11.155,11.155,0,0,1-6.983,2.184c-1.352-.088-2.683-.429-4.028-.637a4.116,4.116,0,0,0-.861-.005,19.044,19.044,0,0,1-6.28-1.051,70.965,70.965,0,0,1-10.925-4.275c-2.1-.99-4.288-1.8-6.388-2.795-.838-.4-1.121-.214-1.493.547a24.784,24.784,0,0,1-6.539,8.048A21.02,21.02,0,0,1,167.987,223a18.021,18.021,0,0,1-4.793,1.312,1.013,1.013,0,0,0-.671.743c.1,1.013-.377,2.059.256,3.06.205.324.049.866.049,1.308,0,2.67,0,5.339.011,8.009,0,.175.153.352.235.527a2.666,2.666,0,0,0,.44-.339c1.024-1.195,1.952-2.5,3.721-2.763.316-.046.639-.262.93-.217a32.007,32.007,0,0,1,4.638.843,6.922,6.922,0,0,1,3.743,3.249c.188.3.245.684.429.993.326.554.666.824,1.278.185a6.664,6.664,0,0,1,4.335-1.874,8.7,8.7,0,0,1,6.042,1.278,7.569,7.569,0,0,1,2.112,2.333c.31.516.4.654,1.019.23a5.451,5.451,0,0,1,6.317-.355,2.022,2.022,0,0,0,1.183.41,2.684,2.684,0,0,1,2.8,1.509,14.68,14.68,0,0,1,2.864,8.7c-.107,3.112-.007,6.229-.028,9.342a38.933,38.933,0,0,1-.671,6.568,27.211,27.211,0,0,0-.348,3.531,30.311,30.311,0,0,1-.671,4.736,24.471,24.471,0,0,0-.316,2.863c-.293,3.539-1.538,6.818-2.621,10.148a57.07,57.07,0,0,1-4.845,10.075,12.988,12.988,0,0,0-1.6,5.039c-.079.762-.288,1.33.481,1.907.529.4.324,1.648-.259,2.343a6.545,6.545,0,0,1-3.962,2.012,45.783,45.783,0,0,1-7.785.352c-2.828.068-5.654.309-8.48.3-3.63-.012-7.263-.148-10.889-.335a34.359,34.359,0,0,1-4.2-.648,2.6,2.6,0,0,1-1.874-3.414c.22-.449.55-1.146.358-1.435-.691-1.034.385-2.456-.908-3.336a18.576,18.576,0,0,0-1.547-1.163,18.3,18.3,0,0,1-3.209-2.129,17.929,17.929,0,0,1-2.831-3.521c-1.15-1.854-2.1-3.826-3.133-5.746-2.069-3.843-4.126-7.69-6.212-11.526-1.293-2.376-2.7-4.694-3.934-7.1-1.813-3.551-3.626-7.11-5.219-10.754a31.462,31.462,0,0,1-2.465-7.5,14.468,14.468,0,0,1,.245-6.688,4.124,4.124,0,0,1,2.947-2.735,2.628,2.628,0,0,1,2.206.44,1.855,1.855,0,0,0,.583.152c-.073-.16-.212-.32-.21-.479a.81.81,0,0,1,1.293-.681,16.726,16.726,0,0,1,2.641,1.88,26.34,26.34,0,0,1,4.176,4.652c1.223,1.754,2.628,3.389,3.865,5.134a28.9,28.9,0,0,1,1.49,2.733,2.464,2.464,0,0,0,.48.477,1.749,1.749,0,0,0,.172-.572,4.668,4.668,0,0,0-.3-2.385c-.2-.332-.034-.871-.034-1.316V224.836c0-.389.007-.779,0-1.168-.011-.477-.192-.4-.446-.126-.593.641-1.269.424-1.991.227a18.316,18.316,0,0,1-5.195-2.753,39.074,39.074,0,0,1-5.726-4.79,31.445,31.445,0,0,1-6.151-9.394c-.57-1.2-.514-2.673-.851-4a16.38,16.38,0,0,1-.287-5.2c.053-.779-.55-.884-.85-.949-2.571-.566-5.106-1.155-7.828-.5a4.118,4.118,0,0,1-4.279-1.584,2.336,2.336,0,0,1,.032-3.06,7.243,7.243,0,0,1,4.868-2.338,29.55,29.55,0,0,0,5.243-.609c.832-.251,1.746.2,2.638-.307.43-.244.559-.249.148-.519a22.535,22.535,0,0,0-2.869-1.755c-1.726-.789-3.6-1.3-5.267-2.18a33.221,33.221,0,0,0-6.455-2.253,66.052,66.052,0,0,0-10.2-2.354,36.569,36.569,0,0,1-4.533-.7c-1.626-.419-3.284-.037-4.858-.342a31.755,31.755,0,0,0-8.823-.2c-3.129.274-6.236.128-9.349.222a21.022,21.022,0,0,1-2.96-.312,16.237,16.237,0,0,1-2.981-.269,24.82,24.82,0,0,0-4.146-.407,25.182,25.182,0,0,1-8.365-2.209c-1.985-.964-4.2-1.5-6.159-2.506-1.331-.684-2.822-.978-4.069-1.78-1.225-.788-2.427-1.612-3.594-2.478-1.275-.946-2.53-1.923-3.73-2.954a44.143,44.143,0,0,1-3.383-3.48c-2.959-5.164-4.751-10.782-6.721-16.325a18.247,18.247,0,0,1-.841-4.163c-.279-2.628-.634-5.245-.778-7.894-.134-2.463-.454-4.931-.689-7.4a48.448,48.448,0,0,0-.335-4.862c-.505-2.525-.054-5.044-.3-7.545-.591-5.9-.259-11.811-.308-17.716a34.693,34.693,0,0,1,.389-6.524,39.911,39.911,0,0,0,.275-5.212,67.638,67.638,0,0,1,.409-7.361,55.617,55.617,0,0,0,.264-8.048c.08-3.948.01-7.9.031-11.846,0-.587-.1-.743-.8-.875a28.929,28.929,0,0,1-7.94-2.354c-3.552-1.844-7.3-3.533-9.875-6.757-2.315-2.9-4.635-5.768-5.926-9.3A16.649,16.649,0,0,1,.4,32.325a10.608,10.608,0,0,0-.328-1.7c-.307-1.6.51-3.015.8-4.517a6.3,6.3,0,0,0,.221-1.242,18.67,18.67,0,0,1,1.7-7,35.485,35.485,0,0,1,3.134-6.087,19.732,19.732,0,0,1,4.743-5.051,42.678,42.678,0,0,1,5.7-3.586A23.67,23.67,0,0,1,22.374.675,37.995,37.995,0,0,1,32.09.048a15.431,15.431,0,0,1,5.222,1.473A31.405,31.405,0,0,1,44.234,5.13c1.12.816,2.515,1.309,3.426,2.416a54.134,54.134,0,0,1,5.506,7.3,28.857,28.857,0,0,1,3.267,7.867,13.9,13.9,0,0,1,.5,3.126c-.011,2.123-.187,4.247-.327,6.368a3.123,3.123,0,0,1-.332.864,53.912,53.912,0,0,1-5.1,10.479A27.357,27.357,0,0,1,40.3,53.027c-1.92.934-2.54,1.92-1.913,3.814a10.1,10.1,0,0,1,.207,4.536c-.128,1.015-.093,2.04-.263,3.041-.31,1.825-.7,3.579-2.834,4.372a3.339,3.339,0,0,1-4.375-1.726,10.872,10.872,0,0,1-.419-6.773,4.835,4.835,0,0,0,.053-1.315c.006-.667-.032-1.337.017-2,.022-.293.778-.563.075-.874-.529-.234-1.033.192-1.125.853-.11.789-.246,1.574-.34,2.365-.132,1.12-.269,2.241-.342,3.366q-.21,3.266-.347,6.535c-.133,3.235-.024,6.493-.4,9.7-.567,4.855-.179,9.7-.275,14.551-.1,4.892-.28,9.8.036,14.679.535,8.245-.01,16.491.351,24.723a48.431,48.431,0,0,0,1.221,7.814,97.181,97.181,0,0,0,3.206,11.246,53.765,53.765,0,0,0,3.427,7.635c.234.446,97.934,21.439,98.318,20.61A2.335,2.335,0,0,1,135.715,179c1.152-.4,1.293-1.166,1.268-2.171-.048-1.89.03-3.784-.028-5.673-.044-1.457-.52-2.965-.256-4.354a17.329,17.329,0,0,0,.2-5.539c-.431-3.191.02-6.386-.341-9.541-.213-1.856-.159-3.7-.3-5.54a52.278,52.278,0,0,0-.7-6.06c-.569-2.916-.935-5.91-2.1-8.66a8.1,8.1,0,0,0-2.592-2.919,19.2,19.2,0,0,0-6.806-3,14.821,14.821,0,0,0-2.431-.366,40.57,40.57,0,0,1-4.16-.371c-2.314-.474-4.709-.332-6.995-.961a4.011,4.011,0,0,0-.859-.011,36.511,36.511,0,0,1-11.529-2.068,25.021,25.021,0,0,1-7.167-3.856,17,17,0,0,1-5.224-7.584,24.766,24.766,0,0,1-1.213-5.378c-.205-1.689-.123-3.37-.291-5.041-.735-7.289-.138-14.593-.307-21.888a20.869,20.869,0,0,1,.345-3.7c.129-.822-.518-.964-.983-1.185a2.719,2.719,0,0,0-1.192-.027c-3.209.157-5.738-1.228-8.173-3.093A21.428,21.428,0,0,1,69.3,65.181c-1.353-1.938-2.669-4.024-2.944-6.3-.461-3.79-.316-7.6,2.25-10.906a21.028,21.028,0,0,1,7.877-6.525,14.862,14.862,0,0,1,5.961-1.394c.7-.008,1.457-.429,2.088-.275,1.813.443,3.649-.482,5.454.27A23.247,23.247,0,0,1,94.841,42.4a15.637,15.637,0,0,1,4.195,4.362,20.558,20.558,0,0,1,2.637,6.107,15.691,15.691,0,0,1,.037,8.669,14.879,14.879,0,0,1-3.417,5.472,23.556,23.556,0,0,1-5.581,4.317,24.538,24.538,0,0,1-3.863,1.434c-.453.156-.941.217-1.405.344a1.522,1.522,0,0,0-1.192,1.523A70.307,70.307,0,0,0,86,87.173c.272,3.966.039,7.93.316,11.877.283,4.036.679,8.1,2.4,11.872a14.832,14.832,0,0,0,2.16,3.462,16.059,16.059,0,0,0,6.849,4.5,35.519,35.519,0,0,0,7.783,1.98c1.744.234,3.473.511,5.234.663,2.227.193,4.421.766,6.647.914a7.925,7.925,0,0,0,3.749-.176c1.613-.626,3.528-.028,5.173.6a30.83,30.83,0,0,1,4.686,2.33,9.608,9.608,0,0,1,2.392,2.049,21.34,21.34,0,0,1,4.938,9.188c.249,1.15.186,2.361.379,3.526.419,2.5.049,5.058.4,7.529.387,2.7.12,5.369.27,8.048a40.228,40.228,0,0,1,.28,6.862c-.492,4.136-.1,8.257-.275,12.384-.01.222-.011.445,0,.667.052,1.009.154,1,1.143.524a40.963,40.963,0,0,1,7.444-2.743c.986-.26,1.987-.476,2.99-.666a.868.868,0,0,0,.836-.995c-.01-.222,0-.444,0-.667,0-17.688.288-35.376-.1-53.056-.267-12.194.031-24.384-.305-36.569a44.457,44.457,0,0,1-.241-6.2c.439-3.85.207-7.7.315-11.546.016-.568.284-1.128.314-1.7a1.357,1.357,0,0,0-1.275-1.408,35.368,35.368,0,0,1-11.249-3.54A23.81,23.81,0,0,1,126.8,43.48a24.125,24.125,0,0,1-1.19-4.186,17.369,17.369,0,0,1,.934-9.012c.084-.235.132-.634,0-.764-1.194-1.159-.257-2.4.168-3.285,1.8-3.725,3.726-7.412,7-10.215a26.705,26.705,0,0,1,8.006-4.667,43.636,43.636,0,0,1,5.812-1.745,2.017,2.017,0,0,1,1.677.034,2.961,2.961,0,0,0,1.348.057,24.555,24.555,0,0,1,6.79.649,12.86,12.86,0,0,0,2.783.342,10.057,10.057,0,0,1,6.021,2.431,48.649,48.649,0,0,1,5.327,4.843,27.328,27.328,0,0,1,4.847,7.718,21.285,21.285,0,0,1,1.614,5.342,48.228,48.228,0,0,1,.359,7.861,13.566,13.566,0,0,1-.977,3.258,24.844,24.844,0,0,1-4.252,8.123,25.06,25.06,0,0,1-8.227,7.2,79.96,79.96,0,0,1-8.314,3.548,2.071,2.071,0,0,1-.655.079c-.626.022-1.655-.172-1.8.088a4.62,4.62,0,0,0-.2,2.076c-.012,4,.174,8.018-.04,12.011-.626,11.688-.488,23.388-.205,35.066.244,10.081.122,20.155.218,30.231s.018,20.133.024,30.2c0,1.443.018,1.408,1.553,1.467a51.481,51.481,0,0,1,6.056.374c1.608.254,3.378.293,4.657,1.6.267.274.767.33,1.156.5,2.372,1.006,2.437.968,2.437-1.505,0-4.283.252-8.583-.071-12.843a99.1,99.1,0,0,1-.222-12.545c.624-12.08.077-24.16.3-36.238.027-1.457.2-2.913.341-4.366.055-.575-.178-.618-.726-.77a20.6,20.6,0,0,1-4.616-1.674,14.032,14.032,0,0,1-7.1-9.086,15.811,15.811,0,0,1,.45-8.9,11.365,11.365,0,0,1,4.129-5.717,29.983,29.983,0,0,1,8.693-3.907,2.648,2.648,0,0,1,1.02-.031c3.579.32,7.087.767,10.111,2.976a11.7,11.7,0,0,1,4.974,8.05,18.679,18.679,0,0,1,.281,3.706,15.2,15.2,0,0,1-3.833,9.793A17.4,17.4,0,0,1,176.9,106a9.805,9.805,0,0,1-2.9.465c-1.242.084-1.243.033-1.174,1.373.014.277,0,.556,0,.834,0,4.783.161,9.573-.064,14.346-.122,2.624-.048,5.27-.359,7.865-.2,1.692,0,3.4-.309,5.035-.394,2.075-.011,4.176-.356,6.2-.5,2.913-.185,5.812-.276,8.714a57.767,57.767,0,0,0,.023,7.338c.576,5.961.176,11.925.278,17.886a1.922,1.922,0,0,0,.885,1.487c.779.7,1.605,1.345,2.409,2.012.126.105.245.22.367.33a2.838,2.838,0,0,0,.153-.6c.019-.612.012-1.225.005-1.835a22.88,22.88,0,0,1,1.055-6.088,26.485,26.485,0,0,1,2.407-6.539,7.2,7.2,0,0,1,1.268-1.655,36.752,36.752,0,0,1,4.012-3.521,20.23,20.23,0,0,1,7.286-3.087,34.989,34.989,0,0,1,7.67-1.039,8.969,8.969,0,0,0,2.265-.335.848.848,0,0,0,.567-1.2c-.595-1.328-.251-2.7-.305-4.043a48.432,48.432,0,0,1,.015-5,5.208,5.208,0,0,1,.7-2.537c1.512-2.205,3.669-2.263,5.1.047a16.136,16.136,0,0,1,1.795,5.454,33.282,33.282,0,0,1,.3,6.208c.009.831.119.651.922.506a26.771,26.771,0,0,0,7.086-2.418,16.032,16.032,0,0,0,8.509-10.286c.512-1.718.409-3.6.762-5.379.4-2.012.034-4.066.379-6.03a31.55,31.55,0,0,0,.192-8.539c-.335-3.419-.081-6.814-.251-10.215-.012-.222-.007-.445,0-.667.048-1.593.048-1.6-1.443-1.593a14.408,14.408,0,0,1-5.374-1.141,20.372,20.372,0,0,1-8.273-5.635,26.025,26.025,0,0,1-3.166-5.57,19.812,19.812,0,0,1-1.707-5.978,28.272,28.272,0,0,1-.333-6.027,22.109,22.109,0,0,1,2.054-7.835,12.453,12.453,0,0,1,2.05-2.844,22.018,22.018,0,0,1,6.2-5.383,30.772,30.772,0,0,1,3.921-1.32,14.413,14.413,0,0,1,5.1-1c.64.008,1.281-.284,1.926-.3a27.515,27.515,0,0,1,13.154,3.095,16.729,16.729,0,0,1,5.362,4.677,17.528,17.528,0,0,1,4.088,7.511c.186.922.876,1.736.29,2.828a4.558,4.558,0,0,0-.048,2.142c.119,2.806-.893,5.378-1.788,7.964-.319.919-.969,1.729-1.3,2.646a12.466,12.466,0,0,1-3.793,5.326,20.281,20.281,0,0,0-1.686,1.629c-2.757,2.953-6.673,3.47-10.305,4.522-2.124.615-2.016.49-2.2,2.749-.377,4.681-.112,9.373-.395,14.041-.14,2.293.007,4.608-.326,6.866-.233,1.581-.064,3.163-.319,4.7-.483,2.932-.583,5.965-2.038,8.684a16.642,16.642,0,0,1-1.96,3.371,22.34,22.34,0,0,1-8.757,6.08,37.362,37.362,0,0,1-6.566,1.556c-.488.094-.574.293-.754.625-.98,1.82-2.193,2.115-4.287,1.327m-43.881,86.346c-.115-.9-.264-1.8-.338-2.7-.247-3.02-.537-6.039-.68-9.064-.22-4.675.222-9.359-.31-14.044-.27-2.373.151-4.8.217-7.2a68.945,68.945,0,0,0-.213-11.71,12.271,12.271,0,0,0-1.457-4.6c-1.513-2.566-4.074-2.476-5.914-.067-1.219,1.6-1.286,3.429-1.6,5.2a47.6,47.6,0,0,0-.39,5.525c-.01.165.067.377-.012.492-.632.908-.213,1.917-.332,2.872a25.152,25.152,0,0,0-.332,3.032q-.031,24.185-.015,48.369c0,.335.017.671,0,1-.072,1.2-.973,1.8-2.051,1.213a5.212,5.212,0,0,1-1.719-1.6c-1.666-2.434-3.185-4.961-4.88-7.377-1.324-1.886-2.762-3.7-4.267-5.458a18.788,18.788,0,0,0-3.4-3.259c-1.651-1.146-2.828-.27-3.374,1.28-.729,2.071-.269,4.113.119,6.059a38.2,38.2,0,0,0,2.359,6.709c.562,1.383,1.526,2.628,2,4.031a72.146,72.146,0,0,0,3.2,6.891c1.151,2.493,2.82,4.757,4.141,7.183,2.781,5.108,5.445,10.275,8.241,15.374a17.015,17.015,0,0,0,2.782,3.868,36.715,36.715,0,0,0,3.907,2.882,6.068,6.068,0,0,1,2.289,7.14,1.3,1.3,0,0,0,.741,1.525,13.685,13.685,0,0,0,1.926.322c2.081.078,4.155.107,6.24.275a59.994,59.994,0,0,0,7.435-.262c.057,0,.126.022.171,0,1.05-.606,2.2-.225,3.305-.33,1.16-.11,2.317-.3,3.479-.319,2.584-.048,5.171-.025,7.754-.007.536,0,1.124,0,1.3-.526a15.764,15.764,0,0,0,.7-2.888,23.2,23.2,0,0,1,1.709-6.157c1.272-2.937,2.438-5.927,3.452-8.955,1.052-3.149,1.933-6.354,2.769-9.564q1.167-4.475,2.064-9.012c.362-1.829.4-3.716.734-5.553a37.148,37.148,0,0,0,.671-6.733c-.005-1.278-.057-2.56.012-3.836a12.623,12.623,0,0,0-1.081-6.075c-1.3-2.79-2.773-5.441-6.355-6.215a2.613,2.613,0,0,0-2.465.547,9.97,9.97,0,0,0-2.133,2.47c-.343.587-.692.918-1.257.718a2.458,2.458,0,0,1-1.181-.985c-.645-1.063-1.076-2.256-1.771-3.282-.89-1.315-1.919-2.506-3.852-2.389a5.5,5.5,0,0,0-5.049,3.768,1.093,1.093,0,0,1-1.278.929c-1.192,0-1.433-.184-1.876-1.355a30.6,30.6,0,0,0-1.486-3.572,5.766,5.766,0,0,0-3.814-3.06,4.5,4.5,0,0,0-4.212,1.355,11.8,11.8,0,0,0-2.549,7.315,2.6,2.6,0,0,1-.03,1.153,2.148,2.148,0,0,1-1.035,1.1c-.4.115-.671-.394-.68-.914-.007-.4-.21-.8-.323-1.53M130.417,185.4c.337-.594,3.763-4.671,4.166-5.222.419-.517-98.358-20.937-98.318-20.61a21.928,21.928,0,0,0,2.738,3.1c.954.838,1.928,1.661,2.9,2.479a40.068,40.068,0,0,0,11.086,6.7,41.455,41.455,0,0,0,10.046,2.686c2.591.325,5.2.563,7.812.661,2.736.1,5.443.382,8.161.662,2.521.26,5.072.265,7.609.359.975.037,1.954-.017,2.929.01,3.686.1,7.372.218,11.059.33a3.546,3.546,0,0,1,.516,0c2.338.439,4.662.973,7.015,1.313a43.732,43.732,0,0,1,11.817,3.8,81.656,81.656,0,0,1,7.375,4.108,10.5,10.5,0,0,1,1.621,1.455c.431-.556.863-1.113,1.467-1.835m50.692,16.352a13.269,13.269,0,0,0,.321-2.2c-.021-1.068-.3-2.133-.3-3.2a19.514,19.514,0,0,0-2.455-8.531,23.069,23.069,0,0,0-8.393-9.614c-2.392-1.522-5.235-2.084-7.6-3.619-.12-.078-.331-.032-.5-.035-1.454-.025-2.9-.168-4.345-.27a26.183,26.183,0,0,0-8.509.581,34.872,34.872,0,0,0-6.91,2.386,25.921,25.921,0,0,0-6.4,4.724c-1.566,1.52-2.334,3.507-3.4,5.318a22.333,22.333,0,0,0-2.9,10.185c-.037.633-.262,1.257-.259,1.886a11.852,11.852,0,0,0,.272,2.007c.175.983.321,1.975.581,2.937a41.959,41.959,0,0,0,3.175,7.572,17.291,17.291,0,0,0,7.256,7.156c1.86,1.08,3.93,1.817,5.879,2.76.565.272.693.158.695-.391.006-1.684.163-3.359.281-5.037.3-4.225.272-8.47.416-12.7.049-1.457.177-2.917.353-4.365a13.209,13.209,0,0,1,.56-2.106,15.142,15.142,0,0,1,2-3.716,3.738,3.738,0,0,1,4.035-1.9A6.307,6.307,0,0,1,160,194.659a14.8,14.8,0,0,1,1.425,5.43c.352,2.226.55,4.479.7,6.728.182,2.675.275,5.356.35,8.036.052,1.834.01,3.671.01,5.506,0,2.473,0,2.468,2.515,1.654a25.54,25.54,0,0,0,9.495-5.575,18.456,18.456,0,0,0,5.224-8.9c.5-1.809.926-3.634,1.386-5.784M302.837,64.263a23.777,23.777,0,0,0,3.19-6.732c.422-1.582.629-3.22,1.048-4.762.643-2.36.14-4.66.045-6.918a17.338,17.338,0,0,0-2.321-7.025,23.527,23.527,0,0,0-7.531-8.615,24.87,24.87,0,0,0-6.5-3.328,36.122,36.122,0,0,0-6.072-1.553,4.288,4.288,0,0,1-2.823-1.031,2.022,2.022,0,0,0-2.061-.693,35.534,35.534,0,0,0-5.385.787,29.611,29.611,0,0,0-7.328,3.018,32.008,32.008,0,0,0-5.316,4.491,19.659,19.659,0,0,0-3.752,5.173c-.972,1.822-1.635,3.8-2.607,5.622-1.136,2.13-1.1,4.468-1.526,6.723-.1.528.312,1.129.293,1.69a17.727,17.727,0,0,0,1.074,5.919,13.685,13.685,0,0,0,3.114,5.919c2.09,2.066,4.154,4.164,6.359,6.11a14.644,14.644,0,0,0,4.021,2.655,39.929,39.929,0,0,0,5.952,1.84c2.226.522,4.485.363,6.671.874a7.964,7.964,0,0,0,2.605.3c.626-.069,1.042.393,1.822.149,1.516-.474,3.048-.953,4.583-1.374,3.7-1.014,6.436-3.422,9.309-5.617a24.8,24.8,0,0,0,3.133-3.622M47.482,10.035c-1.293-1.14-2.612-2.256-3.876-3.427-3.122-2.892-7.072-4.029-11.153-4.5-2.659-.309-5.412.141-8.122.26a2.3,2.3,0,0,0-.454.143A24.07,24.07,0,0,0,16.1,5.691c-1.986,1.392-4.294,2.489-5.907,4.2-1.772,1.883-3.51,3.87-4.1,6.683-.483,2.3-1.4,4.543-1.94,6.882A35.859,35.859,0,0,0,3.19,30.9a21.041,21.041,0,0,0,.319,2.364,14.894,14.894,0,0,0,1.629,5.854,57.2,57.2,0,0,0,3.315,5.5,13.966,13.966,0,0,0,2.885,2.814A41.32,41.32,0,0,0,16,50.619,26.687,26.687,0,0,0,23.77,53.4a35.266,35.266,0,0,0,7.611.335,7.026,7.026,0,0,0,1.248-.293,23.484,23.484,0,0,0,6.337-2.507A21.153,21.153,0,0,0,44.729,46.7c1.472-1.593,2.823-3.295,4.15-5a31.875,31.875,0,0,0,3.2-4.555,31.082,31.082,0,0,0,1.682-4.827,13.578,13.578,0,0,0,.4-7.049,41.8,41.8,0,0,0-1.716-5.813,25.353,25.353,0,0,0-2.382-5.385c-.835-1.272-1.615-2.577-2.592-4.034m115.869,3.336a27.161,27.161,0,0,0-4.565-1.077,55.772,55.772,0,0,0-5.756-.6c-1.264.024-2.532-.053-3.792.023a14.545,14.545,0,0,0-2.905.453,25.687,25.687,0,0,0-6.868,3.284,25,25,0,0,0-6.266,5.415c-.634.783-1.577,1.61-1.649,2.473a13.167,13.167,0,0,1-1.116,3.42,27.946,27.946,0,0,0-1.767,9.815,19.086,19.086,0,0,0,2.69,9.95,17.821,17.821,0,0,0,4.845,5.161,36.147,36.147,0,0,0,11.795,5.445c2.033.562,4.254.629,6.083,1.912a2.2,2.2,0,0,0,1.682.006c2.74-.977,5.725-1.392,8.124-3.166a33.845,33.845,0,0,0,5.005-3.936,32.9,32.9,0,0,0,4.5-5.84,21.914,21.914,0,0,0,3.224-10.72,10.828,10.828,0,0,0-.324-1.7,33.131,33.131,0,0,0-.731-4.717,26.655,26.655,0,0,0-6.12-10.725,39.51,39.51,0,0,0-6.086-4.884M290.941,191.243a21.164,21.164,0,0,0-6.074,5.139,32.7,32.7,0,0,0-6.033,11.942,6.166,6.166,0,0,0-.4,2.962c.181.808.157,1.593.269,2.381a17.291,17.291,0,0,1,.571,4.066c-.141,1.33,1.26,2.706-.126,3.971-.042.037.183.3.231.477a16.025,16.025,0,0,0,3.964,6.416,34.886,34.886,0,0,0,5.926,5.076,22.649,22.649,0,0,0,5.807,2.936,29.707,29.707,0,0,0,11,1.708,12.716,12.716,0,0,0,5.712-1.174,1.762,1.762,0,0,1,.61-.179c3.978-.522,7.084-2.691,9.766-5.3a44.047,44.047,0,0,0,4.909-6.349,20.435,20.435,0,0,0,2.869-4.845,47.241,47.241,0,0,0,1.583-6.227,18.234,18.234,0,0,0,.164-6.366,30.375,30.375,0,0,0-2.242-7.584,21.211,21.211,0,0,0-4.3-6.612c-.735-.734-1.614-1.333-2.4-2.019a20.443,20.443,0,0,0-7.05-4.472c-2.124-.681-4.253-1.36-6.413-1.921a5.062,5.062,0,0,0-2.4,0,61.08,61.08,0,0,0-6.112,1.822c-3.274,1.206-6.69,2.106-9.842,4.155m-77.417-89.936a22.364,22.364,0,0,0,8,5.072,18.116,18.116,0,0,0,8.283.7,33.436,33.436,0,0,0,6.861-1.651c.952-.3,2.076-.078,2.885-.919,1.245-1.3,2.7-2.416,3.838-3.789a22.862,22.862,0,0,0,4.162-6.994,13.79,13.79,0,0,0,1.09-3.88c.084-2.617-.133-5.246-.308-7.866a15.693,15.693,0,0,0-.569-2.6c-.509-2.076-2.012-3.593-3.321-5.162-2.386-2.86-5.709-4.265-9.333-5.139a16.864,16.864,0,0,0-4.2-.666c-.928.012-1.869-.338-2.784-.276-1.18.08-2.333.461-3.51.623a17.624,17.624,0,0,0-8.78,3.644,17.937,17.937,0,0,0-6.748,13.287,39.368,39.368,0,0,0,.322,6.029,9.58,9.58,0,0,0,.542,2.113,30.8,30.8,0,0,0,3.578,7.475M70.244,49.083a10.457,10.457,0,0,0-1.765,9.923,18.56,18.56,0,0,0,7.956,10.435A7.219,7.219,0,0,0,78.052,70.5a20.831,20.831,0,0,0,7,.954,13.322,13.322,0,0,0,6.5-1.73,18.79,18.79,0,0,0,6.567-5.555,12.36,12.36,0,0,0,2.3-6.252,13.888,13.888,0,0,0-1.039-5.754,16.753,16.753,0,0,0-7.324-9.356c-2.18-1.274-4.64-1.15-6.992-1.334a15.1,15.1,0,0,0-5.938.949c-3.631,1.232-6.768,3.121-8.879,6.664M176.8,80.121c-.662-.2-1.322-.4-1.988-.587-2.952-.842-3.389-.855-5.763-.074-.551.181-1.075.438-1.611.661a14.751,14.751,0,0,0-6.321,4.685,10.885,10.885,0,0,0-1.8,4.791,13.074,13.074,0,0,0,.31,6.3,12.3,12.3,0,0,0,5.759,7.121,12.014,12.014,0,0,0,8.07,1.847,14.248,14.248,0,0,0,5.669-2.066,13.445,13.445,0,0,0,4.754-4.847c1.028-1.882,1.15-3.986,1.69-5.987a.729.729,0,0,0-.219-.558,11.515,11.515,0,0,1-2.49-4.669c-.731-2.318-1.733-4.353-4.145-5.464-.581-.268-1.05-.767-1.916-1.16M203.179,180.4a3.951,3.951,0,0,1-.252.9,6.981,6.981,0,0,0-.754,4.352c.112.866.3,1.9,1.291,2.221a1.932,1.932,0,0,0,2.146-.514,14.743,14.743,0,0,0,2.012-3.186,42.279,42.279,0,0,0,1.736-5.468,14.38,14.38,0,0,0,.348-3.188c.017-.617-.321-1.245-.3-1.861a2.973,2.973,0,0,0-1.3-2.486,1.62,1.62,0,0,0-1.857-.072c-.467.223-.945.325-1.036,1.06a29.139,29.139,0,0,1-2.036,8.246m-12.242,10.512c-1.043-.112-2.083-.293-3.126-.31-.754-.012-1.509.245-2.267.3a19.286,19.286,0,0,1-2.407,0c-.531-.027-.757.155-.643.646a12.014,12.014,0,0,1,.633,2.722c-.017,1.016.459,1.034,1.2.986,2.359-.155,4.726.238,7.093-.293a6.893,6.893,0,0,0,3.028-1.014c.573-.444.955-.929.75-1.512a2.057,2.057,0,0,0-1.152-1.146,16.3,16.3,0,0,0-3.112-.377M203.18,148.36c.229,2.017.505,4.03.666,6.051a1.477,1.477,0,0,0,1.09,1.443,2.007,2.007,0,0,0,2.054-.79,2.841,2.841,0,0,0,.671-2.23,38.733,38.733,0,0,1-.648-4.386,22.214,22.214,0,0,0-1.081-4.577c-.15-.618-.541-1.244-1.178-1.257-.286-.005-.674.738-.867,1.2a10.279,10.279,0,0,0-.705,4.546M34.379,55.086a2.077,2.077,0,0,0-1.869,2.175c-.2,2.273-.288,4.558-.353,6.84a6.11,6.11,0,0,0,.335,1.852,1.822,1.822,0,0,0,1.685,1.341c1.289-.178,1.749-.666,1.751-1.869,0-1.108-.037-2.217.008-3.324.087-2.115.214-4.23.343-6.343.026-.437.133-.869.2-1.3-.432.172-.861.349-1.3.513a2.95,2.95,0,0,1-.809.119M118.52,191.241a14.166,14.166,0,0,0-2.074.377,1.674,1.674,0,0,0-.838.8,2.021,2.021,0,0,0-.288,1.323c.074.249.713.461,1.109.479,3.311.155,6.7-.451,9.882,1.006.443.2.605-.1.684-.6a15.558,15.558,0,0,1,.823-3.32.456.456,0,0,0-.332-.689,2.605,2.605,0,0,0-1.01-.045c-1.9.1-3.8.2-5.695.34-.644.047-1.279.212-2.263.324m26.036,64.574a2.176,2.176,0,0,1-.242-.237c-1.467-1.97-2.924-3.945-4.4-5.91-.1-.126-.316-.168-.479-.247.005.15-.05.342.025.444.416.562.914,1.073,1.292,1.657,1.744,2.688,3.452,5.4,5.192,8.089.1.16.366.22.554.327.042-.15.168-.347.112-.442-.671-1.126-1.366-2.236-2.056-3.683M63.69,176.558c.845,0,1.689.008,2.533-.008.126,0,.248-.12.371-.184-.092-.048-.187-.14-.277-.135a11.888,11.888,0,0,0-2.628.327m4.655.168c-.36-.055-.72-.122-1.083-.158-.084-.008-.179.084-.269.132a1.149,1.149,0,0,0,.356.185,2.033,2.033,0,0,0,1-.158m137.592-7.342c.183.045.364.093.548.128a2.107,2.107,0,0,0,.06-.207.856.856,0,0,0-.609.078m.69-12.014-.207-.133c.009.1.023.2.207.132Z" transform="translate(0 0)"></path><path class="h" d="M916.084,665.647a4.506,4.506,0,0,1-1.817-3.9,4.66,4.66,0,0,1,3.735-3.7,3.241,3.241,0,0,1,2.8,1.5,3.953,3.953,0,0,1,.3,5.111c-1.15,1.321-2.524,1.844-5.015.982m2.672-1.417a1.6,1.6,0,0,1,.271-.164,1.511,1.511,0,0,0,1.063-1.886,3.631,3.631,0,0,0-1.25-2.064c-1.037-.638-2.774.668-2.843,1.97C915.916,663.624,916.766,664.384,918.756,664.228Z" transform="translate(-756.614 -548.239)"></path><path class="h" d="M1565.269,233.969c0,4.279.01,8.392-.007,12.5a8.951,8.951,0,0,1-.926,3.963,2.062,2.062,0,0,1-2.059,1.224c-3.167.1-6.359.025-9.5.373-5.183.574-10.362.135-15.54.267a5.672,5.672,0,0,1-3.666-1.086,3.491,3.491,0,0,1-1.375-2.947c.007-2.622.158-5.245.329-7.863a27.957,27.957,0,0,1,.509-2.787.55.55,0,0,0-.183-.461c-1.576-1.014-1.135-2.6-.971-3.921.172-1.4,1.674-1.765,2.845-2.267a15.441,15.441,0,0,1,6.633-1.029c3.558.091,7.121-.019,10.681.037,3.228.051,6.452.2,9.677.326a3.479,3.479,0,0,1,3.2,2.305,10.334,10.334,0,0,1,.348,1.361m-5,14.016c-.845-.707-1.73-1.376-2.528-2.128a19.171,19.171,0,0,1-3.917-4.422c-.28-.5-.721-.693-1.19-.091a3,3,0,0,1-.853.815,7.067,7.067,0,0,1-2.436,1.1c-1.869.178-3.823.306-5.288-1.273a.729.729,0,0,0-.457-.119c-.277-.011-.674-.1-.814.042-2.581,2.562-5.133,5.151-7.683,7.743-.276.281-.354.563.19.671a18.523,18.523,0,0,0,3.33.629c3.109.021,6.214,0,9.331-.236,4.7-.355,9.426-.286,14.142-.4a1.423,1.423,0,0,0,.343-.006,2.981,2.981,0,0,0,.419-.189,1.7,1.7,0,0,0-.308-.464c-.689-.517-1.4-1.008-2.278-1.677M1536.3,232.466c-.9.749.053,1.114.424,1.371,3.359,2.321,6.778,4.562,10.144,6.874a2.717,2.717,0,0,0,3.174.15,35.586,35.586,0,0,0,5.4-3.887c1.629-1.4,3.3-2.755,4.949-4.133.129-.109.245-.235.365-.353a2.611,2.611,0,0,0-.562-.183c-1.329-.123-2.658-.291-3.993-.328-3.973-.111-7.944.013-11.925-.269a39.015,39.015,0,0,0-7.98.758m27.245,2c-.377-.944-.381-.948-1.114-.254a17.528,17.528,0,0,1-1.844,1.739c-1.711,1.194-3.492,2.291-5.23,3.447-.4.265-.591.529-.157,1.053a30.954,30.954,0,0,0,2,2.835c1.71,1.63,3.59,3.095,5.407,4.619a4.956,4.956,0,0,0,.683.41,3.383,3.383,0,0,0,.24-.855c.015-4.22.011-8.44.011-12.993m-26.725,1.835a2.4,2.4,0,0,0-.369-.349c-.348-.21-.713-.4-1.073-.592a5.224,5.224,0,0,0-.44,1.154,23.077,23.077,0,0,1-.414,3.682c-.329,1.09,0,2.215-.342,3.2-.536,1.529-.121,3.043-.283,4.551a.425.425,0,0,0,.226.35.549.549,0,0,0,.438-.146c2.121-2.259,4.2-4.555,6.355-6.786,1.472-1.526,1.517-1.488-.288-2.7-.079-.053-.251.02-.325-.035a32.461,32.461,0,0,0-3.491-2.328Z" transform="translate(-1267.603 -191.564)"></path><path class="h" d="M785.05,177.356c-.712-.078-1.257-.145-1.794-.237a2.764,2.764,0,0,1-2.312-2.837c-.223-2.613-.333-5.239-.339-7.861a10.379,10.379,0,0,1,.662-2.888,3.863,3.863,0,0,1,3.86-2.858c3.043-.015,6.086.013,9.129-.022a5.9,5.9,0,0,0,1.38-.38,4.458,4.458,0,0,1,1.09-.258c3.33-.02,6.664-.086,9.99.018a29.033,29.033,0,0,1,5.391.673c2.1.469,2.9,1.737,2.953,3.868.074,2.955.251,5.91.315,8.864a7.446,7.446,0,0,1-.351,2.354c-.251.805-1.173,1.055-1.849,1.147-1.062.145-1.257.6-1.254,1.5a10.169,10.169,0,0,1-.335,2.359c-.141.6-1.425,1.03-2.065.7a7.736,7.736,0,0,1-1.322-.934c-.98-.81-1.886-1.719-2.919-2.454a6.384,6.384,0,0,0-5.465-.87,5.65,5.65,0,0,1-1.329.114c-4.421.008-8.844,0-13.436,0m23.966-15.017h-9.828a3.781,3.781,0,0,0-1.2.018,12.74,12.74,0,0,1-6.057.217,48.3,48.3,0,0,0-6.423-.184,2.343,2.343,0,0,0-2.389,1.946c-.76,3.034-.482,6.1-.406,9.144.021.833.241,2.17,1.8,2.221,1.679.053,3.353.273,5.03.306,2.758.054,5.517.015,8.276.015a2.859,2.859,0,0,0,1.027-.018c1.593-.676,3.248-.228,4.866-.273a3.441,3.441,0,0,1,1.907.716c1.033.742,1.928,1.659,2.936,2.438a8.779,8.779,0,0,0,1.531.773c.046-.482.1-.964.135-1.446.013-.168-.057-.361.012-.5.452-.891.427-2.143,2.057-2.092a1.242,1.242,0,0,0,1.395-1.255c-.149-3.512-.22-7.027-.379-10.539-.027-.594-.231-1.187-1.155-1.182s-1.861-.2-3.136-.311Z" transform="translate(-646.013 -133.283)"></path><path class="h" d="M1688.59,1186.986c-2.069.478-3.923,1.166-5.945,1.006-1.9-.15-3.871.364-5.705-.359-2.473-.973-5.2-1.472-7.084-3.579-1.331-1.489-2.814-2.85-4.115-4.362a15.325,15.325,0,0,1-3.022-5.952c-.781-2.743-.021-5.383.459-8.047a26.657,26.657,0,0,1,2.751-6.891,12.535,12.535,0,0,1,4.9-5.166,24.61,24.61,0,0,1,7.656-3.036,3.356,3.356,0,0,0,.719-.325,7.945,7.945,0,0,1,2.808-.731,21.841,21.841,0,0,1,2.822.012,15.553,15.553,0,0,1,7.509,2.6,16.161,16.161,0,0,1,6.083,5.8,15.482,15.482,0,0,1,1.948,5.236,44.985,44.985,0,0,1,.285,5.037,17.127,17.127,0,0,1-1.6,7.527,21.562,21.562,0,0,1-5.053,7.47c-.348.327-.8.545-1.185.838-.159.12-.409.371-.369.456.655,1.432-.81,1.368-1.423,1.754a8.369,8.369,0,0,1-2.443.709m-10.345-21.525c.009-.906-.2-1.9.619-2.578,1.135-.936,1.833-2.4,3.479-2.737.141-.028.246-.223.367-.342a1.494,1.494,0,0,0-.4-.177,4.651,4.651,0,0,1-1.176-.077,1.628,1.628,0,0,1-.419-2.5c.848-1.08,2.385-1.509,2.827-3.005a8.375,8.375,0,0,1,1.234-1.954c-.9-.048-1.8-.084-2.7-.146a1.506,1.506,0,0,0-1.8,1.275,5.177,5.177,0,0,1-1.16,2.021,4.958,4.958,0,0,1-4.048,1.387c-1.423-.025-1.545.088-1.995,1.386-.084.242-.212.474-.281.719-.407,1.467-1.779,2.18-2.671,3.27a39.346,39.346,0,0,0-2.669,3.6c-.54.839-.215,1.283.788,1.365a8.961,8.961,0,0,1,1.328.122,11.375,11.375,0,0,1,5.855,3.637,4.771,4.771,0,0,1,1.414,4.418,28.231,28.231,0,0,0-1.006,6.761c.006.5.178,1.093-.038,1.48-.371.662-.133.813.461.941.255.055.485.227.74.274a1.182,1.182,0,0,0,1.445-.559,2.977,2.977,0,0,1,4.578-.656,16.379,16.379,0,0,0,2.824,1.432.9.9,0,0,0,.581.087c1.215-.372,2.437-.742,3.633-1.173,2.979-1.071,4.6-3.506,6.1-5.97a23.175,23.175,0,0,0,2.411-6.694,15.236,15.236,0,0,0,.348-3.521,23.579,23.579,0,0,0-.327-3.2c-.069-.516-.06-1.161-.374-1.5a9.1,9.1,0,0,0-1.85-1.225c.055.484.114.966.16,1.452.017.165-.02.335.007.5.1.584-.126.832-.74.719-.519-.1-1.3-.44-1.509-.235-.641.619.44.88.587,1.446a8.246,8.246,0,0,1-.545,6.047,41.986,41.986,0,0,0-2.68,6.1,6.02,6.02,0,0,1-3.7,4.141c-2.019.721-3.488-.148-3.493-2.209v-3.834c0-2.7-1.152-4.243-3.807-5.117-2.752-.906-3.5-2.414-2.4-5.173m13.276-11.847c-1.364-.442-2.421-1.567-3.936-1.667-.276-.018-.808-.708-.728.262.031.356-.048.545-.483.823a6.3,6.3,0,0,0-1.567,1.992c-.5.762-.88,1.575-1.841,1.948a2.957,2.957,0,0,0-.872.771,2.793,2.793,0,0,0-.309.466,3.2,3.2,0,0,0,.485.075c1.378.005,2.764-.09,4.131.034a12.158,12.158,0,0,1,3.114.751,1.09,1.09,0,0,1,.788,1.31c-.188.569-.7.6-1.248.587-1.205-.027-2.414.052-3.616-.022-2.169-.134-3.662.99-4.988,2.416a2.45,2.45,0,0,0-.467,1.136c-.158.723-.186,1.475-.377,2.187-.117.437-.643.823-.133,1.286a4.149,4.149,0,0,0,1.3.973c3.06,1.026,5.08,2.766,5.107,6.172a8.28,8.28,0,0,1-.007,1.73,9.945,9.945,0,0,0-.024,2.658c.1,1.132.671,1.4,1.767.917a4.033,4.033,0,0,0,2.344-2.531,21.55,21.55,0,0,1,2.069-5.506,7.623,7.623,0,0,0,.9-1.8,8.611,8.611,0,0,0,.721-3.147,4.094,4.094,0,0,0-1.61-3.013,7.058,7.058,0,0,1-1.352-1.612,1.207,1.207,0,0,1,.017-1.672c.486-.419,1.1-.238,1.629.242a4.282,4.282,0,0,0,1.509.88c.379.124,1.1.344.67-.684-.222-.539.231-1.265.972-1.64s1.143.05,1.623.419a2.182,2.182,0,0,0,.362.183c.015-.15.1-.342.036-.444a16.518,16.518,0,0,0-1.844-2.75c-1.229-1.273-2.638-2.383-4.143-3.728m-25.346,10.846c.283-.385.557-.779.854-1.156.764-.973,1.341-2.263,2.352-2.833,1.748-.985,2.166-2.589,2.586-4.141.262-.969.871-1.135,1.548-1.355a3.165,3.165,0,0,1,1.367-.015,3.521,3.521,0,0,0,3.907-2.054,1.408,1.408,0,0,0,.036-.564,1.191,1.191,0,0,0-.461,0,10.443,10.443,0,0,1-1.122.591,19.709,19.709,0,0,0-6.164,2.952,12.724,12.724,0,0,0-4.085,5.229c-.828,1.982-2.189,3.914-1.852,6.254-.762.707-.057.964.441,1.174,2.255.936,3.563,2.439,3.366,4.937a1.4,1.4,0,0,0,.252.888c.526.69,1.178,1.295,1.674,2a6.663,6.663,0,0,1,1.551,2.716,8.493,8.493,0,0,0,1.012,2.413c.167.323.545.545.829.814a3.786,3.786,0,0,1-.145-.944c.074-.789.2-1.577.335-2.359.178-1.036.381-2.067.581-3.1.036-.187.214-2.6.176-2.706-.805-2.187-2.647-3.351-4.682-4.2a10.682,10.682,0,0,0-3.315-.666c-.71-.052-1.279-.524-1.3-.859-.057-.88-.449-1.856.262-3.015m-.862,5.84c-.174,0-.29-.671-.517-.042a4.9,4.9,0,0,0-.042,2.054,10.263,10.263,0,0,0,1.458,4.418c1.679,2.98,4.23,5.3,6.733,7.628.084.077.177.234.24.222a1.594,1.594,0,0,0,.692-.255c.064-.053-.05-.49-.179-.547a4.438,4.438,0,0,1-2.37-3.2,10.5,10.5,0,0,0-2.956-4.635,2.935,2.935,0,0,1-1.158-2.7c.223-1.4-.435-2.269-1.9-2.943m14.656,14.183c0,.055-.024.142,0,.162a4.574,4.574,0,0,0,2.862.664c.073,0,.143-.119.214-.182-.081-.078-.16-.157-.243-.234-.767-.729-1.74-.566-2.842-.41Z" transform="translate(-1375.753 -957.699)"></path><path class="h" d="M449.59,310.784a2.6,2.6,0,0,0-2.586-1.1c-.851.087-1.721-.015-2.58.023-2.947.13-5.1-1.028-6.264-3.68a14.885,14.885,0,0,1-.97-1.785c-.516-1.714.282-2.962,1.219-4.1a8.456,8.456,0,0,1,4.665-2.673,10.564,10.564,0,0,1,5.821.3,6.136,6.136,0,0,0,.581.248,7.89,7.89,0,0,1,4.677,3.829,4.644,4.644,0,0,1-.687,5.986,5.307,5.307,0,0,0-1.4,2.451c-.329,1.306-1.094,1.453-2.473.5m-5.259-10.762a6.269,6.269,0,0,0-3.808,2.347c-.745.811-1.225,1.97-.766,2.778a8.889,8.889,0,0,0,2.83,2.836,4.82,4.82,0,0,0,3.923.3,3.077,3.077,0,0,1,3.621,1.043c.526.6.874.13.888-.206.042-.982.77-1.482,1.291-2.162,1.231-1.606,1.777-2.709.466-4.4a9.759,9.759,0,0,0-2.041-1.973,6.633,6.633,0,0,0-6.406-.558Z" transform="translate(-361.675 -247.605)"></path><path class="h" d="M822.933,202.491c-2.087,1.254-3.758.885-4.553-.9a2.631,2.631,0,0,1,.461-2.819,2.047,2.047,0,0,1,2.2-.854,3.03,3.03,0,0,1,1.981,4.163,2.468,2.468,0,0,1-.091.413m-3.018-1.752a.8.8,0,0,0,1.115.791c.285-.093.662-.773.559-.955a2.041,2.041,0,0,0-1.143-.962c-.678-.151-.644.5-.53,1.124Z" transform="translate(-677.085 -164.841)"></path><path class="h" d="M865.221,199.766a7.556,7.556,0,0,1,1.5,1.3,2.347,2.347,0,0,1-.461,3.527,3.419,3.419,0,0,1-3.262-.475c-1.166-1.238-1.183-2.073-.407-3.281a2.308,2.308,0,0,1,2.625-1.073m-1.034,3.5c.685.377,1.155.181,1.371-.528.117-.384-.619-1.348-1.006-1.293-.735.1-.758.671-.7,1.231a1.454,1.454,0,0,0,.344.59Z" transform="translate(-713.427 -166.371)"></path><path class="h" d="M909.386,204.911c-1.4-.778-1.818-1.635-1.421-2.8a3.575,3.575,0,0,1,3.34-2.126,2.562,2.562,0,0,1,1.574,3.041,3.041,3.041,0,0,1-3.494,1.882m.431-2.586c.1.408-.785.648-.2,1.152.514.441.9.12,1.317-.147.039-.026.159.006.162-.005a10.184,10.184,0,0,0,.247-1.329c.008-.1-.28-.335-.407-.318-.36.044-1-.333-1.123.645Z" transform="translate(-751.296 -166.594)"></path><path class="e" d="M59.484,259.069l.146,1.506,4.719,2.716,19.319,4.726,72.1,13.739,1.935-.881.434-1.912L59.944,257.715Z" transform="translate(-23.302 -100.957)"></path><path class="h" d="M1391.087,207.645c-.652.835-.594.928.306,1.3a4.319,4.319,0,0,1,1.235.921.635.635,0,0,1-.065.6,22.21,22.21,0,0,1-2.092,2.093c-1.394,1.147-2.849,2.222-4.287,3.316-1.326,1.009-2.666,2-3.992,3.009-.346.263-.643.6-1.005.832a.621.621,0,0,1-.593-.011c-.108-.105-.084-.406-.036-.6.436-1.763,1.706-2.983,2.857-4.263.911-1.014,1.925-1.935,2.872-2.918a.507.507,0,0,0-.119-.434,13.749,13.749,0,0,1-1.5-.323,2.157,2.157,0,0,1-1.043-.784c-.1-.16.239-.727.512-.93,1.489-1.105,3-2.182,4.543-3.214,1.062-.711,2.18-1.338,3.283-1.986a.911.911,0,0,1,.571-.132,1.009,1.009,0,0,1,.622.327c.081.122-.013.443-.129.6-.63.855-1.292,1.687-1.943,2.6m.071-1.417c.13-.2.409-.535.368-.579-.333-.367-.488.055-.711.212q-1.617,1.131-3.241,2.252c-.769.534-1.542,1.064-2.306,1.6a1.413,1.413,0,0,0-.241.3,1.287,1.287,0,0,0,.35.175c.69.107,1.383.2,2.075.289.758.1,1.057.7.55,1.289-.865,1-1.826,1.925-2.722,2.9a5.05,5.05,0,0,0-.528.876,4.955,4.955,0,0,0,.919-.446q2.906-2.229,5.778-4.5c.108-.085.138-.268.2-.406a2.634,2.634,0,0,0-.325-.139c-.36-.1-.72-.205-1.086-.283-.766-.163-1.034-.5-.694-1.137A24.652,24.652,0,0,1,1391.158,206.229Z" transform="translate(-1215.692 -120.001)"></path><g transform="translate(219.334 79.986)"><text class="i" transform="translate(4.257 9.014)"><tspan x="0" y="0">SMS</tspan></text></g><path class="j" d="M363.147,144.092s-3.388-2.994-3.073-5.121.709-4.175,3.073-5.751,7.8-3.073,10.005-1.812,4.49,4.1,4.647,5.594-.551,5.435-1.89,6.381-5.278,3.073-7.248,2.522a7.737,7.737,0,0,0-2.443-.473,4.888,4.888,0,0,1-3.072,1.339h-1.418l2.048-2.679Z" transform="translate(-141.047 -51.293)"></path></g><path class="k" d="M1591.108,524.437l-2.2,1.718.954,15.941,16.228,3.437,11.359-3.437,4.582-2.482-.955-15.178Z" transform="translate(-1576.849 -508.619)"></path></g><path class="h" d="M419.613,267.386a18.727,18.727,0,0,1-2.532-10.4c.077-1.112.312-2.227,1.636-2.64a4.173,4.173,0,0,0,.9-.554c1.979-1.261,1.963-1.245,3.661.4,1.268,1.228,2.6,2.385,3.873,3.612,1.218,1.179,1.241,1.537.1,2.63-.644.615-.664.992-.052,1.7,1.166,1.359,2.134,2.886,3.242,4.3.471.6.964,1.29,1.4-.191a1.774,1.774,0,0,1,3.186-.548c1.535,1.736,2.947,3.582,4.418,5.376a7.353,7.353,0,0,1,.981,1.153c.392.768,1.134,1.857.87,2.345a3.887,3.887,0,0,1-2.375,1.552,21.485,21.485,0,0,1-9.521-.325,11.16,11.16,0,0,1-4.825-2.579,46.016,46.016,0,0,1-4.958-5.829m1.133-2.124c2.323,3.986,5,7.5,9.917,8.542a11.62,11.62,0,0,0,6.24-.2c.747-.25,1.631-.515.578-1.616s-1.866-2.44-2.873-3.6c-.968-1.113-1.239-1.04-1.951.258-.637,1.161-1.406,1.4-2.226.627a31.1,31.1,0,0,1-5.74-7.653,1.608,1.608,0,0,1,.4-2.176c.237-.256.364-1,.187-1.189a33.143,33.143,0,0,0-2.751-2.526c-1-.852-2.186-.694-2.588.476a7.845,7.845,0,0,0-.551,3.416C419.635,261.434,420.274,263.195,420.746,265.262Z" transform="translate(455.994 -45.021)"></path><path class="h" d="M471.847,257.141c-.714-2.947-1.151-5.926-3.08-8.294a13.632,13.632,0,0,0-2.636-1.975c-.345-.254-.675-.529-1.012-.794.45-.3,1.072-.962,1.322-.843,1.229.584,2.682,1.128,3.462,2.142a15.233,15.233,0,0,1,3.411,9.6,4.234,4.234,0,0,1-.417,1.229Z" transform="translate(421.535 -39.52)"></path><path class="h" d="M464.935,259.238c.472,1.735.973,3.321,1.39,4.928.076.294-.192.677-.3,1.02-.3-.271-.722-.485-.888-.823a20.752,20.752,0,0,1-1.312-3.124,5.191,5.191,0,0,0-2.953-3.694c-.321-.134-.5-.6-.75-.914.384-.169.774-.494,1.153-.482C463.2,256.212,464.114,257.613,464.935,259.238Z" transform="translate(425.117 -47.351)"></path></g></svg>