<svg xmlns="http://www.w3.org/2000/svg" xmlns:xlink="http://www.w3.org/1999/xlink" width="76" height="76" viewBox="0 0 76 76"><defs><clipPath id="clip-path"><rect id="Rectangle_11" data-name="Rectangle 11" width="76" height="76" transform="translate(4754 1400)" fill="#bf3737" opacity="0.5"></rect></clipPath></defs><g id="Mask_Group_1" data-name="Mask Group 1" transform="translate(-4754 -1400)" clip-path="url(#clip-path)"><g id="Group_18058" data-name="Group 18058" transform="translate(3733 163)"><g id="Rectangle_10" data-name="Rectangle 10" transform="translate(886 1275)" fill="none" stroke="#eabbb5" stroke-width="4"><rect width="346" height="261" rx="14" stroke="none"></rect><rect x="2" y="2" width="342" height="257" rx="12" fill="none"></rect></g><text id="Problem_solvers_at_service" data-name="Problem solvers at service" transform="translate(916 1371)" fill="#222" font-size="24" font-family="ProximaNova-Bold, Proxima Nova" font-weight="700"><tspan x="0" y="0">Problem solvers at service</tspan></text><text id="Contact_our_support_superheroes_18_7_in_case_of_any_query_confusion_or_problem." data-name="Contact our support superheroes 18*7  in case of any query, confusion or  problem." transform="translate(916 1409)" font-size="16" font-family="ProximaNova-Regular, Proxima Nova"><tspan x="0" y="0">Contact our support superheroes 18*7 </tspan><tspan x="0" y="28">in case of any query, confusion or </tspan><tspan x="0" y="56">problem.</tspan></text><g id="Group_3" data-name="Group 3" transform="translate(3 35)"><circle id="Ellipse_1" data-name="Ellipse 1" cx="38" cy="38" r="38" transform="translate(1018 1202)" fill="#eabbb5"></circle><g id="Group_2" data-name="Group 2" transform="translate(1036 1220)"><path id="Path_2" data-name="Path 2" d="M12.52,5.852a1.27,1.27,0,0,1-1.27-1.27V1.27a1.27,1.27,0,0,1,2.539,0V4.582a1.27,1.27,0,0,1-1.269,1.27Z" transform="translate(7.794)" fill="#fff"></path><path id="Path_3" data-name="Path 3" d="M19.09,8.177a1.27,1.27,0,0,1-.9-2.168l2.343-2.343a1.273,1.273,0,0,1,1.8,1.8L19.989,7.8a1.273,1.273,0,0,1-.9.372Z" transform="translate(12.346 2.282)" fill="#fff"></path><path id="Path_4" data-name="Path 4" d="M25.125,13.789H21.813a1.27,1.27,0,1,1,0-2.539h3.313a1.27,1.27,0,0,1,0,2.539Z" transform="translate(14.232 7.794)" fill="#fff"></path><path id="Path_5" data-name="Path 5" d="M21.433,22.7a1.26,1.26,0,0,1-.9-.372L18.19,19.985a1.273,1.273,0,0,1,1.8-1.8l2.343,2.343a1.27,1.27,0,0,1-.9,2.168Z" transform="translate(12.346 12.345)" fill="#fff"></path><path id="Path_6" data-name="Path 6" d="M4.564,22.7a1.27,1.27,0,0,1-.9-2.168l2.346-2.34a1.273,1.273,0,0,1,1.8,1.8L5.463,22.331a1.266,1.266,0,0,1-.9.369Z" transform="translate(2.283 12.345)" fill="#fff"></path><path id="Path_7" data-name="Path 7" d="M4.582,13.789H1.27a1.27,1.27,0,0,1,0-2.539H4.582a1.27,1.27,0,0,1,0,2.539Z" transform="translate(0 7.794)" fill="#fff"></path><path id="Path_8" data-name="Path 8" d="M6.907,8.177a1.26,1.26,0,0,1-.9-.372L3.667,5.462a1.273,1.273,0,1,1,1.8-1.8L7.806,6.009a1.27,1.27,0,0,1-.9,2.168Z" transform="translate(2.283 2.282)" fill="#fff"></path><path id="Path_9" data-name="Path 9" d="M19.157,21v2.116a2.977,2.977,0,0,1-2.962,2.962H11.962C10.54,26.078,9,25,9,22.625V21Z" transform="translate(6.235 14.548)" fill="#fff"></path><path id="Path_10" data-name="Path 10" d="M24.315,7.64A11.851,11.851,0,1,0,9.724,26.311a5.111,5.111,0,0,1,1.93,3.233v.017a.288.288,0,0,1,.118-.017H21.929a.153.153,0,0,1,.085.017v-.017a5.646,5.646,0,0,1,2.167-3.386A11.856,11.856,0,0,0,24.315,7.64ZM23.2,17.695a1.279,1.279,0,0,1-1.27-1.27,4.652,4.652,0,0,0-4.655-4.655,1.27,1.27,0,1,1,0-2.539,7.21,7.21,0,0,1,7.194,7.194A1.279,1.279,0,0,1,23.2,17.695Z" transform="translate(3.463 3.465)" fill="#fff"></path><path id="Path_11" data-name="Path 11" d="M8.93,19.5h.118a.288.288,0,0,0-.118.017Z" transform="translate(6.186 13.509)" fill="#fff"></path><path id="Path_12" data-name="Path 12" d="M15.085,19.5v.017A.153.153,0,0,0,15,19.5Z" transform="translate(10.392 13.509)" fill="#fff"></path></g></g></g></g></svg>