<svg xmlns="http://www.w3.org/2000/svg" width="283.704" height="317.486" viewBox="0 0 283.704 317.486"><defs><style>.a{fill:#ececec;}.b{fill:#eac869;}.c{fill:#90b8e8;}.d{fill:#2680eb;stroke:#707070;}.e{fill:#020101;}</style></defs><g transform="translate(13619.5 17418.486)"><g transform="translate(-13619.5 -17418.486)"><path d="M8548.02,2103.219l.678,4.719,6.662,1.016v-5.737Z" transform="translate(-8461.646 -1893.54)"></path><ellipse class="a" cx="137" cy="23.5" rx="137" ry="23.5" transform="translate(4.5 270.486)"></ellipse><path class="b" d="M8873.82,2088.78v19.533l27.844,10.27h2.4l7.4-13.693-5.66-3.826s-7.4,5.84-8.054-2.618Z" transform="translate(-8659.778 -1893.5)"></path><path class="b" d="M8883.4,1996.988l9.713-21.94a6.919,6.919,0,0,1,6.194,0c3.015,1.7,20.429,7.9,20.429,7.9l13.4,6.35-5.526,14.251-4.186,8.984-36.169-13.011Z" transform="translate(-8665.975 -1820.946)"></path><path class="c" d="M8347.883,1813.87l8.151,4.326c-9.033,19.073-20.543,87.845,68.463,101.02,0,0,37.895,1.18,63.012-33.033l8.371,4.523s-55.079,78.259-135.935,8.848C8359.945,1899.552,8325.41,1854.378,8347.883,1813.87Z" transform="translate(-8337.942 -1719.641)"></path><path class="c" d="M8364.034,1737.743l-6.7-5.649s30.957-70.059,115.776-37.418c0,0,45.825,24.382,46.486,60.563s-9.471,49.355-9.471,49.355l-7.49,10.225-8.373-7.276s20.827-21.954,14.789-56.463c-.917-5.242-4.113-10.164-6.416-16.094,0,0-28.2-53.484-86.144-37.95,0,0-29.963,4.916-45.6,28.9Z" transform="translate(-8348.216 -1637.118)"></path><path class="d" d="M8741.34,1999.4l24.382,12.89s4.57-4.43,5.224,1.812l47.02,19.935s3.267-7.45,6.967,2.618l9.578,4.229s15.021.6,10.885-17.318l-98.611-35.843Z" transform="translate(-8580.432 -1829.14)"></path><path d="M549.932,1418.445a35.079,35.079,0,0,0,4.924-.036c4.87-.721,9.755-.192,14.629-.323a33.88,33.88,0,0,1,4.566.367c1.688.188,1.6,1.7,1.864,2.758a9.3,9.3,0,0,1-.249,2.737c-.064.819-.041,1.645-.085,2.466a2.957,2.957,0,0,1-2.7,2.787c-2.375.157-4.753.348-7.131.363-1.785.013-3.6-.5-5.35-.3-4.68.534-9.36.288-14.038.308-2.772.01-5.544-.2-8.312-.381a8.393,8.393,0,0,1-2.315-.569c-1.775-.656-2.455-1.663-1.922-3.523a15.377,15.377,0,0,0,.326-3.89c.076-2.23,1.369-3.147,3.606-2.541a5.231,5.231,0,0,0,1.509.154c3.5-.111,6.989-.246,10.681-.375m-13.814,7.112c.456.448.859,1.207,1.375,1.288a35.59,35.59,0,0,0,5.35.425c9.6.036,19.2.017,28.795.017.395,0,.791-.025,1.183.006.706.056.96-.31,1.207-.911a10.154,10.154,0,0,0,.35-4.077,5.914,5.914,0,0,0-.377-1.571c-.231-.786-.878-.777-1.543-.755-7.569.24-15.146-.384-22.72.336-3.126.3-6.306.05-9.462.05-.92,0-1.99.286-2.722-.077-.824-.406-.866.021-1.032.434-.575,1.44-.387,2.96-.4,4.836Z" transform="translate(-451.22 -1148.455)"></path><path d="M767.533,1033.771c0,3.788-.479,4.494-4.149,4.171a180.9,180.9,0,0,0-19.153-.244c-3.156.054-6.346.077-9.487.381-1.66.161-3.312.215-4.968.319-.739.046-1.472.367-2.2.346-1.656-.046-3.311-.2-4.96-.37-.983-.1-1.922-1.334-2.026-2.818-.2-2.824-.266-5.653-.424-8.479-.046-.813.2-1.32,1.075-1.463a8.486,8.486,0,0,1,1.054-.288q8.589-.216,17.179-.39c2.036-.038,4.074.042,6.109-.019a57.818,57.818,0,0,0,7.514-.421c4.158-.676,8.31-.133,12.459-.315,1.076-.046,1.955,1.125,1.971,2.487.027,2.3.007,4.608.007,7.1m-12.037-7.689c-2.444.139-4.882.067-7.342.292-4.322.392-8.693.067-13.051.413-3.788.3-7.623.06-11.438.065-1.9,0-1.953.01-1.894,1.934.041,1.294.231,2.587.382,3.877.106.909.218,1.822.4,2.722.293,1.453.321,1.507,1.8,1.447,3.1-.125,6.2.215,9.318-.309,2.26-.379,4.614-.2,6.934-.373,5.253-.392,10.542.2,15.818-.411,2.4-.275,4.865.04,7.293-.073,1.934-.092,3.039-1.155,2.608-2.414-.614-1.8-.231-3.618-.37-5.423a4.972,4.972,0,0,0-.311-2.168c-.6-.936-1.46-.021-2.218.027-2.511.153-5.023.264-7.928.394Z" transform="translate(-585.526 -822.329)"></path><path class="e" d="M8451.071,1607.117v-37.1l25.585,1.2h125.7s7.666-4.261,4.871,24.416.107,66.278.107,66.278v61.014l6.181,4.211v-79.259l1.565-45.461-1.565-41.7c-.365-.154-2.591-8.979-9.461-7.2s-87.724-1.8-87.724-1.8l-51.391,1.8s-17.847.4-18.921,3.209-1.182,19.653-1.182,19.653v33.5Z" transform="translate(-8399.572 -1551.718)"></path><path class="e" d="M8444.84,1734.281l6.884-5.221-1.2,95.9v18.32l-5.68-4.174V1734.281Z" transform="translate(-8410.1 -1657.906)"></path><path d="M8561.58,1777.538s4.421-28.967,17.985-31.135c0,0-10.383-16.262,1.674-22.77,0,0,44.71,15.18,49.732,55.608,0,0-30.81,32.684-67.65,0Z" transform="translate(-8468.982 -1660.948)"></path><path d="M8654.75,1711.6l18.586,12.547s2.177-14.87-16.242-13.476Z" transform="translate(-8526.705 -1652.997)"></path><path d="M8444.84,2093.72l2.541,81.624s-.854,5.114,13.422,6.418,139.709-.42,139.709-.42l10.916-1.825.833-7.457.4-83.749-5.994-2.414v74.322l-68.761,1.078h-51.9l-30.514,2.442s-4.2,1.043-3.921-3.521-1.527-58.033-1.527-58.033l.766-7.122Z" transform="translate(-8399.573 -1894.189)"></path><path d="M8496.86,2021.1v-22.746h5.941l1.345,21.067v4.474l3.794,1.305V2004.88l6.986.746V2025.2l4.291.746-.9-20.322v-4.475h7.286v17.712l1.1,6.339,3.193-1.305-.7-6.246v-3.635h6.063l.824.932v8.949l-14.872,2.983-10.079-.932-9.582-2.051-4.692-.746Z" transform="translate(-8431.732 -1825.504)"></path><path d="M8504.42,2095.79v8.758h5.942v-7.819Z" transform="translate(-8434.288 -1889.234)"></path><path d="M8527.26,2101.011c.186,6.57.555,6.755,1.2,6.755h4.719s1.574-7.032.739-6.755S8527.26,2101.011,8527.26,2101.011Z" transform="translate(-8448.628 -1892.274)"></path><path d="M8571.769,2107.383s-.427-5.605,0-5.534,8.614-.783,8.614-.783l-.854,6.317Z" transform="translate(-8476.027 -1892.249)"></path><path d="M8676.882,2082.834s-2.439.813-1.626,6.3a29.539,29.539,0,0,1,0,5.294c-.029,2.286-.3,3.321.284,3.65s13.946,0,13.946,0h21.144l17.85-.667s2.746.427,3.517-2.821a10.981,10.981,0,0,0,0-4.767c-.5-1.917.135-2.9,0-4.054-.3-2.6-1.145-3.049-2.588-3.564-.66-.243-.895-.563-3.742,0-3.043.6-7.509.58-11.939.626-6.14.064-11.989,0-11.989,0h-24.855Z" transform="translate(-8546.138 -1881.369)"></path><g transform="translate(0 0.18)"><path d="M116.245.044c5.275,0,10.349-.043,15.424.009,9.425.1,18.869-.043,28.274.454,9.437.5,18.866-.076,28.28.365,4.29.2,8.582.111,12.852.4,1.881.125,3.764.213,5.647.323a9.141,9.141,0,0,1,3.554.544,12.761,12.761,0,0,1,3.306,2.824,6.592,6.592,0,0,1,1.322,3.5c.491,2.708.222,5.389.295,8.077.18,6.892-.006,13.8.493,20.673a187.4,187.4,0,0,1,.214,22.018c-.451,10.025-.15,20.035-.267,30.051-.116,10.067.313,20.149-.106,30.2-.583,13.972-.074,27.936-.318,41.9a6.044,6.044,0,0,0,.02,1.334,3.669,3.669,0,0,0,.521.936,4.536,4.536,0,0,1,.431-.673c1.976-2.154,3.979-4.285,5.938-6.451,1.306-1.445,2.595-2.911,3.821-4.417,1.394-1.719,3.319-1.658,5.165-1.29a39.042,39.042,0,0,1,8.729,2.944c.185.086.381.158.571.236a2.078,2.078,0,0,0-.2-.647,34.857,34.857,0,0,0-2.128-2.789,24.344,24.344,0,0,1-5.139-18.374,24.679,24.679,0,0,1,6.8-13.936,25.161,25.161,0,0,1,8.23-5.921,30.631,30.631,0,0,1,7.867-2.232,37.109,37.109,0,0,1,3.851-.31A24.009,24.009,0,0,1,273.2,113.73c1.756,1.1,3.373,2.4,5.031,3.64a2.314,2.314,0,0,1,.683.87c1.442,3.188,2.889,6.376,4.261,9.594a6.237,6.237,0,0,1,.529,2.456c-.034,3.146-.178,6.29-.285,9.435a13.407,13.407,0,0,0-.074,1.876c.342,3.135-1.166,5.742-2.644,8.325a18.717,18.717,0,0,1-5.9,6.425,43.994,43.994,0,0,1-9.122,5.285,7.692,7.692,0,0,1-3.806.936,2.329,2.329,0,0,0-.93.153c-.17.059-.288.256-.431.392.158.07.315.146.475.207.693.258,1.4.475,2.067.774,1.12.5,2.228,1.029,3.316,1.592,1.891.979,1.725,2.879,2.13,4.5.508,2.036.964,4.085,1.406,6.135.243,1.124.4,2.264.607,3.394.316,1.786.683,3.565.942,5.359a12.91,12.91,0,0,1,.185,3.525c-.072.544-.839,1.1-1.421,1.462a29.94,29.94,0,0,1-3.574,1.912c-.679.306-1.208.428-.395,1.155.192.172.34.7.226.822-.859.893-.176,1.748.046,2.57a9.311,9.311,0,0,1-1.106,7.868,14.864,14.864,0,0,1-4.694,5.179,6.606,6.606,0,0,1-6.656.591,6.931,6.931,0,0,0-.917-.191c-1.507-.457-1.581-.482-2.085.8-1.583,4.019-4.217,7.5-6.287,11.273-1.2,2.183-2.747,2.514-5.313,1.7-2-.633-4.037-1.166-5.952-1.973-.767-.323-.9-.038-1.054.39-.817,2.227-1.651,4.453-2.366,6.711-.647,2.046-1.164,4.132-1.713,6.206-.793,3-1.451,6.042-2.39,9a6.755,6.755,0,0,0,.3,4.566c1.943,5.415,3.919,10.818,5.794,16.252,1.394,4.044,2.655,8.131,3.971,12.2.529,1.641,1.082,3.273,1.555,4.927a3.137,3.137,0,0,1-1.09,2.954,12.085,12.085,0,0,1-2.755,1.91,3.79,3.79,0,0,1-1.214.237,4.183,4.183,0,0,1,.258-1.533,4.259,4.259,0,0,1,1.392-1.354c1.549-.947,1.436-2.356,1.022-3.667q-1.987-6.278-4.209-12.481c-1.525-4.235-3.222-8.413-4.788-12.634a60.254,60.254,0,0,1-2.492-7.415,11.792,11.792,0,0,1,.421-5.883c1.07-3.661,2.027-7.353,3.1-11.013.6-2.048,1.326-4.061,2.015-6.084a28.421,28.421,0,0,1,1.314-3.493c.207-.413.092-.518-.142-.69a7.574,7.574,0,0,0-1.252-.807c-2.781-1.279-5.578-2.531-8.366-3.8-.28-.126-.545-.285-.827-.4-2.23-.922-2.482-.828-3.7,1.3a5.469,5.469,0,0,1-1.16,1.809c-1.22.878-1.128,2.007-1.124,3.22.022,6.371.288,12.759-.076,19.112a127.454,127.454,0,0,0-.22,15.324c.347,5.566-.082,11.134.4,16.662.28,3.214.124,6.4.31,9.6a1.76,1.76,0,0,1-1.463,2.063,7.319,7.319,0,0,0-1.719,1.109,11.417,11.417,0,0,1-5.548,1.5,34.3,34.3,0,0,1-6.6-.012,84.106,84.106,0,0,0-15.659-.239c-7.435.438-14.867-.115-22.273.329-11.832.709-23.663.185-35.493.312-11.35.121-22.715-.294-34.049.119-10.97.4-21.929.065-32.889.31a11.083,11.083,0,0,1-4.851-.832c-2.231-1.016-4.683-1.571-6.638-3.22a6.91,6.91,0,0,1-2.291-5.229c-.212-2.746-.067-5.531-.491-8.242-.334-2.132-.034-4.266-.388-6.342-.341-2-.027-4.024-.409-5.956-.548-2.768-.113-5.52-.343-8.265-.875-10.453.1-20.936-.486-31.379-.345-6.2-.1-12.391-.308-18.582-.018-.526.035-.9-.715-1.252a60.922,60.922,0,0,1-8.821-5.574,81.455,81.455,0,0,1-7.421-6.4,62.933,62.933,0,0,1-9.887-11.962,85.66,85.66,0,0,1-5.688-9.413A80.979,80.979,0,0,1,4.64,153.326c-.775-2.519-1.2-5.136-1.788-7.708-.642-2.8-1-5.663-1.894-8.425-.372-1.149-.243-2.437-.532-3.62-.76-3.122-.246-6.273-.363-9.406-.108-2.888.715-5.677,1.252-8.488.416-2.171.96-4.323,1.556-6.456a41.735,41.735,0,0,1,1.7-5.06A98.3,98.3,0,0,1,9.329,93.624c2.743-4.812,5.347-9.705,8.907-14.093A106.477,106.477,0,0,1,30.225,67.107,70.248,70.248,0,0,1,41.113,59a3.094,3.094,0,0,0,1.842-3.265c-.846-12.936-.4-25.892-.354-38.837.012-3.439.254-6.9.341-10.356a3.23,3.23,0,0,1,2.526-2.925A44.391,44.391,0,0,1,51.52,2.273c2.7-.4,5.48-.317,8.128-1.076a1.86,1.86,0,0,1,.4-.006c2.549-.126,5.1-.266,7.647-.378C70.843.674,74.018.747,77.138.387,83.093-.3,89.052.159,95.006.07c7.012-.106,14.025-.025,21.239-.025M99.216,213.8c1.945-.1,2.014-.195,1.568-1.962-.061-.239-.03-.644.128-.757a2.008,2.008,0,0,1,1.046-.3c.075,0,.2.5.255.776a3.107,3.107,0,0,1,.008.571c.037,1.656.037,1.663,1.806,1.669q5.308.009,10.617,0a3.084,3.084,0,0,1,1.185.032c.34.159.749.568.76.882a1.456,1.456,0,0,1-.673.97c-.219.151-.647.029-.979.029q-23.938,0-47.875,0c-1.435,0-1.94-.416-2.1-1.8a35.281,35.281,0,0,1-.37-4.62c.023-1.14-.508-1.413-1.506-1.633-2.181-.482-4.352-1.023-6.486-1.663-1.763-.532-3.461-1.254-5.2-1.868-1-.354-1.486-.109-1.666.843a5.04,5.04,0,0,0-.009,1.145c.181,4.024-.172,8.043.327,12.084.468,3.8-.127,7.661.425,11.5.408,2.845.06,5.74.357,8.636.475,4.631.332,9.319.5,13.98a40.286,40.286,0,0,0,.316,6.547,36.553,36.553,0,0,1,.44,7.091c0,1.709.475,1.853,1.945,1.772,4.08-.222,8.158.134,12.262-.317,4.378-.482,8.824.119,13.253-.4,3.715-.438,7.484-.021,11.253-.35,5.654-.493,11.36,0,17.059-.384s11.479-.122,17.221-.063c1.894.019,3.719.407,5.695.071a48.138,48.138,0,0,1,7.23-.408c20.374-.35,40.757.405,61.13-.438,2.133-.088,4.272,0,6.41-.015,1.513-.01,1.6-.1,1.641-1.441.008-.254.006-.508,0-.765-.168-6.956-.168-13.917-.277-20.873-.19-12.364-.593-24.748.246-37.118.207-3.045-.092-6.122.1-9.17.066-1.071.641-2.189.152-3.212-.517-1.078-1.887-1.126-2.891-1.581-3.848-1.749-7.781-3.329-11.535-5.28a1.733,1.733,0,0,0-2.352.139c-2.408,2.413-5.472,1.758-6.794-1.33a4.389,4.389,0,0,1-.261-1.987,1.811,1.811,0,0,0-1.239-1.892c-1.76-.873-3.5-1.789-5.253-2.669-3.071-1.538-6.277-2.871-9.183-4.652a11.5,11.5,0,0,0-7.026-1.886,2.4,2.4,0,0,0-2.187,1.191c-1.021,1.647-2.166,3.225-3.243,4.84-.1.143-.164.416-.087.52a.674.674,0,0,0,.541.168c1.189-.171,2.366-.475,3.557-.545,3.146-.185,6.3-.3,9.448-.392a2.881,2.881,0,0,1,3.01,2.509c.189,2.939-.315,5.9.4,8.83.2.811-.253,1.254-1.2,1.282-3.419.1-6.833.262-10.251.363-1.6.046-3.207-.042-4.8.019-2.883.111-5.79-.349-8.653.354-.5.123-1.27.231-1.558-.024-.777-.686-1.308-.027-1.854.176a7.9,7.9,0,0,0-1.548,1.046,60.582,60.582,0,0,1-5.732,3.883c-4.378,2.333-8.86,4.487-13.334,6.653a78.854,78.854,0,0,1-11.5,4.87A50.476,50.476,0,0,1,103,209.658c-2.641.3-5.221,1.105-7.923,1.086a10.067,10.067,0,0,0-1.2.008c-.907.1-.9.748-.878,1.405s-.178,1.428.834,1.648c.785.172,1.135-.084,1.171-.908a4.005,4.005,0,0,1,.022-.95,3.011,3.011,0,0,1,.508-.751,5.6,5.6,0,0,1,.658.751c.088.141.028.375.013.564-.074.97.4,1.379,1.405,1.3.4-.032.8-.006,1.6-.006M170.137,19.929c-2.549.128-5.1.357-7.647.365-11.751.04-23.5-.072-35.254.043s-23.524-.315-35.293.277a110.867,110.867,0,0,1-16.262-.227c-4.582-.444-9.236.133-13.853-.42a35.24,35.24,0,0,0-5.405-.021c-1.75.062-3.495.252-5.243.363-.72.046-1.082.356-1.052,1.06.014.318,0,.637,0,.956v29.63a5.8,5.8,0,0,0,.014,1.144c.116.566.231.945,1.093.522,1.363-.669,2.885-1.092,4.283-1.659A78.416,78.416,0,0,1,69.771,47.9,82.42,82.42,0,0,1,79.88,46.727c3.54-.258,7.1-.3,10.649-.405a25.285,25.285,0,0,1,4,.025c1.987.259,3.946.731,5.916,1.115,2.339.456,4.672.947,7.022,1.349a4.016,4.016,0,0,0,2.011-.1C112.11,47.7,114.7,46.591,117.3,45.5a38.052,38.052,0,0,1,11.883-2.606,32.63,32.63,0,0,1,9.732,1.063,41.138,41.138,0,0,1,10.37,4.28,76.521,76.521,0,0,1,6.873,4.519A31.094,31.094,0,0,1,166.72,64.421c1.188,2.329,2.153,4.764,3.39,7.069a19.712,19.712,0,0,1,2.193,8.489,32.373,32.373,0,0,1-.263,5.2,53.13,53.13,0,0,1-1.7,7.96,19.184,19.184,0,0,1-2.933,6.688c-.207.277-.079.881.062,1.279a86.826,86.826,0,0,1,4.443,16.778,55.2,55.2,0,0,1,.413,6.528,40.519,40.519,0,0,1-.338,7.3c-.352,2.21-.007,4.466-.355,6.73-.323,2.107-.468,4.246-.837,6.37a31.948,31.948,0,0,1-1.64,6.628c-.468,1.155-.766,2.375-1.124,3.57-.343,1.142-.175,1.4,1.127,1.808,4.238,1.313,8.5,2.57,12.71,3.949q5.43,1.777,10.776,3.785c3.044,1.137,6.027,2.42,9.039,3.631,1.593.639,3.188,1.274,4.79,1.888.569.218,1.132.447,1.144-.567.05-3.9.116-7.795.309-11.7.477-9.621-.391-19.27.449-28.9a25.026,25.026,0,0,0-.354-3.089c-.092-2.435-.222-4.869-.34-7.3-.429-8.732-.024-17.473-.353-26.223a262.86,262.86,0,0,1,.2-26.413c.508-8.019-.03-16.072.389-24.119a102.958,102.958,0,0,0-.3-17.808,6.1,6.1,0,0,0-3.238-3.848,1.362,1.362,0,0,0-.423.043c-.577.053-1.155.149-1.735.147-3.555-.01-7.1-.185-10.653-.305-7-.236-14.019-.07-21.431-.07M155.713,172.5a14.626,14.626,0,0,1,1.143-1.835,50.3,50.3,0,0,0,8.045-13.452,16.216,16.216,0,0,0,1.367-4.219,54.423,54.423,0,0,1,1.181-5.474c.352-1.657.632-3.33.873-5.006.193-1.34.145-2.726.442-4.039a31.4,31.4,0,0,0,.717-6.952c0-3.959.446-7.934-.32-11.887-.293-1.512-.1-3.12-.467-4.606-.8-3.226-1.806-6.413-2.769-9.6a66.743,66.743,0,0,0-8.244-16.987,75.627,75.627,0,0,0-8.212-10.5A63.043,63.043,0,0,0,137.147,67.2c-3.347-2.091-6.688-4.175-10.212-6a146.422,146.422,0,0,0-14.306-6.267,50.988,50.988,0,0,0-9.527-2.5c-1.188-.213-2.4-.294-3.591-.5-1.792-.314-3.557-.817-5.359-1a39.5,39.5,0,0,1-7.212-1.4,3.073,3.073,0,0,0-1.91-.115c-1.09.505-2.178.253-3.264.331-1.946.139-3.9.181-5.839.4-2.648.307-5.283.718-7.914,1.139a30.192,30.192,0,0,0-4.6.934c-3.034.991-6.082,1.922-9.055,3.131a78.137,78.137,0,0,0-10.68,5.373C38.846,63.618,34.752,67.406,30.512,71c-1.894,1.6-3.629,3.384-5.389,5.126a37.382,37.382,0,0,0-3.081,3.338c-1.212,1.534-2.2,3.231-3.434,4.747a49.852,49.852,0,0,0-7.844,13.918C9.432,101.609,8,105.062,6.745,108.575c-.816,2.293-1.568,4.609-2.276,6.936a8.625,8.625,0,0,0-.352,4.857,14.5,14.5,0,0,1,.332,3.681c.151,4.534.274,9.069.407,13.6a2.876,2.876,0,0,0,0,.382c.4,2.39.76,4.787,1.212,7.168.335,1.764.747,3.518,1.2,5.259a77.133,77.133,0,0,0,5.23,13.6,90.638,90.638,0,0,0,4.822,8.981,81.573,81.573,0,0,0,5.059,6.8,35.182,35.182,0,0,0,2.516,2.829c1.915,1.982,3.891,3.91,5.8,5.9,1.622,1.7,3.766,2.665,5.7,3.934a90.026,90.026,0,0,0,9.72,5.77c1.73.847,3.309,1.929,5,2.8a31.141,31.141,0,0,0,5.561,1.933c2.911.847,5.824,1.713,8.79,2.346,2.6.554,5.3.665,7.9,1.216a45.266,45.266,0,0,0,10.925,1.118c.457-.013.917.029,1.374.061,1.489.1,3.074.572,4.447.239,2.628-.633,5.3.067,7.911-.647,1.873-.512,3.89-.537,5.781-1.008,2.813-.7,5.6-1.47,8.37-2.377a93.1,93.1,0,0,0,17.458-7.77,72.584,72.584,0,0,0,11.044-7.792c.967-.828,2.03-1.563,2.934-2.449,2.258-2.208,4.537-4.406,6.643-6.745,1.87-2.075,3.519-4.332,5.465-6.7m57.5-8.6c0-20.71-.046-41.419.032-62.129.02-5.553-.168-11.1.282-16.671.541-6.674.146-13.4.375-20.1a221.767,221.767,0,0,0-.271-26.412c-.124-1.456,0-2.93-.02-4.4-.126-7.849-.307-15.7-.372-23.547-.022-2.515-1.31-4.457-2.68-6.4a1.47,1.47,0,0,0-1.022-.359c-4.552-.141-9.1.006-13.661-.326-6.733-.489-13.5,0-20.27-.363-10.54-.558-21.113-.007-31.682-.374-12.2-.423-24.436-.189-36.654-.073-12.164.116-24.335-.479-36.494.334-2.326.156-4.722-.263-7,.1-2.7.428-5.436.708-8.139.979-2.68.268-5.26.9-7.9,1.269a2.819,2.819,0,0,0-2.8,3.076c-.069,3.582-.139,7.158-.349,10.741-.277,4.7-.117,9.428-.056,14.143.089,6.893.248,13.786.4,20.679.015.7.2,1.4.277,2.1.014.128-.107.269-.166.4.181,0,.4.071.536,0a10.137,10.137,0,0,0,1.914-1.1c.337-.282.722-1.053.581-1.222-.638-.766-.326-1.59-.332-2.365-.036-5.036-.071-10.069,0-15.1.071-5.428.277-10.855.37-16.283.02-1.155.8-1.667,1.663-2.065a5.2,5.2,0,0,1,2.023-.4c13.5-.239,27,0,40.5-.277,14.956-.31,29.937-.541,44.906.231,2,.1,4.029-.351,6.042-.331,18.841.189,37.688-.482,56.524.355a23.691,23.691,0,0,1,4.913.644,7.818,7.818,0,0,1,3.536,2.053c1.155,1.058,1.214,2.5,1.358,3.852.228,2.168-.1,4.347.365,6.542.334,1.592-.032,3.307.092,4.956.12,1.56-1.092,3.1-.028,4.656-1.178.622.277,1.453-.214,2.285a5.514,5.514,0,0,0-.18,2.592c-.01,6.563-.088,13.128.012,19.69.192,12.437-.357,24.873.316,37.314.389,7.2-.024,14.424.435,21.633.092,1.464-.346,2.951-.351,4.428q-.046,19.4-.014,38.808c0,.753.056,1.506.086,2.259a10.382,10.382,0,0,1,1.574-1.635c1.436-.968,1.727-2.279,1.541-4.186M88.8,285.689c2.348-.128,4.7-.384,7.044-.352a94.293,94.293,0,0,1,10.06.277,88.834,88.834,0,0,0,11.642.425c5.821-.073,11.633.071,17.466-.258,9.538-.534,19.109-.088,28.675-.37,13.675-.4,27.371-.119,41.059-.082a10.073,10.073,0,0,0,5.821-1.411c.99-.64,1.519-1.174,1.454-2.306-.168-3-.431-6.013-.385-9.017.185-12.118-.373-24.234.319-36.356.515-9.044-.3-18.115.4-27.178.337-4.372.064-8.789.056-13.184a2.309,2.309,0,0,0-2.372-2.344c-.508-.029-.851-.023-.851.662a51.207,51.207,0,0,1-.305,5.592c-.386,3.545-.276,7.152-.359,10.724a186,186,0,0,0,.208,20.3c.477,5.525-.146,11.108.451,16.661.343,3.179-.166,6.382.351,9.6a41.21,41.21,0,0,1,.064,7.443c-.052,2.164-1.226,3.161-3.49,3.214-9.291.218-18.578-.139-27.881.291-12.412.572-24.859-.3-37.288.436-6.808.4-13.637-.212-20.469.348-5.524.453-11.1-.017-16.658.388-6.6.48-13.231-.126-19.866.367-6.459.48-12.969.34-19.458.453-1.935.035-3.872.023-5.809,0a33.451,33.451,0,0,1-6.851-.35c-1.305-.287-2.039-.813-2.086-2.025-.07-1.8-.17-3.592-.327-5.392-.293-3.373-.025-6.772-.448-10.164-.333-2.665,0-5.359-.345-8.066-.45-3.539-.185-7.145-.41-10.732-.413-6.621-.345-13.271-.487-19.909-.008-.359-.128-.717-.166-1.076a16.945,16.945,0,0,1-.205-2.4,15.483,15.483,0,0,1,.382-2.327A6.572,6.572,0,0,0,48.066,206a8.9,8.9,0,0,0-.541-3.188,2.815,2.815,0,0,0-2.018-1.489c-.907.073-.588,1.239-.571,1.954.225,9.887-.407,19.777.347,29.666.427,5.6-.312,11.239.4,16.856.347,2.726-.1,5.493.38,8.256.422,2.453.079,4.973.373,7.489.462,3.927.334,7.914.5,11.873a7.66,7.66,0,0,0,.458,3.061c.416.826.63,1.856,1.848,2.346a48.6,48.6,0,0,1,4.337,2.472,9.205,9.205,0,0,0,5.306,1.191c1.674-.164,3.373-.26,5.042-.344,6.345-.319,12.713.25,19.062-.42,1.781-.189,3.6-.029,5.805-.029m79.335-115.1a3.607,3.607,0,0,0,.715.666q7.426,3.87,14.869,7.709a2.462,2.462,0,0,0,2.6-.087c2.1-1.24,3.269-.852,4.093,1.538.3.882.44,1.94,1.654,2.444,1.812.752,3.489,1.795,5.282,2.593q6.625,2.948,13.308,5.775c3.438,1.451,6.892,2.877,10.388,4.2,4.472,1.69,8.985,3.287,13.5,4.874,1.447.508,2.821.97,4.151-.6,1.114-1.313,2.864-1.059,4.2.157a6.414,6.414,0,0,1,2,3.229,2.533,2.533,0,0,0,1.647,1.807c2,.765,3.969,1.619,5.97,2.388a4.148,4.148,0,0,0,1.827.365,18.882,18.882,0,0,0,4.257-.776c1.719-.612,3.422-1.241,4.528-2.954a8.749,8.749,0,0,0,1.326-6.145,4.885,4.885,0,0,0-3.009-4.31c-2.449-.964-4.858-2.029-7.313-2.983q-7.967-3.1-15.963-6.119c-2.809-1.063-5.646-2.06-8.479-3.063-3.067-1.086-6.175-2.068-9.208-3.234-4.634-1.778-9.148-3.851-13.838-5.471-5.689-1.965-11.184-4.375-16.883-6.319-4.764-1.624-9.434-3.5-14.3-4.879-2.427-.689-4.828-1.473-7.209-2.3-1.331-.462-1.317-.546-1.967.647-1.144,2.094-2.264,4.2-3.4,6.3-.765,1.412-.758,1.39.841,2.258,1.354.735,2.676,1.525,4.413,2.288m66.713-32.694c.134.585.3,1.164.4,1.756.76,4.848,3.28,8.923,6.587,12.467,3.584,3.84,7.749,7.094,13.371,7.846a19.473,19.473,0,0,0,6.263.208,25.434,25.434,0,0,0,8.332-3.355,29.822,29.822,0,0,0,2.772-1.914,20.272,20.272,0,0,0,5.581-5.89,18.479,18.479,0,0,0,1.685-4.705c.467-1.929-.321-3.532-.508-5.28-.008-.063.018-.135,0-.19-.377-.909-.894-.987-1.541-.231-.172.2-.367.617-.489.6-1.158-.191-1.7.642-2.25,1.285a11.945,11.945,0,0,1-5.036,3.184,9.13,9.13,0,0,1-7.112-.077,9.908,9.908,0,0,1-5.952-10.905,7.792,7.792,0,0,1,2.125-4.487c1.432-1.36,3-2.59,4.508-3.884.194-.168.525-.4.5-.561-.182-1.082.707-1.136,1.38-1.335a17.759,17.759,0,0,1,2.726-.633c1.589-.208,3.292-.554,4.682.435a6.144,6.144,0,0,1,2.578,3.161,22.162,22.162,0,0,0,.693,2.208c.493,1.205,1.06,2.383,1.591,3.574s.032,2.779,1.525,3.609c.072.04.092.231.076.342-.189,1.62,1.14,2.746,1.5,4.188.054.217.27.4.413.594.166-.189.431-.359.475-.571a5.425,5.425,0,0,0,.022-1.142c0-2.1,0-4.2,0-6.3a4.575,4.575,0,0,0-.076-1.308,43.234,43.234,0,0,0-2.248-6.565c-1.4-2.84-2.853-5.452-5.886-6.976-.887-.445-1.663-1.085-2.51-1.6a23.6,23.6,0,0,0-10.765-3.313,17.848,17.848,0,0,0-4.848.3,28.412,28.412,0,0,0-9.062,3.127,21.4,21.4,0,0,0-7.873,7.669c-2.554,4.453-4.269,9.108-3.612,14.686m-11.219,38.623c1.092.4,2.182.815,3.277,1.213,3.63,1.319,7.266,2.623,10.893,3.951,3.742,1.37,7.473,2.769,11.213,4.141,2.13.781,4.265,1.55,6.413,2.285.611.21.821.073,1.128-.693,1.653-4.117,3.532-8.152,5.321-12.22.955-2.171,1.861-4.358,2.843-6.514.435-.958.022-1.224-.878-1.559-2.985-1.109-5.972-2.241-8.863-3.554-3.628-1.648-7.128-3.549-10.747-5.221-3.217-1.486-6.5-2.862-9.8-4.173a31.768,31.768,0,0,0-4.3-1.166c-1.118-.27-1.611.075-2.294,1.109a26.642,26.642,0,0,0-2.122,4.13c-1.376,3.171-3.154,6.138-4.67,9.231-.97,1.978-2.154,3.86-3.228,5.793-.231.416-.554.875.231,1.148,1.8.624,3.584,1.271,5.575,2.1M146.3,70.594a18.066,18.066,0,0,0,1.571,1.859,71.947,71.947,0,0,1,7.522,8.305,118.541,118.541,0,0,1,8.455,12.729c.678,1.114,1.117,2.36,1.694,3.533.222.451.524.867.79,1.3.135-.418.252-.843.408-1.253a22.354,22.354,0,0,0,1.547-4.155c.488-3.049,1.375-6.013,1.78-9.094.331-2.518-.213-4.8-.473-7.192a11.861,11.861,0,0,0-1.254-3.152,61.533,61.533,0,0,0-5.267-10.53,25.093,25.093,0,0,0-6.336-6.82c-2.609-1.9-5.283-3.75-8.077-5.392a44.643,44.643,0,0,0-7.285-3.5,27.446,27.446,0,0,0-11.126-2.049c-.818.051-1.624.256-2.439.37-1.891.262-3.818.378-5.67.8a69.221,69.221,0,0,0-9.528,3.419c-.146.056-.249.216-.37.327.156.144.288.37.471.418a59.091,59.091,0,0,1,9.361,3.823c1.557.709,3.192,1.262,4.77,1.931,1.844.782,3.766.249,5.647.36a15.213,15.213,0,0,1,8.743,3.4,14.379,14.379,0,0,1,5.082,7.934c.21.817.693,1.586-.014,2.633m81.938,146.264c3.911,1.436,7.825,2.86,11.726,4.315,1.27.474,2.084.411,2.719-.535,1.178-1.75,2.35-3.511,3.36-5.349.886-1.61,1.441-3.384,2.334-4.99.912-1.631,1.02-1.585-.673-2.392a12.7,12.7,0,0,1-1.525-.625c-1.06-.7-1.793-.3-2.454.532-1.162,1.468-4.734,1.455-6.018-.254a5.2,5.2,0,0,1-1.22-3.134,1.063,1.063,0,0,0-.857-1.174c-1.218-.419-2.424-.864-3.63-1.31-2.414-.887-4.836-1.759-7.236-2.68-2.913-1.122-5.8-2.292-8.709-3.432a7.335,7.335,0,0,0-1.234-.378c-.535-.107-.851.021-.82.671.056,1.142.014,2.289.014,3.434,0,3.373.006,6.745,0,10.114,0,.647.024,1.145.827,1.472,4.418,1.8,8.805,3.675,13.4,5.715m42.473-91.01a8.849,8.849,0,0,0-4.718-.468,9.969,9.969,0,0,0-7.467,8.71c-.3,2.47.952,4.418,2.772,6.148a7.409,7.409,0,0,0,4.754,2.362,11.22,11.22,0,0,0,5.512-1.5c1.871-.986,2.977-2.638,4.165-4.232a2.848,2.848,0,0,0,.82-1.978c-.237-3.9-1.673-7.1-5.836-9.045m-115.8,54.3a2.125,2.125,0,0,0-1.937,1.031c-1.016,1.406-2.205,2.7-3.361,4.014-1.005,1.14-2.068,2.232-3.1,3.356-.115.126-.253.416-.2.462a.878.878,0,0,0,.586.294c.945-.113,1.923.292,2.86-.326.36-.238,1.037-.029,1.571-.04q9-.188,18.008-.384c1.267-.028,1.614-.521,1.4-1.859-.152-.961-.277-1.926-.4-2.891-.141-1.09-.239-2.186-.424-3.269a1.063,1.063,0,0,0-.55-.71,4.867,4.867,0,0,0-1.8-.422c-2.343.069-4.682.258-7.025.35a24.377,24.377,0,0,0-5.627.391m113.794,1.912a22.837,22.837,0,0,1-.545-2.449c-.268-2.34-1.38-4.539-1.266-6.942a1.657,1.657,0,0,0-.148-.508c-.139.107-.343.185-.411.323-.237.477-.437.97-.633,1.465-.937,2.361-1.809,4.749-2.823,7.08a59.8,59.8,0,0,1-3.557,7.558c-.1.167-.8.528-.116.837,1.39.627,2.8,1.219,4.211,1.8a.782.782,0,0,0,.557-.073c1.749-.885,3.544-1.7,5.2-2.726a1.688,1.688,0,0,0,.755-2.2c-.5-1.271-.693-2.65-1.224-4.173M144.494,68.492a11.5,11.5,0,0,1-.985-1.709,9.861,9.861,0,0,0-3.271-4.605,18.659,18.659,0,0,0-6.982-3.227,4.324,4.324,0,0,0-1.332.122c.249.27.5.541.747.809.089.092.225.165.273.274a2.494,2.494,0,0,1,.113.513c-.228.026-.508.146-.674.062-.878-.444-1.714-.963-2.6-1.4-.164-.081-.469.1-.709.162.135.135.245.317.409.4a39.41,39.41,0,0,1,3.958,1.917c3.366,2.14,7,3.927,9.881,6.719.428.416.859.535,1.168-.038m74.726,96.937a3.2,3.2,0,0,0,.559-.545q1.719-2.755,3.39-5.536c.074-.123-.02-.338-.036-.511-.228.023-.554-.038-.667.083-.554.591-1.036,1.247-1.577,1.851-1.641,1.838-3.3,3.663-4.947,5.5-.122.139-.31.293-.315.443q-.033,2.387.006,4.774c0,.087.273.2.435.241.092.02.3-.083.312-.158.459-2.14,1.9-3.835,2.839-6.138m-149.054,47.8c.933,1.1,2.218.356,3.317.573.1-.7.195-1.4.287-2.1a1.047,1.047,0,0,0,0-.377c-.126-.516-.123-1.355-.432-1.478a13.059,13.059,0,0,0-2.9-.6,1.008,1.008,0,0,0-.256.581c-.027,1.008-.012,2.015-.012,3.407m169.086-10.708c0,.763-.032,1.528.012,2.289.034.6,1.284,1.591,1.743,1.308a5.47,5.47,0,0,0,1.809-1.7,1.861,1.861,0,0,0-.407-2.35c-1.589-1.667-1.848-1.663-3.157.451M87.8,210.932c-1.016,2.183-.6,2.864,1.732,2.868h.4c1.808-.013,1.965-.216,1.894-1.948-.037-.91-.637-.929-1.273-.853a4.381,4.381,0,0,1-2.75-.067m-5.81,2.868c1.3-.537.277-1.61.581-2.384.07-.178-.107-.447-.185-.669-.007-.019-.125,0-.189-.008-.8-.124-1.607-.258-2.412-.378-.537-.08-.832.025-.816.669.073,2.732-.391,2.864,3.02,2.772m-14.224-5.162c-.453-.191-1.1-.541-1.167.22a27.1,27.1,0,0,0-.008,4.185c.044.669.7.736,1.329.776.794.052.643-.43.647-.849.006-1.016.055-2.033-.025-3.044-.03-.378-.373-.732-.774-1.289m119-27.536a11.237,11.237,0,0,0-.355,2.661c.1,1.021,1.24,1.278,2.112.647.978-.707.7-1.7.589-2.559-.124-.934-1.009-1.243-2.345-.749M76.978,210.163c-1.592-.222-1.593-.222-1.6,1.164a4.636,4.636,0,0,0,.037,1.51c.132.375.589.878.92.891a1.294,1.294,0,0,0,.993-.8,8.08,8.08,0,0,0-.349-2.772M97.613,48.984c-.532,0-1.22.2-1.566-.039-.935-.655-1.919-.185-2.858-.333a1.483,1.483,0,0,0-.535.133,5.381,5.381,0,0,0,.583.264,12.08,12.08,0,0,0,1.243.352c.614.127,1.235.24,1.859.314q2.093.25,4.194.445c.147.014.31-.129.466-.2-.175-.057-.348-.117-.524-.172a27.847,27.847,0,0,0-2.862-.765M84.191,212.843l.952.956a6.1,6.1,0,0,0,.631-1.059,1.323,1.323,0,0,0,0-.939,6.166,6.166,0,0,0-.827-1.063,6.522,6.522,0,0,0-.732.966c-.106.2-.019.5-.019,1.137m127.617-40.725a2.059,2.059,0,0,0,.679.248,3.045,3.045,0,0,0,1.076-.178c0-.785-.092-1.575-.166-2.364-.178.046-.441.039-.519.15a6.436,6.436,0,0,0-1.07,2.144m3,44.167a10.387,10.387,0,0,0,.667-1.426c.1-.31.124-.862-.05-.973a1.531,1.531,0,0,0-1.122-.05c-.164.046-.267.482-.282.746a11.762,11.762,0,0,0,0,1.879c.058.6.427.472.785-.176m-53.486-46.459-.53.124c.11.086.3.261.318.245C161.3,170.045,161.97,170.592,161.323,169.824Z" transform="translate(0 -0.002)"></path><path d="M159.5,427.113a69.663,69.663,0,0,1-6.577,3.166c-3.5,1.317-7.006,2.633-10.626,3.684-2.839.822-5.756,1.155-8.615,1.8a34.293,34.293,0,0,1-5.231.426c-2.079.139-4.16.3-6.243.37-2.457.08-4.865-.576-7.282-.675-3.168-.128-6.129-1.178-9.306-1.346s-6.253-1.4-9.292-2.48A52.931,52.931,0,0,1,84.5,426.572c-3.973-2.665-8.31-4.848-12.017-7.835a83.028,83.028,0,0,1-6.56-6.55,65.4,65.4,0,0,1-7.9-10.265,59.469,59.469,0,0,1-7.22-13.768c-.69-2.082-1.534-4.121-2.13-6.226-.6-2.135-1.007-4.324-1.466-6.5q-.636-3-1.2-6.025A7.405,7.405,0,0,1,46,368.071c0-3.188.134-6.378-.046-9.555-.125-2.209.794-4.207.946-6.34.038-.536.274-1.063.289-1.6a47.151,47.151,0,0,1,1.085-6.258,29.162,29.162,0,0,1,2.537-7.988c1.054-2.2,1.98-4.466,3.24-6.551a61.715,61.715,0,0,1,5.566-8.512c1.456-1.7,2.733-3.557,4.292-5.169,2.356-2.432,4.84-4.752,7.35-7.04a70.493,70.493,0,0,1,9.945-7.074,31.932,31.932,0,0,1,4.951-2.894c4.087-1.655,7.9-3.952,12.289-4.91,2.072-.452,4.14-.921,6.211-1.38,1.157-.257,2.317-.5,3.473-.767,1.638-.375,3.255-.894,4.915-1.116a42.573,42.573,0,0,1,8.476-.783c.818.054,1.626.244,2.439.37l2.438.383c1.625.255,3.247.53,4.877.758,1.076.15,2.167.164,3.25.3a54.278,54.278,0,0,1,9.39,2.433,82.928,82.928,0,0,1,14.827,5.983,100.64,100.64,0,0,1,8.887,5.388A86.871,86.871,0,0,1,180.374,316.9a44.218,44.218,0,0,1,7.987,10.585c1.07,2.069,2.495,3.982,3.452,6.092A74.335,74.335,0,0,1,196.3,345a11.54,11.54,0,0,1,.764,4.28.744.744,0,0,0,0,.379c1.4,2.864.62,5.9.777,8.862a31.662,31.662,0,0,1-.027,5.538c-.294,2.378-.1,4.794-.729,7.15a23.148,23.148,0,0,0-.427,3.465,46.939,46.939,0,0,1-2.182,10.226c-1.054,3.08-2.158,6.155-3.47,9.14a46.338,46.338,0,0,1-3.473,6.268c-1.671,2.608-3.5,5.128-5.313,7.649a25.14,25.14,0,0,1-2.316,2.716c-2.275,2.361-4.368,4.883-7.279,6.65-1.21.734-2.044,2.009-3.156,2.917-3,2.451-5.941,4.992-9.477,6.764-.1.054-.263.008-.5.1m-19.934-43.306-6.237.382c-.133.008-.3-.049-.4.009-1.166.716-2.31.288-3.483.005a2.4,2.4,0,0,1-2.1-2.226c-.046-.57.17-1.216-.039-1.709-.884-2.074.036-4.3-.717-6.4-.282-.789.976-2.147,1.482-1.857,1.262.724,2.351,0,3.508-.055,2.084-.092,4.153-.018,6.255-.31,2.839-.4,5.746-.022,8.646-.389,3.31-.418,6.69-.185,10.046-.357,8.008-.411,16.043-.346,24.066-.474h.4c3.973-.09,7.98.351,11.894-.739.614-.171,1.5.192,1.932-.115.362-.256.227-1.132.347-1.727.046-.225.27-.432.275-.65a71.006,71.006,0,0,1,.347-7.115,26.182,26.182,0,0,0-.341-5.186,2.183,2.183,0,0,0-.17-.5c-.142.12-.289.234-.424.361-.428.4-.881.785-1.271,1.219a24.094,24.094,0,0,1-8.5,5.8c-1.851.807-3.788,1.444-5.6,2.324a32.376,32.376,0,0,1-12.772,2.827c-3.667.179-7.364-.192-11.048-.319a2.38,2.38,0,0,1-.4,0,43.468,43.468,0,0,0-5.316-1.1,29.9,29.9,0,0,1-9.764-2.916,44.376,44.376,0,0,1-11.682-8.122c-2.011-1.843-3.688-4.016-5.562-6a36.578,36.578,0,0,1-5.223-7.689,29.354,29.354,0,0,1-3.152-7.729,34.729,34.729,0,0,1-1.254-9.074c.054-1.168.231-2.335.316-3.48a34.168,34.168,0,0,1,.9-5.6,35.639,35.639,0,0,1,2.48-7.428c.98-1.974,1.987-3.944,3.142-5.828,1.109-1.811,2.389-3.529,3.656-5.246.631-.855,1.409-1.611,2.106-2.423.113-.131.255-.416.2-.465a.98.98,0,0,0-.591-.3c-1.889-.038-3.773-.212-5.647-.306a30.665,30.665,0,0,0-7.069.71c-3.368.63-6.666,1.6-10.034,2.235A68.665,68.665,0,0,0,88.6,300.545c-3.976,1.694-7.406,4.25-10.949,6.612a1.763,1.763,0,0,0-.811,1.6c-.1,6.83-.2,13.659-.395,20.487-.119,4.217.163,8.424-.3,12.659-.5,4.5-.416,9.062-.466,13.6-.067,5.926-.1,11.853.007,17.778s-.078,11.866.277,17.817c.524,8.784-.259,17.612.5,26.408.052.6-.249,1.288.454,1.731.681.43,1.381.835,2.043,1.29,3.453,2.373,7.434,3.788,11.2,5.581,1.706.811,3.532,1.4,5.322,2.038.726.262.1-.078.219-1-.264-.776.151-2.511,0-3.444a7,7,0,0,1-.016-1.812c.027-2.166.006-4.333.006-6.5a3.614,3.614,0,0,0-.017-1.142,16.431,16.431,0,0,1-.193-3.31,19.967,19.967,0,0,1,0-4.528c.126-.927.062-1.819.1-2.818a33.874,33.874,0,0,0,0-4.319,14.319,14.319,0,0,1,.119-5.233c.069-.242.334-.658.4-.64a2.255,2.255,0,0,1,1.136.543c.192.251.046.732.063,1.109.2,4.215-.133,8.423.315,12.659.5,4.754.353,9.572.484,14.362a3.748,3.748,0,0,0,.02,1.141,7.436,7.436,0,0,1,0,2.886c-.022.479.274.962.013,1.594a1.024,1.024,0,0,0,.341.964,14.9,14.9,0,0,0,2.361,1.006.9.9,0,0,0,.422-.566c-.059-.658-.328-1.3-.334-1.956-.035-3.824-.017-7.647-.017-11.47a4.173,4.173,0,0,0-.02-1.331c-.809-2.28-.2-4.62-.347-6.923a1.232,1.232,0,0,1,.63-1.007,12.445,12.445,0,0,1,3.027-.4c1.215.01,2.425.261,3.641.342.732.046,1.053.338,1.09,1.035.113,2.115.267,4.227.391,6.342.1,1.734.063,3.456.323,5.2.354,2.394.023,4.86.45,7.291.3,1.706.3,3.459.433,5.189a.946.946,0,0,0,1.155.95c.823-.059.439-.682.425-1.019-.089-2.052-.318-4.1-.361-6.152-.065-3.121-.017-6.244-.017-9.367,0-2.2,0-2.148,2.222-2.212,1.75-.05,3.5-.238,5.243-.367,1.021-.075,1.347.392,1.368,1.34.092,4.154.268,8.305.374,12.459.049,1.91.019,3.822,0,5.734-.006.793.381,1.122,1.193,1.122.792,0,1.29-.281,1.208-1.094-.1-.97-.315-1.931-.381-2.9-.167-2.43-.327-4.863-.4-7.3-.067-2.292.21-4.614-.084-6.873-.243-1.87-.283-3.72-.343-5.585-.019-.575.151-.753.767-.744,2.337.033,4.674,0,7.011.019,1.294.012,1.422.152,1.448,1.432q.208,10.148.4,20.3c.006.319,0,.637,0,.956,0,.7.378,1.147,1.076.977a1.759,1.759,0,0,0,.9-.962,2.564,2.564,0,0,0,.027-1.134c-.128-2.434-.3-4.864-.382-7.3a1.525,1.525,0,0,1,1.642-1.645c1.936-.031,3.873.016,5.809-.019,1.025-.019,1.381.4,1.362,1.354-.043,2.23-.019,4.46-.012,6.691,0,1.143.277,1.386,1.319,1.139a68.046,68.046,0,0,0,9.92-3.449,57.93,57.93,0,0,0,16.421-10.584A72.888,72.888,0,0,0,183.36,402.1a131.983,131.983,0,0,0,6.457-11.6,24.09,24.09,0,0,0,1.231-3.335c.562-1.692,1.078-3.4,1.625-5.094a7.977,7.977,0,0,1,.348-.789,3.6,3.6,0,0,0-.932-.145c-2.1.231-4.18.607-6.283.729-3.678.213-7.367.254-11.05.416-3.55.154-7.094-.211-10.662.31-2.966.432-6.024-.115-9.046.4-1.972.339-4.01.061-6.047.351a94.1,94.1,0,0,1-9.437.458m-8.819-30.589c1.306.991,2.6,2,3.921,2.971a35.921,35.921,0,0,0,11.827,5.989,59.652,59.652,0,0,0,13.291,2.133c.517.02,1.032.08,1.547.125.965.084,2.044.468,2.864.18a13.838,13.838,0,0,1,3.067-.312,41.136,41.136,0,0,0,6.026-.895,93.977,93.977,0,0,0,9.015-3.213,35.866,35.866,0,0,0,11.3-7.245c1.474-1.393,2.554-2.6,1.067-4.521-.1-.123.022-.38-.018-.564a35.868,35.868,0,0,0-2.864-8.614,82.916,82.916,0,0,0-6.764-11.473,79.356,79.356,0,0,0-7.531-9.055c-1.976-2.017-4.195-3.82-6.329-5.7a20.132,20.132,0,0,0-2.674-2.149c-3.506-2.149-6.668-4.742-10.223-6.855a123.741,123.741,0,0,0-11.241-5.986,1.106,1.106,0,0,0-.941.04,12.516,12.516,0,0,0-4.655,9.781,13.033,13.033,0,0,0,1.21,4.656c.8,1.975,1.865,3.849,2.791,5.777.735,1.529.416,2.255-1.179,2.8a7.744,7.744,0,0,0-1.723.633,24.025,24.025,0,0,0-6.363,6.237,32.173,32.173,0,0,0-4.417,7.616c-.826,2.287-1.663,4.574-2.391,6.89-.554,1.766-.742,3.657-1.461,5.35a2.673,2.673,0,0,0,.938,3.588c.612.49,1.141,1.073,1.908,1.8M68.036,329.7a30.973,30.973,0,0,0,.382-3.28c.05-3.5.021-7.007.012-10.51a1.854,1.854,0,0,0-.155-.508,2.345,2.345,0,0,0-.42.335c-.764.97-1.452,2-2.282,2.913a61.655,61.655,0,0,0-6.71,9.59c-1.549,2.538-2.726,5.286-4.032,7.954a53.377,53.377,0,0,0-3.595,9.085c-.662,2.367-1.267,4.749-1.732,7.177a56.349,56.349,0,0,0-1.02,7.191,50.3,50.3,0,0,0,.647,12.5c.667,3.483,1.485,6.905,2.449,10.32a75.347,75.347,0,0,0,4.712,12.091A57.29,57.29,0,0,0,62.784,404.6c1.247,1.617,2.541,3.2,3.821,4.8a4.479,4.479,0,0,0,.422.408,3.249,3.249,0,0,0,.2-.662,8.746,8.746,0,0,0,.007-1.146c-.2-4.723.349-9.454-.34-14.183-.236-1.617.277-3.326.33-4.994.266-8.417-.207-16.833.326-25.263.447-7.059.05-14.16.445-21.242.227-4.066.041-8.152.041-12.613m57.1,17.78c.2,0,.439.785.581.043.33-1.731.466-3.5.84-5.218a46.879,46.879,0,0,1,3.976-10.464,30.646,30.646,0,0,1,3.965-6.26c2.2-2.64,4.305-5.425,7.943-6.507a.65.65,0,0,0,.367-1.045c-.851-1.565-1.483-3.237-2.31-4.815a12.9,12.9,0,0,1-1.513-5.891,11.654,11.654,0,0,1,.383-2.516,13.967,13.967,0,0,1,3.994-7.207,3.118,3.118,0,0,1,.8-.416,6.314,6.314,0,0,0-.959-.557,56.594,56.594,0,0,0-9.014-2.3c-1.42-.274-2.842-.557-4.276-.743a2.176,2.176,0,0,0-1.448.294,9.565,9.565,0,0,0-1.907,1.907,62.456,62.456,0,0,0-3.614,5.258,47.033,47.033,0,0,0-4.407,8.573c-.724,2.139-1.428,4.291-1.987,6.473a24.045,24.045,0,0,0-.8,4.838A33.383,33.383,0,0,0,116.9,332.5a31.782,31.782,0,0,0,4.5,9.883c1.2,1.617,2.364,3.269,3.742,5.1m4.207,28.488c.134,1.666.323,3.33.38,5,.033.952.4,1.355,1.4,1.32a43.111,43.111,0,0,0,4.645-.328c2.177-.31,4.411-.024,6.637-.391,2.168-.358,4.407-.1,6.637-.356,3.511-.4,7.081.04,10.635-.416,2.979-.383,6.006-.011,9.041-.348,4.107-.456,8.283-.331,12.428-.466,3.68-.12,7.359-.282,11.042-.36a1.576,1.576,0,0,0,1.618-1.094,37.423,37.423,0,0,0,.821-5.213c.133-1.519-.9-2.1-2.412-1.522a5.712,5.712,0,0,1-1.763.528c-5.679.164-11.361.242-17.04.416-5.413.165-10.818-.152-16.249.289-6.048.491-12.154.317-18.234.475-2.881.074-5.758.265-8.639.366-1.646.058-1.692.106-.948,2.11M73.65,394.322c-.134-2.749-.4-5.5-.377-8.249.131-13.449-.438-26.9.376-40.347.2-3.257-.113-6.507.323-9.786a96.627,96.627,0,0,0,.466-11.1c.067-4.139.026-8.279.006-12.419,0-.8-.122-1.6-.185-2.407-.7.537-1.428,1.046-2.09,1.622a1.96,1.96,0,0,0-.952,1.54c-.021,2.751-.1,5.5-.285,8.254-.475,6.936,0,13.893-.393,20.858-.588,10.373.286,20.781-.437,31.175a129.235,129.235,0,0,0,.272,13.024c.258,8.145.139,16.3.028,24.454a5.082,5.082,0,0,0,2.158,4.514,8.915,8.915,0,0,0,.792.477,3.577,3.577,0,0,0,.29-.97c.017-6.751.013-13.5.013-20.635m50.086,18.355c.134,3.571.259,7.143.4,10.714.121,3,.254,6,.416,9,.018.333.362.658.363.986,0,.818.8.629.956.493.774-.665,1.651-.3,2.464-.333,1.785-.072,1.8-.032,1.807-1.677q.015-5.816,0-11.634a4.18,4.18,0,0,0-.08-1.113,17.5,17.5,0,0,1-.122-7.264c.158-1.109-.194-1.214-.9-1.247-1.528-.076-3.064.01-4.6-.039-.676-.022-.775.258-.719.783.033.315.006.635.006,1.336m-16.027,4.971q-.2-3.455-.4-6.91c-.06-1.063-.108-2.125-.161-3.185-1.129-.013-2.258-.042-3.386-.035-1.611.012-1.709.05-1.648,1.611.173,4.34-.37,8.686.342,13.031a59.041,59.041,0,0,1,.431,7.095c.027.643.192,1.033.9,1.218,1.072.277,2.1.717,3.177.967a8.779,8.779,0,0,0,1.879.035c-.1-.516-.2-1.033-.291-1.552a4.3,4.3,0,0,1-.044-.554c-.134-3.195-.252-6.39-.416-9.583-.03-.589-.252-1.169-.386-2.135m11.612,5.733c-.134-1.6-.289-3.2-.394-4.8-.082-1.247-.1-2.5-.15-3.754l-4.169-.054a2.1,2.1,0,0,0-.4,0,1.265,1.265,0,0,0-.975,1.663,7.879,7.879,0,0,1,.072,1.5c.005,3.81-.022,7.623.021,11.43a9.632,9.632,0,0,0,.422,2.688,1.684,1.684,0,0,0,1.039,1.031c1.386.243,2.811.283,4.217.432.674.073.785-.245.716-.771a30.376,30.376,0,0,1-.384-3.08c-.061-1.967-.018-3.938-.018-6.289m16.628,9.369c.677-.128,1.351-.277,2.033-.378,2.555-.37,2.575-.386,2.575-2.874,0-.571.012-1.145,0-1.717-.036-1.38-.085-2.761-.129-4.143-1.525-.022-3.046-.073-4.568-.056-1.089.012-1.6.458-1.274,1.351.678,1.852.243,3.722.339,5.576a2.633,2.633,0,0,0,1.027,2.237Z" transform="translate(-36.74 -234.633)"></path><path d="M550.184,1418.437a36.312,36.312,0,0,0,5-.036c4.943-.717,9.9-.191,14.853-.323a35.061,35.061,0,0,1,4.636.365c1.714.187,1.627,1.694,1.894,2.744a9.077,9.077,0,0,1-.254,2.723c-.065.815-.042,1.636-.086,2.453a2.971,2.971,0,0,1-2.745,2.772c-2.411.157-4.826.346-7.24.361-1.812.014-3.659-.5-5.432-.3a132.235,132.235,0,0,1-14.253.306c-2.813.01-5.629-.2-8.439-.378a8.681,8.681,0,0,1-2.35-.566c-1.8-.652-2.492-1.656-1.951-3.5a14.976,14.976,0,0,0,.331-3.87c.077-2.217,1.39-3.13,3.661-2.526a5.417,5.417,0,0,0,1.532.153c3.548-.111,7.1-.245,10.844-.373m-14.024,7.081c.462.445.872,1.2,1.4,1.281a36.859,36.859,0,0,0,5.431.423c9.745.036,19.49.017,29.235.017.4,0,.8-.025,1.2.006.717.055.975-.308,1.226-.906a9.918,9.918,0,0,0,.355-4.055,5.789,5.789,0,0,0-.383-1.56c-.231-.78-.893-.772-1.566-.751-7.685.239-15.378-.383-23.067.334-3.174.3-6.4.05-9.606.05-.935,0-2.02.285-2.763-.077-.836-.4-.878.021-1.048.432C535.985,1422.138,536.176,1423.644,536.16,1425.515Z" transform="translate(-426.725 -1146.901)"></path><path d="M1245.313,657.885c-.4,1.113-.8,2.036-1.2,2.957a2.578,2.578,0,0,1-2.9,1.585,2.127,2.127,0,0,1-1.458-1.009c-.757-1.744,1.01-4.92,2.959-5.417a1.481,1.481,0,0,1,1.761.5A11.108,11.108,0,0,1,1245.313,657.885Z" transform="translate(-991.231 -530.507)"></path><path d="M1230.88,630.906a3.767,3.767,0,0,1,4.189-.061c1.713.924,3.552,1.63,5.321,2.46a4.943,4.943,0,0,1,1.23.82c.1.092-.088.671-.112.669a9.643,9.643,0,0,1-2.643-.336c-1.252-.487-2.346-1.364-3.61-1.8-1.072-.372-2.093-1.519-3.468-.534-.255.185-.785.072-1.174.005a.678.678,0,0,1-.416-.447C1230.113,631.279,1230.164,630.9,1230.88,630.906Z" transform="translate(-983.712 -509.742)"></path><path d="M1313.539,687.5a7.64,7.64,0,0,1-1.49.092c-1.3-.023-1.823-.462-2.016-1.672-.353-2.23,1.2-4.178,2.807-5.24a2.17,2.17,0,0,1,3.18,2.164C1315.594,684.529,1315.2,686.257,1313.539,687.5Z" transform="translate(-1047.536 -550.278)"></path></g></g></g></svg>