<svg xmlns="http://www.w3.org/2000/svg" width="305.187" height="340" viewBox="0 0 305.187 340"><path d="M53.982,391.578c-2.718-.287-5.327-.577-7.938-.861-1.376-.15-2.757-.263-4.129-.438-2.074-.265-4.143-.575-6.215-.854-1.669-.225-3.345-.4-5.009-.654-3.907-.591-7.681-1.416-11.052-3.773a14.314,14.314,0,0,1-6.117-9.73,16.264,16.264,0,0,1,.675-6.7c.51-2.007,1.11-3.991,1.659-5.989a3.594,3.594,0,0,0,.026-.594,4.3,4.3,0,0,1,.211-1.709c1.128-1.852,1.273-3.955,1.678-5.987.287-1.44.366-2.925.695-4.354a.949.949,0,0,0-.534-1.247A51.865,51.865,0,0,1,7.3,340.038a22.7,22.7,0,0,1-4.99-8.27,49.69,49.69,0,0,1-2.119-8.048,36.193,36.193,0,0,1-.051-6.7,41.631,41.631,0,0,1,.425-4.56,34.3,34.3,0,0,1,2.856-10.016,11.412,11.412,0,0,1,1.452-2.3,1.393,1.393,0,0,1,2.245-.1,1.133,1.133,0,0,0,1.482.185,12.59,12.59,0,0,1,7.438-.878,24.411,24.411,0,0,1,11.735,5.763c.082.07.533-.08.553-.179.39-1.964.779-3.929,1.069-5.909a1.72,1.72,0,0,0-.453-1.291,66.541,66.541,0,0,1-8.4-10.007A45.955,45.955,0,0,1,15,277.1a17.92,17.92,0,0,1-1.534-6.049c0-.176-.179-.351-.275-.527-.191.185-.467.335-.559.56-.326.8-.6,1.619-.874,2.439-.395,1.194-.871,1.551-1.754,1.275a1.734,1.734,0,0,1-.727-2.148,22.45,22.45,0,0,1,4.3-7.822,25.978,25.978,0,0,1,7.457-6.19A15.152,15.152,0,0,1,31,257.149a41.636,41.636,0,0,1,4.456,1.2c.667.214.871-.161.954-.579q.645-3.246,1.172-6.514a1.231,1.231,0,0,0-.4-.888c-4.309-4.07-6.332-9.32-7.763-14.89a49.312,49.312,0,0,1-1.125-7.629c-.317-3.307.191-6.521.456-9.776A11.017,11.017,0,0,1,38.8,207.559c3.074-.24,5.419,1.133,7.572,3.071a5.287,5.287,0,0,0,.455.332,2.38,2.38,0,0,0,.253-.54c.512-2.7.968-5.408,1.529-8.1.432-2.069.643-4.291,1.586-6.117,1.08-2.092,1.2-4.325,1.86-6.457a3.753,3.753,0,0,1,2.2-2.617,2.471,2.471,0,0,0,1.245-.839c.885-1.569,2.445-1.855,3.924-1.946,4.206-.259,8.428-.509,12.637-.414a84.509,84.509,0,0,1,10.108,1.043A78.808,78.808,0,0,1,98.5,189.492c4.816,1.8,9.564,3.791,14.4,5.544,3.565,1.293,7.209,2.374,10.839,3.48,2.43.74,4.887,1.4,7.35,2.019,2.122.535,4.269.97,6.407,1.44,2.633.58,5.312,1,7.893,1.761,3.409,1,6.736,2.283,10.111,3.405a12.4,12.4,0,0,1,8.023,7.55,4.881,4.881,0,0,1,.324,1.8c-.031,2.52.031,5.057-.241,7.555-.289,2.659-.883,5.287-1.4,7.917-.558,2.812-1.176,5.613-1.788,8.414-.632,2.9-1.315,5.78-1.928,8.679-.678,3.209-1.255,6.439-1.96,9.641-.772,3.512-1.657,7-2.457,10.5-.436,1.91-.657,3.879-1.226,5.745-.884,2.9-.479,5.952-1.26,8.846-.9,3.326-1.867,6.635-2.677,9.983-.581,2.4-.956,4.851-1.415,7.281-.579,3.065-1.17,6.127-1.716,9.2-.264,1.482-.484,2.976-.627,4.473-.041.426.419.9.371,1.323a13.131,13.131,0,0,1-.652,3.169,1.612,1.612,0,0,0,.552,2.1c1.808,1.445,3.621,2.884,5.418,4.343a35.877,35.877,0,0,1,8.4,9.973,82.787,82.787,0,0,1,4.794,9.749c1.247,3,2.12,6.164,3.077,9.28a25.157,25.157,0,0,1,1.017,4.521,2.143,2.143,0,0,0,1.179,1.8,1.116,1.116,0,0,1,.5,1.512,15.894,15.894,0,0,0-1,5.628,40.388,40.388,0,0,1-2.919,15.7c-1.142,3.042-2.345,6.077-3.775,8.99-2.246,4.573-4.631,9.083-7.1,13.539-1.886,3.4-3.945,6.711-6.033,9.995-.866,1.362-2.025,2.536-3.021,3.819-1.354,1.744-3.171,3.069-4.187,5.153a3.763,3.763,0,0,1-3.086,2.069c-.437.037-.875.515-1.239.867-2.721,2.623-5.406,5.283-8.137,7.895-1.684,1.61-3.411,3.175-5.151,4.725-2.985,2.657-6.067,5.21-8.973,7.949-2.512,2.368-4.874,4.9-7.236,7.424a54.891,54.891,0,0,0-7.51,10.571c-2.082,3.669-3.829,7.529-5.732,11.3-.885,1.753-1.711,3.543-2.718,5.224a2.037,2.037,0,0,1-2.672.735,2.815,2.815,0,0,1-1.728-2.588,20.045,20.045,0,0,1,1.831-9.049,91.214,91.214,0,0,1,4.243-8.8c1.724-3.146,3.574-6.237,5.576-9.213,2.1-3.117,4.313-6.173,6.705-9.066,2.647-3.2,5.538-6.2,8.351-9.263,1.512-1.646,3.052-3.269,4.635-4.846,2.02-2.013,4.094-3.971,6.15-5.948,1.693-1.629,3.412-3.231,5.085-4.88,2.5-2.466,5.014-4.923,7.445-7.457q4.448-4.638,8.76-9.405c2.488-2.75,4.9-5.57,7.317-8.385,1.378-1.605,2.465-3.56,4.095-4.827,2.75-2.138,3.734-5.082,4.558-8.154,1.1-4.083,2.035-8.209,3.038-12.318.366-1.5.81-2.992,1.043-4.514a8.277,8.277,0,0,0-.192-2.6,58.267,58.267,0,0,0-1.321-6.779c-1.145-3.818-2.529-7.564-3.841-11.331a42.3,42.3,0,0,0-5.833-10.612,40.677,40.677,0,0,0-6.432-7.034c-4.952-4.3-10.7-7.377-16.184-10.872-3.859-2.46-7.59-5.126-11.323-7.777-2.652-1.884-5.24-3.862-7.8-5.871a14.342,14.342,0,0,1-2.182-2.321c-.474-.586-.679-.458-.877.147a9.9,9.9,0,0,0-.624,2,48.629,48.629,0,0,0-.419,6.281,27.027,27.027,0,0,0,3.938,13.107,65.7,65.7,0,0,0,5.259,7.616c2.6,3.218,5.5,6.188,8.168,9.352,1.221,1.448,2.195,3.1,3.289,4.659.111.158.277.383.42.385s.348-.208.429-.372a1.706,1.706,0,0,1,2.867-.516,8.682,8.682,0,0,1,2.268,4.656,42.905,42.905,0,0,1,.887,6.1c.229,2.482.321,4.977.447,7.468.094,1.872.185,3.746.21,5.62.025,1.926-1.237,2.669-2.965,1.866-1.051-.488-1.915-1.518-3.227-1.29a19.159,19.159,0,0,0-2.319.635c-3.949,1.215-7.947,2.294-11.828,3.7a79.411,79.411,0,0,0-14.773,6.979c-1.979,1.22-4.013,2.381-5.857,3.785-3.39,2.581-6.22,5.663-7.231,9.971a29.832,29.832,0,0,0-.678,4.995c-.213,3.527-.433,7.062-.4,10.592a9.819,9.819,0,0,0,.86,5.014,1.154,1.154,0,0,1-.421,1.048c-.34.173-1.089.171-1.251-.053a7.353,7.353,0,0,1-1.147-2.307,11.761,11.761,0,0,1-.244-2.595c-.09-2.16-.2-4.321-.206-6.482a47.776,47.776,0,0,1,.236-5.078c.06-.579-.08-.832-.541-.9-1.666-.246-3.348-.388-5.007-.671-2.4-.411-4.787-.927-7.186-1.366-1.942-.355-3.89-.672-5.839-.988-1.854-.3-3.709-.592-5.568-.86-1.631-.236-3.269-.431-4.9-.652-1-.135-1.993-.286-3.1-.429M11.106,340.407a24.68,24.68,0,0,0,2.523,2.242q4.1,2.779,8.315,5.39a34.656,34.656,0,0,0,4.759,2.538c2.843,1.192,5.741,2.263,8.654,3.273a2.648,2.648,0,0,0,3.343-1.742c1.255-2.834.983-5.712.29-8.572a53.964,53.964,0,0,0-4.809-11.571,32.266,32.266,0,0,0-6.818-9.551c-1.006-.917-2.1-1.736-3.064-2.695a1.538,1.538,0,0,1-.344-1.345c.163-.4.74-.655,1.18-.9.193-.106.5.024.738-.039.094-.025.222-.361.172-.421-1.769-2.132-3.256-4.508-5.522-6.211a18.07,18.07,0,0,0-7.517-3.695c-2.559-.479-5.108-1.011-7.667-1.494-.476-.09-.848-.023-.939.662a16.709,16.709,0,0,1-.683,2.724,40.3,40.3,0,0,0-1.39,10.276,20.743,20.743,0,0,0,.636,5.64,56.725,56.725,0,0,0,2.3,7.438,21.124,21.124,0,0,0,5.845,8.046M40.193,301.84a3.22,3.22,0,0,0,1.942-2.174,29.6,29.6,0,0,0,1.436-10.147,71.252,71.252,0,0,0-.8-8.58,28.005,28.005,0,0,0-2.866-9.469,29.025,29.025,0,0,0-3.869-5.815c-2.326-2.746-5.062-4.834-9.057-4.457a20.515,20.515,0,0,0-10.062,4.054,1.1,1.1,0,0,0-.283.936c.154.7.139,1.263-.65,1.5-.849.251-.861.891-.785,1.576a7.464,7.464,0,0,0,.218,1.309,57.123,57.123,0,0,0,4.491,11.389A63.5,63.5,0,0,0,28.3,293.54a58.12,58.12,0,0,0,6.44,6.012,8.13,8.13,0,0,0,5.454,2.288m69.269-31.78c.192-.144.388-.281.574-.432a33.772,33.772,0,0,0,3.753-3.107,25.013,25.013,0,0,0,2.621-3.851,18.889,18.889,0,0,0,2.85-9.049,10.825,10.825,0,0,1,.036-2.146,8.685,8.685,0,0,0-.266-4.583c-.49-1.867-1.123-3.7-1.716-5.535a.717.717,0,0,0-.389-.275c-.6.634-1.489,1.209-1.679,1.959-.284,1.125.04,2.389-.1,3.57a41.131,41.131,0,0,1-.942,5.315,39.931,39.931,0,0,1-1.869,5.792,35.78,35.78,0,0,1-3.186,6.1,24.14,24.14,0,0,1-3.748,3.824,12.38,12.38,0,0,1-8.566,3.438,36.627,36.627,0,0,1-7.6-.851A21.24,21.24,0,0,1,79.4,265.39a16.4,16.4,0,0,1-5.35-12.194,42.208,42.208,0,0,1,.4-5.421,21.588,21.588,0,0,1,2.79-9.077,1.112,1.112,0,0,0,.207-.659c-.368-2.081.993-3.388,2.277-4.535a73.855,73.855,0,0,1,6.188-4.794,19.007,19.007,0,0,1,5.5-2.825,11.47,11.47,0,0,1,6.19-.174,33.9,33.9,0,0,1,7.417,2.343c2.517,1.3,4.676,3.284,7.025,4.921.367.256,1.052.488,1.353.316a9.669,9.669,0,0,0,1.758-1.572.319.319,0,0,0,0-.31,14.806,14.806,0,0,0-2.17-2.467c-1.642-1.231-3.418-2.286-5.161-3.379A21.7,21.7,0,0,0,97.8,222.249a15.553,15.553,0,0,0-9.371,2.058,26.984,26.984,0,0,0-7.9,6.378,1.66,1.66,0,0,1-1.6.845,1.657,1.657,0,0,0-1.174.475,30.4,30.4,0,0,0-2.971,3.182c-3.8,5-5.689,10.517-4.66,16.9a52.517,52.517,0,0,0,3.567,11.241c1.988,4.927,6.07,7.891,10.509,10.37a18.87,18.87,0,0,0,6.048,1.8,16.951,16.951,0,0,0,7.053.12,32.266,32.266,0,0,0,12.172-5.552m23.7,150.82q-2.66,2.552-5.319,5.105c-2.106,2.028-4.234,4.034-6.3,6.1-1.991,1.99-3.933,4.031-5.868,6.076-1.848,1.953-3.759,3.858-5.465,5.93-2.6,3.159-5.2,6.34-7.524,9.7-2.674,3.872-5.169,7.882-7.506,11.967a50,50,0,0,0-3.651,8.064,50.632,50.632,0,0,0-1.546,6.9c-.052.258.158.569.246.856a3.5,3.5,0,0,0,.585-.72c.712-1.607,1.309-3.271,2.1-4.839,2.018-4.02,3.892-8.109,6.275-11.95a61.46,61.46,0,0,1,7.9-10.6c3.37-3.472,6.95-6.742,10.463-10.075,1.169-1.109,2.415-2.137,3.623-3.206,3.153-2.791,6.39-5.5,9.43-8.4,2.613-2.5,5.069-5.178,7.466-7.89a45.425,45.425,0,0,0,4.01-5.335c1.827-2.812,3.405-5.787,5.251-8.586,3.022-4.583,6.179-9.077,9.258-13.623a2.781,2.781,0,0,0,.216-.955,2.779,2.779,0,0,0-.752.454c-2.579,3.055-5.072,6.184-7.72,9.177-2.814,3.181-5.742,6.263-8.675,9.336-2.082,2.181-4.255,4.275-6.5,6.515M32.652,230.524c.785,2.724,1.578,5.447,2.354,8.174a30.672,30.672,0,0,0,3.2,7.5,5.171,5.171,0,0,0,.486.593,3.128,3.128,0,0,0,.323-.667c.089-.4.073-.826.169-1.225.613-2.542,1.268-5.075,1.865-7.621.814-3.47,1.588-6.949,2.383-10.424.352-1.54.829-3.061,1.042-4.619a33.067,33.067,0,0,1,1.286-6.577c.26-.741.6-1.68-.572-2.133-.121-.047-.165-.281-.256-.421a6.837,6.837,0,0,0-5.329-3.157c-2.763-.267-4.382,1.915-6.248,3.247-1.729,1.234-2.167,3.654-2.162,5.792a68.216,68.216,0,0,0,.622,7.695c.143,1.225.55,2.42.837,3.844m28.548,152c1.21.949,2.651.733,4.044.911a3.723,3.723,0,0,0,3.344-1.416c.537-.549.975-1.2,1.533-1.722,2.909-2.737,2.764-7.791.864-10.6-1.584-2.341-4.43-3.876-6.993-3.1a7.868,7.868,0,0,0-5.2,4.374,10.783,10.783,0,0,0-.237,7.569,6.414,6.414,0,0,0,2.643,3.981m52.464-141.879q3.654-4.193,7.3-8.394c.11-.128.067-.388.1-.587a1.585,1.585,0,0,0-.59.041c-.359.18-.684.428-1.026.644a135.3,135.3,0,0,0-13.783,9.859c-2.7,2.22-5.293,4.558-7.939,6.838-1.623,1.4-3.713,1.94-5.234-.062-.269-.354-.55-.7-.795-1.071-.482-.73-.918-1.492-1.426-2.2a3.787,3.787,0,0,0-.8-.647,4.487,4.487,0,0,0-.132,1.1c.09.737.3,1.458.409,2.193a36.748,36.748,0,0,0,.53,3.77c.473,1.832,1.2,3.6,1.7,5.426.285,1.035.858,1.1,1.559.623,2.494-1.714,5.075-3.335,7.383-5.276,2.794-2.348,5.359-4.97,7.994-7.5,1.578-1.517,3.1-3.09,4.757-4.746M72.834,300.009c.051.051.1.137.153.147,2.54.458,5.087.885,7.623,1.366,4.057.77,8.1,1.6,12.161,2.358,3.97.746,7.947,1.452,11.927,2.143.343.06,1.014-.057,1.048-.2a5.836,5.836,0,0,0,.238-2.5c-.081-.351-1.067-.6-1.674-.7-1.364-.22-2.761-.238-4.12-.48-2.461-.439-4.9-.978-7.353-1.483q-3.521-.726-7.039-1.469c-2.444-.513-4.883-1.05-7.331-1.54-2.127-.426-4.273-.761-6.4-1.21-3.03-.641-6.041-1.371-9.069-2.019-1.888-.4-3.814-.645-5.686-1.109s-2.048-.417-2.254,1.481a2.123,2.123,0,0,0,.019.96c.123.309.386.719.66.785,1.187.285,2.4.435,3.6.682,2.345.484,4.682,1,7.025,1.5,2.082.44,4.166.865,6.465,1.3m23.916-6.248a1.707,1.707,0,0,1,.43,0c3.648.983,7.285,2.007,10.949,2.927.583.146,1.339.479,1.914-.44.721-1.15.461-2.244-1.092-2.686-1.136-.324-2.336-.418-3.493-.674-3.152-.7-6.315-1.364-9.442-2.164-4.5-1.152-8.975-2.419-13.464-3.622-3.555-.953-7.106-1.924-10.677-2.815-4.2-1.049-8.426-2.015-12.637-3.031-1.208-.291-1.63-.023-1.806,1.242-.029.208.036.451-.049.625-.468.955-.081,1.395.862,1.59q1.779.368,3.544.8,3.126.764,6.243,1.565c3.241.837,6.462,1.755,9.72,2.518,2.634.617,5.318,1.013,7.964,1.583,3.651.786,7.286,1.642,11.036,2.575M30.282,318.646a19.853,19.853,0,0,1-.629-2.318c-.207-1.366-.24-2.759-.463-4.122a9.85,9.85,0,0,0-3.259-5.39,17.6,17.6,0,0,0-3.569-2.522c-2.773-1.578-5.708-2.927-8.959-2.709a25.02,25.02,0,0,0-5.19,1.445,2.762,2.762,0,0,0-.525.289,1.859,1.859,0,0,0,.553.341q1.9.356,3.821.655a20.157,20.157,0,0,1,11.2,5.651c2.586,2.537,5.121,5.2,6.263,8.8.208.655.454.438.754-.116m14.867,52.787c1.364-1.041,2.715-2.1,4.094-3.121,2.552-1.89,5.144-3.727,7.672-5.647,2.143-1.627,4.222-3.338,6.324-5.018.36-.287.694-.607,1.04-.911-.392.051-.787.091-1.177.156-.6.1-1.346.029-1.778.36-2.335,1.787-4.6,3.664-6.873,5.531-1.773,1.456-3.5,2.964-5.286,4.408-2.439,1.977-4.907,3.918-7.368,5.868-2,1.583-4.016,3.142-6.006,4.734q-2.435,1.948-4.815,3.963c-.159.134-.143.475-.208.721.22-.041.493-.012.65-.134.823-.635,1.606-1.321,2.422-1.966,1.918-1.516,3.85-3.014,5.77-4.528,1.815-1.431,3.621-2.872,5.539-4.416M28.881,386.838c3.2.5,6.4,1.025,9.6,1.5,2.172.323,4.352.59,6.532.856a2.494,2.494,0,0,0,.781-.166,2.4,2.4,0,0,0-.693-.455c-2.37-.525-4.761-.96-7.118-1.534-4.364-1.064-8.869-1.583-13.08-3.234-2.477-.972-5.225-1.432-7.149-3.546-.127-.14-.435-.114-.659-.165.038.224,0,.525.125.66a29.87,29.87,0,0,0,2.9,2.823,10.065,10.065,0,0,0,2.806,1.51c1.882.667,3.82,1.176,5.95,1.75m98.033-182.277c.478-.144.965-.265,1.43-.443.162-.062.269-.267.4-.407a1.951,1.951,0,0,0-.482-.221c-1.45-.227-2.9-.466-4.357-.638a2.986,2.986,0,0,0-1.595.107c-1.487.753-2.929,1.6-4.355,2.47-2.925,1.775-5.83,3.583-8.738,5.385a3.044,3.044,0,0,0-.432.4,1.967,1.967,0,0,0,.578-.1,8.511,8.511,0,0,1,1.124-.66c1.487-.486,3-.9,4.489-1.369,1.043-.33,2.072-.706,3.1-1.074a13.894,13.894,0,0,1,3.556-1.224c2.03-.116,3.511-1.266,5.278-2.221m12.927,64.422c-1.7.934-3.4,1.851-5.082,2.809-.732.417-1.421.91-2.115,1.39-.077.053-.058.244-.084.371a1.16,1.16,0,0,0,.378-.044c2-.983,3.991-1.98,5.989-2.963,3.4-1.673,6.82-3.3,10.2-5.024,1.62-.826,3.772-1.062,4.184-3.4.029-.165.05-.332.074-.5a1.556,1.556,0,0,0-.591.028c-.777.382-1.546.783-2.3,1.211-3.517,2-7.029,4.007-10.65,6.12M88.132,382.529c.325-.253.65-.508.976-.76q3.138-2.421,6.277-4.841c1.631-1.254,3.272-2.494,4.892-3.762.159-.125.2-.4.3-.6-.224.042-.5.013-.664.135-4.153,3.054-8.31,6.1-12.435,9.2-3.919,2.938-7.8,5.923-11.7,8.9a2.563,2.563,0,0,0-.406.526,2.658,2.658,0,0,0,.754.238,1.132,1.132,0,0,0,.635-.26q3.312-2.533,6.607-5.088c1.549-1.193,3.1-2.383,4.758-3.682m45.354-23.162c0,1.613-.03,3.228.021,4.84a2.066,2.066,0,0,0,.456,1.19c.216.254.666.31,1.012.453a3.9,3.9,0,0,0,.221-.978c-.034-1.011-.141-2.02-.2-3.031-.082-1.44-.1-2.885-.229-4.32q-.376-4.075-.866-8.14a27.537,27.537,0,0,0-.646-3.065c-.039-.162-.268-.278-.408-.415a1.43,1.43,0,0,0-.214.485,25.647,25.647,0,0,0,.007,3.117c.333,3.212,1.073,6.387.845,9.864M89.748,336.745c.752-.609,1.474-1.259,2.262-1.817,2.074-1.469,4.18-2.894,6.262-4.352.149-.1.208-.337.309-.511a2.135,2.135,0,0,0-.6-.092c-.151.019-.285.168-.427.258-2.779,1.776-5.6,3.49-8.318,5.356a35.051,35.051,0,0,0-3.628,3.155,14.565,14.565,0,0,1-1.74,1.75c-3.759,2.371-6.895,5.478-10.167,8.427a2.213,2.213,0,0,0-.274.377,1.258,1.258,0,0,0,.439-.127c3.538-2.807,7.058-5.638,10.607-8.43,1.693-1.332,3.442-2.593,5.274-3.993m4.417-145.326c-2.088-.5-4.17-1.032-6.265-1.5q-4.487-1.007-8.991-1.934c-1.038-.213-2.1-.306-3.157-.432-.139-.017-.293.1-.44.151.11.09.208.233.333.263,3.587.871,7.214,1.6,10.753,2.639,2.285.668,4.662.627,6.943,1.4,3.034,1.033,6.211,1.647,9.333,2.419a3.939,3.939,0,0,0,.994-.01,3.2,3.2,0,0,0-.864-.609c-2.837-.782-5.685-1.524-8.637-2.386m46.646,15.621c-2.274,1.257-4.5,2.607-6.834,3.746a27.131,27.131,0,0,0-7.306,5.445,1.567,1.567,0,0,0-.208.376,2.218,2.218,0,0,0,.366-.115c1.922-.983,3.856-1.944,5.755-2.969.856-.462,1.648-1.045,2.462-1.584,2.081-1.379,4.152-2.773,6.242-4.138a9.024,9.024,0,0,1,1.225-.568,8.214,8.214,0,0,0-1.7-.194M92.333,236.126l-3.723,2.43c-.9.59-1.82,1.158-2.7,1.787-.219.158-.3.508-.445.77a2.536,2.536,0,0,0,.729-.161c.757-.43,1.487-.908,2.235-1.355,2.67-1.6,5.33-3.213,8.019-4.777,1.727-1,3.5-1.936,5.252-2.889.377-.2.783-.358,1.175-.535a13.367,13.367,0,0,0-1.37-.534,1.3,1.3,0,0,0-.879.012c-.821.458-1.6,1-2.392,1.5-1.932,1.217-3.866,2.431-5.907,3.754m-2.155-46.97c1.887.467,3.773.938,5.663,1.4a5.654,5.654,0,0,0,.8.08c-.232-.221-.427-.552-.7-.643-1.2-.4-2.421-.747-3.644-1.078-2-.543-4-1.11-6.019-1.572-2.369-.542-4.751-1.043-7.146-1.448-1.6-.271-3.234-.353-4.856-.488-.147-.012-.314.212-.472.326.135.1.258.266.407.293.905.165,1.819.285,2.725.444,2.272.4,4.548.781,6.812,1.225,2.115.415,4.216.9,6.431,1.465m4.2,174.413c-2.01,1.293-4.046,2.549-6.02,3.894a19.909,19.909,0,0,0-2.623,2.214c-.2.194-.086.709-.117,1.076a5.366,5.366,0,0,0,.68-.409c.249-.2.431-.495.694-.672q5.676-3.818,11.367-7.612c1.179-.788,2.369-1.559,3.534-2.366.16-.111.208-.385.308-.583a2.119,2.119,0,0,0-.653.1c-.535.275-1.048.591-1.563.9-1.835,1.112-3.667,2.229-5.608,3.451m46.108-79.5c2.543-1.221,5.093-2.426,7.622-3.674.617-.3,1.292-.634,1.324-1.5a7.916,7.916,0,0,1,.118-.841,4.244,4.244,0,0,0-.945.282c-2.581,1.48-5.149,2.983-7.723,4.476-1.474.855-2.962,1.686-4.42,2.568-.255.154-.391.505-.582.766a3.354,3.354,0,0,0,.944-.154c1.2-.579,2.371-1.2,3.662-1.919m-38.136-86.183c-.909.031-1.817-.292-2.708.313-2.65,1.8-5.348,3.53-8.023,5.293a2.159,2.159,0,0,0-.335.349,2.652,2.652,0,0,0,.442-.077,2.046,2.046,0,0,0,.444-.225c2.257-1.476,4.573-2.775,7.408-2.652a1.324,1.324,0,0,0,.721-.315c.722-.521,1.418-1.078,2.136-1.6.269-.2.572-.347.86-.518a10.717,10.717,0,0,1-.944-.564m-68.084,121.3c.607-.431,1.222-.852,1.813-1.3a.446.446,0,0,0,.11-.415c-.432-.629-.879-1.168-1.641-.313a6.332,6.332,0,0,1-1.077.741c-1.155.836-2.32,1.66-3.44,2.541-.208.164-.225.57-.33.865a8.432,8.432,0,0,0,1.178.391c.148.028.353-.164.512-.284.926-.7,1.845-1.409,2.874-2.223m6.679,21.761a9.927,9.927,0,0,1,3.081-3.306,14.04,14.04,0,0,0,2.219-1.847c.329-.377.282-1.081.405-1.637a6.863,6.863,0,0,0-.894.48c-1.455,1.075-2.912,2.149-4.338,3.262-1.217.949-1.28,1.383-.474,3.049m8.941-118.178a10.127,10.127,0,0,0-1.517.985,16.329,16.329,0,0,0-1.7,1.912c-.091.115.075.433.122.658a3.4,3.4,0,0,0,.5-.332,13.422,13.422,0,0,1,1.15-1.125c2.276-1.664,4.576-3.295,6.861-4.946a5.754,5.754,0,0,0,.607-.586,2.72,2.72,0,0,0-1.005.157c-1.657,1.029-3.283,2.107-5.028,3.277M20.371,354.627a10.9,10.9,0,0,0-.622,1.456c-.059.21.15.494.236.744.152-.11.3-.222.455-.33,1.551-1.091,3.109-2.172,4.642-3.287.13-.094.1-.414.137-.629-.7-.087-1.561-.468-2.078-.2a16.609,16.609,0,0,0-2.771,2.244m22.3-107.19c.655-.583,1.293-1.186,1.968-1.744,1.063-.879,2.17-1.7,3.211-2.608.213-.185.213-.614.311-.931a2.581,2.581,0,0,0-.941.113c-1.111.621-2.19,1.3-3.277,1.96a2.658,2.658,0,0,0-1.272,3.21m49.771,19.607a8.022,8.022,0,0,0-1.026.623c-.124.1-.107.373-.155.567a2.41,2.41,0,0,0,.517-.1,17.215,17.215,0,0,0,1.983-.916c1.9-1.135,3.777-2.309,5.646-3.494.21-.133.315-.434.468-.657a2.316,2.316,0,0,0-.82.113c-2.178,1.236-4.34,2.5-6.614,3.866M39.762,263.92a6.44,6.44,0,0,0-.519.75,1.884,1.884,0,0,0-.095.575,2.767,2.767,0,0,0,.519-.147,2.7,2.7,0,0,0,.588-.387c.651-.579,1.271-1.193,1.936-1.756.759-.642,1.571-1.223,2.322-1.875.177-.154.2-.483.3-.731-.264,0-.587-.087-.782.031-1.09.659-2.178,1.331-3.207,2.08a4.264,4.264,0,0,0-1.059,1.459m59.251-46.754c-1.185.754-2.375,1.5-3.55,2.271-.15.1-.221.318-.328.481.147.052.307.172.439.146a12.785,12.785,0,0,0,3.911-1.154c.89-.494,1.284-.712.17-1.331-.21-.117-.358-.344-.642-.413m57.743-3.878c.273.014.647.15.8.021a1.652,1.652,0,0,0-.219-2.218c-1-.507-2.038-.924-3.07-1.357a1.915,1.915,0,0,0-.589-.048,1.646,1.646,0,0,0,.226.522c.94.965,1.9,1.912,2.851,3.08M108.492,195.4c-1.091-.3-2.178-.621-3.278-.888-.218-.053-.485.1-.729.156a3.117,3.117,0,0,0,.366.524,1.211,1.211,0,0,0,.513.3c2.334.588,4.67,1.168,7.011,1.724.191.045.427-.1.642-.156-.154-.159-.282-.408-.468-.463-1.31-.386-2.631-.733-4.057-1.2M52.474,346.225a8.42,8.42,0,0,0,1.246-.853c.186-.179.181-.558.262-.846-.213-.01-.5-.115-.629-.016-1.145.885-2.267,1.8-3.381,2.725-.1.083-.093.294-.136.446.173.005.39.081.511,0,.685-.431,1.348-.9,2.126-1.461M62.708,185.6c-.928,0-1.859-.036-2.783.022-.266.017-.515.3-.772.468.261.124.522.355.781.352.789-.009,1.576-.149,2.365-.159.544-.007,1.088.137,1.634.163.125.006.26-.194.39-.3-.125-.11-.236-.289-.377-.318a11.4,11.4,0,0,1-1.239-.229m74.117,20.684c.868.144,1.734.3,2.606.419.162.022.345-.112.518-.174-.159-.154-.293-.385-.482-.448a23.414,23.414,0,0,0-2.858-.839,3.851,3.851,0,0,0-1.369.257c.329.19.651.393.99.563a5.9,5.9,0,0,1,.6.222m15.728,5.6c-1.183-.68-2.361-1.368-3.555-2.028-.122-.067-.338.036-.511.061.086.177.125.432.267.518,1,.6,2,1.2,3.035,1.726.208.106.577-.1.764-.277M54.951,191.2c.575-.5,1.153-1,1.721-1.512a2.15,2.15,0,0,0,.271-.374,1.471,1.471,0,0,0-.424-.26,2.383,2.383,0,0,0-2.316,2.119,2.078,2.078,0,0,0,.134.458,6.969,6.969,0,0,0,.615-.431M78.113,275.77l-.41.667a2.745,2.745,0,0,0,.829-.141,19.677,19.677,0,0,0,1.882-1.124c.18-.121.261-.39.388-.592-.269-.016-.591-.134-.8-.027a18.26,18.26,0,0,0-1.893,1.217m64.529,34.15c.125-.124.253-.245.373-.374.156-.169.305-.346.458-.519a2.828,2.828,0,0,0-.794.017,1.661,1.661,0,0,0-.657.438,2.407,2.407,0,0,0-.319.577,9.339,9.339,0,0,1,.939-.138M85.115,295.484c.022-.05.074-.133.06-.146-.835-.79-1.083.471-1.692.5a2.92,2.92,0,0,0-.022.361c.382-.1.771-.171,1.144-.295.152-.051.269-.206.51-.421m35.227-32.426.334-.528c-.188,0-.416-.078-.556,0-.421.242-.807.543-1.206.821a8.451,8.451,0,0,0,1.428-.3m-84.567-1.831a6.378,6.378,0,0,0-.979-.727.73.73,0,0,0-.592.206c-.013.529,1.168.956,1.571.522m38.782,41.152c.121.05.271.17.359.136a7.759,7.759,0,0,0,.826-.431c-.152-.117-.295-.314-.459-.335-.387-.048-.847-.11-.726.63m85.321-89.2-.754.186.5.85a2.927,2.927,0,0,0,.257-1.036m-34.9,5.386.108-.275a2.286,2.286,0,0,0-.624.4c-.067.081.085.344.138.524A4.744,4.744,0,0,1,124.975,218.566Z" transform="translate(0 -144.289)"></path><path d="M1151.831,419.56c-2.244-3.491-4.471-6.905-6.615-10.371q-3.069-4.961-5.993-10.011c-1.292-2.22-2.5-4.488-3.707-6.756-1.908-3.588-3.745-7.213-5.693-10.779a1.99,1.99,0,0,1,.312-2.68c1.333-1.041,1.231-2.462,1.506-3.825a10.569,10.569,0,0,1,.663-2.414,1.634,1.634,0,0,1,2.5-.751,30.822,30.822,0,0,1,4.621,3.368c1.969,1.9,3.656,4.083,5.547,6.066a3.124,3.124,0,0,0,1.8.79c1.17.134,1.779.907,1.216,1.94-.629,1.154.364,1.736.818,2.4,2.552,3.734,5.253,7.368,7.8,11.1q6.236,9.139,12.336,18.37c2.781,4.216,5.452,8.506,8.144,12.78q3.844,6.1,7.626,12.244c.617,1,1.022,2.131,2.393,2.446.262.06.619.905.5,1.216a2.435,2.435,0,0,0,.554,2.318,20.569,20.569,0,0,1,3.089,7.324,7.072,7.072,0,0,1-.625,3.58,32.537,32.537,0,0,1-2.554,4.752,1.814,1.814,0,0,1-2.518.269c-2.52-2.446-4.993-4.941-7.461-7.44-1.121-1.135-2.25-2.27-3.267-3.5-2.3-2.766-4.578-5.547-6.761-8.4q-2.979-3.9-5.727-7.966c-2.46-3.633-4.82-7.333-7.216-11.01-1.086-1.667-2.156-3.344-3.287-5.07m-13.2-32.157c.177-.034.406-.008.524-.11,1.244-1.073,2.47-2.168,3.7-3.254.38-.335.63-.634.143-1.126-.4-.406-.64-.972-1.038-1.383-1.737-1.791-3.5-3.556-5.271-5.313-.147-.146-.576-.274-.626-.212-.573.715-1.047,1.514-1.651,2.2-.524.594.057.871.239,1.245,1.277,2.621,2.577,5.232,3.978,7.954m49.232,64.314c-.5-1.011-1.062-2-1.491-3.039-.381-.924-.986-.87-1.642-.487a27.9,27.9,0,0,0-2.951,1.942,1.143,1.143,0,0,0-.163,1.1c1.29,1.952,2.705,3.823,3.977,5.787.553.853,1.3,1.726.95,2.912a3.1,3.1,0,0,0-.063.506c.192-.126.477-.209.561-.387a15.782,15.782,0,0,1,.842-2.012c1.363-2.066.992-4.079-.019-6.327m-36.089-36.735c.914,1.488,1.806,2.99,2.748,4.461.858,1.339,1.758,2.651,2.676,3.949.1.138.439.1.668.15-.043-.579.124-1.314-.168-1.708a38.385,38.385,0,0,1-2.907-4.186c-1.52-2.735-3.344-5.3-5.068-7.923q-1.591-2.42-3.272-4.78c-.157-.221-.533-.285-.808-.422.028.321-.05.709.1.954,1.955,3.144,3.943,6.268,6.031,9.5m19.93,19.283c.215-.805.482-1.6.634-2.418.231-1.239.386-2.492.561-3.74a.349.349,0,0,0-.124-.289.326.326,0,0,0-.29.076,3.472,3.472,0,0,0-.56.625,31.043,31.043,0,0,0-1.915,3.179c-.377.8-1.145,1.614-.463,2.636.354.531.676,1.083,1.042,1.605a2.057,2.057,0,0,0,.483.374c.067-.169.141-.336.2-.507a13.432,13.432,0,0,0,.432-1.539m-8.08-1.185c.457.672.892,1.36,1.389,2a.7.7,0,0,0,.634.021c.574-1.045.212-1.9-.815-2.586a2.688,2.688,0,0,1-1.06-1.452c-.243-1.018-.627-1.725-1.75-1.87a1.171,1.171,0,0,1-1.1-1.28,7.607,7.607,0,0,0-.229-1.735c-.067-.25-.4-.429-.608-.64a4.238,4.238,0,0,0-.631.957c-.065.193.124.511.266.728,1.258,1.922,2.531,3.834,3.907,5.856m18.206,9.8a1.934,1.934,0,0,1-.01.639c-.533,1.421-1.108,2.826-1.626,4.252-.072.2.089.482.143.726a4.886,4.886,0,0,0,.453-.272c.981-.737,1.922-1.537,2.951-2.2.565-.364.584-.676.286-1.167-.432-.713-.851-1.434-1.289-2.143a6.447,6.447,0,0,0-.464-.591,6.565,6.565,0,0,1-.444.754m-13.789-3.447q1.636,2.283,3.275,4.564c.283.391.59.764.886,1.146a11.749,11.749,0,0,1,.17-1.2c.317-1.3.192-1.507-1.023-1.6-1.1-.086-1.536-.775-1.4-1.912a3.051,3.051,0,0,0-.349-1.561,10.912,10.912,0,0,0-1.146-1.782.593.593,0,0,0-.574-.055c-1.135.775-.445,1.537.16,2.4m-6.679-16.59.759.965a6.192,6.192,0,0,0,.6-1.041c.646-1.883,1.261-3.776,1.87-5.671a4.484,4.484,0,0,0,.108-.824c-.269.2-.624.344-.792.608a24.56,24.56,0,0,0-1.861,3.2c-.347.788-1.2,1.507-.68,2.762m-11.635-20.684c.431-1.832.871-3.662,1.279-5.5.043-.193-.1-.427-.159-.642-.158.156-.385.284-.463.473-.807,1.963-1.638,3.92-2.332,5.923-.112.322.42.866.654,1.308.2-.279.4-.551.587-.838.125-.2.219-.411.434-.726m3.878,0a2.069,2.069,0,0,0,.2-.661,4.206,4.206,0,0,0-.221-.868,2.137,2.137,0,0,0-.446.5c-.79,1.855-1.629,3.695-2.276,5.6-.134.4.466,1.04.727,1.569a9.3,9.3,0,0,0,.5-1.079c.52-1.611,1.013-3.23,1.516-5.062m10.665,24.67.465.862c.168-.11.438-.186.489-.335.741-2.2,1.464-4.412,2.15-6.632.062-.2-.162-.491-.254-.74a2.537,2.537,0,0,0-.373.5c-.87,2.076-1.725,4.158-2.477,6.346m-29.195-41.476c-.718-1.388-1.423-2.784-2.167-4.158-.128-.237-.427-.382-.646-.569a2.3,2.3,0,0,0,.028.9c.978,2,1.988,3.985,3,5.966.35.682.727,1.354,1.137,2,.114.179.392.254.595.377,0-.229.069-.5-.025-.681-.622-1.215-1.28-2.412-1.927-3.831m23.054,23.916c-.718,1.739-1.454,3.47-2.133,5.225-.089.23.1.584.2.862a.441.441,0,0,0,.323.249.446.446,0,0,0,.3-.27c.655-1.944,1.316-3.887,1.925-5.846.17-.547-.136-.689-.624-.22m-3.124.323c.1-.173.206-.343.3-.519.43-.787.894-1.559,1.263-2.374.1-.22-.091-.571-.148-.861a2.277,2.277,0,0,0-.649.451,14.454,14.454,0,0,0-.715,1.309c-.527.962-1.092,1.906-1.564,2.894-.114.239.069.62.116.936a2.71,2.71,0,0,0,.629-.5c.26-.381.443-.814.766-1.333m20.469,39.86a3.435,3.435,0,0,0,.828.578c.2.066.479-.117.722-.189-.128-.172-.252-.347-.385-.515a17.019,17.019,0,0,1-1.249-1.607c-.143-.233.08-.679-.048-.936a2.244,2.244,0,0,0-.846-.955c-.185-.1-.633.153-.876.352-.1.086-.072.491.037.662.545.85,1.135,1.671,1.818,2.61m.969-7.864c-.47.707-.865,1.423-.215,2.237.115.144.24.279.361.418a3.093,3.093,0,0,0,.28-.528c.44-1.429.876-2.859,1.284-4.3.042-.147-.106-.348-.166-.523-.161.114-.388.191-.473.347a18.62,18.62,0,0,0-1.071,2.346m-17.56-24.67a4,4,0,0,0-.414,1.313,3.491,3.491,0,0,0,.546,1.19,3.716,3.716,0,0,0,.4-.74q.506-1.833.947-3.683a2.1,2.1,0,0,0-.061-.665c-.22.129-.564.208-.639.395-.272.675-.453,1.386-.776,2.191m-11.958-19.714c.478-.836.968-1.666,1.417-2.518.06-.114-.085-.337-.135-.509-.126.061-.3.089-.37.189-.468.658-.95,1.31-1.356,2.006a15.785,15.785,0,0,0-1.039,2.135c-.07.176.175.478.276.721a2.66,2.66,0,0,0,.52-.491,7.5,7.5,0,0,0,.688-1.534m31.564,54.618c.029.245-.029.562.1.723.859,1.054,1.742,2.09,2.658,3.095a6.344,6.344,0,0,0,1.054.77,4.168,4.168,0,0,0-.491-1.154,37.37,37.37,0,0,0-3.324-3.433m-14.759-39.105c-.73-1.161-1.457-2.324-2.214-3.467-.014-.021-.564.216-.555.3.038.319.108.781.328.906a3.221,3.221,0,0,1,1.6,3.2c0,.117.267.239.41.358a4.573,4.573,0,0,0,.432-1.294m-19.607-20.9c-.624.977-1.952,1.715-1.107,3.193a3.989,3.989,0,0,0,.492.577,3.43,3.43,0,0,0,.391-.654q.488-1.47.915-2.959a1.714,1.714,0,0,0-.051-.593,6.879,6.879,0,0,0-.641.436m24.131,36.628c.144-.546.315-1.086.415-1.64.035-.191-.108-.414-.17-.622-.153.159-.368.291-.449.481-.247.574-.442,1.169-.658,1.757a9.464,9.464,0,0,0-.609,1.767c-.043.284.319.63.5.947.109-.238.23-.47.324-.714a18.923,18.923,0,0,0,.649-1.976m-20.253-38.782-.964-.97c-.038.457-.077.913-.112,1.37-.008.106-.041.236.006.315.175.3.377.576.569.862a6.524,6.524,0,0,0,.7-.886c.076-.136-.053-.386-.2-.692m-4.094-1.939c-.378.378-.774.741-1.122,1.145-.087.1-.023.334-.028.506.151-.031.348-.012.446-.1a11.814,11.814,0,0,0,1.207-1.21,8.2,8.2,0,0,0,.664-1.113c-.353.222-.706.443-1.166.773m-.431,14.22c.2.275.391.562.614.819a2.939,2.939,0,0,0,.472.366c.069-.167.236-.372.189-.5a6.56,6.56,0,0,0-.658-1.336c-.128-.19-.439-.257-.668-.379.017.27.034.541.051,1.027m-3.663-7.972c-.278-.421-.54-.854-.842-1.258-.094-.126-.295-.172-.446-.255-.02.2-.113.426-.046.589a10.418,10.418,0,0,0,.675,1.329,3.892,3.892,0,0,0,.493.564,8.575,8.575,0,0,0,.167-.97m34.15,44.492-.1-1.293c-.218.346-.459.681-.645,1.044a1.619,1.619,0,0,0-.206.753,2.611,2.611,0,0,0,.253.736,2.4,2.4,0,0,0,.573-.507c.093-.157.018-.413.126-.733M1142.3,398.391a7.776,7.776,0,0,0-.621-1.231c-.12-.165-.466-.165-.709-.24a2.009,2.009,0,0,0,.094.649,7,7,0,0,0,.749,1.183c.418.516.513.112.487-.361m34.365,36.735.292.723c.149-.128.382-.23.431-.389a6.485,6.485,0,0,0,.238-1.293c.006-.061-.268-.149-.412-.225a10.688,10.688,0,0,1-.548,1.185m-20.684-33.18.369.493.26-.51a1.259,1.259,0,0,0-.629.017m15.3,23.269.431-.112-.164-.426A1.2,1.2,0,0,0,1171.276,425.216Z" transform="translate(-886.109 -291.58)"></path><path d="M66.781,1179.4a21.552,21.552,0,0,0,1.815-8.062c-.021-3.062.361-6.126.362-9.189,0-2.991-.194-5.987-.418-8.972-.2-2.687-.539-5.365-.848-8.042-.339-2.94-.712-5.876-1.073-8.814-.357-2.9-.736-5.8-1.071-8.707-.246-2.133-.495-4.268-.611-6.41a2.024,2.024,0,0,1,.733-1.572c.492-.308,1.123-.017,1.674.491,1.615,1.49,2.173,3.567,3.115,5.406a29.071,29.071,0,0,1,3.272,10.162c.286,2.681.686,5.355.834,8.043.188,3.41.3,6.834.2,10.245-.085,2.83-.538,5.649-.819,8.474a61.827,61.827,0,0,1-3.167,13.437,33.61,33.61,0,0,0-.723,4.66c-.474,2.63-.9,5.276-1.552,7.866-.81,3.235-1.787,6.43-2.768,9.618a12.6,12.6,0,0,1-1.336,2.885c-.616.994-1.719.52-2.566.458a1.358,1.358,0,0,1-1.226-1.527,24.866,24.866,0,0,1,.821-4.5c1.664-5.154,3.45-10.269,5.187-15.4.054-.159.074-.329.164-.548m1.993-44.222c.287,2,.6,3.994.853,6,.187,1.478.275,2.969.444,4.45.269,2.359.672,4.708.831,7.075.186,2.762.164,5.538.25,8.307a3.114,3.114,0,0,0,.215.877,1.3,1.3,0,0,0,.262.334,1.077,1.077,0,0,0,.155-.333c.223-2.925.6-5.85.612-8.776.018-3.888-.223-7.778-.4-11.665a36.523,36.523,0,0,0-.44-4.664,58.477,58.477,0,0,0-3.218-10.506,1.837,1.837,0,0,0-.349-.435c-.1.175-.285.356-.274.525.044.723.136,1.443.228,2.162.274,2.146.555,4.292.834,6.653m-4.094,57.312c-.359,1.1-.727,2.2-1.066,3.307-.04.13.076.308.12.464.119-.127.3-.235.349-.385.357-1.032.7-2.07,1.01-3.116C65.119,1192.671,64.9,1192.509,64.68,1192.489Z" transform="translate(-47.541 -878.3)"></path><path d="M936.3,66.1c.287-2.213.581-4.317.855-6.424.046-.353,0-.717.008-1.075.025-.873.242-1.71,1.174-1.958,1.068-.284,1.651.527,1.979,1.332.974,2.4,1.9,4.813,2.734,7.26.357,1.047.866.951,1.7.667,1.834-.629,3.58-1.586,5.612-1.541.634.014,1.172.122,1.245.8a2,2,0,0,1-.245,1.435c-.852.848-1.886,1.508-2.785,2.313a21.1,21.1,0,0,0-3.017,3.017c-.327.444-.093,1.454.132,2.124.6,1.789,1.342,3.532,2.024,5.294.228.588.5,1.185-.165,1.684A1.54,1.54,0,0,1,945.5,81c-1.2-.919-2.383-1.851-3.605-2.733-.918-.663-1.608-.6-2.05.391a20.732,20.732,0,0,1-2.525,3.8,2.9,2.9,0,0,0-.552,1.582,2.591,2.591,0,0,1-1.581,2.268,1.783,1.783,0,0,1-1.386-.034c-.679-.291-.585-.988-.47-1.578.474-2.419.975-4.832,1.469-7.247.026-.13.08-.254.117-.382.361-1.252.045-1.9-1.178-2.127a33.165,33.165,0,0,0-3.586-.434c-1.061-.077-1.613-.476-1.6-1.327.014-1.024.754-1.075,1.528-1.3a25.787,25.787,0,0,0,5.117-1.9c.576-.315.634-1.61.886-2.471A9.672,9.672,0,0,0,936.3,66.1m8.3,3.232.894-.83c-.144-.082-.35-.271-.422-.229a10.855,10.855,0,0,0-.989.715.889.889,0,0,0,.517.344m-3.555,3.77.134-.943a1.555,1.555,0,0,0-.348.095A1.666,1.666,0,0,0,941.044,73.1Z" transform="translate(-728.486 -44.39)"></path><path d="M1094.414,115.987c1.014-.477.961-1.341.905-2.152-.107-1.557-.334-3.108-.379-4.665a1.3,1.3,0,0,1,2.124-.915,8.92,8.92,0,0,1,1.392,1.987c.728,1.288,1.162,1.375,2.181.391.889-.857,1.8-1.69,2.726-2.51a1.311,1.311,0,0,1,1.756-.282,1.242,1.242,0,0,1,.326,1.827c-.567.991-1.238,1.922-1.8,2.917-.521.925-.942,1.9-1.428,2.849-.353.685.051,1.193.367,1.716.365.605.773,1.185,1.142,1.788a.924.924,0,0,1-.335,1.378,2.376,2.376,0,0,1-1.223.074,1.357,1.357,0,0,1-.638-.262c-.814-.567-1.256-.115-1.446.606a31.707,31.707,0,0,1-.706,3.262,6.818,6.818,0,0,1-1.588,2.333c-.466.457-1.528-.61-1.607-1.562-.124-1.484-.318-2.963-.413-4.449-.063-.991-.469-1.012-1.224-.63a2.765,2.765,0,0,1-1.424.4,2.133,2.133,0,0,1-1.373-.72c-.164-.224.085-.95.363-1.256C1092.8,117.364,1093.6,116.725,1094.414,115.987Z" transform="translate(-856.485 -84.423)"></path><path d="M842.537,246.166c.149,1.271.674,2.041,2.012,2.13a1.109,1.109,0,0,1,.794.643c.064.209-.249.7-.5.808-.821.341-.908.821-.532,1.546s.731,1.488,1.066,2.245a2.631,2.631,0,0,1,.223.871c.043.648-.154.942-.847.543-1.183-.681-2.417-1.276-3.581-1.985-1.317-.8-2.227-.65-3.11.6a5.161,5.161,0,0,1-1.032,1.141c-.211.161-.767.22-.881.084a1.258,1.258,0,0,1-.232-1,9.655,9.655,0,0,1,1-2.689c.471-.719.1-.975-.315-1.323-.553-.462-1.171-.855-1.682-1.358a1.007,1.007,0,0,1-.24-.906,1.321,1.321,0,0,1,.93-.514,3.668,3.668,0,0,1,1.619.21c1.047.448,1.4-.16,1.7-.943.365-.96.688-1.937,1.1-2.875a.8.8,0,0,1,1.463.013c.379.881.669,1.8,1.046,2.76m-2.316.269-.136,1.156c.1-.005.259.02.279-.021.182-.385.34-.782.5-1.176a.145.145,0,0,0,0-.1c-.063-.133-.134-.262-.2-.393C840.551,246.04,840.44,246.184,840.221,246.435Z" transform="translate(-654.81 -190.579)"></path><path d="M1051.678,13.142c.113.719.769,1.412,0,2.036a11.591,11.591,0,0,1-1.1.711,4.261,4.261,0,0,1-.753-1.277c-.172-.992-.1-2.027-.263-3.021-.324-1.936-.668-2.068-2.422-1.131a4.51,4.51,0,0,1-1.258.577,1.3,1.3,0,0,1-.929-.371c-.1-.089.032-.578.2-.768.465-.543,1-1.027,1.506-1.534,1.329-1.329,1.4-1.732.66-3.472a2.179,2.179,0,0,1-.293-.94c.035-.38.175-.932.439-1.06a1.815,1.815,0,0,1,1.209.157c.244.09.385.5.623.558.282.07.834,0,.9-.153.36-.891.544-1.856.93-2.733A1.365,1.365,0,0,1,1052.141,0c.412.026.736.358.577,1.055a25.8,25.8,0,0,0-.526,4.189,1.471,1.471,0,0,0,.778,1.513,2.1,2.1,0,0,1,.841,1.522c.018.284-.72.844-1.156.886-1.107.109-.968,1.022-1.093,1.611a7.815,7.815,0,0,0,.116,2.365m-1.454-5.333.346-1.162c-.292.133-.679.19-.854.414C1049.378,7.493,1049.586,7.814,1050.224,7.809Z" transform="translate(-819.783 0)"></path><path d="M991.709,230.322a2.349,2.349,0,0,0,.6,2.061,1.672,1.672,0,0,1,.293,1.471c-.129.28-.921.225-1.4.386a2.431,2.431,0,0,0-1.033.556c-.248.278-.262.751-.466,1.085a9.907,9.907,0,0,1-.86,1.066,13.837,13.837,0,0,1-.835-1.321c-.1-.2.012-.5-.022-.745-.112-.825-.4-1.481-1.424-1.387a4.439,4.439,0,0,1-1.074-.007,5.7,5.7,0,0,1-.943-.312,5.31,5.31,0,0,1,.474-1.09,3.743,3.743,0,0,1,.806-.622,1.662,1.662,0,0,0,.619-2.224,2.968,2.968,0,0,1-.353-1.448,2.25,2.25,0,0,1,.685-1.295c.144-.134.772.079,1.053.3,1.717,1.336,2.03,1.308,3.324-.44a4.958,4.958,0,0,1,.851-1.034,3.827,3.827,0,0,1,1.087-.4,3.242,3.242,0,0,1,.163,1.234c-.273.953-.687,1.865-1.036,2.8-.163.435-.306.878-.512,1.371m-2.316.808-.657.01a7.661,7.661,0,0,0,.183,1c.023.074.278.078.427.114A3.77,3.77,0,0,0,989.393,231.13Z" transform="translate(-772.418 -176.459)"></path><path d="M1075.274,281.072c-.808-1.249-1.584-2.43-2.309-3.643-.626-1.047-.909-1.1-1.968-.633-.459.2-1.295.327-1.547.075-.5-.5-.081-1.087.425-1.5.72-.583,1.21-1.187.774-2.243-.093-.223.587-1.1.916-1.1.828-.008,1.076-.533,1.385-1.055a11.548,11.548,0,0,1,.674-1.327c.243-.308.709-.692,1-.637s.63.6.672.965c.1.85-.058,1.732.066,2.575a2.406,2.406,0,0,0,.77,1.361c.866.738.883,1.086.16,1.985a2.653,2.653,0,0,0-.5,1.6,13.777,13.777,0,0,0,.4,2.405c.188.948-.03,1.268-.919,1.167m-2.208-7.164q-.019.3-.038.609l.95-.229A3.863,3.863,0,0,0,1073.066,273.908Z" transform="translate(-838.855 -211.049)"></path><path d="M845.216,72.292c-.439.162-.908.465-1.193.341-.965-.42-1.431.007-1.893.77a5.942,5.942,0,0,1-1.206,1.425c-.452.384-.967.433-1.148-.345a5.306,5.306,0,0,1-.207-.984,3.963,3.963,0,0,0-.941-2.961c-.479-.755.206-1.08.7-1.153,1.506-.224,1.526-1.386,1.753-2.467a4.474,4.474,0,0,1,.444-1.314c.166-.288.518-.634.8-.644a1.331,1.331,0,0,1,.884.559,3.574,3.574,0,0,1,.447,1.1c.215.677.4,1.251,1.37,1.133.64-.078,1.112.868.653,1.24-1.157.94-.679,1.936-.3,2.976.025.07-.064.182-.154.328m-3.07-4.04.441.421.2-.857A1.144,1.144,0,0,0,842.146,68.252Z" transform="translate(-657.813 -50.963)"></path><path d="M1187.982,272.679c-.244-.79-.8-.774-1.371-.67a14.353,14.353,0,0,1-1.88.369,1.289,1.289,0,0,1-.933-.5c-.1-.131.154-.633.368-.845a8.358,8.358,0,0,1,1.678-1.4c.807-.456.806-.974.488-1.714-.122-.284-.157-.821.008-.962a1.271,1.271,0,0,1,1.061-.2,1.441,1.441,0,0,0,1.727-.246c.179-.181.722-.3.84-.183.3.29.716.872.6,1.087-.425.818.037,1.391.381,1.967.417.7.446,1.134-.384,1.547-.764.38-1.215,2.022-.969,2.952.087.328.264.781.123.988a3.851,3.851,0,0,1-1.052.779,3.737,3.737,0,0,1-.609-1.083C1187.959,273.966,1188.036,273.343,1187.982,272.679Z" transform="translate(-928.724 -208.905)"></path><path d="M1214.332,153.727c.93-.678,1.752-1.357,2.574-2.035.134-.11.276-.33.4-.318a4.729,4.729,0,0,0,2.647-.635c.44-.22,1.021.577.836,1.141-.164.5-.457.958-.621,1.458a2.607,2.607,0,0,0-.037.9c.03.658.135,1.242-.663,1.674-.988.535-.919,1.648-1.055,2.626a5.783,5.783,0,0,1-.457,1.221c-.417-.339-1.011-.6-1.205-1.037a5.291,5.291,0,0,1-.25-1.931c-.036-1.169-.389-1.525-1.578-1.568-.324-.012-.905-.145-.915-.261A2.509,2.509,0,0,1,1214.332,153.727Z" transform="translate(-952.434 -118.231)"></path><path d="M1063.586,363.569a7.159,7.159,0,0,0,.106-1.7c-.2-1,.194-1.455,1.239-1.337a2.418,2.418,0,0,0,1.1-.18c.912-.354,1.591.018,1.636,1.035a2.819,2.819,0,0,0,.9,2.111c.536.495.646,1.18-.106,1.518-1.162.522-.733,1.388-.67,2.213.037.487.175,1.343.02,1.4a1.192,1.192,0,0,1-1.739-.748c-.108-.31-.306-.588-.445-.888-.392-.847-.534-1.833-1.774-2.044C1063.362,364.875,1063.089,364.229,1063.586,363.569Z" transform="translate(-834.222 -282.613)"></path><path d="M966.919,365.771c-.312-.736-.193-1.234.53-1.582.325-.156.514-.577.826-.785a1.919,1.919,0,0,1,1.1-.436c.234.027.587.546.582.84a3.393,3.393,0,0,0,.87,2.463c.177.2.266.773.13.908-1.3,1.294-.68,2.791-.546,4.245a5.107,5.107,0,0,1-.09.964c-.342-.121-.865-.145-.991-.382a5.241,5.241,0,0,1-.609-1.889c-.108-1.056-.31-1.228-1.372-1.039a1.249,1.249,0,0,1-.933-.411,1.071,1.071,0,0,1-.111-.859C966.481,367.134,966.744,366.484,966.919,365.771Z" transform="translate(-758.077 -284.76)"></path><path d="M930.935,27.5a5.723,5.723,0,0,0-.975-.863c-.772-.547-.769-1.3.1-1.7s1.72-.761,2.008-1.848c.051-.193.8-.407,1.094-.286a3.314,3.314,0,0,1,1.539,1.116c.263.426.091,1.121.109,1.7a2.663,2.663,0,0,0,0,.428c.288,1.449.008,1.734-1.355,1.937-.494.074-.914.676-1.357,1.049-.383.323-.9,1.013-1.1.929-.617-.253-.686-.86-.309-1.484A3.086,3.086,0,0,0,930.935,27.5Z" transform="translate(-729.149 -17.858)"></path><path d="M874.546,185.288a4.29,4.29,0,0,0,.866-2.757c-.018-.132-.026-.351.047-.4a6.736,6.736,0,0,1,1.9-1.084c.285-.069.779.6,1.136.981a13.255,13.255,0,0,1,1.352,1.589c.179.262.306.882.182.977-.879.666-.4,1.407-.264,2.162a3.75,3.75,0,0,1-.134,1.1,4.7,4.7,0,0,1-1.224-.362c-.3-.183-.411-.687-.712-.846a2.748,2.748,0,0,0-1.313-.265C875.553,186.4,874.824,186.347,874.546,185.288Z" transform="translate(-686.118 -142.036)"></path><path d="M1156.653,33.893a12.285,12.285,0,0,1,.717,1.822,2.515,2.515,0,0,1-.144.945c-.271-.068-.623-.052-.8-.221A6.526,6.526,0,0,1,1155,34.776c-.4-.819-.978-.855-1.712-.838-1.062.024-1.367-.471-.763-1.338a1.44,1.44,0,0,0,.228-1.591c-.366-.906.164-1.492,1.157-1.6a5.092,5.092,0,0,0,1.027-.369c.283-.1.674-.333.838-.228a1.905,1.905,0,0,1,.6.884C1156.926,31.045,1156.573,32.454,1156.653,33.893Z" transform="translate(-903.966 -22.582)"></path><path d="M1107.358,217.955a12.232,12.232,0,0,1,1.388,1.871,1.482,1.482,0,0,1-.038,1.34,1.624,1.624,0,0,0-.212,2.242,1.9,1.9,0,0,1,.3.73c.05.622-.21,1.033-.852.621a3.656,3.656,0,0,1-1.192-1.2,1.677,1.677,0,0,0-1.728-1.046c-1.023.064-1.272-.345-.958-1.3.3-.916.594-1.836.86-2.763A1.489,1.489,0,0,1,1107.358,217.955Z" transform="translate(-866.09 -170.663)"></path><path d="M934.42,309.915c-.1.639-.2,1.17-.3,1.7a13.09,13.09,0,0,0-1.221-1.355,2.219,2.219,0,0,0-1.154-.539c-1.126-.1-1.4-.44-1.072-1.553a15.839,15.839,0,0,1,.791-2.463c.2-.412.765-.648,1.166-.963a4.608,4.608,0,0,1,.9,1.239C933.9,307.236,934.133,308.53,934.42,309.915Z" transform="translate(-730.049 -239.085)"></path></svg>