<svg xmlns="http://www.w3.org/2000/svg" width="76" height="76" viewBox="0 0 76 76"><defs><style>.a{fill:#eabbb5;}.b{fill:#fff;}</style></defs><g transform="translate(-642 -1202)"><circle class="a" cx="38" cy="38" r="38" transform="translate(642 1202)"></circle><g transform="translate(647 1219)"><g transform="translate(16 0)"><path class="b" d="M48.745,3.447C44.117,3.447,36.249,2.3,34.453.5a1.723,1.723,0,0,0-2.437,0c-1.8,1.8-9.664,2.942-14.292,2.942A1.723,1.723,0,0,0,16,5.17V24.128c0,2.321,2.639,4.326,7.3,7.669,3.269,2.341,8.208,5.881,8.208,7.842a1.723,1.723,0,1,0,3.447,0c0-1.96,4.939-5.5,8.208-7.842,4.664-3.343,7.3-5.348,7.3-7.669V5.17a1.723,1.723,0,0,0-1.723-1.723ZM45.3,22.825a1.723,1.723,0,0,1-.56,1.271c-1.065.974-3.1,2.432-4.584,3.5-1.994,1.429-4.054,2.905-5.782,4.425a1.723,1.723,0,0,1-2.277,0c-1.728-1.52-3.788-3-5.781-4.424-1.486-1.065-3.52-2.523-4.585-3.5a1.723,1.723,0,0,1-.56-1.271V10.032a1.723,1.723,0,0,1,1.543-1.714c1.265-.133,2.5-.3,3.674-.5a28.058,28.058,0,0,0,6.171-1.67,1.723,1.723,0,0,1,1.352,0,28.057,28.057,0,0,0,6.171,1.67c1.173.2,2.409.372,3.674.5A1.723,1.723,0,0,1,45.3,10.032Z" transform="translate(-16 0)"></path><path class="b" d="M65.33,66.384l-3.856-2.57-1.911,2.868,5.17,3.447a1.723,1.723,0,0,0,2.3-.357l6.894-8.617L71.237,59Z" transform="translate(-50.178 -46.29)"></path></g></g></g></svg>