<svg xmlns="http://www.w3.org/2000/svg" xmlns:xlink="http://www.w3.org/1999/xlink" width="335" height="285" viewBox="0 0 335 285"><defs><clipPath id="clip-path"><rect id="Rectangle_731" data-name="Rectangle 731" width="335" height="285" transform="translate(-5305 -12202)" fill="#fff" stroke="#707070" stroke-width="1"></rect></clipPath><clipPath id="clip-path-2"><rect id="Rectangle_733" data-name="Rectangle 733" width="519" height="519" transform="translate(-0.856 -0.858)"></rect></clipPath></defs><g id="Mask_Group_6" data-name="Mask Group 6" transform="translate(5305 12202)" clip-path="url(#clip-path)"><g id="Saas_Partner" data-name="Saas Partner" transform="translate(-5396.144 -12336.143)" clip-path="url(#clip-path-2)"><path id="Path_26454" data-name="Path 26454" d="M87.563,0c48.358,0,87.563,10.4,87.563,23.228S135.92,46.456,87.563,46.456,0,36.057,0,23.228,39.2,0,87.563,0Z" transform="translate(170.999 368.797)" fill="#e6e6e6"></path><path id="Path_26453" data-name="Path 26453" d="M586.7,130.629c.544,7.95,5.264,25.466,5.264,25.466l169.817-3.958,1.979-18.6-38,3.563s-21.771,23.355-40.772,0l-47.106,2.771s-10.688,16.626-25.335,0Z" transform="translate(-392.096 50.435)" fill="#b6b6b6"></path><ellipse id="Ellipse_6" data-name="Ellipse 6" cx="14.607" cy="13.889" rx="14.607" ry="13.889" transform="translate(123.106 288.816)" fill="#e6e6e6"></ellipse><ellipse id="Ellipse_9" data-name="Ellipse 9" cx="11.015" cy="12.213" rx="11.015" ry="12.213" transform="translate(373.587 206.919)" fill="#e6e6e6"></ellipse><ellipse id="Ellipse_8" data-name="Ellipse 8" cx="11.494" cy="11.015" rx="11.494" ry="11.015" transform="translate(291.69 319.468)" fill="#e6e6e6"></ellipse><ellipse id="Ellipse_7" data-name="Ellipse 7" cx="11.015" cy="11.255" rx="11.015" ry="11.255" transform="translate(223.682 175.789)" fill="#e6e6e6"></ellipse><ellipse id="Ellipse_5" data-name="Ellipse 5" cx="22.27" cy="20.115" rx="22.27" ry="20.115" transform="translate(358.74 282.59)" fill="#e69251"></ellipse><ellipse id="Ellipse_4" data-name="Ellipse 4" cx="26.581" cy="30.412" rx="26.581" ry="30.412" transform="translate(286.422 137.953)" fill="#eb5a51"></ellipse><ellipse id="Ellipse_3" data-name="Ellipse 3" cx="26.102" cy="26.581" rx="26.102" ry="26.581" transform="translate(181.536 308.931)" fill="#5697d5"></ellipse><ellipse id="Ellipse_2" data-name="Ellipse 2" cx="38.075" cy="39.751" rx="38.075" ry="39.751" transform="translate(123.106 169.084)" fill="#eac869"></ellipse><path id="Path_26416" data-name="Path 26416" d="M69.219,220.142a1.451,1.451,0,0,0-2.195-.973,2.63,2.63,0,0,1-2.653-.023c-.4-.236-1.048-.039-1.584-.039-4.974,0-9.949-.016-14.923.018-.71,0-1.413.317-2.129.377a14.6,14.6,0,0,1-7.22-.738c-2.655-1.174-3.968-3.647-4.479-6.335-.457-2.41-.274-4.933-.541-7.389-.835-7.675-.275-15.37-.433-23.055-.021-.993.006-1.492-1.2-.671a45.073,45.073,0,0,1-4.367,2.177c-4.4,2.347-8.86,2.08-13.171-.02a14.617,14.617,0,0,1-7.879-10.42c-1.01-4.4-1.066-8.815,1.374-12.835,2.347-3.868,5.478-6.858,10.1-7.858a21.124,21.124,0,0,1,10.931.386,7.534,7.534,0,0,1,3.1,1.955,4.256,4.256,0,0,0,.484.35,2.506,2.506,0,0,0,.152-.623c-.034-1.94-.253-3.879-.357-5.8a103.019,103.019,0,0,1,.015-15.4c.47-4.869.112-9.705.348-14.548.015-.306-.021-.615.006-.92.189-2.191.217-2.384-1.717-2.639a22.873,22.873,0,0,1-8.016-2.844,38.352,38.352,0,0,1-11.686-9.545,35.377,35.377,0,0,1-5.412-8.371C4.887,92.27,4.211,90.1,3.477,87.946,2.559,85.254,1.47,82.642.8,79.838A28.784,28.784,0,0,1,.426,68.175a41.576,41.576,0,0,1,8.25-18.218C13.147,43.983,19.013,39.889,25.7,36.8c2.837-1.311,5.556-2.891,8.7-3.4a45.756,45.756,0,0,1,4.753-.7,46.853,46.853,0,0,1,6.653,0c4.666.413,9.426.394,13.918,1.861a25.94,25.94,0,0,1,8.61,4.705c1.2,1.006,2.338,2.092,3.565,3.065a2.682,2.682,0,0,0,1.41.447c10.334.766,20.686.383,31.031.487a6.6,6.6,0,0,1,3.057.378A2.28,2.28,0,0,0,109.839,43a17.414,17.414,0,0,1,13.793-4.283,6.182,6.182,0,0,1,4.281,2.319c1.446,1.907,3.242,2.293,5.532,2.271,11.555-.109,23.111-.048,34.666-.048.535,0,1.075-.041,1.606.01.753.071.734-.446.632-.874a28.688,28.688,0,0,1-1.19-4.776c-.2-3.452-1.019-6.816-.273-10.4a27.335,27.335,0,0,1,7.336-13.549A36.017,36.017,0,0,1,186.49,5.727a12.833,12.833,0,0,1,5.54-1.616c1.009-.006,2.012-.371,3.025-.413,1.389-.057,2.771-.186,4.044.808a3.323,3.323,0,0,0,2.1.192,11.153,11.153,0,0,1,4.149.391A60.128,60.128,0,0,1,211.7,6.923a29.98,29.98,0,0,1,8.333,4.847c4.177,3.242,5.815,8.1,8.172,12.5.8,1.493,1.365,3.113,2.04,4.674.085.2.252.379.266.575.168,2.466.468,4.938.418,7.4a16.459,16.459,0,0,1-.94,5.114c-.372,1.041.266,1.349.671,1.166,1.621-.735,3.134.144,4.7.108,5.508-.13,11.019-.1,16.53-.03,2.464.03,4.925.261,7.384.45,1.166.09,2.319.361,3.486.431.98.058,1.336.524,1.288,1.434,0,.077,0,.154,0,.23q.228,10.261.457,20.521c.009.46.028.922-.007,1.38-.044.592-.136,1.182-.209,1.772a16.43,16.43,0,0,0,1.681-.93c2.138-1.519,4.576-1.518,7.008-1.331a6.578,6.578,0,0,1,2.353.935c.944.494.7,1.456.629,2.245a1.667,1.667,0,0,0,1.017,1.641c3.518,2.071,5.172,5.456,6.211,9.129a7.959,7.959,0,0,1-.209,4.63c-.689,2.092-1.067,4.278-2.163,6.242-2.037,3.65-5.206,5.577-9.2,6.478a8.326,8.326,0,0,1-4.468.019c-1.89-.563-2.183-.177-2.183,1.778q0,17.72,0,35.441a18.487,18.487,0,0,1-.9,5.84c-.2.6-.119,1.14.873,1.1a24.049,24.049,0,0,1,6.243.4,28.772,28.772,0,0,1,8.932,3.953c.186.115.425.315.445.5.26,2.468,2.145,4.071,3.375,5.948a32.175,32.175,0,0,1,3.975,9.643c.928,3.5.519,7.088.383,10.618-.069,1.69-1.134,3.333-1.69,5.016-.161.479-.188.91.592.4.292-.192,1.1.16,1.485.489.161.139-.035,1.009-.319,1.293-2.211,2.224-4.046,4.833-6.907,6.394-2.31,1.26-4.762,2.206-7.045,3.54a13.9,13.9,0,0,1-8.138,1.964,4.677,4.677,0,0,0-1.82.042c-.37.129-.9.954-.808,1.075.814,1.129.326,2.366.376,3.532a56.047,56.047,0,0,1,0,6.21c-.192,2.8-.54,5.584-.921,8.361a7.7,7.7,0,0,1-.882,2.155c-.218.45-.714.831-.772,1.283-.257,2.107-1.828,2.467-3.448,2.629-2.376.239-4.785.2-7.15.506-7.35.951-14.727.409-22.081.321-3.054-.036-6.151-.18-9.222-.376-2.408-.154-4.8-.569-7.2-.9-.409-.057-.783-.338-1.192-.437-.77-.187-1.647-.623-2.316-.415-2.458.752-4.94.311-7.4.383-3.058.091-6.123-.033-9.182.034-4.912.107-9.857-.019-14.724.527-5.843.658-11.67.132-17.5.377-.458.019-1.027-.163-1.347.048a1.82,1.82,0,0,0-.565,1.231c-.042.4.278.821.291,1.238.173,5.229.3,10.46.488,15.687a19.359,19.359,0,0,0,.484,3.943,2.114,2.114,0,0,0,2.068,1.772c1.024-.018,2.044-.228,3.068-.331.6-.057,1.195-.1,1.793-.1,6.964-.007,13.937-.214,20.888.08,3.61.152,7.229.189,10.83.428a58.7,58.7,0,0,1,8.377,1.372,4.069,4.069,0,0,1,3.007,1.814,4.735,4.735,0,0,1,.235,3.644c-.591,2.405-2.692,2.377-4.512,2.771a6.672,6.672,0,0,1-1.375.014c-14.31,0-28.63-.315-42.927.12-8.207.251-16.42-.067-24.6.442-3.234.2-6.5-.057-9.674.431-3.552.55-7.108-.011-10.6.437-6.367.814-12.74.168-19.1.4a30.246,30.246,0,0,1-5.83-.838,2.49,2.49,0,0,1-2.23-2.092c-.162-2.161-.7-4.391.671-6.539a3.23,3.23,0,0,1,2.347-1.57,1.087,1.087,0,0,1,.229,0c8.584-.154,17.174-.545,25.75-.348,3.6.08,7.245.03,10.824.437a43.668,43.668,0,0,0,5.788.345,51.081,51.081,0,0,0,5.087-.465.892.892,0,0,0,.542-.683c-.135-1.4.465-2.868-.415-4.2-.106-.159-.007-.451-.015-.681-.152-4.31-.28-8.618-.471-12.925-.072-1.628-.279-3.25-.452-4.872-.092-.869-.695-1.078-1.457-1.01-2.763.247-5.527-.3-8.324.377a19.856,19.856,0,0,1-5.718.059c-2.212-.13-3.64.239-4.952,2.573-1.607,2.86-4.595,4.731-7.694,6.106-1.94.862-3.871,1.743-5.813,2.6a24.419,24.419,0,0,1-7.859,2.092,53.767,53.767,0,0,1-5.548.431c-4.988-.1-9.722-.994-13.944-4.041-3.117-2.251-6.418-5.235-8.142-8.241m183.344-36.251a.875.875,0,0,1-.459-.46c-.353-.383-.707-.766-1.07-1.145-.014-.013-.117.061-.179.1.287.374.565.757.87,1.115.08.1.251.112.379.394a19549.112,19549.112,0,0,1,.919.921l.427.034a.937.937,0,0,1-.427-.494.875.875,0,0,1-.459-.46M57.624,113.232c-.675.216-1.341.469-2.026.642a40.04,40.04,0,0,1-8.268,1.687,5.683,5.683,0,0,0-2.235.665c-.11.055.23,1.013.357,1.556a1.157,1.157,0,0,1,0,.229c.1,4.234.317,8.481.354,12.7.215,24.238.1,48.479.1,72.718a8.963,8.963,0,0,1-.015,1.608c-.307,1.654.232,2.51,1.845,2.549a49.261,49.261,0,0,0,9.044-.832,16.594,16.594,0,0,1,6.816.119c1.524.417,1.093-.152,1.141-.9.158-2.463-.07-5.039.587-7.362a36.083,36.083,0,0,1,4.446-9.649,8.425,8.425,0,0,0,.459-.945,5.808,5.808,0,0,0-1.06-.2c-5.3-.045-10.6.118-15.885-.419a2.448,2.448,0,0,1-2.1-1.02c-.243-.4-.376-1.33-.192-1.449a4.173,4.173,0,0,1,2.148-.766c6.06.092,12.117.272,18.176.425.077,0,.17-.029.227,0,1.006.575,1.68.009,2.337-.658a20.174,20.174,0,0,1,2.449-2.421,37.465,37.465,0,0,1,20.037-7.05c3.6-.2,6.776,1.183,9.864,2.787a3.308,3.308,0,0,1,1.6,1.584c.727,2.24,2.767,3.3,4.1,4.977a2.313,2.313,0,0,0,1.979.8c2.235.072,4.473.213,6.694.467a7.873,7.873,0,0,1,2.372.9c.732.352.762.97.1,1.357a3.218,3.218,0,0,1-1.183.455c-1.615.192-3.236.352-4.86.464-.775.054-1.234.111-.591,1.006.454.632.761,1.369,1.153,2.048a25.659,25.659,0,0,1,3.161,12.495c.045,1.889.064,1.945,1.9,1.951,4.592.014,9.185.1,13.774-.022,4.454-.114,8.9.318,13.366-.362a78.755,78.755,0,0,1,10.36-.514c4.207-.077,8.417-.018,12.626-.018.842,0,1.684.019,2.525-.006.693-.021.7-.371.375-.873a17.387,17.387,0,0,1-1.6-2.555c-1.927-4.518-2.2-8.977.741-13.235.158-.23.351-.436.527-.652a2.765,2.765,0,0,0-.846-.158c-2.1.284-4.178.7-6.281.882-2.379.207-4.761.1-7.165.4-3.493.44-7.05.124-10.6.456-4.172.391-8.409.091-12.618.091a4.888,4.888,0,0,1-.917-.009,1.44,1.44,0,0,1-1.024-2.234c.558-1.045,1.647-.671,2.372-1.064.755-.408.543-2,1.772-2.2a28.53,28.53,0,0,1,4.4-.458c11.57-.021,23.142-.168,34.707.413a11.137,11.137,0,0,0,3.017-.447c2.077-.487,3.966-1.481,6.1-1.948a10.393,10.393,0,0,1,8.354,1.825A8.02,8.02,0,0,0,199,184.526a30.605,30.605,0,0,0,5.308.5c3.213.072,6.428,0,9.642.032,1.363.016,2.645-.019,3.7-1.1.251-.257.814-.263,1.241-.284,3.99-.2,7.982.239,11.989-.4a39.176,39.176,0,0,1,7.563-.039,6.609,6.609,0,0,1,2.657.748c.431.219.955,1.074.827,1.4a2.535,2.535,0,0,1-1.44,1.444,26.312,26.312,0,0,1-4.388.508c-3.3.2-6.594-.083-9.922.383-3.71.522-7.505.035-11.286.455s-7.642.092-11.469.092c-.383,0-.881.155-1.127-.029-1.184-.889-2.5-.23-3.736-.419-.626-.1-.834.239-.515.8.636,1.119,1.353,2.195,1.933,3.341a11.72,11.72,0,0,1,.01,10.552,28.837,28.837,0,0,1-1.628,3c-.227.378-.807.7.186.7,2.775.021,5.556.335,8.305.373,13.925.188,27.854.089,41.782.084,2.177,0,2.9-.725,3.01-2.945.007-.153,0-.307,0-.46-.151-4.693-.26-9.387-.5-14.075a4.238,4.238,0,0,0-.969-2.553,39.167,39.167,0,0,1-5.339-7.236c-2.183-3.653-3.958-7.4-3.752-11.792.076-1.628-.255-3.287.418-4.888.133-.316.549-1.478-.829-.754a6.4,6.4,0,0,1-2.994.49c-5.065-.1-10.128-.28-15.192-.441-.209-.007-.413-.135-.623-.148-1.638-.1-3.367-.568-4.9-.2-3.1.739-6.178.12-9.253.326-.826.056-1.523-1-1.541-1.865-.023-1.158.67-1.336,1.613-1.336,2.012,0,4.02-.27,6.012-.369,7.273-.362,14.559-.394,21.845-.539,1.378-.027,2.755,0,4.133,0,.459,0,1.07-.192,1.35.033,1.279,1.025,1.674-.168,2.234-.833.257-.308.26-.821.487-1.168,1.763-2.689,3.339-5.514,6.2-7.315a2.561,2.561,0,0,0,1.263-3.052,51.8,51.8,0,0,1-.551-9.45c-.016-2.313.4-4.628.407-6.945q.052-27.5.018-55c0-.614.023-1.228-.007-1.841-.023-.518,1.07-.985.138-1.494a3.293,3.293,0,0,0-1.669-.374c-1.7.088-3.391.341-5.091.425-5.364.264-10.728-.161-16.118.381-5.941.6-11.953.2-17.942.428-11.386.425-22.8.02-34.2.152-11.339.132-22.677-.4-34.021.369-8.637.583-17.32-.383-25.982.464-3.563.349-7.188.06-10.785.055a3.027,3.027,0,0,1-1.111-.087,11.12,11.12,0,0,0-6.256-.263c-3.564.642-7.088.212-10.62.239-.692.006-1.073,0-1.164.514a19.368,19.368,0,0,0-.454,4.174,22.126,22.126,0,0,1-1.554,8.58c-.388,1.067-.332,1.127.634,1.12,2.143-.018,4.285-.006,6.428-.006a15.54,15.54,0,0,1,2.519.041A1.646,1.646,0,0,1,95,87.909c.115.284-.165.867-.442,1.138a2.515,2.515,0,0,1-1.306.679c-1.533.219-3.081.367-4.628.473-.99.068-2.006-.1-2.98.037-1.851.27-3.614.3-4.641,2.642a26.8,26.8,0,0,1-6.226,9.162c-1.512,1.389-2.885,2.93-4.377,4.342a12.878,12.878,0,0,1-2.757,2.209c-3.145,1.628-6.367,3.1-10.019,4.637M18.36,104.715c.37.217.749.419,1.107.654,2.031,1.33,3.935,2.861,6.322,3.585a56.4,56.4,0,0,0,15.094,2.9,53.17,53.17,0,0,0,10.413-.878,34.136,34.136,0,0,0,10.1-3.33A32.584,32.584,0,0,0,72.15,99.227,51.067,51.067,0,0,0,77.9,90.549a40.477,40.477,0,0,0,3.927-11.27c.448-2.581.15-5.106.367-7.646A15.993,15.993,0,0,0,80.917,64.8c-.7-1.928-1.707-3.745-2.376-5.682a34.249,34.249,0,0,0-7.7-12.2c-1.817-1.942-4.075-3.462-6.051-5.263-.772-.7-1.463-1.009-2.366-.438-.623.395-1.041.185-1.588-.223a8.354,8.354,0,0,0-4.029-1.932,13.494,13.494,0,0,1-3.169-1.179,17.991,17.991,0,0,0-9.185-.992c-3.024.412-6.107.5-9.078,1.3a56.393,56.393,0,0,0-7.208,1.991c-3.4,1.429-6.147,3.972-8.757,6.5A56.821,56.821,0,0,0,13.7,53.719a36.064,36.064,0,0,0-5.327,9.97A49.03,49.03,0,0,0,6.756,71.1a32.533,32.533,0,0,0-.229,8.564A65.928,65.928,0,0,0,8.75,89.983a17.564,17.564,0,0,0,1.973,5.143,45.621,45.621,0,0,0,7.637,9.589m174.275-36.6c8.124-.273,16.245.249,24.386-.371,8.247-.628,16.562.358,24.833-.523,2.98-.318,6-.322,8.991-.506.275-.017.769-.312.766-.464-.106-3.083-.246-6.167-.462-9.243-.023-.306-.54-.74-.9-.829a12.91,12.91,0,0,0-3.017-.472c-8.725-.035-17.45,0-26.175-.048a2.947,2.947,0,0,0-2.35,1.025,36.213,36.213,0,0,1-5.864,4.638c-4.832,3.333-10.312,3.918-15.847,4.457-.91.089-1.861-.408-2.791-.4-2.973.021-5.632-1.02-8.309-2.143-2.852-1.2-4.789-3.462-6.878-5.566-.508-.512-.775-1.476-1.341-1.662-.548-.181-1.328.409-2.024.584a3.857,3.857,0,0,1-1.144.013c-2.463-.148-4.923-.39-7.387-.437-3.9-.075-7.807-.02-11.71-.02-.689,0-1.6.28-2.023-.056-1.006-.792-1.781-.084-2.648.057a19.055,19.055,0,0,1-2.8.439q-7.117.068-14.235,0a2.4,2.4,0,0,0-2.429,1.5,13.481,13.481,0,0,1-3.692,4.468,15.111,15.111,0,0,1-9.243,3.168,9.756,9.756,0,0,1-7.271-2.9,2.49,2.49,0,0,0-1.54-.658,2.911,2.911,0,0,1-2.838-1.943c-.4-.987-.66-2.032-1.119-2.986-.213-.443-.731-1.012-1.142-1.04a16.769,16.769,0,0,0-5.256.034,17.2,17.2,0,0,1-7.16.259c-3.034-.49-6.017-.155-9.014-.316-1.063-.057-1.3.462-.814,1.437a33.6,33.6,0,0,1,3.579,10c.214,1.447.684,1.52,1.772,1.437,2.384-.181,4.77-.431,7.157-.444,4.914-.029,9.821,0,14.741.353,3.965.287,7.991-.184,11.973-.274,21.667-.487,43.349.452,65.017-.552,1.909-.089,3.826-.012,6.2-.012M83.8,181.819a20.55,20.55,0,0,0-8.821,6.94c-2.935,4.068-5.78,8.11-6.1,13.349-1.31,2.559-.25,5.189.2,7.615A29.933,29.933,0,0,0,72.9,219.4a20.359,20.359,0,0,0,9.148,7.864,21.428,21.428,0,0,0,10.419,1.96c1.013-.056,2.014-.307,3.024-.442a18.139,18.139,0,0,0,3.909-.545c1.173-.44,2.8-.479,3.2-2.18a.9.9,0,0,1,.475-.483c2.965-1.389,5.12-3.771,7.376-6.027a19.7,19.7,0,0,0,4.892-8.094c1.847-5.77,1.939-6.729,1.2-11.954a8.788,8.788,0,0,0-1.538-4.417,67.374,67.374,0,0,1-4.719-7,27.471,27.471,0,0,0-4.41-5.3c-1.076-1.071-2.1-2.2-3.238-3.2a3.957,3.957,0,0,0-1.883-.95,18.725,18.725,0,0,0-6.518-.138A34.545,34.545,0,0,0,83.8,181.822M211.922,58.453a13.926,13.926,0,0,1,4.593-5.412,12.086,12.086,0,0,0,4.136-4.731,33.974,33.974,0,0,0,1.454-3.766c1.341-4.474,2.816-8.935,2.436-13.715-.1-1.245-.357-2.478-.439-3.723a13.465,13.465,0,0,0-2.647-7.421,26.968,26.968,0,0,1-1.922-2.429,14.857,14.857,0,0,0-6.167-5.591,24.73,24.73,0,0,0-10.951-2.96,4.81,4.81,0,0,1-2.657-.727c-2.087-1.564-4.5-1.374-6.663-.98-5.033.916-9.055,3.923-12.832,7.235a29.057,29.057,0,0,0-6.424,8.388,19.46,19.46,0,0,0-2.028,6.493,28.505,28.505,0,0,0,.931,10.865c.376,1.428.335,3.515,2.578,3.96.239.048.39.978.418,1.509.032.618-.41,1.449-.144,1.836,2.448,3.537,4.346,7.457,7.561,10.467A17.79,17.79,0,0,0,193.8,62.516a27.867,27.867,0,0,0,18.119-4.061m72.329,117.151a15.867,15.867,0,0,0,.992-9.609,30.633,30.633,0,0,0-3.736-10.434,19.122,19.122,0,0,0-6.959-7.136,11.877,11.877,0,0,0-3.94-1.526,20.776,20.776,0,0,0-6.521-.192,25.782,25.782,0,0,0-9.683,3.325,23.236,23.236,0,0,0-6.349,6.176c-1.41,1.942-1.566,4.325-1.851,6.574a13.436,13.436,0,0,0,.436,4.853c.609,2.405,1.127,4.972,2.383,7.04a44.056,44.056,0,0,0,7.967,9.583,15.535,15.535,0,0,0,10.307,3.932,25.624,25.624,0,0,0,6.5-.887c2.182-.49,6.163-3.486,7.747-5.676a17.291,17.291,0,0,0,2.707-6.025M28.463,156.732c-.3-1.377-1.414-1.555-2.5-1.592-1.984-.067-3.973-.036-5.959-.005a4.27,4.27,0,0,0-1.25.292c-5.118,1.72-8.6,5.136-9.818,10.408a18.591,18.591,0,0,0,.185,6.438,12.444,12.444,0,0,0,2.76,5.753A10.9,10.9,0,0,0,23.9,182.071a16.033,16.033,0,0,0,8.046-5.891,9.819,9.819,0,0,0,2.455-5.386c.239-4.434-.755-8.466-4.3-11.537a7.263,7.263,0,0,1-1.636-2.526M278.968,78.707c-.671-1.472-1.975-2.395-3.04-3.528-2.119-2.261-4.916-2.911-7.786-3.337a3.065,3.065,0,0,0-2.048.507,11.973,11.973,0,0,0-2.416,2.382c-3.109,4.038-4.271,8.375-2.452,13.427a8.357,8.357,0,0,0,7.146,5.292,14.493,14.493,0,0,0,7.251-1.874,8.785,8.785,0,0,0,3.345-12.869M113.65,61.215a9.581,9.581,0,0,0,1.457.907,10.982,10.982,0,0,0,7.6-.071c3.1-1.014,5.733-3.046,6.556-6.426a11.3,11.3,0,0,0-1.5-8.836,7.342,7.342,0,0,0-4.942-3.458,12.075,12.075,0,0,0-7.693.862c-2.123,1.044-4.286,2.059-5.135,4.572a9.686,9.686,0,0,0-.3,3.879,12.031,12.031,0,0,0,3.96,8.57M194.7,204.606c.378-.379.792-.73,1.129-1.143,1.768-2.162,2.87-4.857,2.408-7.423a13.39,13.39,0,0,0-5.72-8.821c-2.549-1.737-5.946-2.172-7.783-.649-2.8,2.321-4.77,5.185-4.732,9.052.012,1.226,0,2.452,0,3.678a8.049,8.049,0,0,0,5.518,7.37c3.3,1.031,6.37.766,9.177-2.064m-17.912-6.9c.088-2.131-.372-4.327.782-6.335.106-.184-.038-.512-.067-.774-.239.176-.554.3-.7.537-1.291,2.018-.892,4.294-.89,6.5,0,.18.574.358.88.076Z" transform="translate(114.326 134.233)"></path><path id="Path_26418" data-name="Path 26418" d="M118.363,122.427c9.639,0,19.049-.011,28.459.02a5.648,5.648,0,0,1,2.32.471,1.43,1.43,0,0,1,.067,2.714,3.95,3.95,0,0,1-1.637.461c-4.219.186-8.441.317-12.661.479-3.688.144-7.4.056-11.049.512-6.672.835-13.347.144-20.014.383-.543.02-1.417-.122-1.59-.465-.776-1.542-2-.951-3.157-.906-1.451.056-2.909-.045-4.358.028-1.852.093-3.7.276-5.547.454-.761.073-1.429-.1-1.568-.886-.144-.8-.172-1.7,1.011-1.9a12.657,12.657,0,0,1,1.419-.431c4.832-.183,9.664-.374,14.5-.463,3.975-.074,7.956,0,11.934-.035A13.19,13.19,0,0,0,118.363,122.427Z" transform="translate(102.953 119.053)"></path><path id="Path_26419" data-name="Path 26419" d="M58.13,180.852a4.2,4.2,0,0,1,1.53-.556c5.427-.031,10.855-.048,16.284,0,1.238.011,2.47.359,3.71.409a2.6,2.6,0,0,0,1.83-.468c.975-1.078,2.169-.753,3.33-.9a101.424,101.424,0,0,1,14.26-.421c4.066.057,8.149.1,12.185.527,1.868.2,3.927.091,5.641,1.28.54.375,1.131.871.759,1.386-.33.456-.027,1.4-1.062,1.421-.856.013-1.708.411-2.562.412q-24.767.04-49.535,0a52.186,52.186,0,0,1-5.313-.448C57.9,183.355,57.434,182.309,58.13,180.852Z" transform="translate(106.817 111.84)"></path><path id="Path_26420" data-name="Path 26420" d="M110.952,153.036h52.805c.383,0,.766-.011,1.149,0,1.341.048,1.591.29,1.613,1.548.022,1.31-.231,1.623-1.49,1.667-4.758.166-9.515.348-14.272.453a90.5,90.5,0,0,1-9.18-.026,245.918,245.918,0,0,0-26.442-.317c-4.833.135-9.669.293-14.507.354-.459.006-1,.158-1.359-.034a3.674,3.674,0,0,1-1.559-1.361c-.148-.294.335-1.216.75-1.423a7.146,7.146,0,0,1,2.854-.827C104.445,152.974,107.585,153.036,110.952,153.036Z" transform="translate(101.639 115.143)"></path><path id="Path_26421" data-name="Path 26421" d="M257.66,100.726c-.549.154-.862.431-1.187.442-5.293.18-10.584.4-15.879.46-6.733.077-13.468-.026-20.2.04-2.846.028-5.688.322-8.535.413a5.782,5.782,0,0,1-2.1-.453c-.892-.328-.914-1.171-.748-1.91.144-.643.691-.833,1.389-.853,4.071-.114,8.138-.3,12.207-.434,1.223-.041,2.449.009,3.673-.011.884-.014,1.836.255,2.384-.892.148-.309.893-.455,1.368-.464,3.462-.066,6.953-.455,10.366-.352,7.056.213,14.108.276,21.165.352a25.4,25.4,0,0,1,3.938.464,2.627,2.627,0,0,1,1.313.671c.732.711.542,1.533-.473,1.855a13.314,13.314,0,0,1-3.171.646C261.413,100.8,259.65,100.726,257.66,100.726Z" transform="translate(87.187 122.342)"></path><path id="Path_26422" data-name="Path 26422" d="M230.759,125.591a158.792,158.792,0,0,1-17.476.438,19.823,19.823,0,0,1-4.612-.5c-.684-.168-1.841-.348-1.791-1.588a1.913,1.913,0,0,1,2.088-1.544c1.087.068,2.232-.4,3.279.4.29.222.892.034,1.351.034,4.512,0,9.052.324,13.528-.089,4.694-.431,9.4.053,14.033-.468a75.923,75.923,0,0,1,9.914-.319c4.55.082,9.092.565,13.654.431a4.554,4.554,0,0,1,1.02.3,1.475,1.475,0,0,1,1.2,1.7,2.333,2.333,0,0,1-1.7,1.169c-7.328.958-14.719.678-22.052.362C239.124,125.736,235.052,125.817,230.759,125.591Z" transform="translate(87.453 119.112)"></path><path id="Path_26423" data-name="Path 26423" d="M124.621,103.15c-1.76,0-3.294.065-4.82-.019a1.685,1.685,0,0,1-1.562-2.431,1.944,1.944,0,0,1,1.448-.738c1.832-.087,3.674.023,5.508-.048,2.464-.1,4.924-.291,7.386-.449.216-.014.524.01.63-.117,1.369-1.639,3.241-1.2,5-1.262,4.452-.148,8.9-.391,13.354-.427,2.69-.021,5.383.27,8.074.431a1.736,1.736,0,0,1,1.7,1.48c.159.806-.359,1.2-1.149,1.319-.562.084-1.1.376-1.661.4-3.761.184-7.556.082-11.276.561-2.481.32-4.981,0-7.384.443-3.472.646-6.929.183-10.381.4C127.935,102.8,126.394,103,124.621,103.15Z" transform="translate(98.991 122.219)"></path><path id="Path_26424" data-name="Path 26424" d="M214.348,181.39c.688,0,1.149-.02,1.6,0,.989.052,1.19.7,1.157,1.545-.033.831-.42,1.192-1.261,1.224-3.375.129-6.748.31-10.123.447-4.137.168-8.318,0-12.4.545-4.921.659-9.818.136-14.717.373-1.012.048-1.974.012-2.458-1.2-.413-1.034.006-2,1.07-2.008,3.284-.022,6.57-.039,9.854.011a3.679,3.679,0,0,0,2.622-.872,4.184,4.184,0,0,1,3.034-1.006c3.36.048,6.747-.239,10.076.088,3.535.348,7.055.357,10.587.41C213.637,180.953,213.878,181.237,214.348,181.39Z" transform="translate(91.464 111.646)"></path><path id="Path_26425" data-name="Path 26425" d="M222.962,153.311c.41,2.16-.057,2.759-1.831,2.887-9.324.674-18.663.42-28,.431a11.782,11.782,0,0,1-3.458-.5,2.357,2.357,0,0,1-1.223-1.443c-.239-.778.353-1.16,1.13-1.306a24.206,24.206,0,0,1,3.989-.836c7.1-.085,14.208-.1,21.312-.009a73.631,73.631,0,0,1,8.077.772Z" transform="translate(89.853 115.213)"></path><path id="Path_26426" data-name="Path 26426" d="M253.975,156.116c-2.065,0-3.9.06-5.735-.016a54.138,54.138,0,0,1-6-.5c-.583-.09-1.06-.871-1.586-1.335a16.391,16.391,0,0,1,1.9-1.793c.307-.216.892-.036,1.351-.036,3.824,0,7.649.059,11.471-.015,4.68-.09,9.356-.294,14.036-.443a4.492,4.492,0,0,1,1.593.03c.778.282,1.587.556,1.385,1.809-.168,1.061-.592,1.366-1.587,1.4-3.532.112-7.083.1-10.584.517A58.618,58.618,0,0,1,253.975,156.116Z" transform="translate(83.066 115.285)"></path><path id="Path_26427" data-name="Path 26427" d="M82.767,152.888c1.375-.116,1.975.389,1.823,1.551a1.709,1.709,0,0,1-1.746,1.664c-1.3.032-2.6-.019-3.9.012-5.9.144-11.8.319-17.7.447-2.2.048-3.1-.58-3.688-2.5-.174-.569-.231-1.2.711-1.258a9.721,9.721,0,0,0,1.216-.369,24.175,24.175,0,0,1,10.4-.011,2.5,2.5,0,0,0,.458.005C74.405,152.581,78.472,152.734,82.767,152.888Z" transform="translate(106.863 115.291)"></path><path id="Path_26428" data-name="Path 26428" d="M191.516,125.653c-3.815,0-7.4-.059-10.986.018-2.99.065-5.978.274-8.965.45-1.121.066-1.672-.329-1.648-1.529.025-1.272.33-1.638,1.927-1.689,1.676-.053,3.358.029,5.035-.02,4.439-.13,8.876-.322,13.314-.429a4.907,4.907,0,0,1,2.087.46c1.452.666,1.51,1.114.4,2.241a2.737,2.737,0,0,1-1.161.5Z" transform="translate(92.254 119.05)"></path><path id="Path_26429" data-name="Path 26429" d="M139.921,181.56c1.328-1.109,2.848-.75,4.019-.461a17.129,17.129,0,0,0,3.5.329c1.524.066,3.056-.042,4.58.031,2,.1,4,.261,5.991.474a1.359,1.359,0,0,1,1.016.69c.071.3-.3.829-.613,1.063a2.811,2.811,0,0,1-1.381.5c-2.376.192-4.756.394-7.136.461q-4.119.116-8.244,0C139.606,184.593,139,183.527,139.921,181.56Z" transform="translate(96.205 111.592)"></path><path id="Path_26430" data-name="Path 26430" d="M187.374,99.2c2.286,0,4.342.03,6.4-.016.7-.016,1.273.219,1.346.848.034.3-.537.829-.937.979a13.247,13.247,0,0,1-3.267.918c-2.592.257-5.2.364-7.8.471-.47.019-.944-.314-1.43-.377a1.275,1.275,0,0,1-1.169-1.76,1.511,1.511,0,0,1,1.606-1.049C183.792,99.172,185.469,99.2,187.374,99.2Z" transform="translate(90.886 122.024)"></path><path id="Path_26431" data-name="Path 26431" d="M25.774,77.963c-.153-2.542-.352-4.851-.444-7.165-.07-1.754.557-2.412,2.289-2.494,3.757-.178,7.537-.119,11.267-.527,3.231-.353,6.492-.037,9.665-.476,5.147-.711,10.282-.126,15.411-.4a7.045,7.045,0,0,0,2.1-.462,2.372,2.372,0,0,1,2.966.8c.638.831.39,1.516-.173,2.386a6.059,6.059,0,0,0-.795,2.862,48.355,48.355,0,0,0-.009,6.2A25.865,25.865,0,0,1,65.9,90.452c-.4.983-.753,1.986-1.137,2.975A5.278,5.278,0,0,1,61.638,96.3a17.127,17.127,0,0,1-4.859,1.066,197.936,197.936,0,0,1-20.909.308c-2.756-.051-5.722-.034-8.168-1.785-.67-.479-1.55-1.168-1.648-1.859-.246-1.729-1.446-3.434-.314-5.291.239-.391.034-1.054.034-1.588v-9.2M28.53,91.081a3,3,0,0,0,2.1,2.5,9.826,9.826,0,0,0,2.778.481c2.762.192,5.529.406,8.3.454,4.28.075,8.563.057,12.844,0a41.542,41.542,0,0,0,4.167-.441,4.357,4.357,0,0,0,3.793-3.426c.279-.882.564-1.764.788-2.661.818-3.268,1.846-6.5,1.528-9.952a30.546,30.546,0,0,1,0-3.677,3.219,3.219,0,0,1,.308-.9,3.92,3.92,0,0,0-1.1.475c-2.812,2.471-5.571,5-8.4,7.456a19.859,19.859,0,0,1-7.8,4.44,4.984,4.984,0,0,1-2.906.144,14.014,14.014,0,0,1-5.991-3.817,39.273,39.273,0,0,0-8.917-6.19c-.843-.456-.984-.416-1.057.517a8.282,8.282,0,0,0-.077,3.1c.3,1.117-.3,2.449-.34,3.692-.07,2.451-.021,4.9-.021,7.817m8.5-16.342A52.486,52.486,0,0,0,45.105,78.5a7.438,7.438,0,0,0,6.586-1.015c3.448-2.059,6.789-4.3,10.167-6.473a4.414,4.414,0,0,0,.652-.643,2.885,2.885,0,0,0-.821-.218c-2.995.122-5.978.043-8.99.352-4.944.508-9.951.379-14.929.567-2.538.1-5.07.3-7.6.449-.152.009-.348-.059-.45.013a6.131,6.131,0,0,0-.666.616c.224.1.453.29.671.278,2.595-.144,4.7,1.135,7.3,2.316M46.9,83.258a7.657,7.657,0,0,0,1.5-.255c.3-.11.5-.467.752-.713a3.978,3.978,0,0,0-.839-.173c-1.986.017-4,.2-5.651-1.27-.053-.048-.129-.124-.177-.113-.2.05-.492.073-.578.212s-.012.541.091.584c1.562.646,2.747,2.211,4.909,1.727Z" transform="translate(111.044 126.231)"></path><path id="Path_26432" data-name="Path 26432" d="M94.181,220.02a6.485,6.485,0,0,1-1.054-1.563,1.663,1.663,0,0,1,.13-1.371,20.4,20.4,0,0,1,5.456-4.528c1.716-.953,2.948-.681,4.353.718.542.541,1.075,1.091,1.624,1.625,1.316,1.28,1.322,1.28,2.7-.073.71-.7,1.389-1.429,2.114-2.107,1.625-1.522,2.527-1.5,4.1.078q2.275,2.274,4.542,4.556c1.22,1.235,1.293,2.117.252,3.461a13.339,13.339,0,0,1-2.3,2.7c-1.154.853-.415,1.58-.073,2.251a19.28,19.28,0,0,0,1.58,2.107c.862,1.226.846,2.138-.2,3.12a2.345,2.345,0,0,0-.726,2.855,13.492,13.492,0,0,1,.051,5.023,2.386,2.386,0,0,1-1.189,1.7,108.874,108.874,0,0,1-10.406,3.672c-2.867.788-5.471-.419-7.783-2.165-.763-.575-1.517-1.168-2.242-1.791a4.114,4.114,0,0,1-1.756-3.645,3.4,3.4,0,0,0-.942-2.854,18.7,18.7,0,0,1-2.479-4.232,2.912,2.912,0,0,1,.682-3.422,8.919,8.919,0,0,1,3.664-2.785c.465-.156.862-.541,1.329-.66.694-.176.666-.5.293-.92-.511-.569-1.074-1.091-1.73-1.748m9.759,20.83c.048.6.123,1.167.969.87,2.6-.913,5.2-1.8,7.779-2.763.5-.188,1.245-.606,1.293-.992a21.212,21.212,0,0,0-.034-3.629.744.744,0,0,0-.581-.136c-.257.137-.417.447-.663.62-2.425,1.7-3.567,1.692-6.082-.037-.6-.411-1.163-.87-1.758-1.286-.169-.118-.509-.277-.562-.221a1.164,1.164,0,0,0-.343.695c-.025,2.139-.015,4.279-.015,6.879m7.118-8.056c.743-.591,1.509-1.156,2.222-1.781.74-.647,1.429-1.353,2.14-2.034a21.8,21.8,0,0,0-2.217-2.251,1.676,1.676,0,0,0-1.506-.044,23.251,23.251,0,0,0-3.017,2.07c-.712.558-1.327,1.239-1.985,1.868.675.709,1.318,1.453,2.039,2.112a2.214,2.214,0,0,0,1.149.488c.216.03.477-.274,1.176-.428m-2.067-15.422c-.71.647-.707,1.338.057,1.873,1.049.735,2.231,1.287,3.24,2.068a1.136,1.136,0,0,0,1.7-.024c.5-.431,1.05-.808,1.528-1.261.748-.71.4-1.344-.246-1.875A18.528,18.528,0,0,1,113.7,217c-2.4-2.428-2.076-2.282-4.316-.023l-.391.392m-14.006,8.976a8.792,8.792,0,0,0-1.555,1.149c-.3.34-.628,1.08-.465,1.341a26.31,26.31,0,0,0,2.7,3.661c.6.671,1.911.374,2.85-.666a1.916,1.916,0,0,0,.157-1.724,30.088,30.088,0,0,0-2.215-3.64c-.255-.377-.623-.975-1.472-.125m4.592,8.285a15.09,15.09,0,0,1-2.168,1.357c-1.444.6-1.746,1.026-.746,2.089a31.214,31.214,0,0,0,3.741,3c.4.311.808.771.8-.294a16.451,16.451,0,0,1,.431-5.74,1.184,1.184,0,0,0-.018-.888.829.829,0,0,0-.757-.293,6.712,6.712,0,0,1-1.279.772m-.459-14.272c1.095-.637,2.193-1.269,3.279-1.921.1-.058.131-.245.162-.379a2.525,2.525,0,0,0-1.539-2.308c-1.636-.328-2.892.828-3.787,1.656s.779,1.606,1.341,2.4a6.814,6.814,0,0,0,.547.553m2.985,8.976-.275-.184c.008.148.023.285.268.193Z" transform="translate(102.682 107.656)"></path><path id="Path_26433" data-name="Path 26433" d="M246.6,45.686a29.932,29.932,0,0,1-3.492,4.481,17.709,17.709,0,0,1-10.468,5.178c-2.986.409-6.2.686-9.193-.366-2.318-.814-4.385-.218-6.5.618a9.148,9.148,0,0,1-2.66.755,1.752,1.752,0,0,1-1.8-2.661c.991-1.831,2.236-3.524,3.374-5.275.041-.063.116-.1.159-.165,1.724-2.455,1.651-2.383-.436-4.466-1.621-1.617-3.507-3-4.428-5.28-2.778-6.876-2.1-13.352,2.259-19.3a14.464,14.464,0,0,1,4.116-3.291,22.142,22.142,0,0,1,7.541-2.894,16.352,16.352,0,0,1,11.261,1.96,21.416,21.416,0,0,1,9.674,9.637,21.165,21.165,0,0,1,2.1,8.107c.062,1.168.568,2.372.39,3.482-.454,2.839-.309,5.82-1.766,8.458-.13.235-.017.6-.132,1.026M217.094,41.2c.575.46,1.126.958,1.729,1.374a3.73,3.73,0,0,1,1.7,3.827,7.223,7.223,0,0,1-2.676,4.646,2.417,2.417,0,0,0-.4.642,2.432,2.432,0,0,0,.872.086c1.635-.479,3.274-.953,4.878-1.523a4.321,4.321,0,0,1,4.526.671,7.065,7.065,0,0,0,8.514-.016,18.306,18.306,0,0,0,4.507-4.5c2.821-4.091,4.536-8.516,3.748-13.738a17.457,17.457,0,0,0-2.406-6.838,17.3,17.3,0,0,0-3.409-4.3,12.97,12.97,0,0,0-6.818-2.9,29.841,29.841,0,0,1-6.026-.971c-2.333-.766-4.137-.173-6.175.935a12.965,12.965,0,0,0-6.795,9.622c-.741,4.658.178,9.286,4.224,12.983Z" transform="translate(87.112 133.075)"></path><path id="Path_26434" data-name="Path 26434" d="M315.074,201.335c-6.921.958-13.761.413-20.582.588a4.326,4.326,0,0,1-4.2-2.591,14.829,14.829,0,0,1-2.232-7.839c.048-1.695-.363-3.4-.4-5.1a5.372,5.372,0,0,1,5.04-5.643c1.293-.075,2.6-.015,3.9-.016.076-1.273.071-2.558.269-3.811a1.817,1.817,0,0,1,.976-1.2c.631-.239,1.141.2,1.272.9a21.641,21.641,0,0,1,.443,2.8c.053.972.5,1.348,1.408,1.316.383-.013.766.015,1.15-.006.819-.045,2.305.017,2.342-.186a11.722,11.722,0,0,0-.1-3.065c-.016-.207-.229-.448-.17-.6a3.5,3.5,0,0,1,.843-1.6c.227-.159,1.171.291,1.437.7a10.3,10.3,0,0,1,.91,2.372c.6,1.783.766,1.861,2.657,1.937,1.931.079,3.887-.341,5.786.431a3.918,3.918,0,0,1,2.574,3.467c.03,2.454.126,4.916-.027,7.361-.144,2.261-.714,4.5-.838,6.756-.09,1.676-1.178,2.257-2.457,3.031m-22.845-5.179c.431,2.335,1.093,2.953,3.226,2.99.841.014,1.681,0,2.519,0,1.681,0,3.477-.383,5.017.08,3.235.973,6.274-.473,9.412-.292a2.13,2.13,0,0,0,1.249-.273c.569-.391,1.428-.906,1.469-1.424.179-2.229-.078-4.486.485-6.705.05-.207-.551-.847-.822-.83-2.882.18-5.752.575-8.631.668-3.814.123-7.637.057-11.453.01-.854-.011-1.7-.339-2.56-.426a1.062,1.062,0,0,0-1.265,1.389,34.933,34.933,0,0,0,1.354,4.809m-1.149-9.9c.239.307.464.864.721.88a18.745,18.745,0,0,1,5.058.479c.939.319,1.006-.426.868-1.051-.689-3.076-.705-3.073-4.211-3.072-.454,0-.91.014-1.366,0-.978-.037-1.33.489-1.3,1.392a3.6,3.6,0,0,0,.229,1.373m11.94-2.762c-3.265,0-3.29.007-2.491,3.161a1.533,1.533,0,0,0,1,.94,10.813,10.813,0,0,0,2.73.024,23.15,23.15,0,0,0,2.517-.52,18.492,18.492,0,0,0-.8-2.514,2.427,2.427,0,0,0-1.141-1.054,5.709,5.709,0,0,0-1.812-.036m7.807,3.682c1.077-.153,2.147-.378,3.226-.437.82-.045,1.5-.14,1.589-1.109.1-1.016-.755-2.548-1.488-2.578-1.515-.062-3.038-.056-4.55.02-.237.012-.7.623-.631.807a9.917,9.917,0,0,0,1.855,3.3Z" transform="translate(76.96 112.302)"></path><path id="Path_26450" data-name="Path 26450" d="M240.664,38.257c-1.639-.189-2.833-1.227-2.573-2.38a3.281,3.281,0,0,1,1.565-2c.461-.223,1.559.25,1.987.746a1.778,1.778,0,0,1,.254,2.383C241.561,37.418,241.153,37.767,240.664,38.257Z" transform="translate(83.404 130.376)"></path><path id="Path_26451" data-name="Path 26451" d="M221.129,37.63c.356-2.027,1.44-2.834,2.634-2.192,1.088.584,1.3,1.6.579,2.782-.623,1.024-1.5,1.125-2.571.277A2.265,2.265,0,0,1,221.129,37.63Z" transform="translate(85.602 130.198)"></path><path id="Path_26452" data-name="Path 26452" d="M232.27,38.91c-2.152-.737-2.455-1.149-2.188-2.566.188-.994.879-1.014,1.67-1.014.825,0,1.449.17,1.552,1.128a2.363,2.363,0,0,1-1.035,2.452Z" transform="translate(84.45 130.184)"></path></g></g></svg>