<svg xmlns="http://www.w3.org/2000/svg" width="850.414" height="168.582" viewBox="0 0 850.414 168.582"><defs><style>.a,.f,.h{fill:#2680eb;}.b{fill:#a2a2a2;}.c,.l,.m{fill:#fff;}.d{fill:#ececec;}.e,.f,.i,.l{font-size:8px;}.e,.h,.j,.k,.l,.m{font-family:SegoeUI, Segoe UI;}.f,.i{font-family:NirmalaUI, Nirmala UI;}.g{fill:#000;}.k{font-size:9px;}.m{font-size:11px;}</style></defs><g transform="translate(10210.522 2936.585)"><g transform="translate(-10210.522 -2936.585)"><g transform="translate(0 0)"><path class="a" d="M9773.056,1598.851v-10.913s-4.366-9.128,1.981-14.485l15.279,12.7-13.493,10.913Z" transform="translate(-9494.085 -1514.965)"></path><g transform="translate(309.133 3.593)"><path class="b" d="M5671.48,496.027c2.754,62.636,3.247,117.928,3.247,117.928V632.53l5.143,3.887h18.27l11.72,1.2,1.09,18.657H5714l21.374-17.3,4.706-2.55,6.088-1.638,41.652,1.638h108.938l32.323-1.634,2.622-8.69,1.457-46.008h-6.992V559.632h5.535l-2.622-60.208s3.1-5.708-13.449-4.5-119.812,0-119.812,0h-121.1Z" transform="translate(-5671.478 -493.551)"></path><path class="b" d="M108.915.182c15-.093,29.887-.356,44.74-.006C164.672.437,175.7.059,186.68.537c11.2.487,22.411-.151,33.568.372,8.143.382,16.261.114,24.385.308.572.014,1.127.244,1.7.292.594.05,1.522.17,1.757-.036,1.181-1.031,2.423-.565,3.759-.283.971.2,2.038.2,3.007.4,2.345.5,3.812,1.642,4.23,3.283.346,1.355.341,2.751.585,4.12.708,3.971.2,7.974.655,11.934.222,1.939.076,3.89.454,5.8,1.016,5.152-.043,10.338.569,15.475a141.569,141.569,0,0,1,.326,24.407c-.6,11.119-.2,22.229-.357,33.342-.158,11.163-.012,22.327-.058,33.491a17.284,17.284,0,0,1-.605,5.043c-.306.991-.951,1.956-1.233,2.991-.24.878-1.3,1.363-2.513,1.527a79.877,79.877,0,0,1-11.444.793c-10.9-.1-21.826-.311-32.707.034-14.712.465-29.432-.1-44.11.4-8.593.3-17.186.429-25.73.173-8.768-.262-17.551.136-26.267-.351-7.247-.405-14.492.125-21.675-.35-7.869-.519-15.722-.114-23.578-.331-1.473-.041-2.519.138-3.037,1.2-1.046,2.152-3.528,3.634-5.573,5.281-3.8,3.058-7.861,5.958-11.806,8.929-1.73,1.3-3.407,2.639-5.18,3.912-.71.509-1.667.852-2.423,1.336a4.047,4.047,0,0,1-3.674.806A3.392,3.392,0,0,1,37.4,162a6.025,6.025,0,0,1-.007-.929c0-3.163-.078-6.327.028-9.489.067-2-.693-3.893-1.126-5.83-.165-.736-2.443-1.6-4.161-1.606-2.972-.02-5.944,0-8.921,0-3.515,0-7.034.087-10.541-.033-2.116-.072-4.214-.447-6.312-.717-1.96-.253-3.2-1.326-4.656-2.11-.464-.25-.521-.98-.525-1.491-.039-4.217.3-8.448-.082-12.65C.054,115.463.93,103.79.646,92.12c-.029-1.189.482-2.378.474-3.566C1.108,87.18.642,85.8.641,84.427Q.594,45.076.594,5.722A2.9,2.9,0,0,0,.181,3.607c-.745-.976.927-2.279,2.873-2.391C5.944,1.052,8.848.87,11.749.851,19.408.8,27.081.635,34.726.871c23.715.733,47.435.117,71.15.317,1.09.009,2.663.472,3.039-1.006M4.4,45.685c0,23.322-.042,46.643.025,69.965.02,7.144.317,14.288.539,21.431a6.63,6.63,0,0,0,.637,2.793,2.922,2.922,0,0,0,1.846,1.234,28.5,28.5,0,0,0,4.894.4c8.291.037,16.583.016,24.874.017,2.522,0,3.25.32,3.934,1.951a6.123,6.123,0,0,1,.528,2.446c-.021,1.067-.457,2.129-.477,3.2-.066,3.473-.042,6.947,0,10.42,0,.384.431.761.484,1.152.071.517.168.712.793.229,1.461-1.135,3.033-2.211,4.373-3.411,2.506-2.244,4.854-4.572,7.318-6.836,1.4-1.288,2.906-2.524,4.367-3.781s2.873-2.55,4.413-3.765a9.6,9.6,0,0,1,6.691-2.367c5.688.2,11.385.266,17.078.4,9.837.221,19.671-.235,29.522.3,8,.434,16.061.1,24.106.37,9.622.317,19.283.153,28.928.052s19.318-.033,28.982-.244c17.286-.377,34.6-.106,51.907-.107,4.458,0,7.406-2.02,7.331-5.142-.268-10.989.565-21.983-.474-32.971-.269-2.85.283-5.737.365-8.591.3-10.541,0-21.089.155-31.632.152-10.493-.65-20.994.48-31.481a17.668,17.668,0,0,0-.42-4.5c-.47-3.09-.1-6.211-.524-9.336-.515-3.83.054-7.711-.609-11.565-.344-2-1.316-2.809-4.28-2.867-9.746-.2-19.491.034-29.254-.263-9.443-.287-18.94-.286-28.433.185-10.343.514-20.753.187-31.134.331-15.863.22-31.747.329-47.635-.158-9.8-.3-19.67-.408-29.522.207-4.468.279-9.033-.209-13.557-.3-12.086-.239-24.173.2-36.283-.3-9.789-.4-19.64-.087-29.464-.075-1.747,0-1.889.148-1.961,1.392-.186,3.236-.112,6.468-.416,9.709-.668,7.125.265,14.282-.57,21.431C3.582,38.815,4.223,42.077,4.4,45.685Z" transform="translate(0 0)"></path><path class="b" d="M108.915.182c15-.093,29.887-.356,44.74-.006C164.672.437,175.7.059,186.68.537c11.2.487,22.411-.151,33.568.372,8.143.382,16.261.114,24.385.308.572.014,1.127.244,1.7.292.594.05,1.522.17,1.757-.036,1.181-1.031,2.423-.565,3.759-.283.971.2,2.038.2,3.007.4,2.345.5,3.812,1.642,4.23,3.283.346,1.355.341,2.751.585,4.12.708,3.971.2,7.974.655,11.934.222,1.939.076,3.89.454,5.8,1.016,5.152-.043,10.338.569,15.475a141.569,141.569,0,0,1,.326,24.407c-.6,11.119-.2,22.229-.357,33.342-.158,11.163-.012,22.327-.058,33.491a17.284,17.284,0,0,1-.605,5.043c-.306.991-.951,1.956-1.233,2.991-.24.878-1.3,1.363-2.513,1.527a79.877,79.877,0,0,1-11.444.793c-10.9-.1-21.826-.311-32.707.034-14.712.465-29.432-.1-44.11.4-8.593.3-17.186.429-25.73.173-8.768-.262-17.551.136-26.267-.351-7.247-.405-14.492.125-21.675-.35-7.869-.519-15.722-.114-23.578-.331-1.473-.041-2.519.138-3.037,1.2-1.046,2.152-3.528,3.634-5.573,5.281-3.8,3.058-7.861,5.958-11.806,8.929-1.73,1.3-3.407,2.639-5.18,3.912-.71.509-1.667.852-2.423,1.336a4.047,4.047,0,0,1-3.674.806A3.392,3.392,0,0,1,37.4,162a6.025,6.025,0,0,1-.007-.929c0-3.163-.078-6.327.028-9.489.067-2-.693-3.893-1.126-5.83-.165-.736-2.443-1.6-4.161-1.606-2.972-.02-5.944,0-8.921,0-3.515,0-7.034.087-10.541-.033-2.116-.072-4.214-.447-6.312-.717-1.96-.253-3.2-1.326-4.656-2.11-.464-.25-.521-.98-.525-1.491-.039-4.217.3-8.448-.082-12.65C.054,115.463.93,103.79.646,92.12c-.029-1.189.482-2.378.474-3.566C1.108,87.18.642,85.8.641,84.427Q.594,45.076.594,5.722A2.9,2.9,0,0,0,.181,3.607c-.745-.976.927-2.279,2.873-2.391C5.944,1.052,8.848.87,11.749.851,19.408.8,27.081.635,34.726.871c23.715.733,47.435.117,71.15.317,1.09.009,2.663.472,3.039-1.006M4.4,45.685c0,23.322-.042,46.643.025,69.965.02,7.144.317,14.288.539,21.431a6.63,6.63,0,0,0,.637,2.793,2.922,2.922,0,0,0,1.846,1.234,28.5,28.5,0,0,0,4.894.4c8.291.037,16.583.016,24.874.017,2.522,0,3.25.32,3.934,1.951a6.123,6.123,0,0,1,.528,2.446c-.021,1.067-.457,2.129-.477,3.2-.066,3.473-.042,6.947,0,10.42,0,.384.431.761.484,1.152.071.517.168.712.793.229,1.461-1.135,3.033-2.211,4.373-3.411,2.506-2.244,4.854-4.572,7.318-6.836,1.4-1.288,2.906-2.524,4.367-3.781s2.873-2.55,4.413-3.765a9.6,9.6,0,0,1,6.691-2.367c5.688.2,11.385.266,17.078.4,9.837.221,19.671-.235,29.522.3,8,.434,16.061.1,24.106.37,9.622.317,19.283.153,28.928.052s19.318-.033,28.982-.244c17.286-.377,34.6-.106,51.907-.107,4.458,0,7.406-2.02,7.331-5.142-.268-10.989.565-21.983-.474-32.971-.269-2.85.283-5.737.365-8.591.3-10.541,0-21.089.155-31.632.152-10.493-.65-20.994.48-31.481a17.668,17.668,0,0,0-.42-4.5c-.47-3.09-.1-6.211-.524-9.336-.515-3.83.054-7.711-.609-11.565-.344-2-1.316-2.809-4.28-2.867-9.746-.2-19.491.034-29.254-.263-9.443-.287-18.94-.286-28.433.185-10.343.514-20.753.187-31.134.331-15.863.22-31.747.329-47.635-.158-9.8-.3-19.67-.408-29.522.207-4.468.279-9.033-.209-13.557-.3-12.086-.239-24.173.2-36.283-.3-9.789-.4-19.64-.087-29.464-.075-1.747,0-1.889.148-1.961,1.392-.186,3.236-.112,6.468-.416,9.709-.668,7.125.265,14.282-.57,21.431C3.582,38.815,4.223,42.077,4.4,45.685Z" transform="translate(0 0)"></path></g><g transform="translate(3.07 3.593)"><path class="b" d="M5671.48,496.027c2.754,62.636,3.247,117.928,3.247,117.928V632.53l5.143,3.887h18.27l11.72,1.2,1.09,18.657H5714l21.374-17.3,4.706-2.55,6.088-1.638,41.652,1.638h108.938l32.323-1.634,2.622-8.69,1.457-46.008h-6.992V559.632h5.535l-2.622-60.208s3.1-5.708-13.449-4.5-119.812,0-119.812,0h-121.1Z" transform="translate(-5671.478 -493.551)"></path><path class="b" d="M108.915.182c15-.093,29.887-.356,44.74-.006C164.672.437,175.7.059,186.68.537c11.2.487,22.411-.151,33.568.372,8.143.382,16.261.114,24.385.308.572.014,1.127.244,1.7.292.594.05,1.522.17,1.757-.036,1.181-1.031,2.423-.565,3.759-.283.971.2,2.038.2,3.007.4,2.345.5,3.812,1.642,4.23,3.283.346,1.355.341,2.751.585,4.12.708,3.971.2,7.974.655,11.934.222,1.939.076,3.89.454,5.8,1.016,5.152-.043,10.338.569,15.475a141.569,141.569,0,0,1,.326,24.407c-.6,11.119-.2,22.229-.357,33.342-.158,11.163-.012,22.327-.058,33.491a17.284,17.284,0,0,1-.605,5.043c-.306.991-.951,1.956-1.233,2.991-.24.878-1.3,1.363-2.513,1.527a79.877,79.877,0,0,1-11.444.793c-10.9-.1-21.826-.311-32.707.034-14.712.465-29.432-.1-44.11.4-8.593.3-17.186.429-25.73.173-8.768-.262-17.551.136-26.267-.351-7.247-.405-14.492.125-21.675-.35-7.869-.519-15.722-.114-23.578-.331-1.473-.041-2.519.138-3.037,1.2-1.046,2.152-3.528,3.634-5.573,5.281-3.8,3.058-7.861,5.958-11.806,8.929-1.73,1.3-3.407,2.639-5.18,3.912-.71.509-1.667.852-2.423,1.336a4.047,4.047,0,0,1-3.674.806A3.392,3.392,0,0,1,37.4,162a6.025,6.025,0,0,1-.007-.929c0-3.163-.078-6.327.028-9.489.067-2-.693-3.893-1.126-5.83-.165-.736-2.443-1.6-4.161-1.606-2.972-.02-5.944,0-8.921,0-3.515,0-7.034.087-10.541-.033-2.116-.072-4.214-.447-6.312-.717-1.96-.253-3.2-1.326-4.656-2.11-.464-.25-.521-.98-.525-1.491-.039-4.217.3-8.448-.082-12.65C.054,115.463.93,103.79.646,92.12c-.029-1.189.482-2.378.474-3.566C1.108,87.18.642,85.8.641,84.427Q.594,45.076.594,5.722A2.9,2.9,0,0,0,.181,3.607c-.745-.976.927-2.279,2.873-2.391C5.944,1.052,8.848.87,11.749.851,19.408.8,27.081.635,34.726.871c23.715.733,47.435.117,71.15.317,1.09.009,2.663.472,3.039-1.006M4.4,45.685c0,23.322-.042,46.643.025,69.965.02,7.144.317,14.288.539,21.431a6.63,6.63,0,0,0,.637,2.793,2.922,2.922,0,0,0,1.846,1.234,28.5,28.5,0,0,0,4.894.4c8.291.037,16.583.016,24.874.017,2.522,0,3.25.32,3.934,1.951a6.123,6.123,0,0,1,.528,2.446c-.021,1.067-.457,2.129-.477,3.2-.066,3.473-.042,6.947,0,10.42,0,.384.431.761.484,1.152.071.517.168.712.793.229,1.461-1.135,3.033-2.211,4.373-3.411,2.506-2.244,4.854-4.572,7.318-6.836,1.4-1.288,2.906-2.524,4.367-3.781s2.873-2.55,4.413-3.765a9.6,9.6,0,0,1,6.691-2.367c5.688.2,11.385.266,17.078.4,9.837.221,19.671-.235,29.522.3,8,.434,16.061.1,24.106.37,9.622.317,19.283.153,28.928.052s19.318-.033,28.982-.244c17.286-.377,34.6-.106,51.907-.107,4.458,0,7.406-2.02,7.331-5.142-.268-10.989.565-21.983-.474-32.971-.269-2.85.283-5.737.365-8.591.3-10.541,0-21.089.155-31.632.152-10.493-.65-20.994.48-31.481a17.668,17.668,0,0,0-.42-4.5c-.47-3.09-.1-6.211-.524-9.336-.515-3.83.054-7.711-.609-11.565-.344-2-1.316-2.809-4.28-2.867-9.746-.2-19.491.034-29.254-.263-9.443-.287-18.94-.286-28.433.185-10.343.514-20.753.187-31.134.331-15.863.22-31.747.329-47.635-.158-9.8-.3-19.67-.408-29.522.207-4.468.279-9.033-.209-13.557-.3-12.086-.239-24.173.2-36.283-.3-9.789-.4-19.64-.087-29.464-.075-1.747,0-1.889.148-1.961,1.392-.186,3.236-.112,6.468-.416,9.709-.668,7.125.265,14.282-.57,21.431C3.582,38.815,4.223,42.077,4.4,45.685Z" transform="translate(0 0)"></path><path class="b" d="M108.915.182c15-.093,29.887-.356,44.74-.006C164.672.437,175.7.059,186.68.537c11.2.487,22.411-.151,33.568.372,8.143.382,16.261.114,24.385.308.572.014,1.127.244,1.7.292.594.05,1.522.17,1.757-.036,1.181-1.031,2.423-.565,3.759-.283.971.2,2.038.2,3.007.4,2.345.5,3.812,1.642,4.23,3.283.346,1.355.341,2.751.585,4.12.708,3.971.2,7.974.655,11.934.222,1.939.076,3.89.454,5.8,1.016,5.152-.043,10.338.569,15.475a141.569,141.569,0,0,1,.326,24.407c-.6,11.119-.2,22.229-.357,33.342-.158,11.163-.012,22.327-.058,33.491a17.284,17.284,0,0,1-.605,5.043c-.306.991-.951,1.956-1.233,2.991-.24.878-1.3,1.363-2.513,1.527a79.877,79.877,0,0,1-11.444.793c-10.9-.1-21.826-.311-32.707.034-14.712.465-29.432-.1-44.11.4-8.593.3-17.186.429-25.73.173-8.768-.262-17.551.136-26.267-.351-7.247-.405-14.492.125-21.675-.35-7.869-.519-15.722-.114-23.578-.331-1.473-.041-2.519.138-3.037,1.2-1.046,2.152-3.528,3.634-5.573,5.281-3.8,3.058-7.861,5.958-11.806,8.929-1.73,1.3-3.407,2.639-5.18,3.912-.71.509-1.667.852-2.423,1.336a4.047,4.047,0,0,1-3.674.806A3.392,3.392,0,0,1,37.4,162a6.025,6.025,0,0,1-.007-.929c0-3.163-.078-6.327.028-9.489.067-2-.693-3.893-1.126-5.83-.165-.736-2.443-1.6-4.161-1.606-2.972-.02-5.944,0-8.921,0-3.515,0-7.034.087-10.541-.033-2.116-.072-4.214-.447-6.312-.717-1.96-.253-3.2-1.326-4.656-2.11-.464-.25-.521-.98-.525-1.491-.039-4.217.3-8.448-.082-12.65C.054,115.463.93,103.79.646,92.12c-.029-1.189.482-2.378.474-3.566C1.108,87.18.642,85.8.641,84.427Q.594,45.076.594,5.722A2.9,2.9,0,0,0,.181,3.607c-.745-.976.927-2.279,2.873-2.391C5.944,1.052,8.848.87,11.749.851,19.408.8,27.081.635,34.726.871c23.715.733,47.435.117,71.15.317,1.09.009,2.663.472,3.039-1.006M4.4,45.685c0,23.322-.042,46.643.025,69.965.02,7.144.317,14.288.539,21.431a6.63,6.63,0,0,0,.637,2.793,2.922,2.922,0,0,0,1.846,1.234,28.5,28.5,0,0,0,4.894.4c8.291.037,16.583.016,24.874.017,2.522,0,3.25.32,3.934,1.951a6.123,6.123,0,0,1,.528,2.446c-.021,1.067-.457,2.129-.477,3.2-.066,3.473-.042,6.947,0,10.42,0,.384.431.761.484,1.152.071.517.168.712.793.229,1.461-1.135,3.033-2.211,4.373-3.411,2.506-2.244,4.854-4.572,7.318-6.836,1.4-1.288,2.906-2.524,4.367-3.781s2.873-2.55,4.413-3.765a9.6,9.6,0,0,1,6.691-2.367c5.688.2,11.385.266,17.078.4,9.837.221,19.671-.235,29.522.3,8,.434,16.061.1,24.106.37,9.622.317,19.283.153,28.928.052s19.318-.033,28.982-.244c17.286-.377,34.6-.106,51.907-.107,4.458,0,7.406-2.02,7.331-5.142-.268-10.989.565-21.983-.474-32.971-.269-2.85.283-5.737.365-8.591.3-10.541,0-21.089.155-31.632.152-10.493-.65-20.994.48-31.481a17.668,17.668,0,0,0-.42-4.5c-.47-3.09-.1-6.211-.524-9.336-.515-3.83.054-7.711-.609-11.565-.344-2-1.316-2.809-4.28-2.867-9.746-.2-19.491.034-29.254-.263-9.443-.287-18.94-.286-28.433.185-10.343.514-20.753.187-31.134.331-15.863.22-31.747.329-47.635-.158-9.8-.3-19.67-.408-29.522.207-4.468.279-9.033-.209-13.557-.3-12.086-.239-24.173.2-36.283-.3-9.789-.4-19.64-.087-29.464-.075-1.747,0-1.889.148-1.961,1.392-.186,3.236-.112,6.468-.416,9.709-.668,7.125.265,14.282-.57,21.431C3.582,38.815,4.223,42.077,4.4,45.685Z" transform="translate(0 0)"></path></g><g transform="translate(0 0)"><path class="c" d="M5671.48,496.027c2.754,62.636,3.247,117.928,3.247,117.928V632.53l5.143,3.887h18.27l11.72,1.2,1.09,18.657H5714l21.374-17.3,4.706-2.55,6.088-1.638,41.652,1.638h108.938l32.323-1.634,2.622-8.69V559.632l-2.622-60.208s3.1-5.708-13.449-4.5-119.812,0-119.812,0h-121.1Z" transform="translate(-5671.478 -493.551)"></path><path d="M108.915.182c15-.093,29.887-.356,44.74-.006C164.672.437,175.7.059,186.68.537c11.2.487,22.411-.151,33.568.372,8.143.382,16.261.114,24.385.308.572.014,1.127.244,1.7.292.594.05,1.522.17,1.757-.036,1.181-1.031,2.423-.565,3.759-.283.971.2,2.038.2,3.007.4,2.345.5,3.812,1.642,4.23,3.283.346,1.355.341,2.751.585,4.12.708,3.971.2,7.974.655,11.934.222,1.939.076,3.89.454,5.8,1.016,5.152-.043,10.338.569,15.475a141.569,141.569,0,0,1,.326,24.407c-.6,11.119-.2,22.229-.357,33.342-.158,11.163-.012,22.327-.058,33.491a17.284,17.284,0,0,1-.605,5.043c-.306.991-.951,1.956-1.233,2.991-.24.878-1.3,1.363-2.513,1.527a79.877,79.877,0,0,1-11.444.793c-10.9-.1-21.826-.311-32.707.034-14.712.465-29.432-.1-44.11.4-8.593.3-17.186.429-25.73.173-8.768-.262-17.551.136-26.267-.351-7.247-.405-14.492.125-21.675-.35-7.869-.519-15.722-.114-23.578-.331-1.473-.041-2.519.138-3.037,1.2-1.046,2.152-3.528,3.634-5.573,5.281-3.8,3.058-7.861,5.958-11.806,8.929-1.73,1.3-3.407,2.639-5.18,3.912-.71.509-1.667.852-2.423,1.336a4.047,4.047,0,0,1-3.674.806A3.392,3.392,0,0,1,37.4,162a6.025,6.025,0,0,1-.007-.929c0-3.163-.078-6.327.028-9.489.067-2-.693-3.893-1.126-5.83-.165-.736-2.443-1.6-4.161-1.606-2.972-.02-5.944,0-8.921,0-3.515,0-7.034.087-10.541-.033-2.116-.072-4.214-.447-6.312-.717-1.96-.253-3.2-1.326-4.656-2.11-.464-.25-.521-.98-.525-1.491-.039-4.217.3-8.448-.082-12.65C.054,115.463.93,103.79.646,92.12c-.029-1.189.482-2.378.474-3.566C1.108,87.18.642,85.8.641,84.427Q.594,45.076.594,5.722A2.9,2.9,0,0,0,.181,3.607c-.745-.976.927-2.279,2.873-2.391C5.944,1.052,8.848.87,11.749.851,19.408.8,27.081.635,34.726.871c23.715.733,47.435.117,71.15.317,1.09.009,2.663.472,3.039-1.006M4.4,45.685c0,23.322-.042,46.643.025,69.965.02,7.144.317,14.288.539,21.431a6.63,6.63,0,0,0,.637,2.793,2.922,2.922,0,0,0,1.846,1.234,28.5,28.5,0,0,0,4.894.4c8.291.037,16.583.016,24.874.017,2.522,0,3.25.32,3.934,1.951a6.123,6.123,0,0,1,.528,2.446c-.021,1.067-.457,2.129-.477,3.2-.066,3.473-.042,6.947,0,10.42,0,.384.431.761.484,1.152.071.517.168.712.793.229,1.461-1.135,3.033-2.211,4.373-3.411,2.506-2.244,4.854-4.572,7.318-6.836,1.4-1.288,2.906-2.524,4.367-3.781s2.873-2.55,4.413-3.765a9.6,9.6,0,0,1,6.691-2.367c5.688.2,11.385.266,17.078.4,9.837.221,19.671-.235,29.522.3,8,.434,16.061.1,24.106.37,9.622.317,19.283.153,28.928.052s19.318-.033,28.982-.244c17.286-.377,34.6-.106,51.907-.107,4.458,0,7.406-2.02,7.331-5.142-.268-10.989.565-21.983-.474-32.971-.269-2.85.283-5.737.365-8.591.3-10.541,0-21.089.155-31.632.152-10.493-.65-20.994.48-31.481a17.668,17.668,0,0,0-.42-4.5c-.47-3.09-.1-6.211-.524-9.336-.515-3.83.054-7.711-.609-11.565-.344-2-1.316-2.809-4.28-2.867-9.746-.2-19.491.034-29.254-.263-9.443-.287-18.94-.286-28.433.185-10.343.514-20.753.187-31.134.331-15.863.22-31.747.329-47.635-.158-9.8-.3-19.67-.408-29.522.207-4.468.279-9.033-.209-13.557-.3-12.086-.239-24.173.2-36.283-.3-9.789-.4-19.64-.087-29.464-.075-1.747,0-1.889.148-1.961,1.392-.186,3.236-.112,6.468-.416,9.709-.668,7.125.265,14.282-.57,21.431C3.582,38.815,4.223,42.077,4.4,45.685Z" transform="translate(0 0)"></path><path d="M108.915.182c15-.093,29.887-.356,44.74-.006C164.672.437,175.7.059,186.68.537c11.2.487,22.411-.151,33.568.372,8.143.382,16.261.114,24.385.308.572.014,1.127.244,1.7.292.594.05,1.522.17,1.757-.036,1.181-1.031,2.423-.565,3.759-.283.971.2,2.038.2,3.007.4,2.345.5,3.812,1.642,4.23,3.283.346,1.355.341,2.751.585,4.12.708,3.971.2,7.974.655,11.934.222,1.939.076,3.89.454,5.8,1.016,5.152-.043,10.338.569,15.475a141.569,141.569,0,0,1,.326,24.407c-.6,11.119-.2,22.229-.357,33.342-.158,11.163-.012,22.327-.058,33.491a17.284,17.284,0,0,1-.605,5.043c-.306.991-.951,1.956-1.233,2.991-.24.878-1.3,1.363-2.513,1.527a79.877,79.877,0,0,1-11.444.793c-10.9-.1-21.826-.311-32.707.034-14.712.465-29.432-.1-44.11.4-8.593.3-17.186.429-25.73.173-8.768-.262-17.551.136-26.267-.351-7.247-.405-14.492.125-21.675-.35-7.869-.519-15.722-.114-23.578-.331-1.473-.041-2.519.138-3.037,1.2-1.046,2.152-3.528,3.634-5.573,5.281-3.8,3.058-7.861,5.958-11.806,8.929-1.73,1.3-3.407,2.639-5.18,3.912-.71.509-1.667.852-2.423,1.336a4.047,4.047,0,0,1-3.674.806A3.392,3.392,0,0,1,37.4,162a6.025,6.025,0,0,1-.007-.929c0-3.163-.078-6.327.028-9.489.067-2-.693-3.893-1.126-5.83-.165-.736-2.443-1.6-4.161-1.606-2.972-.02-5.944,0-8.921,0-3.515,0-7.034.087-10.541-.033-2.116-.072-4.214-.447-6.312-.717-1.96-.253-3.2-1.326-4.656-2.11-.464-.25-.521-.98-.525-1.491-.039-4.217.3-8.448-.082-12.65C.054,115.463.93,103.79.646,92.12c-.029-1.189.482-2.378.474-3.566C1.108,87.18.642,85.8.641,84.427Q.594,45.076.594,5.722A2.9,2.9,0,0,0,.181,3.607c-.745-.976.927-2.279,2.873-2.391C5.944,1.052,8.848.87,11.749.851,19.408.8,27.081.635,34.726.871c23.715.733,47.435.117,71.15.317,1.09.009,2.663.472,3.039-1.006M4.4,45.685c0,23.322-.042,46.643.025,69.965.02,7.144.317,14.288.539,21.431a6.63,6.63,0,0,0,.637,2.793,2.922,2.922,0,0,0,1.846,1.234,28.5,28.5,0,0,0,4.894.4c8.291.037,16.583.016,24.874.017,2.522,0,3.25.32,3.934,1.951a6.123,6.123,0,0,1,.528,2.446c-.021,1.067-.457,2.129-.477,3.2-.066,3.473-.042,6.947,0,10.42,0,.384.431.761.484,1.152.071.517.168.712.793.229,1.461-1.135,3.033-2.211,4.373-3.411,2.506-2.244,4.854-4.572,7.318-6.836,1.4-1.288,2.906-2.524,4.367-3.781s2.873-2.55,4.413-3.765a9.6,9.6,0,0,1,6.691-2.367c5.688.2,11.385.266,17.078.4,9.837.221,19.671-.235,29.522.3,8,.434,16.061.1,24.106.37,9.622.317,19.283.153,28.928.052s19.318-.033,28.982-.244c17.286-.377,34.6-.106,51.907-.107,4.458,0,7.406-2.02,7.331-5.142-.268-10.989.565-21.983-.474-32.971-.269-2.85.283-5.737.365-8.591.3-10.541,0-21.089.155-31.632.152-10.493-.65-20.994.48-31.481a17.668,17.668,0,0,0-.42-4.5c-.47-3.09-.1-6.211-.524-9.336-.515-3.83.054-7.711-.609-11.565-.344-2-1.316-2.809-4.28-2.867-9.746-.2-19.491.034-29.254-.263-9.443-.287-18.94-.286-28.433.185-10.343.514-20.753.187-31.134.331-15.863.22-31.747.329-47.635-.158-9.8-.3-19.67-.408-29.522.207-4.468.279-9.033-.209-13.557-.3-12.086-.239-24.173.2-36.283-.3-9.789-.4-19.64-.087-29.464-.075-1.747,0-1.889.148-1.961,1.392-.186,3.236-.112,6.468-.416,9.709-.668,7.125.265,14.282-.57,21.431C3.582,38.815,4.223,42.077,4.4,45.685Z" transform="translate(0 0)"></path></g><path class="c" d="M5671.48,496.027c2.754,62.636,3.247,117.928,3.247,117.928V632.53l12.8,3.887,11.545-1.775,11.875,1.775v19.852l24.422-17.3,4.3-3.716,6.5-.473,41.652,1.638H5896.75l32.328-1.633,2.622-8.69-.877-35.555.877-10.45V559.632l-2.622-60.208s3.1-5.708-13.449-4.5-119.812,0-119.812,0h-121.1Z" transform="translate(-5365.416 -492.654)"></path><path class="d" d="M5690.94,618.366v16.665h67.839v-3.1l2.913,3.1,16.132-1.132h7.169l1.792-7.275-1.792-8.258Z" transform="translate(-5671.019 -505.231)"></path><path class="d" d="M5994.107,511.634l-4.481,3.932,2.241,9.045v2.163l25.543,1.376s28.008.594,28.9,0,12.1-1.376,12.1-1.376v-15.14l-22.854-1.18-31.593,1.18Z" transform="translate(-5663.962 -494.25)"></path><path d="M1132.694,95.6c0-18.237.4-36.293-.155-54.335-.3-9.815-.1-19.625-.36-29.436a11.774,11.774,0,0,1,.5-2.08,2.241,2.241,0,0,0-.022-1.477c-.927-1.6-.378-3.256-.479-4.881-.084-1.387.708-1.791,2.783-1.975,5.325-.471,10.665-.344,16-.355,5.227-.011,10.465-.149,15.681.023,23.715.778,47.44.125,71.158.34,1.13.01,2.385.276,3.042-.825.151-.258,1.428-.271,2.187-.272q19.6-.023,39.2-.011c1.533,0,3.08-.094,4.594.015,10.638.765,21.329-.084,31.949.425,11.024.53,22.052-.143,33.03.376,8.322.4,16.625.09,24.927.331,1.657.049,3.193.335,4.789-.35.513-.221,1.609.18,2.428.321a23.655,23.655,0,0,1,4.115.785,4.074,4.074,0,0,1,2.658,2.7c1.182,3.848.713,7.742,1.122,11.6.273,2.56.008,5.152.552,7.655.5,2.267.267,4.5.422,6.743,1.182,17.125.693,34.266.376,51.39-.181,9.749-.378,19.5-.238,29.248.056,3.972.66,7.973.325,11.939-.406,4.791-.325,9.577-.53,14.365-.055,1.282-.991,2.55-1.554,3.818-.43.968-1.628,1.342-2.891,1.552a55.972,55.972,0,0,1-9.553.783c-11.806-.067-23.634-.334-35.412.053-14.356.471-28.717-.143-43.035.384-8.234.3-16.462.4-24.653.2-8.945-.23-17.909.075-26.811-.372-7.606-.382-15.216.155-22.758-.351-7.7-.515-15.365-.091-23.038-.311-1.506-.044-2.366.076-3,1.351-.719,1.439-2.447,2.668-3.893,3.9-1.554,1.323-3.374,2.5-4.933,3.815a181.579,181.579,0,0,1-15.121,11.131,5.171,5.171,0,0,1-1.16.773c-1.09.381-2.006.948-3.534.365-1.349-.516-1.882-1.172-1.9-2.067-.07-2.728.114-5.463-.065-8.186a79.423,79.423,0,0,0-1.071-8.064c-.235-1.375-2.239-2.257-4.864-2.264-6.4-.016-12.8.017-19.2-.014a24.953,24.953,0,0,1-10.252-2.263,1.442,1.442,0,0,1-.782-1.055c-.238-2.8-.535-5.6-.549-8.4-.056-12.285-.025-24.561-.025-37.028m195.774,46.34c.865-.062,1.728-.177,2.594-.178q25.14-.016,50.285-.008c.541,0,1.084.025,1.623,0,3.629-.2,6.081-2.12,6.079-4.3-.016-9.427-.127-18.856.027-28.282.155-9.376-.008-18.75.333-28.135.4-11.161.782-22.351-.316-33.524-.311-3.162.267-6.352.37-9.52.167-5.088.479-10.188-.341-15.294-.635-3.949.368-7.962-.573-11.94-.376-1.6.07-3.242-.527-4.875-.522-1.422-1.4-2.174-3.616-2.211-10.016-.17-20.032.024-30.06-.272-9.264-.273-18.58-.256-27.9.192-10.524.506-21.11.185-31.672.332-15.862.221-31.744.333-47.632-.16A280.757,280.757,0,0,0,1217.9,4c-2.491.183-5.07-.3-7.609-.311q-34.9-.223-69.8-.386h-1.352a2.279,2.279,0,0,0-.793.015c-.481.265-1.189.563-1.271.906a20.217,20.217,0,0,0-.571,4.12c-.089,5.16-.424,10.324-.465,15.476-.2,24.943-.27,49.889.419,74.831a4.082,4.082,0,0,1-.406,2.483c-.4.654.422,1.6.4,2.418-.065,1.811-.5,3.62-.468,5.428.041,2.926.43,5.851.481,8.777.084,4.961.135,9.925-.025,14.884a21.485,21.485,0,0,0,1.189,7.5,2.442,2.442,0,0,0,1.65,1.2,29.275,29.275,0,0,0,4.894.405c8.291.037,16.581.017,24.872.017,2.75,0,3.31.243,4.1,1.981a3.5,3.5,0,0,1,.119,1.455c0,5.086,0,10.171.016,15.257a4.139,4.139,0,0,0,.273,1.028c.308-.214.611-.43.919-.643a28.253,28.253,0,0,0,2.436-1.7c3.285-2.838,6.637-5.647,9.731-8.579a86.406,86.406,0,0,1,10.154-8.453,6.3,6.3,0,0,1,3.94-1.114c4.345.092,8.682.161,13.029.318,11.532.417,23.093-.163,34.655.369,8.363.384,16.787.267,25.183.373,18.194.227,36.4.067,54.869-.119Z" transform="translate(-825.977 -0.227)"></path><path class="a" d="M6114.18,510.454v10.421l1.344,6.881h66.1s4.479-1.376,5.825-.983,22.406-1.18,22.406-1.18v-7.275l-2.913-6.881h-86.71Z" transform="translate(-5661.021 -494.25)"></path><path d="M126.893,1011.139a4.168,4.168,0,0,0-.136,1.21c-.023,1.506-.964,2.46-3.006,2.774a42.025,42.025,0,0,1-4.636.379c-1.617.061-3.243,0-4.865.015-15.7.121-31.4-.032-47.08.462-11.836.374-23.649.068-35.467.273-2.934.051-3.68-1.108-3.98-3.147-.222-1.511.116-3.1-.534-4.6a10.524,10.524,0,0,1,0-4.709,9.2,9.2,0,0,0,.534-1.631,14.829,14.829,0,0,1,0-2.576c.053-1.8.188-2.387,2.738-2.337,4.073.078,6.379.486,11.82.486s6.506-.5,9.944-.486c17.662.045,35.325-.008,52.987.037,5.513.015,11.024.246,16.538.348,1.6.03,2.1.856,2.873,1.591,1.394,1.334,1.618,2.957,2.02,4.435.629,2.309.482,4.718.647,7.087.007.1-.167.2-.4.387M31.011,999.9c.18,2.3-.467,3.926,0,6.2a23.35,23.35,0,0,1,0,6.142c-.087,1.354.075,1.9,2.511,1.783,3.434-.16,6.873-.346,10.312-.365,9.366-.049,18.733.028,28.1-.028q20.963-.123,41.924-.377a17.794,17.794,0,0,0,4.039-.46,2.567,2.567,0,0,0,1.981-1.424c.447-1.076-.242-1.934-.141-2.883.259-2.425-.521-4.872.5-7.291.42-1-.523-1.494-1.964-1.252a12.7,12.7,0,0,1-2.252.286c-13.883-.21-27.78.452-41.657-.341-4.594-.263-9.2-.038-13.834-.307-7.452-.434-14.865.583-22.353,0a42.453,42.453,0,0,0-7.155,0m91.42,5.313a35.874,35.874,0,0,1,.332,3.6,30.372,30.372,0,0,1-.345,3.677c-.041.331-.8.724.106.923.18.039.683-.436.9-.722a.723.723,0,0,0,.066-.709c-.33-.709.46-1.344.092-2.116a5.554,5.554,0,0,1-.073-2.387,23.713,23.713,0,0,0-.025-2.4,3.43,3.43,0,0,0-.525-1.141,1.722,1.722,0,0,0-.35-.333,2.487,2.487,0,0,0-.175.5,9.543,9.543,0,0,0-.014,1.122Z" transform="translate(424.167 -981.749)"></path><path class="c" d="M6186.605,541.093l-8.934-2.059v-2.326l4.589-1.342-2.345-6-1.223-3.49,5.916,3.49,1.121.985,5.711-1.79,3.368,3.579s1.937,5.28,2.447,4.564-3.059,2.327-3.059,2.327Z" transform="translate(-5659.521 -495.82)"></path><path d="M126.893,1011.133a4.168,4.168,0,0,0-.136,1.21c-.023,1.506-.964,2.46-3.006,2.774a42.025,42.025,0,0,1-4.636.379c-1.617.061-3.243,0-4.865.015-15.7.121-31.4-.032-47.08.462-11.836.374-23.649.068-35.467.273-2.934.051-3.68-1.108-3.98-3.147-.222-1.511.116-3.1-.534-4.6a10.524,10.524,0,0,1,0-4.709,9.2,9.2,0,0,0,.534-1.631,14.829,14.829,0,0,1,0-2.576c.053-1.8-.581-3.1,1.97-3.049,4.073.078,8.2,0,12.2.433a96.143,96.143,0,0,0,10.336.279c17.662.045,35.325-.008,52.987.037,5.513.015,11.024.246,16.538.348,1.6.03,2.1.856,2.873,1.591,1.394,1.334,1.618,2.957,2.02,4.435.629,2.309.482,4.718.647,7.087.007.1-.167.2-.4.387M31.011,999.891c.18,2.3-.467,3.926,0,6.2a23.35,23.35,0,0,1,0,6.142c-.087,1.354.075,1.9,2.511,1.783,3.434-.16,6.873-.346,10.312-.365,9.366-.049,18.733.028,28.1-.028q20.963-.123,41.924-.377a17.794,17.794,0,0,0,4.039-.46,2.567,2.567,0,0,0,1.981-1.424c.447-1.076-.242-1.934-.141-2.883.259-2.425-.521-4.872.5-7.291.42-1-.523-1.494-1.964-1.252a12.7,12.7,0,0,1-2.252.286c-13.883-.21-27.78.452-41.657-.341-4.594-.263-9.2-.038-13.834-.307-7.452-.434-14.979.161-22.467-.421-2.757-.216-3.979.235-7.041.421m91.42,5.313a35.874,35.874,0,0,1,.332,3.6,30.372,30.372,0,0,1-.345,3.677c-.041.331-.8.724.106.923.18.039.683-.436.9-.722a.723.723,0,0,0,.066-.709c-.33-.709.46-1.344.092-2.116a5.554,5.554,0,0,1-.073-2.387,23.713,23.713,0,0,0-.025-2.4,3.43,3.43,0,0,0-.525-1.141,1.722,1.722,0,0,0-.35-.333,2.487,2.487,0,0,0-.175.5,9.543,9.543,0,0,0-.014,1.122Z" transform="translate(-9.848 -885.629)"></path><path class="c" d="M5760.384,647.369l-7.061-2.2,4.628-1.928,2.432-.619-4.628-9.156,5.021,2.685,1.882,1.308,6.667-1.928,2.9,3.368,1.726,4.337-.627,1.928-4.707,1.859-4.08,1.17Z" transform="translate(-5669.544 -506.766)"></path><text class="e" transform="translate(17.527 18)"><tspan x="0" y="0">IM-XYBANK</tspan><tspan x="0" y="11"></tspan><tspan x="0" y="22">Hello!</tspan><tspan x="0" y="33"></tspan><tspan x="0" y="44">Your A/c no. xxxxxxxxxx910 has been credited with Rs. </tspan><tspan x="0" y="55">xxxx on 06Jun18. The A/c balance is Rs. xxxxx</tspan><tspan x="0" y="66">Info: XXXXXXXXX</tspan></text><text class="f" transform="translate(24.527 124)"><tspan class="g" x="0" y="0">हिंदी में पढ़े </tspan><tspan class="h" y="0">9m.io/AP7</tspan></text><text class="i" transform="translate(325.527 52)"><tspan x="0" y="0">नमस्कार</tspan><tspan class="j" y="0">!</tspan><tspan x="0" y="11">आपका ए</tspan><tspan class="j" y="11" xml:space="preserve"> / </tspan><tspan y="11">सी सांख्य</tspan><tspan class="j" y="11" xml:space="preserve"> xxxxxxxxxx910 </tspan><tspan y="11">में रुपये</tspan><tspan class="j" y="11" xml:space="preserve"> xxxx </tspan><tspan y="11">जमा किया </tspan><tspan x="0" y="22">गया है। दिनंक</tspan><tspan class="j" y="22" xml:space="preserve"> 06/06/18 </tspan><tspan y="22">को ए</tspan><tspan class="j" y="22" xml:space="preserve"> / </tspan><tspan y="22">सी में बकाया राशी रुपे</tspan><tspan class="j" y="22" xml:space="preserve"> xxxx </tspan><tspan y="22">है।</tspan><tspan x="0" y="33"></tspan><tspan x="0" y="44">जनकारी</tspan><tspan class="j" y="44">: XXXXXXXX</tspan><tspan y="44">।</tspan><tspan x="0" y="55">यदी आपने यह लेनदेन नहीं किया है</tspan><tspan class="j" y="55">, </tspan><tspan y="55">तो</tspan><tspan class="j" y="55" xml:space="preserve"> 18605005555 </tspan><tspan y="55">पर कॉल </tspan><tspan x="0" y="66">करे</tspan><tspan class="j" y="66" xml:space="preserve"> (</tspan><tspan y="66">यदि भारत में</tspan><tspan class="j" y="66">)</tspan><tspan y="66">।</tspan></text><text class="k" transform="translate(339.527 28)"><tspan x="0" y="0" xml:space="preserve">Hindi      ▼</tspan></text><text class="l" transform="translate(470.527 27)"><tspan x="0" y="0">Save Preference</tspan></text><g transform="translate(620.994 57.984)"><path class="b" d="M6286.29,558.624v31.852h223.8s.247-12.372,0-13.092.5-7.738,1.235-9.718,0-7.918,0-7.918l-3.458-1.124s-37.784.135-39.758,0-47.414-1.034-47.414-1.034H6300.422Z" transform="translate(-6283.836 -556.364)"></path><path class="b" d="M908,1267.4c-8.409.365-16.606.26-24.8.245a12.091,12.091,0,0,1-3.136-.4,1.882,1.882,0,0,1-1.344-2.643,2.9,2.9,0,0,0,.375-1.09c.023-5.9.324-11.8-.1-17.686-.242-3.331-.144-6.656-.35-9.983a2.023,2.023,0,0,0-.281-.716c-.551-1.1.062-1.8,2.046-2.133,1.235-.211,2.526-.324,3.8-.452,4.8-.481,9.69,0,14.471-.317,4.543-.3,9.055-.185,13.572-.192,21.931-.038,43.871-.2,65.791.056,12.245.145,24.494-.06,36.718.253,4.374.111,8.78-.065,13.1.24,5.222.369,10.438.025,15.635.234,13.611.548,27.244-.045,40.842.313,5.908.155,11.8.08,17.7.2,2.774.056,5.286,1.478,5.385,3.17a17.118,17.118,0,0,1-.078,5.233c-.408,1.6,0,3.184-.4,4.743-.617,2.41.014,4.844-.5,7.232-.681,3.2-.112,6.4-.4,9.592a10.786,10.786,0,0,1-.459,2.117c-.27.9-1.09,1.368-2.505,1.455-1.616.1-3.235.239-4.854.247-1.312.007-2.623-.228-3.936-.233q-38.763-.152-77.527-.272c-2.98-.009-5.968-.08-8.939.012-18.272.562-36.568-.078-54.828.315-10.339.223-20.677-.087-30.986.252-4.608.151-9.2.119-14.03.206m193.491-28.17c0-.263-.012-.524,0-.787.064-1.122-1.206-2.185-.481-3.347a.885.885,0,0,0-.459-.182c-.532-.025-1.068-.009-1.6-.009-10.236,0-20.474.015-30.711-.01a32.928,32.928,0,0,1-6.467-.232,4.755,4.755,0,0,0-2.022.009,9.956,9.956,0,0,1-3.276.22c-2.385-.046-4.762-.188-7.144-.244-6.887-.157-13.776.2-20.672-.231-4.867-.3-9.8-.118-14.707-.233-14.129-.333-28.281-.056-42.435-.256-20-.284-40.024-.108-60.042-.052-6.275.017-12.555-.249-18.839.2-3.181.229-6.445-.016-9.663.275-1.106.1-1.648.271-1.569.928a35.952,35.952,0,0,1,.442,4.083c.041,8.383.021,16.764.021,25.148a3.147,3.147,0,0,0,.027.914.783.783,0,0,0,.567.381c1.994.114,4,.264,5.995.26,2.305,0,4.609-.176,6.915-.24,5.205-.139,10.4.055,15.632-.211,6.774-.344,13.606-.04,20.434-.26,11.294-.365,22.625.065,33.955-.265,13.056-.38,26.146.127,39.231-.267,8.531-.257,17.109-.107,25.659-.032,8.491.074,16.976-.118,25.484.19,10.452.378,20.954-.18,31.435.283,4.633.2,9.312.037,13.976.033,2.132,0,2.2-.009,2.134-1.227-.2-3.587.474-7.182-.412-10.766-.344-1.387-.03-2.8-.4-4.219a32.413,32.413,0,0,1-.543-6.171,8.74,8.74,0,0,0-.468-3.689m1.834-3.144a3.165,3.165,0,0,1,.438.927c.068.646-.042,1.3.051,1.941.042.3.382.594.589.892a3.74,3.74,0,0,0,.284-.885,10.348,10.348,0,0,0,0-1.94,2.294,2.294,0,0,0-.5-1.43c-.34-.359-.885-.25-.855.493Z" transform="translate(-878.171 -1231.949)"></path></g><g transform="translate(617.522 54.823)"><path class="a" d="M6286.29,558.624v31.852h223.8s.247-12.372,0-13.092.5-7.738,1.235-9.718,0-7.918,0-7.918l-3.458-1.124s-37.784.135-39.758,0-47.414-1.034-47.414-1.034H6300.422Z" transform="translate(-6283.836 -556.364)"></path><path d="M908,1267.4c-8.409.365-16.606.26-24.8.245a12.091,12.091,0,0,1-3.136-.4,1.882,1.882,0,0,1-1.344-2.643,2.9,2.9,0,0,0,.375-1.09c.023-5.9.324-11.8-.1-17.686-.242-3.331-.144-6.656-.35-9.983a2.023,2.023,0,0,0-.281-.716c-.551-1.1.062-1.8,2.046-2.133,1.235-.211,2.526-.324,3.8-.452,4.8-.481,9.69,0,14.471-.317,4.543-.3,9.055-.185,13.572-.192,21.931-.038,43.871-.2,65.791.056,12.245.145,24.494-.06,36.718.253,4.374.111,8.78-.065,13.1.24,5.222.369,10.438.025,15.635.234,13.611.548,27.244-.045,40.842.313,5.908.155,11.8.08,17.7.2,2.774.056,5.286,1.478,5.385,3.17a17.118,17.118,0,0,1-.078,5.233c-.408,1.6,0,3.184-.4,4.743-.617,2.41.014,4.844-.5,7.232-.681,3.2-.112,6.4-.4,9.592a10.786,10.786,0,0,1-.459,2.117c-.27.9-1.09,1.368-2.505,1.455-1.616.1-3.235.239-4.854.247-1.312.007-2.623-.228-3.936-.233q-38.763-.152-77.527-.272c-2.98-.009-5.968-.08-8.939.012-18.272.562-36.568-.078-54.828.315-10.339.223-20.677-.087-30.986.252-4.608.151-9.2.119-14.03.206m193.491-28.17c0-.263-.012-.524,0-.787.064-1.122-1.206-2.185-.481-3.347a.885.885,0,0,0-.459-.182c-.532-.025-1.068-.009-1.6-.009-10.236,0-20.474.015-30.711-.01a32.928,32.928,0,0,1-6.467-.232,4.755,4.755,0,0,0-2.022.009,9.956,9.956,0,0,1-3.276.22c-2.385-.046-4.762-.188-7.144-.244-6.887-.157-13.776.2-20.672-.231-4.867-.3-9.8-.118-14.707-.233-14.129-.333-28.281-.056-42.435-.256-20-.284-40.024-.108-60.042-.052-6.275.017-12.555-.249-18.839.2-3.181.229-6.445-.016-9.663.275-1.106.1-1.648.271-1.569.928a35.952,35.952,0,0,1,.442,4.083c.041,8.383.021,16.764.021,25.148a3.147,3.147,0,0,0,.027.914.783.783,0,0,0,.567.381c1.994.114,4,.264,5.995.26,2.305,0,4.609-.176,6.915-.24,5.205-.139,10.4.055,15.632-.211,6.774-.344,13.606-.04,20.434-.26,11.294-.365,22.625.065,33.955-.265,13.056-.38,26.146.127,39.231-.267,8.531-.257,17.109-.107,25.659-.032,8.491.074,16.976-.118,25.484.19,10.452.378,20.954-.18,31.435.283,4.633.2,9.312.037,13.976.033,2.132,0,2.2-.009,2.134-1.227-.2-3.587.474-7.182-.412-10.766-.344-1.387-.03-2.8-.4-4.219a32.413,32.413,0,0,1-.543-6.171,8.74,8.74,0,0,0-.468-3.689m1.834-3.144a3.165,3.165,0,0,1,.438.927c.068.646-.042,1.3.051,1.941.042.3.382.594.589.892a3.74,3.74,0,0,0,.284-.885,10.348,10.348,0,0,0,0-1.94,2.294,2.294,0,0,0-.5-1.43c-.34-.359-.885-.25-.855.493Z" transform="translate(-878.171 -1231.949)"></path></g><text class="m" transform="translate(648.527 77)"><tspan x="0" y="0">Your preference has been saved</tspan></text><path d="M27.2,1011.139a5.745,5.745,0,0,1,.1,1.21,2.541,2.541,0,0,0,2.157,2.774,21.839,21.839,0,0,0,3.326.379c1.16.061,2.326,0,3.49.015,11.259.121,22.532-.032,33.774.462,8.49.374,16.965.068,25.444.273,2.105.051,2.64-1.108,2.855-3.147.16-1.511-.083-3.1.383-4.6a14.58,14.58,0,0,0,0-4.709,11.9,11.9,0,0,1-.383-1.631,20.652,20.652,0,0,0,0-2.576c-.038-1.8.271-2-1.558-1.953-2.922.078-5.536-.436-8.4,0-2.493.379-5.152-.4-7.613-.385-12.671.045-25.341-.008-38.012.037-3.955.015-7.909.246-11.863.348-1.15.03-1.509.856-2.059,1.591a10.2,10.2,0,0,0-1.448,4.435,50.064,50.064,0,0,0-.465,7.087c0,.1.121.2.282.387M95.991,999.9c-.13,2.3.335,3.926,0,6.2a32.481,32.481,0,0,0,0,6.142c.062,1.354-.054,1.9-1.8,1.783-2.464-.16-4.931-.346-7.4-.365-6.719-.049-13.439.028-20.157-.028q-15.039-.123-30.075-.377a9.356,9.356,0,0,1-2.9-.46,2.005,2.005,0,0,1-1.417-1.423c-.321-1.076.173-1.934.1-2.883-.185-2.425.373-4.872-.353-7.291-.3-1,.375-1.494,1.409-1.252a6.693,6.693,0,0,0,1.616.286c9.959-.21,19.929.452,29.884-.341,3.3-.263,6.6-.038,9.924-.307,5.35-.434,10.032.583,15.4,0a27.609,27.609,0,0,1,5.766,0M30.407,1004.9c-.086,1.2-.239,2.4-.239,3.6,0,1.226.139,2.453.248,3.677.03.331.574.724-.076.923-.13.039-.49-.436-.648-.722a.971.971,0,0,1-.048-.709c.237-.709-.33-1.343-.066-2.116a7.692,7.692,0,0,0,.052-2.388c0-.8-.041-1.606.018-2.4a4.177,4.177,0,0,1,.376-1.141,1.551,1.551,0,0,1,.251-.333,3.19,3.19,0,0,1,.126.5c.019.252,0,.5,0,1.124Z" transform="translate(298.35 -981.749)"></path><path d="M1470.449,147.193c-1.288-.174-1.711-1.031-1.662-2.4a31.714,31.714,0,0,0-1.262-11.1,24.352,24.352,0,0,1-.5-4.347,40.494,40.494,0,0,0-.712-4.5,6.188,6.188,0,0,1,1.378-5.529c.985-1.272,3.552-1.33,4.908-.52,2.107,1.256,4.377,2.18,6.4,3.579,2.422,1.684,5.111,2.9,7.105,5.4a10.685,10.685,0,0,1,1.585,3.835c.412,1.38-.687,2.141-1.438,2.817-1.3,1.17-2.774,2.08-4.117,3.2-2.264,1.9-4.448,3.926-6.722,5.805-1.565,1.288-2.885,3.051-4.969,3.741m6.495-21.284c-1.317-1.016-2.638-2.028-3.95-3.052a4.539,4.539,0,0,1-.47-.5,2.978,2.978,0,0,0-.2.664c-.159,2.552-.284,5.108-.454,7.659a20.905,20.905,0,0,1-.513,5.086c-.594,1.766-.263,3.451-.324,5.157-.047,1.245,1,1.864,1.925,1.288a13.418,13.418,0,0,0,1.535-1.235c1.735-1.486,3.479-2.963,5.19-4.489,1.506-1.341,2.952-2.768,4.458-4.107.594-.534.381-.892-.07-1.264-.277-.229-.594-.4-.874-.618-1.94-1.525-3.877-3.056-6.258-4.586m-6.826-5.35c.059-.687-.3-1.077-.715-.624a3.412,3.412,0,0,0-.991,2.013c.022,2.724.211,5.449.427,8.164.027.328.65.909.881.842.927-.266-.174-.541-.081-.969.156-.716-.143-1.594.077-2.258.734-2.2.259-4.45.407-7.175Z" transform="translate(-1191.063 -60.693)"></path><path class="a" d="M9773.056,1598.851v-10.913s-4.366-9.128,1.981-14.485l15.279,12.7-13.493,10.913Z" transform="translate(-9186.973 -1514.965)"></path><path d="M1470.449,147.193c-1.288-.174-1.711-1.031-1.662-2.4a31.714,31.714,0,0,0-1.262-11.1,24.352,24.352,0,0,1-.5-4.347,40.494,40.494,0,0,0-.712-4.5,6.188,6.188,0,0,1,1.378-5.529c.985-1.272,3.552-1.33,4.908-.52,2.107,1.256,4.377,2.18,6.4,3.579,2.422,1.684,5.111,2.9,7.105,5.4a10.685,10.685,0,0,1,1.585,3.835c.412,1.38-.687,2.141-1.438,2.817-1.3,1.17-2.774,2.08-4.117,3.2-2.264,1.9-4.448,3.926-6.722,5.805-1.565,1.288-2.885,3.051-4.969,3.741m6.495-21.284c-1.317-1.016-2.638-2.028-3.95-3.052a4.539,4.539,0,0,1-.47-.5,2.978,2.978,0,0,0-.2.664c-.159,2.552-.284,5.108-.454,7.659a20.905,20.905,0,0,1-.513,5.086c-.594,1.766-.263,3.451-.324,5.157-.047,1.245,1,1.864,1.925,1.288a13.418,13.418,0,0,0,1.535-1.235c1.735-1.486,3.479-2.963,5.19-4.489,1.506-1.341,2.952-2.768,4.458-4.107.594-.534.381-.892-.07-1.264-.277-.229-.594-.4-.874-.618-1.94-1.525-3.877-3.056-6.258-4.586m-6.826-5.35c.059-.687-.3-1.077-.715-.624a3.412,3.412,0,0,0-.991,2.013c.022,2.724.211,5.449.427,8.164.027.328.65.909.881.842.927-.266-.174-.541-.081-.969.156-.716-.143-1.594.077-2.258.734-2.2.259-4.45.407-7.175Z" transform="translate(-883.951 -60.693)"></path><path d="M2199.41,26.565a34.958,34.958,0,0,1,3.727,2.961c1.84,1.708,1.813,1.735,4.241.579,1.585-.758,3.269-.588,4.161.5a10.728,10.728,0,0,1,1.09,1.758c.677,1.265,1.358,2.531,1.965,3.828a3.5,3.5,0,0,1-2.239,4.934c-1.247.441-2.495.9-3.7,1.435a7.035,7.035,0,0,1-5.633.353c-1.692-.643-3.557-.761-5.184-1.711-.871-.508-1.671-.868-1.611-1.981s1.019-1.436,1.842-1.854a3.127,3.127,0,0,1,.816-.212c2.2-.422,2.272-.551,1.356-2.509-.725-1.542-1.5-3.061-2.173-4.624a5.877,5.877,0,0,1-.456-2.008c-.062-1.374-.014-1.376,1.8-1.441m7.751,5.511a3.3,3.3,0,0,0-.584.225c-1.813,1.119-2.1,1.1-3.646-.351-.594-.56-1.167-1.152-1.783-1.7-.136-.121-.4-.108-.606-.157a3.72,3.72,0,0,0,.2.619,26.863,26.863,0,0,1,2.421,5.845c.356,1.364.265,1.659-1.121,1.9-.918.16-1.847.279-2.763.462a.56.56,0,0,0-.3.455c.007.143.242.4.368.39,1.652-.063,2.937.958,4.427,1.356a5.053,5.053,0,0,0,2.287.328,32.811,32.811,0,0,0,5.168-1.71c.755-.323,1.679-.643,2.015-1.622.245-.715-.2-1.23-.361-1.815A9.582,9.582,0,0,0,2211,33.1c-1.539-1.958-1.46-2.009-3.847-1.021Z" transform="translate(-1678.511 2.859)"></path><path d="M2199.41,26.565a34.958,34.958,0,0,1,3.727,2.961c1.84,1.708,1.813,1.735,4.241.579,1.585-.758,3.269-.588,4.161.5a10.728,10.728,0,0,1,1.09,1.758c.677,1.265,1.358,2.531,1.965,3.828a3.5,3.5,0,0,1-2.239,4.934c-1.247.441-2.495.9-3.7,1.435a7.035,7.035,0,0,1-5.633.353c-1.692-.643-3.557-.761-5.184-1.711-.871-.508-1.671-.868-1.611-1.981s1.019-1.436,1.842-1.854a3.127,3.127,0,0,1,.816-.212c2.2-.422,2.272-.551,1.356-2.509-.725-1.542-1.5-3.061-2.173-4.624a5.877,5.877,0,0,1-.456-2.008c-.062-1.374-.014-1.376,1.8-1.441m7.751,5.511a3.3,3.3,0,0,0-.584.225c-1.813,1.119-2.1,1.1-3.646-.351-.594-.56-1.167-1.152-1.783-1.7-.136-.121-.4-.108-.606-.157a3.72,3.72,0,0,0,.2.619,26.863,26.863,0,0,1,2.421,5.845c.356,1.364.265,1.659-1.121,1.9-.918.16-1.847.279-2.763.462a.56.56,0,0,0-.3.455c.007.143.242.4.368.39,1.652-.063,2.937.958,4.427,1.356a5.053,5.053,0,0,0,2.287.328,32.811,32.811,0,0,0,5.168-1.71c.755-.323,1.679-.643,2.015-1.622.245-.715-.2-1.23-.361-1.815A9.582,9.582,0,0,0,2211,33.1c-1.539-1.958-1.46-2.009-3.847-1.021Z" transform="translate(-2111.441 97.965)"></path></g></g></g></svg>