<svg xmlns="http://www.w3.org/2000/svg" width="250.334" height="40.538" viewBox="0 0 250.334 40.538">
  <g id="Page-1" transform="translate(-0.3 -0.1)">
    <g id="Group-2" transform="translate(0.3 0.1)">
      <g id="Group" transform="translate(0 0)">
        <path id="Shape" d="M.3,32.065c.6,0,1.242.036,1.846.036H6.477c.248,0,.319.071.319.319v3.053a.124.124,0,0,1,.071.036c.071-.107.142-.177.213-.284a7.508,7.508,0,0,1,3.9-3.195c3.159-1.03,6.5.036,7.987,3.94a14.02,14.02,0,0,1,.742,5.928,13.035,13.035,0,0,1-1.562,5.609,6.5,6.5,0,0,1-6.6,3.441,6.97,6.97,0,0,1-4.26-2.024,3.759,3.759,0,0,1-.355-.426c-.036.036-.071.036-.107.071v8.806H3.53c0-.107-.036-.177-.036-.248v-20.8a11.165,11.165,0,0,0-.107-1.562,1.537,1.537,0,0,0-1.455-1.456c-.426-.071-.852-.107-1.278-.142-.213,0-.284-.107-.284-.319A3.913,3.913,0,0,0,.3,32.207ZM6.8,41.9v4.972a.554.554,0,0,0,.248.462,8.968,8.968,0,0,0,4.116,1.81,3.723,3.723,0,0,0,3.232-.922,5.244,5.244,0,0,0,1.385-2.484,15.987,15.987,0,0,0,.245-7.1,8.426,8.426,0,0,0-1.35-3.441,3.346,3.346,0,0,0-3.9-1.455,7.165,7.165,0,0,0-3.869,2.8.843.843,0,0,0-.107.426Z" transform="translate(-0.3 -20.509)" fill="#0065ff"/>
        <path id="Shape-2" data-name="Shape" d="M272.3,10.03V9h6.5V20.856c.462-.532.852-1.065,1.313-1.562a6.9,6.9,0,0,1,7.312-1.952,6.045,6.045,0,0,1,3.727,3.374,11.132,11.132,0,0,1,1.1,4.26,14.527,14.527,0,0,1-.887,6.494,7.861,7.861,0,0,1-3.337,4.082,7.422,7.422,0,0,1-8.448-.887c-.213-.213-.426-.426-.639-.6a.383.383,0,0,0-.248-.107c-.036,0-.107.142-.107.213-.107.6-.213,1.207-.355,1.81-.036.107-.142.248-.213.248h-2.591V13.295a15.244,15.244,0,0,0-.177-2.165.834.834,0,0,0-.71-.78c-.6-.107-1.242-.213-1.846-.319Zm6.5,17.287v5.005a.646.646,0,0,0,.142.391,8.919,8.919,0,0,0,4.049,1.81,4.16,4.16,0,0,0,5.04-2.911,12.046,12.046,0,0,0,.6-3.727,17.609,17.609,0,0,0-.462-5.111,5.359,5.359,0,0,0-1.455-2.627,4.183,4.183,0,0,0-3.727-.852,6.879,6.879,0,0,0-3.94,2.484,1.024,1.024,0,0,0-.248.71Z" transform="translate(-175.937 -5.841)" fill="#253858"/>
        <path id="Shape-3" data-name="Shape" d="M348,49.334c0,.142.036.248.036.355.071.887.071.923-.816,1.1a6.087,6.087,0,0,1-1.6.142,2.87,2.87,0,0,1-2.627-2.165,6.124,6.124,0,0,0-.248-.742c-.355.319-.71.639-1.065.923a8.839,8.839,0,0,1-3.9,1.952,5.573,5.573,0,0,1-5.928-2.627,5.445,5.445,0,0,1,2.092-7.277,9.941,9.941,0,0,1,4.011-1.207c1.171-.107,2.378-.142,3.55-.213h.462a16.805,16.805,0,0,0-.319-4.615,2.842,2.842,0,0,0-2.982-2.092,6.844,6.844,0,0,0-1.7.284,2.737,2.737,0,0,0-1.988,2.627,4.528,4.528,0,0,0-.036.71h-2.307V33.36a.493.493,0,0,1,.177-.355,15.552,15.552,0,0,1,7.383-1.455,6.26,6.26,0,0,1,2.875.816,4.443,4.443,0,0,1,2.129,3.374,14.3,14.3,0,0,1,.107,1.74v7.985a12.922,12.922,0,0,0,.248,2.627,1.417,1.417,0,0,0,1.385,1.313A3.593,3.593,0,0,0,348,49.334ZM342,40.6a10.687,10.687,0,0,0-4.615.71,4.109,4.109,0,0,0-2.556,4.224,3.624,3.624,0,0,0,4.153,3.408,8.125,8.125,0,0,0,2.8-1.171.464.464,0,0,0,.248-.426V41.241A3.647,3.647,0,0,1,342,40.6Z" transform="translate(-213.975 -20.395)" fill="#253858"/>
        <path id="Shape-4" data-name="Shape" d="M494.148,36.468h-2.272c0-.107-.036-.177-.036-.284v-2.84a.493.493,0,0,1,.177-.355,15.137,15.137,0,0,1,7.383-1.455,9.772,9.772,0,0,1,2.024.426,4.348,4.348,0,0,1,2.982,3.8,9.051,9.051,0,0,1,.071,1.385V45.59a10.825,10.825,0,0,0,.248,2.379,1.519,1.519,0,0,0,2.092,1.313,2.262,2.262,0,0,1,.319-.071c.036.391.071.742.107,1.1,0,.071-.071.177-.142.177a5.411,5.411,0,0,1-2.8.284,2.893,2.893,0,0,1-2.059-1.881c-.107-.319-.213-.639-.319-.994-.355.319-.675.6-1.03.887a8,8,0,0,1-3.9,1.952,5.364,5.364,0,0,1-3.692-9.975,9.934,9.934,0,0,1,3.9-1.136c1.207-.107,2.414-.142,3.621-.213h.284l.071-.071c-.036-1.207,0-2.379-.107-3.585a3.048,3.048,0,0,0-1.669-2.733,4.039,4.039,0,0,0-3.018-.107c-1.74.6-2.092,1.455-2.236,3.195Zm6.993,4.116a10.621,10.621,0,0,0-4.224.6,4.179,4.179,0,0,0-2.911,4.116,3.64,3.64,0,0,0,4.153,3.656,8.421,8.421,0,0,0,2.733-1.136.482.482,0,0,0,.248-.462V41.011a1.7,1.7,0,0,0,0-.426Z" transform="translate(-316.786 -20.38)" fill="#253858"/>
        <path id="Shape-5" data-name="Shape" d="M447.376,39.591c-.071-1.562.178-3.123-.319-4.615a2.889,2.889,0,0,0-2.982-2.092,4.687,4.687,0,0,0-2.2.532,2.644,2.644,0,0,0-1.455,2.13c-.036.319-.071.639-.107.994h-2.2c0-.071-.036-.142-.036-.213V33.414a.4.4,0,0,1,.213-.319A16.384,16.384,0,0,1,443.9,31.64a9.663,9.663,0,0,1,3.195.248,4.535,4.535,0,0,1,3.55,4.224c.036.5.071,1.03.071,1.526,0,2.946,0,5.928.036,8.874a5.723,5.723,0,0,0,.213,1.562,1.559,1.559,0,0,0,2.024,1.35,3.887,3.887,0,0,1,.391-.071c.036.426.071.816.107,1.242a4.9,4.9,0,0,1-3.408.177,3.463,3.463,0,0,1-1.917-2.7c-.532.426-1.03.887-1.562,1.278a7.4,7.4,0,0,1-4.049,1.633,5.316,5.316,0,0,1-5.822-4.224,5.436,5.436,0,0,1,3.23-6.073,11.248,11.248,0,0,1,3.976-.958c1.03-.071,2.092-.107,3.123-.142A.964.964,0,0,0,447.376,39.591Zm0,1.065a10.566,10.566,0,0,0-4.472.675,4.167,4.167,0,0,0-2.7,4.082A3.6,3.6,0,0,0,444.358,49a6.96,6.96,0,0,0,2.7-1.136.524.524,0,0,0,.284-.532V41.011A1.094,1.094,0,0,0,447.376,40.656Z" transform="translate(-282.047 -20.45)" fill="#253858"/>
        <path id="Shape-6" data-name="Shape" d="M68.275,51.011a8.463,8.463,0,0,1-8.625-7.064,10.989,10.989,0,0,1,1.385-8.484,7.8,7.8,0,0,1,6.177-3.692,8.832,8.832,0,0,1,5.609,1.1A8.585,8.585,0,0,1,76.8,38.41a11.142,11.142,0,0,1-1.065,8.519,7.856,7.856,0,0,1-6.105,4.011c-.142,0-.248.036-.391.036A8.651,8.651,0,0,1,68.275,51.011ZM73.707,41c-.036-.462-.107-1.313-.248-2.13a9.356,9.356,0,0,0-1.81-4.476,4.136,4.136,0,0,0-5.926-.885A6.5,6.5,0,0,0,63.8,36.174a14.372,14.372,0,0,0-.675,8.2,8.755,8.755,0,0,0,1.917,4.153,4.134,4.134,0,0,0,5.4.887A5.6,5.6,0,0,0,72.4,47.107,12.8,12.8,0,0,0,73.707,41Z" transform="translate(-38.387 -20.512)" fill="#0065ff"/>
        <path id="Path" d="M390.839,50.022h12.14v1.242H386.79a2.453,2.453,0,0,1,.319-1.562c3.8-5.218,7.525-10.471,11.287-15.725a1.778,1.778,0,0,1,.177-.248h-7.418c-.462,0-.923.071-1.385.107a.646.646,0,0,0-.6.568,10.022,10.022,0,0,0-.071,1.03v1.278h-1.81V32.7h15.226a2.064,2.064,0,0,1-.355,1.562q-5.588,7.721-11.108,15.442a.638.638,0,0,1-.21.318Z" transform="translate(-249.857 -21.156)" fill="#253858"/>
        <path id="Path-2" data-name="Path" d="M541.173,33.035v-.958H547.7v3.374c1.7-2.627,3.9-4.224,7.206-3.656v5.111h-1.848c-.071-.5-.107-1.03-.213-1.526-.142-.816-.284-.923-1.1-.923a4.594,4.594,0,0,0-3.55,1.952,2.352,2.352,0,0,0-.532,1.526c.036,2.767,0,5.5.036,8.27a20.066,20.066,0,0,0,.142,2.059,1.1,1.1,0,0,0,1.03,1.136c.6.107,1.207.142,1.81.213a3.441,3.441,0,0,0,.6.036v1.03H541.173a7.42,7.42,0,0,1,0-.887c0-.071.177-.177.284-.177l1.7-.213a1.147,1.147,0,0,0,1.065-1.1c.036-.639.107-1.278.107-1.917v-9.94c0-.71-.107-1.417-.177-2.13a.871.871,0,0,0-.742-.816,20.73,20.73,0,0,0-2.24-.462Z" transform="translate(-349.535 -20.497)" fill="#253858"/>
        <path id="Path-3" data-name="Path" d="M108.9,10.023V9.1h6.034c.319,0,.391.107.391.426,0,4.153.036,8.27.036,12.424,0,4.544.036,9.087.036,13.63,0,.5,0,.5-.5.5h-3.053c0-.142-.036-.248-.036-.355,0-2.484.036-5.005.036-7.49,0-1.775.036-3.585.071-5.36.036-3.337.071-6.709.107-10.046a7,7,0,0,0-.142-1.242,1.51,1.51,0,0,0-1.207-1.242A9.778,9.778,0,0,0,108.9,10.023Z" transform="translate(-70.351 -5.905)" fill="#0065ff"/>
        <path id="Path-4" data-name="Path" d="M230.065,32.833c-.391.71-.742,1.385-1.065,2.059-1.846,4.049-3.692,8.093-5.5,12.1-1.35,2.946-2.663,5.893-4.011,8.8a3.192,3.192,0,0,1-2.449,2.13,10.486,10.486,0,0,1-1.491.071c-.958,0-1.952-.036-2.911-.071-.213,0-.426-.036-.6-.036-.142-.532-.107-.6.391-.568l1.917.107a5.931,5.931,0,0,0,3.018-.532,2.564,2.564,0,0,0,1.313-1.278c.391-.852.71-1.775,1.03-2.663.177-.426.319-.887.532-1.313a.607.607,0,0,0,0-.6c-1.917-4.615-3.869-9.229-5.786-13.844-.248-.6-.462-1.207-.742-1.81a2.532,2.532,0,0,0-2.13-1.6c-.071,0-.142-.142-.177-.213v-.071c0-.852-.107-.675.675-.71h5.147c0,.426.036.816,0,1.207a4.412,4.412,0,0,0,.426,2.13c1.526,3.585,3.018,7.206,4.508,10.791a3.679,3.679,0,0,1,.142.355.971.971,0,0,1,.142-.177c1.526-3.478,3.088-6.922,4.579-10.436.5-1.136.816-2.343,1.207-3.55a.367.367,0,0,1,.426-.319C229.144,32.833,229.6,32.833,230.065,32.833Z" transform="translate(-136.605 -21.242)" fill="#0065ff"/>
        <path id="Path-5" data-name="Path" d="M180.023,48.576v1.136a.4.4,0,0,1-.177.284,11.933,11.933,0,0,1-7.845.568,8.212,8.212,0,0,1-5.538-5.36,10.729,10.729,0,0,1,.887-9.833,7.886,7.886,0,0,1,6.14-3.692,18.814,18.814,0,0,1,6.283.71.283.283,0,0,1,.248.319v3.834c0,.213-.071.319-.319.284h-1.385c-.284,0-.355-.071-.355-.355a10.767,10.767,0,0,0-.213-1.491c-.5-1.775-1.669-2.414-3.478-2.307a4.723,4.723,0,0,0-4.116,2.946,9.825,9.825,0,0,0-.958,3.762,13.8,13.8,0,0,0,.639,5.644,5.837,5.837,0,0,0,4.723,4.26,9.075,9.075,0,0,0,5.04-.568,1.2,1.2,0,0,0,.423-.142Z" transform="translate(-107.083 -20.454)" fill="#0065ff"/>
        <path id="Path-6" data-name="Path" d="M139.9,33.923V33h6.425c.071,6.14.107,12.281.177,18.421h-3.55v-.85c.036-2.627.036-5.254.071-7.88.036-1.988.036-3.94.036-5.928a7.337,7.337,0,0,0-.107-1.242,1.6,1.6,0,0,0-1.491-1.455l-.742-.107A6.282,6.282,0,0,1,139.9,33.923Z" transform="translate(-90.438 -21.349)" fill="#0065ff"/>
        <path id="Path-7" data-name="Path" d="M152.13,13.9v3.23H148.9V13.9Z" transform="translate(-96.247 -9.001)" fill="#0065ff"/>
        <path id="Path-8" data-name="Path" d="M633.137,20.343A20.269,20.269,0,1,1,612.868.1a20.269,20.269,0,0,1,20.269,20.243Z" transform="translate(-382.803 -0.1)" fill="#0065ff"/>
        <g id="Group_1393" data-name="Group 1393" transform="translate(216.4 12.165)">
          <path id="Path-9" data-name="Path" d="M6.589,29.229l1.385-.355a3.858,3.858,0,0,1-.213,2.556,3.356,3.356,0,0,1-1.846,1.633,3.584,3.584,0,0,1-3.018,0A4.665,4.665,0,0,1,.7,30.471a6.086,6.086,0,0,1-.5-2.379A3.41,3.41,0,0,1,.875,26.14,3.9,3.9,0,0,1,2.543,24.9a3.429,3.429,0,0,1,2.343-.213,3.2,3.2,0,0,1,1.775,1.385l-1.207.748a2.481,2.481,0,0,0-1.138-.925,1.771,1.771,0,0,0-1.278.071,2.2,2.2,0,0,0-1.313,1.385,3.723,3.723,0,0,0,.319,2.52A3.691,3.691,0,0,0,3.57,31.892a2.3,2.3,0,0,0,1.881.071,1.967,1.967,0,0,0,1.1-1.03A2.507,2.507,0,0,0,6.589,29.229Z" transform="translate(-0.2 -16.005)" fill="#fff"/>
          <path id="Shape-7" data-name="Shape" d="M21.526,21.759a4.226,4.226,0,0,1-.107-3.692,3.908,3.908,0,0,1,2.092-1.881,3.809,3.809,0,0,1,3.053-.036A4.458,4.458,0,0,1,28.8,18.635a5.32,5.32,0,0,1,.532,2.556,3.41,3.41,0,0,1-.781,1.881,4.013,4.013,0,0,1-1.7,1.246,3.751,3.751,0,0,1-3.088.036,4.6,4.6,0,0,1-2.236-2.594Zm1.385-.568a3.711,3.711,0,0,0,1.562,1.988,2.219,2.219,0,0,0,1.952.071,2.266,2.266,0,0,0,1.313-1.417,3.758,3.758,0,0,0-.284-2.556,3.5,3.5,0,0,0-1.562-1.917,2.219,2.219,0,0,0-1.952-.071,2.321,2.321,0,0,0-1.35,1.417,3.826,3.826,0,0,0,.321,2.486Z" transform="translate(-13.646 -10.382)" fill="#fff"/>
          <path id="Path-10" data-name="Path" d="M46.03,12.07,42.8,4.261l1.171-.5.462,1.1a2.628,2.628,0,0,1,.6-1.313,3.011,3.011,0,0,1,1.242-.923,2.506,2.506,0,0,1,1.562-.213,2.18,2.18,0,0,1,1.207.675A3.082,3.082,0,0,1,50.893.711,2.632,2.632,0,0,1,52.952.6a2.945,2.945,0,0,1,1.453,1.74l2.2,5.358L55.3,8.234,53.271,3.3a4.175,4.175,0,0,0-.6-1.1,1.056,1.056,0,0,0-.71-.355,1.97,1.97,0,0,0-.887.107,2.036,2.036,0,0,0-1.136,1.1,2.686,2.686,0,0,0,.177,1.988l1.881,4.544-1.313.532L48.589,5.04a2.573,2.573,0,0,0-.855-1.2,1.275,1.275,0,0,0-1.242,0,2.236,2.236,0,0,0-.925.71,1.592,1.592,0,0,0-.319,1.136,5.122,5.122,0,0,0,.462,1.7l1.669,4.049Z" transform="translate(-27.679 -0.444)" fill="#fff"/>
        </g>
      </g>
    </g>
  </g>
</svg>
