<svg xmlns="http://www.w3.org/2000/svg" width="372.937" height="280.018" viewBox="0 0 372.937 280.018"><defs><style>.a{fill:#255959;}.b{fill:#8ddba0;}.c,.d{font-size:8px;}.c{font-family:ProximaNova-Regular, Proxima Nova;}.d{font-family:ProximaNova-Bold, Proxima Nova;font-weight:700;}</style></defs><g transform="translate(-826 -199.457)"><g transform="translate(826 228.672)"><g transform="translate(0 0)"><path d="M39.278,83.269a1.041,1.041,0,0,0,1.3-.38c.585-.77,1.393-1.367,2.035-2.1a50,50,0,0,0,4.544-5.409,61.694,61.694,0,0,0,3.512-6.845c.937-1.931,1.789-3.9,2.713-5.841a2.259,2.259,0,0,1,.726-.79c.906-.652.893-.79.026-1.447a6.261,6.261,0,0,1-1.487-1.482,1.556,1.556,0,0,1,.007-1.3A1.134,1.134,0,0,1,54,57.007c.713.232.376-.22.305-.419-.936-2.646-2.017-5.249-2.788-7.942a27.974,27.974,0,0,1-.814-5.518,67.761,67.761,0,0,1-.293-7.7,57.9,57.9,0,0,1,.876-6.507,28.174,28.174,0,0,1,2.283-7.442,59.786,59.786,0,0,1,3.608-6.5,31.228,31.228,0,0,1,5.137-6.1A30.178,30.178,0,0,1,69.585,3.7,36.729,36.729,0,0,1,78.3.486,18,18,0,0,1,81.1.162C82.709.073,84.324.011,85.938,0A19.837,19.837,0,0,1,95.523,2.28a7.862,7.862,0,0,0,2.865.7A21.827,21.827,0,0,1,109.325,6.97c1.053.764,2.022,1.647,3,2.511a38.757,38.757,0,0,1,7.206,8.637,53.524,53.524,0,0,1,4.3,8.351c1.016,2.534,2.1,5.043,3.092,7.584.882,2.248,1.631,4.549,2.544,6.783.876,2.143,1.9,4.225,2.831,6.347a12.664,12.664,0,0,0,.974,2.3c.333.486-.224,1.055-.676,1.3a3.244,3.244,0,0,1-1.515.329,36.22,36.22,0,0,1-4.837-.176,56.433,56.433,0,0,1-5.966-1.253c-1.178-.3-2.3-.812-3.458-1.2a.7.7,0,0,0-.983.4c-1.119,2.231-2.255,4.456-3.465,6.639a57.913,57.913,0,0,0-3.639,7.756,8.5,8.5,0,0,0-.331,5.3c.426,1.632.65,3.316,1.028,4.962.408,1.776.9,3.531,1.339,5.3.473,1.93.21,3.2-1.49,3.792a4.469,4.469,0,0,1-2.372-.089c-2-.487-3.971-1.112-5.965-1.637a.826.826,0,0,0-1.046.524c-1.076,2.12-2.231,4.2-3.392,6.275-1.643,2.937-3.261,5.89-5.008,8.765A3.192,3.192,0,0,1,88.659,98a13.281,13.281,0,0,1-4.267-.405,16.434,16.434,0,0,1-4.965-2.916c-.977-.782-1.907-1.622-2.892-2.394-.523-.41-.824-.059-1.029.432-.621,1.484-1.374,2.927-1.845,4.457-.838,2.724-1.579,5.484-2.206,8.264a11.866,11.866,0,0,1-.857,2.979.667.667,0,0,0,.1.628c2,1.536,2.682,3.873,3.587,6.031,1.16,2.764,2.175,5.6,3.127,8.439.933,2.787,1.772,5.609,2.535,8.448.865,3.214,1.64,6.455,2.379,9.7.639,2.807,1.23,5.628,1.735,8.461.362,2.037.576,4.1.8,6.16q.369,3.346.632,6.7c.149,1.932.236,3.869.321,5.805q.113,2.578.16,5.159.1,4.993.154,9.987c.005.452-.157.911-.123,1.357a.783.783,0,0,0,.5.544q2.961.526,5.937.962c1.032.151,2.073.255,3.114.318,2.941.178,5.883.378,8.827.462,1.858.053,3.721-.077,5.581-.142.9-.032,1.8-.112,2.705-.152,1.376-.062,2.755-.081,4.129-.167a56.616,56.616,0,0,0,6.442-.531,8.8,8.8,0,0,0,3.257-1.637,31.356,31.356,0,0,0,3.773-3.122c2.75-2.66,5.411-5.41,8.135-8.1a30.445,30.445,0,0,1,5.967-4.7,4.6,4.6,0,0,1,1.01-.424c1.67-.494,2.5-1.9,3.442-3.171,1.77-2.4,3.549-4.8,5.253-7.245,2.089-3,4.123-6.042,6.145-9.089,1.493-2.25,2.906-4.552,4.394-6.8,1.359-2.057,2.737-4.1,4.173-6.106,1.031-1.438,2.161-2.807,3.268-4.189a2.009,2.009,0,0,1,3.055-.088c1.378,1.468,2.858,2.846,4.344,4.208a2.707,2.707,0,0,1,.342,3.768q-4.246,6.809-8.66,13.513c-1.111,1.7-2.385,3.288-3.561,4.944a.614.614,0,0,0,.024.585,8.787,8.787,0,0,1,2.3,5.946,12.871,12.871,0,0,1-1.177,6.326,33.566,33.566,0,0,1-3.236,5.144,22.758,22.758,0,0,1-3.58,3.888,84.039,84.039,0,0,1-7.242,5.434,74.757,74.757,0,0,1-7.833,4.583c-3.354,1.681-6.816,3.157-10.276,4.614-2.988,1.258-6.07,2.292-9.049,3.568a40.441,40.441,0,0,0-4.162,2.376c-1.745,1.009-3.462,2.074-5.245,3.011-3.876,2.035-7.756,4.066-11.691,5.982a55.585,55.585,0,0,1-10.01,3.924,1.091,1.091,0,0,0-.4.185,22.447,22.447,0,0,1-8.522,4.078c-1.411.371-2.845.661-4.276.952-.832.17-1.065.5-.881,1.344a1.342,1.342,0,0,1,0,.656c-.775,2.475-1.616,4.93-2.34,7.419-.7,2.409-1.212,4.874-1.949,7.271-.652,2.119-1.5,4.178-2.262,6.264a.757.757,0,0,0-.085.279c.1,1.462-.686,2.663-1.147,3.96-.286.806-.986,1.085-1.695,1.385a31.537,31.537,0,0,1-7.662,2.139c-1.893.285-3.79.543-5.688.793-4.219.555-8.46.284-12.692.3-2.146.008-4.3-.116-6.437-.317-2.463-.231-4.928-.519-7.362-.952a44.2,44.2,0,0,1-11.433-3.344q-2.51-1.2-5.042-2.35c-1.22-.557-2.512-.983-3.666-1.651-1.636-.947-2.451-2.6-3.207-4.259a6.187,6.187,0,0,1-.372-3.069,14.42,14.42,0,0,0-.573-3.375c-.046-.243-.192-.5-.143-.723a8.085,8.085,0,0,0-.322-3.3c-.2-1.114-.308-2.245-.489-3.363-.315-1.95-.639-3.9-.988-5.844-.281-1.567-.6-3.126-.907-4.689-.369-1.906-.753-3.808-1.1-5.719-.244-1.357-.427-2.726-.647-4.088-.311-1.928-.65-3.851-.942-5.782-.193-1.275-.3-2.562-.487-3.839s-.425-2.571-.612-3.86c-.135-.927-.219-1.862-.334-2.792-.208-1.681-.424-3.36-.63-5.042-.065-.531-.125-1.063-.157-1.6-.114-1.882-.213-3.765-.322-5.647-.01-.175.017-.419-.084-.512a2.4,2.4,0,0,1-.549-2.076c.056-1.561.09-3.123.164-4.684.087-1.831.208-3.66.312-5.489.107-1.882.162-3.769.329-5.646q.32-3.6.79-7.192c.376-2.839.762-5.681,1.276-8.5.484-2.653,1.107-5.283,1.729-7.908.756-3.19,1.456-6.4,2.4-9.535.767-2.538,1.845-4.983,2.817-7.457q1.792-4.561,3.644-9.1c.591-1.444,1.282-2.846,1.888-4.284a43.056,43.056,0,0,1,3.616-6.736A38.555,38.555,0,0,1,25.555,88.4a16.253,16.253,0,0,1,5.7-3.212c2.086-.711,4.216-1.3,6.344-1.881a7.058,7.058,0,0,1,1.675-.037M30.1,215.7a48.349,48.349,0,0,1-3.293-4.116c-1.245-1.934-2.287-4-3.368-6.039a23.467,23.467,0,0,1-2.2-6.053c-.448-2.062-.894-4.127-1.259-6.2-.326-1.859-.565-3.734-.8-5.607-.151-1.217-.155-2.454-.339-3.665a20.776,20.776,0,0,1,.184-6.215c.159-1.077.076-1.383-.916-1.915a5.959,5.959,0,0,1-3.159-3.65,24.16,24.16,0,0,1-.8-5.833c-.032-4.23.151-8.461.282-12.691.058-1.884.2-3.765.311-5.647.038-.639.073-1.28.161-1.913.3-2.166.6-4.333.951-6.493.337-2.095.6-4.215,1.13-6.263a90.566,90.566,0,0,1,3.289-11.218c1.557-3.876,3.025-7.775,5.663-11.118a9.713,9.713,0,0,1,7.744-4.041c1.055-.023,2.111,0,3.166,0a11.136,11.136,0,0,1,4.193.96,21.535,21.535,0,0,1,8.361,6.542,25.366,25.366,0,0,1,5.214,10.819c.735,3.25,1.328,6.535,1.908,9.817.484,2.743.885,5.5,1.269,8.261q.393,2.826.632,5.674c.157,1.852.274,3.71.311,5.567.029,1.454-.067,2.912-.148,4.366-.077,1.383-.147,2.77-.324,4.142-.264,2.039-.545,4.082-.959,6.094-.341,1.656-.862,3.277-1.35,4.9a12.075,12.075,0,0,0-.81,2.185,32.643,32.643,0,0,1-1.621,7.255c-.661,2.046-1.361,4.08-2.025,6.126-.043.133.076.319.12.481.112-.053.228-.1.335-.161.747-.427,1.476-.887,2.241-1.281a39.671,39.671,0,0,1,7.947-3.362,30.074,30.074,0,0,1,7.938-1.265c2.912.027,5.824.174,8.734.311a12.717,12.717,0,0,1,2.381.36c1.277.31,1.634.079,1.619-1.234q-.067-5.706-.161-11.412c-.02-1.14-.091-2.279-.155-3.417-.152-2.679-.306-5.358-.477-8.035-.083-1.3-.143-2.613-.327-3.9-.318-2.229-.681-4.454-1.1-6.665-.537-2.8-1.028-5.622-1.764-8.373-1.491-5.57-3.058-11.122-4.746-16.635-.941-3.075-2.1-6.093-3.329-9.066a50.925,50.925,0,0,0-2.658-4.915,2,2,0,0,0-1.519-.972c-.979-.179-1.974-.308-2.926-.582a18.686,18.686,0,0,1-6.958-3.635,49.773,49.773,0,0,1-4.6-4.158c-1.742-1.883-3.306-3.934-4.889-5.958-1.644-2.1-3.2-4.273-4.831-6.382a21.225,21.225,0,0,0-2.3-2.58,1.706,1.706,0,0,0-1.413-.324,10.721,10.721,0,0,0-1.926,1.074,41.311,41.311,0,0,0-7.813,5.954,52.957,52.957,0,0,0-4.146,4.451c-1.345,1.578-2.655,3.2-3.838,4.9q-2.312,3.323-4.382,6.811a33.948,33.948,0,0,0-2.418,4.851c-1.1,2.791-2.073,5.636-3.016,8.486-.563,1.7-1.032,3.438-1.428,5.185-.538,2.375-.967,4.774-1.442,7.163s-.976,4.773-1.414,7.169c-.311,1.7-.524,3.423-.8,5.132-.356,2.171-.753,4.335-1.1,6.508-.242,1.517-.435,3.042-.638,4.565-.323,2.427-.734,4.849-.917,7.287a45.546,45.546,0,0,0,.126,5.077c.1,2.621.192,5.243.322,7.863.061,1.225.171,2.45.317,3.668.176,1.473.43,2.937.621,4.409.179,1.383.287,2.776.488,4.155.285,1.958.638,3.906.938,5.861.282,1.84.485,3.694.806,5.527.486,2.77,1.055,5.526,1.569,8.291.438,2.355.837,4.717,1.273,7.073.462,2.5.987,4.983,1.41,7.486.373,2.207.67,4.429.955,6.65a17.012,17.012,0,0,0,2.25,6.192,1.555,1.555,0,0,0,.64.537c.606.313,1.252.551,1.852.875a44.172,44.172,0,0,0,4.458,2.422,75.024,75.024,0,0,0,8.315,2.842c2.57.686,5.238,1.01,7.869,1.461.923.158,1.863.226,2.8.324,2.049.215,4.1.549,6.15.6,2.116.052,4.239-.164,6.358-.286,1.435-.083,2.873-.165,4.3-.322,2.032-.224,4.077-.414,6.08-.807,2.713-.532,5.382-1.283,8.089-1.847a1.513,1.513,0,0,0,1.311-1.178c1.385-4.173,2.937-8.294,4.2-12.5.863-2.886,1.35-5.885,1.988-8.837.169-.782.262-1.579.41-2.366a2.647,2.647,0,0,1,.229-.537,2.072,2.072,0,0,0-.661-.085c-1.43.3-2.844.673-4.281.929-2.589.461-5.188.865-7.785,1.275-2.752.434-5.5.928-8.264,1.245-2.4.275-4.824.4-7.242.479a38.089,38.089,0,0,1-4.918-.162,26.439,26.439,0,0,1-4.423-.779c-1.452-.4-2.821-1.089-4.256-1.561-2.794-.92-5.487-1.99-7.566-4.365m113.277-26.677c1.925-1.027,3.907-1.962,5.76-3.1,2.641-1.629,5.22-3.366,7.762-5.146a23.1,23.1,0,0,0,3.88-3.2,47.245,47.245,0,0,0,3.937-5.163,12.834,12.834,0,0,0,2.3-7.184,10.64,10.64,0,0,0-.454-2.335,4.515,4.515,0,0,0-.23-.616,2.2,2.2,0,0,0-.644.338q-2.316,2.513-4.6,5.058c-.793.881-1.589,1.76-2.348,2.669-1.748,2.094-3.438,4.237-5.219,6.3a15.334,15.334,0,0,1-8.207,5.2,2.309,2.309,0,0,1-2.515-.683,1.761,1.761,0,0,1,.038-2.181c.738-1.109,1.574-2.154,2.393-3.207a10.516,10.516,0,0,0,2.163-3.932c.067-.279.132-.758-.426-.645a3.048,3.048,0,0,0-1.23.45,66.552,66.552,0,0,0-5.294,4.208c-2.846,2.671-5.531,5.513-8.317,8.249a20.4,20.4,0,0,1-2.644,2.215c-1.173.813-2.51,1.4-3.639,2.262a5.635,5.635,0,0,1-3.52,1.085c-1.694.032-3.387.092-5.079.157-.718.028-1.436.08-2.15.158-1.814.2-3.621.462-5.438.615-1.45.122-2.911.108-4.366.175-2.068.095-4.134.218-6.2.311-2.568.116-5.136.266-7.705.3-2.035.029-4.072-.081-6.108-.145-1.087-.034-2.175-.077-3.259-.16q-3.828-.293-7.653-.631c-1.651-.144-3.3-.443-4.949-.444-3,0-6.008-.265-8.989.433a35.733,35.733,0,0,0-13.2,6.183,5.188,5.188,0,0,1-2.435.751.986.986,0,0,1-1.021-.957,2.4,2.4,0,0,1,.563-1.537c1-.91,2.154-1.657,3.217-2.505a1.745,1.745,0,0,0,.58-.844c.469-1.763.809-3.564,1.34-5.307a84.584,84.584,0,0,0,2.762-10.482,2.234,2.234,0,0,0-.453-1.444c-.092-.135-.747.053-1.115.178-.668.227-1.3.58-1.974.77-2.367.665-4.755,1.255-7.12,1.927a40.68,40.68,0,0,1-8.758,1.376,28.485,28.485,0,0,1-9.976-.911.684.684,0,0,0-.953.6,32.491,32.491,0,0,0-.159,3.574c.021,1.04.194,2.076.3,3.115.159,1.57.237,3.154.493,4.708.406,2.453.886,4.9,1.418,7.326A35.232,35.232,0,0,0,31.7,212.581a12.339,12.339,0,0,0,5.184,3.526,28.671,28.671,0,0,1,5.131,2.108,9.8,9.8,0,0,0,5.131,1.2,70.427,70.427,0,0,0,10.805-.468c1.2-.147,2.4-.31,3.593-.5,1.506-.238,3-.528,4.511-.759,1.223-.188,2.46-.287,3.679-.49,1.7-.282,3.383-.611,5.069-.945s3.365-.645,5.023-1.063c1.446-.365,2.847-.906,4.286-1.3,3.179-.87,6.383-1.649,9.552-2.553a62.521,62.521,0,0,0,11.389-4.415c3.352-1.716,6.739-3.37,10.044-5.173,1.951-1.064,3.771-2.368,5.654-3.557a10.792,10.792,0,0,1,3.7-1.955c.646-.118,1.281.063,1.959-.322a26.762,26.762,0,0,1,3.567-1.5c3.024-1.172,6.062-2.308,9.08-3.495,1.429-.562,2.825-1.206,4.315-1.892M102.606,36.644c.49.343.982.683,1.47,1.03A53.977,53.977,0,0,0,115.2,43.69c2.712,1.095,5.433,2.168,8.155,3.239.1.04.252-.038.379-.062a1.008,1.008,0,0,0-.1-.277c-.352-.463-.729-.908-1.072-1.378a38.541,38.541,0,0,1-4.064-7.417c-1.266-2.9-2.416-5.86-3.713-8.749-.92-2.049-1.93-4.065-3.028-6.025a31.382,31.382,0,0,0-4.515-6.441c-1.333-1.4-2.592-2.886-4.04-4.154-1.862-1.631-3.873-3.094-5.836-4.61a21.672,21.672,0,0,0-5.846-3.266,18.482,18.482,0,0,0-4.705-1.033,24.429,24.429,0,0,0-7.706.468A32.1,32.1,0,0,0,70.3,7.358a31.07,31.07,0,0,0-5.769,4.211,31.627,31.627,0,0,0-5.6,7.095,42.2,42.2,0,0,0-2.813,5.479,33.731,33.731,0,0,0-1.634,5.728,48.6,48.6,0,0,0-.919,6.5,32.029,32.029,0,0,0,.453,7.95,51.189,51.189,0,0,0,1.25,5.735c.9,2.938,1.976,5.825,3.04,8.71a2.282,2.282,0,0,0,1,1.054,18.473,18.473,0,0,0,6.551,1.749c1.483.216,2.979.339,4.472.468.158.014.492-.231.482-.328-.2-1.835-.346-3.682-.682-5.493a15.6,15.6,0,0,1-.111-5.5,17.018,17.018,0,0,1,3.161-7.858,5.084,5.084,0,0,1,3.807-2.028,5.454,5.454,0,0,1,3.811,1.291A29.552,29.552,0,0,1,84.9,46.087a22.118,22.118,0,0,1,2.035,3.65,1.607,1.607,0,0,0,.244.275c.076-.1.193-.191.221-.3a18.3,18.3,0,0,1,.463-1.947c.984-2.651,2.042-5.275,3.018-7.929.783-2.131,1.422-4.317,2.252-6.428a11.888,11.888,0,0,1,1.744-3.063c.706-.88,2.881-.12,3.265,1.164a7.009,7.009,0,0,0,1.836,2.638c.782.867,1.693,1.619,2.627,2.5m5.066,20.9c.727-1.36,1.425-2.737,2.188-4.077,1.035-1.818,2.125-3.605,3.18-5.412a.869.869,0,0,0-.49-1.361c-1.423-.644-2.889-1.218-4.235-2a54.632,54.632,0,0,1-6.782-4.3,36.263,36.263,0,0,1-5.092-5c-.119-.14-.247-.272-.371-.408a3.231,3.231,0,0,0-.269.5c-.61,1.832-1.175,3.68-1.819,5.5-1.262,3.565-2.609,7.1-3.824,10.682a4.511,4.511,0,0,0-.245,2.875,1.7,1.7,0,0,1-.97,1.94c-.607.212-1.438-.3-1.868-1.055a2.052,2.052,0,0,0-.782-.794,2.693,2.693,0,0,1-1.425-1.736,15.107,15.107,0,0,0-5.95-8.271c-1.447-1.017-2.422-.817-3.38.7-.273.433-.479.908-.71,1.367a14.676,14.676,0,0,0-1.625,6.2c-.077,2.933.152,5.875.29,8.811a1.648,1.648,0,0,0,.466.9.925.925,0,0,1-.046,1.476,4.029,4.029,0,0,1-3,.958c-2.173-.005-4.346-.158-6.517-.293a15.28,15.28,0,0,1-5.915-1.575c-.684-.341-1-.176-1.16.587A32.389,32.389,0,0,1,54.443,71.1c-1.164,2.4-2.546,4.711-3.939,7a23.447,23.447,0,0,1-6.473,7.061c-.376.266-.429.435-.119.771,2.431,2.631,4.821,5.3,7.291,7.894,1.5,1.574,3.079,3.074,4.689,4.535,1.979,1.8,3.96,3.6,6.068,5.239a31.023,31.023,0,0,0,4.2,2.455c.3.166.744.252.682-.412a3.22,3.22,0,0,1,.145-.8c.291-1.647.5-3.314.888-4.938.591-2.487,1.278-4.952,1.97-7.414.564-2.007,1.543-3.673,3.821-4.1a5.527,5.527,0,0,1,2.208-.319,24.953,24.953,0,0,1,4.5,1.72A44.629,44.629,0,0,1,84.479,92.3c1.608,1.031,2.079,1.121,3.115-.765,1-1.822,1.878-3.71,2.873-5.535C92,83.177,93.525,80.34,95.2,77.6c.762-1.251,1.706-2.175,3.562-1.618.849.255,1.751.352,2.579.656,1.9.7,3.767,1.477,5.646,2.228.17.068.33.163.495.246a3.011,3.011,0,0,0-.047-.585c-.44-1.584-.939-3.153-1.33-4.749a42.146,42.146,0,0,1-.936-4.672,14.211,14.211,0,0,1-.13-4.274,26.387,26.387,0,0,1,2.637-7.285M52.419,151.425c-.158-2.547-.308-5.094-.479-7.64-.084-1.251-.143-2.508-.327-3.745-.317-2.124-.659-4.248-1.111-6.347-.5-2.336-1.129-4.646-1.723-6.961a28.124,28.124,0,0,0-4.5-9.37,21.394,21.394,0,0,0-3.543-4.126c-2.274-1.884-5.1-1.886-7.865-1.442a7.39,7.39,0,0,0-5,3.606,36.241,36.241,0,0,0-3.785,8.169,67.829,67.829,0,0,0-2.679,11.708c-.327,2.084-.495,4.2-.638,6.305-.127,1.873-.149,3.754-.163,5.632-.008,1.059.12,2.119.143,3.18.066,3.118.085,6.236.172,9.353.059,2.121.184,4.241.313,6.359.136,2.231.3,4.461.476,6.689.047.6.1,1.3.827,1.447a41.566,41.566,0,0,0,5.763.96,40.593,40.593,0,0,0,6.117-.29,36.5,36.5,0,0,0,5.119-.82c3.534-.864,7.035-1.861,10.551-2.8.72-.192,1.286-.51,1.384-1.347.2-1.708.476-3.409.615-5.122q.252-3.093.319-6.2c.053-2.347.012-4.7.012-7.2m109.161,1.5c-1.175,1.7-2.325,3.425-3.532,5.105q-3.75,5.222-7.564,10.4a2.19,2.19,0,0,0-.343,2.069,4.392,4.392,0,0,1,.021,1.9,11.261,11.261,0,0,1-3.111,5.357,2.528,2.528,0,0,0-.265.435c.214-.009.478.06.635-.039a26.66,26.66,0,0,0,5.957-5.779c1.658-1.978,3.29-3.98,4.99-5.922,1.352-1.546,2.806-3,4.175-4.534.317-.354.754-.944.65-1.271-.433-1.362.317-2.256,1.006-3.208,1.9-2.618,3.862-5.189,5.676-7.863,2.367-3.487,4.611-7.056,6.918-10.584a.881.881,0,0,0-.164-1.253c-.732-.723-1.476-1.436-2.177-2.188-.444-.476-.823-.494-1.208.02-.859,1.146-1.749,2.272-2.553,3.455q-2.595,3.821-5.111,7.7c-1.327,2.031-2.616,4.086-4,6.21M109.018,10.917c-.128-.075-.259-.144-.382-.225-1.662-1.085-3.319-2.176-4.99-3.248-.117-.075-.326-.006-.493,0,.067.156.092.366.209.459.848.678,1.784,1.26,2.56,2.009,1.488,1.436,2.916,2.938,4.318,4.459a33.551,33.551,0,0,1,5.372,8.062c1.29,2.629,2.575,5.263,3.76,7.941,1.292,2.919,2.383,5.929,3.722,8.826a50.448,50.448,0,0,0,2.888,4.978c.531.871,1.142,1.694,1.734,2.527.079.111.254.153.385.228,0-.195.065-.427-.018-.577-.334-.6-.792-1.15-1.061-1.779-.7-1.636-1.32-3.305-1.974-4.96-1.622-4.1-3.173-8.238-4.9-12.3a66.138,66.138,0,0,0-3.583-7.219,38.958,38.958,0,0,0-7.551-9.179M17.747,154.275c0-.079,0-.158,0-.237.052-.927.122-1.853.143-2.781,0-.179-.189-.363-.291-.544a1.545,1.545,0,0,0-.24.477c-.1.94-.206,1.882-.238,2.826-.077,2.322-.152,4.646-.155,6.97,0,2.086.069,4.173.158,6.258a15.959,15.959,0,0,0,.338,3.024,9.456,9.456,0,0,0,.993,2.111c.082.154.317.228.481.338a2.412,2.412,0,0,0,.07-.6c-.143-1.07-.353-2.132-.458-3.2q-.288-2.94-.476-5.89c-.094-1.477-.13-2.959-.161-4.44-.025-1.221,0-2.442-.012-3.663,0-.163-.1-.325-.151-.646m61.032,33.168c-.294-.053-.586-.125-.883-.154q-1.068-.1-2.14-.175c-1.564-.106-3.129-.207-4.695-.292-.088,0-.185.15-.278.231.07.078.129.208.21.224a8.693,8.693,0,0,0,1.118.163c1,.066,2.01.1,3.015.166.585.037,1.169.095,1.751.157,1.436.154,2.871.319,4.307.465.115.012.242-.1.363-.148-.1-.106-.184-.288-.3-.307-.769-.129-1.543-.223-2.474-.329M67.063,246.812c-.835.211-1.671.415-2.5.64a1.875,1.875,0,0,0-.426.248c.179.074.372.234.535.207,1.1-.184,2.209-.366,3.294-.633a22.925,22.925,0,0,0,2.282-.783c.089-.032.149-.142.223-.215a.821.821,0,0,0-.267-.09,2.807,2.807,0,0,0-.521.072c-.82.182-1.638.37-2.616.555M55.268,156.966l.122.4c.118-.112.339-.227.337-.336-.024-.948-.083-1.9-.151-2.842-.008-.106-.133-.2-.2-.305a1.275,1.275,0,0,0-.1.336C55.265,155.079,55.268,155.944,55.268,156.966Z" transform="translate(0 0)"></path></g><path class="a" d="M-13621.726,8744.185a30.55,30.55,0,0,0-14.8,10.762,173.428,173.428,0,0,0-9.688,15.606s-5.92,20.179-6.993,21.792-2.691,16.413-2.691,16.413-1.613,14.527-1.613,16.414,1.883,14.8,1.613,16.679,7.533,50.854,7.533,50.854l2.151,4.3,14.261,6.188,19.911,2.959,17.219-2.959,5.651-1.883h1.882l6.188-24.485-33.631,4.3-12.647-4.3-6.456-7.535-4.842-10.491-3.5-13.991V8786.7l5.651-16.143,7.8-5.382h7l7,5.382,5.381,6.188,5.111,15.6v37.131l-5.111,18.025,9.954-4.036,5.921-1.614h6.187l9.687,1.614-1.882-31.479-7.8-32.019-4.877-11.7-12.073-3.1-10.492-13.992Z" transform="translate(13660.571 -8658.071)"></path><path d="M-13579.845,8677.592s-12.163-.619-15.682,1.657a74.689,74.689,0,0,1-9.521,4.759l-6.622,9.728s-5.379,12.209-4.347,15.729,0,10.142,2.9,17.387,2.689,6.207,2.689,6.207l10.762,2.277s-1.034-12.419,0-13.659.621-5.794,4.141-7.244,6.621,1.448,6.621,1.448l6,7.865,8.692-21.317a3.317,3.317,0,0,1,2.691,1.862,38.893,38.893,0,0,0,4.14,5.174l9.106,6.416,12.211,4.347-7.037-12-6.622-14.488-7.658-9.728Z" transform="translate(13670.049 -8673.35)"></path><path class="a" d="M-16301.706,6079.564l-1.43-23.97,1.43-19.5,5.9-14.848,4.117-3.4h5.723l5.01,3.4,5.365,9.3,2.684,12.166,1.607,12.88v12.88l-1.607,9.124-14.131,3.041-7.516,1.251-7.156-1.251Z" transform="translate(16323.719 -5906.211)"></path></g><g transform="translate(-35 -10)"><path d="M1.549,14.751a8.053,8.053,0,0,0-.944.264c-.214.072-.609.162-.605.228a1.454,1.454,0,0,0,.245.927,16.855,16.855,0,0,0,1.528,1.049c2.9,2.1,5.794,4.228,8.706,6.321,1.379.992,2.8,1.928,4.2,2.891,2.254,1.551,4.485,3.137,6.768,4.644,2.2,1.45,4.452,2.81,6.673,4.223,1.184.753,2.342,1.545,3.524,2.3a61.465,61.465,0,0,0,8.963,5.059,9.536,9.536,0,0,0,2.016.528c.51.093.853-.164.8-.726a6.28,6.28,0,0,0-.276-1.727c-.653-1.616-1.4-3.192-2.1-4.792-.97-2.231-1.945-4.46-2.88-6.706-.685-1.647-1.274-3.334-1.969-4.977-1.186-2.8-2.216-5.666-3.344-8.489a3.719,3.719,0,0,0-1.711-1.98,2.717,2.717,0,0,0-2.413-.16,5.291,5.291,0,0,1-2.6.039.89.89,0,0,1-.59-.639c.035-2.449-1.649-4-2.912-5.785C21.751,6,20.953,4.692,20.109,3.42a10.209,10.209,0,0,0-.747-1.006c-.33-.384-.715-.66-.729-1.294S17.689.04,16.615,0c-.684-.024-.9.4-1.127.983C14.914,2.5,14.2,3.962,13.606,5.47c-.971,2.451-1.953,4.9-2.8,7.4-.212.627-.387.815-1.006.847a35.154,35.154,0,0,0-5.338.757,24.784,24.784,0,0,1-2.916.281M34.473,24.1c.093.269.169.545.282.8.677,1.563,1.425,3.1,2.031,4.688a75.079,75.079,0,0,0,3.721,8.731,3.654,3.654,0,0,1,.186,1.154,5.034,5.034,0,0,1-.908-.6c-3.053-3.118-6.077-6.264-9.136-9.376-2.4-2.441-4.844-4.839-7.252-7.272-.445-.45-.771-1.02-1.224-1.46-1.338-1.3-2.713-2.552-4.072-3.826-.282-.265-.664-.523-.475-.978.171-.41.568-.424.981-.439a44.946,44.946,0,0,0,5.428-.208c1.863-.29,3.786-.174,5.675-.33a1.647,1.647,0,0,1,1.566.959,11.085,11.085,0,0,1,.826,2.02c.787,1.956,1.579,3.91,2.369,6.129m-21.73-5.663c1.819,1.731,3.624,3.476,5.46,5.189q3.217,3,6.479,5.953c1.459,1.322,2.948,2.612,4.432,3.908.445.389.923.74,1.373,1.124a1.377,1.377,0,0,1,.222.367,1.4,1.4,0,0,1-.5.041c-.15-.044-.259-.211-.4-.3-1.94-1.243-3.913-2.437-5.818-3.731q-5.2-3.528-10.323-7.155c-3.4-2.392-6.773-4.823-10.158-7.237-.363-.259-.389-.611-.032-.728a5.252,5.252,0,0,1,.764-.066,24.5,24.5,0,0,1,2.95-.473c1.11-.041,2.319-.446,3.226.746a26.031,26.031,0,0,0,2.327,2.364m11.589,8.955c-.46-.372-.944-.719-1.376-1.121q-2.381-2.216-4.732-4.462c-2.047-1.948-4.08-3.911-6.129-5.857-.485-.461-.709-.773-.189-1.489a14.961,14.961,0,0,0,1.738-3.346C14.59,8.7,15.419,6.239,16.3,3.8c.11-.3.256-.6.386-.893.046.327.107.654.13.983.007.109-.1.22-.13.337a33.923,33.923,0,0,0-1.164,7.144c-.082,1.311.046,2.634-.034,3.945A2.713,2.713,0,0,0,16.655,17.6c.344.305.77.523,1.09.848Q25.992,26.8,34.219,35.173a4.227,4.227,0,0,1,.456.472c.058.081.017.231.021.35a1.105,1.105,0,0,1-.443-.015c-.149-.074-.247-.244-.379-.359Q31.939,33.942,30,32.27c-1.843-1.584-3.689-3.164-5.666-4.877M18.406,5.137c.031-.206-.008-.528.105-.6.319-.193.321.1.456.335.6,1.03,1.312,1.995,1.921,3.02,1.041,1.754,2.029,3.539,3.053,5.3.233.4.2.717-.287.75-1.758.117-3.519.179-5.278.281-.4.024-.537-.109-.5-.507.1-1.1.013-2.2.215-3.317A41.312,41.312,0,0,0,18.406,5.137Z" transform="translate(1233.938 349.612) rotate(150)"></path><path d="M16.058,12.7a6.716,6.716,0,0,1-3.413,3.521,5.8,5.8,0,0,1-1.926.411,11.991,11.991,0,0,1-4.779-.5,8.535,8.535,0,0,1-4.8-3.932A10.541,10.541,0,0,1,.037,8.98,13.061,13.061,0,0,1,.242,6.468,8.569,8.569,0,0,1,1.054,3.12,5.073,5.073,0,0,1,3.907.607,10.573,10.573,0,0,1,10.594.478,8.765,8.765,0,0,1,15.56,3.4a6.022,6.022,0,0,1,1.559,3.821A13.822,13.822,0,0,1,16.058,12.7M10.4,4.531a23.393,23.393,0,0,1-1.5,2.524,1.855,1.855,0,0,1-2.767.58c-.181-.091-.356-.2-.543-.276C4.531,6.928,3.512,6.27,2.308,6.9c-.141.074-.376.04-.458.143A2.8,2.8,0,0,0,2.2,8.981c1.553,1.389,3.647,1.782,5.35,2.9a3.031,3.031,0,0,0,1.324.275.967.967,0,0,0,1.184-.647,39,39,0,0,1,2-3.381c.673-1.163,1.275-2.368,1.97-3.517.248-.409.323-.763-.074-.986a34.383,34.383,0,0,0-3.369-1.7c-.261-.111-.85-.345-1.108.233a7.683,7.683,0,0,0,.871.253c.8.138,1.112.716.7,1.407a4.983,4.983,0,0,1-.651.706m2.239,10.141c.791-.676.545-1.677.783-2.526.016-.057-.064-.142-.1-.214-.092.074-.226.13-.268.226-.37.841-.886,1.656-.416,2.514m-1.712.658c.22-.16.557-.276.636-.489a18.057,18.057,0,0,0,.54-1.979c.01-.04-.129-.168-.155-.156-.129.058-.311.123-.352.231a11.19,11.19,0,0,0-.669,2.393M3.679,4.136c.119-.382.239-.764.356-1.147.027-.09.045-.183.067-.274-.117.011-.3-.021-.341.041-.263.4-.5.824-.734,1.247-.206.374-.285.746.122,1.056a7.692,7.692,0,0,1,.531-.922m.527.263c-.32.253-.461.676-.138.87.512.306.378-.392.595-.586a1.6,1.6,0,0,0,.318-.9c.028-.177-.057-.517-.156-.544-.42-.115-.321.234-.367.478a5.267,5.267,0,0,0-.252.683M7.893,5.98l-.184-.343c-.266.249-.548.741-.74-.052-.131.113-.384.247-.369.335a1.021,1.021,0,0,0,.317.637c.408.28.715,0,.976-.577M5.523,14.408a.471.471,0,0,0,.093.089c.022.012.081,0,.087-.01a4.2,4.2,0,0,0,.331-.9,3.428,3.428,0,0,0-.087-.864c-.229.232-.547.429-.659.708-.092.23.06.559.236.975M4.337,12.433a4.134,4.134,0,0,0-.369.878c-.02.108.264.394.4.385.3-.018.365-1.079-.027-1.263m2.239,1.975a.466.466,0,0,0,.094.089c.022.012.06-.006.091-.01-.127-.521.82-1.1.076-1.46-.29-.138-.312.749-.479,1.159-.006.016.057.06.219.222m2.634.79.175.352c.117-.164.349-.344.329-.49-.049-.365.214-.69.083-1.046-.394.181-.523.531-.588,1.185M5.523,2.029l.465.325c-.073-.285.492-.488.1-.824-.362-.307-.361.19-.56.5M13.951,8.35a.471.471,0,0,0,.093.089c.022.012.079.006.087-.01.112-.207.22-.416.317-.63,0,0-.182-.116-.2-.1a.932.932,0,0,0-.3.651m-8.3-2.5a4.388,4.388,0,0,0,.388-.3c.016-.015-.058-.128-.091-.2a.642.642,0,0,0-.3.492M7.235,1.9l.105-.158c-.079.009-.158.018-.105.158m1.712-.132L8.789,1.66C8.8,1.739,8.806,1.818,8.947,1.766Z" transform="translate(1204.262 355.687) rotate(22)"></path></g><path d="M1673.016,1687.927A9.564,9.564,0,0,1,1676,1683.9a1.68,1.68,0,0,1,2.664.582c.138.245.13.58.287.805.213.306.2.675.676.925,1.963,1.042,3,2.923,3.806,4.875a6.705,6.705,0,0,1-.379,4.642,10.732,10.732,0,0,1-1.913,3.172,5.62,5.62,0,0,1-2.387,1.539,4.135,4.135,0,0,1-2.37-.263,6.808,6.808,0,0,1-4.381-6.067,20.388,20.388,0,0,1,.289-4.267,16.378,16.378,0,0,1,.724-1.917m1,7.519c.434.434.857.877,1.3,1.3a2.784,2.784,0,0,0,4.37-1.243c.871-2.476,1.177-5.046-.741-7.332-1.024-1.22-3.507-1.552-4.218-.046-1.07,2.269-1.973,4.63-.712,7.322m4.258,3.726a4.628,4.628,0,0,0,3.2-3.5,31.2,31.2,0,0,0,.38-3.82c.01-.126-.129-.265-.2-.4-.108.139-.317.287-.307.416a8.231,8.231,0,0,1-.556,3.224,3.946,3.946,0,0,1-4.269,3.009c-.41-.053-.809-.185-1.217-.252-.107-.017-.231.07-.347.11.084.094.15.222.254.276a5.69,5.69,0,0,0,3.058.937m-.8-13.84.338-.072-.4-.4A.644.644,0,0,0,1677.474,1685.332Z" transform="translate(-577.859 -1484.004)"></path><path d="M227.436,448.289c-.379.379-.674.71-1.007,1a2.147,2.147,0,0,1-3.318-.583c-.182-.321-.33-.665-.537-.969-1.053-1.548-.4-2.972.422-4.286.755-1.2,2.769-1.228,3.984-.3a3.753,3.753,0,0,1,.891,4.43,3.64,3.64,0,0,1-.435.709m-.6-2.063a13.43,13.43,0,0,0-.81-1.515c-.459-.654-.876-.522-1.339.154-.431.628-.187,1.264-.231,1.891a1.373,1.373,0,0,0,1.09,1.363c.6.1.718-.5,1-.828a2.389,2.389,0,0,0,.294-1.065m-2.4,2.928c.266,0,.748.052.764-.013.135-.529-.3-.335-.56-.395-.111-.026-.191-.163-.3-.215-.2-.1-.419-.167-.629-.248.136.184.27.371.41.552C224.178,448.9,224.247,448.959,224.441,449.154Z" transform="translate(880.863 -74.524)"></path><g transform="translate(976.557 272.351)"><path class="b" d="M-10499.734,3253.523v-20.716s.138-11.148-1.843-12.72a13.509,13.509,0,0,0-9.546-3.014c-4.889.125-46.5-1.908-46.5-1.908l-48.517-2.761h-7.336a25.991,25.991,0,0,1-8.416,17.8,47.108,47.108,0,0,1-19.2,9.874s-2.446.528-1.878,10.845,1.878,27.306,1.878,27.306,3.064,3.3,5.826,3.142,10.163-1.249,15.6,1.824a58.93,58.93,0,0,1,10.728,8.4l2.8-8.4a22.86,22.86,0,0,1,10.063-2.494c5.092.171,83.425-2.472,83.425-2.472l11.071-3.082,1.843-7.8Z" transform="translate(10646.02 -3209.794)"></path><path class="b" d="M107.694,124.773c3.216-.032,6.4-.015,9.579-.037,2.7-.018,5.41-.072,8.114-.124,1.332-.025,2.668-.031,3.993-.134a37.786,37.786,0,0,0,7.632-.884c1.452-.419,2.873-.935,4.29-1.447a7.363,7.363,0,0,0,2.9-1.642,7.5,7.5,0,0,0,1.9-3.63c.538-2.319.2-4.68.291-7.021a23.556,23.556,0,0,1,1.021-5.919c.694-2.3,1.531-4.567,2.085-6.893a12.707,12.707,0,0,0,.034-3.606c-.06-1.045-.245-2.085-.4-3.124-.216-1.45-.462-2.9-.679-4.345-.072-.484-.106-.973-.139-1.461-.054-.781-.088-1.563-.141-2.345-.134-2.009-.186-4.026-.435-6.023-.257-2.059-.72-4.1-1.07-6.146-.207-1.21-.336-2.431-.562-3.637a17.464,17.464,0,0,0-1.281-4.809,5.777,5.777,0,0,0-4.078-3.03c-2.017-.47-4.058-.852-6.089-1.273-1.424-.295-2.843-.61-4.273-.874a15.375,15.375,0,0,0-2.219-.253c-2.868-.105-5.738-.247-8.606-.238-2.118.007-4.235.227-6.352.357-.485.03-.968.1-1.454.12-1.491.053-2.983.084-4.475.131-1.1.035-2.2.106-3.308.121-4.032.053-8.064.1-12.1.122-1.491.007-2.983-.076-4.475-.118-1.469-.042-2.937-.089-4.406-.125-1.949-.047-3.9-.083-5.848-.128-1.606-.038-3.212-.085-4.818-.125-1.743-.044-3.487-.082-5.23-.127-1.515-.039-3.029-.075-4.544-.128-2.16-.076-4.319-.168-6.478-.25-1.194-.045-2.388-.1-3.582-.123-2.842-.052-5.684-.128-8.526-.117-2.487.01-4.973.127-7.46.183-.038,0-.14-.187-.113-.252C36.766,54.514,1.1,89.225.9,90.169a33.805,33.805,0,0,0-.744,4.189C0,96.289-.015,98.233.008,100.17c.024,2.005.141,4.011.269,6.014.089,1.4.206,2.805.415,4.195a26.7,26.7,0,0,0,2.513,8.375,13.972,13.972,0,0,1,1.327,4.8,18.629,18.629,0,0,0,.416,2.239c.186.732,1.608,1.215,2.631,1.119A26.131,26.131,0,0,1,10.9,126.9c.537.018,1.066.193,1.6.234,1.379.105,2.765.144,4.142.268,1.439.13,2.887.253,4.3.518,1.336.25,2.127,1.288,3.008,2.136.843.811,1.605,1.694,2.388,2.556,1.076,1.186,2.131,2.387,3.209,3.571.616.676,1.25,1.338,1.893,1.992.979,1,1.976,1.981,2.959,2.976a1.722,1.722,0,0,0,2.887-.392c.2-.333.4-.668.6-1,.345.251.7.493,1.033.754a1.535,1.535,0,0,0,2.549-.744,25.494,25.494,0,0,0,.522-7.613,7.836,7.836,0,0,0-1.233-3.752c-.061-.1.254-.551.466-.606a13.117,13.117,0,0,1,2.226-.391c1.075-.09,2.158-.093,3.238-.139,1.931-.082,3.861-.161,5.791-.254,1.519-.073,3.037-.171,4.556-.249,1.77-.09,3.541-.163,5.31-.256,1.382-.073,2.762-.169,4.144-.249q2.243-.131,4.487-.252c1.7-.089,3.4-.17,5.1-.253q2.587-.127,5.173-.252c1.839-.087,3.678-.174,5.517-.251,1.239-.052,2.479-.1,3.72-.124,3.3-.053,6.6-.076,9.9-.134,2.424-.043,4.847-.122,7.3-.217m-44.186-.915q-1.73.126-3.459.253-.762.057-1.522.126c-1.824.167-3.646.355-5.472.5-1.053.082-2.113.086-3.169.135-.691.032-1.382.07-2.071.127q-2.977.243-5.952.5c-.878.076-1.761.133-2.631.26a2.143,2.143,0,0,0-1.757,1.534,4.074,4.074,0,0,1-.453.71,7.016,7.016,0,0,0-1.017,1.627c-.335,1.148-.487,2.341-.722,3.515a2.185,2.185,0,0,1-.154.382,1.729,1.729,0,0,1-.336-.226c-.4-.434-.746-.91-1.175-1.314q-2.053-1.933-4.157-3.821a2.653,2.653,0,0,0-2.051-.793,1.558,1.558,0,0,1-.839-.246,8.05,8.05,0,0,0-4.805-1.383,2.876,2.876,0,0,1-1.007-.047,29.949,29.949,0,0,0-6.422-.818,16.259,16.259,0,0,0-2.949.005,3.211,3.211,0,0,1-3.721-2.129,39.446,39.446,0,0,1-1.726-3.563,58.613,58.613,0,0,1-1.4-6.218c-.315-1.708-.527-3.435-.685-5.162-.1-1.093-.008-2.2-.021-3.3-.04-3.494-.133-6.987-.12-10.481.008-2.236.173-4.471.255-6.707.018-.489.386-.554.763-.548,1.607.025,3.217.159,4.818.095,1.988-.08,3.965-.389,5.953-.463a8.1,8.1,0,0,0,5.276-2.022,29.5,29.5,0,0,0,5.861-6.918c1.513-2.529,3.085-5.045,4.335-7.685,1.179-2.491,1.978-5.134,2.933-7.713.471-1.272.909-2.555,1.384-3.826a3.288,3.288,0,0,1,.411-.622,3.511,3.511,0,0,1,.537.447c.393.486,1.131.647,1.391.193.34-.595.836-.526,1.359-.508.371.013.739.091,1.111.118,1.751.131,3.5.28,5.253.374,2.111.112,4.226.168,6.339.261,1.679.074,3.357.168,5.036.25,1.793.087,3.586.166,5.379.254,1.633.08,3.266.16,4.9.253q3.142.179,6.283.378c1.2.075,2.4.171,3.594.25,1.957.129,3.914.251,5.871.38,1.2.079,2.4.167,3.594.252,1.774.126,3.548.245,5.322.38,1.523.116,3.044.258,4.567.374,1.773.135,3.547.267,5.322.377q2.481.153,4.967.253c2.3.1,4.592.184,6.889.251,2.063.06,4.127.085,6.191.131,3.738.082,7.477.154,11.214.26,1.2.034,2.4.145,3.594.248,1.779.154,3.555.345,5.334.5,1.494.127,2.055.533,2.528,1.669a31.608,31.608,0,0,1,1.623,7.452c.221,1.408.309,2.836.422,4.257.156,1.944.28,3.89.416,5.835.093,1.332.188,2.663.274,4,.1,1.5.251,3,.26,4.5.014,2.274-.037,4.55-.135,6.822-.066,1.527-.265,3.049-.4,4.574-.142,1.629-.292,3.258-.408,4.889-.113,1.583-.121,3.174-.3,4.75a50.044,50.044,0,0,1-.841,5.232,3.368,3.368,0,0,1-1.106,1.938,9.851,9.851,0,0,1-3.011,1.345,35.508,35.508,0,0,1-6.574,1.417c-2.036.183-4.064.547-6.1.6-5.887.152-11.781-.141-17.669.257-2.443.165-4.9.127-7.356.141-3.624.021-7.247.005-10.871.005-1.51,0-3.021-.013-4.531,0-3.116.033-6.233.062-9.349.132-1.428.032-2.854.154-4.28.245-1.176.075-2.349.181-3.525.247-1.723.1-3.448.172-5.31.256m61.73-66.046c.818.063,1.638.117,2.455.192s1.627.119,2.422.265c1.387.254,2.76.568,4.136.87,2.268.5,4.551.952,6.789,1.548a5.336,5.336,0,0,1,1.643,1.182c.064.05.014.224.016.34-.1-.035-.2-.067-.291-.105a5.49,5.49,0,0,0-1.107-.431c-1.524-.242-3.053-.467-4.588-.635s-3.087-.286-4.634-.381c-1.791-.111-3.584-.217-5.378-.25-3.848-.071-7.7-.087-11.544-.139-.9-.012-1.792-.087-2.689-.12q-3.547-.132-7.094-.253c-1.285-.045-2.571-.078-3.856-.129-.645-.026-1.29-.071-1.934-.125-1.915-.163-3.828-.358-5.746-.494-1.221-.087-2.45-.068-3.672-.14-1.73-.1-3.457-.243-5.184-.379a1.322,1.322,0,0,1-.394-.174c.124-.066.251-.192.373-.189.943.025,1.885.072,2.827.117,1.678.082,3.356.234,5.035.237,3.276.006,6.552-.064,9.828-.114,2.018-.031,4.036-.062,6.052-.131,1.474-.05,2.945-.163,4.417-.245,2.254-.127,4.507-.29,6.763-.367,1.76-.06,3.523-.012,5.354.051M19.7,82.73c-.657.421-1.283.892-1.978,1.25a9.23,9.23,0,0,1-3.758.64c-.872.054-1.747.076-2.619.131-1.888.119-3.775.257-5.664.366a1.915,1.915,0,0,1-.6-.176,2.192,2.192,0,0,1,.605-.307c.5-.08,1.027-.041,1.517-.148a34.386,34.386,0,0,0,7.425-2.551,27.292,27.292,0,0,0,6.69-4.49c.874-.8,5.1-3.4,3.933-1.523A33.1,33.1,0,0,1,19.7,82.73m20.256,50.906c-.046,1.347-.08,2.694-.148,4.04a2.526,2.526,0,0,1-.249.691c-.151-.155-.3-.312-.453-.464-.093-.092-.231-.163-.283-.271-.144-.3-.407-.641-.353-.922.315-1.632.7-3.252,1.08-4.874.023-.1.141-.179.214-.268.064.1.179.2.183.305.018.545.009,1.091.009,1.763m-10.3-2.145c-.227-.25-.466-.492-.672-.756-.065-.084-.038-.228-.054-.344.113.038.26.047.335.119.64.614,1.279,1.23,1.9,1.863,1.029,1.055,2.071,2.1,3.048,3.2.469.526,1.105,1.028.938,1.845a3.188,3.188,0,0,1-.1.322,1.362,1.362,0,0,1-.306-.208c-1.126-1.357-2.239-2.723-3.368-4.078-.535-.642-1.1-1.265-1.717-1.96M147.211,94.273a6.773,6.773,0,0,1,.012-.815c.011-.093.156-.172.24-.257.053.047.153.094.153.141.009,1.012.011,2.023,0,3.035,0,.077-.131.152-.2.227-.067-.1-.19-.2-.193-.3C147.2,95.669,147.211,95.034,147.211,94.273Z" transform="translate(0.334 -54.272)"></path><path class="b" d="M1004.576,2509.626s-31.173-2.55-32.918,0,0,40.818,0,40.818l32.918-39.663Z" transform="translate(-970.883 -2508.493)"></path></g><text class="c" transform="translate(993 308)"><tspan x="0" y="0">Your food is ready. You can expect </tspan><tspan x="0" y="10">the order delivery in next 15 mins.</tspan></text><text class="d" transform="translate(993 294)"><tspan x="0" y="0">Hi Alicia,</tspan></text><text class="c" transform="translate(993 332)"><tspan x="0" y="0">Bon Appetit!</tspan></text><g transform="translate(17543.26 -5990.71)"><ellipse class="b" cx="17.657" cy="18.62" rx="17.657" ry="18.62" transform="matrix(0.809, 0.588, -0.588, 0.809, -16401.219, 6207.502)"></ellipse><g transform="translate(-16425.289 6209.556)"><path d="M183.376,58.934c.078.374.148.736.209,1.1.049.293.1.587.128.882a12.517,12.517,0,0,1,.089,1.271c0,.486-.053.972-.088,1.458-.026.362-.066.722-.092,1.084-.05.69-.067,1.383-.147,2.069a18.375,18.375,0,0,1-.98,4.223,14.634,14.634,0,0,1-1.257,2.707c-.457.737-.884,1.495-1.367,2.215a17.377,17.377,0,0,1-1.2,1.56,16.844,16.844,0,0,1-1.324,1.414,18.1,18.1,0,0,1-1.467,1.2c-.667.5-1.351.987-2.033,1.471a1.415,1.415,0,0,1-.322.123,2.87,2.87,0,0,0-.362.142,15.608,15.608,0,0,1-3.277,1.4c-.841.233-1.687.455-2.538.645a13.98,13.98,0,0,1-1.586.236,11.246,11.246,0,0,1-1.551.089c-.724-.025-1.447-.1-2.167-.182-.657-.074-1.313-.166-1.965-.281-.678-.12-1.347-.291-2.025-.413a20.6,20.6,0,0,1-3.157-.851c-.6-.21-1.181-.462-1.762-.713-.556-.24-1.1-.5-1.65-.759-.329-.156-.573.041-.829.182-.521.287-1.027.6-1.557.871a18.743,18.743,0,0,0-3.036,1.88,9.329,9.329,0,0,1-1.333.785.6.6,0,0,1-.643-.033.546.546,0,0,1-.172-.677c.253-.52.517-1.039.82-1.531.74-1.2,1.49-2.4,2.268-3.573a4.4,4.4,0,0,0,.555-1.62,5.4,5.4,0,0,0,.169-.814,1.3,1.3,0,0,0-.163-.554c-.21-.459-.445-.907-.655-1.366-.171-.373-.307-.762-.486-1.131a9.041,9.041,0,0,0-.51-.888,10.235,10.235,0,0,1-1.2-2.659c-.26-.9-.479-1.814-.705-2.725-.15-.6-.286-1.208-.421-1.813a6.109,6.109,0,0,1-.138-.76,11.343,11.343,0,0,1-.088-1.457c.024-.662.1-1.322.181-1.98.077-.641.159-1.284.283-1.918a23.837,23.837,0,0,1,.577-2.5,13.691,13.691,0,0,1,.928-2.278,26.283,26.283,0,0,1,1.443-2.3c.352-.53.734-1.042,1.124-1.546.314-.406.653-.794.991-1.18.233-.267.473-.528.728-.774a17.346,17.346,0,0,1,2.782-2.261,19.5,19.5,0,0,1,3.082-1.59c1.062-.429,2.123-.867,3.207-1.231a24.874,24.874,0,0,1,2.514-.648,9.721,9.721,0,0,1,1.418-.189A12.1,12.1,0,0,1,164.3,42.7a8.264,8.264,0,0,1,2.645.606c1.1.463,2.2.939,3.278,1.457,1.061.51,2.1,1.064,3.137,1.629.62.339,1.221.717,1.806,1.115a16.606,16.606,0,0,1,1.435,1.107,19.045,19.045,0,0,1,1.415,1.323,16.522,16.522,0,0,1,1.821,2.235c.329.494.719.947,1.059,1.434a14.643,14.643,0,0,1,1.5,2.674c.343.816.631,1.656.941,2.487.018.048.017.1.036.168M147.462,80.043c-.127.189-.255.378-.381.568q-.819,1.239-1.635,2.48a.429.429,0,0,0-.033.142.422.422,0,0,0,.158-.041c.2-.16.383-.347.594-.49.485-.328.97-.658,1.478-.947.786-.447,1.609-.832,2.383-1.3a1.941,1.941,0,0,1,1.988-.252c.486.238.97.48,1.464.7a23.016,23.016,0,0,0,2.89,1.043c1.188.348,2.4.592,3.608.826.713.137,1.434.244,2.156.327.766.088,1.537.141,2.307.187a6.264,6.264,0,0,0,.916-.043,11.255,11.255,0,0,0,1.3-.146c.691-.143,1.373-.332,2.057-.508a15.328,15.328,0,0,0,3.524-1.315,11.082,11.082,0,0,0,2.537-1.887c.543-.54,1.066-1.1,1.553-1.7.573-.695,1.13-1.407,1.637-2.151a30.457,30.457,0,0,0,2.782-4.6c.274-.611.538-1.228.774-1.854a18.159,18.159,0,0,0,.577-1.748,8.4,8.4,0,0,0,.5-3.17c-.069-.586-.081-1.179-.149-1.765-.074-.642-.156-1.285-.283-1.918-.179-.895-.354-1.8-.618-2.667a13.936,13.936,0,0,0-1.428-3.337,16.1,16.1,0,0,0-1.954-2.578,19.073,19.073,0,0,0-2.607-2.337,20.4,20.4,0,0,0-2.445-1.552,24.884,24.884,0,0,0-3.056-1.373c-.939-.349-1.868-.725-2.816-1.047a20.935,20.935,0,0,0-2.177-.613,10.617,10.617,0,0,0-1.9-.268,10.14,10.14,0,0,0-1.834.134,14.7,14.7,0,0,0-1.847.393,15.755,15.755,0,0,0-3.9,1.756,26.571,26.571,0,0,0-3.612,2.626,22.176,22.176,0,0,0-1.681,1.633c-.7.751-1.386,1.518-2.032,2.315-.6.743-1.152,1.528-1.708,2.307a12.072,12.072,0,0,0-1.565,3.209,8.44,8.44,0,0,0-.37,1.5,14.556,14.556,0,0,0-.1,1.737c-.009.461.026.922.042,1.384,0,.016,0,.031,0,.047.062.637.115,1.275.191,1.91a6.833,6.833,0,0,0,.189,1.044c.192.682.4,1.361.633,2.029q.5,1.427,1.059,2.835a9.556,9.556,0,0,0,.651,1.389,13.765,13.765,0,0,0,.968,1.353,7.518,7.518,0,0,0,.743.832c.141.135.284.237.232.455a.422.422,0,0,1-.459.333c-.144,0-.136.064-.139.163-.011.337-.01.675-.051,1.009-.033.266-.144.523-.176.789a5.436,5.436,0,0,1-.94,2.138m.374-27.459c.033-.033.068-.064.1-.1.529-.607,1.031-1.24,1.594-1.814.684-.7,1.407-1.355,2.138-2a16.048,16.048,0,0,1,1.534-1.205c.753-.517,1.533-.994,2.311-1.474.251-.155.53-.263.791-.4.059-.031.094-.106.14-.16a.613.613,0,0,0-.18.026c-.482.23-.965.457-1.439.7-.528.271-1.056.543-1.567.843a13.841,13.841,0,0,0-2.41,1.794,15.287,15.287,0,0,0-1.96,2.129c-.635.864-1.3,1.706-1.943,2.564a1.2,1.2,0,0,0-.119.333l.229-.215a.141.141,0,0,0,.016-.017c.248-.326.5-.652.767-1M162.852,43.6a.575.575,0,0,1-.084.023c-.4.048-.8.093-1.2.143-.04.005-.075.042-.113.064a.542.542,0,0,0,.126.071.4.4,0,0,0,.136-.006c.418-.044.835-.115,1.254-.123a9.466,9.466,0,0,1,1.152.087,7.124,7.124,0,0,1,1.084.146c.747.2,1.485.433,2.223.665.308.1.605.229.909.341a.341.341,0,0,0,.126-.005.408.408,0,0,0-.062-.111.351.351,0,0,0-.116-.056c-.652-.25-1.293-.532-1.958-.739a14.069,14.069,0,0,0-1.954-.465A8.855,8.855,0,0,0,162.852,43.6Z" transform="translate(-136.646 -40.689)"></path><path d="M3.705,20.947c0,.476-.022.929,0,1.38.044.731.117,1.461.183,2.191A15.238,15.238,0,0,0,4.415,27.3c.178.63.412,1.247.65,1.858.49,1.255,1.01,2.5,1.5,3.754a7.914,7.914,0,0,1,.365,1.274,2.23,2.23,0,0,1-.3,1.253.367.367,0,0,0,.113.5.715.715,0,0,1,.169.9c-.292.814-.605,1.62-.922,2.424q-.452,1.146-.93,2.281c-.248.591-.516,1.174-.771,1.762s-.523,1.2-.769,1.81c-.554,1.369-1.1,2.741-1.646,4.113a1.012,1.012,0,0,0-.048.672c.054.2-.117.329-.262.413A.489.489,0,0,1,.993,50.1a1.1,1.1,0,0,1,0-.928c.011-.034.037-.064.045-.1.016-.077.025-.155.037-.233a1.032,1.032,0,0,0-.178.11.645.645,0,0,1-.6.137.705.705,0,0,1-.283-.655,27.511,27.511,0,0,1,1.181-3.7c.3-.78.67-1.531,1.019-2.291.337-.734.674-1.468,1.032-2.192.19-.383.443-.735.633-1.119a18.411,18.411,0,0,0,1.477-3.038,12.679,12.679,0,0,1,.582-1.488.883.883,0,0,0-.039-.633,25.314,25.314,0,0,0-1.112-3.047c-.408-.937-.787-1.89-1.121-2.856A13.223,13.223,0,0,1,3.2,26.181c-.126-.672-.2-1.355-.285-2.034-.046-.375-.072-.753-.094-1.13-.024-.414-.047-.829-.045-1.243,0-.609.015-1.22.047-1.828.03-.574.068-1.149.141-1.719A25.844,25.844,0,0,1,3.62,14.5c.169-.6.423-1.18.648-1.765a9.384,9.384,0,0,1,1.171-2.11,13.64,13.64,0,0,1,.851-1.073A19.675,19.675,0,0,1,7.666,8.089C8.345,7.465,9.049,6.865,9.779,6.3q1.292-.995,2.65-1.9c.627-.418,1.3-.775,1.962-1.133.827-.445,1.659-.885,2.508-1.284a14.477,14.477,0,0,1,3.386-1.2c.661-.128,1.327-.23,1.992-.329Q23.317.306,24.36.18c.383-.046.769-.079,1.154-.094,1-.039,2-.106,3-.082a12.307,12.307,0,0,1,1.966.269c.775.146,1.547.322,2.311.517.645.165,1.285.355,1.914.573,1.39.482,2.777.974,4.154,1.491.552.207,1.075.49,1.612.738a19.076,19.076,0,0,1,2.849,1.591,4.614,4.614,0,0,1,.64.48.921.921,0,0,0,.981.226,3.032,3.032,0,0,1,1.81.121,3.387,3.387,0,0,1,1.457,1,3.1,3.1,0,0,1-.25,4.328c-.209.236-.385.5-.6.732a2.265,2.265,0,0,1-1.393.7,2.469,2.469,0,0,1-2.384-.986,3.58,3.58,0,0,1-.722-1.292,3.954,3.954,0,0,1-.1-1.747c.069-.425.1-.858.2-1.277a3.069,3.069,0,0,1,.342-.861c.091-.154.039-.232-.048-.3a16.611,16.611,0,0,0-3.177-1.87c-1.063-.462-2.141-.893-3.222-1.31-.814-.314-1.636-.612-2.47-.868q-1.684-.517-3.394-.952c-.572-.145-1.169-.189-1.752-.291A14.7,14.7,0,0,0,26.378.939c-.7.014-1.4.145-2.1.221-.456.049-.914.081-1.368.144-.564.079-1.121.2-1.686.273a10.688,10.688,0,0,0-2.319.616c-.621.23-1.239.473-1.84.75-.675.311-1.348.636-1.99,1.01-1.065.62-2.124,1.254-3.149,1.937a25.247,25.247,0,0,0-2.3,1.736C8.853,8.283,8.112,8.983,7.4,9.709a11.651,11.651,0,0,0-3.038,5.777c-.136.635-.234,1.279-.329,1.922-.079.541-.139,1.085-.188,1.63-.046.508-.064,1.019-.1,1.528-.008.12-.03.239-.046.382M43.981,10.82c.126.172.25.346.379.516.011.015.051.008.077.011a.291.291,0,0,0-.026-.049,4.078,4.078,0,0,0-.43-.477M47.63,8.387l.11.117c0-.051.013-.114-.01-.152a2.487,2.487,0,0,0-.193-.246,1.964,1.964,0,0,0,.093.281m-1.59.936.173.107.056-.111A.766.766,0,0,0,46.039,9.323Z" transform="translate(0 0)"></path><path d="M306.938,271.784a4.889,4.889,0,0,1,1.854-1.794,4.782,4.782,0,0,1,1.821-.62,5.419,5.419,0,0,1,1.144,0,.74.74,0,0,1,.565.5c.391,1.008.745,2.03,1.133,3.039.295.766.619,1.521.933,2.279.1.253.231.5.324.754a1.084,1.084,0,0,1-.462,1.229c-.351.287-.7.577-1.037.879a.306.306,0,0,0-.082.262,16.961,16.961,0,0,0,.708,1.9,5.018,5.018,0,0,0,1.343,1.666,15.255,15.255,0,0,0,3.087,1.984,9.637,9.637,0,0,0,1.913.679,1.661,1.661,0,0,0,1.475-.36c.479-.4.926-.844,1.4-1.25s.952-.806,1.457-1.171a1.6,1.6,0,0,1,1.545-.1,9.051,9.051,0,0,1,2.008,1.023c.77.513,1.54,1.026,2.306,1.545a5.336,5.336,0,0,1,1.294,1.11,1.526,1.526,0,0,1,.245,1.271c-.149.776-.39,1.534-.593,2.3-.078.3-.178.586-.228.886a1.44,1.44,0,0,1-.536.877,6.665,6.665,0,0,1-1.539,1.026,5.437,5.437,0,0,1-1.336.392,22.968,22.968,0,0,1-3.918.124,16.749,16.749,0,0,1-1.7-.176,10.887,10.887,0,0,1-2.771-.708c-.915-.348-1.817-.733-2.721-1.11a15.793,15.793,0,0,1-3.31-2.054c-.573-.428-1.12-.894-1.653-1.371-.6-.539-1.211-1.08-1.759-1.673a13.067,13.067,0,0,1-1.822-2.492c-.381-.682-.779-1.359-1.1-2.069a10.342,10.342,0,0,1-.955-2.831c-.056-.393-.115-.786-.136-1.181a8.61,8.61,0,0,1,0-1.317,7.3,7.3,0,0,1,.6-2.484c.157-.325.326-.644.5-.977m4.993-.316c-.126-.329-.241-.664-.388-.984a.367.367,0,0,0-.264-.176,2.925,2.925,0,0,0-.681.041,4.173,4.173,0,0,0-2.157,1.057,4.7,4.7,0,0,0-1.065,1.546,7.8,7.8,0,0,0-.65,2.884,8.668,8.668,0,0,0,.132,1.485,10.75,10.75,0,0,0,1.036,3.1c.323.688.727,1.339,1.116,1.994a12,12,0,0,0,1.744,2.314c.627.637,1.306,1.225,1.986,1.805.539.46,1.1.892,1.679,1.308a13.21,13.21,0,0,0,2.617,1.583q1.487.617,3,1.169a12.018,12.018,0,0,0,3.048.656c.624.056,1.252.091,1.879.091s1.255-.035,1.878-.094a10.77,10.77,0,0,0,1.283-.23,4.254,4.254,0,0,0,1.685-.952.948.948,0,0,0,.331-.42c.26-.877.475-1.767.742-2.642.075-.247.026-.323-.185-.431a3.563,3.563,0,0,1-.545-.437c-.467-.376-.933-.755-1.406-1.124q-.838-.652-1.689-1.287a7.418,7.418,0,0,0-1.884-.926.424.424,0,0,0-.558.12c-.243.352-.5.695-.732,1.054-.537.836-1.059,1.682-1.594,2.52a1.524,1.524,0,0,1-1.112.781,4,4,0,0,1-2.091-.423,23.469,23.469,0,0,1-2.148-1.079,12.037,12.037,0,0,1-1.574-1.108,8.412,8.412,0,0,1-1.121-1.12,9.535,9.535,0,0,1-.927-1.321,14.349,14.349,0,0,1-1.227-3.07c-.126-.414-.494-.754-.245-1.269.123-.255.257-.468.552-.48a.546.546,0,0,0,.313-.083c.334-.28.658-.572.969-.877a.345.345,0,0,0,.07-.294c-.078-.238-.2-.462-.3-.7-.325-.8-.656-1.6-.965-2.407-.2-.512-.356-1.038-.556-1.58m7.2,14.408c.476.149.951.3,1.428.445a.887.887,0,0,0,.837-.187q.28-.408.543-.827c.026-.042.006-.113.007-.171a.615.615,0,0,0-.14.04,1.731,1.731,0,0,1-.3.181,3.357,3.357,0,0,1-1.973.028,12.789,12.789,0,0,1-3.462-1.682c-.265-.177-.509-.387-.77-.572-.045-.032-.126-.015-.19-.021a.508.508,0,0,0,.075.131c.321.295.626.611.972.872A14.073,14.073,0,0,0,319.135,285.876Z" transform="translate(-291.503 -256.743)"></path></g><g transform="translate(-16425.289 6209.556)"><path d="M183.376,58.934c.078.374.148.736.209,1.1.049.293.1.587.128.882a12.517,12.517,0,0,1,.089,1.271c0,.486-.053.972-.088,1.458-.026.362-.066.722-.092,1.084-.05.69-.067,1.383-.147,2.069a18.375,18.375,0,0,1-.98,4.223,14.634,14.634,0,0,1-1.257,2.707c-.457.737-.884,1.495-1.367,2.215a17.377,17.377,0,0,1-1.2,1.56,16.844,16.844,0,0,1-1.324,1.414,18.1,18.1,0,0,1-1.467,1.2c-.667.5-1.351.987-2.033,1.471a1.415,1.415,0,0,1-.322.123,2.87,2.87,0,0,0-.362.142,15.608,15.608,0,0,1-3.277,1.4c-.841.233-1.687.455-2.538.645a13.98,13.98,0,0,1-1.586.236,11.246,11.246,0,0,1-1.551.089c-.724-.025-1.447-.1-2.167-.182-.657-.074-1.313-.166-1.965-.281-.678-.12-1.347-.291-2.025-.413a20.6,20.6,0,0,1-3.157-.851c-.6-.21-1.181-.462-1.762-.713-.556-.24-1.1-.5-1.65-.759-.329-.156-.573.041-.829.182-.521.287-1.027.6-1.557.871a18.743,18.743,0,0,0-3.036,1.88,9.329,9.329,0,0,1-1.333.785.6.6,0,0,1-.643-.033.546.546,0,0,1-.172-.677c.253-.52.517-1.039.82-1.531.74-1.2,1.49-2.4,2.268-3.573a4.4,4.4,0,0,0,.555-1.62,5.4,5.4,0,0,0,.169-.814,1.3,1.3,0,0,0-.163-.554c-.21-.459-.445-.907-.655-1.366-.171-.373-.307-.762-.486-1.131a9.041,9.041,0,0,0-.51-.888,10.235,10.235,0,0,1-1.2-2.659c-.26-.9-.479-1.814-.705-2.725-.15-.6-.286-1.208-.421-1.813a6.109,6.109,0,0,1-.138-.76,11.343,11.343,0,0,1-.088-1.457c.024-.662.1-1.322.181-1.98.077-.641.159-1.284.283-1.918a23.837,23.837,0,0,1,.577-2.5,13.691,13.691,0,0,1,.928-2.278,26.283,26.283,0,0,1,1.443-2.3c.352-.53.734-1.042,1.124-1.546.314-.406.653-.794.991-1.18.233-.267.473-.528.728-.774a17.346,17.346,0,0,1,2.782-2.261,19.5,19.5,0,0,1,3.082-1.59c1.062-.429,2.123-.867,3.207-1.231a24.874,24.874,0,0,1,2.514-.648,9.721,9.721,0,0,1,1.418-.189A12.1,12.1,0,0,1,164.3,42.7a8.264,8.264,0,0,1,2.645.606c1.1.463,2.2.939,3.278,1.457,1.061.51,2.1,1.064,3.137,1.629.62.339,1.221.717,1.806,1.115a16.606,16.606,0,0,1,1.435,1.107,19.045,19.045,0,0,1,1.415,1.323,16.522,16.522,0,0,1,1.821,2.235c.329.494.719.947,1.059,1.434a14.643,14.643,0,0,1,1.5,2.674c.343.816.631,1.656.941,2.487.018.048.017.1.036.168M147.462,80.043c-.127.189-.255.378-.381.568q-.819,1.239-1.635,2.48a.429.429,0,0,0-.033.142.422.422,0,0,0,.158-.041c.2-.16.383-.347.594-.49.485-.328.97-.658,1.478-.947.786-.447,1.609-.832,2.383-1.3a1.941,1.941,0,0,1,1.988-.252c.486.238.97.48,1.464.7a23.016,23.016,0,0,0,2.89,1.043c1.188.348,2.4.592,3.608.826.713.137,1.434.244,2.156.327.766.088,1.537.141,2.307.187a6.264,6.264,0,0,0,.916-.043,11.255,11.255,0,0,0,1.3-.146c.691-.143,1.373-.332,2.057-.508a15.328,15.328,0,0,0,3.524-1.315,11.082,11.082,0,0,0,2.537-1.887c.543-.54,1.066-1.1,1.553-1.7.573-.695,1.13-1.407,1.637-2.151a30.457,30.457,0,0,0,2.782-4.6c.274-.611.538-1.228.774-1.854a18.159,18.159,0,0,0,.577-1.748,8.4,8.4,0,0,0,.5-3.17c-.069-.586-.081-1.179-.149-1.765-.074-.642-.156-1.285-.283-1.918-.179-.895-.354-1.8-.618-2.667a13.936,13.936,0,0,0-1.428-3.337,16.1,16.1,0,0,0-1.954-2.578,19.073,19.073,0,0,0-2.607-2.337,20.4,20.4,0,0,0-2.445-1.552,24.884,24.884,0,0,0-3.056-1.373c-.939-.349-1.868-.725-2.816-1.047a20.935,20.935,0,0,0-2.177-.613,10.617,10.617,0,0,0-1.9-.268,10.14,10.14,0,0,0-1.834.134,14.7,14.7,0,0,0-1.847.393,15.755,15.755,0,0,0-3.9,1.756,26.571,26.571,0,0,0-3.612,2.626,22.176,22.176,0,0,0-1.681,1.633c-.7.751-1.386,1.518-2.032,2.315-.6.743-1.152,1.528-1.708,2.307a12.072,12.072,0,0,0-1.565,3.209,8.44,8.44,0,0,0-.37,1.5,14.556,14.556,0,0,0-.1,1.737c-.009.461.026.922.042,1.384,0,.016,0,.031,0,.047.062.637.115,1.275.191,1.91a6.833,6.833,0,0,0,.189,1.044c.192.682.4,1.361.633,2.029q.5,1.427,1.059,2.835a9.556,9.556,0,0,0,.651,1.389,13.765,13.765,0,0,0,.968,1.353,7.518,7.518,0,0,0,.743.832c.141.135.284.237.232.455a.422.422,0,0,1-.459.333c-.144,0-.136.064-.139.163-.011.337-.01.675-.051,1.009-.033.266-.144.523-.176.789a5.436,5.436,0,0,1-.94,2.138m.374-27.459c.033-.033.068-.064.1-.1.529-.607,1.031-1.24,1.594-1.814.684-.7,1.407-1.355,2.138-2a16.048,16.048,0,0,1,1.534-1.205c.753-.517,1.533-.994,2.311-1.474.251-.155.53-.263.791-.4.059-.031.094-.106.14-.16a.613.613,0,0,0-.18.026c-.482.23-.965.457-1.439.7-.528.271-1.056.543-1.567.843a13.841,13.841,0,0,0-2.41,1.794,15.287,15.287,0,0,0-1.96,2.129c-.635.864-1.3,1.706-1.943,2.564a1.2,1.2,0,0,0-.119.333l.229-.215a.141.141,0,0,0,.016-.017c.248-.326.5-.652.767-1M162.852,43.6a.575.575,0,0,1-.084.023c-.4.048-.8.093-1.2.143-.04.005-.075.042-.113.064a.542.542,0,0,0,.126.071.4.4,0,0,0,.136-.006c.418-.044.835-.115,1.254-.123a9.466,9.466,0,0,1,1.152.087,7.124,7.124,0,0,1,1.084.146c.747.2,1.485.433,2.223.665.308.1.605.229.909.341a.341.341,0,0,0,.126-.005.408.408,0,0,0-.062-.111.351.351,0,0,0-.116-.056c-.652-.25-1.293-.532-1.958-.739a14.069,14.069,0,0,0-1.954-.465A8.855,8.855,0,0,0,162.852,43.6Z" transform="translate(-136.646 -40.689)"></path><path d="M3.705,20.947c0,.476-.022.929,0,1.38.044.731.117,1.461.183,2.191A15.238,15.238,0,0,0,4.415,27.3c.178.63.412,1.247.65,1.858.49,1.255,1.01,2.5,1.5,3.754a7.914,7.914,0,0,1,.365,1.274,2.23,2.23,0,0,1-.3,1.253.367.367,0,0,0,.113.5.715.715,0,0,1,.169.9c-.292.814-.605,1.62-.922,2.424q-.452,1.146-.93,2.281c-.248.591-.516,1.174-.771,1.762s-.523,1.2-.769,1.81c-.554,1.369-1.1,2.741-1.646,4.113a1.012,1.012,0,0,0-.048.672c.054.2-.117.329-.262.413A.489.489,0,0,1,.993,50.1a1.1,1.1,0,0,1,0-.928c.011-.034.037-.064.045-.1.016-.077.025-.155.037-.233a1.032,1.032,0,0,0-.178.11.645.645,0,0,1-.6.137.705.705,0,0,1-.283-.655,27.511,27.511,0,0,1,1.181-3.7c.3-.78.67-1.531,1.019-2.291.337-.734.674-1.468,1.032-2.192.19-.383.443-.735.633-1.119a18.411,18.411,0,0,0,1.477-3.038,12.679,12.679,0,0,1,.582-1.488.883.883,0,0,0-.039-.633,25.314,25.314,0,0,0-1.112-3.047c-.408-.937-.787-1.89-1.121-2.856A13.223,13.223,0,0,1,3.2,26.181c-.126-.672-.2-1.355-.285-2.034-.046-.375-.072-.753-.094-1.13-.024-.414-.047-.829-.045-1.243,0-.609.015-1.22.047-1.828.03-.574.068-1.149.141-1.719A25.844,25.844,0,0,1,3.62,14.5c.169-.6.423-1.18.648-1.765a9.384,9.384,0,0,1,1.171-2.11,13.64,13.64,0,0,1,.851-1.073A19.675,19.675,0,0,1,7.666,8.089C8.345,7.465,9.049,6.865,9.779,6.3q1.292-.995,2.65-1.9c.627-.418,1.3-.775,1.962-1.133.827-.445,1.659-.885,2.508-1.284a14.477,14.477,0,0,1,3.386-1.2c.661-.128,1.327-.23,1.992-.329Q23.317.306,24.36.18c.383-.046.769-.079,1.154-.094,1-.039,2-.106,3-.082a12.307,12.307,0,0,1,1.966.269c.775.146,1.547.322,2.311.517.645.165,1.285.355,1.914.573,1.39.482,2.777.974,4.154,1.491.552.207,1.075.49,1.612.738a19.076,19.076,0,0,1,2.849,1.591,4.614,4.614,0,0,1,.64.48.921.921,0,0,0,.981.226,3.032,3.032,0,0,1,1.81.121,3.387,3.387,0,0,1,1.457,1,3.1,3.1,0,0,1-.25,4.328c-.209.236-.385.5-.6.732a2.265,2.265,0,0,1-1.393.7,2.469,2.469,0,0,1-2.384-.986,3.58,3.58,0,0,1-.722-1.292,3.954,3.954,0,0,1-.1-1.747c.069-.425.1-.858.2-1.277a3.069,3.069,0,0,1,.342-.861c.091-.154.039-.232-.048-.3a16.611,16.611,0,0,0-3.177-1.87c-1.063-.462-2.141-.893-3.222-1.31-.814-.314-1.636-.612-2.47-.868q-1.684-.517-3.394-.952c-.572-.145-1.169-.189-1.752-.291A14.7,14.7,0,0,0,26.378.939c-.7.014-1.4.145-2.1.221-.456.049-.914.081-1.368.144-.564.079-1.121.2-1.686.273a10.688,10.688,0,0,0-2.319.616c-.621.23-1.239.473-1.84.75-.675.311-1.348.636-1.99,1.01-1.065.62-2.124,1.254-3.149,1.937a25.247,25.247,0,0,0-2.3,1.736C8.853,8.283,8.112,8.983,7.4,9.709a11.651,11.651,0,0,0-3.038,5.777c-.136.635-.234,1.279-.329,1.922-.079.541-.139,1.085-.188,1.63-.046.508-.064,1.019-.1,1.528-.008.12-.03.239-.046.382M43.981,10.82c.126.172.25.346.379.516.011.015.051.008.077.011a.291.291,0,0,0-.026-.049,4.078,4.078,0,0,0-.43-.477M47.63,8.387l.11.117c0-.051.013-.114-.01-.152a2.487,2.487,0,0,0-.193-.246,1.964,1.964,0,0,0,.093.281m-1.59.936.173.107.056-.111A.766.766,0,0,0,46.039,9.323Z" transform="translate(0 0)"></path><path d="M306.938,271.784a4.889,4.889,0,0,1,1.854-1.794,4.782,4.782,0,0,1,1.821-.62,5.419,5.419,0,0,1,1.144,0,.74.74,0,0,1,.565.5c.391,1.008.745,2.03,1.133,3.039.295.766.619,1.521.933,2.279.1.253.231.5.324.754a1.084,1.084,0,0,1-.462,1.229c-.351.287-.7.577-1.037.879a.306.306,0,0,0-.082.262,16.961,16.961,0,0,0,.708,1.9,5.018,5.018,0,0,0,1.343,1.666,15.255,15.255,0,0,0,3.087,1.984,9.637,9.637,0,0,0,1.913.679,1.661,1.661,0,0,0,1.475-.36c.479-.4.926-.844,1.4-1.25s.952-.806,1.457-1.171a1.6,1.6,0,0,1,1.545-.1,9.051,9.051,0,0,1,2.008,1.023c.77.513,1.54,1.026,2.306,1.545a5.336,5.336,0,0,1,1.294,1.11,1.526,1.526,0,0,1,.245,1.271c-.149.776-.39,1.534-.593,2.3-.078.3-.178.586-.228.886a1.44,1.44,0,0,1-.536.877,6.665,6.665,0,0,1-1.539,1.026,5.437,5.437,0,0,1-1.336.392,22.968,22.968,0,0,1-3.918.124,16.749,16.749,0,0,1-1.7-.176,10.887,10.887,0,0,1-2.771-.708c-.915-.348-1.817-.733-2.721-1.11a15.793,15.793,0,0,1-3.31-2.054c-.573-.428-1.12-.894-1.653-1.371-.6-.539-1.211-1.08-1.759-1.673a13.067,13.067,0,0,1-1.822-2.492c-.381-.682-.779-1.359-1.1-2.069a10.342,10.342,0,0,1-.955-2.831c-.056-.393-.115-.786-.136-1.181a8.61,8.61,0,0,1,0-1.317,7.3,7.3,0,0,1,.6-2.484c.157-.325.326-.644.5-.977m4.993-.316c-.126-.329-.241-.664-.388-.984a.367.367,0,0,0-.264-.176,2.925,2.925,0,0,0-.681.041,4.173,4.173,0,0,0-2.157,1.057,4.7,4.7,0,0,0-1.065,1.546,7.8,7.8,0,0,0-.65,2.884,8.668,8.668,0,0,0,.132,1.485,10.75,10.75,0,0,0,1.036,3.1c.323.688.727,1.339,1.116,1.994a12,12,0,0,0,1.744,2.314c.627.637,1.306,1.225,1.986,1.805.539.46,1.1.892,1.679,1.308a13.21,13.21,0,0,0,2.617,1.583q1.487.617,3,1.169a12.018,12.018,0,0,0,3.048.656c.624.056,1.252.091,1.879.091s1.255-.035,1.878-.094a10.77,10.77,0,0,0,1.283-.23,4.254,4.254,0,0,0,1.685-.952.948.948,0,0,0,.331-.42c.26-.877.475-1.767.742-2.642.075-.247.026-.323-.185-.431a3.563,3.563,0,0,1-.545-.437c-.467-.376-.933-.755-1.406-1.124q-.838-.652-1.689-1.287a7.418,7.418,0,0,0-1.884-.926.424.424,0,0,0-.558.12c-.243.352-.5.695-.732,1.054-.537.836-1.059,1.682-1.594,2.52a1.524,1.524,0,0,1-1.112.781,4,4,0,0,1-2.091-.423,23.469,23.469,0,0,1-2.148-1.079,12.037,12.037,0,0,1-1.574-1.108,8.412,8.412,0,0,1-1.121-1.12,9.535,9.535,0,0,1-.927-1.321,14.349,14.349,0,0,1-1.227-3.07c-.126-.414-.494-.754-.245-1.269.123-.255.257-.468.552-.48a.546.546,0,0,0,.313-.083c.334-.28.658-.572.969-.877a.345.345,0,0,0,.07-.294c-.078-.238-.2-.462-.3-.7-.325-.8-.656-1.6-.965-2.407-.2-.512-.356-1.038-.556-1.58m7.2,14.408c.476.149.951.3,1.428.445a.887.887,0,0,0,.837-.187q.28-.408.543-.827c.026-.042.006-.113.007-.171a.615.615,0,0,0-.14.04,1.731,1.731,0,0,1-.3.181,3.357,3.357,0,0,1-1.973.028,12.789,12.789,0,0,1-3.462-1.682c-.265-.177-.509-.387-.77-.572-.045-.032-.126-.015-.19-.021a.508.508,0,0,0,.075.131c.321.295.626.611.972.872A14.073,14.073,0,0,0,319.135,285.876Z" transform="translate(-291.503 -256.743)"></path></g></g></g></svg>