<svg width="508" height="508" viewBox="0 0 508 508" fill="none" xmlns="http://www.w3.org/2000/svg">
<path d="M0.0658869 256.92C0.810674 321.134 26.9459 386.842 76.2272 435.374C125.509 483.906 191.962 508.546 256.921 507.056C321.879 505.561 386.093 480.92 435.374 430.895C533.186 330.092 530.947 169.562 430.145 71.7482C380.118 22.4669 314.41 -1.42379 249.451 0.0655468C184.493 1.56035 119.53 26.9456 70.998 76.2269C22.4674 125.503 -1.42866 191.956 0.0660089 256.92H0.0658869ZM181.506 145.666C189.719 145.666 198.678 150.145 208.386 161.348C233.771 191.212 222.574 202.416 209.881 215.854L207.641 218.093C205.401 220.333 202.412 230.041 239.745 265.88C267.37 292.76 279.318 297.24 285.292 297.24C286.037 297.24 288.276 296.495 289.026 295.745L291.266 293.505C298.735 286.037 304.703 279.317 315.162 279.317C323.375 278.573 333.083 283.052 345.776 293.505C356.229 302.464 361.459 309.932 362.203 318.145C362.948 330.093 353.245 339.796 345.031 348.009C343.536 349.504 342.047 350.994 340.552 351.744C336.073 357.718 329.354 360.702 320.391 359.957C297.245 359.957 253.937 345.769 207.645 300.223C182.26 275.583 162.099 247.207 150.9 221.077C141.941 197.181 141.192 177.025 149.405 168.812C150.15 168.067 150.9 167.317 151.645 165.828C153.884 163.588 154.629 161.348 156.874 159.109C163.587 153.88 171.801 146.416 181.505 145.666L181.506 145.666Z" fill="#3F4346"/>
</svg>
