<svg xmlns="http://www.w3.org/2000/svg" width="54" height="54" viewBox="0 0 54 54"><defs><style>.a{fill:#5153fb;}.b,.c{fill:#fff;}.b{stroke:#565b73;stroke-width:0.3px;}</style></defs><g transform="translate(-186 -2537)"><circle class="a" cx="27" cy="27" r="27" transform="translate(186 2537)"></circle><g transform="translate(-132.756 1126.7)"><g transform="translate(328.756 1423.3)"><g transform="translate(0 0)"><g transform="translate(14.11 13.732)"><g transform="translate(0 0)"><path class="b" d="M358.335,1457.669a5.435,5.435,0,1,1,5.435-5.435A5.435,5.435,0,0,1,358.335,1457.669Zm0-9.759a4.315,4.315,0,1,0,3.06,1.264,4.325,4.325,0,0,0-3.06-1.264Z" transform="translate(-352.9 -1446.799)"></path></g></g><g transform="translate(16.681 18.233)"><path class="c" d="M357.826,1456.37H362.5c.643,0,.76-1.87,0-1.87h-4.675C357.066,1454.5,357.183,1456.37,357.826,1456.37Z" transform="translate(-357.299 -1454.5)"></path></g><g transform="translate(12.006)"><g transform="translate(0)"><path class="b" d="M361.221,1450.473H352.4a3.288,3.288,0,0,1-3.1-3.1v-16.888c0-4.5,4.032-7.188,7.889-7.188a7.512,7.512,0,0,1,6.428,4.149c1.694,3.39.117,4.675-.35,4.967a2.4,2.4,0,0,1-3.682-1.811,2.169,2.169,0,0,0-.117-.526,2.671,2.671,0,0,0-4.733-.877,3.313,3.313,0,0,0-.526,2.747,2.3,2.3,0,0,0,1.227,1.519,16.414,16.414,0,0,0,3.623,1.049,16.611,16.611,0,0,1,3.156.877,3.393,3.393,0,0,1,2.162,3.039v8.885a3.394,3.394,0,0,1-3.156,3.156Zm-4.032-26.122c-3.331,0-6.779,2.279-6.779,6.078v16.888a2.239,2.239,0,0,0,1.987,1.987h8.824a2.238,2.238,0,0,0,1.987-1.987v-8.885a2.32,2.32,0,0,0-1.461-2.046,18.231,18.231,0,0,0-2.98-.818,16.442,16.442,0,0,1-3.857-1.169,3.267,3.267,0,0,1-1.812-2.279,4.5,4.5,0,0,1,.7-3.623,3.643,3.643,0,0,1,3.74-1.519,3.784,3.784,0,0,1,2.98,2.746,2.485,2.485,0,0,1,.117.643,1.231,1.231,0,0,0,.292.76,1.357,1.357,0,0,0,1.753.292c.818-.526.818-1.87-.059-3.568a6.442,6.442,0,0,0-5.433-3.5Z" transform="translate(-349.3 -1423.3)"></path></g></g><g transform="translate(1.838 13.09)"><path class="c" d="M331.9,1448.388l8.59-2.688-3.682,7.772-2.046-2.046,1.286-1.929-2.1.877Z" transform="translate(-331.9 -1445.7)"></path></g><g transform="translate(0 10.84)"><g transform="translate(0 0)"><path class="c" d="M333.165,1456.438c-2.454,0-3.8-.526-4.267-1.578-.818-1.87,2.162-4.383,2.513-4.675a.539.539,0,1,1,.7.818c-1.11.935-2.513,2.63-2.22,3.39.176.409,1.049,1.227,5.844.7,13.616-1.4,27-12.973,27.115-13.09a.539.539,0,1,1,.7.818c-.117.117-13.791,11.863-27.758,13.324a10.376,10.376,0,0,1-2.625.294Z" transform="translate(-328.756 -1441.855)"></path></g></g></g></g></g></g></svg>