<svg xmlns="http://www.w3.org/2000/svg" width="59" height="59" viewBox="0 0 59 59">
  <g id="Group_17696" data-name="Group 17696" transform="translate(-443 -2181)">
    <g id="Rectangle_5480" data-name="Rectangle 5480" transform="translate(443 2181)" stroke="#151515" stroke-width="2">
      <rect width="59" height="59" rx="7" stroke="none"/>
      <rect x="1" y="1" width="57" height="57" rx="6" fill="none"/>
    </g>
    <g id="Group_17676" data-name="Group 17676">
      <path id="Path_28181" data-name="Path 28181" d="M4.973,22.362v4.846L9.5,24.631a14.419,14.419,0,0,0,4,.56c7.456,0,13.5-5.64,13.5-12.6S20.956,0,13.5,0,0,5.639,0,12.6a12.27,12.27,0,0,0,4.973,9.766Z" transform="translate(459 2197)" fill="#fff"/>
      <path id="Path_28182" data-name="Path 28182" d="M46.919,75.878l-7.28,7.708,6.626-3.635,3.462,3.635,7.239-7.708L50.414,79.45Z" transform="translate(424.139 2130.268)" fill="#222"/>
    </g>
  </g>
</svg>
