<svg xmlns="http://www.w3.org/2000/svg" width="208" height="74.987" viewBox="0 0 208 74.987"><g id="sms-voice-email-icon" transform="translate(-188 -5755.156)"><path id="Path_24605" data-name="Path 24605" d="M12851-4213s34.753-42.984,75.967,28.4,76.58,0,76.58,0" transform="translate(-12636 9982)" fill="none" stroke="#222" stroke-width="2"></path><circle id="Ellipse_7" data-name="Ellipse 7" cx="27" cy="27" r="27" transform="translate(265 5769)" fill="#00b1a3"></circle><path id="voice2" d="M24.136,18.112a4.235,4.235,0,0,0,4.229-4.243l.014-8.486a4.243,4.243,0,1,0-8.486,0v8.486a4.248,4.248,0,0,0,4.243,4.243Zm8.607-4.243a1.2,1.2,0,0,0-1.182,1.039,7.4,7.4,0,0,1-7.424,6.173,7.4,7.4,0,0,1-7.425-6.173,1.2,1.2,0,0,0-1.185-1.039h0a1.2,1.2,0,0,0-1.182,1.405,9.981,9.981,0,0,0,8.379,8.1V26.6a1.413,1.413,0,0,0,1.413,1.413h0A1.413,1.413,0,0,0,25.548,26.6V23.375a9.976,9.976,0,0,0,8.376-8.1,1.2,1.2,0,0,0-1.182-1.405Z" transform="translate(267.855 5781.359)" fill="#fff"></path><circle id="Ellipse_16" data-name="Ellipse 16" cx="27" cy="27" r="27" transform="translate(188 5769)" fill="#405e73"></circle><path id="Path_18" data-name="Path 18" d="M3.842,53.783H1.972l1.322-1.322a4.474,4.474,0,0,0,1.278-2.646A9.431,9.431,0,0,1,0,41.866c0-5.614,5.16-11.318,13.24-11.318,8.56,0,13.15,5.25,13.15,10.827,0,5.614-4.639,10.86-13.15,10.86A17.837,17.837,0,0,1,8.8,51.67a6.929,6.929,0,0,1-4.961,2.113Z" transform="translate(201.5 5754.203)" fill="#fff"></path><text id="SMS" transform="translate(207.746 5798.316)" fill="#405e73" font-size="7" font-family="Lato-Bold, Lato" font-weight="700"><tspan x="0" y="0">SMS</tspan></text><circle id="Ellipse_2" data-name="Ellipse 2" cx="27" cy="27" r="27" transform="translate(342 5769)" fill="#5153fb"></circle><path id="Path_30" data-name="Path 30" d="M49.237,61H26.748a2.37,2.37,0,0,0-1.027.24L37.939,73.459l2.739-2.632h0l9.586-9.586A2.37,2.37,0,0,0,49.237,61Z" transform="translate(331.15 5724.875)" fill="#fff"></path><path id="Path_31" data-name="Path 31" d="M347.234,86.728l-9.021,9.021,9.021,9.021a2.371,2.371,0,0,0,.24-1.027V87.755A2.371,2.371,0,0,0,347.234,86.728Z" transform="translate(35.311 5700.518)" fill="#fff"></path><path id="Path_32" data-name="Path 32" d="M.24,86.721A2.37,2.37,0,0,0,0,87.748v15.987a2.371,2.371,0,0,0,.24,1.027l9.021-9.021Z" transform="translate(355.5 5700.525)" fill="#fff"></path><path id="Path_33" data-name="Path 33" d="M41.237,277.211,38.5,279.843a.8.8,0,0,1-1.13,0l-2.632-2.632-9.021,9.021a2.371,2.371,0,0,0,1.028.241H49.23a2.371,2.371,0,0,0,1.027-.24Z" transform="translate(331.156 5520.186)" fill="#fff"></path><path id="Path_24608" data-name="Path 24608" d="M14446.515,13389.486c1.084.512,8.519,1.246,8.519,1.246v-8.315" transform="translate(-14180 -7616)" fill="none" stroke="#222" stroke-linecap="round" stroke-width="2"></path><path id="Path_24609" data-name="Path 24609" d="M14446.515,13389.486c1.084.512,8.519,1.246,8.519,1.246v-8.315" transform="translate(-13037.801 20272.348) rotate(-90)" fill="none" stroke="#222" stroke-linecap="round" stroke-width="2"></path></g></svg>