<svg xmlns="http://www.w3.org/2000/svg" width="208" height="74.987" viewBox="0 0 208 74.987"><g id="sms-voice-icon" transform="translate(-927 -5755.156)"><path id="Path_24607" data-name="Path 24607" d="M12851-4213s34.753-42.984,75.967,28.4,76.58,0,76.58,0" transform="translate(-11897 9982)" fill="none" stroke="#222" stroke-width="2"></path><circle id="Ellipse_7" data-name="Ellipse 7" cx="27" cy="27" r="27" transform="translate(1081 5769)" fill="#00b1a3"></circle><path id="voice2" d="M24.136,18.112a4.235,4.235,0,0,0,4.229-4.243l.014-8.486a4.243,4.243,0,1,0-8.486,0v8.486a4.248,4.248,0,0,0,4.243,4.243Zm8.607-4.243a1.2,1.2,0,0,0-1.182,1.039,7.4,7.4,0,0,1-7.424,6.173,7.4,7.4,0,0,1-7.425-6.173,1.2,1.2,0,0,0-1.185-1.039h0a1.2,1.2,0,0,0-1.182,1.405,9.981,9.981,0,0,0,8.379,8.1V26.6a1.413,1.413,0,0,0,1.413,1.413h0A1.413,1.413,0,0,0,25.548,26.6V23.375a9.976,9.976,0,0,0,8.376-8.1,1.2,1.2,0,0,0-1.182-1.405Z" transform="translate(1083.855 5781.359)" fill="#fff"></path><circle id="Ellipse_16" data-name="Ellipse 16" cx="27" cy="27" r="27" transform="translate(927 5769)" fill="#405e73"></circle><path id="Path_18" data-name="Path 18" d="M3.842,53.783H1.972l1.322-1.322a4.474,4.474,0,0,0,1.278-2.646A9.431,9.431,0,0,1,0,41.866c0-5.614,5.16-11.318,13.24-11.318,8.56,0,13.15,5.25,13.15,10.827,0,5.614-4.639,10.86-13.15,10.86A17.837,17.837,0,0,1,8.8,51.67a6.929,6.929,0,0,1-4.961,2.113Z" transform="translate(940.5 5754.203)" fill="#fff"></path><text id="SMS" transform="translate(946.746 5798.316)" fill="#405e73" font-size="7" font-family="Lato-Bold, Lato" font-weight="700"><tspan x="0" y="0">SMS</tspan></text><circle id="Ellipse_9" data-name="Ellipse 9" cx="27" cy="27" r="27" transform="translate(1004 5769)" fill="#25d266"></circle><path id="Subtraction_1" data-name="Subtraction 1" d="M0,27.343H0l1.915-7a13.491,13.491,0,1,1,5.242,5.121Zm7.49-4.321h0a13.468,13.468,0,0,0,2.874,1.327,10.744,10.744,0,0,0,3.247.482A11.227,11.227,0,1,0,2.392,13.6,10.709,10.709,0,0,0,2.916,17a13.5,13.5,0,0,0,1.459,2.994L3.243,24.137,7.49,23.022h0Zm9.637-2.933a4.255,4.255,0,0,1-1.308-.2,19.523,19.523,0,0,1-1.923-.71,12.31,12.31,0,0,1-3.877-2.791A17.6,17.6,0,0,1,8.2,14.174l0,0c-.029-.042-.05-.072-.062-.087l0,0a6.428,6.428,0,0,1-1.376-3.487,3.842,3.842,0,0,1,.427-1.816,4.162,4.162,0,0,1,.69-.928l.065-.069a1.231,1.231,0,0,1,.9-.422l.646.012h.1c.21,0,.434.045.657.579.086.208.211.511.343.832l.008.02,0,.006c.295.717.629,1.531.686,1.647a.627.627,0,0,1,.027.592l-.047.1a1.945,1.945,0,0,1-.29.467l-.506.593c-.163.161-.348.344-.148.689a10.072,10.072,0,0,0,1.876,2.338,8.728,8.728,0,0,0,2.5,1.576c.092.04.164.071.218.1a.842.842,0,0,0,.367.109.473.473,0,0,0,.365-.191c.207-.237.845-.99,1.068-1.324a.469.469,0,0,1,.4-.256,1.111,1.111,0,0,1,.361.087c.3.111,1.922.906,2.3,1.1l.179.088.011.005a1.067,1.067,0,0,1,.456.3,2.772,2.772,0,0,1-.195,1.6,2.382,2.382,0,0,1-1,1.061,3.722,3.722,0,0,1-1.277.543,5.458,5.458,0,0,1-.817.063Z" transform="translate(1017 5781.873)" fill="#fff"></path><path id="Path_24611" data-name="Path 24611" d="M14446.515,13389.486c1.084.512,8.519,1.246,8.519,1.246v-8.315" transform="translate(-13441 -7616)" fill="none" stroke="#222" stroke-linecap="round" stroke-width="2"></path><path id="Path_24612" data-name="Path 24612" d="M14446.515,13389.486c1.084.512,8.519,1.246,8.519,1.246v-8.315" transform="translate(-10156.364 21994.766) rotate(-98)" fill="none" stroke="#222" stroke-linecap="round" stroke-width="2"></path></g></svg>