<svg xmlns="http://www.w3.org/2000/svg" width="310.57" height="264.495" viewBox="0 0 310.57 264.495"><defs><style>.a{fill:#fea29b;stroke:#707070;}.b{fill:#fff;}.c{fill:#bbeae6;}</style></defs><g transform="translate(-851.136 -224.381)"><path class="a" d="M3889.2-5096.758s-3.616-5.125-2.58-5.287,9.26-3.418,9.26-3.418,4,4.063,4.878,3.984,3.853-.565,3.853-.565v-4.24l10.134,2.62-.9,4.1.9.909,5-.909,2.506,8-3,3.321,4.68,3.681-2.192,10.692h-6.129l2.311,5.838-6.515,4.527-5.851-4.527-6.4,7.557-6.633-2.189-2.562-2.36,2.563-5.314-8.106,2.306-3.915-10.383,3.915-4.705-5.633-3.076,2.575-10.562Z" transform="translate(-2777 5423)"></path><circle class="b" cx="8" cy="8" r="8" transform="translate(1118 331)"></circle><path class="c" d="M3771.592-5069.779s-4.827-9.271-3.683-19.915,3.683-22.585,3.683-22.585h31.251l53.6,1.21,5.8,3.363v35.391s-5.252,3.567-5.8,3.625-56.43.248-57.637,0-3.78.384-4.507,1.255-1.323,8.647-1.323,8.647l-8.415-7.57Z" transform="translate(-2777 5423)"></path><g transform="translate(851.136 224.381)"><path d="M41.422,87.815a1.1,1.1,0,0,0,1.371-.4c.617-.812,1.469-1.441,2.146-2.214a52.727,52.727,0,0,0,4.792-5.7,65.061,65.061,0,0,0,3.7-7.218c.988-2.036,1.887-4.116,2.861-6.159a2.383,2.383,0,0,1,.765-.833c.955-.688.941-.833.027-1.526A6.6,6.6,0,0,1,55.521,62.2a1.641,1.641,0,0,1,.007-1.372,1.2,1.2,0,0,1,1.418-.7c.752.245.4-.232.322-.442-.987-2.79-2.128-5.536-2.941-8.375a29.5,29.5,0,0,1-.859-5.82,71.459,71.459,0,0,1-.309-8.122,61.061,61.061,0,0,1,.924-6.863,29.712,29.712,0,0,1,2.408-7.848A63.05,63.05,0,0,1,60.3,15.8a32.933,32.933,0,0,1,5.417-6.438A31.825,31.825,0,0,1,73.384,3.9,38.734,38.734,0,0,1,82.578.513,18.981,18.981,0,0,1,85.524.17c1.7-.094,3.4-.158,5.106-.17a20.92,20.92,0,0,1,10.108,2.4,8.291,8.291,0,0,0,3.022.74,23.018,23.018,0,0,1,11.533,4.206c1.11.806,2.133,1.737,3.163,2.648a40.873,40.873,0,0,1,7.6,9.108,56.441,56.441,0,0,1,4.529,8.807c1.071,2.672,2.21,5.318,3.261,8,.93,2.371,1.72,4.8,2.683,7.153.924,2.26,2,4.456,2.985,6.694a13.355,13.355,0,0,0,1.027,2.424c.351.512-.236,1.113-.713,1.373a3.421,3.421,0,0,1-1.6.347,38.2,38.2,0,0,1-5.1-.185,59.518,59.518,0,0,1-6.291-1.321c-1.242-.314-2.426-.856-3.646-1.264a.736.736,0,0,0-1.037.42c-1.18,2.353-2.378,4.7-3.654,7a61.074,61.074,0,0,0-3.838,8.179,8.96,8.96,0,0,0-.349,5.591c.449,1.721.685,3.5,1.084,5.232.43,1.873.954,3.723,1.412,5.59.5,2.035.221,3.372-1.571,4a4.713,4.713,0,0,1-2.5-.094c-2.112-.514-4.188-1.173-6.29-1.726a.871.871,0,0,0-1.1.553c-1.135,2.235-2.353,4.429-3.577,6.617-1.732,3.1-3.439,6.212-5.281,9.243a3.366,3.366,0,0,1-2.985,1.608,14.007,14.007,0,0,1-4.5-.427,17.332,17.332,0,0,1-5.236-3.076c-1.03-.825-2.011-1.711-3.049-2.525-.552-.433-.869-.062-1.085.456-.655,1.565-1.449,3.087-1.946,4.7-.883,2.873-1.665,5.784-2.326,8.715a12.515,12.515,0,0,1-.9,3.141.7.7,0,0,0,.107.663c2.107,1.62,2.828,4.085,3.783,6.36,1.223,2.915,2.294,5.9,3.3,8.9.984,2.939,1.869,5.916,2.674,8.909.912,3.39,1.73,6.807,2.509,10.23.674,2.96,1.3,5.935,1.829,8.923.382,2.148.607,4.326.847,6.5q.389,3.529.667,7.069c.157,2.037.249,4.08.338,6.122q.119,2.719.168,5.44.1,5.266.162,10.533c.005.477-.166.96-.13,1.431a.826.826,0,0,0,.53.574q3.122.554,6.261,1.015c1.088.159,2.186.269,3.283.335,3.1.188,6.2.4,9.309.487,1.959.056,3.924-.082,5.886-.15.952-.033,1.9-.118,2.853-.161,1.451-.065,2.905-.085,4.355-.176a59.712,59.712,0,0,0,6.793-.56,9.277,9.277,0,0,0,3.435-1.727,33.072,33.072,0,0,0,3.979-3.292c2.9-2.8,5.706-5.706,8.579-8.538a32.109,32.109,0,0,1,6.292-4.958,4.852,4.852,0,0,1,1.065-.447c1.761-.521,2.64-2,3.63-3.344,1.867-2.532,3.743-5.059,5.54-7.64,2.2-3.166,4.348-6.372,6.48-9.586,1.574-2.373,3.064-4.8,4.634-7.176,1.433-2.169,2.886-4.327,4.4-6.439,1.088-1.517,2.279-2.96,3.447-4.418a2.118,2.118,0,0,1,3.222-.093c1.454,1.549,3.014,3,4.581,4.438a2.855,2.855,0,0,1,.36,3.974q-4.477,7.181-9.132,14.25c-1.172,1.79-2.516,3.467-3.756,5.214a.647.647,0,0,0,.026.617,9.267,9.267,0,0,1,2.43,6.271,13.574,13.574,0,0,1-1.241,6.671,35.393,35.393,0,0,1-3.413,5.424,24,24,0,0,1-3.775,4.1,88.618,88.618,0,0,1-7.638,5.73,78.835,78.835,0,0,1-8.261,4.833c-3.537,1.772-7.188,3.329-10.837,4.866-3.151,1.326-6.4,2.418-9.543,3.763a42.642,42.642,0,0,0-4.389,2.505c-1.841,1.064-3.65,2.187-5.531,3.175-4.087,2.147-8.179,4.288-12.33,6.308a58.626,58.626,0,0,1-10.556,4.138,1.149,1.149,0,0,0-.418.195,23.671,23.671,0,0,1-8.987,4.3c-1.488.391-3,.7-4.509,1-.877.179-1.123.525-.929,1.417a1.415,1.415,0,0,1,0,.692c-.817,2.61-1.7,5.2-2.468,7.824-.74,2.54-1.278,5.14-2.055,7.668-.688,2.235-1.583,4.406-2.386,6.606a.8.8,0,0,0-.089.294c.108,1.542-.724,2.808-1.209,4.176-.3.85-1.04,1.144-1.787,1.461a33.255,33.255,0,0,1-8.08,2.255c-2,.3-4,.573-6,.837-4.449.586-8.922.3-13.385.315-2.263.008-4.534-.122-6.788-.334-2.6-.244-5.2-.547-7.764-1a46.613,46.613,0,0,1-12.057-3.527q-2.647-1.263-5.318-2.478c-1.286-.588-2.649-1.037-3.866-1.741-1.725-1-2.585-2.738-3.382-4.492a6.525,6.525,0,0,1-.392-3.236,15.207,15.207,0,0,0-.6-3.559c-.049-.257-.2-.531-.15-.762a8.526,8.526,0,0,0-.339-3.485c-.213-1.175-.325-2.367-.515-3.547-.332-2.057-.674-4.112-1.042-6.163-.3-1.652-.638-3.3-.957-4.945-.389-2.01-.794-4.016-1.156-6.031-.257-1.431-.45-2.875-.682-4.311-.328-2.033-.686-4.061-.994-6.1-.2-1.344-.321-2.7-.513-4.048s-.448-2.711-.645-4.071c-.142-.978-.231-1.964-.352-2.945-.219-1.773-.448-3.544-.665-5.317-.069-.56-.132-1.121-.166-1.684-.12-1.985-.225-3.97-.339-5.955-.011-.185.018-.442-.088-.54a2.526,2.526,0,0,1-.579-2.189c.059-1.646.095-3.294.173-4.939.092-1.93.219-3.859.329-5.789.113-1.985.171-3.975.347-5.954q.338-3.8.833-7.584c.4-2.994.8-5.991,1.346-8.961.511-2.8,1.168-5.571,1.824-8.34.8-3.364,1.536-6.75,2.535-10.055.809-2.676,1.946-5.255,2.971-7.864q1.89-4.809,3.843-9.594c.623-1.522,1.352-3,1.991-4.518a45.406,45.406,0,0,1,3.813-7.1,40.66,40.66,0,0,1,6.931-8.05,17.14,17.14,0,0,1,6.015-3.387c2.2-.75,4.447-1.37,6.69-1.983a7.444,7.444,0,0,1,1.767-.04M31.739,227.478a50.983,50.983,0,0,1-3.472-4.341c-1.313-2.04-2.412-4.221-3.552-6.368a24.748,24.748,0,0,1-2.32-6.383c-.472-2.175-.943-4.352-1.328-6.543-.344-1.96-.6-3.938-.84-5.913-.159-1.284-.164-2.588-.358-3.865a21.91,21.91,0,0,1,.194-6.554c.168-1.136.08-1.458-.966-2.019a6.285,6.285,0,0,1-3.331-3.85,25.479,25.479,0,0,1-.846-6.151c-.034-4.46.159-8.923.3-13.384.062-1.987.21-3.971.328-5.955.04-.673.077-1.35.17-2.017.319-2.285.636-4.57,1-6.847.356-2.209.633-4.445,1.192-6.6A95.51,95.51,0,0,1,21.38,128.85c1.642-4.088,3.19-8.2,5.972-11.725a10.244,10.244,0,0,1,8.167-4.262c1.112-.024,2.226,0,3.339,0a11.744,11.744,0,0,1,4.422,1.012,22.71,22.71,0,0,1,8.818,6.9,26.751,26.751,0,0,1,5.5,11.41c.775,3.428,1.4,6.891,2.012,10.353.511,2.893.934,5.8,1.339,8.712q.415,2.981.666,5.984c.165,1.953.289,3.913.328,5.871.031,1.533-.071,3.071-.156,4.6-.081,1.458-.155,2.921-.342,4.368-.278,2.151-.575,4.3-1.012,6.427-.359,1.746-.909,3.455-1.423,5.166a12.735,12.735,0,0,0-.854,2.3,34.424,34.424,0,0,1-1.71,7.651c-.7,2.158-1.435,4.3-2.135,6.46-.046.141.08.337.127.507.118-.056.24-.105.353-.17.788-.45,1.557-.936,2.363-1.351a41.839,41.839,0,0,1,8.381-3.545,31.715,31.715,0,0,1,8.371-1.334c3.071.029,6.142.184,9.21.328a13.414,13.414,0,0,1,2.511.38c1.347.327,1.724.083,1.707-1.3q-.071-6.017-.169-12.035c-.021-1.2-.1-2.4-.164-3.6-.16-2.825-.322-5.65-.5-8.474-.088-1.374-.151-2.756-.345-4.117-.335-2.351-.718-4.7-1.165-7.029-.567-2.954-1.084-5.929-1.861-8.83-1.573-5.874-3.225-11.729-5-17.543-.992-3.243-2.212-6.426-3.511-9.561a53.7,53.7,0,0,0-2.8-5.183,2.1,2.1,0,0,0-1.6-1.025c-1.032-.189-2.081-.325-3.086-.613a19.706,19.706,0,0,1-7.338-3.833,52.488,52.488,0,0,1-4.848-4.385c-1.837-1.985-3.487-4.149-5.156-6.283-1.733-2.216-3.372-4.506-5.1-6.731a22.382,22.382,0,0,0-2.429-2.721,1.8,1.8,0,0,0-1.49-.342,11.306,11.306,0,0,0-2.031,1.132A43.566,43.566,0,0,0,30.5,98.7a55.848,55.848,0,0,0-4.372,4.694c-1.419,1.664-2.8,3.374-4.047,5.168q-2.438,3.5-4.622,7.183a35.8,35.8,0,0,0-2.55,5.116c-1.161,2.944-2.186,5.944-3.181,8.949-.594,1.793-1.088,3.626-1.506,5.468-.568,2.5-1.02,5.034-1.521,7.554s-1.029,5.034-1.491,7.561c-.328,1.8-.553,3.61-.848,5.412-.375,2.29-.794,4.572-1.159,6.863-.255,1.6-.459,3.208-.672,4.815-.34,2.56-.774,5.113-.967,7.685a48.032,48.032,0,0,0,.133,5.354c.1,2.765.2,5.529.34,8.292.064,1.292.181,2.583.335,3.868.186,1.554.453,3.1.654,4.65.189,1.458.3,2.927.514,4.382.3,2.065.673,4.119.989,6.181.3,1.941.511,3.9.85,5.829.512,2.921,1.113,5.827,1.655,8.744.462,2.484.883,4.975,1.342,7.459.487,2.633,1.04,5.255,1.487,7.895.394,2.328.706,4.671,1.007,7.013a17.941,17.941,0,0,0,2.372,6.53,1.64,1.64,0,0,0,.675.567c.639.331,1.321.581,1.954.922a46.6,46.6,0,0,0,4.7,2.555,79.128,79.128,0,0,0,8.769,3c2.71.723,5.524,1.065,8.3,1.541.974.167,1.965.238,2.949.341,2.161.227,4.32.579,6.486.632,2.231.054,4.471-.173,6.705-.3,1.513-.087,3.029-.174,4.535-.34,2.143-.237,4.3-.437,6.412-.851,2.861-.561,5.675-1.353,8.53-1.948a1.6,1.6,0,0,0,1.383-1.242c1.461-4.4,3.1-8.747,4.425-13.186.91-3.043,1.424-6.206,2.1-9.319.178-.824.276-1.665.432-2.495a2.79,2.79,0,0,1,.241-.566,2.185,2.185,0,0,0-.7-.09c-1.508.313-3,.71-4.514.979-2.73.486-5.471.912-8.21,1.344-2.9.458-5.8.978-8.715,1.313-2.532.29-5.088.421-7.637.505a40.164,40.164,0,0,1-5.187-.171,27.884,27.884,0,0,1-4.665-.821c-1.531-.42-2.975-1.148-4.488-1.646-2.947-.97-5.786-2.1-7.979-4.6M151.2,199.345c2.03-1.084,4.12-2.069,6.074-3.274,2.785-1.718,5.5-3.55,8.186-5.427a24.356,24.356,0,0,0,4.092-3.379,49.814,49.814,0,0,0,4.152-5.445,13.534,13.534,0,0,0,2.429-7.576,11.224,11.224,0,0,0-.479-2.462,4.759,4.759,0,0,0-.242-.65,2.325,2.325,0,0,0-.679.356q-2.442,2.65-4.847,5.334c-.836.929-1.676,1.856-2.477,2.815-1.843,2.208-3.626,4.468-5.5,6.646a16.171,16.171,0,0,1-8.655,5.486,2.435,2.435,0,0,1-2.652-.72,1.857,1.857,0,0,1,.041-2.3c.778-1.169,1.66-2.271,2.523-3.382a11.09,11.09,0,0,0,2.281-4.146c.071-.295.139-.8-.449-.681a3.214,3.214,0,0,0-1.3.475,70.189,70.189,0,0,0-5.583,4.438c-3,2.817-5.833,5.814-8.771,8.7a21.515,21.515,0,0,1-2.788,2.336c-1.237.858-2.647,1.475-3.838,2.386A5.942,5.942,0,0,1,129,200.018c-1.786.034-3.572.1-5.357.166-.757.029-1.515.085-2.268.167-1.913.209-3.819.487-5.735.649-1.529.129-3.07.114-4.6.185-2.18.1-4.36.23-6.54.328-2.708.122-5.416.28-8.126.319-2.146.031-4.295-.085-6.442-.153-1.146-.036-2.293-.081-3.437-.169q-4.037-.309-8.071-.665c-1.741-.151-3.479-.467-5.219-.468-3.162,0-6.336-.279-9.479.456a37.683,37.683,0,0,0-13.925,6.52,5.471,5.471,0,0,1-2.568.792,1.04,1.04,0,0,1-1.076-1.009,2.531,2.531,0,0,1,.594-1.62c1.059-.96,2.272-1.747,3.393-2.642a1.841,1.841,0,0,0,.611-.89c.494-1.859.853-3.758,1.413-5.6a89.2,89.2,0,0,0,2.913-11.055,2.356,2.356,0,0,0-.478-1.523c-.1-.143-.788.056-1.176.188-.7.239-1.369.611-2.082.812-2.5.7-5.015,1.323-7.508,2.032A42.9,42.9,0,0,1,34.6,188.29a30.041,30.041,0,0,1-10.52-.961.721.721,0,0,0-1,.634,34.265,34.265,0,0,0-.167,3.769c.022,1.1.2,2.19.315,3.285.167,1.656.249,3.326.52,4.965.428,2.587.934,5.164,1.5,7.726a37.156,37.156,0,0,0,8.19,16.479A13.013,13.013,0,0,0,38.9,227.9a30.235,30.235,0,0,1,5.411,2.223,10.332,10.332,0,0,0,5.412,1.264,74.274,74.274,0,0,0,11.4-.494c1.266-.155,2.53-.327,3.789-.526,1.588-.251,3.168-.556,4.758-.8,1.29-.2,2.594-.3,3.88-.516,1.788-.3,3.568-.644,5.346-1s3.548-.68,5.3-1.121c1.525-.385,3-.955,4.52-1.37,3.352-.918,6.731-1.739,10.073-2.693a65.934,65.934,0,0,0,12.01-4.656c3.535-1.81,7.107-3.554,10.592-5.455,2.057-1.122,3.977-2.5,5.963-3.751,1.248-.788,2.39-1.785,3.9-2.062.681-.124,1.351.066,2.066-.339a28.227,28.227,0,0,1,3.761-1.585c3.189-1.236,6.393-2.434,9.576-3.685,1.507-.592,2.979-1.272,4.55-2m-42.993-160.7c.517.362,1.036.72,1.55,1.086a56.924,56.924,0,0,0,11.727,6.344c2.86,1.155,5.73,2.286,8.6,3.416.108.042.265-.041.4-.065a1.063,1.063,0,0,0-.108-.292c-.372-.488-.769-.958-1.13-1.453a40.643,40.643,0,0,1-4.286-7.822c-1.335-3.063-2.548-6.18-3.916-9.227-.97-2.161-2.035-4.287-3.193-6.354a33.1,33.1,0,0,0-4.762-6.793c-1.406-1.475-2.733-3.043-4.26-4.381-1.964-1.72-4.085-3.263-6.154-4.862A22.855,22.855,0,0,0,96.51,4.8a19.491,19.491,0,0,0-4.962-1.09,25.762,25.762,0,0,0-8.127.493A33.855,33.855,0,0,0,74.134,7.76,32.765,32.765,0,0,0,68.051,12.2a33.353,33.353,0,0,0-5.908,7.482,44.505,44.505,0,0,0-2.967,5.778A35.571,35.571,0,0,0,57.453,31.5a51.246,51.246,0,0,0-.969,6.854,33.777,33.777,0,0,0,.478,8.384,53.981,53.981,0,0,0,1.318,6.048c.95,3.1,2.084,6.143,3.205,9.186a2.407,2.407,0,0,0,1.056,1.111,19.482,19.482,0,0,0,6.909,1.844c1.563.227,3.142.358,4.717.494.166.014.519-.244.508-.346-.207-1.935-.365-3.883-.719-5.793a16.448,16.448,0,0,1-.117-5.8A17.946,17.946,0,0,1,77.172,45.2a5.362,5.362,0,0,1,4.015-2.139,5.752,5.752,0,0,1,4.019,1.361,31.166,31.166,0,0,1,4.33,4.184,23.326,23.326,0,0,1,2.146,3.85,1.694,1.694,0,0,0,.258.29c.08-.106.2-.2.233-.32a19.306,19.306,0,0,1,.488-2.053c1.038-2.8,2.154-5.563,3.183-8.362.826-2.247,1.5-4.552,2.375-6.779A12.537,12.537,0,0,1,100.057,32c.745-.928,3.038-.127,3.443,1.228a7.391,7.391,0,0,0,1.936,2.782c.825.915,1.786,1.707,2.771,2.637m5.343,22.039c.767-1.435,1.5-2.886,2.308-4.3,1.092-1.917,2.24-3.8,3.354-5.707a.916.916,0,0,0-.516-1.435c-1.5-.679-3.047-1.284-4.466-2.107a57.614,57.614,0,0,1-7.152-4.535,38.244,38.244,0,0,1-5.37-5.278c-.125-.148-.261-.287-.391-.43a3.41,3.41,0,0,0-.283.528c-.643,1.932-1.239,3.881-1.919,5.8-1.331,3.76-2.752,7.488-4.032,11.265a4.757,4.757,0,0,0-.258,3.032A1.8,1.8,0,0,1,93.8,59.563c-.64.224-1.517-.313-1.97-1.112a2.164,2.164,0,0,0-.825-.837,2.84,2.84,0,0,1-1.5-1.831,15.932,15.932,0,0,0-6.275-8.722c-1.526-1.072-2.555-.861-3.564.737-.288.456-.506.958-.749,1.441A15.477,15.477,0,0,0,77.2,55.772c-.082,3.093.161,6.2.306,9.292a1.738,1.738,0,0,0,.492.952.976.976,0,0,1-.049,1.556,4.249,4.249,0,0,1-3.159,1.01c-2.291-.005-4.584-.166-6.873-.309a16.114,16.114,0,0,1-6.238-1.661c-.722-.359-1.054-.186-1.224.619a34.157,34.157,0,0,1-3.042,7.752c-1.227,2.536-2.684,4.968-4.154,7.377a24.727,24.727,0,0,1-6.827,7.447c-.4.28-.453.459-.126.813,2.564,2.775,5.084,5.59,7.689,8.325,1.58,1.659,3.248,3.241,4.945,4.782,2.087,1.894,4.176,3.8,6.4,5.525a32.717,32.717,0,0,0,4.426,2.589c.319.175.785.266.719-.434a3.4,3.4,0,0,1,.153-.848c.307-1.737.53-3.495.937-5.208.623-2.623,1.348-5.222,2.077-7.818.595-2.116,1.628-3.873,4.03-4.32a5.829,5.829,0,0,1,2.329-.336,26.315,26.315,0,0,1,4.748,1.814,47.062,47.062,0,0,1,4.33,2.648c1.7,1.087,2.193,1.182,3.285-.806,1.055-1.921,1.981-3.913,3.03-5.837,1.622-2.977,3.225-5.97,4.988-8.863.8-1.319,1.8-2.294,3.756-1.706.9.269,1.847.371,2.72.692,2,.736,3.973,1.558,5.954,2.349.18.072.348.172.522.259a3.176,3.176,0,0,0-.049-.617c-.464-1.67-.991-3.325-1.4-5.009a44.446,44.446,0,0,1-.987-4.927,14.986,14.986,0,0,1-.137-4.507,27.828,27.828,0,0,1,2.781-7.683M55.28,159.691c-.167-2.686-.325-5.372-.5-8.057-.089-1.319-.15-2.645-.345-3.95-.335-2.24-.7-4.48-1.172-6.693-.531-2.463-1.19-4.9-1.817-7.341a29.659,29.659,0,0,0-4.741-9.882,22.562,22.562,0,0,0-3.737-4.351c-2.4-1.987-5.381-1.989-8.294-1.521a7.794,7.794,0,0,0-5.275,3.8,38.22,38.22,0,0,0-3.991,8.615,71.532,71.532,0,0,0-2.825,12.347c-.345,2.2-.522,4.427-.673,6.649-.134,1.975-.157,3.959-.172,5.94-.008,1.117.127,2.235.15,3.353.07,3.288.09,6.577.181,9.864.063,2.237.194,4.472.33,6.706.143,2.353.319,4.7.5,7.055.049.631.11,1.375.872,1.526a43.836,43.836,0,0,0,6.077,1.012,42.807,42.807,0,0,0,6.451-.306,38.492,38.492,0,0,0,5.4-.865c3.727-.911,7.419-1.963,11.127-2.95.76-.2,1.356-.538,1.46-1.42.212-1.8.5-3.6.649-5.4q.265-3.262.336-6.539c.056-2.475.013-4.952.013-7.6m115.12,1.586c-1.24,1.8-2.452,3.612-3.724,5.384q-3.955,5.507-7.977,10.965a2.31,2.31,0,0,0-.362,2.182,4.632,4.632,0,0,1,.022,2,11.875,11.875,0,0,1-3.281,5.65,2.668,2.668,0,0,0-.279.459c.226-.01.5.063.67-.042a28.115,28.115,0,0,0,6.283-6.095c1.749-2.086,3.47-4.2,5.262-6.246,1.426-1.63,2.959-3.166,4.4-4.781.334-.374.795-1,.685-1.341-.457-1.436.334-2.38,1.061-3.383,2-2.761,4.072-5.473,5.986-8.292,2.5-3.677,4.863-7.441,7.3-11.161a.929.929,0,0,0-.173-1.321c-.772-.762-1.556-1.514-2.3-2.307-.468-.5-.868-.521-1.274.021-.906,1.208-1.844,2.4-2.692,3.644q-2.736,4.03-5.39,8.116c-1.4,2.141-2.758,4.309-4.219,6.549M114.969,11.513c-.135-.079-.273-.152-.4-.238-1.752-1.144-3.5-2.3-5.262-3.425-.123-.079-.344-.006-.52,0,.071.165.1.386.22.485.894.715,1.881,1.329,2.7,2.119,1.569,1.515,3.075,3.1,4.554,4.7a35.382,35.382,0,0,1,5.666,8.5c1.361,2.773,2.716,5.551,3.966,8.374,1.362,3.079,2.513,6.253,3.925,9.308a53.2,53.2,0,0,0,3.045,5.25c.56.919,1.2,1.786,1.828,2.665.083.117.268.162.406.24,0-.205.069-.45-.018-.608-.352-.638-.835-1.213-1.119-1.876-.737-1.725-1.392-3.486-2.082-5.231-1.711-4.328-3.346-8.687-5.163-12.97a69.751,69.751,0,0,0-3.779-7.613,41.085,41.085,0,0,0-7.963-9.68M18.716,162.7c0-.083,0-.167,0-.25.055-.977.129-1.954.15-2.932,0-.189-.2-.383-.306-.574a1.629,1.629,0,0,0-.253.5c-.1.992-.218,1.985-.251,2.981-.081,2.449-.161,4.9-.163,7.35,0,2.2.073,4.4.166,6.6a16.83,16.83,0,0,0,.356,3.189,9.973,9.973,0,0,0,1.047,2.227c.086.163.334.24.508.357a2.544,2.544,0,0,0,.074-.632c-.151-1.128-.372-2.248-.483-3.379q-.3-3.1-.5-6.211c-.1-1.558-.138-3.121-.17-4.682-.027-1.287,0-2.575-.013-3.863,0-.172-.1-.343-.16-.681m64.364,34.978c-.31-.056-.618-.132-.931-.163q-1.127-.111-2.257-.185c-1.65-.112-3.3-.218-4.951-.308-.093-.005-.195.159-.293.244.073.082.136.219.222.236a9.165,9.165,0,0,0,1.179.172c1.059.07,2.12.108,3.18.175.617.039,1.232.1,1.847.166,1.514.162,3.027.337,4.543.49.121.012.255-.1.383-.156-.1-.112-.194-.3-.313-.323-.811-.136-1.627-.235-2.609-.347m-12.355,62.61c-.88.223-1.763.438-2.639.674a1.977,1.977,0,0,0-.45.261c.189.078.393.247.564.218,1.163-.194,2.33-.386,3.473-.668a24.188,24.188,0,0,0,2.407-.826c.093-.034.157-.15.235-.227a.868.868,0,0,0-.281-.094,2.965,2.965,0,0,0-.55.076c-.865.192-1.728.39-2.758.585m-12.439-94.75.129.417c.124-.118.358-.239.355-.354-.026-1-.088-2-.159-3-.008-.112-.141-.215-.216-.322a1.345,1.345,0,0,0-.1.354C58.282,163.545,58.286,164.457,58.286,165.535Z" transform="translate(0)"></path><path d="M998.691,352.138c.223,2.329.533,4.57.637,6.82a15.292,15.292,0,0,1-.3,4.544c-.49,1.857-2.194,2.592-3.929,2.973-1.5.329-3.045.431-4.556.711-.489.09-.912.523-1.4.624a11.9,11.9,0,0,1-2.18.179c-.457.008-.659.15-.625.622a14.311,14.311,0,0,1-1.585,6.854c-.681,1.543-1.141,2.243-3.339,1.731a5.932,5.932,0,0,0-1.762-.152,1.742,1.742,0,0,0-.923.537c-.068.064.113.462.249.658.573.825,1.178,1.627,1.762,2.445.335.47.425.941-.135,1.313-1.286.854-2.556,1.737-3.879,2.529-1.307.782-2.75,1.36-3.982,2.24-.65.464-1.112,1.057-1.964.64-.65-.318-1.278-.685-1.9-1.059-.982-.593-1.909-1.291-2.933-1.792-.84-.411-1.311-.1-1.824.684a26.619,26.619,0,0,1-1.681,2.226c-.666.818-1.368,1.608-2.062,2.4a1.173,1.173,0,0,1-1.552.323c-.534-.245-1.194-.212-1.73-.453a29.465,29.465,0,0,1-2.949-1.544c-1.457-.864-2.882-1.782-4.312-2.691-.555-.353-.491-.864-.22-1.348.419-.748.9-1.46,1.309-2.215a2.066,2.066,0,0,0,.065-.788c-.238.013-.542-.064-.7.054-1.133.835-2.256,1.687-3.34,2.583a1.3,1.3,0,0,1-1.832-.338c-1.253-2.178-2.552-4.334-3.7-6.568a28.306,28.306,0,0,1-1.324-3.706.394.394,0,0,1,0-.248c.154-.408.378-.9-.152-1.117a6.2,6.2,0,0,0-1.622-.279c-.138-.016-.289.129-.437.136-1.479.065-2.959.107-4.438.175-2.181.1-4.363.183-6.536.374-.307.027-.776.609-.808.966a18.517,18.517,0,0,1-1.434,5.761c-.638,1.47-1.519,2.987-3.292,3.3a25.205,25.205,0,0,1-3.914.113c-.195,0-.39,0-.584,0-5.208-.055-10.417-.084-15.625-.177-2.988-.054-5.974-.225-8.961-.319-2.425-.076-4.851-.166-7.277-.159-3.567.01-7.133.1-10.7.155-3.539.055-7.08.046-10.615.192-2.028.084-4.05.39-6.067.659-.74.1-.978.724-1.021,1.407-.114,1.79-.137,3.592-.363,5.368-.176,1.386-.123,2.863-.977,4.095a2.1,2.1,0,0,1-3.314.367c-1.365-1.449-2.577-3.043-3.865-4.565-1.171-1.383-2.29-2.82-3.569-4.095a4.168,4.168,0,0,0-2.006-.743A34.812,34.812,0,0,0,835.5,383.5a10.243,10.243,0,0,1-2.312-.445,4.171,4.171,0,0,1-2.263-1.938,15.633,15.633,0,0,1-3.081-6.234c-.2-1.139-.5-2.268-.607-3.415-.18-1.979-.3-3.968-.339-5.954-.055-2.958-.1-5.921.013-8.876.083-2.195.417-4.38.641-6.57.166-1.628.369-3.254.492-4.885.149-1.982.242-3.969.34-5.955a3.65,3.65,0,0,1,3.78-3.627q5.934-.062,11.868-.169a16.821,16.821,0,0,0,2.1-.179.643.643,0,0,0,.434-.429,9.979,9.979,0,0,0,.011-1.75c-.075-.875-.21-1.746-.325-2.617-.22-1.661-.457-3.32-.663-4.983-.135-1.092-.188-2.195-.347-3.282a45.66,45.66,0,0,0-.908-5.222,6.311,6.311,0,0,0-1.506-2.365,9.145,9.145,0,0,1-2.318-3.721c-.624-2.442.012-4.219,2.4-5.653a16.741,16.741,0,0,1,6.245-1.839c2.1-.324,4.216-.606,6.332-.833,2.04-.219,4.088-.383,6.136-.5,3.379-.2,6.762-.345,10.143-.508,1.312-.063,2.625-.16,3.938-.161q30.762-.015,61.523-.015c4.012,0,8.023-.116,12.035-.157,6.433-.066,12.865-.147,19.3-.152,2.236,0,4.479.125,6.7.337,2.542.243,5.073.612,7.6.993a33.274,33.274,0,0,1,4.625.926,6.762,6.762,0,0,1,4.855,4.779c.678,2.364,1.387,4.721,1.982,7.106a28.38,28.38,0,0,1,.362,3.111c.193,1.445.432,2.883.634,4.326.188,1.345.368,2.691.526,4.039q.434,3.707.833,7.418c.087.808.1,1.625.175,2.434.212,2.218.421,4.437.67,6.652.253,2.253.545,4.5.833,6.75.09.708.219,1.411.331,2.2M897.429,333.271c6.437.14,12.883-.318,19.313.327,1.563.157,3.14.18,4.7.36a4.119,4.119,0,0,1,2.417,1.014,4.993,4.993,0,0,1,1.36,3.613c.1,1.393.087,2.794.184,4.187.135,1.936.334,3.868.49,5.8.1,1.185.3,1.414,1.457,1.386.979-.024,1.957-.139,2.936-.153,1.78-.026,3.563.034,5.342-.021,1.319-.041,2.633-.247,3.953-.307a1.777,1.777,0,0,1,1.686,1.868c-.01.088.114.273.181.276a10.9,10.9,0,0,1,1.611.029c1.767.349,3.52.763,5.278,1.154.137.031.272.072.408.108a2.055,2.055,0,0,0-.189-.4,15.828,15.828,0,0,1-2.973-4.614c-.27-.84-.124-1.32.689-1.609a12.882,12.882,0,0,0,1.5-.6c2.853-1.443,5.7-2.907,8.545-4.36,1.111-.567,2.31-.244,2.276.646a2.214,2.214,0,0,0,.861,2.081,3.625,3.625,0,0,1,.481.628,22.244,22.244,0,0,0,1.962,2.265c1.176,1.062,1.978.251,2.279-.721.219-.705-.254-1.006-.39-1.49-.4-1.425-.265-2.661,1.6-2.6a16.96,16.96,0,0,1,2.582.4c1.235.233,2.457.544,3.7.734,1.141.175,2.312.165,3.442.383.44.085,1.183.651,1.138.861-.24,1.132,1.018,1.82.752,2.908-.021.088.127.218.2.328.1-.071.239-.121.285-.216a1.723,1.723,0,0,1,1.7-.913c1.257-.047,2.515-.095,3.77-.168,1.652-.1,3.3-.248,4.954-.318a1.83,1.83,0,0,1,1.75,1.527,1.5,1.5,0,0,1-1.008,1.708c-1.035.287-2.118.4-3.181.592-.906.163-1.807.363-2.719.479-.428.055-.464.076-.272.5,1.051,2.318,2.05,4.659,3.064,6.994a1.315,1.315,0,0,1-.622,1.883c-.541.32-1.048.7-1.567,1.057-.565.391-.43.813.061,1.084a7.3,7.3,0,0,0,1.719.677c.9.227,1.37.667,1.213,1.657a6.5,6.5,0,0,0,0,1.333,3.155,3.155,0,0,0,.15.6c.118-.056.286-.08.344-.173a3.259,3.259,0,0,0,.3-.685c.015-.044-.095-.121-.126-.192a.9.9,0,0,1,.746-1.355c.809-.084,1.631-.064,2.432-.185,1.588-.24,3.175-.5,4.744-.842a1.3,1.3,0,0,0,.9-1.5c-.171-2.249-.422-4.492-.649-6.736-.1-1.04-.2-2.081-.338-3.116-.26-1.918-.574-3.829-.822-5.749-.2-1.568-.334-3.145-.51-4.716-.214-1.912-.453-3.821-.661-5.734-.085-.781-.08-1.572-.179-2.35-.2-1.553-.465-3.1-.653-4.65-.2-1.652-.309-3.315-.516-4.966q-.457-3.638-1-7.264c-.178-1.194-.388-2.388-.673-3.561-.335-1.382-.745-2.747-1.165-4.107a1.688,1.688,0,0,0-1.409-1.285c-2.386-.3-4.772-.61-7.167-.83-1.951-.179-3.913-.246-5.87-.345-2.4-.122-4.8-.24-7.207-.332-2.035-.078-4.071-.124-6.108-.17-2.843-.064-5.685-.127-8.528-.166q-7.394-.1-14.789-.169c-5.514-.059-11.028-.106-16.541-.17-3.872-.045-7.744-.13-11.617-.154-1.479-.009-2.959.1-4.438.157-1.452.055-2.9.116-4.355.165-1.813.061-3.627.1-5.44.171-1.063.039-2.124.107-3.186.164-3.075.166-6.15.326-9.224.5-1.6.093-3.192.209-4.786.333q-4.161.322-8.321.668c-1.879.156-3.77.244-5.632.521-2.389.355-4.751.888-7.13,1.309a11.158,11.158,0,0,0-7.588,4.392,4.576,4.576,0,0,0-1.161,2.4,49.757,49.757,0,0,0,.929,5.766c.274,1.555.607,3.1.821,4.664.276,2.015.45,4.044.685,6.065a12.415,12.415,0,0,0,.357,2.108c.093.313.5.776.742.763,1.579-.085,3.15-.322,4.729-.432,2.177-.151,4.359-.235,6.539-.343,1.229-.061,2.458-.114,3.687-.167,2.6-.113,5.194-.235,7.792-.331q3.011-.111,6.024-.167,5.6-.1,11.2-.167c1.864-.021,3.728,0,5.759,0m-65.866,19.117c-.056.06-.154.116-.161.181-.175,1.794-.474,3.589-.481,5.385-.018,4.756-.226,9.518.609,14.253a14.877,14.877,0,0,0,3.016,6.683,1.326,1.326,0,0,0,.8.445c.833.107,1.677.123,2.516.187a15.144,15.144,0,0,1,1.766.174c1.564.307,3.115.682,4.68.985a4.875,4.875,0,0,1,3.167,1.637c.4.513.875.969,1.29,1.472,1.007,1.221,2,2.454,3,3.681.1.118.206.224.31.336a1.583,1.583,0,0,0,.184-.423c.177-1.543.263-3.1.525-4.63a4.141,4.141,0,0,1,3.7-3.863c2.5-.456,5.045-.636,7.578-.861,1.528-.135,3.068-.154,4.6-.176,4.874-.07,9.748-.151,14.621-.16,3.288-.007,6.576.09,9.864.16,1.063.023,2.124.106,3.186.162,2.124.111,4.248.3,6.372.319,5.453.046,10.907.024,16.36.005a1.607,1.607,0,0,0,1.731-1.166c.336-1.257.671-2.518.9-3.8a21.305,21.305,0,0,1,.228-2.585c.292-.915-.06-1.009-.76-.954a1.979,1.979,0,0,1-1.889-.871,4.637,4.637,0,0,1-.885-2.8q.1-3.1.33-6.205c.118-1.6.29-3.206.5-4.8.239-1.81.541-3.611.828-5.415.269-1.695.533-3.391.841-5.079a2.558,2.558,0,0,0-1.091-2.7,10.8,10.8,0,0,0-2.222-.672c-2.275-.377-4.558-.718-6.846-1.007-2.128-.269-4.262-.521-6.4-.661-2.732-.179-5.471-.3-8.208-.332-2.508-.029-5.018.1-7.526.147a16.361,16.361,0,0,1-1.7-.007c-.958-.08-1.912-.312-2.867-.308-3.733.013-7.466.089-11.2.151-2.871.048-5.741.162-8.612.154-4.957-.014-9.915-.116-14.872-.145-1.451-.009-2.9.1-4.355.158-1.146.049-2.291.106-3.437.167-.951.05-1.905.076-2.852.173-1.657.172-3.295.442-4.909-.321a.821.821,0,0,0-1.235.73c-.06,1.4-.1,2.792-.172,4.188-.039.813-.079,1.627-.17,2.434-.2,1.8-.439,3.6-.662,5.567m146.091,8.682c0-.757.075-1.447,1.094-1.425a.507.507,0,0,0,.28-.121c.721-.546,1.449-1.085,2.147-1.66a.785.785,0,0,0,.3-.593c-.2-.882-.469-1.749-.723-2.618-.246-.843-.555-1.671-.745-2.526-.166-.749-.455-.979-1.218-.7a7.607,7.607,0,0,1-4.4.579c-1.173-.259-1.868-1.041-1.475-2.206a23.742,23.742,0,0,1,1.083-2.638c.249-.521.149-.723-.395-.878-1.241-.353-2.453-.811-3.7-1.129a14.6,14.6,0,0,0-2.524-.349c-.464-.034-.784.086-.6.762a3.319,3.319,0,0,1-2.011,3.555,4.724,4.724,0,0,0-2.068.665.815.815,0,0,1-.616.04,6.7,6.7,0,0,1-3.769-3.288c-.853-1.341-1.275-1.725-2.3-1.388-2.078.687-4.141,1.42-6.2,2.146-.9.316-1.148.848-.646,1.619.621.955,1.359,1.834,2.05,2.744s.76,1.583.34,2.263a2.7,2.7,0,0,1-2.731,1.358c-1.455-.383-2.908-.778-4.37-1.136-.987-.242-1.308-.018-1.53.961-.207.916-.432,1.827-.621,2.747-.366,1.789-.843,3.582.084,5.355.129.246.144.693.314.752a10.509,10.509,0,0,0,2.56.924,2.926,2.926,0,0,1,1.8,1.108c.82,1.079-1.061,1.68-.694,2.8.038.117-.341.4-.555.562-.114.089-.3.087-.435.151a2.294,2.294,0,0,0-.746.4,17.093,17.093,0,0,0-1.412,1.751.973.973,0,0,0-.109.8c.34.805.785,1.566,1.144,2.364.738,1.641,1.438,3.3,2.18,4.939.071.157.377.36.5.319,2.053-.68,4.093-1.4,6.139-2.1a.955.955,0,0,1,1.358.888,12.1,12.1,0,0,1-1.3,4.548c-.248.35-.547.665-.822,1,.32.236.625.495.962.7,1.281.8,2.545,1.631,3.875,2.338.522.278,1.144.674,1.787-.109,1.162-1.414,2.505-2.679,3.676-4.087.587-.706,1.519-1.256,1.389-2.443-.025-.231.449-.641.771-.762a2.957,2.957,0,0,1,2.586.959c.158.235.221.569.427.732.787.622,1.6,1.215,2.439,1.767a.868.868,0,0,0,.773.052c1.549-1.051,3.07-2.141,4.589-3.234.143-.1.341-.371.3-.443-.146-.258-.391-.663-.584-.655a.729.729,0,0,1-.806-.714c-.163-1.031-.278-2.073-.341-3.115a1.174,1.174,0,0,1,1.378-1.365c1.208.111,2.4.4,3.607.535.533.062,1.417.144,1.57-.118a14.7,14.7,0,0,0,1.42-3.321c.392-1.354.582-2.767.862-4.154.294-1.46.291-1.451-1.078-2.147a11.8,11.8,0,0,1-2.5-1.385,14.83,14.83,0,0,1-1.767-2.368m-49.838-6.762c-1.2.079-1.252.133-1.252,1.245,0,3.143.01,6.285-.008,9.428,0,.728-.128,1.455-.152,2.184-.022.65.2,1.11.989,1,.5-.068,1.01-.123,1.516-.168,1.316-.117,2.632-.239,3.95-.332,2.516-.178,5.035-.331,7.551-.511a9.682,9.682,0,0,0,1.158-.221c-.329-.177-.656-.356-.987-.53-.362-.191-.74-.559-1.088-.533-1.393.1-1.932-.324-1.556-1.566.613-2.021.51-4.118.818-6.168a24.981,24.981,0,0,1,.491-2.719c.238-.891.615-1.745.92-2.62.025-.07-.042-.172-.066-.259a13.813,13.813,0,0,0-1.918.6,12.267,12.267,0,0,1-4.513.976c-1.891.133-3.791.13-5.854.185m-77.887-46.332c.738-.362,1.481-.715,2.212-1.091a4.7,4.7,0,0,0,.6-.437c-.246-.075-.509-.248-.737-.21-1.967.327-3.933.665-5.887,1.062-.5.1-.752.449-.376,1.02.337.512.544,1.108.856,1.639.229.39.47.588.93.118.713-.73,1.539-1.351,2.4-2.1m126.807,41.991.718-.451-.578-.857c-.074.3-.155.6-.219.9a.668.668,0,0,0,.08.412m-56.683-11.938c.337.053.673.109,1.012.148.019,0,.054-.145.082-.223A5.163,5.163,0,0,0,920.052,338.029Z" transform="translate(-688.795 -250.799)"></path><path d="M1580.375,477.2c-1.284-.056-2.485-.107-3.686-.168a1.827,1.827,0,0,1-1.77-1.248,2.071,2.071,0,0,1,.558-2.162,3.448,3.448,0,0,1,2.73-1.122,26.424,26.424,0,0,0,4.679-.189,16.917,16.917,0,0,1,2.954-.5c.259.006.521-.113.781-.115,2.142-.01,4.284.016,6.425-.012s4.293-.1,6.439-.161c1.98-.053,3.961-.084,5.938-.175,1.43-.066,2.855-.254,4.285-.31a2.3,2.3,0,0,1,2.057,1.151c.972,1.468-.333,2.939-2.112,3.183-1.463.2-2.917.474-4.374.714a23.751,23.751,0,0,1-2.737.43c-3.345.152-6.693.254-10.041.346-2.841.078-5.684.107-8.525.176C1582.8,477.067,1581.631,477.146,1580.375,477.2Z" transform="translate(-1311.885 -392.392)"></path><path d="M1459.9,389.547a3.324,3.324,0,0,1-2.674,1.695c-1.758.229-3.528.368-5.3.511-1.114.09-2.233.155-3.35.167-6.454.068-12.908.138-19.362.156a33.712,33.712,0,0,1-4.113-.329,2.412,2.412,0,0,1-2.063-2.511,2.192,2.192,0,0,1,2.335-1.811c.673.014,1.344.156,2.016.151q9.473-.063,18.945-.165c1.618-.018,3.234-.111,4.851-.16,2.062-.062,4.124-.158,6.185-.141a4.2,4.2,0,0,1,1.847.541A1.631,1.631,0,0,1,1459.9,389.547Z" transform="translate(-1185.444 -322.478)"></path><path d="M1049.336,404.207c-2.521.1-5,.145-7.479.212-1.451.039-2.9.1-4.351.166-2.206.1-4.411.234-6.618.325a2.219,2.219,0,0,1-1.026-4.248,7.16,7.16,0,0,1,1.927-.568,27.2,27.2,0,0,1,2.847-.182c2.089-.069,4.18-.109,6.269-.173,1.4-.043,2.79-.1,4.184-.166,2.29-.105,4.578-.239,6.868-.327,2.117-.081,4.237-.185,6.352-.137a5.16,5.16,0,0,1,2.359.7,1.743,1.743,0,0,1-.311,3.079,11.612,11.612,0,0,1-2.817.833,25.718,25.718,0,0,1-3.013.191C1052.812,404,1051.094,404.081,1049.336,404.207Z" transform="translate(-856.855 -332.462)"></path><path d="M1436.589,484.86c2.556,0,5.031-.06,7.5.029a5.245,5.245,0,0,1,2.979.633,2.111,2.111,0,0,1,1.055,1.413c.207,1.206-1.05,1.938-1.985,2.1a67.813,67.813,0,0,1-13.14.644c-1.264-.034-2.6-.09-3.588-1.2a1.989,1.989,0,0,1-.405-2.1,2.2,2.2,0,0,1,1.736-1.356.436.436,0,0,1,.083,0C1432.717,484.971,1434.611,484.915,1436.589,484.86Z" transform="translate(-1190.305 -403.891)"></path><path d="M1281.634,388.471c2.8-.153,5.559-.3,8.319-.348a3.428,3.428,0,0,1,1.922.539c1.31.925,1.161,2.426-.326,3.247a7.035,7.035,0,0,1-2.559.832c-2.31.254-4.633.419-6.955.5a3.064,3.064,0,0,1-2.407-.818,2.224,2.224,0,0,1,.463-3.317C1280.561,388.855,1281.089,388.708,1281.634,388.471Z" transform="translate(-1065.528 -323.321)"></path><path d="M1689.081,388.958a24.741,24.741,0,0,1,3.2.533,1.8,1.8,0,0,1,1.313,1.561,1.893,1.893,0,0,1-1.169,2.044,9.235,9.235,0,0,1-2.978.836,25.659,25.659,0,0,1-4.416.007c-1.182-.094-2.435-.071-3.424-.992a1.813,1.813,0,0,1-.686-1.875,2.105,2.105,0,0,1,1.774-1.6c1.31-.166,2.631-.24,3.948-.346C1687.431,389.063,1688.214,389.013,1689.081,388.958Z" transform="translate(-1400.222 -324.017)"></path><path d="M1086.462,604.976a6.8,6.8,0,0,1-2.28,8.315,6.606,6.606,0,0,1-8.137-.026,2.574,2.574,0,0,0-.806-.464,2.856,2.856,0,0,1-2.06-2.69c-.181-1.571-.511-3.183.291-4.728a7.656,7.656,0,0,1,2.444-2.974,9.1,9.1,0,0,0,1.525-1.525,3.949,3.949,0,0,1,5.334-.6,10.678,10.678,0,0,1,3.688,4.687m-5.051,4.466-.785,1.052c.721.352.877-.5,1.365-.667.114-.039.111-.421.162-.645A3.658,3.658,0,0,1,1081.412,609.442Z" transform="translate(-893.815 -499.421)"></path><path d="M1227.677,597.854c2.943,1.48,4.046,4.092,4.479,7.053a12.18,12.18,0,0,1-.007,3.688,5.891,5.891,0,0,1-4.594,4.475,6.263,6.263,0,0,1-3.936-.468,6.829,6.829,0,0,1-3.616-4.559,6.329,6.329,0,0,1,1.157-5.54,15.454,15.454,0,0,1,2.728-2.785c.473-.4,1.119-.541,1.52-1.142.494-.742,1.353-.787,2.268-.723m-1,10.769.283.552.688-.75c-.242.038-.483.078-.725.113A.478.478,0,0,0,1226.675,608.624Z" transform="translate(-1016.121 -498.019)"></path><path d="M931.6,604.837c2.662-.236,4.24,1.285,5.491,3.216a8.085,8.085,0,0,1,1.528,5.2,6.743,6.743,0,0,1-4.91,5.975c-2.61.679-5.692-1.289-6.69-3.636a8.106,8.106,0,0,1,.27-7.257,6.734,6.734,0,0,1,1.712-1.947A4.763,4.763,0,0,1,931.6,604.837Z" transform="translate(-771.64 -503.832)"></path><path d="M1587.873,635.6a10.848,10.848,0,0,1,6.506-3.912,10.344,10.344,0,0,1,6.559.464,10.774,10.774,0,0,1,4.368,3.99,8.873,8.873,0,0,1,1.253,6.382,7.663,7.663,0,0,1-1.294,2.782,10.033,10.033,0,0,1-5.791,4.718,11.138,11.138,0,0,1-7.258-.058,7.247,7.247,0,0,1-3.294-2.885,16.221,16.221,0,0,1-2.281-5.881,6.534,6.534,0,0,1,1.232-5.6m3.548,1.461a19.759,19.759,0,0,0-.871,1.89c-.386,1.118-.834,2.3-.132,3.421a35.067,35.067,0,0,0,2.288,3.141c1.73,2.186,6.046,1.832,7.338-.489a2.553,2.553,0,0,1,2.494-1.4c.23.019.6-.31.722-.565a4.926,4.926,0,0,0,.353-3.554,8.822,8.822,0,0,0-3.1-4.544,5.8,5.8,0,0,0-3.1-.976,2.107,2.107,0,0,0-2.426.977c-.128.24-.506.35-.773.512C1593.334,636.008,1592.161,636.026,1591.421,637.058Z" transform="translate(-1321.596 -525.952)"></path></g></g></svg>