<svg xmlns="http://www.w3.org/2000/svg" width="59" height="59" viewBox="0 0 59 59">
  <g id="Group_17698" data-name="Group 17698" transform="translate(-552 -2181)">
    <g id="Rectangle_5481" data-name="Rectangle 5481" transform="translate(552 2181)" stroke="#151515" stroke-width="2">
      <rect width="59" height="59" rx="7" stroke="none"/>
      <rect x="1" y="1" width="57" height="57" rx="6" fill="none"/>
    </g>
    <g id="Group_17677" data-name="Group 17677">
      <path id="Path_28183" data-name="Path 28183" d="M98.171,136.454a15.664,15.664,0,0,0,15.77-15.77c0-.241,0-.483-.011-.713a11.355,11.355,0,0,0,2.77-2.874,11.25,11.25,0,0,1-3.184.874,5.539,5.539,0,0,0,2.437-3.069,11.224,11.224,0,0,1-3.517,1.345,5.546,5.546,0,0,0-9.586,3.793A5.079,5.079,0,0,0,103,121.3a15.723,15.723,0,0,1-11.425-5.793A5.54,5.54,0,0,0,93.3,122.9a5.445,5.445,0,0,1-2.506-.69v.069a5.549,5.549,0,0,0,4.448,5.437,5.525,5.525,0,0,1-1.46.2,5.292,5.292,0,0,1-1.046-.1,5.534,5.534,0,0,0,5.172,3.851,11.142,11.142,0,0,1-6.885,2.368,10.077,10.077,0,0,1-1.322-.08,15.442,15.442,0,0,0,8.471,2.506" transform="translate(478.3 2085.5)" fill="#fff" stroke="#fff" stroke-width="1"/>
    </g>
  </g>
</svg>
