<svg xmlns="http://www.w3.org/2000/svg" width="132.081" height="84.488" viewBox="0 0 132.081 84.488"><defs><style>.a{fill:#5cd38d;}.b{fill:#fff;}</style></defs><g transform="translate(-552 -1118.512)"><path class="a" d="M3418.278-2399.843s2.265,13.158,9.511,18.345a23.652,23.652,0,0,0,14.645,4.5s7.073-.656,10.473-2.8,7.343-3.966,10.208-8.7,4.06-15.105,1.573-20.167a79.816,79.816,0,0,0-4.561-8.181l-6.443-5.635a14.889,14.889,0,0,0-13.358-2.263c-8.13,2.28-11.9,5.143-11.9,5.143s-6.8,6.078-7.806,9.935c-.366,1.4-1.6,4.971-1.6,4.971Z" transform="translate(-2783 3577)"></path><path class="b" d="M3422.549-2399l5.681-8.348,7.289,4.414a3.447,3.447,0,0,0,4.876-.856c2.281-2.816,13.327-14.391,13.327-14.391s4.845,3.666,5.074,5.327-20.565,26-20.565,26l-14.478-10.372Z" transform="translate(-2783 3577)"></path><path d="M105.9,1.948c1.061.118,2.077.237,3.093.355.523.06,1.045.123,1.569.177a10.968,10.968,0,0,1,3.913.952,8.505,8.505,0,0,1,2.188,1.148,5.533,5.533,0,0,1,1.559,2.949,26.014,26.014,0,0,1,.533,3.417,20.227,20.227,0,0,1,.08,3.51c-.134,1.553-.414,3.1-.694,4.633-.316,1.739-.719,3.462-1.049,5.2-.187.982-.3,1.977-.452,2.966-.145.945-.309,1.888-.439,2.835-.11.8-.17,1.614-.275,2.418-.067.514-.165,1.024-.265,1.532a.648.648,0,0,0,.421.741,16.679,16.679,0,0,1,4.2,2.52,54.515,54.515,0,0,1,4.879,4.281,13.091,13.091,0,0,1,2.421,3.391c.65,1.389,1.422,2.727,1.98,4.151a47.081,47.081,0,0,1,1.449,4.592,38.593,38.593,0,0,1,.962,4.124,19.739,19.739,0,0,1,.108,2.993,12,12,0,0,1-.089,1.6c-.133,1.048-.256,2.1-.47,3.135-.269,1.3-.6,2.587-.951,3.866a14.366,14.366,0,0,1-2.4,5.083,17.982,17.982,0,0,1-1.729,1.988,20.908,20.908,0,0,1-5.994,4.055,39.976,39.976,0,0,1-5.463,1.811c-1.513.422-3.018.884-4.549,1.227-1.179.264-2.393.38-3.593.547-.94.131-1.882.261-2.828.34-.194.016-.4-.2-.612-.3a1.441,1.441,0,0,0-.49-.2c-.815-.049-1.636-.026-2.447-.108-1.023-.1-2.037-.3-3.058-.427-.311-.04-.64.042-.945-.015a9.729,9.729,0,0,1-3.571-1.44c-1.466-.959-2.915-1.955-4.284-3.046a15.293,15.293,0,0,1-3.926-4.525,27.131,27.131,0,0,1-2.138-4.93,8.218,8.218,0,0,0-.717-1.564.832.832,0,0,0-.6-.359c-.712-.017-1.426.077-2.137.061-.79-.017-1.579-.109-2.368-.168-.044,0-.089,0-.133,0-.772-.029-1.544-.065-2.316-.087-1.216-.035-2.431-.06-3.647-.09s-2.4-.074-3.6-.086c-3.76-.037-7.521-.075-11.281-.086-1.778,0-3.556.06-5.334.081-2.828.035-5.657.07-8.485.085-.875,0-1.751-.06-2.626-.082-1.378-.035-2.757-.091-4.135-.077a2.954,2.954,0,0,0-1.988.532,10.1,10.1,0,0,0-1.13,1.293c-.567.694-1.119,1.4-1.677,2.1-.691.868-1.343,1.77-2.081,2.6-1.061,1.188-2.156,2.349-3.293,3.464a10.624,10.624,0,0,1-1.915,1.474,2.388,2.388,0,0,1-3.739-1.258,9.712,9.712,0,0,1-.613-2.764c-.06-.834-.127-1.667-.176-2.5-.067-1.159-.085-2.321-.188-3.476a18.844,18.844,0,0,0-.973-5.1,2.305,2.305,0,0,0-1.972-1.515c-1.189-.155-2.384-.281-3.581-.354-1.228-.074-2.461-.066-3.691-.1-.816-.023-1.638-.009-2.447-.1a9.168,9.168,0,0,1-3.307-.792A2.851,2.851,0,0,1,.71,58.254c-.093-1.2-.183-2.407-.174-3.61.022-2.654.133-5.307.154-7.96.01-1.218-.1-2.437-.167-3.655C.5,42.582.454,42.137.438,41.69.4,40.622.38,39.554.346,38.487q-.037-1.18-.089-2.36C.2,34.8.124,33.483.085,32.161c-.047-1.629-.1-3.26-.079-4.89.017-1.148.14-2.3.259-3.44.116-1.111.3-2.215.434-3.324.131-1.074.24-2.15.358-3.226.148-1.344.261-2.693.453-4.031A17.687,17.687,0,0,1,2.4,8.782c.377-.894.834-1.755,1.249-2.634a1.533,1.533,0,0,0,.281-1.071c-.162-.821.382-1.343,1.066-1.709A16.876,16.876,0,0,1,9.3,1.774c1.276-.285,2.554-.574,3.843-.79.914-.154,1.846-.21,2.773-.274C17.449.6,18.981.528,20.512.439c.476-.028.952-.076,1.428-.085C23.792.316,25.644.29,27.5.262,29.6.231,31.7.2,33.806.174,37.049.139,40.292.1,43.534.086Q53.591.031,63.648,0C65.323,0,67,.051,68.671.085c1.216.024,2.431.058,3.647.088q1.735.043,3.47.089,1.6.043,3.2.089,1.38.041,2.759.089Q83,.481,84.244.528c.8.029,1.6.056,2.4.089,1.366.057,2.733.113,4.1.178,1.071.051,2.141.114,3.211.177q1.384.082,2.767.178,1.832.127,3.662.267c1.059.082,2.116.175,3.174.265.671.057,1.342.116,2.012.18.094.009.185.056.321.086M83.259,50.905c.059-.154.114-.31.178-.462.369-.868.691-1.761,1.121-2.6a16.323,16.323,0,0,1,2.947-3.835c.844-.867,1.745-1.682,2.653-2.482,1.152-1.015,2.293-2.053,3.522-2.97a24.476,24.476,0,0,1,3.847-2.491,21.251,21.251,0,0,1,6.505-2.078c1.2-.158,2.393-.445,3.6-.507a14.012,14.012,0,0,1,4.968.407.365.365,0,0,0,.3-.2c.111-.685.2-1.374.277-2.063.1-.806.163-1.615.272-2.419.13-.962.291-1.92.44-2.879.12-.778.211-1.563.37-2.334.268-1.3.6-2.594.867-3.9s.505-2.639.708-3.966A28.435,28.435,0,0,0,116.174,13c.033-.815-.11-1.636-.157-2.456a13.513,13.513,0,0,0-.716-3.388.893.893,0,0,0-1.023-.68,23.908,23.908,0,0,1-2.622.517,31.986,31.986,0,0,1-3.475.184c-3.982-.005-7.964-.045-11.946-.082-1.793-.017-3.585-.053-5.378-.088-1.038-.021-2.076-.053-3.114-.088-1.618-.055-3.236-.111-4.853-.179-1.159-.048-2.318-.115-3.477-.176q-1.606-.085-3.211-.178c-.908-.054-1.815-.117-2.723-.177L70.8,6.032c-.922-.06-1.844-.122-2.767-.177-1.04-.063-2.081-.119-3.122-.178S62.8,5.557,61.745,5.5c-1.115-.061-2.229-.118-3.344-.178Q56.8,5.234,55.19,5.144c-1.026-.058-2.052-.114-3.078-.178-.863-.054-1.726-.119-2.59-.176q-1.405-.092-2.811-.177-1.539-.093-3.078-.178-1.694-.093-3.388-.178-1.738-.09-3.477-.177Q34.9,3.987,33.026,3.9c-1.292-.06-2.584-.122-3.877-.177-.86-.036-1.721-.063-2.582-.089-1.038-.032-2.076-.088-3.114-.083q-2.867.012-5.733.088c-1.086.028-2.171.1-3.255.178a11.627,11.627,0,0,0-1.419.215c-1.064.212-2.119.47-3.186.659a4.622,4.622,0,0,0-2.735,1.34,9.74,9.74,0,0,0-2.147,4.26,22.523,22.523,0,0,0-.455,2.653c-.137.954-.248,1.913-.357,2.871-.073.64-.105,1.284-.184,1.923-.136,1.109-.3,2.215-.439,3.323q-.188,1.478-.355,2.96c-.125,1.1-.316,2.208-.339,3.315-.037,1.762.028,3.526.075,5.289.038,1.4.119,2.791.172,4.187.064,1.691.113,3.383.181,5.075.048,1.2.125,2.407.173,3.61.042,1.067.084,2.135.085,3.2,0,1.023-.048,2.047-.084,3.07-.018.491-.07.981-.084,1.472-.037,1.289-.082,2.579-.084,3.869,0,.789.242,1.1.946,1.2,1.071.15,2.147.293,3.225.352,1.435.078,2.876.036,4.312.111,1.315.069,2.626.213,3.936.349a5.425,5.425,0,0,1,2.429.88,6,6,0,0,1,2.431,3.77,37.857,37.857,0,0,1,.72,4.317c.13,1.032.132,2.08.191,3.12s.1,2.053.186,3.077a8.449,8.449,0,0,0,.26,1.221c.043.179.112.3.318.117.481-.437,1.008-.828,1.455-1.3.851-.891,1.673-1.813,2.483-2.742s1.566-1.867,2.359-2.793c.956-1.116,1.9-2.241,2.9-3.32a3.647,3.647,0,0,1,1.091-.67,7.93,7.93,0,0,1,3.284-.517c1.39-.058,2.786.067,4.179.062,3.834-.014,7.669-.05,11.5-.085,2.34-.021,4.68-.069,7.02-.082.89,0,1.78.068,2.671.08,2.636.037,5.272.057,7.908.094,1.083.015,2.165.056,3.248.087,1.023.029,2.047.054,3.07.091.447.016.893.061,1.339.086q1.627.092,3.255.176c.231.012.371.012.257-.336a1.546,1.546,0,0,1,.474-1.72.642.642,0,0,0,.2-.476,11.933,11.933,0,0,1,.146-3.832,27.091,27.091,0,0,1,.771-3.14c.434-1.443.937-2.866,1.41-4.386m4.394-3.151a15.582,15.582,0,0,0-1.094,1.765,31.6,31.6,0,0,0-1.333,3.351c-.547,1.686-1.01,3.4-1.487,5.109a3.736,3.736,0,0,0-.273,1.512c.207,1.209.551,2.4.861,3.586a36.881,36.881,0,0,0,2.492,6.6,25.912,25.912,0,0,0,1.7,3.11,9.29,9.29,0,0,0,2.519,3.119c1.666,1.053,3.267,2.225,5,3.157a13.878,13.878,0,0,0,6.327,1.522c1.717.04,3.436-.041,5.155-.078a8.328,8.328,0,0,0,1.028-.089q1.733-.254,3.463-.531a25.441,25.441,0,0,0,7.817-2.119A15.487,15.487,0,0,0,125.773,73a9.822,9.822,0,0,0,1.57-2.719c.359-1.1.718-2.2,1-3.313.291-1.16.5-2.342.719-3.519.094-.5.132-1.014.181-1.523a11.249,11.249,0,0,0,.157-2.054,22.927,22.927,0,0,0-.518-2.975c-.334-1.483-.664-2.971-1.1-4.425a39.272,39.272,0,0,0-2.577-6.254,12.973,12.973,0,0,0-2.632-3.559c-1.052-1.011-2.244-1.874-3.336-2.846a15.989,15.989,0,0,0-3.893-2.61,1.935,1.935,0,0,0-1.587-.293,2.311,2.311,0,0,1-1.576-.068,15.588,15.588,0,0,0-2.635-.694,9.06,9.06,0,0,0-2.31.074c-1.31.164-2.624.342-3.912.623a17.43,17.43,0,0,0-5.728,2.228A36.394,36.394,0,0,0,91.419,43.9c-.487.484-1.018.925-1.494,1.418-.757.784-1.486,1.6-2.271,2.44M79.93,4.256c.21.03.418.076.629.086q2,.1,4.009.179c.9.037,1.809.077,2.714.087q4.84.056,9.681.091c.932.008,1.864,0,2.8,0,.1,0,.207,0,.311,0,.949.029,1.9.061,2.848.082.045,0,.092-.1.138-.148-.045-.037-.088-.1-.137-.107-.342-.038-.685-.08-1.028-.089-.508-.015-1.017.018-1.524-.009-.7-.038-1.4-.122-2.1-.17-.981-.068-1.962-.124-2.944-.179q-1.693-.095-3.388-.178c-.653-.033-1.307-.064-1.96-.088-.9-.034-1.81-.057-2.714-.091-.594-.023-1.188-.063-1.783-.086-1.588-.062-3.175-.119-4.763-.179-.727-.028-1.455-.062-2.182-.088-.919-.033-1.839-.058-2.759-.09-.8-.027-1.6-.061-2.4-.088-.934-.032-1.869-.059-2.8-.089-.9-.029-1.81-.063-2.714-.088q-1.845-.05-3.691-.089-2.222-.048-4.445-.089c-.044,0-.089,0-.133,0-1.171-.029-2.342-.061-3.513-.083-.05,0-.1.087-.152.134.055.042.107.114.166.121.342.04.684.075,1.028.092Q59,3.2,60.9,3.278c1.528.064,3.057.113,4.586.181,1.085.048,2.17.113,3.255.176.922.054,1.844.118,2.766.176l2.811.178c.952.06,1.9.128,2.855.175.889.043,1.78.062,2.759.092M83.88,66.44a1.081,1.081,0,0,0,.095.263c.032.047.117.058.179.085,0-.063.019-.143-.012-.186A.4.4,0,0,0,83.88,66.44Z" transform="translate(552 1118.512)"></path><path d="M163.093,449.722c.686-.059,1.326-.156,1.968-.171,2.117-.048,4.235-.083,6.353-.089,1.319,0,2.638.049,3.957.084.89.023,1.78.058,2.67.088q1.291.044,2.581.089,1.136.041,2.271.089,2,.086,4.009.178,1.739.082,3.477.177c1.041.056,2.081.117,3.122.177s2.051.126,3.077.176q2.048.1,4.1.177c1.067.04,2.135.064,3.2.09,1.319.032,2.638.057,3.957.09,1.023.026,2.046.063,3.07.087q2.178.051,4.357.088c.671.011,1.342-.008,2.012,0,1.216.022,2.432.04,3.646.095a6.268,6.268,0,0,1,1.461.219,1.7,1.7,0,0,1,1.237,1.712,7.1,7.1,0,0,1-1.051,4.35,3.743,3.743,0,0,1-2.213,1.428,12.388,12.388,0,0,1-3.49.366c-.328,0-.656.079-.984.077-.4,0-.8-.06-1.206-.08a2.047,2.047,0,0,0-1.383.317,1.847,1.847,0,0,1-1.015.2c-1.127,0-2.254-.035-3.38-.083-.8-.035-1.608-.115-2.412-.172-1.265-.09-2.53-.176-3.795-.267q-1.162-.084-2.323-.178c-1.073-.086-2.146-.173-3.218-.267-.94-.083-1.879-.181-2.819-.264-1.072-.094-2.145-.176-3.218-.269q-1.454-.126-2.907-.266c-1.164-.114-2.328-.238-3.492-.353-.386-.038-.774-.066-1.161-.089-1.04-.062-2.081-.118-3.122-.179-.967-.057-1.933-.123-2.9-.176-1.2-.065-2.407-.116-3.61-.18-1.011-.054-2.023-.106-3.033-.18s-2.03-.15-3.04-.269c-1.29-.152-2.574-.361-3.863-.522-.7-.087-1.4-.133-2.1-.18-.643-.043-1.288-.047-1.93-.1a1.323,1.323,0,0,1-1.123-1.046,1.385,1.385,0,0,1,.681-1.163.668.668,0,0,0,.386-.688c0-1.272.009-2.544-.005-3.816a1.014,1.014,0,0,1,.935-1.09,1.131,1.131,0,0,1,1.2.962c.01.073-.02.157.005.22.092.228.144.542.318.647s.461-.029.743-.057m25.965,5.593c.313.03.626.067.939.087,1.412.092,2.825.178,4.238.268.893.057,1.785.12,2.677.177q1.472.093,2.944.178c1.04.061,2.08.123,3.121.177,1.247.064,2.495.117,3.742.179,1.115.056,2.229.121,3.343.176,1.292.063,2.584.171,3.875.166q2.537-.01,5.072-.187a2.669,2.669,0,0,0,1.364-.527,2.727,2.727,0,0,0,.758-2.019c.013-.107-.164-.314-.287-.347a3.683,3.683,0,0,0-.891-.1c-2.65-.036-5.3-.058-7.95-.095-.964-.013-1.928-.06-2.892-.085-1.215-.033-2.431-.06-3.646-.09s-2.431-.051-3.646-.091q-2.315-.076-4.63-.178c-1.041-.046-2.081-.115-3.121-.175-1-.058-1.992-.119-2.988-.177q-1.583-.091-3.165-.178c-1.114-.061-2.228-.124-3.343-.177-1.38-.065-2.761-.121-4.142-.179q-1.135-.048-2.27-.089-1.224-.046-2.448-.089c-.86-.03-1.721-.065-2.581-.088-1.363-.035-2.726-.078-4.09-.084-.845,0-1.691.046-2.537.084q-1.694.078-3.387.177a.71.71,0,0,0-.644,1.136c.043.077.121.175.195.187.642.1,1.284.2,1.93.269.728.077,1.459.129,2.189.18,1.338.094,2.677.179,4.016.268.417.028.834.052,1.25.09,1.253.115,2.5.238,3.758.353.714.065,1.429.129,2.145.177,1.442.1,2.884.181,4.327.268,1.025.062,2.051.123,3.077.177C186.564,455.2,187.767,455.256,189.059,455.315Z" transform="translate(407.274 710.33)"></path><path d="M210.811,204.867a5.777,5.777,0,0,1-.857,2.689,2.511,2.511,0,0,1-2.139,1.009c-1.479.028-2.959.018-4.438,0-.89-.009-1.78-.053-2.671-.085-.742-.027-1.485-.059-2.227-.088-1.484-.059-2.969-.115-4.453-.179-1.248-.054-2.5-.117-3.743-.177q-1.827-.088-3.655-.178c-.476-.024-.952-.064-1.428-.087-1.322-.062-2.644-.112-3.965-.181-.864-.045-1.728-.1-2.589-.179-1.136-.1-2.269-.237-3.4-.35-.954-.095-1.909-.178-2.863-.268a17.787,17.787,0,0,0-1.879-.165c-1.071.015-2.142.094-3.21.178a.735.735,0,0,0-.435.31,1.273,1.273,0,0,1-1.284.653,1.826,1.826,0,0,1-1.039-1.326c-.159-1.154-.35-2.3-.559-3.451a2.3,2.3,0,0,1,.3-1.741,2.619,2.619,0,0,0,.353-.563,1.113,1.113,0,0,1,1.2-.648,10.779,10.779,0,0,0,1.346,0c.583-.036,1.164-.159,1.747-.164q3.573-.029,7.146,0c1.837.011,3.674.054,5.511.086q2.423.041,4.845.089,2.245.043,4.49.089c1.408.029,2.816.056,4.224.09,1.023.024,2.047.057,3.07.088.875.027,1.751.059,2.626.088.9.03,1.81.057,2.715.09.742.026,1.485.052,2.227.09,1.026.053,2.053.1,3.077.18.877.066,1.72.285,2.034,1.224a4.842,4.842,0,0,1,.16,1.571,6.872,6.872,0,0,1-.23,1.306M207.727,206c.133-.164.339-.31.386-.5.129-.515.179-1.05.284-1.572.111-.552-.019-.739-.575-.773-.922-.058-1.844-.127-2.767-.174-.845-.043-1.691-.062-2.537-.092q-1.224-.044-2.448-.089c-.742-.028-1.484-.06-2.226-.088-.8-.031-1.6-.065-2.4-.088-1.26-.035-2.52-.062-3.779-.09q-2.067-.046-4.134-.088c-1.674-.032-3.348-.059-5.022-.09-1.526-.028-3.052-.063-4.578-.087-2.162-.034-4.324-.074-6.486-.084-1.038,0-2.076.048-3.114.085a7.23,7.23,0,0,0-1.158.1.523.523,0,0,0-.306.375c-.043.365,0,.739-.019,1.107-.028.429.159.574.569.546,1-.069,1.992-.162,2.988-.168a23.1,23.1,0,0,1,2.367.168c1.4.137,2.806.3,4.21.438q1.607.155,3.218.266c1.069.074,2.14.125,3.21.18,1.247.063,2.5.119,3.743.179s2.495.12,3.743.177q2.026.092,4.053.177c.831.034,1.662.06,2.492.09.86.03,1.721.063,2.581.088,1.141.033,2.283.066,3.424.087.651.012,1.3.008,1.952,0C206.156,206.077,206.919,206.058,207.727,206Z" transform="translate(402.632 936.388)"></path><path d="M981.02,469.691c.435.346.859.657,1.257,1,.283.243.451.288.717-.066a23.067,23.067,0,0,1,1.624-1.9c.945-1.008,1.944-1.966,2.875-2.986.961-1.052,1.888-2.135,2.794-3.235,1.048-1.273,2.036-2.594,3.085-3.865,1.16-1.407,2.319-2.819,3.554-4.158a1.892,1.892,0,0,1,2.587-.289,10.76,10.76,0,0,1,3.05,2.966c.689.861,1.344,1.749,2.011,2.627.136.178.255.369.392.547a1.742,1.742,0,0,1-.159,2.214c-1,1.524-1.99,3.062-3.051,4.547-.954,1.336-1.99,2.613-3,3.906-1.131,1.443-2.284,2.868-3.416,4.311-1.356,1.728-2.679,3.484-4.056,5.2q-1.805,2.243-3.706,4.409a29.94,29.94,0,0,1-2.41,2.409,1.241,1.241,0,0,1-2.051-.227,4.244,4.244,0,0,0-1.288-1.123c-1.589-1.005-3.22-1.943-4.81-2.948-.957-.6-1.871-1.277-2.794-1.934-1.2-.854-2.393-1.724-3.589-2.586-1.025-.738-2.071-1.449-3.067-2.225a1.179,1.179,0,0,1-.429-1.347,6.335,6.335,0,0,1,.488-1.842c.5-.777.927-1.6,1.424-2.38.86-1.349,1.743-2.683,2.631-4.013a2.53,2.53,0,0,1,1.669-1.339,2.914,2.914,0,0,1,1.395.129,14.283,14.283,0,0,1,3.713,2.177c.845.671,1.693,1.339,2.563,2.031m-.644,2.641c-1.076-.868-2.129-1.766-3.234-2.6-.845-.634-1.747-1.2-2.642-1.76-.436-.275-.68-.185-.96.239q-1.351,2.037-2.705,4.072c-.453.684-.906,1.369-1.345,2.062-.093.146-.229.289.094.444a10.489,10.489,0,0,1,1.284.867c1.637,1.118,3.271,2.241,4.915,3.349,1.4.941,2.784,1.9,4.219,2.784a25.569,25.569,0,0,1,3.961,2.647c.236.214.436.25.679-.03.929-1.071,1.9-2.109,2.814-3.188.728-.855,1.413-1.748,2.106-2.632.708-.9,1.4-1.821,2.106-2.721.839-1.061,1.691-2.112,2.54-3.165,1-1.242,2.011-2.479,3.011-3.724.694-.864,1.416-1.709,2.056-2.612,1.009-1.422,1.956-2.887,2.936-4.328.449-.66.423-.739-.093-1.355-.645-.771-1.218-1.6-1.865-2.372-.506-.6-1.07-1.157-1.624-1.717-.172-.174-.33-.181-.511.08-.308.446-.688.842-1.038,1.26-.764.911-1.6,1.775-2.277,2.744a72.548,72.548,0,0,1-5.6,6.9c-1.1,1.215-2.264,2.374-3.38,3.575-.517.557-.965,1.178-1.484,1.732-.838.9-1.49,1.255-2.619.428C981.286,473,980.853,472.69,980.376,472.331Z" transform="translate(-329.228 704.986)"></path></g></svg>