<svg xmlns="http://www.w3.org/2000/svg" width="48" height="48" viewBox="0 0 48 48"><g id="voice-api" transform="translate(-1057 -1346)" opacity="0.388"><circle id="Ellipse_7" data-name="Ellipse 7" cx="24" cy="24" r="24" transform="translate(1057 1346)" fill="#00b1a3"></circle><path id="voice2" d="M23.046,16.226A3.764,3.764,0,0,0,26.8,12.454l.012-7.543a3.771,3.771,0,1,0-7.543,0v7.543a3.776,3.776,0,0,0,3.771,3.771Zm7.65-3.771a1.068,1.068,0,0,0-1.051.924,6.712,6.712,0,0,1-13.2,0,1.068,1.068,0,0,0-1.054-.924h0A1.071,1.071,0,0,0,14.341,13.7a8.872,8.872,0,0,0,7.448,7.2v2.865a1.256,1.256,0,0,0,1.256,1.256h0A1.256,1.256,0,0,0,24.3,23.769V20.9a8.867,8.867,0,0,0,7.445-7.2A1.071,1.071,0,0,0,30.7,12.455Z" transform="translate(1058.356 1357.034)" fill="#fff"></path></g></svg>