<svg xmlns="http://www.w3.org/2000/svg" id="Layer_1" data-name="Layer 1" viewBox="0 0 570 380"><defs><style>.cls-1{fill:#e9adcb;}</style></defs><path d="M422.85,273.54a9.57,9.57,0,0,1-1.62-.41c-2.48-1.07-4.87-2.41-7.43-3.23-10.9-3.49-20.77-8.74-29.15-16.62a13,13,0,0,0-2.33-1.7,69.09,69.09,0,0,1-19-16.69c-1.85-2.33-3.78-4.6-5.51-7-5-7-11.28-12.89-17.3-19a6.06,6.06,0,0,0-2.47-1.56c.48.76,1,1.51,1.44,2.31,1.51,2.85,3.13,5.65,4.43,8.59a15.39,15.39,0,0,1,0,11.79c-1.94,5.29-6.22,7.58-11.48,8.29A18.91,18.91,0,0,1,319,234.88c-1.3-.88-2.53-1.87-4.19-3.1a7.56,7.56,0,0,0,.57,1.62c4,5.64,7.76,11.45,12.49,16.52A294.58,294.58,0,0,1,347.71,274c1.24,1.64,2.37,3.35,3.55,5a213.86,213.86,0,0,0,15.82,20.56c3.06,3.41,5.37,7.55,7.63,11.59a393.75,393.75,0,0,0,21.76,35.26A81.35,81.35,0,0,0,412.85,364a29.15,29.15,0,0,1,4.11,3.65c3.14,3.62,7.31,5.29,11.72,6.6a8.68,8.68,0,0,1,1.27.28,1,1,0,0,1,.52.76c0,.25-.36.57-.64.68a1.8,1.8,0,0,1-1,0,29.53,29.53,0,0,1-6.36-2c-10.61-5.57-19.13-13.43-26.26-22.94-2.72-3.65-5.56-7.21-8.33-10.81a10.05,10.05,0,0,1-.64-1.24,16,16,0,0,0-.91,1.92,10.62,10.62,0,0,1-5.59,6.93c-1,.54-2,1.16-3,1.6-5.15,2.18-10.29,4.37-15.49,6.44a31.36,31.36,0,0,1-12,2.19c-6-.08-10.79-2.6-13.72-7.74a103.46,103.46,0,0,1-5.64-12.67c-1.07-2.67-1.26-5.82-2.8-8.13s-4.26-3.55-6.31-5.44c-2.76-2.55-5.47-5.18-8-7.94-5.46-6-6.69-12.89-4.11-20.47a80.14,80.14,0,0,1,3.31-8,4.77,4.77,0,0,0,.36-3.72c-.83-2.75-1.48-5.57-2.07-8.38a2.51,2.51,0,0,0-1.25-1.82c-5-3.14-9.05-7.43-13-11.76a16.32,16.32,0,0,1-3.88-16.33c2-7,4.17-13.88,6.29-20.81a13.33,13.33,0,0,1,1-2.72c1.38-2.46.61-4.29-1.2-6.26-6.57-7.14-13-14.41-19.5-21.62-.23-.26-.5-.48-.95-.9-.81.35-1.68.7-2.52,1.1-3.47,1.66-7,3.25-10.38,5-8.09,4.25-16.81,5.74-25.82,6-.87,0-1.74,0-2.62.07a2.23,2.23,0,0,0-.53.2c-.85,2.33-1.72,4.7-2.57,7.07a1.67,1.67,0,0,1-2.17,1.27c-3.55-.69-6.37,2.26-5.73,5.93a31,31,0,0,0,.85,3.07,38.1,38.1,0,0,1-14.65,8.24c-.28-.57-.6-1.16-.85-1.77-1-2.34-2-3.14-4-3a4.75,4.75,0,0,0-4.64,3.58c-.22.72-.39,1.47-.59,2.23a35.06,35.06,0,0,1-15.53-4.5c.18-.74.38-1.48.55-2.21.81-3.6-2-6.29-5.49-5.35-3.27.88-3.42,1-5.18-1.87a88,88,0,0,1-4.34-8.35,12.89,12.89,0,0,1-.61-2.85c2.48-1,4.44-2.58,4.28-5.19-.19-3.14-3.14-3.54-5.6-4.27a35.39,35.39,0,0,1,4.76-15.93c-1.69-2-3.35-4-5.06-6a73.93,73.93,0,0,1-15.13-28.78,67.11,67.11,0,0,1-2.45-16.56,158,158,0,0,1,1.47-28.51c.8-5,2.95-9.46,5.47-13.77,1.36-2.34,2.84-4.62,4.23-6.94,13.35-22.27,32.74-35.93,58.42-39.9a80.9,80.9,0,0,1,89.28,54.39,83.69,83.69,0,0,1,3.69,36.26,122.65,122.65,0,0,1-3,18.59,72.33,72.33,0,0,1-13,26.11c-1,1.31-2.18,2.49-3.38,3.85,3,4.52,7,8,10.8,11.7s7.7,7.14,11.55,10.69l-.44.65c.62-.27,1.25-.52,1.86-.81a16.35,16.35,0,0,1,14.45-.36,42.38,42.38,0,0,1,8,4.5c3.31,2.53,6.93,2.58,10.69,2.27,2.34-.2,4.68-.6,7-1A22.32,22.32,0,0,1,372,209.78c2.86,1.11,5.7,2.24,8.49,3.48,6.37,2.82,13.17,4.09,19.88,5.68,3.23.77,6.43,1.69,9.63,2.56a32.84,32.84,0,0,1,20,15.17c2.83,4.63,5.65,9.27,8.38,14a57.28,57.28,0,0,0,6.41,8.61c2.91,3.36,5.67,6.89,8.26,10.51,10.44,14.63,22.15,28.19,34.13,41.55,6,6.71,11.81,13.61,17.58,20.54a200.06,200.06,0,0,0,17.66,19c2.3,2.13,4.87,4,7.29,6a8.49,8.49,0,0,1,1.94,2.29c-1.89,0-3.22-1.1-4.64-2-9.69-6.31-17.69-14.5-25.55-22.87-10.73-11.42-21.47-22.83-31.27-35.06-6.51-8.11-12.72-16.49-18.75-25-4.26-6-7.88-12.39-12-18.47-3.78-5.56-7.62-11.11-11.86-16.33a45.78,45.78,0,0,0-8.51-7.74A78.67,78.67,0,0,0,401.38,222c-9.26-3.71-19-5.37-28.69-7.19-7.13-1.33-14.32-2.36-21.48-3.5-1-.17-2.07-.19-3.51-.32a9.93,9.93,0,0,0,1,1.38,165.26,165.26,0,0,1,19.8,21.34,159,159,0,0,0,17.92,18.78,11.68,11.68,0,0,0,2.59,1.75c3,1.56,6,3.18,9.17,4.52,8,3.42,15.37,7.95,22.9,12.21C421.91,271.44,423.07,271.84,422.85,273.54ZM298,74.57l-1-1.88-.48.34,1.53,1.49c.28,1.51,1.34,2.45,2.19,3.54l.55-.42C299.87,76.62,298.94,75.59,298,74.57Zm-65.16,117,.26.64c.84,0,1.69,0,2.53,0a61.48,61.48,0,0,0,20.3-3.67c26.35-9.68,41.87-28.51,46.67-56.11,1.07-6.14,1.43-12.4-.48-18.47-2.11-6.74-4-13.61-6.9-20a56.78,56.78,0,0,0-17.46-22.61c-3.06-2.33-6-4.82-9.09-7.12-4.06-3-8.18-6-13.06-7.65a63.45,63.45,0,0,0-39.94-.58c-9.29,2.91-17.13,8.26-24.63,14.15-2.92,2.29-5.29,5.31-7.89,8a63.43,63.43,0,0,0-16.37,28.81c-.44,1.77-1.5,3.46-1.59,5.23a122.14,122.14,0,0,0,.67,22.78,62.17,62.17,0,0,0,16.66,34.92c.64.68,1.34,1.31,2,2,3.13-1.77,6-3.68,9.39-4.33a28.2,28.2,0,0,0,1.89,2.64c2.08,2.3,5,2,6.57-.65a13.48,13.48,0,0,0,.79-1.93c.66-1.69.93-1.86,2.7-1.72.61.05,1.22.08,1.82.17A31.21,31.21,0,0,1,219,169.52a4.36,4.36,0,0,1,.1.91c-.41,4.19,1.51,6.13,5.59,5.66a9,9,0,0,0,1-.15,2.91,2.91,0,0,1,3.19,1.18,34,34,0,0,1,6.56,11.59Zm4.44,9.62c1,0,1.72,0,2.48,0a71.48,71.48,0,0,0,19-3.64c29.26-10.27,47.16-30.64,53.81-60.87a41.93,41.93,0,0,0,1-14.06A190.37,190.37,0,0,0,309,100a65,65,0,0,0-4-11.62,88.58,88.58,0,0,0-18.63-25.84c-5-5-10.57-9.42-17.41-11.92a118.6,118.6,0,0,0-21.74-5.74c-9.08-1.48-18-.77-26.86.86-7.75,1.43-14.91,5-21.94,8.47-5.08,2.52-9.88,5.62-14.82,8.43A42.56,42.56,0,0,0,169.8,75.31c-12.22,17.37-17.09,36.6-14.16,57.67,2.54,18.25,10.71,33.68,23.92,46.48.59.58,1.26,1.07,2,1.66,1.49-1.91,2-3.63.83-5.58-.21-.36-.47-1-.31-1.21.81-1.33-.15-2.08-.83-2.94-1.09-1.38-2.2-2.73-3.26-4.12-15.4-20.35-19.87-42.85-11.93-67.14C177.81,64,215.34,44,252.08,53.61c27.64,7.21,48.83,31.27,52.27,59.48.5,4.07.34,8.22.74,12.3a41,41,0,0,1-1.21,14.81,92.8,92.8,0,0,1-14.56,30.62,25.33,25.33,0,0,1-4.83,4.76,128.55,128.55,0,0,1-20.1,12.8c-4.95,2.6-9.9,5.24-15.53,6.15a72.22,72.22,0,0,1-14.4.41c-.65,0-1.31,0-2.06,0,.47,2.85,3,2.82,4.71,3.71Zm-37.6,29.42c.36-4.61,2.84-6.55,6.65-7.06,3.63-.48,6.79.31,9,3.63l8.77-3.87c-.61-3.25-1.48-6.37.39-9.32s5-3.86,8.53-4.1c.49-2,1-3.91,1.47-5.84a3.4,3.4,0,0,0-1.64-4.21,14.69,14.69,0,0,1-2.55-2.25,5.34,5.34,0,0,1-1.66-5,39.7,39.7,0,0,1,2.12-5.33c-.38-1.27-.94-3-1.41-4.78a2.43,2.43,0,0,0-2.42-2,35.92,35.92,0,0,1-4.15-.52c-3.89-.77-5.59-2.65-6-6.54,0-.34,0-.7,0-1.05a2.25,2.25,0,0,0-2-2.39c-1.61-.42-3.2-.89-4.78-1.38a3.29,3.29,0,0,0-3.95,1.2,20.77,20.77,0,0,1-2.68,2.87c-3.09,2.68-7.18,3.39-10.26-.68-.2-.27-.46-.5-.87-.94l-6.51,4.23c0,2.42.2,4.35-.17,6.16-.55,2.73-2.75,3.94-5.52,3.45l-3.09-.53c-1.58,4-2.94,7.9-2.92,12.19l2.35,1c4,1.68,4.92,5.23,2.22,8.66-.7.89-1.48,1.72-2.25,2.56a2.29,2.29,0,0,0-.37,2.87c.95,1.85,1.79,3.76,2.66,5.62,8.72.78,10.62,2.41,12.54,10.9Zm169.36,78.9c-3,2.5-3.35,2.65-6.72,3.1a69.21,69.21,0,0,1-16.21.26,15,15,0,0,1-4.58-1c-4.78-2.14-9.6-4.23-14.16-6.78-4.9-2.74-8.75-6.63-10.6-12.18a35.43,35.43,0,0,0-1.69-3.65c-2.27,2.67-3.33,5.38-3.06,8.47a28.12,28.12,0,0,0,1,5.92c3.19,10.25,9.4,18.43,17.58,25.22a26.64,26.64,0,0,0,12.52,5.67c3,.53,6.06.76,9.1,1.1,1.52.17,3.06.28,5.05.45-1-1.37-1.73-2.3-2.33-3.32-2.36-3.95-1.11-7.75,3.24-9.25a37,37,0,0,1,7.39-1.6c3.25-.4,6.55-.48,10.29-.73C373.54,317.15,371.35,313.43,369.05,309.5Zm-55.78-34.26A95.42,95.42,0,0,0,317,288.11a22.61,22.61,0,0,0,4.65,7.54,42.69,42.69,0,0,0,18.7,11.69,15.84,15.84,0,0,0,1.72.33,46.58,46.58,0,0,1-2.77-6c-1.5-5,.91-9.07,6-10.43a20,20,0,0,1,8.08,0c1.43.2,2.85.49,4.82.83-1.19-1.71-2-3.05-3-4.26-3-3.67-5.95-7.33-9-10.9a6,6,0,0,0-2.77-1.79c-2.61-.68-5.29-1.06-7.94-1.6-.95-.19-2.14.14-2.67-1.07.66-1.26,1.71-.81,2.59-.71,2.37.29,4.72.66,7.56,1.07l-10.1-13.54c-.3,2-.49,3.35-.73,4.71-.87,4.9-3.51,8.23-8.38,9.77C320.38,274.74,317.12,276,313.27,275.24Zm30.24-51.44c-.38-1.58-.68-3.2-1.16-4.77-1.43-4.69-4.43-8.47-7.17-12.43-2.45-3.51-5.77-4.24-9.64-3.71-5,.69-8.94,3.29-12.66,6.44s-4.73,7.36-3.91,12a4.3,4.3,0,0,0,.65,1.68,37.66,37.66,0,0,0,11.42,11c5.38,3.16,11,3.8,16.71.67a9.37,9.37,0,0,0,4.67-5.74C342.91,227.36,343.14,225.62,343.51,223.8Zm-44.6,34.43c.87-3.87,3.28-4.84,6.19-5a6.75,6.75,0,0,1,2.33.21c2.76.83,5.53,1.64,8.2,2.69,2.52,1,2.81,1.65,2.54,4.45a31.59,31.59,0,0,0,.84,10.92,10,10,0,0,0,.77,1.65,32.1,32.1,0,0,0,3.88-1.28c2.78-1.36,5.53-2.89,6.19-6.27a62.91,62.91,0,0,0,.85-7,5.46,5.46,0,0,0-1.5-4.06c-2.94-3.46-5.86-6.95-8.72-10.47q-3.47-4.28-6.77-8.68c-2.93-3.91-5.77-7.89-8.67-11.84a6.88,6.88,0,0,0-.91-.87,2.48,2.48,0,0,0-.38.52c-2.43,7.2-4.9,14.38-7.24,21.61C295,249.41,296.06,253.69,298.91,258.23ZM282,192c4.84,6,9.57,12,14.4,17.84,2.94,3.58,6,7,9.07,10.53a10,10,0,0,0,1.56,1.12,19.35,19.35,0,0,1,1.19-9.13c1.21-3,4.09-4.43,6-6.7-5-6.75-18-21.75-20-23.11Zm48.8,139.66c1.53,5.44,2.85,10.39,6.1,14.55a15.58,15.58,0,0,0,10.37,6.07,50.83,50.83,0,0,0,15.67,0c2.37-.4,4.69-1.07,7.28-1.68-.63-1.06-1.11-1.77-1.49-2.53a4.67,4.67,0,0,1,1.3-6.31,10.19,10.19,0,0,1,2.72-1.55c2.12-.79,4.29-1.46,6.45-2.14s4.09-1.37,6.28.09c-.4-2-.4-2-1.93-3.32C373.88,341,354.28,344.14,330.83,331.66Zm28.68-20.48.05-.21c1.3-.08,2.61-.13,3.91-.27a6.31,6.31,0,0,0,1.76-.49c2.11-.92,2.58-2.4,1.39-4.38-1.93-3.22-3.92-6.41-5.81-9.65a4,4,0,0,0-3-2.28c-2.58-.41-5.13-1.13-7.73-1.3a16.89,16.89,0,0,0-5.63.74,5.36,5.36,0,0,0-3.86,4.83c-.56,4.2,3.39,10.2,7.55,11.12C351.9,310.11,355.73,310.56,359.51,311.18Zm23,21.41c-1.38-2.37-2.91-4.72-4.15-7.21a3.87,3.87,0,0,0-4.19-2.34c-3.05.2-6.12.23-9.14.62a36.81,36.81,0,0,0-6.59,1.6,3.74,3.74,0,0,0-2.78,3.45c-.18,2.59,3.06,7.23,5.61,7.49,6,.6,12,.73,18-.8A4.2,4.2,0,0,0,382.48,332.59Zm-64.84-59.47a36.44,36.44,0,0,1-1.15-13.21,1.7,1.7,0,0,0-.94-2c-3.37-1.43-6.71-3-10.49-3-3.38.06-4.73,1.8-4,5.12a5.5,5.5,0,0,0,1.08,2.32,45.23,45.23,0,0,0,11.43,9.88A5.55,5.55,0,0,0,317.64,273.12Zm129.53-9.78c8.89,15.58,19.67,29.73,31.39,43.18,17.35,19.9,33.77,37.21,36.7,38.7-2.45-2.76-4.86-5.39-7.18-8.1-7.46-8.69-14.75-17.53-22.36-26.09-12-13.54-23.87-27.21-34.3-42C450.07,267.06,448.59,265.22,447.17,263.34ZM181.62,62.08l.2.6,3.53-2.09c6-3.54,11.93-7.29,18.48-9.83,5.2-2,10.38-4.11,15.71-5.75,2.79-.85,5.87-.7,8.8-1.15a53.51,53.51,0,0,1,18.25.12c2.53.47,5.1.72,7.65,1.07C227.09,38.42,202.9,44.25,181.62,62.08ZM382,339.05c-3.33,1-7.16,1.64-10.49,3.71a4,4,0,0,0-1.13,1.08,3.49,3.49,0,0,0,.31,4.15c.77,1,1.75,1.89,3.12,1.22a68.82,68.82,0,0,0,7.82-4.18,8.27,8.27,0,0,0,2.52-3.56C384.77,340.12,383.81,339,382,339.05ZM277.84,192.74c-1.07-2-2.08-.89-3-.38a80.78,80.78,0,0,1-33.81,10.46,25.34,25.34,0,0,0-3.13.32c-.41.08-.74.58-1.49,1.22a10.7,10.7,0,0,0,2.09.32c4.61-.41,9.27-.57,13.81-1.35C261.54,201.75,269.31,196.61,277.84,192.74Zm-123.57-55.4a13.2,13.2,0,0,0,0,2c2.57,16.09,10.1,29.64,21.19,41.36a4.12,4.12,0,0,0,4.16,1.31,85.22,85.22,0,0,1-16.18-20.46A93.6,93.6,0,0,1,154.27,137.34ZM378.63,248c-4.7-5.5-9.3-10.76-13.76-16.14a170,170,0,0,0-16.77-17.7c-.61-.56-1.28-1-1.92-1.56a1.28,1.28,0,0,0,.43,1.18,106.9,106.9,0,0,1,11.27,12.77c3.3,4.19,6.65,8.34,10.14,12.37A47.71,47.71,0,0,0,378.63,248ZM364.3,297.41l-.47.33c.45.81.88,1.64,1.35,2.43,5.12,8.57,10.13,17.19,15.39,25.66,3.64,5.86,7.63,11.51,11.49,17.24a13.22,13.22,0,0,0,1.4,1.5c0-.45.12-.65.06-.77-.36-.6-.74-1.19-1.12-1.77-5.54-8.29-10.84-16.73-15.62-25.5-2.42-4.45-5.06-8.79-7.78-13.07A75.4,75.4,0,0,0,364.3,297.41ZM311.85,148.33c-2.79,5.52-5.08,10.83-8.06,15.72s-6.64,9.36-10.15,14.2l1.51,1.76C303.63,170.93,308.89,160.49,311.85,148.33ZM364,354.25c-4.72.05-9,.2-13.25.11-4.92-.11-9.49-1.37-13.22-4.84-.08-.07-.27,0-.59,0a11.25,11.25,0,0,0,.64,1.18,15,15,0,0,0,13.53,6.51,55.13,55.13,0,0,0,8.26-1.26A33.37,33.37,0,0,0,364,354.25Zm66.53-112.77c-5.14-10.93-15.64-18.82-25.89-19.24C414.68,227.24,423.89,232.66,430.55,241.48ZM310,298.84c-1.08,3.37-1.33,6.75.21,9.9a44.13,44.13,0,0,0,4.38,7.08,32.81,32.81,0,0,0,6.34,6.34c-2.36-3.86-4.61-7.44-6.74-11.09S311,303.06,310,298.84ZM202.84,60.68c-11.12,3.21-31.35,24.25-32,33.14A84.12,84.12,0,0,1,202.84,60.68Zm66.32,2.75c3,2.37,6,4.77,9.07,7.1a57.13,57.13,0,0,1,12.11,13,72,72,0,0,1,9.25,19c.37,1.15.83,2.27,1.25,3.41C298.23,90.4,285.28,71.49,269.16,63.43ZM356,209.86l23.23,4.38C372,210.24,364.64,207.32,356,209.86Zm-64.52-29.77-11.31,9.25c1.17,1.52,1.21,1.58,2.19,1A45,45,0,0,0,293,182c.1-.1,0-.33.08-.6Zm28.49,116.62c4.15,7.61,21.56,16.12,31.2,15.23-5.64-1.41-11.33-2.58-16.68-5A51.19,51.19,0,0,1,319.94,296.71Zm73.52-39.28c4.69,4.42,15,9.42,18.74,9.17Zm-99.79-9a12.1,12.1,0,0,0,.65,7.85c2,4.68,5.86,7.77,9.22,11.3a12,12,0,0,0,1.53,1.16c-2.39-3.17-4.89-6.15-7.31-9.19C295.17,256.36,294.42,252.42,293.67,248.47ZM278.72,178.3a33.23,33.23,0,0,0,15.34-17.18A90.48,90.48,0,0,1,278.72,178.3Zm91.82,160.14-22.32-1.21C355.57,339.65,363,339.64,370.54,338.44ZM302,220.64c-2.06,3.91-7.08,19.93-6.94,22.1C297.24,239.31,302.24,223.39,302,220.64Zm-40.85-32A91.39,91.39,0,0,1,238.68,194,34.84,34.84,0,0,0,261.19,188.68ZM313.09,113c.55-4.67-3.31-19.15-5.72-22.34C309.2,97.81,311.12,105.3,313.09,113Zm-79.6,75.13-2.21-4.65-.51.19a10.22,10.22,0,0,0,.56,2.11,3,3,0,0,1-.73,4.12c-1.61,1.56-1.56,3.36-.3,5.34A8.56,8.56,0,0,1,233.49,188.12ZM228,179.38c-.37-.95-.7-1.86-1.95-1.61a11.21,11.21,0,0,1-6.57-.61C221.88,179.48,225,179.2,228,179.38ZM176.83,206.1c2.94-2.37,3.09-5,.11-7.1A6.53,6.53,0,0,1,176.83,206.1Zm56.43,5.44c-4.24-1.07-7.84,1.17-8.41,4.46.93-.93,1.9-2.4,3.26-3.16S231.24,212,233.26,211.54Zm82.85-7c-.32-1.72-3.3-5-5.29-6A62.41,62.41,0,0,0,316.11,204.58ZM210.37,224.75c.94,1.23,1.89,2.38,2.74,3.61.55.81,1,.64,1.82.13C213.68,226.75,212.7,224.91,210.37,224.75Zm-25.29-45.42-3.91,4.82C184.06,183.67,184.71,181.72,185.08,179.33ZM201,229c.12.06.29.16.3.14.72-1.07,1.43-2.16,2.46-3.75A4.21,4.21,0,0,0,201,229Zm-26.62-19.14,1.82-2.69C175.39,207.88,173.44,207.74,174.34,209.89Zm108.45-13.37.33-.36-1.55-1.76-.3.27Zm25.38,75,.4-.44-2.27-1.69-.31.45ZM206.25,168l-.62-.5-1.09,1.7.4.28Zm72.61,24.08c.25-1,0-1.66-1.2-1.38Zm27.27-104,.29-.25-.69-1.19-.29.17Z"></path><path d="M397,121.91c-.19,5.85-1,11.17-3.34,16.18a16.66,16.66,0,0,1-1.76,3.21c-5.24,7-11.54,12.2-20.72,13.3s-16.93-1.33-23.51-7.7c-4.09-4-6-9-6.49-14.53a46.83,46.83,0,0,1,1.22-14.58,23.44,23.44,0,0,1,7.2-12.24,9,9,0,0,0,2-2.36c3.58-7.23,13.66-10.39,20-9.16s12.12,3.42,16.72,8.12a40.75,40.75,0,0,1,2.8,3.44c.26.34.35.88.67,1.11,3.81,2.66,4.14,6.88,4.88,10.89A36.14,36.14,0,0,1,397,121.91Zm-48,4.59c0,2.19,0,4.37,0,6.55a9.84,9.84,0,0,0,1.83,5.36c7.34,11.29,25.3,13.28,34.24,1.79a50.41,50.41,0,0,0,5-7.95c3.94-7.76,3.33-15.44-1.44-22.59a42.43,42.43,0,0,0-6.76-7.24c-4.22-3.9-9.4-4.51-14.72-3.33s-9.9,4.26-14.15,7.69a7.51,7.51,0,0,0-2.62,4.39A58.14,58.14,0,0,0,349,126.5Zm13.69,26.19c-.22-.24-.27-.34-.34-.37-.56-.23-1.15-.42-1.7-.67-6.38-2.86-11.12-7.18-12.84-14.25a13.64,13.64,0,0,0-.65-1.71,32.21,32.21,0,0,1-1.68-19.79c.12-.48.2-1,.3-1.45a4.49,4.49,0,0,0-1.16,2,44.47,44.47,0,0,0-1.84,12.69C342.65,142.6,351.59,150.71,362.72,152.69Zm28.47-17.92c-3.63,6.24-8,11.68-15.25,13.9s-13.88.8-20.39-2.54c3.78,3.5,8.12,5.41,13.28,5.05,4.32-.3,8.29-1.81,12.29-3.38C387.14,145.43,389.51,140.42,391.19,134.77Zm-35-34c1.07-.5,2.11-1.06,3.2-1.5,4.55-1.86,9.11-3.65,14.19-2.27A6.14,6.14,0,0,0,375,97C368.56,94.37,360.41,96,356.18,100.81Zm27.82.09,5.88,6.32C388.4,104,385.65,102.27,384,100.9Zm-37.68,23.7.5,0c.2-2.26.41-4.52.61-6.79l-.63,0Zm48.53-2.26.16.1v-2.07h-.16Z"></path><path d="M344.57,33.54a76,76,0,0,1-1.61,8.3,43.15,43.15,0,0,1-15.07,22.52A24,24,0,0,1,314,69.83a17.28,17.28,0,0,1-10.21-2.78,24.36,24.36,0,0,1-10.35-14c-.57-1.83-1.17-3.66-1.9-5.43A32.43,32.43,0,0,1,290.82,24a23.77,23.77,0,0,1,8.52-11.7,42.48,42.48,0,0,1,25.74-8.38,12,12,0,0,1,9.95,5,19.39,19.39,0,0,0,2.9,3,14,14,0,0,1,4.15,6.27C343.69,22.62,344.31,27.29,344.57,33.54Zm-3.84.35c0-6.6-1.63-12.72-4-18.72a7.11,7.11,0,0,0-5.87-4.93c-.43-.06-.84-.22-1.27-.29-8.59-1.44-16.68.19-24.43,4A15.11,15.11,0,0,0,298,21.29a45.71,45.71,0,0,0-4.53,17.93A25.35,25.35,0,0,0,298.35,56a12.11,12.11,0,0,0,8.56,5,33.41,33.41,0,0,0,10.42-.65c6.34-1.2,12.37-3.2,17.47-7.34a7.73,7.73,0,0,0,2.11-2.55A36.15,36.15,0,0,0,340.73,33.89Zm-42,25.54a17,17,0,0,0,25.75,4.86C315.35,66,306.5,65.86,298.76,59.43Zm5.13-47.71c-9.64,3.47-16.31,19.88-12.25,29.73.21-3,.36-5.84.61-8.7.64-7.23,3-13.62,8.8-18.41C302,13.58,302.8,12.73,303.89,11.72Zm8.19,51.43c7.77.79,15.19.17,20.8-6.3C326.38,60.34,319.34,62,312.08,63.15ZM332.2,8.7a7.71,7.71,0,0,0-6.57-3,30.62,30.62,0,0,0-11.7,2.53c-.32.13-.66.24-1,.4a7.58,7.58,0,0,0-.93.74C319,7.91,325.55,6.86,332.2,8.7Zm8.06,10c.83,4.85,1.65,9.71,2.4,14.07A32.52,32.52,0,0,0,340.26,18.72Z"></path><path d="M107.41,190.26c0-8.87,1.76-15.66,6.49-21.37a21.43,21.43,0,0,1,5-4.53,100.63,100.63,0,0,1,9.24-4.91,11.35,11.35,0,0,1,7.26-1,42.44,42.44,0,0,1,13.73,4.89c7.28,4,10.65,10.35,10.94,18.45a30.56,30.56,0,0,1-1.67,10.31c-1.89,6-6.06,10.12-11.13,13.48-1.75,1.16-3.54,2.26-5.34,3.34-5,3-10.5,3.69-16.19,3.05a47.59,47.59,0,0,1-5.67-1.07,13,13,0,0,1-8.27-6A28.53,28.53,0,0,1,107.41,190.26Zm5.22.5c.13,1.3.27,3.57.61,5.81a20.29,20.29,0,0,0,1.16,4c2.47,6.45,10.8,10.6,17.28,8.19a44.88,44.88,0,0,0,17.82-11.71,19.1,19.1,0,0,0,5.08-15.2,42,42,0,0,0-1-5.42c-1.5-6.62-5.47-11-12-12.93a27.3,27.3,0,0,0-4.32-1.08c-5.14-.65-10.15-.49-14.45,3a55.08,55.08,0,0,0-5,4.21,11.14,11.14,0,0,0-2.45,3.92C113.44,178.78,112.81,184.25,112.63,190.76Zm46-10.33A88.56,88.56,0,0,1,150.66,201C157.22,195.57,158.6,188.22,158.59,180.43Zm-2.32,1.75c1.51-8-1.06-13.86-7.12-16.52C152.68,170,153.7,169.92,156.27,182.18Zm-7.76,18.42-11.94,7.94C141.92,207.56,145.66,205.22,148.51,200.6Zm-37-17.4a27.1,27.1,0,0,0,0,12.88ZM110.25,179c-1.7,4.64-1.3,9.4-1.1,14C109.49,188.56,109.86,183.94,110.25,179Z"></path><path d="M290.47,237.91a4.14,4.14,0,0,1-4.15,4.14,4.06,4.06,0,0,1-4.1-4.15,4.17,4.17,0,0,1,4.11-4.19A4.27,4.27,0,0,1,290.47,237.91Zm-1.85.12a2.2,2.2,0,0,0-2.19-2.38A2.34,2.34,0,0,0,284,237.8a2.45,2.45,0,0,0,2.24,2.43A2.32,2.32,0,0,0,288.62,238Z"></path><path d="M328.77,123a3.89,3.89,0,0,1-4-3.92,4,4,0,0,1,4-4,4.15,4.15,0,0,1,3.91,3.84A4,4,0,0,1,328.77,123Zm1.93-3.87a1.85,1.85,0,0,0-1.85-2,2.08,2.08,0,0,0-2.3,1.92,2.34,2.34,0,0,0,2.19,2.13A2.08,2.08,0,0,0,330.7,119.08Z"></path><path d="M146.54,59.37c1.9-2.59,1.9-2.59,3.32-2.19l-1.37,3.27c.51,1.37,2.83,1.31,2.55,3.36-1.58.61-2.29-1.13-3.53-1.23l-2.32,2.9c-1.39-1.88.47-2.86.38-4.34a22,22,0,0,1-2.08-1.67,1.19,1.19,0,0,1-.21-1.12,1.16,1.16,0,0,1,1.09-.24A19.2,19.2,0,0,1,146.54,59.37Z"></path><path d="M155.87,228.94a9.92,9.92,0,0,1,1.92-.44,1.25,1.25,0,0,1,1,.5,1.16,1.16,0,0,1-.43,1,9.45,9.45,0,0,1-1.86.84,18.49,18.49,0,0,1,.6,2.47c0,.34-.3.73-.47,1.09-.42-.2-1-.29-1.21-.62a13.35,13.35,0,0,1-.89-2.29,9.71,9.71,0,0,1-1.82.38,8,8,0,0,1-1.72-.33,5.09,5.09,0,0,1,2.8-2.09c-.17-.77-.39-1.59-.49-2.42,0-.26.24-.78.43-.81.36-.06,1,0,1.11.28A18.2,18.2,0,0,1,155.87,228.94Z"></path><path d="M423,133.54a2.81,2.81,0,0,1-3.3,2.51,2.84,2.84,0,0,1-2.43-3.14,3,3,0,0,1,3.07-2.58A2.88,2.88,0,0,1,423,133.54Zm-1.55-.42c-.6-.36-1-.81-1.36-.77s-.84.64-.8.94a1.27,1.27,0,0,0,.93.85C420.6,134.13,420.94,133.59,421.48,133.12Z"></path><path d="M221.82,279.47a2.33,2.33,0,0,1,2.26,2.39,2.28,2.28,0,0,1-2.11,2.51,2.52,2.52,0,0,1-2.49-2.23A2.66,2.66,0,0,1,221.82,279.47Z"></path><path d="M117,135.28a2.32,2.32,0,0,1-2.18-2.17,2.42,2.42,0,0,1,2.55-2.36,2.25,2.25,0,0,1,2,2.28A2.44,2.44,0,0,1,117,135.28Z"></path><path d="M404.42,71.42a2.26,2.26,0,0,1-2.25-2.11,2.22,2.22,0,0,1,2.34-2.26,2.24,2.24,0,0,1,2.13,2.22A2.28,2.28,0,0,1,404.42,71.42Z"></path><path class="cls-1" d="M266.78,85.07h14.66v77.39c-2,.67-12,.75-14.66.1Z"></path><path class="cls-1" d="M260,162.94H245.61v-68c1.77-.54,9.93-.71,14.24-.27C260.4,96.45,260.6,159,260,162.94Z"></path><path class="cls-1" d="M206,163V104.6h14.36c.54,1.87.63,55.57.07,58.38Z"></path><path class="cls-1" d="M240.69,109.83v52.6c-1.92.61-10.38.77-14.32.3-.6-1.81-.78-49.42-.17-52.9Z"></path><path class="cls-1" d="M199.76,163H185.28V126.42h14.48Z"></path><path d="M203.17,208.5a13.22,13.22,0,0,1-7.68-2.47,6.32,6.32,0,0,1-3-6.27,12.39,12.39,0,0,1,6.11-9.56c4.69-2.81,11.44-.36,13.68,4.77.41,1,.77,1.94,1.22,2.88a5.39,5.39,0,0,1-.81,6.32A11.49,11.49,0,0,1,203.17,208.5Zm2-3a3,3,0,0,0,3.4-.93,31.61,31.61,0,0,0,2.26-3.46,4.55,4.55,0,0,0,.41-1.77c.15-2.05-.31-3.82-2.39-4.77a36.67,36.67,0,0,0-3.79-1.71,7.47,7.47,0,0,0-7.93,2.64,4.21,4.21,0,0,0-.6,2.44C196.83,202.56,200.2,205.59,205.2,205.5Zm3.09-12.83a7.57,7.57,0,0,0-6.62-1.38Zm-12.66,12.21-2-5.62A5.18,5.18,0,0,0,195.63,204.88Z"></path><path d="M376.24,133.54c-7.46,3.28-9.39,3.1-12.27-1-1.34,0-1.91,1-2.46,2-.62,1.15-1.17,2.34-1.87,3.44a1.16,1.16,0,0,1-2.19-.43c-.24-1.28-.31-2.59-.44-3.9-.43-4.16-.89-8.33-1.27-12.5-.32-3.6,1.34-6.16,4.31-8.08a26.47,26.47,0,0,1,10.15-4c5.53-.89,8.09.35,10.67,5.29l.54,1.07c.25.15.39.3.54.32,3.64.56,4.78,1.87,4.83,5.53a12.14,12.14,0,0,1-3.35,9.06,31.78,31.78,0,0,0-3.4,4.94c-.28.43-.34,1-.68,1.4a11.17,11.17,0,0,1-1.71,1.33,8.33,8.33,0,0,1-.94-1.73A20.46,20.46,0,0,1,376.24,133.54Zm-17.39,1.19c2.84-3.36,2.83-3.37,7.09-5.36,2.06-1,4.18-1.79,6.21-2.8a47.71,47.71,0,0,0,5.93-3.33c2.75-1.92,3.06-3.19,1.88-6.28a25.11,25.11,0,0,0-1.87-3.74,5.06,5.06,0,0,0-4.58-2.54,21.38,21.38,0,0,0-14,5.09,5.32,5.32,0,0,0-2,4.64C357.84,125.07,358.37,129.72,358.85,134.73Zm6.95-3.33c.67,2.23,2.11,2.84,3.76,2.48A40.89,40.89,0,0,0,375,132c.84-.31,1.65-.68,2.6-1.07l.93,2.62c1.58-1.94,3.1-3.72,4.54-5.56a10.36,10.36,0,0,0,1.81-8.17,2.27,2.27,0,0,0-2.56-2.16c.8,3.39-.84,5.57-3.3,7.15a70.07,70.07,0,0,1-6.87,3.74C370.09,129.57,368,130.42,365.8,131.4Z"></path><path d="M309.61,48.36c-1.67,1.53-2.11,3.77-4.46,4.82a9.54,9.54,0,0,1-.75-2.38c-.1-2.09-.09-4.2,0-6.29a4.36,4.36,0,0,0-.78-2.95c-3.53-4.82-1.44-12.37,2.35-15.51,5.76-4.77,12.46-6.53,19.8-6.09a6.4,6.4,0,0,1,5.36,3.34,26.78,26.78,0,0,1,3.53,15.88c-.27,3.43-2.38,5.75-5.51,7.09a32.91,32.91,0,0,1-17.72,2.35Zm-3.55,1,.43.15a8.21,8.21,0,0,0,.92-1.23,2.69,2.69,0,0,1,3.48-1.48,9,9,0,0,0,1,.21,31.39,31.39,0,0,0,16.42-2.2c2.69-1.12,4.59-3.08,4.72-6.08a26.17,26.17,0,0,0-3.21-14.38,5.22,5.22,0,0,0-4.46-2.82,26.45,26.45,0,0,0-17.71,5.23c-4.34,3.29-5.7,10.4-2.25,14.52A3.37,3.37,0,0,1,306.1,44C306,45.75,306.06,47.56,306.06,49.37Z"></path><path d="M142.86,170.7c3.41-.06,4.41.54,5.19,3.46a64.81,64.81,0,0,1,1.25,7c.26,1.73.41,3.48.54,5.22.17,2.06-.27,2.91-2.2,3.66a26.48,26.48,0,0,1-5.26,1.57c-5.34.92-10.7,1.69-16.06,2.48a9.13,9.13,0,0,1-2.09,0,2.24,2.24,0,0,1-2.27-1.79c-.42-1.69-1.06-3.35-1.34-5.06-.57-3.45-1-6.92-1.41-10.4-.23-1.89.13-2.37,1.85-2.84C128.36,172,135.88,171.49,142.86,170.7Zm-19.21,22.06a99.15,99.15,0,0,0,23.38-3.9c-2.29-3.31-4.59-6.1-7.83-8.11-.57.44-1.14.83-1.65,1.29-1.93,1.72-4,2.05-6.21.62-.94-.6-2-1.06-3.15-1.69A34.75,34.75,0,0,0,123.65,192.76Zm-1.29-17.7-.2.76c3.32,1.89,6.67,3.74,10,5.71a3.37,3.37,0,0,0,4.51-.55c2.26-2.19,4.47-4.42,6.67-6.67a28,28,0,0,0,1.72-2.24A131.27,131.27,0,0,0,122.36,175.06Zm25.73,12.29c-.17-4.74-.09-9.42-1.87-14.15l-5.74,6.21Zm-27.67-11c.91,4.62,1,8.77,2.2,13.29l4.18-9.39Z"></path><path d="M369.44,121.86a2.09,2.09,0,0,1-2.31-2c-.12-1.25.82-2.19,2.28-2.28a1.86,1.86,0,0,1,2.13,1.78A2.21,2.21,0,0,1,369.44,121.86Z"></path><path d="M365.34,122.12a2.34,2.34,0,0,1-2.36,2.26,2.06,2.06,0,0,1-1.92-2.07,2.1,2.1,0,0,1,2.35-2.19A1.89,1.89,0,0,1,365.34,122.12Z"></path><path d="M376.84,117a1.87,1.87,0,1,1-1.9-2A1.92,1.92,0,0,1,376.84,117Z"></path><path d="M316.73,38.08c-.3-1-.62-2.06-.89-3.1a20.4,20.4,0,0,1-.67-3.06c-.07-.61,0-1.53.41-1.82s1.23,0,1.85.21a4.31,4.31,0,0,1,1,.67,12,12,0,0,1,.94-1.5c.37-.43,1-1.14,1.28-1a2.46,2.46,0,0,1,1.39,1.3c.67,1.7,1.17,3.47,1.73,5.22a4.21,4.21,0,0,1,.4,1.23c0,.35-.31.69-.54,1.18-2.06-1.51-1.66-3.94-2.86-5.79-1,.61-1.69,2.75-3.39.91-.53,2.07,1.26,3.76.11,5.47Z"></path><path d="M309.77,40.46l3-1.78c-.06-1.48-1.18-1.51-2-1.81-2.49-.87-3.13-2.72-1.49-4.77a8.13,8.13,0,0,1,2.45-1.88c.86-.48,1.66-.19,2.24.94-1.57.88-3.93,1-3.8,3.67.81.29,1.63.55,2.41.88a2.89,2.89,0,0,1,2,2.81c0,1.4-1,2-2.1,2.34C311.57,41.09,310.63,42,309.77,40.46Z"></path><path d="M326.16,35.89a7.81,7.81,0,0,1,.73-1.1c1.8-1.63,1.75-2-.46-2.81a3.24,3.24,0,0,1-1.58-5.05,3.42,3.42,0,0,1,.72-.75c.84-.6,1.15-.47,2.18.78-.08.15-.12.35-.24.44-.63.48-1.75.41-1.64,1.68s1,1.21,1.82,1.51a2.94,2.94,0,0,1,2.15,3.4C329.51,35.42,328.34,36.09,326.16,35.89Z"></path></svg>