<svg xmlns="http://www.w3.org/2000/svg" id="Layer_1" data-name="Layer 1" viewBox="0 0 570 380"><defs><style>.cls-1{fill:#eec0d6;}.cls-2{fill:#fff;}.cls-3{fill:#4fb6cf;}</style></defs><path class="cls-1" d="M143.71,159.76c-5.08,2.54-10.3,2.5-15.6.84-.45-.32-.9-.64-1.36-.95-3.6-2.42-4.89-5.75-4.14-10,.94-5.31,4-9.18,8-12.49,2.2-1.82,4.42-3.56,7.39-4.08a8.44,8.44,0,0,1,4.83.46,16,16,0,0,1,8.71,8.8,9.61,9.61,0,0,1,0,7.79c-1.48,3.55-3.35,6.77-6.85,8.73A6.3,6.3,0,0,0,143.71,159.76Z"></path><path class="cls-2" d="M149.72,73.92a1.86,1.86,0,0,1,1.75-2.18c.56.66-.47.94,0,1.62A29.8,29.8,0,0,1,157.19,71c4.11-1.53,7.83-.49,11.33,1.51,2.78,1.58,5.31,3.52,6.55,6.79a13.18,13.18,0,0,1-11.86,17.84c-8.3.37-15.22-6.11-16.8-12.84a11.31,11.31,0,0,1,2.17-9.87c.28-.36.6-.71,1.14-.52l.07.06Z"></path><path d="M343.09,329.92c-5.94-2.77-11.34-6.28-15.62-11.38a147.7,147.7,0,0,1-16.88-25.21,47.79,47.79,0,0,1-5.3-19c-.37-4.55-.61-9.13-1.18-13.66-1.31-10.28-6.29-18.55-14.24-25.08-2.56-2.1-5.31-4-7.87-6.07-2.92-2.37-5.72-4.87-8.82-7.52-2.72,1-5.87,2.22-9.09,3.23-6.37,2-12.86,3.24-19.59,2.41-1.14-.15-2.43,0-3.4-.45-4.19-2.06-8.68-3.88-11.3-8a80.77,80.77,0,0,1-5.14-9.74,13,13,0,0,1-.26-9.47q.78-2.49,1.66-5a17.83,17.83,0,0,1,5.27-7.65c2.65-2.29,5.32-4.56,7.92-6.9a41,41,0,0,1,12.09-7.63c6.14-2.47,12.24-5,18.73-6.56,8.26-1.94,15.93-.49,23.16,3.61,4.73,2.67,9.32,5.59,14,8.39.85.52,1.74,1,3,1.65-.43-2.65-1-4.88-1.13-7.13-.45-5.69-.9-11.38-1.07-17.08-.26-8.66-.42-17.33-.37-26,0-6.53.52-13.07.73-19.6.17-5.25.2-10.51.33-15.76.15-5.89.29-11.79.54-17.68.28-6.44.86-12.87,1-19.31a104.2,104.2,0,0,0-2.46-23c-.81-3.84-2.86-7.17-5-10.4a8.69,8.69,0,0,0-6-3.63,130.8,130.8,0,0,0-36.58-1.87c-8.44.72-16.93.82-25.39,1.3-5.15.29-10.29.79-15.43,1.18-4.59.35-9.18.67-13.78,1-3.76.29-7.57.6-10.95,2.44a30.49,30.49,0,0,0-5.58,4,6.14,6.14,0,0,0-1.62,3.12A57.44,57.44,0,0,0,186,49.54c.47,5.58.29,11.23.33,16.85,0,7.83.09,15.67,0,23.5-.07,5.33-.47,10.67-.6,16,0,1.66-.81,3.45.5,5,.1.11.15.44.08.5-2.13,1.83-1,4.28-1,6.38,0,8.1.29,16.2.48,24.46l2.54.68-2.6,1c1.82,23.77,2,47.74,1.78,71.71l-.54,0c-.06-.67-.19-1.34-.19-2,0-3.41.09-6.82,0-10.23q-.24-17.7-.56-35.38a10.29,10.29,0,0,0-.19-1.24c-1.41,0-2.76-.1-4.09,0-7,.65-13.95,1.28-20.55,3.91-6.2,2.48-7.62,5.13-6.36,11.8.52,2.74,1.21,5.39,3.19,7.51.16.17.17.48.27.78a5.25,5.25,0,0,1-2.84-2.9,20,20,0,0,1-1.38-12.41c.52-2.18,2-3.41,3.9-4.36a46.23,46.23,0,0,1,15.35-4.3c4.1-.49,8.2-.93,12.68-1.44-.5-7.25-1-14.53-1.49-21.76-2.88-.42-5.54-.64-8.12-1.25a41,41,0,0,1-6.48-2.31,8.27,8.27,0,0,1-4.87-6c-.76-3-1.66-6-2.5-9-.74-2.66-.22-5.06,2.09-6.64a37.92,37.92,0,0,1,7.19-4c3.58-1.42,7.35-2.37,11-3.53l1.42-.46c.28-4.07.73-8.1.8-12.13.12-5.88-.1-11.78-.05-17.67s.39-11.6.37-17.4c0-5.52-.18-11-.59-16.56A41.2,41.2,0,0,1,185.6,36c.11-.64.25-1.27.32-1.91.65-6.86,5.37-10,11.21-11.72a46.51,46.51,0,0,1,9-1.46c5.32-.5,10.65-.82,16-1.17q9.93-.64,19.85-1.2c7.45-.43,14.91-.71,22.35-1.26a102.37,102.37,0,0,1,28.6,1.53c1.44.31,2.9.51,4.36.69A9.17,9.17,0,0,1,304,24.21a35.73,35.73,0,0,1,5.21,13.25,123.84,123.84,0,0,1,1.84,23.91c-.21,6.44-.8,12.86-1.15,19.3-.18,3.4-.18,6.81-.3,10.22-.33,9.94-.76,19.88-1,29.83-.16,6.91-.09,13.82,0,20.74.09,7.55.09,15.12.53,22.66.29,4.94,1.3,9.83,2,14.75a3.87,3.87,0,0,0,2.13,3c4.14,2.39,8,5.56,12.78,6.38,7,1.17,13.25,4.42,20,6.18.14,0,.25.21.64.57a7.39,7.39,0,0,1-1.85,0c-2.46-.78-4.88-1.66-7.34-2.44-2.88-.91-5.75-2-8.7-2.59a36.68,36.68,0,0,1-11.5-4.53q-10.23-6.19-20.44-12.43c-4.34-2.67-8.78-5.05-13.81-6.15-5.86-1.28-11.58-.4-17.14,1.44-4.89,1.62-9.67,3.58-14.47,5.46a37.43,37.43,0,0,0-11.39,7.19c-2.67,2.41-5.42,4.72-8.14,7.07a17.18,17.18,0,0,0-5,7.19c-.28.78-.5,1.58-.84,2.34-2.34,5.3-1.67,10.33,1,15.37,2.54,4.85,5.57,9,10.62,11.6a14.64,14.64,0,0,0,10.4,1.35,79.06,79.06,0,0,0,18.75-7.24,20.86,20.86,0,0,1,4.74-1.86c-6.89,4.15-14,7.77-21.93,9.63l.16.65c2.17-.28,4.37-.47,6.52-.87s4.33-.92,6.45-1.53,4.39-1.37,6.54-2.18,4-1.69,6.49-2.75l-1,1.86c2.19,3.28,5.37,5.48,8.48,7.8,3.31,2.48,6.58,5,9.65,7.81,7.17,6.44,10.94,14.69,12.19,24.14.43,3.29.76,6.59.9,9.9a21.09,21.09,0,0,0,2.23,8.19A87.6,87.6,0,0,0,319.1,297a192.88,192.88,0,0,0,21.06,23c.16.15.2.43.34.74-3-1.12-7.22-5.52-18.67-18.9a107,107,0,0,1-14.47-22.14l-.51.19c.62,2.31,1.17,4.64,1.9,6.91a31.7,31.7,0,0,0,1.95,4.57,134.94,134.94,0,0,0,17.83,26.88,36.17,36.17,0,0,0,11.22,8.84c1.28.65,2.47,1.47,3.7,2.21Zm-159-218.31c-5.76,1.42-11.4,3-16.52,6-.64.37-1.23.81-1.84,1.23a5.17,5.17,0,0,0-2.09,6.08c.83,3.1,1.77,6.17,2.58,9.28a7.42,7.42,0,0,0,4,5,29.1,29.1,0,0,0,11.36,3.15c1,.06,1.94,0,3.18,0C184.52,132.12,184.29,122.12,184.05,111.61Z"></path><path d="M484.81,366.84c-2.19-2.68-4.38-5.34-6.54-8-11-13.67-21.11-27.93-30.88-42.47-.91-1.34-1.57-2.88-3.32-3.53-.56-.21-.89-1.12-1.26-1.75-2.16-3.64-4.22-7.35-6.46-10.94-6.37-10.2-11.16-21.15-15.58-32.3q-12.6-31.73-22-64.52a31.76,31.76,0,0,0-2-5.12,619.83,619.83,0,0,1-24.89-57.82c-7-19.31-12.76-39-17.9-58.89-.56-2.17-1.51-4.25-1.37-6.65.06-.86-1-1.89-1.81-2.67-3.66-3.77-7.34-7.52-11.08-11.21-6.69-6.6-13.39-13.19-20.16-19.7-2.72-2.62-5.64-5-8.46-7.54a6.23,6.23,0,0,1-1.75-2.16,4.09,4.09,0,0,1,1.24.54c3.72,3.3,7.51,6.53,11.08,10C329.81,50,337.75,58.23,346.13,66a52.78,52.78,0,0,1,12.66,18.24c2.33,5.4,4.23,11,6.24,16.52,1.45,4,2.81,8,4.15,12,5.39,16.15,10.69,32.34,16.17,48.47,4,11.94,8.29,23.81,12.49,35.7a56.75,56.75,0,0,0,3.06,7.67c9.34,17.76,16,36.55,22.19,55.58,4.63,14.16,10.58,27.88,16,41.78a16,16,0,0,0,1.72,3.14c7.92,11.44,15.71,23,23.85,34.25,5.66,7.84,11.81,15.32,17.74,23,1,1.34,2,2.71,3.07,4.06ZM354.15,77.73c5.34,27.8,32.75,104,40.76,113.34-.43-1.33-.71-2.28-1-3.22-4.68-13.37-9.45-26.71-14-40.12-6.33-18.54-12.47-37.14-18.78-55.68A61.27,61.27,0,0,0,354.15,77.73Zm80.59,217.86.54-.25-1.09-2.71c-5.09-13-10.41-26-14.44-39.39a251.82,251.82,0,0,0-16.55-41.79c-.43-.85-.9-1.68-1.36-2.52a7.06,7.06,0,0,0,.36,2.75c5.38,18.39,11.8,36.41,18.81,54.24,3.54,9,7.17,17.95,11.88,26.42C433.49,293.43,434.12,294.51,434.74,295.59Z"></path><path d="M301.25,255.81a20.25,20.25,0,0,1-9.3,2.81c-8.65.4-17.3.62-26,.88-7.91.24-15.83.5-23.75.66-10,.2-19.9.44-29.85.4a83.31,83.31,0,0,1-12.08-1.17,18.83,18.83,0,0,1-5.7-2,7.36,7.36,0,0,1-4.27-5.66c-1.33-8.55-3-17-3.07-25.74,0-2.11-.33-4.22-.47-6.33a2.06,2.06,0,0,1,.56-1.54,7.29,7.29,0,0,1,.38,1.4c.27,4.23.31,8.48.8,12.68.75,6.48,1.77,12.93,2.77,19.38a6.52,6.52,0,0,0,4.34,5.32,33.76,33.76,0,0,0,6.61,1.76c14.42,2.17,28.88.71,43.32.39,11.61-.25,23.22-.32,34.82-.61,4.32-.1,8.64-.48,12.94-1a31.7,31.7,0,0,0,5.3-1.48c.82-.24,1.62-.52,2.44-.78Z"></path><path d="M348.62,362.76c-1-.61-2-1.14-2.94-1.84a55.82,55.82,0,0,1-11.29-11.27A157.63,157.63,0,0,1,322,329.42c-5.79-11-13-20.92-20.4-30.82-5.6-7.53-11.06-15.17-16.53-22.8a51.11,51.11,0,0,1-2.81-4.75c-1.7-3.08-3.37-6.18-5.21-9.56.58.31,1.11.43,1.37.76a14.62,14.62,0,0,1,1.62,2.57c4.55,9.75,11,18.26,17.42,26.8,5.37,7.14,10.92,14.17,15.8,21.63,5.18,7.92,9.67,16.29,14.45,24.47,3.4,5.81,7,11.54,11.68,16.37a108.33,108.33,0,0,0,8.4,7.11c.4.33.84.62,1.26.93Z"></path><path d="M226.8,262.93c-.41.32-.8.67-1.23,1-1.38.93-2.84,1.74-4.14,2.76-8.37,6.68-18.2,9.85-28.5,11.9a56.31,56.31,0,0,1-16.47,1.11,23.49,23.49,0,0,1-5.65-1.19c-2.34-.85-2.92-2.38-1.82-4.61a27.45,27.45,0,0,1,3.49-5.61c3.66-4.37,7.53-8.57,11.3-12.85,1-1.11,1.87-2.29,2.86-3.38a18.28,18.28,0,0,1,1.76-1.52l.41.37c-.34.42-.67.86-1,1.27-4.52,5.1-9.1,10.15-13.52,15.33a37.82,37.82,0,0,0-4.16,6.16c-1.28,2.32-.69,3.62,1.86,4.34a33,33,0,0,0,11.5.93,82.36,82.36,0,0,0,24.4-5.55,72.67,72.67,0,0,0,9.93-5.35c2.53-1.5,4.9-3.27,7.35-4.9.42-.28.89-.48,1.34-.72Z"></path><path d="M207.56,197.36c-3.83,1.09-6.27-.37-6.84-4.07a64,64,0,0,1-.62-9.07c-.08-14.56,0-29.12-.11-43.68,0-2.67-.17-5.34-.41-8a7,7,0,0,0-1-2.49c-.37-.68-.9-1.27-1.24-2,2.52,1.48,3.19,2.54,3.28,5.35.15,4.6.32,9.2.35,13.8.06,12.63,0,25.25.09,37.88a51.09,51.09,0,0,0,.48,7.42c.56,3.56,1.49,4.26,5.06,4.65C206.92,197.21,207.24,197.3,207.56,197.36Z"></path><path d="M253.88,8.18c-.27-1.87.89-1.94,1.66-2.12a18.79,18.79,0,0,1,10.33.08A32.71,32.71,0,0,1,269,7.24q7.32,3.18,14.59,6.47c.72.32,1.81.41,1.91,1.85-5.07-2.24-10-4.34-14.87-6.6C267,7.28,263.28,6.05,259.2,6.42,257.39,6.58,255.54,6.61,253.88,8.18Z"></path><path d="M288.85,31.44c5.19-1.58,6.52.91,7.33,4,1.48,5.75,1.49,11.63,1.05,17.51,0,.2-.27.39-.79,1.09,0-1.41,0-2.27,0-3.12-.2-4.3-.39-8.61-.66-12.9a11.78,11.78,0,0,0-.73-3.21c-.7-2-1.86-3.36-4.26-3.09A7.42,7.42,0,0,1,288.85,31.44Z"></path><path d="M296.51,60.45l-.25-3c1.46,1,1,2.05.92,3Z"></path><path class="cls-2" d="M302,88l-1.32-.09c-6.59-.56-10.91-5.72-10-12.3A20,20,0,0,1,301,60.21c1.31-.73,2.79-1.49,4.37-.24.35.28,1.07.1,1.61.15,8,.83,14,9.79,11.67,17.4C316.67,83.93,309.45,88.65,302,88Z"></path><path d="M485.67,368c-.52-.76-1.17-1.42-1.76-2.13-4.16-5-8.51-9.95-12.42-15.19-6.61-8.87-13-17.89-19.35-26.95-8.18-11.72-15.91-23.71-22-36.68a429.4,429.4,0,0,1-24.25-63.14c-7.77-26.58-17.78-52.3-28.8-77.66a179.08,179.08,0,0,1-8-20.57c-1.54-5.22-3-10.44-4.49-15.67-2.44-8.69-5.1-17.33-7.17-26.11a23.82,23.82,0,0,0-6.54-12.18c-4.57-4.42-9.1-8.88-13.72-13.25q-12-11.3-24-22.48A6.46,6.46,0,0,1,311,32.28a79,79,0,0,0-2.25-8.81c-1.53-4.88-5-7.33-10.08-7.59-3.68-.18-7.36-.27-11-.45A7.86,7.86,0,0,1,285,15c-6.21-2.58-12.36-5.28-18.58-7.83a60.69,60.69,0,0,0-7.84-2.64,7.08,7.08,0,0,0-8.84,4.28,36.71,36.71,0,0,0-1.64,5.53,19.63,19.63,0,0,0-.29,2.25c-.76.07-1.38.17-2,.19-9.39.26-18.8.37-28.19.82-6.71.32-13.42.9-20.1,1.69-8.8,1-13.77,5.56-13.05,15.4.36,5,.59,9.93.81,14.9.39,8.84.89,17.67,1,26.51.18,10.42,0,20.84,0,31.26,0,.7-.12,1.41-.19,2.16-1.4.34-2.66.6-3.89.95-5,1.42-10.08,2.9-15.14,4.27a4,4,0,0,0-3.22,3.65c-.16,1.37-.31,2.74-.51,4.1-1.07,7.39,4.65,15.26,10.58,17.44a29.68,29.68,0,0,0,12.44,1.7v24.93c-4.71.7-9.28,1.26-13.8,2.1-3.71.69-7.37,1.62-11,2.62a8.16,8.16,0,0,0-6,5.89c-2.07,7.22-.56,14.34,7.62,17.9a58,58,0,0,0,10.23,3.26c4.36,1,8.82,1.53,13.48,2.31,0,.73,0,1.64,0,2.54,0,8.67-.15,17.34-.09,26,0,7.18.06,14.38,1.51,21.47a2.26,2.26,0,0,1-.73,2.2c-2.89,3.11-5.77,6.22-8.58,9.39-2.51,2.82-5.06,5.62-7.35,8.62-2.41,3.17-2,5.26,1.12,7.79a19.18,19.18,0,0,0,12,4.42,51.63,51.63,0,0,0,33.2-10.89c2.92-2.24,5.62-4.77,8.32-7.28a4.39,4.39,0,0,1,3.17-1.28q21.84-.23,43.69-.54h2.5c2.25,5.61,6.29,9.67,10.29,13.76.84.86,1.64,1.75,2.41,2.67,7.92,9.3,15,19.19,20.08,30.33.74,1.59,1.55,3.14,2.36,4.69,4.56,8.74,9,17.56,14.61,25.69a35.5,35.5,0,0,0,10.06,10.15c5.38,3.37,10.86,6.59,16.33,9.82a5.81,5.81,0,0,0,1.87.34l.32-.69a11.63,11.63,0,0,0-1.7-1.46c-2.39-1.4-4.78-2.79-7.23-4.06-9.5-4.92-17.08-11.81-22.17-21.32-.87-1.62-1.87-3.17-2.73-4.8-4.21-8-8.49-15.94-12.56-24-5.59-11.05-13.13-20.65-21.41-29.75-2.29-2.51-4.47-5.13-6.58-7.8a24,24,0,0,1-2-3.82c2.29,0,4,0,5.76,0,6-.09,12,.35,17.47-3.84.32,2.29.53,4.1.84,5.9,1.44,8.42,4.59,16.28,7.95,24.07a97.91,97.91,0,0,0,21.6,31.5A41.31,41.31,0,0,0,344,329.39c.78.33,1.59,1.1,2.52.25.32-1.19-.65-1.41-1.36-1.7-5.4-2.22-9.81-5.8-13.85-9.91a90.89,90.89,0,0,1-17.62-24.62c-6.07-12.78-11.45-25.7-11-40.36a25.53,25.53,0,0,0-6.36-17.84,53.37,53.37,0,0,0-12.81-10.43c-3.23-2-6.38-4.06-8.75-7.1-.44-.56-.93-1.38-1.77-.77s-.51,1.28,0,1.93c.13.15.1.43.15.68-2.85,1.31-5.64,2.49-8.35,3.85-12.91,6.48-25.08,4.3-36.55-3.44-7.4-5-9.26-14.34-4.86-22.05a29.46,29.46,0,0,1,9.81-10.67c5.23-3.29,10.38-6.7,15.65-9.91a67.51,67.51,0,0,1,19.32-8,25.09,25.09,0,0,1,14.44.44,120.15,120.15,0,0,1,13.13,5c7.3,3.52,14.43,7.38,21.55,11.24,8.39,4.53,17,8.39,26.36,10.46a25.45,25.45,0,0,0,2.69.61c.42,0,.89-.34,1.34-.53-.31-.39-.54-.9-.94-1.14a6.14,6.14,0,0,0-1.58-.44L339,193.36c-9.17-2.45-17.36-7-25.47-11.55-1.32-17.25-1.85-51-.8-53.66,1.72,2,3.34,4,5.07,5.89a7,7,0,0,1,1.86,4.72c.26,6.63.59,13.26,1.08,19.88.27,3.67.92,7.31,1.42,11,.1.7.16,1.51,1.62,1.51a24.55,24.55,0,0,0,0-2.85c-.26-2.19-.78-4.37-.91-6.57-.56-9.93-1.09-19.87-1.49-29.81-.25-6.07-.19-12.16-.33-18.25-.2-8.48-1.75-16.53-8.05-22.86a3.47,3.47,0,0,1-1-4c.74-.49,1.53-1,2.28-1.49,2.91-2,5.08-4.71,5.56-8.26.83-6.19-.38-11.82-5.86-15.67A3.69,3.69,0,0,1,312.32,58c-.09-6.08-.29-12.16-.44-18.24,0-.5,0-1,0-2.14l2.4,2.23c4.92,4.58,9.87,9.14,14.76,13.76,6.84,6.45,13.62,13,20.45,19.42a19.45,19.45,0,0,1,6.12,11.76,20.53,20.53,0,0,0,.74,3q4.78,17,9.6,34a135.17,135.17,0,0,0,7.33,20.53c7.47,16,13.58,32.46,19.87,48.89,2.69,7,5.08,14.22,7.27,21.44,5.55,18.35,11.35,36.59,18.73,54.31,5.67,13.62,11.56,27.15,19.43,39.67,11.23,17.88,23.54,35,36.44,51.75,3.07,4,6.53,7.69,9.75,11.45C486,369.41,486.2,368.81,485.67,368ZM186.22,139.34c-11.29,2.47-21.65-5.54-21.11-16.11.31-6,.21-6.16,5.9-7.83,4.93-1.44,9.91-2.72,15.21-4.16ZM312.09,93a14.16,14.16,0,0,1,1.32,1.19,23.9,23.9,0,0,1,5.5,14.74c.41,7.52.46,15.07.65,22.62a8.56,8.56,0,0,1-.29,1.37c-2.47-2.87-4.64-5.34-6.73-7.88a3,3,0,0,1-.54-1.79q-.12-14.9-.16-29.81C311.84,93.32,311.92,93.25,312.09,93ZM253,7.44a6.72,6.72,0,0,1,3.51-1.26,6.23,6.23,0,0,1,3,.43c6.83,2.62,13.64,5.32,20.46,8,0,.27-.07.54-.11.81l-30,1.28C249.86,13,250.44,9.82,253,7.44ZM186.62,198.51a59.23,59.23,0,0,1-6-.66c-4.67-1-9.31-2.11-13.93-3.28a18.94,18.94,0,0,1-3.55-1.49c-7.59-3.76-7.49-11.18-5.57-16.24a6.5,6.5,0,0,1,5-4c4.2-1,8.41-2,12.65-2.78,3.68-.69,7.42-1.12,11.4-1.7ZM214,272.79a51.31,51.31,0,0,1-28.43,8.54,18.31,18.31,0,0,1-11.32-3.82c-2.84-2.19-3-3-1-5.9a13.16,13.16,0,0,1,1-1.34l14.6-16.12c.42.76.76,1.28,1,1.83a9.36,9.36,0,0,0,7.11,5.56c3.9.64,7.83,1.17,11.77,1.47,4.68.36,9.39.43,14.08.63.42,0,.84.08,1.67.16A57.38,57.38,0,0,1,214,272.79ZM302.89,176c-1-.45-1.75-.85-2.57-1.17-5.82-2.3-11.62-4.64-17.47-6.84a23.48,23.48,0,0,0-10.36-1.2c-.72.06-1.45,0-2.41,0-.06-1.51-.12-3-.18-4.41-.27-7.09-.59-14.18-.79-21.27-.1-3.59.09-7.19,0-10.78a32.54,32.54,0,0,0-.55-5.21c-.61-3.38-2.08-4.84-5.58-5-3.67-.2-7.37-.14-11.05,0-11.6.49-23.2,1.06-34.79,1.63-5.25.26-10.49.61-15.73.91-.94.05-2.06,0-2.23,1.13a2.86,2.86,0,0,0,.8,2.12c2.23,2.17,2.77,4.76,2.71,7.78-.15,7.1-.05,14.2-.05,21.3v3c1.05.28,1.69.31,1.79-.76,0-.45,0-.92,0-1.38,0-7.83-.08-15.67,0-23.51,0-2.52-.4-4.73-2.21-6.57a7.91,7.91,0,0,1-.75-1.15c.77-.12,1.35-.26,1.92-.29,13.25-.73,26.5-1.49,39.75-2.13q8.7-.42,17.41-.42c5.28,0,6,.73,6.54,6a22.62,22.62,0,0,1,.23,3.85c-.42,8.12.16,16.2.59,24.3.2,3.76,0,7.54,0,11.43-.63.21-1.31.48-2,.66a68.92,68.92,0,0,0-18.69,8.12c-4.94,3-9.87,6.12-14.67,9.38-2.34,1.59-4.35,3.66-6.56,5.46a4.66,4.66,0,0,1-2.27,1.28c-4.5.3-9,.44-13.52.62a9.11,9.11,0,0,1-1.38-.06c-1.5-.19-2.61-.81-2.87-2.48a8.58,8.58,0,0,0-.5-1.48c-1.06-.15-1.54.16-1.46,1.16.21,2.71,1.82,4.47,4.65,4.52,4,.06,8.1-.14,12.15-.25.73,0,1.45-.13,2.7-.24-3.45,5.42-5.59,10.78-3.67,16.94a22,22,0,0,0,11.18,13.16c-11.9.48-23.71.32-35.76.07a16.69,16.69,0,0,1-.27-2.08q0-17.15,0-34.29c0-15.58.09-31.16-.11-46.73-.19-15.39-.74-30.77-1.06-46.16-.21-10-.23-20.09-.48-30.13-.2-7.73-.62-15.46-1-23.19a9.53,9.53,0,0,0-.5-1.92c-1.56.29-1.26,1.27-1.23,2,.23,7,.5,14,.75,21q.11,2.76.18,5.52.54,22.8,1.07,45.6c.16,7.38.23,14.75.34,22.12.09,6.27.22,12.54.24,18.8q.1,31.53.11,63c0,5.25-.37,10.5-.29,15.75a107,107,0,0,0,1,11.28c.42,3.38,2.29,6.1,4.72,9.35a8.93,8.93,0,0,0,.47-2.14,3,3,0,0,0-.65-1.2,19.43,19.43,0,0,1-3.25-9.27c-.56-5.05-.28-10.08-.36-15.3,1.1-.1,1.9-.24,2.7-.24,11.8.1,23.6.31,35.39.27a22.39,22.39,0,0,1,6.64,1.13,33,33,0,0,0,23.23-1.2c3.47-1.5,6.91-3,10.32-4.65a2.7,2.7,0,0,1,3.22.41c2.55,2,5.25,3.74,7.95,5.49a48.13,48.13,0,0,1,10.49,8.92c4.76,5.51,6.09,12,6,19a2.59,2.59,0,0,1-1.37,2.22,18,18,0,0,1-10.1,3.27c-7.37.12-14.74.31-22.12.42q-19.49.29-39,.51A208,208,0,0,1,201,260.41l-1.64-.19c-5.54-.75-8.26-4.15-9.26-9.45-1.31-6.93-1.38-13.94-1.52-20.93-.12-6.17.26-12.35.27-18.52,0-7.75-.11-15.49-.15-23.23q-.19-35.53-.36-71.08c-.06-15,0-30.05-.08-45.07-.05-6-.49-12-.82-17.94s-.78-12.13-1.16-18.19c-.07-1.2-.08-2.4-.06-3.59.11-5.53,2.71-9,8.14-10.39a51.27,51.27,0,0,1,9.53-1.51c12.42-.67,24.85-1.19,37.29-1.69,11.6-.46,23.21-.9,34.82-1.18,6.81-.16,13.64-.11,20.46.1,7.21.21,9.52,2,11.39,8.88A63.9,63.9,0,0,1,310,38.37c.47,6.34.43,12.71.59,19.07a16.85,16.85,0,0,1-.19,1.87L305,58.12c-.15-6.09-.29-11.89-.42-17.68,0-1.38,0-2.77-.07-4.14a7.5,7.5,0,0,0-.65-1.8l-.77.08a11.64,11.64,0,0,0-.33,1.9c.07,6.36.18,12.72.27,19.08,0,.91,0,1.83,0,2.63-2.7,1.42-5.31,2.57-7.7,4.08a15.92,15.92,0,0,0-6.16,20.07,8.37,8.37,0,0,0,4.22,4.55c2.68,1.18,5.43,2.23,8.28,3.39,0,1.88,0,4,0,6.08-.08,15.94-.33,31.88-.18,47.82.08,7.54,1,15.07,1.38,22.62C303,169.71,302.89,172.65,302.89,176ZM296.15,63.28l-5.49,7.81A12.26,12.26,0,0,1,296.15,63.28Zm8.08,3.54a2.38,2.38,0,0,1,.52.15c0-.07,0-.15,0-.22a4,4,0,0,1,3.4,4.15c.1,2.18-.9,3.45-3.49,4.48,0,0,0-.09,0-.13a2.65,2.65,0,0,1-1.65.12,3.39,3.39,0,0,1-2.16-1.74,3.91,3.91,0,0,1-.57-2,4.44,4.44,0,0,1,2.65-4.58v.12A1.8,1.8,0,0,1,304.23,66.82ZM301.7,77.71h.07l.08-.09a3,3,0,0,1,2-.59c.2,0,.42,0,.64.07a10.91,10.91,0,0,1,1.52-.7c2.93-.92,4.13,0,4.1,3,0,2.29,0,4.58,0,7.28l-4.6,1c-1.2.72-2.83.3-4.16.25a.37.37,0,0,1-.29-.16l-2.93-.63C299.08,83.74,299.56,80.42,301.7,77.71Zm3.67,99.5c-2.4-29.08-3.29-58-1.6-87.19l6.1-2c.29,30.85.28,61.46,1.61,92.35A29.83,29.83,0,0,1,305.37,177.21Zm7.07-115.07A7.69,7.69,0,0,1,314.6,64c5.73,3.86,5.81,12.52-.24,18.46l0-.09a1,1,0,0,1-.47.26,7,7,0,0,1-.9,1.06.33.33,0,0,1-.31.11,4.06,4.06,0,0,1-.7.92V82.13l.09.12a23.28,23.28,0,0,0-.75-5.5h0c-.06-.17-.13-.34-.19-.52a4.66,4.66,0,0,0-.47-1.13,4.36,4.36,0,0,0-.69-.67,1.84,1.84,0,0,1-.39-2A7.34,7.34,0,0,0,310,71a4.67,4.67,0,0,0-.08-.52.89.89,0,0,0-.1-.23.33.33,0,0,1,0-.32s0,0,0-.07A8.79,8.79,0,0,0,308.26,67L306.78,66a.85.85,0,0,1-.5,0,16.16,16.16,0,0,0-2-.69l-.28-.06h0a2.11,2.11,0,0,1-.25,0h-.21l-.29,0h0l-.19.05v.12c-2.2.79-4.39,1.61-5,4.22a6.5,6.5,0,0,0,1.88,6.18A16.91,16.91,0,0,0,296.83,86a5.8,5.8,0,0,1-4.4-3A10.68,10.68,0,0,1,291,74.3a21.38,21.38,0,0,1,7.59-11.52c.14-.12.29-.23.44-.34.88-1.07,2.23-1.34,3.51-1.79a8.79,8.79,0,0,1,2.59-.73,1.92,1.92,0,0,1,.24,0,4.72,4.72,0,0,1,3.92.62,6.88,6.88,0,0,1,1.32.39A11.05,11.05,0,0,1,312.44,62.14Z"></path><path d="M159.76,67.53c2.09.63,4.24,1.11,6.26,1.93A38.73,38.73,0,0,1,170.59,72c8.68,4.91,8.26,18.4.51,23.86-6.1,4.3-11.81,4.1-17.38.39-2.69-1.79-5.46-3.45-7.05-6.44a18.07,18.07,0,0,1-1.8-12.06c.66-3.52,3.38-5.85,6.36-7.63A20.65,20.65,0,0,1,159.76,67.53ZM162.2,97c7.28.13,11.53-3.11,12.79-9.64a26.17,26.17,0,0,0,.2-7.13,5,5,0,0,0-3.58-4.74c-.39-.12-.67-.57-1-.81a19.37,19.37,0,0,0-3.23-2,20.7,20.7,0,0,0-12-.92c-5.25,1.09-9.27,5.36-8.85,11a15,15,0,0,0,11.64,13.67C159.7,96.79,161.27,96.89,162.2,97Zm-5.34-26.68,9.46.62C162.74,69.28,160.72,69.16,156.86,70.34Z"></path><path d="M136.85,246.28a3.43,3.43,0,0,1-6.85,0,3.44,3.44,0,0,1,3.6-3.34A3.37,3.37,0,0,1,136.85,246.28Zm-1.3.05c-1-.73-1.57-1.44-2.16-1.47s-1.24.75-1.37,1.29a1.21,1.21,0,0,0,1.43,1.51C134,247.59,134.53,247,135.55,246.33Z"></path><path d="M102.47,121.79c-.26,1.13.84,2.33-.43,3.42-1.52-.46-1.11-2-1.87-3.15a12.71,12.71,0,0,1-2.22.18c-.44,0-.85-.44-1.28-.68.34-.37.61-.87,1-1.07a7.57,7.57,0,0,1,1.78-.43c.8-1.09-.92-2.69,1.12-3.57l1.33,2.91h3.39C105.34,121.65,103.23,120.68,102.47,121.79Z"></path><path d="M168.49,45.68A3.38,3.38,0,0,1,164.91,49a3.3,3.3,0,0,1-3.16-3.47,3.22,3.22,0,0,1,3.55-3.32A3.28,3.28,0,0,1,168.49,45.68Zm-1.21-.13c-1-.68-1.58-1.33-2.24-1.43-.92-.14-1.5.56-1.48,1.53a1.37,1.37,0,0,0,1.57,1.47C165.77,47,166.31,46.29,167.28,45.55Z"></path><path d="M341.27,42.94c-2.26-.59-1.62-2.42-2.71-3.37a15.78,15.78,0,0,1-1.95.33c-.3,0-.86-.27-.87-.44a1.49,1.49,0,0,1,.4-1.12,10.26,10.26,0,0,1,1.89-.85,10.48,10.48,0,0,1-.2-1.54,19,19,0,0,1,.32-2.22c1,1.34,1.57,2.13,2.18,3,1.09.12,2.24-.93,3.46.12-.35,1.55-1.88,1.25-2.92,2Z"></path><path d="M239.6,41l-17.7.35h-1.65c-2.77-.07-3.35-.77-3.23-3.51.07-1.39.61-2.35,2-2.61a37.92,37.92,0,0,1,6-.9c10-.38,20-.64,30.07-.94,4.33-.13,8.65-.32,13-.39,2.39,0,2.83.53,2.72,3-.14,2.87-.71,3.62-3.59,3.78C258.87,40.18,250.59,40.5,239.6,41Z"></path><path d="M301.24,32.12a26.82,26.82,0,0,1-1-3.19,4.61,4.61,0,0,0-4.12-4.21,41.62,41.62,0,0,0-7.12-.65q-18,.36-35.9,1-24.57.84-49.13,1.9A32.11,32.11,0,0,0,196.66,28c-2.67.76-4.79,2.39-5.07,5.54a1.82,1.82,0,0,1-.33.74,4.87,4.87,0,0,1-.73.58c-.27-.53-.72-1-.69-1.45a7,7,0,0,1,3.32-5.74,14.2,14.2,0,0,1,7.24-2.4c4.7-.16,9.39-.32,14.08-.51,17.48-.69,35-1.43,52.44-2.08,7.37-.28,14.73-.47,22.1-.49a35.41,35.41,0,0,1,8.19,1A7,7,0,0,1,302.29,31C302.26,31.19,302,31.37,301.24,32.12Z"></path><path d="M236.53,242.2a11.47,11.47,0,1,1,11.4,11.47A11.5,11.5,0,0,1,236.53,242.2Zm11.64-9.64a9.63,9.63,0,0,0-9.88,9.44,9.88,9.88,0,0,0,9.57,9.86,9.67,9.67,0,0,0,9.78-9.27A9.44,9.44,0,0,0,248.17,232.56Z"></path><path d="M255.42,141.83l2,1c-.17.38-.25.79-.4.82a20.46,20.46,0,0,1-4.73.72c-.78,0-1.52-1.12-2.42-1.85-.74,1.09-1.19,3-3.16,3a4.71,4.71,0,0,1-2.34-.52c-1.66-1-1.73-4.27-.25-5.94s2.58-1.4,5.38,1.09c.27-.65.54-1.29.89-2.09,1.88,1.09.71,3.36,2.3,4.44,1.58-1.19.1-3.51,1.47-4.83C255.23,138.73,255.23,138.73,255.42,141.83Zm-7.16.18c-.88-.89-1.42-1.9-2.07-2-1.15-.13-1.32,1-1.34,2s.35,1.79,1.38,1.59C246.86,143.46,247.38,142.72,248.26,142Z"></path><path d="M202.05,36.45l.23,2.55c2.85.36,5.77-1.28,8.69,0-2.65,1.88-5.86,1.3-9,2.1a3.53,3.53,0,0,1,.57.89c.08.4.19,1,0,1.18a1.43,1.43,0,0,1-1.25.15c-2.68-1.06-3.11-3.16-1.1-5.3C200.57,37.6,201.08,37.26,202.05,36.45Z"></path><path d="M237.36,140.32l-1.12,1.19c-.24.26-.47.53-1.18,1.3l3.08,1.65c-1.84,1.6-2.67.1-3.95-.11-.12.33-.16.87-.43,1a1.9,1.9,0,0,1-1.26.09,23.68,23.68,0,0,1-1-8.15c2.58.33,1.1,2.61,2.15,3.42C234.92,141.09,235.64,138.42,237.36,140.32Z"></path><path d="M223.06,145.54l2.9.38a2.56,2.56,0,0,1-3.26,1.53,2.76,2.76,0,0,1-2.08-2.33A3.2,3.2,0,0,1,221.9,142a2.21,2.21,0,0,1,2.81-.13,2.69,2.69,0,0,1,1.14,1.72c0,.53-.71,1.11-1.2,1.57C224.42,145.34,224,145.31,223.06,145.54Z"></path><path d="M216.19,144.28c-.18,1.14-.33,2.15-.51,3.34-1.78-1.47-2.25-4-1.56-7.16,1.58-.61,1.17.9,1.6,1.51,3.85.39,4.9,1.82,3.83,5.29C217.4,147.39,219.12,143.4,216.19,144.28Z"></path><path d="M208.8,130.77c1.21.53,1.16,2.95,3.06,1.61l1-2.73a7.43,7.43,0,0,1,.52,6.82c-.73-.65-1.38-1.7-2.06-1.72s-1.44,1-2.19,1.51C208,135.15,207.71,132.86,208.8,130.77Z"></path><path d="M261.47,141.9c-2,1.48-3.2,1.15-3.8-.79-.31-1-.72-1.93-1.2-3.23l2.1-3.14a5.17,5.17,0,0,0,2.91,3C258.67,140.06,258.67,140.06,261.47,141.9Z"></path><path d="M212.87,141.38c-1.81.66-3.46,1.2-3.37,3.09.11,2.23,2.53,1.28,3.6,2.24a2.68,2.68,0,0,1-4.07.56,3.89,3.89,0,0,1-.5-5.43C209.78,140.11,210.93,139.89,212.87,141.38Z"></path><path d="M230.61,141.87c-2.39,2.24-2.39,2.24.65,3.64-.79,1.34-1.64,1.6-2.93.89a3.24,3.24,0,0,1-.77-4.39C228.31,140.92,229,140.85,230.61,141.87Z"></path><path d="M208,257.07c-2.24,1.33-4.49.59-5-1.46A6.81,6.81,0,0,1,208,257.07Z"></path><path d="M216.27,132.58c.8,2,.8,2,0,3.61C214.59,134.89,214.6,133.49,216.27,132.58Z"></path><path d="M218,137.7c-.15-.53-.35-.84-.27-1,.3-.68.7-1.31,1.06-2,.27.18.78.35.78.54C219.58,136.28,219.67,137.43,218,137.7Z"></path><path d="M217.25,130.47c-.54.28-.86.59-1.11.54s-.41-.47-.61-.72c.26-.2.51-.54.76-.54S216.79,130.1,217.25,130.47Z"></path><path d="M144.55,143.93l-3.13-2.75-4.91,3.89-.48-.43a3.7,3.7,0,0,1,.51-1c1.41-1.31,2.86-2.59,4.3-3.87a1.6,1.6,0,0,1,2.61.13c1,1.28,2,2.6,2.9,3.83-1.62,2.65-4.34,5.13-6.68,5.64Z"></path><path d="M138.38,151.68c-1.46,1.6-2.91,3.21-4.39,4.79a1.47,1.47,0,0,1-2.21.07c-1.45-1.23-2.87-2.5-4.46-3.91a27.84,27.84,0,0,1,6.18-6.22l.78.84c-.91,1-1.84,1.95-2.7,3-1.86,2.19-1.77,2.87.55,4.64a4.62,4.62,0,0,0,.83.4c1.78-1.15,3-3.16,4.9-4.16Z"></path><path d="M141.88,144.91c-.58.62-1.16,1.31-1.81,1.92-1.75,1.63-3.52,3.22-5.3,4.81-.88.79-.89.77-2.31-.21a51.19,51.19,0,0,1,7.52-7.56C140.85,143.1,141.43,143.86,141.88,144.91Z"></path><path d="M156.58,87.17c-.55.38-1.07.75-1.6,1.1a2.55,2.55,0,0,1-3.31-.21,2.87,2.87,0,0,1-1-3.18c.66-2.36,1.57-3.06,4.13-3.09a3.42,3.42,0,0,0,1.76-.45,29.53,29.53,0,0,0,3.74-2.82,6.45,6.45,0,0,0,1.12-2.09,3,3,0,0,1,3-2,2.58,2.58,0,0,1,2.46,2.78A3,3,0,0,1,163.91,80a13.05,13.05,0,0,1-2.58-.79c-1.08,1.07-2.35,2.27-3.53,3.54-1.5,1.6-1.21,2.82.84,3.79a21.62,21.62,0,0,0,2.3.92c.87.3,1.76.52,2.75.8.2-.32.39-.61.56-.9a3.2,3.2,0,0,1,5.41-.5c.81,1,.69,2.3-.33,3.51s-2.85,1.84-3.89.88a8.85,8.85,0,0,0-4.11-2.5A49.56,49.56,0,0,1,156.58,87.17Zm-2.64.21a2.61,2.61,0,0,0,1.91-2.67,2.12,2.12,0,0,0-2-1.93A2.27,2.27,0,0,0,152,85.39,2.08,2.08,0,0,0,153.94,87.38Zm12.18-.8c-1.05,1.89-1,2.91.12,3.36A1.74,1.74,0,0,0,168.5,89C168.91,87.16,167.23,87.25,166.12,86.58Zm-2-11.65c-.61,1-1.26,1.54-1.19,2a2,2,0,0,0,1.25,1.36,1.23,1.23,0,0,0,1.42-1.5C165.52,76.27,164.85,75.82,164.11,74.93Z"></path><path class="cls-3" d="M143.71,159.76c8.29,0,16.58.06,24.86-.45,11.86-.72,23.74-1.07,35.61-1.24,6.55-.09,13.06-.68,19.59-1,9-.4,18-1.06,27-1.81,1.83-.15,3.66-.35,5.5-.49a11,11,0,0,1,5.41.8,7,7,0,0,1,4.33,5.05c.33,1.62.56,3.26.85,4.89.2,1.1-.22,1.66-1.31,2-2.71.87-5.4,1.84-8.08,2.8A58.68,58.68,0,0,0,238,181.6c-2.53,2.25-5.48,4-8.23,6.05a2.77,2.77,0,0,1-1.82.5,40.81,40.81,0,0,1-4.14,0,133.61,133.61,0,0,0-22.63.08c-5.05.33-10.12.59-15.18.6-11.15,0-22.28,1-33.43.63-8.47-.29-16.9.49-25.36.58a13.43,13.43,0,0,1-3.56-.33c-3.27-.84-5-2.33-5.21-5.6-.35-4.95-.65-9.95.2-14.88.94-5.42,3-7.36,8.42-8.38l1.08-.21C133.41,162.26,138.63,162.3,143.71,159.76Z"></path><path class="cls-3" d="M264.78,152.46c0,1.1,1,1.73,1.31,2.68a.78.78,0,0,1-.24,1,.62.62,0,0,1-.91-.34c-1.13-3-3.61-3-6.18-3a41.28,41.28,0,0,0-8.53.6c-.43.09-.92.22-1.27-.5.36-.8,1.2-.88,2-1,4.65-.6,9.29-1.07,13.85.57Z"></path><path class="cls-3" d="M113.61,179.87a4.07,4.07,0,0,1,1.06,2.73c.29,1.54.55,3.07.86,4.61a5.76,5.76,0,0,0,5.38,5.06c.75.09,2.08-.13,1.89.95s-1.36.28-2.09.24c-3.53-.18-5.53-2.18-6.33-5.5C113.74,185.31,113,182.68,113.61,179.87Z"></path><path class="cls-3" d="M119.8,195.38a.7.7,0,0,1-.79.59,10.05,10.05,0,0,1-5.85-2.79.81.81,0,0,1-.11-1,.54.54,0,0,1,.92-.09,10.54,10.54,0,0,0,5.07,2.6A1,1,0,0,1,119.8,195.38Z"></path><path class="cls-3" d="M264.79,152.48c.16-2-1.27-1.84-2.55-2-.78-.09-2.22.66-2.13-.72.07-1.06,1.53-.49,2.38-.6a3.37,3.37,0,0,1,3.32,1.5c.77,1,.62,1.3-1,1.8Z"></path><path d="M128,175l.19,4.65-1.53.06-.41-10.44,1.5-.06.16,3.89H128a2.36,2.36,0,0,1,.8-1,2.75,2.75,0,0,1,1.47-.43,2.85,2.85,0,0,1,1.42.28,2.24,2.24,0,0,1,1,1,3.65,3.65,0,0,1,.4,1.62l.19,5-1.52.06-.19-4.8a1.89,1.89,0,0,0-.5-1.32,1.62,1.62,0,0,0-1.25-.43,2.15,2.15,0,0,0-1,.27,1.73,1.73,0,0,0-.64.7A2.25,2.25,0,0,0,128,175Z"></path><path d="M138.68,171.4l0,1.23-4.28.17,0-1.23Zm-3.21-1.75,1.53-.06.29,7.41a1.28,1.28,0,0,0,.16.66.68.68,0,0,0,.36.29,1.65,1.65,0,0,0,.46.06l.32,0,.21-.05.33,1.25a3.56,3.56,0,0,1-.38.12,3,3,0,0,1-.61.08,2.68,2.68,0,0,1-1.13-.17,1.94,1.94,0,0,1-.86-.66,2,2,0,0,1-.37-1.17Z"></path><path d="M144,171.19l.05,1.23-4.27.17,0-1.23Zm-3.2-1.75,1.52-.06.3,7.41a1.28,1.28,0,0,0,.16.66.63.63,0,0,0,.35.28,1.45,1.45,0,0,0,.47.07l.32,0,.21,0,.32,1.25-.37.12a3,3,0,0,1-.61.08,2.82,2.82,0,0,1-1.13-.17,1.89,1.89,0,0,1-1.23-1.83Z"></path><path d="M146.12,181.89l-.42-10.76,1.49-.06.05,1.27h.12a4.24,4.24,0,0,1,.36-.58,2.17,2.17,0,0,1,.67-.59,2.51,2.51,0,0,1,1.17-.29,3.1,3.1,0,0,1,1.71.41,3.25,3.25,0,0,1,1.22,1.34,5,5,0,0,1,.51,2.15,5.11,5.11,0,0,1-.33,2.19,3.25,3.25,0,0,1-1.11,1.44,3,3,0,0,1-1.67.56,2.54,2.54,0,0,1-1.17-.2,2.19,2.19,0,0,1-.73-.53,4.06,4.06,0,0,1-.42-.56h-.09l.17,4.15Zm1.22-6.91a4.37,4.37,0,0,0,.3,1.44,2.19,2.19,0,0,0,.73.94,1.71,1.71,0,0,0,1.13.31,1.85,1.85,0,0,0,1.13-.41,2.28,2.28,0,0,0,.65-1,4,4,0,0,0,.18-1.42,3.89,3.89,0,0,0-.28-1.38,2.21,2.21,0,0,0-.73-.95,1.87,1.87,0,0,0-1.17-.31,1.81,1.81,0,0,0-1.1.39,2,2,0,0,0-.66,1A4,4,0,0,0,147.34,175Z"></path><path d="M160.5,172.46l-1.37.3a1.62,1.62,0,0,0-.3-.5,1.4,1.4,0,0,0-.51-.37,1.65,1.65,0,0,0-.8-.12,1.81,1.81,0,0,0-1.07.33.86.86,0,0,0-.4.76.79.79,0,0,0,.31.62,2.33,2.33,0,0,0,1,.35l1.25.24a3.33,3.33,0,0,1,1.64.7,1.86,1.86,0,0,1,.59,1.33,2,2,0,0,1-.36,1.27,2.67,2.67,0,0,1-1.09.91,4.22,4.22,0,0,1-1.66.37,3.67,3.67,0,0,1-2.17-.48,2.33,2.33,0,0,1-1.08-1.56l1.46-.28a1.45,1.45,0,0,0,.6.85,2,2,0,0,0,1.13.24,2.08,2.08,0,0,0,1.19-.36.92.92,0,0,0,.42-.78.8.8,0,0,0-.3-.61,1.82,1.82,0,0,0-.85-.34l-1.34-.24a3.24,3.24,0,0,1-1.65-.73,1.91,1.91,0,0,1-.57-1.36,2,2,0,0,1,.34-1.23,2.59,2.59,0,0,1,1-.86,4,4,0,0,1,1.56-.35,3.27,3.27,0,0,1,2,.47A2.54,2.54,0,0,1,160.5,172.46Z"></path><path d="M163.34,172.66a1,1,0,0,1-.73-.27,1,1,0,0,1-.33-.71,1,1,0,0,1,.27-.73,1,1,0,0,1,.71-.32,1,1,0,0,1,1.06,1,.93.93,0,0,1-.12.52,1.09,1.09,0,0,1-.36.38A.93.93,0,0,1,163.34,172.66Zm.23,5.7a1,1,0,0,1-1.06-1,1,1,0,0,1,1-1,1,1,0,0,1,.73.26,1.07,1.07,0,0,1,.33.71,1.14,1.14,0,0,1-.12.52,1.09,1.09,0,0,1-.36.38A1,1,0,0,1,163.57,178.36Z"></path><path d="M170.16,167.05l-2.87,12.64-1.36.05,2.87-12.63Z"></path><path d="M175.44,166.85l-2.87,12.63-1.36.05,2.87-12.63Z"></path><path d="M178.51,173l.19,4.65-1.53.06-.31-7.83,1.47,0,0,1.27h.09a2.31,2.31,0,0,1,.81-1,2.67,2.67,0,0,1,1.45-.43,2.81,2.81,0,0,1,1.41.28,2.24,2.24,0,0,1,1,1,3.64,3.64,0,0,1,.39,1.61l.2,5-1.53.06-.19-4.8a1.88,1.88,0,0,0-.49-1.32,1.58,1.58,0,0,0-1.24-.43,1.81,1.81,0,0,0-.93.27,1.54,1.54,0,0,0-.62.69A2.25,2.25,0,0,0,178.51,173Z"></path><path d="M186.64,169.51l1.85,3,1.62-3.12,1.67-.07-2.29,4,2.62,3.81-1.67.07-1.88-2.86-1.64,3-1.67.06,2.28-4L185,169.57Z"></path><path d="M197,169.1l.05,1.22-4.27.17-.05-1.22Zm-3.2-1.76,1.52-.06.3,7.41a1.23,1.23,0,0,0,.16.66.65.65,0,0,0,.35.29,1.22,1.22,0,0,0,.47.06l.32,0,.21,0,.32,1.25a2,2,0,0,1-.37.12,3,3,0,0,1-.61.08,2.51,2.51,0,0,1-1.13-.17,1.88,1.88,0,0,1-.87-.66,2,2,0,0,1-.36-1.16Z"></path><path d="M200,176.92a1,1,0,0,1-.73-.27,1.05,1.05,0,0,1-.33-.71,1,1,0,0,1,.28-.73,1,1,0,0,1,.7-.33,1,1,0,0,1,1.06,1,1,1,0,0,1-.12.52,1.06,1.06,0,0,1-.35.38A1,1,0,0,1,200,176.92Z"></path><path d="M206.4,168.73l0,1.22-4.27.17-.05-1.23ZM203.2,167l1.52-.06.3,7.41a1.23,1.23,0,0,0,.16.66.7.7,0,0,0,.35.29,1.78,1.78,0,0,0,.47.06l.32,0,.21,0,.32,1.25a2,2,0,0,1-.37.12,3,3,0,0,1-.61.08,2.66,2.66,0,0,1-1.13-.17,1.88,1.88,0,0,1-.87-.66,2,2,0,0,1-.36-1.16Z"></path><path d="M211.62,176.52a3.54,3.54,0,0,1-1.94-.43,3.35,3.35,0,0,1-1.33-1.36,4.59,4.59,0,0,1-.54-2.1,4.73,4.73,0,0,1,.37-2.15A3.39,3.39,0,0,1,209.4,169a3.58,3.58,0,0,1,1.9-.58,3.54,3.54,0,0,1,1.94.43,3.32,3.32,0,0,1,1.33,1.37,4.64,4.64,0,0,1,.54,2.11,4.71,4.71,0,0,1-.37,2.14,3.42,3.42,0,0,1-1.22,1.46A3.58,3.58,0,0,1,211.62,176.52Zm-.05-1.28a1.85,1.85,0,0,0,1.17-.42,2.33,2.33,0,0,0,.66-1,4.11,4.11,0,0,0,.17-1.39,4,4,0,0,0-.28-1.37,2.23,2.23,0,0,0-.74-1,2,2,0,0,0-2.37.09,2.3,2.3,0,0,0-.66,1,4.18,4.18,0,0,0-.17,1.39,4,4,0,0,0,.28,1.37,2.17,2.17,0,0,0,.74,1A1.81,1.81,0,0,0,211.57,175.24Z"></path><path d="M220.5,165.06l-2.87,12.64-1.36.05,2.87-12.63Z"></path><path d="M224.22,171.29v-2.16l-1.76,1.24-.6-.94,1.89-1.06-2-.91.52-1,1.86,1.09-.18-2.14,1.11,0,0,2.16,1.77-1.24.6.94-1.89,1.06,2,.91-.51,1-1.86-1.09.18,2.14Z"></path><path d="M231.71,171v-2.15L230,170.08l-.59-1,1.89-1.06-2-.91.52-1,1.86,1.1-.18-2.15,1.1,0v2.15l1.77-1.24.6.95L233.05,168l2,.91-.51,1-1.87-1.1.19,2.15Z"></path><path d="M239.2,170.7v-2.16l-1.77,1.24-.59-.95,1.89-1.06-2-.9.52-1,1.86,1.09-.18-2.15,1.1,0v2.15l1.77-1.23.59.94-1.88,1.06,2,.91-.52,1-1.86-1.1.19,2.15Z"></path><path d="M246.69,170.4v-2.16l-1.77,1.24-.59-.94,1.88-1.06-2-.91.52-1,1.86,1.09-.18-2.14,1.1-.05v2.16l1.77-1.24.59.95L248,167.41l2,.9-.52,1-1.86-1.09.18,2.15Z"></path><path d="M254.18,170.1V168l-1.77,1.24-.59-.95,1.88-1.06-2-.91.52-1,1.86,1.1-.19-2.15,1.11,0v2.15l1.77-1.24.59,1-1.89,1.06,2,.91-.52,1-1.86-1.1.18,2.15Z"></path><path d="M120.93,149.59c.37-5.83,2.41-10.37,7.11-13.45,1.38-.9,2.88-1.63,4.3-2.47,8.56-5,20.25,2.08,20.83,11.57.45,7.38-1.73,12-8.35,15.19a30,30,0,0,1-6.64,2.6c-5.27,1.12-9.88-1-13.77-4.21C121.58,156.47,121.14,152.78,120.93,149.59Zm15.42,12c2.74-.31,5.44-.45,7.7-2.09a20.48,20.48,0,0,0,7.45-9.69,9.86,9.86,0,0,0-1.27-9.68,18.15,18.15,0,0,0-8.45-6.41c-2.05-.77-4.1-.88-5.93.76-.36.33-1,.36-1.46.59a13.29,13.29,0,0,0-2.66,1.35A21,21,0,0,0,124.47,147c-1.74,5.57.23,11.44,6.81,13.62A43,43,0,0,0,136.35,161.63ZM124.48,143.8l4.38-6.44C126,139.35,124.82,141.1,124.48,143.8Z"></path><rect class="cls-2" x="206.74" y="128.07" width="57.57" height="21.03"></rect><path d="M212,137.13V131h.92v2.64h3V131h.92v6.09h-.92v-2.66h-3v2.66Z"></path><path d="M218.57,131.85a.56.56,0,0,1-.39-.15.52.52,0,0,1-.17-.38.5.5,0,0,1,.17-.37.53.53,0,0,1,.39-.16.54.54,0,0,1,.4.16.5.5,0,0,1,.17.37.52.52,0,0,1-.17.38A.57.57,0,0,1,218.57,131.85Zm-.45,5.28v-4.57H219v4.57Z"></path><path d="M217,143.07h-.93a1.3,1.3,0,0,0-.2-.53,1.27,1.27,0,0,0-.35-.38,1.44,1.44,0,0,0-.48-.24,1.92,1.92,0,0,0-.55-.08,1.77,1.77,0,0,0-.94.26,1.8,1.8,0,0,0-.65.78,2.93,2.93,0,0,0-.24,1.25,2.9,2.9,0,0,0,.24,1.25,1.81,1.81,0,0,0,.65.78,1.77,1.77,0,0,0,.94.26,2,2,0,0,0,.55-.08,1.58,1.58,0,0,0,.47-.23,1.63,1.63,0,0,0,.36-.38,1.41,1.41,0,0,0,.2-.52H217a2.59,2.59,0,0,1-.29.82,2.26,2.26,0,0,1-.54.65,2.56,2.56,0,0,1-.76.42,2.75,2.75,0,0,1-.93.15,2.71,2.71,0,0,1-1.41-.38,2.62,2.62,0,0,1-1-1.08,3.58,3.58,0,0,1-.35-1.67,3.65,3.65,0,0,1,.35-1.68,2.61,2.61,0,0,1,1-1.07,2.65,2.65,0,0,1,1.4-.38,2.94,2.94,0,0,1,.91.14,2.63,2.63,0,0,1,.76.4,2.29,2.29,0,0,1,.55.65A2.48,2.48,0,0,1,217,143.07Z"></path><path d="M219,144.46v2.71h-.89v-6.09H219v2.27H219a1.35,1.35,0,0,1,.49-.59,1.59,1.59,0,0,1,.86-.21,1.7,1.7,0,0,1,.83.19,1.32,1.32,0,0,1,.54.58,2.06,2.06,0,0,1,.2,1v2.9H221v-2.79a1.1,1.1,0,0,0-.26-.78.91.91,0,0,0-.72-.28,1.13,1.13,0,0,0-.56.13.92.92,0,0,0-.39.39A1.21,1.21,0,0,0,219,144.46Z"></path><path d="M225.08,147.27a2.24,2.24,0,0,1-1.16-.29,1.92,1.92,0,0,1-.75-.82,2.7,2.7,0,0,1-.27-1.24,2.73,2.73,0,0,1,.27-1.24,2,2,0,0,1,1.84-1.13,2.11,2.11,0,0,1,.75.13,1.68,1.68,0,0,1,.66.4,1.88,1.88,0,0,1,.45.71,3,3,0,0,1,.17,1.05v.32h-3.63v-.67h2.76a1.26,1.26,0,0,0-.15-.62,1,1,0,0,0-.4-.43,1.21,1.21,0,0,0-1.25,0,1.21,1.21,0,0,0-.43.47,1.4,1.4,0,0,0-.15.64v.52a1.73,1.73,0,0,0,.16.78,1.12,1.12,0,0,0,.46.48,1.25,1.25,0,0,0,.68.17,1.39,1.39,0,0,0,.46-.07,1,1,0,0,0,.36-.22,1,1,0,0,0,.23-.36l.84.15a1.54,1.54,0,0,1-.36.65,1.65,1.65,0,0,1-.65.43A2.28,2.28,0,0,1,225.08,147.27Z"></path><path d="M230,147.27a2.11,2.11,0,0,1-1.14-.3,2,2,0,0,1-.73-.84,2.77,2.77,0,0,1-.26-1.22,2.85,2.85,0,0,1,.26-1.23,2,2,0,0,1,1.86-1.13,2.12,2.12,0,0,1,.93.19,1.75,1.75,0,0,1,.66.54,1.56,1.56,0,0,1,.3.8H231a1,1,0,0,0-.32-.55,1,1,0,0,0-.68-.23,1.08,1.08,0,0,0-.65.19,1.31,1.31,0,0,0-.44.56,2.14,2.14,0,0,0-.15.84,2.24,2.24,0,0,0,.15.86,1.33,1.33,0,0,0,.43.57,1.23,1.23,0,0,0,1.12.1.89.89,0,0,0,.34-.27,1,1,0,0,0,.2-.42h.87a1.64,1.64,0,0,1-.29.79,1.8,1.8,0,0,1-.64.55A2.18,2.18,0,0,1,230,147.27Z"></path><path d="M232.78,147.17v-6.09h.89v6.09Zm.82-1.54v-1.09h.16l1.82-1.93h1.06l-2.07,2.2h-.14Zm2.07,1.54L234,145l.61-.62,2.12,2.79Z"></path><path d="M245,144.13a3.65,3.65,0,0,1-.36,1.68,2.58,2.58,0,0,1-1,1.07,2.81,2.81,0,0,1-2.82,0,2.64,2.64,0,0,1-1-1.08,3.58,3.58,0,0,1-.35-1.67,3.65,3.65,0,0,1,.35-1.68,2.73,2.73,0,0,1,3.8-1.07,2.58,2.58,0,0,1,1,1.07A3.65,3.65,0,0,1,245,144.13Zm-.91,0a2.9,2.9,0,0,0-.24-1.25,1.87,1.87,0,0,0-.65-.78,1.83,1.83,0,0,0-1.88,0,1.8,1.8,0,0,0-.65.78,3.38,3.38,0,0,0,0,2.5,1.8,1.8,0,0,0,.65.78,1.83,1.83,0,0,0,1.88,0,1.87,1.87,0,0,0,.65-.78A2.9,2.9,0,0,0,244.11,144.13Z"></path><path d="M249,145.28v-2.67h.89v4.56H249v-.79h0a1.43,1.43,0,0,1-.51.61,1.48,1.48,0,0,1-.86.24,1.55,1.55,0,0,1-.78-.19,1.36,1.36,0,0,1-.53-.58,2.2,2.2,0,0,1-.19-1v-2.9H247v2.8a1.06,1.06,0,0,0,.26.74.9.9,0,0,0,.67.28,1.16,1.16,0,0,0,.5-.13,1,1,0,0,0,.41-.38A1.15,1.15,0,0,0,249,145.28Z"></path><path d="M253.2,142.61v.71h-2.49v-.71Zm-1.82-1.1h.89v4.32a.77.77,0,0,0,.07.39.38.38,0,0,0,.2.18.84.84,0,0,0,.27,0H253l.13,0,.16.74-.22.06a1.86,1.86,0,0,1-.36,0,1.46,1.46,0,0,1-.66-.12,1.14,1.14,0,0,1-.49-.41,1.21,1.21,0,0,1-.18-.68Z"></path><path d="M254.77,147.23a.61.61,0,0,1-.42-.17.58.58,0,0,1-.18-.42.54.54,0,0,1,.18-.42.58.58,0,0,1,.84,0,.54.54,0,0,1,.17.42.52.52,0,0,1-.08.3.53.53,0,0,1-.21.21A.61.61,0,0,1,254.77,147.23Z"></path><path d="M257.14,147.23a.61.61,0,0,1-.42-.17.58.58,0,0,1-.18-.42.54.54,0,0,1,.18-.42.58.58,0,0,1,.84,0,.54.54,0,0,1,.17.42.52.52,0,0,1-.08.3.53.53,0,0,1-.21.21A.61.61,0,0,1,257.14,147.23Z"></path><path d="M259.51,147.23a.61.61,0,0,1-.42-.17.58.58,0,0,1-.18-.42.54.54,0,0,1,.18-.42.58.58,0,0,1,.84,0,.54.54,0,0,1,.17.42.52.52,0,0,1-.08.3.53.53,0,0,1-.21.21A.61.61,0,0,1,259.51,147.23Z"></path></svg>