<svg xmlns="http://www.w3.org/2000/svg" id="Layer_1" data-name="Layer 1" viewBox="0 0 900 340"><defs><style>.cls-1{fill:#ffc880;}.cls-2{fill:#cce3ff;}.cls-3{fill:#fff;}</style></defs><path class="cls-1" d="M812.45,300.27a33.39,33.39,0,0,1-3.05,2.62c-2.26,1.47-4.55,4.87-6.76-.41-.51-1.21-2-1.6-3-2.37-.34,1.89-1.38,4.32-.9,5.58,2.91,7.76,6.17,15.25,9.63,23.59l-3.55,4.4c-1.86-5.85-1.11-14.1-7.56-12.75.81-12.36-2.5-16.34-11.53-15.13-2.28.3-4.66-.73-8.42-1.4,4.57-2,7.48-3.12,10.27-4.65,1.27-.69,3.23-2.24,3.23-3.39,0-2.12-1.2-4.25-1.95-6.33s-1.62-4.3-2.47-6.55l9.53-1.91-.12-2.63c-4,0-8.18-1.15-11.89.27-5.57,2.14-10.59,1.91-15.66-1.7-1.16-.82-2.37-1.49-3.67-2.31-.27-1.93-.29-6.08-1-6.31-2.06-.71-5.46-1.14-6.42.54-4.16,7.3-9.61,5.88-14.67,5s-7.93,3.79-11.14,7.5c-4.63-9.22-11.35-10.1-14.36-2.42l-2.36-4.07-8.44,7.64c-1.54-6.94-3.6-10.84-8.1-6.24-2.15-5.72-4.73-9.63-9.79-7.7-2.54,1-5.28.95-7.93,1.4-6.49,1.13-8.43-.77-10.47-12l-6.39,8.82c.24.86.47,1.72.7,2.59-17.72.52-35.44.73-53.15,1.69-8.51.47-17,2.63-25.5,3.45-3.62.34-7.31-1.19-11-1.13-7.56.11-15.1,1-22.65,1-4.83,0-9.64-1.41-14.47-1.66-9.42-.48-18.84-1-28.26-.79-23.16.42-46.32,1.38-69.49,1.79-19.76.34-39.54.71-59.3.18C353.73,273.7,327,272,300.3,271c-9.46-.36-18.95-.1-28.41.39-1.93.09-3.79,2.5-5.69,3.84l.39,2.7c-3.24-2.35-6.45-4.78-9.74-7a2.75,2.75,0,0,0-2.71-.18c-5,2.89-10.93,2.42-14.87,9.37-1.06,1.86-4.07,1.61-6.22,2-4.37.86-8.76,1.52-14.45,2.49l5.47-10c-5.84-1.77-10.7-3.26-15.56-4.7-6.93-2.05-8.74,4.26-9.22,12.27l-29.95,2.34,5.3-11.4c-10.45,3.13-21.26-1.39-31.44,8.8l10.23,1.73c-9.32,4.66-11.58,3.76-12.51-4.33a22.18,22.18,0,0,1-3.55,1.87c-3.32,1-6.59,3-9-3.35-.53-1.37-4.9-.6-7.22.44-3.38,1.51-6.51,4.15-9.36,6.06-1.32-4-1.93-7.64-2.66-7.69a154.14,154.14,0,0,0-22.33-.28c-1.85.14-3.58,3.67-5.66,6-1-2.7-1.91-5.23-3.27-8.93-6.42,15.81-10.1-.49-15.26-.76l-.11-2.61,25.16-3.57-9.38-7,25.66-3.76-4.37,9.2,9.45,4.19c-.13-1.12-.26-2.25-.4-3.37,2.76-3.07,5.24-7.08,8.35-9,4.93-3.06,5.81-6.78,4-10.58-3.8-.08-6.29-.18-8.78-.17-1.11,0-2.48-.32-3.28.45-7.19,6.85-14.85,1.64-22.27,1.93-7.88.3-15.79-.17-23.67.06-1,0-2,2.3-3,3.53,1.24.78,2.43,1.92,3.72,2.25,2.73.71,5.52,1,8.29,1.46L71.85,259c-1.91.45-4,.42-5.68,1.47-2.12,1.3-5.22,3-5.69,5.42-1.33,6.87-4.53,5.67-8,5.94-2.49.19-4.87,2.54-7.39,3.05-3.44.69-7.13,1.58-10.4.49-4-1.33-7.62-4.63-11-6.79L27.82,262l-7.9-6.55,3.55-4.29c-1.18-4.69-2.28-9-3.37-13.37l1.39-1.15c-3.12-.89-6.26-1.62-9.33-2.74-1.42-.52-2.69-1.82-4-2.76l4.7-1.07c1.35-9.8-8.82-.46-7.84-10.78l22.42,4.51.3-2-10.78-3.87c11.16-9.81,21.93-3.29,32.47-5.87l-5.89-2.28c1-1.49,1.89-2.87,3.77-5.7-11.06,2.43-18.31-15.57-29.57-5.3l0-2.5,13.94-6.55.17-1.47c-2.18-.28-4.46-.08-6.51-1s-5-2.22-5.82-4.57C16.76,175,13,171,6.82,171.24a2.58,2.58,0,0,1-2.25-1.15c1.23-.35,2.47-.69,3.7-1.06s2.6-.78,3.6-1.09c-.78-3.51-1.54-6.91-2.47-11.14l-4.89-3.13,9.43-6.78L-1.29,140.7c4.51,0,8.57-.55,12.52.13,6.4,1.11,10.94-4.7,16.24-7.71,2.25-1.28,4.57-2.31,6.75-3.4l-1.86-2.19,5-4.32L7.78,112.85c1.11-6,3.07-10.39,8.93-8.82,2.34.63,5-.9,7.47-1.45l.18-2.57L10.75,94l.51-2.56c10.92,5.32,21.67,2.07,32.48-.65C30.91,81.26,16.69,85,3,83.64l0-3.21c5.67-1.61,11.32-3.52,17.05-4.68,2.78-.56,5.78.91,8.55.27,1.71-.4,3.16-3,4.73-4.67l-.85-2-5.12-.64L42,57c-.27-.86-.53-1.73-.79-2.59L27.76,56.83C25.78,46.32,19.28,52.46,15,49c5.65-.6,11.34-.82,16.94-2a16.16,16.16,0,0,0,7.64-4.51c4.67-4.64,9-10,14.14-15.72l-8.42-3.08.21-1.41C52.74,20.68,60,18.87,67.2,17.46c4.07-.78,9.43-3.45,12.08-.86,9.18,9,19.27,4.46,28.84,6.56,2.4.53,4.75,2.13,7.12,2.11,3,0,6-1.18,9-1.85l.21,3.36H100.49c0,1.21-.07,2.43-.11,3.65l3.83.74c6.12,1.15,12.21,2.92,18.35,3.28s12.45-.66,18.68-1.08l22.93-1.52c.46-4-.54-5.41-4.59-4.66s-8.3,1-12.45,1.4c-.09-1.15-.17-2.3-.26-3.45,2.79-.52,5.56-1.38,8.35-1.48,5.32-.19,10.4-1.2,16,1.62,4,2,9.43-1.69,14.2-3,.86-.23,1.63-1.6,2.44-1.59,8.42.08,16.84.38,25.26.5a33.85,33.85,0,0,0,5.4-.89c0,.13.35,1.79.77,3.92l-23,3.36,0,1.53h28.82l.33-1.84-3.35-3.87c5.14-.67,9.89-2,14.6-1.74,6.89.36,13.75,2,20.63,2.72,1.1.12,2.24-1.63,3.43-2.21,3.65-1.77,7-4.55,10.88.82C273,25,277,22.9,279.84,23c4.59.1,9.2.85,13.77.54,4.1-.28,8.69,6.81,12.51-1.64.43-.95,5.52-4.92,5.21,3.15,2.51.07,5.88,1.64,7.34-.07,4.1-4.79,8.32-3,11.7-.57,4,2.79,6.94,3.18,11.35,1.68,5.65-1.92,11.88-.47,17.86.49,3-3.22,5.31-3.23,9.63,0,3.7,2.78,9.45.17,14.27-.34,1.39-.14,3.68-2.28,4-1.77,4.73,8.82,11,1.15,16.45,3.12,2.59.94,5.92-3.24,9-4,2.6-.65,5.39.29,8.09.5,4.65.35,9.3.79,14,.89.55,0,1.13-1.9.9-1.48,3.87,1.08,7.11,2.8,10.33,2.73,7.44-.15,14.87-1.67,22.31-1.66,6.24,0,12.62,2.9,18.67,1.71,5.87-1.15,11.38,2,17,.38.64-.18,1-2.1,2.37-5,2.64,1.06,7.08,3.05,11.61,4.56,1.82.6,4.5,1.3,5.6,0,4.6-5.54,9.89-2.11,14.76-2.87,3.2-.5,6.59,2.63,10,3.05a47.23,47.23,0,0,0,14.39,0c4.07-.74,8-3.27,11-4.57,3.64,1.56,6.62,3.91,9.59,3.89a111.93,111.93,0,0,0,19-2.21c1.91-.35,3.6-2.89,5.53-3.47,2.09-.63,4.74-1.2,6.45.08,6.28,4.68,12.56,3.09,19.18,2.42,11.46-1.16,23-.39,34.51-1,3.63-.2,7.16-2.8,10.81-3.54,3.25-.66,6.75-1.14,9.9-.16,11.68,3.6,23.08,6.13,34.17-3.51,1.89-1.65,5.13-.7,7.67-.16,3.25.7,6.4,3.05,9.62,3.2,8.46.4,17,.13,25.42-.28,1.06,0,2.06-2.54,1.93-2.37l17.63,2.89V8.24c2.16.37,4.31.8,6.48,1.09,1.54.2,3.1.21,4.65.32a64.71,64.71,0,0,0,8.19.21c4-.32,8-.48,12-1,8.37-1.08,16.72-2.4,25.09-3.5,3.76-.49,7.54-.65,11.31-1.08a5.08,5.08,0,0,0,2.7-1.06c4.65-4,8.32-4.38,15.46-.92l-7.51,1.88c.09.87.17,1.73.26,2.6,2.57-.21,5.14-.28,7.7-.65,4.68-.69,7.83,2.13,11,7,2.15,3.32,6.05,4.39,9.22,6.28,1.66,1,3.44,1.57,6.48,2.92-8,2.61-16.69-1.13-19.32,13.88,5.29,1.47,10.13-7.95,15.5.83,4.64,7.58,1.48,14.72,2.09,22-4.74,2.61-7,13.3-4.45,23.08l6.63-4.69c-1.49,3-2.22,4.48-3,6l2.82,2.85L887.08,104.7c.91,2.43,2.38,6.37,3.91,10.49,2.19,0,5.92-4.19,6,3.75a6.13,6.13,0,0,1-.94,3c-1.15,1.85-2.45,3.51-3.7,5.24,2,1.85,4,3.77,6,5.51.9.76,2,1.13,2.89,3.12l-8.11,1.68L894.5,139c-2.35,5.4-4.7,10.8-7.13,16.41,7,2,4.3,11.72,6,18.37h-7l-.24,1.7,4.74,5.11c-3.64,3.13-6.56,5.64-11,9.42l6.26,4.86c-1.28,5.1-2.15,8.27-2.85,11.52-.21,1,.39,2.41.08,3.21-3.69,9.71.08,15,5,21.19,3.8,4.78,6.14,11.91,9.13,18l-1.36,2.1L886.67,240c-4.83,3.86-12.62,5.4-15.3,17.35,5.28,3.76-5.45,8.74-.44,15.09,2.92,3.71,3.51,11.14,5.52,18.18L870,287c-.24,2.57-.46,4.92-.93,10-3.63-5.26-6.61-8.66-8.75-12.9-3.56-7.08-7.07-7.67-12.62-4.09-5.86,3.79-12.35,5.59-20,8.89l13.77,14.72-.74,3.22c-5.35,0-10.7.21-16-.06-4.55-.24-7.86.77-7.1,9,.13,1.39-1,3-1.6,4.52a26,26,0,0,1-3.09-3c-1.88-2.54-3.64-5.28-6-8.72l11.06,1.1c-2.49-4.25-4-6.86-5.59-9.51.89-.62,2-2,2.69-1.68,3.85,1.64,7.55,4,11.41,5.51,3.21,1.25,6.44,1.36,6.92-5.33l-5.34-.92c-3.29-.54-7.44-.09-4-7.83.21-.49-1.5-3.94-2.46-4.08-6-.87-12-1.19-18-1.69,2.41,5,.68,13.69,6.84,12.66C810.92,296.68,811.73,299.05,812.45,300.27Zm-453.9-76c6.3,0,13.32-5,17.48,3.79,4.44-1,8.32-2.35,12.25-2.69,7-.6,14-.62,21-.82,3-.08,6,0,9,0,1.48.82,2.8-1.42,4.21-1.52,7.91-.58,15.83-.64,23.75-.87.19,0,.39.05.58,0,4.95-.41,9.91-.86,14.86-1.22,4.34-.32,9.08-3.05,11.92,4.22,1-.8,1.64-1.79,2.3-1.82,13.86-.43,27.73-.84,41.59-1.06,3.57-.06,7.16,1,10.71.74,10.74-.64,21.64-3.69,32.15-1.92,9.51,1.6,19.28-6.24,28.42,2,.45.4,1.61-.95,2.47-1.24a21.47,21.47,0,0,1,5-1.34c9.5-.73,19-1.49,28.5-1.88,5.94-.25,11.91.38,17.85.16,7.93-.31,15.85-.95,23.75-1.72,1.56-.15,3.07-1.51,4.6-2.32a73.65,73.65,0,0,0-21.45-3.32c-10.15-.22-20.31.31-30.46,0-5.54-.16-11.08-2.15-16.6-1.94-7.65.3-15.26,2.14-22.91,2.84a194.16,194.16,0,0,1-20.46.79c-11.42-.15-22.88.71-34.09-4-2.36-1-5.13,0-7.7.07a48.43,48.43,0,0,1-7,.1c-2-.24-4.16-2.18-6-1.61-8.78,2.79-17.46,6.23-26.6,3.75-1.76-.47-3.73-1.31-5.32-.64-9.93,4.24-19.71,4.67-29.63-.29-1.84-.92-4.28,0-6.36.65-3.62,1.09-7.13,3.39-10.77,3.77-6.49.7-13,.4-19.55.42-18.16.06-36.32.52-54.47,0-19.55-.57-39.08-2.39-58.63-3.09-14.47-.52-29-.1-42.86-.1l11.55,9.54c-.21.63-.42,1.26-.62,1.89H238.52c1.43,2.85,3.09,4.41,4.83,4.59,13.32,1.37,26.65,3,40,3.52,12.94.53,25.9-.38,38.85-.09,7.45.17,14.88,1.86,22.33,2.15,8.05.31,16.12,0,24.16-.51,1.55-.09,3-2.17,4.54-3.33-4.24-1.33-7.83-.94-11.34-1.54-1.2-.2-2.2-2.85-3.3-4.38Zm-238,1.18.37-2.11c1.28,0,2.57,0,3.85,0,7.93-.33,15.94-7,23.79.65.39.38,1.29-.24,1.94-.49,2.41-.91,4.78-2.5,7.21-2.66,7-.45,14,0,20.93-.54,7.15-.6,14.25-2.71,21.4-3,6.83-.24,13.7,1.55,20.54,1.44,3.5-.07,7-2.36,10.47-3.64l-.3-2.24c-10.22-2-21.24,2.77-28.76-4.44l-19.37,2c-.65.59-2,2.88-3.41,2.91a177.31,177.31,0,0,1-22.93-.61c-5.35-.58-10.6-3.19-16-3.85-3.88-.48-7.87,1.3-11.79,1.17-18.21-.62-36.4-1.48-54.6-2.45-4.81-.25-9.59-1.22-14.83-1.92,2,6.8,10.32,13.87,14.77,14.09,3.7.19,9.72-.51,10.64,2.09,3.3,9.39,7.45,5.68,12,4.2,2.06-.67,4.36.14,6.56.28-.52,8.81,4.24,5.27,6.79,5.32,7,.11,14.06-.57,21.08-1a14.88,14.88,0,0,0,3.47-1.11c0-.59,0-1.19,0-1.79ZM345.36,65.34c-.09-.77-.18-1.54-.28-2.31-46.95-2.17-93.9-5.62-140.94-1,6.86,2.08,13.77,2.55,20.69,2.55,21.82,0,43.65-.49,65.47-.16,12.61.19,25.2,1.88,37.82,2.34C333.85,67,339.61,65.86,345.36,65.34Zm-217,3.5c2.15-.92,4.28-2.41,6.49-2.66a79.92,79.92,0,0,1,12.38-.25c8.75.38,17.49,1.09,26.25,1.41a50.58,50.58,0,0,0,11.65-.71c1.45-.28,2.7-2.68,4-4.12-.19-.69-.38-1.39-.56-2.08-11.45,0-23-1.13-34.32.25-19.38,2.34-38.5-4.31-57.87-2.11-7.39.84-15-1.61-21.69,5.6.6.35,1.1.88,1.6.9,14.53.34,29.07.51,43.59,1.06C122.68,66.23,125.38,67.82,128.39,68.84ZM278,255.06c3.62,0,6.37-.32,9.06.12,1.75.29,4.46,1.1,4.91,2.71,2.26,8.07,6.62,6.58,9.8,3.51,4.76-4.61,9.31-4.14,14.57-3.55,4.18.48,9.31,1.43,13-5.25-8.32-2.55-12.35-2.55-18.63-.76-1.05.3-2.32-.5-3.41-1.09C297.93,245.6,286.46,245.41,278,255.06ZM777.68,20.15c-18.47-2.18-36,9.48-54.56,7.72a9.35,9.35,0,0,0,5.6,2.3c2.26.29,5.62-.82,6.61.89,6.2,10.76,12-4.48,17.93,0,.49-1.95,1-3.91,1.2-4.76C761.91,19.92,770.74,29.64,777.68,20.15Zm-299.32,233c-.09.83-.19,1.65-.28,2.48.83.88,1.66,2.51,2.5,2.52,5.79.12,11.59-.2,17.39-.13a10.29,10.29,0,0,1,4.76,1.45c1,.55,1.62,2.69,2.57,2.95,5.71,1.54,7.41-4.09,9.37-11.66-3.44,0-6.2-.31-8.92.08-2.92.42-5.78,2-8.7,2.2C490.83,253.34,484.59,253.1,478.36,253.1ZM720.19,33.34c-.07-.73-.15-1.46-.22-2.19H695.19c-1.23,4.78-2,7.76-2.86,11.15,5.28,1,10.31,3.51,15.08-4.21,1.8-2.91,5.67-7.9,10-3.22C717.78,35.33,719.23,33.89,720.19,33.34ZM109.54,48.7c-1.65-4.45-2.41-9.43-4.57-11.65-3.72-3.82-8.3-6-12-2.34.17,3.07.29,5.09.41,7.24l4,1.8-4.38,2.81,13.62,4.72Zm494.05,207c.25,1,.49,2,.74,3,3,.86,6.31,3.2,9,2.24,4.4-1.56,8.41-5.28,13-8.38-4.5-6.3-11.25-2.57-17-4.06C607.83,248.05,605.55,253.14,603.59,255.71Zm-207.77,5.66c8.06,8.93,12.11-1.95,17.65-4.48l-.06-2-15.66-2C397.08,255.79,396.45,258.56,395.82,261.37Zm170-6.88c-1.4-4.32-17.44-5-24.07-1.35C549.67,261.2,557.62,253.44,565.82,254.49Zm-340.7-1.67c-3.44-6.29-13.84-6.41-21.4,0ZM376.06,64.25c6.66,11.66,14.11,2.53,20.29,6C391,60.75,383.91,65.38,376.06,64.25ZM636.84,42.4h23.85C653,36,645.39,37.6,636.84,42.4Zm231.5,232.18-4.94-11.33c-1.66,1.69-3.91,2.92-4.76,5.2-.59,1.58.4,6.26,1.33,6.68C861.93,276,864.3,275,868.34,274.58Zm-406-209.91-.15-3.88-19.59,1.65c.05,1.23.1,2.46.14,3.69Zm6.26-2.48c0,.79,0,1.59,0,2.39h18.69c0-.8,0-1.6,0-2.39ZM651.19,248.75l-.71,2.68c1.92,1.27,3.89,3.72,5.74,3.54,3.49-.34,6.9-2.19,10.58-3.5C662,245.55,656.43,249.08,651.19,248.75ZM532.58,65.5l-.05-2.15H514.41c0,.71,0,1.43,0,2.15Zm272-12.56c4.55-.22,8.72,3.61,13.22-.84C811.53,47.92,807.76,48.07,804.59,52.94ZM444.06,261c-3.47-3.56-6.1-12.29-12.69-4.36ZM494.61,62.48l0,2.13H508l0-2.13ZM292,34.4c0-.35.05-.71.08-1.06l-13.48-2c-.05,1-.09,2-.14,3ZM133.54,47.26c-.08.6-.17,1.2-.25,1.8,3.59,1.25,7.16,2.59,10.78,3.59.45.13,1.61-1.55,1.63-2.42s-.87-2.8-1.41-2.84C140.71,47.13,137.12,47.26,133.54,47.26Zm-8.6,213.18,9.73-7.16C129,247.53,127.48,248.56,124.94,260.44Z"></path><path class="cls-1" d="M838.13,294.73c4.56-3.5,8-6.09,11.43-8.8.79-.63,1.37-1.85,2.17-2.44,1-.74,2.51-2,3.13-1.42a6.43,6.43,0,0,1,1.51,4.48C855.62,291.4,843.48,297.8,838.13,294.73Z"></path><path class="cls-1" d="M635.71,280.64l-9.34,6.52C626.54,277.52,627.08,277.13,635.71,280.64Z"></path><path class="cls-1" d="M358.58,224.11c-2.47,1.06-5,3.17-7.42,3-19.51-1.19-39-3-58.51-4.19-8.91-.54-17.85-.09-28.21-.09,2.07-1.83,3.14-3.55,4.3-3.68,7.71-.89,15.44-2,23.16-2A250.82,250.82,0,0,1,320.73,219c6.07.7,12,3.2,18.11,4.05,3.72.52,7.56-.95,11.33-.81,2.79.11,5.57,1.39,8.37,2.11C358.55,224.29,358.58,224.11,358.58,224.11Z"></path><path class="cls-2" d="M34.22,278.52q-3.39,4.07-6.8,8.12l1.57,1,6.79-8.13Z"></path><path class="cls-2" d="M48.82,262.27l1.53,1.24-6.79,8.63,6.35-.37C34.11,295.33,15,316.33.17,339.47H8C25.52,319.65,43.19,300,65.76,284.22,96.61,262.69,129,243.36,167.4,230.81c-.84,2.05-.89,3-1.46,3.46-13.31,10.93-25.36,23.1-41.34,31.37-14.42,7.45-28.09,15.92-39.9,26.62A498.77,498.77,0,0,0,39,339.47H145.54a26.62,26.62,0,0,1,7.17-2.26l1.29,1.37-1.21.89H839.05c-15.57-19.86-34-37.7-52.27-55.6a56.69,56.69,0,0,1-4-4.77L784.5,278c24.27,18.1,44.42,39.37,63.41,61.52h53.38c-1.49-1.45-3-2.86-4.69-4.21s-3.35-4-2.89-5.59c1.93-6.54-2.18-9.85-7.19-13.29-2.46-1.68-4.29-4.19-6.08-6.51-4.44-5.77-8.65-11.69-13.05-17.49-2.75-3.62-5.66-7.18-11-3.21-5.15-5.45-10-10.76-15-15.88-28.4-28.74-62.66-51.47-96.93-74.16-1.77-1.17-5.33-1.19-7.63-.55-3.84,1.08-6.79,1-9.64-1.71-13.48-13-30.23-21.66-48.36-28.44-2.61-1-5.31-1.8-9.13-3.08l4.13,5.35-1,1c-3.65-1.07-7.34-2-10.94-3.24-33.68-11.17-67.17-22.81-101.08-33.42a263.15,263.15,0,0,0-69.92-11.77,963.48,963.48,0,0,0-166.36,8.54c-52,7.34-102.59,19.32-150.79,38.39C149.24,179.89,125,190,104,205.27c-15,10.92-28.81,23.39-47.41,30.48,3.44,5.56-.49,8-5,9.67-3.45,1.3-5.23,2.59-5,6.5.1,2.44-2.34,5.41-4.51,7.39s-5.76,3.07-8.42,4.9c-1.5,1-3.56,2.91-3.35,4.15.7,4.28-2.46,6.28-5.09,8.86C21.21,281,17.52,285,14,289.05c-1,1.12-1.16,2.8-1.71,4.22l1.37.75C24.92,283,30.94,267,48.82,262.27Z"></path><path d="M1.29,318.75A11.71,11.71,0,0,0,4,316.92a548.87,548.87,0,0,1,62.92-63.09c7.44-6.38,14.17-13.58,21.43-20.18,12.38-11.27,26-20.93,40-30,20.41-13.23,41.87-24.57,63.76-35.18,18.06-8.75,36.42-16.69,55.57-22.74.67-.21,1.32-.49,2.11-.79-.91-2.79-1.91-5.35-2.58-8a32.37,32.37,0,0,1,18.64-38,60.25,60.25,0,0,1,16-4.43,18.45,18.45,0,0,1,13,2.63A104.4,104.4,0,0,1,309.19,108c5.1,4.77,8.09,11,9.88,17.84.26,1,.5,2,.77,3,0,.11.22.19.46.39l55-7.18c-6.59-9.26-10.94-19.19-12.33-30.49-1.6-.47-3.15-.81-4.61-1.38-3.67-1.43-7.53-2.58-10.88-4.57-5.75-3.41-5.68-10.67-.16-14.49,1.29-.89,2.69-1.61,3.57-2.14A55.09,55.09,0,0,0,346,63.25c-3.57-3.18-1.26-11.88,3.07-13.42s14.18-2.55,19.31-.92c-6.72,1.45-14.15-.65-20.28,3.84,6.29-1.13,12.54-2.53,19.13-1.18a8,8,0,0,1-2,.76c-3.64.37-7.32.42-10.91,1-2.51.41-4.9,1.52-7.78,2.46,2.66,5.08,6.54,7.85,10.66,10.34a3.12,3.12,0,0,0,2.11,0c2.12-.5,4.2-1.11,6.49-1.73a16.88,16.88,0,0,0,.17-3.1,4.63,4.63,0,0,1,2.35-5.16c1.13-.69,1.83-2.19,2.57-3.41,11.9-19.46,29.29-30,52-31,27.18-1.2,52.22,16.5,60.83,42.43.64,1.93,1.07,3.86,2.77,5.34.67.58.72,2.11.69,3.2s-.73,2.23-.71,3.34c.09,3.48.37,7,.6,10.75l3.27-.52-2.11-2.78.38-.54,4.58,2,.35-.49-5.8-3.91c2.86-.62,4.38.72,5.72,1.71,2.62,1.92,5,1.82,7.66.25,2.39-1.39,4.95-2.45,6.57-4.92-2.29-3.23-5.61-4.49-8.85-5.77A89.12,89.12,0,0,1,489.38,68c6.42.51,12.16,2.94,17.75,6-1.85-3.25-5.21-4.19-8.35-5.32s-6.55-2-9.69-3.71c.51-.07,1.09-.33,1.53-.18,5,1.68,10,3.29,14.84,5.19,6.4,2.48,6.24,12.81,0,15.53a40.83,40.83,0,0,0-3.67,2.06,12.79,12.79,0,0,0,1.41,1.84c3.64,3.14,3.21,6.91,1.71,10.84a6.34,6.34,0,0,1-5,3.87c-4,.77-8.09,1.17-12.15,1.62a42.41,42.41,0,0,1-4.53,0c-1.13,2.38-2.14,4.63-3.27,6.81s-2.38,4.3-3.6,6.47l77.68,7.85c7.8-15.36,20.55-24.69,36.71-29.75a15.65,15.65,0,0,1,6-.18c2.32.22,4.59.88,6.9,1.25,12.78,2.06,27.63,14.59,28,31.76.1,4.37,0,8.75,0,13.73,1,.32,2.5.81,4,1.24a600,600,0,0,1,129.12,54.41c22.12,12.6,44.41,24.9,66.64,37.3,21.87,12.2,41.45,27.49,59.64,44.6,3.2,3,6,6.37,9,9.64a5.73,5.73,0,0,1,1.14,3c-27.1-30.12-60.41-51.48-96.32-69.32,1.31.94,2.6,1.9,3.94,2.79a506,506,0,0,1,62.81,49.34,306.71,306.71,0,0,1,27.8,29.31c2,2.47,2,2.47,1.71,6.16a7.28,7.28,0,0,1-1.39-1.05c-22.43-27.63-49.17-50.58-78.09-71-15.41-10.89-31.37-21-47.19-31.34-9.61-6.27-20.38-10.24-30.92-14.56-20.57-8.42-41.06-17.14-62-24.51-16.79-5.92-34.21-10-51.36-14.93a24.16,24.16,0,0,0-3.3-.42A39.77,39.77,0,0,1,614,167.74c-11.68,7.93-24.44,9.35-37.8,5.83-7.67-2-12.9-7.2-16.11-14.46-1.05-2.4-2.55-4.6-3.56-7-1.56-3.74-2.87-7.58-4.5-12-4.51-1-9.63-2.15-14.76-3.23-16.46-3.49-33-6.78-49.71-8.56-5.09-.53-10.21-.8-15.31-1.22a5.66,5.66,0,0,0-4.67,1.77c-14.48,13.54-31.69,19-51.26,16.61a59.46,59.46,0,0,1-34.91-17,6.3,6.3,0,0,0-5.8-2.09q-26.7,4-53.41,7.84a8.58,8.58,0,0,0-1.6.53c-2.88,17.18-14.77,25.89-30,29.55-13.82,3.31-26.79.17-36.3-12.51-5.16,1.81-10.55,3.57-15.85,5.56-63.52,23.82-121.52,57.1-172.71,101.76-10.55,9.21-19.93,19.81-29.38,30.2-10,11-19.46,22.66-29.25,33.93a57.16,57.16,0,0,1-5.82,5.14v-2.63c2.19.23,3-1.65,4-2.89,7-8.21,14-16.5,20.94-24.78a3.26,3.26,0,0,0,.37-1l-.92-.81a29.71,29.71,0,0,1-2.15,3.12q-9.36,10.74-18.82,21.4A45.92,45.92,0,0,1,1.29,324ZM617,152.82c.43-.27.8-.37.9-.58C623.94,139.09,626,126,617.4,113c-5.67-8.57-13.18-13.63-23.93-12.22-5,.66-9.05,3.38-12.65,6.52-7.9,6.89-15.1,14.38-16.94,25.38a8.3,8.3,0,0,1-.58,1.65c-2.21,5.44-2.34,11-1.62,16.8.52,4.22,2.74,6.42,6.28,8.57,1.87-9,6.47-16.09,12.7-22.07-6.22-7.67-4.11-15.25-.49-19.27A13.82,13.82,0,0,1,597,115.52c6.55,3.59,8.28,9.56,5.52,19.86C609.28,139.4,613.39,145.91,617,152.82Zm-310.15-10a28.78,28.78,0,0,0,1.69-14.3c-1.54-10.93-7.74-19.11-15.73-26.07-3.87-3.38-8.69-4-13.62-2.33-18.95,6.4-27.82,24.62-24.08,43.29.92,4.64,3.77,8,7.89,10.88,1.44-9.35,5.44-16.9,10.6-23.8-2.92-6.71-2.29-11.85,1.85-15.87,3.63-3.51,9.13-4.58,13.37-2.3,6.64,3.58,7,9.41,5.32,15.18Zm264.05,18.7a18.61,18.61,0,0,0,2,1.17,27.8,27.8,0,0,0,3.72,1.3,51,51,0,0,0,27.68-.77c3.12-1,6-2.94,8.84-4.62a2.75,2.75,0,0,0,1.14-3.8c-3.13-7-7.1-13.35-13.49-16.84-3.3,1.23-5.94,2.78-8.71,3.09-2.93.33-6-.54-9.33-.92A34.29,34.29,0,0,0,570.86,161.56Zm-115.62-47.8a140.43,140.43,0,0,0-29.56-2.6v31.78c6.45.29,12.46-1.35,18.52-3.09,3.81-1.1,6.06-3.22,6.66-7.06.22-1.4.09-2.85.22-4.26.11-1.1,0-2.59.64-3.21C455.06,122.07,454.25,117.88,455.24,113.76ZM275.69,133c-4.7,6.12-8.21,12.53-9.33,20.13-.34,2.29.21,3.72,2.6,4.12,4.44.75,8.87,1.95,13.33,2.1,8.15.29,15.15-2.62,20.39-9.15,1.15-1.42,2.16-2.85,1.16-4.75A43.5,43.5,0,0,0,292,130.73C285.57,135.38,283.74,135.63,275.69,133ZM422.1,111.14a130.8,130.8,0,0,0-27,2.4,109.23,109.23,0,0,0,5.49,23.19,3.46,3.46,0,0,0,1.69,1.84,52.1,52.1,0,0,0,19.84,4.36Zm4.28-30.38c4.05,0,7.86.24,11.62-.12,1.51-.15,2.91-2.34,4.32-2.3,1.62,0,3.13,2.08,4.81,2.28a89.27,89.27,0,0,0,10.27.11,118.27,118.27,0,0,0-2.32-23.94L426.38,59Zm-33.1,0H423c.13-7.57.31-14.77.19-21.83l-27-2.67A139.21,139.21,0,0,0,393.28,80.8Zm61.16-27.13c-.48-3.21-.34-5.81-3.21-7.36-1.43-.78-1.17-2.47-.64-4a5,5,0,0,0,.41-2.86c-1-3-2.15-6-3.39-9a3.59,3.59,0,0,0-1.8-1.76c-6-2.3-12.13-3.93-19.07-3.64.44,4.19-1.53,8.24,1.59,11.94.58.69.1,2.44-.2,3.62-.2.77-1.39,1.37-1.43,2.08a93.59,93.59,0,0,0-.07,13.09A149.08,149.08,0,0,0,454.44,53.67Zm-31.11,2.12c0-2.67.07-4.71,0-6.75-.13-3.14.74-6.39-1.51-9.29a3.51,3.51,0,0,1,.28-3.26c2.77-3.61,1.3-7.46,1.48-11.48a44,44,0,0,0-17.22,2.79,5.17,5.17,0,0,0-2.5,2.75c-1.76,4.33-3.39,8.72-4.85,13.17-1,3-1.6,6.1-2.45,9.44A134.73,134.73,0,0,0,423.33,55.79Zm60.38,24.58c-.07-1.29.26-2.63-.26-3.27-2.4-2.95-3.43-6-2-9.73a52.78,52.78,0,0,0-7.09-15.45L458.14,56.1c.84,8.43,1.63,16.37,2.42,24.27ZM393,55.6,375.52,51c-1.77,3.14-4.26,5.59-3.36,9.42a2.64,2.64,0,0,1-1,2.24c-3.56,2.12-3.35,5.75-4.26,9.56,6.78,2.94,13.43,5.87,20.13,8.65.93.39,2.17,0,3.24,0C391.19,72.41,392.09,64.18,393,55.6ZM92.62,231.93l.6.76a586.44,586.44,0,0,1,159.39-83.57c-1.84-2.53-1.85-2.55-3.49-2.13-.85.22-1.68.51-2.52.77-20.61,6.38-40.07,15.46-59.42,24.88C157,187.34,128,204.07,101.43,224.72,98.43,227.05,95.56,229.53,92.62,231.93Zm653-39.2C709,172.91,670.49,157.88,630.2,146.52l-2.32,6.18C669.1,161.1,707.22,177.11,745.58,192.73ZM471.77,125.41c27.4,1.5,53.81,7.34,80.6,13.12.35-2.9.65-5.42,1-8.29-8.2-1.07-15.86-2.21-23.55-3q-17.67-1.9-35.39-3.43c-6-.53-12-.75-18-1C474.71,122.66,472.88,122.62,471.77,125.41Zm-80.51-14.25c1.65-5.9-2-10.77-3-16.13l-22.1-2.8a55.66,55.66,0,0,0,8.61,23.24Zm4.95-15.24c-.19,1.28.06,3-.66,3.77-3.2,3.5-1.09,7-.84,10.58L422.44,108v-12Zm183.42,31.76a10.77,10.77,0,1,0,21.54-.16,10.77,10.77,0,1,0-21.54.16Zm-122.79-25L426,95.93v12l29.83,2.61C456.13,108,456.45,105.61,456.84,102.72Zm-31-9a190.26,190.26,0,0,0,31.38-1.65V83.91c-4.72.41-9.2-1-13.58,1a4,4,0,0,1-2.52-.19c-5-1.62-10-.49-15.06-.66-.1,1.45-.2,2.31-.21,3.17C425.85,89.15,425.87,91,425.87,93.77ZM567,163.41a17.44,17.44,0,0,0,11.45,7.64,68.36,68.36,0,0,0,10,1.14c19.32.92,42.66-14,40.33-42.16-.56-6.65-2.48-12.78-7.52-17.56a14,14,0,0,0,1,3.14c1.05,2.72,2.5,5.37,3,8.19,2.35,12.4-.69,23.77-7.42,34.22a18.54,18.54,0,0,1-9.34,7,53.81,53.81,0,0,1-34.41,1.4A60.53,60.53,0,0,1,567,163.41ZM400.47,30a59.27,59.27,0,0,0-23.06,18.49c5.8,1.76,10.89,3.67,16.2,4C395.9,44.93,398.05,37.89,400.47,30ZM282.68,131.59a9.46,9.46,0,0,0,9.29-9.23,8.1,8.1,0,0,0-8.14-8.09,9.32,9.32,0,0,0-9.18,9.3A7.8,7.8,0,0,0,282.68,131.59ZM397,136.16c-1.78-7.79-3.4-14.86-5.06-22.15-5.22,1.13-10.27,2.09-15.44,4.2A59.53,59.53,0,0,0,397,136.16Zm-97.39-31.91c13.63,16.17,17.56,32.88,3.52,51.1a49.13,49.13,0,0,0,6.42-4.88c6.61-5.91,8.74-13.37,7-21.87C314.4,118.11,308.87,109.81,299.63,104.25ZM472.84,49.54a54.57,54.57,0,0,0-21.1-17.85c1.16,3.37.95,7.17,4.08,9.72a3.48,3.48,0,0,1,.7,3.11c-1.08,3.07.23,5.61,1.22,8.73Zm.23,68.45-15.22-3.89c.06,4.71-2.82,8.45-.58,12.82.37.71-.53,2.73-1.39,3.28-2,1.28-2.49,2.86-2.46,5.45A60.38,60.38,0,0,0,473.07,118Zm6.82-12.39-20.39-2.36c-.36,2.94-.65,5.35-1,8.09l16.31,4.35ZM363,74.59c-2.24-1-4.44-2.9-6.17-2.55-4.17.86-8.28,2.52-11,6.65,4.78,4.52,10.5,6.2,16.73,7.92,0-2.37-.05-4.11,0-5.86S362.83,77,363,74.59Zm121.74,26.3c7.12,1,14.77-.61,18.49-3.88-1.13-3.14-3.72-5-6.24-7a2.68,2.68,0,0,0-2-.42c-2.8.63-5.57,1.41-8.38,2.15C486,95,485.34,97.92,484.74,100.89Zm-1.37-8.44-23.05,2.66V100l21,1.52Zm-93-7.19a58.47,58.47,0,0,0-6.72-1c-4.8-.13-9.61,0-14.42,0a6.42,6.42,0,0,0-2.16.11,2.28,2.28,0,0,0-1.35,1.35,2.07,2.07,0,0,0,.72,1.78,8.38,8.38,0,0,0,2.89.93q8.6,1.5,17.2,2.89c1.21.2,2.46.19,3.84.28ZM483.51,84h-23v8c7.1-1.22,13.82-2.32,20.51-3.55C483.78,88,483.75,87.87,483.51,84Zm-60.8.24H397.6c4.2,2.77,20.17,7.76,25.11,7.89Zm-172,52.2c.6-14.05,5.69-25.83,17.59-34.52C256.85,103.9,245.23,121.17,250.69,136.46ZM393.37,92.19c7.71.66,15,1.73,22.4.87l-22.4-6.38Zm47.9,3.72,0,1L457,99.33c.08-1.63.13-2.58.19-4C451.72,95.64,446.47,95.31,441.27,95.91ZM375.89,81.13c-3.08-1.79-6-3.86-9.86-4.32v4.32Zm126,19.57c-2.8.57-5.59,1.27-8.42,1.67s-5.84.52-8.76.76l.16,1C490.72,104.1,496.61,104.21,501.88,100.7Zm-140-11.4.41-.8c-2.58-.91-5.18-1.75-7.72-2.75s-4.95-2.17-7.42-3.26C351.26,86.69,356.53,88.07,361.86,89.3ZM346.4,59.61c2.27,4.86,5.16,7.22,8.37,7.35ZM507,81.21l-7.62,4A7.69,7.69,0,0,0,507,81.21ZM354.39,70.68c-3.36-.54-5.66,1-7.29,3.77Zm150,23.4c-2.54-4.5-2.84-4.75-5.14-5Zm-31.92,8.7.18.35h5.72l0-.35Zm84.93,29-1.19-.06q-.15,2.9-.32,5.79l.69.05C556.83,135.63,557.1,133.71,557.38,131.78Zm-64.2-43.41-.37-1-5.08,1.34.22.87ZM33,290.33l-.39-.3-3,3.29.62.5C31.12,292.66,32,291.49,33,290.33ZM364.3,67.57l-.28-.94-3.35,1.05.23.76Zm7.24,9.23.42-.38-2.18-.9-.11.31Zm197.51,37.82-.68-.59c-.6.94-1.21,1.87-1.82,2.81l.48.31C567.7,116.3,568.37,115.46,569.05,114.62Zm-7,10.6.72.44,1-3.23-.61-.2Z"></path><path class="cls-3" d="M1.29,324a45.92,45.92,0,0,0,3.46-3.22q9.47-10.65,18.82-21.4a29.71,29.71,0,0,0,2.15-3.12l.92.81a3.26,3.26,0,0,1-.37,1c-7,8.28-13.9,16.57-20.94,24.78-1.06,1.24-1.85,3.12-4,2.89Z"></path><path d="M847.29,157.68c-.4,3-.71,6.1-1.21,9.12a28.09,28.09,0,0,1-12.91,19.56c-11.27,7.35-23.53,9.16-36.56,5.87a14.08,14.08,0,0,1-1.67-.53c-15.34-6.08-31.81-28.58-19.38-50,7.34-12.67,17.63-20.49,32.26-23.26,10.5-2,18.81,1,25.9,8.23C842.1,135.22,847.22,145.34,847.29,157.68Zm-47.91.1c-4.87-7.81-4.73-14.54.28-19.88a14.25,14.25,0,0,1,17.28-2.85,14.83,14.83,0,0,1,6.26,6.54c2.52,4.87,1.28,9.6-.47,14,2.66,2.81,5.27,5.2,7.43,7.94s3.75,5.74,6.06,9.36c1.46-3.28,2.93-5.82,3.74-8.55,1.83-6.13,1.65-12.39.89-18.7-1.25-10.53-7-17.85-16.13-22.55-7.51-3.87-15.14-3.92-22.38,1.13-6.12,4.26-11.19,9.41-14.18,16.35-1.62,3.75-3.28,7.5-4.58,11.37-2.13,6.38-4.12,12.83-4.16,19.65a10.84,10.84,0,0,0,9,10.43C790.45,171.27,792,167.86,799.38,157.78Zm1.79,1.51a39.78,39.78,0,0,0-10.61,24.62c6.16,2.41,12.05,2.34,18.07,1.51a52.14,52.14,0,0,0,22.75-8.62c1.51-1,2.84-2.08,1.81-4.28a37.78,37.78,0,0,0-12.09-14.9C815,162.86,808.59,163.92,801.17,159.29Zm21.36-11.62a12.4,12.4,0,0,0-24.79,0c0,6.77,6,12.75,12.66,12.55A12.63,12.63,0,0,0,822.53,147.67ZM790.07,187c1.8.87,3.54,1.88,5.4,2.59,6.17,2.36,12.58,2.35,19,1.64,16.73-1.83,27.72-12.21,30.27-28.54.87-5.56.41-10.4-1.54-14,0,3.54.18,6.62,0,9.67-.68,9.54-4.75,17.21-13.33,21.81A76.06,76.06,0,0,1,815.77,186,53,53,0,0,1,790.07,187Zm-14.82-20.18c-.49-13.18,3.91-24.82,11.35-35.53C776.22,140.18,769.9,156.11,775.25,166.85Zm2.45-3.49c3.15-10.83,6.71-21.54,12.38-31.42C781.71,140.69,778.17,151.4,777.7,163.36Z"></path><path d="M109.44,187.28c-3.69-.88-7.26-1.56-10.72-2.63a9.21,9.21,0,0,1-4-2.59c-13.8-15.56-10.24-34.9.61-45.59s30.52-8.34,38.48,4.82A27.28,27.28,0,0,1,137,163.64c-2.81,9.86-9.12,16.92-18.25,21.29C115.94,186.28,112.61,186.52,109.44,187.28Zm11-32.81,12,11c.53-3.15,1.41-6.14,1.48-9.14a17.67,17.67,0,0,0-14.3-17.59,27.71,27.71,0,0,0-18.73,2.84c-7.23,4-11.16,10.32-10.72,18.57.32,6,3.8,10.62,8.46,14.53,1.57-5.16,3-9.73,4.43-14.51-3.61-5.13-3.8-10.07-.38-14.08,2.86-3.35,8.06-4.35,12.46-2.41S121.24,149.32,120.42,154.47Zm-17.94,22.47c9.52,5.29,22.08,1.27,27.12-8-3.12-6.2-6.59-9.38-11.82-10.79-2.71,2.07-5.68,3.56-9.25,3.2a2.84,2.84,0,0,0-3.06,1.93C103.41,167.53,102,171.92,102.48,176.94Zm8-31.17c-.36.07-.93.18-1.5.27a6.81,6.81,0,0,0-5.66,8.29c.64,3.11,3.67,4.65,7.68,3.79a10.56,10.56,0,0,0,3.22-1.27c2.79-1.68,4-4.16,3.26-6.52A7,7,0,0,0,110.48,145.77ZM99.2,138.46c8.18-3.52,16.53-4.5,25.89-1.43C116.87,130.68,104.33,131.89,99.2,138.46Zm-5.07,36.63c3.18,7.33,10.74,10.13,20.62,7.62C106.94,182.66,99.81,180.85,94.13,175.09Z"></path><path d="M239,306.73c-2.19-.4-5.35-.92-8.48-1.55-15.26-3.06-27.86-28.05-16.21-44.3,2.9-4,6.35-7.34,10.9-9.22,17.89-7.39,22.85-5.48,36.39,6.46,5.52,4.88,8.39,11.56,9.48,18.86.76,5.06.22,10.1-2.88,14.28C261.16,300.65,252,306.3,239,306.73Zm-6.61-29c-2.24-6.39-1.6-10.5,2.07-13.71a9.79,9.79,0,0,1,11-1.39c5.32,3,5.36,7.84,4.11,12.49l10.71,12.79a27.22,27.22,0,0,0-.28-18.1c-2.28-6.22-6.43-11.13-11.3-15.4-3.43-3-7.58-3.49-11.94-2C222,257.56,214,271.59,217,288.16a11.73,11.73,0,0,0,6.61,8.77A45.91,45.91,0,0,1,232.34,277.69Zm1.86,1.77c-4.17,6-7.91,11.9-7.74,19.5a32.68,32.68,0,0,0,19.18,2c4.63-.87,8.22-3.59,11.2-7.17,1-1.22,1.58-2.57.78-4-2.53-4.58-5.48-8.82-9.85-12C243.57,281.41,239.19,281.91,234.2,279.46Zm13.48-8.84a6.34,6.34,0,0,0-6.76-6.49,7.63,7.63,0,0,0-7.56,7.54,6.5,6.5,0,0,0,7,6.72A7.58,7.58,0,0,0,247.68,270.62Zm7.18-14.4c12,16.3,12.59,25.92,2.17,41.78,8.73-4.49,12.84-11.84,11.41-20.93A28.88,28.88,0,0,0,254.86,256.22Zm-41,27c-.36-12.08,4.3-21.61,14.15-29.69C216.5,257,208.68,272.44,213.84,283.21Z"></path><path d="M701.22,278.62a26.94,26.94,0,0,1-4.16,14.6c-.38.62-.83,1.21-1.18,1.85-3.75,7-9.57,11.2-17.34,12.89-8,1.75-15.79,1.11-22.84-3.26a58,58,0,0,1-10.35-8c-5-5-6.57-11.17-5.3-18.16,2.67-14.62,12.32-23,25.21-28.55a10.17,10.17,0,0,1,4.74-.41,44.27,44.27,0,0,1,16,4.36C696.12,259,701,267.43,701.22,278.62Zm-39.83-1.42c-.17-.8-.5-1.92-.65-3.07a9.14,9.14,0,0,1,6.2-9.95,9.29,9.29,0,0,1,9.75,2.19,9.87,9.87,0,0,1,3.11,10,25.76,25.76,0,0,1-1.07,3.2c2,3.46,3.91,6.41,5.36,9.58s2.36,6.48,3.63,10.08a13.06,13.06,0,0,0,6.07-8.15c3.46-15.74-4.14-31-19.37-36.41-4.93-1.75-9.33-1-13,2.63a58.12,58.12,0,0,0-7.61,9.05,25.67,25.67,0,0,0-3.94,20.95,16.55,16.55,0,0,0,1.05,2.55Zm1.28,2.34c-2.81,3.48-5.42,6.41-7.69,9.59-3,4.16-2.71,5.32,1,8.93,6.79,6.53,18.74,7.76,28.59,2.67-.27-7.28-3.58-13.31-8-19.17C671.5,284.28,667.19,283.38,662.67,279.54Zm7.27-13.33a6.69,6.69,0,0,0-6.75,6.57,7.93,7.93,0,0,0,7.65,7.92,6.55,6.55,0,0,0,6.68-6.59A7.72,7.72,0,0,0,669.94,266.21Zm-14.11-7.61c-7,4.42-11,10.9-13.05,18.87-2.16,8.31,1.06,17.55,11.41,22.93C642.88,286.65,644.74,272.52,655.83,258.6Zm28.63-1.8c8.7,7.09,12.28,16.6,13.22,27.4C700.63,272,694.82,259.93,684.46,256.8Z"></path><path d="M776.71,72.07c.44,19.15-15.81,30.2-29.75,30.45a49.72,49.72,0,0,1-8.7-.68c-6.94-1.08-11.57-5.18-14.36-11.52a19.22,19.22,0,0,0-1.72-3.53c-4.86-6.84-5.37-19,2.51-27.6,5.91-6.44,12.83-11.53,21.43-13.83a16.25,16.25,0,0,1,5.08-.23,29.28,29.28,0,0,1,4.3.8C768.74,48.7,776.67,58.47,776.71,72.07ZM766.4,85.69a31.1,31.1,0,0,0,3.9-15.52,23.38,23.38,0,0,0-10.89-20c-4.82-3.19-10-3.24-15.36-.6a32.69,32.69,0,0,0-11.46,10C727,67.07,724.05,75.46,725.31,85c.39,2.92,1.81,4.57,4.63,6a29.45,29.45,0,0,1,9.16-15.82c-4.5-6.76-3.17-10.9-.1-14.45a9.54,9.54,0,0,1,11.62-2.13,14.36,14.36,0,0,1,4.62,4.46c2.15,3.2.94,6.73.3,9.26Zm-34.3,7a47.77,47.77,0,0,0,4.86,1.8,34.72,34.72,0,0,0,17.36-.12,40.23,40.23,0,0,0,8-3.44,2.74,2.74,0,0,0,1.27-4.06c-2.35-4.76-5-9.21-10.06-11.8-3.37,2.26-6.82,3.38-10.82,2a3.65,3.65,0,0,0-3.06.77A23.48,23.48,0,0,0,732.1,92.71Zm14.09-33a8,8,0,0,0-7.71,7.92,7.78,7.78,0,0,0,8.2,7.77,7.89,7.89,0,0,0,7.54-8A8,8,0,0,0,746.19,59.72Zm-16,35.2a10.46,10.46,0,0,0,6.35,4.26,31.65,31.65,0,0,0,18.56-.28A28.11,28.11,0,0,0,773,62.67c-1.14-3.1-1.7-3.84-4.2-5.49,5.3,8.85,4.14,17.73.92,26.73a18.37,18.37,0,0,1-14.48,12.57C746.83,98.22,738.49,98.24,730.19,94.92Zm-8.76-21.86.33,0,.15-2.71-.48,0Z"></path><path d="M107.22,103c-.38,6.4-.74,12.82-1.15,19.23-.11,1.62-.36,3.28-2.17,4s-3.38-.24-4.69-1.53a25.72,25.72,0,0,1-3-3.13c-2.15-3-5-3.38-8.46-3.12-8.74.65-17.5,1.09-26.26,1.41a44.63,44.63,0,0,1-8.71-.68,7.19,7.19,0,0,1-6.46-6.77c-.89-10.05-1.35-20.13-.05-30.19a8.84,8.84,0,0,1,6.66-7.87,39.28,39.28,0,0,1,7.68-1.66A164.66,164.66,0,0,1,96,73.62c.72.1,1.43.28,2.15.43,5.61,1.16,7.22,2.64,7.76,8.38C106.55,89.26,106.8,96.12,107.22,103Zm-4.49,20.84a33,33,0,0,0,.55-3.41c.17-9.2.38-18.4.41-27.6A73.53,73.53,0,0,0,103,82.79c-.61-4.42-1.41-5.14-5.73-5.81-3.46-.54-6.94-1.11-10.43-1.31-9.63-.55-19.28-1.09-28.88.44-7.08,1.12-9,3.2-9.15,10.43-.17,7.45,0,14.91.09,22.36a13.18,13.18,0,0,0,.18,2.18c.65,3.67,2,5.06,5.78,5.45a45,45,0,0,0,6.57.18c9.93-.41,19.86-.8,29.77-1.42a5.52,5.52,0,0,1,5,1.92C98.05,119.31,100.13,121.25,102.73,123.86Z"></path><path d="M664.78,99.49c-8.89.65-17.78,1.34-26.68,1.91-2.46.16-4.54.79-6.17,2.76a6.24,6.24,0,0,1-2.1,1.55c-2.48,1.16-4.5.13-4.52-2.64,0-7.16,0-14.33.35-21.49.15-3.49,1-6.94,1.38-10.43.56-5.12,3.35-8.44,8.19-9.74,6.07-1.61,12.18-3.16,18.37-4.18C662,55.86,670.41,55,678.83,54a19.57,19.57,0,0,1,3.51-.09c3.86.17,5.25,1.15,6.2,4.92a38.3,38.3,0,0,1,1.59,9.05q.06,12.06-.63,24.12c-.28,4.82-2.19,6.78-7.16,7.33s-9.92.44-14.89.61c-.88,0-1.76,0-2.64,0Zm-36.09,3.16c2.64-2.38,5.3-4.2,8.83-4.35,6-.25,11.94-.86,17.92-1.09,8.17-.33,16.36-.36,24.53-.67,5.24-.2,6.57-1.47,6.83-6.51.32-6.27.62-12.55.49-18.83A80,80,0,0,0,685.77,60a3.37,3.37,0,0,0-4-3.15c-2.33.19-4.69.08-7,.41-9,1.26-17.93,2.49-26.84,4.06a114.13,114.13,0,0,0-12.65,3.41c-2.91.87-4.48,2.89-5.06,6a130.79,130.79,0,0,0-2.14,30.53A6.4,6.4,0,0,0,628.69,102.65Z"></path><path d="M251.31,58.21c-.93,8.49-1.87,17.49-3,26.48a3.82,3.82,0,0,1-1.79,2.55c-.47.24-1.83-.66-2.42-1.36a22.67,22.67,0,0,1-2.92-4.35c-1.07-2.16-2.62-2.71-5-2.6-9,.42-18.1.64-27.16.93-3.82.11-4.77-.3-6-3.75-2.9-8.3-5.25-16.73-4.91-25.66.18-4.72,1.45-6.48,6-7.9a31.53,31.53,0,0,1,4.7-1,179.51,179.51,0,0,1,32.74-2.27c6.31.23,7.69,1.34,8.74,7.51C251,50.33,251,54,251.31,58.21Zm-5.73,23.4c.55-4.16,1.22-8,1.56-12,.64-7.26,1.8-14.51.41-21.83-.93-4.9-1-5.39-6.13-5.5a184.61,184.61,0,0,0-18.81.63,155.06,155.06,0,0,0-16.46,2.28c-4.25.8-4.77,1.74-4.85,5.94-.16,8.46,2,16.48,4.87,24.34a5.77,5.77,0,0,0,1.06,1.39c9.11-.26,18.18-.3,27.21-.87,4.65-.3,8.32.32,10.21,5.09C244.68,81.22,244.88,81.25,245.58,81.61Z"></path><path d="M119.9,261.85c3.78-2.74,7.71-5.51,11.51-8.46a6.58,6.58,0,0,0,1.6-2.92c1.38-3.67,4.34-5.36,7.44-4.13a5.67,5.67,0,0,1,3.08,7.63c-1.29,3.16-4.5,4.29-8.05,2.78-.64-.27-1.23-.66-1.84-1l-12.3,8.79-.39,5.58,13.24,5.31a27.44,27.44,0,0,1,2.76-2.89,6,6,0,0,1,8.3.8,6.53,6.53,0,0,1-.83,8.73c-2.38,2.17-6.76,2.52-8.22-.09-2.47-4.44-6.88-5-10.74-6.77-3.28-1.47-6.44-3-10.4-1.37-2.78,1.12-5.69-.61-7.12-3a6.81,6.81,0,0,1,.59-7.81,7.18,7.18,0,0,1,7.78-2.57C117.41,260.8,118.46,261.29,119.9,261.85ZM118.18,267a3.6,3.6,0,0,0-3.82-3.75,4,4,0,0,0-4.22,4,3.72,3.72,0,0,0,3.77,3.85A4.44,4.44,0,0,0,118.18,267Zm21.48,13.74c2.45-.19,4-2,3.92-3.69a2.86,2.86,0,0,0-3.28-2.71c-1.82.27-3.33,2-2.78,3.74C137.89,279.26,139.11,280.13,139.66,280.77ZM142,251.56c-1.6-1.13-2.45-2.11-3.48-2.36-1.39-.34-2.72,1.2-2.62,2.73s.93,2.75,2.37,2.44C139.41,254.13,140.33,252.88,142,251.56Z"></path><path d="M531.13,68.56c3.81-2.77,7.54-5.34,11.07-8.15a8.51,8.51,0,0,0,2.18-3.53c1.37-3.39,4.22-5.06,7.19-4a5.55,5.55,0,0,1,3.49,7.08,5.44,5.44,0,0,1-6.37,4,22.78,22.78,0,0,1-3.79-1.51l-12.22,8.68c-.11,1.69-.24,3.54-.39,5.66l13,5.12a42.93,42.93,0,0,1,3.21-2.87,6,6,0,0,1,8.25,1.08,6.58,6.58,0,0,1-1.11,8.71c-2.47,2.1-6.75,2.29-8.2-.39-2-3.72-5.51-4.47-8.76-5.9-1.87-.83-3.83-1.43-5.7-2.25a6.25,6.25,0,0,0-5-.14c-3.66,1.31-6.79.2-8.53-2.51a6.82,6.82,0,0,1,.61-8.16c2.07-2.57,5.27-3.34,8.68-2.07C529.35,67.68,530,68,531.13,68.56Zm-5.3,1.34a4,4,0,0,0-4.34,3.85,3.7,3.7,0,0,0,3.62,4,4.47,4.47,0,0,0,4.41-3.94A3.62,3.62,0,0,0,525.83,69.9ZM554.9,83c-.65-.49-1.59-1.68-2.76-2-1.68-.43-3.3,1.35-3.38,3.2a2.87,2.87,0,0,0,2.9,3.11C553.34,87.26,555,85.51,554.9,83Zm-1.58-24.71c-1.56-1.18-2.38-2.2-3.4-2.47-1.39-.38-2.74,1.12-2.68,2.66s.86,2.77,2.3,2.51C550.68,60.78,551.63,59.55,553.32,58.29Z"></path><path d="M701,244.93c-.9-2-1.58-2.8-1.66-3.69-.76-8.59-1.51-17.18-2-25.78a35,35,0,0,1,.76-6.94c.44-3.09,2.42-4.62,5.4-4.75a97,97,0,0,1,10.51,0c6,.41,12,1,17.9,1.74,8.3,1.08,10.17,3.12,9.22,11.5A112.27,112.27,0,0,1,737.29,234c-.91,3.29-2,3.72-5.56,3.6-7.31-.24-14.62-.41-21.92-.76-2.15-.1-3.55.47-4.63,2.41A59.56,59.56,0,0,1,701,244.93Zm1.23-6.33c2-4.52,5.48-4.65,9.29-4.25,1.45.16,2.92,0,4.38.1,6,.22,12,.47,18.27.72,2.76-7.45,4.85-14.81,4.52-22.7a3.39,3.39,0,0,0-2.37-3.33,12.72,12.72,0,0,0-3.37-.93c-9-.72-18-1.55-27.08-1.94-4.78-.21-5.42.64-5.85,5.59C699.27,220.81,700.4,229.63,702.24,238.6Z"></path><path d="M189.81,235.35h-11c-3.36,0-4.16-.35-5.22-3.46-2.13-6.24-3.87-12.57-3.9-19.24,0-6.23,1.29-8,7.58-9,4.75-.78,9.55-1.35,14.35-1.68a129.55,129.55,0,0,1,14.87-.32c5,.24,6.15,1.26,6.58,6.36a118.93,118.93,0,0,1,0,16.13c-.28,5.09-1,10.17-1.7,15.24-.1.73-.72,1.81-1.3,2a2.87,2.87,0,0,1-2.17-1,13.16,13.16,0,0,1-2.23-3.24c-1-2.2-2.66-2.72-5-2.51-3.63.35-7.3.39-10.95.56Zm-13-2.51c7.72-.23,15.31-.2,22.86-.77,3.91-.3,6.89.22,8.65,4,0,.1.52,0,1,0,.34-2.53.78-5.1,1-7.69.56-6.54,1.74-13.08.52-19.67-.78-4.19-.81-4.55-4.92-4.65-5.4-.13-10.82.14-16.2.55a130,130,0,0,0-13.47,1.81c-3.11.57-3.81,1.51-3.9,4.39C172.06,218.39,173.89,225.54,176.79,232.84Z"></path><path d="M837,115.76a22.22,22.22,0,0,1-.53-3.63c.16-8.19.35-16.39.62-24.58.16-4.68.83-5.38,5.45-6.47a13.86,13.86,0,0,1,3-.56c10.38-.13,20.76-.3,31.14-.23,3.87,0,4.93,1,5.56,4.85,1.16,6.88.21,13.71-1.07,20.48-.39,2.07-2.13,2.76-3.91,3-3.19.37-6.41.64-9.62.73-5.7.15-11.41.19-17.11.18a9,9,0,0,0-6,2.27,61.76,61.76,0,0,1-5.75,4C838.5,115.93,838,115.76,837,115.76Zm2.09-2.63a23.32,23.32,0,0,0,3.22-2.27c2.52-2.62,5.66-3.48,9.14-3.54l11.85-.2c4-.07,7.91,0,11.85-.26,3.49-.24,4.18-.81,4.46-4.15a159.26,159.26,0,0,0,.68-16.19c-.06-3.65-.94-4.25-4.65-4.28q-13.62-.09-27.23.08a51,51,0,0,0-6.07.87c-2.31.32-3.25,1.75-3.25,3.94C839.08,95.6,839.09,104.06,839.09,113.13Z"></path><path d="M772.15,52.1a94.29,94.29,0,0,1,1.45-27.52,6.48,6.48,0,0,1,4.06-4.83,21,21,0,0,1,4.51-1.61c9.78-1.6,19.56-3.27,29.39-4.5,5.22-.66,6.18.28,7.2,5.34,1.51,7.53,1.07,15.13.26,22.69-.39,3.71-2.29,5.17-6.27,5.38-4.52.23-9,.15-13.58.31-5.1.18-10.2.46-15.3.73-2.79.14-5.47.43-7.63,2.67C775.51,51.53,774,51.54,772.15,52.1Zm2.4-3c2.89-3.14,6.63-2.94,10.17-3.32,2.91-.31,5.84-.37,8.76-.46,6.29-.21,12.59-.29,18.87-.59,3.36-.15,4.43-.9,4.5-3.61.18-6.85.32-13.73-.06-20.57-.26-4.7-1.23-5.35-5.87-4.81-7.11.82-14.2,1.87-21.27,3.06a98.27,98.27,0,0,0-10.16,2.6,5,5,0,0,0-3.94,4.72q-.81,10.68-1.58,21.38C773.94,47.88,774.23,48.26,774.55,49.11Z"></path><path d="M278.36,243.63a8.09,8.09,0,0,1-8-7.72,8.31,8.31,0,0,1,8.49-8.16,8,8,0,0,1,7.72,7.94A8.22,8.22,0,0,1,278.36,243.63Zm-.08-3a5.09,5.09,0,0,0,5.18-4.83,4.83,4.83,0,0,0-4.61-4.87,5.08,5.08,0,0,0-5.38,4.61A4.8,4.8,0,0,0,278.28,240.58Z"></path><path d="M632.76,235.79a7.82,7.82,0,0,1-7.67,7.94,8.29,8.29,0,0,1-8.53-7.68,7.77,7.77,0,0,1,7.87-8.13A8.22,8.22,0,0,1,632.76,235.79Zm-7.71,4.79a4.59,4.59,0,0,0,4.68-4.67,5.41,5.41,0,0,0-5.14-5,4.8,4.8,0,0,0-4.87,5A5.11,5.11,0,0,0,625.05,240.58Z"></path><path d="M568.69,198a7.68,7.68,0,1,1-7.34-7.71A7.6,7.6,0,0,1,568.69,198Zm-3.07-.12a4.8,4.8,0,0,0-4.87-4.6,4.67,4.67,0,0,0,.59,9.32A4.76,4.76,0,0,0,565.62,197.91Z"></path><path d="M196.34,114.33a6.73,6.73,0,1,1-6.67-6.66A6.67,6.67,0,0,1,196.34,114.33Zm-6.83,3.93a3.88,3.88,0,1,0,0-7.76,3.88,3.88,0,0,0,0,7.76Z"></path><path d="M116.66,42.92c1.72,1.7,2.68,4.44,6.47,3.95-2.07,2.52-3.69,4.43-3.08,7-2.9.88-2.39-1.71-3.42-2.79-1.25-1-3.54,1.43-4.56-1.57l3.28-2.21.33-4.12Z"></path><path d="M363.59,146l3.86-4.86,5.27,4.88c-2.47,1-3.39,3.39-4.5,5.76Z"></path><path d="M387.86,3.86,393,9.2l-4.15,6.07c-1.56-2.94-1.91-3.31-5.09-5.59A7,7,0,0,0,387.86,3.86Z"></path><path d="M377.22,29.15a3.22,3.22,0,0,1-3-3.09,3.39,3.39,0,0,1,2.63-3.5,2.9,2.9,0,0,1,3.2,2.8A3.36,3.36,0,0,1,377.22,29.15Z"></path><path d="M496.85,111.58c0,2.29-1.43,4-2.82,4.06a3.1,3.1,0,0,1-2.9-3.12c0-1.64,1.53-3.32,3-2.89A9.12,9.12,0,0,1,496.85,111.58Z"></path><path d="M353.68,113.24a9.69,9.69,0,0,1-2.68,2.1c-1.31.49-3-1.3-3.14-2.85a2.8,2.8,0,0,1,2.63-2.84C352.14,109.59,353.65,110.94,353.68,113.24Z"></path><path class="cls-3" d="M617,152.82c-3.57-6.91-7.68-13.42-14.43-17.44,2.76-10.3,1-16.27-5.52-19.86a13.82,13.82,0,0,0-16.84,2.85c-3.62,4-5.73,11.6.49,19.27-6.23,6-10.83,13.12-12.7,22.07-3.54-2.15-5.76-4.35-6.28-8.57-.72-5.82-.59-11.36,1.62-16.8a8.3,8.3,0,0,0,.58-1.65c1.84-11,9-18.49,16.94-25.38,3.6-3.14,7.69-5.86,12.65-6.52,10.75-1.41,18.26,3.65,23.93,12.22,8.59,13,6.54,26.08.46,39.23C617.76,152.45,617.39,152.55,617,152.82Z"></path><path class="cls-3" d="M306.81,142.86,294.1,127.54c1.7-5.77,1.32-11.6-5.32-15.18-4.24-2.28-9.74-1.21-13.37,2.3-4.14,4-4.77,9.16-1.85,15.87-5.16,6.9-9.16,14.45-10.6,23.8-4.12-2.92-7-6.24-7.89-10.88-3.74-18.67,5.13-36.89,24.08-43.29,4.93-1.66,9.75-1,13.62,2.33,8,7,14.19,15.14,15.73,26.07A28.78,28.78,0,0,1,306.81,142.86Z"></path><path class="cls-3" d="M570.86,161.56a34.29,34.29,0,0,1,11.9-21.39c3.35.38,6.4,1.25,9.33.92,2.77-.31,5.41-1.86,8.71-3.09,6.39,3.49,10.36,9.81,13.49,16.84a2.75,2.75,0,0,1-1.14,3.8c-2.87,1.68-5.72,3.63-8.84,4.62a51,51,0,0,1-27.68.77,27.8,27.8,0,0,1-3.72-1.3A18.61,18.61,0,0,1,570.86,161.56Z"></path><path class="cls-3" d="M455.24,113.76c-1,4.12-.18,8.31-3.52,11.56-.65.62-.53,2.11-.64,3.21-.13,1.41,0,2.86-.22,4.26-.6,3.84-2.85,6-6.66,7.06-6.06,1.74-12.07,3.38-18.52,3.09V111.16A140.43,140.43,0,0,1,455.24,113.76Z"></path><path class="cls-3" d="M275.69,133c8.05,2.66,9.88,2.41,16.33-2.24a43.5,43.5,0,0,1,11.82,14.69c1,1.9,0,3.33-1.16,4.75-5.24,6.53-12.24,9.44-20.39,9.15-4.46-.15-8.89-1.35-13.33-2.1-2.39-.4-2.94-1.83-2.6-4.12C267.48,145.5,271,139.09,275.69,133Z"></path><path class="cls-3" d="M422.1,111.14v31.79a52.1,52.1,0,0,1-19.84-4.36,3.46,3.46,0,0,1-1.69-1.84,109.23,109.23,0,0,1-5.49-23.19A130.8,130.8,0,0,1,422.1,111.14Z"></path><path class="cls-3" d="M426.38,80.76V59l28.7-2.23a118.27,118.27,0,0,1,2.32,23.94,89.27,89.27,0,0,1-10.27-.11c-1.68-.2-3.19-2.23-4.81-2.28-1.41,0-2.81,2.15-4.32,2.3C434.24,81,430.43,80.76,426.38,80.76Z"></path><path class="cls-3" d="M393.28,80.8a139.21,139.21,0,0,1,2.85-24.5l27,2.67c.12,7.06-.06,14.26-.19,21.83Z"></path><path class="cls-3" d="M454.44,53.67a149.08,149.08,0,0,1-27.81,2.14,93.59,93.59,0,0,1,.07-13.09c0-.71,1.23-1.31,1.43-2.08.3-1.18.78-2.93.2-3.62-3.12-3.7-1.15-7.75-1.59-11.94,6.94-.29,13.08,1.34,19.07,3.64a3.59,3.59,0,0,1,1.8,1.76c1.24,2.95,2.41,5.95,3.39,9a5,5,0,0,1-.41,2.86c-.53,1.5-.79,3.19.64,4C454.1,47.86,454,50.46,454.44,53.67Z"></path><path class="cls-3" d="M423.33,55.79a134.73,134.73,0,0,1-26.78-2.63c.85-3.34,1.46-6.45,2.45-9.44,1.46-4.45,3.09-8.84,4.85-13.17a5.17,5.17,0,0,1,2.5-2.75A44,44,0,0,1,423.57,25c-.18,4,1.29,7.87-1.48,11.48a3.51,3.51,0,0,0-.28,3.26c2.25,2.9,1.38,6.15,1.51,9.29C423.4,51.08,423.33,53.12,423.33,55.79Z"></path><path class="cls-3" d="M483.71,80.37H460.56c-.79-7.9-1.58-15.84-2.42-24.27l16.25-4.18a52.78,52.78,0,0,1,7.09,15.45c-1.46,3.68-.43,6.78,2,9.73C484,77.74,483.64,79.08,483.71,80.37Z"></path><path class="cls-3" d="M393,55.6c-1,8.58-1.85,16.81-2.79,25.34-1.07,0-2.31.34-3.24,0-6.7-2.78-13.35-5.71-20.13-8.65.91-3.81.7-7.44,4.26-9.56a2.64,2.64,0,0,0,1-2.24c-.9-3.83,1.59-6.28,3.36-9.42Z"></path><path class="cls-3" d="M92.62,231.93c2.94-2.4,5.81-4.88,8.81-7.21C128,204.07,157,187.34,187.18,172.64c19.35-9.42,38.81-18.5,59.42-24.88.84-.26,1.67-.55,2.52-.77,1.64-.42,1.65-.4,3.49,2.13A586.44,586.44,0,0,0,93.22,232.69Z"></path><path class="cls-3" d="M745.58,192.73c-38.36-15.62-76.48-31.63-117.7-40l2.32-6.18C670.49,157.88,709,172.91,745.58,192.73Z"></path><path class="cls-3" d="M471.77,125.41c1.11-2.79,2.94-2.75,4.69-2.67,6,.29,12,.51,18,1q17.71,1.55,35.39,3.43c7.69.82,15.35,2,23.55,3-.35,2.87-.65,5.39-1,8.29C525.58,132.75,499.17,126.91,471.77,125.41Z"></path><path class="cls-3" d="M391.26,111.16l-16.46,4.31a55.66,55.66,0,0,1-8.61-23.24l22.1,2.8C389.22,100.39,392.91,105.26,391.26,111.16Z"></path><path class="cls-3" d="M396.21,95.92h26.23v12l-27.73,2.31c-.25-3.57-2.36-7.08.84-10.58C396.27,98.89,396,97.2,396.21,95.92Z"></path><path class="cls-3" d="M579.63,127.68a10.77,10.77,0,1,1,21.54-.16,10.77,10.77,0,1,1-21.54.16Z"></path><path class="cls-3" d="M456.84,102.72c-.39,2.89-.71,5.3-1,7.82L426,107.93v-12Z"></path><path class="cls-3" d="M425.87,93.77c0-2.73,0-4.62,0-6.52,0-.86.11-1.72.21-3.17,5.09.17,10.07-1,15.06.66a4,4,0,0,0,2.52.19c4.38-2,8.86-.61,13.58-1v8.21A190.26,190.26,0,0,1,425.87,93.77Z"></path><path class="cls-3" d="M567,163.41a60.53,60.53,0,0,0,7.12,3,53.81,53.81,0,0,0,34.41-1.4,18.54,18.54,0,0,0,9.34-7c6.73-10.45,9.77-21.82,7.42-34.22-.54-2.82-2-5.47-3-8.19a14,14,0,0,1-1-3.14c5,4.78,7,10.91,7.52,17.56,2.33,28.12-21,43.08-40.33,42.16a68.36,68.36,0,0,1-10-1.14A17.44,17.44,0,0,1,567,163.41Z"></path><path class="cls-3" d="M400.47,30c-2.42,7.92-4.57,15-6.86,22.48-5.31-.32-10.4-2.23-16.2-4A59.27,59.27,0,0,1,400.47,30Z"></path><path class="cls-3" d="M282.68,131.59a7.8,7.8,0,0,1-8-8,9.32,9.32,0,0,1,9.18-9.3,8.1,8.1,0,0,1,8.14,8.09A9.46,9.46,0,0,1,282.68,131.59Z"></path><path class="cls-3" d="M397,136.16a59.53,59.53,0,0,1-20.5-18c5.17-2.11,10.22-3.07,15.44-4.2C393.62,121.3,395.24,128.37,397,136.16Z"></path><path class="cls-3" d="M299.63,104.25c9.24,5.56,14.77,13.86,16.93,24.35,1.75,8.5-.38,16-7,21.87a49.13,49.13,0,0,1-6.42,4.88C317.19,137.13,313.26,120.42,299.63,104.25Z"></path><path class="cls-3" d="M472.84,49.54l-15.1,3.71c-1-3.12-2.3-5.66-1.22-8.73a3.48,3.48,0,0,0-.7-3.11c-3.13-2.55-2.92-6.35-4.08-9.72A54.57,54.57,0,0,1,472.84,49.54Z"></path><path class="cls-3" d="M473.07,118a60.38,60.38,0,0,1-19.65,17.66c0-2.59.47-4.17,2.46-5.45.86-.55,1.76-2.57,1.39-3.28-2.24-4.37.64-8.11.58-12.82Z"></path><path class="cls-3" d="M479.89,105.6l-5.06,10.08-16.31-4.35c.33-2.74.62-5.15,1-8.09Z"></path><path class="cls-3" d="M363,74.59c-.17,2.39-.35,4.28-.42,6.16s0,3.49,0,5.86c-6.23-1.72-11.95-3.4-16.73-7.92,2.72-4.13,6.83-5.79,11-6.65C358.56,71.69,360.76,73.6,363,74.59Z"></path><path class="cls-3" d="M484.74,100.89c.6-3,1.21-5.91,1.86-9.12,2.81-.74,5.58-1.52,8.38-2.15a2.68,2.68,0,0,1,2,.42c2.52,1.93,5.11,3.83,6.24,7C499.51,100.28,491.86,101.89,484.74,100.89Z"></path><path class="cls-3" d="M483.37,92.45l-2.07,9.06-21-1.52V95.11Z"></path><path class="cls-3" d="M390.35,85.26v6.31c-1.38-.09-2.63-.08-3.84-.28q-8.61-1.38-17.2-2.89a8.38,8.38,0,0,1-2.89-.93,2.07,2.07,0,0,1-.72-1.78,2.28,2.28,0,0,1,1.35-1.35,6.42,6.42,0,0,1,2.16-.11c4.81,0,9.62-.11,14.42,0A58.47,58.47,0,0,1,390.35,85.26Z"></path><path class="cls-3" d="M483.51,84c.24,3.85.27,4-2.5,4.5-6.69,1.23-13.41,2.33-20.51,3.55V84Z"></path><path class="cls-3" d="M422.71,84.26v7.89C417.77,92,401.8,87,397.6,84.26Z"></path><path class="cls-3" d="M250.69,136.46c-5.46-15.29,6.16-32.56,17.59-34.52C256.38,110.63,251.29,122.41,250.69,136.46Z"></path><path class="cls-3" d="M393.37,92.19V86.68l22.4,6.38C408.35,93.92,401.08,92.85,393.37,92.19Z"></path><path class="cls-3" d="M441.27,95.91c5.2-.6,10.45-.27,16-.56-.06,1.4-.11,2.35-.19,4l-15.79-2.4Z"></path><path class="cls-3" d="M375.89,81.13H366V76.81C369.91,77.27,372.81,79.34,375.89,81.13Z"></path><path class="cls-3" d="M501.88,100.7c-5.27,3.51-11.16,3.4-17,3.42l-.16-1c2.92-.24,5.86-.36,8.76-.76S499.08,101.27,501.88,100.7Z"></path><path class="cls-3" d="M361.86,89.3c-5.33-1.23-10.6-2.61-14.73-6.81,2.47,1.09,4.91,2.26,7.42,3.26s5.14,1.84,7.72,2.75Z"></path><path class="cls-3" d="M346.4,59.61,354.77,67C351.56,66.83,348.67,64.47,346.4,59.61Z"></path><path class="cls-3" d="M507,81.21a7.69,7.69,0,0,1-7.62,4Z"></path><path class="cls-3" d="M354.39,70.68l-7.29,3.77C348.73,71.67,351,70.14,354.39,70.68Z"></path><path class="cls-3" d="M504.37,94.08l-5.14-5C501.53,89.33,501.83,89.58,504.37,94.08Z"></path><path class="cls-3" d="M472.45,102.78h5.88l0,.35h-5.72Z"></path><path class="cls-3" d="M557.38,131.78c-.28,1.93-.55,3.85-.82,5.78l-.69-.05q.17-2.89.32-5.79Z"></path><path class="cls-3" d="M493.18,88.37,488,89.56l-.22-.87,5.08-1.34Z"></path><path class="cls-3" d="M33,290.33c-.92,1.16-1.83,2.33-2.74,3.49l-.62-.5,3-3.29Z"></path><path class="cls-3" d="M364.3,67.57l-3.4.87-.23-.76L364,66.63Z"></path><path class="cls-3" d="M371.54,76.8l-1.87-1,.11-.31,2.18.9Z"></path><path class="cls-3" d="M569.05,114.62c-.68.84-1.35,1.68-2,2.53l-.48-.31c.61-.94,1.22-1.87,1.82-2.81Z"></path><path class="cls-3" d="M562,125.22l1.16-3,.61.2-1,3.23Z"></path><path class="cls-3" d="M799.38,157.78c-7.4,10.08-8.93,13.49-10.94,24.27a10.84,10.84,0,0,1-9-10.43c0-6.82,2-13.27,4.16-19.65,1.3-3.87,3-7.62,4.58-11.37,3-6.94,8.06-12.09,14.18-16.35,7.24-5,14.87-5,22.38-1.13,9.09,4.7,14.88,12,16.13,22.55.76,6.31.94,12.57-.89,18.7-.81,2.73-2.28,5.27-3.74,8.55-2.31-3.62-4-6.67-6.06-9.36s-4.77-5.13-7.43-7.94c1.75-4.43,3-9.16.47-14a14.83,14.83,0,0,0-6.26-6.54,14.25,14.25,0,0,0-17.28,2.85C794.65,143.24,794.51,150,799.38,157.78Z"></path><path class="cls-3" d="M801.17,159.29c7.42,4.63,13.86,3.57,19.93-1.67a37.78,37.78,0,0,1,12.09,14.9c1,2.2-.3,3.24-1.81,4.28a52.14,52.14,0,0,1-22.75,8.62c-6,.83-11.91.9-18.07-1.51A39.78,39.78,0,0,1,801.17,159.29Z"></path><path class="cls-3" d="M822.53,147.67a12.63,12.63,0,0,1-12.13,12.59c-6.67.2-12.7-5.78-12.66-12.55a12.4,12.4,0,0,1,24.79,0Z"></path><path class="cls-3" d="M790.07,187a53,53,0,0,0,25.7-1,76.06,76.06,0,0,0,14.09-5.86c8.58-4.6,12.65-12.27,13.33-21.81.21-3.05,0-6.13,0-9.67,1.95,3.62,2.41,8.46,1.54,14-2.55,16.33-13.54,26.71-30.27,28.54-6.44.71-12.85.72-19-1.64C793.61,188.91,791.87,187.9,790.07,187Z"></path><path class="cls-3" d="M775.25,166.85c-5.35-10.74,1-26.67,11.35-35.53C779.16,142,774.76,153.67,775.25,166.85Z"></path><path class="cls-3" d="M777.7,163.36c.47-12,4-22.67,12.38-31.42C784.41,141.82,780.85,152.53,777.7,163.36Z"></path><path class="cls-3" d="M120.42,154.47c.82-5.15-.92-8.9-5.28-10.83s-9.6-.94-12.46,2.41c-3.42,4-3.23,8.95.38,14.08-1.46,4.78-2.86,9.35-4.43,14.51-4.66-3.91-8.14-8.53-8.46-14.53-.44-8.25,3.49-14.55,10.72-18.57a27.71,27.71,0,0,1,18.73-2.84,17.67,17.67,0,0,1,14.3,17.59c-.07,3-.95,6-1.48,9.14Z"></path><path class="cls-3" d="M102.48,176.94c-.47-5,.93-9.41,3-13.67a2.84,2.84,0,0,1,3.06-1.93c3.57.36,6.54-1.13,9.25-3.2,5.23,1.41,8.7,4.59,11.82,10.79C124.56,178.21,112,182.23,102.48,176.94Z"></path><path class="cls-3" d="M110.48,145.77a7,7,0,0,1,7,4.56c.71,2.36-.47,4.84-3.26,6.52a10.56,10.56,0,0,1-3.22,1.27c-4,.86-7-.68-7.68-3.79A6.81,6.81,0,0,1,109,146C109.55,146,110.12,145.84,110.48,145.77Z"></path><path class="cls-3" d="M99.2,138.46c5.13-6.57,17.67-7.78,25.89-1.43C115.73,134,107.38,134.94,99.2,138.46Z"></path><path class="cls-3" d="M94.13,175.09c5.68,5.76,12.81,7.57,20.62,7.62C104.87,185.22,97.31,182.42,94.13,175.09Z"></path><path class="cls-3" d="M232.34,277.69a45.91,45.91,0,0,0-8.73,19.24,11.73,11.73,0,0,1-6.61-8.77c-3-16.57,5-30.6,19.75-35.76,4.36-1.52,8.51-1,11.94,2,4.87,4.27,9,9.18,11.3,15.4a27.22,27.22,0,0,1,.28,18.1l-10.71-12.79c1.25-4.65,1.21-9.46-4.11-12.49a9.79,9.79,0,0,0-11,1.39C230.74,267.19,230.1,271.3,232.34,277.69Z"></path><path class="cls-3" d="M234.2,279.46c5,2.45,9.37,2,13.57-1.72,4.37,3.21,7.32,7.45,9.85,12,.8,1.45.24,2.8-.78,4-3,3.58-6.57,6.3-11.2,7.17a32.68,32.68,0,0,1-19.18-2C226.29,291.36,230,285.48,234.2,279.46Z"></path><path class="cls-3" d="M247.68,270.62a7.58,7.58,0,0,1-7.31,7.77,6.5,6.5,0,0,1-7-6.72,7.63,7.63,0,0,1,7.56-7.54A6.34,6.34,0,0,1,247.68,270.62Z"></path><path class="cls-3" d="M254.86,256.22a28.88,28.88,0,0,1,13.58,20.85c1.43,9.09-2.68,16.44-11.41,20.93C267.45,282.14,266.9,272.52,254.86,256.22Z"></path><path class="cls-3" d="M213.84,283.21C208.68,272.44,216.5,257,228,253.52,218.14,261.6,213.48,271.13,213.84,283.21Z"></path><path class="cls-3" d="M661.39,277.2,651,289.83a16.55,16.55,0,0,1-1.05-2.55,25.67,25.67,0,0,1,3.94-20.95,58.12,58.12,0,0,1,7.61-9.05c3.63-3.58,8-4.38,13-2.63,15.23,5.41,22.83,20.67,19.37,36.41a13.06,13.06,0,0,1-6.07,8.15c-1.27-3.6-2.2-6.95-3.63-10.08s-3.4-6.12-5.36-9.58a25.76,25.76,0,0,0,1.07-3.2,9.87,9.87,0,0,0-3.11-10,9.29,9.29,0,0,0-9.75-2.19,9.14,9.14,0,0,0-6.2,9.95C660.89,275.28,661.22,276.4,661.39,277.2Z"></path><path class="cls-3" d="M662.67,279.54c4.52,3.84,8.83,4.74,13.89,2,4.46,5.86,7.77,11.89,8,19.17-9.85,5.09-21.8,3.86-28.59-2.67-3.74-3.61-4-4.77-1-8.93C657.25,286,659.86,283,662.67,279.54Z"></path><path class="cls-3" d="M669.94,266.21a7.72,7.72,0,0,1,7.58,7.9,6.55,6.55,0,0,1-6.68,6.59,7.93,7.93,0,0,1-7.65-7.92A6.69,6.69,0,0,1,669.94,266.21Z"></path><path class="cls-3" d="M655.83,258.6c-11.09,13.92-13,28-1.64,41.8-10.35-5.38-13.57-14.62-11.41-22.93C644.85,269.5,648.83,263,655.83,258.6Z"></path><path class="cls-3" d="M684.46,256.8c10.36,3.13,16.17,15.18,13.22,27.4C696.74,273.4,693.16,263.89,684.46,256.8Z"></path><path class="cls-3" d="M766.4,85.69,755.54,72.32c.64-2.53,1.85-6.06-.3-9.26a14.36,14.36,0,0,0-4.62-4.46A9.54,9.54,0,0,0,739,60.73c-3.07,3.55-4.4,7.69.1,14.45A29.45,29.45,0,0,0,729.94,91c-2.82-1.41-4.24-3.06-4.63-6-1.26-9.56,1.66-18,7.28-25.38a32.69,32.69,0,0,1,11.46-10c5.33-2.64,10.54-2.59,15.36.6a23.38,23.38,0,0,1,10.89,20A31.1,31.1,0,0,1,766.4,85.69Z"></path><path class="cls-3" d="M732.1,92.71a23.48,23.48,0,0,1,7.52-14.8,3.65,3.65,0,0,1,3.06-.77c4,1.33,7.45.21,10.82-2,5,2.59,7.71,7,10.06,11.8A2.74,2.74,0,0,1,762.29,91a40.23,40.23,0,0,1-8,3.44,34.72,34.72,0,0,1-17.36.12A47.77,47.77,0,0,1,732.1,92.71Z"></path><path class="cls-3" d="M746.19,59.72a8,8,0,0,1,8,7.65,7.89,7.89,0,0,1-7.54,8,7.78,7.78,0,0,1-8.2-7.77A8,8,0,0,1,746.19,59.72Z"></path><path class="cls-3" d="M730.19,94.92c8.3,3.32,16.64,3.3,25.08,1.56a18.37,18.37,0,0,0,14.48-12.57c3.22-9,4.38-17.88-.92-26.73,2.5,1.65,3.06,2.39,4.2,5.49A28.11,28.11,0,0,1,755.1,98.9a31.65,31.65,0,0,1-18.56.28A10.46,10.46,0,0,1,730.19,94.92Z"></path><path class="cls-3" d="M721.43,73.06V70.35l.48,0-.15,2.71Z"></path><path class="cls-3" d="M102.73,123.86c-2.6-2.61-4.68-4.55-6.59-6.65a5.52,5.52,0,0,0-5-1.92c-9.91.62-19.84,1-29.77,1.42a45,45,0,0,1-6.57-.18c-3.75-.39-5.13-1.78-5.78-5.45a13.18,13.18,0,0,1-.18-2.18c-.06-7.45-.26-14.91-.09-22.36.16-7.23,2.07-9.31,9.15-10.43,9.6-1.53,19.25-1,28.88-.44,3.49.2,7,.77,10.43,1.31,4.32.67,5.12,1.39,5.73,5.81a73.53,73.53,0,0,1,.72,10.06c0,9.2-.24,18.4-.41,27.6A33,33,0,0,1,102.73,123.86ZM92,83.34c-2.17-1.89-2.17-2-4.07-1.94Q73,82,58.16,82.82a7.56,7.56,0,0,0-3,.5c-.64.32-1,1.3-1.73,2.49,12.74-.54,24.66-1,36.57-1.58A7.87,7.87,0,0,0,92,83.34ZM54.37,92.42l.16,1.19a45.32,45.32,0,0,0,4.9.46c6.26-.06,12.52-.23,18.78-.35a26.31,26.31,0,0,0,4.36-.14c.71-.14,1.27-1,2.14-1.81-3-1.06-24.67-1.38-28.74-.53C55.38,91.36,54.9,92,54.37,92.42Zm.45,8.92.14,1.31c6.95,1.08,14-.12,20.95-.13.81,0,1.62-.66,2.88-1.22-.94-.76-1.36-1.4-1.78-1.39q-10.26.07-20.53.35C55.92,100.28,55.38,101,54.82,101.34Z"></path><path class="cls-3" d="M628.69,102.65a6.4,6.4,0,0,1-.58-1.47,130.79,130.79,0,0,1,2.14-30.53c.58-3.08,2.15-5.1,5.06-6A114.13,114.13,0,0,1,648,61.27c8.91-1.57,17.88-2.8,26.84-4.06,2.31-.33,4.67-.22,7-.41a3.37,3.37,0,0,1,4,3.15,80,80,0,0,1,1.52,11.25c.13,6.28-.17,12.56-.49,18.83-.26,5-1.59,6.31-6.83,6.51-8.17.31-16.36.34-24.53.67-6,.23-11.94.84-17.92,1.09C634,98.45,631.33,100.27,628.69,102.65Zm47.65-34.83c-1.38-3-3.2-2.24-4.66-2.09-9.46,1-18.91,2-28.36,3.09a5,5,0,0,0-2.13.36,6.77,6.77,0,0,0-1.39,1.92c.69.35,1.42,1.06,2.07,1,10-1,20.06-2.15,30.08-3.3C673.29,68.63,674.61,68.21,676.34,67.82ZM639,78.92c1.07,2.53,2.43,2.3,3.72,2.22L668,79.6a3.92,3.92,0,0,0,1.71-.2c.53-.33,1.2-1.05,1.15-1.52s-.84-1.06-1.42-1.31a4.13,4.13,0,0,0-1.72,0c-8.31.48-16.61.94-24.91,1.48A26,26,0,0,0,639,78.92Zm1.52,9.94c.38.21.64.47.9.47q10.73-.21,21.47-.49c.56,0,1.49-.2,1.58-.5a3.1,3.1,0,0,0-.22-2.12c-.16-.32-1.06-.36-1.62-.34q-9.87.34-19.73.76C641.7,86.69,640.48,86.83,640.5,88.86Z"></path><path class="cls-3" d="M245.58,81.61c-.7-.36-.9-.39-.93-.49-1.89-4.77-5.56-5.39-10.21-5.09-9,.57-18.1.61-27.21.87a5.77,5.77,0,0,1-1.06-1.39c-2.87-7.86-5-15.88-4.87-24.34.08-4.2.6-5.14,4.85-5.94A155.06,155.06,0,0,1,222.61,43a184.61,184.61,0,0,1,18.81-.63c5.11.11,5.2.6,6.13,5.5,1.39,7.32.23,14.57-.41,21.83C246.8,73.56,246.13,77.45,245.58,81.61ZM242.7,48.9c-3.21-2.16-7.62-2-32.44.88-1.27.15-2.73-.06-3.12,2.32a10.56,10.56,0,0,0,3,.68q14.65-1.2,29.3-2.61A13.56,13.56,0,0,0,242.7,48.9ZM207.92,59.09c.37.16.76.51,1.13.49,10.17-.63,20.34-1.26,30.5-2,.54,0,1-1,2.13-2.24-2.09-.23-3.3-.49-4.52-.49-2.47,0-4.95.08-7.42.27-6.39.48-12.77,1-19.15,1.57C209.18,56.81,207.46,56.7,207.92,59.09Zm3.2,6.47c2,1.75,4.57,2,9,.82.71-.19,1.25-1.09,2.11-1.89C217.91,63.25,214.47,63.61,211.12,65.56Z"></path><path class="cls-3" d="M118.18,267a4.44,4.44,0,0,1-4.27,4.09,3.72,3.72,0,0,1-3.77-3.85,4,4,0,0,1,4.22-4A3.6,3.6,0,0,1,118.18,267Z"></path><path class="cls-3" d="M139.66,280.77c-.55-.64-1.77-1.51-2.14-2.66-.55-1.74,1-3.47,2.78-3.74a2.86,2.86,0,0,1,3.28,2.71C143.67,278.78,142.11,280.58,139.66,280.77Z"></path><path class="cls-3" d="M142,251.56c-1.67,1.32-2.59,2.57-3.73,2.81-1.44.31-2.27-1-2.37-2.44s1.23-3.07,2.62-2.73C139.55,249.45,140.4,250.43,142,251.56Z"></path><path class="cls-3" d="M525.83,69.9a3.62,3.62,0,0,1,3.69,3.89,4.47,4.47,0,0,1-4.41,3.94,3.7,3.7,0,0,1-3.62-4A4,4,0,0,1,525.83,69.9Z"></path><path class="cls-3" d="M554.9,83c.05,2.51-1.56,4.26-3.24,4.33a2.87,2.87,0,0,1-2.9-3.11c.08-1.85,1.7-3.63,3.38-3.2C553.31,81.32,554.25,82.51,554.9,83Z"></path><path class="cls-3" d="M553.32,58.29c-1.69,1.26-2.64,2.49-3.78,2.7-1.44.26-2.25-1-2.3-2.51s1.29-3,2.68-2.66C550.94,56.09,551.76,57.11,553.32,58.29Z"></path><path class="cls-3" d="M702.24,238.6c-1.84-9-3-17.79-2.21-26.74.43-5,1.07-5.8,5.85-5.59,9,.39,18.06,1.22,27.08,1.94a12.72,12.72,0,0,1,3.37.93,3.39,3.39,0,0,1,2.37,3.33c.33,7.89-1.76,15.25-4.52,22.7-6.32-.25-12.29-.5-18.27-.72-1.46-.06-2.93.06-4.38-.1C707.72,234,704.19,234.08,702.24,238.6Zm31.22-24.07.19-.92c-.43-.34-.84-.94-1.29-1-8.57-.8-17.14-1.56-25.72-2.22-.61,0-1.28.66-1.92,1,0,.3.08.6.13.9,8.54,1.48,17.28,1.36,25.85,2.61A9.62,9.62,0,0,0,733.46,214.53Zm.07,4.73c-.59-.34-1-.8-1.49-.84-8.26-.61-16.52-1.19-24.78-1.69-.52,0-1.08.63-2,1.22,1,.53,1.62,1.08,2.23,1.11q12.59.76,25.19,1.35C732.88,220.42,733.13,219.81,733.53,219.26ZM721.75,224c1.28,2.91,5.73,3.59,8.74,1.64C727.89,223.76,725.07,224.06,721.75,224Z"></path><path class="cls-3" d="M176.79,232.84c-2.9-7.3-4.73-14.45-4.5-22,.09-2.88.79-3.82,3.9-4.39a130,130,0,0,1,13.47-1.81c5.38-.41,10.8-.68,16.2-.55,4.11.1,4.14.46,4.92,4.65,1.22,6.59,0,13.13-.52,19.67-.22,2.59-.66,5.16-1,7.69-.44,0-.91.09-1,0-1.76-3.79-4.74-4.31-8.65-4C192.1,232.64,184.51,232.61,176.79,232.84Zm-.19-22c.92,1.07,1.2,1.66,1.44,1.64q13.46-.94,26.9-2c.44,0,.85-.62,1.56-1.18-.83-.52-1.41-1.21-1.94-1.17C195.5,208.84,186.39,209.2,176.6,210.87Zm28.7,5.75c-.47-2.34-1.65-2.37-2.82-2.29-7.69.54-15.38,1.08-23.06,1.74-.68.06-1.29.93-1.94,1.42l.41,1.06Zm-15.37,5.88c-6-1.06-7.8-.65-9.15,1.88C183.79,224.71,186.68,225.09,189.93,222.5Z"></path><path class="cls-3" d="M839.09,113.13c0-9.07,0-17.53,0-26,0-2.19.94-3.62,3.25-3.94a51,51,0,0,1,6.07-.87q13.62-.16,27.23-.08c3.71,0,4.59.63,4.65,4.28a159.26,159.26,0,0,1-.68,16.19c-.28,3.34-1,3.91-4.46,4.15-3.94.27-7.9.19-11.85.26l-11.85.2c-3.48.06-6.62.92-9.14,3.54A23.32,23.32,0,0,1,839.09,113.13Zm34.45-24.75c-4.06-.92-23.16-.51-27.56.39a7.77,7.77,0,0,0-1.9,1.07c.68.48,1,.93,1.33.91q12.9-.6,25.8-1.3A10.77,10.77,0,0,0,873.54,88.38Zm-5,6.18c-3.77-1.06-7.62-.7-11.41-.39s-7.65-.57-11.73,1.22C849.37,96.84,863.81,96.5,868.56,94.56Zm-15.87,5.59c-3.29-1.7-5.13-1.54-7.37.44C847.94,101.84,850.3,100.67,852.69,100.15Z"></path><path class="cls-3" d="M774.55,49.11c-.32-.85-.61-1.23-.58-1.6q.76-10.69,1.58-21.38a5,5,0,0,1,3.94-4.72,98.27,98.27,0,0,1,10.16-2.6c7.07-1.19,14.16-2.24,21.27-3.06,4.64-.54,5.61.11,5.87,4.81.38,6.84.24,13.72.06,20.57-.07,2.71-1.14,3.46-4.5,3.61-6.28.3-12.58.38-18.87.59-2.92.09-5.85.15-8.76.46C781.18,46.17,777.44,46,774.55,49.11Zm8.07-23.23.31,1c8.68-.89,17.43-1.23,27-3.32-1.37-.86-1.84-1.41-2.25-1.37q-12,1.19-24,2.53C783.3,24.8,783,25.49,782.62,25.88Zm-.9,6.66c3.15,1.74,5.71.46,8.18.51a55.76,55.76,0,0,0,8.27-.42c2.38-.33,5.07.46,7.51-1.42C801.74,29.83,786.44,30.62,781.72,32.54Zm1.46,6.1c2.59,1.37,15.1,1,18-.77a7.11,7.11,0,0,0-2.05-.69q-7.57.21-15.16.58C783.71,37.77,783.46,38.32,783.18,38.64Z"></path><path class="cls-3" d="M278.28,240.58a4.8,4.8,0,0,1-4.81-5.09,5.08,5.08,0,0,1,5.38-4.61,4.83,4.83,0,0,1,4.61,4.87A5.09,5.09,0,0,1,278.28,240.58Z"></path><path class="cls-3" d="M625.05,240.58a5.11,5.11,0,0,1-5.33-4.64,4.8,4.8,0,0,1,4.87-5,5.41,5.41,0,0,1,5.14,5A4.59,4.59,0,0,1,625.05,240.58Z"></path><path class="cls-3" d="M565.62,197.91a4.56,4.56,0,1,1-9.12.13,4.69,4.69,0,0,1,4.25-4.73A4.8,4.8,0,0,1,565.62,197.91Z"></path><path class="cls-3" d="M189.51,118.26a3.88,3.88,0,0,1,0-7.76,3.88,3.88,0,1,1,0,7.76Z"></path><path d="M527.06,338.93c-2.76,1-3.1-.54-3.53-2-1.24-4.06-2.32-8.17-3.77-12.15a75,75,0,0,0-3.88-8.34,7.17,7.17,0,0,0-7.11-4.25q-15.34.87-30.67,1.92a15.12,15.12,0,0,0-3.36,1c-3.73,1.23-5.83,3.73-6,7.74q-.3,7.25-.62,14.47c-.06,1.45.2,3.15-2.74,2.6-.05-1.58-.16-3.28-.13-5,0-3.66,0-7.33.26-11,.24-4.05,1.22-7.85,5.17-10.42L461,301.83c-3.41,1.31-6.81,2.58-10.18,3.91-13.18,5.24-26.32,10.58-39.55,15.69-5.45,2.11-11,4.14-17.62,2.44.4,5.14.79,10,1.17,14.89-2.83.65-2.9.65-3.14-2-.65-7-1.17-14-1.86-21a89.94,89.94,0,0,0-1.43-9.54c-.91-4.3-1.52-4.82-6-4.34-7.7.82-15.39,1.85-23.06,2.94-3,.43-6,1.42-9,1.88-3.33.5-5.4,2.31-6.09,5.46-1.61,7.27-3,14.59-4.53,21.89a27.23,27.23,0,0,1-.84,4.28c-.23.59-1.36.83-2.48.91,1.54-11.81,1.9-23.7,8.4-34.88-.15-.32-.64-1.34-1.16-2.34a260.42,260.42,0,0,1-18.43-45c-4.64-15.67-1.83-29.77,7.78-42.73l2.4-3.24c-.72-2.69-1.36-5.38-2.19-8-1-3-.18-5.67,2.32-7.4,3.83-2.65,7.7-5.42,11.93-7.27,8.43-3.69,17-7.15,25.71-10.09q52.78-17.81,105.72-35.15A84.59,84.59,0,0,1,494.25,140c6.08-.79,10.94,1.92,14.21,6.93a67.1,67.1,0,0,1,5.89,11.23c5.39,13.14,9.82,26.61,13.88,40.22,5.06,17,10.42,33.82,15.63,50.74.77,2.51,1.54,5,2.08,7.61,1,4.82-.05,9-4.15,12.12a21.41,21.41,0,0,1-2.83,2.05C533,274,527,277.06,521,280.17c-.28,3.93-.47,7.88-.85,11.8q-.9,9.16-2,18.31a9.68,9.68,0,0,0,1.23,6.24C523.17,323.47,525.26,331.05,527.06,338.93ZM521.26,270c3.58-1.85,6.86-3.42,10-5.22s4.77-4.65,3.63-8.5c-.79-2.66-1.34-5.41-2.32-8-3.57-9.43-7.54-18.73-10.89-28.24-6.31-17.93-12.26-36-18.46-54a88.67,88.67,0,0,0-4.35-10.53c-2.43-4.88-4.17-5.81-9.46-4.84-7.76,1.44-15.58,2.74-23.16,4.88C429,166.09,393,180,357.75,195.8c-2.67,1.19-5.35,2.37-8,3.7-3.51,1.78-4.14,3.35-3.07,7.11a14.91,14.91,0,0,0,.78,2Q356.76,229,366,249.4c.57,1.24,1.38,2.37,2.32,3.95,1.47-3,2.58-5.56,3.93-8a35.84,35.84,0,0,1,4.52-7c2.94-3.16,6.62-2.22,7.54,2a30.79,30.79,0,0,1,.52,10c-.83,6.66-2.22,13.26-3.4,19.88-.46,2.61-.69,5.12.42,7.72,3.29,7.67,6.37,15.41,9.58,23.11,1.29,3.11,2.56,6.23,4.07,9.23,1.37,2.71,2.41,3.13,5.35,2.42a39.34,39.34,0,0,0,6.24-2.07q23-9.88,45.88-19.89a5.1,5.1,0,0,0,1.05-.9c-1.48-4.42-3.36-8.74-4.3-13.26a7.11,7.11,0,0,0-5.05-5.8c-15.14-5.74-24.35-16.79-28.27-32.29-4.53-17.92,1.45-34.59,16.13-44.92a59.41,59.41,0,0,1,13.34-7.51c10.73-3.92,21.35-4,30.38,4.39,4.5,4.17,8.66,8.72,12.86,13.2,8,8.51,10.25,18.83,9.19,30.1-.25,2.59-.42,5.5-1.7,7.61-1.86,3.07-1.43,5.58-.09,8.58.51-.44.86-.7,1.15-1,3-3.09,5.37-3,7.76.47a49.36,49.36,0,0,1,2.7,5.15c.63-.5,1.16-1,1.75-1.38,3.61-2.46,6.16-1.85,8.17,2.09a16,16,0,0,1,1.5,4.11C520.21,262.77,520.65,266.1,521.26,270Zm-19.78-20.26c-2.29,1.63-2.84,4-3.46,6.14s-.79,4.32-1.32,6.44c-.15.56-.9,1-1.38,1.45-.54-.57-1.32-1-1.55-1.72a9.44,9.44,0,0,1,0-2.61,54.25,54.25,0,0,0-.39-7.88,28.37,28.37,0,0,0-2.52-7.38,3.82,3.82,0,0,0-3.21-1.59,4,4,0,0,0-2.57,2.48,24,24,0,0,0-.74,6.39c0,3.36.21,6.73.3,10.09,0,1.23-.16,2.54-1.68,2.6-1.7.06-1.62-1.29-1.49-2.51a8.48,8.48,0,0,0,.06-.88,170.6,170.6,0,0,0-3-31.41,18.8,18.8,0,0,0-2-5.75c-1.24-2.2-3.06-2.07-4.37.15a12,12,0,0,0-1.47,3.64A69.51,69.51,0,0,0,469,237.77c-.46,10.37-.61,20.76-.89,31.14a30.54,30.54,0,0,1-.32,5.68c-.57,2.62-2.79,3.09-4.47,1-1-1.24-1.59-2.79-2.46-4.14a21.94,21.94,0,0,0-3.32-4.57,4.94,4.94,0,0,0-3.84-1.17c-.76.18-1.55,2.08-1.56,3.22a29.59,29.59,0,0,0,.74,7.81,77.84,77.84,0,0,0,20.58,34.95c14.12-1.25,27.66-3.56,41.46-1.81a2.27,2.27,0,0,0,.32-.68,213.2,213.2,0,0,0,2.64-40.68c-.12-3.73-1.27-7.46-2.2-11.13a3.42,3.42,0,0,0-2.27-2.21,3.62,3.62,0,0,0-2.57,1.91c-.84,1.66-1.13,3.6-1.85,5.34-.29.67-1.13,1.12-1.72,1.66-.49-.61-1.25-1.17-1.4-1.86-.38-1.7-.44-3.47-.69-5.21C504.75,254.25,503.88,251.71,501.48,249.75ZM342.29,210.16l-1.16-.2c-.85,1.38-2.09,2.66-2.49,4.17a60.6,60.6,0,0,0-2.33,11.56c-.45,6.84-.31,13.71-.38,20.58,0,1.37-.3,2.31-2.4,2a17.8,17.8,0,0,1-.82-4c.09-6.28.34-12.57.57-18.85.06-1.65.23-3.29.35-4.93a3.11,3.11,0,0,0-1.95,1.49,37.84,37.84,0,0,0-4.78,29.11c4.19,18.11,11.72,34.9,20.39,51.23a10.83,10.83,0,0,0,1.18,1.48c5.19-1,10.32-2.13,15.5-3s10.66-1.39,16.28-2.1c-.55-5.38-1-10.45-1.59-15.51-.6-5.22-1.13-10.42.21-15.63a60.17,60.17,0,0,0,1.62-7.72c.63-5.22,1.13-10.46,1.45-15.7.09-1.41-.66-2.88-1-4.33l-1.09-.24a29.41,29.41,0,0,0-3.27,4.28c-2.34,4.55-4.32,9.28-6.73,13.8a25.84,25.84,0,0,1-5,7.08c-4.11,3.75-8.65,3.28-12.36-.82a31.66,31.66,0,0,1-3.31-4.63c-7-11.45-9.62-23.74-7.05-37a55.71,55.71,0,0,0,1-7.82A19.31,19.31,0,0,0,342.29,210.16Zm152.82,18.37c.66-7.95-1.38-14.32-5.78-19.58a202.84,202.84,0,0,0-16.28-17.15c-5.84-5.53-13.34-6.08-20.61-4.21a59.19,59.19,0,0,0-15.19,6.66c-15.22,9.1-21.67,23.72-18.4,41.09,2.65,14.1,10.33,24.62,23.19,31.18a19.6,19.6,0,0,0,3.18.91c-4.1-13.23-5.46-26-1.06-38.7-1.38-.94-2.5-1.63-3.54-2.42a15.58,15.58,0,0,1-5-18.84c3.27-7.22,12.34-9.72,18.14-8.39,6.53,1.5,9.92,6.32,11.46,12.59.3,1.22.49,2.47.74,3.76C477.91,214.57,487.18,219,495.11,228.53Zm26.37,47.73a5.85,5.85,0,0,0,1.37-.28c4.16-2.14,8.32-4.26,12.42-6.51a36,36,0,0,0,5.07-3.42,7.28,7.28,0,0,0,2.73-7.82c-.78-3.27-1.58-6.55-2.57-9.76-5.31-17.34-10.51-34.71-16.1-52-4.24-13.07-8.9-26-13.59-38.92a43.59,43.59,0,0,0-4.77-8.86,12.2,12.2,0,0,0-12.88-5.66,93.41,93.41,0,0,0-12.43,2.64c-40.41,12.36-80.59,25.44-120.11,40.47a149.87,149.87,0,0,0-18.37,8.27c-7.27,3.95-7.45,5.22-4.54,13,.1.25.38.43.48.54l5.5-1.78-2.39-5.74c1.45-.8,3-1.77,4.66-2.54a817,817,0,0,1,114.18-43.74,241.1,241.1,0,0,1,27.8-6.2c8.6-1.48,10.9.15,14.61,8.12.56,1.19,1.11,2.39,1.55,3.63,3.75,10.46,8,20.79,11.06,31.45,4.46,15.51,10.37,30.44,16.36,45.38,2.49,6.22,4.37,12.71,6.34,19.14,1.5,4.84-.35,8.59-4.44,11.33a41.93,41.93,0,0,1-3.82,2.14c-2.33,1.23-4.65,2.48-7,3.61C520.88,273.57,520.57,274.62,521.48,276.26Zm-57.28-5.11.9-.25c0-1.41.08-2.83,0-4.24a189.5,189.5,0,0,1,1.25-33.25c.62-5.5,1.5-11,6.61-15h-7.48c-2.73,9.07-8.91,12.7-17.92,11.33-4.71,9.83-3.88,29.68,1.41,36.78,3.38-5.42,7.17-5.83,11.45-1.15a24.37,24.37,0,0,1,2.28,3.2C463.23,269.41,463.7,270.29,464.2,271.15ZM462.67,214a36.28,36.28,0,0,0-1.67-5.22c-3.26-7.08-10.24-8.94-16.58-4.44-1.4,1-2.28,3-3.77,3.52-4,1.48-3.57,4.63-3.23,7.57.67,5.87,6,10.75,12.15,11.5C456.92,227.79,462.79,222.49,462.67,214Zm-69.75,98.72c-.31,8,1.61,9.76,8.77,8.36a46.94,46.94,0,0,0,8-2.29q24.29-9.5,48.48-19.18c.35-.14.58-.6.92-1L456,293.15c-1.32.46-2.42.77-3.47,1.22-5.89,2.55-11.75,5.19-17.67,7.71-10.2,4.34-20.41,8.7-30.68,12.88C400.14,316.59,396.12,316.87,392.92,312.69Zm-26.35-54.83c-6.83-14.69-13.26-28.52-19.7-42.34-.85,1.4-.79,2.72-1.2,3.88-1.2,3.46-.24,6.56,1.14,9.7,2.51,5.77,4.84,11.62,7.39,17.36,2,4.54,4.25,9,6.45,13.45a29.83,29.83,0,0,0,2.23,3.18ZM483.4,241c3.63-2.71,6.84-2,9.72.51,2.84-4.21,2.5-7.75-.49-11.12a50.17,50.17,0,0,0-3.48-3.92c-3.08-2.81-6.34-5.4-11.15-6.59C481.94,226.5,482.25,233.37,483.4,241ZM358.77,263.9l-13.92-31.34c-.67,11.05,3.31,20.45,9.53,29C355.37,263,356.64,264.22,358.77,263.9ZM383.05,288l-.89.29c.45,3.51.89,7,1.34,10.66l3.74-.27Z"></path><path class="cls-1" d="M521.26,270c-.61-3.91-1-7.24-1.68-10.54a16,16,0,0,0-1.5-4.11c-2-3.94-4.56-4.55-8.17-2.09-.59.4-1.12.88-1.75,1.38a49.36,49.36,0,0,0-2.7-5.15c-2.39-3.48-4.72-3.56-7.76-.47-.29.29-.64.55-1.15,1-1.34-3-1.77-5.51.09-8.58,1.28-2.11,1.45-5,1.7-7.61,1.06-11.27-1.22-21.59-9.19-30.1-4.2-4.48-8.36-9-12.86-13.2-9-8.38-19.65-8.31-30.38-4.39a59.41,59.41,0,0,0-13.34,7.51c-14.68,10.33-20.66,27-16.13,44.92,3.92,15.5,13.13,26.55,28.27,32.29a7.11,7.11,0,0,1,5.05,5.8c.94,4.52,2.82,8.84,4.3,13.26a5.1,5.1,0,0,1-1.05.9q-22.92,10-45.88,19.89a39.34,39.34,0,0,1-6.24,2.07c-2.94.71-4,.29-5.35-2.42-1.51-3-2.78-6.12-4.07-9.23-3.21-7.7-6.29-15.44-9.58-23.11-1.11-2.6-.88-5.11-.42-7.72,1.18-6.62,2.57-13.22,3.4-19.88a30.79,30.79,0,0,0-.52-10c-.92-4.22-4.6-5.16-7.54-2a35.84,35.84,0,0,0-4.52,7c-1.35,2.4-2.46,5-3.93,8-.94-1.58-1.75-2.71-2.32-3.95Q356.73,229,347.5,208.66a14.91,14.91,0,0,1-.78-2c-1.07-3.76-.44-5.33,3.07-7.11,2.61-1.33,5.29-2.51,8-3.7C393,180,429,166.09,466.26,155.6c7.58-2.14,15.4-3.44,23.16-4.88,5.29-1,7,0,9.46,4.84a88.67,88.67,0,0,1,4.35,10.53c6.2,18,12.15,36,18.46,54,3.35,9.51,7.32,18.81,10.89,28.24,1,2.59,1.53,5.34,2.32,8,1.14,3.85-.37,6.63-3.63,8.5S524.84,268.16,521.26,270Zm-163-58.94c1.58,2.86,3.1,1.12,4.35.58q26.34-11.47,52.62-23.09c1.2-.53,3.45-.64,2.44-2.72s-2.65-.44-3.82.07q-26.14,11.37-52.23,22.89A22,22,0,0,0,358.29,211.07ZM414,198.38c-1-.61-1.63-1.26-2.16-1.21a9.26,9.26,0,0,0-2.89.91c-8.57,3.74-17.15,7.47-25.68,11.3q-11.21,5-22.28,10.31c-.82.39-1.94,1.83-1.75,2.4.53,1.61,1.88.62,2.93.3a6.39,6.39,0,0,0,.78-.4l38.43-17.15c3.34-1.48,6.69-2.94,10-4.49A19.1,19.1,0,0,0,414,198.38ZM363.1,228.29c.68.54,1.25,1.25,1.49,1.15q14.91-6.06,29.75-12.3c.63-.26,1-1.17,1.53-1.87-.63-.43-1.09-.94-1.31-.85q-14.7,6-29.35,12.17A10.88,10.88,0,0,0,363.1,228.29ZM405.91,212c-1.59-2.29-2.83-1.87-4-1.24a25.78,25.78,0,0,0-3.22,2.05,1.25,1.25,0,0,0,.13,1.17c.39.33,1.11.69,1.5.54C402.1,213.84,403.84,213,405.91,212Z"></path><path class="cls-3" d="M501.48,249.75c2.4,2,3.27,4.5,3.66,7.28.25,1.74.31,3.51.69,5.21.15.69.91,1.25,1.4,1.86.59-.54,1.43-1,1.72-1.66.72-1.74,1-3.68,1.85-5.34a3.62,3.62,0,0,1,2.57-1.91,3.42,3.42,0,0,1,2.27,2.21c.93,3.67,2.08,7.4,2.2,11.13a213.2,213.2,0,0,1-2.64,40.68,2.27,2.27,0,0,1-.32.68c-13.8-1.75-27.34.56-41.46,1.81a77.84,77.84,0,0,1-20.58-34.95,29.59,29.59,0,0,1-.74-7.81c0-1.14.8-3,1.56-3.22a4.94,4.94,0,0,1,3.84,1.17,21.94,21.94,0,0,1,3.32,4.57c.87,1.35,1.47,2.9,2.46,4.14,1.68,2.08,3.9,1.61,4.47-1a30.54,30.54,0,0,0,.32-5.68c.28-10.38.43-20.77.89-31.14a69.51,69.51,0,0,1,1.66-10.37,12,12,0,0,1,1.47-3.64c1.31-2.22,3.13-2.35,4.37-.15a18.8,18.8,0,0,1,2,5.75,170.6,170.6,0,0,1,3,31.41,8.48,8.48,0,0,1-.06.88c-.13,1.22-.21,2.57,1.49,2.51,1.52-.06,1.71-1.37,1.68-2.6-.09-3.36-.33-6.73-.3-10.09a24,24,0,0,1,.74-6.39,4,4,0,0,1,2.57-2.48,3.82,3.82,0,0,1,3.21,1.59,28.37,28.37,0,0,1,2.52,7.38,54.25,54.25,0,0,1,.39,7.88,9.44,9.44,0,0,0,0,2.61c.23.67,1,1.15,1.55,1.72.48-.48,1.23-.89,1.38-1.45.53-2.12.72-4.34,1.32-6.44S499.19,251.38,501.48,249.75Z"></path><path class="cls-3" d="M342.29,210.16a19.31,19.31,0,0,1,.81,4.36,55.71,55.71,0,0,1-1,7.82c-2.57,13.3,0,25.59,7.05,37a31.66,31.66,0,0,0,3.31,4.63c3.71,4.1,8.25,4.57,12.36.82a25.84,25.84,0,0,0,5-7.08c2.41-4.52,4.39-9.25,6.73-13.8a29.41,29.41,0,0,1,3.27-4.28l1.09.24c.37,1.45,1.12,2.92,1,4.33-.32,5.24-.82,10.48-1.45,15.7a60.17,60.17,0,0,1-1.62,7.72c-1.34,5.21-.81,10.41-.21,15.63.57,5.06,1,10.13,1.59,15.51-5.62.71-11,1.26-16.28,2.1s-10.31,2-15.5,3a10.83,10.83,0,0,1-1.18-1.48c-8.67-16.33-16.2-33.12-20.39-51.23A37.84,37.84,0,0,1,331.68,222a3.11,3.11,0,0,1,1.95-1.49c-.12,1.64-.29,3.28-.35,4.93-.23,6.28-.48,12.57-.57,18.85a17.8,17.8,0,0,0,.82,4c2.1.27,2.39-.67,2.4-2,.07-6.87-.07-13.74.38-20.58a60.6,60.6,0,0,1,2.33-11.56c.4-1.51,1.64-2.79,2.49-4.17Z"></path><path class="cls-3" d="M495.11,228.53c-7.93-9.57-17.2-14-29.11-13.1-.25-1.29-.44-2.54-.74-3.76-1.54-6.27-4.93-11.09-11.46-12.59-5.8-1.33-14.87,1.17-18.14,8.39a15.58,15.58,0,0,0,5,18.84c1,.79,2.16,1.48,3.54,2.42-4.4,12.73-3,25.47,1.06,38.7a19.6,19.6,0,0,1-3.18-.91c-12.86-6.56-20.54-17.08-23.19-31.18-3.27-17.37,3.18-32,18.4-41.09a59.19,59.19,0,0,1,15.19-6.66c7.27-1.87,14.77-1.32,20.61,4.21A202.84,202.84,0,0,1,489.33,209C493.73,214.21,495.77,220.58,495.11,228.53Z"></path><path class="cls-3" d="M521.48,276.26c-.91-1.64-.6-2.69,1.1-3.49,2.37-1.13,4.69-2.38,7-3.61a41.93,41.93,0,0,0,3.82-2.14c4.09-2.74,5.94-6.49,4.44-11.33-2-6.43-3.85-12.92-6.34-19.14-6-14.94-11.9-29.87-16.36-45.38-3.06-10.66-7.31-21-11.06-31.45-.44-1.24-1-2.44-1.55-3.63-3.71-8-6-9.6-14.61-8.12a241.1,241.1,0,0,0-27.8,6.2A817,817,0,0,0,346,197.91c-1.65.77-3.21,1.74-4.66,2.54l2.39,5.74-5.5,1.78c-.1-.11-.38-.29-.48-.54-2.91-7.77-2.73-9,4.54-13a149.87,149.87,0,0,1,18.37-8.27c39.52-15,79.7-28.11,120.11-40.47a93.41,93.41,0,0,1,12.43-2.64A12.2,12.2,0,0,1,506,148.72a43.59,43.59,0,0,1,4.77,8.86c4.69,12.92,9.35,25.85,13.59,38.92,5.59,17.26,10.79,34.63,16.1,52,1,3.21,1.79,6.49,2.57,9.76a7.28,7.28,0,0,1-2.73,7.82,36,36,0,0,1-5.07,3.42c-4.1,2.25-8.26,4.37-12.42,6.51A5.85,5.85,0,0,1,521.48,276.26Z"></path><path class="cls-3" d="M464.2,271.15c-.5-.86-1-1.74-1.51-2.57a24.37,24.37,0,0,0-2.28-3.2c-4.28-4.68-8.07-4.27-11.45,1.15-5.29-7.1-6.12-26.95-1.41-36.78,9,1.37,15.19-2.26,17.92-11.33H473c-5.11,4-6,9.49-6.61,15a189.5,189.5,0,0,0-1.25,33.25c.09,1.41,0,2.83,0,4.24Z"></path><path class="cls-3" d="M462.67,214c.12,8.52-5.75,13.82-13.1,12.93-6.13-.75-11.48-5.63-12.15-11.5-.34-2.94-.73-6.09,3.23-7.57,1.49-.55,2.37-2.53,3.77-3.52,6.34-4.5,13.32-2.64,16.58,4.44A36.28,36.28,0,0,1,462.67,214Z"></path><path class="cls-3" d="M392.92,312.69c3.2,4.18,7.22,3.9,11.21,2.27,10.27-4.18,20.48-8.54,30.68-12.88,5.92-2.52,11.78-5.16,17.67-7.71,1-.45,2.15-.76,3.47-1.22l3.12,5.44c-.34.39-.57.85-.92,1q-24.22,9.65-48.48,19.18a46.94,46.94,0,0,1-8,2.29C394.53,322.45,392.61,320.66,392.92,312.69Z"></path><path class="cls-3" d="M366.57,257.86l-3.69,5.23a29.83,29.83,0,0,1-2.23-3.18c-2.2-4.46-4.42-8.91-6.45-13.45-2.55-5.74-4.88-11.59-7.39-17.36-1.38-3.14-2.34-6.24-1.14-9.7.41-1.16.35-2.48,1.2-3.88C353.31,229.34,359.74,243.17,366.57,257.86Z"></path><path class="cls-3" d="M483.4,241c-1.15-7.65-1.46-14.52-5.4-21.12,4.81,1.19,8.07,3.78,11.15,6.59a50.17,50.17,0,0,1,3.48,3.92c3,3.37,3.33,6.91.49,11.12C490.24,239,487,238.31,483.4,241Z"></path><path class="cls-3" d="M383.05,288l4.19,10.68-3.74.27c-.45-3.63-.89-7.15-1.34-10.66Z"></path><path d="M358.29,211.07a22,22,0,0,1,3.36-2.27q26.09-11.52,52.23-22.89c1.17-.51,2.87-2,3.82-.07s-1.24,2.19-2.44,2.72Q389,200.14,362.64,211.65C361.39,212.19,359.87,213.93,358.29,211.07Z"></path><path d="M414,198.38a19.1,19.1,0,0,1-2.62,2c-3.31,1.55-6.66,3-10,4.49L363,222a6.39,6.39,0,0,1-.78.4c-1.05.32-2.4,1.31-2.93-.3-.19-.57.93-2,1.75-2.4q11.08-5.3,22.28-10.31c8.53-3.83,17.11-7.56,25.68-11.3a9.26,9.26,0,0,1,2.89-.91C412.39,197.12,413,197.77,414,198.38Z"></path><path d="M363.1,228.29a10.88,10.88,0,0,1,2.11-1.7q14.66-6.15,29.35-12.17c.22-.09.68.42,1.31.85-.55.7-.9,1.61-1.53,1.87q-14.83,6.26-29.75,12.3C364.35,229.54,363.78,228.83,363.1,228.29Z"></path><path d="M405.91,212c-2.07.95-3.81,1.82-5.61,2.52-.39.15-1.11-.21-1.5-.54a1.25,1.25,0,0,1-.13-1.17,25.78,25.78,0,0,1,3.22-2.05C403.08,210.15,404.32,209.73,405.91,212Z"></path><path d="M92,83.34a7.87,7.87,0,0,1-1.95.89c-11.91.54-23.83,1-36.57,1.58.78-1.19,1.09-2.17,1.73-2.49a7.56,7.56,0,0,1,3-.5Q73,82.07,87.89,81.4C89.79,81.32,89.79,81.45,92,83.34Z"></path><path d="M54.37,92.42c.53-.41,1-1.06,1.6-1.18,4.07-.85,25.72-.53,28.74.53-.87.76-1.43,1.67-2.14,1.81a26.31,26.31,0,0,1-4.36.14c-6.26.12-12.52.29-18.78.35a45.32,45.32,0,0,1-4.9-.46Z"></path><path d="M54.82,101.34c.56-.38,1.1-1.06,1.66-1.08Q66.74,100,77,99.91c.42,0,.84.63,1.78,1.39-1.26.56-2.07,1.22-2.88,1.22-7,0-14,1.21-20.95.13Z"></path><path d="M676.34,67.82c-1.73.39-3.05.81-4.39,1-10,1.15-20.05,2.27-30.08,3.3-.65.07-1.38-.64-2.07-1a6.77,6.77,0,0,1,1.39-1.92,5,5,0,0,1,2.13-.36c9.45-1,18.9-2.12,28.36-3.09C673.14,65.58,675,64.82,676.34,67.82Z"></path><path d="M639,78.92a26,26,0,0,1,3.87-.89c8.3-.54,16.6-1,24.91-1.48a4.13,4.13,0,0,1,1.72,0c.58.25,1.36.81,1.42,1.31s-.62,1.19-1.15,1.52a3.92,3.92,0,0,1-1.71.2L642.7,81.14C641.41,81.22,640.05,81.45,639,78.92Z"></path><path d="M640.5,88.86c0-2,1.2-2.17,2.38-2.22q9.86-.42,19.73-.76c.56,0,1.46,0,1.62.34a3.1,3.1,0,0,1,.22,2.12c-.09.3-1,.48-1.58.5q-10.74.28-21.47.49C641.14,89.33,640.88,89.07,640.5,88.86Z"></path><path d="M242.7,48.9a13.56,13.56,0,0,1-3.22,1.27q-14.64,1.41-29.3,2.61a10.56,10.56,0,0,1-3-.68c.39-2.38,1.85-2.17,3.12-2.32C235.08,46.92,239.49,46.74,242.7,48.9Z"></path><path d="M207.92,59.09c-.46-2.39,1.26-2.28,2.67-2.4,6.38-.55,12.76-1.09,19.15-1.57,2.47-.19,4.95-.26,7.42-.27,1.22,0,2.43.26,4.52.49-1.13,1.23-1.59,2.2-2.13,2.24-10.16.74-20.33,1.37-30.5,2C208.68,59.6,208.29,59.25,207.92,59.09Z"></path><path d="M211.12,65.56c3.35-2,6.79-2.31,11.1-1.07-.86.8-1.4,1.7-2.11,1.89C215.69,67.54,213.17,67.31,211.12,65.56Z"></path><path d="M733.46,214.53a9.62,9.62,0,0,1-2.76.41c-8.57-1.25-17.31-1.13-25.85-2.61-.05-.3-.09-.6-.13-.9.64-.36,1.31-1.07,1.92-1,8.58.66,17.15,1.42,25.72,2.22.45,0,.86.64,1.29,1Z"></path><path d="M733.53,219.26c-.4.55-.65,1.16-.86,1.15q-12.6-.6-25.19-1.35c-.61,0-1.19-.58-2.23-1.11.93-.59,1.49-1.25,2-1.22,8.26.5,16.52,1.08,24.78,1.69C732.51,218.46,732.94,218.92,733.53,219.26Z"></path><path d="M721.75,224c3.32.08,6.14-.22,8.74,1.64C727.48,227.57,723,226.89,721.75,224Z"></path><path d="M176.6,210.87c9.79-1.67,18.9-2,28-2.74.53,0,1.11.65,1.94,1.17-.71.56-1.12,1.14-1.56,1.18q-13.44,1.1-26.9,2C177.8,212.53,177.52,211.94,176.6,210.87Z"></path><path d="M205.3,216.62l-27.41,1.93-.41-1.06c.65-.49,1.26-1.36,1.94-1.42,7.68-.66,15.37-1.2,23.06-1.74C203.65,214.25,204.83,214.28,205.3,216.62Z"></path><path d="M189.93,222.5c-3.25,2.59-6.14,2.21-9.15,1.88C182.13,221.85,183.93,221.44,189.93,222.5Z"></path><path d="M873.54,88.38a10.77,10.77,0,0,1-2.33,1.07q-12.9.7-25.8,1.3c-.31,0-.65-.43-1.33-.91a7.77,7.77,0,0,1,1.9-1.07C850.38,87.87,869.48,87.46,873.54,88.38Z"></path><path d="M868.56,94.56c-4.75,1.94-19.19,2.28-23.14.83,4.08-1.79,8-.92,11.73-1.22S864.79,93.5,868.56,94.56Z"></path><path d="M852.69,100.15c-2.39.52-4.75,1.69-7.37.44C847.56,98.61,849.4,98.45,852.69,100.15Z"></path><path d="M782.62,25.88c.36-.39.68-1.08,1.08-1.13q12-1.35,24-2.53c.41,0,.88.51,2.25,1.37-9.56,2.09-18.31,2.43-27,3.32Z"></path><path d="M781.72,32.54c4.72-1.92,20-2.71,24-1.33-2.44,1.88-5.13,1.09-7.51,1.42a55.76,55.76,0,0,1-8.27.42C787.43,33,784.87,34.28,781.72,32.54Z"></path><path d="M783.18,38.64c.28-.32.53-.87.8-.88q7.57-.36,15.16-.58a7.11,7.11,0,0,1,2.05.69C798.28,39.59,785.77,40,783.18,38.64Z"></path></svg>