<svg xmlns="http://www.w3.org/2000/svg" id="Layer_1" data-name="Layer 1" viewBox="0 0 570 380"><defs><style>.cls-1{fill:#0a0908;}.cls-2{fill:#d9ca7a;}.cls-3{fill:#f0a79e;}.cls-4{fill:#c7def9;}</style></defs><path class="cls-1" d="M0,126.84c7.41-2.68,14.56-5.68,22.75-6.06a5.43,5.43,0,0,0-3.38-2.72,44.26,44.26,0,0,0-14.83-4.12,16.73,16.73,0,0,1-2.24-.29c-1-.19-1.71-.71-1.33-1.82A1.7,1.7,0,0,1,3,110.71a58,58,0,0,1,28.45,10,6.75,6.75,0,0,0,2,1c6.62,1.8,11.54,6.06,15.86,11.08a77.48,77.48,0,0,1,9.83,14.29c4.36,8.23,8.61,16.51,12.55,25a153.29,153.29,0,0,0,7.91,14.59c4.73,7.82,11.24,13.85,18.75,18.89.59.4,1.14,1,2,.89a1,1,0,0,0,.16-1.37c-3.94-5.94-6.14-12.63-8.34-19.32C86.37,167.91,78.44,151.15,67.32,136a100.46,100.46,0,0,0-19.51-20.42A55,55,0,0,0,19,104.31a95,95,0,0,0-11.69-.58,6.82,6.82,0,0,1-3.29-.3c.12-.77.64-.8,1.09-.84,22.58-1.67,41.12,6.23,55.9,23.36,14.18,16.44,24.18,35.17,31.21,55.6,1.63,4.75,3.35,9.48,5.06,14.21a60.46,60.46,0,0,0,3.3,6.77c3.08,6.11,8,9.49,15.11,10.34-.12-2.21-.3-4.41-.36-6.62-.26-9.91,1.64-19.25,7.18-27.68a28.15,28.15,0,0,1,13.36-11.24,26.22,26.22,0,0,0,4-2.16,47.08,47.08,0,0,1,9.19-4.34,6.62,6.62,0,0,1,5.13-.1,5.28,5.28,0,0,0,1.81.44c6.68.52,12.56,3.25,18.44,6.26,10.4,5.31,15.4,14,16.79,25.22.07.5.11,1,.23,2.14,3.42-2,6.7-3.78,9.79-5.81,7.49-4.91,15.14-9.58,23.7-12.31,19-6.07,38.39-7.42,57.53-1,21.44,7.22,34.95,22.62,41.91,43.86,3.11,9.48,4.32,19.32,4.79,29.3s.19,20.16.73,30.23a70,70,0,0,0,2.39,14.48,3.29,3.29,0,0,0,3,2.81,8.85,8.85,0,0,1,5.15,2.19c3.64,3.61,7.63,6.92,10.5,11.23a4.9,4.9,0,0,0,8.29.34c4.38-5.56,6.72-12,8.31-18.82,2.23-9.55,1.31-19-.3-28.52-2.8-16.51-5.6-33.05-7-49.74-1.95-23.54,2.59-45.39,18.53-63.86,4.25-4.91,9-9.27,14.77-12.19,2.38-1.21,3.17-2.82,3.39-5.27.71-7.94,3-15.37,8.46-21.39a111.89,111.89,0,0,0,8.62-10.4c3.86-5.38,9.82-7.62,16-9.17a25.31,25.31,0,0,1,12.35.12c10,2.46,19,6.72,25.35,15.22a3,3,0,0,0,1.8,1.22c18.63,4.43,29.93,16.79,36.12,34.22,1.77,5,4,9.27,7.92,12.88,4.28,3.91,7.49,8.82,11,13.39,3,3.9,6.29,7.56,10.58,10.15a22.51,22.51,0,0,0,11,3.63c1.9.06,3.37-.22,4.45-2a15.78,15.78,0,0,1,3.49-3.43c2.93-2.51,6.59-2.11,10-2.6.64-.1,1,.54,1.42,1.07.86,1.17,1.7,2.41,3.47,2.29.53,0,.87.45.92,1a1.14,1.14,0,0,1-.78,1.16,20.91,20.91,0,0,1-2.93.73,12.49,12.49,0,0,0-5.4,2.58c-.67.53-1.57,1.08-1,2.14.48.89,1.3.4,2,.25l3.37-.7c.33,1-.16,1.25-.59,1.42a9.73,9.73,0,0,1-2.18.57,37.89,37.89,0,0,0-13.35,4.8c-4,2.29-8.29,4.13-12.37,6.37-9.19,5-18.91,6.67-29,2.5a33.93,33.93,0,0,1-9.5-6.06,103.93,103.93,0,0,1-16.59-19.06c-2.45-3.51-4.87-7-7.4-10.5a5.91,5.91,0,0,0-8.81-.77,19.45,19.45,0,0,0-2.42,2.38c-4.23,5.58-9.95,8.81-16.63,10.39a6.76,6.76,0,0,0-4.35,3.22c-4.5,6.85-6.81,14.53-8.63,22.39a244.18,244.18,0,0,0-4.71,30.9c-1.92,19-5,37.82-10.93,56.08-8.94,27.41-26.45,47.67-51.06,62.13a116.51,116.51,0,0,1-23.21,10.78,10.44,10.44,0,0,0-4,2.75c-4.49,4.33-9.44,7.88-15.68,9.37-8.18,2-15.25,0-21.19-5.83a12.9,12.9,0,0,0-6.1-3.34c-10.38-2.68-19.91-7.19-27.93-14.38a48.21,48.21,0,0,1-16.23-30.65c-1.44-11.21.32-22.06,2.75-32.89a12.87,12.87,0,0,0,.56-3c-.16-9.31.55-18.65-.77-27.93-.21-1.49-.5-3-.85-4.44-2.56-10.53-9.83-16.51-21.36-17.65A34.09,34.09,0,0,0,214.41,237a185.92,185.92,0,0,0-28.06,17c-8.2,5.84-16.3,11.83-24.88,17.13-12.81,7.93-26.23,14.4-41.1,17.42-3.57.73-7.2,1.21-10.8,1.75-1.22.19-2.29.3-1.66,2a1.27,1.27,0,0,1-1,1.71,1.39,1.39,0,0,1-1.63-1.24c-.31-2.19-1.75-1.92-3.35-1.89-9.5.19-18.83-.68-27.84-4a49.77,49.77,0,0,1-26.54-22.43c-6.4-11-10-23-12-35.5-1.7-10.58-2-21.27-2.44-32-.61-14.32-1.4-28.64-5.1-42.6-2.34-8.79-6.09-16.77-13.08-22.92a19.28,19.28,0,0,0-5-3.39c-1.46-.63-2.92-1.39-4.65-.4S2,126.11,0,126.84Zm210.55,110a3.3,3.3,0,0,0-2.58.73c-.6.14-1.23.22-1.82.41-9.88,3.15-19,7.94-28.09,12.84-9.64,5.2-19.3,10.35-29.53,14.31-13.29,5.15-26.89,8.43-41.31,6.6-19.4-2.48-33.51-12.2-41.59-30.23-4.3-9.63-6.62-19.79-8.12-30.16a9.25,9.25,0,0,0-1.64-4.52c-6.93-9.18-11.4-19.56-14.28-30.6-3.64-14-7.42-28-9.79-42.27A21.35,21.35,0,0,0,28,125a3.32,3.32,0,0,0-3.09-1.69,57.43,57.43,0,0,0-14.48,2.52c-.2.8.16,1,.47,1.17,5.71,3.13,9.78,7.86,13,13.37a60.22,60.22,0,0,1,6.35,17.29c3.14,13.81,3.77,27.9,4.37,42,.36,8.56.63,17.11,1.77,25.6,1.63,12.29,4.81,24.13,10.53,35.21A52.27,52.27,0,0,0,60,277.26c10.85,8.87,23.57,12,37.26,12.24,1,0,1.53-.58,2.28-.94,2.37-1.14,4.61-2.05,2.77-5.34-.34-.61.3-1.2.92-1.42a1.2,1.2,0,0,1,1.32.5,2.73,2.73,0,0,1,.5,1c.44,2,1.11,3.11,3.56,2.06,1.56-.67,1.92.09,1.27,2.36a4.77,4.77,0,0,0-.7.18c-.39.18-1,.19-.87.82,0,.15.66.23,1,.2a8.79,8.79,0,0,0,1.4-.31,96,96,0,0,0,29-7.62c12.57-5.32,24-12.59,35.08-20.49s22-16,34-22.38l2-.9,1.89-.94C211.74,236.11,211.08,236.16,210.55,236.79Zm169.88,86.56a1,1,0,0,0-.3.51,2.74,2.74,0,0,0-1.12,2.67c.94-.92,1.84-1.15,2.18-2,10.88-8.59,17.74-19.72,21.14-33.1,3.09-12.19,2.48-24.49,1.15-36.8s-3-24.75-3.57-37.22c-.78-15.92,1-31.43,7-46.28a3.23,3.23,0,0,0-.92-4.2c-6.51-6.28-9.27-14.2-9.75-23.06,0-.91.21-1.93-.6-3.07a75.56,75.56,0,0,0-9.14,16.69c-9.26,23.48-10.18,47.56-4.9,72,3,13.9,6.09,27.79,7.47,42,.9,9.29,1.35,18.6-.34,27.87a87.43,87.43,0,0,1-7.82,23.16C380.43,322.55,380.35,322.9,380.43,323.35Zm-12.83-150a7.43,7.43,0,0,0-1.36,3.48,90.75,90.75,0,0,0-3.65,30.23c.68,16.26,3.66,32.26,6.12,48.31,1.28,8.34,3,16.63,2.74,25.12-.3,9.85-2.45,19.2-7.6,27.72-.28.46-1,.92-.27,1.68a28.73,28.73,0,0,0,10.8-14.18,46.45,46.45,0,0,0,2.94-20.4c-1.05-12.15-2.73-24.24-4.86-36.25-2.28-12.88-4-25.85-5.49-38.83-.86-7.27-.39-14.6-.08-21.9,1.12-1.55.43-3.37.72-5l.11-.56.2.17C367.82,173.05,367.71,173.19,367.6,173.34Zm-153.79,9.84c-1.11.47-2.36.74-3.19,2.35,1.87-.72,3.51-.85,4.91-1.76.19-.42.36-1-.21-1.08S214.32,183,213.81,183.18Zm-93.1,16.43c1.55-2.73.54-5.89,1.17-7.34-.26,1.52-1.31,4.33-1.32,7.34a54.36,54.36,0,0,0,0,13,24.83,24.83,0,0,0,3.23,11.29c-1.74-3.58-1.76-7.62-3.17-11.3A62.67,62.67,0,0,0,120.71,199.61ZM158,232.77c7.15-.52,12.1-4.38,15.64-10.36-5,3.69-10.29,6.88-15.61,10.06l-1.51.9A1,1,0,0,0,158,232.77Zm162.23,67.9a17,17,0,0,0-4.19,1.78,49.06,49.06,0,0,0,8-1.43,42.61,42.61,0,0,1,16.45.53,9.77,9.77,0,0,0-8.22-3.47A35.45,35.45,0,0,0,320.2,300.67ZM178.39,174.61c4.68,6.45,6.11,14,7.22,22a22.71,22.71,0,0,0,.63-3.29c.16-7.37.26-14.73-7-19.42a9.58,9.58,0,0,0-5.07-3.23Zm185.67,164a28.6,28.6,0,0,1-4.8,2c-5.14,1.17-8,4.43-9.16,9.38,0,.12-.05.24-.07.37a14.09,14.09,0,0,0-2.77,4.86c-.83,1.31-2.11,2.38-2.48,4.07a3.65,3.65,0,0,0,2.64-.5,128.17,128.17,0,0,0,18.92-9.31c24.27-14.29,41.45-34.39,50.22-61.37,5.15-15.85,8.14-32.13,10-48.65,1.14-10,1.9-20,3.81-29.91,2.07-10.75,4.34-21.46,10.42-30.88.11-.17,0-.47,0-1.15-11.15,2.1-21.36-.41-30.53-6.76a8.26,8.26,0,0,0-1.86,3.62c-5.62,15.15-6.92,30.84-5.77,46.84.92,12.82,2.8,25.53,3.88,38.33.8,9.42,1,18.87-.73,28.24-3.48,18.72-13.48,33.09-29.27,43.53a20.69,20.69,0,0,0-5,4.49,71.56,71.56,0,0,1-21.76,18.42c-.69-.37-.66-.88-.3-1.46.5-.8,1-1.61,1.48-2.41a55,55,0,0,0,13.66-10.82,2.7,2.7,0,0,0,1.6-1.8A2.13,2.13,0,0,0,364.06,338.57ZM303,307.46c-9.78,7.2-14.57,22.32-10.35,33.87,0-1.92,0-3.28,0-4.63a61.91,61.91,0,0,1,1.73-13.83c1.31-5.9,4.86-10.41,9.06-14.51a6.15,6.15,0,0,0,2.63-2.71A5.7,5.7,0,0,0,303,307.46ZM188.51,192.79A87.51,87.51,0,0,1,176,223.85c10.18-6.73,14-21.76,13-31.06a7.26,7.26,0,0,0-.42-3.79ZM300.18,361.65c-.22-.37-.43-.74-.65-1.1l.72,1c7.72,13.54,23.7,13,31.17,6.24-11.2,2.34-21.73,1.58-30.87-6.16C300.47,361.6,300.3,361.66,300.18,361.65Zm210.2-204.34a174.06,174.06,0,0,0,4.06,17.61c.37,1.29.71,2.62,2.08,3.44a64.06,64.06,0,0,0,27.09,8.47c1.75.17,2.65-.69,3-2.36-10.33-1.9-15.39-4.72-21.66-12.11-1.87-2.2-3.6-4.53-5.39-6.8a90,90,0,0,0-8.57-10c-.12-.49-.47-.93-.9-.91-.73,0-.4.71-.39,1.11A2,2,0,0,0,510.38,157.31Zm19.84,40a7.61,7.61,0,0,0,4.32-2.13c-5.31,1.56-10.64,1.36-16,.76a30.3,30.3,0,0,1-15.33-9.78c-2.14-2.47-4.34-4.89-6.55-7.3-4.75-5.21-9.66-10.26-16-13.55-.78-.4-1.5-1.3-2.73-.71,2.42,3.48,4.76,6.9,7.16,10.28a97,97,0,0,0,14.71,16.64C508.76,199.51,518.9,201.57,530.22,197.32ZM56,201.31c-.06-1.38,0-2.77-.19-4.14-1.21-11-2.84-22-5.13-32.81a127,127,0,0,0-9.81-28.46,29.14,29.14,0,0,0-9.62-11.51,34.27,34.27,0,0,1,3.35,9.53c1.93,13,5.57,25.54,8.67,38.24,2.52,10.32,6.19,20.19,12.07,29.13,0,.66.43.94.89.77S56.4,201.46,56,201.31ZM331.51,295.8a74.89,74.89,0,0,1-3.13-19.38c-.35-10.19-.09-20.39-.75-30.59-.65-9.84-2.07-19.54-5.54-28.77-7.52-20-21-34.15-41.7-40.59a83.31,83.31,0,0,0-39.23-2.21c-7.45,1.28-14.81,2.84-21.72,6.07-.9.42-1.79.89-2.65,1.4a.76.76,0,0,0-.27,1,.79.79,0,0,0,.84.55,25.38,25.38,0,0,0,2.61-.44,75.07,75.07,0,0,1,20.24-2.08c19.9,1,34.75,10.25,43.68,28.14,5.09,10.19,5.95,21.23,4.61,32.45-1.16,9.72-4.48,18.81-8.24,27.76-3,7.08-6.29,14-8.5,21.38a32.27,32.27,0,0,0,14,36.73c1,.63,2,1.53,3.49,1.32.11-.5.23-1,.32-1.43s.21-1.25.33-1.86c1.85-10.08,7.4-17.47,16.3-22.43a56.34,56.34,0,0,1,7.16-3.37A61.62,61.62,0,0,1,331.51,295.8Zm-271-82.39c1.93,11.59,4.71,22.89,10.76,33.12a44.56,44.56,0,0,0,24.39,19.81,57.88,57.88,0,0,0,18.15,3.18c13,.25,25.13-3.24,37-8.17,10.94-4.55,21.24-10.37,31.7-15.89a136,136,0,0,1,27.1-11.31,134.78,134.78,0,0,1,18.92-3.45c4.88-.63,9.7-1.35,14.65-.78a21.33,21.33,0,0,1,19.29,19.91c.5,6.6-.55,13.06-1.88,19.47-1.21,5.79-2.63,11.53-1.79,17.53.35,2.5.45,5,.88,7.51.77,4.47,1.32,9,3.41,13.9a120.86,120.86,0,0,1,4.11-14.78c5.13-13.69,6.64-27.89,5.84-42.36-1-18.62-9.82-32-27.58-38.67-16.77-6.33-33.1-4.75-48.88,3.5-4.9,2.56-9.78,5.19-14.51,8.07-1.55.95-3.41.42-4.72,1.54-2.91,2.46-6.36,4.09-9.4,6.3-7.67,5.57-16.24,7.11-25.43,6.33a33.38,33.38,0,0,0-4.9,0,124.38,124.38,0,0,1-33.84-2.05C88,232.7,73.88,226.23,62.52,214.52,62,214,61.63,213.24,60.48,213.41Zm347.28-76.06c0,3.27-.07,6.54,0,9.81a11.17,11.17,0,0,0,1.24,5.08c8.61,16,29.45,19.66,42.16,12,9.24-5.54,14.25-14.2,17.76-24,2.71-7.57,1.73-14.78-1.27-22-2.81-6.74-7.79-11.64-13.23-16.19-5.62-4.72-12.32-5.74-19.16-4.51-8.89,1.61-16.19,6.61-22.93,12.44a8.28,8.28,0,0,0-2.44,4.57A79.62,79.62,0,0,0,407.76,137.35ZM123,207a36.77,36.77,0,0,0,2.18,14.28c4,10.33,16.06,15.88,26.36,11.77a69.25,69.25,0,0,0,21.63-13.59c4.76-4.42,8.59-9.61,9.63-16.28A39.32,39.32,0,0,0,179.24,180a21.06,21.06,0,0,0-10.8-10.13,35.93,35.93,0,0,0-10.82-3.19c-7-.8-13.82-.49-19.78,4.11-2.39,1.84-4.82,3.62-7.07,5.66a14.74,14.74,0,0,0-4.39,6.9A78,78,0,0,0,123,207ZM350.85,332.07c-.05-7.78-1.92-15.15-4.64-22.4a9.37,9.37,0,0,0-7.66-6.31c-10.55-2.05-20.47-.08-30,4.52a18.32,18.32,0,0,0-8.71,9.06A55.6,55.6,0,0,0,295,333.51c-.94,7.12-.39,14,2.9,20.6,3.43,6.86,8.77,10.46,16.61,10.06A59.82,59.82,0,0,0,324.2,363c7.08-1.52,13.76-3.92,19.56-8.44a7.55,7.55,0,0,0,2.42-2.79A46.36,46.36,0,0,0,350.85,332.07ZM255.9,290c-4.14,19.26-4.78,37.27,8,53.27,7.67,9.6,26.56,20.49,34.13,19.67-.75-2.94-2.64-4.5-5.56-5.42a51.31,51.31,0,0,1-9.88-4.62c-10.85-6.19-17.59-15.57-19.38-27.77a145.2,145.2,0,0,0-4.63-22.32c-.41-1.31-.48-2.73-.86-4.05C256.94,296.07,257.29,293.2,255.9,290ZM511.5,174.54c-1.94-8.19-3.7-15.6-5.43-23a4.46,4.46,0,0,0-1.71-2.4,77.47,77.47,0,0,0-15-10.75,50.13,50.13,0,0,0-12.63-5,30.72,30.72,0,0,1-.29,3.54,3.84,3.84,0,0,0,2,4.67,40.07,40.07,0,0,1,5.33,4.19c7.56,6.35,13.75,14,20.13,21.45A46.33,46.33,0,0,0,511.5,174.54Zm-39-63.17a37.48,37.48,0,0,1,4.07,15.89c0,2.43,1,3.5,3.23,4.2A65.06,65.06,0,0,1,501.17,143c.72.57,1.3,1.47,2.43,1.42C501,129.94,484.5,112.44,472.46,111.37Zm-207,209.44c.33,14.47,11.16,29.67,28.94,34.13-.44-4.25-2.9-7.76-4-11.74-.21-.76-1.06-1-1.74-1.32A54.89,54.89,0,0,1,265.5,320.81ZM402.9,119.92a12.79,12.79,0,0,0-2.07,4.91,82.24,82.24,0,0,0-2,13.79c-1.29,17.25,8.37,31.09,24.95,35.77a4.37,4.37,0,0,0,2.4.17c-.26-.32-.32-.46-.41-.5-10.16-4.07-17.49-10.73-20-21.8a7.62,7.62,0,0,0-.57-1.4,47,47,0,0,1-3.75-17.21A46,46,0,0,1,402.9,119.92Zm-164.48,112c1.13.41,2.28.79,3.4,1.25a23.23,23.23,0,0,1,13.77,14.11,40.34,40.34,0,0,1,2.32,11c.25,3.55.46,7.1.69,10.66a59.6,59.6,0,0,0,2.48-17C261.47,237.57,248.37,229.78,238.42,231.87Zm176.29-68.29c6.58,6.59,14.16,10.47,23.84,9,5.26-.8,10.16-2.64,15.11-4.52,9-3.43,12.47-10.94,15-19.25C455,174.88,430.91,174.94,414.71,163.58Zm102.11,16.68c3.7,9.5,12.67,14.16,22,11.72a6.65,6.65,0,0,0,4.71-3.67A72.15,72.15,0,0,1,516.82,180.26ZM317.39,366.46c11.88,1.05,20.17-1.67,23.87-7.76C333.78,363.18,325.63,364.86,317.39,366.46Zm100.88-267c1.61.32,2.79-.7,4.12-1.26,6.41-2.66,12.83-5.2,20-3.6.31.07,1,.33,1-.66C434,91.17,425.75,93.67,418.27,99.49ZM350,313.26c.42,3.52,1.46,6.83,2,10.29.5,3.29.44,6.59.8,10.44C354,326.37,352.62,319.68,350,313.26ZM118.52,213.68c-1.51-7.33,0-14.56.7-21.81C117.2,199.08,116.52,206.33,118.52,213.68Zm444.77-37.2c-4.56-.51-7.41,1.19-10.34,4.44C557,180.15,560.23,179.35,563.29,176.48ZM454.88,98.58c3.67,3.3,7.25,6.71,10.83,10.13C463.26,104.06,459.25,101.12,454.88,98.58Zm-49.27,23.81a23.36,23.36,0,0,0-1.16,13.31C404.82,131.47,405.19,127.24,405.61,122.39ZM549.07,186.8c3,.25,4.93-1.3,7.14-3.88C553.3,184.1,550.06,183,549.07,186.8Zm-193.27,127a3.27,3.27,0,0,0-3.2-.08c.48.73.24,1.68,1.12,2.4C354.52,315.53,355.54,315.13,355.8,313.82ZM117.14,217.26c-1.7-1.49-1.7-1.49-3.72-1.5C114.48,216.45,115.28,217.42,117.14,217.26ZM471,160.31c-.12-.92-.36-1.73-1.52-1.49-.51.1-1,.7-.75,1.1C469.27,160.85,470.18,160.53,471,160.31Zm88.38,24.87.25-.27a1.86,1.86,0,0,0-.5-.22c-.06,0-.16.14-.24.22Z"></path><path class="cls-1" d="M465,260.74a6,6,0,0,1,6,6,6.1,6.1,0,0,1-6.09,6,5.94,5.94,0,0,1-5.88-6.09A5.85,5.85,0,0,1,465,260.74Zm.17,2.61a3.65,3.65,0,0,0-3.63,3.13,3.46,3.46,0,0,0,3.15,3.55,3.26,3.26,0,0,0,3.55-3.07A3.36,3.36,0,0,0,465.12,263.35Z"></path><path class="cls-1" d="M373.39,89.79a5.55,5.55,0,0,1,5.75,5.7,5.86,5.86,0,0,1-5.76,5.79,6.05,6.05,0,0,1-5.65-5.6A5.83,5.83,0,0,1,373.39,89.79Zm.08,8.61a2.92,2.92,0,1,0,0-5.83,2.92,2.92,0,1,0,0,5.83Z"></path><path class="cls-1" d="M111.47,9.45c.79-1.23,1.5-2.41,2.28-3.53a1,1,0,0,1,1.35-.29,1.16,1.16,0,0,1,.63,1.25A3.74,3.74,0,0,1,115.45,8c-.43,1.15-1.68,2.11-1.27,3.42s1.92,1.52,2.82,2.37c.55.52,1.23,1.06.74,1.9-.59,1-1.45.73-2.26.23a5.91,5.91,0,0,1-.93-.64c-1.46-1.26-2.62-1.37-3.35.74a4.24,4.24,0,0,1-.81,1.26c-.41.5-.92.88-1.62.51a1.14,1.14,0,0,1-.56-1.6c2-2.8,1.67-4.91-1.56-6.44a1.08,1.08,0,0,1-.43-1.62,1.43,1.43,0,0,1,2-.37C109.24,8.19,110,9.17,111.47,9.45Z"></path><path class="cls-1" d="M505.23,111.83a4.16,4.16,0,0,1,4.28,3.89,4.36,4.36,0,0,1-4.18,4.46,4.2,4.2,0,0,1-4.23-4.35A4,4,0,0,1,505.23,111.83Zm1.5,4.32a1.48,1.48,0,1,0-3-.23,1.49,1.49,0,0,0,3,.23Z"></path><path class="cls-1" d="M204.34,362.45a3.32,3.32,0,0,1-3.26,3.4,3.73,3.73,0,0,1-3.46-3.73,3.92,3.92,0,0,1,3.42-3.44A3.44,3.44,0,0,1,204.34,362.45Z"></path><path class="cls-1" d="M68.79,118.87a3.06,3.06,0,0,1-3.27-3,3.43,3.43,0,0,1,3.52-3.6,3.2,3.2,0,0,1,3.08,3.19A3.3,3.3,0,0,1,68.79,118.87Z"></path><path class="cls-1" d="M485.75,23.79A3.33,3.33,0,0,1,482.7,27a3.27,3.27,0,0,1-.32-6.53A3.34,3.34,0,0,1,485.75,23.79Z"></path><path class="cls-2" d="M407.76,137.35a79.62,79.62,0,0,1,2.15-22.81,8.28,8.28,0,0,1,2.44-4.57c6.74-5.83,14-10.83,22.93-12.44,6.84-1.23,13.54-.21,19.16,4.51,5.44,4.55,10.42,9.45,13.23,16.19,3,7.23,4,14.44,1.27,22-3.51,9.84-8.52,18.5-17.76,24-12.71,7.62-33.55,3.94-42.16-12a11.17,11.17,0,0,1-1.24-5.08C407.69,143.89,407.76,140.62,407.76,137.35ZM447,147.52c.26,1.74.45,3.11.66,4.47.13.92.46,1.76,1.51,1.88s1.61-.57,2-1.39.77-1.58,1.13-2.38a23.64,23.64,0,0,1,5.06-7.45c4.28-4.16,5.15-9.37,4.63-14.94-.27-2.79-1.7-5.35-4.7-5.63-2.47-.23-3.37-1.46-4.29-3.37-2.37-4.92-6.25-7.24-11.85-6.87a36.25,36.25,0,0,0-18.21,6.56,12.06,12.06,0,0,0-5.63,10.82c0,8,1.95,15.72,2.41,23.63a3.1,3.1,0,0,0,.13.74,1.79,1.79,0,0,0,1.19,1.34,1.62,1.62,0,0,0,1.9-.88c.8-1.42,1.49-2.91,2.3-4.32.67-1.19,1.18-2.52,2.45-3.28.83-.5,1.55-.77,2.18.33,2.58,4.56,6.59,4.45,10.85,3.16C442.73,149.32,444.66,148.42,447,147.52Z"></path><path class="cls-3" d="M123,207a78,78,0,0,1,3.35-23.63,14.74,14.74,0,0,1,4.39-6.9c2.25-2,4.68-3.82,7.07-5.66,6-4.6,12.78-4.91,19.78-4.11a35.93,35.93,0,0,1,10.82,3.19A21.06,21.06,0,0,1,179.24,180a39.32,39.32,0,0,1,3.59,23.16c-1,6.67-4.87,11.86-9.63,16.28A69.25,69.25,0,0,1,151.57,233c-10.3,4.11-22.4-1.44-26.36-11.77A36.77,36.77,0,0,1,123,207Zm53.29-6c-.08-1.13-.11-2.27-.25-3.39-.65-5-.79-10-2.48-14.84-1.15-3.27-2.44-4.19-5.9-4.09-2.64.07-5.27.39-7.89.67-8.25.91-16.51,1.76-24.55,3.93-2.86.77-3.24,1-2.94,3.85.76,7,1.36,14,3.28,20.83,1.16,4.11,2.1,4.75,6.48,4.41,3.88-.3,7.76-.78,11.61-1.38,6.33-1,12.68-1.95,18.74-4.13C176,205.53,176.5,204.66,176.32,201Z"></path><path class="cls-4" d="M350.85,332.07a46.36,46.36,0,0,1-4.67,19.65,7.55,7.55,0,0,1-2.42,2.79C338,359,331.28,361.43,324.2,363a59.82,59.82,0,0,1-9.71,1.22c-7.84.4-13.18-3.2-16.61-10.06-3.29-6.56-3.84-13.48-2.9-20.6a55.6,55.6,0,0,1,4.85-16.57,18.32,18.32,0,0,1,8.71-9.06c9.54-4.6,19.46-6.57,30-4.52a9.37,9.37,0,0,1,7.66,6.31C348.93,316.92,350.8,324.29,350.85,332.07Zm-43.51,14.47a27.07,27.07,0,0,0,0,3.43c.2,1.43-.46,3.53,1.16,4.07,2,.69,2.53-1.64,3.33-2.89,1.18-1.82,2.37-2.27,4.64-1.93a37.22,37.22,0,0,0,20.31-2.74c4.22-1.77,6.73-4.91,6.84-9.53a33.19,33.19,0,0,0-4-17.44,8.69,8.69,0,0,0-6.25-4.39c-2.94-.61-5.78-.13-8.62.34-5.81,1-11.18,3-15.59,7.07s-6.25,11.72-3.48,16.61C307.17,341.7,307.94,344.11,307.34,346.54Z"></path><path class="cls-2" d="M402.9,119.92a46,46,0,0,0-1.44,13.73,47,47,0,0,0,3.75,17.21,7.62,7.62,0,0,1,.57,1.4c2.54,11.07,9.87,17.73,20,21.8.09,0,.15.18.41.5a4.37,4.37,0,0,1-2.4-.17c-16.58-4.68-26.24-18.52-24.95-35.77a82.24,82.24,0,0,1,2-13.79A12.79,12.79,0,0,1,402.9,119.92Z"></path><path class="cls-2" d="M414.71,163.58c16.2,11.36,40.33,11.3,54-14.76-2.55,8.31-6,15.82-15,19.25-5,1.88-9.85,3.72-15.11,4.52C428.87,174.05,421.29,170.17,414.71,163.58Z"></path><path class="cls-4" d="M300.18,361.66c.12,0,.29-.06.37,0,9.14,7.74,19.67,8.5,30.87,6.16-7.47,6.74-23.45,7.3-31.17-6.24Z"></path><path class="cls-3" d="M188.93,192.79c1.08,9.3-2.77,24.33-13,31.06a87.51,87.51,0,0,0,12.53-31.06l.21,0Z"></path><path class="cls-4" d="M303.42,308.36c-4.2,4.1-7.75,8.61-9.06,14.51a61.91,61.91,0,0,0-1.73,13.83c0,1.35,0,2.71,0,4.63-4.22-11.55.57-26.67,10.34-33.86Z"></path><path class="cls-3" d="M179.22,173.88c7.28,4.69,7.18,12.05,7,19.42a22.71,22.71,0,0,1-.63,3.29c-1.11-8-2.54-15.53-7.22-22Z"></path><path class="cls-4" d="M317.39,366.46c8.24-1.6,16.39-3.28,23.87-7.76C337.56,364.79,329.27,367.51,317.39,366.46Z"></path><path class="cls-2" d="M418.27,99.49c7.48-5.82,15.7-8.32,25.17-5.52-.06,1-.73.73-1,.66-7.18-1.6-13.6.94-20,3.6C421.06,98.79,419.88,99.81,418.27,99.49Z"></path><path class="cls-4" d="M320.2,300.67a35.45,35.45,0,0,1,12.06-2.59,9.77,9.77,0,0,1,8.22,3.47A42.56,42.56,0,0,0,324,301C322.77,300.81,321.43,301.31,320.2,300.67Z"></path><path class="cls-3" d="M158,232.47c5.32-3.18,10.63-6.37,15.61-10.06-3.54,6-8.49,9.84-15.64,10.36Z"></path><path class="cls-4" d="M350,313.26c2.59,6.42,4,13.11,2.78,20.73-.36-3.85-.3-7.15-.8-10.44C351.49,320.09,350.45,316.78,350,313.26Z"></path><path class="cls-3" d="M118.52,213.68c-2-7.35-1.32-14.6.7-21.81C118.53,199.12,117,206.35,118.52,213.68Z"></path><path class="cls-2" d="M454.88,98.58c4.37,2.54,8.38,5.48,10.83,10.13C462.13,105.29,458.55,101.88,454.88,98.58Z"></path><path class="cls-2" d="M405.61,122.39c-.42,4.85-.79,9.08-1.16,13.31A23.36,23.36,0,0,1,405.61,122.39Z"></path><path class="cls-3" d="M120.65,212.6c1.41,3.68,1.43,7.72,3.17,11.3a24.83,24.83,0,0,1-3.23-11.29Z"></path><path class="cls-4" d="M320.2,300.67c1.23.64,2.57.14,3.84.35a49.36,49.36,0,0,1-8,1.43A17,17,0,0,1,320.2,300.67Z"></path><path class="cls-3" d="M120.56,199.61c0-3,1.06-5.82,1.32-7.34-.63,1.45.38,4.61-1.17,7.34Z"></path><path class="cls-3" d="M120.56,199.61h.15a62.67,62.67,0,0,1-.06,13h-.06A54.36,54.36,0,0,1,120.56,199.61Z"></path><path class="cls-1" d="M350,350.34h.91c-.49.8-1,1.61-1.48,2.41-.36.58-.39,1.09.29,1.46a2.47,2.47,0,0,1-2.49,1A14.09,14.09,0,0,1,350,350.34Z"></path><path class="cls-3" d="M179.22,173.88l-.83.73-4.24-4A9.58,9.58,0,0,1,179.22,173.88Z"></path><path class="cls-4" d="M303.42,308.36l-.45-.89a5.72,5.72,0,0,1,3.08-1.82A6.15,6.15,0,0,1,303.42,308.36Z"></path><path class="cls-3" d="M188.93,192.79l-.21,0-.21,0V189A7.26,7.26,0,0,1,188.93,192.79Z"></path><path class="cls-3" d="M158,232.47l0,.3a1,1,0,0,1-1.48.6Z"></path><path class="cls-4" d="M300.25,361.58l-.72-1c.22.36.43.73.65,1.1Z"></path><path class="cls-2" d="M55.3,201.29a.8.8,0,0,1,.66,0c.44.15.56.63.23.75S55.25,202,55.3,201.29Z"></path><path class="cls-1" d="M447,147.52c-2.29.9-4.22,1.8-6.24,2.42-4.26,1.29-8.27,1.4-10.85-3.16-.63-1.1-1.35-.83-2.18-.33-1.27.76-1.78,2.09-2.45,3.28-.81,1.41-1.5,2.9-2.3,4.32a1.62,1.62,0,0,1-1.9.88,1.79,1.79,0,0,1-1.19-1.34,3.1,3.1,0,0,1-.13-.74c-.46-7.91-2.39-15.66-2.41-23.63a12.06,12.06,0,0,1,5.63-10.82,36.25,36.25,0,0,1,18.21-6.56c5.6-.37,9.48,2,11.85,6.87.92,1.91,1.82,3.14,4.29,3.37,3,.28,4.43,2.84,4.7,5.63.52,5.57-.35,10.78-4.63,14.94a23.64,23.64,0,0,0-5.06,7.45c-.36.8-.73,1.6-1.13,2.38s-1,1.51-2,1.39-1.38-1-1.51-1.88C447.4,150.63,447.21,149.26,447,147.52Zm-24.54,1.18c1.66-3.88,5.13-5.11,8.4-6.73,5.3-2.62,10.94-4.5,16.05-7.52,7-4.16,7.8-7,4-14.15-2.73-5.15-5.7-6.68-11.45-5.76a37.2,37.2,0,0,0-14,5.34c-3.9,2.45-5.78,5.69-5.59,10.33C420.09,136.39,421.38,142.43,422.41,148.7Zm33.25-23.89c1.1,4.73-1.42,7.68-4.82,10.16a46.24,46.24,0,0,1-9.26,5.07c-2.54,1.08-5.06,2.23-7.57,3.39-.77.35-1.91.53-1.86,1.58a2.93,2.93,0,0,0,1.69,2.37,5.77,5.77,0,0,0,4,.61,25.68,25.68,0,0,0,6.37-2.3c4.43-2.31,4.44-2.31,6.13,2.2a43.06,43.06,0,0,1,6.13-8.27c2.93-3.35,3.34-7.52,2.8-11.75C459.07,126.11,458.29,124.45,455.66,124.81Z"></path><path class="cls-1" d="M176.32,201c.18,3.7-.31,4.57-3.9,5.86C166.36,209,160,210,153.68,211c-3.85.6-7.73,1.08-11.61,1.38-4.38.34-5.32-.3-6.48-4.41-1.92-6.81-2.52-13.84-3.28-20.83-.3-2.86.08-3.08,2.94-3.85,8-2.17,16.3-3,24.55-3.93,2.62-.28,5.25-.6,7.89-.67,3.46-.1,4.75.82,5.9,4.09,1.69,4.79,1.83,9.87,2.48,14.84C176.21,198.69,176.24,199.83,176.32,201Zm-31.11-7.52c-2.89,5.28-5.55,10.44-6.31,16.93a141.87,141.87,0,0,0,33.34-5.52,38,38,0,0,0-8-9.42c-3.21-2.67-3-2.77-5.85-.2-2.48,2.27-5.23,2.75-8.24.82C148.66,195.12,147.06,194.42,145.21,193.44ZM168.86,181a155.23,155.23,0,0,0-32.27,4c.8,1.73,2.16,2.24,3.3,2.91,3.45,2,7,4,10.48,5.93s4.35,1.89,7.38-.78A69.48,69.48,0,0,0,168.86,181Zm-6.3,10.56c4.71,3.09,7.87,7.3,11.56,11.15-.5-6.83-.43-13.6-2.88-20.47Zm-28.42-4.73c1.15,6.69,1.48,12.65,3,19.14,2.17-4.55,3.45-8.76,5.71-12.5.51-.86.09-1.38-.64-1.82Z"></path><path class="cls-1" d="M307.34,346.54c.6-2.43-.17-4.84-1.62-7.4-2.77-4.89-1-12.47,3.48-16.61s9.78-6.11,15.59-7.07c2.84-.47,5.68-.95,8.62-.34a8.69,8.69,0,0,1,6.25,4.39,33.19,33.19,0,0,1,4,17.44c-.11,4.62-2.62,7.76-6.84,9.53a37.22,37.22,0,0,1-20.31,2.74c-2.27-.34-3.46.11-4.64,1.93-.8,1.25-1.3,3.58-3.33,2.89-1.62-.54-1-2.64-1.16-4.07A27.07,27.07,0,0,1,307.34,346.54Zm2.67,4.21c1.55-4.67,4.69-3.74,7.86-3.35a35.11,35.11,0,0,0,18.73-3,7.91,7.91,0,0,0,5.07-7.36,32.52,32.52,0,0,0-3.47-16,7.18,7.18,0,0,0-6.69-4.09,34.83,34.83,0,0,0-14.31,2.87,21,21,0,0,0-7.43,5.06c-3.28,3.55-4.65,9.47-2.26,13.3a13.91,13.91,0,0,1,1.85,9.22A5.07,5.07,0,0,0,310,350.75Z"></path><path class="cls-2" d="M422.41,148.7c-1-6.27-2.32-12.31-2.58-18.49-.19-4.64,1.69-7.88,5.59-10.33a37.2,37.2,0,0,1,14-5.34c5.75-.92,8.72.61,11.45,5.76,3.79,7.15,3,10-4,14.15-5.11,3-10.75,4.9-16.05,7.52C427.54,143.59,424.07,144.82,422.41,148.7Zm14.74-24.25c-2.08.1-3.53,1.43-3.46,3.16a3.39,3.39,0,0,0,3.53,3.13,3.42,3.42,0,0,0,2.95-3.69A2.7,2.7,0,0,0,437.15,124.45Zm-9.37,9.79a3.34,3.34,0,0,0,3.45-3.18,2.88,2.88,0,0,0-2.61-3.07,3.28,3.28,0,0,0-3.61,3A2.94,2.94,0,0,0,427.78,134.24Zm17.42-7.39a3.08,3.08,0,0,0,2.6-3.14,2.81,2.81,0,0,0-2.6-3,3,3,0,0,0-2.81,3.25A3,3,0,0,0,445.2,126.85Z"></path><path class="cls-2" d="M455.66,124.81c2.63-.36,3.41,1.3,3.63,3.06.54,4.23.13,8.4-2.8,11.75a43.06,43.06,0,0,0-6.13,8.27c-1.69-4.51-1.7-4.51-6.13-2.2a25.68,25.68,0,0,1-6.37,2.3,5.77,5.77,0,0,1-4-.61,2.93,2.93,0,0,1-1.69-2.37c0-1,1.09-1.23,1.86-1.58,2.51-1.16,5-2.31,7.57-3.39a46.24,46.24,0,0,0,9.26-5.07C454.24,132.49,456.76,129.54,455.66,124.81Z"></path><path class="cls-3" d="M145.21,193.44c1.85,1,3.45,1.68,4.91,2.61,3,1.93,5.76,1.45,8.24-.82,2.82-2.57,2.64-2.47,5.85.2a38,38,0,0,1,8,9.42,141.87,141.87,0,0,1-33.34,5.52C139.66,203.88,142.32,198.72,145.21,193.44Z"></path><path class="cls-3" d="M168.86,181a69.48,69.48,0,0,1-11.11,12.09c-3,2.67-3.89,2.7-7.38.78s-7-3.88-10.48-5.93c-1.14-.67-2.5-1.18-3.3-2.91A155.23,155.23,0,0,1,168.86,181Z"></path><path class="cls-3" d="M162.56,191.58l8.68-9.32c2.45,6.87,2.38,13.64,2.88,20.47C170.43,198.88,167.27,194.67,162.56,191.58Z"></path><path class="cls-3" d="M134.14,186.85l8.08,4.82c.73.44,1.15,1,.64,1.82-2.26,3.74-3.54,7.95-5.71,12.5C135.62,199.5,135.29,193.54,134.14,186.85Z"></path><path class="cls-4" d="M310,350.75a5.07,5.07,0,0,1-.65-3.42,13.91,13.91,0,0,0-1.85-9.22c-2.39-3.83-1-9.75,2.26-13.3a21,21,0,0,1,7.43-5.06,34.83,34.83,0,0,1,14.31-2.87A7.18,7.18,0,0,1,338.2,321a32.52,32.52,0,0,1,3.47,16,7.91,7.91,0,0,1-5.07,7.36,35.11,35.11,0,0,1-18.73,3C314.7,347,311.56,346.08,310,350.75Zm12.62-20.55c2.13,1.09,3.29,0,4.47-1.55.73,2.2,1.28,4,1.91,5.72.25.7.72,1.45,1.63,1,.65-.32.52-1,.29-1.64-.67-1.89-1.25-3.81-1.91-5.7-.41-1.13-.45-2.73-2-2.91s-1.67,1.58-2.38,2.52a2.5,2.5,0,0,1-.65.41,7.85,7.85,0,0,0-1.5-1c-1.53-.6-2.64.12-2.39,1.64.4,2.35,1,4.65,1.58,7a1,1,0,0,0,1,.86c.81-.11.92-.78.82-1.42C323.36,333.72,323.06,332.38,322.63,330.2Zm-7.36,10.27c2.11-.13,4.1-1.57,4.28-3.06s-.84-3-3-3.81c-.23-.09-.5-.07-.73-.16-1.81-.74-2.05-1.6-.82-3a3.44,3.44,0,0,1,2.55-1.4c.52,0,1-.23,1-.87s-.67-1-1.31-1.07c-1.78-.13-4.36,2-4.88,4a2.91,2.91,0,0,0,1.93,3.88c1.13.45,2.86.34,3,1.76.2,1.62-1.83,1.29-2.7,2.08a1.07,1.07,0,0,0-.47.93C314.24,340.48,314.83,340.39,315.27,340.47Zm20.47-9.76c.15,1.3-.87,1.54-1.52,2.06-.45.36-.68.85-.37,1.28a1.24,1.24,0,0,0,1.4.27c1.39-.48,2.51-1.32,2.62-2.88.13-1.83-.86-3-2.54-3.75-2.77-1.25-2.76-1.38-.66-3.46.37-.37.74-.67.5-1.25a1.3,1.3,0,0,0-1.49-.83,2.28,2.28,0,0,0-1.57.91,3.92,3.92,0,0,0,1.34,6.2C334.32,329.67,335.51,329.59,335.74,330.71Z"></path><path class="cls-1" d="M437.15,124.45a2.7,2.7,0,0,1,3,2.6,3.42,3.42,0,0,1-2.95,3.69,3.39,3.39,0,0,1-3.53-3.13C433.62,125.88,435.07,124.55,437.15,124.45Z"></path><path class="cls-1" d="M427.78,134.24a2.94,2.94,0,0,1-2.77-3.3,3.28,3.28,0,0,1,3.61-3,2.88,2.88,0,0,1,2.61,3.07A3.34,3.34,0,0,1,427.78,134.24Z"></path><path class="cls-1" d="M445.2,126.85a3,3,0,0,1-2.81-2.93,3,3,0,0,1,2.81-3.25,2.81,2.81,0,0,1,2.6,3A3.08,3.08,0,0,1,445.2,126.85Z"></path><path class="cls-1" d="M322.63,330.2c.43,2.18.73,3.52,1,4.87.1.64,0,1.31-.82,1.42a1,1,0,0,1-1-.86c-.56-2.31-1.18-4.61-1.58-7-.25-1.52.86-2.24,2.39-1.64a7.85,7.85,0,0,1,1.5,1,2.5,2.5,0,0,0,.65-.41c.71-.94.74-2.71,2.38-2.52s1.55,1.78,2,2.91c.66,1.89,1.24,3.81,1.91,5.7.23.65.36,1.32-.29,1.64-.91.44-1.38-.31-1.63-1-.63-1.75-1.18-3.52-1.91-5.72C325.92,330.18,324.76,331.29,322.63,330.2Z"></path><path class="cls-1" d="M315.27,340.47c-.44-.08-1,0-1.12-.67a1.07,1.07,0,0,1,.47-.93c.87-.79,2.9-.46,2.7-2.08-.17-1.42-1.9-1.31-3-1.76a2.91,2.91,0,0,1-1.93-3.88c.52-2,3.1-4.18,4.88-4,.64,0,1.24.33,1.31,1.07s-.44.87-1,.87a3.44,3.44,0,0,0-2.55,1.4c-1.23,1.4-1,2.26.82,3,.23.09.5.07.73.16,2.12.86,3.15,2.2,3,3.81S317.38,340.34,315.27,340.47Z"></path><path class="cls-1" d="M335.74,330.71c-.23-1.12-1.42-1-2.29-1.45a3.92,3.92,0,0,1-1.34-6.2,2.28,2.28,0,0,1,1.57-.91,1.3,1.3,0,0,1,1.49.83c.24.58-.13.88-.5,1.25-2.1,2.08-2.11,2.21.66,3.46,1.68.76,2.67,1.92,2.54,3.75-.11,1.56-1.23,2.4-2.62,2.88a1.24,1.24,0,0,1-1.4-.27c-.31-.43-.08-.92.37-1.28C334.87,332.25,335.89,332,335.74,330.71Z"></path></svg>