<svg xmlns="http://www.w3.org/2000/svg" width="122" height="87" viewBox="0 0 122 87"><defs><style>.a{fill:#b3cdf7;opacity:0.719;}.b{fill:#ebf6b9;}.c{fill:#bbeae6;opacity:0.522;}.d{fill:#ddc688;opacity:0.663;}.e{fill:#fff;}</style></defs><g transform="translate(-17 -599)"><circle class="a" cx="8.5" cy="8.5" r="8.5" transform="translate(122 654)"></circle><circle class="b" cx="11.5" cy="11.5" r="11.5" transform="translate(66 663)"></circle><circle class="c" cx="4.5" cy="4.5" r="4.5" transform="translate(17 666)"></circle><g transform="translate(77 598.796)"><circle class="d" cx="19" cy="19" r="19" transform="translate(0 0.204)"></circle><g transform="translate(10.586 12.954)"><g transform="translate(0.88 0)"><path class="e" d="M40.823,61H26.38a1.522,1.522,0,0,0-.659.154L33.568,69l1.759-1.693h0l6.156-6.156A1.522,1.522,0,0,0,40.823,61Z" transform="translate(-25.721 -61)"></path></g><g transform="translate(11.574 0.88)"><g transform="translate(0)"><path class="e" d="M344.007,86.728l-5.794,5.793,5.794,5.793a1.522,1.522,0,0,0,.154-.659V87.387a1.522,1.522,0,0,0-.154-.659Z" transform="translate(-338.213 -86.728)"></path></g></g><g transform="translate(0 0.88)"><path class="e" d="M.154,86.721A1.522,1.522,0,0,0,0,87.38V97.647a1.523,1.523,0,0,0,.154.659l5.794-5.793Z" transform="translate(0 -86.721)"></path></g><g transform="translate(0.88 7.4)"><path class="e" d="M35.683,277.211,33.924,278.9a.513.513,0,0,1-.726,0l-1.693-1.693-5.791,5.8a1.522,1.522,0,0,0,.66.155H40.816a1.522,1.522,0,0,0,.659-.154Z" transform="translate(-25.714 -277.211)"></path></g></g></g></g></svg>