<svg xmlns="http://www.w3.org/2000/svg" width="57.551" height="61.894" viewBox="0 0 57.551 61.894"><defs><style>.a{fill:#222;}</style></defs><g transform="translate(-10.663 0)"><path class="a" d="M172.258,45.436a3.084,3.084,0,0,0-4.334.494l-3.485,4.382.074-21.465a3.085,3.085,0,0,0-3.074-3.1h-.011a3.079,3.079,0,0,0-2.616,1.456l.008-2.4a3.084,3.084,0,0,0-3.074-3.1h-.011a3.085,3.085,0,0,0-3.084,3.074l-.01,2.939a3.079,3.079,0,0,0-2.617-1.474h-.011a3.085,3.085,0,0,0-3.084,3.074l-.018,5.119a3.08,3.08,0,0,0-2.617-1.474h-.011a3.067,3.067,0,0,0-1.505.394,6.162,6.162,0,0,1,2.206,3.278,6.152,6.152,0,0,1,5.934,6.115l0,.613a6.153,6.153,0,0,1,5.728,6.1l.056,16.268c3.188-.006,4.874-1.963,7.1-4.727,2.255-2.8,8.945-11.247,8.945-11.247A3.085,3.085,0,0,0,172.258,45.436Z" transform="translate(-105.209 -17.292)"></path><path class="a" d="M44.069,35.566a1.527,1.527,0,1,0,2.16-2.16L38.75,25.927a1.528,1.528,0,1,0-2.16,2.16Z" transform="translate(-20.29 -20.29)"></path><path class="a" d="M21.278,79.416a1.527,1.527,0,0,0-.992-1.919l-7.632-2.43a1.527,1.527,0,0,0-.927,2.911l7.632,2.43A1.528,1.528,0,0,0,21.278,79.416Z" transform="translate(0 -59.721)"></path><path class="a" d="M88.163,9.623A1.527,1.527,0,0,0,91.074,8.7l-2.43-7.632a1.527,1.527,0,0,0-2.911.927Z" transform="translate(-59.723 0)"></path><path class="a" d="M66.8,98.97h-.011a3.08,3.08,0,0,0-2.617,1.475l-.018-5.119a3.085,3.085,0,0,0-3.084-3.074h-.011a3.08,3.08,0,0,0-2.617,1.474l-.01-2.939a3.085,3.085,0,0,0-3.084-3.074h-.011a3.085,3.085,0,0,0-3.074,3.1l.008,2.4a3.08,3.08,0,0,0-2.616-1.456H49.64a3.085,3.085,0,0,0-3.074,3.1l.074,21.465-3.485-4.382a3.085,3.085,0,1,0-4.828,3.84s6.723,8.424,8.945,11.247c2.039,2.59,3.922,4.728,7.116,4.728h.027l7.4-.026a8.179,8.179,0,0,0,8.141-8.2c-.016-4.65-.06-17.4-.075-21.476A3.084,3.084,0,0,0,66.8,98.97Z" transform="translate(-21.496 -69.849)"></path></g></svg>