<svg xmlns="http://www.w3.org/2000/svg" width="131" height="67.844" viewBox="0 0 131 67.844"><g id="push-sms-icon" transform="translate(-556 -5755.156)"><path id="Path_24606" data-name="Path 24606" d="M12851-4213s34.753-42.984,75.967,28.4" transform="translate(-12268 9982)" fill="none" stroke="#222" stroke-width="2"></path><circle id="Ellipse_16" data-name="Ellipse 16" cx="27" cy="27" r="27" transform="translate(633 5769)" fill="#405e73"></circle><path id="Path_18" data-name="Path 18" d="M3.842,53.783H1.972l1.322-1.322a4.474,4.474,0,0,0,1.278-2.646A9.431,9.431,0,0,1,0,41.866c0-5.614,5.16-11.318,13.24-11.318,8.56,0,13.15,5.25,13.15,10.827,0,5.614-4.639,10.86-13.15,10.86A17.837,17.837,0,0,1,8.8,51.67a6.929,6.929,0,0,1-4.961,2.113Z" transform="translate(646.5 5754.203)" fill="#fff"></path><text id="SMS" transform="translate(652.746 5798.316)" fill="#405e73" font-size="7" font-family="Lato-Bold, Lato" font-weight="700"><tspan x="0" y="0">SMS</tspan></text><circle id="Ellipse_9" data-name="Ellipse 9" cx="27" cy="27" r="27" transform="translate(556 5769)" fill="#d6b800"></circle><path id="Path_24603" data-name="Path 24603" d="M24.522,20.985V32.852a1.017,1.017,0,0,1-1.027,1H5.895a1.011,1.011,0,0,1-1-1v-17.6a1.036,1.036,0,0,1,1-1.027H17.762a1.627,1.627,0,0,1-.029-.371,6.188,6.188,0,0,1,.314-2.054H5.895A3.409,3.409,0,0,0,2.5,15.223v17.6a3.385,3.385,0,0,0,3.395,3.395H23.5a3.409,3.409,0,0,0,3.423-3.395V20.7a7.008,7.008,0,0,1-2.054.285A.7.7,0,0,1,24.522,20.985Z" transform="translate(567.5 5772.854)" fill="#fff"></path><path id="Path_24604" data-name="Path 24604" d="M69.035,2.5a4.735,4.735,0,1,0,4.735,4.735A4.742,4.742,0,0,0,69.035,2.5Z" transform="translate(523.33 5779.5)" fill="#fff"></path><path id="Path_24610" data-name="Path 24610" d="M14446.515,13389.486c1.084.512,8.519,1.246,8.519,1.246v-8.315" transform="translate(-13811 -7615)" fill="none" stroke="#222" stroke-linecap="round" stroke-width="2"></path></g></svg>