<svg xmlns="http://www.w3.org/2000/svg" id="Layer_1" data-name="Layer 1" viewBox="0 0 570 380"><defs><style>.cls-1{fill:#e9abca;}.cls-2{fill:#b8dddc;}</style></defs><path class="cls-1" d="M116.11,206.12c1.52,4.58,2.56,9,2.24,13.58-.18,2.62-.56,3.13-3.21,3.34-5.37.43-10.74.82-16.12,1-13,.32-26.09.48-39.14.7-.47,0-.94-.06-1.76-.11a43.81,43.81,0,0,1-.74-5.19c-.26-8.72-.4-17.45-.62-26.18,0-2.14.63-3.72,2.83-4.38a5,5,0,0,0,1.28-.64c6.82-4.51,14.4-6,22.48-6,8.61,0,17.22-.42,26.12-.67l3.35,13-32.5,14.63c-1.51-2.2-3-4.33-4.47-6.49-1.94-2.85-2.32-3-5.13-1.28-5.18,3.08-5.25,3.19-2.38,8.57q2.37,4.44,5.08,8.68c1.71,2.69,2.61,3.05,5.71,2.09,3.43-1.06,6.81-2.28,10.14-3.61C98.14,213.55,107,209.88,116.11,206.12Z"></path><path class="cls-2" d="M515.3,78.33c.31-6.88.88-13.76.88-20.64,0-11.37-.35-22.74-.57-34.12,0-1.05-.15-2.1-.24-3.3l-12-1.29c-6.08-.64-12.15-1.85-18.22-1.82-19.65.1-39.3.61-58.95,1q-22.46.48-44.91,1.15c-13.77.43-27.53.86-41.28,1.64-6.56.37-13.08,1.51-19.61,2.34-2.35.3-4.69.71-7.28,1.11.72,20.39,1.38,40.21,2.12,60,.18,4.7.46,9.42,1,14.08.85,6.83,2.36,13.59,2.95,20.43.77,9.06-.17,18.12-1.19,27.14a83.44,83.44,0,0,0,0,14.31h3.55l48.54,0c1.2,0,2.4-.1,3.59-.16,14.24-.67,28.48-1.41,42.72-2,13.17-.53,26.34-1.05,39.52-1.26,11-.18,22,.16,33.06.14a7.24,7.24,0,0,1,7.09,4.54c.74,1.52,1.45,3.06,2.27,4.53a35.87,35.87,0,0,0,2.86,4.58c3.86,4.94,7.82,9.8,11.75,14.68.57.7,1.22,1.33,2.23,2.43,0-2.24.1-3.88,0-5.5-.53-7.1-1.5-14.19-1.62-21.3-.42-24.81.23-49.61,1.31-74.39Z"></path><path d="M96.54,230.87c-6.31,0-12.27,0-18.24,0-5.39,0-10.78.23-16.17.2-4.73,0-5.07-.36-6.66-4.75-6.38-.71-6.77-.84-6-7.29,1-7.71,2.56-15.33,3.81-23,.56-3.41,1-6.85,1.38-10.3.26-2.67.2-2.87,2.67-3.26,4.14-.65,8.31-1.11,12.45-1.76a50.82,50.82,0,0,0,7.36-1.51,66.34,66.34,0,0,1,15.15-2.74c.82-.06,1.64-.15,2.87-.27,0-1.6,0-3.12,0-4.64.35-11.49.52-23,1.14-34.46C97,126,98.42,114.91,98.8,103.8c.42-12.33.06-24.68,0-37,0-3.11-.19-6.23-.07-9.34a5.69,5.69,0,0,0-2-4.71C89.58,46,82.49,39.18,75.41,32.37c-.88-.86-2.6-1.63-1.74-3.1.43-.74,2-1,3.12-1.12,19.44-2.39,39-2.28,58.5-1.94,19.05.34,38.08,1.36,57.12,1.8,11.5.27,23,0,34.51,0,15-.1,30-.26,44.93-.39h4.24c.14,1.86.36,3.37.36,4.88q-.09,49.79-.22,99.59c0,12.7,0,25.41,0,38.11,0,13.66-.14,27.32-.16,41,0,15.09-.16,30.16,1.22,45.23.89,9.65,1.13,19.37,1.33,29.06.16,7.41-.18,14.84-.35,22.26,0,.8-.1,2-.6,2.32-1.84,1.16-1.69,3-2,4.83-2.87,1.2-5.9.89-8.83,1-20.6.65-41.2,1-61.79,1.8-11.72.46-23.42,1.47-35.12,2.36-8.48.65-17,1.2-25.39,2.35-11.62,1.57-23.17,3.66-34.74,5.52-1.78.29-3.55.61-5.34.75-3.28.24-4.47-.62-4.81-3.85-.54-5.11-.93-10.24-1.26-15.38-1.64-25.36-1.64-50.76-1.7-76.16C96.71,232.5,96.61,231.79,96.54,230.87Zm165.58,82.65,10.21-.55,0-.79c-3.18.16-6.35.31-9.52.52-.24,0-.43.54-.66.82h0ZM101.49,52.38l-3.71-2.94c1,1.28,1.21,3.8,3.78,2.84L101,69l.71.06c.49-3.49.91-7,1.5-10.45A6.74,6.74,0,0,0,101.49,52.38Zm53.18,266.9a9.79,9.79,0,0,1-1.07.14l-48.11,1.34c-2.88.08-3.13-.14-3.17-3.33q-.39-25.51-.73-51-.24-16.53-.5-33.06a25.76,25.76,0,0,0-.28-2.69c-1.56-.31-2.68-.27-2.68,1.52,0,.84,0,1.68,0,2.51-.12,25.87,0,51.74,1.73,77.57.27,4.17.78,8.32,1.13,12.49.16,2,1.27,2.73,3.12,2.52,2.14-.25,4.28-.48,6.4-.88,13.64-2.58,27.3-5,41.15-6.2a14.88,14.88,0,0,0,3-.92l4.16.19,0-.49Zm118.55-8.88c.08-1,.25-2.15.27-3.33.07-8.26.15-16.53.17-24.8q0-24.27,0-48.55c0-1.31,0-2.63-.1-3.95-.84-13.14-1.85-26.26-2.49-39.41-.41-8.61-.26-17.25-.41-25.88-.3-16.53-.91-33.07-.89-49.6s.53-33.06,1.06-49.58c.26-8,1.05-16,1.63-24,.15-2.09.42-4.17.61-6.11-2.51,0-4.53,0-6.55,0-13.93.15-27.71-1.9-41.55-3-6.08-.5-12.16-1.62-18.23-1.61-29.61,0-59.21.41-88.81.57-8.63,0-17.25-.23-25.88-.31-4.36-.05-8.73,0-13.31,0a6.93,6.93,0,0,0,.74,1c7.33,6.35,14.62,12.75,22,19,2.79,2.37,3.42,5.06,2.87,8.61-1,6.62-1.89,13.28-2.32,20s-.38,13.16-.31,19.75q.38,36.66.91,73.33c0,1,.15,2.08.24,3.31,3.48-.15,7-.76,8,3.48,1.58.1,2.89.14,4.2.27,4.09.39,4.8,1.24,5,4.66a63.8,63.8,0,0,0,1.09,6.7c5.62-2.38,10.79-4.6,16-6.77,1.21-.51,2.47-.9,3.72-1.31a3.24,3.24,0,0,1,4,1.48c1.25,1.83,2.51,3.65,4.12,6-4.31,2.5-8.89,4.44-13.36,6.57s-9.06,4.28-13.6,6.41c0,1.9,0,3.58,0,5.25,0,4.55.16,9.11-.13,13.64-.42,6.62-2.45,8.37-9,8.42-1.68,0-3.36,0-5,0-1.4,0-2.79.09-4.41.14.42,29.34.84,58.27,1.26,87.58C161,316.55,216.94,315.67,273.22,310.4ZM116.11,205.92c-5.55,2.37-10.68,4.69-15.89,6.77-6.77,2.7-13.58,5.32-20.45,7.76-3.67,1.31-4.55.88-6.54-2.32-1.71-2.74-3.36-5.52-4.87-8.37-2.78-5.25-2.72-5.32,2.26-8.34,3-1.82,3.36-1.73,5.39,1.28,1.45,2.15,2.94,4.27,4.4,6.37l32.48-14.61c-1.12-4.44-2.17-8.56-3.25-12.85-1.35,0-2.54,0-3.72,0-7.54.17-15.08.48-22.62.49-7.94,0-15.43,1.43-22.15,5.91a5.46,5.46,0,0,1-1.6.8c-2.12.59-2.66,2.14-2.68,4.1,0,4.91-.31,9.82-.13,14.72.2,5.58.78,11.15,1.2,16.84,1,.06,1.59.15,2.17.14,13-.22,26.09-.38,39.14-.71,5.37-.13,10.75-.53,16.11-1,2.51-.2,2.87-.67,3.06-3.1C118.79,215.1,117.76,210.6,116.11,205.92ZM69,205.55c1.62,2.92,3,5.57,4.51,8.12,3.38,5.62,2.16,5.79,9.06,3.27,21-7.65,41.27-17.18,61.43-26.85a10.25,10.25,0,0,0,1-.63l-2.53-4.54c-1.26.38-2.18.59-3.05,1-5.41,2.24-10.84,4.43-16.19,6.82-13.32,5.93-26.6,12-39.9,17.93-3.33,1.5-3.74,1.38-5.94-1.61-1.47-2-2.87-4-4.37-6.15ZM273.59,45.27l-.37,0c-.3,5.13-.7,10.24-.87,15.37-.49,14.83-1.13,29.66-1.26,44.49s.27,29.69.44,44.53c.08,6.46.09,12.93.28,19.39.39,12.68.87,25.35,1.32,38h.46ZM58.77,226c-.46,2.58,1.19,2.52,2.41,2.53,4.07,0,8.14-.07,12.21-.1l38.81-.28a18.48,18.48,0,0,0,3.57-.24c2.4-.48,2.93-1.34,2.93-4.12C98.86,226.47,78.81,224.45,58.77,226Zm41.51-50.23c-.26-18.66-.51-36.77-.76-54.89-2.82,17-4.19,49.23-2.43,55.19ZM273,30.47H226c15.59,1.54,31.08,4.44,46.88,3.1a10.89,10.89,0,0,0,.32-1.6A11.48,11.48,0,0,0,273,30.47ZM54,201.08C52.56,208.76,50,216.32,51,224.36h4.32C54.85,216.4,54.44,208.74,54,201.08ZM114.27,194l4.38-2c-.46-3.33-.9-6.47-1.35-9.71l-6-.32c.38,2.05.6,3.69,1,5.29C112.85,189.26,113.5,191.3,114.27,194ZM147,27.73H97.49v.93C114,29,130.49,28.4,147,27.73ZM276.11,308.85l.77,0c.13-15,1.07-30-.77-45.32ZM84.2,178.54l0,.56H109c-.45-2.16-1.77-2.24-3.11-2.2-1.78.06-3.57.15-5.35.29C95.06,177.62,89.63,178.09,84.2,178.54ZM64.12,185l-.25-.91-6.54,1v3.32Zm55.37,26.53c.07-2.32.54-4.65-.77-7.49C117,207.23,119,209.34,119.49,211.54Z"></path><path d="M310.89,19.93c9.62-.19,19.2-.43,28.78-.55,13.42-.17,26.79-1.14,40.16-2.39,10.37-1,20.79-1.43,31.2-1.92,8.61-.41,17.25-.82,25.87-.68,10.89.17,21.77,1.13,32.66,1.31,12.81.22,25.63,0,38.44-.06,2.4,0,4.8-.08,7.19-.09,1.44,0,2.12.72,2.29,2.17,1.17,9.86,2.22,19.7,1.49,29.67-1.74,24,.34,47.9.39,71.85,0,10.55.34,21.09.52,31.63q.38,21,.7,42c0,1.33.85,3.24-.84,3.86-1.86.68-2.47-1.4-3.47-2.49a14.15,14.15,0,0,1-.91-1.11c-1,.1-2.14.52-3,.2a4.39,4.39,0,0,1-1.79-2.13,146.48,146.48,0,0,0-15.85-23.89c-2.9-3.65-5.73-4.69-10.12-4.66q-54.84.31-109.68.21a222.12,222.12,0,0,0-34.37,2.49c-7.09,1.1-14.22,2-21.34,3-4.15.57-5.54-.46-5.16-4.55,1.77-19.07-.88-38-.93-57.07,0-4.67-.09-9.37-.55-14-.61-6.06-1.63-12.08-2.47-18.12a193.68,193.68,0,0,1-1.29-43.71c.28-3.25.84-6.48,1.32-9.71A4.51,4.51,0,0,1,310.89,19.93Zm204,2c-4.17-.44-8.09-.88-12-1.27-6.31-.64-12.63-1.75-18.94-1.78-14-.05-28,.44-42.06.73q-39.9.81-79.8,1.65c-6.23.13-12.46.36-18.67.84-5.36.42-10.7,1.23-16.05,1.91-4.85.62-9.7,1.29-14.69,2,0,1.25,0,2.19,0,3.14.66,17.6,1.45,35.19,1.95,52.8.24,8.64.7,17.21,2.47,25.7A85.34,85.34,0,0,1,319,130.79c-.41,6.09-1.15,12.16-1.49,18.25-.22,3.76,0,7.56.08,11.64h3.65q24.27,0,48.55-.05c1.2,0,2.39-.1,3.59-.15,14.24-.67,28.48-1.4,42.72-2,13.18-.53,26.35-1,39.53-1.26,10.9-.18,21.8.18,32.7.11,3.78,0,6.07,1.72,7.61,4.9.73,1.51,1.45,3,2.26,4.5a27.93,27.93,0,0,0,2.47,3.93c4,5.07,8.12,10.09,12.2,15.11.48.57,1.08,1,2.15,2.06-.13-2.64-.21-4.54-.32-6.44-.48-7.76-1.37-15.52-1.38-23.28,0-17.14.34-34.27.65-51.41.18-9.34.53-18.68.92-28,.22-5.5,1-11,1-16.49,0-12.1-.4-24.2-.64-36.3C515.15,24.63,515,23.34,514.93,21.9Zm2.36,169.71.8-.22q-.92-52-1.82-103.93-1.21,11.48-1.37,23c-.22,14.37-.38,28.75-.3,43.13,0,8.25.6,16.49.94,24.74.14,3.45.25,6.91.56,10.35A10.8,10.8,0,0,0,517.29,191.61Zm-108.22-31.4v0H492.2c0-.23.07-.46.11-.69a11.73,11.73,0,0,0-2.48-.68c-4.3-.29-8.61-.74-12.91-.66-16.16.27-32.32.68-48.49,1.12C422,159.51,415.53,159.91,409.07,160.21ZM458.14,16.73c-23.45-2.15-46.83-.47-70.22,1.56ZM315.63,167.19c8.89-.53,17.23-2.55,25.67-3.85H315.42ZM311.94,73.7q-.79-20.51-1.58-41C309.27,46.41,309.23,60.11,311.94,73.7Zm4.67,60.8.75,0c.69-8.31.73-16.59-1.67-24.74ZM499,18.08l.09.77c2.59.28,5.17.61,7.76.83s5.28,1.18,7.89.32c.4-1.88-.72-1.91-1.85-1.91ZM329,22.35c-3.53,0-6.72,0-9.91,0-1.66,0-3.33,0-5,.1-1.27.07-1.57.76-.93,2.1Zm183.7,169.91c1.1-1.64.92-2-2.65-5C511.11,189.36,511.85,190.76,512.65,192.26Z"></path><path d="M469.19,195.72c.12,2.51.21,4.39.31,6.44l3.13.82a6.5,6.5,0,0,1,.05,1.05c-.12.82-.38,1.63-.42,2.45-.52,11.85-.75,23.71-1.57,35.54-2.34,33.74-1.37,67.54-1.66,101.31,0,1.51-.87,3.4,1.25,4.47.27.14.31,1.54,0,1.93-1.69,1.95-1.18,4.24-1.3,6.45,0,.7-.22,1.39-.38,2.37l-6.86.4c-.38,1.73-.75,3.4-1.11,5.06L460,364v-5.22H456q-60.39-.09-120.8-.15c-13.77,0-27.55.32-41.32.51-1.25,0-2.49.17-3.92.27.7,2.12,2.15,2,3.36,2.07,5.85.47,11.7,1,17.55,1.29,40.24,2.1,80.51,1.37,120.77,1.45,6.47,0,12.94,0,19.41.05a11.33,11.33,0,0,1,5.16,1.25c-.85.06-1.71.17-2.57.17q-17.61-.06-35.22-.16c-26.24-.15-52.49-.14-78.72-.55-13.89-.21-27.76-1.15-41.64-1.77-1.67-.08-3.34-.26-5-.41-2.67-.25-3.42-.72-5.25-3.34-1.57.13-3.23.38-4.9.38s-2.4-1.1-1.46-2.58a17.18,17.18,0,0,1,2.34-2.72c5.83-5.86,11.59-11.79,17.56-17.51,2.4-2.29,3.3-4.41,2.32-7.82-1.93-6.7-2.24-13.72-2.33-20.64q-.33-25.33,0-50.68c.1-9,.93-17.94,1.15-26.91.2-8.15,0-16.3,0-24.45,0-1.9.16-3.8.26-5.92l3.27-.68a12.07,12.07,0,0,0,.2-1.8c-.1-2,.93-2.82,2.84-2.78,1.2,0,2.4,0,3.6,0,11.6,0,23.19.31,34.77-1.41,10.13-1.5,20.32-.06,30.42,1.34a38.53,38.53,0,0,0,5.37.34q41,.1,82,.16ZM460,356.22a23.35,23.35,0,0,0,.57-2.59c.59-6.55,1.11-13.11,1.72-19.67.75-8.09,1.66-16.18,2.35-24.28.76-8.94,1.8-17.89,1.91-26.84.33-25.64.25-51.28.31-76.92a11.71,11.71,0,0,0-.39-2.11c-9,0-17.9-.1-26.76,0a198.94,198.94,0,0,1-40-3.44c-5.27-1-10.62-2.16-15.95-2.28-15.09-.33-30.2.1-45.29-.3-10.06-.27-19.64,2.37-29.93,3.38v4l-.15,98.13c0,8.75,0,17.49,0,26.24,0,.94.12,2.17-.39,2.76-1.88,2.19-.76,3.89.42,5.8,2.3,3.74,2.13,5.29-1.22,8s-6.93,5.12-10.38,7.71c-.86.64-2.12,1-2.34,2.36ZM306,201.76c-2-.57-2.11.68-2.11,2,0,5.27.12,10.54,0,15.8-.31,11.14-.89,22.26-1.12,33.39-.24,11.86-.35,23.73-.24,35.59.1,10.54.48,21.07.94,31.6A21.1,21.1,0,0,0,306,330.24Zm160.81-3.49H397.28c22.92,5.62,46.18,4.21,69.51,4ZM305.61,336.35c-8.13,7.12-18.9,18.32-20,21.09,2.36-.59,4.68-.62,6.35-1.69,4.32-2.74,8.41-5.86,12.48-9C309.83,342.62,309.82,342.24,305.61,336.35Zm160.78-26.9c-1.92,15.5-3.56,31-4.73,46.65h4.73Zm4.3-106.28c-1.64,3-2,21.65-.83,30.08C469.71,223.49,471.49,213.77,470.69,203.17Zm-153-4.77c-5.62-.8-7.35-.64-9.17.93C311.82,200,314.69,198.84,317.64,198.4ZM357,195v-.17h-2.48V195Z"></path><path d="M115,133.42c1-.12,2-.33,3.06-.35q67.77-1.35,135.54-2.65c6-.11,5.78-.73,7.15,5.75,2,9.3,2.22,18.78,3,28.2.25,2.93-.28,3.64-3.2,4.13a91.59,91.59,0,0,1-11,1.36c-18.92.87-37.84,1.7-56.76,2.37-22.16.78-44.33,1.38-66.49,2.09-1.43.05-2.86.31-4.29.45-2.17.2-2.87-.22-3.3-2.31-.34-1.63-.46-3.32-.64-5-1-9.52-2-19.05-3-28.58C114.84,137.19,115,135.45,115,133.42ZM121,172c7.56-.21,14.61-.39,21.66-.61,22.63-.71,45.27-1.35,67.9-2.2,14.36-.54,28.71-1.36,43.07-2.17,2.55-.15,5.23-.23,7.71-1.6-1-10.89-1-21.8-4.11-32.69l-138,2.65a5.85,5.85,0,0,0-1.57,5c.86,7.38,1.56,14.77,2.33,22.15C120.35,165.61,120.68,168.69,121,172Z"></path><path d="M124.27,272.88a22,22,0,0,1,2.85-.65c15.51-1.23,31-2.66,46.55-3.58,14-.83,28-1.08,42-1.6,10.05-.38,20.1-.8,30.15-1.16a25.67,25.67,0,0,1,4.29.25A2.86,2.86,0,0,1,252,267c.67,1.08,1.47,2.41,1.34,3.53-.09.75-1.64,1.75-2.63,1.89-4.26.57-8.56,1-12.85,1.22-11.71.65-23.43,1.31-35.15,1.74-14.36.52-28.74.58-43.09,1.28-9.55.46-19.08,1.57-28.58,2.64C125.26,279.93,124.27,279.27,124.27,272.88Zm2.76,2c-.18,2.8,1.42,2.33,2.79,2.08,12.89-2.4,26-2.64,39-3.13,15.32-.58,30.65-.9,46-1.49,10.42-.4,20.82-1.05,31.23-1.62,1.57-.09,3.23,0,5.14-1.77a26.25,26.25,0,0,0-3.7-.49C207.3,269.92,167.08,270.41,127,274.84Z"></path><path d="M153.69,235.89a49.48,49.48,0,0,1,6.73-1.28c15.31-.75,30.64-1.31,46-2.05,12.68-.62,25.35-1.38,38-2.15a32.91,32.91,0,0,0,5.64-1c1.8-.44,2.6.23,3.13,1.93,1.23,3.89.51,5.49-3.6,5.86-6.44.58-12.91.87-19.37,1.1q-35,1.28-70,2.43c-.6,0-1.2.07-1.8.06C154.94,240.67,154.53,240.3,153.69,235.89Zm96.88-4c-1.43.25-2.71.59-4,.68-10.27.73-20.53,1.6-30.81,2.09-18.43.88-36.87,1.52-55.3,2.29a24.91,24.91,0,0,0-3.28.54c7.07,1.46,90.17-2.09,94-3.59Z"></path><path d="M157.88,251c3.79.05,7.46.29,11.1.13q40.36-1.75,80.7-3.63c.6,0,1.2-.1,1.8-.11,2.56,0,3.3.44,3.54,2.08a3.85,3.85,0,0,1-3,4.57,10.63,10.63,0,0,1-1.79.13l-85.4,2.87a31.6,31.6,0,0,1-3.23-.05C157.57,256.72,156.46,254.72,157.88,251Zm3.12,2.88-.06.54c1.69.08,3.38.25,5.07.2q33.56-1,67.12-2c5.38-.17,10.76-.45,16.14-.76,1.15-.07,2.74.32,3-1.71Z"></path><path d="M154.81,259.88c-3.33,1.27-6.66,1.17-10,.88-2-.18-2.68-1.81-3.09-3.5s-.71-3.46-1.13-5.51l-4.68.8c-.27,2.31-.48,4.32-.72,6.33a3.3,3.3,0,0,1-2.3,2.95,15.46,15.46,0,0,1-8.09.75c.16-1.27.24-2.42.46-3.53,1.53-7.73,3-15.49,4.7-23.19a115.54,115.54,0,0,1,3.83-13.43c1.21-3.41,3.15-3.7,5.48-.83a31.65,31.65,0,0,1,5.15,8.13c3.71,9.58,7,19.31,10.48,29C155,258.92,154.89,259.19,154.81,259.88Zm-2.78-1.6c-3.3-11-6.46-21.49-11.75-31.21a49,49,0,0,0-3.53-4.87,38.68,38.68,0,0,0-3.83,11.34c-1.8,8.42-3.41,16.87-5.07,25.31a4,4,0,0,0,.24,1.37c.65-.06,1.12-.08,1.58-.16,3-.54,3-.54,3.32-3.62.13-1.07.25-2.14.29-3.21a3.24,3.24,0,0,1,3.05-3.38l1.41-.24c4.13-.83,5-.25,5.86,3.92.34,1.6.73,3.19,1.14,4.93,1.38,0,2.45,0,3.51,0S150.38,258.36,152,258.28Z"></path><path d="M125.44,100.7c2.12-1.87,4.77-.53,7.14-1.65.22-4.74,2.42-8.68,5.88-12,7.71-7.5,17.87-6,23.1,3.44,1,1.87,1.7,3.93,2.55,5.92l3.86,1c-1,2.23-2.57,1.91-3.91,2-7.27.52-14.55.92-21.82,1.48-4.28.33-8.55.92-12.83,1.29C128,102.28,126.29,102.76,125.44,100.7Zm36.31-3.83a57.71,57.71,0,0,0-3.08-6.35c-2.93-4.45-8.43-6.93-12.63-5.39a16,16,0,0,0-10.6,11.72,9.69,9.69,0,0,0,0,2Z"></path><path d="M187.54,84.87c1.68-.3,2.56-.53,3.45-.59q28-1.77,56-3.51c4.06-.25,8.13-.52,12.19-.75a9.48,9.48,0,0,1,2.5.12c.36.08.94.71.87.93-.14.48-.57,1.13-1,1.22a19.31,19.31,0,0,1-2.86.13L230,84.19q-19,1.2-38,2.38C190.61,86.66,189.12,87,187.54,84.87Z"></path><path d="M231.67,94.74c.85,2,.11,2.48-1.42,2.54-2.74.1-5.48.24-8.23.39-10.85.57-21.7,1.17-32.55,1.7-1.32.07-2.87.56-3.86-1,.66-1.72,2.14-1.41,3.36-1.48,4.53-.28,9.06-.49,13.6-.71Z"></path><path d="M217.94,72c.89-1.17,1.2-1.92,1.76-2.23a5,5,0,0,1,2.11-.27q16.49-.7,33-1.39c1.14,0,2.46-.32,3,1.28-.47,1.61-1.85,1.19-3,1.24-6.33.28-12.67.51-19,.77-4.18.18-8.36.42-12.54.59C221.89,72,220.47,72,217.94,72Z"></path><path d="M169.71,68.66c-.47-2.38-.8-4.09-1.1-5.59-1.49-1.79-4.81.41-5.91-3,1.38-.09,2.18-.19,3-.19,5,0,6.79,2.2,5.93,7.18C171.54,67.53,170.65,67.89,169.71,68.66Z"></path><path d="M126.09,63.3l-3.5.37c-1.64,1.72,1,5.1-2.66,6.3-.4-3-.71-5.69,0-8.54,1.8-.16,3.44-.37,5.08-.43C126.39,60.94,126.46,61.86,126.09,63.3Z"></path><path d="M142.44,114.87H151c.31.86.54,1.85-.8,2a57.47,57.47,0,0,1-7.06.36c-.42,0-.84-1-1.26-1.5Z"></path><path d="M168.63,113.89l3-.56c2.24-1,.3-4.55,3.88-4.42a32.58,32.58,0,0,1-.29,3.75,4.22,4.22,0,0,1-5.71,3.19C169,115.66,168.93,114.63,168.63,113.89Z"></path><path d="M121.65,111.33c1.25-.6,2.2-.83,2.4.57.28,1.88-.14,4,2.22,5,.15.07,0,.84,0,1.26-3.63.52-4.06.24-4.35-2.78C121.81,114.07,121.75,112.77,121.65,111.33Z"></path><path d="M122.8,105.41c-.59-.35-1.59-.61-1.68-1.06a25.19,25.19,0,0,1-.42-5c0-.36.74-1,1.12-1a1.57,1.57,0,0,1,1.13,1c.27,1.76.36,3.54.52,5.31Z"></path><path d="M173.51,103c-1-5.55-.85-6.78,1.59-7.72.16,2.32.42,4.52.43,6.72C175.53,103.35,174.55,103.45,173.51,103Z"></path><path d="M163,114.15c-.34,2.44-.53,2.51-6,2.16,0-.5-.22-1.29,0-1.51C158.8,113.25,160.89,114,163,114.15Z"></path><path d="M120.05,86.63c1.13.69,2.08.94,2.22,1.42a9.43,9.43,0,0,1,.25,3.47c0,.48-.81.88-1.24,1.32-.41-.47-1.1-.9-1.17-1.41A38.93,38.93,0,0,1,120.05,86.63Z"></path><path d="M171.62,84.49c3.56-.45,2.58,1.92,2.85,3.28s.21,2.51-2.05,2C172.18,88.17,171.92,86.48,171.62,84.49Z"></path><path d="M121.58,75.21c.84,5.34.74,5.71-1.46,6.13C119,77,119.18,76.15,121.58,75.21Z"></path><path d="M151.39,60.18c4.55-.94,5.27-.77,5.93,1.41C152.91,62.74,151.74,62.46,151.39,60.18Z"></path><path d="M145.24,60c.6,1.39.62,2.34-.71,2.45a5.93,5.93,0,0,1-3.3-.39c-.67-.4-.34-1.61.73-1.82A27.28,27.28,0,0,1,145.24,60Z"></path><path d="M170.3,74.12a5.46,5.46,0,0,1,1.17-.49,4.14,4.14,0,0,1,1,.13c1.17,4,1.14,4.17-1.33,5C170.84,77.2,170.57,75.66,170.3,74.12Z"></path><path d="M144.18,73.31c2.21,1.58,2.38,2,1.6,4.26C143.21,76.21,143,75.6,144.18,73.31Z"></path><path d="M162.81,87.15c-1.19-1.71-1.05-2.42.84-3.47a5.21,5.21,0,0,1,1.93-.22,11.26,11.26,0,0,1-.49,2.1c-.17.39-.68.66-1.07.93A11.85,11.85,0,0,1,162.81,87.15Z"></path><path d="M133,80.63c.48.05,1.05-.06,1.33.17a22.52,22.52,0,0,1,2.28,2.4s-.6.89-.86.86a3.23,3.23,0,0,1-3.09-2.35C132.57,81.44,132.83,81.08,133,80.63Z"></path><path d="M131.91,115.59c3.91-.52,3.91-.52,4.5,1.45C132.74,118.07,132.69,118.05,131.91,115.59Z"></path><path d="M132.09,94.66c-1.43-.31-2.62-.5-3.76-.86-.26-.08-.43-.76-.43-1.16,0-.25.37-.61.65-.72C129.84,91.45,131.43,92.52,132.09,94.66Z"></path><path d="M164.53,91.35c.15-.32.19-.62.35-.73,1.07-.7,2.18-.94,3.11.16a1.25,1.25,0,0,1-.26,1.2C166.5,92.73,165.35,92.71,164.53,91.35Z"></path><path d="M132,60.62c1.68.12,3.48-.86,3.48,1.77C132.52,63.06,132.52,63.06,132,60.62Z"></path><path d="M156.11,73.9l-1,3.47C153.16,74.86,153.16,74.85,156.11,73.9Z"></path><path d="M329,89.46c.8-2.36,2.61-2,4-2,5.85-.35,11.72-.56,17.58-.85q27.47-1.32,54.92-2.67c2.15-.1,4.31-.21,6.46-.18a7.81,7.81,0,0,1,2.22.8c-.94,1.86-2.38,1.6-3.6,1.67q-9.15.51-18.31.93l-52.76,2.45c-2.76.13-5.5.39-8.26.48A8.67,8.67,0,0,1,329,89.46Z"></path><path d="M441.28,82.06c2.62-.94,53.53-2.48,58.87-1.83a9.4,9.4,0,0,1,2.1.79c0,1.65-.89,1.77-1.92,1.76-2.75,0-5.5,0-8.25,0-15.54.29-31.08.61-46.62.86C444.06,83.66,442.3,84.27,441.28,82.06Z"></path><path d="M377.31,96.78c-.81,1-1.15,1.92-1.69,2.07a18.9,18.9,0,0,1-3.92.41c-11.83.52-23.67,1-35.51,1.5a26.51,26.51,0,0,1-5.33-.43c-.45-.07-.78-.94-1.16-1.44.48-.27.95-.76,1.43-.78,1.91,0,3.83.14,5.74.07,11-.44,22-.94,33-1.39C372,96.71,374.15,96.78,377.31,96.78Z"></path><path d="M486.11,92q-8.25.3-16.49.58a4.31,4.31,0,0,1-1.76-.21,1.4,1.4,0,0,1-.74-1,1.44,1.44,0,0,1,.76-1,5.41,5.41,0,0,1,1.77-.18q16-.44,31.92-.87a11.53,11.53,0,0,1,1.44,0c.95.07,2.13.06,2.08,1.37S504,91.94,503,91.82a40.9,40.9,0,0,0-4.29-.14c-4.19,0-8.37,0-12.56,0Z"></path><path d="M321.94,37.3c-1.46,1,.8,4.09-2.82,3.75-.05-1.16-.16-2.31-.14-3.47,0-3.13,1.94-4.46,4.92-3.48a6.32,6.32,0,0,1,1.93.84,1.83,1.83,0,0,1,.68,1.43,1.68,1.68,0,0,1-1.24.89A31.32,31.32,0,0,1,321.94,37.3Z"></path><path d="M506.42,39.32c-1.27-.43-2.36-.46-2.61-.93-1.13-2.15-2.95-2.58-5.1-2.55-1.29,0-2-.54-1.85-2C502,32.55,504.46,33.8,506.42,39.32Z"></path><path d="M402.88,34.29h9.45c0,.65.06,1.29.11,2.33-2.79,0-5.4.05-8,0C403.28,36.57,403.28,36.47,402.88,34.29Z"></path><path d="M417.39,73.46c-3.21.08-6.38.18-9.56.21-.91,0-.91-.1-1.54-2.15,3.37-.18,6.66-.39,9.95-.5C417,71,417,71.2,417.39,73.46Z"></path><path d="M396.94,36.78c-2.25,0-4.5,0-6.75,0-1.12,0-1.12-.12-1.53-2.48,2.53,0,5-.09,7.46.07.48,0,.9,1,1.35,1.54C397.29,36.19,397.12,36.49,396.94,36.78Z"></path><path d="M401.25,74c-3.32,0-5.9,0-8.48-.07-.29,0-.53-.92-1-1.87a21.11,21.11,0,0,1,8.56-.29C400.56,71.85,400.71,72.73,401.25,74Z"></path><path d="M358.33,34.61h8.78c1.37,0,2,.56,1.42,2.39h-8.76C358.53,37,358.1,36.28,358.33,34.61Z"></path><path d="M344.37,72.13c4,0,7.06-.06,10.11.06.51,0,1,.85,1.49,1.3l-.3.84c-3.14,0-6.28.06-9.41-.07C345.81,74.24,345.39,73.32,344.37,72.13Z"></path><path d="M506.06,63c1.24.67,2.1.83,2.26,1.26A5,5,0,0,1,504,70.66a1.51,1.51,0,0,1-1.22-.84,1.55,1.55,0,0,1,.65-1.35C505.8,67.72,506.43,66,506.06,63Z"></path><path d="M371.27,74.52h-8.19c-1.38,0-2-.58-1.34-2.32,2.85,0,5.82-.07,8.77.06.48,0,.93.93,1.39,1.43Z"></path><path d="M377.11,72H385c1.19,0,1.74.56,1.46,2.21-2.88.08-5.83.72-8.8-.25C377.42,73.88,377.41,73.14,377.11,72Z"></path><path d="M352.63,37.06c-2.7,0-5.4.07-8.08-.07-.51,0-1-.93-1.44-1.43l.31-.83c2.68,0,5.36-.08,8,.07.52,0,1,1,1.48,1.47Z"></path><path d="M374.65,35c4.91-1.08,7.1-.81,8.55,1.39a17,17,0,0,1-8.31.17c-.14,0-.29-.37-.31-.57A5.31,5.31,0,0,1,374.65,35Z"></path><path d="M323.54,68.52c1.82,1.07,3.68,2.1,5.44,3.28.3.2.18,1,.26,1.6-3.73,0-5-.88-6.23-4.25Z"></path><path d="M431.45,33.79c2.21,0,4.43-.08,6.62.07.51,0,1,.89,1.45,1.37l-.33.83c-2.29,0-4.59.13-6.88,0-.43,0-.82-1-1.22-1.5Z"></path><path d="M422.78,71c6.22-.59,6.22-.59,6.86,1.76-2.07.42-4.12.88-6.15,0C423.14,72.64,423.08,71.81,422.78,71Z"></path><path d="M425.74,35.88c-5.68.93-6.73.73-7.68-1.52a13.33,13.33,0,0,1,7.2,0C425.51,34.48,425.54,35.21,425.74,35.88Z"></path><path d="M460.58,35.48c-4.7.79-4.9.72-5.37-1.72C459.93,32.84,460.48,33,460.58,35.48Z"></path><path d="M323.48,63.83c-1.31-.6-2.36-.77-2.45-1.17a20.77,20.77,0,0,1-.46-4.52c0-.32.77-.91,1.16-.9s.92.64,1,1.07C323,59.79,323.16,61.31,323.48,63.83Z"></path><path d="M435.31,71.09c5-1.07,6-.85,6.73,1.38C437.34,73.59,436.12,73.34,435.31,71.09Z"></path><path d="M332.18,37c.18-2.84,2.1-2.13,3.42-2.19,1.6-.08,1.61,0,2.09,2.19Z"></path><path d="M459.4,70.57c2.55.7,5.24-1.38,6.91,1.85C461.55,73.54,460.29,73.28,459.4,70.57Z"></path><path d="M480.87,70.88c5.5-.87,5.5-.87,6.23,1.44C482.65,73.43,481.53,73.2,480.87,70.88Z"></path><path d="M448,71c4.5-.89,5.21-.72,5.94,1.44C449.55,73.52,448.31,73.22,448,71Z"></path><path d="M321.64,46.68c.93,4.23.93,4.23-1,4.92C319.17,48.07,319.26,47.53,321.64,46.68Z"></path><path d="M445.07,33.86c3.75-.51,3.75-.51,4.22,1.65C445.74,36.48,445.56,36.42,445.07,33.86Z"></path><path d="M481.65,35.16c-4.81.87-5.2.76-5.7-1.42C479.73,32.82,480.17,32.91,481.65,35.16Z"></path><path d="M335.1,74.08c-.42-1.35-.12-2.19,1.34-2.13s3.29-.7,3.19,2.13Z"></path><path d="M492.42,70.41c4.27-1,4.27-1,4.84,1.47C495.57,71.88,493.64,73.41,492.42,70.41Z"></path><path d="M505.65,48.38c-.07-1.22-.13-2.24-.19-3.28,1.94-.75,2.41.27,2.56,1.74S507.29,48.59,505.65,48.38Z"></path><path d="M491.19,35.38c-3.43.37-3.43.37-3.94-2C488.8,33.62,490.83,32.19,491.19,35.38Z"></path><path d="M466.51,33.58c3.19-.31,3.19-.31,3.47,1.83C468.51,35.47,466.72,36.58,466.51,33.58Z"></path><path d="M475.23,72.9c-1.75-.06-3.49.82-3.59-1.93C473.14,70.79,474.9,69.61,475.23,72.9Z"></path><path d="M506,57.84c0-1.79-.9-3.54,1.72-3.63C508.44,57.11,508.44,57.11,506,57.84Z"></path><path d="M407.6,210.23c-.22,2.23-.51,3.93-.54,5.63q-.19,12.4-.28,24.79c0,4.43,0,8.86-.06,13.29,0,2.93-.57,3.61-3.38,4.1a24.9,24.9,0,0,1-4.64.37c-10.42-.13-20.84-.23-31.25-.51a197.47,197.47,0,0,0-33.68,1.69c-1.3.18-2.61.3-4.11.47-2.46,4.09-4.23,8.81-8.31,11.82-.56.41-1.56.23-2.82.37,0-1.65-.11-3,0-4.41,1-10.78.35-21.51-.59-32.27-.66-7.63-.85-15.3-1.3-22.95-.1-1.63.56-2.5,2.17-2.64.71-.07,1.43-.13,2.14-.14q36.64-.12,73.29-.22c3.48,0,6.95,0,10.42.11A18.06,18.06,0,0,1,407.6,210.23Zm-88.43,2.32c.57,9.55,1.24,18.74,1.64,27.94s.53,18.2.77,27.3a31.66,31.66,0,0,0,4.8-7.19,5.37,5.37,0,0,1,4.63-3.29,220.64,220.64,0,0,1,33.69-1.84c10.66.26,21.32.41,32,.52,2.35,0,4.72-.29,7.41-.48v-3.78c0-3.36,0-6.71.06-10.07.15-8.14.41-16.28.5-24.43,0-5-.06-5.06-5-5q-39.19.07-78.37.2C320.75,212.38,320.17,212.47,319.17,212.55Z"></path><path d="M436.45,256.18h-19c-4.66,0-5.18-.3-5.26-5.06-.15-9,0-18,0-26.93,0-3.33-.11-6.66-.16-10a2.17,2.17,0,0,1,2.37-2.49c2-.06,4.07-.23,6.1-.23q17.06,0,34.11.1c2.24,0,2.65.29,3.09,3.07.87,5.43,1.69,10.87,2.26,16.34.61,5.83.9,11.69,1.32,17.54a19.28,19.28,0,0,1,0,2.15c-.2,4-.59,4.49-4.67,4.54-6.7.08-13.4,0-20.1,0Zm21-17.51.69-.32c-.84-8.08-1.31-16.2-3.22-24.28-3.12,0-6,0-8.84,0-8.61-.05-17.22-.15-25.84-.17-1.73,0-3.47.29-5.38.46-.06,9-.45,17.61.14,26.26a36.45,36.45,0,0,0,3.58-4.17c2.39-3,3.63-3.06,6.31-.29,1.39,1.44,2.66,3,4.26,4.78l9.38-8.15c5.41-4.68,4.42-5.44,10.89-.5C452.12,234.36,454.76,236.54,457.43,238.67Zm-35.73-2.23a76.1,76.1,0,0,1-4.74,6.24c-3,3.24-2.61,6.86-1.82,10.94,14.56-.36,29-.09,43.3-1.06.89-9,.89-9-5.67-14.39-1-.84-2-1.7-3-2.5-1.88-1.43-3.78-2.83-5.68-4.24-.87.66-1.45,1.06-2,1.52-3.26,2.82-6.43,5.73-9.75,8.47-3.16,2.61-4.07,2.44-6.81-.69C424.34,239.4,423.16,238.09,421.7,236.44Z"></path><path d="M457,284.47a9.34,9.34,0,0,1-2.33.88c-2.26.2-4.54.3-6.82.31q-62,.43-124.06.81a24.3,24.3,0,0,1-3.91-.36,1.35,1.35,0,0,1-.7-1.06,1.4,1.4,0,0,1,.8-1,5.21,5.21,0,0,1,1.77-.17c11.74,0,23.49.06,35.24,0q41.36-.21,82.7-.54c4.68,0,9.35-.31,14-.41C454.81,282.93,456.19,282.41,457,284.47Z"></path><path d="M431.21,302.57a281.11,281.11,0,0,0-33.64-1.64c-22.17-.06-44.35.06-66.52.09-1.8,0-3.6-.06-5.39-.13a5,5,0,0,1-2.1-.33c-.51-.27-.78-1-1.15-1.52.57-.3,1.15-.86,1.72-.86,9.7,0,19.39.15,29.09.23,21.33.17,42.66.3,64,.55,4.06.05,8.12.55,12.17,1C430.66,300.05,432.1,300.39,431.21,302.57Z"></path><path d="M134.15,245.21a31.52,31.52,0,0,1,2-9.31,1.63,1.63,0,0,1,3.06-.37,37.24,37.24,0,0,1,3.25,6.27c.56,1.31-.32,2.33-1.5,2.84A9.52,9.52,0,0,1,134.15,245.21Zm6.07-2.81c-.72-1.47-1.26-2.59-2.18-4.49l-1,5.15Z"></path><path d="M327.23,222.05a14.35,14.35,0,0,1,2.35-.57c11.49-.39,23-.62,34.47-1.17,8.49-.41,17-1.25,25.44-1.88,1.13-.08,2.72-.53,2.77,1.21,0,1.41-1.49,1.24-2.52,1.32-19.11,1.4-38.22,2.93-57.4,3a19.37,19.37,0,0,1-3.57-.25C328.35,223.6,328,222.93,327.23,222.05Z"></path><path d="M332,231.14c2.95-.23,5.53-.52,8.12-.63q23.46-1.06,46.93-2c1.13-.05,2.43-.4,3,1.23-.7,1.57-2.15,1.29-3.39,1.34-12.89.52-25.79,1-38.69,1.54-4.18.18-8.35.49-12.53.67C334.14,233.3,332.69,233.59,332,231.14Z"></path><path d="M349.62,242.57c-.44.53-.84,1.47-1.34,1.52-4.64.49-9.29.84-13.94,1.14-.4,0-.85-.61-2-1.52A7.74,7.74,0,0,1,334,243c5.06-.45,10.13-.87,15.2-1.29C349.36,242,349.49,242.3,349.62,242.57Z"></path><path d="M433.37,224.91c-.26,3.3-3.68,6.34-6.85,6.09a5.94,5.94,0,0,1-5.33-6.11c.19-3.56,2.5-5.89,5.55-5.6C431,219.7,433.6,221.93,433.37,224.91Zm-6.28-3.1a3.11,3.11,0,0,0-3.5,3.14,3.42,3.42,0,0,0,3,3.43,4,4,0,0,0,4.21-3.48C430.86,223.3,429.35,222,427.09,221.81Z"></path></svg>