<svg xmlns="http://www.w3.org/2000/svg" xmlns:xlink="http://www.w3.org/1999/xlink" width="335" height="285" viewBox="0 0 335 285"><defs><clipPath id="clip-path"><rect id="Rectangle_731" data-name="Rectangle 731" width="335" height="285" transform="translate(-5305 -12202)" fill="#fff" stroke="#707070" stroke-width="1"></rect></clipPath><clipPath id="clip-path-2"><rect id="Rectangle_574" data-name="Rectangle 574" width="195.859" height="285" transform="translate(608.502 -5620.066)" fill="#fff" opacity="0.66"></rect></clipPath><clipPath id="clip-path-3"><rect id="Rectangle_571" data-name="Rectangle 571" width="451.982" height="451.982"></rect></clipPath></defs><g id="Mask_Group_6" data-name="Mask Group 6" transform="translate(5305 12202)" clip-path="url(#clip-path)"><g id="Mask_Group_4" data-name="Mask Group 4" transform="translate(-5843.932 -6581.934)" clip-path="url(#clip-path-2)"><g id="Consultation_Partner" data-name="Consultation Partner" transform="translate(480.441 -5703.767)" clip-path="url(#clip-path-3)"><path id="Path_26459" data-name="Path 26459" d="M1520.527,242.156s-.328-29.114,2.647-28.227c1.458.434,18.933-1.552,36.132-1.657a165.607,165.607,0,0,1,33.976,3.683s.432,55.949,0,65.291c-.031.673,1.113,1.352,1.046,1.387-.421.213-16.531-.594-33.15,0-17.67.632-35.925,0-35.925,0V244.957Z" transform="translate(-1299.031 -51.733)" fill="#255959" stroke="#707070" stroke-width="0.419"></path><path id="Path_26460" data-name="Path 26460" d="M1539.716,258.992c1.176.346,8.44-25.943,8.44-25.943l25.943,2.421-8.3,27.326Z" transform="translate(-1299.031 -52.731)" fill="#fff" stroke="#707070" stroke-width="0.419"></path><path id="Path_26458" data-name="Path 26458" d="M1549.952,233.695s-1.858-6.148,1.6-5.719,24.494,2.286,24.494,2.286l-2.326,5.722Z" transform="translate(-1309.912 -19.963)" fill="#e6e6e6"></path><path id="Path_26457" data-name="Path 26457" d="M1549.94,233.43s-1.815-5.865,1.564-5.456,23.92,2.18,23.92,2.18v4.708Z" transform="translate(-1299.031 -52.731)" fill="#e6e6e6"></path><g id="Path_26456" data-name="Path 26456" transform="translate(132.725 195.533)"><path id="Path_971" data-name="Path 971" d="M88.564,82.98H.209V.072l43.119-3.95L88.564.073Z" fill="#eb5a51"></path><path id="Path_972" data-name="Path 972" d="M43.329-3.667.419.264V82.771H88.355V.265L43.329-3.669m0-.419L88.773-.118V83.189H0V-.118Z" fill="#707070"></path></g><path id="Path_26455" data-name="Path 26455" d="M1431.755,404.522l106.392-69.564,22.8-3.507L1585,333.187l18.33,5.534-29.055,24.213-41.506,36.32s-25.6,22.139-49.809,18.679a166.927,166.927,0,0,0-45.313,0Z" transform="translate(-1301.542 -49.802)" fill="#eac869"></path><path id="Path_26417" data-name="Path 26417" d="M918.361,228.207c-3.39,2.971-6.66,5.878-9.98,8.733-3.628,3.122-7.324,6.178-10.955,9.3-3.274,2.814-6.494,5.678-9.744,8.517-2.915,2.547-5.759,5.172-8.78,7.612-4.031,3.256-7.987,6.633-12.544,9.278a67.017,67.017,0,0,1-14,6.493c-3.114.954-6.187,2.024-9.316,2.925-1.988.574-4.039.982-6.082,1.373-2.189.419-4.4.734-6.606,1.092a1.761,1.761,0,0,1-.2,0c-1.984.119-3.966.282-5.952.351a124.69,124.69,0,0,1-12.844.288c-6.068-.421-12.137.056-18.175-.354-2.846-.193-5.707-.007-8.511-.335-2.731-.322-5.536-.238-8.194-1.029a7.667,7.667,0,0,1-5.293-4.735c-.7-1.885-.394-3.85-.2-5.836.167-1.705,1.743-2.978,1.359-4.735,1.039-1.015,2.073-2.035,3.126-3.037.209-.2.524-.313.75-.506,2.183-1.86,4.313-3.774,6.545-5.581,2.528-2.047,5.145-4,7.725-5.991,1.7-1.315,3.432-2.605,5.094-3.962a2.009,2.009,0,0,0,.761-1.3c.012-1.218-.185-2.436-.284-3.654-.042-.529-.065-1.063-.065-1.594q-.006-19.428-.02-38.857c0-1.51-.26-3.019-.369-4.528-.03-.4-.113-.945.122-1.2.485-.522-.11-.694-.288-.761a6.028,6.028,0,0,0-1.775-.421c-1.593-.088-3.171-.072-4.776-.318-2.268-.349-4.615-.279-6.924-.426a18.859,18.859,0,0,1-3.567-.4,3.063,3.063,0,0,1-1.686-1.3,7.742,7.742,0,0,1-.819-2.558c-.463-2.58-.694-5.18-.911-7.788-.118-1.446-.057-2.922-.316-4.352-.446-2.465-.055-4.976-.456-7.4-.341-2.073-.1-4.116-.318-6.158-.675-6.239-.03-12.507-.438-18.738-.7-10.627-.111-21.252-.319-31.876-.024-1.267.26-2.537.365-3.808a1.925,1.925,0,0,0-.518-1.614c-.7-.77-.113-1.868.99-2.148a10.138,10.138,0,0,1,1.611-.351c1.783-.15,3.569-.276,5.357-.366,2.836-.141,5.711-.031,8.5-.419,3.441-.48,6.869-.149,10.3-.316.331-.016.929-.164.939-.28.057-.753-.625-.312-.978-.428-1.832-.6-3.648-1.243-5.5-1.79a33.108,33.108,0,0,1-7.194-3.259,23.628,23.628,0,0,1-3.644-2.375,41.329,41.329,0,0,1-8.45-9.377,58.091,58.091,0,0,1-5.066-10.5,34.76,34.76,0,0,1-1.069-4.455,11.658,11.658,0,0,1-.371-2.009,6.55,6.55,0,0,1,.341-1.3,18.629,18.629,0,0,0,.4-2.72c.059-2.037.057-4.078.01-6.116a31.889,31.889,0,0,1,2.152-11.068,52.169,52.169,0,0,1,3.63-8.334c2.085-3.761,4.22-7.529,7.331-10.73,1.392-1.433,2.587-3.04,4.074-4.38a43.047,43.047,0,0,1,10.458-7.351,35.763,35.763,0,0,1,8.837-3.112c2.613-.46,5.2-1.086,7.831-1.4a42.632,42.632,0,0,1,7.52-.347,39.408,39.408,0,0,1,11.288,2.453A101.747,101.747,0,0,1,842.514,20.5a37.324,37.324,0,0,1,7.34,4.687c1.986,1.654,4.07,3.211,6.072,4.849a18.914,18.914,0,0,1,3.976,4.61,3.111,3.111,0,0,0,.635.562c.047-.222.089-.445.144-.665.26-1.04.59-2.071.777-3.122.7-3.9,2.489-7.449,4.384-10.936a31.849,31.849,0,0,1,5.292-7.175c1.337-1.358,2.623-2.768,4.057-4.037A36.4,36.4,0,0,1,886.439,2.8,72.176,72.176,0,0,1,895.4.4a15.915,15.915,0,0,1,4.554-.362A45.234,45.234,0,0,1,906.3.809a32.575,32.575,0,0,1,7.342,2.058c2.611,1.192,5.3,2.249,7.853,3.539a36.66,36.66,0,0,1,5.381,3.33c2.508,1.876,4.952,3.808,6.411,6.606,1.519,2.912,3.41,5.662,4.946,8.569a27.075,27.075,0,0,1,2.583,7.852,36.843,36.843,0,0,1,.315,5.441,28.2,28.2,0,0,1-1.323,7.776,42.2,42.2,0,0,1-3.962,10.005c-1.412,2.588-2.729,5.311-4.938,7.494-1.846,1.826-3.615,3.731-5.6,5.419a19.76,19.76,0,0,1-5.336,3.41,3.111,3.111,0,0,1-1.6.339c-1.862-.385-3.38.379-4.944,1.035-.753.315-1.481.674-2.221,1.014.832.048,1.666.133,2.5.136,4.272.014,8.545-.032,12.817.023,2.183.028,4.362.206,6.541.356a11.969,11.969,0,0,0,1.609.322,4.618,4.618,0,0,1,3.945,1.406c.741.728,2.063.935,3.023,1.514,2.7,1.624,5.634,2.925,7.983,5.016,4.347,3.871,8.83,7.624,13.03,11.621,2,1.9,1.834,4.425.714,6.769a33.284,33.284,0,0,1-6.113,8.486c-2.347,2.463-4.6,5-6.995,7.421-1.674,1.689-3.536,3.219-5.273,4.857-.887.837-1.619,1.818-2.54,2.621-.621.54-.992,1.374-2.106,1.444-.814.051-.785.771-.781,1.376.012,2.7,0,5.4,0,8.1s-.024,5.4.018,8.1a2.519,2.519,0,0,1-.655,1.565c-1.542,2.183-4.007,2.26-6.385,2.4-3.557.212-7.119.282-10.681.372-.925.023-1.3.377-1.227,1.187.128,1.33.241,2.661.4,3.988.081.675.335,1.339.371,2.011a92.516,92.516,0,0,0,.489,9.374c.416,2.671.1,5.312.321,7.956.56,6.84.365,13.691.377,20.541,0,.8.152,1.23,1.211,1.407,4.5.747,8.926,1.833,13.444,2.55a17.5,17.5,0,0,1,5.959,1.612c1.536.862,2.347,2.141,1.818,3.568a8.868,8.868,0,0,1-2.347,3.611c-1.442,1.3-2.867,2.612-4.3,3.92-1.813,1.653-3.607,3.323-5.441,4.957-4.816,4.293-9.647,8.569-14.574,12.943m-141.7-82.678c.158,2.469.026,4.927.306,7.413.46,4.116.323,8.286.5,12.43a41.29,41.29,0,0,0,.3,5.8c.395,2.176.126,4.441.426,6.678.361,2.682.3,5.411.457,8.117.077,1.272.241,2.54.388,3.808.2,1.689.556,1.952,2.333,2,1.988.052,3.97.133,5.956.268,3.895.264,7.8.377,11.693.79,1.712.18,3.435.119,5.167.293,3.135.313,6.336.34,9.488.362,7.1.047,14.209.261,21.33-.2,5.985-.387,12.011-.079,18.007-.747,3-.335,6-.532,8.971-1.1a2.021,2.021,0,0,0,1.83-1.561c.463-2.118.9-4.244,1.172-6.387.174-1.36-.01-2.755.049-4.131.03-.673.56-1.468.31-1.982a5.428,5.428,0,0,1-.3-2.756c.051-1.93.386-3.861.339-5.786-.114-4.687,0-9.367-.264-14.062-.529-9.526.247-19.084-.452-28.623a98.4,98.4,0,0,1,0-10.786,19.727,19.727,0,0,0-.891-4.907,1.923,1.923,0,0,0-1.935-1.447,71.625,71.625,0,0,1-7.333-.315c-3.209-.329-6.445-.014-9.7-.322-4.246-.4-8.561-.27-12.838-.347-7.362-.131-14.745-.445-22.115.232-4,.367-8.03-.176-12.063.335-3.187.4-6.445-.013-9.693.357-3.457.393-6.979.324-10.474.407-.986.023-1.45.359-1.347,1.256a28.483,28.483,0,0,1,.377,3.089c.028,10.491.016,20.981.016,31.832m24.454,102.91a1.755,1.755,0,0,0-.811,1.677c.175,4.507.268,9.017.43,13.524a2.277,2.277,0,0,0,1.682,2.249,15.977,15.977,0,0,0,3.447,1.13c.554.054,1.043.673,1.562,1.036a11.593,11.593,0,0,1-1.381,1.061c-2.465,1.376-4.771.39-6.928-.635a3.153,3.153,0,0,1-1.949-2.641c-.12-2.949-.238-5.9-.4-8.846-.081-1.452-.254-2.9-.386-4.349-.049-.549-.365-.568-.753-.273-.935.707-1.852,1.432-2.769,2.159-2.079,1.65-4.057,3.422-6.252,4.933a68.558,68.558,0,0,0-8.417,7.038,7.891,7.891,0,0,0-2.7,7.061,4.082,4.082,0,0,0,2.8,3.4,33.969,33.969,0,0,0,9.8,1.849c2.041.18,4.126.306,6.145.3,7.569-.009,15.15.5,22.715-.255,2.1-.209,4.222-.1,6.35-.311,3.662-.371,7.376-.354,11.069-.416a57.745,57.745,0,0,0,9.545-.68,44.128,44.128,0,0,0,7.729-2.118,61.687,61.687,0,0,0,13.213-7.366c2.927-2.031,5.76-4.176,8.553-6.356,3.465-2.706,6.859-5.482,10.253-8.263,1.978-1.619,3.913-3.284,5.835-4.958,3.493-3.04,6.95-6.113,10.444-9.15,1.258-1.094,2.595-2.116,3.873-3.188,3.384-2.835,6.8-5.642,10.125-8.532q6.6-5.729,13.079-11.579,3.946-3.578,7.661-7.362a12.345,12.345,0,0,0,3.108-4.935,2.327,2.327,0,0,0-.11-1.61c-.615-1.823-2.365-2.011-3.855-2.31-3.163-.635-6.388-1.02-9.594-1.47-.426-.059-.84-.835-1.282-.129a2.572,2.572,0,0,0-.341,1.3c-.032,2.28-.059,4.559.006,6.837a4.82,4.82,0,0,1-.8,2.767c-.864,1.391-3.321,2.834-4.65,2.5a2.046,2.046,0,0,1-1.231-.775c-.242-.466.272-.734.74-1.024,2.339-1.452,3.824-3.338,3.574-6.1-.121-1.31-.018-2.637-.022-3.956-.006-1.972-.449-2.409-2.556-2.511a2.9,2.9,0,0,1-.783-.013c-2.7-1-5.608-.847-8.4-.989a69.264,69.264,0,0,0-15.639.65c-1.751.309-3.495.684-5.2,1.135-.876.23-1.528.725-1.369,1.784.132.883-.042,1.8.042,2.693a31.766,31.766,0,0,0,.249,4.014,3,3,0,0,1-1.037,3.139c-.463.327-.816.784-1.268,1.13a4.562,4.562,0,0,1-3.39,1.184c-.446-.056-1.148-.322-1.2-.586a1.674,1.674,0,0,1,.43-1.4,13.025,13.025,0,0,1,1.982-1.232,2.621,2.621,0,0,0,1.451-2.1q.062-2.788,0-5.575c-.02-.8-.607-1.146-1.423-.887a15.766,15.766,0,0,0-2.159.885q-6.286,3.106-12.548,6.243c-3.646,1.817-7.36,3.532-10.915,5.482-4.126,2.26-8.123,4.715-12.144,7.132-.489.293-1.055.633-1.043,1.385.033,2.234-.3,4.478-.3,6.687.026,11.944-.507,23.894.308,35.833.079,1.15.519,1.643,1.8,1.765a6.423,6.423,0,0,0,1.379,0c.83-.1,1.11.542,1.518.948.075.076-.4.64-.659.955-.7.862-1.81.941-2.83,1.139-2,.389-4.163-.819-4.366-2.472-.215-1.765-.676-3.515-.743-5.282-.136-3.489-.193-6.977-.355-10.467-.27-5.806-.116-11.631-.057-17.448.03-2.83.254-5.658.365-8.486a3.769,3.769,0,0,0-.217-.975,5.712,5.712,0,0,0-1.189.414c-1.29.8-2.546,1.639-3.814,2.465-2.385,1.548-4.794,3.071-7.153,4.654-3.181,2.134-6.313,4.332-9.487,6.477-3.416,2.308-6.857,4.584-10.288,6.874-1.967,1.313-3.934,2.629-6.1,4.124M862.253,45.868c0-.24.093-.524-.014-.714a46.838,46.838,0,0,0-3.9-6.631c-1.883-2.367-3.416-4.976-5.851-6.947-1.816-1.469-3.644-2.93-5.534-4.317-1.781-1.307-3.368-3.02-6.019-2.8-.106.008-.217-.094-.331-.129q-3.55-1.083-7.1-2.163a40.083,40.083,0,0,0-8.933-2.087,16.9,16.9,0,0,1-3.376-.335c-2.958-.856-5.871-.167-8.747.119a41.885,41.885,0,0,0-6.879,1.73A42.826,42.826,0,0,0,788.065,31.2a58.519,58.519,0,0,0-5.563,5.809,62.99,62.99,0,0,0-4.242,5.943,34.671,34.671,0,0,0-4.37,9.859,31.2,31.2,0,0,0-1.584,8.579,46.661,46.661,0,0,0,.8,10.314,20.5,20.5,0,0,0,3.071,7.462c.647.9.515,1.326-.221,1.9-.586.46-.657.87-.14,1.5a18.816,18.816,0,0,1,1.632,2.611,29.415,29.415,0,0,0,10.627,10.653,42.81,42.81,0,0,0,12.54,4.938,107.724,107.724,0,0,0,10.608,1.879c2.53.315,5.078-.051,7.595.551,1.146.274,2.5-.293,3.759-.269a46.243,46.243,0,0,0,8.983-1.059,40.859,40.859,0,0,0,12.783-4.005,33.188,33.188,0,0,0,8.638-6.933,42.237,42.237,0,0,0,6.877-10.507c1.767-3.78,3.729-7.5,4.483-11.617a32.59,32.59,0,0,0,1.009-4.81c.073-2.883-.205-5.775-.335-8.663a1.549,1.549,0,0,0-.006-.359c-.848-2.976-1.7-5.949-2.757-9.1m9.269,17.811a2.986,2.986,0,0,1,.8.391c3.674,3.552,8.312,5.643,13.211,7.376a38.9,38.9,0,0,0,9.4,2.239,28.033,28.033,0,0,0,12.164-1.335c3.9-1.4,7.934-2.493,11.88-3.79.753-.247,1.309-.354,1.9.194a.634.634,0,0,0,.532.113c1.13-.869,2.272-1.725,3.321-2.669a29.373,29.373,0,0,0,2.238-2.385c.793-.892,1.594-1.783,2.319-2.72a49.215,49.215,0,0,0,5.141-8.842,41.565,41.565,0,0,0,3.907-14.337c.084-.892-.347-1.816-.343-2.725.008-3.427-1.471-6.487-2.9-9.52-1.2-2.547-2.8-4.934-4.22-7.4a17.315,17.315,0,0,0-6.047-6.289c-3.717-2.248-7.4-4.57-11.641-6.026A45.673,45.673,0,0,0,901.659,3.6c-4.211-.313-8.227.677-12.183,1.805a30.854,30.854,0,0,0-11.192,5.712c-1.457,1.191-2.8,2.5-4.165,3.784a32.736,32.736,0,0,0-4.877,6.246c-3.415,5.282-5.011,11.119-6.182,17.077a1.841,1.841,0,0,0,.2.994c.911,2.172,1.952,4.3,2.753,6.509a34.851,34.851,0,0,1,2.55,11.8c0,1.139-.357,2.419.1,3.377.487,1.023,1.744,1.74,2.86,2.771m59.162,82.039c1.984-.12,3.966-.27,5.952-.342.637-.023.593-.343.55-.693-.112-.912-.335-1.818-.371-2.73-.063-1.557.038-3.12-.03-4.676-.1-2.23.337-4.478-.349-6.7-.142-.458-.209-.576-.742-.741-1.029-.32-2.28-.558-2.451-1.892a3.2,3.2,0,0,1,1.678-3.641c1.406-.643,1.467-1.531,1.5-2.692.2-7.025-.442-14.058.347-21.081a76.108,76.108,0,0,0,.4-8.483c0-2.888-.213-5.778-.377-8.663a36.363,36.363,0,0,0-.419-4.164c-.1-.6-.369-1.291-1.423-1.176a4.1,4.1,0,0,1-2.065-.19,6.265,6.265,0,0,0-2.93-.507c-12.629.222-25.266-.4-37.893.341-5.654.331-11.332-.325-17,.344-2.808.332-5.67.306-8.507.382a1.863,1.863,0,0,0-1.984,1.46,28.839,28.839,0,0,0-1.456,8.956c-.254,5.327-.039,10.672-.1,16.007a1.8,1.8,0,0,0,1.207,1.895,6.164,6.164,0,0,1,1.958,1.722c1.255,1.587,1.783,3.539,3.165,5.106a56.8,56.8,0,0,1,4.327,5.733c1.286,1.894,2.385,3.892,3.577,5.839a2.764,2.764,0,0,0,.426.434,1.859,1.859,0,0,0,.349-.5c.424-1.581.712-3.2,1.252-4.747,1.994-5.718,4.062-11.415,6.116-17.117,1.083-3.007,2.106-6.036,3.321-9,.785-1.915,1.875-3.734,4.413-4.17a17.373,17.373,0,0,1,3.15-.424,83.328,83.328,0,0,1,9.88.412c2.532.343,5.1.531,7.6,1.011a25.392,25.392,0,0,1,2.828.721,2.19,2.19,0,0,1,1.651,2.26,20.683,20.683,0,0,1-.422,5.056,68.822,68.822,0,0,1-4.53,12.491.872.872,0,0,0,.236,1.24,3.845,3.845,0,0,1,1.16,1.176,3.223,3.223,0,0,1-1.988,4.194,3.9,3.9,0,0,0-2.688,3.094,36.285,36.285,0,0,1-4.374,10.4c-1.292,2.163-2.663,2.605-5.463,2.21-1.187-.167-2.3-.209-3.222,1.14A110.489,110.489,0,0,1,890,143.9a5.633,5.633,0,0,1-2.672,1.417c-1.493.424-2.282-.775-2.943-1.624-1.745-2.247-3.218-4.67-4.95-6.929a113.459,113.459,0,0,1-7.267-11.655c-1.268-2.143-3.02-4.086-3.617-6.547-.022-.093-.327-.2-.473-.175a.486.486,0,0,0-.284.358,9.356,9.356,0,0,0-.012,1.078,107.927,107.927,0,0,0,.351,10.828,63.978,63.978,0,0,1,.042,6.652c0,2.578.012,5.157-.008,7.735,0,.557-.01,1.158.614,1.368a7.977,7.977,0,0,0,2.193.372c3.625.149,7.251.354,10.878.343,3.23-.01,6.452.065,9.7-.251,4.51-.44,9.081.1,13.637-.391,3.725-.4,7.5.042,11.277-.329,4.573-.447,9.215-.318,14.221-.438m-39.446,4.314c-2.244.12-4.489.279-6.738.338-.75.019-1.014.146-.968.876.265,4.262-.247,8.527.331,12.806.388,2.873.432,5.8.837,8.689.233,1.674.136,3.371.351,5.071.393,3.1.321,6.249.473,9.374.1,2.17.251,4.338.4,6.5a1.091,1.091,0,0,0,.243.619.748.748,0,0,0,.54.146c1.826-.167,3.68-.218,5.469-.56a38.4,38.4,0,0,1,7.565-.693,122.959,122.959,0,0,1,12.848.362c.257.029.518.007.773.038q2.7.337,5.405.686c.8.1,1.124-.122,1.088-.932-.109-2.349-.116-4.692-.347-7.049-.444-4.487.288-9.013-.422-13.52-.365-2.318.047-4.683-.365-7.05-.4-2.3-.079-4.681-.4-7.042a79.294,79.294,0,0,1-.432-9.017c-.016-.721-.313-.784-.923-.732-1.52.13-3.043.266-4.567.358-2.244.136-4.481.024-6.747.286-3,.347-6.062.032-9.1.4a46.951,46.951,0,0,1-5.319.035m-51.269,47.5a12.134,12.134,0,0,0-2.2-.34c-2.9.07-5.8.335-8.7.317-6.709-.047-13.418-.218-20.125-.335-.264-.005-.592.094-.779-.016-1.209-.7-2.53-.2-3.786-.34s-2.514-.308-3.777-.347c-1.321-.042-1.446.1-1.446,1.308,0,1.932.215,3.863.312,5.784.326,6.592.387,13.195.454,19.8.065,6.41.014,12.819.014,19.229a4.755,4.755,0,0,0,.02,1.074,4.119,4.119,0,0,0,.455.9,4.131,4.131,0,0,1,.58-.606c.894-.622,1.83-1.194,2.711-1.83,2.625-1.893,5.186-3.863,7.859-5.7,3.238-2.218,6.575-4.32,9.846-6.5,2.678-1.783,5.3-3.629,7.989-5.4,3.124-2.065,6.26-4.12,9.464-6.077.4-.246.507-.377.518-.727.069-1.99.15-3.976.313-5.966.38-4.667.343-9.361.276-14.222m14.2,11.514c.483-.241.982-.457,1.445-.723,3.382-1.956,6.828-3.832,10.119-5.91a68.443,68.443,0,0,1,11.14-5.426c1.219-.491,2.508-.837,3.766-1.256a6.827,6.827,0,0,0,2.093-.748c.74-.6.517-1.439.042-2.186-.057-.09,0-.236-.008-.354a54.924,54.924,0,0,0-.335-7.41c-.41-2.306.1-4.681-.391-7.043-.386-1.878-.106-3.839-.377-5.782-.318-2.285-.529-4.591-.826-6.888a73.461,73.461,0,0,1-.424-7.4c-.065-2.275-.012-4.554-.014-6.831,0-.339.12-.687-.532-.711-1.852-.075-3.7-.224-5.551-.344-1.59-.1-3.2.234-4.771-.335-.625-.227-1.043.008-1,.8.219,3.662-.377,7.35.414,10.995-.293,9.008.747,18.052-.816,27.021a8.069,8.069,0,0,1-1.5,4.1,9.34,9.34,0,0,1-4.22,2.407c-3.735,1.324-7.725,1.256-11.6,1.761-2.218.288-4.484.293-6.731.374-.57.022-.848.113-.767.684a19.418,19.418,0,0,1,.377,3.086c-.079,4.266-.249,8.529-.363,12.794a16.854,16.854,0,0,0,.126,1.747c.5-.3,1-.6,1.511-.9.1-.059.236-.067.335-.126,2.891-1.736,5.78-3.476,8.865-5.394m99.787-99.311c.791-.963,1.619-1.9,2.363-2.888,1.8-2.4,3.859-4.67,4.76-7.552.183-.586.327-1.058-.174-1.606-.55-.6-.837-1.413-1.432-1.96a108.991,108.991,0,0,0-11.927-10.183c-2.392-1.646-4.836-3.232-7.265-4.834-.448-.3-.758-.158-.711.349.1,1.151.377,2.3.367,3.448q-.154,19.078-.377,38.155,0,.09,0,.18c.039.524.081,1.048.12,1.573a14.729,14.729,0,0,1,.982-1.107c1.193-1.115,2.436-2.187,3.611-3.318,1.15-1.107,2.26-2.248,3.348-3.409,2.063-2.21,4.094-4.445,6.334-6.85M891.643,98.225c-.808-.042-1.147.209-1.426,1.022-1.615,4.717-3.39,9.387-5.074,14.086-.963,2.7-1.866,5.413-2.749,8.133-.142.434-.167.918.72.888a26.94,26.94,0,0,1,5.364.293,56.188,56.188,0,0,0,5.743.4,3.505,3.505,0,0,1,.586.015,20.5,20.5,0,0,0,5.593.687,1.709,1.709,0,0,0,1.158-.431,53.353,53.353,0,0,0,3.2-4.721c.8-1.385,1.2-2.966,2.534-4.078.134-.112.3-.272.31-.416.073-1.25,1.13-1.578,2.154-1.823.67-.16,1.059-.374,1.014-1.028-.1-1.465.623-2.756,1.075-4.093.862-2.546,1.844-5.058,2.765-7.587.321-.879.243-.975-.852-.989-5.074-.064-10.148.142-15.218-.329-2.147-.2-4.334-.033-6.9-.033m-49.5,5.217c-1.242.3-2.493.583-3.725.915-.223.059-.381.317-.568.483a2.092,2.092,0,0,0,.6.213c3.1.1,6.194.061,9.3.289,3.761.276,7.565.1,11.3.8.606.113,1.211.231,1.814.347-.061-.575-.146-1.148-.177-1.723-.142-2.469-.323-4.935-.385-7.4-.067-2.637-.016-5.273-.016-7.913,0-.48-.022-.963.012-1.438a1.653,1.653,0,0,1,.251-.521c-.225.046-.54.022-.654.15-.31.344-.519.76-.793,1.132a43.755,43.755,0,0,1-3.871,5.17,63.361,63.361,0,0,1-6.79,5.855,23.965,23.965,0,0,1-6.3,3.646m30.567-27.886c1.446,0,2.888.01,4.335-.005.44,0,.881-.11,1.323-.111,2.285,0,4.573.015,6.861.02a6.742,6.742,0,0,0,.672-.063c-.152-.187-.26-.46-.46-.544-1.214-.508-2.437-1-3.676-1.45a32.531,32.531,0,0,1-12.43-7.761,2.656,2.656,0,0,0-.418-.377c-.432-.289-.682-.209-.744.309-.114.97-.27,1.936-.387,2.907A19.249,19.249,0,0,1,866,74.811c-.422.846.038.749.611.749h6.106m28.4,20.152q4.843.18,9.683.365c.242.01.481.11.726.13,1.016.084,2.033.2,3.049.207a.869.869,0,0,0,.942-1.058c-.061-.666.293-1.512-.742-1.785a13.6,13.6,0,0,0-2.394-.367c-1.911-.149-3.828-.251-5.743-.367-.26-.016-.609.1-.773-.018-1-.714-2.14-.19-3.2-.335a30.746,30.746,0,0,0-3.382-.342,13.737,13.737,0,0,0-2,.329c-1.124.143-2.26.207-3.378.377-1.487.224-1.923.707-2.061,2.057-.057.559.014.85.807.834,2.69-.056,5.381-.022,8.466-.022m-19.918,30.045a13.2,13.2,0,0,1-.811,2.022c-.456.773-.1.973.653,1.036,1.451.121,2.9.234,4.356.362a32.2,32.2,0,0,1,3.763.383,56.415,56.415,0,0,0,6.754.692,1.309,1.309,0,0,0,1.5-.758,24.343,24.343,0,0,1,2.071-2.809c.053-.072-.061-.364-.126-.372-1.187-.141-2.374-.3-3.569-.367-2.629-.149-5.267-.19-7.892-.39-1.605-.123-3.185-.492-4.788-.682-.68-.081-1.456-.192-1.915.883m.394,6.477q2.29,4.247,4.583,8.493c.26.48.576.935.864,1.4a9.385,9.385,0,0,0,1.59-1.232c1.893-2.26,3.727-4.564,5.569-6.861a4.164,4.164,0,0,0,.395-.736,2.864,2.864,0,0,0-.711-.159,46.576,46.576,0,0,1-9.308-.723,13.212,13.212,0,0,0-2.984-.185m20.9-1.079c.87-1.272,1.747-2.539,2.595-3.823.1-.154.136-.494.031-.586a3.719,3.719,0,0,0-3.013.454q-.831,1.37-1.582,2.781c-.684,1.289-.649,1.328.8,1.353a3.013,3.013,0,0,0,1.172-.179m2.17-7.736c-.868,1.044.4,1.25.87,1.376.578.157.952-.379.923-1.021a2.193,2.193,0,0,1,.264-.79c.5-1.3,1.025-2.6,1.507-3.911.073-.2-.047-.46-.079-.692a3.665,3.665,0,0,0-.517.527c-.933,1.438-1.848,2.888-2.966,4.511m37.075,79.522c.17-.327.544-.718.454-.963a1.639,1.639,0,0,0-.947-.8c-.312-.108-.95-.259-.9.488.047.646-.042,1.3.03,1.941.049.408-.976.716-.13,1.088.121.052.608-.527.879-.847.182-.212.28-.48.611-.9m-165.46,76.088-1.183-.329a3.874,3.874,0,0,0,.759.851,6.116,6.116,0,0,0,1.6.714,3.359,3.359,0,0,0,1.107-.077,6.18,6.18,0,0,0-.9-.608c-.367-.171-.785-.251-1.379-.55m133.511-163.18.889-.09c-.154-.2-.262-.5-.471-.579C909.744,115,909.523,115.226,909.782,115.851Z" transform="translate(-640.335 84.034)"></path><path id="Path_26435" data-name="Path 26435" d="M949.833,135.055c-.329.3-.558.517-.8.724a2.687,2.687,0,0,1-4.449-1.04,6.417,6.417,0,0,1-.548-2.3,35.77,35.77,0,0,1,.025-6.1,24.977,24.977,0,0,1,2.877-9.49,7.409,7.409,0,0,1,1.674-1.866,2.034,2.034,0,0,1,1.347-.321c.607.9,1.733.586,2.548.993a2.771,2.771,0,0,1,1.769,2.391,22.727,22.727,0,0,1,.355,2.544,20.771,20.771,0,0,1-.4,4.154c-.369,1.628-1.051,3.194-1.51,4.806a14.7,14.7,0,0,1-2.891,5.5M947.17,123.09c-.262.86-.576,1.71-.767,2.583-.108.489.209.586.7.367,1.386-.615,2.778-1.029,4.169.036.065.051.586-.185.6-.32a33.944,33.944,0,0,0,.393-3.984c.014-.968-.335-1.938-.337-2.907,0-.911-.408-1.6-1.3-1.657a1.9,1.9,0,0,0-1.967,1.235,16.229,16.229,0,0,0-1.5,4.648m1.775,9.176a6.239,6.239,0,0,0-.582.67,3.844,3.844,0,0,0-.293.692,2.57,2.57,0,0,0,.915-.364c.172-.176.114-.537-.042-1Z" transform="translate(-733.14 18.683)"></path><path id="Path_26436" data-name="Path 26436" d="M934.176,189.533c-1.329,1.494-3.167,2.016-4.889,2.549-1.276.4-3.1-.574-4.108-2.2-1.7-2.734-1.388-5.464-.136-8.168a18.227,18.227,0,0,1,2.359-3.6,2.458,2.458,0,0,1,3.491-.062c1.333,1.062,2.7,2.095,4.139,3.039a8.432,8.432,0,0,0,2.319.948c.8.226,1.083.7.8,1.31-.992,2.182-1.714,4.52-3.98,6.175m-6.212-7.646a4.277,4.277,0,0,1-.146.843c-.477,1.278-1.166,2.493-1.046,3.919.2,2.448,1.349,3,3.749,1.933,2.018-.9,3.209-2.534,4.678-3.934.521-.5-.174-.688-.321-.737a12.1,12.1,0,0,1-4.376-2.945c-1.014-.938-1.176-.921-2.053.129-.144.172-.194.407-.487.791Z" transform="translate(-722.61 -17.085)"></path><path id="Path_26437" data-name="Path 26437" d="M1002.874,72.387a11.126,11.126,0,0,1-1.046-6.542c.523-3.573,1.588-6.989,4.68-9.542a3.643,3.643,0,0,1,3.384-.657c3.159.581,4.023,2.768,4.871,4.95.9,2.318.586,4.817.371,7.2a14.416,14.416,0,0,1-3.181,7.57,6.752,6.752,0,0,1-2.857,1.874,2.939,2.939,0,0,1-2.313-.31,13.378,13.378,0,0,1-3.8-3.918c-.081-.14-.012-.354-.111-.624m7.987-9.626c.27.126.544.244.809.381.239.126.465.269.7.4a1.734,1.734,0,0,0,.061-.686c-.5-1.481-1.035-2.953-1.57-4.424-.069-.189-.2-.509-.311-.511-1-.021-2.128-.236-2.863.567a14.6,14.6,0,0,0-2.716,5.059c-.084.23.1.544.167.819.185-.163.371-.325.554-.49,1.4-1.256,2.944-2.056,5.173-1.12M1008.1,75a4.383,4.383,0,0,0-.414-.372c-.217-.154-.454-.285-.682-.426a4.764,4.764,0,0,0,.391.847c.067.1.331.09.7-.049Z" transform="translate(-763.697 52.385)"></path><path id="Path_26438" data-name="Path 26438" d="M1064.636,68.611c-.156-4.114,1.317-7.592,3.544-10.874a4.111,4.111,0,0,1,6.165-.643,12.765,12.765,0,0,1,3.379,6.11,14.138,14.138,0,0,1,.242,5.423,13.232,13.232,0,0,1-3.911,7.868c-1.967,1.931-6.2,1.13-7.46-1.077a12,12,0,0,1-1.958-6.8m10.253-2.7c0,.18-.063.387.016.532a4.863,4.863,0,0,0,.538.693c.079-.247.26-.508.219-.736a20.5,20.5,0,0,0-1.077-4.07,10.308,10.308,0,0,0-2.128-3.683c-.58-.574-1.12-.722-1.769-.07a5.623,5.623,0,0,0-1.735,2.218c-.3,1.009-.781,1.974-1.163,2.964a7.155,7.155,0,0,0-.227.864,5.548,5.548,0,0,0,.807-.33,4.658,4.658,0,0,1,6.52,1.617m-.2,4.5.5-.1a2.216,2.216,0,0,0-.067-.223c-.209.037-.418.089-.431.318m-4.339,5.038.5-.1a2.288,2.288,0,0,0-.067-.223c-.211.036-.421.087-.433.316Z" transform="translate(-796.964 52.113)"></path><path id="Path_26439" data-name="Path 26439" d="M1035.153,134.59c-4.262,1.248-8.206,1.107-11.84-1.1a12.948,12.948,0,0,1-4.528-5.008,1.356,1.356,0,0,1,.576-1.969,7.412,7.412,0,0,1,3.56-1.258c1.13-.106,2.252-.152,3.39-.319,2.207-.323,4.478-.283,6.719-.425,1.392-.088,2.779-.244,4.171-.351,1.327-.1,2.7.255,3.976-.356a.978.978,0,0,1,.391-.006c1.057.021,2.475-.314,2.966.623s-.018,2.12-.637,3.1a18.578,18.578,0,0,1-8.263,6.819,1.72,1.72,0,0,1-.479.251m4.93-8.635c-.667.12-1.331.28-2,.353q-3.579.387-7.163.724c-2.714.254-5.427.521-8.149.7-.753.049-.726.435-.606.8a3.781,3.781,0,0,0,.729,1.158,9.7,9.7,0,0,0,9.257,3.425,13.448,13.448,0,0,0,3.238-1.092c2.911-1.2,4.459-3.666,6.358-5.8.1-.108.055-.318.079-.48a3.085,3.085,0,0,0-.67-.032,9.359,9.359,0,0,1-1.072.242Z" transform="translate(-772.61 13.48)"></path><path id="Path_26440" data-name="Path 26440" d="M1067.955,34.576a8,8,0,0,1,4.52-1.2,12.687,12.687,0,0,1,7.885,2.165,17.947,17.947,0,0,1,4.784,5.563,1.368,1.368,0,0,1,.055.868c-.1.641-.412.917-1.081.43a5.1,5.1,0,0,1-1.176-.841,13.414,13.414,0,0,0-4.333-4.21,12.086,12.086,0,0,0-4.26-1.362,6.52,6.52,0,0,0-3.972.265c-.343.182-.9.032-1.359.026C1067.721,36.269,1067.482,35.936,1067.955,34.576Z" transform="translate(-798.609 65.008)"></path><path id="Path_26441" data-name="Path 26441" d="M1003.321,37.977a11.344,11.344,0,0,0-6.953,2.207c-1.552,1.056-3.09,2.132-4.668,3.155a5.767,5.767,0,0,1-1.333.451c-.014-.563-.258-1.248.006-1.664a8.688,8.688,0,0,1,2.055-2.265,24.156,24.156,0,0,1,7.04-3.964c2.033-.665,3.968-1.06,6.064-.035a1.217,1.217,0,0,1,.819,1.534c-.122.609-.711.737-1.357.681C1004.476,38.032,1003.945,38.067,1003.321,37.977Z" transform="translate(-757.64 63.945)"></path><path id="Path_26442" data-name="Path 26442" d="M1035.019,246.444a44.959,44.959,0,0,1,9.156,1.052c.8.154,1.214.429,1.078,1.125-.12.62-.688.73-1.331.709-4.076-.134-8.155-.194-12.227-.394a29.762,29.762,0,0,1-4.778-.731c-.465-.1-1.13-.636-1.15-1-.034-.637.753-1.1,1.349-1.081a13.263,13.263,0,0,1,3.8.241C1032.1,246.728,1033.512,246.444,1035.019,246.444Z" transform="translate(-776.42 -56.275)"></path><path id="Path_26443" data-name="Path 26443" d="M1026.239,266.529c-2.045-.12-3.9-.2-5.733-.4a1.263,1.263,0,0,1-.9-.837c-.008-.3.479-.781.85-.886a3.856,3.856,0,0,1,1.753-.023c3.469.72,6.981.161,10.466.349a5.249,5.249,0,0,1,1.471.222c.323.116,1.055.126.745.722a1.571,1.571,0,0,1-.978.812c-1.169.1-2.357.038-3.538.038Z" transform="translate(-773.159 -66.644)"></path><path id="Path_26444" data-name="Path 26444" d="M1035.893,274.479c-.223-.335-.517-.739-.446-.8.395-.348.889-.879,1.329-.864,2.031.076,4.1-.419,6.1.293a4.681,4.681,0,0,0,1.36.022c.7.015,1.166.36.978.978a1.378,1.378,0,0,1-.984.783c-1.69.084-3.39.037-5.082.037-.848,0-1.7.023-2.54-.016C1036.4,274.9,1036.2,274.689,1035.893,274.479Z" transform="translate(-781.532 -71.445)"></path><path id="Path_26445" data-name="Path 26445" d="M1043.615,233.475c2.116.072,4.059-.234,5.94.359.286.091.57.2.864.263.468.1.911.283.663.778-.154.31-.568.717-.879.725-2.3.061-4.595.084-6.887-.011-.43-.018-1.286-.038-1.3-.9C1042.012,233.772,1042.435,233.386,1043.615,233.475Z" transform="translate(-785.014 -49.063)"></path><path id="Path_26446" data-name="Path 26446" d="M1053.194,258.2a1.975,1.975,0,0,1-1.13.7c-2.223.049-4.447.024-6.672.024-.13,0-.3.049-.385-.008-.44-.308-.856-.642-1.282-.968.335-.28.667-.565,1.008-.84a3.055,3.055,0,0,1,2.765-.275,16.65,16.65,0,0,0,3.782.287C1052.089,257.142,1052.914,257.083,1053.194,258.2Z" transform="translate(-785.917 -62.271)"></path><path id="Path_26447" data-name="Path 26447" d="M1021.656,272.981c.448,1.288-.7,1.39-1.386,1.483a19.316,19.316,0,0,1-3.731.028c-1-.061-1.418-.557-1.292-1.278.1-.568,1.32-1.471,1.758-1.17.812.559,1.643.145,2.434.312a19.814,19.814,0,0,1,2.218.624Z" transform="translate(-770.844 -71.027)"></path><path id="Path_26448" data-name="Path 26448" d="M1023.548,257.845c-1,.042-1.656-.126-1.566-1.03.069-.676.621-.822,1.264-.768,1.714.145,3.491-.368,5.143.37.4.178,1.041.538,1.014.758-.073.61-.684.7-1.329.681C1026.632,257.818,1025.188,257.845,1023.548,257.845Z" transform="translate(-774.413 -61.918)"></path><path id="Path_26449" data-name="Path 26449" d="M1033.625,295.057c.953.311.566.825.367,1.2-.138.261-.664.623-.812.557a2.585,2.585,0,0,1-1.088-.908c-.087-.134.316-.548.521-.819C1032.859,294.761,1033.135,294.595,1033.625,295.057Z" transform="translate(-779.758 -84.018)"></path></g></g></g></svg>