<svg width="29" height="28" viewBox="0 0 29 28" fill="none" xmlns="http://www.w3.org/2000/svg">
<rect x="5" y="4.29028" width="19.8" height="19.8" rx="3" fill="#CC5229"/>
<g filter="url(#filter0_d_914_1962)">
<path d="M8.71796 13.2901H5.49794C5.32061 13.2901 5.18994 13.2527 5.10594 13.1781C5.03127 13.0941 4.99394 12.9634 4.99394 12.7861V11.134C4.99394 10.9567 5.03127 10.8307 5.10594 10.756C5.18994 10.672 5.32061 10.63 5.49794 10.63H8.11595C8.46129 10.63 8.69462 10.5787 8.81596 10.476C8.93729 10.364 8.99796 10.1354 8.99796 9.79004V9.48203C8.77396 9.54737 8.51262 9.5987 8.21395 9.63603C7.92462 9.67337 7.59328 9.69204 7.21995 9.69204C5.95994 9.69204 5.0966 9.48203 4.62994 9.06203C4.16327 8.6327 3.92993 8.00269 3.92993 7.17202V5.82801C3.92993 5.39868 3.98593 5.01134 4.09793 4.66601C4.21927 4.32067 4.42927 4.02667 4.72794 3.784C5.03594 3.532 5.45127 3.34067 5.97394 3.21C6.49661 3.07 7.15928 3 7.96195 3C8.82062 3 9.52063 3.07 10.062 3.21C10.6126 3.34067 11.042 3.532 11.35 3.784C11.658 4.02667 11.868 4.32067 11.98 4.66601C12.1013 5.01134 12.162 5.39868 12.162 5.82801V10.42C12.162 11.2694 11.9146 11.96 11.42 12.4921C10.9346 13.0241 10.034 13.2901 8.71796 13.2901ZM8.99796 6.87802V6.05202C8.99796 5.90268 8.94196 5.78135 8.82996 5.68801C8.71796 5.58535 8.46129 5.53401 8.05995 5.53401C7.63995 5.53401 7.37395 5.58535 7.26195 5.68801C7.14995 5.78135 7.09395 5.90268 7.09395 6.05202V6.87802C7.09395 7.01802 7.14995 7.13936 7.26195 7.24202C7.37395 7.33536 7.63995 7.38202 8.05995 7.38202C8.46129 7.38202 8.71796 7.33536 8.82996 7.24202C8.94196 7.13936 8.99796 7.01802 8.99796 6.87802Z" fill="#FDFDFD"/>
<path d="M20.343 13.2901H14.155C13.9777 13.2901 13.847 13.2527 13.763 13.1781C13.6883 13.0941 13.651 12.9634 13.651 12.7861V11.092C13.651 10.9147 13.6883 10.7887 13.763 10.714C13.847 10.63 13.9777 10.588 14.155 10.588H15.723V5.91202H14.435C14.2577 5.91202 14.127 5.87468 14.043 5.80001C13.9683 5.71601 13.931 5.58535 13.931 5.40801V3.714C13.931 3.53667 13.9683 3.41067 14.043 3.336C14.127 3.252 14.2577 3.21 14.435 3.21H18.495C18.6724 3.21 18.7984 3.252 18.873 3.336C18.957 3.41067 18.999 3.53667 18.999 3.714V10.588H20.343C20.5204 10.588 20.6464 10.63 20.7211 10.714C20.8051 10.7887 20.8471 10.9147 20.8471 11.092V12.7861C20.8471 12.9634 20.8051 13.0941 20.7211 13.1781C20.6464 13.2527 20.5204 13.2901 20.343 13.2901Z" fill="#FDFDFD"/>
</g>
<g filter="url(#filter1_d_914_1962)">
<path d="M16.304 22.1393C16.304 22.5686 16.2434 22.9606 16.122 23.3153C16.0007 23.6606 15.7814 23.9593 15.464 24.2113C15.1467 24.454 14.708 24.6453 14.148 24.7853C13.5974 24.9253 12.8927 24.9953 12.034 24.9953C11.1754 24.9953 10.466 24.9253 9.90601 24.7853C9.35534 24.6453 8.92134 24.454 8.604 24.2113C8.28667 23.9593 8.06267 23.6606 7.932 23.3153C7.81067 22.9606 7.75 22.5686 7.75 22.1393V17.3653C7.75 16.9359 7.81067 16.5486 7.932 16.2032C8.06267 15.8486 8.28667 15.5452 8.604 15.2932C8.92134 15.0412 9.35534 14.8452 9.90601 14.7052C10.466 14.5652 11.1754 14.4952 12.034 14.4952C12.8927 14.4952 13.5974 14.5652 14.148 14.7052C14.708 14.8452 15.1467 15.0412 15.464 15.2932C15.7814 15.5452 16.0007 15.8486 16.122 16.2032C16.2434 16.5486 16.304 16.9359 16.304 17.3653V22.1393ZM10.914 21.6353C10.914 21.8219 10.9794 21.9806 11.11 22.1113C11.25 22.2326 11.558 22.2933 12.034 22.2933C12.51 22.2933 12.8134 22.2326 12.944 22.1113C13.084 21.9806 13.154 21.8219 13.154 21.6353V17.8693C13.154 17.6919 13.084 17.5426 12.944 17.4213C12.8134 17.2906 12.51 17.2253 12.034 17.2253C11.558 17.2253 11.25 17.2906 11.11 17.4213C10.9794 17.5426 10.914 17.6919 10.914 17.8693V21.6353Z" fill="#FDFDFD"/>
<path d="M22.556 24.7853H19.3359C19.1586 24.7853 19.0279 24.748 18.9439 24.6733C18.8693 24.5893 18.8319 24.4586 18.8319 24.2813V22.6293C18.8319 22.4519 18.8693 22.3259 18.9439 22.2513C19.0279 22.1673 19.1586 22.1253 19.3359 22.1253H21.9539C22.2993 22.1253 22.5326 22.0739 22.654 21.9713C22.7753 21.8593 22.836 21.6306 22.836 21.2853V20.9773C22.612 21.0426 22.3506 21.0939 22.052 21.1313C21.7626 21.1686 21.4313 21.1873 21.0579 21.1873C19.7979 21.1873 18.9346 20.9773 18.4679 20.5573C18.0013 20.1279 17.7679 19.4979 17.7679 18.6673V17.3233C17.7679 16.8939 17.8239 16.5066 17.9359 16.1612C18.0573 15.8159 18.2673 15.5219 18.5659 15.2792C18.8739 15.0272 19.2893 14.8359 19.8119 14.7052C20.3346 14.5652 20.9973 14.4952 21.7999 14.4952C22.6586 14.4952 23.3586 14.5652 23.9 14.7052C24.4506 14.8359 24.88 15.0272 25.188 15.2792C25.496 15.5219 25.706 15.8159 25.818 16.1612C25.9393 16.5066 26 16.8939 26 17.3233V21.9153C26 22.7646 25.7526 23.4553 25.258 23.9873C24.7726 24.5193 23.872 24.7853 22.556 24.7853ZM22.836 18.3733V17.5473C22.836 17.3979 22.78 17.2766 22.668 17.1833C22.556 17.0806 22.2993 17.0293 21.8979 17.0293C21.4779 17.0293 21.2119 17.0806 21.0999 17.1833C20.9879 17.2766 20.9319 17.3979 20.9319 17.5473V18.3733C20.9319 18.5133 20.9879 18.6346 21.0999 18.7373C21.2119 18.8306 21.4779 18.8773 21.8979 18.8773C22.2993 18.8773 22.556 18.8306 22.668 18.7373C22.78 18.6346 22.836 18.5133 22.836 18.3733Z" fill="#FDFDFD"/>
</g>
<defs>
<filter id="filter0_d_914_1962" x="0.929932" y="0" width="22.9172" height="16.29" filterUnits="userSpaceOnUse" color-interpolation-filters="sRGB">
<feFlood flood-opacity="0" result="BackgroundImageFix"/>
<feColorMatrix in="SourceAlpha" type="matrix" values="0 0 0 0 0 0 0 0 0 0 0 0 0 0 0 0 0 0 127 0" result="hardAlpha"/>
<feOffset/>
<feGaussianBlur stdDeviation="1.5"/>
<feComposite in2="hardAlpha" operator="out"/>
<feColorMatrix type="matrix" values="0 0 0 0 0 0 0 0 0 0 0 0 0 0 0 0 0 0 0.2 0"/>
<feBlend mode="normal" in2="BackgroundImageFix" result="effect1_dropShadow_914_1962"/>
<feBlend mode="normal" in="SourceGraphic" in2="effect1_dropShadow_914_1962" result="shape"/>
</filter>
<filter id="filter1_d_914_1962" x="4.75" y="11.4952" width="24.25" height="16.5" filterUnits="userSpaceOnUse" color-interpolation-filters="sRGB">
<feFlood flood-opacity="0" result="BackgroundImageFix"/>
<feColorMatrix in="SourceAlpha" type="matrix" values="0 0 0 0 0 0 0 0 0 0 0 0 0 0 0 0 0 0 127 0" result="hardAlpha"/>
<feOffset/>
<feGaussianBlur stdDeviation="1.5"/>
<feComposite in2="hardAlpha" operator="out"/>
<feColorMatrix type="matrix" values="0 0 0 0 0 0 0 0 0 0 0 0 0 0 0 0 0 0 0.2 0"/>
<feBlend mode="normal" in2="BackgroundImageFix" result="effect1_dropShadow_914_1962"/>
<feBlend mode="normal" in="SourceGraphic" in2="effect1_dropShadow_914_1962" result="shape"/>
</filter>
</defs>
</svg>
