<svg width="24" height="24" viewBox="0 0 24 24" fill="none" xmlns="http://www.w3.org/2000/svg">
<g filter="url(#filter0_d_3348_297)">
<path d="M2 22L3.4128 16.8646C2.54143 15.3617 2.083 13.6567 2.08356 11.91C2.08579 6.44562 6.55266 2 12.0418 2C14.7055 2.00129 17.2056 3.03328 19.086 4.90656C20.9658 6.77983 22.0009 9.26974 22 11.918C21.9976 17.3821 17.53 21.8284 12.0418 21.8284C10.3753 21.8278 8.7335 21.4116 7.27892 20.6219L2 22Z" fill="url(#paint0_linear_3348_297)"/>
</g>
<path fill-rule="evenodd" clip-rule="evenodd" d="M9.52808 7.7377C9.34252 7.3274 9.14731 7.31909 8.97103 7.31188C8.82667 7.30579 8.66152 7.30616 8.49656 7.30616C8.33141 7.30616 8.06328 7.36786 7.83653 7.61448C7.60959 7.8611 6.96997 8.45724 6.96997 9.66983C6.96997 10.8824 7.85712 12.054 7.98071 12.2186C8.10447 12.383 9.69322 14.9508 12.2096 15.9386C14.3006 16.7596 14.7261 16.5963 15.1802 16.5552C15.6341 16.5142 16.6448 15.9591 16.8509 15.3837C17.0573 14.8082 17.0573 14.3152 16.9955 14.2121C16.9335 14.1092 16.7686 14.0477 16.5208 13.9244C16.2733 13.8012 15.0562 13.2049 14.8293 13.1227C14.6024 13.0405 14.4374 12.9995 14.2722 13.2461C14.1073 13.4927 13.6332 14.0477 13.4886 14.2121C13.3443 14.3767 13.1999 14.3972 12.9522 14.274C12.7046 14.1504 11.9073 13.8905 10.9615 13.0508C10.2256 12.3976 9.72885 11.5909 9.5843 11.3443C9.43994 11.0976 9.5689 10.9643 9.69304 10.8414C9.80419 10.7309 9.94057 10.5536 10.0645 10.4097C10.1879 10.2658 10.2293 10.1631 10.3117 9.99884C10.3943 9.83424 10.3531 9.69034 10.2911 9.56712C10.2293 9.4439 9.74815 8.22502 9.52808 7.7377" fill="white"/>
<defs>
<filter id="filter0_d_3348_297" x="2" y="2" width="20" height="20" filterUnits="userSpaceOnUse" color-interpolation-filters="sRGB">
<feFlood flood-opacity="0" result="BackgroundImageFix"/>
<feColorMatrix in="SourceAlpha" type="matrix" values="0 0 0 0 0 0 0 0 0 0 0 0 0 0 0 0 0 0 127 0" result="hardAlpha"/>
<feOffset/>
<feComposite in2="hardAlpha" operator="out"/>
<feColorMatrix type="matrix" values="0 0 0 0 0 0 0 0 0 0 0 0 0 0 0 0 0 0 0.25 0"/>
<feBlend mode="normal" in2="BackgroundImageFix" result="effect1_dropShadow_3348_297"/>
<feBlend mode="normal" in="SourceGraphic" in2="effect1_dropShadow_3348_297" result="shape"/>
</filter>
<linearGradient id="paint0_linear_3348_297" x1="12.0512" y1="4.01019" x2="12.0512" y2="20.0917" gradientUnits="userSpaceOnUse">
<stop stop-color="#57D163"/>
<stop offset="1" stop-color="#23B33A"/>
</linearGradient>
</defs>
</svg>
