<svg width="94" height="27" viewBox="0 0 94 27" fill="none" xmlns="http://www.w3.org/2000/svg">
<g clip-path="url(#clip0_9141_29172)">
<path fill-rule="evenodd" clip-rule="evenodd" d="M88.129 1.09873e-06C88.4682 0.0330642 88.7957 0.142094 89.087 0.319001C89.406 0.479001 89.566 0.798001 89.887 1.119C90.0639 1.41032 90.173 1.73776 90.206 2.077C90.1716 2.41622 90.0612 2.74332 89.883 3.034C89.6492 3.28489 89.3796 3.49988 89.083 3.672C88.8065 3.87854 88.4706 3.99013 88.1255 3.99013C87.7804 3.99013 87.4445 3.87854 87.168 3.672C86.849 3.512 86.689 3.193 86.368 2.872C86.368 2.553 86.208 2.234 86.208 1.914C86.241 1.57476 86.3501 1.24732 86.527 0.956001C86.687 0.637001 87.006 0.477001 87.327 0.156001C87.5903 0.0876342 87.8575 0.0348757 88.127 -0.0019989L88.129 1.09873e-06ZM88.129 0.319001C87.8525 0.294041 87.5747 0.349608 87.329 0.479001C87.0436 0.604616 86.8156 0.832599 86.69 1.118C86.5606 1.36365 86.5051 1.64148 86.53 1.918C86.5051 2.19452 86.5606 2.47235 86.69 2.718C86.8158 3.00303 87.0438 3.23063 87.329 3.356C87.5824 3.46184 87.8544 3.51634 88.129 3.51634C88.4037 3.51634 88.6756 3.46184 88.929 3.356C89.2139 3.23051 89.4415 3.0029 89.567 2.718C89.6964 2.47235 89.752 2.19452 89.727 1.918C89.752 1.64148 89.6964 1.36365 89.567 1.118C89.4417 0.832723 89.2141 0.604739 88.929 0.479001C88.6894 0.333391 88.4062 0.276749 88.129 0.319001V0.319001ZM87.329 3.033V0.958001H88.613C88.773 0.958001 88.773 1.118 88.932 1.118C88.932 1.278 89.092 1.278 89.092 1.437C89.1027 1.52372 89.0939 1.61174 89.0663 1.69462C89.0386 1.7775 88.9927 1.85314 88.932 1.916C88.8691 1.9767 88.7935 2.02256 88.7106 2.05025C88.6277 2.07793 88.5397 2.08673 88.453 2.076C88.4742 2.07545 88.4952 2.07921 88.5149 2.08706C88.5345 2.09491 88.5524 2.10667 88.5674 2.12164C88.5823 2.13661 88.5941 2.15447 88.602 2.17413C88.6098 2.19379 88.6136 2.21484 88.613 2.236C88.7558 2.36815 88.8651 2.53232 88.932 2.715L89.251 3.194H88.772L88.612 2.875C88.5296 2.70062 88.4221 2.53924 88.293 2.396H87.813V3.355H87.331L87.329 3.033ZM87.648 1.915H88.127C88.2137 1.92573 88.3017 1.91693 88.3846 1.88925C88.4675 1.86156 88.5431 1.8157 88.606 1.755L88.766 1.595V1.435C88.7666 1.41384 88.7628 1.39279 88.755 1.37313C88.7471 1.35347 88.7353 1.33561 88.7204 1.32064C88.7054 1.30567 88.6875 1.29391 88.6679 1.28606C88.6482 1.27821 88.6272 1.27445 88.606 1.275H87.967V1.914L87.648 1.915Z" fill="#9A9A9A"/>
<path fill-rule="evenodd" clip-rule="evenodd" d="M83.819 8.302C88.129 9.582 92.119 12.453 87.488 15.646C83.975 18.2 76.632 19.797 73.758 20.436C63.3766 22.6608 52.7566 23.5716 42.148 23.147C34.804 22.828 28.897 21.867 24.267 20.273C27.46 21.073 30.813 21.553 34.006 22.029C41.9663 22.9337 50.0065 22.88 57.954 21.869C64.7104 21.1256 71.3884 19.7902 77.911 17.878C83.819 16.444 91.641 12.134 83.819 8.302Z" fill="#DDDDDD"/>
<path fill-rule="evenodd" clip-rule="evenodd" d="M88.128 14.049C91.481 15.329 94.514 17.082 93.237 18.997C93.075 19.3007 92.8584 19.5719 92.598 19.797C89.884 22.351 83.498 23.629 79.188 24.427C62.743 27.459 38.795 26.343 25.704 21.234C29.1022 22.2762 32.5698 23.0765 36.081 23.629C40.5783 24.3002 45.1086 24.7275 49.652 24.909C56.3031 25.2013 62.9657 25.0944 69.604 24.589C73.2032 24.3024 76.7784 23.7678 80.304 22.989C82.6534 22.5181 84.9523 21.8229 87.169 20.913C89.084 20.113 91.479 18.837 91.16 17.244C91.1124 16.8876 90.9878 16.5459 90.7947 16.2427C90.6016 15.9394 90.3448 15.6819 90.042 15.488C89.4334 14.9704 88.7943 14.4899 88.128 14.049Z" fill="#DDDDDD"/>
<path d="M0 4.31V3.993H4.79C5.38002 3.95936 5.97177 4.01327 6.546 4.153C10.214 5.588 8.3 11.016 4.31 10.856V10.537C8.142 10.22 7.344 3.832 3.353 4.793V15.327C3.353 16.127 3.991 16.445 4.953 16.285V16.764H0.319V16.448C0.627232 16.4331 0.921423 16.3147 1.15392 16.1118C1.38641 15.9089 1.5436 15.6334 1.6 15.33V4.949C1.6 4.47 1.121 4.31 0.8 4.31H0Z" fill="#DDDDDD"/>
<path d="M19.64 4.95H22.673V15.65C22.6626 15.8159 22.5921 15.9723 22.4746 16.09C22.3572 16.2076 22.2009 16.2784 22.035 16.289H21.56V16.608H26.35V16.289H25.388C25.1978 16.2661 25.0243 16.1695 24.9047 16.0198C24.7852 15.8702 24.7293 15.6795 24.749 15.489V4.793H27.46C27.7702 4.86969 28.0406 5.05967 28.2179 5.32559C28.3951 5.5915 28.4665 5.91412 28.418 6.23H28.737V3.673C28.577 3.833 28.418 3.833 28.099 3.833H19.64C19.3434 3.82755 19.059 3.71413 18.84 3.514L18.36 5.908H18.679C18.7182 5.66759 18.8321 5.44563 19.0046 5.27366C19.1771 5.10169 19.3995 4.98844 19.64 4.95V4.95Z" fill="#DDDDDD"/>
<path d="M29.056 14.21L33.048 3.673C33.076 3.63593 33.1121 3.60586 33.1537 3.58515C33.1953 3.56444 33.2411 3.55367 33.2875 3.55367C33.3339 3.55367 33.3797 3.56444 33.4213 3.58515C33.4628 3.60586 33.499 3.63593 33.527 3.673L37.841 15.009C37.9368 15.3519 38.1487 15.6509 38.4406 15.8548C38.7324 16.0588 39.0861 16.155 39.441 16.127V16.446H35.758V16.128C35.758 15.968 36.237 15.968 36.077 15.49L34.797 12.137H30.973L29.855 14.851C29.536 15.651 29.536 16.288 30.813 16.131V16.45H27.141V16.128H27.941C28.579 15.809 28.741 15.01 29.059 14.213L29.056 14.21ZM31.291 11.496H34.484L33.048 7.028L31.292 11.498L31.291 11.496Z" fill="#DDDDDD"/>
<path d="M41.19 3.513L49.807 13.252V4.793C49.807 4.314 48.849 4.314 48.207 4.314V3.832H52.207V4.151C51.728 4.151 50.927 4.311 50.927 4.63L50.767 16.444C50.767 16.763 50.448 16.604 50.288 16.444L42.148 7.344H41.988L42.148 15.486C42.467 16.286 42.948 16.125 43.748 16.125V16.604H39.434V16.285C40.234 16.285 40.871 16.125 41.034 15.646V3.992C41.0259 3.81799 41.0829 3.6472 41.194 3.513H41.19Z" fill="#DDDDDD"/>
<path d="M71.524 3.991H76.314V4.31H75.356C75.037 4.31 74.877 4.47 74.877 4.949V14.528C74.877 15.007 75.037 15.486 75.677 15.486H78.231C78.869 15.486 79.189 15.007 79.349 13.886H79.668C79.6511 14.6937 79.5441 15.497 79.349 16.281H71.849V15.962C72.0573 15.968 72.2645 15.9291 72.4564 15.8478C72.6483 15.7665 72.8204 15.6448 72.961 15.491V4.949C72.9693 4.86323 72.9586 4.77667 72.9296 4.69553C72.9005 4.61439 72.8539 4.54069 72.793 4.4797C72.7321 4.41872 72.6585 4.37197 72.5774 4.3428C72.4963 4.31363 72.4098 4.30277 72.324 4.311H71.524V3.991Z" fill="#DDDDDD"/>
<path d="M81.103 3.991H85.573V4.31H84.773C84.454 4.31 84.294 4.47 84.294 4.949V15.486C84.2856 15.572 84.2963 15.6587 84.3255 15.74C84.3547 15.8213 84.4015 15.8951 84.4626 15.9561C84.5237 16.0172 84.5976 16.0639 84.6789 16.0929C84.7603 16.1219 84.8471 16.1325 84.933 16.124H86.052V16.603H81.263V16.284H82.063C82.2532 16.2611 82.4267 16.1645 82.5463 16.0148C82.6658 15.8652 82.7217 15.6745 82.702 15.484V5.109C82.7106 5.02296 82.6999 4.9361 82.6708 4.85468C82.6418 4.77326 82.595 4.69931 82.5338 4.63817C82.4727 4.57704 82.3987 4.53024 82.3173 4.50115C82.2359 4.47207 82.149 4.46143 82.063 4.47H81.424L81.103 3.991Z" fill="#DDDDDD"/>
<path d="M54.123 3.991H58.753V4.31H57.953C57.634 4.31 57.474 4.47 57.474 4.949V14.049C57.474 17.242 56.836 18.839 54.121 20.277C53.163 20.756 53.482 20.596 53.961 20.117C55.717 18.517 55.561 16.604 55.561 14.37V4.949C55.5696 4.86296 55.5589 4.7761 55.5298 4.69468C55.5008 4.61326 55.4539 4.53931 55.3928 4.47817C55.3317 4.41704 55.2577 4.37024 55.1763 4.34115C55.0949 4.31207 55.008 4.30143 54.922 4.31H54.283L54.123 3.991Z" fill="#DDDDDD"/>
<path d="M9.41999 14.21L13.411 3.673C13.439 3.63593 13.4751 3.60586 13.5167 3.58515C13.5583 3.56444 13.6041 3.55367 13.6505 3.55367C13.6969 3.55367 13.7427 3.56444 13.7843 3.58515C13.8258 3.60586 13.862 3.63593 13.89 3.673L18.2 15.008C18.2958 15.3509 18.5077 15.6499 18.7996 15.8538C19.0914 16.0578 19.4451 16.154 19.8 16.126V16.445H15.961V16.128C15.961 15.968 16.44 15.968 16.28 15.49L15 12.137H11.176L10.218 14.848C9.89899 15.648 9.89899 16.285 11.176 16.128V16.447H7.34399V16.128H8.14399C8.94399 15.809 9.10199 15.01 9.42399 14.213L9.41999 14.21ZM11.496 11.496H14.689L13.252 6.866L11.495 11.495L11.496 11.496Z" fill="#DDDDDD"/>
<path d="M60.827 14.21L64.819 3.673C64.8469 3.63593 64.8831 3.60586 64.9247 3.58515C64.9663 3.56444 65.0121 3.55367 65.0585 3.55367C65.1049 3.55367 65.1507 3.56444 65.1923 3.58515C65.2338 3.60586 65.27 3.63593 65.298 3.673L69.612 15.009C69.7078 15.3519 69.9197 15.6509 70.2116 15.8548C70.5034 16.0588 70.857 16.155 71.212 16.127V16.446H67.529V16.128C67.529 15.968 68.008 15.968 67.848 15.49L66.568 12.137H62.744L61.786 14.851C61.467 15.651 61.467 16.288 62.586 16.131V16.45H58.912V16.128H59.712C60.35 15.809 60.512 15.01 60.83 14.213L60.827 14.21ZM62.903 11.496H66.096L64.659 7.028L62.903 11.498V11.496Z" fill="#DDDDDD"/>
</g>
<defs>
<clipPath id="clip0_9141_29172">
<rect width="93.536" height="26.097" fill="white"/>
</clipPath>
</defs>
</svg>
