<svg xmlns="http://www.w3.org/2000/svg" width="265.125" height="168.582" viewBox="0 0 265.125 168.582"><defs><style>.a{fill:#a2a2a2;}.b{fill:#fff;}.c{fill:#ececec;}.d,.e{font-size:8px;}.d,.g{font-family:SegoeUI, Segoe UI;}.e,.g{fill:#2680eb;}.e{font-family:NirmalaUI, Nirmala UI;}.f{fill:#000;}</style></defs><g transform="translate(-258 -2477)"><g transform="translate(261.07 2480.593)"><path class="a" d="M5671.48,496.027c2.754,62.636,3.247,117.928,3.247,117.928V632.53l5.143,3.887h18.27l11.72,1.2,1.09,18.657H5714l21.374-17.3,4.706-2.55,6.088-1.638,41.652,1.638h108.938l32.323-1.634,2.622-8.69,1.457-46.008h-6.992V559.632h5.535l-2.622-60.208s3.1-5.708-13.449-4.5-119.812,0-119.812,0h-121.1Z" transform="translate(-5671.478 -493.551)"></path><path class="a" d="M108.915.182c15-.093,29.887-.356,44.74-.006C164.672.437,175.7.059,186.68.537c11.2.487,22.411-.151,33.568.372,8.143.382,16.261.114,24.385.308.572.014,1.127.244,1.7.292.594.05,1.522.17,1.757-.036,1.181-1.031,2.423-.565,3.759-.283.971.2,2.038.2,3.007.4,2.345.5,3.812,1.642,4.23,3.283.346,1.355.341,2.751.585,4.12.708,3.971.2,7.974.655,11.934.222,1.939.076,3.89.454,5.8,1.016,5.152-.043,10.338.569,15.475a141.569,141.569,0,0,1,.326,24.407c-.6,11.119-.2,22.229-.357,33.342-.158,11.163-.012,22.327-.058,33.491a17.284,17.284,0,0,1-.605,5.043c-.306.991-.951,1.956-1.233,2.991-.24.878-1.3,1.363-2.513,1.527a79.877,79.877,0,0,1-11.444.793c-10.9-.1-21.826-.311-32.707.034-14.712.465-29.432-.1-44.11.4-8.593.3-17.186.429-25.73.173-8.768-.262-17.551.136-26.267-.351-7.247-.405-14.492.125-21.675-.35-7.869-.519-15.722-.114-23.578-.331-1.473-.041-2.519.138-3.037,1.2-1.046,2.152-3.528,3.634-5.573,5.281-3.8,3.058-7.861,5.958-11.806,8.929-1.73,1.3-3.407,2.639-5.18,3.912-.71.509-1.667.852-2.423,1.336a4.047,4.047,0,0,1-3.674.806A3.392,3.392,0,0,1,37.4,162a6.025,6.025,0,0,1-.007-.929c0-3.163-.078-6.327.028-9.489.067-2-.693-3.893-1.126-5.83-.165-.736-2.443-1.6-4.161-1.606-2.972-.02-5.944,0-8.921,0-3.515,0-7.034.087-10.541-.033-2.116-.072-4.214-.447-6.312-.717-1.96-.253-3.2-1.326-4.656-2.11-.464-.25-.521-.98-.525-1.491-.039-4.217.3-8.448-.082-12.65C.054,115.463.93,103.79.646,92.12c-.029-1.189.482-2.378.474-3.566C1.108,87.18.642,85.8.641,84.427Q.594,45.076.594,5.722A2.9,2.9,0,0,0,.181,3.607c-.745-.976.927-2.279,2.873-2.391C5.944,1.052,8.848.87,11.749.851,19.408.8,27.081.635,34.726.871c23.715.733,47.435.117,71.15.317,1.09.009,2.663.472,3.039-1.006M4.4,45.685c0,23.322-.042,46.643.025,69.965.02,7.144.317,14.288.539,21.431a6.63,6.63,0,0,0,.637,2.793,2.922,2.922,0,0,0,1.846,1.234,28.5,28.5,0,0,0,4.894.4c8.291.037,16.583.016,24.874.017,2.522,0,3.25.32,3.934,1.951a6.123,6.123,0,0,1,.528,2.446c-.021,1.067-.457,2.129-.477,3.2-.066,3.473-.042,6.947,0,10.42,0,.384.431.761.484,1.152.071.517.168.712.793.229,1.461-1.135,3.033-2.211,4.373-3.411,2.506-2.244,4.854-4.572,7.318-6.836,1.4-1.288,2.906-2.524,4.367-3.781s2.873-2.55,4.413-3.765a9.6,9.6,0,0,1,6.691-2.367c5.688.2,11.385.266,17.078.4,9.837.221,19.671-.235,29.522.3,8,.434,16.061.1,24.106.37,9.622.317,19.283.153,28.928.052s19.318-.033,28.982-.244c17.286-.377,34.6-.106,51.907-.107,4.458,0,7.406-2.02,7.331-5.142-.268-10.989.565-21.983-.474-32.971-.269-2.85.283-5.737.365-8.591.3-10.541,0-21.089.155-31.632.152-10.493-.65-20.994.48-31.481a17.668,17.668,0,0,0-.42-4.5c-.47-3.09-.1-6.211-.524-9.336-.515-3.83.054-7.711-.609-11.565-.344-2-1.316-2.809-4.28-2.867-9.746-.2-19.491.034-29.254-.263-9.443-.287-18.94-.286-28.433.185-10.343.514-20.753.187-31.134.331-15.863.22-31.747.329-47.635-.158-9.8-.3-19.67-.408-29.522.207-4.468.279-9.033-.209-13.557-.3-12.086-.239-24.173.2-36.283-.3-9.789-.4-19.64-.087-29.464-.075-1.747,0-1.889.148-1.961,1.392-.186,3.236-.112,6.468-.416,9.709-.668,7.125.265,14.282-.57,21.431C3.582,38.815,4.223,42.077,4.4,45.685Z" transform="translate(0 0)"></path><path class="a" d="M108.915.182c15-.093,29.887-.356,44.74-.006C164.672.437,175.7.059,186.68.537c11.2.487,22.411-.151,33.568.372,8.143.382,16.261.114,24.385.308.572.014,1.127.244,1.7.292.594.05,1.522.17,1.757-.036,1.181-1.031,2.423-.565,3.759-.283.971.2,2.038.2,3.007.4,2.345.5,3.812,1.642,4.23,3.283.346,1.355.341,2.751.585,4.12.708,3.971.2,7.974.655,11.934.222,1.939.076,3.89.454,5.8,1.016,5.152-.043,10.338.569,15.475a141.569,141.569,0,0,1,.326,24.407c-.6,11.119-.2,22.229-.357,33.342-.158,11.163-.012,22.327-.058,33.491a17.284,17.284,0,0,1-.605,5.043c-.306.991-.951,1.956-1.233,2.991-.24.878-1.3,1.363-2.513,1.527a79.877,79.877,0,0,1-11.444.793c-10.9-.1-21.826-.311-32.707.034-14.712.465-29.432-.1-44.11.4-8.593.3-17.186.429-25.73.173-8.768-.262-17.551.136-26.267-.351-7.247-.405-14.492.125-21.675-.35-7.869-.519-15.722-.114-23.578-.331-1.473-.041-2.519.138-3.037,1.2-1.046,2.152-3.528,3.634-5.573,5.281-3.8,3.058-7.861,5.958-11.806,8.929-1.73,1.3-3.407,2.639-5.18,3.912-.71.509-1.667.852-2.423,1.336a4.047,4.047,0,0,1-3.674.806A3.392,3.392,0,0,1,37.4,162a6.025,6.025,0,0,1-.007-.929c0-3.163-.078-6.327.028-9.489.067-2-.693-3.893-1.126-5.83-.165-.736-2.443-1.6-4.161-1.606-2.972-.02-5.944,0-8.921,0-3.515,0-7.034.087-10.541-.033-2.116-.072-4.214-.447-6.312-.717-1.96-.253-3.2-1.326-4.656-2.11-.464-.25-.521-.98-.525-1.491-.039-4.217.3-8.448-.082-12.65C.054,115.463.93,103.79.646,92.12c-.029-1.189.482-2.378.474-3.566C1.108,87.18.642,85.8.641,84.427Q.594,45.076.594,5.722A2.9,2.9,0,0,0,.181,3.607c-.745-.976.927-2.279,2.873-2.391C5.944,1.052,8.848.87,11.749.851,19.408.8,27.081.635,34.726.871c23.715.733,47.435.117,71.15.317,1.09.009,2.663.472,3.039-1.006M4.4,45.685c0,23.322-.042,46.643.025,69.965.02,7.144.317,14.288.539,21.431a6.63,6.63,0,0,0,.637,2.793,2.922,2.922,0,0,0,1.846,1.234,28.5,28.5,0,0,0,4.894.4c8.291.037,16.583.016,24.874.017,2.522,0,3.25.32,3.934,1.951a6.123,6.123,0,0,1,.528,2.446c-.021,1.067-.457,2.129-.477,3.2-.066,3.473-.042,6.947,0,10.42,0,.384.431.761.484,1.152.071.517.168.712.793.229,1.461-1.135,3.033-2.211,4.373-3.411,2.506-2.244,4.854-4.572,7.318-6.836,1.4-1.288,2.906-2.524,4.367-3.781s2.873-2.55,4.413-3.765a9.6,9.6,0,0,1,6.691-2.367c5.688.2,11.385.266,17.078.4,9.837.221,19.671-.235,29.522.3,8,.434,16.061.1,24.106.37,9.622.317,19.283.153,28.928.052s19.318-.033,28.982-.244c17.286-.377,34.6-.106,51.907-.107,4.458,0,7.406-2.02,7.331-5.142-.268-10.989.565-21.983-.474-32.971-.269-2.85.283-5.737.365-8.591.3-10.541,0-21.089.155-31.632.152-10.493-.65-20.994.48-31.481a17.668,17.668,0,0,0-.42-4.5c-.47-3.09-.1-6.211-.524-9.336-.515-3.83.054-7.711-.609-11.565-.344-2-1.316-2.809-4.28-2.867-9.746-.2-19.491.034-29.254-.263-9.443-.287-18.94-.286-28.433.185-10.343.514-20.753.187-31.134.331-15.863.22-31.747.329-47.635-.158-9.8-.3-19.67-.408-29.522.207-4.468.279-9.033-.209-13.557-.3-12.086-.239-24.173.2-36.283-.3-9.789-.4-19.64-.087-29.464-.075-1.747,0-1.889.148-1.961,1.392-.186,3.236-.112,6.468-.416,9.709-.668,7.125.265,14.282-.57,21.431C3.582,38.815,4.223,42.077,4.4,45.685Z" transform="translate(0 0)"></path></g><g transform="translate(258 2477)"><path class="b" d="M5671.48,496.027c2.754,62.636,3.247,117.928,3.247,117.928V632.53l5.143,3.887h18.27l11.72,1.2,1.09,18.657H5714l21.374-17.3,4.706-2.55,6.088-1.638,41.652,1.638h108.938l32.323-1.634,2.622-8.69V559.632l-2.622-60.208s3.1-5.708-13.449-4.5-119.812,0-119.812,0h-121.1Z" transform="translate(-5671.478 -493.551)"></path><path d="M108.915.182c15-.093,29.887-.356,44.74-.006C164.672.437,175.7.059,186.68.537c11.2.487,22.411-.151,33.568.372,8.143.382,16.261.114,24.385.308.572.014,1.127.244,1.7.292.594.05,1.522.17,1.757-.036,1.181-1.031,2.423-.565,3.759-.283.971.2,2.038.2,3.007.4,2.345.5,3.812,1.642,4.23,3.283.346,1.355.341,2.751.585,4.12.708,3.971.2,7.974.655,11.934.222,1.939.076,3.89.454,5.8,1.016,5.152-.043,10.338.569,15.475a141.569,141.569,0,0,1,.326,24.407c-.6,11.119-.2,22.229-.357,33.342-.158,11.163-.012,22.327-.058,33.491a17.284,17.284,0,0,1-.605,5.043c-.306.991-.951,1.956-1.233,2.991-.24.878-1.3,1.363-2.513,1.527a79.877,79.877,0,0,1-11.444.793c-10.9-.1-21.826-.311-32.707.034-14.712.465-29.432-.1-44.11.4-8.593.3-17.186.429-25.73.173-8.768-.262-17.551.136-26.267-.351-7.247-.405-14.492.125-21.675-.35-7.869-.519-15.722-.114-23.578-.331-1.473-.041-2.519.138-3.037,1.2-1.046,2.152-3.528,3.634-5.573,5.281-3.8,3.058-7.861,5.958-11.806,8.929-1.73,1.3-3.407,2.639-5.18,3.912-.71.509-1.667.852-2.423,1.336a4.047,4.047,0,0,1-3.674.806A3.392,3.392,0,0,1,37.4,162a6.025,6.025,0,0,1-.007-.929c0-3.163-.078-6.327.028-9.489.067-2-.693-3.893-1.126-5.83-.165-.736-2.443-1.6-4.161-1.606-2.972-.02-5.944,0-8.921,0-3.515,0-7.034.087-10.541-.033-2.116-.072-4.214-.447-6.312-.717-1.96-.253-3.2-1.326-4.656-2.11-.464-.25-.521-.98-.525-1.491-.039-4.217.3-8.448-.082-12.65C.054,115.463.93,103.79.646,92.12c-.029-1.189.482-2.378.474-3.566C1.108,87.18.642,85.8.641,84.427Q.594,45.076.594,5.722A2.9,2.9,0,0,0,.181,3.607c-.745-.976.927-2.279,2.873-2.391C5.944,1.052,8.848.87,11.749.851,19.408.8,27.081.635,34.726.871c23.715.733,47.435.117,71.15.317,1.09.009,2.663.472,3.039-1.006M4.4,45.685c0,23.322-.042,46.643.025,69.965.02,7.144.317,14.288.539,21.431a6.63,6.63,0,0,0,.637,2.793,2.922,2.922,0,0,0,1.846,1.234,28.5,28.5,0,0,0,4.894.4c8.291.037,16.583.016,24.874.017,2.522,0,3.25.32,3.934,1.951a6.123,6.123,0,0,1,.528,2.446c-.021,1.067-.457,2.129-.477,3.2-.066,3.473-.042,6.947,0,10.42,0,.384.431.761.484,1.152.071.517.168.712.793.229,1.461-1.135,3.033-2.211,4.373-3.411,2.506-2.244,4.854-4.572,7.318-6.836,1.4-1.288,2.906-2.524,4.367-3.781s2.873-2.55,4.413-3.765a9.6,9.6,0,0,1,6.691-2.367c5.688.2,11.385.266,17.078.4,9.837.221,19.671-.235,29.522.3,8,.434,16.061.1,24.106.37,9.622.317,19.283.153,28.928.052s19.318-.033,28.982-.244c17.286-.377,34.6-.106,51.907-.107,4.458,0,7.406-2.02,7.331-5.142-.268-10.989.565-21.983-.474-32.971-.269-2.85.283-5.737.365-8.591.3-10.541,0-21.089.155-31.632.152-10.493-.65-20.994.48-31.481a17.668,17.668,0,0,0-.42-4.5c-.47-3.09-.1-6.211-.524-9.336-.515-3.83.054-7.711-.609-11.565-.344-2-1.316-2.809-4.28-2.867-9.746-.2-19.491.034-29.254-.263-9.443-.287-18.94-.286-28.433.185-10.343.514-20.753.187-31.134.331-15.863.22-31.747.329-47.635-.158-9.8-.3-19.67-.408-29.522.207-4.468.279-9.033-.209-13.557-.3-12.086-.239-24.173.2-36.283-.3-9.789-.4-19.64-.087-29.464-.075-1.747,0-1.889.148-1.961,1.392-.186,3.236-.112,6.468-.416,9.709-.668,7.125.265,14.282-.57,21.431C3.582,38.815,4.223,42.077,4.4,45.685Z" transform="translate(0 0)"></path><path d="M108.915.182c15-.093,29.887-.356,44.74-.006C164.672.437,175.7.059,186.68.537c11.2.487,22.411-.151,33.568.372,8.143.382,16.261.114,24.385.308.572.014,1.127.244,1.7.292.594.05,1.522.17,1.757-.036,1.181-1.031,2.423-.565,3.759-.283.971.2,2.038.2,3.007.4,2.345.5,3.812,1.642,4.23,3.283.346,1.355.341,2.751.585,4.12.708,3.971.2,7.974.655,11.934.222,1.939.076,3.89.454,5.8,1.016,5.152-.043,10.338.569,15.475a141.569,141.569,0,0,1,.326,24.407c-.6,11.119-.2,22.229-.357,33.342-.158,11.163-.012,22.327-.058,33.491a17.284,17.284,0,0,1-.605,5.043c-.306.991-.951,1.956-1.233,2.991-.24.878-1.3,1.363-2.513,1.527a79.877,79.877,0,0,1-11.444.793c-10.9-.1-21.826-.311-32.707.034-14.712.465-29.432-.1-44.11.4-8.593.3-17.186.429-25.73.173-8.768-.262-17.551.136-26.267-.351-7.247-.405-14.492.125-21.675-.35-7.869-.519-15.722-.114-23.578-.331-1.473-.041-2.519.138-3.037,1.2-1.046,2.152-3.528,3.634-5.573,5.281-3.8,3.058-7.861,5.958-11.806,8.929-1.73,1.3-3.407,2.639-5.18,3.912-.71.509-1.667.852-2.423,1.336a4.047,4.047,0,0,1-3.674.806A3.392,3.392,0,0,1,37.4,162a6.025,6.025,0,0,1-.007-.929c0-3.163-.078-6.327.028-9.489.067-2-.693-3.893-1.126-5.83-.165-.736-2.443-1.6-4.161-1.606-2.972-.02-5.944,0-8.921,0-3.515,0-7.034.087-10.541-.033-2.116-.072-4.214-.447-6.312-.717-1.96-.253-3.2-1.326-4.656-2.11-.464-.25-.521-.98-.525-1.491-.039-4.217.3-8.448-.082-12.65C.054,115.463.93,103.79.646,92.12c-.029-1.189.482-2.378.474-3.566C1.108,87.18.642,85.8.641,84.427Q.594,45.076.594,5.722A2.9,2.9,0,0,0,.181,3.607c-.745-.976.927-2.279,2.873-2.391C5.944,1.052,8.848.87,11.749.851,19.408.8,27.081.635,34.726.871c23.715.733,47.435.117,71.15.317,1.09.009,2.663.472,3.039-1.006M4.4,45.685c0,23.322-.042,46.643.025,69.965.02,7.144.317,14.288.539,21.431a6.63,6.63,0,0,0,.637,2.793,2.922,2.922,0,0,0,1.846,1.234,28.5,28.5,0,0,0,4.894.4c8.291.037,16.583.016,24.874.017,2.522,0,3.25.32,3.934,1.951a6.123,6.123,0,0,1,.528,2.446c-.021,1.067-.457,2.129-.477,3.2-.066,3.473-.042,6.947,0,10.42,0,.384.431.761.484,1.152.071.517.168.712.793.229,1.461-1.135,3.033-2.211,4.373-3.411,2.506-2.244,4.854-4.572,7.318-6.836,1.4-1.288,2.906-2.524,4.367-3.781s2.873-2.55,4.413-3.765a9.6,9.6,0,0,1,6.691-2.367c5.688.2,11.385.266,17.078.4,9.837.221,19.671-.235,29.522.3,8,.434,16.061.1,24.106.37,9.622.317,19.283.153,28.928.052s19.318-.033,28.982-.244c17.286-.377,34.6-.106,51.907-.107,4.458,0,7.406-2.02,7.331-5.142-.268-10.989.565-21.983-.474-32.971-.269-2.85.283-5.737.365-8.591.3-10.541,0-21.089.155-31.632.152-10.493-.65-20.994.48-31.481a17.668,17.668,0,0,0-.42-4.5c-.47-3.09-.1-6.211-.524-9.336-.515-3.83.054-7.711-.609-11.565-.344-2-1.316-2.809-4.28-2.867-9.746-.2-19.491.034-29.254-.263-9.443-.287-18.94-.286-28.433.185-10.343.514-20.753.187-31.134.331-15.863.22-31.747.329-47.635-.158-9.8-.3-19.67-.408-29.522.207-4.468.279-9.033-.209-13.557-.3-12.086-.239-24.173.2-36.283-.3-9.789-.4-19.64-.087-29.464-.075-1.747,0-1.889.148-1.961,1.392-.186,3.236-.112,6.468-.416,9.709-.668,7.125.265,14.282-.57,21.431C3.582,38.815,4.223,42.077,4.4,45.685Z" transform="translate(0 0)"></path></g><path class="c" d="M5690.94,618.366v16.665h67.839v-3.1l2.913,3.1,16.132-1.132h7.169l1.792-7.275-1.792-8.258Z" transform="translate(-5413.019 1971.769)"></path><path d="M126.893,1011.133a4.168,4.168,0,0,0-.136,1.21c-.023,1.506-.964,2.46-3.006,2.774a42.025,42.025,0,0,1-4.636.379c-1.617.061-3.243,0-4.865.015-15.7.121-31.4-.032-47.08.462-11.836.374-23.649.068-35.467.273-2.934.051-3.68-1.108-3.98-3.147-.222-1.511.116-3.1-.534-4.6a10.524,10.524,0,0,1,0-4.709,9.2,9.2,0,0,0,.534-1.631,14.829,14.829,0,0,1,0-2.576c.053-1.8-.581-3.1,1.97-3.049,4.073.078,8.2,0,12.2.433a96.143,96.143,0,0,0,10.336.279c17.662.045,35.325-.008,52.987.037,5.513.015,11.024.246,16.538.348,1.6.03,2.1.856,2.873,1.591,1.394,1.334,1.618,2.957,2.02,4.435.629,2.309.482,4.718.647,7.087.007.1-.167.2-.4.387M31.011,999.891c.18,2.3-.467,3.926,0,6.2a23.35,23.35,0,0,1,0,6.142c-.087,1.354.075,1.9,2.511,1.783,3.434-.16,6.873-.346,10.312-.365,9.366-.049,18.733.028,28.1-.028q20.963-.123,41.924-.377a17.794,17.794,0,0,0,4.039-.46,2.567,2.567,0,0,0,1.981-1.424c.447-1.076-.242-1.934-.141-2.883.259-2.425-.521-4.872.5-7.291.42-1-.523-1.494-1.964-1.252a12.7,12.7,0,0,1-2.252.286c-13.883-.21-27.78.452-41.657-.341-4.594-.263-9.2-.038-13.834-.307-7.452-.434-14.979.161-22.467-.421-2.757-.216-3.979.235-7.041.421m91.42,5.313a35.874,35.874,0,0,1,.332,3.6,30.372,30.372,0,0,1-.345,3.677c-.041.331-.8.724.106.923.18.039.683-.436.9-.722a.723.723,0,0,0,.066-.709c-.33-.709.46-1.344.092-2.116a5.554,5.554,0,0,1-.073-2.387,23.713,23.713,0,0,0-.025-2.4,3.43,3.43,0,0,0-.525-1.141,1.722,1.722,0,0,0-.35-.333,2.487,2.487,0,0,0-.175.5,9.543,9.543,0,0,0-.014,1.122Z" transform="translate(248.152 1591.371)"></path><path class="b" d="M5760.384,647.369l-7.061-2.2,4.628-1.928,2.432-.619-4.628-9.156,5.021,2.685,1.882,1.308,6.667-1.928,2.9,3.368,1.726,4.337-.627,1.928-4.707,1.859-4.08,1.17Z" transform="translate(-5411.544 1970.234)"></path><text class="d" transform="translate(275.527 2495)"><tspan x="0" y="0">IM-XYBANK</tspan><tspan x="0" y="11"></tspan><tspan x="0" y="22">Hello!</tspan><tspan x="0" y="33"></tspan><tspan x="0" y="44">Your A/c no. xxxxxxxxxx910 has been credited with Rs. </tspan><tspan x="0" y="55">xxxx on 06Jun18. The A/c balance is Rs. xxxxx</tspan><tspan x="0" y="66">Info: XXXXXXXXX</tspan></text><text class="e" transform="translate(282.527 2601)"><tspan class="f" x="0" y="0">हिंदी में पढ़े </tspan><tspan class="g" y="0">9m.io/AP7</tspan></text><path d="M2199.41,26.565a34.958,34.958,0,0,1,3.727,2.961c1.84,1.708,1.813,1.735,4.241.579,1.585-.758,3.269-.588,4.161.5a10.728,10.728,0,0,1,1.09,1.758c.677,1.265,1.358,2.531,1.965,3.828a3.5,3.5,0,0,1-2.239,4.934c-1.247.441-2.495.9-3.7,1.435a7.035,7.035,0,0,1-5.633.353c-1.692-.643-3.557-.761-5.184-1.711-.871-.508-1.671-.868-1.611-1.981s1.019-1.436,1.842-1.854a3.127,3.127,0,0,1,.816-.212c2.2-.422,2.272-.551,1.356-2.509-.725-1.542-1.5-3.061-2.173-4.624a5.877,5.877,0,0,1-.456-2.008c-.062-1.374-.014-1.376,1.8-1.441m7.751,5.511a3.3,3.3,0,0,0-.584.225c-1.813,1.119-2.1,1.1-3.646-.351-.594-.56-1.167-1.152-1.783-1.7-.136-.121-.4-.108-.606-.157a3.72,3.72,0,0,0,.2.619,26.863,26.863,0,0,1,2.421,5.845c.356,1.364.265,1.659-1.121,1.9-.918.16-1.847.279-2.763.462a.56.56,0,0,0-.3.455c.007.143.242.4.368.39,1.652-.063,2.937.958,4.427,1.356a5.053,5.053,0,0,0,2.287.328,32.811,32.811,0,0,0,5.168-1.71c.755-.323,1.679-.643,2.015-1.622.245-.715-.2-1.23-.361-1.815A9.582,9.582,0,0,0,2211,33.1c-1.539-1.958-1.46-2.009-3.847-1.021Z" transform="translate(-1853.441 2574.965)"></path></g></svg>