<svg xmlns="http://www.w3.org/2000/svg" width="21.638" height="28.922" viewBox="0 0 21.638 28.922"><defs><style>.a{fill:#2680eb;}</style></defs><g transform="translate(-533.086 -2534.578)"><path class="a" d="M9773.056,1598.851v-10.913s-4.366-9.128,1.981-14.485l15.279,12.7-13.493,10.913Z" transform="translate(-9236.086 962.035)"></path><path d="M1470.449,147.193c-1.288-.174-1.711-1.031-1.662-2.4a31.714,31.714,0,0,0-1.262-11.1,24.352,24.352,0,0,1-.5-4.347,40.494,40.494,0,0,0-.712-4.5,6.188,6.188,0,0,1,1.378-5.529c.985-1.272,3.552-1.33,4.908-.52,2.107,1.256,4.377,2.18,6.4,3.579,2.422,1.684,5.111,2.9,7.105,5.4a10.685,10.685,0,0,1,1.585,3.835c.412,1.38-.687,2.141-1.438,2.817-1.3,1.17-2.774,2.08-4.117,3.2-2.264,1.9-4.448,3.926-6.722,5.805-1.565,1.288-2.885,3.051-4.969,3.741m6.495-21.284c-1.317-1.016-2.638-2.028-3.95-3.052a4.539,4.539,0,0,1-.47-.5,2.978,2.978,0,0,0-.2.664c-.159,2.552-.284,5.108-.454,7.659a20.905,20.905,0,0,1-.513,5.086c-.594,1.766-.263,3.451-.324,5.157-.047,1.245,1,1.864,1.925,1.288a13.418,13.418,0,0,0,1.535-1.235c1.735-1.486,3.479-2.963,5.19-4.489,1.506-1.341,2.952-2.768,4.458-4.107.594-.534.381-.892-.07-1.264-.277-.229-.594-.4-.874-.618-1.94-1.525-3.877-3.056-6.258-4.586m-6.826-5.35c.059-.687-.3-1.077-.715-.624a3.412,3.412,0,0,0-.991,2.013c.022,2.724.211,5.449.427,8.164.027.328.65.909.881.842.927-.266-.174-.541-.081-.969.156-.716-.143-1.594.077-2.258.734-2.2.259-4.45.407-7.175Z" transform="translate(-933.063 2416.307)"></path></g></svg>