<svg xmlns="http://www.w3.org/2000/svg" width="693.459" height="140.801" viewBox="0 0 693.459 140.801"><defs><style>.a{fill:#eb5a51;}.b{fill:#e69251;}.c{fill:#778d0d;}.d{fill:#e8e8e8;}.e,.f{fill:#2680eb;}.f{stroke:#707070;}.g{fill:#eac869;}</style></defs><g transform="translate(12669 17170.363)"><g transform="translate(-12669 -17170.363)"><path d="M18.667,599.35c-.143,1.462-.239,2.714-.462,3.942a1.347,1.347,0,0,1-.8.816c-.187.066-.665-.281-.788-.548a4.556,4.556,0,0,1-.5-1.732c-.061-1.954-.01-3.91-.03-5.866-.007-.706.106-1.321.913-1.4.887-.095,1.206.4,1.256,1.279C18.323,596.938,18.523,598.033,18.667,599.35Z" transform="translate(-12.63 -464.66)"></path><g transform="translate(0 0)"><ellipse class="a" cx="5.5" cy="6" rx="5.5" ry="6" transform="translate(545.978 70.613)"></ellipse><circle class="b" cx="6.5" cy="6.5" r="6.5" transform="translate(410.978 50.613)"></circle><ellipse class="c" cx="6" cy="5.5" rx="6" ry="5.5" transform="translate(241.978 70.613)"></ellipse><path class="d" d="M9572.061,1913.29l8.342-10.1,1.5,1.552-1.088,13.421-3.834-6.685Z" transform="translate(-9497.387 -1831.106)"></path><path class="e" d="M10201.622,1852.808l-.961,13.66s-1.347,3.463,5.388,4.233,20.394,0,20.394,0l-1.347,12.7,9.043-12.7,11.352-4.233-1.731-13.66-20.2-2.693-14.622,1.154Z" transform="translate(-9661.473 -1817.25)"></path><path class="e" d="M9996.01,1810.628l2.309,18.662,9.043,2.116s4.425,20.2,8.466,20.779,1.154-7.888,1.154-7.888l1.922-11.736,13.853-1.154h16.738V1812.36s-6.156-3.848-8.851-3.656-27.321,0-28.09,0h-11.543Z" transform="translate(-9608.072 -1806.437)"></path><path class="f" d="M9785.43,1853.2v15.2a17.74,17.74,0,0,0,11.158,2.5,66.7,66.7,0,0,1,13.273,0v11.928l7.89-11.928,9.812-2.5v-15.2a40.254,40.254,0,0,0-13.274-1.731C9806.4,1851.661,9785.43,1853.2,9785.43,1853.2Z" transform="translate(-9553.093 -1817.596)"></path><path class="f" d="M9581.42,1808.8l1.155,20.009,9.042,2.886s2.886,16.546,7.312,19.434,2.886-16.161,2.886-16.161,5.387-4.233,7.118-3.271,19.434,0,19.434,0,6.542,1.921,6.542-7.5-2.117-14.238-2.117-14.238-12.89-3.27-15.776-2.693-23.665,0-23.665,0-10-.577-10.774,0A4.049,4.049,0,0,0,9581.42,1808.8Z" transform="translate(-9499.829 -1805.994)"></path><ellipse class="g" cx="6.5" cy="6" rx="6.5" ry="6" transform="translate(104.978 54.613)"></ellipse><path class="d" d="M3.252,11.917,0,13.446l.51-2.782L10.019,0l1.5,1.552,1.732,15-1.145,1.793L7.547,11.426Z" transform="matrix(0.035, -0.999, 0.999, 0.035, 578.945, 107.28)"></path><path class="d" d="M.556,9.317,0,8.356,7.16,0l1.5,1.552.8,8.818-2.118.509L4.837,7.554Z" transform="translate(471.033 22.344) rotate(-89.026)"></path><path class="d" d="M0,14.28,16.563,0l2.985,2.2L13.809,23.026l-5.234-8.5L2.193,15.649Z" transform="matrix(0.985, 0.174, -0.174, 0.985, 284.068, 84.501)"></path><path class="d" d="M.577,10.1,0,8.521,8.919,0l1.5,1.552L9.661,12.6l-1.3-.029L5.5,8.286Z" transform="matrix(-0.94, -0.342, 0.342, -0.94, 212.279, 30.111)"></path><path d="M334.933,527.785c2.935,0,5.653-.031,8.373.006,9.815.132,19.649-.038,29.441.534,7.9.46,15.783-.051,23.653.4,2.877.167,5.749.31,8.628.386a26.082,26.082,0,0,1,3.044.421c.55.08.783-.136.717-.715-.129-1.115-.194-2.239-.363-3.347-.114-.747.369-1.89,1.086-2.034.785-.157,1.093.332,1.507,1.049a4.96,4.96,0,0,1,.318,2.709c.074,2.229.4,2.768,2.647,2.734,2.3-.035,4.646.517,6.915-.375a3.964,3.964,0,0,1,1.281-.022c7.024-.144,14.07-.005,21.066-.539,4.465-.34,8.907-.286,13.355-.307,15.6-.074,31.21.329,46.795-.148,11.255-.344,22.5-.167,33.745-.29,11.232-.123,22.468-.024,33.7-.029,1.928,0,1.93-.015,1.952-1.889.01-.8.054-1.606-.011-2.4-.08-.976.577-1.417,1.226-1.8.37-.217,1.674.983,1.784,1.619a22.637,22.637,0,0,1,.415,3.1c.03,1.019.425,1.467,1.408,1.377,1.728-.159,3.5.365,5.2-.407a3.9,3.9,0,0,1,1.49-.028c20.251,0,40.51.35,60.749-.122,13.685-.319,27.369.083,41.039-.417,3.587-.131,7.185-.172,10.773-.35,1.091-.054,2.168-.348,3.259-.4a2.528,2.528,0,0,1,2.334,1.521,3.566,3.566,0,0,1-1.653,2.542c-2.241,1.057-4.581.826-6.921.517a13.016,13.016,0,0,0-1.626-.222c-4.937-.017-9.9-.326-14.806.057-9.463.739-18.921.214-28.38.341-9.443.128-18.9-.25-28.331.143-4.884.2-9.785-.086-14.631.411-2.89.3-5.794-.02-8.622.42-2.606.406-5.229,0-7.765.434-2.962.511-5.9.2-8.849.38-1.233.074-2.454.324-3.688.408-.73.049-.488.534-.531.914-.144,1.25-.249,2.507-.443,3.749-.148.949-.76,1.2-1.505.545-.827-.732-1.709-1.41-1.527-2.86.26-2.075.12-2.376-2.338-2.349-5.365.058-10.753-.284-16.1.08-11.675.794-23.356.227-35.033.332-8.239.074-16.5.043-24.715-.5a120.746,120.746,0,0,0-15.5-.238c-10.394.653-20.783.19-31.171.316-10.373.126-20.75.038-31.126.012a9.457,9.457,0,0,1-3.282-.35c-1.726-.605-2.256.279-1.943,2.163a9.07,9.07,0,0,1-.393,3.375c-.095.409-.723.924-1.121.222-.491-.869-1.312-1.521-1.3-2.742.036-3.085-.036-3.086-3.1-3.086-4.581,0-9.163.049-13.739-.019a44.567,44.567,0,0,1-7.75-.5,36.837,36.837,0,0,0-6.059-.345c-32.71-.961-65.429-.168-98.141-.524-2.86-.031-5.747-.266-8.624-.393-1.108-.049-1.342.3-1.243,1.323a14.063,14.063,0,0,1-.007,2.835,3.527,3.527,0,0,1-.61,1.887,2.217,2.217,0,0,1-1.679.471c-.26-.023-.629-.739-.655-1.156-.086-1.3-.062-2.62-.021-3.93.03-1.007-.369-1.423-1.371-1.415-3.505.03-7.035-.254-10.513.064a208.484,208.484,0,0,1-27.3.258c-11.329-.453-22.66-.553-33.957-.19-16.764.538-33.517.148-50.274.287-16.815.139-33.632.03-50.448.03-.286,0-.573,0-.859,0-1.689.031-1.68.074-1.767,1.877a21.43,21.43,0,0,1-.451,3.525c-.095.433-.591,1.045-.941,1.075s-.887-.477-1.139-.879a3.473,3.473,0,0,1-.443-1.552,13.366,13.366,0,0,1,.007-2.835c.174-1.213-.4-1.34-1.324-1.221a6.684,6.684,0,0,1-.858.006c-5.223,0-10.457-.209-15.669.038-18.473.876-36.951.142-55.425.4-.358.005-.717-.016-1.073,0-.933.053-1.672-.063-1.687-1.307-.016-1.346.069-1.349,1.45-1.781a28.965,28.965,0,0,1,7.594-.876c21.834-.908,43.677-.163,65.514-.409,1.438-.016,1.388-.018,1.465-1.49.085-1.618.213-3.239.457-4.838a1.829,1.829,0,0,1,.992-1.07c.739-.347.658.51.86.847a2.559,2.559,0,0,1,.243,1.2c.03,1.091-.011,2.185.015,3.276.044,1.861.25,2.069,1.984,2.069,7.371,0,14.741-.055,22.111.018,6.382.064,12.773.564,19.138.323,4.594-.174,9.219.047,13.769-.443a107.655,107.655,0,0,1,11.425-.305q46.478-.074,92.956-.01c2.874,0,5.749.361,8.624.387,1.943.017,3.89-.254,5.833-.409.764-.061,1.069-.523,1.054-1.279-.019-.947,0-1.893,0-2.84,0-.364-.133-.813.028-1.074a9.784,9.784,0,0,1,1.217-1.358c.3.332.618.65.9,1a4.67,4.67,0,0,1,.873,3.35c-.148,2.855.12,2.653,2.488,2.65,11.951-.016,23.9-.058,35.851.012,7.094.041,14.192.3,21.29.394C331.686,528.218,333.2,527.931,334.933,527.785Z" transform="translate(-9.459 -406.639)"></path><path d="M2882.349,45.811c3.417,2.707,6.428,5.572,8.119,9.582a35.6,35.6,0,0,1,1.9,6.414c.766,3.577.425,7.178.313,10.745a30.64,30.64,0,0,1-1.454,7.223c-1.209,4.281-2.689,8.484-3.886,12.769a31.933,31.933,0,0,0-1.43,11.622,35.583,35.583,0,0,0,2.581,9.391c.771,2,1.773,3.91,2.643,5.875a3.624,3.624,0,0,1,.316,1.385,6.048,6.048,0,0,1-.282,1.346c-.573-.176-1.31-.182-1.688-.559a37.826,37.826,0,0,1-3.5-3.974c-1.352-1.8-2.6-3.689-3.8-5.6-.853-1.367-1.533-2.846-2.314-4.261-.1-.193-.35-.307-.53-.457a2.663,2.663,0,0,0-.313.463,17.119,17.119,0,0,1-5.412,7.113,25.666,25.666,0,0,1-8.152,4.291,23.456,23.456,0,0,1-6.576,1.227,43.98,43.98,0,0,1-5.789-.017,22.4,22.4,0,0,1-9.672-3.129,30.346,30.346,0,0,1-7.447-5.925c-.429-.493-.68-.467-1.079.013-1.754,2.107-3.533,4.193-5.307,6.281a1.766,1.766,0,0,1-.457.455c-.541.279-.7,1.51-1.626.785a1.78,1.78,0,0,1-.23-2.335,12.79,12.79,0,0,0,1.182-7.937,53.9,53.9,0,0,0-3.284-10.875,51.085,51.085,0,0,1-2.426-8.812c-.444-2.549-1.134-5.053-1.67-7.587a27.32,27.32,0,0,1-.443-3.089c-.174-1.9-.423-3.811-.415-5.715a37.368,37.368,0,0,1,4.382-17.586,27.5,27.5,0,0,1,6.281-8.467,23.938,23.938,0,0,1,10.975-5.225,15.048,15.048,0,0,1,6.657.318c4.064.968,5.861,4.1,6.872,7.855.39,1.452.586,2.956.88,4.438a4.519,4.519,0,0,0,.191.573,3.943,3.943,0,0,0,.453-.427c2.481-3.2,4.855-6.5,8.434-8.617a10.45,10.45,0,0,1,4.828-1.878c.732-.035,1.451-.363,2.186-.4a15.7,15.7,0,0,1,9.3,2.444c.166.1.386.11.687.271m-36.173,25.669c.731.174,1.478.276.532,1.263-.279.288-.23.908-.3,1.381,0,.03.393.19.432.143.528-.641,1-1.336,1.552-1.951.185-.2.571-.222.867-.319.039.343.208.739.094,1.017-.275.684-.7,1.3-1.018,1.974a.64.64,0,0,0,.182.583.582.582,0,0,0,.573-.1c.251-.308.378-.726.638-1.026.159-.184.468-.233.708-.344a2.04,2.04,0,0,1,.225.749,2.1,2.1,0,0,1-.374,1.135c-.472.5-.5.763-.1,1.417a6.6,6.6,0,0,1,.881,2.878,44.21,44.21,0,0,1,0,5.888,6.511,6.511,0,0,1-.857,2.891c-1.3,2.09-3.679,3.111-6.107.894a10.081,10.081,0,0,1-2.409-3.8c-.09-.217-.2-.426-.3-.638a2.131,2.131,0,0,0-.152.587,70.785,70.785,0,0,1-.837,11.648,28.967,28.967,0,0,1-2.654,8.929c-.358.723-1.135,1.353-.7,2.229a9.756,9.756,0,0,0,1.5,1.982c.206.235.6.289.865.481,1.5,1.069,2.978,2.167,4.479,3.233a18.86,18.86,0,0,0,9.679,3.554,27.557,27.557,0,0,0,8.193-.314,32.11,32.11,0,0,0,9.521-3.517c3.671-2.2,5.631-5.684,7.264-9.447a2.452,2.452,0,0,0-.141-1.444c-.82-2.886-1.464-5.8-2.065-8.751a78.952,78.952,0,0,1-1.129-12.794,97.586,97.586,0,0,0-.946-13.383,26.875,26.875,0,0,0-2.115-6.963,5.291,5.291,0,0,0-4.708-3.177c-.466-.036-.919-.206-1.385-.276-3.1-.465-6.032-.066-8.4,2.2a1.192,1.192,0,0,1-1.662.189,7.214,7.214,0,0,0-6.618-.791c-2.417.849-4.629,2.036-5.859,4.456a21.468,21.468,0,0,0-2.7,10.2,3.133,3.133,0,0,0,.466,1.322,5.558,5.558,0,0,0,.742.9,5.374,5.374,0,0,0,.468-1.323c.074-.94.008-1.89.035-2.835a.592.592,0,0,1,.281-.463c.159-.041.491.069.532.188.193.576.277,1.192.479,1.765a1.069,1.069,0,0,0,.563.618c.524.158.734-.1.723-.687-.012-.828-.29-1.765,1.059-2.348m-3.646,12.452c.582.591.82-.066,1.182-.324,2.533-1.8,3.506-1.691,5.26.563a3.408,3.408,0,0,0,.313.314,1.717,1.717,0,0,0,.11-.387,9.475,9.475,0,0,0-1.713-6.434c-.831-1.119-2.559-1.649-3.28-.808a8.08,8.08,0,0,0-1.636,2.973c-.322,1.157-.912,2.4-.237,4.1m3.864,5.246c-.346-.351-.678-.715-1.039-1.046a3.488,3.488,0,0,0-.586-.358c.034.243-.019.586.12.711a2.621,2.621,0,0,0,1.5.694m38.646,23.157.258.175c-.02-.135-.027-.266-.256-.179Z" transform="translate(-2214.792 -32.038)"></path><path d="M1515.117,154.664c-2,0-3.791.013-5.58,0a21.01,21.01,0,0,1-7.778-1.971c-4.507-1.847-7.971-5.085-10.987-8.738a31.655,31.655,0,0,1-3.95-7.257,22.624,22.624,0,0,1-1.96-6.137c-.333-2.506-1.015-4.968-.356-7.674a61.241,61.241,0,0,1,1.374-6.207,3.774,3.774,0,0,0-.245-1.831c-.313-1.392-.683-2.77-1-4.163a8.221,8.221,0,0,1-.4-2.435,30.633,30.633,0,0,1,1.269-7.537,9.621,9.621,0,0,1,8.452-5.905,14.259,14.259,0,0,1,1.5.008c1.449.153,2.183-.369,3.03-1.763a13.841,13.841,0,0,1,4.507-4.36,43.928,43.928,0,0,1,7.593-3.983,30.085,30.085,0,0,1,7.033-1.692c1.438-.175,2.882-.392,4.328-.425a21.179,21.179,0,0,1,12.562,3.377,15.818,15.818,0,0,1,7.282,10.64,19,19,0,0,1,.341,4.848,7.913,7.913,0,0,1-2.018,5.246c-.436.434-.466.648-.011,1.108,2.978,2.987,4.114,6.741,4.2,10.883.054,2.546,0,5.095.013,7.642a27.265,27.265,0,0,1-1.754,9.744,11.494,11.494,0,0,1-1.958,3.312c-3.188,3.782-6.348,7.618-10.547,10.334a26.374,26.374,0,0,1-9.287,4.064c-1.8.348-3.555,1.034-5.653.882m.429-47.406a4.85,4.85,0,0,1-1.157-.321c-3.83-2.183-8.029-3.706-11.506-6.5-.82-.659-1.361-.228-1.456.3a11.482,11.482,0,0,1-3.066,5.7,79.787,79.787,0,0,1-7.08,7.453,11.146,11.146,0,0,0-3.562,4.63,19.663,19.663,0,0,0-.859,9.422A31.505,31.505,0,0,0,1490.416,138a25.1,25.1,0,0,0,13.177,12.548,24.476,24.476,0,0,0,9.083,1.966,50.5,50.5,0,0,0,8.023-.859,17.6,17.6,0,0,0,6.009-2.111,36.65,36.65,0,0,0,12.091-11.3,15.548,15.548,0,0,0,2.96-9.468c-.092-3.274.007-6.553-.038-9.828a10.813,10.813,0,0,0-.415-2.221,24.358,24.358,0,0,0-2.525-6.362c-.285-.512-.436-1.382-.813-1.493-.577-.17-1.3.189-1.968.3a49.137,49.137,0,0,1-5.633.882,31.094,31.094,0,0,1-5.184-.4,28.492,28.492,0,0,1-3.177-.631c-2.085-.5-4.161-1.034-6.459-1.767Z" transform="translate(-1165.6 -64.54)"></path><path d="M43.068,139.361c-3.785,2.482-7.935,2.378-11.956,1.986a18.619,18.619,0,0,1-10.235-3.788,7.5,7.5,0,0,0-1.764-.924,28.008,28.008,0,0,1-10.8-8.757,43.957,43.957,0,0,1-7.086-13.4A20.97,20.97,0,0,1,.016,108c-.037-3.38-.131-6.773,1.311-9.93Q3.168,94.038,5.2,90.1A13.805,13.805,0,0,1,7.5,86.5a37.45,37.45,0,0,1,7.064-5.786,62.3,62.3,0,0,1,13.564-5.675c2.24.465,4.407-1.119,6.744-.087,1.138.5,2.56.184,3.884.419a23.941,23.941,0,0,1,10.45,4.933,31.828,31.828,0,0,1,4.765,4.046,24.223,24.223,0,0,1,4.941,7.5C59.765,94.18,61.2,96.289,62,98.627a72.766,72.766,0,0,1,1.973,8.118,2.537,2.537,0,0,1-.191,1.847c-1.06,1.324-.777,2.971-.966,4.383-.505,3.758-2.127,6.991-3.866,10.185a53.01,53.01,0,0,1-9.665,12.1,20.616,20.616,0,0,1-6.216,4.1m12.773-16.494c.286-.9.587-1.792.856-2.695.866-2.91,1.705-5.827,2.586-8.733.561-1.855.551-1.926-1.165-2.772a2.6,2.6,0,0,0-.709-.354,3.7,3.7,0,0,0-1.665-.02c-.232.086-.2.842-.337,1.278-.265.832-.531,1.667-.859,2.475-1.14,2.8-2.639,5.3-5.754,6.176-.976.274-2.057.194-3.009.522a7.661,7.661,0,0,1-9.339-3.454c-1.25-1.968-2.526-4.04-2.506-6.576.016-2.039-.347-2.447-2.291-2.66-.845-.092-1.531.042-1.591,1.182a5.3,5.3,0,0,1-.508,1.741c-.716,1.664-2.078,3-2.311,4.933-.058.476-.688.907-1.1,1.306a10.7,10.7,0,0,1-5.2,2.45,9.669,9.669,0,0,1-5.246.023c-3.347-1.25-6.162-3.392-7.065-7.261-.53-2.271-1.533-4.453-1.293-6.876A1.639,1.639,0,0,0,5.962,101.7a3.411,3.411,0,0,0-4.212,3.344,26.3,26.3,0,0,0,1.221,7.77A44.5,44.5,0,0,0,7.3,122.127a28.234,28.234,0,0,0,8.6,9.828c4.467,3.061,8.936,6.236,14.516,7,3.251.443,6.491.7,9.64-.483,3.629-1.357,6.95-3.085,9.4-6.4a102.439,102.439,0,0,0,6.377-9.207M21.281,94.687c1.423.72,2.841,1.452,4.271,2.158,2.3,1.136,4.023,2.7,4.572,5.431.233,1.161.562,2.621,2.444,2.064a1.682,1.682,0,0,1,1.252.522c.826.765,1.256.047,1.38-.486.553-2.438,2.094-4.15,3.747-5.862A7.948,7.948,0,0,1,44.8,96.038c4.449-.035,7.38,2.7,9.606,6.222,1.04,1.644,1.3,3.88,3.885,3.912.326,0,.621.532.973.739a1.343,1.343,0,0,0,2.143-1.088,3.946,3.946,0,0,0-.148-1.458c-.636-2.13-1.313-4.247-1.982-6.367a35.435,35.435,0,0,0-5.294-10.208c-.238-.327-.479-.984-.766.156-.93,3.678-3.575,4.411-5.911,4.088a25.163,25.163,0,0,1-3.441-1.009,2.185,2.185,0,0,0-1.151-.2,6.7,6.7,0,0,1-5.381-.28,2.813,2.813,0,0,0-2.232-.168c-1.791,1.044-3.222.137-4.535-.744a2.66,2.66,0,0,0-2.829-.27c-2.342.887-4.681.907-6.684-1.006-.18-.172-.531-.158-.715-.328-.595-.549-1.019-.312-1.643.067-2.411,1.462-2.54,2.291-5.163-.419a4.2,4.2,0,0,0-.612-.61c-.531-.355-1.141-1-1.626-.918a3.408,3.408,0,0,0-2.048,1.182A43.688,43.688,0,0,0,3.89,97.506a5.222,5.222,0,0,0-.414,1.131c-.1.723-.193,1.408.986,1.321a6.3,6.3,0,0,1,4.388.8c.411.292.813-.079,1.2-.665a14.606,14.606,0,0,1,2.916-3.2c2.281-1.884,5.031-2.3,8.315-2.211m.644,17.258a5.524,5.524,0,0,1-.311.739,5.384,5.384,0,0,1-.5.622c.335.055.739.263.995.141a10.3,10.3,0,0,0,4.507-3.9,15.935,15.935,0,0,0,1.708-3.856c.591-2.13-.831-4.687-2.717-6.248-1.7-1.4-3.564-2.521-5.622-2.5-4.929.049-7.353,1.9-9.223,6.585a5.36,5.36,0,0,0,1.641,6.584c.517.443,1.09.831,1.64,1.238.143.106.3.188.454.28.041-.2.169-.434.111-.6-.974-2.728-.324-5.362.451-7.98a5.31,5.31,0,0,1,2.6-3.12c2.486-1.414,5.833.715,5.939,3.9a35.654,35.654,0,0,1-.443,5.923,6.4,6.4,0,0,1-1.235,2.179m28.338-3.051c-.191,1.929.569,4-.842,5.758-.066.082.063.454.193.533a.562.562,0,0,0,.551-.1,27.65,27.65,0,0,0,2.622-3.91,11.711,11.711,0,0,0,.877-3.759,5.979,5.979,0,0,0-.5-3.483A11.934,11.934,0,0,0,47.6,98.759a5.771,5.771,0,0,0-5.636.259,9.975,9.975,0,0,0-4.994,6.775c-.129.55.139,1.216-.044,1.731-1.159,3.257.556,5.434,2.631,7.482.142.14.474.079.718.112-.027-.248.035-.568-.095-.733a4.042,4.042,0,0,1-.64-3,13.032,13.032,0,0,1,.443-3.081c.828-2.447,1.587-5.01,4.153-6.259a1.659,1.659,0,0,1,1.422-.055,15.605,15.605,0,0,1,2.939,2.854,15.673,15.673,0,0,1,1.764,4.042m-8.373-.655-.129,1.182c.252-.169.494-.36.759-.505,1.586-.87,4.492.136,5.127,1.889.222.613.279,1.677.869,1.5.911-.27-.069-1.108-.038-1.731a9.047,9.047,0,0,0-1.96-5.453,1.873,1.873,0,0,0-3.177-.058,6.6,6.6,0,0,0-1.448,3.177m-21.038-6.117c-.525-.291-1.249-.961-1.536-.8a6.616,6.616,0,0,0-2.489,2.055c-.894,1.443-.613,1.728,1.119,1.823a3.488,3.488,0,0,1,1.13.369c.79.342,1.562.725,2.354,1.06a.783.783,0,0,0,.475-.067c-.03-1.456.354-3-1.052-4.433m39.286,14.2a4.968,4.968,0,0,0,.851-3.555,2.239,2.239,0,0,0-.185-.573,4.373,4.373,0,0,0-.234.508c-.429,1.343-.865,2.685-1.25,4.041-.052.183.171.443.267.671a2.432,2.432,0,0,0,.551-1.092M16.985,116.1a9.176,9.176,0,0,0,1.268-.024c.1-.014.2-.33.222-.517.013-.1-.154-.327-.2-.317-1.3.279-2.319-.556-3.465-.875-.162-.045-.374.1-.563.155.117.152.2.375.358.443.713.328,1.445.613,2.384,1.133m27.908.437.171-.262c-.132.015-.26.03-.174.262Z" transform="translate(0 -58.304)"></path><path d="M714.788,277.517a21.1,21.1,0,0,1-8.305-1.211,2.015,2.015,0,0,0-1.151.142,23.808,23.808,0,0,1-9.86,1.012,10.467,10.467,0,0,1-6.393-3.21,2.98,2.98,0,0,1-.534-3.6,39.341,39.341,0,0,0,3.1-10.061,39.468,39.468,0,0,1,1.734-6.906,5.869,5.869,0,0,0-.038-2.28,19.188,19.188,0,0,1,2.956-10.754,17.916,17.916,0,0,1,11.613-7.764,29.519,29.519,0,0,1,7.56-.277,4.27,4.27,0,0,1,3,1.847,1.265,1.265,0,0,0,1.683.63,11.774,11.774,0,0,1,11.618,2.776,10.558,10.558,0,0,1,3.6,8.05c0,2.614.932,5.006,1.5,7.472.909,3.975,2.12,7.868,2.893,11.891a45.315,45.315,0,0,1,1.235,7.333,2.887,2.887,0,0,1-1.9,3.092,11.732,11.732,0,0,1-2.842.9,49.435,49.435,0,0,1-6.686.421,38.9,38.9,0,0,1-4.8-.807,3.146,3.146,0,0,0-1.671.086c-2.6,1.174-5.329,1.284-8.31,1.207m5.152-24.249c-.285-2.217,1.672-3.695,1.86-5.777.018-.194.633-.384.995-.484.672-.185.694-.171.4-.468a13.359,13.359,0,0,1-1.52-1.511,21.812,21.812,0,0,1-2.485-3.967c-.482-1.15-.9-.763-1.22-.167a23.926,23.926,0,0,1-4.581,5.478c-.895.882-1.889,1.661-2.847,2.477-.36.306-.331.454-.095.954a9.41,9.41,0,0,1,.478,6.416c-.7,2.438-3.621,3.7-5.235,2.169a5.025,5.025,0,0,1-1.578-4.729,6.591,6.591,0,0,1,.3-.9,3.626,3.626,0,0,0-1.155.041,39.081,39.081,0,0,1-4.99,1.931,2.223,2.223,0,0,0-1.828,2.016,10.8,10.8,0,0,0,.232,4.411,42.174,42.174,0,0,0,2.176,5.2,14.515,14.515,0,0,0,9.48,8.1,21.592,21.592,0,0,0,2.7.739,16.062,16.062,0,0,0,4.687.469,16.2,16.2,0,0,1,2.839-.307,12.067,12.067,0,0,0,5.586-1.567,15.872,15.872,0,0,0,6.963-7.182,23.038,23.038,0,0,0,2.228-15.327c-.213-1.2-.553-1.456-1.493-1.275-1.968.38-3.567-.627-5.255-1.33a5.884,5.884,0,0,0-1.035-.232,2.711,2.711,0,0,0,.423.887c2.13,1.915,2.192,6.248.87,8.547-1.273,2.217-4.655,3.453-6.1.152-.081-.186-.395-.3-.429-.471-.248-1.269-1.429-2.455-.37-4.286m-2.791-16.821c-.31-.437-.539-1.137-.943-1.263a14.089,14.089,0,0,0-4.128-.858,20.923,20.923,0,0,0-4.355.813,15.045,15.045,0,0,0-6.281,2.944,16.211,16.211,0,0,0-5.971,13.146c0,1.708.61,2.237,2.222,1.8a31.155,31.155,0,0,0,4.124-1.437,33.348,33.348,0,0,0,14.931-12.574,2.654,2.654,0,0,0,.4-2.571m15.672,10.271c.143-.3.448-.634.4-.907-.41-2.586-1.2-4.906-3.432-6.624a16.27,16.27,0,0,0-6.22-2.653c-1.024-.256-2.645-.744-3.358.429-.539.887.647,1.867.991,2.829a12.088,12.088,0,0,0,7.236,7.3c1.493.618,2.9,1.151,4.38-.378m2.147,13.982a19.929,19.929,0,0,1-3.671,8.888,30.552,30.552,0,0,1-3.848,4.018,5.2,5.2,0,0,0-.517.764c.284.177.568.507.853.508,3.154.011,6.337.27,9.435-.474a1.9,1.9,0,0,0,1.705-1.773,12.138,12.138,0,0,0-.162-2.9c-.6-3.9-2.18-7.581-2.512-11.551a.3.3,0,0,0-.083-.18c-.2-.182-.4-.353-.6-.528a5.991,5.991,0,0,0-.167.582c-.138.739.345,1.6-.432,2.65m-41.647.437c-.1.684-.2,1.367-.3,2.051a24.04,24.04,0,0,1-2.232,6.243c-1.074,2.466-.443,3.788,1.921,5.044,3.158,1.677,6.484.994,9.775.838.216-.01.508-.326.591-.562.047-.137-.234-.424-.411-.6a41.618,41.618,0,0,1-4.563-4.592,30.159,30.159,0,0,1-2.791-5.551,11.577,11.577,0,0,1-.693-2.534,23.132,23.132,0,0,1-.035-2.9c-.017-.248-.307-.478-.471-.716a2.457,2.457,0,0,0-.354.63c-.16.734.337,1.6-.443,2.648m30.055-11.36c-1.139.83-1.249,2.212-1.685,3.394-.236.641-.028.638.671.392a2.843,2.843,0,0,1,3,.848c.174.179.577.739.559-.052a6.984,6.984,0,0,0-.464-2.813,4.434,4.434,0,0,0-2.082-1.768m-13.954,3.277c-.215-.709-.473-1.4-.631-2.129-.148-.665-.443-.625-.85-.286a3.63,3.63,0,0,0-.751.772c-.363.565-.665,1.171-.988,1.76a14.057,14.057,0,0,1,1.734.339c.306.1.531.43.822.607,1.244.754.79-.342.665-1.064m-1.717,4.369.542-.115c-.025-.095-.066-.272-.074-.271-.229.038-.456.1-.469.378Z" transform="translate(-540.445 -181.713)"></path><path d="M2176.009,280.259a36.012,36.012,0,0,1-3.9,3.462,17.178,17.178,0,0,1-5.9,2.351,34.615,34.615,0,0,1-8.831.369,18.757,18.757,0,0,1-8.81-3.054,22.062,22.062,0,0,1-8.042-8.222,15.041,15.041,0,0,1-2.217-7.14c-.013-1.108-.348-2.2-.391-3.311-.115-2.815.148-5.553,1.865-7.943.086-.12-.215-.766-.436-.836-1.148-.361-2.325-.621-3.5-.905-1.773-.432-2.943-2.152-2.113-3.345a8.289,8.289,0,0,1,2.475-2.3c1.241-.745,2.665-1.166,3.974-1.8a2.226,2.226,0,0,0,1.233-1.583,24.4,24.4,0,0,1,2.271-4.921,23.411,23.411,0,0,1,4.534-6.378,15.928,15.928,0,0,1,7.479-3.777,14.83,14.83,0,0,1,10.949,1.835,11.716,11.716,0,0,1,4.448,3.792c.96,1.521,2.233,2.835,3.293,4.3a9.2,9.2,0,0,1,1.719,6.474c-.016.144.06.349-.01.428-1.957,2.154.228,3.313,1.155,4.685s2.283,2.5,3.109,3.94c1.99,3.456,2.19,7.185,1.408,11.095a28.438,28.438,0,0,1-.934,4.637c-1.118,2.965-2.37,5.837-4.836,8.154m-32.523-4.915c.709.867,1.357,1.793,2.136,2.586a20.749,20.749,0,0,0,10.021,5.963c.7.169,1.547.9,2.039.463.53-.47-.052-1.435-.193-2.162-.24-1.249.3-2.217,1.459-2.254,1.286-.044,2.573,0,3.862-.015.863-.012,1.312.35,1.288,1.266-.021.8.032,1.6-.017,2.4-.034.595.2.722.734.716a11.763,11.763,0,0,0,7.082-2.6,18.219,18.219,0,0,0,6.79-10.164,42.168,42.168,0,0,0,1.239-5.577,20.41,20.41,0,0,0-.251-4.9c-.507-3.621-3.059-6.066-5.162-8.729-1.318-1.668-1.662-1.676-3.508-.625a44.767,44.767,0,0,1-15.34,4.988,68.387,68.387,0,0,1-9.257.471c-1.082.024-2.192.3-3.282-.362-.547-.328-1.129.1-1.38.887a17.745,17.745,0,0,0-1.312,5.141,29.72,29.72,0,0,0,.981,7.483,10.541,10.541,0,0,0,2.069,5.011m5.367-29.492a11.806,11.806,0,0,1,2.394-.409c1.942.06,3.879.318,5.824.4a32.674,32.674,0,0,1,9.553,2.333c1.292.457,2.469,1.256,4.076.793,2.609-.751,3.341-1.886,2.6-4.482a16.3,16.3,0,0,0-4.8-7.3c-3-2.8-6.6-4.639-11.05-4.057a13.038,13.038,0,0,0-7.632,3.418c-2.194,2.069-3.54,4.714-5.049,7.258-.348.587-.807,1.108-1.129,1.708a2.966,2.966,0,0,0-.135,1.016c.3-.02.591-.021.883-.064,1.349-.2,2.693-.4,4.468-.61m-10.948,6.772a11.326,11.326,0,0,0,4.311,1.517,52.115,52.115,0,0,0,10.326.425,15.866,15.866,0,0,0,4.081-.5c3.192-.9,6.339-1.971,9.5-2.976.185-.058.359-.148.539-.222-.152-.154-.277-.386-.459-.449-.567-.194-1.168-.29-1.735-.482a30.05,30.05,0,0,0-11.017-1.911,61.323,61.323,0,0,0-6.265.374,40.909,40.909,0,0,0-8.526,2.274,3.631,3.631,0,0,0-1.5,1.011c-.369.45-.054.777.739.937m24.044,29.274.258.175c-.016-.131-.028-.262-.258-.175m-1.289,2.622-.258-.175c.02.131.027.264.256.175Z" transform="translate(-1675.464 -180.194)"></path><path d="M417.886,2.263c2.04.732,2.479,2.678,2.795,4.159a39.234,39.234,0,0,1,.992,9.881,7.818,7.818,0,0,0,.288,2.472,7.451,7.451,0,0,1-.716,4.86,4.923,4.923,0,0,1-3.07,2.529,9.375,9.375,0,0,1-3.16.65c-5.519.2-11.04.331-16.561.454-2.073.047-4.15-.017-6.223.022-.675.013-1.595-.047-1.964.35a4.951,4.951,0,0,0-1.213,2.5,63.068,63.068,0,0,0-.927,9.68,48.634,48.634,0,0,1-.411,5.273,2.586,2.586,0,0,1-1.883,2.206,2.045,2.045,0,0,1-2.175-.825,11.2,11.2,0,0,1-1.917-2.462,61.43,61.43,0,0,1-4.28-9.981,27.455,27.455,0,0,1-.876-5.305c-.222-2.344-.832-3.037-3.119-3.208-1.517-.114-3.035-.246-4.542-.443a3.493,3.493,0,0,1-2.67-2.795,8.583,8.583,0,0,1-.4-1.784,17.807,17.807,0,0,0-1.212-6.922,17.922,17.922,0,0,1-.534-10.554c.251-1.058,1.821-2.554,2.848-2.358,2.322.443,4.474-.686,6.773-.517,2.424.18,4.862.041,7.3.041h7.083A56.54,56.54,0,0,1,395.4.244c4.167.545,8.35.069,12.482.47,2.024.2,4.047.148,6.05.387a20.1,20.1,0,0,1,3.96,1.162m-13.2,22.389a14.308,14.308,0,0,1,2.184-.42c2.948-.116,5.894.108,8.845-.406,2.109-.369,3.388-1.438,3.335-3.675-.05-2.053-.266-4.1-.409-6.154s-.228-4.109-.443-6.151c-.256-2.4-1.352-3.751-3.288-4.155a21.715,21.715,0,0,0-3.041-.435c-2.871-.183-5.747-.415-8.622-.43-9.8-.052-19.6-.007-29.409-.032-1.781,0-3.583-.231-4.7,1.656-.049.082-.271.038-.376.109-1.213.817-1.587,1.577-1.146,2.874a15.126,15.126,0,0,1,.8,5.125c-.033,2.621-.013,5.242-.007,7.864.005,1.825.517,2.355,2.264,2.49q2.168.168,4.329.437a4.42,4.42,0,0,1,3.714,3.305c.265,1.7.5,3.414.866,5.1A30.643,30.643,0,0,0,384.3,42.865a3.757,3.757,0,0,0,.63.577,3.637,3.637,0,0,0,.214-.777,67.951,67.951,0,0,1,.354-7.7c.31-1.909.507-3.837.917-5.746.775-3.608,4.034-5.931,7.481-4.926a8.128,8.128,0,0,0,2.206.342c2.717.038,5.436.015,8.584.015Z" transform="translate(-285.513 -0.068)"></path><path d="M1855.878,14.645c.107,2.217.06,4.332.118,6.44.081,2.888-2.057,5.379-5.535,5.7-7.8.726-15.615.307-23.423.414-2.774.038-3.03.265-3.695,3.043a29.764,29.764,0,0,0-.865,6.191c-.064,2.489-.206,4.98-.443,7.457a9.029,9.029,0,0,1-.848,2.688,1.815,1.815,0,0,1-2.4.625,4.4,4.4,0,0,1-1.78-1.381c-2.8-4.347-5.058-8.926-5.7-14.187-.154-1.278-.766-2.523-.784-3.789-.024-1.522-1.076-1.7-1.995-1.909a32.315,32.315,0,0,0-4.1-.472,4.534,4.534,0,0,1-3.142-1.256,3.878,3.878,0,0,1-1.138-2.808c0-1.837.341-3.737-.434-5.485-.491-1.108-1.236-2.085-1.286-3.4-.043-1.182-.335-2.351-.391-3.532-.074-1.524-.041-3.056-.01-4.581A3.21,3.21,0,0,1,1801.377,1a8.116,8.116,0,0,0,4.014-.691,3.72,3.72,0,0,1,1.638-.183c3.933-.013,7.894-.312,11.793.064,6.028.581,12.063-.027,18.057.463,2.882.236,5.758.13,8.623.365a38.123,38.123,0,0,1,5.646.879c2.08.493,3.047,2.226,3.521,4.148a25.6,25.6,0,0,1,.9,7.709,2.051,2.051,0,0,0,.312.891m-35.1,14.09c.419-2.3,2.226-4.114,4.207-4.146,7.664-.122,15.339.321,22.99-.443a14.725,14.725,0,0,0,3.239-.478,2.273,2.273,0,0,0,1.758-2.126c0-4.844.208-9.7-.844-14.483a3.362,3.362,0,0,0-2.909-2.989,63.974,63.974,0,0,0-6.724-.859q-7.3-.369-14.622-.449c-6.65-.074-13.306.114-19.951-.082-2.709-.08-4.39,1.33-6.1,2.992a1.048,1.048,0,0,0-.251.876,17.44,17.44,0,0,1,.747,6.237c-.034,2.328-.028,4.655,0,6.986.026,2.376.432,2.758,2.753,3.087,1.466.208,2.911.569,4.366.858a4.227,4.227,0,0,1,3.621,3.842c.221,1.707.541,3.4.85,5.1.712,3.93,2.561,7.368,4.541,10.745.09.154.3.239.448.356a1.357,1.357,0,0,0,.152-.369c.152-1.758.423-3.518.408-5.276a36.576,36.576,0,0,1,1.322-9.375Z" transform="translate(-1412.009 0.001)"></path><path d="M1075.791,163.914a4.946,4.946,0,0,1-1.791-4.19c-.116-2.979-.081-5.967-.015-8.95a35.448,35.448,0,0,1,.451-4.834,2.863,2.863,0,0,1,1.035-1.486c.123-.1.917.311,1.114.658.453.8.93.328,1.33.109a13.571,13.571,0,0,1,4.833-1.338c4.375-.618,8.793-.523,13.157-.94a139.261,139.261,0,0,1,14.634-.229c1.786.017,3.794.009,5.489,1.191a8.541,8.541,0,0,1,3.435,5.4c.938,4.193.27,8.464.427,12.7.017.443-.326.893-.378,1.354-.08.717-.284.916-.9.443a1.983,1.983,0,0,0-2.082-.094,28.729,28.729,0,0,1-3.34.76,23.107,23.107,0,0,1-3.317.779,3.068,3.068,0,0,0-2.4,1.793c-2.033,3.211-4.014,6.457-6.023,9.68-.657,1.051-1.4,2.078-2.825,1.684a1.58,1.58,0,0,1-.984-1.052,11.341,11.341,0,0,1,.247-2.489c.324-2.409.781-4.807.951-7.227.163-2.284-.129-2.626-2.365-2.257-4.729.782-9.476.148-14.2.4a11.852,11.852,0,0,1-5-.9,7.54,7.54,0,0,1-1.478-.967m26.084.765c-.285,2.427-.558,4.857-.871,7.281-.058.46-.32.892-.4,1.353-.036.231.133.5.208.746a2.735,2.735,0,0,0,.451-.467c1.069-1.8,2.2-3.574,3.165-5.438,1.146-2.223,2.249-4.406,4.957-5.01,1.174-.262,2.325-.695,3.51-.847,3.368-.431,4.236-1.343,3.525-4.691a34.281,34.281,0,0,1-.813-7.731c.03-2.039-.423-2.52-2.5-2.438-4.089.157-8.179-.308-12.279.361-3.04.5-6.157.074-9.268.387a99.135,99.135,0,0,1-13.079.051c-1.054-.034-1.548-.173-1.526,1.132.057,3.639,0,7.28.028,10.92a2.1,2.1,0,0,0,1.892,2.407,17.576,17.576,0,0,0,4.36.845c4.521-.018,9.04-.238,13.559-.4a4.594,4.594,0,0,0,.93-.34c1.911-.536,3-.074,4.154,1.883m-6.655-19.443c-2.849.148-5.7.28-8.544.457-.238.015-.46.321-.687.493.279.12.674.424.813.33.9-.591,1.872-.347,2.821-.411q3-.2,5.992-.451c.017,0,.017-.273-.4-.419Z" transform="translate(-843.379 -111.473)"></path><path d="M2524.167,144.789a9.822,9.822,0,0,1,2.164-.318c5.867-.016,11.737-.066,17.6.008,4.985.063,6.59,2.208,7.782,5.828a19.135,19.135,0,0,1,.861,4.87c.139,2.467.045,4.951.03,7.425a5.494,5.494,0,0,1-.163,1.459c-.443,1.552-.463,1.546-2.035,1.1-.26-.074-.591-.239-.783-.143a19.713,19.713,0,0,1-6.043,1.47c-2.57.384-3.755,2.124-4.923,4.151-1.625,2.826-3.405,5.562-5.148,8.316a2.826,2.826,0,0,1-1.067,1.054,2.2,2.2,0,0,1-1.552.158c-.311-.12-.55-.786-.582-1.226a21.013,21.013,0,0,1,.729-6.228,30.862,30.862,0,0,0,.522-4.368c.074-.961-.541-1.228-1.368-1.162-2.726.222-5.448-.049-8.208.313a19.319,19.319,0,0,1-7.98-.261c-1.155-.336-2.449-.013-3.681-.461a5.126,5.126,0,0,1-3.673-4.951c-.038-1.326-.384-2.648-.377-3.97,0-1.469.275-2.936.393-4.407.163-2.05.266-4.1.443-6.152.092-1.077.913-1.494,1.739-.77s1.359.716,2.127-.049a3.011,3.011,0,0,1,1.636-.676c1.505-.214,3.024-.341,4.54-.454,2.3-.17,4.6-.3,7.014-.553m5.475,4.479a17.761,17.761,0,0,1-2.181.423c-2.586.183-5.172.343-7.759.438-1.785.066-3.577.09-5.359-.013-1.37-.079-2.812.464-4.126-.387-.069-.044-.489.239-.521.412a19.681,19.681,0,0,0-.431,3.088c-.058,2.762-.093,5.53.015,8.289a2.506,2.506,0,0,0,1.876,2.672,12.117,12.117,0,0,0,3.737.8c5.659-.14,11.317-.306,16.977-.425,1.75-.037,2.259.507,2.276,2.239a18.791,18.791,0,0,1-1.23,7.991c-.074.16.148.453.231.683.192-.14.452-.237.561-.426,1.324-2.274,2.591-4.586,3.95-6.84,1.174-1.947,2.635-3.488,5.11-3.689,1.324-.108,2.617-.6,3.938-.828a2.8,2.8,0,0,0,2.462-3.19,37.106,37.106,0,0,1-1.282-9.06c.007-1.943-.27-2.287-2.129-2.608a5.549,5.549,0,0,0-1.283-.007c-2.158.137-4.311.355-6.471.415-2.642.074-5.288.018-8.362.018m-11.379-1.53a3.968,3.968,0,0,0,.981.207q4.3-.188,8.6-.443c.249-.016.483-.3.723-.463-.271-.131-.55-.39-.813-.369-1.23.1-2.449.34-3.677.4-1.87.083-3.762-.159-5.809.664Z" transform="translate(-1968.234 -112.884)"></path><path d="M1906.447,266.02c0,1.6.069,2.987-.013,4.364a51.239,51.239,0,0,1-1.917,11.405,47.417,47.417,0,0,1-3.667,9.15,66.365,66.365,0,0,1-5.911,9.3c-.974,1.256-1.867,2.586-2.9,3.785a6.993,6.993,0,0,1-2.1,1.66c-.324.163-.949-.3-1.436-.472.148-.351.2-.821.457-1.034,3.207-2.672,5.283-6.277,7.583-9.664a43.688,43.688,0,0,0,6.285-13.7,56.249,56.249,0,0,0,1.571-8.1c.23-2.208.3-4.394.331-6.594a38.755,38.755,0,0,0-1.75-10.827,5.705,5.705,0,0,1-.37-1.145c-.028-.786-.408-1.025-1.109-1.262a16.573,16.573,0,0,1-3.227-1.544,3.031,3.031,0,0,1-1.1-3.968,4.858,4.858,0,0,1,3.553-3.177,3.751,3.751,0,0,1,4.416,2.091,3.916,3.916,0,0,1-.431,4.661,2.4,2.4,0,0,0-.346,2.438,44.134,44.134,0,0,1,1.764,8.229c.178,1.4.193,2.8.324,4.417m-2.791-18.351c-.074-.115-.143-.229-.214-.344-.681-1.088-2.018-1.717-2.853-1.339-.507.228-.711,1.2-.417,1.159,1.487-.226,1.458,1.285,2.212,1.87a4.787,4.787,0,0,1,.693.838,7.57,7.57,0,0,0,.775-1.108c.112-.235.019-.57-.2-1.078m-3.649,2.84,1.163.563a10.134,10.134,0,0,0-.5-1.178,2.3,2.3,0,0,0-.591-.6,1.45,1.45,0,0,0-.438-.162,2.712,2.712,0,0,0-.058.61,1.878,1.878,0,0,0,.424.768Z" transform="translate(-1483.083 -190.751)"></path><path d="M1325.323,386.4c-1.921,4.36-3.825,8.506-5.772,12.635-.745,1.581-1.728,3.062-2.333,4.692-.382,1.027-1,.9-1.753,1.061-1.022.222-1.043-.684-1.217-1.1a36.189,36.189,0,0,1-1.773-5.143c-.607-2.476-2.224-3.668-4.6-2.853a4.345,4.345,0,0,1-4.24-.531c-1.131-.785-1.245-1.289-.352-2.282,1.969-2.189,4.609-3.445,6.936-5.13,2.449-1.773,5.07-3.314,7.657-4.886,1.478-.9,3.016-1.714,4.572-2.467,1.363-.66,2.108.675,3.059,1.218.852.486.878,1.295.448,2.217a11.727,11.727,0,0,0-.633,2.57m-2.365-1.747c-2.724,2.323-4.629,5.547-7.915,7.286a5.156,5.156,0,0,0-1.956,2.4c-.474,1.053.82,1.864.828,2.948a3.348,3.348,0,0,0,.245.98c.421,1.272.9,2.526,1.266,3.813.185.645.813.575.792.3-.095-1.182.917-1.667,1.3-2.53,1.591-3.609,3.325-7.15,4.92-10.759.674-1.524,1.125-3.15,1.668-4.729a2.927,2.927,0,0,0,.082-.572,2.476,2.476,0,0,0-.556.2,5.782,5.782,0,0,0-.674.671m-9.015,3.058c-.451.291-.9.591-1.354.873-2.454,1.5-4.911,3-7.355,4.513-.193.12-.29.4-.432.6a2.975,2.975,0,0,0,.591.121c1.425.01,2.853-.051,4.274.023a3.6,3.6,0,0,0,2.922-1.252c1.64-1.7,3.3-3.371,4.959-5.054,1.309-1.33,2.625-2.66,3.922-4.009.135-.141.148-.4.222-.607a1.739,1.739,0,0,0-.576.123c-2.326,1.471-4.638,2.959-7.173,4.662Z" transform="translate(-1023.032 -297.152)"></path><path d="M439.918,302.614c1.145-1.847,2.392-3.41,3.415-5.114a47.318,47.318,0,0,0,5.091-13.119c.6-2.438.383-5.1.507-7.657a31.3,31.3,0,0,0-.819-8.6c-.161-.7-.267-1.208-1.02-1.34-2.679-.469-2.894-2.914-3.72-4.853-.086-.2.067-.536.165-.788.492-1.266,2.775-2.85,3.81-2.66,1.543.283,3.672,2.319,3.7,3.759a5.14,5.14,0,0,1-.517,3.012c-1.011,1.273-.77,2.425-.5,3.763a28.1,28.1,0,0,1,.6,4.328c.1,2.179.055,4.365.019,6.548a30.3,30.3,0,0,1-3.041,12.685c-1.542,3.218-2.815,6.605-5.1,9.432-1.206,1.494-2.185,3.177-3.4,4.666a52.951,52.951,0,0,1-4.563,5.05,12.289,12.289,0,0,1-4.384,2.909c-.992.345-1.121-.234-1.51-.579-.734-.649.222-.842.448-1.03.554-.466,1.363-.637,1.873-1.135,2.311-2.26,4.552-4.593,6.819-6.9a23.281,23.281,0,0,0,2.124-2.38m6.654-42.382c-.155.148-.287.357-.47.426a1.338,1.338,0,0,0-.879,1.68c.154.779.675.61,1.317.575a2.037,2.037,0,0,1,1.974,1.193c.1.2.324.332.491.5.119-.213.321-.416.344-.639C449.592,261.578,449.374,261.246,446.572,260.232Z" transform="translate(-336.418 -202.003)"></path><path d="M2699.63,428.018c-2.579-2.478-5.049-4.844-7.519-7.216a8.008,8.008,0,0,1-1.054-1.087c-1.587-2.268-1.355-3.073,1.285-3.794a26.387,26.387,0,0,1,5.006-.873c3.368-.245,6.747-.337,10.123-.449a2.365,2.365,0,0,1,1.552.336c.585.545.967.665,1.586.115.14-.125.78.041.887.242a1.126,1.126,0,0,1-.153.977,4.848,4.848,0,0,1-1.108.932c-1.552,1.1-3.123,2.167-4.677,3.264a5.378,5.378,0,0,0-.612.611c-1.7,1.678-1.743,1.921-.7,4.223.359.8.735,1.584,1.065,2.39.625,1.523.007,2.5-1.552,2.133a21.6,21.6,0,0,1-4.131-1.8m-6.118-8.848c-.135.154-.391.443-.389.443,1.793,1.713,3.547,3.473,5.427,5.079,1.394,1.19,2.95,2.187,4.455,3.24.174.121.479.049.721.067a2.474,2.474,0,0,0-.134-.739c-.531-1.013-1.125-2-1.638-3.016a2.046,2.046,0,0,1-.228-1.167,8.041,8.041,0,0,1,.571-1.519c-.579-.153-1.163-.3-1.739-.463-.38-.112-.745-.276-1.123-.393a46.166,46.166,0,0,0-5.926-1.532m2.577-.874a29.321,29.321,0,0,0,4.886,1.012c.927.044,1.795.882,2.862.117a41.974,41.974,0,0,1,3.982-2.232.614.614,0,0,0,.267-.474.525.525,0,0,0-.361-.37c-.779-.035-1.734-.306-2.3.049-.9.564-1.767.231-2.632.369-.934.148-1.866.323-2.808.431-1.5.172-3.006.3-4.507.462a2.271,2.271,0,0,0-.028.419,1.038,1.038,0,0,1,.644.217Z" transform="translate(-2112.57 -324.021)"></path><path d="M1122.12,347.763a27.7,27.7,0,0,1,2.245-10.834,8.974,8.974,0,0,0,1.228-4.737c-.126-1.319,2.43-3.627,3.789-3.653,1.478-.028,3.362,1.894,3.473,3.547.163,2.457-.393,3.443-2.57,4.04a3.087,3.087,0,0,1-2.255-.213c-1.208-.784-1.29-.087-1.642.813a31.865,31.865,0,0,0-2.25,8.472,22.2,22.2,0,0,0-.24,4.407,40.194,40.194,0,0,0,2.265,9.5A25.307,25.307,0,0,0,1133,369.52c.455.409,1.035.677,1.466,1.108.245.245.5.92.415.992-.339.29-.861.641-1.224.556a3.635,3.635,0,0,1-1.533-.935c-2.467-2.3-4.951-4.668-6.322-7.8a37.677,37.677,0,0,1-3.317-10.4,45.4,45.4,0,0,1-.363-5.281m5.366-14.418a4.258,4.258,0,0,1,.443.46,1.643,1.643,0,0,0,2.155.757,1.864,1.864,0,0,0,1.077-1.9,2.2,2.2,0,0,0-1.365-2.183c-.346-.126-.887-.222-1.121-.042a11.263,11.263,0,0,0-1.79,1.824c-.082.11.251.569.6,1.084Z" transform="translate(-881.228 -256.766)"></path><path d="M2536.5,349.872a11.929,11.929,0,0,1,1.316-4.833c.7-1.739,1.529-3.438,2.069-5.227a9.676,9.676,0,0,0,.14-3.208,3.7,3.7,0,0,1,1.262-2.967c1.469-1.431,2.888-1.518,4.755-.259a3.274,3.274,0,0,1,1.024,4c-.82,1.86-2.707,3.148-4.229,2.438-1.035-.479-1.256-.092-1.49.587-1.024,2.986-2.488,5.781-3.083,8.963-.732,3.907-.044,7.556.833,11.305a22.5,22.5,0,0,0,2.05,5.9c.826,1.489,1.886,2.844,2.853,4.252a14.95,14.95,0,0,0,1.221,1.66c.443.484.689,1.026.177,1.452-.2.163-.979-.088-1.247-.383a34.962,34.962,0,0,1-3.226-3.867,26.194,26.194,0,0,1-3.909-9.906c-.634-3.251-1.182-6.482-.513-9.909m5.69-12.783c.262.364.457.938.8,1.056a2.042,2.042,0,0,0,2.586-2.43,2.305,2.305,0,0,0-1.292-1.4c-.56-.191-1.518-.422-1.872.42-.241.572-1.238,1.178-.226,2.365Z" transform="translate(-1991.739 -259.857)"></path><path d="M950.6,73.692c-1.175.468-2.251.8-3.308,1.19-1.613.591-3.214,1.222-4.818,1.841-.061.024-.1.119-.159.134-2.127.528-3.446-.685-2.734-2.774,1.2-3.493,2.386-7.02,4.607-10.04,1.024-1.394,1.866-1.449,2.625-.021A6.327,6.327,0,0,1,947.267,66c.157,1.029.4,1.91,1.733,1.693.25-.041.655,0,.769.16.665.946,1.626.676,2.512.7s1.905-.134,2.257.9a2.143,2.143,0,0,1-1.035,2.578c-.9.567-1.86,1.034-2.9,1.659m-4.185-4.915c-.143-1.024-.271-2.05-.443-3.069a2.351,2.351,0,0,0-.336-.644c-.23.133-.579.209-.672.409q-1.884,4.083-3.688,8.2a.436.436,0,0,0,.758.411,52.613,52.613,0,0,0,4.378-5.308m6.225,1.53c-1.366-.906-2.882-.25-4.315-.4-.089-.01-.2.2-.3.3-1.4,1.286-2.817,2.563-4.207,3.866-.135.126-.135.4-.2.606a4.082,4.082,0,0,0,.579-.148c1.655-.672,3.325-1.306,4.951-2.048a14.818,14.818,0,0,0,3.5-2.167Z" transform="translate(-737.728 -49.214)"></path><path d="M352.6,328.514c1.533-.326,2.05.074,2.161,1.545a20.035,20.035,0,0,1,.385,2.654q-.316,4.844-.855,9.673c-.129,1.137-1.2,1.4-1.943.457a15.843,15.843,0,0,1-1.462-2.645c-.645-1.256-1.249-2.53-1.907-3.776-.233-.443-.451-.383-.927-.074-1.051.686-1.9,1.807-3.341,1.788-1.14-.015-1.573-.559-1.06-1.581a7.611,7.611,0,0,1,1.2-1.672q3.46-3.791,6.978-7.529c.253-.269.918-.591.984-.517.449.51.308,1.034-.321,1.564-1.773,1.954-3.446,3.8-5.116,5.642-.1.107-.232.192-.288.316-.022.049.148.266.188.254.919-.273,2.23-.28,2.668-.912a39.261,39.261,0,0,0,2.654-5.192m0,3.714c-1.759,2.966-1.759,2.966-.858,5.9.138.451.157,1.056.459,1.311.451.381.067,1.409,1.029,1.309-.066-.414-.134-.828-.2-1.241a.444.444,0,0,1,0-.217c.935-2.365.186-4.835.423-7.241a1.282,1.282,0,0,0-.018-.644c-.069-.139-.437-.29-.478-.247a2.023,2.023,0,0,0-.358,1.074Z" transform="translate(-269.708 -255.429)"></path><path d="M2210.458,70.192c-1.108-1.167-2.308-2.069-2.686-3.6-.271-1.113.03-1.532,1.2-1.524a37.545,37.545,0,0,0,7.8-.853,5.911,5.911,0,0,1,2.555.028,2.161,2.161,0,0,1,1.264,1.231c.116.313-.333,1.014-.7,1.311a38.077,38.077,0,0,1-3.171,2.2c-.764.493-1.1.965-.49,1.878.395.6.457,1.41.8,2.05.331.612.322,1.1-.206,1.49a1.313,1.313,0,0,1-1.885-.089c-1.061-1.081-2.106-2.177-3.194-3.23a13.216,13.216,0,0,0-1.284-.89m3.757.327c.085-.641.451-1.492.18-1.87-.314-.439-1.187-.465-1.816-.665-.315-.1-.638-.191-.949-.3-.543-.2-1.026-.787-1.674-.25a11.437,11.437,0,0,1,1.261.932c.982.95,1.921,1.951,2.9,2.908.1.1.351.027.53.034a3.013,3.013,0,0,0-.429-.782m1.933-4.588c-.657.148-1.314.286-1.966.443a1.763,1.763,0,0,0-.356.175,2.429,2.429,0,0,0,.249.256,3.09,3.09,0,0,0,3.752-.423c.048-.055-.1-.417-.18-.429a12.762,12.762,0,0,0-1.5-.026Z" transform="translate(-1733.744 -50.084)"></path><path d="M232.278,603.052c0-.872.021-1.527-.016-2.178a.555.555,0,0,0-.321-.418.733.733,0,0,0-.517.226c-1.478,1.394-1.5,1.4-3.251.159-.887-.628-.933-.595-1.056.44a13.935,13.935,0,0,1-.457,2.64c-.161.5-.673.875-1.028,1.306a5.493,5.493,0,0,1-.625-1.451c-.1-.858.245-1.872-.088-2.581-.605-1.289.066-2.4.091-3.587.024-1.1.674-1.419,1.707-.831a12.346,12.346,0,0,1,2.1,1.675c.969.881.946.9,1.747-.281a4.672,4.672,0,0,1,.66-.808,1.33,1.33,0,0,1,2.322.452,12.883,12.883,0,0,1,.859,2.682c.226,1.083.31,2.2.443,3.3a1.675,1.675,0,0,1-.005.65c-.194.665-.083,1.646-1.091,1.633-.819-.01-.839-.867-1.046-1.467A12.67,12.67,0,0,1,232.278,603.052Z" transform="translate(-176.437 -466.177)"></path><path d="M2963.823,604.4a6.327,6.327,0,0,1,.081-9.04c1.891-1.7,4-.967,4.545,1.544.275,1.261.913,2.4.887,3.781a3.546,3.546,0,0,1-1.672,3.361c-1,.563-2.054,1.427-3.313.473-.09-.069-.279-.009-.528-.118m.752-4.041a4.761,4.761,0,0,1,0,.646,1.067,1.067,0,0,0,.788,1.295c.674.166.989-.291,1.416-.867.719-.966.148-1.707-.088-2.474a8.951,8.951,0,0,0-1.078-1.838c-.346.718-.707,1.428-1.024,2.159a4.238,4.238,0,0,0-.006,1.078Z" transform="translate(-2326.102 -464.581)"></path><path d="M3193.736,595.984c-.172-1.244.228-2.277-.363-3.345-.337-.61-.344-.6-.689-.165-.47.6-.891,1.23-1.369,1.817-1.2,1.47-1.726.844-2.512-.065-.123-.141-.1-.429-.23-.544a2.339,2.339,0,0,0-.659-.291,4.84,4.84,0,0,0-.067.744c.094,1.482.237,2.963.279,4.447.009.274-.363.56-.559.841a3.807,3.807,0,0,1-.6-.51,1.956,1.956,0,0,1-.513-.865c-.182-1.9-.268-3.8-.465-5.7a1.71,1.71,0,0,1,.892-1.787,1.561,1.561,0,0,1,1.277.018c.423.211.7.716,1.085,1.034a2.554,2.554,0,0,0,1.182.715c.221.018.476-.634.758-.945a12.805,12.805,0,0,1,1.367-1.38c.449-.369,1.319-.976,1.424-.872.616.608,1.563.991,1.5,2.177-.09,1.812.054,3.637-.067,5.446-.041.635-.583,1.761-.872,1.753-.887-.023-.823-.932-.8-1.651C3193.736,596.642,3193.736,596.42,3193.736,595.984Z" transform="translate(-2502.023 -460.42)"></path><path d="M142.59,608.234a1.309,1.309,0,0,1-.517-.3c-3.667-2.786-1.833-6.09.4-8.494,1.091-1.173,2.694-1.149,3.665.8a7.389,7.389,0,0,1-.125,7.128c-.755,1.437-1.552,1.615-3.425.87m2.147-4.154a21.536,21.536,0,0,0-.044-2.586c-.024-.192-.454-1.131-.966-.3a18.02,18.02,0,0,0-1.53,3.019c-.218.581.763,1.779,1.335,1.817C144.617,606.116,144.778,605.392,144.737,604.079Z" transform="translate(-109.933 -467.863)"></path><path d="M3007.623,598.207a5.031,5.031,0,0,1-3.781,4.8c-.665.11-3.36-1.317-3.458-1.954a1.172,1.172,0,0,1,.538-1,3.206,3.206,0,0,1,1.576.16,2.117,2.117,0,0,0,2.639-.569.841.841,0,0,0-.413-1.43c-.41-.092-.908.109-1.273-.048a6.925,6.925,0,0,1-1.323-.971c.244-.309.479-.628.739-.924.239-.271.531-.5.747-.782a4.376,4.376,0,0,0,.382-.765,7.147,7.147,0,0,0-1.108-.437c-.142-.033-.374.154-.5.3-.47.507-1,.931-1.6.324-.365-.369.087-2.076.577-2.334,1-.528,2.211-.924,3.139-.3,1.022.689,2.143,1.626,1.675,3.262a.823.823,0,0,0,.1.607A22.7,22.7,0,0,1,3007.623,598.207Z" transform="translate(-2356.27 -462.643)"></path><path d="M186.829,599.975a13.722,13.722,0,0,1,.579-1.861,1.919,1.919,0,0,1,3.081-.336,6.182,6.182,0,0,1,1.693,3.429c.409,1.564,1.3,3,1.182,4.7a2.947,2.947,0,0,1-.253.731c-.239-.113-.546-.166-.7-.351a10.7,10.7,0,0,1-1.351-1.816c-.6-1.136-1.492-.451-2.248-.432a1.006,1.006,0,0,0-1.014,1.281c.083.665-.226,1.241-.8,1.275-.79.046-1-.636-.921-1.351.2-1.721.425-3.44.747-5.268m2.684,1.638a6.444,6.444,0,0,0-.031-1.256c-.024-.119-.421-.16-.647-.237-.112.645-.8,1.451.678,1.493Z" transform="translate(-146.118 -466.704)"></path><path d="M42.9,597.664a30.88,30.88,0,0,1,1.586,3.842,4.43,4.43,0,0,1-2.693,4.9,1.7,1.7,0,0,1-1.146-.137,3.927,3.927,0,0,1-2.586-3.879c.061-1.539-.193-3.092,1.182-4.317,1.445-1.289,1.666-1.4,3.659-.409m-.966,2.512c-.706-.9-.972-.968-1.256-.177a6.054,6.054,0,0,0-.395,2.627c.053.465.813.845,1.25,1.264a4.7,4.7,0,0,0,.781-1.5,13.215,13.215,0,0,0-.383-2.206Z" transform="translate(-29.889 -466.578)"></path><path d="M3113.969,600.148a4.4,4.4,0,0,1-1.561,5.328,2.945,2.945,0,0,1-4.328-2.444c.017-1.728-.3-3.473.8-5.108a2.356,2.356,0,0,1,2.486-1.334c.852.172,1.917.361,1.889,1.764a4.685,4.685,0,0,0,.714,1.795M3110,602.661c.29.291.552.764.88.82.3.05.923-.313.961-.567a5.858,5.858,0,0,0-.037-2.291c-.129-.517-.65-.939-1-1.4-.2.49-.427.97-.585,1.473a4.789,4.789,0,0,0-.218,1.966Z" transform="translate(-2440.826 -466.222)"></path><path d="M3073.97,600.007a5.945,5.945,0,0,1-.856,3.976,2.17,2.17,0,0,1-3.1.966,2.944,2.944,0,0,1-2.082-3.219c.138-1.442-.126-2.891.854-4.212.792-1.065,2.586-1.955,3.673-1.4a1.878,1.878,0,0,1,.638,1.009,28.43,28.43,0,0,1,.872,2.886m-3.865,1.092c.018.76-.19,1.9.8,1.882.9-.018.927-1.144.921-1.974a.951.951,0,0,0,0-.217c-.217-.838-.443-1.674-.665-2.512a3.432,3.432,0,0,0-1.052,2.821Z" transform="translate(-2409.304 -465.754)"></path><path d="M100.1,605.65a5.235,5.235,0,0,1,1.493-4.385,2.634,2.634,0,0,1,4.266.423c.111.163.29.443.233.534-.887,1.348.1,2.675.01,4a3.592,3.592,0,0,1-2.53,2.922c-1.663.148-2.489-.443-3.046-2.151a14.088,14.088,0,0,1-.426-1.344m3.864-.222c-.143-.449-.282-.9-.431-1.347-.118-.354-.249-.7-.374-1.057-.279.338-.692.636-.8,1.025a3.8,3.8,0,0,0-.074,1.7,4.31,4.31,0,0,0,.665,1.208,4.588,4.588,0,0,0,1.022-1.525Z" transform="translate(-78.608 -469.213)"></path><path d="M3156.785,598.027c-1.342-.82-.954-2.212-1.175-3.273-.251-1.2-.6-2.682.29-3.95.168-.241.01-.709.028-1.07.041-.758-.271-1.633.6-2.139a4.978,4.978,0,0,1,1.764-.887c1.4-.133,2.894,1.856,2.793,3.5a3.069,3.069,0,0,1-1.886,2.409,2.522,2.522,0,0,0-1.552,2.854,3.057,3.057,0,0,1-.858,2.559m1.288-7.646c.1.189.2.378.3.568a4.631,4.631,0,0,0,.539-1.074c.152-.71-.41-.623-.808-.576-.678.083-.552.461-.028,1.084Z" transform="translate(-2477.957 -458.531)"></path><path d="M3040.12,601.645c1.222-1.091,1.67-1.074,2.336.021a1.04,1.04,0,0,1-.171.99,1.826,1.826,0,0,1-1.349.249C3040.586,602.783,3040.386,602.228,3040.12,601.645Z" transform="translate(-2387.479 -469.577)"></path><path d="M3044.072,621.3c1-.42,1.739-.222,1.793.82.047.915-.7,1.153-1.451,1.023C3043.1,622.916,3043.828,622.069,3044.072,621.3Z" transform="translate(-2390.252 -485.409)"></path><path d="M78.549,608.54c.551.2,1.029.311,1.2.607a1.034,1.034,0,0,1-.591,1.513c-.2.074-.8-.545-.993-.961C78.026,609.409,78.265,608.934,78.549,608.54Z" transform="translate(-61.352 -475.598)"></path><path d="M78.039,629.936c.134-.6-.364-1.365.513-1.281a3.727,3.727,0,0,1,1.2.621,4.087,4.087,0,0,1-.782,1.06C78.791,630.466,78.358,630.227,78.039,629.936Z" transform="translate(-61.269 -491.314)"></path><path d="M3010.691,175.654c.09-.955.228-1.789,1.131-2.052s1.34.232,1.074,1.114c-.253.836-.578,1.653-.78,2.5-.047.2.284.485.443.731.129-.2.249-.41.389-.605a19.028,19.028,0,0,1,1.352-1.816c.117-.13.605-.024.839.117.1.062.088.542-.031.725-.234.355-.7.583-.853.955-.328.789-.8,1.5.148,2.42a6.026,6.026,0,0,1,1.563,3.9c.052.6.369,1.182.4,1.784a11.022,11.022,0,0,1-2.426,7.476c-1.478,1.9-5.732,1.747-7.04-1.019a34.419,34.419,0,0,1-1.713-5.39c-.606-2.1-.074-4.047.334-6.054a2.386,2.386,0,0,0-.41-1.468c-.245-.425-.745-.692-1.022-1.1a.925.925,0,0,1,.324-1.437c.168-.086.645.271.873.525.312.348.479.828.788,1.177.138.154.47.129.715.185a2.106,2.106,0,0,0-.024-.739c-.443-1.054-1.3-1.966-1.1-3.233.043-.271.238-.669.443-.729.361-.107.835-.185.854.547a5.2,5.2,0,0,0,.415,1.561,6.244,6.244,0,0,0,.5.917,5.653,5.653,0,0,0,.329-1.087c.055-.576-.016-1.164.028-1.742a1.03,1.03,0,0,1,.3-.724,2.38,2.38,0,0,1,1.127-.333,1.445,1.445,0,0,1,.253.887,9.824,9.824,0,0,1-.4,1.132c-.23.953.322,1.093,1.173.887m-1.4,4.042c-.5.112-1.385.124-1.442.35-.429,1.725-1.17,3.416-.915,5.262.114.813.271,1.617.431,2.421a3.809,3.809,0,0,0,.26.653c.054-.194.105-.389.163-.582.683-2.217,1.812-3.125,3.645-2.843a9.393,9.393,0,0,1,1.466.576.578.578,0,0,0,.451-.126,7.676,7.676,0,0,0-.876-5.035,3.484,3.484,0,0,0-1.668-1.072c-.273-.108-.716.245-1.514.39Z" transform="translate(-2359.016 -135.011)"></path><path d="M2959.287,320.708c-2.6-.4-4.092-2.174-5.447-4.029a15.971,15.971,0,0,1-1.507-3.058c-.517-1.182-.21-2.229.918-2.61a27.019,27.019,0,0,1,6.981-1.808,50.285,50.285,0,0,0,5.21-.838,2.836,2.836,0,0,1,3.4,2.882,8.877,8.877,0,0,1-2.194,6.669c-1.908,2-4.053,3.975-7.359,2.791m1.182-2.291c2.716.143,2.935-.623,3.933-2.719.574-1.2.956-2.5,1.439-3.743.208-.541.67-1.17-.5-.972-.277.047-.573-.031-.853.013-2.746.427-5.481.925-8.238,1.268-.764.1-.916.525-.69.936,1.132,2.044,1.834,4.507,4.908,5.215Z" transform="translate(-2318.35 -240.961)"></path><path d="M1654.324,216.539c.443.148.652.386.9.421a3.674,3.674,0,0,1,2.75,2.147,22.48,22.48,0,0,1,2.3,5.985,9.193,9.193,0,0,1-.87,5.679c-1.312,2.94-4.021,3.756-6.537,1.891a6.1,6.1,0,0,1-2.849-5.3c.1-2.519-.187-5.062.867-7.476.674-1.547,1.428-2.956,3.446-3.348m1.074,7.428a.58.58,0,0,1,.21,0c.659.274,1.784.919,1.892.774.55-.732-.324-1.249-.581-1.888-.1-.247.069-.608-.035-.851a8.558,8.558,0,0,0-1.906-2.891c-.762-.739-1.236-.253-1.47.275a24.424,24.424,0,0,0-1.3,3.774,4.931,4.931,0,0,0,.148,1.645,6.228,6.228,0,0,1,1.182-.677,8.343,8.343,0,0,1,1.855-.16Z" transform="translate(-1295.787 -169.233)"></path><path d="M1558.462,235.153c-.577,1.719-2.04,2.143-3.295,2.69-.887.389-3.339-1.06-3.887-2.136a9.973,9.973,0,0,1-1.33-4.892,23.753,23.753,0,0,1,.842-6.615,6.98,6.98,0,0,1,2.428-3.311c1.191-.992,3.489-.474,4.5.813.3.381.621.746.887,1.152.178.276.463.692.374.9-.891,2.1.271,4,.443,6a14.2,14.2,0,0,1-.953,5.4m-3.325-12.34c-1.208-.559-1.408.547-1.685,1.2-.412.98-.4,2.186-.938,3.062-.786,1.276-.107,1.431.747,1.151a3.287,3.287,0,0,1,2.748.307c.712.386.9.139.839-.537-.135-1.454-.262-2.912-.509-4.348-.053-.262-.652-.42-1.213-.842Z" transform="translate(-1217.206 -172.226)"></path><path d="M1570.1,337.113c-1.275-.728-2.336-1.459-3.4-2.182-.165-.112-.37-.165-.524-.289-1.423-1.155-1.33-2.394.283-3.191a4.959,4.959,0,0,1,1.745-.443,45.406,45.406,0,0,0,6.451-.527c2.029-.474,4.1-.058,6.114-.729,1.164-.386,2.634.205,3.811-.157a4.752,4.752,0,0,1,2.466.041c2.089.35,2.212,1.71,1.694,3.177a6.955,6.955,0,0,1-2.784,3.585,13.23,13.23,0,0,1-7.134,2.5,20.954,20.954,0,0,1-8.039-1.354c-.182-.074-.313-.282-.683-.428m-1.5-3.058a4.211,4.211,0,0,1,1.3.478,12.488,12.488,0,0,0,6.46,2.506,10.106,10.106,0,0,0,9.31-3.321c.537-.6,1.634-1.136,1.061-2.045-.249-.4-1.537-.443-2.175-.188-1.638.659-3.362.472-5.025.755-2.4.407-4.866.335-7.3.513a34.481,34.481,0,0,0-3.886.453c-.838.157.041.41.263.848Z" transform="translate(-1229.169 -257.475)"></path><path d="M110.8,298.837a17.512,17.512,0,0,1-6.711,3.325c-4.393,1-9.412-.155-11.724-5.208a4.9,4.9,0,0,1-.236-3.083,1.813,1.813,0,0,1,2.1-1.517c4.347.1,8.7.074,13.046.024a9.516,9.516,0,0,1,4.338,1.438,2.257,2.257,0,0,1,.641,3.083,15.013,15.013,0,0,1-1.45,1.94m-6.118-4.26c-.3-.148-.591-.415-.893-.418-3.069-.031-6.14-.063-9.207.024-.509.015-1.225.459-.595,1.339a5.2,5.2,0,0,1,.471,1.321c.876,2.512,5.183,4.1,7.6,3.8a15.813,15.813,0,0,0,7.776-3.473,6.075,6.075,0,0,0,.928-1.218c-.6-.46-1.182-.94-1.8-1.364-.148-.1-.418-.015-.633-.015Z" transform="translate(-72.244 -228.483)"></path><path d="M788.944,378.949c2.265-.918,4.138-.4,5.03,1.434.486,1-.092,1.876-.681,2.65a9.185,9.185,0,0,1-4.882,3.216c-3.538,1.04-6.986.987-10.165-1.192a5.2,5.2,0,0,1-1.552-1.375,2.414,2.414,0,0,1-.378-2.673,2.6,2.6,0,0,1,2.337-1.612c3.358-.175,6.718-.3,10.292-.448m-7.513,2.185c-.57,0-1.144.043-1.709-.011-.618-.059-1.348.053-1.393.624a2.255,2.255,0,0,0,.845,1.552c3.417,2.869,10.013,2.08,12.553-1.292.222-.3.66-.357.338-1.114-.365-.859-.922-.746-1.264-.591-1.56.706-3.173.284-4.756.392a42.135,42.135,0,0,0-4.619.439Z" transform="translate(-609.446 -295.815)"></path><path d="M2274.3,363.336c-.835-.028-1.565.328-2.31-.318a6.229,6.229,0,0,1-2.231-3.865,13.262,13.262,0,0,1,.394-6.346,3.458,3.458,0,0,1,2.01-2.2c1.689-.63,2.688-.4,3.52,1.256a32.106,32.106,0,0,1,1.709,3.864,6.457,6.457,0,0,1-3.093,7.611m-2.684-7.759c.052,1.142.148,1.312.627,1.108,1.71-.721,1.9-.665,3.033.739.14.172.425.222.644.324.037-.248.168-.532.09-.739-.509-1.38-1.06-2.744-1.606-4.11-.365-.916-.844-1.026-1.522-.365a4.268,4.268,0,0,0-1.264,3.047Z" transform="translate(-1782.34 -273.758)"></path><path d="M2198.272,358.919c.393-1.5,1.816-1.5,2.646-2.23.1-.089.384-.01.567.047,1.451.443,3.325,3.079,3.587,4.57a22.3,22.3,0,0,1-.052,4.45,3.672,3.672,0,0,1-2.365,3.1,3.5,3.5,0,0,1-4.477-2.336,11.12,11.12,0,0,1-.027-6.842c.064-.2.008-.434.115-.762m2.684-.109a4.231,4.231,0,0,0-1.492,3.078,2.958,2.958,0,0,0,.152.8c.245-.069.571-.058.719-.222a1.536,1.536,0,0,1,2.217-.31c.784.5.949-.248.726-.653a9.363,9.363,0,0,0-2.325-2.7m1.717,7.428.171-.262c-.125.018-.25.033-.169.266Z" transform="translate(-1725.85 -278.734)"></path><path d="M2232.606,432.719c1.8-.672,3.5-1.247,5.206-1.792a3.65,3.65,0,0,1,1.38-.248c.287.026.543.4.813.612-.2.205-.356.488-.592.605-3.664,1.789-7.41,3.321-11.582,3.089a9.446,9.446,0,0,1-2.9-.745c-.361-.143-.539-.755-.8-1.154.528-.2,1.082-.62,1.582-.565,1.122.123,2.211.643,3.325.7a14.83,14.83,0,0,0,3.568-.5Z" transform="translate(-1746.657 -336.587)"></path><path d="M430.957,67.38a28.827,28.827,0,0,0-5.333-.943c-5.221-.112-10.446-.074-15.669-.02a47.553,47.553,0,0,0-5.4.451,2.339,2.339,0,0,0-1.148.828c-.451.485-.949.688-1.462.27-.345-.282-.021-1.847.4-1.99a12,12,0,0,1,3.075-.85c2.355-.126,4.722.013,7.081-.052,3.448-.1,6.893-.369,10.341-.393,2.373-.017,4.75.222,7.119.422a3.814,3.814,0,0,1,2.784,2c.577.905-.746,2.586-2.162,2.77a42.189,42.189,0,0,1-4.972.433q-7.512.084-15.026,0c-2.017-.024-4.032-.266-6.047-.426a.936.936,0,0,1-.5-.236,1.285,1.285,0,0,1,.316-.721,1.67,1.67,0,0,1,.927-.33c2.862-.024,5.773-.347,8.571.08a46.826,46.826,0,0,0,8.206.3c2.891-.066,5.775-.523,8.659-.849C430.856,68.1,430.95,67.707,430.957,67.38Z" transform="translate(-315.543 -50.549)"></path><path d="M422.994,32.164a2.463,2.463,0,0,1-2.548,1.341c-2.418-.1-4.844.026-7.263-.047-2.08-.063-4.159-.233-6.231-.439a2.6,2.6,0,0,1-1.989-1.424c-.715-1.256-.19-2.413,1.206-2.475,4.07-.183,8.142-.393,12.214-.415,2.154-.011,3.592,1.394,4.611,3.46m-4.079-1.748c-3.94.154-7.906-.393-11.823.443a4.939,4.939,0,0,0-.847.351c.3.172.6.491.905.494,4.286.033,8.571.025,12.857.015a3.975,3.975,0,0,0,.788-.161,3.473,3.473,0,0,0-.7-.687c-.283-.155-.644-.164-1.187-.455Z" transform="translate(-317.776 -22.433)"></path><path d="M1831.821,30.36c-.036-.868.324-1.291,1.228-1.322,3.435-.117,6.889-.587,10.294-.33,2.8.211,5.586.344,8.383.31,1.02-.013,2.073.169,2.271,1.082a4.223,4.223,0,0,1-.732,2.621,2.513,2.513,0,0,1-2.286,1.14c-6.059-.01-12.118.005-18.177-.024-.513,0-1.02-.377-1.535-.4-1.305-.052-1.145-.969-1.168-1.83-.033-1.1.633-1.3,1.615-1.139.169,1.621.169,1.632,1.518,1.636,2.217.008,4.433-.035,6.646.022.8.021,1.786.64,2.353.337,1.058-.564,2.069-.3,3.081-.334,1.995-.079,4-.017,6-.027.771,0,1.144-.409,1.121-1.208-.028-.93-.721-.517-1.1-.517C1844.826,30.352,1838.323,30.36,1831.821,30.36Z" transform="translate(-1437.218 -22.376)"></path><path d="M1830.521,69.029a4.854,4.854,0,0,1-.7-1.162c-.432-1.443.062-1.947,1.511-2.488s2.96-.026,4.3-.454c1.883-.6,3.74-.273,5.6-.35,1.282-.053,2.943,1.912,2.64,3.142-.1.413-.133,1.207-1.052,1.286-.97.085-1.908.731-2.866.749-3.121.06-6.27.324-9.441-.724m5.045-2.291c-.925,0-1.853-.042-2.774.021a2.629,2.629,0,0,0-1.091.443.619.619,0,0,0-.189.541.563.563,0,0,0,.443.3c2.847.018,5.69.031,8.537-.007a3.636,3.636,0,0,0,1.309-.435.551.551,0,0,0,.148-.443c-.361-.308-.754-.806-1.14-.813a31.25,31.25,0,0,0-5.242.394Z" transform="translate(-1436.889 -50.45)"></path><path d="M1105.661,182.235c-1.142,0-2.069.014-3,0a2.894,2.894,0,0,1-3-3.922.821.821,0,0,1,.536-.43,13.8,13.8,0,0,1,2.175-.438c2.078-.183,4.16-.317,6.243-.443a34.128,34.128,0,0,0,4.12-.35,12.663,12.663,0,0,1,4.507.388,1.646,1.646,0,0,1,1.309,1.688,3.318,3.318,0,0,1-3.263,3.5c-3.141.037-6.281.01-9.635.01m-.644-3.5c-.867.148-1.736.274-2.6.443a8.158,8.158,0,0,0-1.05.357c.242.316.425.763.745.916a3.944,3.944,0,0,0,1.731.443c4-.1,8.008-.217,12-.482.483-.032.908-.986,1.361-1.513a12.478,12.478,0,0,0-1.468-.591,3.569,3.569,0,0,0-1.065-.015c-3.068.143-6.149.29-9.652.438Z" transform="translate(-863.483 -137.988)"></path><path d="M2532.52,206.88c-.007-.794-.144-1.767.247-2.1a5.015,5.015,0,0,1,2.673-1.232c3.652-.27,7.315-.335,10.976-.49,3.16-.135,6.318-.315,9.478-.412a3.959,3.959,0,0,1,1.743.432,3.043,3.043,0,0,1,1.3,3.75,1.533,1.533,0,0,1-1.026.579,35.194,35.194,0,0,1-4.109.439c-2.5.068-5.056-.3-7.5.1-3.463.556-6.9.208-10.345.351a4.081,4.081,0,0,1-3.435-1.41m21.146-2.512c-1.645,0-3.289-.038-4.933.007q-6.881.188-13.763.443a2.655,2.655,0,0,0-.84.352c.185.431.271.987.591,1.256.264.222.8.131,1.219.123q10.208-.208,20.413-.432c.148,0,.335.061.421-.011.341-.284.651-.61.972-.92-.358-.273-.691-.725-1.08-.78a23.6,23.6,0,0,0-3.01-.038Z" transform="translate(-1988.824 -158.372)"></path></g><path d="M10891.6,4903.209s8.546,1.173,10.4,7.586c0,0,8.837-5.843,15.249-5.7s-16.674,14.821-16.674,14.821Z" transform="translate(-10259.384 -4893.919)"></path></g></g></svg>