<svg xmlns="http://www.w3.org/2000/svg" width="424.274" height="341.021" viewBox="0 0 424.274 341.021"><defs><style>.a{fill:#9ed9d7;opacity:0.705;}.b{fill:#fad9e8;}.c{fill:#f28f84;}.d{fill:#9fd67b;}</style></defs><g transform="translate(-862.993 -194.979)"><g transform="translate(64)"><g transform="translate(-65.622 -182)"><ellipse class="a" cx="32.318" cy="31.52" rx="32.318" ry="31.52" transform="matrix(0.809, 0.588, -0.588, 0.809, 1141.951, 497.57)"></ellipse><ellipse class="b" cx="30.722" cy="25.535" rx="30.722" ry="25.535" transform="matrix(0.809, 0.588, -0.588, 0.809, 1239.181, 452.284)"></ellipse><path d="M743.422,323.5c5.221-1.413,10.324-2.973,15.53-4.008,3.168-.63,6.413-1.2,9.776-.159a12.433,12.433,0,0,1,7.135,5.761A19.047,19.047,0,0,0,781,330.971a8.543,8.543,0,0,1,3.52,6.678c.2,4.118.387,8.249.285,12.367-.14,5.631-.531,11.257-.868,16.882-.1,1.708-.519,3.4-.547,5.109a51.339,51.339,0,0,0,.334,6.858,2.313,2.313,0,0,0,1.556,1.476c4.354.8,8.725,1.518,13.111,2.109,2.624.353,5.3.328,7.927.644,5.246.63,10.586.616,15.682,2.333a5.774,5.774,0,0,1,3.32,2.772,21.129,21.129,0,0,1,2.4,7.646c1.005,6.6.873,13.231.843,19.862-.019,4.123-.168,8.247-.289,12.369-.064,2.191-.19,4.38-.292,6.569-.113,2.447-1.063,3.677-3.991,4.275a82.885,82.885,0,0,1-9.154,1.234c-2.036.183-3.363-1.136-3.5-3.234-.239-3.633-.422-7.27-.6-10.907-.125-2.535-.363-5.079-.267-7.609.174-4.591.467-9.183.914-13.755.135-1.386.555-2.633-1.028-3.328a2.7,2.7,0,0,0-1.873-.3,7.5,7.5,0,0,1-4.884.231,31.7,31.7,0,0,0-4.036-.322c-2.09-.116-4.184-.157-6.271-.312-3.5-.26-6.989-.723-10.49-.794a4.031,4.031,0,0,0-2.941,1.622c-2.7,4.211-6.877,6.1-11.34,7.48-4.319,1.339-8.723,2.4-13.084,3.609a1.986,1.986,0,0,0-1.541,1.906c-.45,4.063-.991,8.116-1.461,12.177-.242,2.094-.346,4.2-.618,6.295-.334,2.57-.721,5.137-1.192,7.686-.414,2.239-1.079,4.437-1.379,6.687-.057.431,1.124,1.514,1.639,1.456,3.648-.412,5.442,2.093,7.158,4.494,2.52,3.525,4.712,7.282,7.2,10.833,3.159,4.516,6.462,8.933,9.732,13.371a7.68,7.68,0,0,0,1.307,1.13,7.809,7.809,0,0,0,.814-1.537,10.057,10.057,0,0,0,.313-2.25c.124-2.85.276-5.7.286-8.553.008-2.256-.255-4.514-.231-6.769a3.4,3.4,0,0,1,.881-2.125,31.062,31.062,0,0,1,3.4-2.867c2.023-1.565,4.4-.836,6.62-.829,1.762.006,3.511.635,5.284.813,3.637.366,7.282.7,10.933.879,1.9.094,3.818-.261,5.726-.245q7.3.064,14.6.3a46.614,46.614,0,0,1,5.107.584,3.045,3.045,0,0,0,3.2-1.572c1.423-2.409,3.134-4.648,3.784-7.511.4-1.753,2.783-3.57,4.584-3.786a37.155,37.155,0,0,1,12.011.647,20.537,20.537,0,0,0,3,.305c2.238.123,4.487.115,6.716.326,3.314.314,6.61.8,9.921,1.158,2.391.255,4.794.387,7.188.611,2.952.276,5.913.513,8.841.954.567.085,1.465,1.109,1.389,1.562-.1.617-1,1.573-1.548,1.566-3.093-.037-6.182-.315-9.273-.519-1.348-.089-2.693-.222-4.041-.29-2.338-.119-4.679-.171-7.015-.31-4.588-.274-9.172-.606-13.76-.88q-5.674-.339-11.354-.593a2.805,2.805,0,0,0-2.93,1.891c-.939,1.973-.78,4.055-1.1,6.083a23.494,23.494,0,0,0-.033,3.267c-.031,1.883-1.017,2.756-2.828,3.06-3.916.657-7.721-.071-11.561-.6-2.232-.31-4.5-.366-6.739-.628-2.965-.346-5.917-.8-8.879-1.168-1.241-.154-2.5-.184-3.742-.311-2.754-.282-5.5-.756-8.258-.835-2.191-.063-4.393.38-6.594.534a16.37,16.37,0,0,0-8.14,2.978,2.671,2.671,0,0,0-1.331,2.981,21.113,21.113,0,0,1-.225,4.328c-.113,1.991-.183,3.984-.305,5.974-.181,2.943-.327,5.891-.625,8.822-.109,1.065-.4,2.278-1.734,2.577-1.356.3-2.233-.351-3.011-1.479-4.872-7.065-9.821-14.077-14.709-21.131-2.369-3.419-4.657-6.894-6.989-10.339-.769-1.136-4.054-1.854-5.068-1.04a2.718,2.718,0,0,0-.849,1.411,11.454,11.454,0,0,0-.312,2.7c.023,3.924-2.993,6.492-6.682,6.652-5.9.255-11.814.335-17.722.306-3.835-.019-7.67-.334-11.5-.572-2.2-.137-4.4-.541-6.6-.536a46.844,46.844,0,0,0-5.66.652,11.509,11.509,0,0,1-1.258.184c-1.685.022-3.371.029-5.056.005q-9.68-.135-19.359-.3c-3.677-.068-7.366-.039-11.027-.335-3.727-.3-7.432-.908-11.133-1.469a2.125,2.125,0,0,1-1.886-2.144c-.055-1.109.55-1.665,1.577-2.012a21.617,21.617,0,0,1,11.167-1.192,29.806,29.806,0,0,0,3.443.313c4.189.3,8.381.581,12.569.9,3.6.274,7.19.595,10.785.886,3.743.3,7.485.626,11.231.886,4.733.329,9.466.7,14.206.878q10.952.421,21.913.583a23.49,23.49,0,0,0,5.247-.6,2.61,2.61,0,0,0,2.169-2.634c.044-1.151.184-2.3.287-3.446a1.591,1.591,0,0,0-1.383-1.882c-1.836-.293-3.694-.5-5.55-.606-2.781-.164-5.569-.191-8.353-.32q-5.6-.261-11.205-.594c-2.993-.175-6-.23-8.97-.626-5.02-.671-10.148-.528-15.06-2.033-1.944-.6-3.98-.914-5.878-1.618a3.009,3.009,0,0,1-1.549-1.941c-.386-1.811-.444-3.691-.659-5.54-.385-3.307-.836-6.608-1.169-9.92-.195-1.932-.276-3.882-.292-5.824-.01-1.186-.448-1.833-1.635-1.629q-4.078.7-8.128,1.555c-3.912.829-7.795,1.8-11.72,2.563a41.168,41.168,0,0,1-7.21.864c-2.477.033-5.022-.457-6.562-2.684a10.373,10.373,0,0,1-1.6-4.07,36.255,36.255,0,0,1-.342-5.965q-.035-25.209,0-50.417a6.838,6.838,0,0,1,3.2-6.244,1.775,1.775,0,0,0,.79-2.345c-.391-1.153.542-1.928,1.56-2.333,3.278-1.3,6.536-2.675,9.876-3.8,6.489-2.182,13.031-4.21,19.548-6.309,4.548-1.465,9.075-3,13.643-4.4,5.46-1.674,10.965-3.2,16.431-4.861,6.338-1.921,12.639-3.968,18.988-5.854,4.031-1.2,8.121-2.2,12.259-3.367m15.841,24.319c.4,3.107.9,6.2,1.162,9.322.314,3.725.439,7.466.617,11.2.126,2.634.112,5.28.369,7.9a2.5,2.5,0,0,0,1.479,1.7,17.3,17.3,0,0,0,3.572.37c1.24.111,2.482.209,3.718.362,2.92.359,5.833.77,8.754,1.112,1.055.124,1.508-.477,1.449-1.5q-.149-2.615-.3-5.23c-.3-5.28-.844-10.561-.811-15.839.025-3.988-.8-7.819-1.345-11.691-.559-3.99-1.678-7.9-2.616-11.836-.519-2.176-1.361-4.176-3.914-4.664-3.066-.587-6.112-1.173-9.289-.725-2.62.37-5.294.34-7.925.653-3.375.4-6.753.849-10.088,1.494-4.519.874-9.043,1.791-13.486,2.982-7.254,1.945-14.452,4.1-21.66,6.217-7.687,2.256-15.4,4.431-23.021,6.9-5.445,1.763-10.772,3.9-16.116,5.961-5.425,2.1-10.8,4.331-16.21,6.457a4.074,4.074,0,0,0-2.911,4.043c.052,2.736.193,5.47.284,8.2.106,3.181.258,6.361.289,9.543.124,12.847.2,25.694.321,38.541.011,1.213.269,2.229,1.856,2.5a10.5,10.5,0,0,0,4.11.291c2.678-.555,5.438-.71,8.117-1.262,5.326-1.1,10.617-2.364,15.927-3.535a2.241,2.241,0,0,0,2.09-2.552c-.15-2.845-.368-5.687-.589-8.527a1.776,1.776,0,0,0-2.151-1.412,40.845,40.845,0,0,1-11.73,1.517,3.326,3.326,0,0,1-2.81-1.589c-1.635-1.94-1.1-4.282-1.367-6.417a58.856,58.856,0,0,1-.075-8.071c.082-6.453.274-12.905.246-19.357a3.8,3.8,0,0,1,2.749-4.016c3.582-1.408,7.19-2.759,10.832-4,5.909-2.021,11.85-3.948,17.783-5.9,5.542-1.82,11.081-3.653,16.643-5.413,4.563-1.444,9.152-2.8,13.739-4.17,3.092-.921,6.173-1.9,9.3-2.658,4.879-1.184,9.773-2.339,14.71-3.237,2.212-.4,4.682-.438,6.161,1.869a28.171,28.171,0,0,1,2.127,4.467m4.611,58.454c1.479-.5,2.948-1.027,4.441-1.48,3.422-1.038,6.435-2.7,8.428-5.766a6.041,6.041,0,0,1,6.087-2.9c3.825.3,7.665.405,11.5.628,2.893.168,5.786.358,8.674.6,1.362.115,2.713.374,4.066.583a30.588,30.588,0,0,0,3.621.565c2.7.086,4.275,1.535,4.183,4.266-.114,3.39-.5,6.773-.548,10.163-.09,6.69-.037,13.382-.014,20.072a10.545,10.545,0,0,0,.309,2.547,1.533,1.533,0,0,0,1.764,1.338c2.074-.347,4.139-.755,6.2-1.184,1.119-.233,2.046-.765,2.12-2.07.125-2.188.205-4.378.3-6.567s.252-4.378.285-6.568c.049-3.287.122-6.581-.013-9.863-.2-4.788-.485-9.575-.909-14.348a19.181,19.181,0,0,0-1.3-5.4,4.222,4.222,0,0,0-2.333-2.322,46.115,46.115,0,0,0-6.865-1.036c-2.29-.258-4.595-.384-6.889-.614-3.753-.375-7.5-.783-11.254-1.186-1.8-.193-3.6-.364-5.395-.621-3.172-.456-6.335-.98-9.5-1.456-2.1-.316-4.213-.607-6.321-.894-2.255-.307-4.506-.652-6.769-.88-2.588-.261-5.192-.366-7.78-.62-3.607-.354-7.2-.841-10.81-1.161-3.182-.282-6.376-.413-9.565-.613-4.734-.3-9.469-.579-14.2-.9-2.349-.159-4.693-.391-7.04-.588q-7.113-.6-14.227-1.194c-.373-.032-.743-.179-1.113-.173-2.521.044-5.179-.374-7.531.288-3.766,1.06-6.532,3.9-9.063,6.818a4.334,4.334,0,0,0-1.14,2.454c-.037,1.549.4,3.1.5,4.664.163,2.433.177,4.875.331,7.309a1.74,1.74,0,0,0,2.02,1.865c1.88-.075,3.772.074,5.647-.049a4.878,4.878,0,0,1,3.666,1.19,37.657,37.657,0,0,1,2.971,3.473,10.021,10.021,0,0,0,1.207,1.019,6.692,6.692,0,0,1,.548-1.2c.738-1.034,1.331-2.374,2.347-2.957a16.592,16.592,0,0,1,4.726-1.471c3.149-.686,6.326-1.245,9.489-1.871,2.333-.462,4.654-.993,7-1.41,3.1-.552,6.229-.975,9.33-1.541,3.444-.629,6.874-1.337,10.3-2.049a12.7,12.7,0,0,0,4.472-1.429c2.847-1.79,5.587-.208,5.561,3.258-.02,2.537-.134,5.076-.3,7.607-.093,1.412-.382,2.81-.574,4.216a1.638,1.638,0,0,0,1.752,1.515c2.448-.658,4.88-1.375,7.616-2.069m-86.12-4.611a12.844,12.844,0,0,0,3.065-.5c.771-.321,1.894-1.134,1.9-1.734.015-2.842-.271-5.688-.516-8.527-.092-1.07-.452-2.119-.531-3.189-.17-2.3-.262-4.6-.328-6.905-.017-.6.27-1.208.263-1.81a3.76,3.76,0,0,1,2.26-3.641,19.293,19.293,0,0,1,8.177-1.794,15.373,15.373,0,0,0,5.017-.81,21.484,21.484,0,0,1,6.145-.932,21.185,21.185,0,0,1,4.213.548c2.231.35,4.48.627,6.681,1.115,3.324.738,6.6,1.648,10.06,1.58a45.074,45.074,0,0,1,4.933.283c4.1.372,8.195.855,12.3,1.158,2.974.219,5.965.2,8.948.328a35.507,35.507,0,0,1,4.624.34c1.8.314,2.7-.384,2.521-2.2-.218-2.246-.477-4.492-.582-6.745-.165-3.526-.167-7.059-.333-10.584a55.872,55.872,0,0,0-.612-6.591c-.407-2.436-.537-2.877-3.321-2.777a24.133,24.133,0,0,0-2.406.288c-2.861.392-5.741.682-8.575,1.216-3.61.68-7.192,1.514-10.767,2.363-5.681,1.349-11.388,2.617-17.009,4.189-8.382,2.344-16.743,4.781-25.025,7.451-5.665,1.826-11.206,4.054-16.736,6.268a3.434,3.434,0,0,0-1.723,2.4,64.447,64.447,0,0,0-.349,8.346c.114,5.968.353,11.934.577,17.9.1,2.781,1.463,3.823,4.28,3.42.9-.128,1.8-.2,2.851-.451m11.3,31.83c.2,2.792.3,5.6.66,8.367a2.65,2.65,0,0,0,1.526,1.829,59.837,59.837,0,0,0,7.247,1.529c2.733.414,5.491.692,8.248.9,4.629.355,9.265.61,13.9.909,3.039.2,6.077.429,9.118.587,4.425.229,8.855.369,13.278.626a1.774,1.774,0,0,0,2.142-1.551c.229-1.044.521-2.077.692-3.129q.929-5.719,1.791-11.448c.511-3.36,1.025-6.719,1.479-10.087.274-2.034.375-4.092.672-6.123.174-1.188-.335-1.818-1.456-1.55-3.293.787-6.614,1.467-9.88,2.351-7.388,2-14.748,4.1-22.123,6.151-2.215.615-4.6,1.031-5.987,3.073-1.58,2.33-2.973,4.8-4.33,7.267-1.255,2.284-3.652,3.058-5.682,1.4a42.641,42.641,0,0,1-4.732-4.831c-1.814-2.042-3.48-4.217-5.3-6.254a2.407,2.407,0,0,0-1.672-.5c-.164,0-.49.887-.452,1.343.244,2.953.567,5.9.865,9.146m62.173-28.26c.3-2.4.558-4.813.908-7.21.174-1.2-.411-2.273-1.411-2.141-1.672.221-3.328.561-4.988.863-2.164.394-4.322.823-6.49,1.194-3.105.531-6.226.975-9.324,1.544-3.395.624-6.769,1.36-10.156,2.028-4.079.8-8.179,1.516-12.227,2.451a3.151,3.151,0,0,0-1.765,1.9,46.876,46.876,0,0,0-.966,4.661c-.265,1.17-.78,2.305-2.077,2.562a2.591,2.591,0,0,1-3.014-1.623c-.8-1.609-1.759-3.135-2.6-4.722-.794-1.5-1.589-3-3.534-3.125a29.54,29.54,0,0,0-4.308,0c-2.493.211-2.693.433-2.582,3.042.116,2.745.448,5.482.547,8.228a2.831,2.831,0,0,0,1.792,2.8c3.387,1.431,5.381,4.407,7.742,6.961,1.5,1.619,2.83,3.388,4.279,5.053.615.708,1.332.886,1.949-.051s1.207-1.879,1.819-2.813c1.6-2.446,3.253-4.869,6.12-6,2.386-.941,4.774-1.907,7.227-2.64,3.407-1.018,6.875-1.836,10.32-2.724,6.537-1.686,13.071-3.383,19.618-5.027,2-.5,2.794-1.4,2.829-3.5a6.259,6.259,0,0,1,.291-1.722m10.56-82.253c-1.31.3-2.627.569-3.926.91a3.976,3.976,0,0,0-.982.6c.391.191.785.549,1.172.542,1.492-.026,2.983-.251,4.474-.246,1.689.005,3.377.224,5.067.253a10.891,10.891,0,0,0,2.078-.358c-.733-.567-1.459-1.142-2.2-1.691-.1-.071-.289-.01-.438-.01h-5.241m73.626,134.609q.009.307.019.614l.409-.149C835.752,457.852,835.659,457.647,835.417,457.592Z" transform="translate(267.291 231.344)"></path><path d="M1671.659,440.644a26.1,26.1,0,0,1-2.6-11.071c-.028-1.883-.066-3.769.006-5.65a56.438,56.438,0,0,1,4.27-20.234c1.462-3.425,2.9-6.914,5.834-9.3,4.08-3.32,8.183-6.7,13.331-8.339a30.181,30.181,0,0,1,12.361-.857,29.405,29.405,0,0,1,11.412,3.711,39.76,39.76,0,0,1,11.358,9.191,27.452,27.452,0,0,1,5.715,10.579,33.214,33.214,0,0,1,1.114,6.37c.331,4.9.126,9.846-1.812,14.4a117.885,117.885,0,0,1-6.864,13.652,42.189,42.189,0,0,1-11.841,12.4,21.569,21.569,0,0,1-11.5,4.172,28.858,28.858,0,0,1-14.686-2.77,21.173,21.173,0,0,1-4.973-3.4c-3.771-3.462-7.539-6.956-10.41-11.257a14.845,14.845,0,0,1-.718-1.591m33.541,8.85a3.821,3.821,0,0,1,.623-.292c2.276-.61,4.739-.843,6.8-1.877,6.406-3.217,10.883-8.463,13.96-14.827a40.875,40.875,0,0,0,3.252-10.117,26.077,26.077,0,0,0-.168-10.805,25,25,0,0,0-8.207-13.665c-4.584-3.957-9.461-7.205-15.625-8.259a24.929,24.929,0,0,0-12.529.565c-1.414.478-1.2.818-.351,1.5a1.8,1.8,0,0,1,.618,2.426c-.591,1.051-1.563.681-2.4.261a4.456,4.456,0,0,0-5.032.4,27.769,27.769,0,0,0-8.441,10.443,46.985,46.985,0,0,0-3.842,16.382,25.876,25.876,0,0,0,.324,6.7,30.641,30.641,0,0,0,2.263,6.925c2.508,5.437,7.463,8.386,12.468,10.866a31.873,31.873,0,0,0,16.286,3.373m-19.039.3-1.732-.35a3.65,3.65,0,0,0,.659,1.035,24.963,24.963,0,0,0,14.751,5.182c2.588.068,5.2-.716,7.794-1.2.466-.086.859-.572,1.286-.873a6.307,6.307,0,0,0-1.74-.1,29.835,29.835,0,0,1-21.017-3.7Z" transform="translate(-450.629 184.855)"></path><path d="M1364.927,234.515a23.287,23.287,0,0,1-11.405,3.95,28.993,28.993,0,0,1-19.762-5.534c-4.715-3.309-9.111-7.016-12.189-11.948a23.544,23.544,0,0,1-3.92-10.724,39.959,39.959,0,0,1,2.2-16.712,34.318,34.318,0,0,1,6.117-10.558,41.28,41.28,0,0,1,8.5-8.118,24.271,24.271,0,0,1,11.762-4.3c6.576-.507,12.34,1.548,17.916,4.681a24.456,24.456,0,0,1,9.168,8.443,57.827,57.827,0,0,1,4.728,10.51,39.173,39.173,0,0,1,2.338,17.569,22.953,22.953,0,0,1-2.47,7.565,53.624,53.624,0,0,1-4.9,7.485,29.614,29.614,0,0,1-8.083,7.69m-12.271-59.124a15.306,15.306,0,0,0-8.669-.194c-4.9,1.17-8.859,4.095-12.526,7.426a3.274,3.274,0,0,0-.489.832,3.057,3.057,0,0,0,1.024-.22c1.618-1.038,3.254-1.911,5.293-1.611,1.161.171,2.236,1.112,2.121,2.086-.149,1.266-1.139,1.23-2.053,1.192-1.833-.077-3.137,1.008-4.319,2.119a24.992,24.992,0,0,0-7.039,12.1,23.76,23.76,0,0,0-.479,10.945,35.922,35.922,0,0,0,5.554,12.713c4.493,6.758,10.986,9.874,18.843,10.257a35.388,35.388,0,0,0,8.392-.872,14.262,14.262,0,0,0,8.593-5.029,46.994,46.994,0,0,0,7.67-13.317,25.089,25.089,0,0,0,1.64-6.726,20.881,20.881,0,0,0-.868-6.293,34,34,0,0,0-7.391-14.65c-.976-1.1-2.5-2.1-2.093-4.044.055-.257-.307-.7-.587-.915A30.907,30.907,0,0,0,1352.657,175.391Z" transform="translate(-203.691 335.504)"></path><path d="M1663.4,50.311c-1.594-2.5-1.937-5.244-2.362-7.941-.384-2.441-.72-4.9-.873-7.364a21.56,21.56,0,0,1,.292-4.926,67.53,67.53,0,0,1,1.8-8.325,17.448,17.448,0,0,1,5.905-8.558,33.636,33.636,0,0,1,16.52-7.181,56.5,56.5,0,0,1,9.144-.859,25.978,25.978,0,0,1,13.147,4.106A26.98,26.98,0,0,1,1716.66,19.6c1.778,3.225,3.442,6.593,3.554,10.417.139,4.717.523,9.457.229,14.15a25.086,25.086,0,0,1-7.144,16.206,38.259,38.259,0,0,1-12.644,8.989,19.59,19.59,0,0,1-5.79,1.422,23.758,23.758,0,0,1-13.367-2.873c-4.609-2.406-9-4.988-12.534-8.891a36.545,36.545,0,0,1-5.56-8.713m52.654-20.675c-.1-.356-.225-.707-.293-1.068-.9-4.786-3.438-8.726-6.571-12.287A19.935,19.935,0,0,0,1701.8,11.2a23.8,23.8,0,0,0-9.188-2.176,43.693,43.693,0,0,0-6.915.847,37.2,37.2,0,0,0-11.621,3.883c-1.088.58-2.281,1.194-2.132,2.923.045.524-.838,1.442-1.471,1.651a5.454,5.454,0,0,0-3.291,3.37,28.206,28.206,0,0,0-1.946,18.45,60.172,60.172,0,0,0,3.356,10.348,17.08,17.08,0,0,0,10.313,9.479c3.83,1.315,7.632,2.775,11.9,1.992a27.928,27.928,0,0,0,9.985-3.586c3.049-1.9,6.041-3.942,8.051-6.864a63.776,63.776,0,0,0,5.446-10.069c1.623-3.617,2.652-7.449,1.771-11.808m-1.785,21.418c-1.885,2.409-3.261,5.236-5.861,7.056-2.5,1.749-4.9,3.654-7.487,5.254-2.849,1.761-6.141,2.274-9.415,2.724a2.549,2.549,0,0,0-.737.379c.258.167.535.5.771.475a56.213,56.213,0,0,0,6.472-.869c3.276-.759,5.892-2.884,8.545-4.792a23.594,23.594,0,0,0,7.982-9.063A1.387,1.387,0,0,0,1714.274,51.055Z" transform="translate(-444.383 451.66)"></path><path d="M1741.6,468.494c-.1.9-.247,1.651-.272,2.405-.01.281.266.572.413.859a3.258,3.258,0,0,0,.742-.545c1.687-2.22,3.334-4.469,5.036-6.677a2.219,2.219,0,0,1,1.234-.908,3.712,3.712,0,0,1,2.076.366c.248.135.312,1.127.091,1.525-2.243,4.026-4.866,7.74-9.062,10-1.558.838-2.435.511-3.231-1.1-.02-.04,0-.109-.025-.137-.382-.4-.768-.791-1.154-1.186a7.969,7.969,0,0,0,.3,1.551c.416,1.032-.008,1.724-.969,1.531a13.176,13.176,0,0,1-4.263-1.506c-4.8-2.948-9.5-6.049-14.222-9.112a18.4,18.4,0,0,1-2.272-1.685c-2.385-2.132-2.809-3.772-1.243-7.157a47.813,47.813,0,0,1,6.239-9.76,10.418,10.418,0,0,0,.947-1.832c.709-1.391,1.523-1.741,2.878-1.006,4.415,2.393,8.8,4.851,13.193,7.279,3.145,1.737,6.3,3.463,9.442,5.2,1.413.781,2.823,1.567,4.213,2.389.408.241.926.547,1.062.939a2.9,2.9,0,0,1,.084,1.9,1.588,1.588,0,0,1-1.414.669c-1.586-.543-2.877.232-4.292.615a21.117,21.117,0,0,1-4.058.6c-1.041.071-1.512.467-1.48,1.514s.007,2.082.007,3.272m-12.048-17.551a6.906,6.906,0,0,0,.17,1.738c.844,2.322,1.779,4.61,2.65,6.922a2.644,2.644,0,0,0,3.049,1.766c2.848-.445,5.711-.8,8.564-1.216a6.192,6.192,0,0,0,1.163-.413,7.465,7.465,0,0,0-.954-.758c-4.776-2.689-9.561-5.362-14.641-8.04m4.313,18.295c.934.636,1.535.488,1.8-.694a10.654,10.654,0,0,1,.591-1.686c.254-.623.55-1.228.828-1.841a11.028,11.028,0,0,0-2.478-.049,3.954,3.954,0,0,1-4.585-1.825c-.6-1.019-1-2.159-1.51-3.237-.4-.852-.717-1.93-2.015-1.422-1.449.567-2.829,1.313-4.286,1.856-1.112.415-.756.837-.116,1.276,2.428,1.665,4.857,3.332,7.325,4.938,1.394.906,2.865,1.694,4.449,2.684m-12.494-12.792c1.346-.453,2.688-.915,4.038-1.357.844-.276.819-.97.705-1.6-.244-1.37-.563-2.728-.888-4.082a3.713,3.713,0,0,0-.45-.841,3.146,3.146,0,0,0-.8.547c-.4.511-.713,1.084-1.062,1.632-1.223,1.917-2.466,3.822-3.645,5.766-.163.269-.009.731,0,1.1.245-.129.489-.26.735-.388A15.115,15.115,0,0,0,1721.375,456.446Z" transform="translate(-482.124 143.544)"></path><path d="M1399.375,235.008c1.333,1.55,1.437,2.556-.061,3.716-2.743,2.123-5.581,4.146-8.512,6-4.854,3.071-9.807,5.984-14.729,8.946-1.9,1.142-4.013.781-4.375-.924a5.832,5.832,0,0,1,.636-3.294c1.95-4.341,5.511-7.531,8.286-11.287a17.118,17.118,0,0,1,1.542-1.573c.107-.111.254-.365.219-.4a2.24,2.24,0,0,0-.765-.64c-.35-.126-.874.061-1.123-.137-.679-.541-1.547-1.112-1.8-1.856a2.635,2.635,0,0,1,1.329-3.083c1.668-1.111,3.376-2.164,5.021-3.308,4.353-3.028,8.676-6.1,13.028-9.13a3.936,3.936,0,0,1,1.836-.893c.8-.029,2.234.255,2.294.6a6.939,6.939,0,0,1-.33,3.277c-1.347,4.022-4.334,7.26-5.491,11.412-.32,1.148.163,1.314.909,1.615.679.274,1.342.59,2.086.962m-12.122,2.157c-1.154,1.452-2.29,2.919-3.469,4.352-1.13,1.373-2.321,2.7-3.443,4.076a2.864,2.864,0,0,0-.3,1.019,3.025,3.025,0,0,0,.918-.2c.524-.308.977-.737,1.5-1.058q5.788-3.584,11.592-7.142c.88-.539.892-.594.025-1.193-1.722-1.191-2.175-2.656-1.611-4.775a23.141,23.141,0,0,1,3.883-7.749,2.293,2.293,0,0,0,.22-.625c-.274.016-.621-.068-.809.067-.773.556-1.469,1.219-2.244,1.77-2.48,1.765-4.988,3.491-7.474,5.247-.708.5-1.123.99-.026,1.615C1388.5,233.987,1388.614,234.434,1387.253,237.165Z" transform="translate(-241.708 302.734)"></path><path d="M1744.489,54.715c-.674,3.856-1.448,7.516-3.86,10.593-2.752,3.511-5.962,6.614-10.218,7.951a12.244,12.244,0,0,1-9.4-.394c-1.634-.834-2.168-1.874-1.491-3.6,1.3-3.324,2.743-6.593,4.093-9.9a1.9,1.9,0,0,1,2.083-1.345,1.93,1.93,0,0,0,2.3-1.539c1.328-3.711,2.685-7.412,3.966-11.139.162-.472.148-1.356-.142-1.574-1.685-1.265-1.262-2.684-.577-4.234q1.22-2.763,2.311-5.583a8.255,8.255,0,0,1,3.529-3.893c1.646-1.052,3.55-.061,4.973,1.941a16.828,16.828,0,0,1,3.019,9.733c.024,2.13.082,4.265-.017,6.391-.1,2.152-.375,4.3-.573,6.593m-10.114,12.048c.981-1.576,1.9-3.193,2.955-4.72a25.793,25.793,0,0,0,4.138-11.063c.8-5.443-1.107-10.408-3.339-15.242-.174-.377-.693-.949-.883-.89a2,2,0,0,0-1.063.953c-.658,1.308-1.219,2.664-1.805,4.008a1.348,1.348,0,0,0,.415,1.822,2.693,2.693,0,0,1,.795,3.445c-1.885,4.771-3.627,9.6-5.534,14.361-.474,1.184-1.07,2.477-2.919,2.2-.489-.074-1.357.668-1.64,1.239a61.081,61.081,0,0,0-2.4,5.691c-.391,1.046.262,1.842,1.463,1.912C1728.29,70.692,1731.684,69.95,1734.375,66.763Z" transform="translate(-485.902 434.464)"></path><g transform="translate(996.487 452.486)"><path d="M436.67,230.38a20.008,20.008,0,0,1-2.282,10.945,68.639,68.639,0,0,1-5.514,8.278,23.234,23.234,0,0,1-6.99,6.385,21.145,21.145,0,0,1-9.209,3.254,53.611,53.611,0,0,1-5.851.55c-7.108-.2-13.642-2.181-19.14-6.879a62.816,62.816,0,0,1-6.949-6.463,20.432,20.432,0,0,1-3.218-5.921,25.82,25.82,0,0,1-1.539-10.967,30.117,30.117,0,0,1,2.353-10.33c1.723-4,3.5-7.958,6.273-11.384,3.852-4.757,8.435-8.527,14.525-9.825a20.467,20.467,0,0,1,9.737.2c3.045.834,6.245,1.164,9.223,2.168,5.357,1.806,10.137,4.616,13.2,9.614a28.839,28.839,0,0,1,4.177,10.9c.454,3.1.8,6.214,1.2,9.471m-51.464-17.1c-.561,1.552-1.151,3.095-1.677,4.659-1.948,5.793-1.623,11.662-.233,17.467.821,3.43,2.372,6.69,3.124,10.13a8.185,8.185,0,0,0,3.716,5.129,28.141,28.141,0,0,0,17.757,5.592,16.8,16.8,0,0,0,3.439-.317c2.461-.6,5.115-.949,7.262-2.16a33.377,33.377,0,0,0,6.88-5.61c1.373-1.369,2.973-2.927,2.291-5.331a1.571,1.571,0,0,1,.221-.934c.861-1.874,1.879-3.689,2.591-5.617,1.328-3.6,3.01-7.033,2.013-11.221a31.948,31.948,0,0,0-7.116-13.708,29.3,29.3,0,0,0-11.942-8.1c-3.895-1.489-7.8-2.894-12.152-2.054A21.941,21.941,0,0,0,385.207,213.275Z" transform="translate(-375.924 -197.532)"></path><path d="M437.706,246.164a32.076,32.076,0,0,1,14.453-8.4,12.179,12.179,0,0,1,5.525.058c1.87.377,2.38,1.588,1.611,3.358a49.61,49.61,0,0,1-2.7,4.83c-.508.882-1.024,1.76-1.57,2.62-.593.935-1.291,1.756-2.573,1.472-1.206-.267-1.841.566-2.421,1.315q-3.734,4.825-7.345,9.745c-.309.422-.531,1.341-.295,1.659,1.611,2.174.183,3.817-.923,5.4a36.218,36.218,0,0,1-3.658,4.284c-2.331,2.425-5.035,1.852-5.958-1.322a22.662,22.662,0,0,1-.137-12.823,31.933,31.933,0,0,1,4.575-10.3c.444-.61.892-1.216,1.413-1.9m3.5,12.568c.446-.559.919-1.1,1.334-1.679,2.156-3.019,4.234-6.1,6.493-9.035.494-.643,1.613-.81,2.449-1.183.585-.261,1.4-.333,1.732-.776a58.183,58.183,0,0,0,3.255-5.038c.1-.163-.379-.957-.635-.981a6.921,6.921,0,0,0-3.069.068,70.509,70.509,0,0,0-8.235,3.789,19.23,19.23,0,0,0-8.462,9.9c-.772,1.912-1.221,3.952-1.858,5.921-1.15,3.558-.606,7.111.027,10.654.159.892,1.246,1.327,1.666.8,1.1-1.376,2.186-2.756,3.258-4.151.864-1.125,1.424-2.293.42-3.656a2.18,2.18,0,0,1-.3-.91C439,260.836,440.293,259.99,441.2,258.733Z" transform="translate(-414.516 -225.588)"></path><path d="M498.642,309.5c.977-.63,1.8-1.264,2.634-1.888a10.329,10.329,0,0,0,4.262-7.581c.064-.647.794-1.709,1.256-1.731.892-.042,1.383.77,1.382,1.807-.007,4.745-2.663,7.936-6.211,10.559-1.021.755-2.294,1.159-3.389,1.828-.786.48-1.537.419-1.8-.342-.165-.482.277-1.251.607-1.794A3.148,3.148,0,0,1,498.642,309.5Z" transform="translate(-460.802 -268.32)"></path><path d="M489.525,303.8a13.472,13.472,0,0,1-2.266,1.606c-.459.21-1.123-.027-1.694-.063a4.732,4.732,0,0,1,.5-1.607c1.269-1.58,2.738-3.006,3.926-4.64.594-.817.66-2,1.13-2.935.248-.495.848-.813,1.288-1.211.352.486.957.945,1.013,1.464.234,2.141-.8,3.9-2.05,5.514A21.91,21.91,0,0,1,489.525,303.8Z" transform="translate(-452.949 -265.972)"></path></g><g transform="translate(864.616 449.339)"><ellipse class="c" cx="29.924" cy="29.525" rx="29.924" ry="29.525" transform="matrix(0.809, 0.588, -0.588, 0.809, 34.709, 0)"></ellipse><path d="M10.227,7.795C14.233,4.015,18.7,1.326,24.151.6,26.336.3,28.544.167,30.745,0A1.879,1.879,0,0,1,31.8.3c1.639,1.026,3.5,1,5.316,1.172A21.644,21.644,0,0,1,48.312,5.646a25.347,25.347,0,0,1,7.506,8.285,28.552,28.552,0,0,1,2.815,8.056,60.161,60.161,0,0,1,.881,13.756A23.723,23.723,0,0,1,52.9,51.756a31.186,31.186,0,0,1-14.131,8.651,28.4,28.4,0,0,1-11.16.933,44.037,44.037,0,0,1-11.374-2.753A23.453,23.453,0,0,1,5.673,50.577,27.925,27.925,0,0,1,.719,39.4,30.383,30.383,0,0,1,.273,28.928,47.247,47.247,0,0,1,2.556,19a28.336,28.336,0,0,1,7.67-11.207M22.5,6.828a41.364,41.364,0,0,0-8.592,8.541c-3.558,4.5-5.024,9.707-5.517,15.256A31.388,31.388,0,0,0,10.8,45.666c1.36,3.248,2.675,6.629,5.76,8.708a13.988,13.988,0,0,0,4.148,1.791c4.274,1.149,8.557,1.971,13.076,1.283a28.089,28.089,0,0,0,15.365-7.4,20.7,20.7,0,0,0,6.456-14.978A58.646,58.646,0,0,0,55,23.883c-.9-5.522-2.913-10.644-7.633-14.169a27.2,27.2,0,0,0-4.609-2.856c-4.624-2.18-9.611-2.415-14.573-2.024-1.837.145-3.593,1.3-5.684,1.994M4.2,26.61c-.463,3.333-.951,6.668-.28,10.027a4.411,4.411,0,0,0,.605,1.128c.189-.393.525-.783.535-1.181.017-.7-.284-1.41-.244-2.1a55.537,55.537,0,0,1,.632-7.469,39.652,39.652,0,0,1,2.394-8.057c.927-2.148,2.51-4.01,3.764-6.023a4.318,4.318,0,0,0,.326-1.2c-.309.112-.751.13-.907.351A45.771,45.771,0,0,0,6.662,18.57,49.261,49.261,0,0,0,4.2,26.61Z" transform="translate(14.826 11.159)"></path><path d="M79.449,42.7c2.444,0,4.791-.3,7.015.1,1.629.29,2.339,2.1,2.783,3.655.934,3.285.371,6.572.1,9.908-.343,4.248-.117,8.545-.07,12.82.026,2.386.221,4.77.27,7.157.025,1.254-.951,1.533-1.949,1.778a11.98,11.98,0,0,0-1.517.635,8.577,8.577,0,0,1-2.182.807c-3.733.362-7.475.63-11.215.92-2.427.188-3.792-1.064-4.211-3.455a48.226,48.226,0,0,1-.61-6.137c-.248-5.511-.533-11.026-.559-16.54a62.368,62.368,0,0,1,.841-7.652c.4-3.324,2.6-3.757,5.214-3.963,1.969-.155,3.959-.031,6.089-.031m4.611,33.615c.966-.127,2.426.51,2.49-1.177.069-1.834-.188-3.678-.256-5.519-.119-3.226-.368-6.46-.258-9.68.133-3.9,1.122-7.766.53-11.686-.327-2.162-.931-2.77-2.493-2.573-.508.064-1.005.261-1.512.281-3.177.121-6.354.273-9.532.276A1.733,1.733,0,0,0,71.156,47.8a25.8,25.8,0,0,0-.329,3.732c-.39,7.38.565,14.708.9,22.06a11.21,11.21,0,0,0,.3,2.1,1.364,1.364,0,0,0,1.587,1.244c3.024-.175,6.056-.217,9.084-.336C83.055,76.586,83.407,76.413,84.059,76.314Z" transform="translate(-32.457 -18.763)"></path><path d="M100.186,133.952c1.04.473,1.742,1.169,1.437,2.209a2.407,2.407,0,0,1-1.3,1.316c-.781.317-2.109-.834-2.221-1.749S98.827,134.031,100.186,133.952Z" transform="translate(-54.087 -82.945)"></path></g><g transform="translate(1090.032 376.979)"><ellipse class="d" cx="27.53" cy="29.525" rx="27.53" ry="29.525" transform="matrix(0.809, 0.588, -0.588, 0.809, 34.709, 0)"></ellipse><path d="M137.17,476.1a37.269,37.269,0,0,1-4.736-11.235,47.734,47.734,0,0,1-.448-12.543,31.214,31.214,0,0,1,3.214-11.864c1.5-3.1,3.1-6.123,5.74-8.495a14.659,14.659,0,0,1,4.4-2.686c1.991-.813,3.821-2.012,5.768-2.945a15.861,15.861,0,0,1,10.117-1.171,66.133,66.133,0,0,1,7.251,1.524A37.974,37.974,0,0,1,182.01,434.6a32.12,32.12,0,0,1,8.029,10.2,20.853,20.853,0,0,1,2.25,8.585c.032,1.1.255,2.2.276,3.3a37.945,37.945,0,0,1-5.375,20.21c-2.922,4.979-6.57,9.357-11.858,12.059a21.447,21.447,0,0,1-9.179,2.247c-4.514.152-8.976-.025-13.237-1.782a32.7,32.7,0,0,1-8.338-5,37.507,37.507,0,0,1-7.222-7.842c-.074-.108-.076-.266-.185-.474m.818-29.822a13.037,13.037,0,0,0-1.013,2.4,50.745,50.745,0,0,0-1.178,6.938,28.293,28.293,0,0,0,3.7,16.59,31.35,31.35,0,0,0,12.563,12.116c5.006,2.64,10.387,3.174,16,2.456a18.86,18.86,0,0,0,12.444-7.245,35.439,35.439,0,0,0,6.752-13.248,31.1,31.1,0,0,0,.852-15.056,23.553,23.553,0,0,0-6.272-11.675A31.689,31.689,0,0,0,171,432.692a23.271,23.271,0,0,0-7.079-1.532c-5.537-.428-10.5,1.44-15.1,4.408C144.526,438.344,140.69,441.587,137.989,446.278Z" transform="translate(-121.635 -420.464)"></path><path d="M178.115,504.2c-1.519.174-2.963.33-4.41.358-2.115.041-3.03-.818-2.931-2.869.1-2.1.448-4.193.528-6.3a3.444,3.444,0,0,0-.78-1.88,37.527,37.527,0,0,1-4.37-8.6,13.986,13.986,0,0,1-1.013-6.392,16.284,16.284,0,0,1,4.154-10.169,24.283,24.283,0,0,1,10.355-6.952,21.3,21.3,0,0,1,11.394-.458,14.3,14.3,0,0,1,5.245,3.046c4.017,3.29,7.888,6.822,9.946,11.73a18.545,18.545,0,0,1,1.481,9.88,35.028,35.028,0,0,1-4.632,13.686c-2.176,3.555-5.394,6.138-9.982,6.526-3.7.313-7.049-.815-10.515-1.679a15.419,15.419,0,0,0-4.468.068m-3.942-10.337c-.041.834-.062,1.669-.127,2.5a22.76,22.76,0,0,0-.26,3.429c.04.527.677,1.394,1.111,1.438a6.247,6.247,0,0,0,4.69-1.161,1.1,1.1,0,0,1,.778-.24,36.3,36.3,0,0,1,5.322,1.143c2.537.9,4.7,2.664,7.786,1.883a11.639,11.639,0,0,0,8.157-6.826,60.809,60.809,0,0,0,2.895-8.753,15.225,15.225,0,0,0-1.451-11.66,32.424,32.424,0,0,0-7.677-8.878c-4.32-3.612-8.9-3.852-14.008-2.745-2.686.583-4.808,2.122-7.012,3.528a11.565,11.565,0,0,0-5.091,6.911,15.872,15.872,0,0,0-.648,7.237,20.353,20.353,0,0,0,2.442,7.32C172.076,490.552,173.044,492.136,174.173,493.86Z" transform="translate(-145.028 -445.438)"></path><path d="M211.4,488.944c2.535.921,3.407,3.109,4.463,5.145.961,1.852.85,3.38-1.142,4.539a1.614,1.614,0,0,0-.577,1.451,20.853,20.853,0,0,0,1.982,2.836c.016.022.231-.119.36-.165,2.2-.784,3.122-.425,4.121,1.485q1.249,2.387,2.626,4.707c.97,1.629.463,3.42.6,5.133.026.316-.678.831-1.141,1.025a11.48,11.48,0,0,1-8.863-.092,19.412,19.412,0,0,1-10.022-8.27c-2.945-5.008-2.866-10.083,1.421-14.752,1.632-1.777,3.462-3.123,6.172-3.042M212,496.53c.3-.463.888-.966.83-1.379a6.118,6.118,0,0,0-.936-2.266c-.668-1.078-1.492-1.151-2.659-.48-3.235,1.858-5.153,6.771-4.167,10.334a14.154,14.154,0,0,0,4.9,7.168c2.771,2.3,5.926,3.921,9.708,3.409,2.044-.277,2.322-.742,1.452-2.57a29.3,29.3,0,0,0-2.1-3.586c-.486-.731-1.034-1.187-2.076-.479-1.284.873-2.109.458-2.938-.982-1.016-1.764-2.079-3.5-3.147-5.236C209.787,498.711,210.006,497.824,212,496.53Z" transform="translate(-170.804 -465.51)"></path></g></g></g></g></svg>