<svg xmlns="http://www.w3.org/2000/svg" width="256.314" height="135.146" viewBox="0 0 256.314 135.146"><g transform="translate(-900.686 -2479.106)"><path d="M254.819,67.68c.2,1.922.4,3.769.593,5.617.008.073,0,.148,0,.223.049,2.5.161,5.007.111,7.508a2.367,2.367,0,0,0,.6,1.881,1.246,1.246,0,0,1,.161.952c-.366,1.908-1.783,3.63-4.04,2.779a3.622,3.622,0,0,1-1.7-1.536c-.944-1.672-1.737-3.43-2.553-5.172a8.181,8.181,0,0,0-2.736-2.994c-1.758-1.305-3.6-2.5-5.443-3.689a28.6,28.6,0,0,0-8.748-3.777c-2.029-.5-4.079-.913-6.126-1.332-.283-.058-.737-.029-.87.145s.018.585.1.878c.56,2.092,1.186,4.168,1.686,6.274.383,1.613.626,3.26.9,4.9a16.937,16.937,0,0,1,.154,1.793c.059.993.162,1.989.135,2.981a28.945,28.945,0,0,1-.3,3.438,26.04,26.04,0,0,1-.75,3.7,10.278,10.278,0,0,1-2.4,4.05,24.884,24.884,0,0,1-7.691,5.615,26.28,26.28,0,0,1-6.756,2.146c-1.937.329-3.859.785-5.807,1.006-1.67.19-3.369.137-5.056.176-2.5.057-5.01.022-7.507.175-2.131.13-4.248.481-6.374.714-1.119.123-2.242.213-3.365.3-2.041.157-4.082.3-6.124.447-.746.054-1.492.136-2.239.143-6.436.06-12.872.1-19.308.159-1.761.017-3.521.089-5.282.145-1.316.042-2.633.07-3.946.153-1.944.123-3.9.207-5.824.463a19.179,19.179,0,0,0-5.531,1.146,5.631,5.631,0,0,0-2.214,1.912c-1.705,2.306-3.424,4.6-5.054,6.962a66,66,0,0,0-3.654,5.76c-.818,1.494-1.233,3.206-2.016,4.723a26.778,26.778,0,0,1-2.552,3.91,15.8,15.8,0,0,1-2.346,2.351,1.338,1.338,0,0,1-1.752.2,2.343,2.343,0,0,1-.563-1.344c-.044-.264.277-.569.346-.875.062-.273.126-.713-.02-.84-1.18-1.028-1.345-2.531-1.814-3.862-.61-1.734-1.036-3.533-1.508-5.314-.71-2.677-1.372-5.367-2.089-8.042a28.068,28.068,0,0,0-1.382-4.545,8.7,8.7,0,0,0-3.434-4.175,9.355,9.355,0,0,0-3.238-.93c-2.132-.291-4.284-.443-6.43-.613-1.188-.094-2.383-.109-3.574-.156-1.315-.052-2.631-.14-3.946-.138-1.464,0-2.928.083-4.391.139-1.019.04-2.037.093-3.056.148q-2.648.143-5.295.3c-.845.048-1.69.119-2.536.144-2.032.062-4.065.125-6.1.148-5.323.062-10.647.193-15.968.117A33.154,33.154,0,0,1,39.72,103.9c-1.819-.51-3.672-.916-5.464-1.505A7.97,7.97,0,0,1,28.99,97.1c-.507-1.494-1.167-2.942-1.594-4.456a36.657,36.657,0,0,1-.865-4.391,17.1,17.1,0,0,1-.277-3.361,5.2,5.2,0,0,1,.785-3.159c.608-.8.214-1.8-.836-2.565-1.747-1.269-3.463-2.589-5.271-3.765-2.522-1.639-5.118-3.163-7.681-4.74-2.07-1.274-4.146-2.539-6.2-3.835-1.4-.881-2.811-1.746-4.13-2.736A10,10,0,0,1,.575,61.78a2.806,2.806,0,0,1,.563-3.953c2.2-2.09,4.468-4.115,6.726-6.148q2.477-2.231,5-4.408c1.927-1.661,3.879-3.292,5.82-4.937,1.3-1.1,2.591-2.214,3.905-3.3.359-.3.277-.58.242-.982a31.052,31.052,0,0,1-.046-3.225,14.308,14.308,0,0,1,.171-1.782c.234-1.606.5-3.208.735-4.814.258-1.751.461-3.512.753-5.257a26.735,26.735,0,0,1,2.28-7.74,16.652,16.652,0,0,1,7.137-7.159,40.546,40.546,0,0,1,9-3.7c2.323-.623,4.67-1.159,7.014-1.7,1.833-.424,3.671-.837,5.521-1.179,1.211-.224,2.446-.317,3.672-.458Q61.726.726,64.388.44q.968-.1,1.942-.148c1.34-.061,2.68-.131,4.02-.147C75.7.083,81.045.023,86.393,0c1.934-.008,3.868.084,5.8.141,1.291.038,2.581.094,3.872.147,2.334.1,4.668.192,7,.3,1.988.091,3.976.18,5.962.3,2.141.129,4.281.282,6.421.444,1.746.132,3.489.292,5.233.443,2.268.2,4.535.407,6.8.589,1.491.12,2.985.21,4.478.3,1.814.108,3.644.089,5.437.344.96.136,1.258-.06,1.525-.951a1.7,1.7,0,0,1,1.664-1.018c1.686-.068,3.372-.132,5.059-.149,5.892-.062,11.784-.1,17.676-.154,4.952-.045,9.9-.114,14.856-.138,1.637-.008,3.275.072,4.911.144,1.791.078,3.582.158,5.368.3,1.95.156,3.9.374,5.84.588,1.627.179,3.259.337,4.873.605,1.674.278,3.339.631,4.987,1.035,2.667.653,5.333,1.317,7.968,2.084a17.123,17.123,0,0,1,6.81,3.805,10.516,10.516,0,0,1,2.9,5.253c.727,2.679,1.347,5.39,1.934,8.1a26.687,26.687,0,0,1,.588,4.13c.13,2.325.194,4.659.148,6.987a53.892,53.892,0,0,1-.456,5.749,6.17,6.17,0,0,1-.856,1.936c-.273.515-.182.748.348.838,2.238.38,4.489.712,6.7,1.2a64.36,64.36,0,0,1,6.752,1.791,24.531,24.531,0,0,1,7.681,4.19,46.44,46.44,0,0,1,3.866,3.565,19.9,19.9,0,0,1,4.312,7.186c.672,1.83,1.132,3.74,1.647,5.626a16.1,16.1,0,0,1,.308,1.966m-186-21.9c-.049,3.079-.092,6.159-.153,9.238-.016.8-.1,1.591-.142,2.388-.1,2.086-.281,4.173-.282,6.26,0,4.754.075,9.508.137,14.262.02,1.514.094,3.027.143,4.54,0,.074-.008.149,0,.222a12.533,12.533,0,0,1-.485,6.579c-.652,1.55-1.884,2.674-3.892,1.56-1.39-.771-2.782-1.54-4.141-2.364-1.883-1.143-3.778-2.273-5.589-3.523-2.859-1.974-5.648-4.049-8.48-6.062a1.066,1.066,0,0,0-.786-.181c-.129.034-.218.445-.223.688-.063,3.171-.108,6.341-.157,9.512,0,.025,0,.05,0,.074a1.537,1.537,0,0,1-2.13,1.411c-1.156-.5-2.254-1.131-3.372-1.715a28.382,28.382,0,0,1-3.149-1.7c-1.592-1.109-3.077-2.371-4.633-3.533a2.806,2.806,0,0,0-.951-.264c-.005.278-.011.557-.015.835,0,.124-.009.248,0,.371.1,1.147.17,2.3.3,3.439.227,1.978.443,3.959.756,5.924a8.282,8.282,0,0,0,.817,2.842c1.055,1.81,2.889,2.7,4.766,3.447a20.866,20.866,0,0,0,5.817,1.17c2.077.2,4.171.3,6.258.3,5.051,0,10.1-.074,15.153-.136,2.206-.027,4.412-.094,6.618-.145,2.107-.048,4.214-.093,6.321-.15,1.489-.04,2.977-.1,4.466-.147,1.464-.049,2.928-.094,4.391-.15,1.044-.04,2.086-.1,3.13-.145,1.414-.056,2.829-.134,4.243-.139,1.093,0,2.187.07,3.278.143a27.405,27.405,0,0,1,3.433.326,7.119,7.119,0,0,1,1.771.9,6.361,6.361,0,0,0,1.037.539,10.46,10.46,0,0,1,5.017,3.624,18.057,18.057,0,0,1,3.168,6.4c.737,2.52,1.384,5.067,2.092,7.6.626,2.237,1.279,4.466,1.933,6.7a2.115,2.115,0,0,0,.306.488,1.992,1.992,0,0,0,.423-.386c1.15-1.922,2.3-3.845,3.422-5.781a41.115,41.115,0,0,0,2.488-4.461,33.379,33.379,0,0,1,3.724-6.467c.8-1.108,1.8-2.069,2.652-3.14a12.414,12.414,0,0,1,3.948-3.355,17.69,17.69,0,0,1,7.483-1.61c2.371-.115,4.757.058,7.136.116,1.538.038,3.076.1,4.614.145,2.057.056,4.115.122,6.173.146,5.3.062,10.6.095,15.895.157,1.934.023,3.868.091,5.8.145,1.612.045,3.225.152,4.837.131,1.37-.018,2.739-.177,4.107-.281,1.221-.093,2.441-.206,3.662-.293,2.189-.156,4.38-.289,6.569-.452.926-.069,1.853-.161,2.771-.3,1.835-.274,3.666-.574,5.494-.888,1.311-.225,2.617-.485,3.923-.739a6.538,6.538,0,0,0,5.066-4.7c.707-2.012,1.324-4.056,1.95-6.095A38.35,38.35,0,0,0,219.8,78.667c.016-.757.247-1.513.232-2.267-.025-1.328.38-2.633-.005-3.99-.393-1.387-.528-2.846-.86-4.254a1.23,1.23,0,0,0-.779-.741,9.156,9.156,0,0,0-2.009-.173c-2.086-.019-4.173.02-6.259-.014a46.887,46.887,0,0,0-7.029.585c-1.382.186-2.786.207-4.179.317-.412.032-.755.107-.515.7a3.814,3.814,0,0,1,.162,1.193c.108,1.888.284,3.777.279,5.666-.006,2.186-.174,4.371-.276,6.557-.044.945-.063,1.893-.165,2.831a2.735,2.735,0,0,1-.433,1.075,2.2,2.2,0,0,1-2.607.5c-1.246-.706-2.5-1.413-3.686-2.206-1.947-1.3-3.817-2.71-5.775-3.989-2.971-1.941-6-3.795-8.985-5.713a78.269,78.269,0,0,1-8.547-5.711c-1.623-1.372-3.284-2.7-4.928-4.045-1.09-.893-2.219-1.742-3.26-2.688a29.969,29.969,0,0,1-3.116-3.14,2.465,2.465,0,0,1,.343-3.5c1.245-1.076,2.631-1.988,3.953-2.976,1.229-.919,2.481-1.808,3.671-2.775,1.216-.988,2.368-2.056,3.55-3.086,1.908-1.663,3.834-3.306,5.721-4.993,1.132-1.012,2.193-2.1,3.307-3.138.868-.806,1.752-1.6,2.658-2.361,2.068-1.744,4.164-3.454,6.228-5.2,1.855-1.573,3.653-3.215,5.53-4.761a2.646,2.646,0,0,1,4.307.867,11.954,11.954,0,0,1,1.033,4.391c.165,1.262.249,2.537.3,3.809.082,1.99.113,3.983.153,5.975.008.4.035.637.569.557,2.08-.313,4.16-.676,6.255-.83,1.878-.139,3.775-.048,5.664-.023,1.662.022,3.324.093,4.985.143.1,0,.193.009.289.019,1.4.141,2.8.3,4.2.416.31.027.575-.022.34-.511a2.822,2.822,0,0,1-.174-1.258c.082-2.953.241-5.9.268-8.858a43.357,43.357,0,0,0-.292-4.922c-.175-1.662-.445-3.316-.735-4.962-.36-2.044-.728-4.09-1.2-6.109a8.635,8.635,0,0,0-1.1-2.725c-1.048-1.6-2.808-2.347-4.414-3.245a1.085,1.085,0,0,0-.947-.034,7.951,7.951,0,0,1-4.277,1.142c-1.653.147-3.321.154-4.983.16-1.266,0-2.532-.1-3.8-.136-1.934-.058-3.869-.078-5.8-.159-1.4-.058-2.791-.163-4.181-.3-1.776-.17-3.546-.4-5.321-.584-2.069-.212-4.14-.4-6.211-.6-1.195-.11-2.391-.211-3.588-.3-2.214-.157-4.428-.312-6.644-.443-1.289-.076-2.581-.1-3.872-.156-.747-.034-1.495-.078-2.239-.149-1.948-.187-3.893-.4-5.84-.587-1.219-.116-2.44-.209-3.662-.3q-3.173-.232-6.347-.445c-1.665-.11-3.332-.205-5-.3-1.888-.1-3.778-.193-5.666-.3-1.568-.089-3.135-.185-4.7-.3q-2.878-.206-5.753-.446c-1.523-.13-3.042-.312-4.566-.437-2.04-.167-4.082-.305-6.124-.449-1.492-.105-2.985-.213-4.479-.295-2.061-.113-4.123-.2-6.185-.3-2.012-.1-4.024-.206-6.037-.294-1.463-.064-2.928-.1-4.391-.151s-2.928-.1-4.392-.148c-1.711-.053-3.422-.132-5.134-.139-1.29,0-2.581.1-3.872.136-1.958.058-3.919.071-5.875.158q-3.992.178-7.979.447c-1.4.1-2.8.258-4.194.443-2.033.27-4.069.533-6.086.9-2.2.4-4.4.8-6.548,1.392A62.633,62.633,0,0,0,38.327,9.3c-2.844,1.291-5.535,2.725-7.562,5.2a14.493,14.493,0,0,0-2.894,5.779c-.436,1.764-.732,3.564-1.053,5.355q-.98,5.462-1.9,10.935c-.023.134.153.331.282.449.054.049.256,0,.343-.062,2.074-1.567,4.139-3.148,6.213-4.716,2.184-1.651,4.382-3.282,6.562-4.938,1.037-.787,2.055-1.54,3.363-.51.081.064.229.036.341.068a2.9,2.9,0,0,1,2.043,1.678,11.1,11.1,0,0,1,.674,4.234c.1,2.3-.07,4.608-.091,6.913,0,.271.222.544.341.816a3.646,3.646,0,0,0,.658-.349c.286-.233.5-.555.8-.774,2.42-1.795,4.8-3.651,7.291-5.34,3.461-2.347,7-4.58,10.527-6.831a1.707,1.707,0,0,1,2.434.693,1.5,1.5,0,0,0,.631.577,1.891,1.891,0,0,1,1.2,1.67c.095,1.073.249,2.143.285,3.217.083,2.477.139,4.956.149,7.434.006,1.612-.088,3.224-.138,4.985M188.392,34.133c-.171.121-.348.235-.512.366q-1.869,1.492-3.733,2.99c-1.577,1.273-3.158,2.54-4.719,3.833-1.35,1.119-2.651,2.3-4.013,3.4a52.184,52.184,0,0,0-5.552,5.224c-1.7,1.844-3.548,3.548-5.387,5.252a3.11,3.11,0,0,1-2.527,1.066,1.18,1.18,0,0,0-.644.215,10.258,10.258,0,0,1-1.243.762c-.512.2-.455.484-.237.811a2.9,2.9,0,0,0,.645.7c2.163,1.637,4.309,3.3,6.515,4.876,2.911,2.081,5.819,4.173,8.823,6.113,3.438,2.219,7.007,4.234,10.465,6.422,1.7,1.078,3.284,2.35,4.924,3.529,1.2.862,2.4,1.729,3.615,2.563.378.259.728.244.782-.361.083-.925.274-1.848.276-2.771.005-1.933-.082-3.867-.134-5.8a.734.734,0,0,0-.055-.273,9.824,9.824,0,0,1-.7-4.392,2.252,2.252,0,0,1,.629-1.529,2.071,2.071,0,0,0,.553-.876,2.423,2.423,0,0,1,1.983-1.951,32.265,32.265,0,0,1,4.275-.61c1.784-.158,3.577-.216,5.367-.31,1.092-.057,2.185-.149,3.278-.141,3.245.024,6.492.03,9.733.16,2.3.092,4.589.349,6.878.583a29.426,29.426,0,0,1,4.275.61,39.434,39.434,0,0,1,9.8,3.566,19.914,19.914,0,0,1,7.581,7.464c.565.965,1.245,1.862,1.888,2.78.086.123.267.179.4.266.074-.167.215-.337.21-.5-.022-.722-.081-1.444-.138-2.165-.145-1.819-.233-3.645-.46-5.453-.279-2.215-.57-4.438-1.047-6.616a20.373,20.373,0,0,0-5.219-9.847A29.284,29.284,0,0,0,241.97,51.5a23.107,23.107,0,0,0-9.054-4.284c-2.667-.654-5.373-1.154-8.077-1.641-2.041-.368-4.1-.636-6.16-.9-1.54-.195-3.089-.337-4.638-.446-1.886-.133-3.775-.254-5.665-.29-1.462-.028-2.927.078-4.391.135q-1.528.059-3.055.15c-.622.037-1.242.1-1.863.157-1.074.094-2.148.26-3.221.255a1.072,1.072,0,0,1-1.145-1c-.052-.643.446-.832.9-1.048.06-.029.151.011.218-.011.77-.255.754-.242.2-.844a1.892,1.892,0,0,1-.551-.875,22.483,22.483,0,0,1-.3-3.287,28.621,28.621,0,0,0-.911-6.384.752.752,0,0,0-1.184-.538,7.273,7.273,0,0,0-1.036.725c-1.191.889-2.379,1.783-3.642,2.749M41.732,31.164a1.96,1.96,0,0,0-.081-.487c-.147-.335-.259-.824-.518-.932-.242-.1-.71.14-.982.353-.61.479-1.17,1.024-1.731,1.563-.624.6-1.187,1.269-1.847,1.824-1.513,1.272-3.075,2.486-4.606,3.737-1.444,1.18-2.868,2.386-4.314,3.564-1.773,1.444-3.565,2.863-5.338,4.307C20.869,46.27,19.469,47.507,18,48.649c-2.144,1.662-4.338,3.258-6.5,4.89Q9,55.417,6.527,57.318c-.96.739-1.9,1.507-2.854,2.251-.414.322-.429.627,0,.927,1.113.774,2.206,1.581,3.352,2.3C9.3,64.227,11.593,65.62,13.894,67c2.018,1.21,4.083,2.343,6.082,3.583,2.035,1.262,4.057,2.555,6.007,3.943,1.7,1.21,3.293,2.572,4.935,3.864q1.706,1.342,3.418,2.676c1.552,1.209,3.119,2.4,4.654,3.628.828.663,1.595,1.4,2.407,2.085a2.946,2.946,0,0,0,.658.32,2.978,2.978,0,0,0,.187-.735q-.058-8.392-.145-16.784c-.016-1.464-.1-2.927-.142-4.391-.056-1.983-.149-3.966-.141-5.949.028-7.3.1-14.6.131-21.9.008-2.032-.09-4.065-.214-6.172m13.508,6.68c-.379.28-.75.572-1.138.838-1.541,1.054-3.077,2.116-4.642,3.134a1.194,1.194,0,0,1-.932.118,1.138,1.138,0,0,0-1.226.28,2.757,2.757,0,0,1-2.032.837c-.5-.05-.65.288-.646.75.055,6.905.094,13.811.156,20.716.026,2.9.1,5.8.144,8.695a2.8,2.8,0,0,0,.024.955,1.853,1.853,0,0,0,.7.913c.926.493,1.974.777,2.853,1.335,2.185,1.386,4.3,2.878,6.449,4.329q2.754,1.863,5.5,3.732c1.294.884,2.576,1.783,3.865,2.674.719.5,1.129.387,1.215-.451a22.938,22.938,0,0,0,.018-2.843c-.036-1.637-.091-3.274-.146-4.91q-.063-1.862-.148-3.723c-.145-3.179-.411-6.357-.421-9.537-.023-7.474.06-14.949.134-22.423a51.885,51.885,0,0,0-.454-7.682c-.15-1.076-.306-2.152-.442-3.229-.07-.552-.415-.583-.756-.344-1.462,1.026-2.9,2.092-4.343,3.137-1.218.879-2.441,1.75-3.736,2.7M223.795,86.458c-.049-1.636-.076-3.273-.159-4.908a19.256,19.256,0,0,0-.3-2.323c-.034-.2-.246-.362-.377-.542a2.821,2.821,0,0,0-.2.584c-.16,1.47-.191,2.965-.477,4.409-.476,2.4-1.077,4.785-1.7,7.157-.4,1.53-.931,3.025-1.387,4.541a1.346,1.346,0,0,0,.05.493c.151-.042.346-.038.447-.133a17.127,17.127,0,0,0,1.675-1.679c1.732-2.173,2.231-4.765,2.421-7.6M191.657,6.226c-.371,0-.742.018-1.112,0-1.615-.092-3.229-.2-4.845-.28-.162-.008-.333.184-.5.283.167.1.327.271.5.286q2.871.249,5.746.45c.615.042,1.236-.008,1.853.01,1.413.04,2.826.1,4.239.132.14,0,.284-.184.427-.283-.142-.1-.279-.276-.427-.285C195.629,6.418,193.717,6.325,191.657,6.226Z" transform="translate(900.686 2479.106)"></path><path d="M730.254,1327.226c2.773,0,5.4.019,8.033,0,7.037-.06,14.074-.185,21.11-.186,2.79,0,5.587.2,8.366.42a5.848,5.848,0,0,1,4.946,3.919,21.359,21.359,0,0,1,.313,2.99c.094.949-1.71,2.192-4.295,2.205-6.455.032-12.91-.01-19.364.02-2.782.013-5.563.2-8.344.19-8.519-.035-17.038-.15-25.557-.187-2.637-.011-5.275.14-7.914.2-1.258.027-2.529-.071-3.776.022a3.314,3.314,0,0,1-3.493-1.8,5.471,5.471,0,0,1,.119-5.326,3.962,3.962,0,0,1,3.509-1.622c6.576-.193,13.15-.417,19.725-.63C725.791,1327.369,727.951,1327.3,730.254,1327.226Z" transform="translate(278.273 1202.503)"></path><path d="M698.408,1254.673a6.026,6.026,0,0,0-1.907.558c-.9.6-2.19.378-2.424-1.321a11.964,11.964,0,0,1,.173-4.136,3.614,3.614,0,0,1,3.169-2.935c2.012-.272,4.043-.368,6.068-.446,3.068-.117,6.137-.179,9.207-.22q9.987-.131,19.975-.21c2.889-.02,3.731,2.228,3.741,5.148a2.408,2.408,0,0,1-2.105,2.286q-4.078.109-8.157.213-4.3.109-8.594.212c-3.127.074-6.255.134-9.382.216-2.165.057-4.33.105-6.493.224-1.064.059-2.122.269-3.27.411m33.465-5c.111.177.216.5.333.5a1.838,1.838,0,0,0,.682-.245,2.941,2.941,0,0,0-.5-.352C732.262,1249.525,732.1,1249.57,731.873,1249.676Z" transform="translate(283.739 1265.339)"></path><path d="M702.619,1254.673a20.794,20.794,0,0,0-3.717.558c-1.762.6-4.269.378-4.726-1.321a6.31,6.31,0,0,1,.337-4.136c.8-1.81,3.307-2.736,6.177-2.935,3.921-.272,7.88-.368,11.828-.446,5.98-.117,11.964-.179,17.947-.22q19.468-.131,38.937-.21c5.631-.02,7.273,2.228,7.292,5.148.008,1.17-2.154,2.259-4.1,2.286q-7.95.109-15.9.213-8.377.109-16.753.212c-6.1.074-12.193.134-18.289.216-4.22.057-8.441.105-12.656.224-2.073.059-4.136.269-6.374.411m65.233-5c.216.177.422.5.649.5a6.084,6.084,0,0,0,1.33-.245,7.325,7.325,0,0,0-.973-.352A2.365,2.365,0,0,0,767.852,1249.676Z" transform="translate(1754.406 3803.836) rotate(180)"></path></g></svg>