<svg xmlns="http://www.w3.org/2000/svg" width="59" height="59" viewBox="0 0 59 59"><g id="Group_17697" data-name="Group 17697" transform="translate(-334 -2181)"><g id="Rectangle_5479" data-name="Rectangle 5479" transform="translate(334 2181)" stroke="#151515" stroke-width="2"><rect width="59" height="59" rx="7" stroke="none"></rect><rect x="1" y="1" width="57" height="57" rx="6" fill="none"></rect></g><g id="Group_17675" data-name="Group 17675"><path id="Subtraction_1" data-name="Subtraction 1" d="M0,27.243H0l1.908-6.972a13.441,13.441,0,1,1,5.223,5.1Zm7.462-4.305h0a13.418,13.418,0,0,0,2.863,1.322,10.7,10.7,0,0,0,3.235.48A11.186,11.186,0,1,0,2.383,13.547a10.67,10.67,0,0,0,.522,3.391,13.449,13.449,0,0,0,1.453,2.983L3.231,24.048l4.231-1.111h0Zm9.6-2.922a4.239,4.239,0,0,1-1.3-.2,19.451,19.451,0,0,1-1.916-.708,12.265,12.265,0,0,1-3.863-2.781,17.539,17.539,0,0,1-1.816-2.206l0,0c-.029-.042-.05-.072-.062-.087l0,0a6.4,6.4,0,0,1-1.371-3.474,3.828,3.828,0,0,1,.425-1.81,4.147,4.147,0,0,1,.687-.925l.065-.069a1.226,1.226,0,0,1,.9-.421l.644.012h.1c.209,0,.432.045.655.577.086.207.21.51.342.829l.008.02,0,.006c.293.715.626,1.525.683,1.641a.624.624,0,0,1,.027.59l-.047.1a1.938,1.938,0,0,1-.289.465l-.5.591c-.163.161-.347.343-.147.686a10.035,10.035,0,0,0,1.869,2.329,8.7,8.7,0,0,0,2.486,1.57c.091.04.163.071.217.1a.839.839,0,0,0,.366.109.471.471,0,0,0,.363-.19c.206-.236.842-.986,1.065-1.319a.467.467,0,0,1,.4-.255,1.107,1.107,0,0,1,.359.086c.3.111,1.915.9,2.3,1.094l.179.088.011.005a1.063,1.063,0,0,1,.454.3,2.762,2.762,0,0,1-.194,1.6,2.373,2.373,0,0,1-1,1.057,3.708,3.708,0,0,1-1.272.541,5.438,5.438,0,0,1-.814.063Z" transform="translate(350 2196.873)" fill="#fff"></path></g></g></svg>