<svg xmlns="http://www.w3.org/2000/svg" xmlns:xlink="http://www.w3.org/1999/xlink" width="241.434" height="299.465" viewBox="0 0 241.434 299.465"><defs><style>.a,.c,.m,.n{fill:#fff;}.a,.j,.s,.t{stroke:#707070;}.b,.j{fill:#f88686;}.d{fill:#66c565;}.e{fill:#7dadd6;}.f{fill:#90d28f;}.g{fill:#9c99db;}.h{fill:none;stroke:#777;}.i{fill:#333;}.k{fill:rgba(0,0,0,0);}.l{fill:#777;}.m,.n{font-size:5px;}.m{font-family:SegoeUI-Semibold, Segoe UI;font-weight:600;}.n{font-family:SegoeUI, Segoe UI;}.o{clip-path:url(#a);}.p{fill:#ececec;}.q{fill:#fd9385;}.r,.s{fill:#90b8e8;}.t{fill:#2680eb;}</style><clipPath id="a"><path class="a" d="M1958.037-14387.827h140.945l-35.236-65.928-17.618-2.611,7.178-46.982,6.2-24.142-13.377-44.047-2.284-28.711-14.682-7.178-8.483,15.009V-14473s-1.48,13.375-8.984,16.639-58.878,2.611-58.878,2.611h-45.2c-1.631,0-14.833-2.824-16.464-9.021s-3.438-23.164-3.438-23.164,18.923,2.607,19.9-7.832-.151-4.028,3.112-17.08-8.157-21.206-8.157-21.206,14.682-3.588,8.157-15.334-13.552-12.936-13.552-12.936l-6.024-5.547v-43.395l-9.637-2.282-4.894-6.2-19.074,17.5,6.2,91.68,27.406,54.813,66.884,65.928" transform="translate(-1857.548 14617.752)"></path></clipPath></defs><g transform="translate(-258.456 -1420.857)"><g transform="translate(289.895 1420.857)"><g transform="translate(0.561 0)"><g transform="translate(0 0)"><g transform="translate(0)"><ellipse class="b" cx="21.93" cy="20.834" rx="21.93" ry="20.834" transform="translate(105.595 39.607)"></ellipse><path class="c" d="M850.5,666.291s-3.442.082-4.344,6.229-1.147,9.835-1.147,9.835l-1.967,7.049,7.458.492,1.475,1.967,4.262,1.065,2.623-3.524h7.623l-2.458-8.442s-.9-8.032-.9-8.442-1.393-5-1.393-5l-1.967-1.229s-3.277-5.9-5.409-4.672a19.685,19.685,0,0,0-3.852,3.033Z" transform="translate(-727.248 -619.046)"></path><circle cx="1.645" cy="1.645" r="1.645" transform="translate(82.02 6.163)"></circle><path class="d" d="M502.217,1195.86,500,1200.571l1.246,8.45.97,4.571h18.146l1.108-4.571-1.108-13.159Z" transform="translate(-484.584 -997.078)"></path><path class="e" d="M505.231,1195.86l-.97,5.125v8.034l.97,4.571h18.146l1.108-4.571v-9.695l-3.065-3.465Z" transform="translate(-461.263 -997.078)"></path><path class="f" d="M505.231,1195.86l-.97,4.987v8.172l.97,4.571h18.146l.8-13.575-2.632-4.155Z" transform="translate(-434.928 -997.078)"></path><path class="g" d="M505.231,1195.86l-.97,5.125v8.034l.97,4.571H521.42l1.956-4.571,1.108-9.7-1.688-2.585h-1.375l-3.324-.878Z" transform="translate(-408.592 -997.956)"></path><path class="c" d="M102.261,560.671c-2.114-.084-4.113-.153-6.109-.259-1.014-.054-1.5-.541-1.863-1.562-.677-1.906-.049-4.962,0-7,.032-1.333-.018-1.646,1.168-2.04A10.664,10.664,0,0,1,97,549.542c.951-.165,1.9-.375,2.852-.491a15.688,15.688,0,0,1,1.873-.014c.781,0,1.563.033,2.341-.009a14.771,14.771,0,0,1,2.243-.219c2.777.289,5.568.055,8.332.293,1.575.135,3.158-.024,4.7.224,1.574.253,3.166,0,4.7.267a50.243,50.243,0,0,0,5.062.21c.75.056,1.5.177,2.246.244.712.064,1.423.1,2.136.193a2.738,2.738,0,0,1,2.1.995,3.777,3.777,0,0,1,.486,1.558,10.472,10.472,0,0,1,.157,5.285,1.417,1.417,0,0,0,0,.252c-.113,1.54-.144,1.961-2.184,2.386a13.96,13.96,0,0,1-2.838.2c-3.669.021-7.346.178-11.006-.029-5.942-.338-11.88-.123-17.937-.215m13.7-1.519h7.608a2.585,2.585,0,0,1,.816.012,11.98,11.98,0,0,0,4.818.183c1.54-.1,3.075-.534,4.628-.688a.945.945,0,0,0,.97-.834,18.735,18.735,0,0,0-.485-5.34,1.156,1.156,0,0,0-.869-.638c-1.059-.088-2.119-.139-3.181-.241-2.336-.223-4.7.135-7.041-.277-1.083-.19-2.189-.048-3.3-.214a33.051,33.051,0,0,0-4.811-.258c-5.311-.008-10.63-.342-15.936.2a5.582,5.582,0,0,0-2.575.913,3.092,3.092,0,0,0-1.565,2.672,13.521,13.521,0,0,0,.688,3.216,1.315,1.315,0,0,0,.777.754,7.214,7.214,0,0,0,1.885.272c3.79.1,7.582-.121,11.374.23C111.74,559.3,113.742,559.155,115.965,559.155Z" transform="translate(-81.219 -479.396)"></path><path class="h" d="M571.977,762.726s-1.172,6.393,0,7.352,13.319.852,13.319.852H612.36l.533-5.754s-1.172-3.3-2.77-3.2-15.983-.852-15.983-.852H580.927l-8.1.852Z" transform="translate(-558.248 -690.726)"></path><path d="M.518,59.785c0-1.518-.1-2.917.018-4.3C1.095,49.16.645,42.826.76,36.5a12.29,12.29,0,0,0-.5-3.713,2.747,2.747,0,0,1-.01-.756c0-1.053-.025-2.107,0-3.16.072-2.495.061-5,.29-7.48.223-2.416.5-4.824.51-7.253a2.287,2.287,0,0,1,.289-1.266c.88-1.233.8-2.718,1.246-4.061a4.4,4.4,0,0,1,1.163-2.07,20.044,20.044,0,0,1,2.9-2.472A25.055,25.055,0,0,1,13.57,1.644a3.429,3.429,0,0,1,.516-.029c2.04-.167,4.094-.25,6.118-.529,2.124-.293,4.26-.341,6.384-.534,2.041-.186,4.09.007,6.1-.234A62.465,62.465,0,0,1,43.541.171c3.627.2,7.259-.111,10.85.248,1.688.169,3.427-.152,5.077.425a2.541,2.541,0,0,0,.788.011c2.554,0,5.108.033,7.661-.009C70.787.8,73.676.86,76.52.554c2.881-.31,5.745-.111,8.614-.2C89.059.24,92.985.132,96.912.113A57.777,57.777,0,0,1,104.06.4c1.518.182,3.022.062,4.519.215,1.879.192,3.742.516,5.618.735,1.146.134,2.305.158,3.455.267A15.552,15.552,0,0,1,122.1,2.633a29.954,29.954,0,0,1,3.97,1.8,10.559,10.559,0,0,1,2.269,2.084c1.276,1.4,1.551,3.186,1.9,4.931a1.881,1.881,0,0,0,.168.564,9.859,9.859,0,0,1,.683,2.9c.348,1.5-.125,3.037.466,4.483a.411.411,0,0,1,0,.126l.263,5.08c.085,1.567.247,3.134.244,4.7a27.16,27.16,0,0,1-.3,5.07,37.708,37.708,0,0,0-.21,4.2c-.046.556.081.868.79,1.008a37.334,37.334,0,0,1,3.635,1.047,13.931,13.931,0,0,1,3.765,1.972,31.459,31.459,0,0,1,4.261,3.242,19.6,19.6,0,0,1,4.065,5.83,21.909,21.909,0,0,1,1.988,6.423c.106.824.4,1.626.494,2.449a6.768,6.768,0,0,1-.167,1.567,2.784,2.784,0,0,0-.071.349c.016,2.91-1.264,5.434-2.532,7.976a20.1,20.1,0,0,1-4.968,6.243,21.028,21.028,0,0,1-5.407,3.065c-1.551.682-3.172,1.216-4.774,1.783-1,.353-1.071.4-1.08,1.364-.088,9.828-.362,19.659-.186,29.483.088,4.812.069,9.627.171,14.438.01.468.2.98-.23,1.43a.827.827,0,0,0-.006.735,6.873,6.873,0,0,1,.241,2.936c.025,3.5.176,7.006-.025,10.493-.415,7.173-.322,14.352-.152,21.517.1,4.35.339,8.712.113,13.044-.22,4.229-.085,8.449-.166,12.67a15.249,15.249,0,0,0,.43,2.729c.02.117.059.231.071.349s0,.253,0,.38c.088,6.92.2,13.841.246,20.76a37.025,37.025,0,0,1-.693,4.883c-.146,1.134-.974,1.937-1.086,3a12.937,12.937,0,0,1-1.092,3.743,13.554,13.554,0,0,1-4.67,6.116,10.9,10.9,0,0,1-2.948,1.758c-.194.059-.447.231-.571.168-1.148-.582-2.188.035-3.27.214-1.28.21-2.575.337-3.851.574a4.781,4.781,0,0,1-3.252-.244,2.412,2.412,0,0,0-1.045-.02c-4.014.083-8.045-.02-12.037.309-3.5.288-6.977.109-10.463.181-3.521.072-7.058.2-10.562-.047-2.394-.166-4.775-.107-7.161-.178-.447-.013-.928-.168-1.368.211-.149.129-.569-.016-.862-.059a3.312,3.312,0,0,0-.849-.152,39.4,39.4,0,0,1-4.539-.023c-1.54.043-3.09-.092-4.621.027-6.785.527-13.579.22-20.366.172-2.907-.02-5.841.008-8.735-.249-1.735-.153-3.455-.119-5.179-.186a3.217,3.217,0,0,0-2.329.422.938.938,0,0,1-.621.07q-1.863-.26-3.72-.559a10.527,10.527,0,0,0-1.7-.331c-1.106.005-2.138-.716-3.336-.169-.359.164-1.11-.226-1.567-.525-2.768-1.8-5.166-3.94-6.414-7.012a15.327,15.327,0,0,1-1.349-4.529,3.634,3.634,0,0,0-.437-1.085A4.609,4.609,0,0,1,.8,219.056c-.16-1.79-.708-3.531-.576-5.357.064-.883-.313-1.8-.209-2.672.419-3.5-.029-7.03.3-10.515.229-2.464.073-4.91.211-7.36.044-.769.18-1.532.255-2.3a22.767,22.767,0,0,0,.25-3.055C.673,178.6.792,169.407.8,160.211c0-1.146.332-2.307.218-3.433-.244-2.41-.185-4.821-.244-7.232a16.714,16.714,0,0,0,.052-2.7,16.483,16.483,0,0,1-.038-2.9v-28.83A23.3,23.3,0,0,1,.8,112.2a51.624,51.624,0,0,0,.191-10.01c-.384-5.618.115-11.241-.265-16.839C.44,81.122.607,76.9.535,72.683c-.072-4.256-.016-8.515-.016-12.9M7.916,214.7c.088.388.186.774.263,1.163a21.215,21.215,0,0,0,3.692,9.035,6.047,6.047,0,0,0,4.86,2.552,27.341,27.341,0,0,0,4.389-.181,41.862,41.862,0,0,1,6.223-.283c4.191.052,8.378-.142,12.575.192,4.173.331,8.373-.088,12.573.244,4.347.343,8.735-.183,13.1.277a24.853,24.853,0,0,0,2.794-.216c4.764-.052,9.527.061,14.29-.244,3.742-.239,7.5-.029,11.253-.193a90.459,90.459,0,0,1,13.1.14c2.629.267,5.3.192,7.944.29a6.735,6.735,0,0,0,5.748-3.031,17.05,17.05,0,0,0,2.312-4.642,18.11,18.11,0,0,0,1.36-5.773c.114-3.916.09-7.84.018-11.759-.072-3.885.248-7.772-.218-11.658-.262-2.181.085-4.393-.257-6.6-.278-1.793-.056-3.628-.242-5.459-.3-2.938-.157-5.911-.26-8.87-.212-6.148-.064-12.307-.064-18.461,0-.3-.124-.7.029-.861.233-.248-.02-.813.6-.794.688.021.724-.444.7-.94a32.822,32.822,0,0,0-.23-5.213,14.219,14.219,0,0,1-.035-2.9v-8.726c0-.969-.039-1.94.011-2.907.047-.9-.084-1.792-.044-2.7.176-3.924-.135-7.855.263-11.784a39.906,39.906,0,0,0-.173-5.585,48.311,48.311,0,0,1,.146-7.36c.291-2.595.141-5.235.28-7.858.183-3.448.045-6.911.045-10.367a1.99,1.99,0,0,0-.019-.751c-.113-.257-.341-.618-.57-.656a26.461,26.461,0,0,1-4.616-1.249,24.878,24.878,0,0,1-8.18-4.9c-1.092-.968-2.122-2-3.16-3.024a7.65,7.65,0,0,1-.66-.873,13.35,13.35,0,0,1-2.088-3.98c-.256-.79-.725-1.056-1.4-.924a6.76,6.76,0,0,1-1.475.241c-3.4-.115-6.79.094-10.2-.171a71.262,71.262,0,0,0-8.606.122c-7.527.332-15.076-.231-22.609.3-1.139.081-2.292-.037-3.433.025-1.076.059-2.136-.39-3.221-.026a5.144,5.144,0,0,1-1.472.255c-3.574.1-7.147-.082-10.726.217a49.351,49.351,0,0,1-6.362-.149c-5.635-.263-11.293.192-16.926-.326a17.7,17.7,0,0,1-3.668-.676c-1.112-.351-2.107-1.022-3.191-1.472A1.5,1.5,0,0,1,11.354,63.6c.152-3.378-.187-6.755.213-10.144.293-2.469-.063-4.988.288-7.481.146-1.035-.019-2.107.033-3.158.119-2.409-.309-4.835.24-7.233a1.067,1.067,0,0,0-.209-.665A3.19,3.19,0,0,1,11.67,32.4a18.3,18.3,0,0,0,.421-3.225A5.541,5.541,0,0,1,15.917,24.4a22.6,22.6,0,0,1,4.418-.763c2.245-.181,4.5-.254,6.757-.26,1.945-.006,3.894.1,5.837.172,5.593.213,11.2.009,16.8.288,4.491.224,9,.195,13.495.287.243,0,.793-.969,1.035-.969.8,0,1.883.84,2.451.483,1-.629,1.692-.1,2.711-.223,1.746-.213,3.535-.2,5.3-.26,4.442-.146,8.893-.1,13.339-.033s8.916-.287,13.366.224c1.4.161,2.826.032,4.256.212,1.634.2,3.3.225,4.926.556,1.339.274,2.706.439,4.026.778a6.229,6.229,0,0,1,4.916,4.549,26.589,26.589,0,0,1,1.161,6.615c.006,1.061-.19,2.121-.239,3.183-.042.9-.016.873.984.567q1.4-.431,2.842-.755c.455-.1.7-.3.649-.741a15.462,15.462,0,0,1-.246-1.54c-.037-2.286-.107-4.567-.224-6.852-.135-2.652.176-5.323.193-7.986a43.7,43.7,0,0,0-.285-5.2,2.764,2.764,0,0,1,.075-1.548,1.675,1.675,0,0,0,.015-1.334,6.462,6.462,0,0,0-2.063-3.092A10.024,10.024,0,0,0,116.544,8.2c-1.762-.256-3.547-.4-5.327-.511-2.25-.135-4.506-.251-6.759-.247-2.562,0-5.123.157-7.684.231-1.135.033-1.157.019-1.141,1.151a7.59,7.59,0,0,1-.993,4.55,1.814,1.814,0,0,1-1.094.842,13.438,13.438,0,0,1-2.788.277q-10.9.029-21.8,0a8.523,8.523,0,0,1-2.83.041c-.335-.109-.9.327-1.18.186a4.837,4.837,0,0,0-2.289-.2c-7.8-.171-15.606.281-23.405-.231a1.728,1.728,0,0,1-1.528-.734c-.851-1.452-1.58-2.957-1.052-4.708a.922.922,0,0,0-.683-1.164c-1.724-.092-3.45-.245-5.174-.234s-3.451.056-5.179.161c-3.094.187-6.2.2-9.291.543a15.178,15.178,0,0,0-2.939.564,8.835,8.835,0,0,0-5.568,4.7,1.721,1.721,0,0,0-.236,1.373,3.58,3.58,0,0,1,.3,1.9c-.036.642-.224,1.278-.243,1.919-.166,5.4.039,10.8-.212,16.211-.39,8.427-.01,16.87-.246,25.311-.214,7.626-.315,15.271.15,22.91.333,5.476-.065,10.968.242,16.462.388,6.95-.059,13.919.251,20.887a138.591,138.591,0,0,1-.134,14.817c-.283,4.494-.061,9.018-.059,13.527,0,.429-.169.979.668.86.1-.014.349.364.371.577a32.812,32.812,0,0,1,.26,3.435c0,1.144-.2,2.289-.237,3.436-.177,6.118.293,12.242-.257,18.359-.2,2.232.094,4.477-.238,6.727-.314,2.13.006,4.3-.248,6.471a65.622,65.622,0,0,0-.3,8.361c.065,5.825-.312,11.656.244,17.726m29.46-189.3c-1.724-.084-3.448-.212-5.173-.243-2.332-.042-4.665-.01-7-.01a3.006,3.006,0,0,0-.919.013c-1.608.553-3.3.088-4.948.443a14.857,14.857,0,0,0-3.772,1.07,2.755,2.755,0,0,0-1.334,3,18.676,18.676,0,0,1-.048,3c-.025.524-.32,1.118-.144,1.549a4.808,4.808,0,0,1,.2,2.061c-.045,1.82,0,3.633-.2,5.463-.319,2.894.129,5.823-.285,8.743-.285,2.007.068,4.049-.243,6.092a29.228,29.228,0,0,0-.042,5.175c.041,1.488.866,2.314,2.372,2.864a23.074,23.074,0,0,0,6.571.947c4.485.286,8.987-.017,13.492.238a92.918,92.918,0,0,0,12.17-.156c3.911-.293,7.85.2,11.775-.258a46.5,46.5,0,0,1,5.433-.22c7.621.015,15.245-.335,22.868.169,3.695.244,7.409-.157,11.117.234a30.609,30.609,0,0,0,4.639-.21c.866-.043.981-.1.951-.945-.031-.894-.184-1.783-.247-2.677a12.75,12.75,0,0,1,.527-3.961,21.814,21.814,0,0,1,1.576-4.557,44.2,44.2,0,0,1,5.189-7.279,13.779,13.779,0,0,1,5.295-4.159c.327-.143.75-.365.849-.644a4.816,4.816,0,0,0,.281-1.78c-.08-2.03.212-4.062-.219-6.1a35.3,35.3,0,0,0-1.046-4.265,3.075,3.075,0,0,0-2.143-2.05,47.546,47.546,0,0,0-4.967-1.035c-.874-.155-1.774-.171-2.661-.267-1.469-.16-2.932-.375-4.4-.494-1.9-.153-3.8-.052-5.706-.2-3.237-.243-6.509-.05-9.765-.083-.57-.006-.571.263-.5.61.133.686-.432.763-.866.909a2.353,2.353,0,0,1-.787.013c-4.188-.141-8.374.154-12.571-.207-3.772-.325-7.579.1-11.378-.263-3.113-.3-6.255.052-9.4-.23-3.109-.279-6.262-.025-9.393-.286-1.616-.135-3.255-.024-5.148-.024m91.281-11.758c-.106-.6.1-1.185-.231-1.814-.56-1.075-.827-2.289-1.383-3.367a6.286,6.286,0,0,0-1.689-2.217,14.969,14.969,0,0,0-5.5-2.522,7.418,7.418,0,0,0-4.382-.082,1.258,1.258,0,0,1-.783,0,16.623,16.623,0,0,0-4.149-.449c-3.163-.273-6.345-.008-9.534-.241C96.48,2.6,91.926,2.89,87.377,2.693a79.275,79.275,0,0,0-12.572.155c-.995.115-2.04-.232-3.057-.207-4.322.107-8.65-.271-12.973.2-1.17.129-2.39-.22-3.585-.2-4.455.055-8.912-.186-13.367.21-1.877.167-3.784,0-5.677.032-4.939.071-9.878.164-14.817.25a5.812,5.812,0,0,0-.644.042c-1.167.151-2.331.313-3.5.457a2.973,2.973,0,0,1-.5-.064,13.89,13.89,0,0,0-3.345-.133A18.23,18.23,0,0,0,8.461,5.254a7.11,7.11,0,0,0-3.7,4.058c-.126.372-.228.752-.378,1.115a7.523,7.523,0,0,0-.977,3.921c.034.247-.168.518-.229.785a6.422,6.422,0,0,0-.263,1.406c0,.513.234,1.027.225,1.539-.011.683-.2,1.362-.237,2.046-.146,3,.111,6-.226,9-.324,2.893.04,5.823-.251,8.749a25.721,25.721,0,0,0,.145,5.967A18.279,18.279,0,0,1,2.4,49.176a23.936,23.936,0,0,0-.038,3.788V64.219c0,1.223-.055,2.448.016,3.666.07,1.2-.084,2.385-.054,3.586.224,8.857.073,17.717.224,26.578.274,16.014.074,32.035.088,48.053a8.925,8.925,0,0,0,.2,2.818c.178.563-.19,1.263-.2,1.9-.159,6.5.26,13-.247,19.5a27.909,27.909,0,0,0,.184,4.7c.3,3.237.026,6.5.253,9.759.272,3.9.076,7.835.052,11.756,0,.64-.276,1.288-.23,1.917.1,1.41.39,2.809.491,4.219.146,2.027.244,4.061.267,6.092.042,3.624.009,7.25.013,10.876a8.124,8.124,0,0,0,.463,3.228,11.614,11.614,0,0,1,.825,2.2c.34,1.846,1.8,2.812,3.114,3.909a1.372,1.372,0,0,0,.8.252,2.466,2.466,0,0,1,1.532.756A7.169,7.169,0,0,0,12,231.221a20.269,20.269,0,0,0,6.438,1.287q7.8.234,15.609.266c7.925.04,15.852.01,23.777.01,7.882,0,15.764.059,23.645-.016s15.78.254,23.67-.2c4.1-.239,8.252.267,12.325-.551a8.911,8.911,0,0,0,4.345-1.875,3.261,3.261,0,0,1,1.594-.849,3.447,3.447,0,0,0,1.843-.957,8.138,8.138,0,0,0,2.378-3.484,14.71,14.71,0,0,0,1.3-5.43c-.033-2.065-.059-4.131,0-6.2.092-3.127-.238-6.256.22-9.384a36.75,36.75,0,0,0,.25-4.192c.223-7.38.009-14.764.239-22.151a192.155,192.155,0,0,0-.165-20.128c-.1-1.343.2-2.71.218-4.067.01-.933-.228-1.869-.234-2.8-.027-4.468-.067-8.937,0-13.4s-.059-8.947.172-13.431a77.687,77.687,0,0,0-.143-12.163,63.985,63.985,0,0,1-.037-7.077c0-.227.161-.452.178-.682a3.364,3.364,0,0,0,.013-1.588,3.386,3.386,0,0,1-.139-2.312,11.41,11.41,0,0,0,.195-2.564c.018-4.468.008-8.936.008-13.4,0-1.576,0-1.576-1.609-1.569-1.158.006-1.375.174-1.554,1.28a5.579,5.579,0,0,0-.007.884V94.581a3.941,3.941,0,0,1-.022,1,10.466,10.466,0,0,0,.023,4.982,5.051,5.051,0,0,1,.248,1.16c-.045,1.231-.178,2.458-.245,3.69-.138,2.535.027,5.066-.207,7.614-.328,3.57-.318,7.176-.308,10.766.022,7.637-.222,15.277.244,22.912.142,2.323-.077,4.645.215,6.983.308,2.467-.035,4.981.281,7.48.281,2.222.029,4.473.236,6.726.274,2.979-.009,6,.3,9a14.2,14.2,0,0,1-.232,2.044c-.11,2.324-.174,4.653-.285,6.976a1.463,1.463,0,0,1-.322.99,1.442,1.442,0,0,0-.461,1.352c.026,1.949.174,3.9.217,5.84.135,6.109.064,12.224.038,18.335-.006,1.272-.164,2.543-.252,3.815a1.032,1.032,0,0,1-.02.245c-.607,1.867-1.116,3.77-1.855,5.589a11.832,11.832,0,0,1-4.5,6.017,5.83,5.83,0,0,1-3.723,1.152c-.8-.088-1.6-.2-2.4-.248-2.295-.131-4.59-.042-6.9-.192-3.813-.247-7.657-.073-11.487-.052-.261,0-.711.168-.748.327-.2.852-.857.668-1.434.668l-53.763.01c-.659,0-1.221,0-1.448-.761-.042-.139-.463-.245-.71-.248-1.805-.02-3.611-.035-5.416-.006-4.323.07-8.646.163-12.968.25-.211,0-.42.051-.631.066a8.471,8.471,0,0,1-2.809.133,9.288,9.288,0,0,1-5.2-3.57,24.6,24.6,0,0,1-2.629-5.411A18.2,18.2,0,0,1,6.1,214.791c-.246-4.807.217-9.627-.262-14.439a35.915,35.915,0,0,1,.218-4.445c.044-1.685.01-3.371.01-5.058a2.288,2.288,0,0,1,.017-.878,3.078,3.078,0,0,0-.3-3.1c-.085-.134-.223-.266-.238-.41a44.567,44.567,0,0,1-.5-5.227,97.761,97.761,0,0,1,.195-10.776c.3-2.472-.07-4.98.257-7.484.322-2.47-.078-4.979.261-7.482.311-2.3.134-4.646.249-6.974.331-6.7-.213-13.419.293-20.128a26.954,26.954,0,0,0-.187-5.589c-.307-2.3-.047-4.64-.242-6.977-.278-3.319-.008-6.673-.313-10.007-.111-1.213-.017-2.443-.018-3.666a5.645,5.645,0,0,1,.437-2.738c.194-.377,0-.946-.044-1.426-.02-.237-.112-.47-.124-.707-.117-2.367-.07-4.734-.2-7.106-.3-5.35-.281-10.718-.317-16.079-.028-3.97-.015-7.938.208-11.911.2-3.658.022-7.332.048-11q.115-16.514.261-33.027c0-.4.059-.8.029-1.2a7.323,7.323,0,0,1,.885-4.929A30.049,30.049,0,0,1,9.04,9.282c.324-.375.794-.557.777-1.221-.011-.451.525-.842,1.128-.884A19.037,19.037,0,0,0,14.011,6.6a52.792,52.792,0,0,1,6.057-.9,64.139,64.139,0,0,1,6.622-.284c2.641-.042,5.284-.01,7.925-.01.528,0,1.058-.018,1.585,0a3.393,3.393,0,0,1,2.046.788c.632.5-.025.873.029,1.306.148,1.181.139,2.38.3,3.558a1.915,1.915,0,0,0,1.7,1.671c1.547.109,3.1.231,4.646.248,3.258.038,6.517.012,9.775.011a6.766,6.766,0,0,0,.917-.022,20.141,20.141,0,0,1,3.223-.456c6.136.167,12.3-.541,18.408.479,4.808-.019,9.619.1,14.421-.261a5.261,5.261,0,0,0,1.2-.276.616.616,0,0,0,.365-.349,16.2,16.2,0,0,0,.524-2.318,21.734,21.734,0,0,0,.02-2.4c0-1.306.151-1.539,1.4-1.919a3.446,3.446,0,0,1,1.03-.061c4.983.079,9.973-.215,14.95.247,1.15.107,2.315.1,3.455.271,1.931.283,3.873.573,5.762,1.038.785.193,2.086.1,1.964,1.547-.017.2.378.425.581.641a27.929,27.929,0,0,1,2.313,2.5,6.105,6.105,0,0,1,1.25,4.528,5.685,5.685,0,0,0-.162,2.292,8.383,8.383,0,0,1,.2,2.564c-.04,1.779-.247,3.556-.232,5.333.029,3.759.155,7.518.249,11.277.022.9.274,1.134,1.151,1.141.439,0,.885-.035,1.32.009.571.059.738-.146.706-.682-.154-2.575.1-5.15-.222-7.741a76.232,76.232,0,0,1-.307-7.856c-.042-2.107,0-4.215-.016-6.323,0-.317.022-.765-.171-.925-.508-.419-.295-.921-.351-1.648m13.87,33.259a23.356,23.356,0,0,0-4.411-3.232,19.252,19.252,0,0,0-8.4-2.566,7.757,7.757,0,0,0-2.8.2c-1.308.369-2.707.439-4.016.806a20.547,20.547,0,0,0-9.823,5.672c-.993,1.069-2,2.136-2.886,3.283a14.8,14.8,0,0,0-3.2,7.451,13.252,13.252,0,0,1-.377,2.253,2.864,2.864,0,0,0,.155,2.222,4.611,4.611,0,0,1,.48.945,22.09,22.09,0,0,0,3.147,7.486,16.234,16.234,0,0,0,3.782,4.155,21.257,21.257,0,0,0,6.066,3.342,23.37,23.37,0,0,0,6.807,1.361,13.915,13.915,0,0,0,4.937-.491c1.26-.453,2.6-.7,3.837-1.206a18.655,18.655,0,0,0,11.868-14.836c.127-.822.366-1.628.514-2.448a4.83,4.83,0,0,0,.23-2.032,61.589,61.589,0,0,0-1.779-6.116,18.33,18.33,0,0,0-4.124-6.256M6.727,167.275c-.044.823-.079,1.647-.134,2.469-.1,1.519.182,3.043-.221,4.569a2.593,2.593,0,0,0,.16,1.931c.16.295-.047.775-.092,1.17a4.663,4.663,0,0,0-.092.838c.01.14.193.271.3.4.072-.124.2-.247.2-.372a52.233,52.233,0,0,1,.232-5.32,34.707,34.707,0,0,0,.029-4.785,2.123,2.123,0,0,0-.384-.9m118.492,2.909c0,.924-.015,1.848,0,2.771a13.929,13.929,0,0,0,.263,4.05,2.233,2.233,0,0,0,.176.341,2.233,2.233,0,0,0,.081-.344,4.469,4.469,0,0,0,0-.5q-.131-4.419-.263-8.837a.512.512,0,0,0,0-.125c-.022-.075-.055-.146-.084-.219-.059.073-.169.146-.17.22-.012.8-.008,1.595-.008,2.644m-.263-5.311.079.582c.121-.081.29-.138.353-.249.234-.413-.176-.63-.347-.919a2.939,2.939,0,0,0-.085.587M7.122,164.619l-.088-.338c-.059.033-.165.061-.168.1a2.794,2.794,0,0,0,0,.621,2.3,2.3,0,0,0,.171.461c.029-.2.057-.392.085-.841M125.483,178.53a.467.467,0,0,0,.093.085.122.122,0,0,0,.086-.006,5.958,5.958,0,0,0,.076-.711c0-.068-.111-.137-.171-.2-.029.113-.063.225-.081.339C125.474,178.111,125.483,178.194,125.483,178.53Z" transform="translate(0 -0.008)"></path><path class="e" d="M316.826,1581.76c-.176-.856-.425-1.578-.509-2.318-.088-.79.014-1.6-.029-2.4a25.62,25.62,0,0,1-.229-2.8,24.744,24.744,0,0,1,.489-4.594,4.559,4.559,0,0,0,.012-1.134,7.784,7.784,0,0,1,.5-3.336,1.818,1.818,0,0,0-.079-1.088c-.263-.97-.1-1.183.884-1.313a58.351,58.351,0,0,1,7.279-.243c1.319-.006,2.642-.063,3.957.014,1.91.111,3.821.267,5.714.521a4.976,4.976,0,0,1,2,.819,2.326,2.326,0,0,1,1.156,2.057c-.044,4.126.008,8.252-.043,12.378a8.378,8.378,0,0,1-.516,2.312,1.97,1.97,0,0,1-2.157,1.622q-4.287.013-8.574-.006c-.322,0-.644-.184-.966-.186a17.129,17.129,0,0,0-2.3.085c-1.279.164-2.546.407-3.819.615-.822-.6-2.14.232-2.783-1.011m1.849-4.679a3.82,3.82,0,0,1,.244,1.157c-.117,1.1.487,1.411,1.478,1.521.644.073,1.258.41,1.9.464,1.674.139,3.356.2,5.036.266.79.032,1.584.005,2.375.005,1.716,0,3.431-.01,5.147.008.417,0,.814-.027.98-.421a3.1,3.1,0,0,0,.266-1.153q.028-6.379-.006-12.76a1.5,1.5,0,0,0-.394-.845,2.882,2.882,0,0,0-2.3-.745c-1.58-.059-3.167-.018-4.75-.018a9.88,9.88,0,0,1-2.885-.053,7.363,7.363,0,0,0-3.617.113,3.566,3.566,0,0,0-2.9,1.776,6.562,6.562,0,0,0-.821,2.83,54.14,54.14,0,0,0,.254,7.857Z" transform="translate(-274.303 -1364.92)"></path><path class="g" d="M729.845,1578.259c-.792,0-1.454-.029-2.112.006a25.969,25.969,0,0,0-3.6.191,11.435,11.435,0,0,1-3.178-.2,23.77,23.77,0,0,1-3.207-.182,21.494,21.494,0,0,1-2.641-.634,2.227,2.227,0,0,1-1.359-1.965,32.723,32.723,0,0,1-.243-7.6c.146-2.232.09-4.522,1.006-6.662a1.35,1.35,0,0,0,.083-.7c-.141-.911-.1-1.065.761-1.377a13.021,13.021,0,0,1,4.118-.84,63.456,63.456,0,0,1,6.727.028c1.9.157,3.8.144,5.7.234a8.707,8.707,0,0,1,2.8.525,2.4,2.4,0,0,1,1.2,1.881,15.305,15.305,0,0,1,.273,2.546c.044,1.178.039,2.36,0,3.537a22.461,22.461,0,0,1-.727,4.757,15.158,15.158,0,0,1-.592,2.425c-.418.971-.9,1.919-1.3,2.9a1.785,1.785,0,0,1-1.865,1.141c-.572-.005-1.144,0-1.848,0m-9.907-1.771a5.094,5.094,0,0,0,1.079.243c3.214.019,6.427.011,9.641.01,1.109,0,1.526-.249,1.814-1.3a12.225,12.225,0,0,0,.519-2.821c.057-1.926.354-3.824.513-5.735a15.365,15.365,0,0,0-.5-6.233.559.559,0,0,0-.365-.336,22.58,22.58,0,0,0-4.635-.209c-2.005.283-3.987.095-5.975.187a27.918,27.918,0,0,0-4.519.234,1.308,1.308,0,0,0-1.152.939,14.062,14.062,0,0,0-.761,4.241c-.069,2.611-.037,5.226-.008,7.838a8.4,8.4,0,0,0,.277,1.914.959.959,0,0,0,.6.508,8.665,8.665,0,0,0,3.473.516Z" transform="translate(-619.158 -1361.169)"></path><path class="f" d="M517.844,1570.108c0-2.062-.029-4,.012-5.935a21.772,21.772,0,0,1,.292-3.3,1.369,1.369,0,0,1,.894-.844c.568-.131,1.164,0,1.645-.522a1.741,1.741,0,0,1,1.053-.266c1.721-.105,3.444-.2,5.167-.258q4.231-.15,8.465-.253a2.961,2.961,0,0,1,2.817,1.649,8.144,8.144,0,0,1,1.083,4.506c-.1,1.974-.044,3.956-.019,5.935a25.448,25.448,0,0,1-.527,5.727,9.925,9.925,0,0,1-.2,1.436,2.509,2.509,0,0,1-2.62,1.47c-3.869.029-7.739.008-11.609.013a20.82,20.82,0,0,1-4.269-.495,2.353,2.353,0,0,1-1.885-2.155,26.386,26.386,0,0,1-.284-3.554c-.043-1.009-.009-2.021-.009-3.158m15.72-8.6c-.711-.083-1.42-.221-2.133-.243-3.3-.1-6.608-.178-9.911-.263-.465-.011-.974.119-1.3-.364-.006-.01-.244.07-.251.123a15.6,15.6,0,0,0-.261,2.291c.059,4.258.162,8.515.25,12.771a2.09,2.09,0,0,0,0,.253,1.6,1.6,0,0,0,1.487,1.361c1.5.1,3,.22,4.506.248,2.241.042,4.483.01,6.725.011.3,0,.69-.1.9.044a2.723,2.723,0,0,0,1.892.182c1.276-.1,1.663-.587,1.665-1.8a4.7,4.7,0,0,1,.026-1.507,13.427,13.427,0,0,0,.444-3.716,41.373,41.373,0,0,0-.19-7.846,1.079,1.079,0,0,0-.9-1.027c-.891-.2-1.791-.344-2.95-.514Z" transform="translate(-449.428 -1361.616)"></path><path class="d" d="M136.066,1578.322a7.285,7.285,0,0,1-.228,2.056,2.7,2.7,0,0,1-2.358,1.99c-.044,0-.088,0-.132,0-2.78.083-5.573.029-8.333.293-2.566.244-5.121.172-7.682.2a2.741,2.741,0,0,1-2.654-2.447,25.108,25.108,0,0,0-.779-5.63,19.946,19.946,0,0,1-.28-3.3,19.057,19.057,0,0,1,.018-3.155,15.672,15.672,0,0,1,.788-3.345,3.573,3.573,0,0,1,3.709-2.346c3.652-.006,7.3-.028,10.955.009,1.724.018,3.447.151,5.17.245.593.033,1.245.673.981,1.015-.564.734.193,1.3.1,1.943-.019.129.178.276.19.421.1,1.227.135,2.462.282,3.684a74.391,74.391,0,0,1,.254,8.362m-19.551.126c0,.421,0,.842,0,1.263.009,1.12.281,1.424,1.436,1.385,2.908-.1,5.815.176,8.731-.2,2.133-.278,4.326.135,6.482-.273.77-.146,1.06-.276,1.042-1.124-.063-3.036-.166-6.073-.254-9.11a.914.914,0,0,0,0-.126,15.1,15.1,0,0,1-.269-5.241c.059-.333.085-.614-.494-.621-3.173-.029-6.344.1-9.521-.2a24.57,24.57,0,0,0-6.086.2,1.586,1.586,0,0,0-1.3,1.037,10.77,10.77,0,0,0-.8,3.843,25.564,25.564,0,0,0,.191,3.437c.241,1.838.588,3.655.849,5.739Z" transform="translate(-98.561 -1365.022)"></path><path class="i" d="M473.41,136.6c.962.234,1.129.647.547,1.237-.692.7-1.417,1.375-2.14,2.05a.991.991,0,0,1-.519.3c-1.422.088-2.8.059-3.876-1.083a14.318,14.318,0,0,0-1.555-1.258.767.767,0,0,1-.154-1.192.843.843,0,0,1,1.24-.041,18.47,18.47,0,0,1,1.47,1.162c1.28,1.187,2.125,1.2,3.453.045C472.343,137.42,472.853,137.053,473.41,136.6Z" transform="translate(-404.004 -119.128)"></path><path class="c" d="M491.7,1499.648c-.336.417-.565.8-1.194.545-.482-.192-.771-.416-.63-.856a1.748,1.748,0,0,1,.692-.927c.4-.239.721.153.941.445A1.956,1.956,0,0,1,491.7,1499.648Z" transform="translate(-425.13 -1308.86)"></path><path class="c" d="M465.928,1500.84c.11.335.287.692.169.858-.212.3-.647.714-.9.667a1.287,1.287,0,0,1-.858-.819c-.05-.247.382-.663.7-.866C465.206,1500.565,465.579,1500.735,465.928,1500.84Z" transform="translate(-402.994 -1310.873)"></path><path class="c" d="M517.568,1499.856a.9.9,0,0,1-.211.569c-.5.487-1.071.535-1.414.152a.948.948,0,0,1,.311-1.359C516.636,1498.917,517.037,1499.1,517.568,1499.856Z" transform="translate(-447.633 -1309.51)"></path><path d="M359.164,42.623c.968,0,1.806-.032,2.639.01.714.036,1.424.157,2.134.246a.631.631,0,0,1,.22.1,3.143,3.143,0,0,1,.819,2.96,2.148,2.148,0,0,1-1.889.984c-6.871.085-13.741.189-20.612.239-1.678.012-3.359-.138-5.037-.245a1.5,1.5,0,0,1-1.522-1.58c0-.21,0-.421,0-.632,0-1.308.189-1.383,1.511-1.592,4.574-.726,9.18-.439,13.775-.473a32.058,32.058,0,0,0,4.1.177c1.255-.177,2.487-.113,3.86-.192m-17.835,3.033,18.757-.251c.79-.01,1.583,0,2.375,0,.22,0,.485.074.648-.018a1.311,1.311,0,0,0,.53-.583c.131-.3-.1-.41-.406-.444a10.694,10.694,0,0,0-1.09-.21c-3.034-.018-6.069-.01-9.1-.01a2.2,2.2,0,0,0-.656.009c-1.648.549-3.383.263-5.069.425-2.742.266-5.533.076-8.3.066a2.838,2.838,0,0,1-.989-.146c-.293-.112-.523-.2-.506.189.011.255-.3.7.36.732C338.942,45.466,340,45.574,341.331,45.658Z" transform="translate(-291.541 -37.223)"></path><path d="M619.152,44.709a2.158,2.158,0,0,1-1.873,2.005,4.3,4.3,0,0,1-1.787-.1,2.071,2.071,0,0,1-.78-3.336c1.246-1.4,2.971-1.1,4.168.66a2.483,2.483,0,0,1,.27.773m-3.435.38c.473.6,1.026.485,1.558.114a.925.925,0,0,0,.275-.525,3.224,3.224,0,0,0-1.216-.692c-.533-.077-.659.393-.616,1.1Z" transform="translate(-533.035 -37.033)"></path><path d="M876.917,336.049a3.235,3.235,0,0,1,1.738-2.849,4.737,4.737,0,0,1,3.267-.662,4.239,4.239,0,0,1,2.008.8,6.256,6.256,0,0,1,2.236,2.506,2.37,2.37,0,0,0,1.118,1.2,5.669,5.669,0,0,1,1.572,1.488,10.107,10.107,0,0,1,1.555,4.565c.218,1.486.341,2.985.572,4.46.168,1.075.073,2.136.211,3.189a35.538,35.538,0,0,0,1.271,7.453,5.636,5.636,0,0,0,.675,1.637,1.109,1.109,0,0,1-.956,1.756q-2.308.043-4.619,0a9.245,9.245,0,0,1-1.343-.24c-.432-.074-.6.045-.6.525a6.263,6.263,0,0,1-.257,1.787c-.478,1.586-1.441,2.165-3.144,2.265a10.491,10.491,0,0,1-3.331-.577c-.289-.075-.51-.429-.734-.679-.386-.431-.752-.878-1.123-1.323-.259-.31-.592-.512-.677-1-.105-.611-.615-.626-1.346-.579-1.522.1-3.053.067-4.581.057a7.142,7.142,0,0,1-.957-.215c-.806-.123-1.127-.644-.781-1.35a40.737,40.737,0,0,0,2.392-7.262c.268-.973.106-2.048.317-3.043.332-1.565.059-3.152.277-4.7.28-1.983.439-4.011,1.53-5.832.7-1.162,1.371-2.2,2.931-2.39.3-.036.527-.553.788-.974m10.171,23.522c1.144,0,2.289-.008,3.433,0,.355,0,.49-.107.344-.435a18.212,18.212,0,0,1-.787-2.855,46.961,46.961,0,0,1-.72-5.262c-.214-1.424-.047-2.871-.219-4.323-.213-1.806-.676-3.563-.9-5.362a5.948,5.948,0,0,0-.94-2.267c-.457-.742-.907-.687-1.4.067a6.256,6.256,0,0,1-2.619,2.338,3.882,3.882,0,0,1-3.493,0,6.071,6.071,0,0,1-2.616-2.216.88.88,0,0,0-1.4-.21,5.916,5.916,0,0,0-.71.851,7.556,7.556,0,0,0-1.273,3.528,42.364,42.364,0,0,0-.549,6.1,21.334,21.334,0,0,1-.555,4.467,22.89,22.89,0,0,1-1.671,5.279c-.374.72-.308.828.573.787a65.5,65.5,0,0,0,6.9-.2,53.486,53.486,0,0,1,6.089-.293c.747-.026,1.5,0,2.508,0m-3.3-20.618a2.906,2.906,0,0,0,.765-2.718,1.408,1.408,0,0,0-.594-.881,10.1,10.1,0,0,0-1.814-.985,1.965,1.965,0,0,0-1.239-.2,3.461,3.461,0,0,0-1.876,1.185,2.918,2.918,0,0,0,.69,3.973,3.311,3.311,0,0,0,1.36.5c.975.182,1.757-.362,2.706-.872m-3.434,24.533c1.314.326,2.426.172,3.067-1.156.069-.143.263-.227.36-.364a3.665,3.665,0,0,0,.258-.517c-.2-.038-.439-.159-.605-.1-1.352.47-2.747.146-4.116.237a3.964,3.964,0,0,0-.914.029c-.153.05-.618.19-.2.6a6.644,6.644,0,0,0,2.149,1.273Z" transform="translate(-753.813 -290.435)"></path><ellipse class="c" cx="6.579" cy="5.757" rx="6.579" ry="5.757" transform="translate(46.384 202.438)"></ellipse><path d="M347.721,1597.875c-1.163-1.454-2.094-2.916-1.91-4.759.195-1.947.613-3.828,2.341-5.127a6.154,6.154,0,0,1,3.731-1.432c1.055,0,2.115-.061,3.165.015a5.021,5.021,0,0,1,3.286,1.232c.15.146.432.374.394.455-.5,1.093.54,1.7.881,2.491a6.992,6.992,0,0,1,.759,4.687,10.328,10.328,0,0,1-.4,1.741c-.792,1.8-2.39,2.328-4.167,2.816a9.822,9.822,0,0,1-5.337-.345,10.567,10.567,0,0,1-2.747-1.776m4.425-9.422a9.676,9.676,0,0,0-.9.361,5.6,5.6,0,0,0-3.331,5.32,4.226,4.226,0,0,0,3.139,4.064,9.09,9.09,0,0,0,4.052.55,6.607,6.607,0,0,0,2.505-.929,2.417,2.417,0,0,0,1.18-1.4,6.306,6.306,0,0,0-.187-4.037,4.6,4.6,0,0,0-2.437-3.2c-1.281-.576-2.449-1.156-4.025-.737Z" transform="translate(-300.11 -1385.904)"></path><path d="M749.969,1587.036c.052-.33.211-.585.136-.727-.284-.528-.011-.849.231-1.323.628-1.225,1.9-1.319,2.963-1.714a26.475,26.475,0,0,1,4.469-1.247c.686-.127,1.587-.388,2.2.315.172.2.363.65.276.736-.416.41-.238.881-.224,1.31a30.3,30.3,0,0,1-.745,5.891,3.742,3.742,0,0,1-1.112,2.484c-.2.176-.329.535-.535.569a2.66,2.66,0,0,1-1.269-.08c-.5-.176-.809-1.192-.65-1.721a2.041,2.041,0,0,1,1.858-1.721.439.439,0,0,0,.317-.257c.114-.593.186-1.192.277-1.789.085-.556.19-1.109.256-1.668.026-.22.045-.331-.325-.167a26.11,26.11,0,0,1-5.242,1.617c-1.131.24-1.522.735-1.556,1.931-.018.589-.021,1.181,0,1.77a6.463,6.463,0,0,1-1.074,3.493,1.426,1.426,0,0,1-2.253.117,1.863,1.863,0,0,1,1.092-3.006c.458-.095.665-.307.65-.747a7.879,7.879,0,0,1,0-.884C749.788,1589.2,749.882,1588.183,749.969,1587.036Z" transform="translate(-648.793 -1381.831)"></path><path class="c" d="M695.645,1217.622l1.385-2.216s-4.433-3.6-1.385-6.789,8.588-1.108,8.588-1.108,5.956,4.571,3.6,7.9-8.45,1.385-8.45,1.385Z" transform="translate(-622.224 -1004.847)"></path><path d="M543.023,1597.93c-.62-.54-.274-1.024-.061-1.492.219-.483.7-.97.654-1.42a3.149,3.149,0,0,0-.878-1.4c-2.361-2.865-.8-6.76,2.21-8.075a9.359,9.359,0,0,1,3.672-.975,4.674,4.674,0,0,1,2.5.639,15.184,15.184,0,0,1,3.652,2.868,8.08,8.08,0,0,1,1.887,6.449,2.312,2.312,0,0,1-1.381,1.969,9.476,9.476,0,0,1-7.044.591,2.416,2.416,0,0,0-2.21.295,3.354,3.354,0,0,1-2.38.857,2.1,2.1,0,0,1-.617-.31m1.123-9.295a4.361,4.361,0,0,0-.366.612c-.2.508-.654,1.133-.5,1.524.435,1.086.8,2.288,2,2.931a.633.633,0,0,1,.305.4,2.023,2.023,0,0,1-.649,1.888c-.085.077-.047.278-.066.421a1.32,1.32,0,0,0,.445-.059,3.118,3.118,0,0,0,.495-.383,2.689,2.689,0,0,1,2.639-.4,8.221,8.221,0,0,0,5.42-.073,1.6,1.6,0,0,0,1.207-1.373,6.467,6.467,0,0,0-1.808-5.319,4.706,4.706,0,0,0-1.639-1.066c-1.441-.562-2.854-1.17-4.538-.657a17.671,17.671,0,0,0-2.946,1.557Z" transform="translate(-470.049 -1384.189)"></path><path class="c" d="M513.914,1208.18l-1.246,2.216,7.064,6.926,4.848,2.078,3.463-1.108-4.432-3.464h-1.524l-4.71-4.432v-1.108Z" transform="translate(-493.546 -1005.793)"></path><path d="M147.829,1601.838c-1.948-1.486-3.8-2.938-5.568-4.472a19.813,19.813,0,0,1-2.327-2.48,1.945,1.945,0,0,1-.015-2.161,22.454,22.454,0,0,1,1.218-2.016,24.156,24.156,0,0,1,2.3.776,6.428,6.428,0,0,1,1.642,1.054,3.591,3.591,0,0,1,.635,1.124,4.948,4.948,0,0,0,.611,1.262c1.008,1.053,2.083,2.048,3.16,3.039.192.176.653.385.751.306.787-.629,1.443.015,1.9.319a35.09,35.09,0,0,1,3.534,2.809c.58.5.536.995-.066,1.454-1.127.86-3.735,1.463-5.079.669-.882-.521-1.713-1.12-2.7-1.686m-1.057-4.426c-.652-.624-1.317-1.237-1.948-1.879-.191-.193-.43-.484-.405-.705.11-.985-.593-1.428-1.288-1.83-1.467-.849-1.156-.788-1.7.669-.185.494.1.774.42,1.053,1.233,1.1,2.456,2.218,3.713,3.3q1.91,1.638,3.884,3.206a12.03,12.03,0,0,0,1.756,1.114c.83.448,1.693-.059,2.543,0,.137.009.283-.1.424-.162-.073-.139-.109-.324-.225-.41a24.074,24.074,0,0,1-2.085-1.541,1.354,1.354,0,0,0-1.518-.343c-.419.2-.564.153-.851-.1-.85-.76-1.724-1.491-2.72-2.363Z" transform="translate(-121.156 -1389.552)"></path><path class="j" d="M619.38,1221.579c0-.243,1.795-3.88,2.085-3.88s3.783-1.019,3.783-1.019l-.873,3.928Z" transform="translate(-569.032 -1011.806)"></path><path d="M377.868,1620.887a6.382,6.382,0,0,1-1.249.059c-.706-.035-.966-.337-.727-.936.46-1.16.936-2.317,1.492-3.435a2.435,2.435,0,0,1,1.038-1.157,8.308,8.308,0,0,1,4.282-1.058c.362.044.509.073.529.474a7.4,7.4,0,0,1-.887,4.062,2.006,2.006,0,0,1-1.373,1.053c-1.022.255-2.026.579-3.1.937m.594-3.352c-.176.348-.368.689-.523,1.046a6.911,6.911,0,0,0-.237.756c.255-.052.513-.1.765-.159a10.459,10.459,0,0,1,1.288-.339c.995-.122,1.333-.819,1.607-1.58a4.3,4.3,0,0,0,.249-1.024c.01-.1-.3-.348-.339-.326-.9.524-2.136.436-2.81,1.63Z" transform="translate(-326.163 -1410.182)"></path><g transform="translate(18.342 32.324)"><path class="k" d="M5.974,5.389H1V1H5.974Z" transform="translate(-0.707 -0.707)"></path><path class="k" d="M.585.585v3.8H4.974V.585H.585M0,0H5.56V4.974H0Z"></path></g><path d="M598.96,538.374l.811,2.557h27.384v-2.557Z" transform="translate(-554.587 -531.983)"></path><path class="l" d="M567.3,605.985s1.581-3.573,10.945-4.041,66.793-.966,66.793-.966l19.585.966s10.323,2.542,11.025,4.883a27.447,27.447,0,0,1,.735,7.721,28.457,28.457,0,0,1-.735,4.792,20.046,20.046,0,0,0-11.025,8.678c-1.9,3.036-4.149,5.569-4.378,11.979v5.523l-24.919.876h-62.8s-6.066-1.235-6.23-6.4-.328-22.321,0-22.731S567.3,605.985,567.3,605.985Z" transform="translate(-555.479 -578.649)"></path><text class="m" transform="translate(30.544 36.143)"><tspan x="0" y="0">HAPPY PIE</tspan></text><text class="n" transform="translate(104.544 37.143)"><tspan x="0" y="0">new</tspan></text><text class="m" transform="translate(21.544 48.143)"><tspan x="0" y="0">Amit, what's coookin' good lookin?</tspan><tspan x="0" y="6">Order again your favorite apple pie </tspan><tspan x="0" y="12">from</tspan></text><rect class="c" width="6" height="6" rx="1" transform="translate(20.543 31.143)"></rect><circle class="l" cx="1" cy="1" r="1" transform="translate(22.543 33.143)"></circle></g></g></g><rect class="c" width="10" height="80" transform="translate(0.105 121.143)"></rect></g><g class="o" transform="translate(258.456 1490.397)"><g transform="translate(8.219 -80.231)"><g transform="translate(0 0)"><g transform="translate(0 0)"><path d="M7400.666,2276.363s-5.827-8.471,3.33-13.842,57.641-23.552,57.641-23.552l43.284-14.875,4.162,3.925,17.272,29.131,6.451,15.7s-7.283,1.86-8.116,1.86h-79.907l-25.387,1.653s4.37-13.636-7.284-10.123c-4.417,1.331-4.05,3.154-4.162,4.958a9.708,9.708,0,0,0,1.457,5.166Z" transform="translate(-7307.842 -1967.776)"></path><g transform="translate(0 0)"><path class="p" d="M7207.62,1577.168s-1.665-8.884,14.149-9.917c0,0-10.4-25.825,28.508-23.759,0,0,11.238,4.34,12.278,9.3,0,0,23.307-9.71,28.716,7.233v3.925s17.063,2.272,16.856,9.71c0,0,0,12.4-16.856,11.983s-54.521-1.24-54.521-1.24-2.079-17.148-22.682-4.751Z" transform="translate(-7188.348 -1540.671)"></path><path class="p" d="M7162.429,1648.573l44.82,1.272s15.367-1.112,4.162-8.423l-4.162-1.271s1.763-24.156-23.53-8.105c0,0-10.406-7.469-15.208,6.993,0,0-9.924-4.291-7.685,7.787Z" transform="translate(-7158.94 -1592.852)"></path><path class="q" d="M7420.054,1809.01s-10.229,7.617-4.073,19.748,21.6.47,21.6.47,6.536-10.72-1.04-16.364-9.472-5.454-9.472-5.454Z" transform="translate(-7317.321 -1706.335)"></path><path class="c" d="M7431.079,1834.134s7.266,5.257,13.3,0v-1.956s-3.447-3.79-2.339-7.091-2.34-4.768-2.34-4.768.738-4.4-4.063-2.445v2.445l-2.215,1.467-1.356,5.624-.985,4.768Z" transform="translate(-7327.984 -1712.588)"></path><path class="r" d="M7455.161,1876.588l4.909-1.834V1886l-4.909,1.467Z" transform="translate(-7343.029 -1748.589)"></path><path class="s" d="M7353.726,1844.87s-.481-6.377,3.2-6.377,19.208,1.113,19.208,1.113v5.265Z" transform="translate(-7279.646 -1725.838)"></path><path class="t" d="M7327.344,1855.606a30.709,30.709,0,0,0,0,24.379h5.2s3.954,8.884,3.954,13.429l4.786-10.33,26.843-1.24s5.619.62,5.619-7.233v-10.33s-14.566-1.033-15.815-8.679Z" transform="translate(-7261.616 -1736.574)"></path><path d="M91.864,284.813c.149-.588.306-1.028.445-1.472a8.2,8.2,0,0,1,3.915-4.521c.877-.53.849-.523.2-1.216a52.082,52.082,0,0,1-4.6-5.519,44.669,44.669,0,0,0-2.988-3.474,13.153,13.153,0,0,1-2.577-3.628,2.582,2.582,0,0,0-.666-.93c-.9-.8-1.816-1.585-2.765-2.333-2.305-1.815-4.636-3.6-6.945-5.408-.83-.65-1.6-1.367-2.441-2-1.893-1.43-3.828-2.809-5.714-4.249-1.391-1.06-2.721-2.193-4.1-3.27-1.052-.824-2.1-1.665-3.222-2.386A3.79,3.79,0,0,0,58,243.769a23.3,23.3,0,0,1-2.838.01c-2.008-.08-4.037-.051-6.018-.322a67.812,67.812,0,0,1-13.685-2.967,21.614,21.614,0,0,1-4.64-2.381,7.186,7.186,0,0,1-.982-.639,4.176,4.176,0,0,1-1.8-3.06c-.116-2.809-.382-5.626-.633-8.43-.117-1.311-.161-2.619-.226-3.926-.13-2.6-.2-5.207-.334-7.809a9.448,9.448,0,0,0-.323-1.819c-.038-.153-.288-.3-.474-.368A43.243,43.243,0,0,1,15,206.305a31.974,31.974,0,0,1-4.643-4.141,9.944,9.944,0,0,1-2.527-9.132c.556-2.532,1.994-4.454,3.458-6.433a1.015,1.015,0,0,0,.018-1.485,50.042,50.042,0,0,1-3.958-6.523,19.175,19.175,0,0,1-2-8.516A13.58,13.58,0,0,1,7,163.525a10.49,10.49,0,0,1,3.5-4.2c.155-.094.155-.708-.006-.925-.529-.708-1.164-1.346-1.76-2.009A20.036,20.036,0,0,1,3.769,147.1a25.625,25.625,0,0,1-.5-3.957,20.731,20.731,0,0,1,.633-4.96,22.146,22.146,0,0,1,2.165-6.029,16.035,16.035,0,0,1,2.527-3.49,19.55,19.55,0,0,1,6.891-4.79,63.012,63.012,0,0,1,8.7-2.845c.625-.155,1.281-.2,1.916-.316a1.6,1.6,0,0,0,.448-.254c-.123-.112-.226-.275-.373-.327-.5-.177-1.024-.3-1.531-.471a20.411,20.411,0,0,1-6.4-3.4,46.454,46.454,0,0,1-3.981-3.505,14.825,14.825,0,0,1-1.913-2.68,20.618,20.618,0,0,1-2.9-7.406,16.907,16.907,0,0,1,1.447-10.591c1.072-2.2,3.289-3.373,5.755-4a10.071,10.071,0,0,1,2.577-.556c.975.023,1.4-.558,1.916-1.071,1.288-1.278,2.5-2.63,3.818-3.876a2.622,2.622,0,0,0,.984-2.18c-.085-2.393-.062-4.792-.021-7.185.081-4.7.21-9.4.3-14.1.026-1.275,0-1.252-1.263-1.284-3.428-.087-6.855-.2-10.282-.292-.788-.021-1.579.024-2.367-.008-2.113-.085-4.227-.178-6.338-.3a18.88,18.88,0,0,1-2.548-.31,3.025,3.025,0,0,1-1.311-.583A5.277,5.277,0,0,1,0,52.075a8.308,8.308,0,0,1,2.893-6.351,5.657,5.657,0,0,1,4.315-1.649,5.556,5.556,0,0,1,1.443.3c.777.281.966.226,1.171-.4.289-.882.608-1.756.943-2.622a7.742,7.742,0,0,1,3.583-3.777,7.143,7.143,0,0,1,2.687-.674c.723-.085.981-.321.995-1,.061-2.973,1.561-5.151,4.016-6.946a18.434,18.434,0,0,1,6.347-2.834,19.043,19.043,0,0,1,3.174-.325c.859-.074,1.167-.392.894-1.11A23.468,23.468,0,0,1,31.3,14.829a12.752,12.752,0,0,1,1.942-5.659,17.068,17.068,0,0,1,3.631-4.423,20.19,20.19,0,0,1,5.551-3.2C46.317-.034,50.436-.157,54.548.1a27.427,27.427,0,0,1,4.676.787c1.04.252,2.132.389,3.2.618A21.86,21.86,0,0,1,69.19,4.459,24.849,24.849,0,0,1,74.384,8.8a11.414,11.414,0,0,1,1.352,2.155c.116.2-.035.687.458.226a13.622,13.622,0,0,1,8.161-3.345,17.2,17.2,0,0,1,3.179-.271,25.034,25.034,0,0,1,6.927,1.456,16.741,16.741,0,0,1,4.927,2.81,12.894,12.894,0,0,1,3.516,5.651,19.84,19.84,0,0,1,1.221,3.7c.171,1.057.855,1.257,1.638,1.3a20.8,20.8,0,0,1,6.555,1.633c1.345.535,2.6,1.266,3.916,1.874a2.3,2.3,0,0,0,.9.1c1,.012,2-.015,3,.008,3.9.09,7.813.062,11.7.358,1.7.129,3.417.013,5.073.285,1.6.263,3.222.006,4.755.313a12.144,12.144,0,0,1,3.535,1.619,11.242,11.242,0,0,1,1.694,1.558c.5.456.854,1.106,1.836.694.588-.246.947.392,1.216.875a54.159,54.159,0,0,1,4.342,9.37,19.7,19.7,0,0,1,.695,3.319,49.029,49.029,0,0,1,.659,9.033A12.46,12.46,0,0,1,155,58.075a1.154,1.154,0,0,0,0,.884,5.881,5.881,0,0,1,.287,2.879c.017,8.833.164,17.669-.056,26.5q-.162,6.525-.264,13.052c-.016,1.008-.218,2.012-.287,3.021a2.162,2.162,0,0,0,.24.743,4.079,4.079,0,0,0,.371-.633c.945-2.547,2.145-4.977,5.12-5.8a8.655,8.655,0,0,1,4.273-.245,36.26,36.26,0,0,1,7.8,2.777c1.018.478,1.171,1.014.371,1.711-.5.437-.3.83-.178,1.183a44.924,44.924,0,0,1,1.609,7.163c.49,2.965.079,5.916.265,8.866-.825,2.127.142,4.078.612,6.1.5,2.163.831,4.361,1.289,6.534.379,1.789.82,3.566,1.258,5.343q.606,2.453,1.262,4.894c.547,2.029,1.1,4.057,1.687,6.075.783,2.683,1.561,5.369,2.425,8.03s1.568,5.379,2.288,8.088c.639,2.4,1.266,4.8,1.862,7.208.817,3.316.617,6.637.5,9.943a26.374,26.374,0,0,1-1.281,6.212c-1.142,3.981-2.474,7.914-3.632,11.889-.383,1.318-.445,2.717-.705,4.069s-.6,2.659-.874,3.994c-.161.793-.279,1.6-.376,2.4-.226,1.861-.366,3.734-.65,5.587-.488,3.2-.485,6.419-.686,9.632-.118,1.857-.136,3.715-.264,5.568a38.3,38.3,0,0,1-.656,5.881c-.664,2.9-.995,5.908-2.389,8.634a1.334,1.334,0,0,0-.07.4,1.736,1.736,0,0,0,.537.036,11.5,11.5,0,0,1,7.252.081,6.171,6.171,0,0,1,2.607,2.117,17.769,17.769,0,0,1,3.153,6.4c.126.448.148,1.085.461,1.274s.915-.1,1.388-.2c.914-.192,1.841-.346,2.733-.606,2.176-.638,3.837.168,5.4,1.527a31.049,31.049,0,0,1,5.33,6.9c5.11,7.856,9.181,16.232,13.5,24.485,1.338,2.56,2.515,5.2,3.682,7.833.961,2.17,1.8,4.385,2.7,6.576.017.045.106.073.1.106-.038.665-.084,1.329-.128,1.993a7.061,7.061,0,0,1-1.289-1.28,48.557,48.557,0,0,1-2.3-4.333c-1.223-2.662-2.288-5.39-3.541-8.039-1.216-2.569-2.588-5.071-3.888-7.606-1.425-2.783-2.777-5.6-4.282-8.345-1.467-2.675-3.164-5.239-4.621-7.919a48.351,48.351,0,0,0-4.83-7.228,13.32,13.32,0,0,0-2.486-2.583,2.728,2.728,0,0,0-2.17-.145c-5.188,2.017-10.551,3.544-15.838,5.284-4.085,1.346-8.061,2.981-12.118,4.4-3.653,1.278-7.356,2.428-11.024,3.662-1.281.433-2.536.937-3.791,1.434-3.632,1.439-7.265,2.876-10.885,4.34-3.173,1.285-6.312,2.647-9.5,3.9-3.1,1.221-6.252,2.305-9.351,3.518-2.111.826-4.159,1.8-6.253,2.662-2.5,1.026-5.018,1.994-7.524,3-1.386.558-2.746,1.18-4.142,1.718a13.5,13.5,0,0,1-1.728.38,3.527,3.527,0,0,0-.826.274,70.537,70.537,0,0,0-8.366,4.674,3.994,3.994,0,0,0-1.944,3.423c.019.7-.321,1.422-.269,2.118q.2,2.58.641,5.138a.916.916,0,0,0,1.1.853c1.05-.163,2.119-.216,3.18-.316s2.121-.205,3.183-.3c.362-.03.422-.052.163-.386-3.029-3.888-.349-9.4,4.133-10.709a6.965,6.965,0,0,1,9.05,5.041c.339,1.439.665,2.825-.346,4.114a16.654,16.654,0,0,1-1.2,1.159c-.066.069.009.26.019.4.074-.015.148-.032.223-.045a39.3,39.3,0,0,1,6.894-.488,58.245,58.245,0,0,0,7.433-.345c1.5-.207,2.992-.032,4.45-.264,1.956-.31,3.948-.033,5.86-.33a68.038,68.038,0,0,1,6.821-.241c11.784-.653,23.58-.147,35.369-.286,1.164-.014,2.342.33,3.5.262,8.525-.5,17.064-.038,25.586-.352,3.219-.12,6.468.1,9.642-.31,1.6-.205,3.255.169,4.809-.493.658-.28,1.116.331,1.324.774a1.167,1.167,0,0,1-.328,1.146,7.806,7.806,0,0,1-2.851,1.012,88.727,88.727,0,0,1-10.748.286c-7.43-.479-14.866.121-22.274-.295-8.115-.455-16.223-.251-24.327-.171-4.159.042-8.335.045-12.488.283a41.243,41.243,0,0,0-4.911.292c-1.605.289-3.21.015-4.764.283-1.962.34-3.951,0-5.863.313-2.495.4-4.973.109-7.451.253-1.378.08-2.752.208-4.13.292a8.542,8.542,0,0,1-3.412-.491,2.792,2.792,0,0,0-1.827-.058,5.81,5.81,0,0,1-2.258.247c-3.112.114-6.243.04-9.328.368-1.81.193-3.606.1-5.4.249-2.777.231-5.542.6-8.321.773A1.718,1.718,0,0,1,91.231,309a10.738,10.738,0,0,1-.606-1.7,54.2,54.2,0,0,1-.606-5.89,11.237,11.237,0,0,1,.651-3.319c.435-1.487,1.825-2.228,3-3.09,1.085-.792,1.091-.728.558-1.82-.795-1.633-1.96-3.131-2.125-5-.094-1.072-.162-2.147-.241-3.37m8.047-55.994c1.061-.1,2.119-.259,3.182-.289,4.583-.124,9.169-.326,13.751-.282,6.162.061,12.326-.319,18.489.229a48.107,48.107,0,0,0,5.86-.249c1.311-.045,2.629,0,3.944-.01,1.006,0,1.191-.157,1.319-1.1.217-1.614.488-3.224.617-4.843.171-2.149.24-4.306.329-6.46.187-4.5-.14-8.994.255-13.5.432-4.927-.123-9.891.33-14.845.4-4.33.056-8.691.28-13.05.356-6.93-.094-13.889.4-20.829a47.839,47.839,0,0,1,.253-5.275,32.089,32.089,0,0,0,.354-6.3c-.114-5.8.1-11.588-.215-17.394-.4-7.278-.114-14.582-.314-21.88-.186-6.784-.165-13.583.145-20.385a138.067,138.067,0,0,0-.166-17.231c-.329-4.13-.015-8.3-.353-12.447-.226-2.744-.229-5.5-.345-8.257-.01-.226-.058-.594-.2-.649-.925-.368-1.442-1.259-2.494-1.528a16.92,16.92,0,0,0-3.568-.181c-5.68-.265-11.372-.286-17.061-.368-2.366-.034-4.734.045-7.1-.025a6.354,6.354,0,0,0-3.433.836,28.712,28.712,0,0,1-14.457,3.377q-6.958-.024-13.912-.249c-6.355-.208-12.724-.029-19.087-.067a23.66,23.66,0,0,1-5.087-.236,17.184,17.184,0,0,0-3.616-.048c-1.157,0-2.315-.031-3.47.009a31.153,31.153,0,0,0-3.373-.045c-.571.081-.706.209-.657.7a5.771,5.771,0,0,1,0,1.2c-.057.507.209.552.643.542a6.1,6.1,0,0,1,5.774,2.947c1.746,2.914,1.051,5.569-2.672,6.595a27.937,27.937,0,0,1-7.8.944c-3.628-.048-7.256,0-10.885-.023a8.476,8.476,0,0,1-2.409-.239c-1.547-.449-2.267.2-1.843,1.66a10.094,10.094,0,0,1,.259,2.882c.022,4.89.01,9.78.01,14.67,0,.349-.006.7,0,1.048.009.423.136.316.413.124a8.808,8.808,0,0,1,3.237-1.623c1.23-.261,2.058-.09,2.656.883.518.842.992,1.708,1.516,2.547,1.4,2.244,2.824,4.479,4.235,6.719a71.492,71.492,0,0,1,4.457,7.828c.814,1.745.12,2.653-1.829,2.432a2.856,2.856,0,0,1-.542-.2q-3.164-1.06-6.333-2.115a10.93,10.93,0,0,1-2.335-.775c-.978-.609-1.755.129-2.63.124-1.718-.009-2.3.565-1.848,2.014a8.216,8.216,0,0,1,.244,2.734c-.039,1.906-.265,3.809-.281,5.714-.043,4.989.053,9.981-.033,14.969s.332,10-.259,15a16.965,16.965,0,0,0,.292,3.763,2.312,2.312,0,0,0,.368.9c.346.566.768,1.092,1.1,1.664a19.134,19.134,0,0,1,2.938,11.42,4.678,4.678,0,0,0,.013,1.047c.018.126.226.226.349.34.09-.094.226-.178.255-.288.063-.254-.123-.7.4-.584a.9.9,0,0,1,.535.614,3.02,3.02,0,0,1-.019,1.328c-.365,1.3-.766,2.589-1.228,3.857a32.889,32.889,0,0,1-2.173,4.986,15.06,15.06,0,0,1-2.726,2.963c-.316.321-.5.455-.048.874.995.919,1.857,1.964,2.814,2.921a19.482,19.482,0,0,1,3.227,4.574,22.211,22.211,0,0,1,2.55,5.73c.156.708-.151,1.612.209,2.154a3.075,3.075,0,0,1,.312,2.87c-.42,1.512-.338,3.145-.729,4.668a10.769,10.769,0,0,1-1.551,3.267c-.57.844-1.652,1.083-2.654,1.452a9.421,9.421,0,0,1-6.136.556c-.573-.168-.949.163-.985.807-.068,1.159-.276,2.313-.288,3.469a8.047,8.047,0,0,1-1.687,4.577,8.471,8.471,0,0,1-2.11,2,2.824,2.824,0,0,1-2.882.033,33.148,33.148,0,0,1-7.812-5.27,4.747,4.747,0,0,1-1.938-4.647c.008-.048-.008-.1,0-.15A8.065,8.065,0,0,1,14.59,192.1c.535-.526,1.442-1.1,1.425-1.635-.018-.556-.923-1.107-1.483-1.617-.32-.292-.759-.731-1.08-.686-.368.051-.665.565-.995.876a4.512,4.512,0,0,0-.443.425,9.134,9.134,0,0,0-2.172,4.825,8.517,8.517,0,0,0,2.792,6.826,31.2,31.2,0,0,0,7.151,5.3,31.59,31.59,0,0,0,8.012,3.7c1.779.436,4.571-.331,5.582-1.725a9.411,9.411,0,0,0,1.654-4.579c.226-2.092.229-4.2.358-6.309.019-.313.332-.639.278-.919-.158-.824.647-.686.989-1,.2.394.588.786.588,1.178-.009,3.169.282,6.357-.6,9.483-.647,2.306-1.655,4.349-4.128,5.346a.806.806,0,0,0-.619.949c.119,1.853.168,3.713.34,5.56.1,1.028.5,2.034.556,3.06.083,1.439.765,2.723.985,4.108a3.843,3.843,0,0,0,3.161,3.222,37.526,37.526,0,0,0,9.565,1.205c7-.1,14.01.334,21.011-.255,3.413-.286,6.843.072,10.286-.256,3.978-.379,8-.3,12.01-.355,3.259-.048,6.52-.01,10.1-.01m55.062-94.472c.189,7.541-.239,15.083.247,22.631a50.1,50.1,0,0,1-.2,10.506c-.354,2.421.056,4.9-.31,7.36-.352,2.372.061,4.8-.32,7.21-.349,2.222-.1,4.5-.289,6.761-.369,4.33-.15,8.693-.311,13.045-.283,7.574-.065,15.167-.093,22.75a31.353,31.353,0,0,1-.312,3.616c-.1.8-.274,1.582-.445,2.367-.428,1.972-1.537,3.687-2.354,5.511a3.2,3.2,0,0,1-.889,1.138c-.8.645-1.685,1.2-2.513,1.816-3.824,2.852-8.295,3.86-13.026,4.131a2.184,2.184,0,0,1-.938-.015c-1.384-.63-2.9-.118-4.342-.514-.949-.26-2.1.147-3.162.226-2.752.21-5.5.464-8.258.588-4.265.19-8.549-.3-12.8.313-13.418.023-26.838-.115-40.253.3-.21.006-.421,0-.633,0a.862.862,0,0,0-.312.008c-.118.051-.283.144-.3.236a.413.413,0,0,0,.175.347,27,27,0,0,1,4.071,2.975c1.773,1.409,3.677,2.669,5.478,4.048,1.511,1.156,2.9,2.456,4.442,3.575a89.278,89.278,0,0,1,9.612,7.956c2.518,2.441,5,4.911,7.475,7.39a25.559,25.559,0,0,1,4.652,5.962c.32.6.392.458.81.2a19.3,19.3,0,0,1,2.17-1.171c5.257-2.41,10.507-4.834,15.792-7.188,2.55-1.136,5.175-2.118,7.755-3.192,3.295-1.372,6.662-2.568,9.995-3.848,5.051-1.937,10.178-3.67,15.283-5.463,4.1-1.44,8.152-3.042,12.316-4.3,3.79-1.144,7.2-3.029,10.841-4.445a1.136,1.136,0,0,0,.814-1.473,24.7,24.7,0,0,1-.579-3.2,50.587,50.587,0,0,1,.354-7.5c.212-1.415.177-2.854.528-4.259.257-1.021.174-2.116.358-3.159.487-2.744,1.146-5.463,1.534-8.218q.525-3.741,1.287-7.435c.452-2.174.646-4.415,1.311-6.526,1.414-4.49,2.1-9.17,4.028-13.53A27.532,27.532,0,0,0,185.2,186.8c.5-2.186,1.193-4.352,1.029-6.637-.132-1.853.2-3.713-.289-5.571-.362-1.379-.255-2.879-.7-4.224-.988-2.981-1.627-6.041-2.507-9.041-1.175-4.017-2.591-7.972-3.739-12-1.066-3.738-1.914-7.533-2.867-11.3-.516-2.041-1.078-4.072-1.567-6.118-.362-1.513-.661-3.04-.949-4.566-.151-.8-.205-1.614-.327-2.419-.155-1-1.254-1.052-1.857-1.608a27.242,27.242,0,0,1-3.785-4.2c-2.835-3.985-4.595-8.284-4.116-13.191a5.514,5.514,0,0,1,.67-2.121,2.087,2.087,0,0,1,1.693-.773c1.183-.14,2.354-.384,3.534-.559.407-.06.828-.019,1.235-.074.125-.017.226-.2.338-.3a1.91,1.91,0,0,0-.369-.223c-1.98-.658-3.926-1.369-5.967-1.9a6.374,6.374,0,0,0-6.468,2.373,19.353,19.353,0,0,0-2.577,6.913c-.122.7-.007,1.6-.429,2.051a2.437,2.437,0,0,0-.505,2.067c.157,5.546-.358,11.1.281,16.643a40.313,40.313,0,0,1,.023,4.34M23.228,38.078c.6-.017,1.13.09,1.47-.693a5.393,5.393,0,0,1,1.616-1.894,24.013,24.013,0,0,1,2.712-1.713,11.194,11.194,0,0,1,5.728-1.684,23.96,23.96,0,0,1,3.819.254,11.44,11.44,0,0,1,6.592,2.944A19.672,19.672,0,0,1,49.866,43c.123.362.192.52.567.462A15.066,15.066,0,0,1,52.2,43.18c2.9-.1,5.8,0,8.706-.249a43.465,43.465,0,0,1,7.123.17c4.246.337,8.526.132,12.8.295,6.98.267,13.979.1,20.97.045a15.065,15.065,0,0,0,3.229.119,29.49,29.49,0,0,0,6.579-1.948,36.369,36.369,0,0,0,4.792-2.743,5.282,5.282,0,0,0,1.971-2.649c1.221-3.311-.648-6.728-3-8.564a13.063,13.063,0,0,0-3.537-1.612,27.192,27.192,0,0,0-6.962-1.776,2.578,2.578,0,0,1-2.649-2.186,27.427,27.427,0,0,0-1.951-5.5c-1.607-3.629-4.9-5.3-8.643-6.34A18.515,18.515,0,0,0,85.207,9.6a18.173,18.173,0,0,0-5.264,1.335A11.217,11.217,0,0,0,75.768,14a1.217,1.217,0,0,1-2.16-.6,2.159,2.159,0,0,0-.686-1.24,23.442,23.442,0,0,1-1.78-1.994,17.992,17.992,0,0,0-9.009-6.4,18.209,18.209,0,0,0-6.53-1.32c-1.171.058-2.331.125-3.5.259a22.894,22.894,0,0,0-7.257,2.19,25.266,25.266,0,0,0-6.781,4.721c-.6.588-1.352,1.032-1.971,1.6-1.577,1.452-3.138,2.914-2.938,5.281.111,1.3.025,2.605.267,3.925a15.97,15.97,0,0,0,.936,3.688,4.442,4.442,0,0,1,.372,1.642c.028,1.046-.4,1.422-1.487,1.556-1.492.184-2.993.335-4.467.608-3.226.6-6.066,1.9-7.858,4.631A5.569,5.569,0,0,0,19.9,36.333a.874.874,0,0,0,.814.865,14.865,14.865,0,0,1,2.516.881M97.7,241.694c2.9-.157,5.793.069,8.712-.226,3.448-.35,6.95-.042,10.436-.33,3.515-.289,7.062-.241,10.594-.34a1.487,1.487,0,0,0,.47-.007,17.551,17.551,0,0,1,6.4-.9,22.608,22.608,0,0,0,3.338-.3c1.941-.34,3.882-.711,5.786-1.2,2.04-.524,3.947-1.335,5.023-3.234a26.307,26.307,0,0,0,1.763-3.348,20.146,20.146,0,0,0,1.266-6.981c.018-1-.3-2.015-.275-3.018.136-4.7-.325-9.4.266-14.1.287-2.283-.1-4.6.3-6.916.306-1.77.014-3.6.319-5.415s.126-3.7.288-5.563c.311-3.583.086-7.2.339-10.8.383-5.484-.28-11,.336-16.495.271-2.436-.165-4.911.306-7.364a13.279,13.279,0,0,0-.264-2.415c-.081-8.442.132-16.886-.3-25.327-.175-3.436-.093-6.887-.014-10.328.127-5.548-.241-11.094.25-16.648.365-4.13.333-8.3.353-12.447q.068-14.222,0-28.445a49.4,49.4,0,0,0-.226-6.172c-.3-2.295-.419-4.621-.675-6.933a35.529,35.529,0,0,0-1.25-5.5,20.279,20.279,0,0,0-2.916-6.186c-1.2-1.731-2.192-3.687-4.238-4.751-1.153-.6-2.17-1.462-3.608-1.5a47.548,47.548,0,0,1-5.717-.229c-2.335-.348-4.734,0-7.125-.305-2.921-.377-5.922.286-8.857-.342a.442.442,0,0,0-.38.154.411.411,0,0,0,.1.387,7.385,7.385,0,0,1,1.477,2.266,7.6,7.6,0,0,1-1.127,8.864c-.144.163-.258.351-.386.528.2.023.4.058.6.065,4.215.151,8.429-.17,12.654.252,3.453.344,6.954.252,10.435.347a10.254,10.254,0,0,0,1.891-.012c2.344-.379,3.731,1.157,5.3,2.324.164.122.181.42.271.633.727,1.657.271,3.432.551,5.153.44,2.708.1,5.488.316,8.254.385,4.779.072,9.59.314,14.4.238,4.733-.033,9.5-.144,14.247-.17,7.286-.307,14.585.171,21.885.424,6.481-.052,12.985.279,19.489a89.033,89.033,0,0,1-.2,15.295c-.242,1.989-.136,4.007-.271,6.016-.365,5.436.148,10.891-.34,16.344-.388,4.331,0,8.691-.279,13.051-.356,5.48-.058,10.992-.362,16.491-.189,3.436.029,6.886-.053,10.328-.084,3.5.246,7-.252,10.512-.33,2.324.109,4.705-.328,7.062-.283,1.526-.224,3.107-.362,4.659a3.128,3.128,0,0,1-.372,1.492c-.429.611-.986,1.447-1.619,1.566a35.041,35.041,0,0,1-6.036.641c-14.891.2-29.791-.323-44.677.325-2.638.115-5.268-.063-7.924.235-3.185.356-6.426-.066-9.649.323-2.667.322-5.368-.008-8.076.271-3.45.355-6.953.154-10.436.286a75.033,75.033,0,0,1-12.965-.195c-1.723-.234-3.481-.071-5.238-.253a32.961,32.961,0,0,1-6.412-1.266,4.536,4.536,0,0,1-3.017-2.791,38.377,38.377,0,0,1-1.867-8.241c-.3-1.927-.243-3.9-.357-5.859-.02-.34.231-.832-.528-.8-.588.028-1.02.13-1.044.782-.007.2-.008.4,0,.6a35.629,35.629,0,0,0,.258,4.376c.3,1.822-.037,3.7.335,5.56.274,1.373.055,2.8.291,4.22.285,1.72.1,3.5.328,5.262a4.27,4.27,0,0,0,1.85,3.134,24.671,24.671,0,0,0,6.314,2.872,67.526,67.526,0,0,0,13.4,2.508c3.029.332,6.113.271,9.173.334,2.155.045,4.312.009,6.468.009,1.052,0,2.106.042,3.155-.012,1.02-.052,2.02.12,3.055.052,3.262-.21,6.536-.293,9.806-.326,4.837-.049,9.677-.014,14.831-.014m55.54,15.271c-1.932.637-3.888,1.21-5.79,1.918-4.794,1.786-9.654,3.406-14.444,5.21-4.385,1.651-8.794,3.255-13.032,5.19-7.243,3.315-14.514,6.6-21.46,10.458a16.048,16.048,0,0,0-3.341,2.433A5.747,5.747,0,0,0,93.535,287a13.842,13.842,0,0,0,2.318,5.651c.391.6.765.723,1.4.368,2.991-1.673,5.98-3.345,9.116-4.771,2.371-1.079,4.665-2.315,7.052-3.358,2.734-1.195,5.526-2.273,8.309-3.367,2.109-.828,4.235-1.62,6.367-2.4,2.632-.958,5.275-1.886,7.916-2.822,3.551-1.259,7.1-2.527,10.659-3.765,2.74-.952,5.528-1.787,8.236-2.813,3.518-1.333,6.97-2.821,10.466-4.207,3-1.192,6.067-2.25,9.032-3.518,3.957-1.69,8.067-2.967,12.156-4.314.6-.2,1.212-.356,1.819-.532a16.9,16.9,0,0,0-.6-1.677c-.817-1.726-1.571-3.489-2.545-5.132-.884-1.494-2.157-2.719-4.213-2.343a38.663,38.663,0,0,0-4.385,1.144c-2.408.737-4.8,1.517-7.188,2.322-3.16,1.069-6.3,2.182-9.454,3.273-2.147.744-4.295,1.482-6.76,2.222M26.7,56.044c3.056.1,6.112.246,9.17.288,3.729.05,7.459,0,11.191.014a20.165,20.165,0,0,0,6.893-1.18c1.785-.636,1.909-1.453,1.41-3.047-.547-1.749-2.144-2.812-4.443-2.633-1.868.146-2.754-.559-3.51-2.577a37.282,37.282,0,0,1-1.886-6.728c-.452-2.631-3.083-4.419-5.628-4.758a13.55,13.55,0,0,0-7.3,1.263,23.107,23.107,0,0,0-5.361,3.261c-1.273,1.047-1.961,1.028-3.475.233a19.262,19.262,0,0,0-2.235-1.015c-1.782-.662-3.644-1.183-5.5-.462a6.756,6.756,0,0,0-3.989,4.023c-.33.868-.568,1.773-.963,2.612-.727,1.545-1.317,1.673-2.774.723-1.045-.678-1.186-.667-2.38.055a10.29,10.29,0,0,0-1.282.657c-1.659,1.378-3.207,2.835-2.382,5.233.738,2.147,1.453,3.379,4.38,3.452,2.006.051,4.006.034,6.025.21,3.4.3,6.847-.008,10.268.356,1.141.122,2.31.019,3.781.019m1.893,79.949c-.929-1.081-1.867-2.157-2.785-3.248-.418-.5-.26-1.069.328-1.627a1.183,1.183,0,0,0,.388-.733c.028-2.693.019-5.388.014-8.081,0-.43-.194-.455-.588-.287-1.151.491-2.314.964-3.491,1.394-3.653,1.336-7.384,2.414-10.5,4.914a16.8,16.8,0,0,0-5.024,6.862,53.91,53.91,0,0,0-1.516,5.387,8.656,8.656,0,0,0-.316,2.563A17.729,17.729,0,0,0,5.417,146c.1.588.4,1.147.52,1.736a15.306,15.306,0,0,0,3.282,6.336,29.4,29.4,0,0,0,3.772,3.9c1.947,1.7,4.009,3.291,6.065,4.878a29.654,29.654,0,0,0,3.523,2.412,5.491,5.491,0,0,0,2.384.642,7.722,7.722,0,0,0,6.048-2.99,15.94,15.94,0,0,0,4.156-8.39,20.022,20.022,0,0,0-.184-6.636c-.577-3.064-2.277-5.786-4-8.435-.726-1.115-1.484-2.211-2.385-3.465m4.889,34.882c-.818-.776-1.649-1.537-2.448-2.333a1.244,1.244,0,0,0-1.563-.271c-1.4.485-2.946.83-4.249-.416-.142-.136-.48-.085-.723-.126-.391-.066-.781-.139-1.172-.2-2.712-.448-4.566-2.229-6.53-3.816-1.258-1.017-2.456-2.1-3.662-3.171a.8.8,0,0,0-1.2-.069,12.035,12.035,0,0,0-4.6,7.757,14.025,14.025,0,0,0,.748,6.717,32.785,32.785,0,0,0,2.977,6.315c1.693,2.689,3.39,5.372,6.061,7.3a26.541,26.541,0,0,0,4.111,2.5,30.194,30.194,0,0,0,4.759,1.729c3.24.91,6.505,1.622,9.878.418a3.578,3.578,0,0,0,2.351-2.189,13.228,13.228,0,0,0,.961-5.615,23.759,23.759,0,0,0-.063-3.43,34.8,34.8,0,0,0-1.53-4.327,25.839,25.839,0,0,0-4.1-6.767M26.7,114.434a3.245,3.245,0,0,0,.151-.687q.014-6.51.007-13.023c0-.25.09-.54-.014-.742a6.6,6.6,0,0,1-.206-4.062c.12-.868-.051-1.239-.708-1.534a1.681,1.681,0,0,1-.956-1.627,8.312,8.312,0,0,1,0-1.645,1.126,1.126,0,0,0-.781-1.17,11.23,11.23,0,0,0-4.963-.585,12.185,12.185,0,0,0-4.211,1.483,4.988,4.988,0,0,0-2.391,2.3,20.054,20.054,0,0,0-1.519,6.133,13.435,13.435,0,0,0,.275,2.418,14.972,14.972,0,0,0,2.236,6.606c1.367,2.319,2.816,4.606,5.208,6.165,2.228,1.452,4.312,3.111,7.052,3.746.74.172.664-.027.662-.476a23.512,23.512,0,0,1,.157-3.293m-1.738,80.1L19.9,192.425c-.723-.3-1.607-1.008-2.132-.817-.785.283-1.324,1.189-1.954,1.843a2.057,2.057,0,0,0-.414.582c-.678,1.554-1.675,3.084-.533,4.817a3.836,3.836,0,0,0,.651.786,33.758,33.758,0,0,0,2.883,2.416c1.472,1.021,3.013,1.96,4.577,2.848a1.588,1.588,0,0,0,2.137-.339,10.036,10.036,0,0,0,2.376-5.489,7.555,7.555,0,0,1,.828-3.261.553.553,0,0,0-.161-.51c-1.006-.234-2.024-.419-3.2-.768M28.434,106.5v23.055a12.312,12.312,0,0,0,.063,3.129,7.767,7.767,0,0,0,1.523,2.234,2.569,2.569,0,0,0,.532.416,3.616,3.616,0,0,0,.088-.563c0-4.84-.067-9.682.024-14.521.09-4.8-.215-9.594.232-14.4.322-3.466.066-6.981.057-10.474,0-.23-.009-.559-.157-.672-.449-.343-2.384.1-2.514.6-.1.4.142.873.144,1.315.015,3.194.009,6.387.009,9.88m136.64,3.593c.074.071.2.132.215.213.931,4.552,3.542,8.212,6.8,11.527a4.46,4.46,0,0,0,.443.349,1.633,1.633,0,0,0,.109-.55,30.549,30.549,0,0,1-.593-3.64,57.37,57.37,0,0,0-.949-7.553c-.344-2.039-.491-4.114-.633-6.176-.039-.584-.248-.685-.737-.605-1.175.192-2.356.362-3.514.62a1.238,1.238,0,0,0-.8.665,5.735,5.735,0,0,0-.568,2.712c.164.728.1,1.433.226,2.436M105.591,307.869a17.312,17.312,0,0,1,1.761-.286c.784-.051,1.576.009,2.361-.032.158-.007.449-.274.431-.383-.156-.936.506-1.529,1.005-2.155a2.069,2.069,0,0,0-.026-2.961c-1.9-1.971-4.411-2.366-7.039-2.232a4.932,4.932,0,0,0-2.159.786c-.913.551-.974,1.554-1.291,2.47a3.633,3.633,0,0,0,.6,3.3,3.054,3.054,0,0,0,3.416,1.5,6.318,6.318,0,0,1,.944-.006M35.851,78.2c-1.409.738-2.827,1.462-4.223,2.223-.452.246-.465.56-.041.931,1.791,1.568,3.6,3.121,5.319,4.756,1.8,1.705,3.557,3.449,5.221,5.269,1.078,1.179,2.739,1.844,3.343,3.431a.209.209,0,0,0,.11.1c.251.1.506.189.759.282a2.424,2.424,0,0,0-.175-.612q-1.484-2.481-3-4.947-2.882-4.693-5.778-9.38a9.177,9.177,0,0,0-1.54-2.058M27.8,63.981q0,8.382-.007,16.764a1.447,1.447,0,0,0,.844,1.478,31.209,31.209,0,0,1,3.781,2.92c1.283,1.066,2.516,2.186,3.785,3.269a3.141,3.141,0,0,0,.644.324c.113.057.223.119.335.181-.018-.17.034-.4-.064-.5-.8-.794-1.593-1.6-2.45-2.331-1.712-1.47-3.5-2.866-5.184-4.36-.923-.817-.877-1.315,0-2.253a1.479,1.479,0,0,0,.542-1.144c-.21-5.045.351-10.1-.316-15.144-.191-1.447-.247-2.908-.316-4.366-.027-.568-.151-1-.84-.963s-.763.5-.756,1.04c.019,1.6.007,3.193.007,5.089M22.756,87.038c.095.271-.267.7.407.768a10.578,10.578,0,0,1,1.84.466c2.415.714,4.743,1.673,7.127,2.441,2.486.8,5.094,1.268,7.471,2.4.121.057.34-.072.514-.115-.09-.142-.147-.355-.279-.415-2.525-1.148-4.475-3.038-6.633-4.652-1.687-1.262-3.252-2.67-4.882-4-.963-.787-1.438-.771-2.389.1-1.021.935-2.011,1.9-3.172,3M178.176,223.728c-.16,0-.376-.614-.452-.036a31.377,31.377,0,0,1-.391,4.04c-.335,1.266-.324,2.539-.542,3.8-.25,1.427-.042,2.942-.4,4.336-.442,1.718-.117,3.412-.259,5.111a1.126,1.126,0,0,0,.128.394,1.183,1.183,0,0,0,.175-.331c.429-2.669.949-5.33,1.234-8.013.2-1.835-.025-3.7.328-5.547a16.518,16.518,0,0,0,.181-3.752M39.953,5.739a3.683,3.683,0,0,1,.689-.588c1.462-.735,2.943-1.434,4.408-2.164.165-.082.268-.274.4-.415-.192-.042-.407-.158-.57-.112-.464.129-.908.321-1.356.493a18.3,18.3,0,0,0-5.294,2.989,26.886,26.886,0,0,0-2.925,3.313,1.311,1.311,0,0,0-.15.316c.142.005.345.071.417.007C36.219,9,36.824,8.371,37.48,7.8c.751-.657,1.542-1.273,2.473-2.057m-8.2,86.537-4.177-1.266c-.211-.063-.5-.2-.638-.125a1.1,1.1,0,0,0-.338,1.46c.13.357.863.867,1.109.776,1.221-.452,2.458-.136,3.675-.247.308-.028.308-.03.369-.6m2.367-58.541a14.271,14.271,0,0,0-5.108,1.949c-1.09.757-2.31,1.392-2.893,2.65a1.66,1.66,0,0,0-.078.316c.1.009.222.057.3.019a1.462,1.462,0,0,0,.349-.279,19.221,19.221,0,0,1,7.733-4.2c.254-.083.723.125.609-.367-.029-.127-.491-.162-.911-.09m71.164,264.25c-.226.277-.307.617.178.581a8.735,8.735,0,0,1,3.875.852c.136.054.347-.06.523-.1-.086-.145-.133-.353-.264-.428a6.574,6.574,0,0,0-4.311-.909m67.373-186.4c.028.126.055.252.084.379.068-.018.2-.045.2-.051C172.9,111.756,172.85,111.6,172.649,111.59Z" transform="translate(0 0.004)"></path><path d="M88.379,407.487A3.481,3.481,0,0,1,86.89,404.4c.019-.564-.6-1.137,0-1.678a1.023,1.023,0,0,1,.615-.226c.1,0,.283.216.312.356.3,1.447.582,2.9.853,4.354C88.677,407.259,88.529,407.341,88.379,407.487Z" transform="translate(-72.958 -342.231)"></path><path d="M106.7,453.4a2.947,2.947,0,0,1-2.441-2.517c0-.13.087-.371.138-.372.35-.009.988-.027,1.01.068C105.645,451.6,106.759,452.217,106.7,453.4Z" transform="translate(-87.807 -383.05)"></path><path d="M138.95,488.89c-.723-.266-1.545-.4-1.9-1.085a3.271,3.271,0,0,1-.118-1.2,3,3,0,0,1,1.05.355,9.418,9.418,0,0,1,1.217,1.442C139.252,488.471,139.092,488.675,138.95,488.89Z" transform="translate(-115.327 -413.754)"></path><path d="M413.188,715.206a2.892,2.892,0,0,0-1.8,2.067c-.785,2.089-1.474,4.21-2.233,6.308-.267.74-.643,1.447-.931,2.178a.859.859,0,0,1-.91.611c-.536,0-.884-.136-1-.678-.066-.316-.3-.618-.294-.925.01-3.6-1.191-6.962-2.231-10.356-.386-1.26-.964-1.419-2.378-1.26a15.915,15.915,0,0,1-3.571-.1,2.482,2.482,0,0,1-2.207-2.641c-.106-1.968-.734-3.838-.952-5.766a63.427,63.427,0,0,1-.329-6.907,40.554,40.554,0,0,1,.335-5.858,22.059,22.059,0,0,1,1.26-4.286,1.489,1.489,0,0,1,1.064-.723c1.48-.16,2.909-.619,4.488-.1a10.483,10.483,0,0,0,3.446.052c.537-.018.774-.357.753-.893a15.112,15.112,0,0,1,.013-2.392,5.319,5.319,0,0,1,.579-2.155,2.688,2.688,0,0,1,2.472-1.153c5.1.038,10.2,0,15.3.031,1.009.006,2.016.189,3.024.284a.9.9,0,0,0,1.029-.643c.89-1.946,1.782-3.9,2.826-5.773,1.687-3.029,4.51-4.706,7.917-5.552,3.945-.98,7.259.4,10.21,2.719a23.035,23.035,0,0,1,3.971,3.8,10.515,10.515,0,0,1,2.522,6.185,18.559,18.559,0,0,1,.277,2.119c-.288,3.007-1.085,5.841-3.432,8.077-.275.262-.382.717-.689.911-1.516.963-1.65,2.351-1.552,3.9.088,1.392-.022,2.794.031,4.19a33.6,33.6,0,0,1,.271,3.616c-.188,2.56-1.079,3.436-3.9,3.7-.156.015-.316,0-.473,0-1.079,0-.9.069-1.33,1.1-.387.935-.07,1.944-.735,2.866a5.345,5.345,0,0,1-2.6,2.016c-.909.33-1.833.628-2.767.884a2.428,2.428,0,0,1-1.094.011c-2.938-.623-5.91-.174-8.863-.275-2.153-.073-4.312-.053-6.464,0-2.271.052-4.542.161-6.809.305a11.244,11.244,0,0,0-2.251.508m10.335-2.321c4.627,0,9.255.016,13.882-.014a8.31,8.31,0,0,0,2.694-.322c1.343-.481,2.8-.989,3.008-2.677a8.849,8.849,0,0,0,.132-.995c.014-1.546,0-3.093.009-4.64a16.88,16.88,0,0,0-.6-3.8,7.565,7.565,0,0,1-.143-3.095c.143-.7-.054-.61-.523-.633a24.086,24.086,0,0,1-3.665-.252c-3.986-.8-7.361-2.372-9.254-5.989a3.781,3.781,0,0,0-3.821-2.162c-5.836.064-11.673-.01-17.51.037-3.164.025-6.329.195-9.493.279a1.154,1.154,0,0,0-1.113.73,6.025,6.025,0,0,0-.6,2.769c-.145,1.619-.5,3.224-.588,4.844a28.572,28.572,0,0,0,.588,6.64c.41,2.255.7,4.534.943,6.812.085.788.407,1,1.169.981,1.208-.037,2.419.022,3.628-.018a2.913,2.913,0,0,1,2.873,1.7,26.858,26.858,0,0,1,2.457,8.167c.041.212.115.569.231.591.527.1.313-.331.4-.575.729-1.958,1.381-3.95,2.268-5.842a3.267,3.267,0,0,1,2.565-1.921c2.429-.263,4.87-.439,7.309-.607.942-.065,1.892-.011,3.154-.011m8.52-21.26c.9.6,1.746,1.273,2.7,1.78a17.865,17.865,0,0,0,5.156,1.59,10.427,10.427,0,0,0,5.4-.161,14.545,14.545,0,0,0,7.444-6.015A9.685,9.685,0,0,0,454,683.161a11.327,11.327,0,0,0-1.62-5.651,17.064,17.064,0,0,0-5.473-5.6,10.127,10.127,0,0,0-5.34-1.832A10.856,10.856,0,0,0,434.02,673a11.5,11.5,0,0,0-3.27,5.144c-.94,2.705-1.55,5.382-.517,8.186a.964.964,0,0,1-.106.794c-.6.807-.306,1.4.287,2.09s.989,1.5,1.627,2.406m-20.512-9.882c-.945,0-1.89-.014-2.834,0q-1.387.026-1.422,1.322c-.021.8-.009,1.594,0,2.39.009,1.365.011,1.372,1.5,1.373l17.318.007a11.7,11.7,0,0,1,1.356.132c.181.022.359.075.538.114-.039-.205-.09-.409-.114-.616a9.683,9.683,0,0,1-.09-1.01c-.012-.9-.029-1.793,0-2.689.027-.748-.305-1.1-1.091-1.025a24.66,24.66,0,0,1-2.7.276c-1.48-.023-2.956-.238-4.436-.265-2.57-.045-5.143-.013-8.03-.013m33.608,16.319c0,2.483.014,4.966-.011,7.448-.006.571.043.8.723.507a5.9,5.9,0,0,1,1.588-.314c1.134-.136,1.2-.138,1.161-1.243-.075-2.393-.2-4.784-.306-7.176a1.988,1.988,0,0,0,0-.3c-.332-1.678-.333-1.678-2.075-.872-.174.08-.351.156-.529.226-1.013.41-1.013.409-.544,1.721Z" transform="translate(-332.132 -568.204)"></path><path d="M403.989,739.835c.184.976.3,1.877.386,2.781a1.645,1.645,0,0,1-.118.694c-.045.127-.21.214-.321.32-.061-.109-.129-.216-.181-.329-.213-.462-.452-.916-.626-1.391-.3-.825-.53-1.677-.859-2.492-.233-.58-.076-1,.5-1.13a.734.734,0,0,1,.99.792A2.049,2.049,0,0,0,403.989,739.835Z" transform="translate(-338.71 -627.718)"></path><path d="M374.707,699.232a17.392,17.392,0,0,0-1.637-1.522c-.452-.327-.151-.612,0-.771.175-.179.7-.344.791-.256.919.9,1.795,1.84,2.637,2.8.1.119-.059.447-.1.678a1.99,1.99,0,0,1-.529-.136C375.5,699.808,375.147,699.55,374.707,699.232Z" transform="translate(-314.005 -592.355)"></path><path d="M332.565,660.288c1.028-.106,1.441.637,2.079.955a3.733,3.733,0,0,1,.891.822c.26.268.5.556.744.836a5.483,5.483,0,0,1-1.266-.16,17.777,17.777,0,0,1-2.076-.964,2.37,2.37,0,0,1-.921-.7C331.855,660.807,331.663,660.27,332.565,660.288Z" transform="translate(-279.515 -561.419)"></path><path d="M496.793,1558.961c-4.646.075-9.212.09-13.779.064a6.073,6.073,0,0,1-2.568-.244,3.293,3.293,0,0,0-1.82.072c-1.23.277-2.213-.262-2.238-1.492-.024-1.2.224-2.406.271-3.611.027-.692.753-.638.971-.653,1.662-.115,3.263-.558,4.922-.726a118.372,118.372,0,0,1,12.947-.157c1.831.016,3.689.188,5.539.246a14.6,14.6,0,0,1,2.387.3,3.928,3.928,0,0,1,2.627,2.848c.15,2.045-.75,2.571-2.767,2.807-2.125.247-4.276.321-6.493.545m5.6-4.716c-.954-.1-1.9-.247-2.862-.29-2.79-.121-5.576-.019-8.378-.235a67.149,67.149,0,0,0-8.836.25,13.468,13.468,0,0,0-2.729.585c-1.012.274-1.224.752-1.024,1.976.141.859.828.707,1.423.707,6.4,0,12.806.018,19.209-.011,1.216,0,2.434-.169,3.647-.295a2.605,2.605,0,0,0,1.113-.316c.278-.177.82-.427.292-.912a10.132,10.132,0,0,0-1.857-1.454Z" transform="translate(-401.221 -1319.735)"></path><path d="M80.961,956.611a11.578,11.578,0,0,1,.853,1.117,7.277,7.277,0,0,1,.611,6.213,4.753,4.753,0,0,1-1.242,1.744,19.393,19.393,0,0,1-3.21,2.942c-2.936,1.864-4.675.936-6.887-.732s-4.439-3.345-6.595-5.084a15.156,15.156,0,0,1-2.006-2.195,1.235,1.235,0,0,1-.212-.8,12.627,12.627,0,0,1,2.908-7.516,6.111,6.111,0,0,1,3.736-1.867,3.274,3.274,0,0,1,1.591.281,27.686,27.686,0,0,1,6.374,2.7c1.4.954,2.669,2.079,4.076,3.2m-14.6-.374c-.21.217-.515.4-.614.656-.388.995-.618,2.058-1.091,3.013-.327.662-.139.922.4,1.283,1.149.769,2.29,1.553,3.364,2.41a44.24,44.24,0,0,0,4.509,3.4c1.675,1.023,2.688.995,4.536-.371a20.564,20.564,0,0,0,2.222-2.086,4.492,4.492,0,0,0,.011-6.464,15.547,15.547,0,0,0-7.233-4.046c-1.591-.473-3.382-.847-4.824.556a6.93,6.93,0,0,0-1.28,1.646Z" transform="translate(-52.446 -808.112)"></path><path d="M81.293,1146.622a4.732,4.732,0,0,1-.977-4.637c.251-.915.234-1.892.436-2.822a9.9,9.9,0,0,1,3.235-5.76,4.412,4.412,0,0,1,5.35-.626,39.472,39.472,0,0,1,8.337,6.1,12.053,12.053,0,0,1,2.748,3.381,4.686,4.686,0,0,1,.24,3.571,13.1,13.1,0,0,1-2.767,5.177c-1.907,2.119-3.142,2.65-6,1.816a22.663,22.663,0,0,1-9.094-4.776c-.487-.441-.954-.9-1.509-1.429m1.972-5.914a18.051,18.051,0,0,0-.764,1.944,5.043,5.043,0,0,0-.352,2.305,3.576,3.576,0,0,0,1.395,1.673,24.3,24.3,0,0,0,8.881,4.582,3.749,3.749,0,0,0,3.845-1.019,21.113,21.113,0,0,0,2.321-3.724c.481-1.05,1.127-2.312.342-3.414a23.505,23.505,0,0,0-3.339-3.768c-1.345-1.217-2.914-2.209-4.375-3.313a1.481,1.481,0,0,0-1.711-.226c-.6.289-1.311.368-1.933.627a6.95,6.95,0,0,0-3.641,2.8,7.077,7.077,0,0,0-.67,1.531m2.051-4.94c.917-.4,1.833-.8,2.754-1.193a4.038,4.038,0,0,1,.557-.152c-.193-.151-.369-.4-.582-.436a3.381,3.381,0,0,0-3.466,1.3c-.311.43-1.187.542-.884,1.334a7.527,7.527,0,0,1,1.62-.856Z" transform="translate(-67.452 -962.64)"></path><path d="M439.592,901.544a25.948,25.948,0,0,0-2.879.228,13.44,13.44,0,0,1-3.481-.233.633.633,0,0,1-.255-.136,5.151,5.151,0,0,1-.96-3.21,3.81,3.81,0,0,1,2.306-1.455c2.1-.377,4.235-.121,6.331-.314,6.522-.6,13.053-.1,19.574-.264,1.41-.036,1.75.31,1.763,1.6.007.648.024,1.3,0,1.944a1.914,1.914,0,0,1-1.395,1.8,10.013,10.013,0,0,1-2.221.321c-3.783.032-7.578.188-11.347-.048C444.6,901.629,442.178,901.594,439.592,901.544Z" transform="translate(-363.822 -761.954)"></path><path d="M449.675,838.245c1.681,0,3.206-.045,4.727.012a2.822,2.822,0,0,1,2.244,3.822c-.439.937-1.307.848-2,.924-5.456.6-10.94.271-16.41.316a4,4,0,0,1-4.027-3.461c-.031-1.108.39-1.555,1.6-1.608.839-.037,1.681-.007,2.521-.007Z" transform="translate(-365.7 -712.728)"></path><path d="M657.595,698.2c1.151,1.073,1.13,2.463,1.475,3.707a11.71,11.71,0,0,1,.329,2.56,11.445,11.445,0,0,0,1.863,5.405c.935,1.552.495,2.494-1.47,3.426a12.119,12.119,0,0,1-6.454,1.439,8.138,8.138,0,0,1-3.562-.867c-.729-.439-1.7-.418-2.369-1.068-1.051-1.019-1.134-1.289-.429-2.577a9.452,9.452,0,0,0,1.108-3.761,47.629,47.629,0,0,1,.941-5.752,4.3,4.3,0,0,1,1.6-2.358c.353-.285.655-.471.331-1.169-.5-1.07,1.261-2.992,2.525-3.11,2.8-.261,3.1.816,3.717,3.127a5.6,5.6,0,0,0,.391,1m2.6,12.651a15.194,15.194,0,0,1-2.385-8.344,6.271,6.271,0,0,0-.319-1.964,2.277,2.277,0,0,0-.781-1.294c-.28-.161-.893.2-1.356.327a3.262,3.262,0,0,1-2.772-.113c-.744-.474-1.221-.168-1.617.4a2.975,2.975,0,0,0-.388.891,25.587,25.587,0,0,0-.985,5.009,11.054,11.054,0,0,1-.778,3.275c-.939,2.286-1.008,2.277,1.392,3.4a6.619,6.619,0,0,0,2.17.773,10.847,10.847,0,0,0,5.548-.6c.859-.407,2.112-.419,2.27-1.757m-4.576-13.625c-.105-.156-.275-.3-.305-.468-.212-1.2-.2-1.164-1.378-1.192a1.255,1.255,0,0,0-1.444.981,1.444,1.444,0,0,0,.6,1.732,1.364,1.364,0,0,0,1.866-.128,2.282,2.282,0,0,0,.663-.927Z" transform="translate(-544.509 -590.128)"></path><path d="M7233.674,1794.231s.271,17.19,3.517,17.727,23.806,1.88,23.806,1.88l33-1.88h54.645l1.894-8.057,1.894-85.946v-71.708l-1.826-18.127s2.977-5.1-11.362-4.834-20.829,0-20.829,0,7.573-6.714,0-13.16h23.534s11.362,4.834,12.985,14.772,1.623,35.99,1.623,35.99v98.394l-1.694,25.412v21.071s-.833,17.561-9.365,16.528-9.78,2.066-9.78,2.066H7284.11L7261,1825.8s-26.775-1.911-29.688-7.076-1.249-24.493-1.249-24.493Z" transform="translate(-7202.102 -1582.552)"></path><path d="M7229.581,1788.65v38.841l3.6,4.132,1.249-21.9V1788.65Z" transform="translate(-7202.1 -1694.565)"></path><path d="M7227.6,1689.39h3.181v21.9l-4.371,3.305Z" transform="translate(-7200.118 -1632.286)"></path></g></g></g></g></g><path class="l" d="M4093.692-584.687l8.669-.977,21.209.686,8.442.273,1.883,2.9-.523,5.616-24.122.366-16.221-1.012-.244-3.837Z" transform="translate(-3789 2077)"></path><text class="m" transform="translate(313 1498)"><tspan x="0" y="0">Click Here</tspan></text></g></svg>