<svg xmlns="http://www.w3.org/2000/svg" width="90.559" height="95.942" viewBox="0 0 90.559 95.942"><defs><style>.a{fill:#ffda80;}</style></defs><g transform="translate(-560.073 -1626)"><path class="a" d="M-4624.842,2303.146s-6.929-43.542,22.033-49.79a45.8,45.8,0,0,1,45.083,14.741s16.748,23.913,9.571,38.993-19.047,28.59-36.93,28.847-33.168-8.572-36.229-19.936S-4624.842,2303.146-4624.842,2303.146Z" transform="translate(5197 -614)"></path><path d="M2418.923,77.133c.3.9.555,1.733.769,2.58.379,1.5.761,3,1.083,4.513.273,1.288.461,2.593.685,3.891a1.575,1.575,0,0,1,0,.225c.075,2.789.3,5.584.17,8.363a42.338,42.338,0,0,1-.562,4.92,40.068,40.068,0,0,1-1.633,6.443,32.145,32.145,0,0,1-1.909,3.945,28.266,28.266,0,0,1-3,4.626,33.114,33.114,0,0,1-2.955,3.4c-.574.563-1.016,1.267-1.612,1.8a42.393,42.393,0,0,1-8.6,6.451c-1.888.979-3.751,2.01-5.671,2.919a40.512,40.512,0,0,1-7.2,2.483c-1.707.443-3.438.8-5.172,1.125-.892.166-1.82.126-2.722.249-3.534.48-7.082.128-10.623.2a17.709,17.709,0,0,1-4.874-.741,34.947,34.947,0,0,1-7.7-3.2,50.75,50.75,0,0,1-6.654-4.368,47.214,47.214,0,0,1-6.234-5.608,66.014,66.014,0,0,1-4.533-5.545,51.115,51.115,0,0,1-4.688-8.334,30.7,30.7,0,0,1-2.273-6.728,49.206,49.206,0,0,1-.954-5.712c-.1-1.027-.09-2.049-.171-3.07a3.935,3.935,0,0,0-.206-1.834.99.99,0,0,1,0-.773,6.641,6.641,0,0,0,.207-2.507,44.081,44.081,0,0,1,.858-6.289,39.455,39.455,0,0,1,1.871-6.456,42.6,42.6,0,0,1,3.263-7,59.361,59.361,0,0,1,3.265-5.072c.636-.868,1.263-1.744,1.944-2.576a41.192,41.192,0,0,1,2.8-3.232c1.2-1.187,2.5-2.269,3.79-3.36a35.729,35.729,0,0,1,3.479-2.772c1.579-1.029,3.262-1.905,4.926-2.8a68.418,68.418,0,0,1,11.972-4.853,13.277,13.277,0,0,1,5.446-1.022,3.833,3.833,0,0,1,.561.014,1.842,1.842,0,0,1,.45.273,2.594,2.594,0,0,1-.3.387c-.069.063-.208.044-.294.1a1.471,1.471,0,0,0-.242.234,1.057,1.057,0,0,0,.37.119,12.645,12.645,0,0,1,2.273-.191c1.4.148,2.815.22,4.219.382a31.158,31.158,0,0,1,5.28,1.172,42.918,42.918,0,0,1,9.4,4.262,30.452,30.452,0,0,1,5.39,3.854,58,58,0,0,1,4.507,4.327,41.358,41.358,0,0,1,4.7,6.377c1.021,1.758,2,3.538,3,5.305,1.189,2.1,2.112,4.313,3.087,6.506.366.824.645,1.687,1.02,2.588M2363.813,48.2a24.61,24.61,0,0,0-5.3,2.713,37.181,37.181,0,0,0-5.841,4.4,28.3,28.3,0,0,0-2.559,2.769,42.886,42.886,0,0,0-2.7,3.394,38.564,38.564,0,0,0-3.072,4.93,70.31,70.31,0,0,0-2.67,6.673,26.659,26.659,0,0,0-1.175,4.132c-.266,1.4-.553,2.8-.776,4.215a34.414,34.414,0,0,0-.548,4.695,69.775,69.775,0,0,0,.138,9.948c.153,1.215.272,2.433.459,3.648a36.987,36.987,0,0,0,1.583,6.117c.564,1.684,1.273,3.305,1.956,4.943a54.189,54.189,0,0,0,3.724,6.8,41.129,41.129,0,0,0,3.626,4.829,23.991,23.991,0,0,0,4.6,4.126,40.591,40.591,0,0,0,5.836,3.082,8.527,8.527,0,0,0,1.963.7,61.255,61.255,0,0,0,6.874,1.435,23.669,23.669,0,0,1,4.119.342,6.5,6.5,0,0,0,1.926-.178,21.451,21.451,0,0,0,3.858-.216c1.008-.236,2.051-.328,3.081-.467a51.572,51.572,0,0,0,17.815-6.551,37.706,37.706,0,0,0,6.972-5.511,49.169,49.169,0,0,0,3.607-4.028,36.527,36.527,0,0,0,3.377-5.153,25.255,25.255,0,0,0,2.313-6.608,32.77,32.77,0,0,0,.823-6.292,42.467,42.467,0,0,0-.151-6.793c-.186-1.281-.312-2.58-.462-3.871a38.053,38.053,0,0,0-1.438-6.525,58.8,58.8,0,0,0-3.469-8.71c-1.04-2.142-2.243-4.192-3.446-6.248a41.956,41.956,0,0,0-5.19-7.083,36.508,36.508,0,0,0-6.76-5.956,41.714,41.714,0,0,0-6.552-3.808,32.438,32.438,0,0,0-11.236-2.827,35.835,35.835,0,0,0-6.813.416,33.249,33.249,0,0,0-4.617,1.127c-1.254.42-2.506.85-3.871,1.388m-28.768,33.731a12.387,12.387,0,0,1-.252,2.381c-.441,1.468.006,2.981-.385,4.456-.164.62.173,1.356.174,2.039a39.821,39.821,0,0,0,.42,5.685,34.4,34.4,0,0,0,1.1,4.971,43.934,43.934,0,0,0,1.826,5.108c.786,1.788,1.737,3.488,2.535,5.265.043.1.2.145.3.216.015-.147.085-.318.034-.437-.3-.7-.635-1.391-.947-2.09a33.465,33.465,0,0,1-2.1-6.576c-.278-1.288-.555-2.57-.719-3.888-.17-1.367-.256-2.739-.4-4.106a15.935,15.935,0,0,1-.01-2.029c.07-2.977.137-5.954.231-8.93a16.108,16.108,0,0,1,.226-2.161c.194-1.153.436-2.3.67-3.443.241-1.177.42-2.374.764-3.521.509-1.7,1.134-3.363,1.718-5.04a26.683,26.683,0,0,1,3.284-6.763,7.792,7.792,0,0,0,.546-1.013c.029-.057,0-.145-.008-.218-.08.013-.178,0-.236.044a1.249,1.249,0,0,0-.319.316c-1.228,1.972-2.516,3.911-3.651,5.935a44.165,44.165,0,0,0-2.162,4.629,31.045,31.045,0,0,0-1.75,5.368C2335.681,79.326,2335.347,80.51,2335.046,81.927Z" transform="translate(-1771.526 1584.615)"></path><path d="M2563.637,236.185a14.574,14.574,0,0,0,.022,2.477c.364,2,.005,4.017.244,6,.156,1.294.014,2.593.221,3.854.188,1.144.051,2.287.209,3.406.427,3.012.13,6.032.179,9.047a13.536,13.536,0,0,1-.441,3.08c-.207.94-.372,1.013-1.208.556a1.85,1.85,0,0,0-1.5.045,15.656,15.656,0,0,1-3.073.2,5.409,5.409,0,0,0-1.844.171c-.313.129-.839-.237-1.26-.4a37.836,37.836,0,0,1-5.989-3.513c-2.459-1.518-4.89-3.082-7.338-4.619-3.222-2.024-6.44-4.054-9.675-6.057-1.4-.868-2.842-1.67-4.258-2.514-.238-.142-.4-.337-.393.158.014,2.933-.171,5.88.065,8.794.175,2.16.082,4.3.158,6.454.048,1.369-.56,2.052-1.91,2.678a8.831,8.831,0,0,1-3.475.866c-1.021.033-1.415-.325-1.6-1.336a1.688,1.688,0,0,1,0-.225c-.075-1.774-.069-3.555-.246-5.319-.227-2.263-.032-4.541-.258-6.784-.164-1.634-.1-3.252-.171-4.875-.034-.748-.094-.789-.809-.864a26.723,26.723,0,0,1-3.639-.483,7.751,7.751,0,0,1-2-1.13.4.4,0,0,1-.01-.36c.465-.288.309-.618.159-1.01a2.93,2.93,0,0,1-.019-.783,10.154,10.154,0,0,0-.18-2.4,1.81,1.81,0,0,1,.147-1.606c.125-.177.035-.508.035-.769,0-1.692-.039-3.385.021-5.075a9.581,9.581,0,0,1,.43-1.844.975.975,0,0,1,1.134-.784,19.62,19.62,0,0,1,3.71.061c1.45.32,2.928-.147,4.347.369.252.092.665-.166.969-.327,1.328-.7,2.661-1.4,3.957-2.155,1.579-.923,3.118-1.914,4.683-2.861,1.532-.927,3.058-1.864,4.617-2.744,2.5-1.414,5.056-2.74,7.452-4.345,1.518-1.017,3.109-1.927,4.669-2.881,1.14-.7,2.285-1.382,3.426-2.076a3.414,3.414,0,0,1,2-.646c1.125.055,2.256-.015,3.383.022s2.272.114,3.4.226a1.451,1.451,0,0,1,1.192,1.936,8.351,8.351,0,0,0,0,4.009,1.793,1.793,0,0,1,.028.327c.076,1.548.181,3.1.22,4.644.094,3.766.157,7.533.232,11.413M2536,249.271c.726.426,1.465.832,2.177,1.28,2.3,1.445,4.548,2.974,6.89,4.344a65.114,65.114,0,0,1,9.467,6.565,1.962,1.962,0,0,0,1.163.421c.758.009,1.515-.16,2.275-.192.9-.038,1.8,0,2.707-.011s.95-.032.922-.959c-.047-1.587-.143-3.172-.218-4.757a.4.4,0,0,0,0-.112c-.516-1.365-.274-2.82-.387-4.218-.306-3.788.124-7.6-.261-11.41-.254-2.51.182-5.055-.236-7.577-.16-.968,0-1.959-.2-2.958a29.582,29.582,0,0,1-.224-3.286c-.212-2.514-.2-5.048-.267-7.574-.013-.451,0-.9,0-1.354,0-1.138,0-1.14-1.084-1.144-1.015,0-2.031-.028-3.045.012a2.976,2.976,0,0,0-1.227.29c-.932.486-1.791,1.116-2.737,1.567a86.343,86.343,0,0,0-7.69,4.573c-2.59,1.584-5.109,3.285-7.662,4.93a79.442,79.442,0,0,1-7.175,4.192c-.355.18-.75.212-.8.8-.026.294-.462.589-.968.57-1.314-.049-2.632-.045-3.947-.006a14.055,14.055,0,0,0-2.377.251c-1.168.238-2.314.584-3.474.863-1.057.254-1.132.334-1.133,1.456,0,.752.006,1.5,0,2.256,0,.254-.047.507-.066.761a7.556,7.556,0,0,0-.112,2.18,17.745,17.745,0,0,1,.376,2.872c.09,1.271-.038,1.359,1.4,1.307.74-.027,1.651.2,2.18-.148.933-.616,1.316.358,1.977.374.038,0,.076,0,.113,0,1.059.075,2.119.148,3.177.228a2.909,2.909,0,0,1,.413.09c.5.113,1.012.637,1.488-.072.048-.072.285-.009.433-.022a5.743,5.743,0,0,1,3.278.8c1.6.86,3.168,1.8,4.862,2.813m-9.7,15.117a10.961,10.961,0,0,0-.077-3.358,48.286,48.286,0,0,1-.256-4.861c-.032-.976,0-1.953-.009-2.93,0-.254-.048-.507-.061-.762a29.661,29.661,0,0,1-.132-3.313c.053-.862-.07-1.191-.937-1.245a7.228,7.228,0,0,1-2.392-.213c-.4-.163-.6.075-.541.524.092.68.179,1.363.225,2.048.083,1.245.086,2.494.174,3.742.158,2.249.4,4.475.7,6.708a35.954,35.954,0,0,0,.953,3.675c.125.515.529.622,1.143.436a8.213,8.213,0,0,0,1.212-.451m35.085-47.946c-.5-.326-.451.051-.451.356q0,2.76,0,5.519a1.207,1.207,0,0,0,.017.443c.054.128.2.217.307.323.042-.123.156-.281.115-.365a6.155,6.155,0,0,1-.18-2.319,12.789,12.789,0,0,1,.191-3.959m-38.921,47.043c-.051-.352-.08-.708-.164-1.052-.028-.113-.2-.191-.3-.285a.872.872,0,0,0-.091.3q.1,1.3.225,2.589a.459.459,0,0,0,.135.274,1.96,1.96,0,0,0,.358.209c.06-.112.179-.229.169-.334a8.957,8.957,0,0,0-.328-1.7m-5.641-30.685-.278.4c.149.093.3.26.448.26a2.015,2.015,0,0,0,.583-.205c.153-.053.311-.09.468-.135a1.7,1.7,0,0,0-.436-.306,3.427,3.427,0,0,0-.785-.012m44.11-8.912v.217c.15-.11.345-.193.434-.34.049-.081-.079-.269-.127-.409A1.078,1.078,0,0,0,2560.929,223.888Z" transform="translate(-1932.88 1431.824)"></path></g></svg>