<svg xmlns="http://www.w3.org/2000/svg" width="67.371" height="107.682" viewBox="0 0 67.371 107.682"><defs><style>.a{fill:#f28f84;opacity:0.684;}</style></defs><g transform="translate(-1144.155 -1621.318)"><path class="a" d="M-4047.431,2279.979s-.479-5.46.733-5.46,40.006-1.355,40.006-1.355l16.7.589,3.03,1.773-.918,3.93s3.162,2.379,0,4.9-20.734,22.257-20.734,22.257-1.1,15.491-1.258,15.937-12.139,11.667-12.139,11.667l-.9-3.082v-23.021Z" transform="translate(5198 -621)"></path><path d="M1311.724,84.285a8.688,8.688,0,0,1,7.466-4.688,8.573,8.573,0,0,1,6.671,3.328,5.092,5.092,0,0,1,1.215,4.1c-.023.114.159.322.295.4.12.068.309.014.467.014a19.745,19.745,0,0,1,4.2.467,3.891,3.891,0,0,0,.83.008c1.943-.007,2.3.885,1.9,2.294-.271.954.324,1.711.08,2.559-.012.04.141.118.137.172-.112,1.55.736,3.08.1,4.644a.82.82,0,0,0,0,.471c.251,1.024-.409,1.753-.891,2.482-.852,1.289-1.818,2.5-2.758,3.734-.42.549-.88,1.069-1.342,1.584-.859.956-1.75,1.884-2.6,2.848-1.581,1.8-3.135,3.614-4.714,5.413-.365.416-.78.788-1.172,1.18-2.689,2.689-5.371,5.386-8.075,8.06a3.134,3.134,0,0,0-.821,1.688c-.3,1.35-.067,2.726-.251,4.061-.269,1.952.018,3.927-.278,5.837-.168,1.085.171,2.234-.387,3.27-.049.091.117.35.241.474.368.368.275.657-.06.99-1.912,1.9-3.785,3.836-5.728,5.7-1.368,1.313-2.816,2.545-4.254,3.784-.48.414-1.069.7-1.555,1.108a4.147,4.147,0,0,1-2.941.66.9.9,0,0,1-.919-.728,13.372,13.372,0,0,1-.255-1.8c-.368-3.089-.1-6.2-.292-9.287-.079-1.274-.1-2.553-.195-3.826-.118-1.562-.229-3.131-.481-4.674a45.135,45.135,0,0,0-2.787-10.489,12.562,12.562,0,0,0-2.807-4.426,50.274,50.274,0,0,1-3.813-4.467c-1.133-1.358-2.514-2.506-3.735-3.8-1.862-1.968-4.079-3.622-5.4-6.078-.162-.3-.5-.5-.74-.766-1.265-1.415-2.532-2.829-3.773-4.265a1.217,1.217,0,0,1-.221-.732c-.02-1.465-.032-2.932,0-4.4a16.551,16.551,0,0,1,.228-1.8c.01-.074,0-.184.048-.213.652-.429,1.311-.847,1.969-1.268.529.416,1.085.07,1.581-.026,1.715-.332,3.469-.3,5.182-.664a10.571,10.571,0,0,1,2.134-.024,4.282,4.282,0,0,0,.829-.013,2.279,2.279,0,0,0,.583-.307c-.167-.112-.336-.221-.5-.337a6.988,6.988,0,0,1-.821-.593c-.6-.571-1.179-1.174-1.771-1.758a11.609,11.609,0,0,1-2.595-3.2c-.175-.37-.592-.617-.843-.962a2.34,2.34,0,0,1,.361-2.427c1.224-1.4,2.449-2.8,3.7-4.172,1.158-1.273,2.331-2.533,3.533-3.763a19.869,19.869,0,0,1,1.831-1.6,1.422,1.422,0,0,1,2.026.119,10.073,10.073,0,0,1,2.469,3.377c.59,1.21,1.7,1.882,2.578,2.8.716.747,1.466,1.462,2.194,2.2.386.39.75.8,1.133,1.193.992,1.015,1.075,1.79.1,2.845a30.575,30.575,0,0,1-5.293,4.705c-.4.273-.8.557-1.187.859a1.232,1.232,0,0,0-.222.379c.159.062.322.188.476.177.958-.068,1.94.213,2.879-.214a1.861,1.861,0,0,1,.707-.013c2.139,0,4.279-.03,6.418.008,2.7.048,5.4.159,8.1.226.931.023.9-.008,1.163-.951a9.056,9.056,0,0,1,.643-1.482m20.031,11.829c.079-.918.144-1.839.243-2.755a12.376,12.376,0,0,1,.267-1.553c.283-1.176-.265-1.77-1.381-1.484a4.585,4.585,0,0,1-1.1.2,73.971,73.971,0,0,1-10.388-.432,55.417,55.417,0,0,0-5.723-.213c-5.066-.173-10.143-.114-15.214-.043-5.039.071-10.081-.261-15.12.2-2.293.21-4.608.185-6.913.258-.888.028-1.2.316-1.253,1.236a3.88,3.88,0,0,1-.048,1.051,3.74,3.74,0,0,0,1.041,4.041c1.674,1.82,3.423,3.572,5.114,5.377,1.894,2.021,3.743,4.082,5.64,6.1,1.857,1.975,3.744,3.923,5.63,5.871.937.968,1.907,1.9,2.853,2.863a5.258,5.258,0,0,1,.916,1.047c.872,1.576,1.753,3.152,2.508,4.785a5.857,5.857,0,0,1,.6,2.724c-.13,2.779.145,5.558-.192,8.347a30.278,30.278,0,0,0,.186,4.77,22.529,22.529,0,0,0,.244,4.774,6.533,6.533,0,0,0,.224.62,3.5,3.5,0,0,0-.553-.066c-.052,0-.142.142-.144.221a16.032,16.032,0,0,1-.243,3.943c-.01.037-.011.11,0,.114.144.044.366.159.426.1,1.018-.958,1.994-1.954,3.077-2.85,1.293-1.07,2.453-2.3,3.706-3.42.825-.738,1.726-1.392,2.564-2.117.348-.3.8-.647.891-1.046a19.419,19.419,0,0,0,.493-3.362c.133-2.461.288-4.929.222-7.389a14.866,14.866,0,0,1,1.609-6.361c.866-2,2.485-3.5,3.782-5.2.907-1.195,1.948-2.289,2.928-3.428q2.186-2.542,4.372-5.083c1.033-1.2,2.075-2.389,3.109-3.587,1.487-1.721,2.9-3.515,4.485-5.139a3.293,3.293,0,0,0,1.147-3.107m-46.007-23.182c-.587.587-1.161,1.19-1.765,1.759-.934.88-1.965,1.671-2.807,2.63a3.986,3.986,0,0,0-.945,2.066c-.045.409.557.957.967,1.336,1.362,1.26,2.766,2.474,4.158,3.7q.91.8,1.832,1.594c.73.626,1.113.595,1.878.014.985-.749,2.021-1.431,3.015-2.168a18.726,18.726,0,0,0,4.052-3.942c.257-.352.284-.58-.01-.907-1.242-1.379-2.434-2.8-3.706-4.154a25.29,25.29,0,0,0-3.733-3.526c-.572-.4-.876-.439-1.387.052-.485.466-.953.949-1.548,1.544m27.7,13.671a10.18,10.18,0,0,0,1.748.341,69.876,69.876,0,0,1,7.01.238,14.632,14.632,0,0,0,2.11-.033c-.231-.753-.429-1.52-.708-2.255a4.9,4.9,0,0,0-.651-1.032,5.118,5.118,0,0,0-2.382-2.087,6.08,6.08,0,0,0-4.111.095,4.056,4.056,0,0,0-2.775,2.966,6.973,6.973,0,0,0-.241,1.767m16.762,15.335c-1.593,1.831-3.167,3.68-4.785,5.488-1.737,1.941-3.513,3.848-5.279,5.762-1.111,1.2-2.242,2.39-3.35,3.6-.467.508-.906,1.043-1.336,1.583-.07.088-.031.263-.042.4a1.047,1.047,0,0,0,.249-.15c.9-.97,1.79-1.947,2.687-2.918,1-1.088,2.019-2.165,3.017-3.259q2.274-2.493,4.529-5,1.979-2.2,3.94-4.418c.379-.429.73-.882,1.09-1.327a.529.529,0,0,0,.057-.166c-.107-.014-.24-.074-.316-.031a3.007,3.007,0,0,0-.46.444m-4.4-16.049c-.2-.513-.384-1.029-.594-1.536-.04-.1-.162-.161-.246-.24-.037.1-.127.221-.1.308a7.06,7.06,0,0,1,.5,2.421c-.012.155.457.524.629.482.511-.123.013-.457.033-.7.013-.158-.141-.329-.221-.732M1289.2,69.722c-.305-.2-.6-.406-.921-.584-.049-.027-.23.068-.254.138a.324.324,0,0,0,.088.3c.364.234.742.446,1.123.651.041.022.2-.065.192-.081a1.076,1.076,0,0,0-.228-.42m6.063,51c-.12,0-.285-.486-.33-.031a4.234,4.234,0,0,0,.222,1.311c.015.066.181.144.267.133s.2-.148.187-.212A5.015,5.015,0,0,0,1295.259,120.721Z" transform="translate(-127.912 1561.672)"></path><path d="M1497.265,6.094c-.367-.526-.678-.991-.983-1.459-.487-.748-1.019-1.472-1.442-2.255A1.608,1.608,0,0,1,1496.148,0a52.167,52.167,0,0,1,5.373.145c2.178.251,4.266.824,6.383,1.284a42.669,42.669,0,0,1,4.722,1.49c1.28.439,2.539.943,3.806,1.421.1.039.2.142.294.142.444,0,.892-.021.924.6a1.656,1.656,0,0,1-.813,1.315,1.7,1.7,0,0,0-.49.244c-.872.774-1.715,1.581-2.6,2.341-.809.7-1.638,1.373-2.491,2.015-1.11.836-2.235,1.657-3.389,2.431a20.921,20.921,0,0,1-2.123,1.179,2.318,2.318,0,0,1-1.87-.711,8.955,8.955,0,0,0-.593-.821,55.828,55.828,0,0,1-5.542-6.5,4.063,4.063,0,0,0-.475-.482m17.772-.535a34.768,34.768,0,0,0-7.7-2.036c-1.206-.239-2.429-.347-3.63-.659a12.068,12.068,0,0,0-3.211-.256c-1.209.021-1.46.361-1.381,1.544a1.517,1.517,0,0,0,.262.715c.424.621.881,1.22,1.334,1.821.75.995,1.489,2,2.266,2.972s1.615,1.941,2.426,2.91c.2.237.346.316.667.076,1.349-1.01,2.751-1.95,4.107-2.951,1.64-1.209,3.255-2.451,4.874-3.689.074-.057.07-.217-.016-.447m-18.07-3.566c.159.171.391.316.461.518.172.494.265.544.5.03a5.281,5.281,0,0,1,.625-.861c-.388-.014-.777-.04-1.165-.037C1497.25,1.643,1497.109,1.715,1496.968,1.992Z" transform="translate(-324.033 1621.318)"></path><path d="M1495.249,782.8a9.924,9.924,0,0,1,2.712-2.25,5.52,5.52,0,0,1,4.75.056,7.026,7.026,0,0,1,3.614,3.443,18.628,18.628,0,0,1,.868,2.962c.05.181.034.379.083.56.2.738.05,1.066-.647,1.477a1.157,1.157,0,0,0-.379.418,5.807,5.807,0,0,1-1.69,1.914,23.994,23.994,0,0,0-1.8,1.952,5.275,5.275,0,0,1-3.937,1.649,4.442,4.442,0,0,1-2.447-.96,6.689,6.689,0,0,1-2.671-4.451c-.265-2.176-.25-4.442,1.313-6.31.089-.107.116-.267.231-.461m6.717,8.5a5.462,5.462,0,0,0,2.378-1.948c1.1-1.566,1.48-2.926-.134-4.607a4.869,4.869,0,0,0-3.568-1.432,3.323,3.323,0,0,0-3.447,3.451,8.423,8.423,0,0,0,.981,3.513,2.689,2.689,0,0,0,2.82,1.375,3.531,3.531,0,0,0,.97-.352m-6.9-4.517a7.7,7.7,0,0,0,.948,4.349c.7,1.226,1.556,2.214,3.124,2.185a2.075,2.075,0,0,0,.431-.1,2.457,2.457,0,0,0-.462-.246,3.415,3.415,0,0,1-2.107-1.445c-1.159-2.046-1.763-4.22-.838-6.561a1.2,1.2,0,0,0,.01-.4c-.131.072-.343.114-.381.219C1495.572,785.4,1495.388,786.038,1495.071,786.786Z" transform="translate(-323.088 934.006)"></path></g></svg>