<svg width="104" height="24" viewBox="0 0 104 24" fill="none" xmlns="http://www.w3.org/2000/svg">
<g clip-path="url(#clip0_9141_29212)">
<path d="M81.5449 9.32314C84.7819 6.56214 87.8449 6.66914 89.5739 9.58714C90.4842 8.40034 91.8218 7.61567 93.3019 7.40014C96.2379 7.04214 98.0089 8.34514 98.3019 11.2731C98.5819 14.1141 98.3669 16.9731 98.4189 19.8201C98.4279 20.3141 98.2599 20.6851 97.7109 20.6791C97.0739 20.6791 97.1379 20.1791 97.1379 19.7491V12.7991C97.1379 12.5131 97.1509 12.2261 97.1309 11.9401C96.9669 9.59214 95.9589 8.50414 94.0069 8.56514C92.9622 8.57421 91.9602 8.98065 91.2044 9.70189C90.4487 10.4231 89.9958 11.405 89.9379 12.4481C89.9079 14.8341 89.9379 17.2201 89.9279 19.6121C89.9279 20.0621 90.0339 20.6421 89.3549 20.6621C88.6469 20.6861 88.6419 20.1251 88.6429 19.6001C88.6476 17.0341 88.6476 14.4675 88.6429 11.9001C88.6429 10.6341 88.4519 9.40014 87.1209 8.86714C86.4668 8.56478 85.7358 8.46979 85.0262 8.59492C84.3165 8.72005 83.6622 9.0593 83.1509 9.56714C82.6436 10.019 82.2385 10.5738 81.9626 11.1946C81.6867 11.8153 81.5463 12.4878 81.5509 13.1671C81.5509 15.3411 81.5509 17.5151 81.5509 19.6901C81.5509 20.1541 81.6239 20.6901 80.9189 20.6761C80.2559 20.6621 80.2639 20.1641 80.2649 19.6761C80.2689 16.0048 80.2709 12.3338 80.2709 8.66314C80.2709 8.18614 80.1069 7.58014 80.8989 7.56814C81.6909 7.55614 81.5379 8.15814 81.5519 8.64014C81.5499 8.82714 81.5449 9.00514 81.5449 9.32314Z" fill="#DDDDDD"/>
<path d="M57.1683 20.8931C56.7059 20.8915 56.2449 20.8429 55.7923 20.7481C55.05 20.6053 54.3656 20.2487 53.8233 19.7221C53.316 19.2207 52.9848 18.5685 52.8793 17.8631C52.7489 17.1061 52.8555 16.3273 53.1843 15.6331C53.5341 14.9417 54.0882 14.3747 54.7713 14.0091C56.2035 13.2893 57.8003 12.9603 59.4003 13.0551H60.3083C60.9083 13.0551 61.2373 13.0221 61.4083 12.8381C61.6183 12.6121 61.5863 12.1601 61.5213 11.2601C61.3983 9.59008 60.1713 8.60908 58.1553 8.57808H58.0553C57.2514 8.52602 56.4538 8.75044 55.795 9.2141C55.1362 9.67775 54.6557 10.3528 54.4333 11.1271C54.3989 11.2823 54.3101 11.4202 54.1831 11.5159C54.0561 11.6116 53.8991 11.6588 53.7403 11.6491C53.6711 11.6482 53.602 11.6435 53.5333 11.6351C53.4672 11.6348 53.4018 11.6206 53.3415 11.5934C53.2812 11.5661 53.2273 11.5265 53.1833 11.4771C53.1477 11.3974 53.1285 11.3114 53.1268 11.2241C53.1251 11.1368 53.1409 11.0501 53.1733 10.9691C53.1843 10.9171 53.1963 10.8691 53.2043 10.8201C53.279 10.3089 53.4632 9.81993 53.7444 9.38655C54.0256 8.95317 54.397 8.58564 54.8333 8.30908C55.7867 7.66758 56.9073 7.31988 58.0563 7.30908C58.9464 7.3202 59.8243 7.51779 60.6333 7.88908C62.1113 8.54408 62.8333 9.83208 62.8333 11.8271V14.0831C62.8333 15.3741 62.8333 16.7101 62.8413 18.0231C62.8384 18.557 62.888 19.0899 62.9893 19.6141C62.9993 19.6601 63.0093 19.7141 63.0193 19.7501C63.1073 19.972 63.1073 20.2191 63.0193 20.4411C62.9658 20.5094 62.8993 20.5664 62.8236 20.6088C62.7479 20.6512 62.6645 20.6782 62.5783 20.6881C62.4956 20.7069 62.4111 20.717 62.3263 20.7181C61.8263 20.7181 61.7083 20.2991 61.6583 19.8471L61.6243 19.5521L61.5713 19.0991C60.3799 20.226 58.8109 20.8678 57.1713 20.8991L57.1683 20.8931ZM59.0773 14.3331C58.8313 14.3331 58.6273 14.3391 58.4343 14.3521C57.8146 14.3826 57.1997 14.4768 56.5993 14.6331C55.9954 14.7943 55.4349 15.0877 54.9583 15.4921C54.6795 15.7199 54.4575 16.0094 54.3098 16.3378C54.1621 16.6661 54.0928 17.0243 54.1073 17.3841C54.1267 17.7059 54.2216 18.0187 54.3843 18.2971C54.5609 18.597 54.8042 18.8523 55.0953 19.0431C55.6932 19.4526 56.4007 19.6722 57.1253 19.6731C57.9374 19.6494 58.733 19.4386 59.4503 19.0571C60.076 18.7786 60.625 18.3528 61.0503 17.8161C61.4562 17.2651 61.6273 16.5759 61.5263 15.8991V15.4331C61.5664 15.122 61.5346 14.8059 61.4333 14.5091C61.3333 14.3661 61.1593 14.3431 60.7653 14.3431H60.0333L59.6573 14.3361C59.4673 14.3361 59.2713 14.3361 59.0793 14.3361L59.0773 14.3331Z" fill="#DDDDDD"/>
<path d="M38.9496 10.7114C40.5306 8.45835 42.0576 6.27935 43.5876 4.10335C43.7281 3.856 43.907 3.63254 44.1176 3.44135C44.2684 3.31271 44.4604 3.24271 44.6586 3.24417C44.8568 3.24564 45.0478 3.31849 45.1966 3.44935C45.5966 3.81535 45.1756 4.09135 44.9906 4.35535C43.4576 6.54135 41.9476 8.74535 40.3536 10.8854C40.2326 11.006 40.1368 11.1495 40.0718 11.3076C40.0068 11.4656 39.9739 11.635 39.9751 11.8059C39.9762 11.9767 40.0113 12.1457 40.0783 12.3029C40.1454 12.46 40.243 12.6023 40.3656 12.7214C42.0116 14.9564 43.5766 17.2514 45.1716 19.5214C45.4086 19.8594 45.8476 20.2544 45.3216 20.5964C44.8666 20.8964 44.4116 20.7114 44.0656 20.2054C42.6596 18.1474 41.2196 16.1144 39.7906 14.0724C38.9426 12.8604 38.9416 12.8604 38.0616 14.1144L34.0176 19.8804C33.8956 20.0554 33.7756 20.2324 33.6436 20.3994C33.5841 20.489 33.5059 20.5648 33.4144 20.6215C33.3229 20.6782 33.2203 20.7145 33.1135 20.7279C33.0067 20.7412 32.8982 20.7314 32.7956 20.6991C32.6929 20.6667 32.5984 20.6126 32.5186 20.5404C32.1186 20.2324 32.4456 19.9024 32.6446 19.6194C34.3016 17.2594 35.9366 14.8834 37.6396 12.5564C37.7412 12.4535 37.8212 12.3314 37.875 12.1973C37.9288 12.0631 37.9553 11.9196 37.953 11.7751C37.9507 11.6306 37.9195 11.488 37.8614 11.3556C37.8033 11.2233 37.7194 11.1039 37.6146 11.0044C36.0336 8.85435 34.5146 6.65935 32.9886 4.46535C32.7816 4.16535 32.1976 3.79735 32.7616 3.40835C33.2616 3.06535 33.7446 3.27335 34.1126 3.80835C35.5036 5.83235 36.9236 7.83735 38.3326 9.84835C38.5026 10.1044 38.6976 10.3534 38.9496 10.7114Z" fill="#DDDDDD"/>
<path d="M71.742 20.9192C71.61 20.9192 71.476 20.9192 71.342 20.9052C70.6382 20.8563 69.9484 20.6843 69.304 20.3972C68.691 20.1234 68.1327 19.7409 67.656 19.2682C67.175 18.7875 66.7838 18.2246 66.501 17.6062C66.2002 16.9443 66.0132 16.2363 65.948 15.5122C65.7871 14.2706 65.8456 13.0104 66.121 11.7892C66.4269 10.5192 67.1334 9.38147 68.136 8.54416C69.1189 7.75182 70.3466 7.32553 71.609 7.33816C71.697 7.33816 71.782 7.33816 71.877 7.34416C72.5489 7.37057 73.2108 7.51581 73.832 7.77316C74.4307 8.02212 74.9802 8.37563 75.455 8.81716C75.9355 9.26589 76.3347 9.79434 76.635 10.3792C76.9533 10.9998 77.1669 11.6689 77.267 12.3592C77.327 12.7592 77.357 13.1692 77.388 13.6002C77.403 13.8102 77.419 14.0282 77.44 14.2542C77.417 14.4452 77.399 14.6422 77.381 14.8542C77.3493 15.3352 77.2855 15.8136 77.19 16.2862C77.0409 16.9534 76.7867 17.5927 76.437 18.1802C76.1065 18.7312 75.6872 19.2238 75.196 19.6382C74.7209 20.0417 74.1796 20.3601 73.596 20.5792C73.0039 20.8033 72.3762 20.9188 71.743 20.9202L71.742 20.9192ZM71.623 8.60716C70.8338 8.59328 70.0577 8.81016 69.39 9.23116C68.7233 9.67933 68.1833 10.2917 67.822 11.0092C67.5655 11.4959 67.3835 12.0184 67.282 12.5592C67.1852 13.0783 67.1364 13.6051 67.136 14.1332C67.146 14.2842 67.152 14.4272 67.158 14.5652C67.171 14.8512 67.184 15.1132 67.215 15.3742C67.3237 16.412 67.7521 17.3904 68.441 18.1742C69.1127 18.9164 70.0156 19.4098 71.003 19.5742C72.009 19.7491 73.0439 19.54 73.903 18.9882C74.5869 18.5494 75.1318 17.9251 75.474 17.1882C75.9333 16.2388 76.1771 15.1997 76.188 14.1452C76.1823 13.0922 75.9433 12.0536 75.488 11.1042C75.1614 10.3627 74.6338 9.72743 73.965 9.27016C73.2871 8.83006 72.4953 8.59786 71.687 8.60216L71.623 8.60716Z" fill="#DDDDDD"/>
<path d="M102.3 14.1631V8.60912C102.3 8.16312 102.171 7.60012 102.881 7.58012C103.549 7.56112 103.549 8.05712 103.549 8.54812C103.545 12.2861 103.545 16.0245 103.549 19.7631C103.549 20.2111 103.549 20.6631 102.942 20.6861C102.242 20.7081 102.293 20.1861 102.293 19.7161C102.299 17.8648 102.301 16.0138 102.3 14.1631Z" fill="#DDDDDD"/>
<path d="M49.6682 14.1462V19.8072C49.6682 20.2672 49.6472 20.7012 49.0322 20.6872C48.4172 20.6732 48.4092 20.2312 48.4102 19.7772V8.45619C48.4102 7.97919 48.4782 7.57219 49.0682 7.57719C49.6912 7.57719 49.6682 8.04019 49.6682 8.48719C49.6642 10.3732 49.6682 12.2592 49.6682 14.1462Z" fill="#DDDDDD"/>
<path d="M103.835 3.91316C103.841 4.58116 103.553 4.90616 102.954 4.93116C102.831 4.95345 102.706 4.94781 102.586 4.91464C102.466 4.88148 102.355 4.82166 102.261 4.73964C102.168 4.65763 102.094 4.55554 102.045 4.441C101.997 4.32646 101.975 4.20243 101.981 4.07816C101.96 3.94589 101.969 3.81055 102.008 3.68232C102.046 3.55409 102.114 3.43629 102.204 3.33776C102.295 3.23923 102.407 3.16253 102.531 3.11341C102.656 3.0643 102.79 3.04404 102.924 3.05416C103.042 3.04198 103.161 3.05541 103.274 3.09354C103.386 3.13166 103.489 3.19359 103.576 3.27511C103.662 3.35662 103.73 3.45581 103.775 3.56591C103.82 3.67602 103.84 3.79446 103.835 3.91316V3.91316Z" fill="#DDDDDD"/>
<path d="M49.9954 4.00108C50.0074 4.12213 49.9933 4.24437 49.9538 4.35945C49.9143 4.47453 49.8505 4.57974 49.7667 4.66792C49.6829 4.7561 49.5811 4.82516 49.4681 4.8704C49.3552 4.91565 49.2339 4.936 49.1124 4.93008C48.9908 4.95417 48.8653 4.95042 48.7454 4.91912C48.6255 4.88782 48.5142 4.82978 48.4199 4.74934C48.3257 4.66891 48.2508 4.56818 48.201 4.45469C48.1512 4.34121 48.1277 4.21792 48.1323 4.09408C48.106 3.96301 48.1101 3.82764 48.1445 3.69844C48.1788 3.56924 48.2425 3.44968 48.3305 3.34902C48.4185 3.24837 48.5284 3.16932 48.6519 3.118C48.7753 3.06668 48.9089 3.04447 49.0423 3.05308C49.1689 3.04651 49.2954 3.06652 49.4137 3.11184C49.5321 3.15715 49.6396 3.22676 49.7294 3.31617C49.8192 3.40557 49.8892 3.5128 49.935 3.63094C49.9808 3.74908 50.0014 3.87551 49.9954 4.00208V4.00108Z" fill="#DDDDDD"/>
<path d="M0.868958 0H23.22C23.4045 0.0785694 23.5695 0.196664 23.7034 0.345947C23.8373 0.495231 23.9368 0.672052 23.9949 0.863983V23.22C23.9182 23.4003 23.805 23.5627 23.6623 23.697C23.5196 23.8312 23.3506 23.9344 23.166 24H0.76593C0.588238 23.9197 0.428859 23.8039 0.297485 23.6599C0.166112 23.5158 0.0655347 23.3463 0.00195312 23.162V0.862C0.0582096 0.654916 0.168249 0.466378 0.320862 0.315521C0.473474 0.164665 0.663251 0.0568467 0.870972 0.00299072L0.868958 0ZM4.44995 7.19998V16.8H6.84998V9.25998C8.44998 9.26898 10.061 9.245 11.665 9.267C11.8881 9.26722 12.1089 9.3115 12.3148 9.39731C12.5207 9.48311 12.7077 9.60874 12.8649 9.767C13.0216 9.92498 13.1456 10.1122 13.2298 10.3181C13.314 10.524 13.3569 10.7445 13.356 10.967C13.384 12.911 13.3559 14.856 13.3669 16.8H15.767V10.119C15.7729 9.73552 15.7019 9.35478 15.5581 8.99924C15.4143 8.64369 15.2007 8.32056 14.9299 8.04898C14.6591 7.77736 14.3365 7.56283 13.9813 7.41803C13.6261 7.27323 13.2455 7.20113 12.8619 7.20599C10.0579 7.18599 7.25395 7.20698 4.44995 7.19998V7.19998ZM17.4789 7.19998V16.8H19.879V7.19998H17.4789ZM8.90698 10.971V16.8H11.3069V10.971H8.90698Z" fill="#DDDDDD"/>
</g>
<defs>
<clipPath id="clip0_9141_29212">
<rect width="103.834" height="24" fill="white"/>
</clipPath>
</defs>
</svg>
