<svg xmlns="http://www.w3.org/2000/svg" width="51.755" height="56" viewBox="0 0 51.755 56"><defs><style>.a{fill:#222;}</style></defs><g transform="translate(-19.407)"><path class="a" d="M243.565,212.077A2.73,2.73,0,0,0,240.912,210H235.7a2.73,2.73,0,0,0-2.653,2.073l-.847,3.4h12.206Z" transform="translate(-189.524 -187.035)"></path><circle class="a" cx="2.734" cy="2.734" r="2.734" transform="translate(46.05 14.219)"></circle><path class="a" d="M64.144,6.384A24.149,24.149,0,0,0,49.426.059a28.516,28.516,0,0,0-9.281.926,21.637,21.637,0,0,0-9.078,4.9c-4.313,3.985-6.552,9.639-6.657,16.806a.533.533,0,0,1-.061.235L19.872,31.58a4.088,4.088,0,0,0,.148,4.046A4.2,4.2,0,0,0,23.61,37.59h1.011v5.394A6.016,6.016,0,0,0,30.636,49h5.516v4.813A2.187,2.187,0,0,0,38.34,56H59.533a2.187,2.187,0,0,0,2.187-2.187V43.6a25.4,25.4,0,0,0,9.442-20.385,22.4,22.4,0,0,0-7.018-16.83ZM39.329,28.323l1.016-4.075a6.006,6.006,0,0,1,3.385-4.04,6.016,6.016,0,1,1,10.111,0,6.005,6.005,0,0,1,3.385,4.04l1.016,4.075a2.734,2.734,0,0,1-2.653,3.4H41.982a2.734,2.734,0,0,1-2.653-3.4Z" transform="translate(0 0)"></path></g></svg>