<svg xmlns="http://www.w3.org/2000/svg" width="76" height="76" viewBox="0 0 76 76"><g id="flow-icon" transform="translate(-1013 -3485)"><circle id="Ellipse_2" data-name="Ellipse 2" cx="38" cy="38" r="38" transform="translate(1013 3485)" fill="#222"></circle><g id="configure" transform="translate(1282 3151.5)"><path id="Path_24600" data-name="Path 24600" d="M-213.011,357.582h-23.015a5.127,5.127,0,0,0-4.726-3.082,5.171,5.171,0,0,0-4.726,3.082H-250v4.11h4.521a5.127,5.127,0,0,0,4.726,3.082,5.17,5.17,0,0,0,4.726-3.082h23.015Z" fill="#fff"></path><path id="Path_24601" data-name="Path 24601" d="M-213.011,387.582h-4.356a5.127,5.127,0,0,0-4.726-3.082,5.171,5.171,0,0,0-4.726,3.082H-250v4.11h23.221a5.127,5.127,0,0,0,4.726,3.082,5.17,5.17,0,0,0,4.726-3.082h4.356v-4.11Z" transform="translate(0 -17.67)" fill="#fff"></path><path id="Path_24602" data-name="Path 24602" d="M-213.011,417.582h-17.467A5.127,5.127,0,0,0-235.2,414.5a5.17,5.17,0,0,0-4.726,3.082H-250v4.11h10.069a5.127,5.127,0,0,0,4.726,3.082,5.17,5.17,0,0,0,4.726-3.082h17.467Z" transform="translate(0 -35.341)" fill="#fff"></path></g></g></svg>