<svg xmlns="http://www.w3.org/2000/svg" width="336.847" height="291.156" viewBox="0 0 336.847 291.156"><defs><style>.a{fill:#f0aea6;}.b{fill:#b2d4fe;}.c{fill:#e6c87f;}.d{fill:#b7e7e5;}</style></defs><g transform="translate(-869 -192.244)"><path class="a" d="M-1104.591,1082.05c5.5-7.9-49.69,17.477-49.69,17.477h22.341s-44.823,34.085-46.56,40.875,34.7-8.648,34.7-8.648-36.968,29.789-48.66,29.352-4.52,3.179-4.52,3.179,54.231-2.529,72.045-10.554-15.232,16.82-15.232,16.82,46.026-15.689,53.494-25.246,9.891-4.9,9.891-4.9S-1110.092,1089.947-1104.591,1082.05Z" transform="translate(2071 -699)"/><path class="b" d="M-913.166,1144.333s-10.324-27.173,0-35.16,32.412-2.667,36.142.839,15.588,10.116,10.713,22.938-15.825,26.126-29.272,21.481S-913.166,1144.333-913.166,1144.333Z" transform="translate(2071 -699)"/><path class="c" d="M-1145.116,1000.209c.97-4.045-1.426-10.077,0-11.693s6.953-11.719,15.161-12.735,6.994-2.976,10.983-.993a47.668,47.668,0,0,1,8.355,5.809s10.677,12.191,3.608,21.223-19.584,13.59-19.584,13.59l-10.961-2.313S-1146.086,1004.254-1145.116,1000.209Z" transform="translate(2071 -699)"/><path d="M32.541,444.933c1.593-.812,3.051-1.618,4.5-2.437,1.713-.968,3.452-1.894,5.12-2.935,2.053-1.281,4.033-2.679,6.066-3.993a36.467,36.467,0,0,0,6.137-5.456c.157-.161.151-.482.221-.729a2.468,2.468,0,0,0-.824-.007c-2.883,1.02-5.753,2.079-8.635,3.1-3.964,1.408-7.984,2.675-11.889,4.232-2.886,1.151-5.834,2.1-8.749,3.156a6.47,6.47,0,0,1-2.186.352,1.287,1.287,0,0,1-1.437-1.057c-.117-1.054-.623-2.01.029-3.21a34.569,34.569,0,0,1,3.28-4.832,75.513,75.513,0,0,1,5.832-6.685c2.25-2.258,4.378-4.64,6.65-6.876,1.8-1.767,3.661-3.479,5.62-5.06,2.288-1.846,4.575-3.692,6.953-5.437,3.263-2.4,6.6-4.668,9.992-6.858,1.265-.816,2.552-1.6,3.831-2.393a2.235,2.235,0,0,1,.347-.143c-.13-.13-.239-.322-.395-.374a2.139,2.139,0,0,0-.675-.035,17.318,17.318,0,0,0-3.772.532c-.813.187-1.67.17-2.5.3-1.33.21-2.652.467-3.978.7a10.964,10.964,0,0,1-2.179.351,2.408,2.408,0,0,1-1.355-.661,1.256,1.256,0,0,0-1.438-.265,21.609,21.609,0,0,1-3.743.915c-.393.055-.906-.449-1.3-.775-.494-.408-.067-.913.145-1.167a10.736,10.736,0,0,1,1.945-1.851,49.784,49.784,0,0,1,7.954-4.408c3.073-1.443,6.226-2.7,9.4-3.919,2.549-.979,5.15-1.774,7.741-2.59,3.1-.976,6.23-1.849,9.384-2.654,3.5-.893,6.873-2.25,10.334-3.3a22.7,22.7,0,0,1,5.375-1.341,6.241,6.241,0,0,0,1.126-.265l.726-.182c-.043-.12-.06-.323-.133-.346a3.07,3.07,0,0,0-.936-.177c-.191,0-.37.208-.57.267-.239.071-.547.193-.736.1-2.829-1.333-5.9-1.952-8.833-2.958-5.594-1.916-11.219-3.745-16.835-5.6-3.367-1.11-6.752-2.153-10.206-2.977-2.5-.6-4.958-1.333-7.439-1.992-2.36-.627-4.72-1.253-7.089-1.846-2.292-.574-4.586-1.148-6.9-1.645-1.616-.348-3.265-.535-4.889-.849-1.565-.3-3.112-.7-4.675-1.014-1.193-.241-2.4-.426-3.6-.63a41.9,41.9,0,0,1-4.486-.806,20.165,20.165,0,0,0-2.359-.3c-1.634-.258-3.26-.568-4.9-.815-1.435-.216-2.882-.346-4.317-.565-1.59-.243-3.169-.557-4.758-.81-.4-.064-.828.02-1.238-.016-.683-.06-1.054-.6-.725-1.052a.837.837,0,0,1,.584-.306c3.261-.019,6.535-.191,9.778.051a34.478,34.478,0,0,1,6.144.739,27.549,27.549,0,0,0,2.772.308c1.5.228,3,.516,4.5.771.689.117,1.38.219,2.071.322a55.769,55.769,0,0,1,6.027,1.075c1.263.332,2.6.37,3.9.585,1.541.256,3.08.53,4.607.853s3.013.7,4.515,1.072q4.873,1.2,9.742,2.428c2.621.656,5.245,1.3,7.859,1.986,1.611.422,3.217.869,4.8,1.379,4.5,1.447,8.994,2.9,13.466,4.415,2.572.874,5.1,1.872,7.64,2.843,2.259.864,4.5,1.771,6.756,2.649.137.053.47.611.437-.057a50.557,50.557,0,0,0-.17-5.835,13.455,13.455,0,0,1,.275-3.686c.094-.769.4-1.519.441-2.287.088-1.688,1-3.084,1.483-4.628a4.33,4.33,0,0,1,1.38-2.183c.269-.217.565-.536.859-.547s.56.344.861.5a6.928,6.928,0,0,0,1.732.792c1.424.266,2.878.37,4.313.584,1.681.25,3.347.659,5.035.783a27.181,27.181,0,0,1,3.627.589c1.816.383,3.634.758,5.445,1.16a5.967,5.967,0,0,0,1.586.427,1.4,1.4,0,0,0,.942-.882c.215-.849.173-1.76.326-2.63a16.93,16.93,0,0,1,.861-3.911,46.475,46.475,0,0,0,2.163-6.409,2.092,2.092,0,0,1,.274-.574,3.3,3.3,0,0,0,.2-3.076c-1.256-3.428-2.355-6.914-3.867-10.247-.947-2.086-1.779-4.223-2.683-6.328a6.98,6.98,0,0,0-.538-.742,2.389,2.389,0,0,1,.625-3.078c1.162-.7,2.219-1.63,3.67-1.786.855-.092,1.691-.455,2.542-.482a34.777,34.777,0,0,1,6.12.45c2.461.357,4.859.931,7.268,1.473,1.705.384,3.377.927,5.053,1.431a74.839,74.839,0,0,1,12.32,5.181,48.231,48.231,0,0,1,4.189,2.524,2.318,2.318,0,0,0,2.346.317c.584-.253,1.2-.434,1.8-.655.411-.152.52-.448.363-1-.721-2.548-1.582-5.068-2.123-7.654-.353-1.69-.8-3.352-1.188-5.03-.532-2.3-1.122-4.591-1.642-6.9-.58-2.567-1.092-5.149-1.666-7.717-.431-1.929-.957-3.837-1.357-5.772-.266-1.285-.376-2.6-.569-3.9-.173-1.166-.308-2.341-.563-3.489-.32-1.442-.184-1.944,1.1-2.455,1.027-.408,2.111-.669,3.168-1a3.329,3.329,0,0,0,.427-.2c-.081-.15-.124-.358-.25-.44-.392-.256-.829-.443-1.224-.7a20.262,20.262,0,0,1-6.269-6.316,28.953,28.953,0,0,1-3.164-6.951c-.931-3.041-1.686-6.117-2.357-9.226a31.511,31.511,0,0,1-.514-6.669c0-1.378-.032-2.757.012-4.133.025-.791.167-1.578.265-2.366a8.525,8.525,0,0,1,.23-2.384,9.155,9.155,0,0,0,.318-2.486,23.74,23.74,0,0,1,3.536-10.4,36.1,36.1,0,0,1,3.2-4.169,18.554,18.554,0,0,1,6.831-4.764,9.467,9.467,0,0,1,4.514-1.069,3.369,3.369,0,0,1,1.521.3,1.551,1.551,0,0,0,1.714-.041,15.882,15.882,0,0,1,6.1-1.843,22.573,22.573,0,0,1,5.952.134,31.469,31.469,0,0,1,5.035,1.193,24.7,24.7,0,0,1,6.666,3.541,40.2,40.2,0,0,1,4.151,3.614,35.929,35.929,0,0,1,6.995,9.784,29.655,29.655,0,0,1,2.465,7.242,28.085,28.085,0,0,1,.3,3.051,7.025,7.025,0,0,0,.227,2.248c.193.464-.084,1.121-.145,1.692-.033.31-.076.62-.08.93a25.637,25.637,0,0,1-2.159,10.13c-.584,1.319-1.126,2.657-1.709,3.977-.172.389-.424.743-.63,1.118a1.4,1.4,0,0,0-.086.291.73.73,0,0,0,.26.028,2.678,2.678,0,0,0,.844-.282,4.152,4.152,0,0,1,2.673-.54c.135,0,.35-.042.395.024.7,1.052,1.384.288,2.039-.031,2.295-1.116,4.6-2.212,6.858-3.4q5.831-3.069,11.6-6.259a3.027,3.027,0,0,0,1.017-1.127,2.234,2.234,0,0,1,2.839-1.239.959.959,0,0,0,.656-.048c1.032-.625,2.049-1.276,3.057-1.939a18.825,18.825,0,0,1,4.917-2.434,1.95,1.95,0,0,1,2.6,1.091,2.331,2.331,0,0,1-.371,2.263,15.718,15.718,0,0,1-2.918,2.616,1.01,1.01,0,0,0-.345,1.379,4.78,4.78,0,0,1-2.392,6.382,7.392,7.392,0,0,1-3.01,1.018c-2.708.165-5.706-1.383-6.019-4.6-.06-.617-.319-.775-.818-.449-3.659,2.389-7.539,4.386-11.4,6.423-2.07,1.094-4.162,2.147-6.244,3.219-.189.1-.374.206-.569.291-1.351.59-1.468.746-1.078,2.164.317,1.151.356,2.337.58,3.487.262,1.348.055,2.725.474,4.062a20.723,20.723,0,0,1,.263,2.364c.333,1.826.371,3.7.61,5.549.275,2.123.4,4.255.584,6.383.171,1.991.347,3.985.553,5.971.215,2.082.083,4.162.278,6.224a25.605,25.605,0,0,1,.215,2.922c-.008.4.077.9.4.892.418-.015,1.1-.31,1.175-.6.14-.584.367-1.086.875-1.214a3.757,3.757,0,0,1,1.392.234c.558.1,1.115.217,1.677.27,1.029.1,1.151-.042,1.394-1.056a3.474,3.474,0,0,1,.561-1.275c.467-.613.869-.642,1.3-.034,1.359,1.917,3.337,2.382,5.48,2.353a17.409,17.409,0,0,1,5.923,1.019q3.2,1.094,6.456,2.043c1.484.43,3.01.715,4.509,1.095,1.743.441,3.48.909,5.217,1.375,2.728.731,5.476,1.4,8.176,2.219,4.644,1.413,9.291,2.831,13.874,4.428a81.318,81.318,0,0,1,8.261,3.339,79.044,79.044,0,0,1,7.406,4.07,13.029,13.029,0,0,1,2.145,1.442,1.815,1.815,0,0,0,1.467.488c.551-.019,1.1-.028,1.653,0a2.064,2.064,0,0,1,1.963,2.065.834.834,0,0,0,0,.274,3.879,3.879,0,0,1,.028,3.142c-.122.283.173.733.239,1.113a6.334,6.334,0,0,1-.992,3.856c-.836,1.73-1.9,3.347-2.86,5.018-.744,1.3-1.507,2.587-2.2,3.912-1.378,2.641-2.624,5.356-4.089,7.947-1.753,3.1-3.627,6.137-5.544,9.14-2.04,3.2-4.2,6.312-6.1,9.6-2.025,3.493-4.167,6.921-6.333,10.329a36.6,36.6,0,0,1-4.789,6.153c-2.24,2.269-4.427,4.591-6.63,6.9-.321.336-.619.655-1.153.554a.684.684,0,0,1-.531-1.073c.307-.519.649-1.017.968-1.529.091-.145.489-.25.1-.478-.162-.1-.435-.213-.552-.144a5.242,5.242,0,0,0-1.147.873c-.186.2-.382.654-.283.81.7,1.114-.157,1.829-.668,2.547a5.251,5.251,0,0,1-2.518,1.53c-3.241,1.343-6.649,2.144-9.974,3.183-4.431,1.385-8.865,2.718-13.186,4.439-3.983,1.587-8.061,2.936-12.072,4.455-2.539.962-5.026,2.058-7.548,3.067-1.852.741-3.73,1.418-5.578,2.168a2.246,2.246,0,0,0-1.461,1.482,26.687,26.687,0,0,1-3.153,5.716c-.075.113-.224.18-.283.3a3.018,3.018,0,0,0-.517,1.229c0,.218.6.421.921.634,2.855,1.867,5.756,3.669,8.552,5.621,2.9,2.028,5.726,4.175,8.542,6.326,1.621,1.238,3.152,2.594,4.734,3.884,1.92,1.566,3.858,3.111,5.774,4.682.762.625,1.475,1.308,2.23,1.942,1.632,1.373,3.281,2.726,4.915,4.1.72.6,1.423,1.228,2.128,1.85q2.423,2.139,4.838,4.286,2.519,2.238,5.033,4.482,2.566,2.288,5.13,4.58c.973.872,1.916,1.779,2.916,2.619a.88.88,0,0,1,.112,1.38c-.316.432-.717.354-1.12.112a4.132,4.132,0,0,1-.66-.4c-1.109-1-2.182-2.031-3.305-3.01-1.883-1.642-3.8-3.248-5.692-4.879-.851-.733-1.68-1.492-2.519-2.239-1.678-1.494-3.291-3.069-5.048-4.462-2.432-1.929-4.978-3.716-7.466-5.575-2.6-1.941-5.162-3.927-7.783-5.835-2.425-1.765-4.927-3.422-7.356-5.18-3.187-2.308-6.309-4.706-9.51-6.995-2.181-1.56-4.443-3.008-6.68-4.49-.794-.526-1.241-.4-1.8.331-.99,1.295-1.976,2.6-3.023,3.844-1.694,2.02-3.435,4-5.157,6-.09.1-.194.2-.291.293q-3.6,3.6-7.211,7.208a2.5,2.5,0,0,1-2.126.431,2.2,2.2,0,0,1-.972-1.657c-.144-2.131-.312-4.263-.549-6.385-.219-1.959-.478-3.918-.832-5.856a20.607,20.607,0,0,0-1.671-5.227,5.843,5.843,0,0,0-1.271-1.8c-.721-.65-1.433-.9-2.288.086a1.554,1.554,0,0,1-.86.468c-.873.141-1.761.181-2.638.3a8.636,8.636,0,0,1-3.49-.564c-.116-.032-.195-.245-.3-.256a5.179,5.179,0,0,1-1.724-.159c-.386-.2-.459-.931-.821-1.263-1.013-.928-2.149-1.724-3.154-2.66-1.343-1.252-2.606-2.589-3.909-3.884-.92-.915-1.4-.864-2.1.227a27.226,27.226,0,0,0-3.886,8.172c-.287,1.171-.549,2.348-.8,3.528-.24,1.144-.424,2.3-.676,3.443-.2.92-.521,1.816-.689,2.741-.123.679.36,1.161.833,1.57.524.452.113.911-.177.906-.694-.012-.957.479-1.317.847-.476.485-.854.384-1.242-.07a1.3,1.3,0,0,1-.311-.421c-.591-2.178-2.623-2.665-4.284-3.28a24.962,24.962,0,0,1-9.4-5.6c-.784-.789-.806-.784-1.619.026-2.667,2.659-5.356,5.3-7.984,7.995a64.492,64.492,0,0,1-10.23,8.253,97.243,97.243,0,0,1-13.956,7.884c-2.309,1.059-4.667,2.026-7.057,2.924-4.214,1.583-8.59,2.552-12.9,3.777a40.844,40.844,0,0,1-5.161.854c-.83.124-1.667.2-2.5.277a2.114,2.114,0,0,1-1.965-1.175,1.559,1.559,0,0,1,.4-1.925c.517-.5.274-.738-.159-1.032-.777-.529-.674-.694.023-1.4a5.2,5.2,0,0,1,2.783-1.266,7.536,7.536,0,0,0,3.661-2.14,45.285,45.285,0,0,0,6.067-7.116c.1-.145.3-.265.321-.414.037-.283.147-.7-.411-.613a8.08,8.08,0,0,0-1.016.207A37.177,37.177,0,0,0,69.76,452.4a35.3,35.3,0,0,1-3.795,1.155c-2.956.873-5.9,1.769-8.918,2.429-2.756.6-5.447,1.5-8.191,2.158-1.937.466-3.922.726-5.875,1.129-2.088.43-4.181.812-6.293,1.116-1.862.268-3.718.574-5.579.847a90.49,90.49,0,0,1-14.658.449c-1.417-.023-2.867-.107-4.294-.233-2.372-.21-4.748-.449-7.094-.842a22.04,22.04,0,0,1-3.9-1.2c-.6-.221-1.211-.53-1.153-1.42a1.6,1.6,0,0,1,1.178-1.46,31.17,31.17,0,0,1,3.535-1.109,96.721,96.721,0,0,0,10.427-2.775c2.193-.8,4.41-1.559,6.53-2.527,3.612-1.649,7.156-3.447,10.867-5.182m95.075-116.708a4.9,4.9,0,0,0-.28-.56c-.142-.215-.318-.408-.479-.611a2.648,2.648,0,0,0,.163.821c.116.208.391.328.6.625a2.269,2.269,0,0,0,.013.82c1.3,3.067,1.911,6.352,3.016,9.48.424,1.2.816,2.413,1.248,3.61a2.355,2.355,0,0,0,.424.558c.086-.262.279-.541.239-.782a15.42,15.42,0,0,0-.543-2.384q-1.758-5.252-3.6-10.477c-.13-.369-.526-.644-.8-1.1m25.215,13.366a.993.993,0,0,0-.271,0c-3.394,1.006-6.73,2.2-10.172,3.055a9.351,9.351,0,0,0-4.449,1.9c-.662.621-1.738.62-2.284,1.467-.649,1.007-1.819.073-2.619.666a2.03,2.03,0,0,1-1.105.3c-.834.021-.978.549-1.006,1.2-.093,2.212-.253,4.424-.262,6.636-.022,4.968-.145,9.94.261,14.9a23.79,23.79,0,0,0,.307,3.46c.435,1.859.575,3.76,1,5.628.525,2.307,1.01,4.618,1.727,6.875.267.841.545.965,1.358.639.63-.253,1.243-.552,1.884-.771a12.806,12.806,0,0,1,4.117-1.033c.582,0,.822.293.609.816a1.252,1.252,0,0,1-.641.546c-.581.258-1.2.425-1.78.689-.155.071-.212.357-.314.545a1.909,1.909,0,0,0,.552.008c1.065-.306,2.123-.639,3.188-.945.1-.03.243.064.365.1-.05.147-.062.385-.157.426-.507.216-1.048.354-1.554.572-1.676.721-3.329,1.5-5.018,2.187-1.089.445-1.12.415-.789,1.423.955,2.911,2.282,5.667,3.511,8.464.5,1.127,1.1,2.211,1.543,3.355a22.074,22.074,0,0,0,4.895,8.021c2.033,1.984,4.228,3.8,6.271,5.775a24.765,24.765,0,0,0,5.327,3.8,94.479,94.479,0,0,1,8.516,5.358,2.467,2.467,0,0,0,2.142.432c2.009-.605,4.042-1.109,6.066-1.655,2.586-.7,5.1-1.651,7.664-2.436,3.989-1.222,7.917-2.628,11.884-3.914,4.153-1.346,8.175-3.091,12.266-4.631,2.821-1.062,5.677-2.034,8.49-3.117,3.4-1.312,6.756-2.764,10.175-4.033,2.988-1.109,6.056-2,9.059-3.077a84.333,84.333,0,0,1,11.748-3.569,11.55,11.55,0,0,0,2.814-.843c1.266-.622,2.425-1.46,3.65-2.17,1.251-.724,1.318-1.1.332-2.122-2.342-2.425-4.716-4.822-7-7.3a32.877,32.877,0,0,1-3.4-4.238q-3.025-4.639-5.795-9.444c-1.638-2.842-3.154-5.758-4.64-8.683-1.424-2.8-2.741-5.659-4.1-8.494a1.147,1.147,0,0,0-1.685-.7c-1.323.459-2.631.962-3.943,1.455-2.543.954-5.079,1.931-7.629,2.866-1.636.6-3.3,1.13-4.935,1.723-.246.089-.43.346-.643.526.185.171.37.343.556.513a14.777,14.777,0,0,1,1.487,1.378c.843,1.017,1.033,3.243.331,4.083a5.612,5.612,0,0,1-4.431,2.271,8.171,8.171,0,0,1-3.1-.838,4.753,4.753,0,0,1-2.669-2.742c-.178-.431-.271-.9-.451-1.328a.894.894,0,0,0-.4-.313c-.462.494-1.06.1-1.558.257-.356.109-.728.557-1.016.089-.079-.129.407-.612.644-.924.081-.106.193-.263.3-.267,1.641-.065,2.517-1.128,3.226-2.427.063-.116.214-.184.282-.3a.924.924,0,0,0,.18-.471,17.752,17.752,0,0,1,.574-4.454c.28-1.523.653-3.031,1.008-4.539.285-1.21.612-2.41.906-3.619.531-2.182,1.07-4.358,1.459-6.578.167-.952-.017-1.222-.7-1.615-.9-.515-1.739-1.128-2.6-1.7-2.2-1.45-4.342-3-6.618-4.322a49.874,49.874,0,0,1-6.24-4.184,2.242,2.242,0,0,0-2.087-.422c-1.456.275-2.925.486-4.389.717-.649.1-1.313.135-1.949.289-.953.23-1.886.542-2.829.814a2.109,2.109,0,0,0-1.541,2.152c.059.337.738.577,1.15.837.213.134.487.179.689.324,2.239,1.61,3.174,3.212,1.961,6.066a9.176,9.176,0,0,1-4.741,4.555,5.006,5.006,0,0,1-6.123-1.72,6.085,6.085,0,0,1-1.005-3.737,5.136,5.136,0,0,1,1.625-3.885,5.93,5.93,0,0,1,3.672-2.128.577.577,0,0,0,.481-.8A.785.785,0,0,0,173.7,335a6,6,0,0,1-2.378.257,5.933,5.933,0,0,0-1.4.281c-.756.28-1.054.116-1.259-.685-.211-.824-.526-1.621-.748-2.442-.1-.359-.239-.576-.616-.46a5.94,5.94,0,0,0-.806.38,3.441,3.441,0,0,0,.348.659,9.33,9.33,0,0,1,.857.891c.708,1.135.754,2.6-.664,3.289a8.784,8.784,0,0,1-1.56.553c-1.2.321-2.43.551-3.618.914-2.972.909-5.928,1.872-9.028,2.951M74.7,456.645c-.162.253-.335.5-.481.762-.117.211-.2.441-.3.663a2.319,2.319,0,0,0,.742-.025c2.977-1.137,6.041-2.017,9.029-3.139,3.459-1.3,6.925-2.573,10.3-4.071q4.715-2.092,9.34-4.386c1.949-.967,3.795-2.14,5.717-3.164a30.859,30.859,0,0,0,7.755-5.88,5.225,5.225,0,0,1,2.215-1.314,13.46,13.46,0,0,0,2.421-1.129,1.424,1.424,0,0,0,.6-2.081c-1.466-1.732-2.993-3.419-4.365-5.223a58.65,58.65,0,0,1-3.818-5.579c-1.7-2.868-3.466-5.7-5.027-8.653-1.809-3.428-3.74-6.783-5.325-10.333a80.805,80.805,0,0,1-3.364-8.662c-.565-1.794-1-3.632-1.461-5.457-.382-1.5-.773-3-1.07-4.513a40.6,40.6,0,0,1-.572-4.031c-.106-1.135-.228-1.224-1.439-.913-2.038.523-4.071,1.115-6.143,1.449a36.6,36.6,0,0,0-7.265,2.1c-3.127,1.2-6.285,2.322-9.362,3.67-2.328,1.02-4.73,1.885-7.016,3.013-1.869.922-3.733,1.858-5.573,2.837a4.88,4.88,0,0,0-.972.938,6.838,6.838,0,0,0,1.447.129c1.078-.128,2.14-.455,3.219-.51,1.74-.089,3.489-.057,5.233-.007a5.191,5.191,0,0,1,1.9.385c.589.258,1.28.4,1.563,1.212a3.388,3.388,0,0,1-.866,3.647,22.1,22.1,0,0,1-2.056,1.348c-.729.447-1.5.831-2.215,1.3-1.847,1.206-3.707,2.395-5.5,3.68s-3.5,2.656-5.228,4.013c-1.046.821-2.052,1.693-3.089,2.526-1.307,1.049-2.636,2.069-3.939,3.122-1.106.893-2.171,1.837-3.285,2.719-1.585,1.254-3.22,2.446-4.793,3.715-1.32,1.064-2.572,2.211-3.872,3.3-1.564,1.311-3.155,2.589-4.717,3.9-.893.751-1.757,1.536-2.621,2.32q-1.656,1.5-3.282,3.042a.6.6,0,0,0-.064.458c.008.046.244.095.361.071a3.425,3.425,0,0,0,.465-.2c2.626-.976,5.246-1.97,7.883-2.917a65.4,65.4,0,0,1,9.091-2.669c1.469-.3,2.9-.818,4.371-1.068,2.076-.352,4.119-1,6.266-.852.274.019.615.108.816-.015,1.04-.638,1.93-.019,2.83.31A1.081,1.081,0,0,1,59.7,428.1a31.1,31.1,0,0,1-2.547,3.343c-1.469,1.541-3.1,2.927-4.633,4.408a51.961,51.961,0,0,1-7.083,5.2c-1.625,1.11-3.334,2.111-5.022,3.131-1.983,1.2-4.037,2.262-6.039,3.417a55.417,55.417,0,0,1-5.408,2.563c-2.99,1.316-5.935,2.781-9.023,3.812-3.348,1.117-6.59,2.563-10.043,3.372a5.137,5.137,0,0,0-1.16.518.41.41,0,0,0-.16.332c.006.086.141.21.239.234a7.888,7.888,0,0,0,1.4.274c2.211.114,4.422.224,6.635.276q2.891.067,5.785,0c1.937-.046,3.874-.158,5.809-.273a19.545,19.545,0,0,0,2.364-.276c2.385-.437,4.762-.918,7.145-1.368,2-.378,4.05-.6,6.008-1.137,2.984-.821,6-1.466,9.007-2.2,2.857-.7,5.66-1.621,8.484-2.454,2.782-.82,5.572-1.613,8.336-2.491,2.308-.733,4.576-1.592,6.876-2.349a7.137,7.137,0,0,1,2.042-.37,1.584,1.584,0,0,1,1.493,1.241,4.355,4.355,0,0,1-.376,2.321,34.108,34.108,0,0,1-5.125,7.023M253.693,350.96c-.1-.281-.189-.565-.294-.844a68.383,68.383,0,0,1-3.088-11.93c-.4-2.18-1.127-4.229-1.664-6.348-.6-2.348-1.7-4.6-1.434-7.125a2.341,2.341,0,0,0-.007-.823,1.548,1.548,0,0,0-1.131-1.364c-2.569-.819-5.171-1.49-7.776-2.174-2.473-.65-4.89-1.511-7.361-2.17a61.9,61.9,0,0,1-7.51-2.16c-.9-.366-1.287-.062-1.288.91,0,3.49-.061,6.981.024,10.468a29.389,29.389,0,0,0,.566,5.411c.463,2.163,1.189,4.272,1.854,6.388.522,1.662,1.186,3.281,1.674,4.951.705,2.415,1.655,4.744,2.27,7.2.482,1.917,1.536,3.683,2.13,5.581a106.206,106.206,0,0,0,5.348,12.662,78.562,78.562,0,0,0,7.351,13.074c1.474,2.049,2.8,4.219,4.432,6.136a62.532,62.532,0,0,0,4.713,4.518,7.365,7.365,0,0,1,.774.917c.706.939,1.544,1.818,1.409,3.149-.009.087.277.667.648.164.108-.146.288-.243.382-.395,1.489-2.412,2.941-4.849,4.462-7.24,1.231-1.934,2.537-3.82,3.824-5.718.635-.936,1.281-1.864,1.958-2.77,1.444-1.932,2.913-3.845,4.366-5.77.127-.169.342-.453.288-.541a.914.914,0,0,0-.6-.437,5.233,5.233,0,0,1-3.507-1.843,20.182,20.182,0,0,1-2.147-2.411c-1.045-1.344-2.094-2.695-3.011-4.125-1.084-1.691-2.051-3.46-3.031-5.215-.789-1.414-1.557-2.841-2.269-4.294-.5-1.027-.917-2.1-1.334-3.166-.324-.831-.591-1.684-1.02-2.665m-74.544-25.491a25.982,25.982,0,0,0-1.088,4.646c-.155.63.4.5.7.413,1.878-.561,3.74-1.173,5.616-1.738,2.656-.8,5.291-1.694,7.988-2.326,3.464-.812,6.884-1.758,10.292-2.771,2.135-.635,4.306-1.161,6.482-1.641.6-.131.922-.26.879-.9a8.805,8.805,0,0,0-.048-1.223c-.33-1.557-.772-3.094-1.04-4.661-.348-2.032-.576-4.085-.842-6.131q-.426-3.272-.825-6.547c-.2-1.667-.4-3.336-.548-5.008-.208-2.264-.387-4.531-.552-6.8-.1-1.339-.085-2.677-.221-4.025-.287-2.836-.251-5.7-.33-8.561-.028-1.01-.056-2.024.012-3.03.054-.814.125-.783-.709-.547a14.238,14.238,0,0,1-3.24.777,2.289,2.289,0,0,0-1.807.994c-.532.633-.923,1.39-1.483,1.994a24.629,24.629,0,0,1-8.963,6.289,43.738,43.738,0,0,1-8.539,2.314,30.941,30.941,0,0,1-5.252.3c-1.155.011-2.316-.269-3.467-.231a16.853,16.853,0,0,1-4.855-.635,3.364,3.364,0,0,0-2.127.065c-1.478.531-2.936,1.121-4.42,1.634-.536.186-.722.49-.6,1,.153.622.388,1.224.518,1.85.477,2.286.846,4.6,1.4,6.864,1.175,4.792,2.553,9.529,3.613,14.355.721,3.28,1.5,6.548,2.172,9.841.569,2.78,1.265,5.534,1.918,8.3a13.947,13.947,0,0,0,.572,1.967.844.844,0,0,0,.687.429c1.2-.3,2.367-.717,3.562-1.031a.85.85,0,0,0,.706-.8c.3-1.428.689-2.836,1.026-4.256.487-2.05,1-4.1,1.423-6.16.336-1.619.439-3.293.869-4.883.6-2.223.869-4.5,1.34-6.742.321-1.529.53-3.081.862-4.607.411-1.888.892-3.761,1.353-5.638.265-1.082.5-2.177.853-3.231a1.445,1.445,0,0,1,.876-.845c.267-.059.7.316.945.6a1.089,1.089,0,0,1,.07.781c-.111.635-.276,1.261-.418,1.891a15.168,15.168,0,0,0-.676,4.268,3.224,3.224,0,0,1-.013.822c-.256,1.268-.535,2.532-.812,3.8-.341,1.557-.7,3.111-1.028,4.671-.406,1.948-.778,3.9-1.178,5.852-.312,1.522-.652,3.038-.967,4.559-.237,1.144-.457,2.291-.684,3.713m9.507-78.953c.138-.073.4-.159.394-.218a7.938,7.938,0,0,0-.273-1.81c-.575-1.654.221-2.924,1.112-4.141a5.689,5.689,0,0,1,2.745-1.663,19.292,19.292,0,0,1,6.411-1.817c.482-.016.686-.4.394-.777-.729-.944-1.43-1.92-2.246-2.785a37.006,37.006,0,0,0-6.058-5.3,22.293,22.293,0,0,0-7.9-3.2,28.613,28.613,0,0,0-5.933-.31,8.952,8.952,0,0,0-2.125.495,19.674,19.674,0,0,0-5.86,2.49,41.065,41.065,0,0,0-5.518,3.948c-1.117,1.009-2.127,2.136-3.211,3.183a28.539,28.539,0,0,0-3.785,4.636,30.347,30.347,0,0,0-3.441,6.149,16.2,16.2,0,0,0-1.229,6.931c.152,2.209-.262,4.437.268,6.638.214.888.214,1.83.451,2.71.443,1.645.931,3.282,1.5,4.886a21.94,21.94,0,0,0,3.847,7.079c1.239,1.442,2.572,2.8,3.888,4.178a18.244,18.244,0,0,0,4.984,3.595c2.852,1.446,5.839,2.547,9.1,2.27a24.2,24.2,0,0,0,4.671-1.006,19.822,19.822,0,0,0,4.026-1.568c1.607-.887,3.153-1.881,4.837-2.634a1.949,1.949,0,0,1,2.342.114c.489.458.9.1,1.182-.127a13.511,13.511,0,0,0,3.543-3.977,8.354,8.354,0,0,1,.516-1.292,8.538,8.538,0,0,1,1.221-1,3.352,3.352,0,0,0,.741-.793,55.523,55.523,0,0,0,3.555-6.791,29.346,29.346,0,0,0,2.175-8.719,27.574,27.574,0,0,0-.427-8.32,33.626,33.626,0,0,0-2.264-6.787c-.135-.29-.3-.569-.444-.852-.005.34-.013.681-.011,1.021,0,.033.078.059.091.1a12.212,12.212,0,0,1,.69,6.679,7.919,7.919,0,0,1-3.95,5.412c-2.242,1.331-4.67,1.431-7.153,1.362a.966.966,0,0,1-1.045-.985c.058-1.57-.7-2.962-.86-4.479a.639.639,0,0,0-.988-.541c-1.071.529-2.1,1.138-3.131,1.749a.779.779,0,0,0-.27.562,5.307,5.307,0,0,0,.024,1.915,8.792,8.792,0,0,1,.228,2.929c.009,1.209-.5,1.722-1.7,1.89a.67.67,0,0,0-.476.276,4.885,4.885,0,0,1-2.146,2.253c-2.6,1.678-5.314,2.775-8.529,2.172a6.053,6.053,0,0,1-4.347-3.069,18.055,18.055,0,0,1-2.241-5.54,21.288,21.288,0,0,1-.367-3.149c-.027-.646.227-1.3.236-1.951a2.694,2.694,0,0,1,.719-1.78,10.278,10.278,0,0,1,4.256-2.711,15.148,15.148,0,0,1,3.975-1.33,15.651,15.651,0,0,1,5.662.222,4.665,4.665,0,0,1,3.2,2.507c.38.8.632,1.666.951,2.5a4.209,4.209,0,0,0,.269.5,2.05,2.05,0,0,1,.282-.349,3.7,3.7,0,0,1,.72-.5,23.076,23.076,0,0,1,2.721-1.078m-61.867,138.2a1.791,1.791,0,0,0-.012-.685c-.8-1.748-.889-3.674-1.311-5.508a43.127,43.127,0,0,1-.6-5.82,8.669,8.669,0,0,0-.016-1.1,36.536,36.536,0,0,1-.543-5.146q-.113-1.391-.285-2.777a.488.488,0,0,0-.3-.311,7.144,7.144,0,0,0-1.261-.279c-1.283-.132-2.591-.122-3.851-.367-1.721-.335-3.4-.869-5.107-1.29s-3.45-.74-5.14-1.231c-2.451-.713-4.866-1.551-7.3-2.314a1.265,1.265,0,0,0-1.778.882c-.154.4-.239.819-.4,1.213a14.578,14.578,0,0,0-1.006,4.4c-.042.549.241,1.116.241,1.675a57.582,57.582,0,0,0,.534,7.765c.124.921.207,1.663,1.157,2.145a.742.742,0,0,1,.027,1.407c-.958.421-.667,1.173-.568,1.722.373,2.075.868,4.129,1.347,6.184a50.264,50.264,0,0,0,3.05,9.2,71.372,71.372,0,0,0,3.211,6.81c.846,1.454,1.585,3.026,2.452,4.474,1.708,2.854,3.606,5.6,5.526,8.321,1.642,2.327,3.467,4.525,5.135,6.835a93.332,93.332,0,0,0,6.838,7.9c1.048,1.155,2.217,2.2,3.3,3.325.967,1.009,1.848,2.1,2.84,3.085,1.417,1.4,2.9,2.737,4.356,4.1.067.063.119.16.2.188.2.072.437.194.611.14.12-.037.226-.332.228-.513a29.91,29.91,0,0,1,.83-5.444,34.587,34.587,0,0,1,2.912-7.747,12.155,12.155,0,0,1,3.47-4.622c.542-.423.412-.836.055-1.252-.7-.817-1.438-1.6-2.136-2.424-1.5-1.762-2.954-3.567-4.492-5.3a33.8,33.8,0,0,1-4.453-6.566,65.816,65.816,0,0,1-5.622-13.378c-.7-2.516-1.352-5.041-2.128-7.709M216.9,326.572c.132-2.256-.27-4.529.263-6.776a29.315,29.315,0,0,0,.5-3.1,1.059,1.059,0,0,0-.2-.813,1.018,1.018,0,0,0-.814-.064c-1.022.294-2.019.677-3.044.958-1.095.3-1.108.267-1.11,1.342,0,2.066.007,4.132,0,6.2,0,.832-.36,1.255-1.178,1.266a1.432,1.432,0,0,0-1.156.561,3.56,3.56,0,0,1-1.986,1.2c-1.329.3-2.627.737-3.928,1.146a55.576,55.576,0,0,1-10.02,2.082,2.315,2.315,0,0,0-.467.161,2.035,2.035,0,0,0,.387.38c1.23.685,2.506,1.295,3.7,2.042,2.412,1.516,4.814,3.051,7.148,4.683a32.02,32.02,0,0,1,3.571,3.013c.886.837.836,1.292.085,2.26a1.483,1.483,0,0,0-.274.572c-.652,2.992-1.281,5.988-1.94,8.978-.342,1.552-.827,3.079-1.07,4.645-.234,1.5-.9,2.905-.883,4.474.011,1.31-.1,1.341,1.191,1.291a4.8,4.8,0,0,0,1.509-.336c.473-.183.875-.547,1.345-.743,2.467-1.028,4.913-2.118,7.428-3.011a44.118,44.118,0,0,1,6.786-2.253,17.078,17.078,0,0,0,2.416-.807c.592-.2.714-.544.429-1.125-.372-.761-.665-1.56-.984-2.346-.912-2.239-1.878-4.459-2.714-6.726-.882-2.393-1.682-4.818-2.431-7.256-.553-1.8-1.029-3.628-1.426-5.468-.44-2.036-.751-4.1-1.119-6.427M146.217,341.04c1-.357,1.991-.737,3-1.065q3.521-1.142,7.057-2.238c2.443-.753,4.9-1.464,7.343-2.214.805-.247.893-.534.245-1.061a29.593,29.593,0,0,0-2.765-1.954c-1.919-1.224-3.844-2.442-5.805-3.6a34.769,34.769,0,0,0-6.962-3.128c-1.777-.576-3.5-1.379-5.308-1.788-2.519-.569-4.978-1.367-7.548-1.782-1.49-.241-3-.462-4.5-.7a20.035,20.035,0,0,0-3.984-.022,4.73,4.73,0,0,0-1.6.441c-.281.121-.4.326,0,.666a22.6,22.6,0,0,1,2.216,2.294c1.828,2.075,2.424,4.773,3.569,7.192a16.648,16.648,0,0,1,1.342,3.566c.466,2.185,1.368,4.216,2,6.339a1.618,1.618,0,0,0,.584.836c.159.107.525-.052.782-.14.756-.261,1.521-.519,2.19.144a1.124,1.124,0,0,0,1.531.185,14.759,14.759,0,0,1,2.224-.607c1.378-.433,2.742-.911,4.387-1.37m125.388-10.2c-.281-.1-.563-.192-.843-.293q-5.158-1.85-10.317-3.7c-.775-.276-1.11-.076-1.087.729.029,1.02.147,2.04.266,3.055.163,1.4.283,2.8.565,4.177.381,1.847.854,3.678,1.37,5.492a24.041,24.041,0,0,0,2.1,6.018c.595.991,1.15,2.006,1.749,2.995,1.358,2.241,2.666,4.516,4.114,6.7a106.912,106.912,0,0,1,5.929,9.811c.383.739.719.814,1.217.162s.854-1.387,1.283-2.081q2.543-4.114,5.094-8.223c.3-.477.356-.909-.207-1.2-1.068-.551-1.544-1.63-2.282-2.477a27.139,27.139,0,0,1-2.315-3.721,29.765,29.765,0,0,1-2.367-5.09,37.5,37.5,0,0,1-1.515-4.612,22.113,22.113,0,0,1-.966-5.661c.024-1.444,0-1.444-1.786-2.081m-19.979,7.027a11.193,11.193,0,0,1,.546,1.014c.865,2.075,1.669,4.176,2.584,6.228.727,1.629,1.571,3.207,2.385,4.8,1.552,3.03,3.053,6.09,4.7,9.067,1.659,3,3.437,5.931,5.23,8.851A20.116,20.116,0,0,0,271,372.676c.592.509.934.471,1.41-.2.881-1.24,1.775-2.473,2.617-3.739a.987.987,0,0,0-.1-1.215c-.678-.736-1.406-1.428-2.117-2.134a32.387,32.387,0,0,1-4.952-6.352,52.528,52.528,0,0,1-3.47-6.273c-1.214-2.846-2.067-5.844-3.122-8.76-.49-1.354-1.111-2.661-1.638-4-.621-1.579-1.252-3.157-1.8-4.764-.793-2.342-1.719-4.665-1.521-7.223.035-.456-.012-.919.009-1.377a1.179,1.179,0,0,0-1.024-1.323c-1.35-.382-2.67-.866-4.008-1.288-.928-.293-1.325,0-1.3,1.031a35.956,35.956,0,0,0,.523,5.284c.276,1.606.358,3.245.583,4.862.112.806.355,1.594.539,2.666M184.8,435.288c.26-.26.535-.505.777-.781q2.782-3.183,5.554-6.374c.708-.811,1.405-1.634,2.151-2.41.366-.381-.077-.54-.182-.565a1.6,1.6,0,0,0-.738.094c-1.153.316-2.317.6-3.452.977-3.191,1.048-6.353,2.184-9.559,3.182-1.637.51-3.343.8-5.017,1.193-.752.177-1.508.34-2.249.557-.774.227-.861.449-.364.955a9.978,9.978,0,0,1,2.128,3.529,22.561,22.561,0,0,1,1.139,3.378c.3,1.459.384,2.965.588,4.447a5.707,5.707,0,0,0,.34,1.372c.129.315.371.406.674.05.785-.926,1.624-1.806,2.423-2.719,1.177-1.345,2.352-2.692,3.5-4.059.739-.877,1.433-1.792,2.285-2.827m92.181-95.764a35.733,35.733,0,0,0,2.92,5.952c1.428,2.071,2.838,4.155,4.31,6.194.159.22.709.618,1.024-.014.341-.684.637-1.39.98-2.072,1.566-3.114,2.856-6.343,4.11-9.591.236-.612.135-.879-.374-1.161a6.424,6.424,0,0,0-3.517-.839c-1.206.058-1.6-.364-1.745-1.539-.03-.25-.065-.607-.23-.715a13.868,13.868,0,0,0-2.654-1.558c-1.833-.683-3.728-1.2-5.606-1.759a1.261,1.261,0,0,0-.915.037c-.158.1-.186.541-.138.805a14.4,14.4,0,0,0,.459,1.735c.448,1.42.915,2.834,1.374,4.526M69.331,462.019c-.611.519-1.24,1.019-1.824,1.567-.246.231-.364.6-.6.842-.3.313-.121.368.154.34.565-.057,1.132-.13,1.688-.243.842-.171,1.679-.371,2.513-.579,2.454-.61,4.921-1.173,7.353-1.861,2.085-.589,4.145-1.281,6.188-2.008,1.956-.7,3.921-1.4,5.8-2.279,2.043-.955,3.939-2.225,5.992-3.155a52.934,52.934,0,0,0,6.53-3.835c2.005-1.279,3.967-2.628,5.918-3.99a21.393,21.393,0,0,0,1.932-1.651.4.4,0,0,0,.093-.356.372.372,0,0,0-.327-.142,2.021,2.021,0,0,0-.588.236c-1.783,1.016-3.525,2.11-5.35,3.042-2.646,1.352-5.344,2.6-8.032,3.871-1.956.924-3.892,1.908-5.9,2.693-3.754,1.466-7.525,2.9-11.352,4.16-1.9.624-3.811,1.245-5.763,1.731a29.649,29.649,0,0,1-3.542,1.088c-.219.027-.4.345-.876.529m44.23-44.23c.357.541.748,1.063,1.066,1.626a68.389,68.389,0,0,0,8.331,11.815,37.087,37.087,0,0,0,8.074,7.363,25.129,25.129,0,0,0,5,2.226c.039.014.068.092.1.09.131-.01.31,0,.376-.072a.435.435,0,0,0-.013-.373c-.055-.117-.186-.2-.282-.3-3.6-3.7-7.193-7.4-10.817-11.08-1.741-1.766-3.368-3.624-4.993-5.5a82.281,82.281,0,0,1-5.12-6.574c-2.02-2.871-3.989-5.778-5.942-8.695-.956-1.428-1.822-2.917-2.741-4.371a1.58,1.58,0,0,0-.383-.313c-.032.17-.138.369-.083.5a10.513,10.513,0,0,1,.525,1.02c.616,2.26,2.142,4.063,3.063,6.17a24.239,24.239,0,0,0,1.458,2.427c.757,1.291,1.5,2.594,2.38,4.029m54.565-167.552a3.067,3.067,0,0,1,.267.711,17.6,17.6,0,0,0,2.851,7.064,3.819,3.819,0,0,0,3.836,1.254c1.021-.3,2.036-.623,3.064-.9,1.649-.436,3.116-1.518,4.927-1.4a.78.78,0,0,0,.1-.487,5.8,5.8,0,0,1-.457-2.017,11.42,11.42,0,0,0-.267-2.22c-.334-1.6-.771-3.171-1.077-4.771-.253-1.325-.655-1.736-1.955-1.787-2.138-.085-4.058.709-6.035,1.358a10.7,10.7,0,0,0-5.253,3.194M192.652,428.26c0,.092.04.218-.006.27q-3.055,3.487-6.123,6.961c-.681.773-1.372,1.537-2.041,2.32-1.531,1.794-2.994,3.65-4.593,5.38-1.163,1.257-2.5,2.354-3.76,3.519-.351.324-.441.667-.087,1.036s.685.282,1.039-.049c1.086-1.018,2.217-1.987,3.282-3.026a121.734,121.734,0,0,0,8.561-9.113c1.556-1.865,3.1-3.746,4.563-5.681,1.017-1.341,1.9-2.781,2.828-4.192a4.824,4.824,0,0,0,.459-1.046.378.378,0,0,0-.119-.344.4.4,0,0,0-.357.056,3.687,3.687,0,0,0-.491.479c-1.007,1.1-2.012,2.194-3.155,3.429m-63.659-57.872c-.092-2.441-.248-4.881-.256-7.322-.006-2.027.179-4.055.249-6.083.036-1.055,0-2.111.008-3.167a7.233,7.233,0,0,1,.029-.815,18.259,18.259,0,0,0,.221-1.825c0-.247-.263-.5-.407-.749a2.194,2.194,0,0,0-.381.665,16.1,16.1,0,0,1-.318,2.491c-.524,1.6.079,3.3-.523,4.876.157,3.77-.169,7.54.221,11.321.267,2.6.421,5.2.862,7.78a26.066,26.066,0,0,0,1.4,5.758,2.155,2.155,0,0,0,.331.435c.072-.185.226-.382.2-.553-.17-1.162-.39-2.317-.567-3.478a13.666,13.666,0,0,0-.266-2.1c-.731-2.275-.453-4.653-.807-7.238m65.863-127.317a2.561,2.561,0,0,1,3.066,1.211c1.148,1.7,1.973,3.581.794,5.669a4.024,4.024,0,0,0-.171.391,1.352,1.352,0,0,0,.465-.138c1.169-.925,1.753-3.318,1.258-5.031-.343-1.189-.706-2.373-.992-3.576-.276-1.164-.522-1.345-1.663-1.01-.206.061-.426.076-.629.144-1.568.53-3.136,1.06-4.7,1.608-.882.309-1.516.793-1.294,1.893a24.154,24.154,0,0,1,.536,3.21c.106,1.675.968,3.094,1.412,4.651.051.179.3.452.422.435.5-.069,1.32-.107,1.43-.387.276-.707-.764-.125-.881-.637-.017-.076-.122-.132-.188-.2a5.381,5.381,0,0,1-1.634-4.28,4.074,4.074,0,0,1,2.768-3.957m24.8,74.406a19.7,19.7,0,0,0-.554,5.274c.1,1.8.167,3.593.289,5.388a13.017,13.017,0,0,0,.325,2.064c.419,1.794.793,3.605,1.343,5.36.507,1.618.721,3.342,1.63,4.825.134.219.277.432.415.648a4.784,4.784,0,0,0,.12-.906c-.009-.2-.179-.379-.258-.575a6.816,6.816,0,0,1-.537-1.424c-.319-2.058-.976-4.04-1.171-6.139-.167-1.8-.428-3.611-.467-5.417-.045-2.068.147-4.142.251-6.213.01-.2.178-.4.185-.605.042-1.273.108-2.549.044-3.819-.014-.28-.492-.7-.81-.759-.346-.063-.533.332-.546.76s-.166.842-.258,1.538m36.1,34.723c.367.766.728,1.535,1.1,2.3,1.316,2.668,2.651,5.327,3.953,8a47.531,47.531,0,0,0,4.487,6.952,13.314,13.314,0,0,0,1.374,1.626c.179.178.546.168.827.244a3.106,3.106,0,0,0-.186-.66,9.137,9.137,0,0,0-.576-.864,123.691,123.691,0,0,1-6.993-11.7c-1.47-2.732-2.8-5.54-4.207-8.307a2.332,2.332,0,0,0-.459-.482c-.034.246-.155.521-.085.732.214.642.5,1.259.762,2.162m-8.543-31.967c-2.619-.873-5.222-1.8-7.86-2.605a94.2,94.2,0,0,0-10-2.762,22.031,22.031,0,0,0-2.224-.271,1.75,1.75,0,0,0-.587.169c.14.215.234.544.43.625a15.375,15.375,0,0,0,1.827.57c4.078,1.115,8.161,2.212,12.235,3.34,1.847.511,3.678,1.083,5.517,1.622.655.192,1.31.39,1.975.538.185.041.408-.087.614-.138-.133-.22-.218-.56-.408-.636-.434-.174-.919-.218-1.521-.452M45.631,396.982c1.457-.354,2.919-.686,4.367-1.073a6.577,6.577,0,0,0,1.774-.683c2.41-1.5,4.788-3.047,7.17-4.59.138-.089.208-.282.31-.426-.167-.039-.357-.15-.5-.106a21.4,21.4,0,0,0-2.765.951c-2.911,1.382-5.8,2.82-8.681,4.258-.72.359-1.556.613-1.678,1.669m191.941-134.9c-.339-.825-.577-1.667-1.526-2.117a9.209,9.209,0,0,0-2.4-.549c-.625-.118-.782.038-1.106.489a3.522,3.522,0,0,0-.479,2.285,1.7,1.7,0,0,0,1.219,1.684,3.829,3.829,0,0,0,4.291-1.791m-65.037,77.989c-.032.032-.092.064-.093.1a3.82,3.82,0,0,0,2.54,3.644,1.352,1.352,0,0,0,1.159,0,2.015,2.015,0,0,0,.99-1.959,2.617,2.617,0,0,0-1.331-2.2c-.567-.3-1.265-.362-1.673-.977a.727.727,0,0,0-.7,0,4.047,4.047,0,0,0-.892,1.4m-7.578-114.227a14.741,14.741,0,0,0-3.909,2.532,28.522,28.522,0,0,0-4.074,4.653c-.836,1.141-1.516,2.4-2.247,3.61-.069.114-.007.308-.005.465.151-.088.366-.138.442-.269a37.368,37.368,0,0,1,4.532-5.685,43.986,43.986,0,0,1,3.465-3.235.719.719,0,0,1,.1-.1c1.655-1,3.047-2.426,4.918-3.091.108-.039.151-.261.225-.4-.156-.028-.348-.129-.463-.073-.956.467-1.9.962-2.982,1.587M270.779,361.984c.582.674,1.156,1.355,1.755,2.015.1.109.3.122.461.179a1.522,1.522,0,0,0-.046-.561c-.332-.643-.688-1.274-1.058-1.9-.832-1.4-1.691-2.775-2.513-4.176-.971-1.654-1.909-3.328-2.875-4.985a2.958,2.958,0,0,0-.526-.6c-.056-.054-.238-.074-.275-.032-.091.1-.216.286-.179.374.365.856.741,1.708,1.152,2.543a49.843,49.843,0,0,0,4.106,7.143M206.293,369.7c1.112-.057,1.456-.391,1.24-1.2-.3-1.133-2.631-2.629-3.771-2.361a1.637,1.637,0,0,0-.821.621c-.084.111.107.438.184.663a3.407,3.407,0,0,0,3.168,2.279m-155.7,40.234a5.335,5.335,0,0,0-.66.391c-1.892,1.512-3.782,3.026-5.657,4.559a12.15,12.15,0,0,0-1.163,1.164c-.075.081-.066.242-.1.366a1.462,1.462,0,0,0,.385-.125c.61-.41,1.232-.807,1.81-1.26,1.42-1.114,2.813-2.263,4.226-3.386,1.271-1.01,2.558-2,3.825-3.014a2.585,2.585,0,0,0,.41-.575c-.248.032-.55-.017-.734.109-.756.516-1.475,1.085-2.346,1.772m208.2-78.127a5.188,5.188,0,0,1-.263-.98c-.044-.589.173-1.272-.057-1.755a3.758,3.758,0,0,1-.144-2.053,1.51,1.51,0,0,0-.243-.837c-.048-.077-.495-.042-.6.079a1.315,1.315,0,0,0-.326.8c.01.42.253.839.238,1.253a14.25,14.25,0,0,0,.853,4.44c.034.118.217.194.331.289.07-.094.186-.181.2-.282a8.733,8.733,0,0,0,.009-.958m-1.24-8.13c-.313-.129-.62-.277-.94-.385-1.81-.612-3.62-1.222-5.439-1.806-.181-.058-.42.068-.633.109.119.221.185.544.37.642a5.931,5.931,0,0,0,1.1.315c1.878.556,3.75,1.131,5.636,1.66.247.069.559-.091.841-.146a3.179,3.179,0,0,0-.94-.389M193.2,421.922c-.009.655.448.455.741.346a29.7,29.7,0,0,1,4.111-1.388,21.27,21.27,0,0,0,3.44-1.312c.115-.047.169-.245.251-.374-.109-.056-.219-.158-.327-.156a1.567,1.567,0,0,0-.495.124c-1.114.411-2.218.851-3.34,1.237-1.407.484-2.828.924-4.381,1.522M249.146,327.4c-.092-1.145-.2-2.288-.266-3.434-.021-.35,0-.6-.484-.575-.463.021-.363.316-.348.56.082,1.327.179,2.653.271,3.98.616.071-.09,1.028.615.936.115-.015.144-.686.211-1.054.008-.044,0-.091,0-.412M32.816,434.323c-.816.357-1.637.705-2.444,1.082-.111.052-.154.249-.228.379.13.018.28.088.388.047q3.212-1.225,6.412-2.482c.121-.047.189-.226.282-.344-.175-.029-.371-.124-.522-.076-1.255.4-2.5.834-3.888,1.393M196.786,246.654a8.772,8.772,0,0,0-.566-1.268.8.8,0,0,0-1.035-.411c-.479.253-.386.758-.252,1.189.048.154.245.262.374.391.387.387.772.777,1.163,1.16.153.15.321.284.483.425a3.842,3.842,0,0,0,.093-.776c-.011-.15-.169-.29-.261-.71M282.9,351.787a1.648,1.648,0,0,0-.291-.282,5.083,5.083,0,0,0-.557-.248,1.813,1.813,0,0,0,.158.648,15.178,15.178,0,0,0,1.245,1.515c.135.142.424.138.643.2-.034-.246.011-.549-.118-.725a11.3,11.3,0,0,0-1.08-1.109m-42.439-95.35a.927.927,0,0,0,.077-.194c0-.021-.078-.085-.094-.077a14.578,14.578,0,0,1-2.164,1.031c-.54.159-.5.449-.382.759a1.031,1.031,0,0,0,.787-.05,21.293,21.293,0,0,0,1.777-1.469m-15.846,87.772c-.184-.379-.359-.763-.554-1.136a4.477,4.477,0,0,0-.415-.645c-.034-.044-.181-.031-.261,0a.2.2,0,0,0-.091.178,15.505,15.505,0,0,0,.89,2.223c.144.257.469.027.431-.617M122.655,323.816c.209.047.263.616.571.232s.706-.807.458-1.4a.249.249,0,0,0-.233-.069c-.368.23-.977.271-.8,1.233m23.286,97.968.016.551.948-.223-.345-.811c-.161.115-.321.23-.62.483M263.2,389.128a1.433,1.433,0,0,0,.188-.192c.208-.309.409-.624.613-.936-.074-.037-.168-.124-.22-.1a1.112,1.112,0,0,0-.85,1.023A.213.213,0,0,0,263.2,389.128Z" transform="translate(869 5.36)"/><path d="M369.493,604.179a10.771,10.771,0,0,1-1.891-3.9,36.17,36.17,0,0,1-1.648-6.057,16.527,16.527,0,0,1-.054-6.928c.248-.963.273-1.991.582-2.93a18.9,18.9,0,0,1,3.917-6.933,29.648,29.648,0,0,1,5.256-4.609,34,34,0,0,1,6.715-3.4,36.048,36.048,0,0,1,5.944-1.593,13.131,13.131,0,0,1,3.868-.262,15.054,15.054,0,0,1,3.642.477,8.89,8.89,0,0,0,1.642.038,12.675,12.675,0,0,1,7.505,3.126,5.323,5.323,0,0,1,1.753,3.264,8.091,8.091,0,0,0,1.49,3.228,27.156,27.156,0,0,1,3.167,7.642,18.313,18.313,0,0,1,.507,6.791,16.194,16.194,0,0,1-2.937,7.448,27.484,27.484,0,0,1-10.971,8.983,20.279,20.279,0,0,1-5.5,1.7c-1.43.233-2.823.7-4.23,1.077a15.9,15.9,0,0,1-6.553.338,24.279,24.279,0,0,1-4.623-1.184,12.025,12.025,0,0,1-4.763-2.8,12.871,12.871,0,0,1-2.82-3.518m4.96-23.011c-.184.383-.357.772-.553,1.149a20.055,20.055,0,0,0-1.62,5.519,17.775,17.775,0,0,0-.277,4.01c.047,1.352.341,2.694.52,4.042a16.134,16.134,0,0,0,1.541,5.008,14.939,14.939,0,0,0,4.134,5.318,13.4,13.4,0,0,0,3.984,2.053,17.784,17.784,0,0,0,6.641.588,2.482,2.482,0,0,0,.6-.213,40.39,40.39,0,0,0,7.023-3.335,19.671,19.671,0,0,0,8.04-8.616c.715-1.4,1.351-2.836,1.979-4.275q1.017-2.332,1.942-4.7a16.7,16.7,0,0,0,.5-1.86l.1-.373a2.575,2.575,0,0,1,.191.39,3.217,3.217,0,0,1,.245.992,8.719,8.719,0,0,1-.261,1.538c-.161.711-.371,1.41-.527,2.121a30.29,30.29,0,0,1-1.917,5.128,30.71,30.71,0,0,1-3.332,6.2,2.825,2.825,0,0,0-.263.836c.287-.116.576-.225.858-.353.078-.036.129-.128.2-.19a19.763,19.763,0,0,0,3.49-4.067,15.264,15.264,0,0,0,2.625-8.422,20.811,20.811,0,0,0-1.138-5.874,21.978,21.978,0,0,0-4.5-7.9,17.416,17.416,0,0,0-4.876-4.138,11.527,11.527,0,0,0-6.031-1.693,25.407,25.407,0,0,0-4.2.793,27.55,27.55,0,0,0-6.012,2.1,34.884,34.884,0,0,0-3.863,2.308,15.63,15.63,0,0,0-5.225,5.917m2.894,25.767a19.751,19.751,0,0,1-3.894-4.725c-1.944-3.484-2.535-7.323-2.842-11.216a25.7,25.7,0,0,1,.492-5.7,14.66,14.66,0,0,1,.846-3.244,18.858,18.858,0,0,1,2.6-4.848.314.314,0,1,0-.409-.393,12.458,12.458,0,0,0-3.294,3.567,15.52,15.52,0,0,0-2.973,7.985,22.566,22.566,0,0,0,1.344,10.171A42.369,42.369,0,0,0,371,603.024a13.25,13.25,0,0,0,3.187,3.778c1.669,1.464,3.771,1.964,5.839,2.523.04.011.21-.275.2-.284-.3-.254-.6-.5-.919-.726C378.708,607.893,378.094,607.486,377.347,606.935Z" transform="translate(553.818 -293.329)"/><path d="M2062.051,1493.622c-1.792-.551-3.437-1.13-5.105-1.635a6.223,6.223,0,0,0-1.371-.029c-.142-.008-.276-.136-.413-.209.146-.111.285-.308.438-.319a14.924,14.924,0,0,1,5.707.843,50.169,50.169,0,0,1,12.484,6.4,29.466,29.466,0,0,1,4.931,4.369,23.719,23.719,0,0,1,4.577,7.73,21.291,21.291,0,0,1,1.622,8.691,31.48,31.48,0,0,1-.322,5.247,21.587,21.587,0,0,1-3.22,7.612,31.921,31.921,0,0,1-3.8,4.631,34.808,34.808,0,0,1-6.177,5.332,24.182,24.182,0,0,1-6.391,2.86,11.893,11.893,0,0,1-3.489.567c-1.422-.039-2.846-.014-4.269-.008a34.7,34.7,0,0,1-5.864-.773,21.7,21.7,0,0,1-7.941-3.121,16.432,16.432,0,0,1-5.149-4.524c-.993-1.455-2.27-2.715-3.271-4.165a27.221,27.221,0,0,1-4.076-9.454,18.8,18.8,0,0,1-.616-5.685,7.475,7.475,0,0,0-.253-1.675.618.618,0,0,1,0-.274c.4-1.226.129-2.508.3-3.739a42.055,42.055,0,0,1,.988-4.127,15.983,15.983,0,0,1,2.019-4.4,17.058,17.058,0,0,1,3.149-4.063,17.449,17.449,0,0,1,5.052-3.089,24.941,24.941,0,0,1,6.459-1.4,60.461,60.461,0,0,1,9.806-.148,19.335,19.335,0,0,1,6.024,1.013,6.173,6.173,0,0,0,1.535.276,2.846,2.846,0,0,0,.761-.132c-.132-.221-.209-.54-.4-.647-1.082-.592-2.193-1.128-3.29-1.693a2.379,2.379,0,0,0-.44-.271m16.259,39.821a3.57,3.57,0,0,1,.4-.66,14.852,14.852,0,0,0,3.194-6.117,36.287,36.287,0,0,0,1.071-6.847,18.993,18.993,0,0,0-.2-3.468,18.066,18.066,0,0,0-1.335-5.386,19.469,19.469,0,0,0-6.868-8.534,23.975,23.975,0,0,0-6.436-3.409,43.027,43.027,0,0,0-5.549-1.594,35.543,35.543,0,0,0-5.728-.73,56.706,56.706,0,0,0-7.6.171,30.087,30.087,0,0,0-6.868,1.414,12.676,12.676,0,0,0-4.476,2.821c-.571.54-.482.8.294,1.042.167.051.377-.027.539.032a1.818,1.818,0,0,1,.437.325,1.281,1.281,0,0,1-.418.205,1.87,1.87,0,0,0-1.633,1.049,29.712,29.712,0,0,0-1.856,3.781,42.9,42.9,0,0,0-1.854,7.49,10.068,10.068,0,0,0-.018,2.473c.034.8-.065,1.591-.06,2.389a26.073,26.073,0,0,0,.878,7.094,18.66,18.66,0,0,0,2.249,5.4,19.547,19.547,0,0,0,4.147,4.753,19.9,19.9,0,0,0,5.364,3.037,21.056,21.056,0,0,0,5.618,1.424c1.779.14,3.531.682,5.308.761a26.858,26.858,0,0,0,7.9-.494,24.132,24.132,0,0,0,6.817-2.834A32.1,32.1,0,0,0,2078.31,1533.443Z" transform="translate(-881.349 -1089.901)"/><path d="M646.709,99.011a10,10,0,0,1,2.328-3.668,3.512,3.512,0,0,1,5.07-.093c.877.864,1.731,1.752,2.616,2.608a6.093,6.093,0,0,1,1.854,5.128,12.022,12.022,0,0,1-2.5,5.974,7.659,7.659,0,0,1-3.9,2.855,3.177,3.177,0,0,1-2.414-.377,4.876,4.876,0,0,1-2.169-2.166,12.626,12.626,0,0,1-1.611-7.86,10.015,10.015,0,0,1,.732-2.4m8.336,2.136c0-.229.019-.46,0-.686a3.127,3.127,0,0,0-1.835-2.758,3.381,3.381,0,0,0-3.516,1.105,7.178,7.178,0,0,0-.7,1.491,12.29,12.29,0,0,0-.507,5.535,5.037,5.037,0,0,0,1.046,2.426c1.345,1.807,3.946,1.284,4.932-.934a9.086,9.086,0,0,0,.587-6.178m-4.685-4.409c.184,0,.368,0,.55-.015a1.294,1.294,0,0,0,0-.245A.512.512,0,0,0,650.361,96.738Z" transform="translate(312.083 114.767)"/><path d="M1735.527,601.979c0-2.214,1.051-3.958,2.12-5.676a20.85,20.85,0,0,1,1.535-1.843c1.2-1.5,2.49-1.548,4.4-.813a7.526,7.526,0,0,1,4.288,4.607,14.208,14.208,0,0,1,1.215,5.816,8.62,8.62,0,0,1-2.9,6.2,4.063,4.063,0,0,1-2.4,1.073,5.548,5.548,0,0,1-2.89-.886,19.7,19.7,0,0,1-3.468-2.9,8.248,8.248,0,0,1-1.825-3.763,6.414,6.414,0,0,1-.085-1.818m1.585-.482.11-.441-.18-.04a.74.74,0,0,1-.206.481q-.01.128-.02.255a.561.561,0,0,1,.3-.255m8.818,4.96c.162-.345.312-.7.487-1.035a5.845,5.845,0,0,0,.341-4.152,7.278,7.278,0,0,0-2.756-4.193,4.411,4.411,0,0,0-3.26-1.079,2.3,2.3,0,0,0-.679.343c.183.13.359.27.55.385.218.132.453.236.673.364a2.575,2.575,0,0,1,.286.222c-.162.056-.334.179-.484.157-1.048-.153-1.07-.17-1.4.912a10.622,10.622,0,0,0-.492,2.129,12.85,12.85,0,0,0,.805,5.569,3.1,3.1,0,0,0,5.113,1.2c.214-.238.452-.455.817-.82m-6.063,2.2c.75.6,1.777.74,2.5,1.233,1.035.709,1.668.194,2.5-.146,1.174-.481,1.438-1.709,2.189-2.532.168-.184.021-.657.018-1-.162.229-.33.454-.484.688-.093.142-.149.308-.245.448a3.905,3.905,0,0,1-6.681.035,7.157,7.157,0,0,1-1.311-4.14c.011-1.1.006-2.2,0-3.3a1.3,1.3,0,0,0-.115-.363,1.15,1.15,0,0,0-.15.315,18.778,18.778,0,0,0-.441,3.729,7.538,7.538,0,0,0,2.227,5.033m3.307-13.779c-.519-.184-1.032-.39-1.562-.532-.1-.028-.28.187-.4.309-.017.017.08.215.12.213A6.043,6.043,0,0,1,1744.3,596a2.516,2.516,0,0,0,.387.125c-.061-.156-.08-.362-.192-.46A4.454,4.454,0,0,0,1743.175,594.883Z" transform="translate(-627.371 -315.448)"/><path d="M1673.052,1688.085a9.9,9.9,0,0,1,3.09-4.169,1.739,1.739,0,0,1,2.758.6c.143.254.135.6.3.834.22.317.212.7.7.958,2.032,1.079,3.1,3.026,3.941,5.047a6.944,6.944,0,0,1-.392,4.806,11.109,11.109,0,0,1-1.981,3.285,5.817,5.817,0,0,1-2.472,1.593,4.282,4.282,0,0,1-2.454-.272,7.049,7.049,0,0,1-4.536-6.281,21.115,21.115,0,0,1,.3-4.418,16.924,16.924,0,0,1,.75-1.985m1.033,7.785c.449.449.888.908,1.349,1.345a2.883,2.883,0,0,0,4.524-1.288c.9-2.564,1.219-5.225-.768-7.591-1.06-1.263-3.631-1.607-4.367-.047-1.108,2.349-2.043,4.793-.738,7.581m4.409,3.858a4.792,4.792,0,0,0,3.316-3.625,32.307,32.307,0,0,0,.393-3.955c.011-.131-.134-.274-.206-.412-.111.144-.329.3-.318.431a8.522,8.522,0,0,1-.576,3.338,4.086,4.086,0,0,1-4.42,3.115c-.424-.055-.837-.191-1.26-.261-.111-.018-.239.073-.359.114.087.1.155.23.263.286a5.891,5.891,0,0,0,3.166.97m-.827-14.33.35-.075-.413-.413A.666.666,0,0,0,1677.668,1685.4Z" transform="translate(-572.612 -1255.498)"/><path d="M575.859,1052.425a9.149,9.149,0,0,1-1.725-4.478,6.054,6.054,0,0,1,4.457-5.717,5.033,5.033,0,0,1,4.541,1.217c.695.561,1.362,1.156,2.03,1.75,1.534,1.363,1.586,3.078.854,4.995a9.91,9.91,0,0,1-4.882,5.042,2.629,2.629,0,0,1-3.266-.511c-.615-.768-1.291-1.487-2.009-2.3m5.994.207a7.729,7.729,0,0,0,1.415-3,4.294,4.294,0,0,0-1.419-4.724c-1.061-.8-2.224-.962-2.985-.282a13.838,13.838,0,0,0-1.655,1.927c-.1.128.015.42.031.636.16-.12.386-.206.467-.365.332-.658.686-1.26,1.552-1.218a1.549,1.549,0,0,1,.366.11c-.082.1-.147.252-.249.283-.91.281-1.219,1.086-1.522,1.833a4.117,4.117,0,0,0-.372,3.167,11.078,11.078,0,0,0,1.549,2.114c.541.713,1.266.566,1.957.358a1.7,1.7,0,0,0,.865-.843m-5.787-3.858a4.6,4.6,0,0,1,.734-3.232c.072-.1-.006-.3-.014-.457-.148.046-.362.043-.434.144a5.249,5.249,0,0,0-.808,3.85A2.332,2.332,0,0,0,576.065,1048.773Z" transform="translate(373.978 -702.511)"/><path d="M2346.542,1174.033a5.3,5.3,0,0,1,1.433-6.254,3.078,3.078,0,0,1,3.533.223,4.213,4.213,0,0,1,1.751,3.4,7.692,7.692,0,0,1-1.118,4.23,2.7,2.7,0,0,1-4.7.043c-.315-.5-.557-1.051-.9-1.648m2.549.9c.5.369.841.091,1.094-.324.152-.249.183-.571.335-.82.895-1.463.485-2.812-.355-4.11-.4-.62-1.163-.509-1.689.055a3.737,3.737,0,0,0-.7,3.389A1.877,1.877,0,0,0,2349.092,1174.928Z" transform="translate(-1153.784 -810.478)"/><path d="M227.627,448.494c-.392.392-.7.736-1.042,1.035a2.223,2.223,0,0,1-3.435-.6c-.188-.333-.342-.688-.556-1-1.09-1.6-.415-3.077.437-4.438.781-1.247,2.867-1.271,4.125-.311,1.588,1.213,1.431,3.229.922,4.587a3.768,3.768,0,0,1-.45.734m-.62-2.136a13.9,13.9,0,0,0-.839-1.568c-.475-.677-.906-.541-1.387.159-.446.65-.194,1.309-.239,1.957a1.422,1.422,0,0,0,1.128,1.411c.624.107.744-.518,1.032-.857a2.474,2.474,0,0,0,.3-1.1m-2.48,3.031c.276,0,.774.054.791-.013.14-.547-.313-.347-.58-.409-.115-.027-.2-.169-.312-.223-.211-.1-.434-.173-.652-.257.141.191.279.384.424.572C224.254,449.13,224.325,449.188,224.527,449.389Z" transform="translate(677.565 -185.525)"/><path d="M2232.971,369.066a2.384,2.384,0,0,1-1.963-1.938,5.254,5.254,0,0,1-.273-3.375,3.891,3.891,0,0,1,1.356-1.856c.656-.5,1.175-.164,1.758.176a3.769,3.769,0,0,1,2.153,3.609,3.857,3.857,0,0,1-2.253,3.279,2.229,2.229,0,0,1-.778.1m1.929-3.445c-.064-.34-.02-.773-.215-1a11.423,11.423,0,0,0-1.5-1.332c-.074-.06-.257.014-.389.026a2.05,2.05,0,0,1,.169.394,4.3,4.3,0,0,1,.243,1.527,7.822,7.822,0,0,1-.765,1.736c-.063.134-.229.285-.2.385a1.04,1.04,0,0,0,1.216.533C2234.424,367.57,2234.567,366.666,2234.9,365.621Z" transform="translate(-1054.198 -115.812)"/><path d="M1139.568,1221.476c1.383-1.108,2.672-2.181,4.018-3.177a45.37,45.37,0,0,1,6.565-4.1c1.45-.73,1.445-.727,2.311.683a.462.462,0,0,0,.423.146c.95-.51,1.963-.1,2.935-.23a.659.659,0,0,1,.391.045c2.244,1.314,4.69,2.211,7.016,3.358,1.777.876,3.442,1.9,5.132,2.909a9.536,9.536,0,0,1,4.677,6.855c.523,3.336.2,6.707-2.094,9.559-.951,1.184-1.775,2.472-2.635,3.727a8.141,8.141,0,0,0-.427.923,3.065,3.065,0,0,1-.464.768c-1.285,1.313-2.561,2.636-3.9,3.892a6.758,6.758,0,0,1-3.335,1.576c-1.82.38-3.635.8-5.471,1.075a17.608,17.608,0,0,1-2.085-.229,20.268,20.268,0,0,1-7.821-1.754,24.633,24.633,0,0,1-4.67-2.373,8.3,8.3,0,0,1-3.091-3.831,14.157,14.157,0,0,1-1.081-7.1,34.289,34.289,0,0,1,1.369-6.034,17.863,17.863,0,0,1,3.276-5.8,1.986,1.986,0,0,0,.263-.577.664.664,0,0,0-.023-.262.78.78,0,0,0-.289.078c-.553.446-1.092.91-1.647,1.354a.569.569,0,0,1-.349.1c-.084-.14-.209-.394-.152-.457.337-.373.72-.7,1.156-1.118m17.706,5.994c.289-.184.591-.351.866-.554q2.1-1.554,4.185-3.129a1.414,1.414,0,0,0,.254-.382c-.215-.014-.5-.123-.634-.025-.433.312-.8.712-1.213,1.057a27.029,27.029,0,0,0-3.733,3.034l-.02.255a.561.561,0,0,1,.3-.255m.413,18.6q1.984-1.846,3.969-3.692a19.757,19.757,0,0,1,2.768-2.536,4.722,4.722,0,0,0,.97-1.222c-.416.238-.836.467-1.245.716a5.092,5.092,0,0,0-.855.585c-1.786,1.674-3.556,3.365-5.336,5.046a3.311,3.311,0,0,1-.822.67c-.33.148-.591-.034-.6-.443a3.851,3.851,0,0,0-.387.212c-.64.449-1.279.9-1.91,1.361a3.616,3.616,0,0,0-.391.385,3.743,3.743,0,0,0,.585.152c1.207.119,2.126-.593,3.254-1.235m-15.432-10.748c.868-.776,1.747-1.539,2.6-2.332.6-.56,1.174-1.155,1.743-1.75.066-.069.023-.24.031-.364a.905.905,0,0,0-.288.093q-1.922,1.495-3.833,3c-.966.767-1.923,1.546-2.878,2.327a.78.78,0,0,0-.165,1.253c.187.259.107.471.427.143.734-.754,1.484-1.491,2.366-2.372m-1.378-6.889c1.033-.941,2.063-1.885,3.1-2.822.866-.783,1.744-1.554,2.6-2.345.072-.066.045-.241.064-.365a.77.77,0,0,0-.289.062c-.391.282-.768.583-1.155.871-1.508,1.121-2.978,2.3-4.548,3.329a2.72,2.72,0,0,0-1.146,1.49c-.106.306-.282.858-.187.918.518.327.611-.337.928-.522a4.265,4.265,0,0,0,.63-.615m17.5-8.13c.143-.046.593.075.248-.275a1.247,1.247,0,0,0-1.762.135c-1.059.968-2.1,1.952-3.187,2.89-.931.806-1.911,1.555-2.859,2.342-.1.084-.132.252-.195.381a1.363,1.363,0,0,0,.464-.121c2.389-1.732,4.771-3.474,7.292-5.352m1.378,16.259a.945.945,0,0,0-.075.2c0,.021.083.084.095.076.541-.356,1.095-.695,1.611-1.083,1.086-.818,2.155-1.658,3.226-2.5,1.039-.813,2.076-1.627,3.1-2.46.1-.085.1-.3.146-.46-.156-.009-.349-.08-.463-.015a6.486,6.486,0,0,0-.958.672c-.75.635-1.467,1.309-2.225,1.934-1.429,1.179-2.878,2.334-4.457,3.637m-11.988,7.578a5.714,5.714,0,0,0-1.032.793,2.532,2.532,0,0,0-.285.921,13.382,13.382,0,0,0,1.369.322c.042.006.11-.443.232-.641a6.4,6.4,0,0,1,.766-1.054c.718-.758,1.5-1.459,2.194-2.236.227-.254.846-.359.535-.941-.318.188-.641.368-.952.567-.113.072-.188.2-.3.285-.8.618-1.6,1.231-2.531,1.983m5.374.689c.576-.484,1.168-.951,1.718-1.464a1.954,1.954,0,0,0,.3-.651,2.591,2.591,0,0,0-.655.219c-.224.148-.377.4-.592.567-1.174.909-2.361,1.8-3.534,2.712a8.525,8.525,0,0,0-.682.656,2.557,2.557,0,0,0,.988.107,2.8,2.8,0,0,0,.956-.656c.473-.429.91-.9,1.5-1.488M1141.7,1231.19c.478-.386.972-.755,1.424-1.171.121-.111.11-.365.16-.553-.129.083-.252.178-.388.249-1.31.683-2.209,1.943-3.594,2.547-.229.1-.244.689-.358,1.052.169.041.425.174.495.109.725-.68,1.42-1.393,2.261-2.234m1.929,8.543c-.729.546-1.46,1.089-2.186,1.639a2.991,2.991,0,0,0-.291.287,2.612,2.612,0,0,0,.481.134c.173.016.407.043.517-.05.847-.72,1.675-1.463,2.495-2.214.073-.067.049-.239.07-.363-.129.047-.261.086-.385.143a3.965,3.965,0,0,0-.7.423m5.374-20.806c.432-.276.872-.539,1.289-.835.113-.08.153-.262.227-.4-.154-.032-.344-.14-.456-.086a10.422,10.422,0,0,0-2.959,2.4c-.054.057-.029.188-.04.284.123-.025.276-.012.365-.08.487-.372.959-.764,1.574-1.287m14.468,10.334c-.448.356-.9.708-1.339,1.075a.253.253,0,0,0-.028.247.256.256,0,0,0,.242.066c.468-.315.936-.633,1.382-.979q1.1-.85,2.161-1.743c.063-.053.015-.239.019-.363a1.14,1.14,0,0,0-.289.1c-.673.48-1.341.968-2.148,1.592m7.716-1.378c-.805-.513-1.093.463-1.674.617-.133.035-.148.52-.217.8.278-.028.623.038.82-.1a3.8,3.8,0,0,0,1.071-1.313m-9.507-.138c.856-.581,1.716-1.156,2.561-1.752.059-.042.01-.237.011-.361-.156,0-.36-.057-.461.019-.875.661-1.734,1.342-2.585,2.032-.059.048-.015.222-.018.337a1.894,1.894,0,0,0,.492-.276m-18.05,16.121a5.528,5.528,0,0,0,1.022-.776c.313-.374.974-.533.844-1.216-.41.268-.839.511-1.224.813a5.379,5.379,0,0,0-.854.865c-.064.08.044.3.211.315m24.526-18.188a1.588,1.588,0,0,0-.285.295,4.745,4.745,0,0,0-.235.563,2.313,2.313,0,0,0,.657-.184,10.906,10.906,0,0,0,1.148-.872.371.371,0,0,0,.067-.354.365.365,0,0,0-.337-.124,6.814,6.814,0,0,0-1.014.677m-1.24-2.618c-.223.223-.459.434-.664.672-.178.206-.321.442-.48.665a2.687,2.687,0,0,0,.8-.248,9.505,9.505,0,0,0,.98-.9,1.768,1.768,0,0,0-.64-.187m-2.756-.827c.406-.085.807-.184.955-.641.013-.041-.139-.184-.149-.177-.288.187-.568.386-.848.585C1164.086,1222.026,1164.058,1222.064,1164.164,1222.234Z" transform="translate(-110.365 -850.48)"/><path d="M1438.108,1370.835c.415-.461.9-.724,1.227-1.122a1.337,1.337,0,0,1,1.562-.5,3.1,3.1,0,0,1,1.889,1.284,5.888,5.888,0,0,1,.864,3.087,3.047,3.047,0,0,1-3.259,3.04,1.967,1.967,0,0,1-1.717-1.042,4.512,4.512,0,0,1-.841-3.08c.1-.509-.258-1.1.274-1.671m3.169,3.307a5.522,5.522,0,0,0,.559-1.141,1.308,1.308,0,0,0-.183-.916c-.082-.128-.475-.109-.714-.072a3.766,3.766,0,0,0-.844.282,1.1,1.1,0,0,0-.618,1.7c.377.7.558.72,1.8.146m-.551-2.756-.188-.463-.463.288A1.942,1.942,0,0,0,1440.726,1371.386Z" transform="translate(-370.668 -984.476)"/><path d="M1318.952,1513.853c-.17-.525-.936-.294-.912-.943a2.46,2.46,0,0,1,.626-1.679,3.964,3.964,0,0,1,2.2-1.349,4.887,4.887,0,0,1,3.258.922c.887.483.893,1.479.817,2.39a2.724,2.724,0,0,1-2.082,2.1,4.3,4.3,0,0,1-3.906-1.44m1.722-1.309a7.026,7.026,0,0,0,.405.932.565.565,0,0,0,.431.132,3.123,3.123,0,0,0,.625-1.207.745.745,0,0,0-.853-.718C1320.67,1511.749,1320.833,1512.082,1320.675,1512.544Z" transform="translate(-267.428 -1105.792)"/><path d="M1171.3,1514.668c.779,1,1.122,2.044.458,3.078-.637.991-1.373,1.993-2.787,1.954a2.792,2.792,0,0,1-2.375-1.769,12.829,12.829,0,0,1-.308-2.609,2.2,2.2,0,0,1,1.76-1.953,2.9,2.9,0,0,1,2.895.938,4.132,4.132,0,0,0,.357.361m-2.825,2.687a3.449,3.449,0,0,0,.514.407c.464.245.943.54,1.37-.083a1.286,1.286,0,0,0-.224-1.683,2.377,2.377,0,0,0-.776-.421c-.378-.116-.737-.61-1.18-.127a.939.939,0,0,0-.037,1.306C1168.237,1516.888,1168.275,1517.062,1168.476,1517.355Z" transform="translate(-136.586 -1108.812)"/><path d="M1081.267,1258.443a2.488,2.488,0,0,1-3.292.565,3.653,3.653,0,0,1-1.283-1.726,2.551,2.551,0,0,1,.459-2.972,3.043,3.043,0,0,1,2.986-.989c.463.113.892.673,1.181,1.128a3.6,3.6,0,0,1-.052,3.994m-3.238-2c.092.189.176.382.278.565.123.222.26.437.391.655.225-.211.575-.387.645-.641a3.177,3.177,0,0,0,.035-1.333c-.027-.163-.365-.309-.588-.389-.089-.032-.285.107-.371.216A2.345,2.345,0,0,0,1078.029,1256.445Z" transform="translate(-59.091 -884.554)"/><path d="M1213.6,1156.4a6.622,6.622,0,0,1-1.45,2.7,1.867,1.867,0,0,1-2.891-.055,4.441,4.441,0,0,1-1.18-2.94,2.43,2.43,0,0,1,3.536-2.168,16.7,16.7,0,0,1,1.6,1.11c.478.312.372.776.383,1.356m-2.342,1.378c.316-.225.859-.419.893-.681.046-.345-.263-.775-.5-1.111-.321-.457-.719-.639-1.218-.152-.546.533-.6.806-.063,1.318C1210.578,1157.355,1210.865,1157.479,1211.254,1157.777Z" transform="translate(-172.613 -798.701)"/><path d="M1365.548,1193.649a3.145,3.145,0,0,0-.439-.167c-1.9-.773-1.766-1.128-.838-2.677.848-1.413,1.994-2.193,3.495-1.33a5.536,5.536,0,0,1,1.687,1.648,1.955,1.955,0,0,1-1.411,2.975,2.881,2.881,0,0,1-2.495-.449m1.86-2.274a.886.886,0,0,0-1.294-.073c-.487.385-.209.849.075,1.128a1.755,1.755,0,0,0,1.135.552c.36-.019.7-.43,1.048-.669-.2-.281-.395-.561-.594-.841C1367.754,1191.435,1367.716,1191.407,1367.409,1191.375Z" transform="translate(-306.721 -829.267)"/><path d="M1067.44,1401.092c.4,2.114-.706,3.522-2.544,3.362a2.282,2.282,0,0,1-1.071-.384,3.241,3.241,0,0,1-.424-4.313,2.025,2.025,0,0,1,2.315-.343,12.692,12.692,0,0,1,1.724,1.678m-2.825-.344c-.378.89.537,2.422,1.4,2.339a.511.511,0,0,0,.225-.11,1.422,1.422,0,0,0,.3-1.826C1066.113,1400.395,1065.6,1400.239,1064.616,1400.748Z" transform="translate(-47.332 -1010.393)"/><path d="M1293.765,509.928a8.456,8.456,0,0,1-3.236-3.367c-.592-1-1.185-2-1.851-2.944-.92-1.307-.193-2.524,1.2-3.049,1.31-.494,2.652-.9,3.981-1.343q5.561-1.844,11.123-3.686a3.276,3.276,0,0,1,.461-.21c.939-.145,1.883.126,2.053.65a1.681,1.681,0,0,1-.682,1.885c-.656.575-.463,1.466-.62,2.206a12.744,12.744,0,0,1-3.151,6.55,11.82,11.82,0,0,1-5.058,3.091,8.33,8.33,0,0,1-4.219.217m8.819-9.783a.833.833,0,0,1,0-.273c.072-.194.169-.38.256-.569-.174.051-.348.1-.522.153-.611.183-1.224.361-1.832.552q-4.376,1.374-8.75,2.756c-.77.243-.826.375-.4,1.018.6.9,1.286,1.748,1.825,2.682a2.464,2.464,0,0,0,2.758,1.229,7.305,7.305,0,0,0,5.831-5.142C1302.015,501.835,1302.308,501.131,1302.584,500.145Z" transform="translate(-241.758 -231.045)"/><path d="M817.629,1543.153c2.143,3.337,4.141,6.657,6.317,9.857a80.6,80.6,0,0,0,5.253,6.9c1.823,2.142,3.82,4.143,5.831,6.114a25.907,25.907,0,0,0,2.84,2.073.555.555,0,0,1,.2.469c-.057.169-.189.2-.475.112a12.3,12.3,0,0,1-3.571-2,26.017,26.017,0,0,1-4.646-4.069,48.678,48.678,0,0,1-4.4-5.461c-1.1-1.72-2.424-3.3-3.563-5-.807-1.2-1.478-2.5-2.2-3.764-.611-1.075-1.228-2.149-1.8-3.246-.429-.827-.792-1.689-1.167-2.543a1.159,1.159,0,0,1-.063-.521,2.7,2.7,0,0,1,.123-.5c.157.06.38.074.458.188C817.059,1542.186,817.3,1542.641,817.629,1543.153Z" transform="translate(165.277 -1133.163)"/><path d="M891.341,1582.733c-1.231-1.139-2.483-2.128-3.534-3.3a69.167,69.167,0,0,1-4.979-6.171,35.657,35.657,0,0,1-3.246-5.41,38.249,38.249,0,0,1-1.39-3.825c-.033-.1.069-.239.108-.361.145.056.362.07.423.175.838,1.439,1.7,2.866,2.467,4.343a38.942,38.942,0,0,0,5.558,8.562c1.653,1.809,3.365,3.562,5.052,5.339a3.7,3.7,0,0,1,.476.493,2.109,2.109,0,0,1,.171.561c-.173.024-.372.112-.514.057A2.506,2.506,0,0,1,891.341,1582.733Z" transform="translate(111.819 -1152.213)"/><path d="M2025.635,1055.585a5.285,5.285,0,0,1,.594,1.357c.061.345-.8,1.072-1.107,1.054a2.146,2.146,0,0,1-1.348-1.142c-.21-.936.1-1.311,1.1-1.337A2.816,2.816,0,0,1,2025.635,1055.585Z" transform="translate(-875.866 -714.076)"/><path d="M2052.417,1122.107c-.914.2-1.683-.07-1.909-.707-.11-.31-.016-.986.145-1.043a2.056,2.056,0,0,1,1.436-.041C2052.8,1120.662,2052.749,1121.368,2052.417,1122.107Z" transform="translate(-898.928 -769.851)"/><path d="M2035.228,1083.468a4.129,4.129,0,0,1,.985,1.145c.3.6.008,1.029-.646,1.06a1.7,1.7,0,0,1-1.443-1.3C2034.07,1083.67,2034.426,1083.407,2035.228,1083.468Z" transform="translate(-884.839 -738.17)"/><path d="M1258.805,413.611a5.65,5.65,0,0,1-2.978,3.13,3.5,3.5,0,0,1-3.457-.6,6.49,6.49,0,0,1-2.241-3.339c-.378-1.755-.286-4.65,1.918-5.811.233-.122.379-.4.592-.57a3.028,3.028,0,0,1,4.224.158,8.632,8.632,0,0,1,1.061,1.076,3.476,3.476,0,0,1,.892,2.246c-.045,1.191-.011,2.384-.011,3.714m-3.445-3.583c.322.413.635.833.971,1.234a.423.423,0,0,0,.342.128c.083-.017.216-.228.191-.268-.564-.9-.589-2.146-1.715-2.681-.157-.075-.416-.23-.464-.182-.141.139-.32.41-.267.543a2.872,2.872,0,0,0,.942,1.226m1.24,3.445-.075-.35-.413.413A.666.666,0,0,0,1256.6,413.473Z" transform="translate(-208.728 -153.742)"/><path d="M464.306,664.128c-.2.123-.417.253-.445.22a3.581,3.581,0,0,0-2.627-1,19.918,19.918,0,0,1-6.479-1.615,38.9,38.9,0,0,1-7.361-4.149c-.869-.679-1.72-1.381-2.587-2.062-.338-.266-.52-.687-1.086-.728-.431-.031-.488-.451-.321-.916a35.351,35.351,0,0,1,3.7-7c.228-.357.366-.771.6-1.126.262-.4.314-1.293,1.178-.593.058.047.548-.227.593-.411a4.255,4.255,0,0,1,1.294-1.811,1.643,1.643,0,0,0,.375-.665c.2-.764.276-.819.952-.393,2.292,1.446,4.517,3.01,6.88,4.329,2.443,1.363,5.015,2.5,7.535,3.72,1.488.723,2.989,1.422,4.475,2.149a1.208,1.208,0,0,1,.488,1.574c-.692,1.094-1.4,2.181-2.137,3.242-1.344,1.925-2.724,3.824-4.076,5.744-.32.455-.588.948-.948,1.492m-14.4-6.269c1.076.616,2.145,1.245,3.229,1.847a22.3,22.3,0,0,0,6.311,2.7,4.148,4.148,0,0,0,2.615-.037c.585-.343-.326-1.2-.442-1.861-.008-.045.009-.094,0-.137-.274-1.08-.53-2.164-.836-3.235-.106-.371-.11-.88-.681-.93-1.109-.1-2.225-.14-3.326-.292-.8-.111-1.785-.047-2.226-.89-.592-1.13-1.615-2.025-1.8-3.39a1.97,1.97,0,0,0-.669-.945.72.72,0,0,0-.643-.124c-1.889.869-3.686,1.929-5.661,2.627-.892.315-.93.669-.314,1.31a7.633,7.633,0,0,0,1.014.871c1.09.793,2.2,1.566,3.433,2.485m4.271-8.956c.276,1.079.522,2.168.834,3.236.4,1.371.713,1.612,2.141,1.579,2.947-.068,5.892-.19,8.839-.258a3.274,3.274,0,0,1,1.968.238c.172.107.544-.11.824-.178a6.32,6.32,0,0,0-.59-.615,2.672,2.672,0,0,0-.569-.283c-1.424-.663-2.873-1.278-4.265-2-1.177-.612-2.291-1.347-3.43-2.031q-2.427-1.458-4.848-2.924a6.579,6.579,0,0,0-.969-.654,1.235,1.235,0,0,0-.828.116c-.388.172.02.313.059.479.245,1.049.467,2.1.835,3.294m11.574,10.2a7.1,7.1,0,0,1,1.057-2.456,5.476,5.476,0,0,0,.238-1.21c-.322.074-.641.161-.966.216-.179.03-.372-.023-.549.01a25.9,25.9,0,0,1-2.806.517c-.67.048-.663.363-.493.766a10.232,10.232,0,0,1,.773,4.092c0,.517-.25,1.31.4,1.435.629.121,1.008-.546,1.256-1.149a21.243,21.243,0,0,1,1.1-2.221m-14.192-10.334c-.23-.777-.446-1.559-.7-2.329a3.848,3.848,0,0,0-.374-.671,2.582,2.582,0,0,0-.574.527c-.529.925-1,1.881-1.53,2.807-.34.6-.722,1.175-1.118,1.739-.131.187-.335.321-.025.484a.5.5,0,0,0,.382-.008c1.167-.51,2.343-1,3.478-1.574C451.374,649.6,451.5,649.189,451.561,648.764Z" transform="translate(486.77 -357.205)"/><path d="M2117.5,1589.389a55.606,55.606,0,0,1,6.334-2.323c1.978-.561,3.98-1.034,5.978-1.523a1.653,1.653,0,0,1,.632.117c-.124.13-.251.257-.372.39-.335.367.139.516.252.561a6.309,6.309,0,0,1,2.192,1.374,21.267,21.267,0,0,1,2.884,4.185c.651,1.048,1.2,2.159,1.768,3.259a9.469,9.469,0,0,0,.513,1.3c.454.62.05.776-.395.929-1.366.471-2.74.919-4.108,1.387a3.668,3.668,0,0,0-.439.269c-.685.353-.689.354-.133.915.711.717,1.437,1.419,2.138,2.146.614.636.51.908-.164,1.518-1.116,1.011-2.22.713-3.386.168s-2.326-1.032-3.482-1.564a2.631,2.631,0,0,0-2.578.44c-.171.1-.151.724-.044,1.05.3.926.719,1.813,1.045,2.732.481,1.356.116,2.076-1.231,2.516-.324.106-.664.168-.986.281-.759.268-.876.57-.584,1.289q.55,1.356,1.047,2.733a2.2,2.2,0,0,1,.01.547,1.691,1.691,0,0,1-.621,1.652c-.611.383-1.265.052-1.847-.285a12.425,12.425,0,0,1-1.217-.712c-.6-.449-1.182-.936-1.745-1.437-.243-.216-.4-.7-.633-.719a3.1,3.1,0,0,0-1.392.246c-2.841,1.117-5.662,2.288-8.507,3.4-1.211.471-1.671.235-2.234-.815a28.052,28.052,0,0,1-1.917-6.09c-.53-1.942-1-3.9-1.505-5.85a1.216,1.216,0,0,1,.718-1.66c1.64-.694,3.323-1.284,4.975-1.95,1.533-.619,3.044-1.294,4.575-1.918.655-.267.73-.583.388-1.214-.463-.853-.771-1.79-1.17-2.68-.445-.994-.394-1.365.464-1.893,1.532-.944,3.09-1.844,4.776-2.763m1.929,9.783c-2.156.781-4.323,1.532-6.464,2.351a41.686,41.686,0,0,1-5.815,1.925c-.71.158-1.418.338-2.112.553-1,.31-1.052.484-.616,1.387a15.614,15.614,0,0,1,1.808,4.769,16.357,16.357,0,0,0,.8,2.827c.248.776.584.924,1.419.653.889-.289,1.794-.549,2.65-.918,1.559-.672,3.1-1.391,4.622-2.141a2.6,2.6,0,0,1,2.153-.034c1.23.419,1.9,1.464,2.779,2.267.742.675,1.077.694,1.5-.173a1.4,1.4,0,0,0,.135-1.317c-.591-1.466-.143-2,1.467-2.376a6.4,6.4,0,0,0,1.3-.524.827.827,0,0,0,.468-1.228c-.266-.625-.478-1.276-.788-1.877-1.015-1.969-2.124-3.893-3.065-5.9a.934.934,0,0,0-1.114-.651,3.474,3.474,0,0,0-1.127.4m16.121-3.72c-.908-1-1.824-1.993-2.721-3a13.482,13.482,0,0,1-1.256-1.545,4.28,4.28,0,0,1-1.146-2.424.989.989,0,0,0-1.4-1.006c-1.583.486-3.149,1.032-4.713,1.579-1.322.462-2.634.95-3.945,1.442-2.064.775-4.139,1.526-6.18,2.359-1.134.463-1,.63-.534,1.563a13.263,13.263,0,0,0,1.306,1.936.874.874,0,0,0,1.354.235,13.648,13.648,0,0,1,2.6-1.027c1.165-.4,1.65-.17,2.251.94.872,1.612,1.845,3.179,2.583,4.85a1.07,1.07,0,0,0,1.364.7,7.365,7.365,0,0,0,2.369-.572,2.135,2.135,0,0,1,2.094.129,14.973,14.973,0,0,0,1.629.714,2.28,2.28,0,0,0,.9-.116,5.118,5.118,0,0,0-.3-.837c-.129-.229-.508-.422-.492-.607.036-.425-.739-.452-.4-.938a7.537,7.537,0,0,1,.789-1.043,2.139,2.139,0,0,1,.7-.3c1.095-.458,2.194-.907,3.281-1.383.42-.184.871-.4.313-.95-.144-.142-.2-.371-.437-.7m-30.589,7.441c.53-.162,1.065-.307,1.587-.491a22.267,22.267,0,0,1,2.391-.868,34.563,34.563,0,0,0,5.12-1.946c.118-.047.317-.031.358-.109.138-.26.386-.668.29-.8a1.112,1.112,0,0,0-.86-.436,6.017,6.017,0,0,0-1.428.52q-2.645,1.1-5.285,2.2a31.079,31.079,0,0,1-3.3,1.34c-.631.182-.364.54-.375.818-.023.573.467.316.7.3s.439-.25.8-.526m14.33-5.236c.123-.031.248-.057.369-.1a.771.771,0,0,0,.517-1.191c-.228-.434-.6-.459-1.118-.179a23.047,23.047,0,0,1-2.684,1.074c-.326.126-.769.258-.5.7.181.3.208.8,1,.6S2118.349,1597.9,2119.292,1597.657Z" transform="translate(-943.963 -1171.063)"/><path d="M2151.634,1709.313c1.29-.554,2.511-1.039,3.73-1.528.118-.047.229-.194.331-.182.372.042.738.131,1.106.2a3.68,3.68,0,0,1-.724.631c-1.37.673-2.747,1.336-4.147,1.945-1.01.439-2.056.793-3.093,1.169a2.231,2.231,0,0,1-.565.053c.087-.189.123-.467.27-.553C2149.537,1710.471,2150.555,1709.933,2151.634,1709.313Z" transform="translate(-983.264 -1276.313)"/><path d="M2165.284,1734.167c.769-.253,1.466-.45,2.172-.609.15-.034.33.069.5.109a1.88,1.88,0,0,1-.354.382,20.889,20.889,0,0,1-5.8,2.527c-.831.205-1.671.378-2.512.537-.076.014-.217-.165-.278-.281-.036-.069,0-.252.046-.276.46-.21.926-.41,1.4-.585C2162.038,1735.385,2163.627,1734.813,2165.284,1734.167Z" transform="translate(-992.505 -1298.686)"/><path class="d" d="M-936.4,934.84s22.994-1.846,21.8-16.493a28.594,28.594,0,0,0-11.9-21.295s-12.76-1.845-17.936,5.571-2.278,20.372-1.115,22.863S-936.4,934.84-936.4,934.84Z" transform="translate(2068.455 -702.356)"/><path d="M1858.2,29.089a18.847,18.847,0,0,1-2.231,4.778,16.347,16.347,0,0,1-5.756,5.072,36.545,36.545,0,0,1-6.29,2.623,13.979,13.979,0,0,1-12.014-1.726,20.14,20.14,0,0,1-6.206-7.116,47.122,47.122,0,0,1-3.1-6.756,19.2,19.2,0,0,1-.866-9.142,21.717,21.717,0,0,1,3.845-9.273c2.38-3.6,5.924-5.565,9.834-6.931a11.893,11.893,0,0,1,8.765.5,22.312,22.312,0,0,1,11.981,11.613,23.628,23.628,0,0,1,2.05,7.363c.142,1.257.517,2.489.636,3.746a15.667,15.667,0,0,1-.65,5.249m-5.7,3.856a3.461,3.461,0,0,1,.361-.685,10.838,10.838,0,0,0,2.335-7.246,31.248,31.248,0,0,0-.648-6.26,22.554,22.554,0,0,0-1.808-5.953,17.455,17.455,0,0,0-9.237-8.865,10.714,10.714,0,0,0-5.113-1.009c-.537.055-.943.067-.442.72.275.358.2.549-.281.641a23.743,23.743,0,0,1-2.907.636,8.1,8.1,0,0,0-7,5.5,21.649,21.649,0,0,0-1.023,6.259,25.982,25.982,0,0,0,.286,7.561,29.463,29.463,0,0,0,1.027,3.76,25.8,25.8,0,0,0,5.692,8.38c1.684,1.721,3.784,2.06,5.893,2.36a9.707,9.707,0,0,0,3.229-.61A18.43,18.43,0,0,0,1852.5,32.945Z" transform="translate(-704.89 192.244)"/><g transform="translate(6.203 2.526)"><path d="M1434.96,290.878a8.873,8.873,0,0,1-1.069-5.044,3.764,3.764,0,0,1,1.594-2.89,8.593,8.593,0,0,1,1.253-.875c.6-.287,1.261-.446,1.882-.695.154-.062.252-.258.377-.392.154-.164.3-.451.465-.457a.866.866,0,0,1,.615.344c.874,1.209,1.718,2.439,2.568,3.665a2.1,2.1,0,0,1,.342.58.807.807,0,0,1-.044.6c-.16.238-.352.481-.76.277-.371-.185-.569.147-.738.44a2.063,2.063,0,0,0,0,1.876,4.955,4.955,0,0,0,1.855,2.559,2.418,2.418,0,0,0,.649.311c.426.119.9-.327.7-.694a.481.481,0,0,1,.235-.756.965.965,0,0,1,.837.042c.978.9,1.909,1.86,2.844,2.81.448.456.886.923,1.294,1.413a2.687,2.687,0,0,1-.064,2.142c-.316.375-.648.737-.983,1.1a1.926,1.926,0,0,1-1.694.538,21.128,21.128,0,0,1-5.454-1.358,12.513,12.513,0,0,1-6.282-4.668,7.73,7.73,0,0,1-.427-.863m5.039-8.213a.7.7,0,0,0-1.165-.183,20.6,20.6,0,0,1-2.055,1.485.887.887,0,0,0-.443,1.035,13.717,13.717,0,0,0,.56,2.214c.5,1.313,1.036,2.613,1.641,3.88a7.637,7.637,0,0,0,2.651,2.885,11.776,11.776,0,0,0,3.072,1.845c.609.194,1.259.268,1.855.492,1.372.514,1.98.177,2.664-1.041a.827.827,0,0,0-.064-.748c-.618-.76-1.279-1.487-1.954-2.2-.7-.742-.75-.776-1.573-.244-1.229.794-2.675-.043-3.469-.916a8.648,8.648,0,0,1-1.5-2.49,3.227,3.227,0,0,1,.672-3.538.657.657,0,0,0,.109-1c-.318-.466-.664-.913-1-1.479m-5.011,4.12c.037.04.107.081.107.12a7.944,7.944,0,0,0,.8,3.167,8.651,8.651,0,0,0,2.192,3.03c.069.062.221.033.334.047a.949.949,0,0,0-.089-.335c-.131-.175-.318-.308-.447-.484a14.243,14.243,0,0,1-2-4.223c-.245-.774-.378-1.584-.573-2.374-.021-.087-.123-.153-.188-.229a.86.86,0,0,0-.134.281C1434.977,286.081,1434.988,286.378,1434.988,286.785Z" transform="translate(-314.754 -78.369)"/><path d="M1545.6,282.934a5.98,5.98,0,0,0-4.672-3.694c-.454-.094-.72-.124-.953.333-.12.234-.353.507-.711.307a.864.864,0,0,1-.256-1.1,1.953,1.953,0,0,1,1.908-.748,8.228,8.228,0,0,1,3.338,1.344,5.9,5.9,0,0,1,2.8,4.635q.1,1.68.225,3.358a2.978,2.978,0,0,1,.09.73,1,1,0,0,1-.385.6c-.1.064-.439-.076-.538-.217a1.95,1.95,0,0,1-.38-.89c-.081-.927-.058-1.863-.138-2.79C1545.873,284.191,1545.714,283.592,1545.6,282.934Z" transform="translate(-408.107 -76.131)"/><path d="M1530.884,305.844a9.732,9.732,0,0,1,.3,1.191,10.236,10.236,0,0,1,.109,1.286.616.616,0,0,1-.157.425c-.158.148-.5.367-.546.322a1.569,1.569,0,0,1-.495-.722,8.882,8.882,0,0,1-.114-1.289c-.142-1.531-1.29-2.113-2.5-2.631a4.176,4.176,0,0,1-.677-.237c-.237-.157-.556-.374-.593-.6-.05-.316.542-.6.912-.494a6.575,6.575,0,0,1,.917.334A4.922,4.922,0,0,1,1530.884,305.844Z" transform="translate(-396.813 -98.402)"/></g></g></svg>