<svg width="161" height="24" viewBox="0 0 161 24" fill="none" xmlns="http://www.w3.org/2000/svg">
<g clip-path="url(#clip0_9141_29187)">
<path d="M34.73 12.5C34.73 15.546 35.889 17.7 39.337 17.7C40.7746 17.7158 42.1613 17.168 43.2 16.174L43.408 16.921C43.497 17.208 43.616 17.41 43.943 17.41H44.508C44.6539 17.4076 44.7934 17.3499 44.8983 17.2486C45.0032 17.1472 45.0657 17.0097 45.073 16.864V6.46C45.0657 6.3143 45.0032 6.17683 44.8983 6.07545C44.7934 5.97407 44.6539 5.91635 44.508 5.914H43.587C43.4411 5.91635 43.3016 5.97407 43.1967 6.07545C43.0918 6.17683 43.0293 6.3143 43.022 6.46V14.133C42.582 14.6409 42.0392 15.0496 41.4295 15.332C40.8197 15.6143 40.1569 15.764 39.485 15.771C37.821 15.771 36.81 14.708 36.81 12.524V6.46C36.8027 6.3143 36.7402 6.17683 36.6353 6.07545C36.5304 5.97407 36.3909 5.91635 36.245 5.914H35.3C35.1541 5.91635 35.0146 5.97407 34.9097 6.07545C34.8048 6.17683 34.7424 6.3143 34.735 6.46L34.73 12.5Z" fill="#DDDDDD"/>
<path fill-rule="evenodd" clip-rule="evenodd" d="M66 10.11C62.939 10.11 61.245 11.748 61.245 13.932C61.2136 14.4254 61.2858 14.9198 61.4569 15.3836C61.6279 15.8474 61.8941 16.2703 62.2383 16.6252C62.5825 16.98 62.9971 17.2589 63.4555 17.4441C63.9139 17.6292 64.4059 17.7163 64.9 17.7C66.2786 17.7051 67.6035 17.1661 68.587 16.2L68.825 16.976C68.914 17.235 69.003 17.407 69.33 17.407H69.895C70.0409 17.4046 70.1804 17.3469 70.2853 17.2456C70.3902 17.1442 70.4527 17.0067 70.46 16.861V10.481C70.46 7.119 69.717 5.624 66.686 5.624C65.2748 5.61743 63.8745 5.87065 62.555 6.371C62.288 6.486 62.109 6.658 62.228 7.003L62.466 7.721C62.476 7.78189 62.5002 7.83957 62.5367 7.88936C62.5731 7.93915 62.6208 7.97966 62.6758 8.00761C62.7308 8.03555 62.7916 8.05015 62.8534 8.05022C62.9151 8.05029 62.9759 8.03582 63.031 8.008C64.1766 7.59847 65.3834 7.38613 66.6 7.38C68.294 7.38 68.561 8.357 68.532 10.48C67.7072 10.2495 66.8563 10.1252 66 10.11V10.11ZM65.227 15.973C64.9531 15.9884 64.6791 15.9464 64.4224 15.8498C64.1657 15.7532 63.932 15.604 63.7362 15.4119C63.5404 15.2198 63.3869 14.989 63.2854 14.7341C63.184 14.4793 63.1368 14.2061 63.147 13.932C63.147 12.438 64.336 11.632 66 11.632C66.8579 11.587 67.7143 11.7446 68.5 12.092V14.362C68.1079 14.856 67.611 15.2569 67.0452 15.5355C66.4793 15.8141 65.8586 15.9635 65.228 15.973H65.227Z" fill="#DDDDDD"/>
<path d="M73.227 11.691C73.2268 12.4872 73.3848 13.2755 73.6919 14.01C73.999 14.7446 74.4491 15.4108 75.0159 15.9699C75.5828 16.529 76.2551 16.9699 76.9938 17.2669C77.7325 17.5639 78.5229 17.7111 79.319 17.7C80.2184 17.7106 81.1061 17.4951 81.9006 17.0733C82.695 16.6515 83.3708 16.0369 83.866 15.286C83.9071 15.2204 83.9345 15.1472 83.9463 15.0706C83.9581 14.9941 83.9541 14.916 83.9346 14.8411C83.9151 14.7662 83.8806 14.6961 83.833 14.635C83.7854 14.5739 83.7259 14.5232 83.658 14.486L83.331 14.256C83.2732 14.1925 83.2019 14.1428 83.1224 14.1106C83.0428 14.0784 82.957 14.0645 82.8713 14.0699C82.7856 14.0754 82.7023 14.1001 82.6274 14.1422C82.5526 14.1843 82.4882 14.2426 82.439 14.313C81.9165 14.9677 81.2003 15.4405 80.393 15.6637C79.5856 15.8869 78.7283 15.8492 77.9437 15.5559C77.1591 15.2625 76.4873 14.7287 76.0243 14.0306C75.5613 13.3325 75.3309 12.5059 75.366 11.669C75.3499 11.1395 75.4403 10.6122 75.6316 10.1182C75.823 9.6242 76.1115 9.17363 76.4801 8.79312C76.8486 8.41261 77.2898 8.1099 77.7774 7.90291C78.2651 7.69591 78.7892 7.58883 79.319 7.588C79.8334 7.58917 80.342 7.69704 80.8126 7.90479C81.2832 8.11255 81.7055 8.41567 82.053 8.795C82.32 9.025 82.469 9.312 82.915 8.91L83.48 8.45C83.5428 8.40728 83.5961 8.35199 83.6366 8.28764C83.677 8.22328 83.7036 8.15124 83.7148 8.07608C83.726 8.00091 83.7215 7.92424 83.7015 7.85091C83.6816 7.77758 83.6467 7.70917 83.599 7.65C83.0988 7.004 82.4532 6.48512 81.7147 6.13552C80.9762 5.78592 80.1657 5.61546 79.349 5.638C77.74 5.64692 76.1984 6.28535 75.0542 7.41665C73.91 8.54794 73.2541 10.0822 73.227 11.691Z" fill="#DDDDDD"/>
<path fill-rule="evenodd" clip-rule="evenodd" d="M91.48 10.11C88.419 10.11 86.725 11.748 86.725 13.932C86.6936 14.4254 86.7658 14.9198 86.9369 15.3836C87.1079 15.8474 87.3741 16.2703 87.7183 16.6252C88.0625 16.98 88.4771 17.2589 88.9355 17.4441C89.3939 17.6292 89.8859 17.7163 90.38 17.7C91.7579 17.7045 93.082 17.1656 94.065 16.2L94.303 16.976C94.392 17.235 94.481 17.407 94.808 17.407H95.373C95.5189 17.4046 95.6584 17.3469 95.7633 17.2456C95.8682 17.1442 95.9307 17.0067 95.938 16.861V10.481C95.938 7.119 95.195 5.624 92.164 5.624C90.7528 5.61743 89.3525 5.87065 88.033 6.371C87.765 6.486 87.587 6.658 87.706 7.003L87.944 7.721C87.954 7.78189 87.9782 7.83957 88.0147 7.88936C88.0511 7.93915 88.0988 7.97966 88.1538 8.00761C88.2088 8.03555 88.2697 8.05015 88.3314 8.05022C88.3931 8.05029 88.4539 8.03582 88.509 8.008C89.6535 7.59746 90.8592 7.38377 92.075 7.376C93.769 7.376 94.036 8.353 94.007 10.476C93.1836 10.2473 92.3345 10.1243 91.48 10.11V10.11ZM90.706 15.973C90.4322 15.9884 90.1581 15.9464 89.9014 15.8498C89.6447 15.7532 89.411 15.604 89.2152 15.4119C89.0194 15.2198 88.8659 14.989 88.7644 14.7341C88.663 14.4793 88.6158 14.2061 88.626 13.932C88.626 12.438 89.815 11.632 91.479 11.632C92.3369 11.587 93.1933 11.7446 93.979 12.092V14.362C93.5868 14.8562 93.0898 15.2571 92.5237 15.5357C91.9577 15.8143 91.3368 15.9636 90.706 15.973V15.973Z" fill="#DDDDDD"/>
<path fill-rule="evenodd" clip-rule="evenodd" d="M104.411 5.626C100.845 5.626 98.705 8.27 98.705 11.632C98.705 14.932 101.083 17.696 104.114 17.696C105.482 17.6707 106.789 17.1262 107.77 16.173L107.948 16.949C107.965 17.0728 108.024 17.1868 108.117 17.271C108.209 17.3551 108.328 17.404 108.453 17.409H109.077C109.223 17.4066 109.362 17.3489 109.467 17.2476C109.572 17.1462 109.635 17.0087 109.642 16.863V0.546C109.635 0.400295 109.572 0.262827 109.467 0.161446C109.362 0.0600652 109.223 0.00235251 109.077 0L108.156 0C108.01 0.00258805 107.871 0.0603782 107.766 0.161711C107.661 0.263044 107.599 0.400376 107.591 0.546V6.374C106.612 5.85906 105.517 5.60166 104.411 5.626ZM104.321 15.885C102.152 15.885 100.785 13.902 100.785 11.661C100.785 9.361 102.092 7.551 104.678 7.551C105.679 7.55772 106.665 7.79377 107.561 8.241V13.989C107.216 14.5452 106.741 15.0087 106.176 15.3393C105.612 15.6699 104.975 15.8576 104.321 15.886V15.885Z" fill="#DDDDDD"/>
<path fill-rule="evenodd" clip-rule="evenodd" d="M118.233 5.627C117.447 5.61578 116.667 5.76583 115.941 6.06788C115.216 6.36994 114.56 6.81759 114.014 7.38317C113.468 7.94875 113.044 8.62026 112.767 9.3562C112.491 10.0922 112.369 10.8769 112.408 11.662C112.364 12.4482 112.483 13.235 112.758 13.9731C113.032 14.7112 113.456 15.3846 114.003 15.9512C114.55 16.5178 115.208 16.9653 115.936 17.2657C116.664 17.5661 117.446 17.713 118.233 17.697C119.791 17.7174 121.317 17.2557 122.602 16.375C123.048 16.059 122.929 15.887 122.721 15.628C122.632 15.513 122.55 15.405 122.468 15.298C122.386 15.191 122.305 15.082 122.216 14.967C121.999 14.679 121.831 14.773 121.488 14.967L121.388 15.025C120.502 15.5714 119.486 15.8692 118.445 15.887C117.439 15.8598 116.478 15.4644 115.744 14.7758C115.01 14.0872 114.554 13.1533 114.463 12.151H123.022C123.156 12.1506 123.285 12.1003 123.384 12.0099C123.483 11.9194 123.545 11.7954 123.557 11.662C123.592 11.4047 123.612 11.1456 123.617 10.886C123.631 10.1809 123.5 9.48033 123.233 8.82764C122.966 8.17496 122.568 7.58396 122.063 7.09115C121.559 6.59834 120.959 6.21416 120.3 5.96234C119.641 5.71051 118.938 5.59639 118.233 5.627V5.627ZM121.56 10.541H114.487C114.609 9.64394 115.06 8.82407 115.751 8.24013C116.443 7.65618 117.327 7.34969 118.232 7.38C119.083 7.39131 119.898 7.72304 120.515 8.30898C121.132 8.89492 121.505 9.69197 121.56 10.541Z" fill="#DDDDDD"/>
<path d="M126.381 16.864C126.388 17.0097 126.451 17.1472 126.556 17.2486C126.661 17.3499 126.8 17.4076 126.946 17.41H127.867C128.013 17.4074 128.152 17.3496 128.257 17.2483C128.362 17.147 128.424 17.0096 128.432 16.864V9.191C128.85 8.69591 129.368 8.29427 129.952 8.01209C130.536 7.72992 131.172 7.57351 131.82 7.553C133.632 7.553 134.643 8.616 134.643 10.8V16.864C134.65 17.0097 134.713 17.1472 134.818 17.2486C134.923 17.3499 135.062 17.4076 135.208 17.41H136.159C136.305 17.4074 136.444 17.3496 136.549 17.2482C136.653 17.1469 136.716 17.0095 136.723 16.864V10.8C136.723 10.2507 136.674 9.70242 136.575 9.162C137.534 8.18366 138.831 7.6079 140.2 7.552C141.923 7.552 142.874 8.644 142.874 10.799V16.863C142.882 17.0086 142.944 17.146 143.049 17.2473C143.154 17.3486 143.293 17.4064 143.439 17.409H144.39C144.536 17.4064 144.675 17.3486 144.78 17.2473C144.885 17.146 144.947 17.0086 144.955 16.863V10.8C144.955 7.811 143.796 5.627 140.348 5.627C138.705 5.73696 137.146 6.39467 135.92 7.495C135.507 6.8766 134.938 6.37819 134.271 6.05018C133.604 5.72217 132.862 5.57618 132.12 5.627C130.682 5.61015 129.295 6.15684 128.256 7.15L127.989 6.259C127.968 6.15192 127.907 6.05678 127.819 5.99275C127.731 5.92872 127.621 5.90058 127.513 5.914H126.949C126.803 5.91635 126.664 5.97406 126.559 6.07545C126.454 6.17683 126.391 6.31429 126.384 6.46L126.381 16.864Z" fill="#DDDDDD"/>
<path d="M153.319 17.381L150.912 23.281C150.704 23.681 150.942 24 151.387 24H152.487C152.593 23.9897 152.696 23.9527 152.784 23.8924C152.872 23.8321 152.944 23.7504 152.992 23.655L160.719 6.575C160.927 6.201 160.719 5.914 160.273 5.914H159.144C159.04 5.919 158.94 5.95073 158.852 6.00611C158.765 6.06149 158.693 6.13862 158.644 6.23L154.483 15.024L150.05 6.23C150.003 6.13558 149.931 6.05603 149.842 6.00022C149.752 5.94442 149.649 5.91457 149.544 5.914H148.237C147.791 5.914 147.613 6.173 147.791 6.546L153.319 17.381Z" fill="#DDDDDD"/>
<path d="M47.838 16.864C47.8453 17.0097 47.9078 17.1472 48.0127 17.2486C48.1176 17.3499 48.2571 17.4076 48.403 17.41H49.324C49.4699 17.4076 49.6094 17.3499 49.7143 17.2486C49.8192 17.1472 49.8817 17.0097 49.889 16.864V9.191C50.9266 8.19892 52.2889 7.61692 53.723 7.553C55.387 7.553 56.398 8.616 56.398 10.8V16.864C56.4053 17.0097 56.4678 17.1472 56.5727 17.2486C56.6776 17.3499 56.8171 17.4076 56.963 17.41H57.914C58.0599 17.4076 58.1994 17.3499 58.3043 17.2486C58.4092 17.1472 58.4717 17.0097 58.479 16.864V10.8C58.479 7.811 57.32 5.627 53.872 5.627C52.3527 5.65146 50.8862 6.1881 49.71 7.15L49.443 6.259C49.4221 6.15192 49.3613 6.05678 49.2729 5.99275C49.1846 5.92872 49.0753 5.90058 48.967 5.914H48.4C48.2541 5.91635 48.1146 5.97406 48.0097 6.07545C47.9048 6.17683 47.8423 6.31429 47.835 6.46L47.838 16.864Z" fill="#DDDDDD"/>
<path d="M0.152001 2.231C0.762292 5.61797 2.5545 8.67855 5.20969 10.8681C7.86488 13.0576 11.2108 14.234 14.652 14.188C18.0568 14.2315 21.3689 13.0791 24.0114 10.9316C26.6539 8.78414 28.4592 5.7777 29.113 2.436C29.2515 1.92918 29.3178 1.40535 29.31 0.880001C29.313 0.764837 29.2926 0.650261 29.25 0.543235C29.2073 0.436208 29.1434 0.338964 29.062 0.257409C28.9807 0.175854 28.8836 0.111691 28.7766 0.0688161C28.6697 0.0259417 28.5552 0.00525121 28.44 0.00800134H0.873001C0.757668 0.00484308 0.642898 0.025198 0.535685 0.0678261C0.428472 0.110454 0.33106 0.174463 0.249383 0.255953C0.167706 0.337443 0.103473 0.434709 0.0605995 0.541824C0.0177256 0.648939 -0.00289251 0.763661 1.21153e-06 0.879001V0.879001V0.912001C-0.00565669 1.35623 0.0447411 1.79939 0.150001 2.231H0.152001Z" fill="#DDDDDD"/>
<path d="M21.856 22.867C21.5508 21.1738 20.6548 19.6437 19.3274 18.5491C18 17.4545 16.3273 16.8662 14.607 16.889C12.9043 16.8669 11.2479 17.4429 9.92638 18.5167C8.60482 19.5905 7.70191 21.0939 7.37499 22.765C7.30523 23.0183 7.27157 23.2803 7.27499 23.543C7.27348 23.6006 7.28369 23.6579 7.30501 23.7114C7.32632 23.7649 7.35829 23.8135 7.39898 23.8543C7.43966 23.8951 7.48821 23.9272 7.54167 23.9486C7.59514 23.97 7.6524 23.9804 7.70999 23.979H21.5C21.5576 23.9804 21.6148 23.97 21.6683 23.9486C21.7218 23.9272 21.7703 23.8951 21.811 23.8543C21.8517 23.8135 21.8837 23.7649 21.905 23.7114C21.9263 23.6579 21.9365 23.6006 21.935 23.543V23.527C21.9365 23.3046 21.91 23.0828 21.856 22.867Z" fill="#DDDDDD"/>
</g>
<defs>
<clipPath id="clip0_9141_29187">
<rect width="160.8" height="24" fill="white"/>
</clipPath>
</defs>
</svg>
