<svg xmlns="http://www.w3.org/2000/svg" width="340.557" height="181.862" viewBox="0 0 340.557 181.862"><g id="powerfull_integration_image" transform="translate(-18170 -1815)"><path id="Path_119040" data-name="Path 119040" d="M111.961,106.992a39,39,0,0,1-39,39c-21.539,0-42-19.461-42-41s17.461-41.5,39-41.5S111.961,85.453,111.961,106.992Z" transform="translate(18170 1803)" fill="#cce3ff"></path><path id="Path_119041" data-name="Path 119041" d="M278.961,104.7a38.165,38.165,0,0,1-38.037,38.291c-21.007,0-40.963-19.107-40.963-40.254S216.991,61.992,238,61.992,278.961,83.554,278.961,104.7Z" transform="translate(18170 1803)" fill="#cce3ff"></path><path id="Path_119042" data-name="Path 119042" d="M234.461,78.492l3.5-2.5,4,1.5,2,5.5v5l4,4,1,9,4.5,12,4.5,5.5-6.5,3-13.5,1-12-2-3-3.5,1-1.5,3-4-.5-8,1-9,3-5,3.5-1.5,1-3-1.5-4Z" transform="translate(18170 1803)" fill="#f28f84"></path><path id="Path_119043" data-name="Path 119043" d="M55.961,94.992l-12.5-.5-2.5,8,2.5,8,1.5,1.5,8-2,6,1.5,2,6.5,3,3,3.5-7.5h5l3.5-1.5,1-5,7-.5,11-.5,3-1.5-1-5.5v-6.5l-3-7.5h-15l-17,1-1,4.5,4,4.5Z" transform="translate(18170 1803)" fill="#f2e499"></path><path id="Path_119044" data-name="Path 119044" d="M139.923,79.3a14.462,14.462,0,0,1-.445,3.193c-.9,2.43-3.552,2.518-5.219,1.429a30.4,30.4,0,0,0-9.776-4.352c-2.789-.649-5.532-.833-8.1.707a13.439,13.439,0,0,0-4.852,5.131c-.233.42-.471.839-.741,1.236-1.311,1.93-.1,3.665.376,5.475.449,1.72.8,3.466,1.165,5.208a34.654,34.654,0,0,1,.721,4.033c.13,1.507.051,3.033.055,4.551,0,1.832.13,3.676-.031,5.494-.207,2.346-.587,4.683-1.008,7-.234,1.287-.793,2.516-1.015,3.8a1.789,1.789,0,0,0,.757,1.36,12.147,12.147,0,0,0,6.406,2.186,7.188,7.188,0,0,0,6.654-3.57c.988-1.546,1.844-3.185,2.923-4.663a27.731,27.731,0,0,1,3.4-3.884c.962-.9,2.512-.576,3.286,1a9.732,9.732,0,0,1,.964,3.443c.24,3.056.4,6.127.4,9.192,0,3.226-.227,6.451-.359,9.677-.058,1.42-.126,2.84-.192,4.26-.127,2.711-.221,5.425-.4,8.133-.133,2.046-.316,4.092-.585,6.124A6.5,6.5,0,0,1,132.223,160c-.18.146-.234.471-.423.581-.669.388-1.379,1.032-2.06,1.017-3.2-.072-6.4-.321-9.6-.53-1.556-.1-3.106-.3-4.663-.372-3.321-.159-6.643-.308-9.966-.382-2.774-.062-5.551-.029-8.326,0-.938.008-1.877.1-2.812.2a3.091,3.091,0,0,0-.75.276,2.36,2.36,0,0,0,.344.718,23.736,23.736,0,0,1,5.163,7.125,11.46,11.46,0,0,1-.589,11.555,22.968,22.968,0,0,1-7.925,7.307,37.171,37.171,0,0,1-9.691,4.3c-1.985.517-4,.965-6.022,1.284-1.959.308-3.948.449-5.929.592a37.2,37.2,0,0,1-5.029.176c-4.188-.268-8.313-.817-12.13-2.83a20.437,20.437,0,0,1-4.342-3.02c-.9-.821-2.133-1.26-3.091-2.028a18.422,18.422,0,0,1-4.619-5.089,10.45,10.45,0,0,1-1.228-6.886,29.785,29.785,0,0,1,1.823-6.171,38.2,38.2,0,0,1,2.171-4.4,8.723,8.723,0,0,1,.952-1.23c-.508-.072-1.016-.153-1.525-.215-.889-.109-1.777-.233-2.67-.3q-1.741-.137-3.488-.2c-3.965-.138-7.93-.259-11.895-.39-1.838-.061-3.677-.109-5.513-.2-2.262-.108-4.527-.2-6.783-.394-2.374-.2-4.742-.476-7.106-.771a19,19,0,0,1-2.844-.581,1.834,1.834,0,0,1-1.152-2.816,2.456,2.456,0,0,1,1.675-.788c.819-.037,1.031-.278,1-1.061-.056-1.573.029-3.151-.027-4.724-.088-2.456-.254-4.908-.373-7.363-.137-2.839-.271-5.679-.384-8.52-.084-2.094-.084-4.193-.21-6.284-.136-2.27-.3-4.543-.586-6.8a69.633,69.633,0,0,0-1.181-6.939,5.837,5.837,0,0,1-.335-3.16,2.45,2.45,0,0,1,2.232-1.49,2.413,2.413,0,0,1,2.2,1.524,20.688,20.688,0,0,0,4.946,7.8,30.977,30.977,0,0,0,8.764,6.573,14.5,14.5,0,0,0,7.233,1.838,8.071,8.071,0,0,0,6.656-4.722c.363-.934-.322-1.572-.613-2.3a43.156,43.156,0,0,1-2.132-8c-.346-1.821-1.1-3.572-1.355-5.4a32.154,32.154,0,0,1-.158-5.677,42.623,42.623,0,0,1,.575-4.38,24.344,24.344,0,0,1,1.848-6.178c1.011-2.346,2.022-4.692,2.981-7.059a1.471,1.471,0,0,0-.083-1.158A15.045,15.045,0,0,0,27.7,76.392a11.58,11.58,0,0,0-3.692-1.3c-4.18-.61-7.729,1.134-11.037,3.4a18.335,18.335,0,0,0-5.862,5.587c-.9,1.532-2.171,1.821-3.463.967A2.461,2.461,0,0,1,2.633,83.48c-.185-1.793-.115-3.611-.251-5.411-.2-2.694-.507-5.381-.755-8.072-.143-1.553-.25-3.109-.391-4.662-.249-2.755-.6-5.5-.743-8.265a48.237,48.237,0,0,1,.04-7.225,4.377,4.377,0,0,1,2.429-3.153A17.462,17.462,0,0,1,9.421,44.6c3.1-.419,6.217-.773,9.339-.96,3.244-.195,6.5-.249,9.754-.192a59.6,59.6,0,0,1,7.471.579c4.127.6,8.228,1.377,12.336,2.1.8.14,1.579.39,2.377.536a3.208,3.208,0,0,0,.888-.086c-.142-.2-.3-.388-.425-.6a69.338,69.338,0,0,1-3.769-6.349,17.489,17.489,0,0,1-1.571-8.016,16.932,16.932,0,0,1,4.957-12.024,23.212,23.212,0,0,1,10.4-5.659,42.658,42.658,0,0,1,6.784-1.514,60.677,60.677,0,0,1,9.283-.38,30.777,30.777,0,0,1,9.517,1.874A20.431,20.431,0,0,1,95.5,19.567a13.148,13.148,0,0,1,2.989,7.061A19.657,19.657,0,0,1,96.7,36.934,37.771,37.771,0,0,1,90.051,47.3c-.149.168-.31.479-.248.638s.4.282.617.293c1.837.085,3.675.169,5.513.2,4.924.081,9.847.164,14.771.186,2.384.01,4.769-.167,7.153-.166,2.481,0,4.966.043,7.441.2,2.792.175,5.574.5,8.361.752a10.951,10.951,0,0,0,2.232.168,3.224,3.224,0,0,1,3.3,3.229c-.069,3.635.079,7.275.156,10.913.046,2.16.121,4.319.191,6.478q.087,2.661.194,5.321c.051,1.232.126,2.462.19,3.79Zm-8.681,46.393c.064-1.452.131-2.9.189-4.356,0-.116-.024-.319-.08-.336a.54.54,0,0,0-.222-.032.531.531,0,0,0-.216.061,1.727,1.727,0,0,0-.414.592,16.1,16.1,0,0,1-4.517,6.221,10.244,10.244,0,0,1-4.893,2.368c-1.188.2-2.417.179-3.594.422a5.793,5.793,0,0,1-4.33-.6c-1.237-.737-2.485-1.459-3.708-2.22-.522-.325-.916-.38-1.34.161-1.712,2.19-3.367,4.432-5.2,6.516a42.077,42.077,0,0,1-5.183,5.143,60.654,60.654,0,0,1-6.793,4.525c-1.841,1.1-3.762,2.152-6.062,1.893a2.01,2.01,0,0,0-.721.112,36.252,36.252,0,0,1-8.363,1.212,35.8,35.8,0,0,1-3.776-.182c-1.3-.1-2.6-.218-3.89-.386a35.48,35.48,0,0,1-8.918-2.444A65.853,65.853,0,0,1,48.3,138.58a41.827,41.827,0,0,1-5.292-3.964c-2.349-2.124-4.549-4.424-6.736-6.717-.948-1-1.078-1.116-2.009-.12a11.639,11.639,0,0,1-3.851,2.82,12.982,12.982,0,0,1-6.674,1.013,19.546,19.546,0,0,1-6.221-1.775,28.113,28.113,0,0,1-7.6-4.714c-.892-.83-1.841-1.6-2.771-2.388-.084-.072-.294-.14-.324-.1a.579.579,0,0,0-.15.385c.237,2.534.525,5.065.723,7.6.181,2.321.263,4.65.4,6.975.121,2.069.281,4.135.377,6.205.1,2.093.15,4.189.195,6.284.028,1.317.018,2.636,0,3.954-.009.619.131,1,.86,1.081,1.34.14,2.665.442,4.006.548,2.353.185,4.713.3,7.072.395q3.429.15,6.863.194,9.941.12,19.882.2c2.282.019,4.567.059,6.846-.025a9.642,9.642,0,0,0,2.632-.607c.614-.206,1.14-.786,1.749-.867a11.365,11.365,0,0,1,3.4-.016,2.269,2.269,0,0,1,1.841,2.244,3.4,3.4,0,0,1-1.631,3.363,5.948,5.948,0,0,1-3.636.515,2.806,2.806,0,0,0-2.165.841c-2.9,2.855-5.748,5.721-7.474,9.53a11.915,11.915,0,0,0-1.089,7.4,10.889,10.889,0,0,0,5.884,7.721,24.532,24.532,0,0,0,11.323,2.65,58.065,58.065,0,0,0,7.568-.547,34.767,34.767,0,0,0,5.06-.819,36.73,36.73,0,0,0,9.5-3.6c2.667-1.558,5.325-3.145,7.149-5.719,1.506-2.126,2.236-4.385,1.254-7.075a22.732,22.732,0,0,0-4.489-6.911c-.98-1.144-2.19-2.09-3.172-3.233-1.327-1.545-1.581-3.377,1.076-4.222a22.127,22.127,0,0,1,4.78-.791c2.447-.213,4.9-.357,7.36-.387,2.576-.031,5.155.086,7.731.177,2.937.1,5.873.25,8.809.381,1.324.059,2.647.119,3.97.2.81.047,1.622.1,2.427.2,1.921.239,3.838.5,5.756.769.446.061.6-.054.586-.55-.042-1.424-.031-2.851-.012-4.276.056-4.152.1-8.305.2-12.456.052-2.006.239-4.009.374-6.012.189-2.813.385-5.626.578-8.632Zm.671-72.418c-2.368-.257-4.73-.654-7.1-.739-3.542-.126-7.092-.01-10.639-.038-5.374-.043-10.747-.092-16.12-.2-2.777-.056-5.558-.167-8.323-.409a11.633,11.633,0,0,1-3.448-.959,2.508,2.508,0,0,1-1.314-2.94c.767-1.458,1.6-2.887,2.508-4.264a48.663,48.663,0,0,0,5.506-9.968,13.574,13.574,0,0,0,.771-7.853C92.945,22.429,90.385,20.425,87.5,19a32.115,32.115,0,0,0-13.433-2.952c-.935-.028-1.875.115-2.813.18a18.616,18.616,0,0,0-2.808.215c-2.87.648-5.776,1.221-8.563,2.141-4.043,1.334-7.413,3.616-9.094,7.791A14.072,14.072,0,0,0,50.2,35.7a19.266,19.266,0,0,0,3.135,6.6A53.51,53.51,0,0,0,57.727,47.3c1.158,1.179,2.829,1.242,4.373,1.52a2.046,2.046,0,0,1,1.823,2.089,2.126,2.126,0,0,1-2.249,1.755c-.874-.024-1.746-.148-2.621-.179-2.255-.08-4.511-.129-6.766-.2Q49.578,52.2,46.87,52.1q-4.4-.182-8.808-.385c-2.775-.125-5.55-.263-8.326-.382-1.8-.077-3.611-.178-5.416-.187-5.111-.025-10.221-.014-15.332,0-.456,0-.909.147-1.367.177-.491.032-.987-.012-1.479.012-.6.029-1.462-.266-1.588.585A12.963,12.963,0,0,0,4.6,54.966c.1,1.125.347,2.237.477,3.361.036.315-.2.663-.163.977.228,1.89.524,3.772.749,5.662.169,1.421.254,2.851.4,4.275q.373,3.747.775,7.491a3.583,3.583,0,0,0,.188.635,2.344,2.344,0,0,0,.555-.275,30.774,30.774,0,0,1,7.594-4.95,16.807,16.807,0,0,1,9.741-1.736,15.5,15.5,0,0,1,8.5,4.156c.9.837,1.659,1.835,2.558,2.678a1.1,1.1,0,0,0,1.073.049c1.929-1.974,3.792-4.011,5.7-6.009a1.8,1.8,0,0,1,.864-.455,6.318,6.318,0,0,0,3.1-1.169A29.724,29.724,0,0,1,53.7,64.912a28.048,28.048,0,0,1,6.321-2.433c1.664-.338,3.331-.667,5-.95a32.969,32.969,0,0,1,5-.7,29.39,29.39,0,0,1,5.253.55c2.6.44,5.193.919,7.744,1.561a4.349,4.349,0,0,1,3.3,2.3,1.6,1.6,0,0,0,.707.732c1.677.835,3.448,1.5,5.049,2.46A57.046,57.046,0,0,1,98.1,72.524a52.734,52.734,0,0,1,4.366,4.139c.315.312.44.248.7-.029a50.341,50.341,0,0,1,4.031-4.179,12.325,12.325,0,0,1,7.023-2.795,17.783,17.783,0,0,1,7.283.805,38.229,38.229,0,0,1,13.3,7.246,3.973,3.973,0,0,0,.784.427c0-.322.021-.644.01-.965-.006-.181-.081-.359-.088-.539-.07-1.805-.158-3.61-.191-5.417-.08-4.441-.137-8.882-.2-13.324-.015-1.157-.055-2.318.018-3.47a.828.828,0,0,0-.022-.343.835.835,0,0,0-.758-.61,19.842,19.842,0,0,0-2.423-.215ZM32.679,111.028c.129.525.283,1.045.381,1.576a24.2,24.2,0,0,0,2.827,8.377,32.4,32.4,0,0,0,5.467,7.37c2,1.828,4.049,3.623,6.217,5.246a53.38,53.38,0,0,0,15.638,8.326,39.653,39.653,0,0,0,10.83,1.781,37.078,37.078,0,0,0,4.162-.187,14.951,14.951,0,0,0,2.815-.418c2.3-.641,4.587-1.328,6.848-2.091a18.061,18.061,0,0,0,7.147-4.379c1.423-1.434,2.762-2.953,4.1-4.471a22.307,22.307,0,0,0,4.153-6.185c1.6-3.933,3.554-7.712,4.839-11.792a31.875,31.875,0,0,0,1.353-8.695,27.147,27.147,0,0,0-.77-6.529c-.416-1.956-.638-3.964-1.2-5.873a35.634,35.634,0,0,0-2.319-5.975,42.65,42.65,0,0,0-3.245-5.023,32.639,32.639,0,0,0-8.2-8.407,37.186,37.186,0,0,0-9.571-5.087c-2.846-.918-5.758-1.631-8.647-2.41a26.468,26.468,0,0,0-4.635-1.114c-2.491-.2-4.847.713-7.182,1.467-3.17,1.024-6.3,2.185-9.454,3.248-1.533.516-3.138.824-4.394,1.978a25.047,25.047,0,0,1-2.6,2.111,29.686,29.686,0,0,0-7.155,6.82,50,50,0,0,0-6.408,12.58,35.664,35.664,0,0,0-1.356,5.606,16.579,16.579,0,0,0-.2,3.483c.036,1.235.286,2.463.351,3.7s0,2.465.023,3.7c.007.36.12.718.184,1.27Zm74.164-32.116c-1.205,1.274-.988,2.48.171,3.643a.337.337,0,0,1,.067.069q.343.629.682,1.259a13.255,13.255,0,0,1,.755-1.235c2.182-2.847,4.581-5.449,8.071-6.713a9.243,9.243,0,0,1,2.207-.477c.806-.081,1.627,0,2.44-.032.188-.007.37-.179.555-.276a1.931,1.931,0,0,0-.46-.282,18.45,18.45,0,0,0-2.094-.524A14.791,14.791,0,0,0,114,74.056a11.1,11.1,0,0,0-7.158,4.854ZM45.8,165.421a15.754,15.754,0,0,0-2.308,4.92,12.879,12.879,0,0,0-.3,1.342,5.861,5.861,0,0,0,.858-1.156,16.759,16.759,0,0,1,3.687-6.086,1.989,1.989,0,0,0,.278-.472c-.242-.012-.559-.127-.713-.016A7.45,7.45,0,0,0,45.8,165.421Z" transform="translate(18170 1803)"></path><path id="Path_119045" data-name="Path 119045" d="M175.571,138.183c-.257-2.722-.522-5.347-.767-7.974q-.135-1.452-.193-2.909c-.079-1.966-.123-3.933-.2-5.9-.042-1.067-.123-2.133-.191-3.2a4.259,4.259,0,0,0-.078-.449,2.559,2.559,0,0,0-.463.244c-1.444,1.176-2.812,2.459-4.336,3.52a27.4,27.4,0,0,1-12.651,4.1c-4.955-.1-9.37-1.468-12.453-5.73a23.675,23.675,0,0,1-3.943-9.068,61.368,61.368,0,0,1-.965-6.252,46.494,46.494,0,0,1-.367-6.394,18.078,18.078,0,0,1,1.911-7.585,23.993,23.993,0,0,1,6.633-8.122,39.694,39.694,0,0,1,4.9-3.525,16.684,16.684,0,0,1,10.44-2.447,21.016,21.016,0,0,1,8.362,3.065c1.68,1.029,3.264,2.214,4.907,3.3.035.023.4-.259.394-.393-.022-.778-.109-1.554-.171-2.332-.01-.128,0-.257,0-.386-.064-3.413-.1-6.826-.2-10.238-.087-2.937-.17-5.879-.4-8.807a31.447,31.447,0,0,0-1.442-8.65,4.837,4.837,0,0,1,1.17-5.071,1.8,1.8,0,0,1,.976-.409c1.66-.276,3.323-.538,4.991-.754a25.484,25.484,0,0,1,2.9-.214c5.63-.081,11.261-.161,16.892-.189,2.223-.011,4.447.109,6.67.183,1.549.051,3.1.121,4.645.192,2.711.124,5.422.267,8.134.378.942.039,1.887.026,2.829,0a1.683,1.683,0,0,1,1.712,1.162,1.569,1.569,0,0,1-.4,1.948c-1.178.925-2.391,1.806-3.618,2.666a17.768,17.768,0,0,0-7.339,10.116,6.532,6.532,0,0,0,.473,4.65c.421.823.7.865,1.4.36A34.464,34.464,0,0,1,227,61.444a24.73,24.73,0,0,1,4.671-.6c2.868-.186,5.745-.409,8.614-.364a32.406,32.406,0,0,1,8.629,1.245c2.213.648,4.436,1.279,6.687,1.767.885.192,1.861-.052,2.661.6.034.027.442-.251.426-.342a36.389,36.389,0,0,0-2.265-8.025,21.74,21.74,0,0,0-3.13-5.64c-.457-.544-1.123-.907-1.632-1.414-.458-.456-1.066-.94-1.2-1.508-.3-1.278.965-2.3,2.371-2.157,1.646.171,3.3.322,4.951.384,2.9.108,5.8.14,8.7.205,2.77.063,5.54.135,8.31.191,3.509.071,7.019.1,10.527.2,2.809.083,5.619.2,8.422.394a22.549,22.549,0,0,1,5.86.747c4.214,1.491,7.312,4.19,8.124,8.935.54,3.158,1.344,6.272,1.881,9.431.343,2.016.454,4.076.6,6.121.172,2.483.261,4.972.407,7.457a2.195,2.195,0,0,0,.272.655,6.081,6.081,0,0,0,.486-.446,15.542,15.542,0,0,1,5.239-3.605,13.234,13.234,0,0,1,7.026-.918,16.269,16.269,0,0,1,6.7,2.43,20.03,20.03,0,0,1,6.341,5.991,21.394,21.394,0,0,1,3.062,7.116,29.535,29.535,0,0,1,.732,9.322,32.193,32.193,0,0,1-6.332,16.84,18.719,18.719,0,0,1-8.087,6.253,19.555,19.555,0,0,1-4.911,1.154,16.539,16.539,0,0,1-7.493-.954,41.9,41.9,0,0,1-4-1.985,6,6,0,0,0-.725-.257,4.54,4.54,0,0,0-.046.782c.18,1.657.447,3.308.557,4.969.184,2.772.362,5.549.373,8.325.009,2.26-.2,4.524-.367,6.783-.151,2.045-.329,4.09-.583,6.124q-.392,3.138-.966,6.253a41.807,41.807,0,0,1-1.174,5.01c-.412,1.3-1.326,2.524-2.968,2.228a1.007,1.007,0,0,0-.7.142,6.974,6.974,0,0,1-3.442,1.028c-5.757.714-11.533.251-17.3.34-3.379.052-6.761-.1-10.141-.177-1.517-.036-3.037-.071-4.548-.2-4.577-.385-9.2-.512-13.581-2.127-1.471-.543-3.073-1.076-3.964-2.442-1.339-2.053-.616-4.07,1.316-5.441a7.191,7.191,0,0,1,2.032-1.132c1.452-.424,1.951-1.657,2.589-2.763a19.162,19.162,0,0,0,2.41-7.678c.044-.423-.292-.514-.91-.245-1.062.463-2.1.982-3.188,1.381-1.871.686-3.85,1.13-5.638,1.982a42.542,42.542,0,0,1-7.456,2.255,14.874,14.874,0,0,1-2.825.393,40.893,40.893,0,0,1-4.643.182,29.377,29.377,0,0,1-10.694-2.334,44.615,44.615,0,0,1-9.648-5.81,3.6,3.6,0,0,0-.531-.3,2.611,2.611,0,0,0-.256.662,10.545,10.545,0,0,0,1.1,5.131,22.366,22.366,0,0,0,5.188,7.481,29.2,29.2,0,0,0,6.64,4.657,10.454,10.454,0,0,1,2.55,1.731,2.472,2.472,0,0,1-1.29,4.206,16.882,16.882,0,0,1-3.5.4c-4.022.1-8.047.2-12.07.186-2.454-.01-4.909-.221-7.362-.369q-2.526-.153-5.047-.385c-2.627-.24-5.251-.515-7.878-.764-.872-.083-1.75-.1-2.619-.2-2.569-.3-5.173-.463-7.69-1.013-2.02-.441-4.3-2.25-4.3-4.659,0-1.94.089-3.884-.019-5.818-.186-3.337-.5-6.667-.748-10-.029-.387,0-.779,0-1.264Zm85.934-81.406a9.977,9.977,0,0,1,.475,1.151,26.991,26.991,0,0,1,1.192,8.487,2.125,2.125,0,0,0,.537,1.391c.587.627,1.367,1.069,1.99,1.667a62.788,62.788,0,0,1,8.812,9.848,53.36,53.36,0,0,1,6.111,12.217,8.531,8.531,0,0,1,.812,4.369,15.8,15.8,0,0,0-.412,3.062c.026,4.8.392,9.618-.338,14.4a29.183,29.183,0,0,1-.991,4.507,2.238,2.238,0,0,1-1.929,1.761c-.685.032-.767.446-.931.921a27.324,27.324,0,0,1-1.121,3.005,26.816,26.816,0,0,1-5.194,7.283c-1.878,1.879-3.969,3.549-6,5.267-.892.753-1.958,1.331-1.575,2.8a5.381,5.381,0,0,1,.189,1.652,38.109,38.109,0,0,1-.383,3.889,22.573,22.573,0,0,1-4.024,9.031c-.607.888-1.336,1.691-1.946,2.577a.955.955,0,0,0,.12.791c1.62.3,3.244.635,4.883.785,2.318.211,4.647.354,6.974.393,9.813.166,19.636-.328,29.441.4,1.139.085,2.274.235,3.408.385,1.116.147,1.3.022,1.269-1.114-.016-.617-.209-1.238-.169-1.848.154-2.333.364-4.663.565-6.993.184-2.139.423-4.273.568-6.414.227-3.357.47-6.716.562-10.078.066-2.412-.072-4.833-.178-7.247-.071-1.621-.191-3.243-.388-4.853-.281-2.3-.76-4.591-.352-6.91.165-.94.456-1.984,1.616-2.163a3.024,3.024,0,0,1,2.045.18,13.292,13.292,0,0,1,2.215,2.52c.784,1.014,1.158,2.293,2.3,3.089a12.647,12.647,0,0,0,9.49,2.1,12.109,12.109,0,0,0,6.394-3.179,22.276,22.276,0,0,0,5.617-8.37,29.025,29.025,0,0,0,2.271-10.61,31.03,31.03,0,0,0-.74-5.751,14.522,14.522,0,0,0-3.756-7.6,16.4,16.4,0,0,0-5.888-3.944A8.072,8.072,0,0,0,320.414,79a12.7,12.7,0,0,0-8.055,5.4c-1.689,2.451-2.959,4.984-2.951,8.052a4.91,4.91,0,0,1-.6,2.24,1.785,1.785,0,0,1-2.2.806,2.809,2.809,0,0,1-1.781-2.4c.017-1.163.066-2.331.192-3.487.288-2.635.825-5.257.908-7.9.118-3.728-.074-7.466-.154-11.2a19.543,19.543,0,0,0-.193-2.33c-.367-2.575-.774-5.144-1.147-7.718a29.073,29.073,0,0,0-1.519-6.506,3.275,3.275,0,0,0-2.162-2.168,26.67,26.67,0,0,0-3.609-.6c-1.885-.253-3.8.545-5.715-.511-.893-.493-2.22-.213-3.351-.264-1.676-.075-3.354-.132-5.03-.2-1.741-.065-3.482-.145-5.223-.189-3.059-.077-6.118-.125-9.176-.2-2.127-.051-4.254-.126-6.38-.19-.127,0-.254-.006-.38-.013-1.1-.06-2.2-.136-3.3-.152-.1,0-.345.456-.283.587.623,1.319,1.318,2.6,1.949,3.919.424.883.779,1.8,1.261,2.8Zm-45.612-5.692c.355-.226.726-.432,1.059-.688a2.611,2.611,0,0,0,.417-.537,2.081,2.081,0,0,0-.584-.213c-1.805-.079-3.611-.137-5.417-.2s-3.611-.142-5.417-.19c-2.866-.076-5.733-.184-8.6-.182-3.188,0-6.376.1-9.564.183-1.742.043-3.485.093-5.224.2a13.618,13.618,0,0,0-2.819.415c-.361.1-.87.694-.839,1.018.314,3.287.775,6.56,1.1,9.847.216,2.221.285,4.456.4,6.686.084,1.644.143,3.289.194,4.935.074,2.416.123,4.833.2,7.249.048,1.517.1,3.035.2,4.549.079,1.14.249,2.273.375,3.409a2.355,2.355,0,0,1-2.773,2.721,5.26,5.26,0,0,1-2.012-1.389c-.719-.658-1.239-1.557-2.009-2.132a32.813,32.813,0,0,0-7.919-4.842,23.774,23.774,0,0,0-4.915-1.379,10.7,10.7,0,0,0-6.42,1.434,26.936,26.936,0,0,0-8.571,6.99A15.337,15.337,0,0,0,143.2,98.2a22,22,0,0,0,.188,3.582c.273,2.252.5,4.523.984,6.731a24.224,24.224,0,0,0,2.847,7.689,9.205,9.205,0,0,0,8.334,4.563,11.54,11.54,0,0,0,3.168-.917c3.009-.945,6.147-1.557,8.859-3.286a16.26,16.26,0,0,0,2.728-2c.989-.976,1.7-2.232,2.708-3.189a47.464,47.464,0,0,1,4.036-3.276,2.908,2.908,0,0,1,1.179-.4c1.493-.3,2.92,1.344,3.333,2.571.821,2.439.76,5,.925,7.511.129,1.954-.108,3.93-.15,5.9-.078,3.606-.173,7.212-.183,10.818-.007,2.577.1,5.155.183,7.732.04,1.292.095,2.585.2,3.874a26.662,26.662,0,0,1,.341,3.022c-.04,1.082-.008,2.49-.64,3.145a6.5,6.5,0,0,0-1.336,2.661c-.163.452-.28.86.379.983,1.372.257,2.735.611,4.119.751,2.613.265,5.238.413,7.859.6,1.971.139,3.944.263,5.916.387,2.132.133,4.264.281,6.4.38,2.029.1,4.061.135,6.092.2.161.005.322,0,.482,0,2.674.064,5.347.131,8.021.184.118,0,.237-.113.356-.174-.107-.079-.216-.155-.322-.236-.561-.431-1.111-.877-1.683-1.293a26.921,26.921,0,0,1-5.717-5.892,24.574,24.574,0,0,1-3.275-5.975c-1.05-2.772-1.636-5.58-.77-8.524a2.131,2.131,0,0,0-.776-2.71,6.846,6.846,0,0,1-1.031-1.011,2.738,2.738,0,0,1-.663-2.487,1.451,1.451,0,0,0-.132-.971c-.561-.78-1.261-1.462-1.809-2.25a32.882,32.882,0,0,1-2.373-3.741c-.835-1.637-1.485-3.369-2.206-5.063-.419-.984-.863-1.959-1.224-2.964a45.458,45.458,0,0,1-2.184-8.947,26.309,26.309,0,0,1-.1-7.286,43.486,43.486,0,0,1,2.276-9.077,51.245,51.245,0,0,1,4.779-9.985,42.608,42.608,0,0,1,6.858-8.14,1.72,1.72,0,0,0,.393-2.282,17.379,17.379,0,0,1-1.189-4.416c-.383-2.993.644-5.711,2.067-8.286a25.156,25.156,0,0,1,4.456-5.621Zm60.283,58.544c.068-.261.156-.518.2-.783a41.024,41.024,0,0,0,.814-5.238,45.9,45.9,0,0,0-.357-6.1c-.156-1.579-.464-3.143-.716-4.712a17.6,17.6,0,0,0-3.131-7.571,70.987,70.987,0,0,0-5.441-7.266,94.582,94.582,0,0,0-8.1-7.39,16.54,16.54,0,0,0-7.472-4.059c-3.14-.611-6.235-1.478-9.392-1.962a39.637,39.637,0,0,0-6.469-.224c-2.544.032-5.055.08-7.464,1.291-3.207,1.611-6.594,2.859-9.842,4.394-4.179,1.975-7.225,5.249-9.854,8.963-1.113,1.572-2.283,3.1-3.407,4.666A12,12,0,0,0,204,85.986c-.968,2.4-1.917,4.812-2.653,7.286a42.093,42.093,0,0,0-1.594,7.137,22.226,22.226,0,0,0,.518,7.661,40.61,40.61,0,0,0,3.943,11,39.581,39.581,0,0,0,6.089,8.167c2.031,2.061,4.22,3.975,6.426,5.853a13.867,13.867,0,0,0,3.55,2.347,77.893,77.893,0,0,0,7.433,2.535c2.439.731,4.919,1.325,7.389,1.951,1.865.472,3.742.9,5.615,1.342a.879.879,0,0,0,.375-.019c.792-.18,1.582-.371,2.373-.555,2.229-.516,4.492-.92,6.679-1.575a41.172,41.172,0,0,0,5.9-2.266c1.441-.689,3.247-1.08,3.7-3.048.049-.213.346-.368.528-.55,2.223-2.223,4.489-4.406,6.658-6.681a37.192,37.192,0,0,0,5.669-8.253,42.063,42.063,0,0,0,3.562-8.682Z" transform="translate(18170 1803)"></path><path id="Path_119046" data-name="Path 119046" d="M84.373,108.423c-1.746,0-3.4.011-5.046,0-.852-.008-.836.587-.946,1.183a20.106,20.106,0,0,1-.79,3.431,2.973,2.973,0,0,1-3.041,1.937c-1.838-.028-3.676-.1-5.511-.2a1.175,1.175,0,0,0-1.243.8c-.823,1.973-1.553,3.986-2.422,5.937-.519,1.164-1.113,2.339-2.724,2.355-1.588.015-2.268-.841-2.751-2.449-.664-2.209-1.171-4.465-1.763-6.7a6.748,6.748,0,0,0-.533-1.512c-.565-1.033-1.614-.844-2.476-.7-1.6.259-3.152.83-4.755,1.049-2.184.3-4.428.713-6.574-.136-1.764-.7-2.526-2.269-3.017-3.992-1.008-3.536-.875-7.167-.716-10.765a7.084,7.084,0,0,1,1.85-5.009,4.732,4.732,0,0,1,3.467-1.4c2.743.025,5.484.261,8.228.342,2.034.06,4.071.033,6.106,0,.852-.013.592-.754.52-1.151-.255-1.421-.628-2.821-.935-4.234-.225-1.038.363-1.9,1.7-2.713a8.29,8.29,0,0,1,4.057-1.13q7.437-.272,14.879-.389c2.35-.035,4.7.085,7.054.184,2.23.093,4.459.228,6.685.386A3.375,3.375,0,0,1,96.508,86.6c.389,2.653.585,5.335,1.005,7.982.355,2.235.936,4.432,1.368,6.656a30.466,30.466,0,0,1,.519,3.637,2.7,2.7,0,0,1-2.409,2.578c-1.516.068-3.036.075-4.546.206-2.4.21-4.8.5-7.2.755-.254.027-.514,0-.868,0Zm-37.9-12.736c-1.875,0-2.252.248-2.592,1.875a8.456,8.456,0,0,0-.191,2.037c.093,2.357.206,4.715.392,7.066a9.57,9.57,0,0,0,.574,2.358c.3.844,1.306,1.178,2.772.93,2.094-.354,4.168-.845,6.271-1.12a14.729,14.729,0,0,1,4.093-.044c2.366.365,3.243,2.369,3.982,4.3a26.97,26.97,0,0,1,.814,3.616,2.261,2.261,0,0,0,.347.586c.138-.111.338-.193.4-.337.594-1.263,1.117-2.561,1.756-3.8a3.077,3.077,0,0,1,2.967-1.841c1.837.058,3.673.16,5.509.16.322,0,.885-.377.924-.641a27.326,27.326,0,0,0,.4-4.363c-.048-3.256-.244-6.51-.35-9.766-.02-.608-.343-.647-.8-.632-2.157.071-4.315.141-6.473.194-3.057.074-6.113.155-9.171.188-2.923.032-5.846-.026-8.768.025a5.183,5.183,0,0,1-2.861-.789Zm48.414,8.1c.258-.276.481-.438.329-.984a40.439,40.439,0,0,1-1.172-5.391c-.415-3.066-.686-6.152-.976-9.234-.063-.669-.334-1.074-.972-1.162-.771-.106-1.55-.163-2.328-.2q-2.657-.12-5.316-.2c-2.671-.075-5.342-.17-8.014-.182-1.772-.008-3.545.1-5.316.184-2.2.109-4.389.275-6.586.368-.729.031-1.065.321-.99,1.035.113,1.073.328,2.14.358,3.214.024.849.288,1.189,1.164,1.178,2.858-.035,5.717-.039,8.575.01a3.251,3.251,0,0,1,1.5.523,7.279,7.279,0,0,1,1.344,1.134c.346.344.822.714.906,1.139.454,2.3.833,4.616,1.176,6.936.146.989.126,2,.215,3,.036.406.136.831.686.355a.973.973,0,0,1,.5-.182c1.07-.139,2.14-.278,3.212-.388q3.886-.4,7.774-.771c1.273-.107,2.552-.184,3.925-.377Z" transform="translate(18170 1803)"></path><path id="Path_119047" data-name="Path 119047" d="M226.675,92.366a15.1,15.1,0,0,1,5.72-5.941c.661-.353.58-.909.248-1.506a7.319,7.319,0,0,1-.505-6.114,3.5,3.5,0,0,1,.761-1.315,29.438,29.438,0,0,1,3.047-2.845c1.577-1.206,3.306-1.106,5.071.19a12.1,12.1,0,0,1,4.656,6.908,7.043,7.043,0,0,1,.041,3.974,1.519,1.519,0,0,0,.357,1.219,21.1,21.1,0,0,1,3.355,4.113,22.507,22.507,0,0,1,2.175,6.045,50.51,50.51,0,0,1,.813,9.225,11.016,11.016,0,0,0,2.171,5.544,14.389,14.389,0,0,0,3.755,4.035c1.734,1.252,1.658,2.882-.479,4.068a35.272,35.272,0,0,1-20.644,4.8,31.471,31.471,0,0,1-10.189-1.894,17.759,17.759,0,0,1-5.748-3.371,2.078,2.078,0,0,1-.082-2.6,14.156,14.156,0,0,0,3.4-9.383c-.066-1.934-.206-3.87-.175-5.8a21.152,21.152,0,0,1,1.909-8.556c.111-.243.195-.5.34-.8Zm23.481,27.241c1.611-.454,3.224-.9,4.828-1.383a.65.65,0,0,0,0-.514c-.958-1.185-1.939-2.352-2.92-3.518a.752.752,0,0,0-.237-.255.742.742,0,0,0-.327-.121.745.745,0,0,0-.636.233,1.207,1.207,0,0,1-1.957-.937c-.21-2.039-.393-4.081-.583-6.122-.259-2.785-.484-5.574-.781-8.355a14.893,14.893,0,0,0-2.9-7.658c-.791-1.029-1.777-1.983-3.252-1.631a7.42,7.42,0,0,1-3.736-.166,3.677,3.677,0,0,0-2.9.178,11.229,11.229,0,0,0-4.357,4.786,21.215,21.215,0,0,0-1.72,8.916c0,2.774.2,5.55.373,8.322a13.68,13.68,0,0,0,.483,3.173,1.016,1.016,0,0,1-.566,1.309,1.548,1.548,0,0,1-1.143.055c-.5-.155-1.07-.781-1.384-.653-.456.186-.723.858-1.047,1.339a3.138,3.138,0,0,0-.4.8c-.056.179-.068.493.038.58a3.217,3.217,0,0,0,1.072.649,45.965,45.965,0,0,0,13.225,2.466,47.517,47.517,0,0,0,7.177-.553,36.821,36.821,0,0,0,3.653-.934Zm-8.58-36.932a10.017,10.017,0,0,0-2.92-4.843,1.623,1.623,0,0,0-2.55.31,10.751,10.751,0,0,0-.7,1.919,2.829,2.829,0,0,0-.188.975,4.8,4.8,0,0,0,3.533,4.39,2.564,2.564,0,0,0,2.5-.557,1.842,1.842,0,0,0,.324-2.2Z" transform="translate(18170 1803)"></path><path id="Path_119048" data-name="Path 119048" d="M259.513,89.329c-.454-1.258-.858-2.441-1.372-3.576a13.555,13.555,0,0,0-5.868-6.47,4.885,4.885,0,0,1-1.342-1.165,1.616,1.616,0,0,1,1-2.453,3.7,3.7,0,0,1,1.915.218,15.765,15.765,0,0,1,8.374,8.427,29.189,29.189,0,0,1,2.686,8.813c.108.932.165,1.873.19,2.811a1.466,1.466,0,0,1-1.129,1.66c-.752.14-1.585.131-1.949-.822-.509-1.331-1.065-2.645-1.53-3.991C260.11,91.681,259.835,90.545,259.513,89.329Z" transform="translate(18170 1803)"></path><path id="Path_119049" data-name="Path 119049" d="M213.606,88.751a14.039,14.039,0,0,1,4.91-8.642,3.6,3.6,0,0,1,3.226-.962,1.951,1.951,0,0,1,1.244,1.107,1.69,1.69,0,0,1-.613,1.492,9.783,9.783,0,0,0-3.983,4.117,15.654,15.654,0,0,0-1.292,3.884c-.584,2.5-1.035,5.028-1.571,7.538-.177.829-.615,1.431-1.606,1.3a1.79,1.79,0,0,1-1.45-1.746c.158-2.061.412-4.116.672-6.168C213.222,90.055,213.451,89.456,213.606,88.751Z" transform="translate(18170 1803)"></path><path id="Path_119050" data-name="Path 119050" d="M220.886,88.891a8.509,8.509,0,0,1,3.234-4.21,1.4,1.4,0,0,1,2.047.138c.706.738.3,1.46-.18,2.028a14.122,14.122,0,0,0-3.046,5.973c-.175.734-.31,1.478-.463,2.218-.234,1.13-.907,1.7-1.9,1.617a1.909,1.909,0,0,1-1.376-1.937A11.93,11.93,0,0,1,220.886,88.891Z" transform="translate(18170 1803)"></path><path id="Path_119051" data-name="Path 119051" d="M254.739,86a12.21,12.21,0,0,1,1.463,5.031,3.231,3.231,0,0,1-.388,1.742,1.418,1.418,0,0,1-1.019.742,1.717,1.717,0,0,1-1.227-.735,14.273,14.273,0,0,1-1.352-3.181,6.875,6.875,0,0,0-2-3.312,1.96,1.96,0,0,1-.5-2.488,1.911,1.911,0,0,1,2.537-.24A23.785,23.785,0,0,1,254.739,86Z" transform="translate(18170 1803)"></path><path id="Path_119052" data-name="Path 119052" d="M48.5,102.637a1.846,1.846,0,0,1,1.29-1.9,1.772,1.772,0,0,1,1.944.586,1.831,1.831,0,0,1-1.377,3,1.518,1.518,0,0,1-1.59-.934C48.69,103.166,48.587,102.952,48.5,102.637Z" transform="translate(18170 1803)"></path><path id="Path_119053" data-name="Path 119053" d="M58.283,103.65a2.041,2.041,0,0,1-.512-2.478,1.792,1.792,0,0,1,2.112-.745,2,2,0,0,1,1.149,2.48,1.97,1.97,0,0,1-2.749.743Z" transform="translate(18170 1803)"></path><path id="Path_119054" data-name="Path 119054" d="M68.99,101.624c.4,1.937-.087,2.232-1.107,2.722a2.122,2.122,0,0,1-2.172-.986,2.252,2.252,0,0,1,.59-2.226,1.657,1.657,0,0,1,2.166-.034C68.636,101.242,68.783,101.417,68.99,101.624Z" transform="translate(18170 1803)"></path></g></svg>