<svg xmlns="http://www.w3.org/2000/svg" id="Layer_1" data-name="Layer 1" viewBox="0 0 570 380"><defs><style>.cls-1{fill:#e9c869;}</style></defs><path class="cls-1" d="M461.53,98.86c-1.14,2.52-2.34,5-3.55,7.49l-.74-.32,3.51-8-4.15-4.41-.14.26c-7.44,13.91-15.3,27.58-24,40.76-3.57,5.39-8,10.23-12.11,15.26a18.36,18.36,0,0,1-3.31,2.9,7.84,7.84,0,0,1-8.65.86,10.13,10.13,0,0,1-2.26-1.25C402,149,398,145.45,394,142c.16-.2.31-.42.46-.64,2.16,1.09,4.29,2.21,6.47,3.26s4.42,2.11,6.67,3.1a7.85,7.85,0,0,0,9.44-1.82,105.82,105.82,0,0,0,7.42-8.16A287.72,287.72,0,0,0,449,100.11c1.65-2.94,3.32-5.89,5-8.82.06-.1.12-.19.17-.29l-1.9-2-7.73-5.83-14.12-5-30.15,1.06L381.19,89,369.8,104.68,364,116.26l-3.44,10.43V151.8l9.09,14.83,11.57,13.09,33.27,3.73,23.22-12.81,14.57-15,4.84-2.1,7.66-22.27L467,104.68ZM450,112.64c-6.12,12-10.55,25.08-22.13,33.52C436.24,135.62,442.75,123.89,450,112.64ZM431.9,147.48l.39.23c-2.92,4.87-5.84,9.76-8.77,14.63-1,1.59-2.33,1.69-3.81.89s-2.73-1.6-4.25-2.51Z"></path><path class="cls-1" d="M248.72,55.81c-.19-1-1.45-1.34-3.1-1.39-3.19-.11-7.84.94-9.15,1.08-18.52,1.89-37.09,3.21-55.68,4.28q-16.06.9-32.16,1.61c-4.73.22-11.94-.84-16.37.73-3.8,1.35-1.81,7.8-1.61,11.24.16,3,.32,6.12-.59,9s-2.76,5.24-3.46,8.1c-.47,1.85-.44,3.87-1.35,5.55-1.84,3.34-6.38,3.8-10.2,3.75q-9.69-.14-19.34-1.12c-6.16-.62-3.78,5.49-3.55,9.6.3,5.63.3,11.28.18,16.91-.24,11.5-1,23-1,34.5,0,17.11.38,34.25.68,51.31.25,13.67-.24,27.4,1.33,41,1.21,10.46,1.17,20.93,1.21,31.44,0,9.57-2.69,18.73-2.18,28.41a14.24,14.24,0,0,0,1.49,6.51c.64,1.11,1.58,2.26,1.3,3.51a75.36,75.36,0,0,0,16.27,1.7l56.23-.31c8.17,0,16.35-.08,24.49-.88a9.18,9.18,0,0,0-1.73-9.36,147.31,147.31,0,0,1-21.11-30.68c-7.88-15.31-13-31.87-17.38-48.53-5.31-20.24-9.52-40.81-11.49-61.65a253.17,253.17,0,0,1-1.09-31.52q.24-7.87,1-15.72c.22-2.16,0-5.59.92-7.54,1-2.24,3.32-2.57,5.73-3.53q18.19-7.3,36.4-14.59c2.86-1.15,5.71-2.3,8.44-3.71,7.15-3.7,13.26-9.12,20.11-13.37,3.31-2,6.78-3.81,10.21-5.64,6.67-3.58,13.28-7.46,19-12.42C242.66,62.86,249.16,57.85,248.72,55.81Zm-9.87,1.56c-1.85,1.43-4.64,1.65-11.48.69ZM137.63,199c-1.23-3.28-3.52-42.9-2.76-48.56a8.85,8.85,0,0,1,1-2.08C137.14,154.34,138.39,192.2,137.63,199Zm54.23,120.8c-2.14,1.35-3,0-4-1a112.72,112.72,0,0,1-13.91-18.55,47,47,0,0,1-3.46-6.46C178.52,301.66,183.86,311.73,191.86,319.78ZM169.15,288a74.58,74.58,0,0,1-9.73-14.86,164.94,164.94,0,0,1-11-31.21c-2.59-10.36-5.15-20.73-6.47-31.36-.14-1.07-.2-2.16-.31-3.24C146.52,235.77,155,262.79,169.15,288Zm-22.53-42.46c-3.57-5.63-9.82-36.78-8.56-43.34A311,311,0,0,0,146.62,245.51Zm12-138.12c-5.58,1.84-11.16,3.72-16.78,5.43-3.29,1-3.77,1.57-3.91,4.91-.09,2.32-.63,4.62-.76,7-.33,6-.53,12-.78,18,0,1-.12,2.08-.19,3.12l-1.16-.08c-.47-11.51.64-23,1.53-34.5l24.87-5.35A22.62,22.62,0,0,1,158.63,107.39Zm58.62-28.88c.9-.81,1.36-1.27,1.87-1.68,7.7-6.09,15.39-12.19,23.11-18.23A10.61,10.61,0,0,1,245.58,57C243.28,61.13,222.77,76.61,217.25,78.51Z"></path><path d="M482,54.41c.65-2.73,1.25-5.4,0-8.09-3.17.74-5.61,2.36-8,5.58A84.17,84.17,0,0,0,469,59.24c-4.8,8-9.52,16-14.52,24.48-1.1-.74-2-1.37-2.9-2a58.29,58.29,0,0,0-16.66-7.69c-11.57-3.13-23.14-2.4-34.63.41A80.77,80.77,0,0,0,370.67,88.2c-.59-.35-1.12-.63-1.63-1-9.2-6.34-18.45-12.61-27.58-19.07-6.72-4.74-13.49-9.47-19.84-14.68A149.93,149.93,0,0,1,292,20.36,92.88,92.88,0,0,1,287,11c-.52-1-.93-2.09-1.4-3.14-1.09.7-2.2,1.38-3.25,2.13a6.22,6.22,0,0,0-.89,1.17c-4.38,5.61-8.53,11.44-13.22,16.79-6.88,7.85-14.16,15.36-21.25,23a7.12,7.12,0,0,1-5.19,2.34c-4.67.22-9.32.62-14,.91-17.06,1.07-34.1,2.21-51.16,3.16-15.1.85-30.19,1.49-45.29,2.31a25.27,25.27,0,0,0-5,1c-4.41,1.15-8,3.74-11.24,6.79C107.48,74.58,100,81.84,92.4,89a7.82,7.82,0,0,0-2.65,5.84q-.14,14.36-.47,28.72c-.29,12.41-.71,24.82-1,37.23-.39,16.22-1,32.44-1,48.65,0,20.15.68,40.3,1,60.45.14,8.11.14,16.23,0,24.34a123.16,123.16,0,0,0,2.44,25.63c.42,2.14.84,4.34,2.7,5.85,1.28,0,2.52-.06,3.74,0,12.26.71,24.51,1.7,36.79,2.13,19.16.65,38.33,1,57.49,1.3a8.19,8.19,0,0,1,5.89,2.29,162.81,162.81,0,0,0,26.39,19.4c12.93,7.78,26.52,13.88,41.53,16.49,6.27,1.09,12.6,2,18.51,4.58a5.32,5.32,0,0,0,2.89.07,39.3,39.3,0,0,0,5-1.17,188,188,0,0,0,48.64-22.52c15.35-9.91,29.68-21.07,41.37-35.26,14.46-17.55,24.69-37.55,32.71-58.65,8.23-21.68,12.28-44.46,16.16-67.21a6,6,0,0,1,3.57-5c12.14-6.41,21.42-15.72,26.53-28.56a193.3,193.3,0,0,0,8-24.49c2.37-9.43,2.39-19-1.56-28.22a7.81,7.81,0,0,1,.14-6.91C472.91,81.13,478.71,68.24,482,54.41Zm-10.66,6.76a8.36,8.36,0,0,1,2.64-3c-1.63,3.79-3.07,7.67-4.91,11.34-4.08,8.07-8.2,16.11-12.47,24.07l-.14.26c-7.44,13.91-15.3,27.58-24,40.76-3.57,5.39-8,10.23-12.11,15.26a18.36,18.36,0,0,1-3.31,2.9,7.84,7.84,0,0,1-8.65.86,10.13,10.13,0,0,1-2.26-1.25C402,149,398,145.45,394,142c.16-.2.31-.42.46-.64,2.16,1.09,4.29,2.21,6.47,3.26s4.42,2.11,6.67,3.1a7.85,7.85,0,0,0,9.44-1.82,105.82,105.82,0,0,0,7.42-8.16A287.72,287.72,0,0,0,449,100.11c1.65-2.94,3.32-5.89,5-8.82.06-.1.12-.19.17-.29C459.83,81,465.61,71.12,471.34,61.17Zm-11,78.51A88.66,88.66,0,0,1,429,175.16c-11,7.13-23,8.71-35.66,4.63a56.66,56.66,0,0,1-22.14-13.49c-4.67-4.5-7.73-9.68-8.6-16.22-2.43-18.18.57-35.09,12-49.78,7.44-9.54,17-16.3,29-19,9.23-2,18-.4,26.5,3.58.33.16.63.35,1,.54,3.51,1.93,4.19,1.68,6-2.35a39.5,39.5,0,0,1,12.95,8.36c-.48,1-.85,1.85-1.33,2.68-4.41,7.67-8.54,15.51-13.35,22.92-5.15,7.92-10.75,15.55-16.5,23.05-4,5.27-5.64,5.42-11.65,2.51-5.85-2.84-11.63-5.85-17.46-8.73-1.87-.92-3.83-1.65-5.77-2.41-4-1.56-4.1-1.52-7.26,2.26.81.82,1.67,1.64,2.49,2.5,3.32,3.44,6.65,6.86,9.91,10.37,2.51,2.69,4.82,5.58,7.36,8.25a21.54,21.54,0,0,0,10.64,6.27,11.76,11.76,0,0,1,3.24,1.59c2.3,1.4,4.5,3,6.84,4.31s5,1.12,6.66-1.09a115.8,115.8,0,0,0,8.21-11.73c3.2-5.38,5.92-11,8.89-16.56a19.87,19.87,0,0,1,2-3.08,182.29,182.29,0,0,0,16.3-24.1c.35-.61.8-1.16,1.46-2.09a64.56,64.56,0,0,1,2.65,18.18A27.4,27.4,0,0,1,460.35,139.68Zm-56.9,46.51c0,.24-.07.47-.09.71l-9.67-1.28c.05-.29.08-.58.13-.87C397,185.23,400.24,185.7,403.45,186.19Zm28.45-38.71.39.23c-2.92,4.87-5.84,9.76-8.77,14.63-1,1.59-2.33,1.69-3.81.89s-2.73-1.6-4.25-2.51Zm-4-1.32c8.36-10.54,14.87-22.27,22.13-33.52C443.89,124.63,439.46,137.72,427.88,146.16ZM366,107.71c-.28.5-.57,1-.84,1.52a78.78,78.78,0,0,0-6.75,19.61c0-13.49,4.72-24.53,14.36-32.94a50.29,50.29,0,0,1,4.94-3.79A85.74,85.74,0,0,0,366,107.71Zm11.32-19.83c-4.09,3.86-7.87,7-11.07,10.63s-5.6,7.66-8.05,11.09C358.59,103.12,369.58,90.75,377.33,87.88Zm-10.92,4.33c-1.3,1.19-2.08,1.93-3.09,2.86a216.85,216.85,0,0,1-52.91-43.54A250.89,250.89,0,0,0,366.41,92.21ZM249.35,52.37a7.23,7.23,0,0,1,.68-.85c6.33-6.86,12.71-13.67,19-20.56,2.4-2.62,4.59-5.43,6.87-8.16l.58.46C269.71,34.59,260.68,44,251.14,53c-.33.31-1.07.18-1.56.25-.14-.34-.2-.44-.23-.55A.59.59,0,0,1,249.35,52.37Zm-.24,6.14c6.51-6,12.61-12.39,18.67-18.81s10.93-13.81,15.56-21.46a15.82,15.82,0,0,1-1.92,11,74.27,74.27,0,0,1-15.88,20.59c-10.7,9.68-22.56,17.72-35,25a2.18,2.18,0,0,1-1.45.33C235.82,69.65,242.74,64.37,249.11,58.51Zm-6.88.09A10.61,10.61,0,0,1,245.58,57c-2.3,4.14-22.81,19.62-28.33,21.52.9-.81,1.36-1.27,1.87-1.68C226.82,70.74,234.51,64.64,242.23,58.6Zm-3.38-1.23c-1.85,1.43-4.64,1.65-11.48.69Zm-15.74,1.54s0,0,0,0h-3.51a.06.06,0,0,0,0,0Zm-105.63,8.4.28.35-1.45,1.16c-.09-.12-.18-.25-.28-.37C116.52,68.08,117,67.69,117.48,67.31Zm9-3.5c.15,1.68.29,2.47.29,3.25,0,7.35.82,14.74-.72,22-.27,1.31-.52,2.64-.9,3.94-1.26,4.37-2.14,5.14-6.65,5.35a78.86,78.86,0,0,1-18.35-1l-6-1.06C104.51,84.56,114.43,73.7,126.53,63.81ZM91.36,317c-.52-5.07-1.37-10.13-1.51-15.2-.52-20.26-1.12-40.51-1.17-60.76-.05-26.29.37-52.56.68-78.84a73.73,73.73,0,0,1,1.09-10.87q.92,82.79,1.85,165.6ZM91.7,94.71,91,94.35c.5-1.15.69-2.59,1.52-3.4,6.19-6.13,12.49-12.13,18.78-18.16.06-.06.21,0,.89-.07Zm5,225.74a16.69,16.69,0,0,1-.3-2.24c-.23-15.36-.47-30.73-.64-46.09q-.48-44.43-.91-88.87-.31-29.49-.68-59c-.08-6.52-.2-13-.3-19.55,0-1.19,0-2.4,0-3.92,2.38.31,4.29.69,6.22.78,6,.29,12,.59,18,.64,5.24.06,8.38-3.12,10.19-7.67,2.11-5.32,2.67-11,2.82-16.63.11-4.53,0-9.07,0-13.83,34.57-2.83,69.34-3.52,104.9-4-1.15,1.09-1.69,1.7-2.31,2.18-6.25,4.79-12.45,9.62-18.77,14.3a8.6,8.6,0,0,1-4.35,1.62q-21.16,1.38-42.32,2.52c-8.59.47-17.18.9-25.78,1.23-2,.08-3,1.2-4.14,2.91.72.4,1.28.95,1.86,1,1.84.09,3.69,0,5.53-.06q23-1,46-2.15c4.4-.21,8.8-.57,13.2-.88l.21.71c-.87.64-1.74,1.26-2.6,1.9-14.12,10.35-30.24,16.17-47,20.36-5.82,1.46-11.76,2.48-17.69,3.43-2,.33-2.73,1.16-2.85,3-.21,3.41-.56,6.79-.86,10.57-1.77,0-3.22,0-4.66,0-7.87.22-15.73.5-23.6.64-2.28,0-3.55,1-4.38,3.36,3.65,1.17,7.17.29,10.63.37s7.13-.21,10.69-.27,7.09,0,10.81,0v19c-1.62.15-2.9.32-4.19.36-7.74.2-15.48.41-23.23.52a4.78,4.78,0,0,0-4.79,3.1c1.18,1.51,2.64,1,3.89.94,7.74-.17,15.48-.43,23.22-.63,1.46,0,2.93,0,4.68,0,.3,8.3.6,16.46.91,25-1.8.19-3.47.5-5.13.53-8,.13-16,.27-24,.25-2.42,0-4.31.49-5.42,3,.9,1.65,2.55,1,3.88,1,10.06-.1,20.14-.26,30.74-.41.95,6.4.41,13,1.49,19.93-3.16.16-6.07.37-9,.45-5.29.17-10.57.27-15.86.41-2.94.08-2.94.1-4.93,3,1,1.54,2.54,1,3.92,1,8.59-.22,17.19-.48,26-.73,1.16,7.6,2.31,15.18,3.48,22.94-1.17.12-2.13.28-3.09.3-9.34.24-18.67.52-28,.65-2.3,0-3.54,1.05-4.52,3.53a28.41,28.41,0,0,0,3.71.44c9.35-.17,18.68-.34,28-.65,1.46,0,2.9-.85,4.12-1.22,3.09,9.39,6.27,19,9.56,29-1.65.13-3.55.39-5.46.42-10.8.13-21.63.28-32.44.22a4.9,4.9,0,0,0-5,2.91c1.36,1.5,3,1.22,4.55,1.19q19-.26,38-.59h2.92c1,2.12,2.1,4.28,3.08,6.51a227.73,227.73,0,0,0,22.88,41.16c2.34,3.28,5,6.35,7.86,10.05Zm49.89-74.94c-3.57-5.63-9.82-36.78-8.56-43.34A311,311,0,0,0,146.62,245.51Zm-5-38.21c4.92,28.47,13.42,55.49,27.55,80.67a74.58,74.58,0,0,1-9.73-14.86,164.94,164.94,0,0,1-11-31.21c-2.59-10.36-5.15-20.73-6.47-31.36C141.77,209.47,141.71,208.38,141.6,207.3Zm-3.66-89.57c-.09,2.32-.63,4.62-.76,7-.33,6-.53,12-.78,18,0,1-.12,2.08-.19,3.12l-1.16-.08c-.47-11.51.64-23,1.53-34.5l24.87-5.35a22.62,22.62,0,0,1-2.82,1.5c-5.58,1.84-11.16,3.72-16.78,5.43C138.56,113.82,138.08,114.39,137.94,117.73ZM137.63,199c-1.23-3.28-3.52-42.9-2.76-48.56a8.85,8.85,0,0,1,1-2.08C137.14,154.34,138.39,192.2,137.63,199Zm32.85,94.75c8,7.93,13.38,18,21.38,26-2.14,1.35-3,0-4-1a112.72,112.72,0,0,1-13.91-18.55A47,47,0,0,1,170.48,293.73ZM111.7,325c3.18-.13,6.36-.34,9.55-.34,18,0,36.09,0,54.13,0,3.8,0,7.62.06,11.41-.24,2.72-.23,4.33.87,5.83,3.44C165.38,328.05,138.53,327.23,111.7,325Zm81.68-.52c3.41-.9,4.27,1.53,6.33,3.05C196.39,328.46,195.45,326,193.38,324.49Zm5.92,5a14.68,14.68,0,0,1,2.44,0c.43.1.8.55,1.17.87a221,221,0,0,0,34.6,24.26,19.5,19.5,0,0,1,1.53,1.21C228.25,351.78,207.24,337.79,199.3,329.45ZM364.14,324c-9.1,10-20.06,17.69-31.29,25a121,121,0,0,1-45,17.53c-3.89.7-7.4-.41-10.95-1.9.56,0,1.13,0,1.68,0a41.22,41.22,0,0,0,19.79-3.15C311.8,356,324.48,349,337,341.65a269.07,269.07,0,0,0,29.47-20.48C365.7,322.1,365,323.07,364.14,324Zm-2.79-1.09c-12.07,10.23-25.45,18.47-39.45,25.71-8.28,4.27-16.69,8.32-25.24,12a34.41,34.41,0,0,1-21.29,2.09c-3-.64-6.11-.72-9.1-1.34-9.25-1.88-17.68-5.92-25.84-10.45a208.32,208.32,0,0,1-35.54-25c-13.18-11.43-23.15-25.32-31.63-40.44-13.63-24.27-22.15-50.2-26.71-77.63a416.94,416.94,0,0,1-6.13-71.13c.05-5.89.82-11.76,1.22-17.64.12-1.84,1-2.72,2.82-3.26,22.51-6.57,43.68-16.23,64.06-27.76,10.14-5.74,20.57-11,30.59-17a168.78,168.78,0,0,0,27.47-20.45,71.45,71.45,0,0,0,16-21,77.28,77.28,0,0,0,3-8.38c19.51,31,45.14,55.76,76.61,74.77-.57.78-.88,1.26-1.25,1.72-8.31,10.39-10.78,22.4-9.66,35.34a61,61,0,0,0,7.86,25.13c1.71,3,3.06,6.15,4.67,9.2,11.92,22.73,35.14,26.95,53.73,21.29,1.27-.39,2.52-.81,4.41-1.4-.63,4.15-1,7.79-1.73,11.35a343.18,343.18,0,0,1-30.86,87.65,204.8,204.8,0,0,1-12.34,20.53C372.88,313.16,367.07,318,361.35,322.87Zm10.78-3.59c7.62-12.4,16.44-24,24.9-35.89C394.11,292.05,380.16,312.2,372.13,319.28Zm53.36-130c-3.09,22.52-7.14,44.82-15,66.3-3.83,10.51-10.11,19.53-16.34,28.58,14-31.38,25.91-63.31,30.62-97.53l.71.08A18.36,18.36,0,0,1,425.49,189.24Zm-3.93-6.3c2.74-1.52,5.57-2.9,8.18-4.62a80.32,80.32,0,0,0,7.91-6c2.51-2.15,4.88-4.49,7.21-6.83s4.56-4.78,6.84-7.18l.55.66C444.45,170,434.83,178.74,421.56,182.94Zm40-84.17a.73.73,0,0,1-.05.09c-1.14,2.52-2.34,5-3.55,7.49l-.74-.32,3.51-8a.49.49,0,0,1,0-.11q5.74-13.12,11.47-26.29A254.92,254.92,0,0,1,461.58,98.77Z"></path><path d="M346.18,185.66c-1.33-5.58-4.09-9.43-10.29-9.79-.22,0-.42-.22-.94-.48,0-1.55,0-3.26,0-5-.13-12.86-1.78-25.48-6-37.68-3-8.58-7.17-16.45-13.67-22.91-6.12-6.08-13.38-10.1-22-10.85a141.72,141.72,0,0,0-18.77-.43c-13.26.62-23.15,6.72-28.75,19.06-1.82,4-3.69,8-5.22,12.19a164.78,164.78,0,0,0-9.68,46.54c-5.38,2.82-9.28,10.07-10.21,15.75a91.83,91.83,0,0,0-1.42,12.79c-.24,12.16-.26,24.34-.2,36.5,0,5.65.36,11.3.7,16.94.45,7.27,3.33,11,10.31,13.11a45,45,0,0,0,8.64,1.79c10.15,1,20.3,1.95,30.47,2.57a221,221,0,0,0,48.9-1.9,79.67,79.67,0,0,0,16.28-4.41c6.58-2.55,10.86-7.48,11.81-14.79.47-3.53,1.15-7,1.28-10.6q.63-18.6.9-37.22A86.18,86.18,0,0,0,346.18,185.66Zm-15.11-10.48c-1.87.73-2.79.39-2.7-1.54.37-7.89-1.07-15.6-2.29-23.33-.83-5.32-1.79-10.61-2.68-15.92-.15-.93-.24-1.87-.35-2.81C329.41,145.43,330.89,160.13,331.07,175.18Zm-65-73.54c-8.89,5.79-8.89,5.79-19.36,17.63C250.58,110.6,256,103.63,266,101.64Zm-19,24.35a45.06,45.06,0,0,1,8.8-13.08,33.76,33.76,0,0,1,26.29-10.24c2.08.07,4.17-.12,6.26,0a34.73,34.73,0,0,1,33,28.53c2.31,12.41,3.94,24.94,5.76,37.44a48.46,48.46,0,0,1,0,6.73h-7.94c-.12-1.39-.28-2.56-.33-3.73a94.47,94.47,0,0,0-4-25.76,45.91,45.91,0,0,0-8.09-15.6,27.65,27.65,0,0,0-20.35-10.44c-2.69-.17-5.4-.7-8.06-.47-5.59.47-10.22,3.18-14.17,7.12A45,45,0,0,0,253.71,144a113,113,0,0,0-6.07,27.23c-.12,1.33-.41,2.65-.67,4.31h-8.31c-.22-.33-.46-.53-.46-.73C237.69,157.91,239.86,141.48,247.05,126Zm7.29,48.78a4.49,4.49,0,0,1-.31-1.4c.24-10,1.15-19.91,4.84-29.3a51.47,51.47,0,0,1,5.42-10.41c6.48-9.27,19.45-12.51,29.64-7.64a10.29,10.29,0,0,1,3.5,2.63c2.13,2.68,4.53,5.32,5.9,8.39,5.05,11.28,8.6,23,8.53,35.53,0,.49,0,1-.07,1.47a2.68,2.68,0,0,1-.29.73Zm42.73,4.48H278c0-.29,0-.59,0-.88C284.09,178.71,290.19,177.78,297.07,179.25Zm-32.49-51,1.47-1.54.36.32c-.5.55-1,1.08-1.51,1.63Zm44.79,21.29c-1.19-4.19-2.71-8.29-4.34-13.17,6.31,7.43,11.75,31.31,9,38.68-1.18-4.13-.76-8.48-1.51-12.65A128.7,128.7,0,0,0,309.37,149.51Zm-58.68,13c-.28,4.15-.56,8.31-.85,12.64C248.3,173.36,248.41,171.47,250.69,162.47Zm-16.16-2.36q-.42,7.86-.85,15.72C231.93,173.4,232.35,167.49,234.53,160.11Zm-5.87,109.43A10.48,10.48,0,0,1,221.2,260q-.54-6.42-.73-12.87c-.24-7.72-.34-15.46-.49-23.19,0-1.21,0-2.43,0-3.65l.51,0c.14,3.77.19,7.53.44,11.29q.76,11.58,1.7,23.14c.63,7.79,4.72,13,12.07,15.61.79.29,1.56.66,2.34,1,.07,0,.09.15.42.73C234.27,271.14,231.4,270.51,228.66,269.54ZM343.7,241c-.49,5-1,10-1.59,15s-3.38,8.43-8.26,10.26a88.32,88.32,0,0,1-21.13,4.68c-5.94.67-11.94.81-17.92,1.18l-.12-.87c4.32-.8,8.66-1.48,12.95-2.41q11.31-2.43,22.56-5.11a11.31,11.31,0,0,0,8.84-8.46c1.41-5.18,2.6-10.44,3.87-15.65.11-.45.17-.91.25-1.37l.45,0A19,19,0,0,1,343.7,241Zm.25-26c-.61,5.24-.23,10.6-1,15.8-1.19,8-2.15,16-5,23.72-1.6,4.37-4.34,7.1-8.72,8.12-8.13,1.88-16.29,3.62-24.45,5.34-3.36.72-6.85,1-10.13,1.9-9.89,2.87-20,2.49-30,1.59-7.43-.67-14.81-2.14-22.18-3.41a33.26,33.26,0,0,1-5.95-1.92c-5.51-2.06-9.07-5.85-9.68-11.86-.74-7.45-1.47-14.91-1.92-22.38-.29-4.77-.06-9.59-.06-14.38l-.56,0c.43-8.59.79-17.16,1.35-25.74a54.9,54.9,0,0,1,1.32-6.49,4,4,0,0,1,3.65-3.55c6.21-.75,12.42-2,18.63-2,10.81-.06,21.61.48,32.41,1.08,7.63.42,15.17-.51,22.76-.83,9.07-.38,18.16-.24,27.24-.23a17.11,17.11,0,0,1,4.32.88,6.92,6.92,0,0,1,5.28,5.58C343.31,195.71,345.08,205.22,344,215Z"></path><path d="M111.7,289c.89-2.42,2-3.39,4.22-3.44,9.44-.22,18.88-.58,28.32-.87a22.38,22.38,0,0,1,2.68.3c-.53.95-.72,1.79-1.25,2.17a7,7,0,0,1-3.14,1.52c-4,.38-8.07.59-12.12.71-5,.14-10.06.15-15.09.14A25.74,25.74,0,0,1,111.7,289Z"></path><path d="M133.08,293.68c-1,1.83-1.8,3.11-3.66,3.22-5,.3-10,.63-15.06.91a7.61,7.61,0,0,1-1.85-.43c.48-1.9,1.41-3.25,3.09-3.39,5.25-.44,10.52-.66,15.78-.92C131.8,293.05,132.24,293.37,133.08,293.68Z"></path><path d="M300.2,213.52c-.07,5.74-2.72,9.54-6.47,12.52a6.82,6.82,0,0,0-2.82,5.53c-.3,7.36-.83,14.72-1,22.08a8.09,8.09,0,0,1-3.38,6.58c-2.83,2.2-6.3,1-7-2.55a38,38,0,0,1-.43-5.13c-.38-7.12-.78-14.23-1.07-21.35a3.83,3.83,0,0,0-2-3.51c-8.44-5.43-9.55-15-2.71-22.32a26.66,26.66,0,0,1,2.66-2.55c4.44-3.52,9.29-5.1,14.71-2.44C296.32,203.18,299.85,207.59,300.2,213.52Z"></path></svg>