<svg xmlns="http://www.w3.org/2000/svg" width="232.892" height="38.879" viewBox="0 0 232.892 38.879"><defs><style>.a{fill:#a2a2a2;}.b{fill:#2680eb;}.c{fill:#fff;font-size:11px;font-family:SegoeUI, Segoe UI;}</style></defs><g transform="translate(-875.522 -2531.823)"><g transform="translate(878.994 2534.984)"><path class="a" d="M6286.29,558.624v31.852h223.8s.247-12.372,0-13.092.5-7.738,1.235-9.718,0-7.918,0-7.918l-3.458-1.124s-37.784.135-39.758,0-47.414-1.034-47.414-1.034H6300.422Z" transform="translate(-6283.836 -556.364)"></path><path class="a" d="M908,1267.4c-8.409.365-16.606.26-24.8.245a12.091,12.091,0,0,1-3.136-.4,1.882,1.882,0,0,1-1.344-2.643,2.9,2.9,0,0,0,.375-1.09c.023-5.9.324-11.8-.1-17.686-.242-3.331-.144-6.656-.35-9.983a2.023,2.023,0,0,0-.281-.716c-.551-1.1.062-1.8,2.046-2.133,1.235-.211,2.526-.324,3.8-.452,4.8-.481,9.69,0,14.471-.317,4.543-.3,9.055-.185,13.572-.192,21.931-.038,43.871-.2,65.791.056,12.245.145,24.494-.06,36.718.253,4.374.111,8.78-.065,13.1.24,5.222.369,10.438.025,15.635.234,13.611.548,27.244-.045,40.842.313,5.908.155,11.8.08,17.7.2,2.774.056,5.286,1.478,5.385,3.17a17.118,17.118,0,0,1-.078,5.233c-.408,1.6,0,3.184-.4,4.743-.617,2.41.014,4.844-.5,7.232-.681,3.2-.112,6.4-.4,9.592a10.786,10.786,0,0,1-.459,2.117c-.27.9-1.09,1.368-2.505,1.455-1.616.1-3.235.239-4.854.247-1.312.007-2.623-.228-3.936-.233q-38.763-.152-77.527-.272c-2.98-.009-5.968-.08-8.939.012-18.272.562-36.568-.078-54.828.315-10.339.223-20.677-.087-30.986.252-4.608.151-9.2.119-14.03.206m193.491-28.17c0-.263-.012-.524,0-.787.064-1.122-1.206-2.185-.481-3.347a.885.885,0,0,0-.459-.182c-.532-.025-1.068-.009-1.6-.009-10.236,0-20.474.015-30.711-.01a32.928,32.928,0,0,1-6.467-.232,4.755,4.755,0,0,0-2.022.009,9.956,9.956,0,0,1-3.276.22c-2.385-.046-4.762-.188-7.144-.244-6.887-.157-13.776.2-20.672-.231-4.867-.3-9.8-.118-14.707-.233-14.129-.333-28.281-.056-42.435-.256-20-.284-40.024-.108-60.042-.052-6.275.017-12.555-.249-18.839.2-3.181.229-6.445-.016-9.663.275-1.106.1-1.648.271-1.569.928a35.952,35.952,0,0,1,.442,4.083c.041,8.383.021,16.764.021,25.148a3.147,3.147,0,0,0,.027.914.783.783,0,0,0,.567.381c1.994.114,4,.264,5.995.26,2.305,0,4.609-.176,6.915-.24,5.205-.139,10.4.055,15.632-.211,6.774-.344,13.606-.04,20.434-.26,11.294-.365,22.625.065,33.955-.265,13.056-.38,26.146.127,39.231-.267,8.531-.257,17.109-.107,25.659-.032,8.491.074,16.976-.118,25.484.19,10.452.378,20.954-.18,31.435.283,4.633.2,9.312.037,13.976.033,2.132,0,2.2-.009,2.134-1.227-.2-3.587.474-7.182-.412-10.766-.344-1.387-.03-2.8-.4-4.219a32.413,32.413,0,0,1-.543-6.171,8.74,8.74,0,0,0-.468-3.689m1.834-3.144a3.165,3.165,0,0,1,.438.927c.068.646-.042,1.3.051,1.941.042.3.382.594.589.892a3.74,3.74,0,0,0,.284-.885,10.348,10.348,0,0,0,0-1.94,2.294,2.294,0,0,0-.5-1.43c-.34-.359-.885-.25-.855.493Z" transform="translate(-878.171 -1231.949)"></path></g><g transform="translate(875.522 2531.823)"><path class="b" d="M6286.29,558.624v31.852h223.8s.247-12.372,0-13.092.5-7.738,1.235-9.718,0-7.918,0-7.918l-3.458-1.124s-37.784.135-39.758,0-47.414-1.034-47.414-1.034H6300.422Z" transform="translate(-6283.836 -556.364)"></path><path d="M908,1267.4c-8.409.365-16.606.26-24.8.245a12.091,12.091,0,0,1-3.136-.4,1.882,1.882,0,0,1-1.344-2.643,2.9,2.9,0,0,0,.375-1.09c.023-5.9.324-11.8-.1-17.686-.242-3.331-.144-6.656-.35-9.983a2.023,2.023,0,0,0-.281-.716c-.551-1.1.062-1.8,2.046-2.133,1.235-.211,2.526-.324,3.8-.452,4.8-.481,9.69,0,14.471-.317,4.543-.3,9.055-.185,13.572-.192,21.931-.038,43.871-.2,65.791.056,12.245.145,24.494-.06,36.718.253,4.374.111,8.78-.065,13.1.24,5.222.369,10.438.025,15.635.234,13.611.548,27.244-.045,40.842.313,5.908.155,11.8.08,17.7.2,2.774.056,5.286,1.478,5.385,3.17a17.118,17.118,0,0,1-.078,5.233c-.408,1.6,0,3.184-.4,4.743-.617,2.41.014,4.844-.5,7.232-.681,3.2-.112,6.4-.4,9.592a10.786,10.786,0,0,1-.459,2.117c-.27.9-1.09,1.368-2.505,1.455-1.616.1-3.235.239-4.854.247-1.312.007-2.623-.228-3.936-.233q-38.763-.152-77.527-.272c-2.98-.009-5.968-.08-8.939.012-18.272.562-36.568-.078-54.828.315-10.339.223-20.677-.087-30.986.252-4.608.151-9.2.119-14.03.206m193.491-28.17c0-.263-.012-.524,0-.787.064-1.122-1.206-2.185-.481-3.347a.885.885,0,0,0-.459-.182c-.532-.025-1.068-.009-1.6-.009-10.236,0-20.474.015-30.711-.01a32.928,32.928,0,0,1-6.467-.232,4.755,4.755,0,0,0-2.022.009,9.956,9.956,0,0,1-3.276.22c-2.385-.046-4.762-.188-7.144-.244-6.887-.157-13.776.2-20.672-.231-4.867-.3-9.8-.118-14.707-.233-14.129-.333-28.281-.056-42.435-.256-20-.284-40.024-.108-60.042-.052-6.275.017-12.555-.249-18.839.2-3.181.229-6.445-.016-9.663.275-1.106.1-1.648.271-1.569.928a35.952,35.952,0,0,1,.442,4.083c.041,8.383.021,16.764.021,25.148a3.147,3.147,0,0,0,.027.914.783.783,0,0,0,.567.381c1.994.114,4,.264,5.995.26,2.305,0,4.609-.176,6.915-.24,5.205-.139,10.4.055,15.632-.211,6.774-.344,13.606-.04,20.434-.26,11.294-.365,22.625.065,33.955-.265,13.056-.38,26.146.127,39.231-.267,8.531-.257,17.109-.107,25.659-.032,8.491.074,16.976-.118,25.484.19,10.452.378,20.954-.18,31.435.283,4.633.2,9.312.037,13.976.033,2.132,0,2.2-.009,2.134-1.227-.2-3.587.474-7.182-.412-10.766-.344-1.387-.03-2.8-.4-4.219a32.413,32.413,0,0,1-.543-6.171,8.74,8.74,0,0,0-.468-3.689m1.834-3.144a3.165,3.165,0,0,1,.438.927c.068.646-.042,1.3.051,1.941.042.3.382.594.589.892a3.74,3.74,0,0,0,.284-.885,10.348,10.348,0,0,0,0-1.94,2.294,2.294,0,0,0-.5-1.43c-.34-.359-.885-.25-.855.493Z" transform="translate(-878.171 -1231.949)"></path></g><text class="c" transform="translate(906.527 2554)"><tspan x="0" y="0">Your preference has been saved</tspan></text></g></svg>