<svg xmlns="http://www.w3.org/2000/svg" width="571.489" height="389.81" viewBox="0 0 571.489 389.81"><defs><style>.a{fill:#101010;}.b{fill:#fff;font-size:14px;font-family:ProximaNova-Regular, Proxima Nova;}.c{fill:#b9121b;}</style></defs><g transform="translate(-91 -2841)"><g transform="translate(-5 23)"><path class="a" d="M258.154,14325c3.571-7.979,0-9.689,10.712-11.684s166.851,4.561,169.351-6.555-10.589-20.739-40.841-22.512-187.333-7.979-199.474,0,4.285,33.342,24.281,33.057,24.544-5.131,28.829-2.564S258.154,14325,258.154,14325Z" transform="translate(225 -11433)"></path><text class="b" transform="translate(436 2870)"><tspan x="0" y="0">Thanks for your quick help!</tspan></text><g transform="translate(96 2818)"><path d="M336.085,455.758c1.624,5.262,3.242,10.428,4.676,15.644a25.884,25.884,0,0,1,.644,5.3c.351,5.9.9,11.81.827,17.709-.034,2.788,1.226,4.919,1.986,7.324.072.229.336.4.511.594a3.155,3.155,0,0,0,.4-.609c1.968-5.423,3.995-10.827,5.854-16.288a9.7,9.7,0,0,1,5.069-5.565,82.962,82.962,0,0,1,11.022-4.728c2.877-.968,5.991-1.223,8.992-1.832,4.987-1.012,10.036-.865,15.083-.948,6.412-.105,12.82-.46,19.232-.573,5.739-.1,11.481-.053,17.221-.007,2.69.022,5.381.165,8.069.3,3.473.178,6.951.331,10.414.63a61.577,61.577,0,0,1,13.974,2.473,6.3,6.3,0,0,1,3.622,3.508c1.822,3.525,1.176,6.975.214,10.422-2.4,8.586-4.968,17.123-7.379,25.706-1.145,4.078-2.009,8.234-3.138,12.317-.8,2.9-2.007,5.692-2.706,8.61a7.887,7.887,0,0,1-3.958,5.566,21.829,21.829,0,0,1-5.213,1.58c-3.219.725-6.462,1.348-9.7,1.971a44.974,44.974,0,0,1-5.072.808c-3.775.286-7.563.4-11.341.652-4.1.27-8.2.634-12.3.91-2.325.156-4.656.252-6.986.311-5.009.128-10.025.407-15.027.258-4.271-.127-8.527-.767-12.791-1.175-.255-.024-.516.008-.773,0-6.11-.307-12.225-.55-18.327-.976a23.3,23.3,0,0,1-4.266-1.23,4.024,4.024,0,0,0-1.161.029,3.075,3.075,0,0,0,.335.954c.693.862,1.453,1.669,2.171,2.51a4.046,4.046,0,0,0,2.748,1.25c2.227.345,4.382,1.126,6.6,1.568,2.4.479,4.828.878,7.263,1.126a56.785,56.785,0,0,0,7.036.3c2.547-.059,5.088-.389,7.633-.582,1.606-.122,3.213-.242,4.821-.306,3.153-.126,6.307-.222,9.461-.314,3.875-.113,7.751-.2,11.626-.315,2.845-.086,5.688-.24,8.533-.3a73.665,73.665,0,0,1,7.937.036c3.37.3,6.71.941,10.064,1.43a6.317,6.317,0,0,0,.9.067c3.454,0,6.909.03,10.363,0,9.289-.088,18.578-.229,27.867-.286,2.534-.016,5.071.283,7.6.27,4.031-.022,8.061-.164,12.09-.3.873-.03,1.735-.312,2.61-.392a7.576,7.576,0,0,1,1.473.144,5.35,5.35,0,0,0-.3,1.167c-.009.209.245.606.4.616a20.841,20.841,0,0,1,2.773.074,7,7,0,0,1,1.874,1.041,5.757,5.757,0,0,1-1.847.736c-3.969.068-7.939,0-11.909.043-5.938.069-11.877.15-17.813.316-4.608.129-9.211.459-13.819.588q-8.9.25-17.813.3a72.852,72.852,0,0,1-7.911-.319,123.348,123.348,0,0,0-14-.935c-5.266.058-10.534-.2-15.8-.262-4.33-.05-8.663.07-12.991-.031-4.969-.116-9.939-.625-14.9-.529-4.527.088-9.04.784-13.564,1.156-2.117.174-4.262.084-6.363.354-2.852.367-5.7.872-8.5,1.5-1.736.387-1.675.509-.531,1.721a20.562,20.562,0,0,1,4.915,9.09,1.786,1.786,0,0,1-.627,1.383c-.174.157-.94-.06-1.21-.333-2.189-2.217-4.227-4.59-6.5-6.714-2.494-2.331-5.133-4.543-8.539-5.483a11.365,11.365,0,0,0-3.011-.55q-16.254.093-32.507.292c-4.185.05-8.37.19-12.555.3-3.36.091-6.72.207-10.08.306-3.618.107-7.235.282-10.853.288-3.154.005-6.307-.253-9.461-.265-2.432-.009-4.87.112-7.293.319a2.556,2.556,0,0,0-2.253,1.976c-1.116,3-1.649,6.377-4.444,8.511a5.925,5.925,0,0,1-1.266.565,4.746,4.746,0,0,1-.087-1.245c.485-2.473.967-4.95,1.563-7.4a4.6,4.6,0,0,1,1.11-1.845c.6-.665.211-.878-.349-.891-4.79-.111-9.521-.029-14.148,1.668a15.791,15.791,0,0,0-8.609,7.893c-2.255,4.17-4.669,8.263-6.729,12.528-2.257,4.672-4.189,9.5-6.263,14.262a48.716,48.716,0,0,1-7.191,12.3c-2.094,2.463-4.835,4.38-7.334,6.484-.255.215-.839.04-1.27.046.062-.461-.043-1.091.219-1.351a17.376,17.376,0,0,1,2.227-1.673c3.817-2.719,6.243-6.525,8.063-10.71,2.184-5.022,4.147-10.139,6.217-15.211,1.53-3.748,3.119-7.473,4.609-11.237a50.735,50.735,0,0,1,6.221-11.187c.41-.564.9-1.07,1.332-1.617a4.992,4.992,0,0,0,.378-.652,2.8,2.8,0,0,0-.8-.311,53.957,53.957,0,0,0-23.823,3.71,5.058,5.058,0,0,0-2.763,3.534c-1.153,3.7-2.376,7.387-3.339,11.138a44.45,44.45,0,0,0-.693,5.908,45.979,45.979,0,0,1-3.191,13.061c-.824,1.907-1.692,3.762-3.766,4.755-1.138.545-1.72-.025-2.467-.634-.862-.7-.393-1.344.042-1.915,1.2-1.578,2.491-3.088,3.7-4.661,2.475-3.221,3.392-7.015,3.812-10.942.484-4.513.79-9.045,1.279-13.558a8.009,8.009,0,0,1,2.129-4.839c1.82-1.9,3.388-4.08,5.409-5.716a9.819,9.819,0,0,1,4.68-1.656c3.456-.486,6.961-.612,10.433-1,4.022-.447,8.025-1.058,12.046-1.515,2.535-.289,5.083-.512,7.631-.615,4.285-.172,8.576-.193,12.861-.374a1.848,1.848,0,0,0,1.349-1.038,19.084,19.084,0,0,0,.691-9.378c-.355-1.74-.374-3.547-.675-5.3a5.028,5.028,0,0,0-.923-2.23c-2.921-3.641-4.508-7.9-5.845-12.281-1.371-4.488-2.848-8.954-3.956-13.508a38.052,38.052,0,0,1-.671-7.459c-.174-4.406-.227-8.817-.329-13.225-.1-4.546-.441-9.1-.239-13.634.177-3.977.947-7.93,1.479-11.89.987-7.352,4.272-13.772,8.012-20.04,1.966-3.295,5.141-4.8,8.382-6.263a58.962,58.962,0,0,1,7.028-2.807,32.1,32.1,0,0,1,6.459-1.193c2.933-.262,5.891-.315,8.839-.316,1.259,0,2.514.434,3.781.519a2.443,2.443,0,0,0,1.745-.483c.995-1.041,1.454-.717,1.895.423a4.861,4.861,0,0,0,.749,1.028,5.205,5.205,0,0,0,.417-1.366c.044-2.164-.014-4.331.035-6.5a8.5,8.5,0,0,1,.367-3.089c.6-1.4.012-2.09-1.074-2.625q-4.236-2.088-8.511-4.1c-1.232-.578-1.449-1.075-.832-2.152.061-.106-.122-.5-.262-.548a32.129,32.129,0,0,1-3.156-.97c-3.082-1.392-4.216-4.242-4.721-7.239a14.81,14.81,0,0,1,.3-5.721c.617-2.607,2.774-4.046,5.014-5.274a9.005,9.005,0,0,0,.8-.553,5.188,5.188,0,0,0-.524-.676,16.748,16.748,0,0,1-5.4-9.693,15.07,15.07,0,0,1,.416-7.03,20.154,20.154,0,0,1,2.519-5.127c1.418-2.133,3.255-2.076,5.743-1.206,1.608.562,1.578.646,1.578-1.1,0-1.289.088-2.585-.017-3.865-.275-3.337,1.3-5.956,3.22-8.412,1.028-1.313,2.3-2.431,3.358-3.725a9.561,9.561,0,0,1,6.005-3.419,95.334,95.334,0,0,1,10.928-1.214,14.693,14.693,0,0,1,5.455.947,23.226,23.226,0,0,1,10.121,7.595,44.222,44.222,0,0,1,7.076,11.14,64.8,64.8,0,0,1,2.952,9.125,5.052,5.052,0,0,1-.824,3.6,2.958,2.958,0,0,0-.346,2.884,84.709,84.709,0,0,1,2.136,8.232,87.581,87.581,0,0,1,.96,8.888c.352,4.7-1.548,8.635-4.268,12.3-1.3,1.751-2.367,3.671-3.639,5.443a13.959,13.959,0,0,1-5.99,5.241,3.291,3.291,0,0,0-2.181,3.469c.034,2.423.025,4.846,0,7.269-.009.944-.025,1.368,1.253.939a12.36,12.36,0,0,1,8.074-.265c2.731.911,5.583,1.455,8.367,2.216a12.184,12.184,0,0,1,5.7,3.421,73.33,73.33,0,0,1,5.84,6.264A33.058,33.058,0,0,1,334.917,453c.41.872.73,1.786,1.168,2.759m-3.171,42.3c2.868-1.177,5.037-2.93,5.426-6.278.243-2.1.6-4.179.918-6.266a29.93,29.93,0,0,0-.409-12.886c-1.846-6.351-3.757-12.718-7.267-18.483A69.044,69.044,0,0,0,325.2,444.9c-2.98-3.471-7.147-5.166-11.111-7.134a4.471,4.471,0,0,0-2.023-.317c-2.484.058-4.978.088-7.441.366-.576.065-1.335.989-1.5,1.647a18.446,18.446,0,0,0-.362,3.877,17.832,17.832,0,0,1-2.823,8.9,3.561,3.561,0,0,0-.226,2.541c.347,1.27.508,2.436-.348,3.5a2.121,2.121,0,0,0-.205,2.661q2.1,3.836,4.049,7.754c1.014,2.049,1.854,4.183,2.866,6.233,2.757,5.587,5.276,11.092,3.572,17.706a110.816,110.816,0,0,1-4.458,12.7c-.7,1.791-1.469,1.789-2.874.507-1.3-1.182-2.634-2.32-3.986-3.439-2.336-1.934-4.742-3.785-7.03-5.774a3.831,3.831,0,0,1-1.05-4.192,18.818,18.818,0,0,0,.718-4.334q.254-10.294.318-20.592a99.717,99.717,0,0,0-.357-10.38,15.134,15.134,0,0,0-1.707-5.45,16.961,16.961,0,0,0-5.976-5.876c-3.7-2.449-7.548-4.685-10-8.611-1.455-2.332-1.88-2.379-4.426-1.251-.217.1-.442.179-.668.255a26.034,26.034,0,0,1-11.428.995,24.412,24.412,0,0,0-11.413,1.481,14.821,14.821,0,0,0-7.227,5.018c-3.062,4.251-4.293,9.115-4.938,14.194-.41,3.231-.869,6.457-1.226,9.694-.458,4.154-.862,8.314-1.239,12.476-.254,2.8-.388,5.6-.642,8.4-.124,1.365-.372,2.722-.61,4.074-.509,2.891-.473,3.165,2.317,4.248,2.712,1.053,5.492,1.961,8.3,2.738,4.185,1.16,8.43,1.741,12.637.071a4.583,4.583,0,0,0,1.728-1.325c.742-.894,1.262-1.973,2.013-2.858a.965.965,0,0,1,1.77.523,12.225,12.225,0,0,1-.869,8.2,4.1,4.1,0,0,0-.195,2.57c1.023,4.717,2.148,9.412,3.243,14.113.252,1.08.649,2.226,1.9,2.279,2.8.118,5.6.077,8.4.025,2.742-.051,5.624-.788,8.191-.169a120.369,120.369,0,0,1,13.963,4.691c3.25,1.221,6.322,2.924,9.584,4.106a82.456,82.456,0,0,0,10.467,3.078,19.811,19.811,0,0,0,8.9-.187,12.415,12.415,0,0,1,5.092-.264,4.779,4.779,0,0,0,2.886-.408c.555-.213,1.139-.353,1.709-.525.018.577.006,1.157.067,1.73a2.306,2.306,0,0,0,.316.791.6.6,0,0,0,.408-.13c.578-.922,1.52-1.671.549-3.024a10.288,10.288,0,0,1-1.271-3.322c-1.274-4.735-2.5-9.483-3.724-14.231a55.709,55.709,0,0,1-2.127-13.947c0-.562.579-1.124.89-1.686.411.41.8.843,1.242,1.219.2.172.609.4.734.315,1.423-.944,2.81-1.942,4.361-3.081m26.449-15.622a5.066,5.066,0,0,0-.757.771,70.188,70.188,0,0,0-8.19,16.549c-2.367,7.586-4.464,15.255-6.865,22.829-1.454,4.584-3.212,9.076-4.952,13.563a1.817,1.817,0,0,0,.6,2.126c.28.293,1.066.116,1.624.125,1.771.027,3.594-1.176,5.307.115,2.447,1.844,5.366,2.2,8.232,2.5,3.761.388,7.554.5,11.336.653,5.995.243,11.992.44,17.989.622,4.389.134,8.78.308,13.169.294,7.431-.025,14.862-.143,22.292-.312,2.443-.055,4.889-.32,7.319-.611,3.814-.456,7.606-1.1,11.424-1.506a8.329,8.329,0,0,0,7.156-4.9c2.275-4.727,4.654-9.408,6.793-14.2a52.457,52.457,0,0,0,2.755-7.974c.89-3.368,1.3-6.864,2.241-10.216,1.67-5.973,3.733-11.867,3.039-18.208-.384-3.511-1.248-5.136-4.47-6.039a63.074,63.074,0,0,0-8.963-1.862c-4.549-.583-9.132-.917-13.708-1.267-3.671-.281-7.351-.558-11.03-.6-4.182-.046-8.368.13-12.55.287-3.988.15-7.974.387-11.959.611-3.317.186-6.637.623-9.948.558-3.83-.075-7.722.743-11.5-.55a2,2,0,0,0-.922-.005c-1.155.188-2.3.478-3.457.6a17.171,17.171,0,0,0-12.008,6.045m-59.7-51.66c0-1.341-.477-2.965.112-3.957.9-1.515.043-1.157-.747-1.136-.434.012-.862.162-1.3.215-1.965.24-3.927.522-5.9.665a2.806,2.806,0,0,1-1.578-.608,1.327,1.327,0,0,1-.44-1.012c.006-.178.5-.435.8-.495a64.287,64.287,0,0,1,6.756-1.215c4.388-.379,7.774-2.646,10.9-5.426,2.808-2.495,4.293-5.792,5.688-9.235a31.388,31.388,0,0,0,2.033-11.041,26.7,26.7,0,0,0-3.038-12.474A2.748,2.748,0,0,0,311,383.671c-5.484.052-10.7-1.463-15.974-2.6-1.583-.342-3.9.09-4.313-2.511-.034-.213-.525-.415-.838-.512-1.738-.538-3.515-.965-5.222-1.587a1.814,1.814,0,0,0-2.355.5c-.647.766-1.354.887-1.818-.275-.538-1.348-1.278-2.33-2.94-1.446a.663.663,0,0,1-.6,0c-1.295-1.4-1.04-.195-1.115.62a5.374,5.374,0,0,1-.411,1.216,5.526,5.526,0,0,1-1.1-.847,24.655,24.655,0,0,0-2.078-2.828c-1.866-1.765-2.174-4.176-2.142-6.344.036-2.447,1.046-4.879,1.615-7.321a3.656,3.656,0,0,0,0-.835c-.249.118-.6.169-.727.366a14.171,14.171,0,0,0-1.01,1.9c-1.094,2.466-.4,5.087-.644,7.626a7.324,7.324,0,0,0,2.208,5.755,72.886,72.886,0,0,1,4.809,6.047c2.066,2.932.625,6.1.282,9.153-.3,2.627-1.019,5.154.689,7.681a6.279,6.279,0,0,1,.6,3.7,11.74,11.74,0,0,1-2.544,6.052c-.285.392-.671,1.123.1,1.575.7.411,1.42.8,2.153,1.147a15.711,15.711,0,0,0,8.2,1.92c.647-.055,1.357.637,2.037.985a7.38,7.38,0,0,1-2.061.78,20.194,20.194,0,0,1-10.886-2.433,2.105,2.105,0,0,0-2.715.316A16.249,16.249,0,0,1,269.615,413a6.12,6.12,0,0,0-.863.788c.352.146.712.436,1.054.415a8.313,8.313,0,0,1,4.719,1.331c1.414.814,2.8,1.678,4.271,2.386,1.757.848,3.6,1.526,5.367,2.345.293.136.427.617.634.939-.351.149-.714.448-1.05.421a41.28,41.28,0,0,1-4.26-.534c-.9-.17-1.6.062-1.755.9a38.531,38.531,0,0,0-.626,5.152c-.1,2.16.031,4.331-.063,6.492-.024.552-.455,1.495-.815,1.553-1.707.279-.875,1.107-.413,1.7a8.91,8.91,0,0,0,2.243,2.344c2.093,1.235,4.3,2.277,6.5,3.333a16.347,16.347,0,0,0,12.183.983,3.071,3.071,0,0,0,1.913-1.886c.488-3.507.7-7.053,1.009-10.894m-62.487,73.313c-1.882-1.057-3.755-2.13-5.654-3.156-.332-.18-.972-.353-1.113-.2a1.537,1.537,0,0,0-.3,1.209c.563,2.541,1.253,5.054,1.8,7.6,1.072,5.027,2.058,10.073,3.11,15.1a19.175,19.175,0,0,0,8.891,12.783,26.719,26.719,0,0,0,9.961,3.971c3.387.56,6.7,1.641,10.094,2.073,4.325.55,8.7.764,13.061.962,4.591.209,9.19.3,13.786.311,3.719.008,7.439-.268,11.159-.264,4.081,0,8.161.182,12.241.291.191.005.379.087.571.108,3.82.42,6.336.272,8.131-3.543a32.34,32.34,0,0,1,3.158-4.57c.165-.233.337-.461.505-.692a2.557,2.557,0,0,0-.893-.261c-1.671.171-3.332.52-5,.574-3,.1-6.1.48-9-.077a51.439,51.439,0,0,1-13.138-4.451,113.29,113.29,0,0,0-13.413-5.294c-3.1-1.067-6.171-2.464-9.6-2.219-3.211.23-6.424.457-9.64.608-1.818.086-3.643.034-5.464,0a1.166,1.166,0,0,1-.888-.4,19.1,19.1,0,0,1-1.6-3.659c-.732-2.859-1.259-5.769-1.91-8.65-.073-.324-.4-.591-.61-.885-.1.291-.192.585-.3.873-1.114,2.94-2.169,5.905-3.4,8.8-.259.608-1.527,1.448-1.71,1.317-1.015-.727-.039-1.583.278-2.226a46.7,46.7,0,0,0,3.873-10.455,2.959,2.959,0,0,0-.2-1.089c-.272.194-.681.328-.794.59-1.46,3.382-3.986,5.924-6.6,8.385-.315.3-.9.3-1.364.442.024-.528-.15-1.191.1-1.562,1.984-2.9,4.056-5.748,6.08-8.626a3.556,3.556,0,0,0,.322-.939c-.289-.049-.576-.118-.867-.143a44.811,44.811,0,0,1-4.93-.436c-2.881-.573-5.721-1.35-8.733-2.2m64.807,44.081c-6.152-.206-12.3-.452-18.457-.6-3.452-.085-6.907-.015-10.361-.015a7.644,7.644,0,0,1-1.082-.007c-2.769-.4-5.525-1.036-8.306-1.175a64.518,64.518,0,0,1-10.446-.945c-4.081-.876-7.953-2.01-10.794-5.334a6.706,6.706,0,0,0-.976-.79,5.455,5.455,0,0,0-.345,1.4c.068,3.051.192,6.1.285,9.151a3.568,3.568,0,0,1-.095,1.042c-.576,2.094-.207,2.715,1.947,2.836,4.448.25,8.9.578,13.352.6,6.916.03,13.834-.121,20.749-.294,3.681-.092,7.359-.351,11.033-.61,3.639-.256,7.272-.592,10.905-.921,3.173-.287,6.339-.652,9.514-.914,4.2-.347,8.4-.638,12.605-.934,3.161-.223,6.322-.467,9.487-.608,3.615-.162,7.234-.221,10.851-.321a4.193,4.193,0,0,0,1.229-.024c.852-.306,1.472-.735.517-1.693-.925-.928-1.771-1.936-2.632-2.926a3.137,3.137,0,0,0-2.739-1.254,2.12,2.12,0,0,1-2.316-1.839,10.054,10.054,0,0,1,.175-3.147c.115-.816-.645-2.631-1.373-2.7-1.088-.106-1.517.687-1.985,1.573a23.246,23.246,0,0,1-2.574,3.869c-.364.444-1.454.867-1.8.648-1.156-.741-1.5.257-1.964.757-1.017,1.089-1.843,2.362-2.895,3.412a3.75,3.75,0,0,1-2.134,1.113c-4.238.3-8.485.491-12.731.651-2.111.079-4.227.014-6.649.014m-8.2-65.735q-.464,3.132-.928,6.264c-.3,2.059-1.05,4.282,1.2,5.727,3.494,2.249,5.75,5.642,8.365,8.71.2.234.367.494.549.742.239-.313.641-.6.693-.943a36.49,36.49,0,0,1,4.007-11.337,3.082,3.082,0,0,0,.111-2.229c-.969-2.634-2.112-5.2-3.162-7.81-1.868-4.637-3.774-9.261-5.542-13.936-.693-1.832-.953-3.827-1.632-5.666a2.679,2.679,0,0,0-1.752-1.547c-.846-.095-.982.86-1,1.692-.027,1.5-.23,3.005-.279,4.51-.129,3.924-.2,7.851-.328,11.775-.041,1.248-.2,2.491-.3,4.046m39.131,20.571c-1.107.454-2.354.915-2.235,2.363s.715,2.839.812,4.276c.3,4.4,1.645,8.552,2.8,12.758.41,1.493.592,3.047.972,4.549.1.414.551.743.84,1.11a3.882,3.882,0,0,0,.353-.96,9.7,9.7,0,0,1,.062-1.991c1.7-5.266,3.477-10.509,5.2-15.769a5.515,5.515,0,0,0,.446-2.3c-.369-2.7-.886-5.39-1.375-8.077a3.656,3.656,0,0,0-.439-.9c-.249.138-.575.216-.734.422-1.695,2.194-4.173,3.2-6.7,4.515m-65.271-96.2-.773-1.688a16.884,16.884,0,0,1,1.834-.772c1-.294,1.21.541,1.583,1.175a3.477,3.477,0,0,0,.885.945c.055.043.521-.275.631-.5.49-1.031.879-2.11,1.379-3.135,1.751-3.59-.32-5.664-2.955-6.615-2.936-1.059-5.32.117-7.685,1.234-3.409,1.61-3.775,4.864-3.336,8.092a4.952,4.952,0,0,0,3.5,4.3,15.073,15.073,0,0,0,4.64.317c.682-.033,1.335-.682,2-1.051-.333-.531-.654-1.072-1.007-1.59a6.513,6.513,0,0,0-.694-.705m33.1-34.955c-.567,1.62-1.082,3.261-1.742,4.842-.146.351-.8.49-1.222.726-.2-.459-.655-.989-.553-1.367,1.059-3.931,2.263-7.822,3.311-11.756.548-2.058.881-4.175,1.274-6.272a3.322,3.322,0,0,0-.135-1.017c-.322.216-.765.358-.945.659a33.915,33.915,0,0,0-3.175,5.632c-1.494,4.131-2.61,8.4-3.964,12.581-.415,1.283.328,1.706,1.221,1.814,1.815.22,3.655.241,5.484.344.888.05,1.338-.3,1.552-1.237.978-4.273,2.055-8.523,3.053-12.791a11.333,11.333,0,0,0,.107-2.057,11.894,11.894,0,0,0-1.145,1.855c-1.029,2.614-1.984,5.257-3.121,8.044m25.675,180.035c-.163.1-.322.287-.491.3-3.519.222-7.042.39-10.56.64-3.79.269-7.575.6-11.36.932a3.6,3.6,0,0,0-.945.37,5.517,5.517,0,0,0,1.091.225c3.589.017,7.179.01,10.768.01,3.3,0,6.594.04,9.89-.012,2.946-.046,5.9-.1,8.833-.321,4.215-.321,8.411-.885,12.627-1.182,2.46-.174,4.943-.019,7.415-.051.244,0,.484-.279.725-.427-.127-.16-.236-.438-.385-.463a27.289,27.289,0,0,0-4.377-.6c-4.439.012-8.878.162-13.316.28-3.2.085-6.405.2-9.917.306M297.8,354.991a3.425,3.425,0,0,0,.295-.8,7.088,7.088,0,0,0-.04-1.11c-.322.152-.655.284-.96.464a1.481,1.481,0,0,0-.438.432,43.483,43.483,0,0,0-6.007,11.883c-.831,2.7-1.674,5.393-2.4,8.119a2.027,2.027,0,0,0,.4,1.771,14.9,14.9,0,0,0,2.926,1.238c.114-.674.234-1.347.34-2.022a6.9,6.9,0,0,1,.1-.886c.886-2.98,1.772-5.961,2.688-8.932,1.014-3.287,2.058-6.565,3.089-10.157m89.863,188.852c-1.862-.1-3.723-.249-5.586-.3-4.59-.129-9.181-.2-13.771-.321-3.355-.085-6.712-.16-10.064-.325-1.523-.075-3.038-.343-4.553-.551-2.286-.313-4.566-.672-6.856-.953-.342-.042-.723.237-1.085.368.324.282.617.759.976.814,3.012.466,6.026,1.055,9.06,1.226,6.136.347,12.285.455,18.428.659.309.01.619-.015.926,0,3.415.2,6.828.474,10.246.589a44.8,44.8,0,0,0,4.967-.291,15.4,15.4,0,0,0,1.878-.313.392.392,0,0,0,.211-.315c0-.1-.156-.278-.245-.279-1.407-.018-2.815-.012-4.532-.013m-99.607-178.8c.876-3.348,1.76-6.693,2.624-10.044.2-.762.326-1.542.486-2.313a9.167,9.167,0,0,0-1.687,1.873,67.745,67.745,0,0,0-4.975,14.015c-.34,1.41-.641,2.831-.928,4.254-.259,1.288.594,1.834,1.611,2.1,1.333.343,1.13-.946,1.448-1.594a5.438,5.438,0,0,0,.18-1.471c.354-2.221.723-4.441,1.242-6.815m-17.168,13.147c.35-1.2-1.337-3.466-2.425-3.229-.148.032-.324.31-.345.49-.13,1.137-.245,2.277-.317,3.419-.124,1.962-.3,3.926-.292,5.889,0,2.169.151,4.34.321,6.5.027.336.513.636.788.953a6.374,6.374,0,0,0,.407-.91,15.788,15.788,0,0,0,.608-2.521c.259-2.481.4-4.974.655-7.455.1-.954.4-1.888.6-3.141m10.208-23.51c.685-.891,1.373-1.779,2.052-2.675.211-.279.394-.58.589-.871a3.679,3.679,0,0,0-1.25-.288,22.675,22.675,0,0,0-2.528.588c-1.622.414-3.172.9-4.142,2.472-.456.738-.107,1.123.417,1.412.128.07.575-.377.837-.626a11.352,11.352,0,0,1,1.526-1.471c.319-.2.885-.02,1.339-.01a5.492,5.492,0,0,1-.088,1.162c-.778,2.66-1.789,5.27-2.33,7.975-.58,2.9-.74,5.884-1.04,8.836-.029.288.246.607.379.912.176-.246.459-.471.509-.74.343-1.821.54-3.674.965-5.474.861-3.645,1.836-7.263,2.764-11.2m0,17.014a4.493,4.493,0,0,0,0,.616c.065.467.155.93.235,1.394a6.679,6.679,0,0,0,.674-1.285c1.056-3.835,1.919-7.731,3.152-11.506,1.2-3.662,2.187-7.523,5.566-10.019.185-.137.223-.528.234-.8a.979.979,0,0,0-.622-.191,12.069,12.069,0,0,0-3.02.523c-.308.123-.246,1.169-.36,1.792-.008.042-.086.067-.1.111-.994,2.623-1.961,5.256-2.983,7.867a43.163,43.163,0,0,0-2.778,11.5m19.334-18.715c-1.4.349-.586,1.8-1.247,2.562-.192.222.111.873.187,1.327a4.623,4.623,0,0,0,.893-.758c.883-1.25,2.164-1.243,2.737.244a9.263,9.263,0,0,1,.258,3.362,13.358,13.358,0,0,1-.387,2.2c.475-.543.994-1.055,1.416-1.636.76-1.047,1.559-1,2.162.218a2.184,2.184,0,0,1,.3,1.249c-.445,2.274-.982,4.529-1.449,6.8a4.107,4.107,0,0,0,.088,1.137,4.865,4.865,0,0,0,.757-.746c.922-1.414,1.708-2.931,2.753-4.243.565-.71.679-1.088.182-1.864-2.346-3.664-4.829-7.192-8.648-9.851M221.243,557.763l1.083-.735c-.336-.167-.676-.485-1.006-.475a24.109,24.109,0,0,0-3.884.331c-.487.095-.939.683-1.278,1.142-.363.492-.511,1.14-.863,1.643-.818,1.167-1.754,2.253-2.55,3.434a72.05,72.05,0,0,0-7.426,14.859,7.27,7.27,0,0,0-.235,1.073,6.147,6.147,0,0,0,.649-.821c2.445-4.449,4.784-8.961,7.345-13.342,1.843-3.152,3.94-6.176,8.166-7.107m178.8-12.992c1.5.1,3.007.286,4.511.3,6.228.038,12.455.112,18.64-.894,2.636-.429,5.311-.615,7.961-.966a10.46,10.46,0,0,0,1.833-.589,7.11,7.11,0,0,0-2.236-.287,72.412,72.412,0,0,1-15.813,1.569c-6.809-.131-13.625.15-20.438.253-.052,0-.113-.018-.153,0-.218.118-.431.247-.646.371a1.973,1.973,0,0,0,.62.234c1.8.019,3.608.011,5.722.011M229.131,467.9c-.309,2.548-.742,5.088-.894,7.645-.155,2.615-.055,5.247-.021,7.871a20.317,20.317,0,0,0,.276,2.271,13.445,13.445,0,0,0,.616-2.413c.258-3.719.426-7.444.647-11.165.068-1.143.14-2.291.315-3.421.59-3.813,1.234-7.618,1.829-11.431a2.869,2.869,0,0,0-.2-.957c-.239.264-.636.5-.692.8-.656,3.493-1.262,7-1.88,10.805m78.727-98.834c-1.083,2.325-2.2,4.636-3.228,6.984-.283.644-.881,1.538.29,1.97,1.131.417,2.9-.3,3.08-1.22.65-3.282,1.253-6.572,1.861-9.862a4.375,4.375,0,0,0,0-.818c-.254.156-.617.251-.743.479-.415.745-.744,1.538-1.261,2.467m-33.563,21.808a7.908,7.908,0,0,0,.277-2.178c-.39-2.539-.9-5.06-1.392-7.582a3.606,3.606,0,0,0-.479-.912,3.568,3.568,0,0,0-.548,1.09c-.133,1.2-.2,2.4-.227,3.607-.057,2.16-.177,4.328-.031,6.476.036.535.989,1.009,1.52,1.51.258-.428.523-.852.768-1.287a1.962,1.962,0,0,0,.113-.724m22.427,59.238c.176.073.355.138.527.219,1.005.47,1.867.873,2.254-.789.376-1.615,1.067-3.154,1.584-4.739a4.479,4.479,0,0,0,.084-1.069,3.141,3.141,0,0,0-1.142.336,2.724,2.724,0,0,0-.669,1.094,3.94,3.94,0,0,1-3.958,2.466c-1.388.036-2.778,0-4.168.014a2.106,2.106,0,0,0-.544.157c.075.175.1.452.231.509a37.463,37.463,0,0,0,3.558,1.465c.648.21,1.389.131,2.243.337M456.8,554.515c1.843-.155,3.687-.294,5.527-.476a7.668,7.668,0,0,0,1.278-.348,5.8,5.8,0,0,0-1.223-.247c-6.4.086-12.8.2-19.2.3-.824.013-1.651-.029-2.473.016a4.325,4.325,0,0,0-1.107.3,2.248,2.248,0,0,0-.437.268c.173.115.335.3.521.332a16.6,16.6,0,0,0,2.653.305c4.768-.068,9.536-.19,14.458-.447M263.467,380.357c0,2.7-.08,5.394.046,8.084a6.654,6.654,0,0,0,.991,2.5c.161.31.608.473.925.7.068-.426.307-.916.176-1.268a14.929,14.929,0,0,1-.883-8.326c.459-2.263,1.07-4.5,1.626-6.738.127-.511.308-1.008.464-1.512a7.7,7.7,0,0,0-1.767,1.046,3.665,3.665,0,0,0-.642,1.568c-.338,1.2-.628,2.419-.937,3.939m20.262-24.283c.361-.829.751-1.646,1.069-2.491a5.806,5.806,0,0,0,.188-1.2,4.86,4.86,0,0,0-.955.623c-1.982,2.088-2.463,4.889-3.166,7.476-1.016,3.739-1.536,7.615-2.211,11.443-.061.343.294.76.455,1.142a5.827,5.827,0,0,0,.433-1.054c.535-2.665.921-5.367,1.591-8s1.616-5.194,2.6-7.941m49.34,201.534a48.7,48.7,0,0,1,4.171,3.3c1.466,1.427,2.705,3.086,4.077,4.614a3.312,3.312,0,0,0,.95.52c.027-.263.17-.591.064-.781-1.629-2.937-3.392-5.821-6.271-7.685a24.488,24.488,0,0,0-4.581-1.954c-.229-.088-.588.158-.886.25a5.456,5.456,0,0,0,.7.645c.522.337,1.076.627,1.771,1.091M441.8,473.932l-1.083.241c.161.126.309.337.486.365,2.078.33,4.176.556,6.239.957,4.27.83,8.521,1.754,12.782,2.625a12.971,12.971,0,0,0,1.379.137c-.3-.4-.578-.82-.913-1.19a1.2,1.2,0,0,0-.627-.327c-3.808-.739-7.607-1.531-11.432-2.162-2.151-.355-4.347-.439-6.832-.645m-99.143,42.844q-2.011,6.745-4.013,13.492a7.854,7.854,0,0,0-.165,1.2,4.189,4.189,0,0,0,.759-1.044q2.7-8.4,5.331-16.814c.057-.182-.1-.433-.161-.651-.171.155-.415.278-.5.47a30.955,30.955,0,0,0-1.25,3.348m-12.374,1.856c.516,2.26,1.016,4.523,1.571,6.773.052.209.448.333.685.5.067-.264.233-.548.185-.789-.589-2.946-1.138-5.9-1.843-8.821-.675-2.8-1.513-5.552-2.3-8.319-.067-.236-.312-.422-.474-.631-.1.241-.3.489-.277.721a11.25,11.25,0,0,0,.3,1.881c.7,2.8,1.436,5.587,2.158,8.689M253.1,435.574a53.029,53.029,0,0,0,5.739.27c2.815-.156,5.616-.567,8.419-.906.286-.035.543-.313.813-.479-.3-.144-.607-.424-.9-.411-4.24.176-8.48.368-12.716.629a2.216,2.216,0,0,0-1.353.9m50.268,37.275c-.509-1.127-1.006-2.26-1.534-3.378a4.715,4.715,0,0,0-.537-.737,2.664,2.664,0,0,0-.061,1.029c.837,2.225,1.666,4.457,2.611,6.637,1.229,2.837,2.557,5.632,3.863,8.435a4.917,4.917,0,0,0,.649.852c.059-.391.276-.843.152-1.164q-1.234-3.192-2.6-6.333c-.757-1.746-1.59-3.458-2.544-5.341m-43-90.636c.1,1.7.179,3.41.333,5.109.029.322.366.616.56.923a3.448,3.448,0,0,0,.328-.98,45.668,45.668,0,0,1,.066-5.438c.3-2.179.983-4.305,1.5-6.456.157-.657.3-1.316.449-1.975-.562.481-1.127.957-1.679,1.449-.055.049,0,.21-.045.284-1.348,2.071-1.328,4.444-1.507,7.083m31.707-23.664c.258-.46.487-.939.779-1.375,1.078-1.611,2.156-3.224,3.284-4.8a4.233,4.233,0,0,1,1.041-.77,9.553,9.553,0,0,0-1.37-.77,3.174,3.174,0,0,0-1.556-.282,1.577,1.577,0,0,0-1.058.851c-.408,1.229-.651,2.513-.966,3.773-.3,1.212-.631,2.418-.912,3.635-.044.19.107.425.168.639a8.525,8.525,0,0,1,.591-.9M243.67,504.4a10.92,10.92,0,0,0,1.322.137c.179,0,.356-.2.534-.309a1.663,1.663,0,0,0-.417-.285,72.6,72.6,0,0,1-13.177-5.379,2.39,2.39,0,0,0-.935-.051c.174.284.283.669.535.835a16.457,16.457,0,0,0,3.086,1.833c2.934,1.106,5.927,2.054,9.052,3.219m79.036-63.569c1.6,1.537,3.309,2.976,4.768,4.636a25.58,25.58,0,0,1,5.035,7.61c.078.205.474.289.722.43-.047-.248-.088-.5-.14-.744-.655-3.071-2.544-5.442-4.6-7.631a73.38,73.38,0,0,0-5.5-4.92c-.168-.146-.486-.118-.734-.171a4.573,4.573,0,0,0,.447.79M449.071,530.7c-.206.428-.388.869-.623,1.281-1.088,1.912-2.2,3.809-3.275,5.729a3.3,3.3,0,0,0-.2.955c.321-.062.716-.028.946-.207a4.265,4.265,0,0,0,1.272-1.309q1.636-3.319,3.1-6.72a21.923,21.923,0,0,0,.927-3c.044-.164-.155-.395-.242-.595a3.288,3.288,0,0,0-.38.494,32.717,32.717,0,0,0-1.524,3.373M251.249,543.533c.346.036.694.053,1.036.112,2.163.37,4.322.761,6.489,1.106.2.032.447-.209.672-.323a3.633,3.633,0,0,0-.588-.272c-4.258-1.127-8.68-1.693-12.68-3.708a4.012,4.012,0,0,0-.907-.217c.182.322.288.814.56.937,1.734.782,3.5,1.483,5.418,2.365M252.8,503.01a10.627,10.627,0,0,0,1.058-.769,3.911,3.911,0,0,0,.516-.75c-.363-.112-.821-.426-1.074-.306-2.448,1.158-5.047.867-7.615.907a2.993,2.993,0,0,0-.773.229c.23.2.438.543.695.586,2.332.384,4.653,1.324,7.193.1m-28.459,51.969-.464.245c.163.125.329.361.49.357q5.426-.123,10.851-.3c.141,0,.276-.185.414-.284-.129-.108-.249-.295-.388-.31a21.976,21.976,0,0,0-3.426-.295c-2.393.117-4.779.385-7.477.591M308.322,381.9a4.5,4.5,0,0,0,.86.143,6.741,6.741,0,0,0,1-.161c-.186-.283-.35-.583-.561-.844a2.912,2.912,0,0,0-2.758-1.156c-1.237.14-2.487.173-3.718.344-.358.05-.672.411-1.006.63a3.361,3.361,0,0,0,1.079.558c1.647.157,3.3.229,5.108.487m1.237,164.259c-2.728-.052-5.456-.107-8.185-.144-.158,0-.318.144-.477.222.159.129.319.371.477.37a67.437,67.437,0,0,0,8.185-.447M312.5,371.85c-.719,1.647-1.495,3.274-2.118,4.956-.155.42.181,1.022.291,1.54.454-.311,1.176-.532,1.316-.948a48.8,48.8,0,0,0,1.258-4.852c.043-.19-.283-.462-.747-.7m-40.059-10.672a44.035,44.035,0,0,0-.89,4.383,16.232,16.232,0,0,0,.213,3.277c.019.189.229.359.35.538.109-.177.293-.346.315-.534q.489-4.03.927-8.066a3.736,3.736,0,0,0-.157-.976c-.181.284-.357.57-.544.849a.987.987,0,0,0-.215.528m54.6,176.478q-2.28,3.518-4.559,7.037a2.2,2.2,0,0,0-.144.325c.212-.067.511-.066.621-.211,1.577-2.058,3.143-4.126,4.658-6.23.115-.16-.169-.608-.577-.921M425.1,554.051c1.178,0,2.357.015,3.534-.01a4.958,4.958,0,0,0,.951-.205c-.314-.238-.617-.661-.944-.68a38.228,38.228,0,0,0-3.993-.017c-.936.043-1.865.23-2.8.352.98.187,1.959.373,3.248.56M176.079,598.6c.574-.883,1.162-1.758,1.711-2.656a2.313,2.313,0,0,0,.159-.732,1.953,1.953,0,0,0-.622.3c-.775.841-1.54,1.693-2.262,2.58-.163.2-.141.553-.2.835a4.825,4.825,0,0,0,1.218-.329m137.965-220.25c.361-.24,1.024-.474,1.03-.722a25.554,25.554,0,0,0-.257-3.087c-.269.044-.769.07-.774.134a22.378,22.378,0,0,0,0,3.675m-2.939-10.054c0,.461.007.923,0,1.383-.012.622-.038,1.243-.057,1.865a11.1,11.1,0,0,0,1.261-1.813,2.59,2.59,0,0,0,.016-1.517c-.2-.881-.672-.893-1.218.082m38.667,128.066-.526-.4c-.547,1.315-1.109,2.625-1.614,3.956-.048.126.259.387.4.585.167-.162.411-.294.489-.492a38.449,38.449,0,0,0,1.25-3.646m5.1-11.91.352.928a2.414,2.414,0,0,0,.712-.474,5.538,5.538,0,0,0,.551-1.147c.2-.484.36-.981.537-1.472a9.808,9.808,0,0,0-1.665.941c-.241.2-.23.7-.488,1.225m-18.1,71.612c1.118-.155,2.238-.294,3.349-.488.107-.019.265-.51.215-.55-.536-.427-3.261.244-3.564,1.038M261.457,372.778c1.091-.266,2.185-.518,3.267-.815.131-.036.2-.315.29-.481-.152-.084-.3-.232-.458-.24-1.306-.073-2.63-.16-3.1,1.537m199.06,106.877a.548.548,0,0,0-.111-.105.11.11,0,0,0-.1.016c-.28.391.465,2.714.89,2.686.2-.013.575-.465.531-.562a15.234,15.234,0,0,0-1.205-2.035M295.793,498.06c-.827-.825-1.64-1.665-2.5-2.456-.112-.1-.462.052-.7.087a2.269,2.269,0,0,0,.339.427,21.349,21.349,0,0,0,2.861,1.942m96.978-23.974c1.208.052,2.417.113,3.626.14.13,0,.264-.192.4-.3-.132-.1-.266-.3-.4-.3a13.5,13.5,0,0,0-3.626.45m-163.64,32.79c.206,1,.4,2,.626,2.988a2.559,2.559,0,0,0,.289.569c.107-.232.335-.482.3-.693-.162-1.055-.384-2.1-.623-3.142-.012-.053-.387-.023-.594.277m67.281-53.98,1.37-.133a19.844,19.844,0,0,0-1.577-1.271c-.141-.094-.477.1-.723.168.258.36.517.721.93,1.236m-2.165-7.424c.384,1.351,1.462.29,2.158.585.053.023.309-.432.471-.666a2.32,2.32,0,0,0-.773-.212c-.52.047-1.032.189-1.856.292m3.4,12.064c.258-.3.629-.557.734-.9a1.062,1.062,0,0,0-.377-.856.781.781,0,0,0-.772.058,1.038,1.038,0,0,0-.143.808,2.616,2.616,0,0,0,.556.89m2.939-17.787a11.752,11.752,0,0,0,.022,1.5c.023.179.3.326.461.488a3.858,3.858,0,0,0,.4-1.319c-.019-.29-.47-.552-.882-.672m-4.64,18.56-.969-.887c-.037.348-.214.771-.077,1.027.194.365.576.906,1.046-.14m44.236,32.171.385,1.083c.078-.36.165-.719.229-1.082a.869.869,0,0,0-.005-.454,4.685,4.685,0,0,0-.374-.629,5.984,5.984,0,0,0-.235,1.083M338.018,540.9a9.918,9.918,0,0,0-.576.958,4.019,4.019,0,0,0,.512.344A3.5,3.5,0,0,0,338.018,540.9Z" transform="translate(-119.36 -240.626)"></path><path d="M803.743,318.212a7.446,7.446,0,0,1,3.762-3.637,5.786,5.786,0,0,0,2.023-1.423c2.122-2.659,5.2-3.562,8.207-4.492,3.625-1.121,7.327-2,11.016-2.9a24.824,24.824,0,0,1,4.912-.815c7.593-.278,15.19-.531,22.787-.61,3.315-.034,6.632.4,9.951.572,4.4.232,8.8.41,13.2.627,3.936.194,7.871.426,11.808.611,2.791.131,5.585.212,8.378.315s5.585.212,8.378.308q4.807.165,9.615.309c3.875.112,7.768.011,11.621.361,4.918.447,9.919.954,14.1,3.993,3.379,2.458,5.651,5.5,5.711,10.058.056,4.319.753,8.629,1.158,12.944q.182,1.944.309,3.893c.117,1.761.232,3.522.309,5.285.22,5.076.215,10.156,1.5,15.148.526,2.049.407,4.257.689,6.378.263,1.983.675,3.945,1.007,5.919a29.816,29.816,0,0,1,.231,10.176,48.349,48.349,0,0,0-.593,5.166,75.979,75.979,0,0,0-.309,7.9c.12,3.076.711,6.132.853,9.208a10.683,10.683,0,0,1-8.343,10.682,53.772,53.772,0,0,1-12.887,2.105c-2.587.011-5.173.207-7.76.288-3.772.119-7.548.134-11.315.334-4.1.218-8.2.605-12.3.9-1.709.124-3.419.262-5.13.3-5.318.129-10.638.2-15.956.323-3.567.08-7.137.359-10.7.259-3.28-.092-6.556-.863-9.823-.8a65.2,65.2,0,0,0-9.34,1.278c-3.07.513-6.155,1.009-9.166,1.776a29.011,29.011,0,0,0-7.1,2.582c-1.214.686-1.8,2.475-2.689,3.752-1.228,1.763-2.408,3.565-3.74,5.247a2.345,2.345,0,0,1-3.441.153,9.587,9.587,0,0,1-3.308-6.979c-.035-2.021-.144-4.043-.311-6.057-.146-1.759-.967-2.39-2.833-2.46a58.741,58.741,0,0,1-6.208-.342c-2.525-.365-5.163-3.595-5.51-6.05q-.944-6.686-2.159-13.332c-.622-3.431-1.449-6.824-2.13-10.245a13.993,13.993,0,0,1-.306-3.116c.166-5.587.086-11.2.684-16.748a171.145,171.145,0,0,0,1.186-17.282c.022-3.421.366-6.841.589-10.261a57.867,57.867,0,0,1,.694-8.542c.779-3.567-.9-6.605-1.365-9.893a20.906,20.906,0,0,1,.048-3.171m90.172,8.661c1.622-2.109,4.041-2.275,6.179-1.759,4.486,1.083,8.649,2.937,11.76,6.652a11.162,11.162,0,0,1,2.619,6.347c.226,2.463-.746,4.7-1.629,6.9-.777,1.933-3.11,3.15-4.716,2.509a3.572,3.572,0,0,0-3.285-.047c-.721.384-1.345-.05-1.143-.75.561-1.944-1.149-1.438-1.922-1.869-.279-.156-.8.127-1.214.209a10.381,10.381,0,0,0,.4,1.226c1.61,3.462,3.574,6.78,3.333,10.848-.345,5.839-4.087,8.261-9.175,8.989-1.587.227-2.227.74-1.978,2.365.177,1.156.506,2.3.6,3.458.407,5.236,4.3,7.573,8.143,10a22.278,22.278,0,0,1,4.382,3.164,42.026,42.026,0,0,1,3.661,5.106c2.037,2.924,3.43,6.059,3,9.733-.262,2.249-.737,4.479-.886,6.733a9.638,9.638,0,0,1-3.22,6.4c-.235.231-.688.24-1.04.352a3.538,3.538,0,0,1-.26-1.163c.362-2.735,1.525-5.311.842-8.248-.712-3.059-.767-6.265-1.356-9.36-.3-1.575-.967-3.264-2.843-3.681a4.172,4.172,0,0,0-4.216,1.621,74.08,74.08,0,0,0-4.989,5.986c-1.934,2.833-3.047,5.934-1.533,9.429a19.033,19.033,0,0,1,.926,3.323.838.838,0,0,1-.328.74.95.95,0,0,1-.826-.273c-.77-1.007-2.005-2.015-2.1-3.11a27.024,27.024,0,0,1,.207-8.268c1.176-5.15,4.8-8.432,9.524-10.576,3.684-1.67,6.573.567,7.435,3.944.59,2.31.846,4.7,1.293,7.053.042.219.384.38.588.568.087-.174.267-.359.247-.519a29.015,29.015,0,0,0-.576-3.937c-.5-1.889-1.183-3.732-1.819-5.583-.914-2.66-3.716-3.171-5.564-4.769-.223-.193-1.1-.008-1.361.282-1.754,1.915-4.144,2.124-6.394,2.085-3.9-.067-7.784-.6-11.681-.848-3.532-.229-6.724-1.657-10.012-2.73-1.673-.546-2.4-.515-3.3.973a50.777,50.777,0,0,0-6.237,16.126c-.766,3.713-1.436,7.446-2.182,11.163a1.728,1.728,0,0,0,1.879,2.286c2.124-.069,4.244-.243,6.368-.289,2.439-.052,4.884.067,7.321-.032,2.96-.121,5.911-.43,8.87-.59,4.449-.24,8.9-.559,13.353-.583,3.419-.018,6.841.539,10.26.529,3.885-.011,7.772-.313,11.651-.59,3.177-.227,6.343-.6,9.515-.91,4.314-.416,8.629-.815,12.942-1.242a12.517,12.517,0,0,0,6.856-2.858,6.388,6.388,0,0,0,2.2-5.406c-.136-3.539-.624-7.063-.851-10.6-.079-1.234.276-2.492.259-3.736a71.137,71.137,0,0,0-.323-7.446c-.492-4.141-1.338-8.241-1.781-12.385a60.2,60.2,0,0,1-.545-11.175,28.673,28.673,0,0,0-.87-10.11,62.86,62.86,0,0,1-2.643-17,29.956,29.956,0,0,0-1.889-11.128c-.92-2.362-2.064-4.716-4.633-5.743-2.92-1.167-5.878-2.255-8.866-3.237a58.313,58.313,0,0,0-14.745-2.473c-3.353-.205-6.719-.2-10.078-.335-4.555-.182-9.108-.416-13.663-.61-5.121-.218-10.241-.516-15.364-.589-4.028-.057-8.061.126-12.089.293q-4.594.191-9.177.618c-3.753.348-7.5.77-11.241,1.234-2.974.369-5.941.808-8.9,1.288-4.1.665-8.179,1.417-12.274,2.1-3.287.545-6.6.947-9.866,1.6-1.328.264-3.03.407-3.312,2.276-.273,1.812-.523,3.636-.615,5.464-.174,3.459.009,6.952-.388,10.381-.524,4.516-1.286,9-1.193,13.568.071,3.5.014,7.011.015,10.516a8.974,8.974,0,0,0,.023,1.229c.394,2.823,1.154,5.646,1.136,8.465-.031,4.874-.566,9.744-.843,14.618-.242,4.243-.532,8.488-.593,12.735a108.256,108.256,0,0,0,.344,11.464,32.865,32.865,0,0,0,1.714,6.7,2.139,2.139,0,0,0,1.443,1.172,15.461,15.461,0,0,0,4.5.31,8.125,8.125,0,0,1,8.225,3.411,4.655,4.655,0,0,1,1.1,2.66c.223,3.589.568,7.171.922,10.75.038.386.444.736.679,1.1.28-.251.658-.451.822-.764a26.808,26.808,0,0,0,1.248-2.729c.971-2.485,1.832-5.016,2.878-7.469a4.356,4.356,0,0,1,3.366-2.584c1.575-.3,3.134-.753,4.722-.9,4.2-.387,8.4-.663,12.6-.947,2.171-.146,4.349-.191,6.521-.333.546-.036.841-.108.675-1.018a55.357,55.357,0,0,1-.993-8.7,18.45,18.45,0,0,1,.913-6.092c1.73-5.219,3.1-10.674,7.542-14.5,2.542-2.193,5.358-3.714,8.831-3.71a3.094,3.094,0,0,0,1.559-.318,8.645,8.645,0,0,0,4.292-5.391,3.779,3.779,0,0,0-2.852-4.505,24.3,24.3,0,0,1-3.305-1.347c-5.22-2.425-8.588-6.719-11.471-11.479-.794-1.311-1.192-1.455-2.349-.408a3.957,3.957,0,0,1-3.224,1.187,41.432,41.432,0,0,1-4.987-.679c-.594-.143-1.013-1.011-1.511-1.549.585-.287,1.181-.555,1.754-.867.766-.417,1.84-.682,2.209-1.336a61.832,61.832,0,0,0,3.431-7.076c1.1-2.692,1.573-5.7,2.985-8.187a25.573,25.573,0,0,1,16.066-12.693c2.635-.691,5.526-1.131,8.117.533a13.572,13.572,0,0,1,4.424,5.448,4.43,4.43,0,0,0,.617.733,2.525,2.525,0,0,0,.286-.87c-.162-2.363.878-4.192,2.646-5.936m-16.7,41.142c1.809.984,3.7,1.847,5.405,2.981,2.183,1.45,2.7,2.655,1.829,4.186-1.035,1.81-2.312,3.485-3.522,5.191-.517.729-1.132,1.389-1.7,2.08.686.462,1.375.92,2.058,1.387,2.975,2.035,6.1,3.528,9.872,3.066a11.924,11.924,0,0,1,3.388.024c1.659.28,3.92-.561,4.48-1.881.655-1.541,0-2.727-1.586-4.079-1.916-1.635-4.159-3.19-4.712-5.85-.56-2.695-.77-5.463-1.117-8.2a1,1,0,0,1,.122-.71c.971-1.05-.087-1.078-.654-1.268-.325-.108-.832.126-1.052-.05a9.3,9.3,0,0,1-1.21-1.4c.464-.245.918-.674,1.395-.7a3.117,3.117,0,0,0,3.259-2.414c.847-2.17-.309-3.861-1.286-5.554a3.306,3.306,0,0,0-1.8-1.546c-.394-.091-1.036.9-1.569,1.407-.232.219-.589.66-.681.611a1.83,1.83,0,0,1-.834-.818,4.4,4.4,0,0,1-.036-1.224,11,11,0,0,0-1.939-6.139,34.418,34.418,0,0,0-4.476-4.784,8.388,8.388,0,0,0-6.386-2.482,4.225,4.225,0,0,0-4.235,3.968,3.091,3.091,0,0,1-.7,1.248,11.343,11.343,0,0,0-1.413,1.864c-.809,1.879-1.06,4.167-2.3,5.648-1.493,1.78-.776,3.1-.081,4.551,2.4,5.005,6.5,8.263,11.478,10.892m-73.159,18.715c.309,1.779.6,3.56.942,5.333a4.151,4.151,0,0,0,.477.981,3.847,3.847,0,0,0,.42-1.057c.14-1.81.223-3.624.326-5.436.309-5.437.789-10.872.863-16.313a90.03,90.03,0,0,0-.863-9.663,31.719,31.719,0,0,1-.289-3.427c.032-2.226.231-4.449.256-6.675a4.979,4.979,0,0,0-.611-1.637c-.122.491-.25.981-.363,1.474a6.033,6.033,0,0,0-.221,1.142c-.117,3.976-.164,7.955-.337,11.929-.1,2.341-.45,4.671-.587,7.011-.25,4.241-.477,8.484-.6,12.73a24.2,24.2,0,0,0,.583,3.608m13.766-76.252c-1.54.509-3.082,1.009-4.617,1.534a2.141,2.141,0,0,0-.739.44,2.471,2.471,0,0,0-.367.613c.269.055.578.225.8.147,4.329-1.5,8.875-1.778,13.355-2.445,4.195-.625,8.35-1.52,12.547-2.118,4.455-.634,8.936-1.087,13.412-1.559,1.8-.19,3.62-.212,5.43-.336.188-.013.364-.2.546-.305a3.266,3.266,0,0,0-.536-.362,2.143,2.143,0,0,0-.824-.237c-5.209.088-10.424.069-15.624.339a89.89,89.89,0,0,0-11.833,1.266c-3.8.711-7.5,1.993-11.552,3.024m71.3,40.369c.54-.54,1.047-1.12,1.628-1.611.943-.8,1.976-1.493,2.877-2.333.244-.227.147-.819.206-1.244a3.3,3.3,0,0,0-1.258.228c-.979.663-1.84,1.507-2.845,2.119-.328.2-.957-.1-1.448-.164.123-.594.046-1.4.409-1.741.919-.855,2.112-1.415,3.04-2.263a3.926,3.926,0,0,0,.767-1.819c.06-.216-.193-.519-.3-.783a3.307,3.307,0,0,0-.65.395c-1.068,1.044-2.068,2.166-3.207,3.123-.31.261-1.057.148-1.531-.011a1.281,1.281,0,0,1-.126-1.147c1.085-1.29,2.262-2.5,3.424-3.727a11.638,11.638,0,0,0,1.1-1.04c.163-.226.085-.626.116-.947-.352.024-.834-.092-1.034.095-1.31,1.224-2.542,2.531-3.837,3.772a7.93,7.93,0,0,1-1.263.826,5.931,5.931,0,0,1-.079-1.879c.148-.528.718-.925,1.027-1.427a.735.735,0,0,0-.064-.707.719.719,0,0,0-.705,0c-.513.425-.928.971-1.449,1.386-.319.254-.906.593-1.12.466a1.67,1.67,0,0,1-.74-1.181c-.021-.714-.147-.925-.922-.945-1.188-.03-1.424-.639-.9-1.753a10.317,10.317,0,0,1,4.79-5.035c.283-.141.448-.519.667-.787-.352-.144-.76-.482-1.048-.4-1.6.455-3.136,1.043-3.962,2.681-.56,1.11-1.136,2.216-1.778,3.279a23.8,23.8,0,0,1-1.464,1.966,13.661,13.661,0,0,1,2.114,1.219c1.814,1.516,3.639,3.034,5.31,4.7a11.426,11.426,0,0,1,3.667,6.82c.009.082.388.123.594-.126M941.4,314.036a15.565,15.565,0,0,1,5.211,10.046c.533,3.706.6,7.476,1,11.2.314,2.984.8,5.95,1.225,8.922a2.633,2.633,0,0,0,.25.607c.12-.219.352-.443.344-.657-.073-1.917-.176-3.834-.3-5.749-.079-1.248-.187-2.494-.307-3.738-.406-4.211-1.018-8.414-1.179-12.634a11.03,11.03,0,0,0-5.363-9.413c-3.877-2.55-8.355-2.861-12.706-3.673-.258-.048-.569.189-.856.294a3.418,3.418,0,0,0,.9.6c3.976,1.062,7.963,2.086,11.784,4.191m-77.953,81.975c1.131-2.888,1.986-5.9,4-8.383.245-.3.143-.886.2-1.339-.357.239-.849.4-1.051.731a55.623,55.623,0,0,0-3.718,6.479,42.03,42.03,0,0,0-3.411,11.842,24.667,24.667,0,0,0,.217,4.522c.013.185.232.355.355.532a1.978,1.978,0,0,0,.306-.548c.325-1.772.544-3.567.957-5.317.649-2.752,1.424-5.475,2.146-8.519M898.4,345.28a2.542,2.542,0,0,1,3.129-2.342,2.148,2.148,0,0,0,1.084-.337,48.2,48.2,0,0,1,5.714-2.968,3.978,3.978,0,0,0,2.349-2.346,1.18,1.18,0,0,0-.306-1.007c-.125-.133-.663-.038-.9.122-1.735,1.171-3.378,2.494-5.179,3.548-1.355.793-2.774,2.058-4.532.561-.482-.411-3.544.956-3.741,1.625-.087.295.172.7.286,1.044a5.824,5.824,0,0,1,.521,1.625c0,1.421.549,1.324,1.576.474m10.518-14.23a23.328,23.328,0,0,0-7.76-4.039c-3.4-1.137-5.458-.024-7.377,2.186a2.727,2.727,0,0,0-.32.935,3.291,3.291,0,0,0,1.046-.167c.682-.361,1.3-.838,1.967-1.231,1.381-.816,2.771-1.3,4.389-.512,1.194.583,2.522.889,3.718,1.467.6.29,1.4.864,1.475,1.4.147,1.063.7,1.1,1.456,1.043a2.464,2.464,0,0,1,2.774,1.5,2.6,2.6,0,0,0,.863.871,1.768,1.768,0,0,0,.646.168c-.032-.186,0-.427-.106-.548-.859-.984-1.743-1.946-2.774-3.069M807.455,319.914c.206-.84.425-1.678.612-2.523a5.05,5.05,0,0,0,.048-.839c-.351.015-.89-.109-1.022.069a7.749,7.749,0,0,0-1.718,2.808,9.826,9.826,0,0,0,.379,3.707c.523,2.374,1.28,4.677.811,7.194a36.554,36.554,0,0,0-.332,4.958c-.008.181.188.371.29.557a1.789,1.789,0,0,0,.3-.55c.087-.642.1-1.293.182-1.935a53.536,53.536,0,0,0,.717-5.55c.061-2.525-.165-5.058-.268-7.9m33.873,99.453c1.883-.309,3.766-.613,5.646-.939.143-.025.258-.206.386-.314-.138-.1-.283-.288-.414-.279-1.145.078-2.291.161-3.429.3-2.349.288-4.686.759-7.042.887-3.423.186-4.352,2.8-5.485,5.254-.113.245.106.642.171.968a3.612,3.612,0,0,0,.616-.671,8.392,8.392,0,0,1,5.3-4.268c1.3-.369,2.628-.629,4.253-.939m54.908-56.145c1.562-1.665,3.146-3.312,4.66-5.02a1.565,1.565,0,0,0,0-1.089,5.916,5.916,0,0,0-2.569-.169c-.929.3-1.963.853-1.794,2.23a7.063,7.063,0,0,1,0,1.745,16.182,16.182,0,0,0-.294,2.3m54.6,3.867c.155.966.319,1.931.462,2.9.417,2.817.823,5.635,1.249,8.451.022.147.193.27.3.4.1-.132.3-.262.3-.4a28.838,28.838,0,0,0-.016-4.222c-.536-4.031-1.2-8.045-1.838-12.062a2.159,2.159,0,0,0-.366-.643,2.013,2.013,0,0,0-.231.622,48.158,48.158,0,0,0,.144,4.946M870.87,336c.615-.821,1.234-1.64,1.843-2.465.18-.244.334-.506.5-.759a3.886,3.886,0,0,0-.939-.32c-1.71-.126-4.806,1.9-5.4,3.545a1.05,1.05,0,0,0,.207.807c.068.1.436.007.66-.037A28.177,28.177,0,0,0,870.87,336m25.056,17.014c-.145.145-.266.368-.44.423-.919.289-1.448.935-1,1.788a1.452,1.452,0,0,0,2.311.418,4.365,4.365,0,0,1,.72-.494c1.12-.453,1.645-1.239.969-2.314-.708-1.125-1.6-.558-2.56.18m13.766-10.053c.387-.309.778-.614,1.159-.93.182-.151.344-.326.515-.49a2.482,2.482,0,0,0-.75-.415,1.677,1.677,0,0,0-1.023.106c-1.375.8-2.726,1.641-4.059,2.508-.231.151-.337.5-.5.75.315.109.717.4.932.3,1.164-.555,2.283-1.207,3.726-1.826M894.534,351a5.823,5.823,0,0,0,1.119-.637,1.58,1.58,0,0,0,.433-.841c-.414-.342-1.1-.939-1.34-.805a14.041,14.041,0,0,0-2.7,2.046c-.245.229-.153.82-.215,1.245a4.155,4.155,0,0,0,1.354-.01,5.44,5.44,0,0,0,1.35-1m3.712-14.848c.974-1.077,1.966-2.141,2.906-3.247.155-.182.09-.552.127-.835-.28.02-.665-.071-.824.078-1.182,1.11-2.348,2.242-3.446,3.434-.2.213-.058.735-.074,1.115a7.983,7.983,0,0,0,1.311-.545m-79.809,79.81,1.083-.576a4.293,4.293,0,0,0-.918-.476,6.373,6.373,0,0,0-1.467-.177c-1.306-.012-2.614.006-3.92.035a10.039,10.039,0,0,0-1.119.146c.358.246.7.668,1.077.708,1.645.174,3.3.237,5.264.34M875.2,335.071q-.014-.787-.027-1.574c-.211.023-.53-.034-.616.082-.839,1.127-1.659,2.27-2.424,3.447-.1.148.156.522.246.792a2.063,2.063,0,0,0,.643-.276,15.57,15.57,0,0,0,2.179-2.471m-8.507,6.651c.839-.117,1.682-.213,2.513-.373.13-.025.2-.34.3-.521a3.01,3.01,0,0,0-.743-.242,18.1,18.1,0,0,0-3-.06,3.616,3.616,0,0,0-1.475.847c-.123.089-.082.4-.116.615a9.272,9.272,0,0,0,1.26.03c.323-.033.633-.192,1.258-.3m12.064,42.689a3.1,3.1,0,0,0-1.1-.276c-.323.041-.609.364-.912.562a3.832,3.832,0,0,0,.867.627c1.163.419,2.343.791,3.527,1.145a2.774,2.774,0,0,0,.831-.012c-.122-.248-.178-.607-.377-.724a17.65,17.65,0,0,0-2.837-1.321m-2.011-52.742c.158.67.306,1.343.5,2,.009.031.562.02.676-.121a24.445,24.445,0,0,0,1.532-2.139c.148-.231.282-.72.177-.813a1.055,1.055,0,0,0-.9-.253,13.806,13.806,0,0,0-1.987,1.324m5.413-3.557c-.771,0-1.543-.017-2.313.011a2.176,2.176,0,0,0-.625.226c.128.2.226.554.39.588.979.2,1.864,1.1,2.974.418.51-.313,1.056-.567,1.585-.848-.567-.132-1.134-.263-2.011-.394m23.355,8.507c-.99.578-1.994,1.135-2.961,1.75-.214.136-.3.479-.44.726.286.051.652.241.846.13,1.291-.736,2.552-1.524,3.8-2.33.157-.1.182-.408.268-.619-.211.027-.423.053-.634.082a2.6,2.6,0,0,0-.879.26m-8.352,79.191c-.235.052-.475.086-.7.159-.286.091-.562.213-.843.322a2.285,2.285,0,0,0,.721.28q2.333.038,4.667,0c.165,0,.326-.231.49-.354a1.432,1.432,0,0,0-.459-.239,28.17,28.17,0,0,0-3.872-.164m-21.344-86.615a12.625,12.625,0,0,0-1.8.8c-.306.192-.453.636-.671.966.356.082.783.331,1.053.214a13.536,13.536,0,0,0,2.226-1.259,20.469,20.469,0,0,0,1.64-1.369,19.367,19.367,0,0,0-2.445.649m24.592,1.392c.094-.215.33-.53.26-.631a1.539,1.539,0,0,0-2.429-.187c-.4.331-.321,1.249-.458,1.9a12.847,12.847,0,0,0,1.36-.454,8.876,8.876,0,0,1,1.267-.631m3.867,2.011-.13-1.367c-.369.218-.927.353-1.068.672a10.716,10.716,0,0,0-.489,2.087,6.7,6.7,0,0,0,1.687-1.392m5.413,13.456a16.939,16.939,0,0,0,1.678-1.44c.2-.216.136-.673.192-1.021a3.64,3.64,0,0,0-.933.308c-.531.353-1.006.788-1.513,1.178-.252.194-.522.363-.784.544a7.091,7.091,0,0,0,1.359.431m-3.712-12.064-.994.862c.421.036.841.084,1.262.1a1.95,1.95,0,0,0,.742-.048c.642-.238,1.265-.527,1.9-.8-.755-.144-1.509-.3-2.268-.415-.092-.014-.218.19-.637.293m-37.43,4.021-1.921,1.173c.717.022,1.435.077,2.15.047a1.132,1.132,0,0,0,.741-.368,2.505,2.505,0,0,0,.29-.828c-.317-.008-.634-.015-1.26-.023m-4.331,7.115c-.206,0-.412.013-.617,0-1.123-.086-1.244.757-1.362,1.534-.018.119.394.3.608.457.444-.665,2.13-.3,1.371-1.989m36.966-8.507c-1,.586-2,1.165-2.987,1.769-.084.051-.067.267-.1.406.237.048.569.222.694.125a13.5,13.5,0,0,0,2.39-2.3m-3.248,10.672-.895.961c.489.107,1.048.411,1.45.269.446-.157.75-.72,1.116-1.107-.454-.041-.907-.082-1.67-.124m-4.485-6.96.567,1.392a17.55,17.55,0,0,0,1.018-1.454,3.189,3.189,0,0,0,.206-.932,4.053,4.053,0,0,0-1.131.059c-.26.087-.442.408-.659.934m19.488-1.547a2.106,2.106,0,0,0-.011-.612,5.481,5.481,0,0,0-.381-.78,7.628,7.628,0,0,0-.53.637,1.445,1.445,0,0,0-.3.639,13.387,13.387,0,0,0,.044,1.412,4.908,4.908,0,0,0,1.179-1.3m-55.526,16.24c-.393.5-.8.98-1.164,1.5-.072.1.059.348.1.527.491-.192,1.144-.258,1.42-.615.222-.287-.012-.928-.353-1.411m8.352-11.755-.773.712c.27.175.579.538.8.49a15.046,15.046,0,0,0,1.983-.689,18.558,18.558,0,0,0-2.011-.513m-5.259,11.755-.773.394a4.987,4.987,0,0,0,1.466.787c.276.046.648-.481.977-.75a12.594,12.594,0,0,0-1.669-.432m40.987-2.32c.076.695.147,1.391.246,2.082,0,.033.269.029.413.043-.014-.681-.01-1.364-.061-2.042-.007-.09-.289-.159-.6-.082M865.3,348.992a7.7,7.7,0,0,0-1.335.468c-.065.035.149.591.234.906a4.789,4.789,0,0,0,1.1-1.374m22.736-12.838a2.988,2.988,0,0,0,1.041-.475c.207-.224.181-.665.257-1.011-.345.1-.779.1-1.012.321a1.543,1.543,0,0,0-.287,1.165m6.341.464-.855-.073c.09.345.122.949.282.985a4.059,4.059,0,0,0,1.329-.121c-.2-.212-.4-.424-.756-.791m-33.409,12.374-.228-1.083c-.233.213-.562.385-.677.65a4.818,4.818,0,0,0-.2,1.181c.318-.2.636-.4,1.108-.748m31.4,67.281a2.9,2.9,0,0,0-.611.007c-.471.1-.934.245-1.4.371a4.656,4.656,0,0,0,1.377.205c.324-.047,1.266.586.634-.583m3.093-83.831a2.165,2.165,0,0,0-.138.7,4.008,4.008,0,0,0,.313.842,3.892,3.892,0,0,0,.558-1.068c.032-.169-.372-.419-.733-.478m-9.435,1.392c.477.739.81.174,1.065-.172.143-.195.081-.54.111-.817a3.341,3.341,0,0,0-1.176.99m-3.557,39.441.147,1.237.566-.094a2.336,2.336,0,0,0-.713-1.143m-7.115-34.955.773-.2-.267-.415A1.019,1.019,0,0,0,875.355,338.32Z" transform="translate(-553.842 -210.189)"></path><path d="M1064.726,96.394c3.838-.239,7.518-.489,11.2-.714,4.1-.251,8.2-.52,12.3-.709q5.662-.26,11.33-.362c7.753-.147,15.507-.321,23.261-.341,5.294-.014,10.589.329,15.882.309,11.626-.043,23.252-.25,34.878-.314,3.462-.019,6.927.177,10.387.348,3.892.192,7.78.509,11.672.694,3.67.175,7.347.17,11.015.391,4.531.273,9.057.665,13.582,1.065,3.484.308,6.973.605,10.44,1.091,4.356.611,8.7,1.364,13.035,2.139,4.362.779,8.735,1.519,13.056,2.538a23.849,23.849,0,0,1,11.6,6.073,33.688,33.688,0,0,1,4.185,4.8c2.828,4.1,1.849,8.215-.873,11.807-3.28,4.327-7.836,6.171-12.537,7.344-3.978.993-8.041,1.581-12.085,2.183-4,.595-8.015,1.106-12.038,1.428-4.719.377-9.452.545-14.181.739-4.141.17-8.285.258-12.429.367-4.928.129-9.857.371-14.783.321-4.1-.042-8.2-.423-12.3-.682-3.42-.216-6.837-.525-10.259-.7-5.511-.283-11.026-.459-16.537-.74q-5.29-.27-10.572-.718c-3.693-.307-7.378-.758-11.071-1.05-3.834-.3-7.68-.419-11.512-.751-4.594-.4-9.172-1.063-13.77-1.358a37.484,37.484,0,0,0-6.207.569c-1.307.137-2.611.4-3.918.421a2.726,2.726,0,0,0-2.6,2.127,8.257,8.257,0,0,0,.45,6.906,14.151,14.151,0,0,1,.793,3.2,1.936,1.936,0,0,1-.105.658,4.583,4.583,0,0,1-.644-.3c-.338-.219-.656-.475-.983-.716.058.466.142.931.167,1.4a9.687,9.687,0,0,1,0,1.611c-.12,1.059-.955,1.507-1.71.9a15.813,15.813,0,0,1-1.758-1.643c-2.744-2.985-5.458-6.006-8.206-8.987a6.878,6.878,0,0,0-4.037-2.3c-6.2-1.012-12.409-.033-18.609-.311-4.681-.21-9.368-.26-14.052-.373-.889-.021-1.781-.042-2.667.021-.259.018-.7.3-.722.5-.174,2.059-1.4,1.328-2.258,1.023-2.217-.789-4.367-1.824-6.586-2.6-2.329-.819-4.79-1.214-7.044-2.23-3.672-1.654-7.164-3.879-8.78-8.286a10.864,10.864,0,0,1-.4-5.652c.621-2.839-.076-5.6.246-8.361a20.2,20.2,0,0,1,.961-3.66.922.922,0,0,1,.731-.5c3.3.055,6.065-2.144,9.233-2.737,4.265-.8,8.448-2.173,12.712-2.975,4.356-.819,8.766-1.277,13.159-1.831,3.265-.412,6.539-.728,9.966-1.086m159.374,6.1q-4.253-.179-8.505-.358c-2.94-.122-5.88-.257-8.82-.355-4.091-.136-8.183-.234-12.274-.366-3.307-.106-6.612-.3-9.919-.345q-15.479-.225-30.959-.35c-2.049-.015-4.1.337-6.15.317-5.61-.054-11.218-.306-16.828-.31-5.19,0-10.381.2-15.571.335q-6.138.156-12.274.36c-2.888.1-5.776.226-8.663.356-5.147.232-10.294.5-15.441.709-3.724.154-7.451.2-11.174.378-3.893.184-7.783.451-11.673.71-3.264.217-6.529.433-9.788.724-3.484.31-6.958.845-10.446,1.026-3.583.186-6.8,1.62-9.967,3.287-2.752,1.449-2.962,2.186-2.062,5.518a9.346,9.346,0,0,0,.325,1.28c.908,2.083,1.524,4.482,2.846,6.143,2.111,2.652,4.753,4.744,7.07,7.2a10.28,10.28,0,0,0,7.528,3.49,212.3,212.3,0,0,0,25.367-.964,49.9,49.9,0,0,1,11.939.4,10.07,10.07,0,0,1,5.143,2.966c2.379,2.338,4.4,5.152,6.6,7.727a3.782,3.782,0,0,0,1.167.653,15.618,15.618,0,0,0-.168-1.563c-.063-.313-.3-.575-.4-.885-.738-2.485-1.643-5.128-.074-7.458a18.668,18.668,0,0,1,4.161-4.031,5.14,5.14,0,0,1,2.879-1.079c7.91-.2,15.823-.4,23.735-.38,16.705.041,33.41.2,50.114.341,10.215.087,20.43.274,30.645.34,8.95.059,17.9.012,26.849.012a8.442,8.442,0,0,0,1.1-.006c3.543-.468,7.085-.952,10.628-1.427,2.7-.362,5.43-.508,8.081-1.121a32.153,32.153,0,0,0,14.167-6.788,6.8,6.8,0,0,0,2.6-5.811c-.36-2.547-1.2-5-4.045-6.11-5.176-2.015-10.531-2.57-15.851-3.432a82.6,82.6,0,0,0-9.313-.746c-4.089-.194-8.182-.257-12.587-.377m-35.486,32.991c2.207.12,4.415.352,6.622.334,3.987-.032,7.973-.226,11.96-.331,4.981-.132,9.963-.187,14.942-.379,3.946-.152,7.893-.368,11.828-.726,3.969-.361,7.941-.8,11.881-1.442a127.279,127.279,0,0,0,14.953-2.947c3.851-1.115,7.662-2.9,10.192-6.83a9.362,9.362,0,0,0,1.291-7.14c-.051-.251-.43-.416-.656-.621-.088.234-.188.463-.26.7a30.13,30.13,0,0,1-1.244,4.069c-1.366,2.926-3.953,4.07-6.505,4.841a82.673,82.673,0,0,1-9.069,1.854c-4.717.866-9.425,1.831-14.165,2.476-4.884.665-9.8,1.009-14.705,1.47-1.681.158-3.371.2-5.05.374-4.329.451-8.647,1.164-12.985,1.375-6.491.315-12.995.353-19.494.385-3.62.018-7.24-.2-10.86-.339-2.365-.091-4.729-.223-7.092-.356q-6.151-.346-12.3-.718-5.445-.336-10.887-.716c-3.316-.228-6.628-.543-9.946-.7-4.089-.191-8.181-.3-12.273-.363-3.715-.059-7.431-.021-11.147,0a2.623,2.623,0,0,0-.868.353,3.7,3.7,0,0,0,.887.337c2.476.259,4.952.55,7.433.715,4.307.287,8.621.432,12.927.749,3.7.272,7.379.743,11.073,1.045,3.625.3,7.256.525,10.887.719,3.147.169,6.3.215,9.447.377,3.944.2,7.887.463,11.829.71,3.682.231,7.363.476,11.358.715M1153.442,98.9c1.213.12,2.424.322,3.638.345q11.71.219,23.42.355a8.065,8.065,0,0,0,1.908-.355c.147-.035.264-.236.4-.36-.14-.115-.271-.31-.42-.331a28.928,28.928,0,0,0-3.166-.358c-5.818-.147-11.636-.234-17.454-.38-3.011-.076-6.02-.256-9.03-.345-4.719-.141-9.438-.358-14.157-.34-8.854.035-17.707.195-26.56.344-3.307.056-6.613.2-9.918.355q-6.936.32-13.87.715c-4,.221-7.99.488-11.986.709-2.625.145-5.253.213-7.877.371-3.474.209-6.948.418-10.415.725-3.224.286-6.44.7-9.658,1.075-.185.022-.35.255-.525.389.149.1.3.3.446.3,1.954.02,3.912.1,5.861-.017,1.281-.077,2.542-.566,3.824-.664q5.831-.45,11.671-.729c5.878-.279,11.758-.5,17.638-.725,3.41-.133,6.822-.231,10.232-.364,2.626-.1,5.251-.253,7.877-.351,3.62-.136,7.24-.355,10.86-.338,6.29.03,12.578.306,18.868.308,6.027,0,12.055-.213,18.4-.332m29.834,30.84h-10.99c-.314,0-.629.019-.942,0-3.42-.234-6.838-.524-10.261-.674a6.578,6.578,0,0,0-2.145.693,8.49,8.49,0,0,0,2.174.673c5.765.172,11.531.269,17.3.387.366.008.733-.01,1.1,0,3.2.116,6.4.333,9.6.33,3.411,0,6.821-.254,10.233-.32,3-.059,6-.005,9-.03.175,0,.349-.253.523-.387-.149-.1-.289-.274-.448-.3a15.764,15.764,0,0,0-2.537-.354c-7.432-.027-14.863-.016-22.609-.016m79.766-6.455a35.813,35.813,0,0,0,3.424-1.788c3.789-2.5,4.2-7.135,1.451-10.555-.153-.19-.434-.246-.656-.364-.048.288-.211.632-.128.856,1.219,3.254.01,5.854-1.981,7.9a46.851,46.851,0,0,1-5.491,4.237,4.419,4.419,0,0,0-.545.6c.237.063.5.237.705.171.978-.317,1.939-.7,3.22-1.057m-237.1,5.738c1.388.629,2.766,1.293,4.173,1.862.34.137.778-.042,1.172-.076a4.587,4.587,0,0,0-.729-1.05c-.676-.539-1.438-.936-2.124-1.46-3.246-2.48-6.924-4.45-8.33-9.136-.074-.245-.475-.363-.724-.54a2.177,2.177,0,0,0-.175.778,16.559,16.559,0,0,0,.836,3.883c1.237,2.684,3.519,4.119,5.9,5.738m-3.925-14.165-.582-1.255c-.225.205-.559.359-.655.624-.431,1.192.579,3.838,1.639,4.39a2.572,2.572,0,0,0,.571.151c.042-.287.19-.622.109-.853-.322-.917-.715-1.8-1.081-3.057m173.82-14.882c1.535,0,3.07.012,4.605-.015.193,0,.384-.214.576-.328-.079-.125-.151-.351-.237-.359-1.682-.14-3.365-.314-5.049-.333-.447-.005-1.183.411.1,1.035m-166.754,3.945-1.413.852c.55-.045,1.1-.091,1.649-.133a1.563,1.563,0,0,0,.313,0c1.606-.473,3.214-.942,4.813-1.445.175-.055.3-.314.448-.478-.169-.061-.357-.208-.505-.169-1.667.443-3.328.915-5.3,1.379m161.573-4.841c-1.513-.06-3.027-.133-4.541-.159-.16,0-.323.278-.484.428.161.09.324.26.484.256a18.527,18.527,0,0,0,4.541-.525m20.883-.538c1.462.12,2.923.248,4.386.345.156.01.321-.164.481-.252-.106-.151-.2-.423-.32-.433-1.72-.146-3.441-.27-5.164-.356-.155-.008-.322.274-.483.421a5.394,5.394,0,0,0,1.1.275m-30.147-2.152-.1.605a16.839,16.839,0,0,0,2.413.3c.329,0,.655-.433.982-.668a8.034,8.034,0,0,0-1.125-.225c-.618-.038-1.239-.01-2.172-.01m38.469,2.331c-.837,0-1.675,0-2.512.016,0,0,0,.326,0,.326a5.858,5.858,0,0,0,2.512-.342m-47.106-2.51a5.268,5.268,0,0,0,1.315.507,3.626,3.626,0,0,0,1.2-.285,6.9,6.9,0,0,0-1.127-.386,2.893,2.893,0,0,0-1.385.164m-147.441,27.074c-.4-.478-.795-.961-1.216-1.413a5.407,5.407,0,0,0-.442.437c.39.378.773.766,1.174,1.127.071.064.216.022.483-.151M1221.9,99.621l1.1-.444a8.965,8.965,0,0,0-1.094-.261,2.823,2.823,0,0,0-.733.1,1.473,1.473,0,0,0,.728.6m3.611-.179,1.124.509.132-.456A2.849,2.849,0,0,0,1225.514,99.442Z" transform="translate(-702.757 -68.839)"></path><path d="M12.406,86.225a20.384,20.384,0,0,1,7.872-4.767,3.555,3.555,0,0,1,1.589-.235c3.875.8,7.914.747,11.594,2.611,1.634.827,3.628.911,5.4,1.5a21.946,21.946,0,0,1,8.074,4.714c2.539,2.361,5.226,4.644,6.919,7.777,1.318,2.441,2.762,4.828,3.9,7.351,1.408,3.121.66,6.315-.626,9.235-1.748,3.97-3.454,8.067-5.923,11.586-3.574,5.1-8.079,9.377-14.333,11.242-2.278.679-4.581.363-6.857.127-2.382-.247-4.731-.982-7.108-1.051a18.09,18.09,0,0,1-10.9-4.307C5.708,127,2.1,120.15.394,112.475a17.806,17.806,0,0,1,1.251-11.147c1.162-2.56,2.055-5.337,3.685-7.566,2-2.732,4.637-4.994,7.077-7.537m35.5,7.5c-1.4-.98-2.734-2.069-4.211-2.912-1.987-1.134-4.143-1.974-6.118-3.127a13.634,13.634,0,0,0-8.052-1.852c-1.657.116-3.315.239-4.974.3-1.955.077-3.827.3-5.287,1.84-.2.206-.75.072-1.139.1.032-.388-.08-1,.119-1.128a12.43,12.43,0,0,1,3.648-1.966,57.25,57.25,0,0,1,6.531-.7,2.415,2.415,0,0,0,.614-.243c-.114-.123-.224-.348-.342-.352-2.152-.074-4.4-.527-6.433-.064a19.47,19.47,0,0,0-6.043,2.88c-3.612,2.354-6.821,5.089-8.326,9.433-1.06,3.06-2.112,6.017-2.111,9.35A55.611,55.611,0,0,0,7.76,118.725c.77,3.094,1.692,6.417,4.22,8.555a45.678,45.678,0,0,0,8.359,5.52A18.389,18.389,0,0,0,34,134.42c4.8-1.295,9.21-3.218,12.818-6.787a39.235,39.235,0,0,0,6.021-8.342c1.26-2.149,2.382-4.38,2.162-6.982-.133-1.57-.381-3.131-.61-4.692a43.077,43.077,0,0,0-.97-5.942,14.26,14.26,0,0,0-5.521-7.95m-38.049,33.1c-2.466-2.932-3.381-6.54-4.3-10.117a33.361,33.361,0,0,1-1.2-6.595,56.48,56.48,0,0,1,.3-8.675,31.076,31.076,0,0,1,1.366-4.825,2.342,2.342,0,0,0-.121-.877,2.528,2.528,0,0,0-.491.6C4.55,98.5,3.645,100.66,2.9,102.869a18.37,18.37,0,0,0-.136,12.3,45.983,45.983,0,0,0,6.384,12.2,18.175,18.175,0,0,0,6.336,5.174,2.883,2.883,0,0,0,.867.148c-.18-.174-.351-.359-.542-.521-1.983-1.679-3.969-3.354-5.955-5.339M56.873,109.5a17.257,17.257,0,0,0-.031-2.286c-.046-.344-.428-.643-.657-.962a3.128,3.128,0,0,0-.223.919,22.56,22.56,0,0,0,.319,2.464c.016.091.387.118.593-.135M37.694,134.869c-.548.155-1.1.3-1.639.475a.4.4,0,0,0-.2.324c.007.1.19.285.245.269.723-.217,1.438-.463,2.155-.7A.739.739,0,0,0,37.694,134.869Z" transform="translate(0 -56.078)"></path><path d="M165.715,413.07a17.372,17.372,0,0,1,12.137-10.5c2.113-.539,4.426-.326,6.65-.392,2.482-.073,4.983-.091,7.231,1.2,2.546,1.459,5.141,2.855,7.564,4.5,4.933,3.353,7.437,8.355,8.673,13.983a17.767,17.767,0,0,1-.934,11.08,75.608,75.608,0,0,1-5.268,10.332,17.913,17.913,0,0,1-13.4,8.68,59.175,59.175,0,0,1-8.555.582A19.293,19.293,0,0,1,169,448.414c-4.268-3.107-5.921-7.492-6.446-12.471-.284-2.69-.578-5.394-.6-8.094a29.588,29.588,0,0,1,3.566-14.284c.066-.124.077-.277.191-.495m9.2,32.867a20.351,20.351,0,0,0,3.194,1.608c4.22,1.286,8.43,1.858,12.418-.817,2.373-1.592,4.9-2.982,7.131-4.749a36.216,36.216,0,0,0,5.07-5.116c2.159-2.563,2.511-5.527,1.954-8.853a68.982,68.982,0,0,0-2.216-10.842c-1.593-4.721-3.809-8.718-9.048-10.322a29.014,29.014,0,0,0-12.156-1.53,17.088,17.088,0,0,0-12.731,7.964c-2.473,3.8-4.029,7.749-3.834,12.333a30.386,30.386,0,0,0,3.671,12.855c1.541,2.96,3.118,5.876,6.548,7.47m-3.867.773c-1.415-1.312-2.823-2.63-4.251-3.927a2.971,2.971,0,0,0-.739-.363c.065.3.032.692.212.893a30.463,30.463,0,0,0,3.475,3.674c2.775,2.217,5.828,3.864,9.566,3.756,2.942-.085,5.955.326,8.815-.176a19.128,19.128,0,0,0,12.516-8.1,6.429,6.429,0,0,0,.472-.96,4.069,4.069,0,0,0-1.153.441c-1.826,1.464-3.548,3.067-5.435,4.446a18.732,18.732,0,0,1-12.211,3.692c-1.21-.057-2.4-.546-3.609-.565-2.82-.044-5.12-1.3-7.657-2.815m34.182-28.923a14.964,14.964,0,0,0-.669-1.572,3.821,3.821,0,0,0-.729-.742,3.826,3.826,0,0,0-.065,1.14c.457,1.811,1.024,3.595,1.446,5.412.385,1.654.631,3.341.949,5.011a2.509,2.509,0,0,0,.209.495c.135-.152.379-.3.386-.458a10.463,10.463,0,0,0-.008-2.515c-.438-2.168-1-4.31-1.52-6.771m-39.9,20.416c.762,1.174,1.507,2.359,2.3,3.513a2.881,2.881,0,0,0,.75.554,5.69,5.69,0,0,0-.24-.941q-1.7-3.842-3.429-7.67c-.134-.3-.315-.572-.474-.857-.15.349-.5.751-.418,1.037A41.7,41.7,0,0,0,165.328,438.2Z" transform="translate(-111.857 -277.748)"></path><path d="M340.1,125.359a24.966,24.966,0,0,1,7.291-1.38c4.278-.142,7.715,1.745,10.775,4.23a28.292,28.292,0,0,1,9.394,14.307,48.4,48.4,0,0,1,.926,6.269,21.3,21.3,0,0,1-1.708,11.1,23.873,23.873,0,0,1-12.544,13.4,15.658,15.658,0,0,1-10.292.984c-5.129-1.063-8.62-4.272-11.778-8.107a32.779,32.779,0,0,1-6.691-11.917c-.9-3.21-.591-6.412-.35-9.669a19.476,19.476,0,0,1,3.465-9.091A24.863,24.863,0,0,1,340.1,125.359m-7.037,39.209a10.537,10.537,0,0,0,1.548,1.817c2.03,1.519,4.114,2.97,6.218,4.386,1.827,1.229,3.886,2.285,6.057,2.072a18.679,18.679,0,0,0,8.652-2.971,19.873,19.873,0,0,0,7.249-8.186c1.951-4.174,2.426-8.767,2.517-13.3a24.973,24.973,0,0,0-1.219-7.968c-1.885-5.894-6.235-9.038-12.3-9.852a3.181,3.181,0,0,0-1.546.381c-.462.2-.862.793-1.286.79-2.277-.017-4.573-.393-6.823-.2a14.014,14.014,0,0,0-5.2,1.56c-.956.5-1.427,1.888-2.189,2.817a4.3,4.3,0,0,1-1.151.722c-.069-.491-.163-.981-.195-1.475-.011-.171.13-.352.206-.527.14-.323.282-.644.424-.965-.419.083-.962.027-1.236.272a16.359,16.359,0,0,0-4.761,6.519c-1.169,3.154-1.955,6.471-1.2,9.633a39.946,39.946,0,0,0,6.233,14.47m7.424-34.955a50.084,50.084,0,0,1,5.33-.895c3.977-.254,7.911-.008,11.588,1.807a2.629,2.629,0,0,0,.986.053c-.163-.291-.253-.711-.5-.853a64.32,64.32,0,0,0-6.171-3.358,12.04,12.04,0,0,0-7.146-.55c-3.941.743-7.227,2.787-10.412,5.051-.3.214-.427.675-.634,1.022a5.157,5.157,0,0,0,1.15-.123C336.565,131.121,338.444,130.437,340.482,129.613Z" transform="translate(-224.37 -85.623)"></path><path d="M711.79,218.676c.12,3.027-1.2,5.278-2.926,7.449-3.749,4.709-8.93,7.058-14.43,8.764-3.9,1.208-7.862.561-11.611-.842a21.152,21.152,0,0,1-8.787-5.641,16.8,16.8,0,0,1-4.335-10.418,24.709,24.709,0,0,1,4.292-15.235,19.108,19.108,0,0,1,11.878-8.165,25.269,25.269,0,0,1,13.555.3,14.9,14.9,0,0,1,8.694,7.223c3.014,5.111,3.926,10.61,3.67,16.565M683.176,197.95c-.542.309-1.071.644-1.628.924a12.5,12.5,0,0,0-5.889,6.5,16.5,16.5,0,0,0-1.073,8.932,29.069,29.069,0,0,0,3.233,10.432c2.1,3.713,5.046,6.475,9.33,7.478,1.148.269,2.354.276,3.524.462a9.934,9.934,0,0,0,6.77-1.1c3-1.78,4.65-4.774,5.956-7.841a34.946,34.946,0,0,0,2.834-18.831c-.616-4.379-2.051-6.041-5.911-7.509a18.892,18.892,0,0,0-8.8-1.375,32.505,32.505,0,0,0-8.346,1.928m18.715,32.017a53.025,53.025,0,0,0,5.8-5.142,10.479,10.479,0,0,0,2.45-5.1c.558-4.178-.3-8.338-1.162-12.443-.054-.258-.438-.446-.668-.667a3.8,3.8,0,0,0-.229.781c-.219,2.951-.266,5.925-.666,8.85a24.8,24.8,0,0,1-3.589,10.241,23.469,23.469,0,0,0-1.94,3.483m-27.376-6.032c-1.628-3.406-1.769-7.1-1.984-10.757a27.4,27.4,0,0,1,.271-3.425,2.111,2.111,0,0,0-.185-.666,2.425,2.425,0,0,0-.413.6,20.833,20.833,0,0,0-.643,9.839,15.041,15.041,0,0,0,7.867,11.2,17.085,17.085,0,0,0,2.026.805,11.1,11.1,0,0,0-1.551-1.7C677.757,228.272,675.552,226.792,674.515,223.935Z" transform="translate(-462.508 -133.853)"></path><path d="M584.022,16.459c1.494-3.092,2.7-6.225,4.555-8.917,2.2-3.206,5.633-4.978,9.4-5.914,2.69-.669,5.274-1.716,8.17-1.622a10.407,10.407,0,0,1,6.729,2.819,34.317,34.317,0,0,1,9.842,15.7,25.856,25.856,0,0,1,.62,11.257,19.419,19.419,0,0,1-3.394,8.509,15.531,15.531,0,0,1-9.764,6.58,32.671,32.671,0,0,1-7.49.922,19.015,19.015,0,0,1-12.32-4.556,20.176,20.176,0,0,1-7.394-11.45A8.652,8.652,0,0,1,582.8,27.7c.1-3.219-.416-6.481.613-9.638.162-.5.406-.965.612-1.6m36.193,14.384a12.528,12.528,0,0,0,1.232-9.125c-.8-3.207-1.42-6.525-3.434-9.233-1.438-1.933-3.261-3.573-4.841-5.406-2.69-3.122-6.425-3.694-10.161-4.214-3.182-.443-5.752,1.159-8.273,2.772-4.495,2.876-7.727,6.65-7.894,12.251a90.654,90.654,0,0,0,.306,10.227,18.521,18.521,0,0,0,6.41,12.633,11.815,11.815,0,0,0,8.409,3.124,20.524,20.524,0,0,0,7.657-1.928c4.856-2.223,7.88-6.412,10.59-11.1m-35.883-9.28c0,2.058-.006,4.117,0,6.175a12.727,12.727,0,0,0,2.175,6.97,3.34,3.34,0,0,0,.728.621,4.114,4.114,0,0,0-.128-.851,27.391,27.391,0,0,1-1.573-14.241c.082-.5-.3-1.073-.474-1.612-.14.456-.29.909-.418,1.369a11.336,11.336,0,0,0-.312,1.57M619.6,36.411c.309-.7.636-1.385.917-2.093a2.071,2.071,0,0,0,.029-.674c-.212.106-.5.158-.624.328-.759,1.017-1.4,2.138-2.237,3.078-1.264,1.411-2.674,2.69-3.993,4.053a3.905,3.905,0,0,0-.509.954c.352-.095.809-.08,1.039-.3C615.983,40.052,617.705,38.3,619.6,36.411Z" transform="translate(-402.485)"></path><path d="M1093.237,1082.1c.928,3.585,1.814,7.027,2.794,10.442,1.624,5.663,3.365,11.293,4.947,16.968.932,3.341,1.7,6.731,2.424,10.124a2.691,2.691,0,0,1-.533,2.015c-.356.426-2.19-.963-2.511-1.937-1.047-3.176-1.978-6.393-3.118-9.535-2.584-7.123-5.356-14.178-7.876-21.323a30.7,30.7,0,0,0-7.04-11c-.564-.593-.808-1.086-.229-1.833a1.382,1.382,0,0,0,.033-1.135c-.641-1.634,0-2.627,1.8-2.685,2.885-.094,4.75,1.636,6.172,3.784a50.735,50.735,0,0,1,3.135,6.114m-.928,1.7c-1.341-2.486-2.55-5.056-4.083-7.417a9.591,9.591,0,0,0-3.026-2.293c-.216-.138-.731.14-1.078.294a.527.527,0,0,0-.089.5c1.037,1.483,1.859,3.246,3.216,4.344a21.523,21.523,0,0,1,4.076,5.137q.272.4.547.8A7.107,7.107,0,0,0,1092.309,1083.8Z" transform="translate(-747.132 -740.523)"></path><path d="M1164.746,1083.722c.516,2.415,1.062,4.669,1.54,6.938.82,3.892,1.589,7.795,2.4,11.689a56.431,56.431,0,0,1,1.244,5.958,14.578,14.578,0,0,1-.594,4.046c-.037.188-.657.458-.687.422a2.89,2.89,0,0,1-.779-1.2c-.275-1.812-.382-3.648-.661-5.459-.467-3.041-.965-6.08-1.547-9.1-.661-3.424-1.412-6.831-2.155-10.239a147.363,147.363,0,0,0-6.61-21.382c-2.375-6.193-5.994-11.529-9.784-16.834-.318-.445-.229-1.181-.329-1.782.667.137,1.589.043,1.959.451a47.706,47.706,0,0,1,5.132,6.213c3.668,5.758,5.927,12.179,7.985,18.636C1163.056,1075.833,1163.8,1079.733,1164.746,1083.722Z" transform="translate(-792.038 -722.969)"></path><path d="M874.748,849.155c-2.677,5.743-7.566,8.11-13.279,9.28-3.516.72-7.028,1.46-10.55,2.149a5.2,5.2,0,0,1-1.849,0c-.948-.165-1.69-.552-.925-1.7a46.573,46.573,0,0,1,2.994-4.471,61.221,61.221,0,0,0,8.766-14.164c1.191-2.59,2.05-5.4,4.348-7.309a3.476,3.476,0,0,1,1.831-.755,2.923,2.923,0,0,0,2.545-1.4,7.7,7.7,0,0,1,2.714-2.315c1.562-.854,2.784-.27,3.54,1.495a24.625,24.625,0,0,1,2.367,10.939,21.551,21.551,0,0,1-2.5,8.253m-6.341.928c2.8-1.674,3.894-3.471,3.228-5.7-.846-2.832-1.822-5.626-2.771-8.426-.408-1.2-1.057-1.344-1.953-.452a6.939,6.939,0,0,0-.821,1.047q-4.238,6.274-8.461,12.557c-1.215,1.81-2.425,3.624-3.583,5.47-.182.29-.073.762-.1,1.15a9.244,9.244,0,0,0,1.07-.312c.483-.2.928-.5,1.413-.69,3.886-1.557,7.777-3.1,11.976-4.646m-5.877,6.5c1.723-.692,3.5-1.28,5.16-2.095,5.634-2.762,7.027-8.152,7.913-13.613.566-3.488-.915-6.811-2.122-10.056-.266-.714-.948-1.243-1.78-.525a27.293,27.293,0,0,0-2.331,2.176,1.167,1.167,0,0,0-.107,1.1c1.806,2.629,2.422,5.7,3.4,8.652,1.312,3.976.373,7.278-3.192,9.042-3.446,1.706-7.1,2.993-10.707,4.368-1.917.731-3.923,1.225-5.862,1.9-.407.142-.7.619-1.041.941a5.173,5.173,0,0,0,1.28.055c3.032-.628,6.056-1.3,9.392-1.95m.464-19.643c.247.063.646.253.717.168.689-.823,1.335-1.685,1.964-2.556a1.868,1.868,0,0,0,.165-.644c-.247,0-.632-.1-.72.017C864.43,834.85,863.8,835.822,862.994,836.936Z" transform="translate(-585.561 -571.923)"></path><path d="M836.343,773.08c-3.47-.206-6.808-.744-10.092-.512-2.549.18-5.3-.459-7.729,1.061-.275.172-1.1-.537-1.668-.837.4-.419.731-1.039,1.22-1.213a8.91,8.91,0,0,1,2.483-.346c2.377-.129,4.757-.21,7.136-.32q6.518-.3,13.036-.621c1.658-.083,3.314-.238,4.973-.3,3.46-.127,6.96.072,10.372-.39,4.1-.555,8.017.454,12.013.746.582.042,1.112.807,1.665,1.237-.435.5-.778,1.224-1.324,1.445a13.1,13.1,0,0,1-3.618.941c-2.316.221-4.65.264-6.978.338-3.872.123-7.745.235-11.618.288a6.6,6.6,0,0,1-1.621-.534,25.353,25.353,0,0,0-3.77-.948,40.28,40.28,0,0,0-4.478-.038m23.355-.928c-.412,0-.827-.022-1.236.011a1.43,1.43,0,0,0-.465.234c.163.125.336.368.489.356q3.586-.271,7.166-.612a2.422,2.422,0,0,0,.7-.311c-.241-.1-.491-.3-.72-.28C863.753,771.726,861.88,771.945,859.7,772.152Z" transform="translate(-564.169 -531.422)"></path><path d="M742.277,835.32c-.989,2.741-1.906,5.4-2.808,8.071q-.666,1.968-1.278,3.955c-.049.159.076.372.121.559.162-.116.4-.2.473-.355.437-.9.845-1.814,1.245-2.731.133-.305.125-.715.332-.935a13.654,13.654,0,0,1,1.412-1.178,6.073,6.073,0,0,1-.046,1.795q-2.811,8.265-5.721,16.5c-.473,1.348-.991,2.683-1.565,3.99-.139.315-.586.5-.892.737-.21-.428-.668-.907-.593-1.278,1.08-5.315,1.988-10.683,3.429-15.9,1.689-6.12,3.823-12.118,5.854-18.139.253-.751,1.3-1.959,1.563-1.859,1.273.479.3,1.554.133,2.258A31.956,31.956,0,0,1,742.277,835.32Z" transform="translate(-506.219 -572.24)"></path><path d="M864.818,348.435c-3.711,0-7.273.122-10.822-.041-2.554-.117-5.09-.628-7.638-.927-.585-.069-1.2.083-1.779,0a11.62,11.62,0,0,1-1.725-.511c.489-.435.959-1.21,1.472-1.239a29.41,29.41,0,0,1,4.352.25c1.978.182,3.952.57,5.929.578,3.874.015,7.75-.124,11.622-.289,3.113-.133,6.218-.519,9.331-.581,8.563-.17,17.131-.144,25.692-.366,4.824-.125,9.637-.672,14.461-.871,5.055-.209,10.119-.218,15.178-.337,3.514-.082,7.029-.161,10.54-.317,3.473-.154,6.942-.4,10.413-.609q4.9-.3,9.794-.618c1.607-.1,3.212-.241,4.82-.289a2.787,2.787,0,0,1,1.534.36c.362.237.517.79.763,1.2-.412.194-.821.548-1.236.556-2.679.051-5.362-.049-8.039.044-3.937.137-7.87.391-11.8.6-1.762.094-3.521.238-5.284.3-3.564.127-7.131.178-10.695.326-3.988.165-7.973.395-11.959.612-3.575.195-7.151.371-10.721.627-3.638.261-7.265.675-10.9.9-3.25.2-6.51.267-9.766.321C880.555,348.246,872.764,348.332,864.818,348.435Z" transform="translate(-582.127 -236.39)"></path><path d="M836.86,432.31c1.742.129,3.41.537,5.07.505,5.937-.114,11.872-.382,17.808-.569a2.27,2.27,0,0,1,1.259.281c.276.182.362.65.533.991a3.624,3.624,0,0,1-.91.25c-2.676.02-5.354-.056-8.028.026-5.114.157-10.224.414-15.338.577a4.019,4.019,0,0,1-1.4-.542C836.164,433.348,836.473,432.867,836.86,432.31Z" transform="translate(-577.292 -298.534)"></path><path d="M1183.334,422.256c-.471.368-.875.646-1.257.952-.9.721-.953,1.416-.059,2.25a16.091,16.091,0,0,1,2.06,2.385c.215.3.109.828.15,1.252-.424-.086-.97-.036-1.247-.285a12.7,12.7,0,0,1-1.653-1.924c-.723-.976-1.3-.711-1.776.177-1.1,2.063-2.135,4.157-3.244,6.214a4.785,4.785,0,0,1-.946.959c-.153-.4-.511-.855-.421-1.189a19.992,19.992,0,0,1,1.276-3.63,14.181,14.181,0,0,1,2.192-3.393c.778-.837.324-1.314-.136-1.845-.639-.736-1.425-1.348-2.03-2.108-.22-.277-.1-.824-.136-1.249a8.372,8.372,0,0,1,1.158.18c.173.05.287.285.443.418.645.55,1.233,1.361,1.969,1.531.4.093.993-1.006,1.611-1.384a3.39,3.39,0,0,1,1.891-.577C1184.064,421.065,1184.085,421.627,1183.334,422.256Z" transform="translate(-811.476 -290.645)"></path><path d="M850.609,409.844c2.368,0,4.582.039,6.794-.012,1.76-.041,3.519-.269,5.276-.251.516.005,1.027.567,1.541.874a4.736,4.736,0,0,1-1.5.6c-6.133.143-12.267.275-18.4.3a18.057,18.057,0,0,1-4.363-.641c-.449-.111-.74-.86-1.1-1.316a9.06,9.06,0,0,1,1.51-.165C843.729,409.42,847.092,409.637,850.609,409.844Z" transform="translate(-579.364 -282.641)"></path><path d="M871.113,525.8c0-2.132.005-2.11-1.981-1.591a8.841,8.841,0,0,1-2.17.321c-.368,0-.738-.336-1.107-.521.283-.331.5-.8.862-.963a19.121,19.121,0,0,1,1.942-.525c2.567-.85,2.174-.719,1.619-3.282a8.534,8.534,0,0,1-.358-1.993c.011-.353.475-.692.735-1.037.256.3.638.556.744.9.369,1.191.641,2.411.951,3.621.168.657.338.848,1.13.487a7.37,7.37,0,0,1,2.778-.337c.239-.006.488.381.732.587-.193.206-.35.5-.587.6-.484.2-1.022.259-1.519.431-2.183.754-2.764,1.858-2.222,4.084a6.989,6.989,0,0,1,.273,1.879c-.014.357-.374.7-.578,1.049-.311-.3-.806-.559-.9-.917A19.5,19.5,0,0,1,871.113,525.8Z" transform="translate(-598.012 -356.523)"></path><path d="M844.423,392.4c1.448-.1,2.741-.211,4.035-.306.307-.023.689-.12.911.019.65.406,1.236.914,1.847,1.382-.732.084-1.463.19-2.2.248-1.518.12-3.037.271-4.557.3a40.748,40.748,0,0,1-4.567-.142c-.37-.034-.694-.58-1.039-.891.451-.2.9-.58,1.353-.581,1.088,0,2.174.2,3.265.258C843.731,392.708,844,392.505,844.423,392.4Z" transform="translate(-579.364 -270.768)"></path><path d="M875.376,337.149c.483-.335.877-.78,1.3-.806a6.815,6.815,0,0,1,1.824.37,20.265,20.265,0,0,1-.678,1.984,2.768,2.768,0,0,1-.743.768c-.462.416-.939.816-1.41,1.222a2.575,2.575,0,0,1-.586-2.937C875.166,337.582,875.227,337.4,875.376,337.149Z" transform="translate(-604.208 -232.296)"></path><path d="M918.557,335.389c-.989-1.162-.914-2.4.192-3.108a1.478,1.478,0,0,1,2.183.545c.659.963.364,2.686-.643,3.075C919.858,336.068,919.193,335.63,918.557,335.389Z" transform="translate(-633.933 -229.299)"></path><path d="M897.546,335.435a1.364,1.364,0,0,1,2.129.928c.074.674-.714,1.5-1.271,2.13-.1.108-1.058-.321-1.391-.7C896.252,336.921,896.7,336.153,897.546,335.435Z" transform="translate(-619.263 -231.51)"></path><path d="M51.191,150.656a50.475,50.475,0,0,1-5.764-3.835c-3.1-2.751-6.58-5.292-7.521-9.752a12.527,12.527,0,0,1,.408-7.2c1.088-2.809,2.571-5.459,5.307-7.033,2.055-1.182,2.4-1.013,4.018.744,1.828,1.989,3.72,3.918,5.562,5.895.779.836,1.494,1.649-.119,2.494-.609.319-.977,1.105-1.439,1.691-.272.345-.438.832-.781,1.051-1.4.889-1.343,2.138.124,3.191,2.77,1.989,4.916,1.444,7.206-.292a3.989,3.989,0,0,1,4.948-.047c2.169,1.925,4.125,4.04,4.564,7.06a4.169,4.169,0,0,1-.3,2.586c-1.865,3.015-4.516,4.81-8.232,4.606-1.915-.1-3.836-.147-5.742-.34a8.43,8.43,0,0,1-2.233-.821m.851-2.552c1.85.51,3.7,1.04,5.552,1.525a8.091,8.091,0,0,0,8.138-3.083,1.292,1.292,0,0,0-.2-1.922c-1.4-1.5-2.924-2.883-4.319-4.387-.826-.891-1.247-1-1.944.194-1.113,1.913-3.454,2.427-5.618,1.908-2.316-.555-3.433-2.5-5.059-3.857-1.76-1.472-1.731-2.844-.69-4.888a5.548,5.548,0,0,1,1.891-1.861c1.2-.806,1.273-1.579.477-2.76-1.266-1.88-3.207-2.771-5.085-3.761a1.545,1.545,0,0,0-1.405.036c-.968.98-2.221,1.967-2.6,3.189-1.277,4.124-1.121,8.212,1.422,11.946A23.212,23.212,0,0,0,52.042,148.1Z" transform="translate(-25.948 -84.317)"></path><path d="M104.295,128.153a16.82,16.82,0,0,0-5.083-5.7,2.338,2.338,0,0,0-.748-.422,6.358,6.358,0,0,0-1.142-.054c.175.321.269.768.539.944a10.4,10.4,0,0,1,3.8,5.365c.6,1.542.293,4.227-.721,5.214a7.781,7.781,0,0,1-1.066.747c-.253-.461-.7-.912-.726-1.386a5.277,5.277,0,0,0-2.247-3.7c-.391-.339-1.139-.231-1.629-.5a8.967,8.967,0,0,1-1.417-1.187c.4-.421.828-1.219,1.193-1.191a19.341,19.341,0,0,1,3.209.77c.384.1.775.163,1.163.244a3.066,3.066,0,0,0-.447-1.039c-1.042-1.015-2.169-1.943-3.212-2.957a3.685,3.685,0,0,1-1.219-1.634,2.912,2.912,0,0,1,.573-2.018c.192-.258,1.087-.134,1.6.018a19.162,19.162,0,0,1,8.543,4.759,9.109,9.109,0,0,1,2.5,7.776,1.064,1.064,0,0,1-.3.64c-.962.87-2.047,1.633-2.19,3.1-.015.153-.334.277-.512.414-.235-.315-.667-.629-.667-.944,0-.935.227-1.869.259-2.807C104.409,131.15,104.372,129.689,104.295,128.153Z" transform="translate(-64.822 -82.539)"></path><path d="M207.484,458.958c-2.7.309-5.253.62-7.8.925-.2.024-.42-.034-.616.009-2.876.624-3.384.311-3.636-2.43-.247-2.691-.366-5.4-.645-8.083-.223-2.147-.69-4.269-.881-6.417-.144-1.616.44-2.05,2.053-2.269,3.449-.468,6.877-1.095,10.332-1.51,3.413-.41,6.843-.707,10.274-.926,2.082-.133,2.745.751,3.016,2.9.392,3.1,1.058,6.167,1.451,9.268a18.093,18.093,0,0,1-.011,4.759,2.55,2.55,0,0,1-1.624,1.556c-1.677.479-3.436.668-5.16.986-2.2.405-4.4.823-6.748,1.236m-.155-8.043c-1.011-.289-2.01-.646-3.038-.845-.671-.13-1.36-.386-1.817.691-1.053,2.48-1.99,5.064-4.072,6.97-.1.1.2.883.259.876,1.6-.2,3.193-.449,4.783-.716,3.363-.565,6.721-1.162,10.087-1.71,1.552-.253,3.129-.368,4.669-.676.27-.054.691-.961.572-1.119-1.609-2.132-3.261-4.234-4.992-6.268-.737-.866-1.456-.746-1.978.389a3.847,3.847,0,0,1-4.471,2.407m7.115-9.59,1.083-1.067a7.189,7.189,0,0,0-1.308-.153,12.6,12.6,0,0,0-1.416.289c-4.123.726-8.248,1.438-12.367,2.182a3.937,3.937,0,0,0-.994.5,8.261,8.261,0,0,0,.894.832c1.594,1.106,3.283,2.092,4.784,3.31a1.655,1.655,0,0,0,2.588-.05c2.148-1.947,4.383-3.8,6.737-5.843m-15.931,12.219c.722-1.4,1.477-2.779,2.158-4.2,1.2-2.5,1.184-2.513-1.161-4.088A10.7,10.7,0,0,0,197.567,444a2.42,2.42,0,0,0-1.633.138c-.194.08-.232.763-.191,1.155.282,2.7.595,5.4.92,8.1.088.727.255,1.445.385,2.167.436-.619.873-1.237,1.464-2.011m17.014-10.518a23.615,23.615,0,0,0-1.832,1.7,1.021,1.021,0,0,0-.091.975c1.266,1.552,2.589,3.058,3.913,4.562a2.161,2.161,0,0,0,.624.345c.057-.231.2-.481.156-.69-.494-2.262-1.071-4.507-1.511-6.779C216.565,441.992,216.129,442.612,215.526,443.027Z" transform="translate(-133.906 -302.678)"></path><path d="M366.44,157.755c5.668,1.923,8.418,6.412,10,11.511A13.245,13.245,0,0,1,373.4,182.7c-1.717,1.847-4.243,2.589-6.8,2.9-2.9.351-5.522-.573-8.141-1.615a2.378,2.378,0,0,0-1.545-.116c-1.786.653-3.523,1.438-5.3,2.126-.142.055-.631-.294-.613-.394a4.069,4.069,0,0,1,.544-1.915c1.853-2.082,2.094-3.811.211-6.288a11.731,11.731,0,0,1-1.99-10.758c1.408-4.585,4.326-7.957,9.184-8.881,2.359-.449,4.882-.03,7.486,0m2.629,24.747c1.061-.546,2.453-.829,3.129-1.68,3.84-4.84,3.849-9.36.875-14.607a22.365,22.365,0,0,0-4.85-5.212,6.62,6.62,0,0,0-5.167-1.964,10.836,10.836,0,0,0-8.064,5.363,9.422,9.422,0,0,0-1.233,7.11c.4,1.891.7,3.818,1.275,5.654.467,1.48,1.956,2.864-.23,4.184-.175.106-.08.659-.111,1a8.335,8.335,0,0,0,.891-.167c1.282-.382,2.541-.872,3.845-1.138a3.281,3.281,0,0,1,2.15.214,9.817,9.817,0,0,0,7.489,1.238m-17.787-9.744a19.281,19.281,0,0,0,.636,1.9,5.64,5.64,0,0,0,.765,1.03,9.939,9.939,0,0,0-.044-1.254,22.3,22.3,0,0,1-.681-4.326c.116-2.517.415-5.063,2.237-7.1a3.407,3.407,0,0,0,.419-1.15,5.71,5.71,0,0,0-1.061.614,3.921,3.921,0,0,0-.666.952c-1.664,2.806-2.831,5.7-1.6,9.333m9.28,10.208.7.464.228-.458A.986.986,0,0,0,360.562,182.966Z" transform="translate(-241.203 -108.816)"></path><path d="M717.925,234.891a11.72,11.72,0,0,1-9.143,1.527,6.246,6.246,0,0,1-4.087-3.481c-1-2.2-2.7-2.53-4.71-2.707a11.165,11.165,0,0,1-3.13-.637c-1.122-.447-1.1-1.139-.092-1.817a15.818,15.818,0,0,0,1.691-1.125,3.586,3.586,0,0,0,.9-3.682,14.335,14.335,0,0,1,.794-8.852c1.478-3.309,4.276-4.64,7.523-5.177a9.763,9.763,0,0,1,9.342,3.179,10.025,10.025,0,0,1,2.41,9.378,7.342,7.342,0,0,0-.228,2.57c.548,3.32-1.254,5.443-3.539,7.359a7.538,7.538,0,0,1-.737.45.253.253,0,0,0,.052.2,5.434,5.434,0,0,0,1.13.623c.329.1.744-.068,1.069.04a15.826,15.826,0,0,1,1.683.766,7.2,7.2,0,0,1-.928,1.38m-18.1-7.733-.464,1.044a4.258,4.258,0,0,0,.979.181c1.607-.078,3.224-.112,4.817-.315a21.264,21.264,0,0,0,9.419-3.378,7.209,7.209,0,0,0,3.128-8.174c-.908-3.615-5.629-6.725-9.456-6.057-3.537.618-6.255,2.264-7.29,5.97a13.3,13.3,0,0,0,.025,7.172,3.244,3.244,0,0,1-1.159,3.556m13.147,6.032c.011-.527-.179-1.2.077-1.549a12.3,12.3,0,0,1,1.888-1.7,6.7,6.7,0,0,0,2.653-3.96,3.194,3.194,0,0,0-.26-1.115,3.05,3.05,0,0,0-1.058.411c-2.732,2.65-6.195,3.646-9.778,4.34-1.477.286-1.586.433-.947,1.73a6.125,6.125,0,0,0,4.721,3.733,13.6,13.6,0,0,0,3.533-.213,4.944,4.944,0,0,0,1.336-.611c-.4-.2-.8-.409-1.215-.6A6.948,6.948,0,0,1,712.976,233.19Z" transform="translate(-480.707 -144.191)"></path><path d="M636.138,79.216c-1.619.938-1.143,2.27-.925,3.571s.4,2.629.512,3.951c.028.335-.273.7-.422,1.047-.321-.208-.8-.344-.936-.637a24.144,24.144,0,0,1-1.375-3.6c-.451-1.68-1.048-2.1-2.752-2.28-2.888-.311-5.54-1.17-6.867-4.147a8.511,8.511,0,0,1-.593-1.141,5.7,5.7,0,0,1-.055-1.3c.424.093.962.053,1.252.3.889.763,1.6,1.742,2.528,2.45,4,3.055,9.211,1.059,10.8-3.549a2.321,2.321,0,0,1,.661-1.1,2.232,2.232,0,0,1,1.34-.4c.169.007.4.629.447.991a4.27,4.27,0,0,1-1.486,4.008C637.588,77.976,636.9,78.556,636.138,79.216Z" transform="translate(-430.086 -49.997)"></path><path d="M631.327,38.651a19.367,19.367,0,0,1,.608-8.743,3.485,3.485,0,0,1,2.654-2.659c1.389-.256,2.363.651,3.057,1.795,2.019,3.327,3.646,6.717,3.347,10.832a6.336,6.336,0,0,1-2.992,4.3,5.209,5.209,0,0,1-4.8-1.678,31.931,31.931,0,0,1-1.879-3.844m6.805-4.795a26.059,26.059,0,0,0-1.587-3.344,7.289,7.289,0,0,0-1.818-1.451,9.612,9.612,0,0,0-1.493,2.219c-.318.966-.135,2.088-.385,3.088a8.341,8.341,0,0,0,.991,6.133c.649,1.209,1.68,2.326,3.275,2.071,1.48-.236,2.38-1.554,2.211-3.453A30.028,30.028,0,0,0,638.132,33.856Z" transform="translate(-435.869 -18.789)"></path><path d="M393.29,192.768c.99,1.44,1.923.4,2.832.065a1.09,1.09,0,0,0-.113-.722,20.246,20.246,0,0,1-2.007-2.4,2.346,2.346,0,0,1,.911-3.364,1.874,1.874,0,0,1,2.456,1.032c.093.557-.007,1.031-.857.709-.315-.12-.8.219-1.214.349a3.682,3.682,0,0,0,.415,1.149c.52.634,1.155,1.172,1.727,1.765a1.689,1.689,0,0,1-.48,2.871,8.879,8.879,0,0,1-2.888,1.167,2.734,2.734,0,0,1-1.9-1.106c-.577-.72-2.269-1.8-3.027-1.506-.115.044-.066.495-.109.755-.12.721-.249,1.441-.374,2.162a11.116,11.116,0,0,1-1.177-1.656,6.662,6.662,0,0,1-.59-2.065c-.116-1,.458-1.385,1.446-1.483a6.243,6.243,0,0,0,2.171-.7c1.239-.637,1.472.462,1.9,1.07A13.913,13.913,0,0,1,393.29,192.768Z" transform="translate(-267.202 -128.593)"></path><path d="M372.632,199.332c.578-.011,1-.022,1.425-.033-.137-.321-.185-.751-.424-.944-1.635-1.321-2.767-2.891-2.192-5.08a3.05,3.05,0,0,1,1.453-1.892c.54-.22,1.488.257,2.1.657.277.181.186.928.262,1.418a6.336,6.336,0,0,0-1.07-.135,3.236,3.236,0,0,0-1.11.2,4.952,4.952,0,0,0,.258,2.26c.5.9,1.485,1.531,1.961,2.436a2.56,2.56,0,0,1-.115,2.051,1.783,1.783,0,0,1-2.582.719,2.417,2.417,0,0,1-.943-.661,5.136,5.136,0,0,1-.469-1.254C371.618,199.16,372.047,199.246,372.632,199.332Z" transform="translate(-256.365 -132.142)"></path><path d="M728.827,235.588a13.929,13.929,0,0,1,2.026-.276c.361.011.712.36,1.068.556-.294.319-.532.819-.89.928q-3.835,1.164-7.719,2.164c-.351.09-.808-.229-1.216-.359.294-.386.513-.986.9-1.12,1.705-.6,3.459-1.064,5.191-1.59C728.36,235.837,728.51,235.691,728.827,235.588Z" transform="translate(-498.723 -162.52)"></path><path d="M724.113,226.254c-1.418.309-2.67.692-3.95.885-.4.06-.87-.395-1.308-.614.361-.3.68-.758,1.089-.862,2.245-.573,4.511-1.066,6.774-1.565a1.534,1.534,0,0,1,.914.016,3.494,3.494,0,0,1,.785.721,4.112,4.112,0,0,1-.826.481C726.49,225.652,725.376,225.944,724.113,226.254Z" transform="translate(-496.485 -154.732)"></path><path d="M728.686,249.575c1.957-.617,3.819-1.235,5.725-1.657a4.418,4.418,0,0,1,2.381.151c.207,1.2-.962,1.027-1.681,1.256-1.769.565-3.544,1.114-5.334,1.605a1.56,1.56,0,0,1-1.209-.165C728.4,250.635,728.583,250.039,728.686,249.575Z" transform="translate(-503.145 -171.171)"></path></g></g><path class="c" d="M512.033,382.712a4.034,4.034,0,0,0-.212-.6,4.27,4.27,0,0,0-1.264-1.639,5.216,5.216,0,0,0-.914-.6,6.623,6.623,0,0,0-1.021-.41,5.9,5.9,0,0,0-.96-.215,4.56,4.56,0,0,0-.572-.049h-.032a4.191,4.191,0,0,0-.577.047,4.092,4.092,0,0,0-1,.28,7.025,7.025,0,0,0-.974.494,7.519,7.519,0,0,0-1.629,1.328,11.641,11.641,0,0,0-.867,1.1c-.094-.125-.189-.248-.289-.369-.153-.187-.319-.364-.487-.537q-.285-.294-.572-.585a5.422,5.422,0,0,0-.507-.465,2.441,2.441,0,0,0-.434-.278,2.887,2.887,0,0,0-.538-.2,3.869,3.869,0,0,0-.545-.092,2.37,2.37,0,0,0-.266-.014c-.088,0-.175,0-.263.011a4.2,4.2,0,0,0-1.046.223,5.367,5.367,0,0,0-1.589.915l-.347.279a4.662,4.662,0,0,0-.624.624,4.548,4.548,0,0,0-.594.881,4.5,4.5,0,0,0-.368,1.025,5.073,5.073,0,0,0-.126,1.105,3.941,3.941,0,0,0,.034.508,4.76,4.76,0,0,0,.107.591,3.5,3.5,0,0,0,.185.511,3.79,3.79,0,0,0,.238.457,9.394,9.394,0,0,0,.636.9c.08.1.167.2.251.3q.072.087.146.172l-.073.1a.438.438,0,0,0,.068.53.5.5,0,0,0,.355.163.675.675,0,0,0,.295-.077l.045-.026c.061.053.123.1.187.154l.346.272.568.445c.379.3.751.6,1.124.907a9.987,9.987,0,0,0,1.309.922c.311.18.63.344.948.511.389.2.779.406,1.163.619l.386.214c.106.058.208.124.311.186.2.118.388.248.577.379l.046.032c-.012.059-.021.118-.03.177a4.374,4.374,0,0,0-.048.446.594.594,0,0,0,.894.513.575.575,0,0,0,.273-.355c.021-.113.05-.225.08-.336a.543.543,0,0,0,.316-.494.581.581,0,0,0-.088-.3c.017-.048.034-.1.052-.144a4.475,4.475,0,0,1,.452-.773l.26-.358c.132-.167.264-.333.4-.492.11-.125.217-.25.332-.37a7.881,7.881,0,0,1,.762-.7c.159-.118.318-.236.479-.352.193-.139.388-.275.579-.417.232-.173.467-.342.695-.521l.622-.489c.1-.077.191-.16.286-.24s.164-.134.242-.2c.171-.154.348-.3.513-.463s.351-.334.514-.513l.322-.354a7.906,7.906,0,0,0,.536-.676,6.464,6.464,0,0,0,.538-.875,4.821,4.821,0,0,0,.4-1.059,4.062,4.062,0,0,0,.089-.591,2.782,2.782,0,0,0,0-.518A4.117,4.117,0,0,0,512.033,382.712Zm-11.05-.386a.438.438,0,0,0-.046-.02l.01-.018Zm4.245,2.188.038-.033-.034.034Zm-2.334,8,.021-.016a.444.444,0,0,0,.223-.039q-.041.076-.079.155Zm7.953-10.021a.381.381,0,0,0-.082-.064.363.363,0,0,0-.137-.047c-.009-.011-.018-.021-.027-.031a.359.359,0,0,0-.145-.088l.141-.237a3.717,3.717,0,0,1,.243.45Zm-1.1-1.384q.066.053.13.109l-.008,0a.448.448,0,0,0-.354.009.467.467,0,0,0-.232-.417.6.6,0,0,0-.28-.08.47.47,0,0,0-.012-.085A4.943,4.943,0,0,1,509.751,381.106Zm-8.376,1.68c.07.092.139.185.207.278a.331.331,0,0,0-.017.047.282.282,0,0,1-.344-.4.438.438,0,0,0-.028-.151C501.255,382.637,501.316,382.71,501.375,382.786Zm-1.18-1.244.171.164a2.515,2.515,0,0,0-.214.151c-.063.051-.122.1-.181.159q-.065.061-.129.124a.383.383,0,0,0-.067-.077l.1-.1a.405.405,0,0,0,0-.568.4.4,0,0,0-.092-.069.4.4,0,0,0-.022-.172C499.914,381.275,500.055,381.408,500.2,381.542Zm-.864-.646a.45.45,0,0,0-.142.049.644.644,0,0,0-.139.109l-.005-.006a.373.373,0,0,0,.067-.224C499.186,380.845,499.259,380.868,499.332,380.9Zm-.794,9.17c0,.009-.006.019-.009.028l-.033-.026Zm-.26-9.337-.13.113a.283.283,0,0,0-.171-.047l-.074.005a.254.254,0,0,0-.008-.027c.05-.01.1-.019.151-.027Q498.162,380.733,498.277,380.728Zm-1.786,7.827-.065-.053c.071-.065.142-.131.211-.2l.006.011a.457.457,0,0,0,.163.163.452.452,0,0,0,.229.062.477.477,0,0,0,.1,0c-.079.1-.156.2-.229.31l-.006.012Zm1.112.828c.023-.017.046-.035.07-.055a1.642,1.642,0,0,0,.139-.132l0,0c0,.013,0,.025.008.038a.69.69,0,0,0,.071.173.421.421,0,0,0,.125.135.43.43,0,0,0,0,.16C497.88,389.593,497.743,389.486,497.6,389.383Zm1.671,1.242c.029-.011.057-.024.089-.038a1.358,1.358,0,0,0,.186-.1,3.119,3.119,0,0,0,.277-.209c-.032.049-.062.1-.089.151a1.173,1.173,0,0,0-.076.188,1.074,1.074,0,0,0-.021.11l-.015.114q-.162-.093-.321-.192Z" transform="translate(115.357 2500.382)"></path></g></svg>