<svg xmlns="http://www.w3.org/2000/svg" width="428.49" height="217.943" viewBox="0 0 428.49 217.943"><defs><style>.a{fill:#222;}.b{fill:#101010;}.b,.c{font-size:14px;font-family:ProximaNova-Regular, Proxima Nova;}.c{fill:#fff;}</style></defs><g transform="translate(-775 -2455.221)"><path class="a" d="M-10643.053,3289.785V3250.8s-.236-20.98,3.176-23.937,8.016-5.907,16.435-5.672,80.055-3.591,80.055-3.591l83.534-5.2h12.629s.012,19.3,14.493,33.5,33.061,18.581,33.061,18.581,4.213.993,3.235,20.408-3.235,51.387-3.235,51.387-5.275,6.208-10.031,5.912-17.5-2.35-26.854,3.432-18.469,15.811-18.469,15.811l-4.829-15.811s-8.56-5.015-17.326-4.693-143.638-4.651-143.638-4.651l-19.06-5.8-3.176-14.678Z" transform="translate(11425 -699)"></path><text class="b" transform="translate(1007 2485)"><tspan x="0" y="0">Hi Mike,</tspan><tspan x="0" y="19">Your booking is confirmed.</tspan><tspan x="0" y="38">please check your account</tspan><tspan x="0" y="57">to download invoice</tspan></text><text class="c" transform="translate(813 2556)"><tspan x="0" y="0">Dear Jane,</tspan><tspan x="0" y="19">Your order 12AC4 has been </tspan><tspan x="0" y="38">shipped. You should receive </tspan><tspan x="0" y="57">in 2-3 days.</tspan></text><path class="a" d="M72.526,185.947c-5.56-.059-11.06-.029-16.56-.069-4.676-.034-9.352-.136-14.028-.233-2.3-.048-4.612-.059-6.9-.252-4.42-.373-8.91-.319-13.2-1.664-2.51-.788-4.966-1.759-7.418-2.722a12.5,12.5,0,0,1-5.014-3.09,14.58,14.58,0,0,1-3.276-6.831c-.931-4.363-.347-8.806-.5-13.212a47.9,47.9,0,0,0-1.765-11.139c-1.2-4.326-2.648-8.6-3.6-12.973A26.01,26.01,0,0,1,.2,126.976c.1-1.966.423-3.923.69-5.879.373-2.728.8-5.448,1.174-8.176.125-.911.182-1.832.241-2.75.094-1.47.153-2.942.243-4.412.232-3.78.322-7.576.752-11.334.444-3.875,1.244-7.708,1.85-11.565.358-2.276.58-4.575.972-6.844.529-3.064.882-6.179,2.215-9.051a10.12,10.12,0,0,1,7.05-5.7c3.487-.884,7.016-1.6,10.526-2.4,2.461-.555,4.915-1.148,7.387-1.645a24.51,24.51,0,0,1,3.837-.475c4.958-.2,9.919-.465,14.879-.447,3.662.014,7.322.426,10.982.672.839.056,1.674.194,2.514.227,2.578.1,5.158.158,7.736.247,1.907.066,3.812.2,5.719.227,6.971.1,13.942.195,20.913.23,2.578.013,5.158-.143,7.736-.223,2.539-.079,5.078-.168,7.618-.235,3.37-.089,6.741-.155,10.111-.241,2.777-.071,5.553-.159,8.33-.235,3.014-.082,6.028-.155,9.042-.239,2.619-.073,5.237-.14,7.855-.24,3.734-.143,7.466-.315,11.2-.47,2.064-.085,4.128-.191,6.193-.232,4.913-.1,9.827-.242,14.74-.22,4.3.019,8.6.239,12.9.345.066,0,.242-.351.2-.474-.649-1.709-1.285-3.425-2.007-5.1-2.414-5.609-4.944-11.169-7.263-16.816A22.114,22.114,0,0,1,185.143,23.3a9.558,9.558,0,0,1,2.367-5.192,2.9,2.9,0,0,0,.67-1.487c.137-2.1,1.261-3.344,3.235-4.326,4.668-2.322,9.722-3.357,14.695-4.64,2.959-.764,6.01-1.176,9.023-1.73,2.65-.487,5.3-.993,7.959-1.412,1.543-.243,3.113-.315,4.668-.494,2.64-.3,5.276-.648,7.917-.939,1.751-.193,3.51-.314,5.263-.483,3.193-.309,6.385-.636,9.579-.945.994-.1,1.991-.183,2.988-.235,1.826-.1,3.654-.156,5.481-.244Q263.756.943,268.525.7c1.155-.061,2.308-.191,3.463-.228,3.132-.1,6.265-.21,9.4-.236Q298.906.084,316.426,0c3.053-.012,6.107.144,9.161.224,2.975.078,5.95.131,8.923.244,3.339.127,6.675.3,10.013.469,3.021.15,6.042.314,9.063.473,2.981.157,5.964.3,8.944.48,3.543.217,7.085.467,10.626.709,2.23.152,4.459.318,6.689.473,3.463.24,6.927.456,10.388.719,2.713.206,5.427.426,8.133.717,3.244.349,6.489.719,9.716,1.2,2.548.377,5.1.824,7.6,1.436a7.727,7.727,0,0,1,4.968,4.168A55.168,55.168,0,0,1,425.6,24.8a54.276,54.276,0,0,1,.967,6.486c.3,2.7.5,5.419.722,8.132.112,1.389.194,2.782.237,4.175.1,3.132.138,6.266.25,9.4.128,3.576.352,7.149.457,10.725.126,4.279.376,8.569.2,12.839-.234,5.576-1.066,11.085-3.562,16.193-1.7,3.487-3.413,6.954-6.448,9.568a8.4,8.4,0,0,1-5.792,2.366c-2.738-.059-5.476-.124-8.211-.241q-4.3-.183-8.588-.476c-1.6-.107-3.191-.367-4.791-.427a1.75,1.75,0,0,0-1.334.687c-1.067,1.8-2.063,3.646-3,5.519-1.62,3.243-3.128,6.543-4.785,9.767-.573,1.115-2.906,1.511-4.1-.353-1.635-2.547-3.2-5.149-4.631-7.814-1.281-2.382-1.172-2.332-4.1-1.949a47.039,47.039,0,0,1-5.1.046c-2.7.055-5.4.125-8.092.238-3.022.127-6.04.379-9.063.453-5.427.133-10.856.135-16.283.267-3.379.082-6.755.284-10.131.467-2.271.124-4.538.326-6.808.464-2.862.175-5.725.327-8.588.477-3.179.166-6.357.378-9.538.463-4.952.132-9.908.105-14.858.273-3.823.129-7.639.456-11.458.69-2.665.163-5.331.294-7.994.485-1.481.106-2.953.394-4.434.438-1.154.034-.959.808-.843,1.379.36,1.775.909,3.512,1.252,5.289a68.742,68.742,0,0,1,1.286,7.883c.269,3.633.3,7.292.259,10.938-.042,3.774-.244,7.548-.465,11.318-.155,2.637-.356,5.279-.718,7.894a53.59,53.59,0,0,1-4.344,15.761,28.117,28.117,0,0,0-2.295,9.028,37.855,37.855,0,0,1-.719,4.213c-.322,1.377-2.78,2.287-4.549,2.107a41.508,41.508,0,0,0-5.734-.022c-.928.035-1.843.363-2.773.44-2.384.2-4.78.271-7.161.5a72.877,72.877,0,0,0-7.435.974c-2.309.47-3.677,2.425-5.2,4.02-1.457,1.526-2.775,3.187-4.128,4.81-1.86,2.231-3.684,4.492-5.548,6.72-1.064,1.272-2.162,2.517-3.273,3.749-1.693,1.878-3.416,3.728-5.115,5.6-1.987,2.19-4.035.972-4.992-.738-.35-.626-.692-1.256-1.038-1.884-.6.472-1.205.928-1.785,1.418a2.586,2.586,0,0,1-4.406-1.4c-1.177-4.72-1.048-9.534-.9-14.326a15.656,15.656,0,0,1,2.131-7.061c.106-.192-.439-1.036-.806-1.141a21.011,21.011,0,0,0-3.849-.735c-1.858-.169-3.731-.176-5.6-.262-3.338-.154-6.676-.3-10.012-.478-2.626-.138-5.25-.323-7.876-.468-3.06-.17-6.122-.306-9.181-.482-2.389-.137-4.775-.317-7.164-.469q-3.878-.247-7.757-.474c-2.941-.168-5.883-.32-8.825-.477q-4.472-.239-8.944-.474c-3.179-.163-6.358-.328-9.538-.472-2.143-.1-4.286-.2-6.431-.234-5.7-.1-11.41-.142-17.114-.252-4.19-.08-8.38-.23-12.629-.408m76.39-1.721q2.99.237,5.98.476,1.317.107,2.632.237c3.153.313,6.3.667,9.46.935,1.82.154,3.653.162,5.479.255,1.195.061,2.39.132,3.581.238q5.146.457,10.289.948c1.518.144,3.044.25,4.549.49a3.826,3.826,0,0,1,3.038,2.888,7.788,7.788,0,0,0,.783,1.336,13.435,13.435,0,0,1,1.759,3.062c.58,2.161.841,4.406,1.247,6.614a4.328,4.328,0,0,0,.266.719,2.989,2.989,0,0,0,.581-.426c.687-.817,1.29-1.712,2.032-2.473q3.55-3.638,7.187-7.19a4.394,4.394,0,0,1,3.546-1.492,2.536,2.536,0,0,0,1.451-.463c2.533-1.641,5.181-2.854,8.308-2.6a4.578,4.578,0,0,0,1.741-.088c3.612-1.183,7.379-1.229,11.1-1.54a25.832,25.832,0,0,1,5.1.01c3.283.381,5.269-.971,6.433-4.007.875-2.284,2.343-4.374,2.985-6.705a118.708,118.708,0,0,0,2.415-11.7c.544-3.214.911-6.465,1.185-9.714.173-2.056.014-4.139.036-6.21.07-6.575.23-13.149.207-19.724-.014-4.208-.3-8.415-.441-12.623-.031-.92-.668-1.042-1.319-1.031-2.778.046-5.561.3-8.33.178-3.437-.15-6.856-.733-10.292-.871a13.374,13.374,0,0,1-9.122-3.805A54.608,54.608,0,0,1,212.65,96.927c-2.616-4.759-5.333-9.493-7.494-14.461-2.039-4.687-3.42-9.661-5.071-14.515-.815-2.394-1.572-4.808-2.392-7.2a6.263,6.263,0,0,0-.711-1.171,6.222,6.222,0,0,0-.929.842c-.679.915-1.955,1.217-2.405.362-.589-1.119-1.445-.99-2.349-.956-.642.024-1.278.171-1.92.223-3.027.246-6.051.528-9.082.7-3.65.212-7.307.317-10.96.491-2.9.139-5.8.317-8.706.47-3.1.163-6.2.312-9.3.478-2.823.151-5.646.3-8.468.476q-5.432.336-10.862.712c-2.072.142-4.142.321-6.213.47-3.383.244-6.767.472-10.15.716-2.072.149-4.142.314-6.213.473-3.067.236-6.135.462-9.2.716-2.633.218-5.262.486-7.9.7-3.065.254-6.132.5-9.2.709q-4.29.288-8.586.476c-3.969.18-7.939.347-11.91.473-3.567.114-7.135.161-10.7.246-6.463.154-12.926.29-19.387.489-2.074.064-4.145.272-6.213.467-3.076.29-6.146.65-9.222.935-2.583.24-3.553,1-4.37,3.141-1.729,4.523-2.126,9.3-2.805,14.023-.381,2.65-.533,5.336-.73,8.01-.269,3.658-.484,7.32-.72,10.98-.161,2.506-.325,5.012-.473,7.519-.167,2.822-.434,5.645-.45,8.468-.024,4.279.064,8.562.234,12.838.114,2.874.458,5.738.687,8.608.245,3.066.5,6.132.706,9.2.2,2.978.209,5.973.514,8.939.34,3.3.794,6.6,1.454,9.846a6.487,6.487,0,0,0,1.912,3.647,16.388,16.388,0,0,0,5.205,2.531,57.112,57.112,0,0,0,11.366,2.667c3.521.344,7.025,1.03,10.549,1.129,10.178.287,20.367-.266,30.547.484,4.223.311,8.477.239,12.718.266,6.265.039,12.53.01,18.794.01,2.611,0,5.223-.025,7.834.005,5.388.062,10.776.116,16.162.249,2.469.061,4.934.289,7.4.462,2.033.142,4.061.34,6.095.465,2.979.183,5.961.323,9.18.481m272.2-102.447a6.134,6.134,0,0,0,.226-1.208q-.094-7.963-.235-15.925c-.022-1.195-.133-2.389-.232-3.581-.308-3.707-.575-7.419-.968-11.118a47.964,47.964,0,0,0-1.025-6.22,66.524,66.524,0,0,0-4.185-13.1c-1.243-2.613-2.415-5.277-3.884-7.761a77.637,77.637,0,0,0-5.194-7.578,12.381,12.381,0,0,0-5.549-4.307,53.6,53.6,0,0,0-9.066-2.163c-2.872-.465-5.809-.527-8.718-.759-1.114-.089-2.231-.142-3.343-.242-3.391-.307-6.779-.639-10.171-.943-1.99-.178-3.981-.349-5.975-.472-2.979-.184-5.961-.323-8.942-.482s-5.961-.322-8.943-.473c-3.257-.165-6.515-.331-9.773-.472-2.34-.1-4.682-.175-7.023-.239-3.29-.09-6.581-.239-9.871-.226q-16.983.064-33.966.232c-2.46.021-4.919.154-7.379.228-2.776.084-5.553.149-8.328.242-1.709.058-3.417.141-5.124.236-4.1.229-8.192.456-12.286.717-1.757.112-3.512.282-5.263.473-2.68.293-5.355.641-8.035.938-1.672.186-3.36.253-5.023.494q-5.244.761-10.469,1.659c-2.794.482-5.6.94-8.347,1.631-3.312.834-6.595,1.815-9.838,2.89-4.5,1.491-8.961,3.077-12.872,5.9-2.031,1.464-2.294,2.4-.88,4.273.438.58.727.6,1.091-.083.884-1.649,2.559-1.811,3.5-.3a11.1,11.1,0,0,1,1.491,4.6c.244,2.077.33,4.185.742,6.227,1.1,5.46,2.159,10.941,3.588,16.319a124.635,124.635,0,0,0,4.671,14.318,98.877,98.877,0,0,0,5.748,11.382,79.763,79.763,0,0,0,10.577,14.715,57.317,57.317,0,0,0,6.931,6.458,47.962,47.962,0,0,0,17.559,8.3A88.364,88.364,0,0,0,262.8,108.7c2.767.207,5.551.25,8.327.243,3.766-.011,7.532-.1,11.3-.236,1.876-.066,3.746-.313,5.62-.456,3.224-.247,6.448-.512,9.675-.7,2.337-.138,4.681-.2,7.022-.243,5.268-.1,10.538-.152,15.806-.251,1.551-.029,3.1-.136,4.649-.233,3.661-.228,7.32-.473,10.981-.709,2.506-.161,5.011-.334,7.518-.471,3.217-.176,6.435-.349,9.655-.471q4.637-.175,9.278-.237c3.125-.04,6.259-.141,9.373.043,1.749.1,3.538.576,4.356,2.541.506,1.215,1.107,2.39,1.669,3.581.219.464.447.923.671,1.384.224-.435.445-.871.674-1.3.035-.067.123-.105.163-.171q2.393-3.874,4.78-7.753c.908-1.481,1.688-3.054,2.714-4.447,1.976-2.683,4.955-2.318,7.738-2.161,3,.169,5.988.826,8.986.862,4.323.053,8.651-.274,12.977-.414a1.9,1.9,0,0,0,2.019-1.7c.118-.578.3-1.142.438-1.716.913-3.843,1.921-7.671,1.931-11.9M42.2,59.936c-1.415.119-2.831.221-4.244.361s-2.813.224-4.188.5c-2.4.478-4.772,1.069-7.151,1.637-3.921.938-7.869,1.791-11.737,2.914-1.075.312-1.92,1.437-2.84,2.225-.111.1-.023.421-.028.64.168-.066.338-.127.5-.2a9.044,9.044,0,0,1,1.913-.811c2.635-.455,5.278-.878,7.932-1.194s5.337-.537,8.011-.718c3.1-.209,6.2-.408,9.3-.47,6.652-.133,13.306-.164,19.958-.262,1.55-.023,3.1-.164,4.649-.226q6.132-.249,12.265-.477c2.222-.084,4.445-.147,6.666-.244,1.116-.049,2.231-.133,3.343-.236,3.312-.306,6.618-.673,9.933-.93,2.11-.164,4.236-.128,6.349-.264,2.99-.193,5.976-.457,8.962-.713a2.2,2.2,0,0,0,.681-.327c-.215-.124-.434-.362-.645-.356-1.63.047-3.258.135-4.887.221-2.9.154-5.8.441-8.7.447-5.664.012-11.328-.121-16.991-.215-3.488-.058-6.978-.117-10.464-.246-2.548-.094-5.091-.306-7.637-.462-3.9-.239-7.792-.546-11.692-.69-3.042-.113-6.091-.023-9.256.1m381.3-24.692c-.158-1.24-.279-2.486-.483-3.719a55.76,55.76,0,0,0-1.145-6.174c-1-3.524-2.119-7.025-3.4-10.458-.827-2.224-2.173-4.177-4.789-4.65-2.878-.52-5.763-1-8.651-1.454a2.85,2.85,0,0,0-1,.232c.271.233.534.479.817.7.2.157.488.232.651.418a80.735,80.735,0,0,1,6.532,7.634,68.057,68.057,0,0,1,5.021,9.415c1.3,2.777,2.33,5.682,3.376,8.567a53.4,53.4,0,0,1,3.086,15.936,29.593,29.593,0,0,0,.475,3.48c.037.221.271.41.414.613.095-.206.278-.415.269-.616-.047-1.037-.155-2.07-.22-3.107q-.248-3.936-.475-7.873c-.166-2.9-.318-5.8-.477-8.941m-198.84,71.582c1.136.791,2.218,1.679,3.42,2.353,2.007,1.124,4.285,1.055,6.5,1.2,1.508.1,3.021.142,4.529.246,3.265.224,6.527.483,9.792.69a3.11,3.11,0,0,0,1.041-.331,3.681,3.681,0,0,0-1.046-.578c-.865-.15-1.775-.076-2.623-.278a56.247,56.247,0,0,1-12.836-4.8,47.149,47.149,0,0,1-11.565-8.449,55.93,55.93,0,0,1-4.275-4.754c-2.027-2.535-4.017-5.109-5.864-7.776-1.471-2.123-2.7-4.412-4.051-6.619a3.636,3.636,0,0,0-.57-.585,2.552,2.552,0,0,0,0,.945c.723,1.718,1.419,3.454,2.263,5.113,1.847,3.63,3.684,7.27,5.695,10.81a61.573,61.573,0,0,0,9.593,12.81M193.67,35.481a7.541,7.541,0,0,0-.625-2.453,50.223,50.223,0,0,0-3.312-4.081,2.118,2.118,0,0,0-.578-.348,2.084,2.084,0,0,0-.116.8,25.362,25.362,0,0,0,.838,2.492q2.56,6.4,5.153,12.781c.055.135.074.333.174.391a4.047,4.047,0,0,0,.716.267c-.029-.189-.046-.382-.09-.567q-.482-2.048-.974-4.095c-.395-1.651-.791-3.3-1.187-5.191m-4.036,167.144c.079,2.535.139,5.07.256,7.6a5.032,5.032,0,0,0,.431,1.3c.26-.292.518-.586.783-.874.161-.174.4-.307.489-.509.25-.567.7-1.207.61-1.736-.544-3.071-1.218-6.12-1.867-9.172-.04-.186-.243-.337-.37-.5-.11.191-.31.38-.316.574-.032,1.026-.015,2.053-.015,3.318m17.807-4.036c.392-.471.806-.925,1.162-1.422.113-.157.066-.428.093-.647-.2.072-.449.089-.579.224-1.107,1.155-2.211,2.315-3.278,3.506-1.779,1.986-3.581,3.954-5.27,6.014-.811.99-1.911,1.934-1.622,3.472.039.205.115.4.174.605a2.356,2.356,0,0,0,.529-.391c1.947-2.553,3.871-5.124,5.823-7.674.925-1.208,1.9-2.381,2.968-3.688M4.208,128.55a13.874,13.874,0,0,0-.02-1.534c-.02-.175-.27-.324-.415-.484-.092.088-.264.176-.265.265-.015,1.9-.02,3.807,0,5.711,0,.144.226.285.347.428.117-.188.329-.374.334-.565C4.224,131.178,4.208,129.982,4.208,128.55Z" transform="translate(775 2455.221)"></path></g></svg>