<svg xmlns="http://www.w3.org/2000/svg" width="95" height="84.315" viewBox="0 0 95 84.315"><defs><style>.a{fill:#fed0cd;stroke:#707070;}.b{fill:#f0da70;}.c{fill:#dcf3f1;}</style></defs><g transform="translate(-932.006 -1122.207)"><path class="a" d="M3711.948-4238.911l-1.942-23.207,1.942-10.028,4.316-4.254h31.228l5.447,4.254v22l1.3,10.137-13.973,2.831-18.628,1.571Z" transform="translate(-2777 5423)"></path><path class="b" d="M3711.433-4244.923l-1.427-19.485,1.427-8.42,3.171-3.572h22.947l4,3.572v18.471l.952,8.512-10.268,2.376-13.688,1.319Z" transform="translate(-2722 5447.542)"></path><path class="c" d="M3711.777-4247.278l-1.771-18.027,1.771-7.79,3.937-3.3H3744.2l4.969,3.3v17.088l1.182,7.875-12.746,2.2-16.992,1.22Z" transform="translate(-2724 5401)"></path><g transform="translate(986.25 1122.207)"><path d="M1073.932,339.546c-.092-1.618-.174-3.175-.278-4.731-.075-1.123-.219-2.244-.264-3.368-.114-2.816-.3-5.635-.243-8.448a11.8,11.8,0,0,1,1.311-5.818,6.151,6.151,0,0,1,4.606-2.929,38.936,38.936,0,0,1,8.29-.47c2.24.083,4.474.317,6.71.477.736.053,1.474.125,2.209.118,2.1-.019,4.191-.128,6.285-.1a24.159,24.159,0,0,1,5.9.6,5.732,5.732,0,0,1,3.521,2.372,8.579,8.579,0,0,1,1.38,4.689c.047,5.188.062,10.377.155,15.565.031,1.768.326,3.532.376,5.3.052,1.817-1.481,2.994-3.323,3.181-1.768.18-3.552.227-5.321.4-.9.086-1.771.329-2.659.479-.833.14-1.667.306-2.508.365-2.207.155-4.417.3-6.628.372-3.761.119-7.526.264-11.287.221a18.938,18.938,0,0,1-5.7-.71,3.023,3.023,0,0,1-2.272-1.827,7.049,7.049,0,0,1-.247-1.765c-.035-1.3-.011-2.6-.011-3.966m29.879-22.311c-1.66-.124-3.32-.26-4.981-.368-1.541-.1-3.082-.195-4.625-.246-3.029-.1-6.059-.2-9.09-.241-1.949-.024-3.9.148-5.849.087a2.658,2.658,0,0,0-2.844,1.929,18.287,18.287,0,0,0-.808,3.594,36.632,36.632,0,0,0-.02,4.728c.081,1.934.26,3.864.4,5.8.09,1.247.206,2.492.268,3.74.072,1.448.1,2.9.143,4.348,0,.144,0,.289,0,.434,0,.792.046,1.587-.014,2.375a1.519,1.519,0,0,0,1.038,1.572,12.279,12.279,0,0,0,2.159.376c2.249.12,4.5.222,6.754.249,1.926.022,3.854-.069,5.781-.111.068,0,.138.006.206,0,1.874-.205,3.747-.422,5.623-.616,1.361-.14,2.723-.272,4.088-.37,1.979-.143,3.963-.232,5.941-.387a16.776,16.776,0,0,0,2.369-.373c.838-.189,1.131-.549,1.079-1.33-.107-1.582-.367-3.161-.384-4.742-.052-4.833-.028-9.667-.013-14.5a11.912,11.912,0,0,0-.417-3.627,3.8,3.8,0,0,0-2.474-2.758,1.111,1.111,0,0,0-1.154.145,2.527,2.527,0,0,1-1.241.4A16.923,16.923,0,0,1,1103.811,317.235Z" transform="translate(-1073.135 -313.742)"></path><path d="M1147.637,388.051a6.572,6.572,0,0,1,2.706,3.911,16.737,16.737,0,0,1,.621,3.271c.158,1.756.24,3.523.245,5.286a8.881,8.881,0,0,1-.4,2.742c-.127.391-.752.7-1.217.88a6.333,6.333,0,0,1-1.882.383c-2.963.154-5.928.25-8.891.389-1.757.083-2.359-1.12-2.456-2.395q-.224-2.956-.373-5.918-.107-2.11-.118-4.224c0-.422.169-.843.205-1.27a2.031,2.031,0,0,0-.1-.8c-.335-.985-.012-1.565,1.009-1.618,2.442-.126,4.888-.174,7.332-.271a1.2,1.2,0,0,0,.639-.238,2.153,2.153,0,0,1,2.679-.125m1.425,14.007c.062-.1.185-.2.176-.294-.065-.71-.188-1.416-.232-2.127-.1-1.677-.153-3.358-.261-5.035a8.648,8.648,0,0,0-1.088-3.635.928.928,0,0,0-.942-.568c-2.5.056-5,.089-7.5.131a1.013,1.013,0,0,0-.247,0c-.406.113-.793.28-.868.751a6.981,6.981,0,0,0-.121,1.371c.057,1.411.16,2.821.238,4.231q.131,2.363.249,4.726c.047.905.211,1.08,1.109,1.06.953-.022,1.906-.076,2.859-.12,1.782-.081,3.564-.157,5.345-.253A6.41,6.41,0,0,0,1149.063,402.058Z" transform="translate(-1126.991 -378.485)"></path><path d="M1274.709,403.908c0,1.074-.051,2.089.012,3.1.088,1.422-.66,1.77-1.627,2.235a2.214,2.214,0,0,1-2.142-.4,12.108,12.108,0,0,1-2.29-1.782,2.137,2.137,0,0,1-.5-1.2c-.083-.587,0-1.2-.026-1.793q-.1-2.149-.247-4.295a1.083,1.083,0,0,1,1.283-1.113,1.532,1.532,0,0,0,.839-.284c.823-.463,1.631-.952,2.44-1.439,1.2-.723,1.988.324,2.011,1.257.042,1.676.079,3.352.129,5.028a6.731,6.731,0,0,0,.119.692m-4.338,2.045a2.561,2.561,0,0,0,1.447.844c.778.209.919.155.905-.646-.03-1.7-.081-3.39-.119-5.085-.01-.433-.006-.866,0-1.3.006-.49-.266-.557-.623-.37-.443.232-.845.544-1.29.773a1.049,1.049,0,0,0-.572,1.122c.056,1.344.084,2.688.134,4.032C1270.258,405.493,1270.33,405.66,1270.371,405.953Z" transform="translate(-1242.66 -386.409)"></path></g><g transform="translate(987.597 1169.749)"><g transform="translate(0 0)"><path d="M.719,25.8C.637,24.185.563,22.628.469,21.073.4,19.949.272,18.829.23,17.7c-.1-2.816-.275-5.635-.219-8.448A12.865,12.865,0,0,1,1.193,3.438,5.535,5.535,0,0,1,5.349.509a31.754,31.754,0,0,1,7.48-.47c2.021.083,4.036.317,6.055.477.664.053,1.329.125,1.994.118,1.891-.019,3.782-.128,5.671-.1a19.753,19.753,0,0,1,5.323.6A5.189,5.189,0,0,1,35.048,3.5a9.268,9.268,0,0,1,1.245,4.689c.042,5.188.056,10.377.14,15.565.029,1.768.294,3.532.34,5.3a3.14,3.14,0,0,1-3,3.181c-1.595.18-3.2.227-4.8.4-.808.086-1.6.329-2.4.479a21.539,21.539,0,0,1-2.263.365c-1.991.155-3.985.3-5.981.372-3.394.119-6.791.264-10.184.221A15.517,15.517,0,0,1,3,33.361a2.807,2.807,0,0,1-2.05-1.827A7.761,7.761,0,0,1,.729,29.77c-.032-1.3-.01-2.6-.01-3.966M27.679,3.492c-1.5-.124-3-.26-4.494-.368-1.39-.1-2.781-.195-4.173-.246-2.733-.1-5.467-.2-8.2-.241-1.759-.024-3.521.148-5.277.087A2.426,2.426,0,0,0,2.966,4.652a19.988,19.988,0,0,0-.729,3.594,40.591,40.591,0,0,0-.018,4.728c.073,1.934.235,3.864.36,5.8.081,1.247.186,2.492.242,3.74.065,1.448.089,2.9.129,4.348,0,.144,0,.289,0,.434,0,.792.041,1.587-.013,2.375a1.528,1.528,0,0,0,.936,1.572,10.1,10.1,0,0,0,1.948.376c2.029.12,4.062.222,6.094.249,1.738.022,3.477-.069,5.216-.111.062,0,.125.006.186,0,1.691-.205,3.381-.422,5.073-.616,1.228-.14,2.457-.272,3.688-.37,1.786-.143,3.576-.232,5.36-.387a13.779,13.779,0,0,0,2.137-.373,1.094,1.094,0,0,0,.973-1.33c-.1-1.582-.331-3.161-.347-4.742-.047-4.833-.025-9.667-.011-14.5a13.141,13.141,0,0,0-.376-3.627,3.691,3.691,0,0,0-2.232-2.758.924.924,0,0,0-1.041.145,2.132,2.132,0,0,1-1.12.4A13.791,13.791,0,0,1,27.679,3.492Z" transform="translate(34.079 0) rotate(90)"></path><path d="M300.238,529.71c.2-.363.367-.716.567-1.052a1.229,1.229,0,0,1,1.134-.642,3.777,3.777,0,0,0,.688-.067,1.2,1.2,0,0,1,1.083.507c.565.592.6.383,1.088.09,1.3-.781,2.57-1.608,3.836-2.443a18.913,18.913,0,0,0,1.584-1.2,1.934,1.934,0,0,0,.411-.576,1.056,1.056,0,0,1,.851-.62.531.531,0,0,0,.349-.209,1.6,1.6,0,0,1,2.173-.544,3.461,3.461,0,0,1,2.088,2.063,3.367,3.367,0,0,1,.158,1.354,2.468,2.468,0,0,1-.365,1.252,2.757,2.757,0,0,1-2.186,1.349,2.621,2.621,0,0,1-1.636-.336,2.945,2.945,0,0,1-1.15-1.169c-.138-.278-.238-.337-.535-.141-1.5.989-3.014,1.946-4.526,2.912a2.7,2.7,0,0,0-.254.125c-.149.121-.41.268-.4.388.021.29,0,.653.425.772.151.042.247.255.388.366a10.829,10.829,0,0,0,1.1.816,23.464,23.464,0,0,0,2.25,1.241c.878.4,1.8.716,2.7,1.049a.406.406,0,0,0,.344-.12,2.485,2.485,0,0,1,2.212-.844,2.747,2.747,0,0,1,2.627,2.19,2.965,2.965,0,0,1-1.215,3.211,2.891,2.891,0,0,1-1.41.551,3.371,3.371,0,0,1-2.24-.49,2.936,2.936,0,0,1-1.193-1.235,8.2,8.2,0,0,1-.5-1.292c-.11-.4-.456-.438-.73-.538a18.283,18.283,0,0,1-4.443-2.375c-.626-.45-.6-.456-1.127.041a2.226,2.226,0,0,1-3.5-.305,4.057,4.057,0,0,1-.9-2.864,8.894,8.894,0,0,1,.249-1.216m2.885,1.144c-.249-.294-.495-.59-.746-.881-.179-.207-.294-.118-.376.092a2.474,2.474,0,0,0,.412,2.545.452.452,0,0,0,.784-.078,1.723,1.723,0,0,0-.074-1.677m9.832,6.35a1.269,1.269,0,0,0,1.4.651.97.97,0,0,0,.645-.913c-.005-.387-.238-.593-.683-.736a1.414,1.414,0,0,0-1.269.342c-.293.186-.355.357-.095.655m.546-12.222a2.26,2.26,0,0,0-.4-.258c-.172-.066-.362-.159-.489.119a1.634,1.634,0,0,0,.149,1.784.764.764,0,0,0,1.081.078C314.378,526.278,314.015,525.34,313.5,524.982Z" transform="translate(-294.892 -514.821)"></path></g></g><g transform="translate(932.006 1145.022)"><path d="M1074.043,346.352c-.1-2.045-.2-4.013-.317-5.979-.086-1.42-.249-2.836-.3-4.257-.13-3.558-.348-7.121-.277-10.677a16.258,16.258,0,0,1,1.494-7.353,7,7,0,0,1,5.252-3.7,40.129,40.129,0,0,1,9.453-.594c2.554.1,5.1.4,7.652.6.839.067,1.68.158,2.519.149,2.389-.025,4.779-.161,7.167-.128a24.962,24.962,0,0,1,6.727.756,6.558,6.558,0,0,1,4.015,3,11.711,11.711,0,0,1,1.573,5.925c.054,6.557.07,13.115.176,19.671.036,2.234.372,4.463.429,6.7a3.968,3.968,0,0,1-3.789,4.02c-2.016.227-4.05.287-6.067.5-1.021.109-2.019.415-3.032.6a27.229,27.229,0,0,1-2.86.461c-2.517.2-5.036.383-7.558.471-4.289.15-8.582.334-12.87.279a19.609,19.609,0,0,1-6.5-.9,3.548,3.548,0,0,1-2.591-2.308,9.81,9.81,0,0,1-.281-2.231c-.04-1.644-.013-3.289-.013-5.012m34.071-28.2c-1.893-.157-3.785-.329-5.68-.465-1.756-.126-3.515-.246-5.274-.311-3.454-.128-6.909-.259-10.365-.3-2.222-.03-4.45.187-6.669.11a3.066,3.066,0,0,0-3.243,2.437,25.272,25.272,0,0,0-.921,4.543,51.244,51.244,0,0,0-.023,5.975c.092,2.444.3,4.883.455,7.324.1,1.575.235,3.149.306,4.726.082,1.831.112,3.663.163,5.5.005.183,0,.365,0,.548,0,1,.052,2.006-.016,3a1.931,1.931,0,0,0,1.183,1.986,12.773,12.773,0,0,0,2.462.475c2.565.152,5.133.281,7.7.314,2.2.028,4.395-.088,6.592-.14.078,0,.158.008.235,0,2.137-.26,4.273-.533,6.411-.778,1.551-.178,3.1-.343,4.661-.468,2.256-.181,4.519-.293,6.774-.489a17.408,17.408,0,0,0,2.7-.471,1.383,1.383,0,0,0,1.23-1.681c-.122-2-.418-3.994-.438-5.993-.06-6.108-.032-12.217-.014-18.326a16.607,16.607,0,0,0-.475-4.583,4.664,4.664,0,0,0-2.821-3.485,1.167,1.167,0,0,0-1.316.183,2.7,2.7,0,0,1-1.415.508A17.445,17.445,0,0,1,1108.114,318.156Z" transform="translate(-1073.135 -313.742)"></path><path d="M846.729,845.121c-1.221-1.652-2.516-3.222-3.595-4.929a28.171,28.171,0,0,1-3.057-6.662,12.042,12.042,0,0,1-.428-4.688,7.517,7.517,0,0,1,1.776-4.089,6.594,6.594,0,0,1,2.272-2,13.569,13.569,0,0,1,2.387-.889,15.285,15.285,0,0,1,2.165-.2,2.032,2.032,0,0,1,1.952,1.018,1.235,1.235,0,0,0,.621.439,7.641,7.641,0,0,1,2.814,1.444,9.106,9.106,0,0,1,2.428,3.133,7.115,7.115,0,0,1,.654,2.7,15.558,15.558,0,0,1-1.422,6.872c-.388.946-.8,1.887-1.251,2.8-1.075,2.158-2.134,4.327-3.3,6.434a1.528,1.528,0,0,1-2.508.414,13.185,13.185,0,0,1-1.5-1.81m1.618-3.128c.153.21.3.422.458.63.134.18.273.357.41.535.113-.19.238-.374.338-.571.665-1.32,1.332-2.64,1.985-3.966a23.3,23.3,0,0,0,1.715-4.42,9.269,9.269,0,0,0,.463-3.718,5.94,5.94,0,0,0-1.605-3.347,5.532,5.532,0,0,0-2.972-1.657,3.316,3.316,0,0,0-2.3.011.806.806,0,0,1-1.156-.238.384.384,0,0,0-.658-.037,14.177,14.177,0,0,0-1.442,1.461,5.049,5.049,0,0,0-.906,4.237,19.076,19.076,0,0,0,1.031,3.235,26.687,26.687,0,0,0,1.754,3.626C846.325,839.217,847.348,840.563,848.347,841.993Z" transform="translate(-826.092 -812.253)"></path><path d="M899.253,874.609a2.963,2.963,0,0,1,1.822-.879,1.447,1.447,0,0,1,1.526.971,1.176,1.176,0,0,0,.264.448,4.693,4.693,0,0,1,1.383,3.446,3.808,3.808,0,0,1-3.368,3.915,2.549,2.549,0,0,1-2.354-1.293,5.962,5.962,0,0,1-.74-3.87,4.228,4.228,0,0,1,1.467-2.738m1.488,5.242c.127-.04.289-.044.374-.127a1.765,1.765,0,0,0,.517-1.623,12.318,12.318,0,0,0-.515-1.72c-.016-.047-.237-.089-.3-.045a1.812,1.812,0,0,0-.6,1.292A2.574,2.574,0,0,0,900.741,879.851Z" transform="translate(-879.22 -859.818)"></path></g></g></svg>