<svg xmlns="http://www.w3.org/2000/svg" width="76" height="76" viewBox="0 0 76 76"><defs><style>.a{fill:#eabbb5;}.b{fill:#fff;}</style></defs><g transform="translate(-365 -1292)"><circle class="a" cx="38" cy="38" r="38" transform="translate(365 1292)"></circle><g transform="translate(382 1238.565)"><g transform="translate(0 74.435)"><path class="b" d="M256.981,632.351H234.8a1.13,1.13,0,0,0-1.13,1.13v.7a1.13,1.13,0,0,0,1.13,1.13h25.92v-2.955Z" transform="translate(-220.977 -602.05)"></path><circle class="b" cx="6.256" cy="6.256" r="6.256" transform="translate(5.214 0)"></circle><path class="b" d="M26.734,313.9,12.4,313.891h-.339v-1.664l-.012-1.392a6.023,6.023,0,0,0-6.023-6.023c-.113,0-.225,0-.336.01l-.008-.01A5.679,5.679,0,0,0,0,310.49v16.038H12.058V319.7l-.16-.013a.139.139,0,0,0-.021,0,2.918,2.918,0,0,1-2.149-.945L4.834,313.4a.418.418,0,0,1,.616-.565l4.894,5.342a2.157,2.157,0,0,0,1.549.708l.575.008H26.734a2.5,2.5,0,1,0,0-4.991Z" transform="translate(0 -292.299)"></path><path class="b" d="M343.456,308.056a1.117,1.117,0,0,0-1.419.695L337.3,322.578H320.353a1.117,1.117,0,1,0,0,2.234h17.733a1.191,1.191,0,0,0,1.083-.791l4.983-14.546A1.117,1.117,0,0,0,343.456,308.056Z" transform="translate(-301.898 -295.311)"></path></g></g></g></svg>