<svg xmlns="http://www.w3.org/2000/svg" width="59" height="59" viewBox="0 0 59 59"><g id="Group_17701" data-name="Group 17701" transform="translate(-879 -2181)"><g id="Rectangle_5484" data-name="Rectangle 5484" transform="translate(879 2181)" stroke="#151515" stroke-width="2"><rect width="59" height="59" rx="7" stroke="none"></rect><rect x="1" y="1" width="57" height="57" rx="6" fill="none"></rect></g><g id="Group_17681" data-name="Group 17681"><path id="path7964" d="M-197.336-80.07c0-4.4-4.41-7.977-9.83-7.977S-217-84.469-217-80.07c0,3.944,3.5,7.246,8.221,7.871.32.069.756.211.866.485a2.018,2.018,0,0,1,.032.889s-.115.694-.14.841c-.043.249-.2.972.851.53a31.736,31.736,0,0,0,7.724-5.707h0a7.1,7.1,0,0,0,2.107-4.908" transform="translate(1115.143 2289.832)" fill="#fff"></path><path id="path7968" d="M-8.845,0h-.69a.192.192,0,0,0-.192.191V4.475a.191.191,0,0,0,.192.191h.69a.191.191,0,0,0,.191-.191V.191A.191.191,0,0,0-8.845,0" transform="translate(914.824 2207.636)"></path><path id="path7972" d="M-38.987,0h-.69a.191.191,0,0,0-.191.191V2.736L-41.831.085l-.015-.019h0l-.011-.012,0,0-.01-.008,0,0-.01-.007-.006,0L-41.9.021l-.006,0-.011,0-.006,0-.011,0-.007,0-.011,0h-.724a.192.192,0,0,0-.192.191V4.475a.191.191,0,0,0,.192.191h.689a.191.191,0,0,0,.192-.191V1.93l1.965,2.654a.19.19,0,0,0,.049.047l0,0,.012.007.005,0,.009,0,.009,0,.006,0,.013,0h0a.191.191,0,0,0,.049.007h.69a.191.191,0,0,0,.191-.191V.191A.191.191,0,0,0-38.987,0" transform="translate(949.713 2207.636)"></path><path id="path7976" d="M-29.569-36.065h-1.874v-3.4a.191.191,0,0,0-.191-.191h-.69a.191.191,0,0,0-.191.191v4.283h0a.19.19,0,0,0,.054.132l0,0,0,0a.19.19,0,0,0,.132.054h2.755a.191.191,0,0,0,.191-.192v-.69a.191.191,0,0,0-.191-.191" transform="translate(933.887 2247.294)"></path><path id="path7980" d="M-29.569-10.766a.191.191,0,0,0,.191-.191v-.69a.191.191,0,0,0-.191-.192h-2.755a.19.19,0,0,0-.133.054l0,0,0,0a.19.19,0,0,0-.053.132h0v4.283h0a.19.19,0,0,0,.054.132l0,0,0,0a.19.19,0,0,0,.132.054h2.755a.191.191,0,0,0,.191-.191v-.69a.191.191,0,0,0-.191-.191h-1.873V-8.97h1.873a.191.191,0,0,0,.191-.191v-.69a.191.191,0,0,0-.191-.192h-1.873v-.724Z" transform="translate(944.103 2219.475)"></path></g></g></svg>