<svg xmlns="http://www.w3.org/2000/svg" width="192.424" height="290.6" viewBox="0 0 192.424 290.6"><defs><style>.a{fill:#00ff0a;}.b{fill:#fff;}.c{fill:#00fd0a;}.d{fill:#fdea00;}.e{fill:#fd3a00;}</style></defs><g transform="translate(-997.5 -199.552)"><path class="a" d="M12,0c6.627,0,12,5.82,12,13S18.627,26,12,26,0,20.18,0,13,5.373,0,12,0Z" transform="translate(1055 350)"></path><path class="b" d="M-17716.066,404.281c-1.117.232-5.209.418-5.209.418l-.812-1.033.4-2.126,2.48-2.088s3.172-1.23,3.42-1.207,4.336-.346,4.336-.346h3.533l2.662.781,1.846,1.133.715,1.727v1.9s-.629.721-.715.845a14.982,14.982,0,0,1-2.127.418h-1.607v-1.033l.32-.96v-.472h-6.982l-2.508.472v.73Z" transform="matrix(-0.799, 0.602, -0.602, -0.799, -12837.484, 11343.326)"></path><circle class="c" cx="3" cy="3" r="3" transform="translate(1069 207)"></circle><circle class="d" cx="3" cy="3" r="3" transform="translate(1057 207)"></circle><circle class="e" cx="3" cy="3" r="3" transform="translate(1046 207)"></circle><g transform="translate(997.5 199.552)"><path d="M39.455,259.226c.052-2.4.158-4.723.139-7.045a32.478,32.478,0,0,0-.335-5.255,50.712,50.712,0,0,0-1.55-6.069,92.335,92.335,0,0,0-4.126-10.868q-1.61-3.59-3.188-7.2a11.741,11.741,0,0,1-.873-2.211c-.191-.9-.774-1.1-1.518-1.206a4.428,4.428,0,0,1-3.029-1.835,6.216,6.216,0,0,1-.805-2.768c-.163-1.4-.123-2.819-.187-4.229-.1-2.119-.24-4.236-.3-6.355-.128-4.279-.24-8.559-.3-12.84a1.2,1.2,0,0,0-1.019-1.368,33.333,33.333,0,0,1-7.588-2.976,62,62,0,0,1-5.289-3.639A22.707,22.707,0,0,1,6.8,181a23.33,23.33,0,0,1-5.126-8.417,27.423,27.423,0,0,1-1.536-5.756,41.7,41.7,0,0,1-.05-5.852,3.269,3.269,0,0,1,.157-.949,12.154,12.154,0,0,1,.627-1.692,33.25,33.25,0,0,1,1.887-3.589,11.924,11.924,0,0,1,4.214-3.917,16.282,16.282,0,0,1,5.242-2.033,23.989,23.989,0,0,1,4.16-.041c2.319.029,4.319,1.079,6.343,2.035.459.217.635.143.65-.375.037-1.229.08-2.458.16-3.685a1.035,1.035,0,0,0-.707-1.11,25.43,25.43,0,0,1-6.019-4.139c-1.316-1.181-2.694-2.309-3.886-3.606C11,135.788,9.187,133.6,7.375,131.424c-1.489-1.791-2.914-3.635-4.373-5.451a1.126,1.126,0,0,0-1.12-.525.666.666,0,0,1-.57-.258,8.007,8.007,0,0,1-.887-2.432c-.292-4.41,1.72-7.828,4.864-10.7a25.5,25.5,0,0,1,2.369-2.025c.537-.381,1.267-.48,1.835-.829a19.234,19.234,0,0,1,5.725-2.412,7.565,7.565,0,0,1,5.7.864c.367.211.427.216.416-.2-.055-2.036-.089-4.072-.182-6.106-.01-.21-.336-.44-.559-.6-1.24-.9-2.517-1.742-3.731-2.671-.594-.455-1.061-1.074-1.615-1.585A29.888,29.888,0,0,1,8.065,86.418,45.081,45.081,0,0,1,5.753,80.2a9.617,9.617,0,0,1,.079-4.957,4,4,0,0,0,.024-1.163c-.164-3.811,1.8-6.3,5.007-7.976a14.441,14.441,0,0,1,5.689-1.713c1.357-.093,2.726-.04,4.088-.007.55.014.686-.173.7-.71q.1-3.14.3-6.277c.127-1.994.3-3.986.465-5.978.145-1.733.234-3.476.495-5.192a22.112,22.112,0,0,1,.908-3.054,1.606,1.606,0,0,0,.148-.559c-.142-1.51.83-2.251,1.944-2.936a10.006,10.006,0,0,1,4.733-1.407c2.047-.127,4.089-.324,6.135-.453.839-.053,1.685-.028,2.526,0,.473.015.678-.164.608-.629-.257-1.716-.535-3.428-.773-5.146a20.575,20.575,0,0,1-.159-2.122c-.065-1.931-.122-3.863-.158-5.795-.063-3.416-.1-6.832-.163-10.248-.028-1.463-.147-2.926-.141-4.389a10.263,10.263,0,0,1,1.553-5.758,4.093,4.093,0,0,1,3.01-1.679c1.744-.256,3.512-.348,5.271-.492,1.44-.118,2.885-.184,4.323-.322,1.87-.18,3.733-.422,5.6-.613.834-.085,1.674-.126,2.513-.158C62.133.4,63.778.355,65.423.3c1.515-.05,3.03-.108,4.545-.155C71.821.089,73.675,0,75.528,0c2.062,0,4.124.073,6.185.15,2.093.079,4.185.2,6.277.307,2.04.1,4.08.269,6.121.3Q102.555.887,111,.916c2.062.009,4.124-.087,6.185-.149,1.229-.037,2.457-.106,3.685-.153,2.821-.107,5.642-.229,8.465-.308,2.79-.078,5.582-.138,8.373-.151,1.645-.007,3.291.075,4.935.15q2.671.123,5.339.311c2.02.139,4.038.306,6.056.466,1.259.1,2.517.225,3.777.308,2.539.168,5.079.317,7.618.472,1.728.106,3.454.247,5.183.3,2.608.086,5.217.1,7.826.17.761.019,1.522.165,2.279.137,1.6-.059,3.194-.228,4.794-.285a8.505,8.505,0,0,1,2.423.188,1.4,1.4,0,0,1,.852,1.035c-.083,1.1.589,1.918.834,2.883.353,1.388.846,2.753,1.064,4.161.36,2.325.57,4.674.8,7.017.147,1.489.223,2.985.319,4.479.111,1.727.221,3.455.311,5.183.069,1.332.129,2.665.156,4,.065,3.259.141,6.519.149,9.779.006,2.27-.089,4.54-.146,6.81-.046,1.828-.107,3.655-.154,5.482-.056,2.166-.1,4.332-.158,6.5q-.073,2.858-.156,5.717c-.048,1.645-.088,3.291-.16,4.935-.087,1.989-.209,3.976-.307,5.965-.062,1.254-.11,2.509-.157,3.763-.057,1.541-.154,3.082-.146,4.623.011,2.5.089,5.009.147,7.514.044,1.906.117,3.811.152,5.717.063,3.416.136,6.832.149,10.248.008,1.983-.073,3.968-.151,5.951-.077,1.937-.2,3.873-.308,5.808-.1,1.728-.194,3.456-.315,5.183-.141,2.02-.318,4.037-.462,6.056-.073,1.028-.127,2.058-.144,3.087a1.178,1.178,0,0,0,.3.646,3.208,3.208,0,0,1,.3,3.286,2.428,2.428,0,0,1-.5.648c-.434.374-.938.669-1.348,1.065a4.212,4.212,0,0,1-2.7.845c-1.855.221-3.722.343-5.585.484-1.6.121-3.194.285-4.792.3q-10.436.122-20.873.159c-2.348.009-4.7-.076-7.045-.152-2.588-.083-5.175-.2-7.761-.31-2.067-.092-4.132-.21-6.2-.309-2.274-.109-4.55-.195-6.823-.319-1.365-.075-2.726-.207-4.09-.3a1.432,1.432,0,0,0-.411.1c.106.122.188.293.322.358a28.646,28.646,0,0,1,5.608,3.818,1.487,1.487,0,0,0,.641.327,9.718,9.718,0,0,1,4.39,2.58c2.467,2.071,4.869,4.234,7.147,6.511a39.814,39.814,0,0,1,6.734,8.839q2.218,4,4.386,8.028a16.519,16.519,0,0,1,1.729,5.46,19.36,19.36,0,0,0,.652,2.382,1.5,1.5,0,0,1,.107.344c.058,3.051.182,6.1.124,9.153a6.787,6.787,0,0,1-1.008,3.484,13.947,13.947,0,0,0-.841,2.924c-.765,2.311-1.442,4.666-2.414,6.889-1.013,2.319-2.343,4.5-3.5,6.753-.274.531-.4,1.138-.64,1.687a57.274,57.274,0,0,1-4.992,8.4c-1.7,2.554-3.4,5.115-5.173,7.62-1.421,2.008-2.952,3.937-4.436,5.9-2.006,2.656-4.3,5.121-5.7,8.187-1.53,3.349-3.039,6.71-4.45,10.11-1.6,3.844-3.1,7.726-4.586,11.616-.618,1.622-1.009,3.33-1.613,4.958-1.206,3.249-2.424,6.5-3.757,9.693a81.424,81.424,0,0,1-3.452,7.394c-1.09,2.017-2.476,3.875-3.733,5.8a1.738,1.738,0,0,1-.394.531c-.3.2-.711.5-.958.42a1.383,1.383,0,0,1-.639-.882.723.723,0,0,0-.786-.636c-2.817-.043-5.634-.141-8.451-.14-2.869,0-5.738.085-8.607.148-1.619.035-3.239.166-4.857.137-2.041-.037-4.09-.105-6.118-.326a9.587,9.587,0,0,1-4.081-.88c-.1-.058-.251-.024-.378-.027-2.192-.053-4.385-.083-6.576-.163-2.041-.075-4.081-.191-6.121-.31q-2.2-.128-4.4-.313c-2.259-.193-4.523-.351-6.77-.642-1.552-.2-3.084-.574-4.612-.926-1.236-.285-1.9-.937-1.842-1.784a1.269,1.269,0,0,1,.454-.843,1.344,1.344,0,0,0,.635-1.192c.067-2.64.232-5.278.281-7.918.03-1.591-.086-3.186-.142-4.779-.047-1.307-.113-2.613-.153-3.92-.061-1.962-.106-3.924-.158-5.964M117.9,50.852c.052,4.744.1,9.488.159,14.232.037,2.791.115,5.581.15,8.372.063,4.952.128,9.9.149,14.856.009,2.035-.116,4.071-.142,6.107-.065,5.082-.141,10.165-.149,15.247-.006,3.572.085,7.144.148,10.716.033,1.88.107,3.759.151,5.638.058,2.478.106,4.957.157,7.435,0,.208,0,.417,0,.625a14.314,14.314,0,0,1-.016,1.821c-.084.648-.311,1.276-.443,1.919a2.087,2.087,0,0,0,.052.6,4.093,4.093,0,0,1,.434-.239,4.177,4.177,0,0,1,1.345-.5c1.279-.024,2.56.077,3.841.13,2.483.1,4.965.215,7.448.31,1.671.064,3.342.107,5.013.158,1.723.053,3.446.119,5.169.153,3.155.063,6.311.1,9.466.16,2.661.047,5.321.151,7.982.144q6.452-.017,12.9-.155c2.432-.049,4.862-.189,7.292-.306,1.833-.088,3.663-.232,5.5-.3,1.5-.056,2.543-.611,2.861-2.2a26.526,26.526,0,0,0,.657-2.839c.069-.8-.248-1.628-.259-2.446-.016-1.227.1-2.456.136-3.685.062-2.061.132-4.123.148-6.185.008-1.046-.145-2.092-.136-3.138.024-2.973.081-5.947.15-8.919.09-3.889.188-7.779.316-11.667.064-1.963.2-3.924.306-5.886.1-1.936.2-3.872.313-5.808.1-1.754.222-3.507.307-5.261.074-1.54.155-3.082.15-4.622-.008-2.166-.111-4.331-.141-6.5q-.1-6.959-.159-13.919c-.057-5.629-.1-11.258-.163-16.888-.018-1.515-.091-3.03-.154-4.544-.033-.786-.079-1.574-.157-2.357-.2-1.972-.428-3.941-.614-5.914-.091-.964-.089-1.937-.169-2.9s-.31-1.139-1.038-1.069c-1.36.131-2.725.292-4.088.3-2.035.016-4.071-.093-6.107-.137-2.765-.059-5.53-.082-8.294-.166-2.145-.065-4.29-.181-6.433-.31-2.2-.132-4.4-.333-6.6-.455q-2.542-.141-5.091-.159-16.764-.1-33.527-.167c-4.093-.024-8.186-.1-12.278-.153-3.338-.046-6.675-.15-10.013-.144-4.848.009-9.7.089-14.544.146-3.859.046-7.717.107-11.575.154-4.64.057-9.279.122-13.919.152-3.906.025-7.812.013-11.718,0-.62,0-.908.217-.872.852.063,1.1.127,2.2.155,3.294.065,2.5.1,5.009.163,7.513.039,1.567.113,3.134.15,4.7.024,1.011.291,1.291,1.285,1.307,2.791.046,5.582.094,8.372.158,1.411.032,2.821.112,4.232.15,2.27.062,4.54.12,6.81.156,8.446.136,16.9-.289,25.339.3,1.77.124,3.549.126,5.325.164,2.869.062,5.738.1,8.607.163,1.359.03,2.719.076,4.075.161.975.061,1.949.172,2.917.311,1.64.237,3.27.552,4.913.761,1.187.151,2.922.964,3.132,2.383.218,1.475.483,2.947.607,4.43.1,1.189.02,2.394.02,3.748m23.6,161.887c1.7-2.843,3.475-5.642,5.064-8.544a46.313,46.313,0,0,0,2.917-6.365c.834-2.294,1.392-4.691,2.008-7.059a28.07,28.07,0,0,0,.77-3.895,23.04,23.04,0,0,0,.148-4.254,39.441,39.441,0,0,0-.767-4.988,18.241,18.241,0,0,0-1.142-4.131,70.757,70.757,0,0,0-6.817-11.554c-1.039-1.422-2.081-2.843-3.152-4.24a42.842,42.842,0,0,0-3.063-3.8c-.739-.765-1.239-1.98-2.631-1.925-.176.007-.372-.227-.54-.37-.771-.658-1.515-1.351-2.308-1.981-1.9-1.508-3.776-3.038-5.732-4.465a50.527,50.527,0,0,0-5.1-3.351,28.407,28.407,0,0,0-3.9-1.51c-.969-.365-1.94-.724-2.906-1.095q-3.91-1.5-7.816-3.011c-2.379-.92-4.752-1.859-7.136-2.765-1.306-.5-2.622-.97-3.952-1.4a2.378,2.378,0,0,0-1.392-.113,5.486,5.486,0,0,0-3.47,3.146,7.241,7.241,0,0,0,.935,7.166,25.353,25.353,0,0,0,3.018,3.345c1.333,1.293,2.735,2.52,4.164,3.707,2.082,1.729,4.228,3.381,6.321,5.1,1.951,1.6,3.856,3.253,5.807,4.853a39.46,39.46,0,0,1,6.432,5.937,40.521,40.521,0,0,1,4.225,6.383c.858,1.669,1.605,3.4,2.382,5.106a10.218,10.218,0,0,1,1.074,4.636,2.057,2.057,0,0,1-1.665,2,38.525,38.525,0,0,0-4.922,1.688,38.569,38.569,0,0,0-3.7,2.195,36.914,36.914,0,0,0-8.828,7.147c-1.654,1.835-3.39,3.6-5.073,5.4-1.8,1.932-3.635,3.832-5.345,5.839a27.975,27.975,0,0,0-4.5,7.112,29.241,29.241,0,0,0-2.544,11.766,3.742,3.742,0,0,1-.314,1.271.468.468,0,0,1-.905-.008,6.608,6.608,0,0,1-.318-1.351,1.217,1.217,0,0,0-.722-1.1c-.29-.138-.675-.529-.659-.783.079-1.268.273-2.53.439-3.792a1.854,1.854,0,0,1,.184-.446c-.249-.089-.509-.276-.747-.252-1.189.12-2.368.37-3.559.436-2.033.112-4.071.11-6.107.175-2.9.094-5.8.19-8.7.316-1.651.071-3.3.222-4.949.3-2.508.122-5.017.231-7.527.312-2.374.076-4.748.138-7.123.155-3.542.026-7.084.007-10.626.007-.208,0-.417.007-.625,0-1.046-.049-2.093-.11-3.139-.143a.44.44,0,0,0-.351.227c-.028.1.116.25.195.37a22.184,22.184,0,0,1,1.637,2.526c1.794,3.786,3.5,7.614,5.274,11.409a27.175,27.175,0,0,1,2.387,8.383c.231,1.958.352,3.93.475,5.9q.141,2.269.153,4.544c.006,1.02-.1,2.04-.143,3.06-.061,1.619-.1,3.238-.16,4.857-.044,1.2-.105,2.4-.154,3.607-.106,2.613-.192,5.227-.32,7.839-.064,1.313-.245,2.621-.3,3.934-.087,2.243-.128,4.488-.143,6.732a.925.925,0,0,0,.488.644,2.956,2.956,0,0,0,1.018.176c1.966.163,3.931.345,5.9.465,2.247.137,4.5.218,6.746.32,2.353.106,4.705.219,7.059.31,1.8.069,3.6.117,5.4.157,2.687.061,5.374.107,8.061.158,2.817.053,5.634.1,8.451.16,1.255.029,2.509.1,3.764.152,2.587.1,5.174.234,7.762.3,1.744.047,3.49-.016,5.234.021.7.015.9-.389,1.034-.94a46.919,46.919,0,0,1,1.283-5.252c1.3-3.572,2.759-7.085,4.193-10.606.844-2.072,1.763-4.114,2.649-6.169,1.285-2.983,2.559-5.972,3.862-8.948.5-1.147,1.063-2.269,1.609-3.4,1.06-2.192,2.1-4.391,3.2-6.565a18.981,18.981,0,0,1,2.822-4.147,35.441,35.441,0,0,0,2.2-3.369c2.333-3.311,4.678-6.615,7.071-9.884,2.172-2.967,4.425-5.874,6.616-8.827,1.191-1.606,2.326-3.254,3.564-4.961M187.278,12.411c-.052-.812-.118-1.623-.153-2.435-.063-1.436-.1-2.873-.162-4.31a.9.9,0,0,0-1.037-.813,3.757,3.757,0,0,1-.8.129c-3.78-.043-7.561-.148-11.341-.14-8.363.019-16.726.132-25.09.129-3.733,0-7.466-.175-11.2-.3-1.937-.066-3.871-.224-5.808-.3q-4.621-.184-9.245-.315c-3.967-.116-7.934-.207-11.9-.318-1.281-.036-2.561-.114-3.841-.151-2.139-.062-4.28-.155-6.419-.148-3.546.012-7.092.086-10.638.148-2.114.037-4.228.149-6.341.142-3.129-.009-6.259-.085-9.388-.149-1.515-.031-3.03-.095-4.544-.155-1.072-.042-2.145-.151-3.216-.143-1.749.012-3.5.073-5.247.15-3.191.141-6.38.321-9.571.459-1.852.08-3.708.084-5.559.171a27.085,27.085,0,0,0-3.07.329.9.9,0,0,0-.57.629c-.106,1.224-.164,2.454-.175,3.683-.023,2.708-.007,5.416-.007,8.124,0,.452-.179,1.1.046,1.3.265.245.88.139,1.343.135q10.006-.069,20.012-.154c4.692-.042,9.383-.146,14.075-.143,5.5,0,11,.085,16.5.15,1.645.02,3.29.109,4.935.149q3.756.091,7.513.156c3.78.061,7.56.132,11.341.154,11.123.065,22.247.139,33.37.144,3.759,0,7.517-.193,11.276-.3,2.035-.055,4.071-.148,6.107-.145,2.348,0,4.7.093,7.044.145,2.4.053,4.8.1,7.2.159,1.359.036,2.717.1,4.076.153.078,0,.178-.031.231.005.5.347.589.051.568-.37-.1-1.936-.206-3.872-.31-5.964m-92.9,29.768c-.916-.052-1.832-.1-2.747-.158-.708-.045-1.415-.111-2.123-.153-2.695-.16-5.39-.44-8.086-.449-14.138-.045-28.276-.024-42.414-.014-.942,0-1.884.1-2.825.149-1.962.105-3.938.1-5.881.348a26.638,26.638,0,0,0-4.534,1.106A1.679,1.679,0,0,0,24.6,44.755a1.818,1.818,0,0,1-.1.424,8.334,8.334,0,0,0-.341,1.57c-.024.783.15,1.573.123,2.356-.062,1.807-.183,3.612-.306,5.416-.037.549.247.755.683.614a7.759,7.759,0,0,1,3.422-.334,40.529,40.529,0,0,0,4.93.181c1.775,0,3.55-.092,5.325-.145,1.723-.051,3.446-.118,5.169-.153,3.155-.063,6.31-.136,9.465-.149,1.827-.008,3.654.091,5.481.146q5.169.154,10.337.313,4.739.149,9.478.312c1.463.049,2.925.1,4.388.157,2.326.1,4.652.219,6.979.307q2.818.107,5.637.157,5.318.1,10.637.156c2.083.022,4.166,0,6.249,0a5.426,5.426,0,0,0,1.323-.019,2.52,2.52,0,0,1,2.4.329c.3.238.483.259.457-.229-.067-1.279-.1-2.561-.162-3.841-.1-2.2-.162-4.4-.335-6.586a7.824,7.824,0,0,0-.632-2.386,1.631,1.631,0,0,0-1.81-1.023,13.447,13.447,0,0,1-1.731.151q-5.2-.053-10.4-.15c-2.244-.04-4.487-.1-6.887-.154m-5.7,168.059c.521-.9.995-1.839,1.574-2.7.757-1.131,1.592-2.209,2.408-3.3a3.214,3.214,0,0,1,.506-.446,2.482,2.482,0,0,0-.7-.181c-1.937.087-3.872.206-5.808.3-1.332.065-2.665.11-4,.158-1.567.056-3.134.105-4.7.157l-4.7.156-4.778.157c-1.541.051-3.082.1-4.622.157-2.717.1-5.434.285-8.151.294-4.353.014-8.706-.135-13.059-.122a47.224,47.224,0,0,1-9.207-.794,17.892,17.892,0,0,1-5.838-2.118,9.445,9.445,0,0,1-1.543-1.368,7.81,7.81,0,0,1-.6-.725,7.917,7.917,0,0,0-.06.937c.094,1.884.222,3.767.3,5.652.077,1.826.1,3.654.165,5.481.031.891.057,1.785.169,2.667a4.7,4.7,0,0,0,.478,1.513c.1.2.478.3.749.378a5.657,5.657,0,0,0,.9.111c-.135.218-.279.431-.4.655a.619.619,0,0,0-.114.371c.019.082.19.178.3.183a3.507,3.507,0,0,0,1.345-.014c1.594-.621,3.276-.408,4.909-.568,2.021-.2,4.068-.135,6.1-.192q5.4-.151,10.807-.313,2.272-.068,4.544-.156c2.587-.1,5.173-.213,7.76-.309,1.723-.064,3.446-.145,5.169-.151,5.39-.02,10.78-.008,16.17-.006a2.414,2.414,0,0,1,.608.042c.944.249,1.111.131,1.455-.819.6-1.651,1.243-3.286,1.868-5.085m-70.943-50c-2.575-1.012-5.133-2.069-7.733-3.011a3.364,3.364,0,0,0-2.772-.033c-.515.268-1.014.569-1.522.851a29.754,29.754,0,0,1-3,1.619c-.921.378-1.212.872-.846,1.767a2.672,2.672,0,0,1,.075,1.315,15.123,15.123,0,0,0-.42,2.228,18.8,18.8,0,0,0,.438,2.93,24.309,24.309,0,0,0,3.437,8.569,17.864,17.864,0,0,0,4.941,5.424c1.942,1.337,3.819,2.8,5.874,3.932a28,28,0,0,0,5.363,2.114,23.176,23.176,0,0,0,6.358,1.452,12.06,12.06,0,0,1,2.678.316,4.748,4.748,0,0,0,5.278-2.009,5.607,5.607,0,0,0,.789-5.318,23.5,23.5,0,0,0-2.543-5.427,55.177,55.177,0,0,0-3.775-5.3c-2.176-2.576-5.084-4.321-7.75-6.331-.5-.38-.458-.719-.094-1.1.28-.3.326-.447-.08-.717-1.558-1.034-3.081-2.121-4.7-3.267M16.094,109.84a6.263,6.263,0,0,1,3.1-.645c.284.007.575-.226.862-.349l-.708-.257a2.15,2.15,0,0,0-.2-.073,7.082,7.082,0,0,0-3.479-.148,15.187,15.187,0,0,0-5.326,2.23,20.707,20.707,0,0,0-2.365,1.775,24,24,0,0,0-1.625,2.045,16.7,16.7,0,0,0-3.232,4.987c-.352.977-.914,1.993-.234,3.087A18.4,18.4,0,0,0,4,124.443c1.841,2.271,3.67,4.559,5.638,6.718,1.583,1.736,3.346,3.309,5.054,4.929.923.876,1.866,1.736,2.854,2.537,1.959,1.591,3.881,3.246,5.962,4.663,1.44.98,2.76,2.286,4.722,2.365a4.517,4.517,0,0,0,2.917-.585,6.159,6.159,0,0,0,2.654-5.345,19.043,19.043,0,0,0-.46-3.707,27.5,27.5,0,0,0-4.063-8.934,53.247,53.247,0,0,0-7.19-8.573c-1.959-1.994-4-3.905-6-5.864-.93-.913-.941-1.716,0-2.807M58.05,166.8c.129.546.265,1.089.385,1.637a8.316,8.316,0,0,0,1.632,2.921,11.937,11.937,0,0,0,11.42,5.169,10.488,10.488,0,0,0,3.1-.977,9.632,9.632,0,0,0,3.55-3.4,20.436,20.436,0,0,0,2.382-3.85,12.883,12.883,0,0,0,1.123-7.6,9.081,9.081,0,0,0-.65-2.615,14.508,14.508,0,0,0-5.329-5.707,11.283,11.283,0,0,0-4.769-2.047,10.4,10.4,0,0,0-7.256,1.7,14.186,14.186,0,0,0-4.161,4.324c-.417.722-.6,1.573-.972,2.327a10.569,10.569,0,0,0-1.055,5.8,20.585,20.585,0,0,0,.6,2.321M14.219,89.214c.313.365.619.735.939,1.094q2.674,2.992,5.357,5.975a1.868,1.868,0,0,0,.428.27,4.015,4.015,0,0,0,.07-.516q.083-8.554.165-17.108c.01-.89.138-1.778.143-2.667q.028-4.605-.015-9.211c0-.219-.308-.61-.495-.623a18.339,18.339,0,0,0-4.3-.135,10.425,10.425,0,0,0-7.253,4.613C8.1,72.677,7.048,74.567,7.606,76.782a35.731,35.731,0,0,0,1.943,5.98,25.79,25.79,0,0,0,4.67,6.452M64.379,135a8.092,8.092,0,0,0,1.756,1.22,10.913,10.913,0,0,0,5.29.533c2.617-.365,4.046-2.02,5.052-4.2a9.839,9.839,0,0,0,.46-6.872c-.369-1.356-.8-2.774-2.148-3.529a18.32,18.32,0,0,0-2.714-1.167,9.81,9.81,0,0,0-6.07-.372c-1.891.514-3.37,1.47-3.885,3.478a13.492,13.492,0,0,0-.528,4.674A10.3,10.3,0,0,0,64.379,135M73.6,94.683a16.929,16.929,0,0,0-3.1-.579,11.089,11.089,0,0,0-2.783.584c-2.85.742-4.689,2.488-4.953,5.491a9.479,9.479,0,0,0,1.658,6.394,9.3,9.3,0,0,0,3.431,3.144,7.286,7.286,0,0,0,5.35.146,6.216,6.216,0,0,0,2.059-1.4,4.7,4.7,0,0,0,1.3-1.469,10.2,10.2,0,0,0,.7-7.094c-.575-2.137-1.3-4.181-3.67-5.214m-30.471.625c-.773.208-1.552.4-2.317.63a5.955,5.955,0,0,0-3.2,1.992,4.678,4.678,0,0,0-.374,4.293,11.464,11.464,0,0,0,3.914,5.624,4.782,4.782,0,0,0,3.385,1.02,7.965,7.965,0,0,0,4.016-1.388,9.742,9.742,0,0,0,2.379-2.079,7.768,7.768,0,0,0,.971-2.627,5.488,5.488,0,0,0-1.633-5.783,8.1,8.1,0,0,0-7.138-1.682m-.234,39.144a14.985,14.985,0,0,0,4.088-2.2,5.152,5.152,0,0,0,1.773-2.537,7.9,7.9,0,0,0,.367-3.35,2.731,2.731,0,0,0-.47-1.43,27.806,27.806,0,0,0-2.239-2.576,7.751,7.751,0,0,0-5.33-2.174A4.755,4.755,0,0,0,37.567,122a7.7,7.7,0,0,0-2.319,6.855,7.062,7.062,0,0,0,1.939,3.957c.293.3.509.779.859.909,1.529.567,3.052,1.3,4.846.73m56.8-25.861a7.323,7.323,0,0,0,3.506-4.439,7.048,7.048,0,0,0-1.2-7.3c-2.111-2.435-4.6-2.321-7.433-.773a7.725,7.725,0,0,0-3.31,4.053,6.514,6.514,0,0,0,1.6,7.382,5.962,5.962,0,0,0,6.838,1.073M74.145,200.863q11.309-11.153,22.623-22.3c2-1.967,4.066-3.872,6.106-5.8.632-.6,1.267-1.2,1.924-1.765,1.395-1.207,2.81-2.392,4.2-3.6a1.622,1.622,0,0,0,.265-.481,1.557,1.557,0,0,0-.528.144c-1.238.917-2.462,1.853-3.691,2.783-2.417,1.83-4.85,3.639-7.246,5.5-1.881,1.458-3.714,2.976-5.571,4.464-1.816,1.456-3.654,2.887-5.449,4.368-1.523,1.256-3,2.564-4.494,3.859q-3.1,2.7-6.19,5.412c-.712.627-1.4,1.283-2.091,1.93q-3.493,3.256-6.98,6.518a1.638,1.638,0,0,0-.228.372,2.014,2.014,0,0,0,.431.079c1.28-.045,2.56-.144,3.839-.139a3.631,3.631,0,0,0,3.074-1.341m24.3-78.678a5.742,5.742,0,0,0-3.818-.475c-1.832.426-3.462,1.126-4.39,2.908-.1.194-.239.486-.4.514-.76.133-.89.778-.977,1.3a11.148,11.148,0,0,0-.153,2.818,3.6,3.6,0,0,0,1.157,2.324.725.725,0,0,0,.969.1c.685-.415,1.381-.811,2.077-1.208a3.3,3.3,0,0,1,2.7-.163c1.359.417,2.686.937,4.048,1.346a1.041,1.041,0,0,0,.922-.243,6.124,6.124,0,0,0,.891-1.729,22.937,22.937,0,0,0,.49-2.377,4.528,4.528,0,0,0-.614-3.13c-.59-1.07-1.773-1.4-2.9-1.987M64.066,86.557c-.439.387-.883.768-1.316,1.162-1.778,1.617-3.547,3.245-5.333,4.855-.6.539-1.248,1.021-1.852,1.554-.692.61-1.379,1.228-2.02,1.89-.133.137-.054.48-.073.729a1.69,1.69,0,0,0,.59-.2c1.13-1,2.223-2.037,3.361-3.024,1.7-1.473,3.43-2.907,5.138-4.369,1.214-1.039,2.4-2.117,3.622-3.141,2.025-1.692,4.08-3.349,6.113-5.031,1.612-1.334,3.192-2.708,4.818-4.024,2.255-1.825,4.544-3.609,6.812-5.418,2.115-1.687,4.208-3.4,6.335-5.074q3-2.354,6.046-4.636c1.6-1.194,3.253-2.324,4.877-3.489a1.722,1.722,0,0,0,.276-.327,1.4,1.4,0,0,0-.462-.2c-.833-.02-1.671.045-2.5-.026a2.258,2.258,0,0,0-1.656.538c-.813.646-1.578,1.353-2.363,2.033-1.168,1.013-2.329,2.034-3.508,3.035-1.615,1.371-3.249,2.719-4.864,4.091-1.2,1.018-2.37,2.066-3.565,3.088-1.728,1.479-3.471,2.939-5.2,4.422-1.29,1.11-2.556,2.248-3.84,3.365q-2.9,2.519-5.805,5.026c-1.188,1.029-2.374,2.061-3.639,3.17M51.487,88.511c-.324.286-.655.566-.972.861Q48.88,90.9,47.255,92.433c-.449.425.033.626.266.663a1.7,1.7,0,0,0,1.54-.414c.979-.911,2.09-1.683,3.034-2.626.891-.891,2.22-1.394,2.556-2.812a1.525,1.525,0,0,1,.55-.681c1.37-1.143,2.767-2.253,4.13-3.4,1.26-1.065,2.481-2.176,3.732-3.251,1.744-1.5,3.505-2.978,5.25-4.476,1.232-1.058,2.439-2.145,3.675-3.2,1.593-1.356,3.218-2.675,4.8-4.039,1.1-.948,2.143-1.97,3.248-2.916q2.9-2.485,5.851-4.914c.941-.777,1.929-1.5,2.89-2.252a1.233,1.233,0,0,0,.208-.305c-.092-.053-.181-.144-.277-.152a4,4,0,0,0-.78,0c-.592.068-1.323-.03-1.745.281-1.261.93-2.4,2.023-3.587,3.057-1.263,1.1-2.516,2.215-3.784,3.311-1.838,1.589-3.694,3.157-5.526,4.753-1.44,1.254-2.847,2.546-4.283,3.8C67.045,74.581,65.062,76.28,63.1,78c-1.4,1.223-2.792,2.452-4.167,3.7-2.463,2.236-4.91,4.488-7.442,6.812M33.439,150.937c-1.064,1.012-2.142,2.011-3.19,3.04q-2.255,2.216-4.464,4.478a2.184,2.184,0,0,0-.381.85c-.026.08.083.229.166.305.026.024.19-.068.263-.136.866-.805,1.718-1.625,2.59-2.424,1.015-.93,2.034-1.856,3.073-2.759,1.833-1.593,3.687-3.163,5.524-4.752,1.287-1.113,2.549-2.254,3.84-3.362,1.686-1.447,3.39-2.871,5.084-4.309,1.079-.916,2.148-1.845,3.23-2.758,1.6-1.348,3.216-2.675,4.806-4.034,1.313-1.122,2.531-2.367,3.915-3.39,1.131-.836,1.837-1.731,1.56-3.184-.034-.18-.089-.357-.134-.535a1.928,1.928,0,0,0-.457.211c-1.319,1.1-2.638,2.192-3.938,3.31q-2.481,2.135-4.931,4.3-2.862,2.527-5.7,5.079-2.65,2.385-5.27,4.8c-1.848,1.714-3.671,3.456-5.583,5.264M111.96,78.2a4.709,4.709,0,0,0-.431.279c-1.64,1.322-3.259,2.672-4.92,3.968-1.921,1.5-3.889,2.937-5.816,4.427q-3.29,2.544-6.543,5.134-3.856,3.053-7.691,6.131c-1.489,1.2-2.94,2.443-4.433,3.636a3.435,3.435,0,0,0-1.562,2.386c-.023.144.108.313.168.471.11-.074.227-.139.33-.222,2.091-1.677,4.192-3.344,6.265-5.044A5.883,5.883,0,0,0,88.9,97.775a9,9,0,0,1,5.447-4.5,4.778,4.778,0,0,0,1.335-.538c2.43-1.759,4.823-3.568,7.243-5.34q6.049-4.431,12.122-8.828a2.449,2.449,0,0,0,1.3-2.584,5.375,5.375,0,0,1,.006-.928,2.159,2.159,0,0,0-.052-.331c-.107.028-.241.024-.318.088-1.318,1.1-2.63,2.2-4.02,3.387M88.834,89.292c1.31-1.049,2.632-2.083,3.926-3.152,1.673-1.383,3.316-2.8,4.982-4.19,2.436-2.031,4.913-4.013,7.312-6.087,1.955-1.69,3.813-3.493,5.727-5.231,1.452-1.319,2.922-2.617,4.388-3.921a8.584,8.584,0,0,0,1.019-.9c.141-.174.081-.511.112-.775a1.914,1.914,0,0,0-.582.2q-1.6,1.248-3.169,2.534-2.334,1.919-4.647,3.864c-1.374,1.152-2.724,2.332-4.108,3.473-1.605,1.324-3.246,2.6-4.851,3.928-1.4,1.158-2.774,2.354-4.163,3.529q-2.485,2.1-4.977,4.2c-1.023.863-2.036,1.738-3.066,2.593-1.45,1.2-2.913,2.393-4.368,3.591a31.6,31.6,0,0,1-2.87,2.328c-.583.375-.489.593-.2,1.009.343.494.653.33,1-.005.232-.226.506-.408.759-.612,1.307-1.056,2.617-2.107,3.918-3.17,1.266-1.035,2.522-2.082,3.861-3.2M108.21,279.619c.1-.217.215-.432.311-.653.874-2.008,1.822-3.988,2.6-6.032,1.276-3.354,2.407-6.763,3.661-10.126,1.438-3.856,2.934-7.691,4.429-11.525.4-1.03.905-2.021,1.333-3.042a1.848,1.848,0,0,0,.017-.65,2.273,2.273,0,0,0-.467.421c-.334.534-.656,1.079-.942,1.64-1.434,2.817-2.927,5.607-4.261,8.471-1.239,2.659-2.367,5.375-3.43,8.109-1.352,3.478-2.605,7-3.872,10.506-1.112,3.083-2.184,6.179-3.265,9.273a2.487,2.487,0,0,0-.062.561c.17-.11.4-.181.5-.337.492-.807.971-1.624,1.412-2.461.7-1.324,1.36-2.666,2.037-4.156M13.594,152.031c-1.337.417-2.678.823-4.007,1.265-.133.044-.2.3-.29.462a1.2,1.2,0,0,0,.367.141,6.735,6.735,0,0,1,1.582.029,24.927,24.927,0,0,1,6.163,2.843,33.445,33.445,0,0,1,5.455,4.367,2.286,2.286,0,0,0,.429.258,3.011,3.011,0,0,0,.065-.441c0-2.4,0-4.79.007-7.186,0-.536-.2-.814-.76-.809a1.311,1.311,0,0,1-.408-.14,20.65,20.65,0,0,0-7.887-.941c-.188.007-.374.1-.717.15m73.677,14.923a5.377,5.377,0,0,0-.541.39q-3.112,2.866-6.215,5.742-2.231,2.067-4.454,4.144-2.816,2.643-5.61,5.308a1.56,1.56,0,0,0-.232.491,1.711,1.711,0,0,0,.537-.2c.816-.685,1.614-1.392,2.418-2.092,2.028-1.767,4.041-3.553,6.088-5.3q3.309-2.821,6.673-5.579c2.366-1.937,4.757-3.843,7.148-5.747q4.49-3.575,9-7.127c1.613-1.275,1.612-1.414-.221-2.44a.921.921,0,0,0-.827.08c-1.1.886-2.178,1.813-3.242,2.747-1.455,1.278-2.9,2.562-4.335,3.867-2.045,1.866-4.071,3.753-6.184,5.709m-23.2-99.3a5.35,5.35,0,0,0,.646-.506,1.719,1.719,0,0,0,.234-.489,1.818,1.818,0,0,0-.538.2Q60.8,69.736,57.2,72.645c-2.613,2.124-5.228,4.248-7.81,6.41-2.541,2.127-5.071,4.269-7.552,6.466-2.15,1.9-4.232,3.885-6.33,5.847q-2.906,2.717-5.78,5.468c-1.943,1.864-3.864,3.751-5.79,5.633-.16.156-.382.339-.4.528a15.382,15.382,0,0,0-.034,1.593c.258-.248.516-.494.773-.743q2.426-2.347,4.851-4.694c1.431-1.382,2.857-2.77,4.3-4.14q2.517-2.389,5.061-4.751,3.462-3.235,6.932-6.46,1.6-1.484,3.24-2.927,2.945-2.583,5.916-5.138,2.212-1.912,4.436-3.81c1.654-1.406,3.318-2.8,5.055-4.277m42.581-8.829c-1.565,1.252-3.136,2.5-4.691,3.759-1.231,1-2.436,2.031-3.666,3.032-1.594,1.3-3.209,2.568-4.8,3.871-1.327,1.088-2.622,2.213-3.943,3.308-2.052,1.7-4.123,3.379-6.17,5.086-1.167.973-2.3,1.991-3.455,2.977-2.038,1.736-4.089,3.456-6.125,5.2-.909.776-1.784,1.591-2.691,2.369-1.341,1.151-2.7,2.283-4.043,3.431a1.184,1.184,0,0,0-.193.327c.144.017.33.1.426.04a15.867,15.867,0,0,0,1.893-1.269c2.339-1.983,4.646-4,6.965-6.01,1.552-1.343,3.083-2.714,4.661-4.025,2.53-2.1,5.091-4.167,7.642-6.246,1.946-1.585,3.871-3.2,5.849-4.741q3.5-2.73,7.074-5.358c2.746-2.02,5.531-3.989,8.3-5.983a.519.519,0,0,0,.2-.267c.011-.047-.141-.194-.213-.19-1.012.052-2.111-.294-3.022.694m-40,54.535c-.4.349-.8.7-1.2,1.049-1.717,1.507-3.442,3.005-5.146,4.526-1.676,1.495-3.326,3.018-5,4.518q-1.13,1.014-2.3,1.985c-.808.674-1.422,1.413-1.04,2.561a3.526,3.526,0,0,0,.184.392,1.3,1.3,0,0,0,.219-.127q2.411-2.093,4.82-4.19c1.128-.978,2.251-1.962,3.394-2.922q2.745-2.3,5.516-4.578c1.55-1.268,3.124-2.5,4.673-3.774.073-.06.027-.428-.012-.437a12.287,12.287,0,0,1-1.241-.217,1.709,1.709,0,0,0-2.033.522,8.209,8.209,0,0,1-.834.691m49.691-30.471c-.159,0-.364-.057-.471.02-.686.5-1.344,1.029-2.023,1.534-2.148,1.6-4.309,3.175-6.452,4.778q-2.688,2.01-5.335,4.073a.694.694,0,0,0-.084.659,6.355,6.355,0,0,0,1.229.783.608.608,0,0,0,.519-.029c.6-.4,1.164-.838,1.746-1.258,2.965-2.14,5.976-4.22,8.882-6.438,2.037-1.555,2.054-.823,1.989-3.73,0-.078,0-.156,0-.39M84.771,106.793a2.872,2.872,0,0,0-.375.223c-1.44,1.173-2.87,2.359-4.315,3.527-2.376,1.919-4.765,3.822-7.138,5.744a13.028,13.028,0,0,0-.983.978,7.679,7.679,0,0,0,1.246.371,1.918,1.918,0,0,0,1.224-.081c1.211-.893,2.351-1.883,3.513-2.842,1.513-1.248,3.008-2.518,4.537-3.746,1.672-1.344,3.34-2.7,5.076-3.957a1.743,1.743,0,0,0,.85-2.309c-.221-.611-.471-.517-.762-.291-.954.739-1.867,1.532-2.874,2.383m-34.143,5.235-2.143,1.987c-1.447,1.343-2.9,2.682-4.332,4.037a.425.425,0,0,0-.036.413,2.156,2.156,0,0,0,2.046.058q2.339-2.176,4.673-4.359c1.632-1.525,3.254-3.062,4.9-4.576.706-.651,1.472-1.237,2.181-1.885a38.348,38.348,0,0,0,2.885-2.785c.242-.273.064-.919.079-1.393a3.961,3.961,0,0,0-.911.434c-1.223,1.027-2.415,2.09-3.623,3.135-1.876,1.622-3.757,3.238-5.714,4.935M95.4,74.447a5.567,5.567,0,0,0-.487.335c-.753.639-1.486,1.3-2.25,1.927-1.629,1.336-3.281,2.644-4.908,3.982-1.073.883-2.108,1.814-3.18,2.7-1.353,1.118-2.735,2.2-4.089,3.32-1.053.868-2.071,1.777-3.125,2.644-.985.81-2,1.579-2.988,2.388-.129.106-.149.346-.22.524a1.9,1.9,0,0,0,.608.212.914.914,0,0,0,.511-.253Q77,90.745,78.721,89.246c1.647-1.433,3.27-2.893,4.938-4.3,2.424-2.046,4.886-4.045,7.317-6.083,2.091-1.753,4.146-3.55,6.245-5.293,2.22-1.845,4.473-3.65,6.713-5.472,1.947-1.584,3.882-3.183,5.846-4.745,2.109-1.677,4.252-3.311,6.362-4.987.173-.137.2-.453.3-.686a5.2,5.2,0,0,0-.638-.023.609.609,0,0,0-.325.15c-1.629,1.413-3.249,2.838-4.882,4.246q-1.432,1.235-2.9,2.429c-1.574,1.28-3.162,2.544-4.746,3.812-1.231.985-2.472,1.958-3.7,2.952-1.269,1.031-2.523,2.081-3.862,3.2M55.55,117.263c.586-.533,1.167-1.072,1.758-1.6.891-.8,1.778-1.6,2.687-2.371,1.227-1.044,2.469-2.069,3.714-3.091.542-.445.18-.785-.1-1.131a.706.706,0,0,0-1.118-.148c-.735.619-1.473,1.236-2.188,1.877-1.672,1.5-3.326,3.02-5,4.519-.657.589-1.361,1.126-2.017,1.717q-1.939,1.747-3.842,3.534c-.483.456-.191.851.176,1.241.423.448.673.045.919-.172,1.111-.978,2.193-1.989,3.3-2.969.525-.464,1.088-.887,1.711-1.406m4.063,71.255c.4-.35.822-.679,1.2-1.052q1.78-1.751,3.526-3.537c.088-.09.043-.309.06-.469a1.514,1.514,0,0,0-.373.183q-2.476,2.226-4.941,4.466-2.61,2.369-5.213,4.746-3.057,2.8-6.094,5.63c-1.375,1.287-2.718,2.609-4.079,3.912-.106.1-.251.163-.354.267a3.6,3.6,0,0,0-.3.387,1.39,1.39,0,0,0,.45.225c1.068.085,2.105.081,2.8-.964a7.944,7.944,0,0,1,.878-1.041c2.184-2.3,4.357-4.605,6.569-6.876,1.905-1.956,3.857-3.868,5.866-5.877M81.88,119.06c.454-.35.91-.7,1.361-1.049,1.749-1.368,3.487-2.752,5.25-4.1,1.317-1.009,2.669-1.973,4-2.966.088-.066.19-.253.157-.319a1.689,1.689,0,0,0-2.083-.4c-.3.23-.579.481-.878.709-1.938,1.476-3.884,2.941-5.816,4.424-1.878,1.443-3.752,2.892-5.6,4.372-.252.2-.826.405-.386.962.619.784.939.863,1.522.381.791-.655,1.6-1.29,2.476-2.012m-.938,82.662a2.313,2.313,0,0,0,2.146-.872q5.846-5.917,11.758-11.769c.477-.474,1.079-.821,1.569-1.284.889-.84,1.739-1.722,2.6-2.592.043-.043.029-.143.041-.217-.092,0-.2-.039-.273,0a2.584,2.584,0,0,0-.489.327c-.808.694-1.6,1.408-2.415,2.094-1.89,1.59-3.8,3.157-5.682,4.756-1.3,1.1-2.562,2.242-3.841,3.365q-3.179,2.789-6.354,5.584a4.34,4.34,0,0,0-.53.7c.33.021.659.057.989.056.109,0,.217-.1.482-.148M39.611,153.516c.512-.46,1.016-.93,1.538-1.379q2.7-2.325,5.417-4.639c1.076-.921,2.142-1.854,3.232-2.757,1.371-1.136,2.762-2.25,4.146-3.37,1.344-1.088,2.7-2.16,4.035-3.261,1.092-.9,2.146-1.848,3.236-2.752.56-.465.038-.828-.142-1.119-.243-.394-.584-.172-.889.1-1.08.955-2.2,1.865-3.275,2.826q-3.966,3.544-7.9,7.121c-1.5,1.363-2.964,2.765-4.459,4.135-.862.79-1.761,1.538-2.626,2.324-1.346,1.223-2.678,2.462-4.009,3.7-.058.054-.049.179-.072.271.117-.009.266.026.344-.033.459-.35.9-.722,1.426-1.165m44.847,7.032c.006.3-.048.72.437.336,1.374-1.089,2.718-2.215,4.1-3.3,2.6-2.051,5.226-4.079,7.828-6.132.154-.121.332-.48.274-.556a4.209,4.209,0,0,0-1.025-1.022c-.167-.1-.609.042-.812.211q-3.141,2.616-6.238,5.284c-1.309,1.124-2.55,2.332-3.91,3.39a1.42,1.42,0,0,0-.65,1.789M43.283,79.057c.826-.774,1.655-1.543,2.471-2.327.087-.083.092-.252.135-.381-.144.022-.324,0-.426.074-.363.273-.705.575-1.046.877-1.429,1.268-2.851,2.545-4.283,3.81-2.172,1.919-4.354,3.827-6.524,5.748-1.071.948-2.126,1.912-3.187,2.871-2.2,1.988-4.405,3.966-6.578,5.981a2.715,2.715,0,0,0-.475,1.044.3.3,0,0,0,.152.258.406.406,0,0,0,.3-.115c.839-.76,1.66-1.54,2.507-2.29,2.169-1.922,4.359-3.821,6.52-5.753,1.018-.91,1.983-1.877,2.979-2.812,2.456-2.3,4.916-4.6,7.452-6.985M113.757,92.5c-.508.4-1.011.815-1.526,1.211-1.773,1.363-3.483,2.825-5.354,4.036a1.909,1.909,0,0,0-1.01,2.34c.078.321.185.542.551.228.551-.473,1.11-.94,1.689-1.378,2.312-1.752,4.611-3.524,6.964-5.22.793-.572,1.494-1.078,1.268-2.19a4.556,4.556,0,0,1-.046-.554,1.618,1.618,0,0,0-.615.132c-.6.442-1.179.927-1.921,1.4m-3.047,26.643c-1.159.846-2.329,1.678-3.473,2.544-1.016.769-2.018,1.56-2.987,2.387-.162.138-.12.515-.172.782a2.413,2.413,0,0,0,.747-.159c.569-.336,1.1-.745,1.656-1.1,2.85-1.788,5.688-3.6,8.568-5.333a2.259,2.259,0,0,0,1.126-2.5c-.043-.33-.087-.65-.554-.3-1.6,1.21-3.221,2.4-4.912,3.672m-24.142,1.484c-.4.349-.794.71-1.206,1.046-1.048.855-2.117,1.684-3.154,2.553-.665.558-1.295,1.16-1.922,1.761-.092.088-.084.28-.122.424.162-.008.369.045.478-.035.249-.182.431-.453.674-.646q4.163-3.319,8.338-6.622c1.6-1.265,3.21-2.529,4.849-3.747,1.6-1.191,3.251-2.322,4.873-3.488a1.278,1.278,0,0,0,.24-.351c-.081-.038-.178-.126-.242-.106a15.305,15.305,0,0,0-2.529.856,11.072,11.072,0,0,0-1.817,1.46c-1.3,1.083-2.583,2.175-3.882,3.253-1.469,1.22-2.947,2.429-4.578,3.643M39.924,239.772c-.772-2.126-1.439-4.3-2.338-6.369-1.725-3.971-3.577-7.886-5.4-11.816-.085-.185-.349-.287-.53-.428a2.073,2.073,0,0,0,.048.694c1.531,3.426,3.1,6.833,4.615,10.267.882,2,1.7,4.031,2.495,6.07.34.876.525,1.812.8,2.713a2.251,2.251,0,0,0,.325.509,1.91,1.91,0,0,0,.126-.534c-.017-.319-.094-.634-.146-1.107m-.938-122.2c-.693.589-1.4,1.161-2.075,1.773-.614.558-1.185,1.164-1.781,1.743-1.281,1.242-2.571,2.475-3.837,3.732-.088.088-.009.344-.008.522.163-.029.38,0,.479-.1q1.293-1.247,2.546-2.535c.642-.662,1.2-1.415,1.892-2.019,1.977-1.727,4.022-3.377,6-5.1,1.391-1.212,2.721-2.494,4.071-3.752a2.221,2.221,0,0,0,.29-.438c-.2-.012-.448-.109-.579-.023a16.413,16.413,0,0,0-2.168,1.546c-1.618,1.487-3.173,3.043-4.831,4.649M9.843,86.87c1.011,1.531,1.973,3.1,3.048,4.583a39.082,39.082,0,0,0,2.664,3.188c.931,1.034,1.913,2.024,2.9,3a7.147,7.147,0,0,0,1.135.833c.086.056.245,0,.371,0-.032-.11-.03-.257-.1-.326a46.543,46.543,0,0,1-4.177-4.885C13.9,91,11.853,88.946,10.26,86.522c-.123-.187-.388-.282-.587-.419a3.454,3.454,0,0,0,.171.767m91.022,28.049c.11.046.267.163.324.126.394-.254.768-.538,1.147-.816,2.353-1.727,4.7-3.462,7.059-5.18,2.035-1.481,4.089-2.936,6.122-4.42a5.215,5.215,0,0,0,.7-.764,4.406,4.406,0,0,0-1.067.379c-2.883,1.966-5.787,3.9-8.6,5.96-1.96,1.43-3.794,3.033-5.684,4.714m1.953,47.738c.273-.221.543-.445.82-.662,1.2-.94,2.4-1.873,3.591-2.826.115-.092.135-.3.2-.459-.159-.039-.354-.155-.47-.1a4.889,4.889,0,0,0-1,.6c-1.214.98-2.406,1.987-3.614,2.974-1.633,1.332-3.276,2.652-4.912,3.981-.878.714-1.763,1.42-2.62,2.158-.7.6-1.363,1.245-2.035,1.877-.065.061-.076.18-.112.272.114,0,.259.041.336-.013.407-.287.8-.592,1.191-.9,1.255-1,2.515-1.986,3.756-3,1.58-1.29,3.142-2.6,4.868-3.9m-42.5,12.188a4.2,4.2,0,0,0-.748.448c-1,.921-1.987,1.859-2.968,2.8q-2.377,2.285-4.74,4.585c-.891.87-1.763,1.759-2.644,2.64-.807.807-1.616,1.611-2.417,2.425a1.028,1.028,0,0,0-.143.318c.126-.03.284-.023.372-.1q.757-.643,1.486-1.321,2.482-2.314,4.954-4.637,3.491-3.261,6.984-6.519c.212-.2.5-.414-.136-.642m58.051.7c.052,2.24.113,4.48.148,6.72.007.43.133.494.487.3.424-.228.845-.468,1.287-.657.868-.371.933-.478.5-1.28a21.438,21.438,0,0,1-1.968-5.192,6.042,6.042,0,0,0-.479-1.067c.007.339.014.677.021,1.172M90.006,148.437c-.693.589-1.38,1.185-2.08,1.765-1.142.945-2.311,1.856-3.431,2.825a21.355,21.355,0,0,0-1.8,1.818c-.084.092.046.378.077.574.178-.04.4-.026.525-.13.567-.475,1.1-.986,1.655-1.481.986-.885,1.966-1.777,2.964-2.648,1.507-1.315,3.032-2.61,4.534-3.931.125-.11.133-.352.2-.533-.215.021-.488-.036-.633.075-.661.5-1.286,1.054-2,1.666m25.939-15.626q-1.778,1.544-3.556,3.087c-.393.342-.4.533.176.678a15.007,15.007,0,0,1,1.54.607c.719.271,1.959-.26,2.038-1.029a12.731,12.731,0,0,0-.2-3.344M80.786,145.624c.611-.469,1.226-.933,1.833-1.407,1.277-1,2.554-1.994,3.817-3.008.126-.1.155-.322.229-.487a1.551,1.551,0,0,0-.482.141c-1.4,1.006-2.8,2.027-4.2,3.042q-3.325,2.415-6.646,4.835a1.745,1.745,0,0,0-.325.489,3.141,3.141,0,0,0,.8.253c.156.008.33-.19.484-.31,1.471-1.154,2.94-2.312,4.487-3.547m24.533-14.689c-.6.5-1.211.98-1.792,1.5-.133.118-.163.352-.241.533a1.6,1.6,0,0,0,.59-.134c1.261-.921,2.517-1.849,3.752-2.8q3.9-3.015,7.775-6.068a4.523,4.523,0,0,0,.672-.863,4.358,4.358,0,0,0-.966.41c-1.693,1.262-3.369,2.546-5.04,3.837-1.538,1.188-3.063,2.394-4.75,3.592M32.658,111.4c.971-.919,1.945-1.835,2.909-2.762a1.365,1.365,0,0,0,.2-.381c-.2,0-.462-.084-.577.012q-1.344,1.122-2.636,2.306c-1.548,1.422-3.079,2.864-4.616,4.3-.788.735-1.6,1.443-2.34,2.227-.164.175-.045.616-.056.934a2.033,2.033,0,0,0,.591-.275c2.157-2.085,4.3-4.184,6.528-6.358m77.974,58.754c-1.019.863-2.046,1.717-3.051,2.6a2.921,2.921,0,0,0-.428.644c.266-.083.533-.162.8-.251.044-.015.07-.076.112-.106,1.753-1.286,3.5-2.576,5.262-3.852.855-.62,1.754-1.184,2.576-1.844a.943.943,0,0,0,.071-.871c-.167-.346-.462-.577-.9-.151-.781.756-1.625,1.448-2.451,2.158-.629.541-1.272,1.066-1.986,1.677M54.378,167.5a10.925,10.925,0,0,0,1.238-1.121c.149-.178.064-.552.085-.837a2,2,0,0,0-.69.248q-2.22,2.016-4.4,4.074-2.841,2.666-5.66,5.355a1.564,1.564,0,0,0-.229.436c.181-.045.411-.033.535-.143,1.892-1.661,3.765-3.344,5.654-5.009,1.12-.987,2.26-1.951,3.469-3M189.7,16.24c-.13-.7-.255-1.4-.4-2.1-.018-.091-.122-.164-.185-.245-.04.1-.139.228-.112.312a7.578,7.578,0,0,1,.191,2.931,25.72,25.72,0,0,0,.264,3.455c.124,1.931.216,3.865.317,5.8.057,1.1.1,2.193.161,3.289a10.057,10.057,0,0,0,.163,1.337,2,2,0,0,0,.3.535,1.644,1.644,0,0,0,.154-.507q-.051-1.372-.15-2.743c-.149-2.068-.347-4.132-.456-6.2-.1-1.926-.115-3.856-.245-5.862M35.314,143.437c.732-.732,1.444-1.485,2.2-2.189.664-.618,1.375-1.186,2.071-1.769.925-.775,1.857-1.542,2.78-2.319a1.453,1.453,0,0,0,.213-.3c-.072-.047-.158-.148-.214-.134-.677.181-1.439,0-2.025.577-1.3,1.288-2.65,2.527-3.946,3.819a8.442,8.442,0,0,0-1.2,1.531c-.107.172-.528.507.115.784M33.673,62.259l.037-.276c-.074,0-.17-.038-.217,0a7.23,7.23,0,0,0-.764.6q-2.453,2.358-4.891,4.733Q26,69.118,24.2,70.961a2.194,2.194,0,0,0-.481.809c-.04.117.162.317.254.48a1.683,1.683,0,0,0,.318-.241c.253-.307.457-.659.735-.939,1.752-1.772,3.519-3.529,5.28-5.29,1.122-1.122,2.243-2.243,3.365-3.521M96.334,196.331q1.787-1.709,3.571-3.42a2.757,2.757,0,0,0,.282-.383,1.524,1.524,0,0,0-.526.177c-2.07,1.79-4.124,3.6-6.19,5.392-1.067.927-2.152,1.834-3.218,2.763a2.139,2.139,0,0,0-.317.481,1.383,1.383,0,0,0,.514.058,2.651,2.651,0,0,0,1.061-.429c1.6-1.5,3.168-3.036,4.823-4.639M5.234,156.8a6.274,6.274,0,0,1,6.111-.4c.981.4,1.99.723,3,1.05.147.048.351-.083.529-.13a1.514,1.514,0,0,0-.325-.281c-.744-.338-1.48-.7-2.247-.977a9.5,9.5,0,0,0-5.818-.6,7.987,7.987,0,0,0-3.246,1.947c-.141.127-.161.388-.238.587a2.061,2.061,0,0,0,.538-.137c.549-.313,1.082-.655,1.7-1.064m104.3,22.736c-.328.276-.665.541-.977.833-.091.085-.111.245-.164.37.141-.005.313.04.417-.025.376-.234.734-.5,1.088-.764q2.973-2.235,5.94-4.479c.241-.182.568-.35.666-.6a3.634,3.634,0,0,0,.089-1.091,2.847,2.847,0,0,0-.709.295c-.4.313-.75.694-1.139,1.026-1.707,1.456-3.421,2.9-5.211,4.434m-88.21-67.739c0-.26-.019-.522,0-.78.043-.47-.215-.6-.608-.544-.926.142-1.85.3-2.772.472a.308.308,0,0,0-.2.212c0,.08.094.187.174.246.4.291.831.538,1.2.859.716.621,1.387,1.294,2.1,1.917a2.611,2.611,0,0,0,.691.311c-.012-.3-.017-.595-.042-.891a.412.412,0,0,0-.11-.262,1.662,1.662,0,0,1-.437-1.54M32.736,68.2c-.089-.068-.232-.21-.258-.191a7.532,7.532,0,0,0-.878.709c-1.313,1.3-2.614,2.607-3.919,3.912-1.228,1.228-2.472,2.442-3.67,3.7-.209.22-.226.623-.332.941.129.023.328.112.376.06,1-1.081,1.965-2.2,2.983-3.266,1.857-1.944,3.745-3.859,5.7-5.864M37.814,40.3a1.226,1.226,0,0,0,.31,0c.187-.051.366-.128.549-.195-.185-.09-.368-.252-.556-.258-1.9-.07-3.8-.134-5.7-.158-.7-.009-1.411.091-2.117.147a10.873,10.873,0,0,0-1.8.176,9.4,9.4,0,0,0-1.723.721c-.133.064-.2.273-.292.415.189.025.409.125.562.063,2.035-.833,4.2-.73,6.327-.886,1.421-.1,2.855-.02,4.44-.02M84.458,148.359c.659-.547,1.308-1.106,1.978-1.638,1.134-.9,2.285-1.776,3.417-2.678.105-.084.12-.28.178-.424a2.561,2.561,0,0,0-.487-.024.691.691,0,0,0-.321.16Q85.4,146.87,81.576,150c-.452.37-.883.766-1.313,1.163-.059.055-.054.179-.079.271a.683.683,0,0,0,.273-.015,3.564,3.564,0,0,0,.49-.327c1.146-.881,2.289-1.766,3.511-2.728M24.141,87.729c-.165.165-.4.3-.477.5a2.115,2.115,0,0,0,0,.737A1.954,1.954,0,0,0,24.1,88.7c.346-.369.645-.783,1-1.141q4.459-4.478,8.93-8.944a2.043,2.043,0,0,0,.256-.428,1.6,1.6,0,0,0-.481.2c-.853.779-1.7,1.563-2.532,2.368-2.357,2.292-4.7,4.595-7.132,6.971m36.487,10.7a3.489,3.489,0,0,0,.486-.5,1.315,1.315,0,0,0,.093-.48,1.647,1.647,0,0,0-.433.054,1.441,1.441,0,0,0-.429.28c-.866.8-1.714,1.628-2.59,2.421-.731.662-1.523,1.26-2.229,1.946a10.17,10.17,0,0,0-1.21,1.526c-.073.1.064.355.1.538a2.631,2.631,0,0,0,.415-.31c.289-.316.524-.687.837-.974,1.616-1.484,3.25-2.949,4.956-4.5m61.958,80.24c-.6-1.593-1.2-3.189-1.819-4.775-.07-.179-.271-.308-.411-.46-.038.211-.157.446-.1.629a26.2,26.2,0,0,0,2.465,6.452,2.428,2.428,0,0,0,.326.351c.055-.185.193-.392.15-.55a11.8,11.8,0,0,0-.61-1.647M27.423,111.481l-.037.276c.092-.015.212,0,.271-.051q.833-.732,1.648-1.485c1.559-1.449,3.117-2.9,4.66-4.364.109-.1.086-.345.124-.523a1.489,1.489,0,0,0-.526.177c-.71.626-1.414,1.262-2.09,1.925-1.335,1.311-2.65,2.643-4.052,4.045m15-49.847c-.22.273-.449.539-.657.821a1.891,1.891,0,0,0-.17.383,1.625,1.625,0,0,0,.437-.2q1.573-1.393,3.127-2.809c.889-.816,1.764-1.648,2.635-2.484a1.6,1.6,0,0,0,.23-.427c-.175-.018-.394-.111-.516-.039a6.063,6.063,0,0,0-1.14.821c-1.3,1.269-2.58,2.566-3.945,3.931M76.958,60.7c1.053-.845,2.11-1.686,3.154-2.541.1-.079.119-.251.176-.379-.162.026-.368,0-.48.086-.885.7-1.752,1.424-2.625,2.14-1.163.955-2.33,1.906-3.489,2.867-.7.579-1.392,1.166-2.071,1.769a1.531,1.531,0,0,0-.246.479,1.581,1.581,0,0,0,.525-.164c.264-.207.468-.49.727-.7,1.411-1.165,2.832-2.318,4.328-3.553M55.706,61.79q1.2-1.048,2.409-2.1,1.233-1.075,2.464-2.153c.154-.135.294-.285.44-.428a2.826,2.826,0,0,0-.725-.048,1.12,1.12,0,0,0-.487.318q-2.4,2.228-4.781,4.471a2.57,2.57,0,0,0-.327.492,5.49,5.49,0,0,0,.649-.209c.111-.05.187-.177.357-.347M30.626,199.066a16.287,16.287,0,0,0-1.2,1.226,2.167,2.167,0,0,0-.225.788,2.429,2.429,0,0,0,.69-.358c1.486-1.561,2.954-3.141,4.419-4.722a3.758,3.758,0,0,0,.357-.548c-.218.075-.494.091-.643.236-1.121,1.086-2.217,2.2-3.4,3.379M28.517,58.977l.331-.607c-.217.1-.436.2-.651.3-.044.022-.073.073-.112.108-1.133,1.029-2.276,2.048-3.394,3.094a5.722,5.722,0,0,0-.923,1.1c-.1.153.026.447.049.676a2.981,2.981,0,0,0,.475-.328c.174-.175.291-.407.465-.582,1.223-1.234,2.453-2.459,3.76-3.766m-3.985,8.047q2.5-2.422,4.995-4.849a1.377,1.377,0,0,0,.2-.426,1.145,1.145,0,0,0-.372.149q-2.615,2.44-5.206,4.9c-.131.125-.13.388-.19.587a6.3,6.3,0,0,0,.574-.364m11.407,45.941c.731-.679,1.467-1.352,2.186-2.042a1.286,1.286,0,0,0,.191-.425,1.358,1.358,0,0,0-.517,0c-.155.065-.259.247-.392.37-.693.644-1.4,1.274-2.079,1.93-.728.7-1.437,1.425-2.145,2.148-.069.071-.07.209-.1.316.107-.025.24-.018.317-.081.392-.318.77-.653,1.151-.985.439-.383.875-.77,1.39-1.233m-8.673,37.581c1.006-.9,2.014-1.8,3.012-2.709a1.763,1.763,0,0,0,.259-.427,2.241,2.241,0,0,0-.576-.013.979.979,0,0,0-.431.268q-1.664,1.647-3.309,3.314c-.066.067-.049.215-.071.326.126-.006.291.037.369-.027.241-.2.449-.432.748-.731m86.1-40.315c-.558.4-1.12.8-1.671,1.211-.071.053-.088.178-.13.269.125.034.3.138.368.091q2.037-1.376,4.047-2.792c.127-.089.178-.285.264-.432-.214.013-.477-.049-.632.053-.739.483-1.448,1.01-2.247,1.6m-76.177-3.2c.366.366.721.744,1.106,1.088.085.076.278.03.421.041a1.223,1.223,0,0,0-.107-.327q-1.224-1.785-2.468-3.556c-.073-.1-.243-.139-.368-.206-.01.14-.077.311-.021.416.439.829.9,1.645,1.436,2.544M62.5,59.055c-.312.312-.629.619-.931.941-.052.055-.038.173-.054.261a.784.784,0,0,0,.164-.071c1.194-.879,2.39-1.755,3.575-2.647.1-.077.133-.25.2-.379-.159-.037-.334-.133-.473-.1a1.456,1.456,0,0,0-.489.317c-.64.527-1.274,1.062-1.989,1.672m19.142,69.771c-.748.644-1.5,1.28-2.237,1.94-.114.1-.128.317-.188.479.181-.023.415.019.534-.079q1.2-.991,2.357-2.038a4.5,4.5,0,0,0,.531-.711c-.281.11-.561.221-.842.329a.335.335,0,0,0-.156.079M79.067,1.239c-1.143,0-2.286-.009-3.429.012-.135,0-.267.168-.4.258.131.066.261.189.392.19,1.195.015,2.39.026,3.584,0a3.435,3.435,0,0,0,.868-.257c-.286-.066-.573-.133-1.016-.2M6.249,153.75c.49-.386.985-.765,1.466-1.162a1.809,1.809,0,0,0,.273-.381c-.174.005-.39-.055-.516.026a19.786,19.786,0,0,0-1.624,1.157c-.154.123-.2.376-.3.569a3.387,3.387,0,0,0,.7-.209m183.842-46.957-.366-.547a4.61,4.61,0,0,0-.1.641c-.012.723-.016,1.448,0,2.171a1.5,1.5,0,0,0,.187.47c.091-.162.253-.32.26-.485.029-.7.012-1.4.012-2.249m-74.3,76.646a3.191,3.191,0,0,0-.426.279,1.555,1.555,0,0,0-.22.325c.157.059.363.213.463.161a9.615,9.615,0,0,0,1.3-.807c.1-.07.065-.31.093-.472a1.383,1.383,0,0,0-.526.009,3.474,3.474,0,0,0-.679.5m-10.157-78.287c-.074.074-.188.136-.213.223a6.569,6.569,0,0,0-.127.687,2.5,2.5,0,0,0,.483-.282c.381-.354.747-.726,1.1-1.1a1.025,1.025,0,0,0,.137-.327c-.126-.016-.294-.092-.37-.038-.327.234-.627.505-1.015.841M62.66,202.66a2.7,2.7,0,0,0,.572-.117,1.861,1.861,0,0,0,.4-.319c-.159-.115-.363-.358-.47-.321a4.859,4.859,0,0,0-.875.507.644.644,0,0,0,.375.25M115.554,100.7a3.919,3.919,0,0,0,.584-.289c.063-.044.043-.208.06-.317-.106-.011-.261-.071-.309-.023a1.527,1.527,0,0,0-.335.629m24.533-97.82c-.138-.13-.272-.265-.421-.38a1.966,1.966,0,0,0-.2.2A1.471,1.471,0,0,0,140.087,2.879Z" transform="translate(0 0)"></path><path d="M306.991,185.979c-1.437-.052-2.8-.109-4.154-.154-.689-.023-1.407-.51-1.3-.971a1.177,1.177,0,0,1,1.29-.908q5.821,0,11.641,0c1.615,0,3.23.02,4.844,0,2.192-.033,4.384-.112,6.576-.149,3.729-.062,7.457-.1,11.186-.161q3.64-.06,7.279-.157c1.307-.034,2.613-.106,3.92-.152,1.645-.057,3.29-.129,4.936-.153,4.51-.065,9.02-.127,13.53-.145a11.438,11.438,0,0,1,2.6.322c.528.122,1.047.46.933,1.175a1.4,1.4,0,0,1-1.451.83,15.424,15.424,0,0,0-5.59-.169,21.209,21.209,0,0,1-2.342.014c-1.771,0-3.542-.02-5.313.006-1.594.024-3.187.093-4.779.152-1.2.044-2.4.116-3.608.152-2.088.063-4.176.124-6.264.156q-6.374.1-12.749.157C321.141,185.882,314.105,185.927,306.991,185.979Z" transform="translate(-254.41 -154.426)"></path><path d="M816.948,727c-1.328,0-2.578-.02-3.827,0-1.671.033-3.341.15-5.012.142-5.419-.027-10.838-.11-16.258-.138-1.566-.008-3.133.089-4.7.148q-3.88.148-7.758.313c-.942.04-1.883.142-2.825.14a2.009,2.009,0,0,1-1.746-.649,1.047,1.047,0,0,1-.175-.823c.061-.184.427-.356.669-.374,1.777-.132,3.557-.227,5.336-.326,1.935-.108,3.875-.157,5.805-.323,5.939-.513,11.889-.255,17.834-.29,3.414-.02,6.829.1,10.244.135.707.007,1.414-.1,2.122-.142a1.439,1.439,0,0,1,.592.074c.564.223,1.17.519,1.078,1.225C818.241,726.781,817.572,726.859,816.948,727Z" transform="translate(-653.578 -611.531)"></path><path d="M912.616,608.978c-2.763.052-5.449.082-8.134.163-2.456.074-4.91.229-7.367.3-2.919.083-5.839.12-8.758.155-.524.006-1.049-.114-1.575-.142-.459-.024-1.055-.02-.992-.592a1.512,1.512,0,0,1,.888-.942,5.114,5.114,0,0,1,1.64-.186c1.722-.065,3.445-.092,5.166-.166,2.014-.086,4.026-.219,6.039-.3,2.793-.119,5.587-.237,8.382-.31,3.127-.081,6.255-.1,9.383-.165,2.061-.04,4.121-.1,6.182-.154a14.673,14.673,0,0,1,2.149-.016c.471.059,1.093.341.865.964a1.8,1.8,0,0,1-1.033.894,5.72,5.72,0,0,1-1.72.183c-2.893.064-5.787.1-8.68.167C914.265,608.844,913.48,608.926,912.616,608.978Z" transform="translate(-747.371 -511.794)"></path><path d="M780.144,327.72c-1.957.052-3.836.121-5.716.151-1.545.025-3.09.014-4.636,0-.5,0-1.086-.193-1-.736a1.431,1.431,0,0,1,.957-.937c1.374-.206,2.771-.264,4.161-.349,1.935-.119,3.872-.209,5.807-.318.786-.044,1.571-.126,2.357-.15,2.139-.065,4.279-.106,6.419-.162,1.827-.048,3.655-.09,5.482-.159,2.431-.091,4.861-.219,7.292-.3a28.282,28.282,0,0,1,3.305.019,1.015,1.015,0,0,1,1.035,1.218c-.119.728-.752.9-1.335.93-3.028.136-6.058.232-9.088.324-2.191.067-4.383.1-6.575.16-1.931.049-3.863.095-5.794.159C781.949,327.6,781.086,327.668,780.144,327.72Z" transform="translate(-648.651 -273.978)"></path><path d="M939.09,190.137c1.228-.052,2.378-.133,3.529-.145a9.226,9.226,0,0,1,2.04.168c.5.108,1.054.362.985,1.039-.078.761-.714.938-1.309.955-2.816.084-5.633.114-8.45.172q-3.171.066-6.341.157c-1.411.04-2.821.117-4.232.151-4.54.111-9.079.236-13.62.3a16.906,16.906,0,0,1-3.3-.334,1.212,1.212,0,0,1-.673-.909c-.047-.59.509-.756.994-.761,2.187-.022,4.375.01,6.562-.016,1.619-.019,3.238-.086,4.857-.153,2.223-.092,4.444-.218,6.667-.306,1.826-.072,3.654-.113,5.482-.159C934.524,190.237,936.768,190.189,939.09,190.137Z" transform="translate(-765.875 -160.302)"></path><path d="M781.143,477.85a18.372,18.372,0,0,1-2.117-.174.785.785,0,0,1-.661-1.079,1.385,1.385,0,0,1,.93-.745c1.323-.134,2.659-.147,3.99-.187,2.007-.061,4.015-.1,6.023-.16q2.5-.07,5.008-.156,2.231-.073,4.462-.157c1.253-.047,2.507-.157,3.759-.131a4.592,4.592,0,0,1,1.669.468,1.165,1.165,0,0,1,.5.707c.03.1-.274.372-.473.46a3.961,3.961,0,0,1-1.173.36c-.937.094-1.88.133-2.822.166-1.8.064-3.6.106-5.4.16q-2.5.075-5.008.156c-1.617.051-3.235.1-4.852.158C783.727,477.74,782.475,477.8,781.143,477.85Z" transform="translate(-656.682 -400.825)"></path><path d="M1007.776,467.75c-.762.117-1.483.212-2.207.269-.888.07-1.779.107-2.668.161-2.565.155-5.129.317-7.694.467-1.935.113-3.872.3-5.805.267a3.9,3.9,0,0,1-2.016-.907c-.407-.3.054-.655.373-.748a7.9,7.9,0,0,1,1.741-.318c1.512-.087,3.029-.1,4.542-.172,2.8-.141,5.6-.32,8.4-.461,2.4-.121,4.808-.21,7.212-.318a3.079,3.079,0,0,0,.745-.087,1.19,1.19,0,0,1,1.366.314c.153.185.267.663.172.745a2.607,2.607,0,0,1-1.231.717C1009.749,467.784,1008.778,467.711,1007.776,467.75Z" transform="translate(-832.959 -393.029)"></path><path d="M1046.463,324.016c-2.139.052-4.2.124-6.262.14a5.486,5.486,0,0,1-1.354-.3.624.624,0,0,1-.48-.876,1.222,1.222,0,0,1,.8-.655c1.142-.123,2.3-.127,3.447-.186,1.91-.1,3.818-.236,5.729-.3,1.413-.049,2.83-.023,4.244,0,.525.007,1,.16,1.069.807.081.741-.549.825-.98.881-1.3.171-2.618.234-3.929.336C1048.008,323.916,1047.274,323.964,1046.463,324.016Z" transform="translate(-876.06 -271.524)"></path><path d="M1078.326,724.831c.833,0,1.593-.051,2.341.019a4.015,4.015,0,0,1,1.3.432.827.827,0,0,1,.387,1.126,1.315,1.315,0,0,1-.943.585c-1.51.11-3.027.121-4.541.186-.578.025-1.158.165-1.731.139-1.52-.07-3.042-.156-4.549-.346-.316-.04-.7-.513-.806-.862-.059-.187.345-.686.626-.778a6.37,6.37,0,0,1,1.643-.185c1.306-.065,2.613-.1,3.918-.163C1076.73,724.948,1077.489,724.883,1078.326,724.831Z" transform="translate(-902.611 -611.552)"></path><path d="M785.906,607.927a11.432,11.432,0,0,1,2.108.192,1.274,1.274,0,0,1,.8.843c.031.245-.432.677-.762.813a4.778,4.778,0,0,1-1.652.327c-2.965.079-5.93.141-8.9.135a1.341,1.341,0,0,1-.939-.73c-.181-.412.5-1.015,1.118-1.109a3.773,3.773,0,0,1,.389,0c2.346-.1,4.693-.2,7.039-.317C785.353,608.066,785.59,607.979,785.906,607.927Z" transform="translate(-655.194 -512.932)"></path><path d="M780.682,187.045c-.479-.332-.715-.841-.468-1.223a1.7,1.7,0,0,1,1.177-.59c1.981-.157,3.967-.237,5.952-.334a4.346,4.346,0,0,1,2.876.766,3.407,3.407,0,0,1,.58.752,3.031,3.031,0,0,1-.8.343c-1.149.135-2.3.231-3.457.323-1.438.115-2.876.246-4.317.3A5.668,5.668,0,0,1,780.682,187.045Z" transform="translate(-658.213 -155.999)"></path><path d="M447.715,48.332a4.022,4.022,0,0,1-1.5-4.1,3.638,3.638,0,0,1,2.678-2.812,5.028,5.028,0,0,1,4.9.936c.517.387,1.213.549,1.691.969a2.653,2.653,0,0,1,.746,2.454,4.056,4.056,0,0,1-.91,2.363c-1.138,1.317-2.678,1.371-4.228,1.2a17.679,17.679,0,0,1-2.56-.59,3.744,3.744,0,0,1-.816-.421m5.508-3.867a3.328,3.328,0,0,0-2.056-1.413,1.822,1.822,0,0,0-2.006.482,1.551,1.551,0,0,0-.14,1.929,4.2,4.2,0,0,0,1.144,1.219,4.251,4.251,0,0,0,1.595.649,1.521,1.521,0,0,0,1.769-.551A2.3,2.3,0,0,0,453.223,44.465Z" transform="translate(-376.421 -34.71)"></path><path d="M376.919,47.045a6.659,6.659,0,0,1-5.6-.115,3.575,3.575,0,0,1-1.062-5.4,4.269,4.269,0,0,1,2.905-1.814,4.118,4.118,0,0,1,1.473.142c.692.194,1.337.556,2.03.743a2.987,2.987,0,0,1,2.3,2.667,3.366,3.366,0,0,1-2.048,3.772M375.4,43.412c-.673-1.557-1.46-2.009-2.653-1.346-.776.431-.657,1.081-.619,1.718.084,1.4.8,2,1.967,1.737C375.365,45.231,375.83,44.536,375.4,43.412Z" transform="translate(-311.72 -33.501)"></path><path d="M304.225,39.679a8.753,8.753,0,0,1,2.015-.717c1.752-.209,3.214,1.009,3.806,2.868a6,6,0,0,1,.145,3.473,3.17,3.17,0,0,1-1.613,1.889,5.653,5.653,0,0,1-3.634.772,3.487,3.487,0,0,1-2.812-2.887c-.312-1.184-.625-2.566.27-3.7a16.294,16.294,0,0,1,1.824-1.7M305.2,41.2c-.417.391-1.027.707-1.212,1.187a2.532,2.532,0,0,0,.895,3.214c.837.627,2.676.539,3.26-.321.737-1.084.386-3.84-1.125-4.14A5.962,5.962,0,0,0,305.2,41.2Z" transform="translate(-254.652 -32.854)"></path><path d="M383.753,306.99c-1.145,0-2.213.018-3.28,0-1.905-.038-3.812-.061-5.713-.173a4.978,4.978,0,0,1-2.039-.517.687.687,0,0,1,.226-1.31,18.343,18.343,0,0,1,2.7-.083c1.286-.008,2.573.006,3.859,0,.246,0,.492-.094.738-.095,2.03-.008,4.063-.064,6.091.01,2.593.095,5.182.293,7.772.46a1.794,1.794,0,0,1,.99.216,1.314,1.314,0,0,1,.478,1,1.128,1.128,0,0,1-.876.621c-1.383.019-2.768-.1-4.152-.119C388.308,306.971,386.069,306.99,383.753,306.99Z" transform="translate(-314.139 -257.154)"></path><path d="M397.074,1026.17a17.3,17.3,0,0,1-.147,2.623c-.057.34-.428.867-.694.891-1.506.136-3.024.175-4.537.169a1.01,1.01,0,0,1-.787-.562,2.222,2.222,0,0,1,.318-1.09,3.639,3.639,0,0,1,.4-.6,2.683,2.683,0,0,0-.767-.208c-2.273.085-4.546.2-6.818.3-.384.018-.624,0-.4.574.286.721-.187,1.223-1.007,1.3-1.446.144-2.886.355-4.335.451-1.128.075-1.471-.233-1.817-1.325a3.728,3.728,0,0,1,1.7-4.435,15.337,15.337,0,0,1,6.9-2.194,37.389,37.389,0,0,1,4.149-.13c2.531.181,4.992.7,6.85,2.643a9.821,9.821,0,0,1,.991,1.589M380,1024.881a3.607,3.607,0,0,0-2.151,1.711,2.23,2.23,0,0,0-.3,1.413c.157.6.819.472,1.329.471,1.1,0,2.2.007,3.3-.019.072,0,.222-.29.188-.4-.065-.2-.278-.352-.361-.552-.263-.634-.04-1.051.55-1.063,2.606-.055,5.213-.1,7.819-.164.24-.006.483-.16.715-.138a3.272,3.272,0,0,1,1.634.323c.239.194.138,1-.032,1.455-.217.577.059.568.428.549.734-.038,1.469-.077,2.2-.168.191-.024.495-.225.51-.371a3.267,3.267,0,0,0-.089-1.2,3.952,3.952,0,0,0-2.785-2.566,24.585,24.585,0,0,0-5.135-.968,15.74,15.74,0,0,0-2.911.272A15.939,15.939,0,0,0,380,1024.881Z" transform="matrix(-0.799, 0.602, -0.602, -0.799, 995.454, 750.41)"></path></g></g></svg>