<svg xmlns="http://www.w3.org/2000/svg" width="253.159" height="289.31" viewBox="0 0 253.159 289.31"><defs><style>.a{fill:#255959;}.a,.b,.c,.d{stroke:#707070;}.b{fill:#f28f84;}.c{fill:#d5a124;}.d{fill:#d5a116;}</style></defs><g transform="translate(-164 -1941.451)"><path class="a" d="M-3371.122,2754.135l-5.726,41.313,36.53,14.179,3.244-9.547,11.617-14.08-13.228-1.915-4.9-5.883v-9.311Z" transform="translate(3630 -699)"></path><path class="b" d="M-3327.152,2675.145c1.121-.28,19.728-16.862,19.728-16.862l42.591,21.9-4.48,4.91-23.582,10.342-12.8-8.21-24.111-10.982Z" transform="translate(3630 -699)"></path><path class="b" d="M-3460.155,2751.628s26.351,9.424,35.707,17.007,8.706-17.007,8.706-17.007v-26.294l-10.835-4.991-11.132,13.973-8.81-24.5-10.42-7.645Z" transform="translate(3630 -699)"></path><path class="c" d="M-3426.865,2829.634h11.621l32.189,20.33v49.022l-11.217-4.325-8.85,10.58-12.123-26.143-14.471-7.478Z" transform="translate(3630 -699)"></path><path class="a" d="M-3401.711,2671.1l23.786-14.117,36.25,17.68-6.75,12.905-15.955,7.992-13.545-3.733-19.906-13.373-9.965-3.792Z" transform="translate(3630 -699)"></path><path class="b" d="M173.831,209.785l34.14-20.6,2.7,47.591-32.431,23.8Z" transform="translate(164 1941.451)"></path><path class="d" d="M173.831,209.785l38.716-20.6,3.059,47.591-36.778,23.8Z" transform="translate(193 1817.451)"></path><path d="M247.572,212.184a3.214,3.214,0,0,1-4.414,1.427,1.481,1.481,0,0,0-2.071.336c-1.608,1.7-3.216,3.412-4.969,4.955-2.024,1.781-4.2,3.393-6.317,5.064-2.248,1.772-4.6,3.43-6.745,5.315-2.72,2.387-5.211,5.034-7.932,7.42-3.255,2.854-6.574,5.649-10,8.291-4.148,3.2-8.407,6.255-12.678,9.288s-8.621,5.957-12.929,8.94a1.975,1.975,0,0,0-1.012,2.019,2.407,2.407,0,0,1-1.213,2.434,1.718,1.718,0,0,1-2.233-.324c-.246-.231-.814-.526-.909-.439a2.156,2.156,0,0,0-.721,1.163,2.523,2.523,0,0,1-3.331,2.33,3.045,3.045,0,0,0-2.472.4c-3.99,2.3-7.967,4.62-11.964,6.907a51.226,51.226,0,0,1-10.592,4.55,22.948,22.948,0,0,1-8.01.981c-.649-.037-1.05.217-1.156.747-.294,1.47-1.95,1.725-3.146,1.181-1.467-.668-2.9-1.407-4.346-2.125-.7-.349-1.17-.38-1.376.591a21.6,21.6,0,0,1-1,3.42c-.735,1.867-2.423,2.984-4.185,1.7a4.452,4.452,0,0,1-1.5-2.558c-.448-2.267-.586-4.594-.939-6.883a1.76,1.76,0,0,0-.853-1.142c-3.418-1.612-6.86-3.172-10.31-4.715q-4.138-1.851-8.309-3.627c-3.533-1.51-7.094-2.957-10.615-4.5-1.868-.816-3.691-1.739-5.506-2.669-2.641-1.354-5.263-2.747-7.878-4.151-.694-.373-1.156-.3-1.431.471-.665,1.858-1.351,3.708-1.985,5.576a18.191,18.191,0,0,1-3.33,6.5c-1.43,1.6-3.219,2.7-5.609,2.01a1.944,1.944,0,0,0-1.469.483,2.763,2.763,0,0,1-4.54-.851,59.981,59.981,0,0,1-4.022-10.49c-1.277-3.922-2.5-7.868-3.553-11.855a63.956,63.956,0,0,1-1.149-6.886,12.1,12.1,0,0,0-.278-2.661,4.859,4.859,0,0,0-1.687-2.086c-2.035-1.377-4.152-2.64-6.3-3.84a3.085,3.085,0,0,0-1.9-.189,2.149,2.149,0,0,1-2.634-1.234,4.151,4.151,0,0,0-1.983-1.829c-3.4-1.753-6.763-3.586-10.15-5.369a1.142,1.142,0,0,0-.881-.135c-1.884,1.054-3.343-.055-4.835-.914-3.724-2.145-6.574-5.308-9.573-8.294-.287-.286-.448-.739-.775-.935a1.549,1.549,0,0,0-1.2-.226c-2.2,1.031-3.88.442-4.5-1.867a51.176,51.176,0,0,1-1.478-7.164,76.159,76.159,0,0,1-.453-8.457Q.06,172.929,0,147.591c-.008-2.921.121-5.842.206-8.763.052-1.784.126-3.568.213-5.351.131-2.714.26-5.429.43-8.142.188-3.006.409-6.01.638-9.013.2-2.579.416-5.156.638-7.734q.306-3.548.64-7.094c.2-2.188.427-4.373.637-6.561q.325-3.386.641-6.774c.213-2.258.438-4.515.637-6.774.227-2.577.521-5.152.608-7.734.05-1.5-.32-3.008-.354-4.515a4.471,4.471,0,0,1,.628-1.643c.263-.6.559-1.19.825-1.791.226-.51.431-1.03.642-1.547.57-1.4,1.131-2.8,1.711-4.2a8.851,8.851,0,0,1,.643-1.332,22.23,22.23,0,0,1,6.9-7.206c3.416-2.154,6.749-4.445,10.208-6.526,2.4-1.443,4.983-2.571,7.422-3.949q5.541-3.13,10.992-6.419c3.821-2.3,7.583-4.689,11.395-7q5.364-3.249,10.785-6.406c2.515-1.459,5.079-2.835,7.631-4.23,3.1-1.695,6.186-3.419,9.323-5.043,4.006-2.074,8-4.183,12.106-6.047,3.674-1.669,7.452-3.134,11.259-4.475A26.406,26.406,0,0,1,113.033.25a30.268,30.268,0,0,1,5.239-.214,39.6,39.6,0,0,1,11.185,1.811c3.62,1.287,7.222,2.647,10.752,4.163,3.11,1.336,6.115,2.92,9.156,4.415,5.937,2.919,11.882,5.822,17.795,8.789,4.389,2.2,8.737,4.486,13.1,6.745q7.113,3.684,14.217,7.387c3.219,1.668,6.418,3.375,9.676,4.965,4.136,2.018,8.315,3.952,12.49,5.891q6.081,2.824,12.193,5.579c3.955,1.778,7.952,3.464,11.884,5.291a9.408,9.408,0,0,1,2.291,1.879c.46.439.712.528,1.29.077,1.408-1.1,2.6-1.31,3.631-.324a2.321,2.321,0,0,1,.085,3.347c-.614.744-.557,1.124-.006,1.981a20.352,20.352,0,0,1,2.342,5.088,35.154,35.154,0,0,1,1.292,6.5c.354,3.416.549,6.855.657,10.29.152,4.838.169,9.681.232,14.522.078,6.049.134,12.1.219,18.148.05,3.561.171,7.122.2,10.683q.134,14.833.207,29.666c.011,2.743-.1,5.488-.208,8.23-.113,3-.263,6-.425,8.995-.116,2.147-.262,4.292-.426,6.435q-.292,3.816-.639,7.627c-.195,2.153-.428,4.3-.635,6.454-.289,3.01-.465,6.036-.884,9.027-.406,2.9-.674,5.864-2.37,8.488M81.895,63.677c1.4-.83,2.795-1.664,4.2-2.489,1.8-1.059,3.6-2.119,5.412-3.157.44-.252.58-.463.13-.83a57.572,57.572,0,0,0-4.483-3.619,48.013,48.013,0,0,0-4.826-2.488c-2.732-1.386-5.469-2.763-8.191-4.166-1.7-.877-3.367-1.822-5.073-2.689-2.612-1.328-5.194-2.731-7.882-3.884-2.322-1-2.92-2.016-1.934-4.167a.542.542,0,0,0-.02-.481.508.508,0,0,0-.478-.055c-.469.249-.9.578-1.367.824-3.418,1.786-6.891,3.475-10.255,5.357Q39.32,46.2,31.636,50.784c-5.429,3.222-10.8,6.536-16.192,9.825a4.023,4.023,0,0,0-.715.744c.268.126.537.25.8.378a1.434,1.434,0,0,1,.435.23A43.71,43.71,0,0,1,20,66.359a34.287,34.287,0,0,1,4.7,10.3c1.184,4.038,2.158,8.138,3.234,12.208a2.092,2.092,0,0,0,.312.51,1.625,1.625,0,0,0,.312-.4c.165-.466.254-.962.441-1.417,1.9-4.632,5.058-8.356,8.6-11.79a2.522,2.522,0,0,1,3.107.051,1.623,1.623,0,0,0,1.755.448,3.14,3.14,0,0,1,1.493.043c.963.192,1.843.7,2.923.313A2.745,2.745,0,0,1,48.7,76.8c1.783.761,3.537,1.6,5.265,2.477a2.586,2.586,0,0,0,2.693.037c1.769-1.052,3.55-2.085,5.3-3.17,6.618-4.111,13.224-8.24,19.941-12.468M58.752,251.27c1.307,2.657,2.609,5.317,3.927,7.968a2.956,2.956,0,0,0,.488.564c.128-.219.269-.431.38-.658.144-.295.238-.615.4-.9a32.372,32.372,0,0,1,4.638-6.411,2.476,2.476,0,0,1,3.987.029,1.793,1.793,0,0,0,1.633.719,3.021,3.021,0,0,1,1.613.436c1.236.835,2.382,1.8,3.59,2.68a10.057,10.057,0,0,0,1.309.694c-.033-.451-.068-.9-.1-1.352a3.67,3.67,0,0,1,0-.426c.069-1.321.158-2.641.209-3.963.085-2.209.166-4.418.213-6.628.086-4.128.21-8.256.2-12.384-.011-5.941-.11-11.881-.227-17.821a2.614,2.614,0,0,0-.688-1.5,2.766,2.766,0,0,1-.814-1.928,1.5,1.5,0,0,0-.65-1.105c-2.654-1.469-5.319-2.924-8.033-4.278-3.029-1.512-6.142-2.855-9.165-4.377-4.738-2.386-9.423-4.876-14.151-7.279a4.328,4.328,0,0,0-2.231-.63c-1.113.127-2.351,2.053-2.423,3.278-.126,2.145-.3,4.288-.417,6.433-.163,3.032-.251,6.068-.444,9.1-.153,2.4-.421,4.8-.626,7.2a21.244,21.244,0,0,1-2.222,8.037c-.667,1.3-.074,2.475,1.244,3.193,2.295,1.248,4.584,2.508,6.83,3.84,1.664.987,3.272,2.073,4.869,3.169a2.9,2.9,0,0,1,.99,1.159c1.879,4.338,3.716,8.695,5.671,13.153m85.212-8c-1.508-2.005-3.055-3.983-4.513-6.024-1.579-2.21-3.142-4.439-4.575-6.744-.543-.873-1.173-.6-1.759-.455a31.653,31.653,0,0,0-3.763,1.2,1.377,1.377,0,0,0-.717.937,33.176,33.176,0,0,0-.238,3.426c-.089,2.884-.211,5.769-.2,8.654.009,3.844.163,7.688.189,11.533q.053,7.942-.011,15.885c-.012,1.328-.295,2.652-.4,3.982a15.345,15.345,0,0,0,.022,2.376c.013.165.375.3.576.453a2.43,2.43,0,0,0,.228-.751c-.016-.47-.178-.936-.187-1.4a2.207,2.207,0,0,1,1.522-2.247c.856-.158,1.685.563,2.113,1.678a4.442,4.442,0,0,0,.96,1.512,6.222,6.222,0,0,0,4.734,1.877,22.347,22.347,0,0,0,5.357-.93,49.547,49.547,0,0,0,11.6-4.934c2.38-1.443,4.808-2.809,7.2-4.231,2-1.188,4.005-2.367,5.949-3.641a3.654,3.654,0,0,0,1.268-1.57c1.056-2.512,1.851-5.148,3.081-7.566a5.784,5.784,0,0,0,.545-3.535c-.346-2.783-.88-5.542-1.238-8.324-.294-2.282-.523-4.579-.639-6.877-.2-4.06-.3-8.126-.446-12.189-.011-.311-.04-.621-.069-.931-.117-1.266-.238-2.531-.356-3.8-.02-.219-.03-.438-.045-.658-.289.034-.641-.027-.856.117-1.451.976-2.9,1.957-4.29,3.02a3.174,3.174,0,0,0-1.173,1.5c-.72,2.77-1.279,5.582-1.965,8.362-1.033,4.186-2.058,8.377-3.225,12.527a5.952,5.952,0,0,1-2.909,3.644,7.563,7.563,0,0,0-1.526,1.163c-.646.618-1.332,1.232-2.253.909a4.792,4.792,0,0,1-1.839-1.191c-2.054-2.182-4.039-4.43-6.156-6.76M50.86,139.716a12.156,12.156,0,0,0-.312,1.362c-.232,2.007-.474,4.014-.639,6.027-.249,3.037-.426,6.08-.653,9.118-.12,1.613-.219,3.232-.436,4.834-.377,2.78-.771,5.562-1.287,8.319-.459,2.454-1.047,4.887-1.665,7.306-.449,1.757-1.136,3.455-1.538,5.22a30.239,30.239,0,0,0-.6,4.551c-.093,1.3.454,1.579,1.705,1.5a21.11,21.11,0,0,1,5.779.032,50.919,50.919,0,0,1,15.1,6.494c4.579,2.75,8.979,5.8,13.466,8.7a6.221,6.221,0,0,0,1.025.433c.077-.359.156-.718.23-1.077a6.7,6.7,0,0,0,.206-1.085c.087-2.458.138-4.918.227-7.376.037-1.038.146-2.074.206-3.111q.327-5.679.639-11.359c.088-1.64.135-3.283.22-4.923.061-1.177.171-2.352.226-3.529a11.318,11.318,0,0,0-.006-2.293c-.478-2.973-2.269-5.288-3.986-7.62-1.571-2.134-3.13-4.286-4.846-6.3a25.724,25.724,0,0,0-3.893-3.673c-1.252-.962-2.753-1.592-4.088-2.454-4.128-2.664-8.2-5.411-12.363-8.023-.782-.491-1.423-1.519-2.721-1.074M182.89,255.749c2.76-1.92,5.532-3.823,8.276-5.764,2.37-1.676,4.735-3.361,7.056-5.1,2.829-2.125,5.616-4.306,8.406-6.483a1.792,1.792,0,0,0,.91-1.866,14.976,14.976,0,0,1-.222-1.936c-.151-1.967-.318-3.933-.423-5.9-.168-3.139-.408-6.28-.41-9.421q-.005-10.833.22-21.666a12.075,12.075,0,0,0-.86-4.348c-.245-.693-.419-.823-1.052-.386-1.373.947-2.779,1.85-4.2,2.722-3.229,1.978-6.5,3.894-9.713,5.9-4.47,2.783-8.909,5.618-13.354,8.441-.994.631-1.836,1.334-1.6,2.75a4.227,4.227,0,0,1-.353,1.541,3.109,3.109,0,0,0-.237.96c.181,1.87.448,3.732.615,5.6.248,2.788.437,5.581.649,8.372.144,1.9.293,3.792.425,5.689.152,2.18.289,4.361.428,6.542.216,3.4.4,6.793.651,10.185.157,2.12.406,4.233.654,6.345.015.128.48.358.565.3,1.137-.8,2.243-1.637,3.57-2.467m47.992-141.2c2.5-1.422,4.993-2.868,7.516-4.253a13,13,0,0,1,2.885-1.251c.71-.187,1.044-.416,1.013-1.145-.08-1.889-.155-3.779-.214-5.668-.081-2.6-.142-5.2-.217-7.8q-.1-3.474-.214-6.948c-.066-2-.132-3.993-.214-5.988-.134-3.246-.286-6.492-.423-9.738-.078-1.854-.141-3.708-.218-5.562a6.694,6.694,0,0,0-.1-.7,4.082,4.082,0,0,0-.587.378c-1.756,1.6-3.438,3.293-5.271,4.8-2.334,1.918-4.73,3.773-7.207,5.5-3.013,2.1-6.106,4.092-9.222,6.039-4.339,2.712-8.742,5.322-13.083,8.03-.389.243-.749,1.348-.749,1.348s.095,1.073.179,1.611c.423,2.7.936,5.394,1.254,8.108.321,2.742.514,5.5.647,8.262.146,3.023.159,6.052.23,9.079a4.684,4.684,0,0,0,0,.533,1.831,1.831,0,0,0,1.066,1.681,2.6,2.6,0,0,1,1.462,2.342c.119,1.173.014,2.367.04,3.551a2.661,2.661,0,0,0,.249.745c.222-.111.451-.21.663-.337.23-.138.437-.313.665-.455,3.98-2.487,7.948-4.994,11.948-7.447,2.572-1.577,5.193-3.073,7.9-4.712m-39.78,81.8q6.122-3.883,12.247-7.762a2.412,2.412,0,0,0,1.263-2.735,88.227,88.227,0,0,1-.678-10.495c-.033-8.215.1-16.432.188-24.647.016-1.464.147-2.926.2-4.39q.124-3.26.211-6.522c.026-1.049-.252-1.24-1.162-.705-1.55.91-3.038,1.925-4.585,2.84a2.694,2.694,0,0,0-1.352,1.779c-.507,2.022-1.091,4.024-1.641,6.035-1.057,3.863-2.043,7.747-3.2,11.579-.48,1.591-1.351,3.062-1.99,4.61-.276.668-.364,1.412-.631,2.084-.215.541-.575,1.169-1.282.891-.616-.242-.734-.827-.464-1.484a9.782,9.782,0,0,0,.589-1.883c.055-.291-.157-.631-.248-.95a6.784,6.784,0,0,0-.525.478c-.384.427-.773.723-1.326.245a10.322,10.322,0,0,1-1.03-.845c-1.425-1.6-2.807-3.248-4.235-4.85-1-1.126-2.065-2.2-3.076-3.318a1.716,1.716,0,0,1-.279-.731,4.083,4.083,0,0,1-.058-.653,2.934,2.934,0,0,0-.724.2c-1.81,1.042-3.59,2.137-5.418,3.144a1.67,1.67,0,0,0-1.061,1.944c.361,1.842.762,3.678,1.057,5.531.469,2.944.917,5.894,1.275,8.853.293,2.425.469,4.866.65,7.3.239,3.215.492,6.431.63,9.651.144,3.344.147,6.693.236,10.04.031,1.18.1,2.361.225,3.535a4.083,4.083,0,0,0,.451,1.087c.3-.184.593-.37.892-.55.141-.085.295-.151.433-.241,2.883-1.879,5.744-3.792,8.653-5.629,1.849-1.167,3.768-2.223,5.762-3.435M20.359,113.908c2.989,1.709,6.05,3.305,8.948,5.157,3.507,2.24,6.887,4.68,10.3,7.066,1.317.921,2.58,1.99,4.326,1.608a1.875,1.875,0,0,0,1.227-.965,13.714,13.714,0,0,0,.469-2.793c.231-1.936.412-3.877.65-5.811.261-2.124.595-4.24.838-6.366.192-1.677.274-3.366.441-5.046.275-2.755.831-5.5.419-8.284-.415-2.811-.909-5.611-1.243-8.431-.108-.911-.37-1.979.479-2.767.486-.451.388-.6-.193-.92-1.948-1.067-3.827-2.259-5.758-3.359-.914-.52-1.229-.317-1.61.729-.28.77-.629,1.517-.976,2.261a23.032,23.032,0,0,0-1.743,3.75,23.185,23.185,0,0,1-3.241,7.089c-1.263,1.9-2.316,2.176-4.282,1.093a3.012,3.012,0,0,0-1.1-.418,3.232,3.232,0,0,1-3.156-2.614c-.448-1.767-.9-3.533-1.386-5.291-.947-3.444-1.917-6.883-2.877-10.324a37.933,37.933,0,0,0-4.057-9.941c-.952-1.537-1.819-3.136-3.507-4.068-1.062-.586-2.076-.467-2.229.49-.479,3.014-.99,6.031-1.256,9.067-.163,1.869.166,3.776.155,5.666-.019,3.347-.185,6.694-.183,10.041,0,3.6.117,7.192.2,10.788.053,2.281.1,4.564.243,6.84a1.957,1.957,0,0,0,.752,1.445c3.05,1.462,6.153,2.814,9.347,4.308m123.391,3.946c4.194-2.061,8.4-4.1,12.577-6.193,1.8-.9,3.524-1.954,5.321-2.862,2.554-1.291,5.146-2.506,7.711-3.775.183-.091.277-.36.413-.547a1.654,1.654,0,0,0-.638-.148,1.5,1.5,0,0,0-.694.366c-1.316,1.22-2.272,1.176-3.605-.08-1.109-1.046-2.24-2.08-3.445-3.011-2.115-1.632-4.246-3.25-6.457-4.747-3.429-2.323-6.844-4.689-10.428-6.754-2.81-1.619-5.873-2.8-8.808-4.2-1.265-.606-2.378-.891-3.6.245a27.328,27.328,0,0,1-3.376,2.367c-3.771,2.565-7.567,5.094-11.31,7.7-4.2,2.926-8.353,5.925-12.53,8.886-1.345.953-1.342.926.1,1.774,2.518,1.479,5.013,3,7.532,4.473a56.121,56.121,0,0,1,13.158,9.954,6.241,6.241,0,0,0,1.322.912,20.1,20.1,0,0,0,2.142,1.265,2.688,2.688,0,0,0,1.706.394c1.911-.694,3.781-1.514,5.623-2.378,2.413-1.132,4.785-2.35,7.282-3.638m-27.3,46.5c1.787.578,3.57,1.169,5.362,1.73,1.135.355,1.75-.047,1.658-1.184a7.877,7.877,0,0,1,1.386-4.657,51.235,51.235,0,0,1,7.969-9.928c.634-.644,1.227-1.331,1.8-2.029.118-.143.172-.527.077-.626-.832-.856-1.541-1.832-3-1.786a35.59,35.59,0,0,1-5.24-.209,6.769,6.769,0,0,1-5.084-3.537A7.481,7.481,0,0,1,120.276,138a52.069,52.069,0,0,1,.094-5.241c.245-1.77.271-2.1-1.169-2.984-3.345-2.053-6.7-4.092-10.02-6.187q-6.263-3.953-12.469-8c-.563-.365-.688-.066-.731.358-.164,1.61-.276,3.224-.44,4.834-.194,1.9-.389,3.809-.644,5.706-.32,2.381-.731,4.75-1.049,7.132-.258,1.932-.423,3.876-.652,5.812q-.516,4.367-1.067,8.729c-.122.974-.27,1.946-.426,2.916-.268,1.67.019,2.273,1.3,2.844,4.5,2.012,8.983,4.056,13.488,6.054,3.272,1.452,6.569,2.85,9.961,4.378m17.81,58.55a13.134,13.134,0,0,1,1.551-.63c2.465-.664,4.953-1.243,7.4-1.949a4.831,4.831,0,0,1,4.544.971,15.054,15.054,0,0,1,4.084,5.438c1.57,3.274,3.186,6.54,3.661,10.215.029.228.367.415.561.622a2.911,2.911,0,0,0,.263-.635,37.115,37.115,0,0,1,.675-4.31c1.467-5.172,2.565-10.458,4.662-15.442,1.024-2.434,2.381-4.447,5.323-4.765.385-.042.771-.492,1.07-.829,1.151-1.3.69-2.882.62-4.346-.1-2.152-.661-4.308.409-6.384a1.794,1.794,0,0,0,.242-.956c-.174-1.444-.423-2.879-.619-4.321q-.446-3.285-.852-6.576c-.166-1.36-.274-2.726-.434-4.087-.272-2.3-.6-4.594-.839-6.9-.194-1.855-.251-3.723-.447-5.578-.319-3.019-.713-6.03-1.049-9.048-.1-.908-.3-1.065-1.169-.646-.978.474-1.931,1-2.9,1.495-2.816,1.437-5.639,2.859-8.451,4.3-3.692,1.9-7.325,3.921-11.078,5.688-3.025,1.424-6.2,2.528-9.285,3.831a1.584,1.584,0,0,0-.8,1.01,33.13,33.13,0,0,0-.451,3.549c-.235,2.788-.464,5.577-.638,8.37-.18,2.888-.344,5.779-.423,8.671-.118,4.3-.143,8.611-.23,12.917-.042,2.068-.137,4.134-.208,6.2,0,.106.007.214,0,.32q-.211,2.737-.426,5.473c-.046.579.249.537.633.358,1.46-.68,2.92-1.357,4.594-2.035m28.9-100.569c-.213-1.867-.467-3.731-.623-5.6-.077-.93-.54-.689-1.008-.436-2.586,1.4-5.11,2.922-7.753,4.2-4.228,2.048-8.486,4.052-12.822,5.855-2.82,1.173-5.8,1.971-8.714,2.9a1.837,1.837,0,0,0-1.452,1.33c-.3,1.148-.818,2.25-1.011,3.41-.273,1.646-.412,3.343,1.176,4.553.975.743,1.9,1.563,2.921,2.234a2.685,2.685,0,0,0,1.626.4c2.058-.215,4.1-.661,6.157-.792a2.568,2.568,0,0,1,2.408,3.985,22.6,22.6,0,0,1-1.929,2.406c-.348.448-.92.961-.894,1.416.094,1.6-.781,2.743-1.522,3.98-1.67,2.79-3.275,5.619-5,8.378-1.25,2.005-2.924,3.774-2.937,6.363-.011,2.211-.138,4.421-.169,6.633,0,.142.535.436.558.411a15.7,15.7,0,0,0,1.118-1.338c.436-.579.724-1.374,1.292-1.728,1.963-1.222,3.992-2.345,6.048-3.407a31.528,31.528,0,0,0,7.039-5.142,73.525,73.525,0,0,0,10.013-11.532,35.431,35.431,0,0,0,4.632-8.528,39.139,39.139,0,0,0,1.668-10.6,32.93,32.93,0,0,0-.191-4.069c-.056-.931-.107-1.865-.22-2.79-.093-.765-.274-1.519-.417-2.491M103.971,50.559c3.143-1.849,6.268-3.73,9.435-5.537a19.877,19.877,0,0,0,7.741-8.033c.264-.489.3-.874-.2-1.242-1.092-.808-2.136-1.682-3.25-2.457a42.724,42.724,0,0,0-9.625-5.322c-3.15-1.154-6.327-2.261-9.55-3.186-2.97-.853-6-1.529-9.04-2.093-1.176-.218-2.342-.773-3.694-.106-8.2,4.044-16.446,7.985-24.672,11.971a2.707,2.707,0,0,0-.552.493,2.392,2.392,0,0,0,.653.146,19.735,19.735,0,0,1,6.955.727,34.812,34.812,0,0,1,10,4.9c3.062,2.153,5.918,4.6,8.884,6.891A9.408,9.408,0,0,0,89.4,49.246c2.534.928,5.107,1.757,7.7,2.516a7.3,7.3,0,0,0,3.3.426,21.4,21.4,0,0,0,3.573-1.63m65.908,1.28a19.6,19.6,0,0,0,2.115.808,2.419,2.419,0,0,0,1.5.02c6.667-3.129,13.291-6.349,19.973-9.446,1.872-.868,3.679-2.037,5.868-2.058a.405.405,0,0,0,.277-.287.459.459,0,0,0-.238-.333c-1.328-.652-2.671-1.275-4-1.93-3.187-1.573-6.386-3.124-9.546-4.751-2.377-1.224-4.684-2.584-7.054-3.824-2.713-1.419-5.467-2.76-8.192-4.158-3.255-1.67-6.492-3.372-9.748-5.039a1.231,1.231,0,0,0-1.669.323,32.715,32.715,0,0,1-2.119,2.528c-1.283,1.3-2.583,2.6-3.984,3.765-2.226,1.856-4.525,3.626-6.825,5.392-1.608,1.234-3.275,2.391-4.891,3.614a.709.709,0,0,0-.037.635,19.837,19.837,0,0,0,2.213,1.084c3.93,1.58,7.873,3.13,11.805,4.7.867.347,1.735.984,2.676.529a3.043,3.043,0,0,1,3.834.873c.877.947,1.32,2.321,2.253,3.185,1.734,1.6,3.207,3.62,5.785,4.367m-37.647-9.065c-.324.249-.637.514-.973.744q-6.395,4.383-12.8,8.757c-2.6,1.779-5.217,3.543-7.812,5.334-.189.13-.262.428-.389.648a3.794,3.794,0,0,0,.616.186,4.006,4.006,0,0,1,.742.018c4.061,1.429,8.272,2.471,12.073,4.578,2.576,1.428,5.208,2.783,7.655,4.411a59.281,59.281,0,0,1,5.5,4.491c.986.843,1.818,1.006,2.637.488,3.773-2.382,7.462-4.925,11.384-7.033a10.556,10.556,0,0,0,5.6-6.577,30.506,30.506,0,0,0,1.1-5.292c.192-1.888-.089-3.677-2.3-4.492a31.293,31.293,0,0,1-2.846-1.623c-3.094-1.536-6.177-3.1-9.332-4.5-2.128-.946-4.358-1.67-6.569-2.414a1.862,1.862,0,0,0-1.357.237c-.979.585-1.89,1.284-2.934,2.044M34.543,225.355a28.263,28.263,0,0,1-1.692-9.211c-.077-2.13.013-4.265-.04-6.4a1.452,1.452,0,0,0-.553-1.1c-1.861-.9-3.749-1.757-5.667-2.531a88.205,88.205,0,0,1-13.3-6.486,2.638,2.638,0,0,1-1.1-1.448,10,10,0,0,1-.047-2.371c0-3.353-.01-6.706.01-10.059,0-.574-.075-1.026-.679-1.244-.546-.2-1.122-.544-.754-1.154.162-.269.906-.228,1.39-.251.4-.019.893.241,1.2.089a4.394,4.394,0,0,1,4.031.049c3.674,1.774,7.359,3.532,10.97,5.43,1.853.974,3.567,2.217,5.321,3.374.686.453.838.325.93-.482.191-1.673.464-3.343.813-4.99.326-1.535.251-2.23-.66-2.836-2.2-1.462-4.445-2.853-6.615-4.356q-5.274-3.652-10.467-7.42c-2.689-1.957-5.3-4.021-7.975-6a1.084,1.084,0,0,0-.889.1,11.744,11.744,0,0,0-.246,2.142c-.088,3.738-.152,7.476-.221,11.214-.074,4.022-.2,8.045-.2,12.067.008,5.266.16,10.532.173,15.8a5.461,5.461,0,0,0,.908,3.25,4.621,4.621,0,0,0,2.018,1.842,3.509,3.509,0,0,1,2.53,1.806,6.345,6.345,0,0,0,2.545,2.767c5.516,3.621,11.46,6.465,17.257,9.575a13.356,13.356,0,0,0,1.4.566c-.134-.506-.267-1.012-.4-1.732m179.382-28.582c-.071.077-.2.15-.205.233-.294,3.116-.723,6.228-.821,9.351-.105,3.342.107,6.693.172,10.04.076,3.916.162,7.832.2,11.748.011,1.072-.164,2.144-.182,3.217a4.182,4.182,0,0,0,.31,1.138l.739-.747c.075-.076.148-.154.227-.226q3.976-3.658,7.95-7.318c.621-.575,1.23-1.169,1.791-1.8a12.327,12.327,0,0,1,1.232-1.6c1.776-1.411,3.636-2.715,5.439-4.094,1.545-1.182,3.094-2.365,4.568-3.633,1.043-.9,1.929-1.976,2.954-2.9a5.733,5.733,0,0,1,2-1.307,1.084,1.084,0,0,0,.929-1.237q.09-13.391.212-26.783c.039-3.952.138-7.9.2-11.854,0-.217.007-.6-.063-.622a1.152,1.152,0,0,0-.775.036c-1.388.778-2.786,1.545-4.12,2.409q-4.759,3.082-9.459,6.255a61.305,61.305,0,0,0-6.409,4.561,18.135,18.135,0,0,0-5.149,7.753,67.454,67.454,0,0,0-1.751,7.382m12.158-126.7c.423-.352.82-.743,1.273-1.05,3.023-2.048,6.094-4.027,9.068-6.144a9.655,9.655,0,0,0,2.314-2.529c.6-.907.18-1.706-.814-2.118-3.58-1.483-7.185-2.912-10.721-4.495-4.11-1.84-8.152-3.833-12.235-5.737-3.4-1.583-6.81-3.127-10.21-4.7-.807-.373-1.582-.814-2.387-1.19a1.736,1.736,0,0,0-.71-.07.5.5,0,0,0-.054.343c.974,1.675.07,2.929-1.078,3.919A36.491,36.491,0,0,1,195.561,50c-4.228,2.541-8.545,4.932-12.825,7.385-2.385,1.367-4.773,2.727-7.146,4.113-.5.295-.681.7-.062,1.112.781.524,1.553,1.061,2.324,1.6,2.288,1.6,4.557,3.229,6.867,4.8,1.265.859,2.572,1.663,3.909,2.406.8.444,1.719.664,2.534,1.083,2.318,1.192,4.63,2.4,6.9,3.668a25.686,25.686,0,0,1,6.022,4.77c.6.629,1.113,1.348,1.762,1.916a1.2,1.2,0,0,0,1.125.1c1.689-1.1,3.3-2.322,4.986-3.432,2.507-1.651,5.058-3.235,7.576-4.869a3.013,3.013,0,0,0,.573-.7,4.271,4.271,0,0,0-.91.029c-1.126.276-2.226.685-3.365.873a16.208,16.208,0,0,1-10.515-1.451c-2.073-1.1-4.106-2.271-6.171-3.383a16.139,16.139,0,0,1-5.58-4.748A7.561,7.561,0,0,1,192.331,58a17.25,17.25,0,0,1,5.046-6.963,6.24,6.24,0,0,1,1.413-.689c.649-.322,1.643-.5,1.87-1.016.614-1.387,1.822-1.413,2.9-1.5,2.306-.195,4.63-.215,6.947-.231a5.205,5.205,0,0,1,2.177.384c1.821.849,3.549,1.9,5.37,2.747a19.347,19.347,0,0,1,7.35,5.887c2.746,3.612,3.082,8.98.035,12.612-.422.5-.873.983-1.269,1.505-.1.132-.042.384-.056.581a1.854,1.854,0,0,0,.449-.152c.478-.313.941-.648,1.517-1.082m-26.555-17.81c-.5.574-1.047,1.116-1.5,1.727-1.69,2.276-3.342,4.543-2.251,7.679a11.181,11.181,0,0,0,3.3,5.354c2.3,1.9,5.066,2.731,7.731,3.756a17.517,17.517,0,0,0,9.915,1.1c1.851-.38,3.788-.893,4.667-2.732a24.931,24.931,0,0,0,1.272-4.585,2.743,2.743,0,0,0,0-.673,2.748,2.748,0,0,0-.6.4,10.883,10.883,0,0,1-6.852,3.524c-3.67.561-6.848-.987-10-2.589C203.067,64.13,201.682,62.2,200,60.6c-.808-.77-1.663-1.812-1.1-2.946.809-1.629,1.989-3.492,3.841-3.555,1.942-.067,3.942.792,5.868,1.4.863.273.777.962-.029,1.466a10.058,10.058,0,0,0-1.678,1.245c-.273.264-.4.684.242.893,1.624.53,3.207,1.205,4.854,1.641.457.121,1.116-.339,1.6-.656.1-.065-.219-.681-.243-1.05a1.258,1.258,0,0,1,.2-.91,1.148,1.148,0,0,1,.98-.207c2.464,1,4.918,2.024,7.345,3.107.558.249.945.356.762-.381a10.813,10.813,0,0,0-1.187-3.435,34.8,34.8,0,0,0-3.744-4.417,7.041,7.041,0,0,0-1.954-1.166,17.366,17.366,0,0,0-7.055-1.463,14.2,14.2,0,0,0-9.178,2.1m46.605,147.707c.142-1.683.278-3.366.428-5.048.207-2.329.429-4.657.637-6.987.218-2.435.443-4.87.636-7.307q.247-3.108.427-6.221.241-4.229.426-8.461.148-3.526.214-7.056c.088-5.124.181-10.249.2-15.374.011-2.494-.139-4.988-.2-7.483-.082-3.6-.147-7.192-.215-10.789-.074-3.881-.159-7.761-.21-11.642-.085-6.44-.136-12.88-.221-19.32-.051-3.916-.1-7.833-.223-11.748-.067-2.183-.174-4.373-.438-6.539-.322-2.644-.81-5.269-1.278-7.893-.059-.332-.435-.607-.664-.909a2.878,2.878,0,0,0-.361.981c.112,3.248.272,6.494.406,9.741.083,2,.145,3.993.215,5.99.072,2.032.148,4.064.212,6.1q.115,3.635.214,7.27.108,3.741.213,7.483c.072,2.565.212,5.131.2,7.7q-.058,13.5-.208,27c-.026,2.6-.132,5.2-.207,7.8-.067,2.317-.142,4.633-.212,6.95q-.107,3.528-.213,7.056c-.074,2.565-.174,5.13-.208,7.7q-.134,10.246-.216,20.493c-.023,2.595,0,5.19,0,7.785,0,1.647-.006,3.295.01,4.942,0,.155.149.309.229.463a1.557,1.557,0,0,0,.181-.409c.086-.68.149-1.362.22-2.257M119.221,121.053c-2.637-1.784-5.2-3.692-7.928-5.325-4.741-2.837-9.566-5.536-14.391-8.229-2.473-1.381-5.038-2.6-7.534-3.939-3.171-1.7-6.311-3.467-9.471-5.191-2.781-1.517-5.589-2.987-8.356-4.531-3.958-2.208-7.881-4.478-11.834-6.694q-2.2-1.232-4.481-2.31c-.233-.11-.671.216-1.014.341a7.17,7.17,0,0,0,.616.572,6.081,6.081,0,0,0,.611.321q2.5,1.439,4.988,2.885c2.406,1.4,4.818,2.786,7.214,4.2,2.657,1.569,5.294,3.172,7.951,4.742,2.91,1.72,5.811,3.457,8.757,5.115,2.068,1.163,3.886,2.795,6.29,3.349a4.14,4.14,0,0,1,1.392.742c1.4,1.008,2.729,2.126,4.172,3.067,3.713,2.422,7.463,4.787,11.215,7.148,4.31,2.712,8.639,5.394,12.957,8.094.487.3,1.025.813,1.508.188.451-.584.854-1.321.072-2.028-.882-.8-1.752-1.606-2.734-2.517m5.332-45.859c.992.778,1.933,1.636,2.992,2.308.763.485,1.5,1.446,2.6.829,1.3-.73,2.56-1.541,3.832-2.325.366-.226.418-.453.03-.759-.6-.472-1.163-.985-1.724-1.5A37.936,37.936,0,0,0,120.834,66.4c-3.924-1.589-7.962-2.9-11.96-4.3-.186-.065-.478.173-.72.27.084.171.126.395.26.507,2.028,1.693,4.011,3.449,6.12,5.036,3.258,2.452,6.6,4.787,10.02,7.279m20.583-49.378q.854-.641,1.709-1.282c2.524-1.885,5.042-3.778,7.577-5.649.882-.651.877-.883-.148-1.386-3.337-1.638-6.681-3.262-10.011-4.915-.663-.329-1.014-.181-1.388.456a9.268,9.268,0,0,1-1.6,2.1c-1.44,1.34-2.947,2.613-4.474,3.855-1.957,1.592-4.009,3.071-5.932,4.7-2.2,1.869-4.312,3.849-6.455,5.788a1.2,1.2,0,0,0-.189.372c.172.049.372.177.508.128a2.833,2.833,0,0,0,.671-.436q4.159-3.088,8.315-6.18c1.956-1.456,3.857-2.995,5.88-4.349,2.067-1.383,4.25-2.592,6.389-3.867,1.051-.627,1.875.045,2.678.561a1.65,1.65,0,0,1,.593,1.956,4.651,4.651,0,0,1-1.167,1.952c-3.133,2.933-6.335,5.794-9.5,8.7-.785.72-1.512,1.5-2.266,2.257-.322.322-.666.627-.954.978-.081.1,0,.332.007.5a1.656,1.656,0,0,0,.449-.139c3.035-2.029,6.064-4.065,9.308-6.1m-2.346,199c-1.565.427-3.133.842-4.693,1.287-.411.117-.962.327-.584.877,1.548,2.248,3.153,4.457,4.736,6.68q2.111,2.965,4.222,5.93c.133.187.252.384.378.577a3.078,3.078,0,0,0,.3-.725,2.032,2.032,0,0,1,2.066-1.842c1.208-.06,1.578.923,2.2,1.6.138.15.3.279.451.417a1.911,1.911,0,0,0,.073-.723c-.207-.657-.508-1.283-.727-1.936-1.315-3.916-2.51-7.876-5.106-11.222-1-1.283-1.555-1.547-3.323-.924M33.9,196.56a9.383,9.383,0,0,0,.2-1.3,1.421,1.421,0,0,0-.251-.838c-.066-.087-.49.011-.693.127-1.067.607-2.081,1.317-3.181,1.85-.783.38-.88.75-.512,1.5.971,1.975,1.934,3.96,2.761,6,.218.538-.067,1.28-.121,1.928-.4-.39-.929-.712-1.161-1.182-.725-1.471-1.289-3.02-2-4.5-1.218-2.526-1.258-2.537-3.8-1.2a1.6,1.6,0,0,1-2.253-.408,31.2,31.2,0,0,1-2.392-3.486c-.414-.734-.718-.835-1.368-.362-1.141.829-2.319,1.607-3.47,2.422-.523.371-.445.972.189,1.258,1.466.662,2.969,1.244,4.421,1.936,2.465,1.175,4.934,2.349,7.337,3.642,1.61.866,3.1,1.946,4.661,2.911.349.216.749.39.788-.309.062-1.108.146-2.215.209-3.323.078-1.356.109-2.716.228-4.068.07-.8.271-1.589.413-2.6M216.271,60.477c-.343.13-.8.162-1.01.406a3.428,3.428,0,0,1-3.474,1.383c-1.671-.378-3.306-.923-4.949-1.422a8.449,8.449,0,0,1-.87-.47c-1.27-.563-1.7-1.751-.483-2.993.257-.263,1.011-.655.24-.994a7.816,7.816,0,0,0-2.9-.65c-.5-.011-1.028.569-1.5.933-.782.6-1.169,1.674-.8,2.126a17.225,17.225,0,0,0,6.635,5.546c2.495,1.028,4.928,2.451,7.821,1.787a12.151,12.151,0,0,0,5.581-2.474c.782-.692.793-1.123-.12-1.541-1.31-.6-2.7-1.029-4.16-1.637M124.127,259.908c0-5.945-.05-11.891.018-17.836.043-3.708.25-7.415.414-11.121.114-2.571.295-5.14.417-7.711.158-3.316.269-6.633.438-9.948.1-2.028.342-4.051.4-6.079.04-1.46-.116-2.925-.2-4.387a1.231,1.231,0,0,0-.188-.4c-.077.121-.212.238-.223.365-.225,2.575-.459,5.15-.642,7.728-.238,3.356-.441,6.715-.643,10.073-.155,2.569-.315,5.139-.421,7.711-.107,2.6-.164,5.2-.218,7.8-.083,4.021-.171,8.041-.2,12.062-.012,1.5.186,3,.19,4.495.021,7.283.01,14.567.01,21.85a1.728,1.728,0,0,0,.015.633,3.427,3.427,0,0,0,.48.658,2.072,2.072,0,0,0,.341-.684c.047-.648,0-1.3.019-1.954.064-2.245.193-4.489.195-6.733,0-2.1-.127-4.2-.2-6.52M69.63,112.2c.848.355,1.711.678,2.539,1.074,1.188.568,2.341,1.21,3.532,1.769.2.1.526-.067.794-.11a4.655,4.655,0,0,0-.455-.384c-1.006-.656-2.026-1.291-3.026-1.955-2.008-1.333-3.963-2.752-6.019-4.005-4.1-2.5-8.281-4.89-12.383-7.4-.721-.44-.843-.245-.865.392a14.524,14.524,0,0,0,.037,2.87,2.017,2.017,0,0,0,.986,1.313c3.292,1.482,6.625,2.874,9.946,4.291,1.6.683,3.2,1.357,4.913,2.141M18.866,188.135c-.343-.356-.624-.837-1.042-1.042-1.027-.5-2.154-.807-3.17-1.329-.727-.373-.938.108-.988.525a30.568,30.568,0,0,0-.225,3.739c.009,1.673.111,3.347.208,5.019a9.626,9.626,0,0,0,.276,1.372c.272-.249.541-.5.817-.744.046-.041.127-.04.18-.077,1.269-.876,2.565-1.717,3.795-2.646.805-.608,1.409-1.315.809-2.5a18.523,18.523,0,0,1-.66-2.322M102.478,64.21a1.377,1.377,0,0,0,.36-.156c.254-.212.488-.447.731-.673-.385-.058-.769-.117-1.155-.17-.021,0-.047.051-.075.071-2.046,1.407-4.115,2.782-6.128,4.236-.811.586-1.454,1.4-2.246,2.015-2.733,2.129-5.522,4.186-8.24,6.333-1.571,1.241-3.086,2.559-4.558,3.917-1.943,1.792-3.825,3.652-5.712,5.5-.124.122-.074.423-.1.64.192-.024.435.02.569-.081a45.457,45.457,0,0,0,3.707-2.872c1.82-1.682,3.448-3.577,5.3-5.22,2.1-1.859,4.341-3.55,6.537-5.295,1.867-1.484,3.731-2.972,5.64-4.4,1.725-1.289,3.51-2.5,5.375-3.849m60.363,86.6a45.978,45.978,0,0,1-6.4,8.338,2.73,2.73,0,0,0-.384.88,3.363,3.363,0,0,0,.947-.206c1.535-.85,3.03-1.773,4.576-2.6.9-.481,1.9-.874,2.2-1.931.947-3.345,1.83-6.708,2.706-10.072a2.478,2.478,0,0,0-.151-.937,3.193,3.193,0,0,0-.593.651c-.948,1.915-1.869,3.844-2.905,5.876M132.979,12.379c1.589-.7,2.947-1.925,4.759-2.142.092-.011.243-.153.238-.226-.009-.138-.076-.345-.18-.394a13.153,13.153,0,0,0-2.438-1.034,2.044,2.044,0,0,0-1.5.4c-3,2.309-5.958,4.665-8.915,7.027q-3.048,2.435-6.044,4.933c-.139.116-.115.429-.166.651.222-.036.5,0,.656-.12.765-.575,1.456-1.256,2.249-1.783,3.7-2.457,7.418-4.877,11.344-7.31M102.051,91.938a2.628,2.628,0,0,0-.513.535,2.578,2.578,0,0,0-.152.72,1.772,1.772,0,0,0,.645-.185c2.918-2.4,5.793-4.847,8.745-7.2,1.081-.862,2.105-1.966,3.74-1.789.262.028.586-.288.845-.492,1.718-1.347,3.447-2.681,5.12-4.081.39-.326,1.491.007,1.137-.926-.179-.473-.9-.788-1.435-1.06a1.032,1.032,0,0,0-.928.083c-1.528,1.321-2.974,2.737-4.519,4.037-2.2,1.85-4.462,3.621-6.691,5.434-1.967,1.6-3.925,3.212-5.994,4.925m-72.2,101.209.64-.336a3.311,3.311,0,0,0-.6-.469c-1.219-.563-2.447-1.107-3.677-1.646-1.559-.684-3.12-1.365-4.69-2.023a.793.793,0,0,0-.631.039c-.091.055-.076.382-.022.561q.526,1.746,1.094,3.48c.714,2.175,1.5,2.566,3.664,1.85,1.371-.454,2.746-.9,4.226-1.455m59.936-75.293c.007,1.177-.322,2.386.411,3.491a.806.806,0,0,1,0,.724,7.712,7.712,0,0,0-1.084,4.467c-.009,2.142-.265,4.283-.376,6.427a1.718,1.718,0,0,0,.343.807c.055.1.224.128.34.189a1.345,1.345,0,0,0,.148-.337c.22-1.579.446-3.157.641-4.74q.344-2.793.641-5.592c.3-2.792.642-5.581.812-8.381a7.009,7.009,0,0,0-.693-2.462c-.057-.167-.334-.259-.51-.385a1.88,1.88,0,0,0-.237.538c-.157,1.679-.293,3.36-.435,5.254M104.5,8.006c2.041-.818,4.088-1.62,6.117-2.464a11.986,11.986,0,0,0,1.449-.847A7.565,7.565,0,0,0,110.2,4.9c-3.841,1.439-7.729,2.784-11.468,4.458-4.438,1.987-8.743,4.273-13.1,6.437a2.889,2.889,0,0,0-.474.374c.222.024.481.134.659.058,1.961-.84,3.907-1.714,5.861-2.568,4.24-1.852,8.482-3.7,12.831-5.653M221.923,160.619c1.572-1,3.163-1.977,4.711-3.015,3.031-2.033,6.041-4.1,9.051-6.163a3.692,3.692,0,0,0,.56-.6c-.327-.01-.728-.149-.97-.011-1.726.987-3.466,1.964-5.114,3.073-2.289,1.54-4.492,3.207-6.749,4.8-2.8,1.97-5.634,3.892-8.4,5.9-.367.266-.458.926-.642,1.416-.024.063.145.245.258.294.061.026.2-.1.292-.179.618-.554,1.2-1.159,1.852-1.661,1.664-1.272,3.363-2.5,5.154-3.848m10.878-33.7a3.136,3.136,0,0,1,.465-.421c.993-.6,2.012-1.15,2.985-1.776.26-.167.39-.535.58-.811a2.709,2.709,0,0,0-.994.043c-.6.274-1.118.723-1.718.994a140.811,140.811,0,0,0-14.27,7.947,2.412,2.412,0,0,0-.363.333c.171.1.363.313.509.285a9.157,9.157,0,0,0,2.508-.609c1.789-.931,3.5-2.018,5.231-3.054,1.622-.969,3.236-1.953,5.067-2.931M95.972,90.339l-.05.377c.2-.021.445.027.582-.075,1.253-.936,2.546-1.83,3.712-2.866,2.663-2.368,5.245-4.828,7.895-7.211,1.015-.912,2.125-1.719,3.194-2.571,1.388-1.107,2.782-2.206,4.163-3.322a2.115,2.115,0,0,0,.341-.494,2.5,2.5,0,0,0-.653-.141,1,1,0,0,0-.538.226c-2.986,2.4-6.029,4.743-8.927,7.248-3.272,2.828-6.413,5.808-9.718,8.828M113.356,270.68c.054.2.053.519.171.571q2.566,1.132,5.169,2.179c.069.028.365-.255.387-.417a6.774,6.774,0,0,0-.071-.916c-.009-1.882,0-3.764,0-5.646,0-1.695,0-1.7-1.64-1.956a.561.561,0,0,1-.2-.031.978.978,0,0,0-1.513.429c-.084.173.552.7.868,1.057.035.039.139.009.193.042.763.456,1.631,1.908,1.422,2.563-.33,1.032-.784,2.038-2.084,2.117-.826.05-1.657.009-2.7.009M105.144,55.358a5.675,5.675,0,0,1-.953.524,21.523,21.523,0,0,0-10.1,7.13c-.076.093-.139.324-.1.357a.55.55,0,0,0,.422.143A2.4,2.4,0,0,0,95,63.152c1.729-1.227,3.451-2.463,5.183-3.685a20.665,20.665,0,0,1,3.5-2.356,17.543,17.543,0,0,0,3.728-2.553c.172-.133.186-.47.274-.712-.263-.008-.607-.127-.775,0-.586.425-1.11.934-1.765,1.517M107.17,193.68a2.85,2.85,0,0,0,.5.069,4.5,4.5,0,0,0,.59-.093,2.263,2.263,0,0,0-.294-.445,1.844,1.844,0,0,0-.432-.233c-2.685-1.4-5.345-2.854-8.062-4.19-2.738-1.346-5.532-2.58-8.307-3.849a2.887,2.887,0,0,0-.724-.127,2.772,2.772,0,0,0,.291.923c.161.208.512.27.78.393,2.357,1.078,4.732,2.121,7.068,3.242,2.844,1.366,5.656,2.8,8.588,4.309M35.823,179.5c.419.111.746.356.9-.435.2-1.038-.284-1.461-1.047-1.851-1.906-.974-3.83-1.915-5.7-2.953-1.682-.933-3.292-2-4.961-2.954-.257-.147-.661-.039-1-.049a2.889,2.889,0,0,0,.523.659c.961.664,1.955,1.281,2.926,1.932,2.754,1.844,5.5,3.7,8.359,5.651m83.4,61.429c0-1.633,0-3.266-.007-4.9a2.1,2.1,0,0,0-.154-.54,2.327,2.327,0,0,0-.42.268,2.365,2.365,0,0,1-2.765.555,2,2,0,0,0-.776-.166c-.177,0-.351.166-.526.258a2.539,2.539,0,0,0,.4.36c.513.3,1.058.544,1.556.865.956.615,1.61,2.242,1.226,3.049-.3.63-1.047,1.364-.895,1.814.2.586,1.089.939,1.687,1.385a4.319,4.319,0,0,0,.45.26,1.775,1.775,0,0,0,.213-.547c.023-.816.01-1.633.01-2.662m62.5-162.958,3.4-2.333c.216-.148.428-.3.642-.451-.289-.245-.554-.646-.873-.7a1.789,1.789,0,0,0-1.232.3c-1.74,1.315-3.449,2.673-5.141,4.05-1.732,1.409-3.436,2.851-5.141,4.294-.137.116-.179.343-.265.519.222-.027.5.021.656-.092,1.323-.932,2.613-1.913,3.938-2.843,1.287-.9,2.605-1.761,4.016-2.746M212,138.543a.9.9,0,0,0,.006.317c.136.334.294.658.444.986.226-.17.462-.328.675-.513.628-.545,1.24-1.11,1.875-1.647a3.535,3.535,0,0,1,.626-.346,3.753,3.753,0,0,0-.557-.6c-1.474-1.03-1.68-1.719-.943-3.2a1.548,1.548,0,0,0,.067-.483c-.171-.011-.383-.093-.507-.022A17.582,17.582,0,0,0,211.5,134.4a1.315,1.315,0,0,0-.394,1.071,21.414,21.414,0,0,0,.9,3.069M18.759,146.649c-1.169-.6-2.35-1.186-3.5-1.819-1.361-.748-2.73-1.49-4.035-2.329a2.3,2.3,0,0,1,.11-3.964c.593-.316.413-.51.036-.729a2.761,2.761,0,0,0-1.1-.407c-.214-.018-.641.262-.653.431-.12,1.6-.222,3.2-.2,4.8a1.486,1.486,0,0,0,.814.992c2.771,1.27,5.567,2.487,8.368,3.69a2.727,2.727,0,0,0,.947.038c-.226-.2-.452-.4-.785-.708m140.988-73.8a3.625,3.625,0,0,0-.654.46,3.036,3.036,0,0,0-.365.655,2.326,2.326,0,0,0,.731-.166c.654-.4,1.28-.854,1.911-1.294q5.034-3.5,10.062-7.018c.11-.077.261-.243.24-.33-.045-.184-.2-.495-.293-.487a2.941,2.941,0,0,0-1.352.283c-1.337.914-2.628,1.9-3.911,2.889-2.1,1.62-4.177,3.267-6.37,5.008m-69,105.9a4.729,4.729,0,0,1,1.865-.215c1.9.621,3.738,1.4,5.6,2.133.884.347,1.753.731,2.646,1.051.183.066.44-.075.664-.121a2.314,2.314,0,0,0-.435-.493c-.331-.21-.7-.357-1.051-.537-2.833-1.459-5.662-2.925-8.5-4.375-.84-.429-1.1-.262-1.1.687a4.971,4.971,0,0,0,.314,1.869m132.99-111.02a4.952,4.952,0,0,0-.41.891,2.006,2.006,0,0,0,.082.7c.2-.12.475-.191.576-.366a12.82,12.82,0,0,0,1.881-4.962,10.935,10.935,0,0,0-1.713-6.627c-.124-.222-.4-.359-.608-.535a2.527,2.527,0,0,0-.007.874,16.209,16.209,0,0,1,.2,10.025M91.706,168.191a8.769,8.769,0,0,0-.645-.73.764.764,0,0,0-.386.282,3.02,3.02,0,0,0,1.228,3.535c2,.916,4,1.8,6.012,2.693,1.528.677,3.057,1.353,4.6,1.989a2.2,2.2,0,0,0,.861-.031c-.2-.2-.36-.47-.6-.581-2.942-1.372-5.883-2.745-8.849-4.063a3.428,3.428,0,0,1-2.224-3.094m21.863,54.284-.747.169a3.352,3.352,0,0,0,.572.465c2.125,1.066,4.554,1.728,5.537,4.281.056.145.336.2.512.3a2.748,2.748,0,0,0,.192-.767c-.039-.86-.169-1.717-.186-2.577a11.864,11.864,0,0,1,.2-1.51c.069-.626-.122-.66-.706-.44a6.779,6.779,0,0,1-2.35.472,27.725,27.725,0,0,1-3.021-.394M82.321,88.632c.623-.552,1.269-1.079,1.864-1.659C85.9,85.3,87.6,83.6,89.305,81.911c.347-.346.661-.725.99-1.089-.468.2-.936.4-1.4.6-.03.013-.049.051-.076.073-1.9,1.49-3.849,2.924-5.685,4.49a31.006,31.006,0,0,0-2.934,3.1c-.138.155-.039.519-.05.786a5.564,5.564,0,0,0,.525-.232c.518-.293,1.029-.6,1.65-1.006M16.733,134.171a1.9,1.9,0,0,1-.5-.081c-1.794-.819-3.577-1.661-5.378-2.465-.211-.094-.508.006-.765.015a2.188,2.188,0,0,0,.241.788,1.977,1.977,0,0,0,.758.458c1.9.814,3.8,1.633,5.716,2.418q3.372,1.384,6.769,2.706a1.676,1.676,0,0,0,.661-.039,2.345,2.345,0,0,0-.452-.382c-2.312-1.111-4.629-2.21-7.051-3.419M226.4,163.179a5.176,5.176,0,0,1-.606.6c-2.411,1.714-4.8,3.457-7.261,5.1-.862.576-2.088,1.474-2.807,1.228-1.746-.6-1.884.281-1.975,1.476a4.3,4.3,0,0,0,.232,1.152c.221-.191.441-.385.666-.572a3.585,3.585,0,0,1,.328-.235c2.177-1.427,4.391-2.8,6.52-4.3,1.859-1.3,3.627-2.74,5.424-4.131a1.963,1.963,0,0,0,.343-.52,5.287,5.287,0,0,1-.865.2m-54.71-32.1c1.918-1.278,3.829-2.569,5.757-3.832,1.559-1.021,3.152-1.992,4.7-3.028.268-.179.389-.577.578-.874-.338.091-.678.179-1.015.274a.751.751,0,0,0-.171.1c-2.911,1.8-5.816,3.6-8.736,5.379a11.439,11.439,0,0,0-1.645.868c-.243.213-.171.784-.242,1.193a2.106,2.106,0,0,0,.771-.082M55.553,124.359a8.891,8.891,0,0,0-1.4-.723c-.231-.075-.787.116-.8.232a4.5,4.5,0,0,0,.1,1.539c.018.076.618,0,.945.024a3.057,3.057,0,0,1,.886.166q2.952,1.214,5.887,2.469c1.174.5,2.327,1.055,3.5,1.559.157.068.379-.015.571-.027-.092-.171-.141-.4-.283-.5a10.736,10.736,0,0,0-1.2-.682c-2.663-1.355-5.329-2.7-8.207-4.055M121.674,24.75c-1.206.851-2.415,1.7-3.616,2.555a5.867,5.867,0,0,0-.544.5,6.694,6.694,0,0,0,1.385.957c.229.089.709-.209.948-.455,1.094-1.125,2.1-2.334,3.222-3.432.906-.89,1.929-1.66,2.885-2.5.1-.089.1-.292.152-.443-.16.016-.361-.026-.474.055-1.256.91-2.5,1.84-3.959,2.764m-56.31,92.784c-2.346-1.351-4.686-2.712-7.039-4.048q-1.846-1.048-3.738-2.012c-.226-.114-.562-.01-.847-.007a4.132,4.132,0,0,0,.32.715c.081.119.282.156.426.234,3.536,1.9,7.067,3.808,10.613,5.687a4.448,4.448,0,0,0,1.145.258,3.322,3.322,0,0,0-.88-.827M147.91,85.966c-1.206-.427-2.639-.579-3.566-1.344a13.191,13.191,0,0,0-4.7-2.061,2.407,2.407,0,0,0-.676-.02c.168.175.3.418.508.516,1.984.943,4.018,1.789,5.961,2.809,1.815.953,3.531,2.093,5.306,3.123a3.56,3.56,0,0,0,.946.241c-.136-.251-.212-.578-.419-.739-1.065-.83-2.163-1.617-3.355-2.525m53.644,44.472c-.427.853-.863,1.7-1.271,2.562a1.8,1.8,0,0,0-.061.586c.2-.02.441.028.582-.07.775-.544,1.534-1.113,2.281-1.695a1.213,1.213,0,0,0,.485-1.35,36.249,36.249,0,0,1-.132-4.064,3.644,3.644,0,0,0-.335-.981,3.373,3.373,0,0,0-.471.773c-.382,1.336-.723,2.683-1.078,4.24M98,247.644c.435.15.863.324,1.306.444s.906.188,1.361.279a5.766,5.766,0,0,0-1.127-.867c-2.435-1.059-4.889-2.076-7.342-3.095-1.3-.54-2.607-1.078-3.931-1.561-.263-.1-.62.066-.933.108.2.213.354.506.6.623.677.328,1.387.591,2.088.867,2.624,1.034,5.249,2.063,7.981,3.2M90.96,216.929c1.151-.071,2.3-.13,3.452-.227.172-.015.33-.208.494-.318-.124-.12-.226-.288-.374-.351-1.472-.635-2.939-1.286-4.441-1.841a1.049,1.049,0,0,0-.906.485,6.112,6.112,0,0,0-.247,1.7c-.084,1.147-.008,1.191,1.048.767a4.343,4.343,0,0,1,.973-.217m34.447-82.652a14.165,14.165,0,0,0,.187-1.718.694.694,0,0,0-.49-.485c-.179-.005-.523.285-.526.45-.037,1.959-.137,3.928.014,5.876a3.583,3.583,0,0,0,2.321,3.119c.195.081.477-.05.719-.083a3.522,3.522,0,0,0-.288-.523,17.662,17.662,0,0,1-1.284-1.6c-.919-1.5-.611-3.193-.653-5.04m-82.652,9.492c.036-.34.054-.684.11-1.021.241-1.449.166-1.553-1.352-1.534a5.1,5.1,0,0,1-3.154-1.156,17.662,17.662,0,0,0-2.955-1.595c-.193-.09-.548.165-.828.26a4.48,4.48,0,0,0,.663.558c.6.339,1.256.589,1.838.956,1.834,1.157,3.645,2.351,5.678,3.531m14.291-24.956a19.8,19.8,0,0,1-2.181-1.151c-.454-.311-.879-.618-1.2-.072-.1.165.349.891.688,1.044,2.963,1.33,5.957,2.592,8.95,3.856.158.067.388-.038.585-.062-.088-.151-.138-.364-.269-.442-.739-.436-1.483-.869-2.253-1.246-1.357-.664-2.734-1.286-4.316-1.926m-44.792-4.266a5.018,5.018,0,0,0-.805-.366c-.446-.118-.955-.211-1,.48a13.179,13.179,0,0,0,0,1.915c.036.441.206.724.742.339a1.945,1.945,0,0,1,1.19-.42c1.3.139,2.592.418,3.892.6a5.883,5.883,0,0,0,1.173-.066,8.775,8.775,0,0,0-.884-.556c-1.361-.653-2.732-1.285-4.313-1.925M209.445,160.3c0,.426-.027.855.012,1.277a1.713,1.713,0,0,0,.261.536c.193-.118.519-.2.556-.359a3.706,3.706,0,0,0,.2-1.708c-.509-1.8-.029-3.6-.187-5.39-.108-1.223-.265-2.442-.436-3.657-.021-.151-.267-.27-.409-.4-.071.163-.212.329-.2.487.046.789.182,1.575.192,2.363.028,2.214.01,4.428.01,6.855M56.406,92.578c1.459.677,2.915,1.361,4.382,2.019.131.059.337-.052.509-.085-.071-.147-.1-.356-.221-.43-.39-.243-.816-.427-1.218-.653-2.477-1.392-4.946-2.8-7.432-4.172a3.634,3.634,0,0,0-1.009-.222c.16.318.236.774.493.93,1.439.875,2.921,1.678,4.5,2.613m63.882,88.2c.64.427,1.283.85,1.919,1.282.209.142.4.306.6.461a7.25,7.25,0,0,0,.244-.856c.2-1.268.4-2.538.569-3.811a.477.477,0,0,0-.242-.365c-.564-.265-1.806.255-1.78.834.049,1.092-.712,1.6-1.314,2.455m77.533-53c-.125-.017-.287-.094-.368-.042-.479.3-.94.637-1.4.963-1.22.854-1.471,2.221-1.689,3.525-.062.372.57.861.884,1.3.113-.118.268-.217.331-.357.792-1.756,1.571-3.517,2.246-5.384m-74.653,42.659q-1.648-.261-3.3-.524a2.423,2.423,0,0,0-.589-.1c-.149.015-.285.158-.427.244.084.125.141.294.257.37,1.117.724,2.255,1.415,3.361,2.154a14.719,14.719,0,0,1,1.267,1.058c.057-.567.113-1.133.174-1.7a.525.525,0,0,1,.069-.183c.383-.708.039-1.081-.818-1.316M84.561,94.5a2.406,2.406,0,0,1-.933.1c-.558-.176-1.061-.53-1.619-.705-.244-.077-.569.106-.857.171a2.628,2.628,0,0,0,.525.518c1.332.719,2.687,1.4,4.016,2.121.628.342.576-.121.688-.48.225-.721.48-1.432.734-2.144a6.253,6.253,0,0,1,.28-.59,3.157,3.157,0,0,0-.859.117c-.6.261-1.176.589-1.974.889M59.285,262.255c-.752-1.819-1.5-3.641-2.268-5.451-.088-.206-.339-.342-.515-.511a2.124,2.124,0,0,0-.016.8q1.623,4.014,3.306,8a2.742,2.742,0,0,0,.517.617c.045-.339.214-.721.113-1.008a19.693,19.693,0,0,0-1.136-2.448M15.453,123.293c-1.282-.5-2.585-.954-3.836-1.521-.53-.24-.971-.381-1.151.247-.166.579.162.941.811,1.076,1.1.23,2.183.537,3.265.843.917.26,1.815.592,2.737.829.25.064.559-.1.841-.156a2.918,2.918,0,0,0-.566-.484,15.651,15.651,0,0,0-2.1-.835M162.947,55.358c-.423.992-.865,1.977-1.251,2.983-.064.166.116.426.184.643a1.852,1.852,0,0,0,.445-.241q1.064-1.036,2.1-2.1a1.718,1.718,0,0,0-.1-2.454c-.473-.375-.94-.437-1.167.3a5.5,5.5,0,0,0-.213.868m-62.816-35.94a1.447,1.447,0,0,0-.43.232,7.733,7.733,0,0,0-.526.731c.275.106.544.231.826.313.539.157,1.089.274,1.626.435.417.125.836.242.735-.421a2.786,2.786,0,0,1,1.186-2.6c.213-.192.251-.577.369-.873a2.977,2.977,0,0,0-.942.219c-.932.589-1.828,1.236-2.844,1.967m11.518,2.133c-.562.349-1.118.708-1.688,1.043-.452.266-.922.5-1.384.75.469.2.939.4,1.408.6a1.173,1.173,0,0,1,.35.174c.563.531.894.056,1.179-.309.847-1.089,1.657-2.206,2.474-3.318a2.383,2.383,0,0,0,.205-.447c-.2-.006-.448-.094-.577,0-.637.443-1.242.934-1.965,1.515M93.2,201.679c-.8-.375-1.6-.756-2.406-1.12-.229-.1-.559-.283-.7-.2-.177.105-.262.449-.292.7a24.2,24.2,0,0,0-.207,2.461,7.463,7.463,0,0,0,.23,1.386,6.543,6.543,0,0,0,.593-1.2,1.667,1.667,0,0,1,2.41-1.346,4.391,4.391,0,0,0,.865.21c.165.013.341-.123.512-.191-.081-.125-.133-.3-.248-.365-.194-.114-.428-.16-.751-.342m23.782,47.458a4.47,4.47,0,0,1,.947.639,2.47,2.47,0,0,1,.309,2.41c-.064.269.25.627.391.944.126-.227.342-.445.364-.682.105-1.1.19-2.206.22-3.312.036-1.312.012-1.291-1.275-1.078a12.991,12.991,0,0,1-1.379.019,4.881,4.881,0,0,0-.75.156c.209.19.41.392.632.567.127.1.289.154.541.336m-23.676-20.05c-1.332-.64-2.658-1.291-4-1.909a2.646,2.646,0,0,0-.8-.1c.14.313.2.8.433.911,2.3,1.046,4.62,2.035,6.946,3.016.182.077.438-.024.659-.042-.131-.176-.224-.419-.4-.515a27.293,27.293,0,0,0-2.84-1.365M124.02,4.914a16.2,16.2,0,0,0-1.618-.2c-.939-.028-1.222.453-.84,1.3.175.389.288.8.433,1.207.159.442.335.652.8.227a12.4,12.4,0,0,1,1.473-1.065c.5-.338,1.012-.656,1.519-.983a14.9,14.9,0,0,1-1.763-.484m35.514,78.813c-1.033.675-2.076,1.336-3.093,2.035-.326.224-.872.727-.829.795a13.5,13.5,0,0,0,1.234,1.521c.185-.37.35-.751.563-1.1a3.122,3.122,0,0,1,.491-.543c.725-.73,1.464-1.446,2.174-2.19a2.961,2.961,0,0,0,.37-.67,3.249,3.249,0,0,0-.909.158M88.4,233.993c1.518.523,3.04,1.035,4.552,1.573.616.219,1.2.531,1.823.721.2.061.477-.136.719-.216-.091-.124-.156-.309-.278-.363-2.125-.936-4.251-1.871-6.4-2.758-.22-.091-.566.125-.854.2a6.464,6.464,0,0,0,.435.845m83.718-163.7c-.933.649-1.878,1.283-2.788,1.963-.136.1-.111.417-.161.634a1.958,1.958,0,0,0,.516-.149q3.16-1.979,6.3-3.984c.146-.094.225-.293.336-.443-.176-.087-.358-.255-.527-.242a1.843,1.843,0,0,0-.841.253c-.924.6-1.823,1.238-2.838,1.968M81.361,147.4c-.633-.349-1.254-.725-1.906-1.035a3.717,3.717,0,0,0-.932-.18,3.011,3.011,0,0,0,.526.8c1.411,1.1,2.846,2.166,4.29,3.219.075.055.44-.091.455-.179.232-1.37.081-1.6-1.238-2.074a8.2,8.2,0,0,1-1.2-.552m38.5,69c-.948-.107-1.9-.224-2.845-.313a4,4,0,0,0-.749.067c.107.26.139.625.332.761.925.648,1.889,1.241,2.854,1.83.078.048.384-.077.389-.14a11.98,11.98,0,0,0,.018-2.205M238.347,117.96l-.678.6a2.974,2.974,0,0,0,1.01.109,27.625,27.625,0,0,0,3.115-.952,1.669,1.669,0,0,0,.691-.87c.107-.235.008-.559.025-.842a5.832,5.832,0,0,1,.1-.607,3.473,3.473,0,0,0-.72.312c-.659.481-1.275,1.021-1.943,1.487a6.9,6.9,0,0,1-1.6.761m-69.854-3.093c.8-.789,1.953-1.322,1.921-2.7,0-.157.015-.315.023-.473a1.462,1.462,0,0,0-.51.047,18.825,18.825,0,0,0-1.83.979,1.786,1.786,0,0,0-.044,2.535c.056.048.289-.111.44-.387m-86.918,7.145c-.477-.213-.949-.439-1.435-.629-.1-.038-.249.059-.376.095.049.121.065.279.153.355a5.516,5.516,0,0,0,.656.456c1.173.75,2.343,1.505,3.526,2.238a7.141,7.141,0,0,0,.946.416,4,4,0,0,0-.188-1.151,1.757,1.757,0,0,0-.76-.7,19.737,19.737,0,0,0-2.521-1.079m6.932,21.436c.213-2.109.433-4.216.629-6.327a1.721,1.721,0,0,0-.189-.606c-.187.147-.435.26-.544.451a1.527,1.527,0,0,0-.1.7,5.178,5.178,0,0,1-.048,1.928c-.607,1.282-.091,2.537-.155,3.8,0,.05.2.111.413.06m79.453-44.472c.419-.427.824-.869,1.263-1.274.3-.274.67-.468.952-.755.11-.112.148-.49.069-.551a.706.706,0,0,0-.622-.12c-.931.592-1.848,1.212-2.729,1.875-.224.169-.5.635-.416.778a6.488,6.488,0,0,0,.98,1.114,9.033,9.033,0,0,1,.5-1.066m-84.572,59.4a20.534,20.534,0,0,0-.9-2.714c-.111-.233-.8-.189-1.231-.273a2.775,2.775,0,0,0,.046,1.081,22.663,22.663,0,0,0,1.465,2.481c.133.2.492.248.747.367-.042-.243-.084-.485-.125-.941m35.087,73.907.567.427a4.179,4.179,0,0,0,.172-.734q.061-1.1.061-2.206a3.219,3.219,0,0,0-.138-.664c-.185.115-.374.225-.554.347-.446.3-.881.619-1.336.905a3.116,3.116,0,0,1-.584.225,2.664,2.664,0,0,0,.411.625c.409.35.861.649,1.4,1.076M37.742,167.765l.853.587c.213-1.225.487-2.445.59-3.679.021-.257-.592-.566-.913-.852-.035.317-.048.638-.109.951-.107.555-.256,1.1-.362,1.658a4.432,4.432,0,0,0-.06,1.335m69.641-99.716.041-.6c-.4.021-.92-.11-1.192.09-1.206.887-2.347,1.863-3.5,2.827-.124.1-.136.34-.2.515.2-.022.434.02.58-.077,1.36-.9,2.7-1.834,4.266-2.756M93.2,18.671c-.012.249-.053.713-.032.716a11.369,11.369,0,0,0,2.435.185c.186-.016.3-.785.465-1.2.036-.09.185-.14.21-.228.067-.238.1-.487.14-.732a3.465,3.465,0,0,0-.793.128c-.782.32-1.547.681-2.425,1.133M91.706,221.942c-.779-.424-1.553-.857-2.341-1.263a1.872,1.872,0,0,0-.571-.091c0,.192-.064.417.014.567a1.416,1.416,0,0,0,.544.662c1.35.579,2.721,1.112,4.095,1.634.133.051.337-.084.507-.133-.089-.139-.147-.342-.274-.407-.612-.309-1.244-.58-1.975-.971M40.515,133.211c.947,1.018,1.885,2.043,2.852,3.041.1.1.369.028.561.035-.052-.747.285-1.624-.807-1.99-.363-.121-.619-.53-.973-.713-.472-.245-.837-.91-1.633-.373m129.577-14.4-1.173.163c.162.712.318,1.425.509,2.128a.9.9,0,0,0,.546-.092c.436-.422.8-.917,1.241-1.338a5.265,5.265,0,0,1,.879-.567c-.348-.1-.692-.221-1.047-.287a6.365,6.365,0,0,0-.955-.008M128.606,33.6c.376-.447.768-.882,1.115-1.35.082-.111.015-.334.016-.5-.16.014-.354-.027-.473.05a4.172,4.172,0,0,0-2.129,3.287c-.014.212.273.443.42.666a2.331,2.331,0,0,0,.441-.487,9.834,9.834,0,0,0,.609-1.662m18.45,43.832c-.851.5-1.711.981-2.547,1.5a2.446,2.446,0,0,0-.486.583,3.428,3.428,0,0,0,.739.249,7.906,7.906,0,0,0,3.344-2.344c.036-.1-.181-.408-.226-.4a2.949,2.949,0,0,0-.825.4M37.849,171.071a2,2,0,0,1-2.234.542,1.7,1.7,0,0,0-.586-.1,3.777,3.777,0,0,0-.7.2,3.192,3.192,0,0,0,.588.471,13.8,13.8,0,0,0,1.893.787c.239.072.788-.094.809-.218.1-.576,1.034-.942.229-1.677M50.22,82.127c-.775-.355-1.541-.73-2.331-1.047-.131-.052-.363.148-.548.232.11.2.169.493.338.587a25.738,25.738,0,0,0,2.555,1.274,2.877,2.877,0,0,0,1.079,0c-.216-.275-.43-.553-.651-.825-.065-.08-.152-.144-.442-.215M41.049,154.86c-.128-.412-.133-1.043-.406-1.2a23.464,23.464,0,0,0-2.957-1.291c-.127-.05-.335.109-.506.171.048.1.07.246.149.293,1.164.682,2.336,1.352,3.719,2.024M200.167,94.711l.051-1.229c-.41.163-.825.313-1.227.492a11.519,11.519,0,0,0-1.043.53,2.7,2.7,0,0,0-.408.353c.177.165.382.491.527.467a11.772,11.772,0,0,0,2.1-.612m-7.785,56.417c.121-.548.271-1.091.351-1.645a3.034,3.034,0,0,0-.1-.808,2.4,2.4,0,0,0-.477.563c-.37.9-.73,1.811-1.022,2.741-.076.242.112.566.178.852a2.739,2.739,0,0,0,.628-.577c.173-.305.23-.676.443-1.126m8.745-65.7c-.175.53-.365,1.056-.514,1.593a1.062,1.062,0,0,0,.068.508.244.244,0,0,0,.21.043,10.227,10.227,0,0,0,1.467-1.526c.123-.183-.2-.727-.408-1.052a4.574,4.574,0,0,0-.725-.731c-.033.317-.066.635-.1,1.165m-10.771,73.48a3.074,3.074,0,0,0,.516-.83c.215-.913.362-1.843.517-2.77a7.558,7.558,0,0,0,.048-.864,5.108,5.108,0,0,0-.731.506.893.893,0,0,0-.236.532,30.516,30.516,0,0,0-.116,3.426m-69.961,28.155-.932.292a1.3,1.3,0,0,0,.245.293c.773.5,1.549,1,2.339,1.475a.388.388,0,0,0,.362-.115,1.109,1.109,0,0,0-.776-1.521,7.182,7.182,0,0,1-1.238-.424m50.871-48.738c.221.063.538.251.647.167a9.622,9.622,0,0,0,1.125-1.1.58.58,0,0,0,.131-.345,3.037,3.037,0,0,0-1.179-.693c-.205-.023-.538.556-.7.913a3.178,3.178,0,0,0-.02,1.054m-49.271,55.244-.376-.478c-.159.289-.5.615-.445.859a3.1,3.1,0,0,1-.369,2.356c-.074.126.3.515.461.782.172-.174.469-.332.494-.525.119-.922.164-1.853.235-2.994m-98.009,3.733c.832-.213,1.667-.416,2.493-.65.144-.041.252-.21.376-.321-.17-.1-.357-.315-.506-.291-.821.132-1.635.308-2.439.519-.061.016-.023.415.076.743m191.753-53.964c-.722.213-1.453.4-2.16.656a.878.878,0,0,0-.48.524.769.769,0,0,0,.217.62c.069.069.379-.073.562-.157a5.619,5.619,0,0,0,1.125-.589,2.475,2.475,0,0,0,.737-1.052m26.982-16.1c0-.071,0-.142,0-.213.018-.622.04-1.244.045-1.866,0-.032-.141-.065-.216-.1-.156.573-.335,1.141-.459,1.721a1.808,1.808,0,0,0,.011.842c.043.15.294.241.452.358a4.019,4.019,0,0,0,.167-.747M67.071,83.62c.486-.273.982-.53,1.452-.828.13-.083.181-.289.268-.438-.2-.027-.415-.125-.581-.067A12.643,12.643,0,0,0,66.5,83c-.161.084-.2.394-.3.6.22.007.44.014.874.021M97.145,100.9c-.337.213-.678.42-1.007.643a3.281,3.281,0,0,0-.364.332c.17.1.381.324.5.283a7.468,7.468,0,0,0,1.524-.667c.227-.137.333-.474.494-.72-.313.043-.626.085-1.152.128m83.718,53.644,1.014.479c-.086-.334-.168-.669-.26-1a.448.448,0,0,0-.115-.161,7.7,7.7,0,0,0-.671-.686c-.027-.023-.378.227-.361.284.093.3.255.584.393,1.086M52.247,95.458c.2.32.361.855.618.908.354.072.789-.205,1.172-.374.061-.027.046-.4.031-.4a8.21,8.21,0,0,0-1.821-.135m135.336,54.284.468-.812c-.318.057-.716.016-.937.194a6.711,6.711,0,0,0-.917,1.106,11,11,0,0,0,1.386-.488M85.734,256.282c-.145-.069-.386-.227-.419-.192a12.8,12.8,0,0,0-1.048,1.25,2.341,2.341,0,0,0-.222.665c.279-.093.637-.109.819-.3a4.856,4.856,0,0,0,.87-1.427M9.054,154.434a5.112,5.112,0,0,0,.889-.491c.129-.106.229-.484.159-.553a1.608,1.608,0,0,0-.766-.418c-.091-.019-.324.31-.373.509a1.916,1.916,0,0,0,.09.953m7.465,30.075a2.559,2.559,0,0,0-.125.486c.616.284,1.242.552,1.881.777.1.035.275-.151.415-.235-.111-.129-.2-.315-.337-.378a12.759,12.759,0,0,0-1.834-.65m176.289-38.926a5.4,5.4,0,0,0-.5.968c-.024.077.343.276.53.419a10.814,10.814,0,0,0,.6-.97,1.7,1.7,0,0,0,.063-.578,2.089,2.089,0,0,0-.691.162M241.226,157.1c-.074.074-.189.136-.214.224a7.136,7.136,0,0,0-.129.714c.259-.031.627.031.753-.115a2.794,2.794,0,0,0,.349-.916,2.093,2.093,0,0,0-.76.093M86.587,109.322c-.414-.272-.818-.563-1.251-.8-.092-.051-.412.079-.419.148-.043.4,1.1.94,1.67.654M91.066,160.3l1.505.414c.011-.123.037-.353.031-.354a6.185,6.185,0,0,0-1.536-.06m.96-61.322a2.557,2.557,0,0,0-.856-.174c-.129.017-.213.375-.317.579.154.078.35.259.454.216a1.49,1.49,0,0,0,.719-.621m108.247,1.813a.811.811,0,0,0-.007-.314c-.1-.223-.241-.431-.365-.646l-.481.658a2.026,2.026,0,0,0,.853.3m-75.4-19.73a4.854,4.854,0,0,0-.565.812c-.042.092.19.309.3.468.333-.362,1.014-.593.268-1.28M90.746,195.173l-.724.3a2.494,2.494,0,0,0,.547.36,1.812,1.812,0,0,0,.582,0,1.124,1.124,0,0,0-.4-.662m108.461-78.813c.3.412.608.434.843-.037a2.506,2.506,0,0,0,.125-.7q-.394.279-.787.559c-.028.02-.05.049-.181.18m-39.14-25.7-.2.442c.214.06.444.2.635.155.132-.029.208-.307.309-.473a1.568,1.568,0,0,0-.747-.124m25.382,66.335c.76-.314-.075-.583-.038-.88a2.142,2.142,0,0,0-.288-.074,1.711,1.711,0,0,0,.326.954M172.012,58.877l.263-.59c-.217.042-.5.016-.636.143-.158.144-.192.426-.28.647a2.365,2.365,0,0,1,.652-.2M87.44,249.03c-.1-.178-.159-.435-.308-.506-.1-.049-.33.156-.5.248a1.81,1.81,0,0,0,.809.258M83.281,142.063l.439.414.246-.369a1.391,1.391,0,0,0-.685-.045m87.025,7.252-.015-.427-.518.518a1.1,1.1,0,0,0,.533-.091m14.078,1.92-.232-.408-.3.5A1.124,1.124,0,0,0,184.383,151.234Z" transform="translate(164 1941.451)"></path><path d="M638.934,851a15.933,15.933,0,0,1,2.574-9.8,7.56,7.56,0,0,1,3.484-3.2c.3-.1.74-.257.926-.124a1.956,1.956,0,0,0,2.253-.1c.882-.443,1.781-.856,2.645-1.332a8,8,0,0,1,6.812-.289,18.6,18.6,0,0,1,9.847,8.605,12.566,12.566,0,0,1,1.751,6.41c-.019,1.5.109,3.018-.023,4.511-.548,6.164-3.162,11.124-9.627,13.687a14.382,14.382,0,0,1-5.234,1.261,14.674,14.674,0,0,1-11.58-6.929,21.193,21.193,0,0,1-3.046-7.155c-.4-1.78-.531-3.623-.781-5.544m19.2,16.744a11.679,11.679,0,0,0,5.967-4.624,14.3,14.3,0,0,0,1.523-11.849,18.063,18.063,0,0,0-4.645-7.559c-.452-.475-.941-.719-1.342-.007-.63,1.118-1.178,2.281-1.785,3.412a2.6,2.6,0,0,0,.439,3.494,15.738,15.738,0,0,0,2.3,1.855c1.568.949,1.893,2.237.582,3.449a24.676,24.676,0,0,1-4.015,3.151,51.722,51.722,0,0,0-8.2,5.908,8.137,8.137,0,0,0-.6.674,4.588,4.588,0,0,0,.97.481c.75.175,1.372.372,1.368,1.347a1.041,1.041,0,0,0,.559.771,5.6,5.6,0,0,0,1.5.24,14.144,14.144,0,0,0,5.379-.743m-8.532-20.9a33.248,33.248,0,0,1,2.659-2.614,7.628,7.628,0,0,1,2.9-1.675,4.135,4.135,0,0,0,2.155-1.043c.572-.531.34-.876-.12-1.124a29.3,29.3,0,0,0-3.287-1.583,4.446,4.446,0,0,0-5.413,1.3,17.941,17.941,0,0,0-2.773,4.278c-1.729,4.116-3.049,8.342-2.331,12.943a21.349,21.349,0,0,0,2.989,7.188c.071.126.291.167.442.247.042-.172.178-.4.113-.506-.772-1.232-.194-2.29.48-3.263,1.155-1.668,2.384-3.286,3.611-4.9.6-.787.694-1.432-.21-2.078a9.23,9.23,0,0,1-1.289-1.27,3.367,3.367,0,0,1-.9-3.847c.27-.635.644-1.226.97-2.05m2.56,4.266c.828.4,1.659.8,2.484,1.206,1.163.578,1.241.9.281,1.772a15.81,15.81,0,0,0-3.519,5.474,2.174,2.174,0,0,0-.033.784,2.026,2.026,0,0,0,.646-.151c1.1-.7,2.176-1.437,3.267-2.152a10.979,10.979,0,0,0,2.241-1.484c.962-1.064,1.313-2.316-.195-3.916-1.424-1.511-2.685-3.112-2.194-5.416a1.326,1.326,0,0,0-.1-.488,1.678,1.678,0,0,0-.434.225c-.863.845-1.675,1.745-2.579,2.543-.648.572-.664,1.007.131,1.6m13.011-4.693a2.806,2.806,0,0,1,.419.572c.584,1.461,1.141,2.933,1.72,4.4a2.3,2.3,0,0,0,.327.458c.1-.206.334-.451.287-.612a28.127,28.127,0,0,0-1.757-5.436,17.461,17.461,0,0,0-6.75-7.02,26.611,26.611,0,0,0-3.35-1.411c-.13-.052-.323.055-.486.088a2.5,2.5,0,0,0,.3.506,1.292,1.292,0,0,0,.431.232c3.842,1.69,6.453,4.742,8.865,8.227m-23.889,5.119a5.524,5.524,0,0,0-.191,1.29,7.1,7.1,0,0,0,.383,1.376,7.778,7.778,0,0,0,.435-1.229c.18-1,.194-2.032.461-3,.514-1.865,1.163-3.692,1.736-5.541a1.559,1.559,0,0,0-.062-.585,1.518,1.518,0,0,0-.442.265,2.082,2.082,0,0,0-.394.682c-.653,2.173-1.287,4.352-1.927,6.742m2.773-10.451c.351-.351.717-.688,1.044-1.06a1.389,1.389,0,0,0,.163-.506c-.192.027-.442-.012-.565.094a6.7,6.7,0,0,0-1.2,1.2c-.769,1.123-1.484,2.285-2.172,3.459-.1.175.055.5.091.758.169-.107.4-.173.495-.326C642.6,843.538,643.271,842.36,644.054,841.08Z" transform="translate(-338.649 1284.134)"></path><path d="M1011.949,868.039c.8-.64,1.612-1.164,2.406-1.711.352-.242.666-.537,1.008-.794.787-.592,1.547-1.229,2.379-1.751,3.407-2.138,6.837-4.239,10.257-6.355q2.248-1.391,4.495-2.783c.081-.05.224-.022.281-.083.459-.492,1.026-1.2,1.646-.747a2.765,2.765,0,0,1,.947,1.9c.11,2.422.043,4.852.043,7.28,0,.5.042,1-.007,1.491-.27,2.76-.58,5.517-.824,8.279a2.867,2.867,0,0,0,.375,1.112c.142.367.3.727.455,1.09-.344.109-.687.218-1.031.329-.282.091-.7.1-.824.289-1.262,1.943-3.378,2.715-5.2,3.9-3.14,2.036-6.251,4.116-9.381,6.167-1.59,1.042-3.135,2.175-4.812,3.052-1.224.639-2.226-.129-2.205-1.512.041-2.741.129-5.482.206-8.222.065-2.35.2-4.7.188-7.05-.007-1.256-.26-2.511-.4-3.873m13.864,10.985c1.7-1.031,3.413-2.046,5.1-3.1a1.791,1.791,0,0,0,.471-3.053c-1.035-1.212-2.1-2.4-3.161-3.587a5.611,5.611,0,0,0-.66-.547c.069.313.032.746.226.92.917.82.473,1.624.045,2.423a14.454,14.454,0,0,1-1.055,1.689,5.5,5.5,0,0,1-1.02,1.083,2.357,2.357,0,0,1-2.9-.074c-.809-.492-1.394-.552-1.751.534-.522,1.589-1.084,3.168-1.707,4.72-.5,1.247-1.128,2.442-1.669,3.673a2.7,2.7,0,0,0-.089.8,2.931,2.931,0,0,0,.6-.267c.412-.306.775-.681,1.2-.965,2.081-1.392,4.176-2.764,6.372-4.249m-11.945,0c-.071,1.534-.133,3.069-.216,4.6-.054,1-.159,2-.193,3-.007.2.187.415.329.59a1.542,1.542,0,0,0,.418-.22,14.816,14.816,0,0,0,1.249-.84c.362-.291.787-.518.223-1.144a1.943,1.943,0,0,1-.183-1.608c1.049-3.257,2.05-6.541,3.351-9.7.527-1.279.082-1.675-.775-2.274-.9-.628-1.692-1.4-2.567-2.061-.305-.231-.851-.55-1.044-.432a1.455,1.455,0,0,0-.563,1.087c0,1.5.168,3,.17,4.5,0,1.428-.127,2.855-.2,4.5m7.679-9.6c.685.235,1.358.875,2.1.227a11.858,11.858,0,0,0,1.313-1.474c2.2-2.7,3.416-5.969,5.087-8.974.1-.172.026-.437.032-.659a2.167,2.167,0,0,0-.586.174c-2.073,1.345-4.145,2.693-6.2,4.064q-2.677,1.783-5.321,3.616c-.943.652-.913.922.15,1.422,1.1.517,2.214,1,3.428,1.6m8.318-.64.861,1.173c.068-.484.144-.968.2-1.454.009-.084-.1-.176-.111-.268-.085-1.19-.163-2.381-.24-3.571-.015-.226-.021-.452-.03-.679-.226.156-.537.262-.662.477-.4.679-.719,1.4-1.084,2.1-.281.537-.392.919.43,1.089.265.055.428.6.638,1.131m3.839-.853c.071-.537.172-1.072.192-1.611.005-.133-.251-.277-.387-.415a2.06,2.06,0,0,0-.225.469,18.81,18.81,0,0,0-.4,2.372c-.022.322.278.665.432,1a5.691,5.691,0,0,0,.38-.86,4.536,4.536,0,0,0,.012-.953m-9.6,5.546c.459-.1.925-.188,1.375-.325.12-.037.19-.237.283-.363-.14-.091-.274-.247-.421-.259-.423-.035-.908.115-1.262-.044-.454-.2-.762-.218-.787.276-.01.191.456.406.811.716m8.958-13.438-.395-.746c-.153.228-.407.443-.437.686a9.237,9.237,0,0,0-.01,1.622c.008.158.145.31.223.465.135-.175.337-.33.392-.527A9.681,9.681,0,0,0,1033.065,860.04Z" transform="translate(-632.105 1269.865)"></path></g></svg>