<svg xmlns="http://www.w3.org/2000/svg" width="95.494" height="63.104" viewBox="0 0 95.494 63.104"><defs><style>.a{fill:#d5a124;opacity:0.586;}.b{fill:#fff;}</style></defs><g transform="translate(-548.948 -1186.181)"><path class="a" d="M-1519.58,1951.692l85.023-3.438,2.579,8.063,2.919,35.7-1.895,6.053-82.309,8.147-3.577-2.6-1.093-10.393v-15.777Z" transform="translate(2073.5 -756.934)"></path><path class="b" d="M-1487.253,1986.239l.6-8.074,5.278-5.746s7.345-1.84,7.883-1.723,8.67,2.894,8.67,2.894l4.05,7.568-.853,7.746-5.31,6.293-6.558,1.6-9.33-2.844-4.43-7.159" transform="translate(2070 -760)"></path><path d="M91.673,27.135c.083.7.169,1.376.248,2.048.047.4.078.8.127,1.2.077.621.171,1.24.246,1.862.052.428.079.86.128,1.289.078.673.168,1.344.246,2.017.031.271.037.545.065.816.08.756.171,1.511.246,2.267.053.533.087,1.067.126,1.6.064.878.152,1.756.181,2.636.045,1.342.071,2.685.055,4.027a1.942,1.942,0,0,1-.391,1.27.582.582,0,0,0-.09.363,8.6,8.6,0,0,1-.434,3.033,1.355,1.355,0,0,0-.006.465,2.525,2.525,0,0,1-1.148,2.232,4.909,4.909,0,0,1-1.944.874c-.477.1-.967.12-1.449.2-.769.12-1.535.258-2.3.386-.36.06-.721.115-1.082.173-.507.082-1.012.174-1.52.243-.427.058-.859.085-1.287.132-.725.08-1.448.169-2.173.247-.439.048-.88.084-1.32.126-.859.083-1.719.169-2.578.248-.5.047-1.006.076-1.507.128-.735.076-1.469.166-2.2.247q-.345.038-.691.062c-.627.044-1.255.077-1.881.127q-1.446.116-2.89.249c-.6.055-1.195.132-1.794.184-.826.071-1.653.122-2.479.191-.64.054-1.279.122-1.918.186-.839.083-1.677.169-2.516.249-.691.066-1.384.116-2.074.19-.873.094-1.743.211-2.615.308-.638.071-1.28.116-1.918.191-.79.093-1.576.212-2.366.307-.459.055-.922.079-1.382.129-.7.077-1.407.168-2.111.246-.281.031-.565.036-.847.065-.756.079-1.511.168-2.267.247-.282.029-.565.043-.847.064l-2.511.187c-.575.042-1.151.081-1.726.125-.785.06-1.57.125-2.355.186-.565.044-1.13.077-1.694.127-.87.077-1.74.168-2.61.246-.344.031-.69.041-1.034.064-.92.061-1.841.117-2.76.189-.64.05-1.279.124-1.918.184-.691.065-1.383.12-2.074.189-.767.077-1.532.164-2.3.248-.944.1-1.889.206-2.833.312-.7.08-1.407.17-2.111.248q-.927.1-1.856.187c-.953.087-1.9.192-2.859.244-.977.052-1.959.094-2.936.056a7.113,7.113,0,0,1-2.474-.489,2.733,2.733,0,0,1-1.64-1.946c-.275-1.044-.532-2.094-.746-3.151-.186-.919-.308-1.851-.442-2.78-.117-.807-.224-1.617-.311-2.428-.1-.92-.217-1.842-.243-2.765-.054-1.861-.058-3.724-.068-5.587,0-.625.04-1.251.058-1.876.023-.771.04-1.542.063-2.313.018-.594.059-1.189.057-1.783,0-.719-.028-1.438-.061-2.157q-.043-.957-.125-1.913c-.073-.86-.16-1.72-.248-2.578-.077-.746-.162-1.491-.249-2.235C1.206,28.171,1.1,27.3,1,26.428c-.034-.3-.038-.607-.066-.909-.08-.881-.167-1.76-.247-2.641-.028-.313-.047-.627-.063-.941C.6,21.426.6,20.914.556,20.4.484,19.481.39,18.56.311,17.638c-.03-.354-.046-.71-.063-1.065C.2,15.707.165,14.84.122,13.974c-.019-.4-.048-.793-.061-1.19C.036,11.992-.022,11.2.009,10.409.041,9.6.184,8.795.241,7.986A5.77,5.77,0,0,1,.81,5.943c.241-.518.725-1,1.254-.943a1.175,1.175,0,0,1,.409.138.3.3,0,0,0,.446-.108A1.833,1.833,0,0,1,4.03,4.257,7.2,7.2,0,0,1,5.919,3.99c.495-.025.986-.119,1.478-.19.2-.029.4-.094.607-.111.626-.051,1.254-.089,1.881-.128q1.065-.066,2.131-.125c.825-.044,1.649-.083,2.474-.126q1.175-.061,2.349-.125c.376-.02.752-.044,1.128-.062.949-.043,1.9-.081,2.848-.126.783-.037,1.566-.087,2.349-.123,1-.046,2-.085,3-.126l1.564-.063q1.5-.062,3-.125c.438-.019.877-.046,1.315-.061.719-.025,1.438-.041,2.157-.064.584-.018,1.168-.04,1.752-.062q1.658-.062,3.316-.125c.47-.018.939-.048,1.409-.061.937-.025,1.875-.041,2.812-.065.646-.017,1.292-.041,1.939-.062q.938-.031,1.876-.063c.553-.019,1.105-.047,1.658-.061.979-.025,1.958-.041,2.936-.064.813-.019,1.625-.044,2.438-.061,1.093-.023,2.186-.04,3.279-.064.8-.017,1.6-.04,2.406-.062.761-.02,1.521-.043,2.282-.062q1.39-.034,2.781-.063c.927-.021,1.854-.04,2.781-.063.7-.018,1.4-.04,2.095-.062.657-.02,1.313-.04,1.97-.063.5-.018,1-.045,1.5-.061.74-.024,1.48-.041,2.219-.064.625-.019,1.251-.042,1.876-.062.709-.022,1.417-.04,2.126-.063.511-.017,1.022-.039,1.533-.062.887-.04,1.774-.084,2.661-.124C84.367.92,84.878.886,85.389.884A2.542,2.542,0,0,0,86.781.323,1.4,1.4,0,0,1,87.647,0a.754.754,0,0,1,.721.519c.018.055.026.125.064.159a2.334,2.334,0,0,1,.544,1.086.884.884,0,0,1-.039.825.63.63,0,0,0,0,.7,4.717,4.717,0,0,1,.62,2.02c.087.946.2,1.889.308,2.834.083.756.158,1.512.252,2.266.092.738.212,1.472.307,2.21.092.713.167,1.428.252,2.141.1.872.211,1.743.31,2.615.034.3.049.606.063.909.025.552.038,1.106.065,1.658.036.742.076,1.484.126,2.225.03.451.083.9.122,1.352.085.984.166,1.968.25,2.952.018.21.041.42.062.662M61.582,55.823c.027-.021.053-.058.081-.06.878-.065,1.757-.126,2.635-.19.555-.04,1.109-.08,1.663-.125.995-.081,1.988-.173,2.984-.246.73-.054,1.462-.084,2.193-.128.231-.014.461-.038.691-.062.808-.082,1.615-.169,2.422-.248.5-.049,1.005-.08,1.507-.127.86-.08,1.719-.167,2.578-.248.492-.046.985-.076,1.476-.127.725-.076,1.449-.166,2.173-.247.408-.045.82-.068,1.226-.129.6-.09,1.2-.212,1.8-.306s1.2-.169,1.8-.251c.767-.1,1.538-.191,2.3-.317.733-.12,1.419-.423,1.371-1.42-.02-.418-.02-.838-.076-1.251-.016-.117-.176-.252-.3-.308-.192-.086-.423-.083-.616-.168-.915-.4-1.845-.777-2.729-1.239a33.63,33.63,0,0,1-4.163-2.6q-1.959-1.422-3.885-2.889-1.666-1.272-3.286-2.6c-.86-.709-1.689-1.457-2.519-2.2-.784-.7-1.551-1.425-2.328-2.136q-1.05-.962-2.105-1.918c-.6-.539-1.191-1.08-1.8-1.608-.7-.61-1.409-1.21-2.119-1.808-.4-.336-.63-.311-.925.075a3.812,3.812,0,0,1-.309.37c-.622.628-1.232,1.268-1.879,1.869a1.177,1.177,0,0,0-.335,1.155,14.64,14.64,0,0,1,.239,1.643,16.052,16.052,0,0,1-.24,3.918c-.161.774-.292,1.558-.509,2.316a15.406,15.406,0,0,1-.785,2.136,6.357,6.357,0,0,1-1.248,1.945c-.68.671-1.35,1.358-2.081,1.971a19.355,19.355,0,0,1-1.661,1.094,11.2,11.2,0,0,1-3.77,1.885,16.717,16.717,0,0,1-2.487.387,13.2,13.2,0,0,1-3.451-.233c-.79-.156-1.6-.227-2.369-.459a17.876,17.876,0,0,1-2.283-.956,11.225,11.225,0,0,1-2.992-1.876,25.679,25.679,0,0,1-2.512-2.539,13.667,13.667,0,0,1-1.524-2.541,13.247,13.247,0,0,1-.872-2.317,10.086,10.086,0,0,1-.316-2.019,12.621,12.621,0,0,1,0-2.253,11.556,11.556,0,0,1,.63-2.633.447.447,0,0,0-.093-.392c-.309-.282-.647-.532-.979-.788-.771-.595-1.549-1.182-2.318-1.78-.443-.344-.871-.706-1.31-1.055-.138-.11-.28-.161-.408.028-.149.22-.319.427-.46.652-.952,1.528-1.885,3.067-2.85,4.586-.744,1.172-1.515,2.327-2.291,3.479-.812,1.2-1.646,2.394-2.466,3.594q-1.535,2.247-3.062,4.5c-.581.859-1.137,1.736-1.726,2.589q-1.776,2.573-3.582,5.126a2.485,2.485,0,0,1-.689.715c-.331.2-.592.081-.895-.234a.872.872,0,0,1-.089-.9q.979-1.562,1.982-3.108c.745-1.148,1.5-2.288,2.253-3.432.874-1.332,1.743-2.667,2.619-4,.619-.94,1.259-1.867,1.869-2.812q1.547-2.4,3.065-4.811c.475-.756.914-1.533,1.37-2.3s.924-1.551,1.389-2.324a12.674,12.674,0,0,1,1.939-2.44c.195-.194.233-.38-.011-.582-.776-.641-1.531-1.309-2.32-1.933-.808-.639-1.644-1.243-2.472-1.856-.77-.57-1.548-1.131-2.32-1.7q-1.2-.879-2.388-1.763c-.716-.529-1.443-1.045-2.146-1.591q-1.28-.993-2.527-2.028c-.893-.743-1.784-1.491-2.642-2.274-.681-.622-1.319-1.292-1.961-1.955-.4-.409-.782-.832-1.146-1.271-.593-.716-1.186-1.434-1.739-2.18-.507-.685-.967-1.4-1.435-2.117-.092-.14-.169-.249-.349-.2s-.21.184-.209.351c0,1.012,0,2.023.005,3.035,0,.366.024.733.063,1.1.072.684.173,1.365.244,2.049.074.721.118,1.446.192,2.167.094.914.212,1.826.307,2.74.072.69.125,1.383.19,2.074.081.86.168,1.719.248,2.578.086.932.167,1.864.25,2.8.021.241.034.483.064.722.079.642.171,1.282.246,1.924.052.449.074.9.129,1.351.094.758.213,1.514.307,2.272.075.607.14,1.215.186,1.824.056.73.121,1.462.121,2.193,0,1.883-.031,3.766-.057,5.649-.008.6-.039,1.209-.061,1.814-.02.553-.062,1.105-.058,1.658.01,1.654.02,3.309.065,4.963.026.973.113,1.944.182,2.916.053.744.123,1.487.185,2.23.021.251.03.5.065.753.075.528.166,1.054.246,1.581.085.558.145,1.12.259,1.672a.729.729,0,0,0,.566.659,15.825,15.825,0,0,0,1.892.242c.832.029,1.666-.029,2.5-.05.021,0,.042,0,.062,0q1.227-.124,2.453-.249c.44-.044.882-.073,1.32-.128.57-.072,1.136-.175,1.706-.244.627-.076,1.259-.117,1.886-.193.947-.115,1.892-.253,2.839-.369.607-.074,1.216-.13,1.824-.189.89-.086,1.781-.171,2.672-.249.784-.068,1.569-.128,2.354-.188.585-.045,1.171-.085,1.757-.125q1.38-.095,2.76-.187c.658-.044,1.317-.081,1.975-.126.9-.06,1.8-.129,2.7-.185.783-.049,1.566-.083,2.349-.127.283-.016.565-.037.847-.062.922-.081,1.843-.167,2.765-.248.282-.025.565-.036.847-.064.8-.08,1.594-.166,2.391-.248.251-.026.5-.036.753-.064.714-.08,1.428-.168,2.142-.247.429-.048.86-.077,1.289-.127.851-.1,1.7-.213,2.553-.308.491-.055.985-.075,1.476-.13.852-.1,1.7-.212,2.553-.307.5-.056,1-.092,1.507-.126.972-.067,1.944-.126,2.978-.188M5.642,7.927a.763.763,0,0,0,.273-.094A.852.852,0,0,1,7.079,7.7a11.079,11.079,0,0,1,1.475,1.03c1.018.821,2.028,1.652,3.012,2.513.886.776,1.742,1.586,2.591,2.4.535.514,1.033,1.066,1.547,1.6s1,1.042,1.5,1.561c.63.653,1.248,1.317,1.895,1.952,1.17,1.149,2.327,2.316,3.55,3.408.851.76,1.8,1.415,2.709,2.1.956.722,1.924,1.426,2.885,2.141.827.615,1.655,1.229,2.475,1.853.666.507,1.32,1.029,1.981,1.541.432.334.865.668,1.305.99.192.14.338.134.517-.095q1.014-1.292,2.092-2.532a10.47,10.47,0,0,1,1.14-1.082c.564-.478,1.131-.957,1.736-1.38a15.239,15.239,0,0,1,3-1.626,12.032,12.032,0,0,1,4.034-.869c.5-.022,1,.048,1.5.052a9,9,0,0,1,2.214.381,14.462,14.462,0,0,1,4.277,1.938c.736.484,1.394,1.087,2.123,1.584a11.318,11.318,0,0,1,1.979,1.617,1.9,1.9,0,0,0,.4.386.417.417,0,0,0,.387-.007c.6-.719,1.189-1.456,1.773-2.192q1.052-1.324,2.094-2.656c.717-.918,1.411-1.854,2.144-2.758C66.194,20.6,67,19.671,67.8,18.74c.657-.762,1.335-1.506,2-2.258s1.333-1.508,2.008-2.254q1.049-1.16,2.117-2.3.825-.881,1.676-1.737c.51-.511,1.033-1.008,1.561-1.5q1.088-1.013,2.193-2.006,1.248-1.114,2.516-2.205c.687-.594,1.384-1.176,2.072-1.768a.741.741,0,0,0,.119-.2c-.078-.045-.154-.124-.233-.126-.157,0-.315.046-.473.053-1,.045-2,.083-3,.127q-1.331.058-2.661.124c-.835.04-1.67.084-2.505.124-.9.043-1.795.078-2.692.127-.6.032-1.192.089-1.788.121-.876.048-1.753.082-2.63.127-.721.037-1.441.083-2.162.124-.752.042-1.5.087-2.256.124-.918.045-1.836.081-2.754.127-.742.037-1.483.087-2.224.123-.97.046-1.94.085-2.91.126-.521.022-1.043.038-1.564.063-.783.038-1.566.088-2.349.122-1.063.047-2.127.084-3.191.126-.49.02-.981.039-1.471.063-.814.04-1.628.085-2.443.123-.521.025-1.043.044-1.564.063-.625.023-1.251.04-1.876.064-.428.016-.856.041-1.284.061q-1.3.063-2.6.124c-.49.023-.981.042-1.471.063-.949.041-1.9.079-2.848.126-.711.035-1.42.085-2.131.123-.856.045-1.712.081-2.567.127-.679.036-1.358.083-2.037.123q-1.065.064-2.131.125c-.773.043-1.545.082-2.318.125-.721.04-1.441.088-2.162.123-.97.047-1.94.091-2.91.124-.906.03-1.812.064-2.718.06-2.132-.008-4.265-.035-6.4-.061a7.436,7.436,0,0,1-1.033-.066,4.766,4.766,0,0,0-1.924.056c-.574.147-.638.26-.311.761.337.515.754.979,1.168,1.5m83.163,13c-.042-.336-.095-.67-.122-1.007-.05-.616-.083-1.234-.128-1.85-.06-.827-.116-1.654-.189-2.479-.072-.808-.162-1.615-.247-2.423-.081-.766-.176-1.531-.246-2.3-.074-.8-.147-1.61-.185-2.417-.043-.926-.047-1.853-.067-2.78a3.189,3.189,0,0,0-.007-.467.477.477,0,0,0-.161-.265c-.028-.023-.169.047-.222.107-.2.224-.383.464-.578.694-.476.562-.956,1.121-1.432,1.683-.795.938-1.583,1.883-2.384,2.816-.5.578-1.007,1.145-1.521,1.709-.73.8-1.468,1.6-2.2,2.393q-.771.835-1.543,1.668-1.158,1.251-2.315,2.5c-.643.7-1.278,1.4-1.919,2.1q-1.056,1.154-2.116,2.3c-.713.775-1.42,1.556-2.14,2.324-.809.864-1.631,1.715-2.445,2.574q-.423.446-.837.9c-.159.176-.188.316.061.475.571.364,1.136.741,1.675,1.149.67.508,1.313,1.052,1.965,1.583.692.564,1.389,1.122,2.07,1.7.573.486,1.126,1,1.689,1.5.89.787,1.777,1.577,2.672,2.358.509.443,1.018.887,1.552,1.3.776.6,1.57,1.171,2.363,1.745,1.135.82,2.266,1.646,3.417,2.442,1,.69,2.025,1.336,3.03,2.015,1.26.852,2.519,1.707,3.761,2.585.322.228.594.383.936.082a.331.331,0,0,1,.1-.062c.49-.184.639-.391.585-.877-.073-.663-.163-1.324-.247-1.986-.1-.8-.219-1.6-.308-2.4-.078-.7-.124-1.4-.192-2.1q-.117-1.212-.249-2.422c-.079-.725-.164-1.449-.249-2.173-.1-.872-.2-1.744-.313-2.615-.1-.789-.2-1.577-.311-2.365-.122-.895-.253-1.788-.372-2.683-.11-.829-.22-1.659-.31-2.49-.1-.889-.182-1.78-.248-2.672-.044-.6-.046-1.209-.067-1.876M45.056,43.475c.419-.565.826-1.139,1.26-1.692q1.754-2.24,3.529-4.462c.575-.716,1.176-1.411,1.785-2.1.939-1.06,1.891-2.108,2.843-3.157q.753-.83,1.522-1.646a.39.39,0,0,0,.068-.554,14.314,14.314,0,0,0-.9-1.154,7.559,7.559,0,0,0-1.976-1.393c-.452-.25-.436-.2-.743.1q-1.828,1.8-3.657,3.593c-.6.585-1.212,1.152-1.8,1.745-.92.924-1.825,1.862-2.736,2.794-.022.022-.045.043-.066.066-.713.8-1.419,1.6-2.143,2.384a.8.8,0,0,1-.907.185A11.434,11.434,0,0,1,38.166,36.4c-.678-.5-1.341-1.024-2.021-1.524-.3-.222-.37-.194-.471.184a4.041,4.041,0,0,0-.171.893c-.02.577,0,1.157.026,1.735a2.433,2.433,0,0,0,.132.692c.173.489.394.96.562,1.45a1.229,1.229,0,0,0,.656.786,7.685,7.685,0,0,1,.7.431c1.112.677,2.228,1.347,3.337,2.031q1.356.836,2.694,1.7a.313.313,0,0,0,.486-.095c.308-.394.622-.782.965-1.2M76.612,13.789c.279-.3.557-.6.838-.9.719-.762,1.443-1.52,2.159-2.286.754-.807,1.5-1.623,2.249-2.434s1.494-1.628,2.25-2.434c.565-.6,1.146-1.188,1.716-1.784a2.633,2.633,0,0,0,.22-.283.489.489,0,0,0,.045-.109c-.054-.02-.113-.064-.161-.054s-.094.071-.14.11c-.43.367-.854.741-1.29,1.1-.656.542-1.326,1.068-1.98,1.612-.59.491-1.171.993-1.749,1.5-.894.782-1.824,1.528-2.662,2.366-1.611,1.611-3.174,3.27-4.745,4.919-.583.612-1.133,1.255-1.7,1.881q-1.222,1.35-2.445,2.7c-.306.339-.611.679-.9,1.029q-.868,1.04-1.719,2.093c-.439.543-.871,1.092-1.3,1.643q-.8,1.024-1.588,2.054-.489.637-.967,1.284c-.038.052-.028.139-.04.21.065,0,.131,0,.2.006.369.032.556-.225.773-.459.69-.747,1.394-1.48,2.091-2.222q1.391-1.48,2.777-2.964.915-.977,1.829-1.954,1.269-1.36,2.535-2.721.978-1.046,1.962-2.086c.569-.6,1.145-1.189,1.749-1.814M51.355,48.152a.651.651,0,0,1-.344-.632q0-3.257,0-6.514a1.148,1.148,0,0,0-.063-.316.6.6,0,0,0-.093-.144.6.6,0,0,0-.088.181c-.068.659-.125,1.32-.191,1.979-.08.807-.153,1.616-.252,2.421-.11.9-.246,1.788-.371,2.682a.6.6,0,0,1-.667.531c-.242-.019-.393-.243-.393-.582,0-.3.008-.6-.006-.9,0-.068-.085-.132-.131-.2a.718.718,0,0,0-.109.193c-.11.548-.189,1.1-.325,1.644-.064.256.008.3.225.283.388-.039.777-.074,1.164-.126.549-.075,1.1-.164,1.642-.247.241-.037.131-.129,0-.249m-10.2-14.874c-.083.4-.187.8-.245,1.207-.086.6-.169.713-.73.822a.3.3,0,0,0-.123.074.14.14,0,0,0,.044.083c.258.179.523.347.775.533.158.117.2.023.215-.1.029-.188.033-.379.066-.566.114-.637.224-1.276.359-1.909s.3-1.267.448-1.9c.185-.818.374-1.636.535-2.459.115-.591.191-1.191.272-1.788.011-.077-.048-.164-.074-.247a.823.823,0,0,0-.166.215c-.143.44-.281.883-.405,1.328-.205.737-.433,1.47-.587,2.218-.166.8-.259,1.62-.383,2.493m11.662,13.6c.021-.563.04-1.126.063-1.689.019-.469.054-.939.059-1.408.01-.821,0-1.642,0-2.463,0-.049-.056-.1-.086-.147-.053.048-.144.09-.154.146-.073.43-.146.86-.19,1.294-.075.752-.143,1.506-.186,2.26-.041.707-.031,1.417-.073,2.125-.02.332-.111.659-.162.99a.264.264,0,0,0,.039.185c.018.023.114,0,.165-.021.533-.246.462-.757.526-1.271m3.305-4.116c.046.2.116.2.186.015q.317-.85.625-1.7a5.362,5.362,0,0,0,.188-1.885c0-.81,0-1.62,0-2.429a.932.932,0,0,0-.074-.248c-.057.069-.148.13-.166.208-.049.211-.062.431-.1.646-.07.406-.162.809-.216,1.218-.077.585-.129,1.173-.191,1.76-.083.786-.166,1.572-.249,2.42m-15.4-14.032-.154-.217a1.879,1.879,0,0,0-.129.254,2.518,2.518,0,0,0-.089.368c-.127.717-.223,1.44-.382,2.15-.224,1-.5,2-.735,3a.736.736,0,0,0,.037.517,2.2,2.2,0,0,0,.523.445c.031.024.091.011.138.015-.006-.048-.01-.1-.019-.143a2.937,2.937,0,0,1-.115-.6,5.472,5.472,0,0,1,.116-.759c.1-.653.206-1.306.313-1.959.164-1,.332-2,.5-3.066M54.754,41.51c.021-.656.045-1.312.058-1.968a.75.75,0,0,0-.086-.243c-.053.069-.143.134-.153.209-.093.649-.191,1.3-.25,1.952-.064.718-.1,1.439-.128,2.16s-.05,1.457-.059,2.186a1.637,1.637,0,0,0,.1.412,2.716,2.716,0,0,0,.271-.292c.093-.134.266-.338.224-.418a2.5,2.5,0,0,1-.113-1.465c.071-.821.091-1.647.133-2.533M43.029,32.343c-.146.708-.288,1.416-.438,2.123-.048.227-.125.448-.17.675-.013.064.041.141.064.212.057-.037.141-.061.166-.114a3.086,3.086,0,0,0,.249-.612c.228-.976.445-1.956.655-2.936.145-.679.279-1.36.408-2.041.1-.521.184-1.045.271-1.569a.877.877,0,0,0-.011-.2c-.065.036-.167.057-.189.111a3.9,3.9,0,0,0-.191.605c-.275,1.226-.543,2.453-.813,3.743m-4.74-1.31c-.146.428-.3.854-.435,1.284a7.46,7.46,0,0,0-.3,1.026.721.721,0,0,0,.172.477c.059.079.305.135.334.1a.991.991,0,0,0,.162-.425c.055-.3.061-.615.133-.912.262-1.083.547-2.161.813-3.244a2.162,2.162,0,0,0,.015-.455,1.635,1.635,0,0,0-.266.356c-.221.573-.422,1.155-.629,1.8M44.4,47.5c-.2.447-.174.51.288.661a4.3,4.3,0,0,1,.441.135c.247.112.329-.031.326-.223-.008-.675-.034-1.35-.06-2.024a1.023,1.023,0,0,0-.074-.248c-.073.062-.175.111-.215.19-.243.478-.472.964-.705,1.509m8.887-11.569q-.671.733-1.34,1.467a.653.653,0,0,0-.089.149c-.119.237.074.38.168.553.1-.094.24-.169.287-.284a.988.988,0,0,1,1.077-.707.281.281,0,0,0,.232-.121c.16-.547.3-1.1.441-1.652.009-.035-.036-.087-.066-.124-.006-.007-.064.012-.083.033-.2.217-.4.436-.626.686m-3.4-9.386c-.147-.132-.2-.126-.309.109-.211.451-.409.907-.6,1.366-.175.414-.34.833-.5,1.252-.02.052.015.125.025.189a.458.458,0,0,0,.152-.063c.362-.355.725-.71,1.075-1.078a.663.663,0,0,0,.212-.372c.007-.447-.031-.894-.051-1.4m5.769,6.7c-.059.079-.118.158-.176.238-.1.135-.266.27-.268.408,0,.1.215.2.336.306.318.265.371.238.517-.144.246-.644.338-1.392,1.1-1.712.058-.024.089-.205.068-.3a.335.335,0,0,0-.2-.22.344.344,0,0,0-.287.094c-.365.424-.712.863-1.1,1.328m-8.294-5.114,0-.187a.562.562,0,0,0-.185.073.415.415,0,0,0-.089.178q-.409,1.262-.814,2.526c-.082.256-.176.51-.241.77a.734.734,0,0,0,.053.285c.066-.043.154-.072.194-.132a2.691,2.691,0,0,0,.362-.626c.172-.543.307-1.1.442-1.653.1-.4.169-.8.283-1.234m14.188,1.091c-.007.028-.006.063-.023.083-.364.43-.737.853-1.092,1.291a.989.989,0,0,0-.106.336,1.045,1.045,0,0,0,.275-.147c.475-.483.951-.967,1.4-1.471a1.989,1.989,0,0,0,.286-.562c.02-.047-.027-.122-.043-.185a.544.544,0,0,0-.182.081c-.168.175-.325.361-.517.574M44.994,32.81a1.271,1.271,0,0,0-.118-.357c-.11-.156-.24-.261-.293.058-.031.186-.133.359-.174.545-.016.072.048.161.076.243a.61.61,0,0,0,.169-.091c.11-.116.207-.244.34-.4M47.3,48.464c-.031-.215-.06-.431-.094-.646-.019-.118-.047-.234-.071-.352-.053.109-.148.216-.152.326-.01.273-.224.564.034.817a.762.762,0,0,0,.266.1.627.627,0,0,0,.018-.249M38.788,44c.109.15.214.3.33.449.021.027.084.02.128.029-.023-.133,0-.307-.08-.389s-.142-.4-.378-.089m-2.276-11.07a1.206,1.206,0,0,0,.081-.21.515.515,0,0,0-.021-.164c-.062.022-.155.025-.181.069a.559.559,0,0,0-.09.295c.008.14.088.162.211.011m12.005,8.45a2.682,2.682,0,0,0-.116.255c0,.01.067.046.1.07.025-.082.052-.163.073-.246,0-.013-.019-.032-.06-.079m2.744-14.967-.121.066.086.086A.221.221,0,0,0,51.261,26.418Z" transform="translate(548.948 1186.181)"></path></g></svg>