<svg xmlns="http://www.w3.org/2000/svg" width="190.605" height="146.52" viewBox="0 0 190.605 146.52"><path d="M435.468,490.876a9.09,9.09,0,0,1-.192-1.056,14.073,14.073,0,0,1,.414-4.516,2.486,2.486,0,0,1,2.414-1.815,5.106,5.106,0,0,1,3.911,1.549,18.817,18.817,0,0,1,3.592,4.592c1.184,2.034,2.348,4.081,3.425,6.166,1.086,2.1,2.059,4.261,3.074,6.4,1.377,2.9,2.486,5.892,3.576,8.9.743,2.049,1.635,4.05,2.479,6.065a2.123,2.123,0,0,0,.5.7c.166.157.447.352.627.314.328-.068.32-.426.249-.672a23.182,23.182,0,0,0-.73-2.217q-1.378-3.427-2.811-6.833c-1.177-2.782-2.38-5.554-3.586-8.325-.878-2.017-1.78-4.025-2.671-6.038-1.033-2.335-2.1-4.657-3.086-7.009-.858-2.042-1.683-4.1-2.414-6.185a15.968,15.968,0,0,1-.691-3.222,13.983,13.983,0,0,1-.1-2.982,8.7,8.7,0,0,1,1.339-4.333,2.719,2.719,0,0,1,3-1.124,9.894,9.894,0,0,1,5.349,3.239,22.207,22.207,0,0,1,3.319,5.26c.82,1.614,1.645,3.227,2.382,4.875,1.331,2.973,2.613,5.967,3.886,8.963,1.015,2.389,2.014,4.785,2.97,7.2.806,2.031,1.5,4.105,2.323,6.129.637,1.559,1.407,3.069,2.118,4.6a.989.989,0,0,0,.107.194c.112.145.233.283.35.424a1.824,1.824,0,0,0-.01-.535c-.819-2.512-1.611-5.034-2.491-7.527-1.03-2.915-2.133-5.808-3.217-8.705-1.141-3.048-2.319-6.083-3.437-9.139a27.792,27.792,0,0,1-1.491-5.415c-.119-.793-.241-1.589-.29-2.388a8.6,8.6,0,0,1,.062-1.975,3.974,3.974,0,0,1,1.992-2.543c1.753-1.16,3.442-.789,5.066.395a22.7,22.7,0,0,1,5.577,6.205c1.361,2.1,2.516,4.328,3.724,6.518.4.732.686,1.525,1.035,2.285.043.094.159.159.241.237a1.3,1.3,0,0,0,0-.3,14.785,14.785,0,0,1-.593-4.586,6.578,6.578,0,0,1,1.007-3.475,3.726,3.726,0,0,1,2.482-1.536,4.25,4.25,0,0,1,3.569.758A13.75,13.75,0,0,1,486,480.637a41.792,41.792,0,0,1,4.281,7.1c.8,1.6,1.47,3.265,2.213,4.894.682,1.5,1.413,2.973,2.07,4.479.7,1.6,1.348,3.22,1.994,4.839.826,2.07,1.663,4.137,2.433,6.226,1.142,3.1,2.208,6.22,3.348,9.317.881,2.392,1.828,4.763,2.745,7.143.132.342.263.684.384,1.03a.5.5,0,0,1,.041.31c-.422,1.043.281,1.89.566,2.794.417,1.325.979,2.609,1.424,3.927.751,2.227,1.5,4.456,2.16,6.709a15.016,15.016,0,0,1,.422,2.905,21.618,21.618,0,0,1,.1,2.984,26.8,26.8,0,0,1-.642,4.6,16.523,16.523,0,0,1-1.387,3.9,32.859,32.859,0,0,1-3.423,5.556c-.879,1.1-1.723,2.225-2.611,3.318-.52.641-1.078,1.257-1.652,1.854-.743.772-1.487,1.548-2.289,2.263a17.219,17.219,0,0,1-4.833,2.94,18.9,18.9,0,0,1-5.069,1.356,35.338,35.338,0,0,1-5.732.2,20.015,20.015,0,0,1-6.842-1.511c-1.448-.6-2.886-1.224-4.292-1.907-2.11-1.025-4.189-2.109-6.28-3.17a3.026,3.026,0,0,1-1.44-1.36c-.23-.451-.826-.747-1.287-1.076-1.376-.98-2.772-1.935-4.15-2.914q-1.884-1.338-3.744-2.707c-1.3-.957-2.566-1.944-3.86-2.9-1.263-.935-2.558-1.832-3.808-2.782-.969-.737-1.907-1.512-2.826-2.3-1.141-.983-2.245-2-3.37-3-.847-.751-1.712-1.484-2.553-2.242-1.051-.948-2.147-1.861-3.113-2.884a26.457,26.457,0,0,1-4.219-5.235c-.872-1.592-.31-2.875,1.258-3.736a5.643,5.643,0,0,1,2.573-.614,16.693,16.693,0,0,1,7.026,1.472c2.039.842,4.044,1.761,6.034,2.7,1.488.706,2.925,1.508,4.391,2.255.084.043.226-.018.342-.031-.149-.609.334-1.184.023-1.833a35.433,35.433,0,0,1-1.4-3.37c-1.481-4.145-2.907-8.307-4.4-12.45-.629-1.749-1.365-3.464-2.046-5.2-.649-1.651-1.285-3.307-1.937-4.956q-1.2-3.047-2.428-6.087c-.858-2.12-1.761-4.223-2.592-6.352-.71-1.818-1.349-3.66-2.008-5.5a3.808,3.808,0,0,1-.122-.724m34.625-11.012a1.047,1.047,0,0,0-.12-.205c-1.076-1.153-2.13-2.327-3.249-3.441a4.777,4.777,0,0,0-1.369-.835,5.105,5.105,0,0,0-2.914-.194c-.623.085-.85.322-.8.85a15.01,15.01,0,0,0,.307,2.29c.45,1.753.941,3.5,1.488,5.226q.789,2.493,1.729,4.943c.707,1.847,1.524,3.655,2.231,5.5.813,2.124,1.561,4.27,2.331,6.409.526,1.463,1.09,2.917,1.546,4.4.533,1.734.975,3.494,1.443,5.246a12.59,12.59,0,0,1,.661,3.805.848.848,0,0,1-.568.763.816.816,0,0,1-.88-.119c-.1-.071-.2-.138-.311-.2-.078-.045-.163-.078-.245-.116a3.2,3.2,0,0,0-.029.323.472.472,0,0,0,.045.217.7.7,0,0,1-.261.992.779.779,0,0,1-1.1-.2,10.082,10.082,0,0,1-1.112-1.875c-.644-1.623-1.169-3.289-1.789-4.921s-1.286-3.274-1.968-4.9c-.665-1.581-1.373-3.146-2.071-4.714-.644-1.448-1.3-2.891-1.951-4.337-.686-1.526-1.357-3.058-2.063-4.576-.477-1.026-1.027-2.022-1.5-3.048-.759-1.639-1.393-3.335-2.244-4.928-1.061-1.985-2.256-3.909-3.461-5.82a8.659,8.659,0,0,0-1.619-1.865c-1.118-.977-2.65-1.208-3.989-1.787a.613.613,0,0,0-.522.255,9.172,9.172,0,0,0-.4,1.966,13.96,13.96,0,0,0,.257,3.525,35.162,35.162,0,0,0,1.964,5.849c.481,1.212,1.03,2.4,1.541,3.6.833,1.957,1.643,3.922,2.494,5.872.669,1.533,1.413,3.036,2.073,4.572,1.264,2.937,2.5,5.887,3.733,8.834.874,2.082,1.789,4.151,2.586,6.26a13.539,13.539,0,0,1,1.088,4.406c.033,1.12-1.609,1.836-2.5,1.413-.122-.058-.249-.1-.374-.156a3.856,3.856,0,0,0,.056.417.972.972,0,0,1-.35,1c-.294.114-.738-.132-.942-.535-.266-.525-.547-1.045-.782-1.583-.738-1.694-1.451-3.4-2.187-5.094-.824-1.9-1.673-3.784-2.493-5.683-1.263-2.921-2.475-5.863-3.779-8.768-.871-1.942-1.834-3.849-2.808-5.747-.848-1.652-1.666-3.31-3.508-4.277a6.3,6.3,0,0,0-3.63-.92c-.351.035-.779.131-.793.513a6.516,6.516,0,0,0,.141,2.018c.411,1.435.9,2.854,1.441,4.251.909,2.35,1.88,4.679,2.828,7.016q1.265,3.118,2.536,6.233c1.05,2.564,2.125,5.119,3.156,7.69.9,2.232,1.784,4.468,2.6,6.726s1.551,4.528,2.3,6.8c.65,1.983,1.3,3.968,1.877,5.971a4.888,4.888,0,0,1,.23,2.251,1.247,1.247,0,0,0,.11.768,1.176,1.176,0,0,1-.021,1.319,1.357,1.357,0,0,1-1.415.261c-.792-.352-1.591-.7-2.353-1.105-1.455-.778-2.861-1.643-4.334-2.389a34.223,34.223,0,0,0-7.634-2.908,7.652,7.652,0,0,0-3.814-.241c-.44.119-.558.26-.382.677a4.057,4.057,0,0,0,.529.971c1.274,1.584,2.538,3.176,3.871,4.714,1.3,1.5,2.643,2.987,4.048,4.406,1.31,1.323,2.719,2.559,4.1,3.818q1.433,1.307,2.909,2.572,1.4,1.2,2.86,2.339c1.541,1.206,3.1,2.392,4.657,3.578q1.92,1.463,3.857,2.907c1.3.966,2.675,1.851,3.9,2.892a29.1,29.1,0,0,0,5.206,3.258,22.1,22.1,0,0,0,4.5,1.773,21.393,21.393,0,0,0,5.385.881q1,.019,2.007,0a4.728,4.728,0,0,0,1.1-.1c1.453-.388,2.9-.784,4.34-1.225a32.474,32.474,0,0,0,5.48-2.262,27.093,27.093,0,0,0,5.688-4.061c.759-.69,1.474-1.427,2.182-2.165a22.24,22.24,0,0,0,1.821-2.026,31.8,31.8,0,0,0,3.044-4.894,16.855,16.855,0,0,0,1.674-6.526c.029-.46.088-.919.094-1.379a15.594,15.594,0,0,0-.03-3.129c-.386-2-.912-3.974-1.485-5.932-.585-2-1.275-3.968-1.961-5.938-.6-1.73-1.245-3.447-1.9-5.161q-.883-2.321-1.828-4.621c-.6-1.465-1.246-2.913-1.845-4.378-.793-1.941-1.56-3.892-2.337-5.839-.951-2.383-1.883-4.772-2.855-7.147-.766-1.872-1.576-3.728-2.375-5.587-.956-2.223-1.877-4.461-2.9-6.656-.64-1.373-1.424-2.688-2.178-4.011a8.581,8.581,0,0,0-2.672-3,7.8,7.8,0,0,0-3.565-1.523c-.35-.034-.443.157-.517.366a6.3,6.3,0,0,0-.408,3.072,17.55,17.55,0,0,0,.342,2.515c.764,2.512,1.6,5,2.453,7.492s1.776,4.974,2.617,7.476q1.082,3.219,2.026,6.479a3.061,3.061,0,0,1-.014,1.7c-.123.385-.655.595-.536,1.185.059.293-.288.657-.748.659a1.016,1.016,0,0,1-1.025-.584c-.7-1.629-1.423-3.254-2.073-4.9-1.235-3.138-2.416-6.3-3.638-9.439-.8-2.063-1.578-4.137-2.47-6.164-1-2.283-2.147-4.511-3.191-6.779a15.069,15.069,0,0,0-2.3-3.558M500.042,562.1c.3-.353.615-.7.913-1.058.87-1.042,1.741-2.083,2.6-3.137a1.671,1.671,0,0,0,.187-.518,2.762,2.762,0,0,0-.487.351c-.632.707-1.189,1.484-1.88,2.132-1.394,1.308-2.814,2.6-4.309,3.8a20.473,20.473,0,0,1-3.242,2.132,39.986,39.986,0,0,1-4.285,1.909c-1.334.515-2.718.919-4.095,1.324-.638.188-1.312.26-1.969.392a.992.992,0,0,0-.243.125c.091.052.183.15.272.147.352-.012.7-.049,1.053-.087,1.105-.123,2.218-.207,3.314-.386a19.368,19.368,0,0,0,5.908-1.837,14.774,14.774,0,0,0,3.7-2.571c.865-.867,1.713-1.75,2.568-2.72m-62.335-75.478c.332-.032.664-.059.995-.1a.446.446,0,0,0,.2-.1c.013-.01-.016-.1-.047-.126a1.14,1.14,0,0,0-1.369.168c-.014.024.079.1.222.156m9.751-14.84.448-.068a1.428,1.428,0,0,0-.388-.239,1.53,1.53,0,0,0-.466.032C447.17,471.583,447.289,471.659,447.457,471.783Z" transform="translate(-387.524 -424.804)"></path><path d="M1076.428,529.424c-1.1.569-2.16,1.133-3.246,1.652a6.024,6.024,0,0,1-1.347.44.971.971,0,0,1-1.036-.425.868.868,0,0,1,.248-1.174c.746-.587,1.514-1.149,2.295-1.694.847-.591,1.769-1.093,2.57-1.735a47.5,47.5,0,0,0,3.6-3.141c1.385-1.361,2.7-2.788,3.977-4.245,1.123-1.284,2.2-2.611,3.2-3.987a18.549,18.549,0,0,0,2.827-5.122,3.214,3.214,0,0,0,.246-2.075,1.676,1.676,0,0,0-1.4-1.074,7.5,7.5,0,0,0-3.53.406,40.8,40.8,0,0,0-4.77,1.716,33.311,33.311,0,0,0-3.214,1.992,13.607,13.607,0,0,1-1.956.987.942.942,0,0,1-1.225-.87,9.739,9.739,0,0,1,.818-3.414c.8-2.342,1.673-4.663,2.575-6.972.88-2.252,1.857-4.468,2.747-6.717.836-2.114,1.614-4.249,2.419-6.374,1.059-2.8,2.127-5.591,3.179-8.39.634-1.689,1.292-3.372,1.853-5.083.537-1.638.993-3.3,1.419-4.97a13.229,13.229,0,0,0,.215-2,17.908,17.908,0,0,0,.185-2.1,4.451,4.451,0,0,0-1.678-3.816,1.2,1.2,0,0,0-1.1-.155,8.379,8.379,0,0,0-3.377,1.85,4.37,4.37,0,0,0-1.094,2.077q-.87,2.4-1.752,4.793c-.639,1.733-1.259,3.473-1.936,5.193-.611,1.554-1.276,3.089-1.936,4.626-.631,1.469-1.249,2.945-1.943,4.387-.7,1.459-1.474,2.888-2.246,4.315-.515.95-1.073,1.88-1.634,2.807a10.75,10.75,0,0,1-.906,1.294.7.7,0,0,1-.573.216c-.138-.035-.259-.307-.3-.49-.071-.358-.053-.732-.116-1.092a3.9,3.9,0,0,1,.514-1.928c.563-1.681,1.193-3.343,1.777-5.018.806-2.314,1.548-4.65,2.4-6.948.919-2.471,1.87-4.935,2.932-7.352a49.271,49.271,0,0,0,2.23-6.448c.337-1.19.7-2.373,1.014-3.57.258-.991.507-1.989.664-3,.217-1.393.314-2.8.52-4.2a3.1,3.1,0,0,0-.964-3.044,4.059,4.059,0,0,0-2.537-1,3.545,3.545,0,0,0-2.024.8,10.743,10.743,0,0,0-3.211,3.451c-.811,1.361-1.575,2.748-2.309,4.147-.636,1.212-1.265,2.433-1.781,3.693-.529,1.29-.918,2.632-1.371,3.951q-.764,2.227-1.532,4.454c-.6,1.734-1.178,3.474-1.8,5.2-.385,1.075-.845,2.126-1.237,3.2-.278.759-.479,1.543-.752,2.3-.307.854-.636,1.7-1,2.537a1.3,1.3,0,0,1-1.4.729,1.373,1.373,0,0,1-.882-1.231,10.443,10.443,0,0,1,.793-3.138c.772-2.375,1.511-4.76,2.3-7.132.977-2.954,1.954-5.908,2.994-8.842.522-1.475,1.221-2.892,1.762-4.361a16.617,16.617,0,0,0,.7-2.654,8.708,8.708,0,0,0,.192-2.233,6.663,6.663,0,0,0-.975-3.578,1.864,1.864,0,0,0-1.47-.769,4.465,4.465,0,0,0-4.068,2.139,37.832,37.832,0,0,0-2.847,4.594c-.893,1.719-1.623,3.52-2.345,5.313-.625,1.552-1.117,3.151-1.722,4.711a2,2,0,0,1-.761.9,1.015,1.015,0,0,1-1.5-.889,8.3,8.3,0,0,1,.8-3.889c1.067-2.416,2.089-4.856,3.307-7.2a34.824,34.824,0,0,1,2.991-4.584,9.359,9.359,0,0,1,2.138-2.013,5.026,5.026,0,0,1,2.752-.984,4.9,4.9,0,0,1,3.4.686,5.293,5.293,0,0,1,1.109,1.176,6.121,6.121,0,0,1,1.117,3.011c.008.115.15.221.23.332.053-.1.1-.2.16-.3a24.546,24.546,0,0,1,1.509-2.284,26.015,26.015,0,0,1,2.458-2.623,8.952,8.952,0,0,1,4.247-2.328,5.524,5.524,0,0,1,5.261,1.5,6.7,6.7,0,0,1,1.835,3.713,18.536,18.536,0,0,1,.379,3.433,18.336,18.336,0,0,1-.653,4.788,5.977,5.977,0,0,0-.2.769,1.033,1.033,0,0,0,.1.382l.31-.119a9.577,9.577,0,0,1,1.534-.581,4.164,4.164,0,0,1,3.194.564,5.773,5.773,0,0,1,2.2,3,10.284,10.284,0,0,1,.6,4.486,32.185,32.185,0,0,1-.495,3.442c-.287,1.484-.615,2.963-1,4.428-.3,1.135-.69,2.246-1.055,3.364-1.034,3.169-2.064,6.339-3.116,9.5-.643,1.935-1.279,3.874-2,5.783-.754,2-1.592,3.973-2.415,5.949-.733,1.759-1.454,3.525-2.265,5.252-.525,1.119-1.206,2.172-1.806,3.26a1.409,1.409,0,0,0-.084.42,1.144,1.144,0,0,0,.376-.148,11.139,11.139,0,0,1,3.849-2.247c1.04-.391,2.066-.829,3.133-1.139.834-.242,1.724-.3,2.582-.476.479-.1.938-.285,1.412-.408a7.694,7.694,0,0,1,5.468.239,2.851,2.851,0,0,1,1.7,2.542,12.707,12.707,0,0,1-1.365,6.219,19.645,19.645,0,0,1-2.058,3.111,39.312,39.312,0,0,1-5.208,5.318c-1.389,1.256-2.859,2.438-4.357,3.578-1.917,1.458-3.9,2.841-5.853,4.253-.177.128-.373.231-.584.369m13.557-14.58c.106-.132.214-.262.316-.4a14.8,14.8,0,0,0,2.485-4.455,18.685,18.685,0,0,0,.66-2.855,1.362,1.362,0,0,0-.75-1.524,9.027,9.027,0,0,0-1.117-.4,1.033,1.033,0,0,0-.3-.006,1,1,0,0,0,.112.286,6.018,6.018,0,0,1,.577.673,4.819,4.819,0,0,1,.169,4.159,17.19,17.19,0,0,1-3.045,5.086c-.349.431-.708.854-1.05,1.29a.774.774,0,0,0-.076.292c.094-.039.218-.054.276-.12C1088.813,516.214,1089.372,515.551,1089.985,514.843Z" transform="translate(-946.225 -402.69)"></path><path d="M3.837,1049.478c1.239-.354,2.443-.733,3.673-1a21.321,21.321,0,0,1,2.557-.3c.849-.078,1.7-.127,2.552-.2.069-.006.132-.077.2-.118a1.493,1.493,0,0,0-.269-.251,7.474,7.474,0,0,1-1.042-.561.818.818,0,0,1-.027-1.247,2.372,2.372,0,0,1,1.9-.636c1.352.034,2.7.145,4.052.274,1.261.121,2.525.256,3.769.478,1.448.258,2.885.585,4.308.95a4.727,4.727,0,0,1,1.331.7.949.949,0,0,1,.328,1.272,1.032,1.032,0,0,1-1.182.646c-1.2-.19-2.392-.432-3.584-.668-.5-.1-.985-.257-1.484-.353a.405.405,0,0,0-.547.371,1.147,1.147,0,0,1-.982.925c-.8.169-1.636.21-2.457.3-1.1.126-2.209.257-3.315.376-.684.073-1.37.125-2.055.191-1.287.124-2.579.222-3.861.386-1.15.147-2.294.347-3.43.57-.46.09-.884.332-1.341.449-.207.053-.562.048-.657-.07a1.074,1.074,0,0,1-.275-.81,2.2,2.2,0,0,1,1.127-1.292C3.354,1049.744,3.583,1049.624,3.837,1049.478Z" transform="translate(-1.787 -946.375)"></path><path d="M1657,1062.482c1.32.356,2.6.68,3.856,1.08.752.24,1.463.6,2.189.908a.7.7,0,0,1,.3.22c.1.144.242.346.2.469a.564.564,0,0,1-.458.241,24.5,24.5,0,0,1-2.586-.224c-1.164-.19-2.315-.458-3.467-.711-.965-.212-1.931-.43-2.883-.688-.394-.107-.65-.115-.837.293a1.038,1.038,0,0,1-.991.589,19.165,19.165,0,0,1-3.964-.376c-1.358-.242-2.728-.428-4.086-.671q-2.23-.4-4.446-.866c-1.026-.216-2.045-.47-3.057-.744-.491-.133-.954-.351-1.059-.916-.116-.623.43-.964.944-.954.918.018,1.836.1,2.752.18s1.811.162,2.71.286,1.79.3,2.685.453c.957.163,1.914.323,2.871.487a2.614,2.614,0,0,1,.455.1c.542.2.917.113,1.127-.466.114-.313.788-.5,1.279-.384,1.054.24,2.105.488,3.151.756s2.075.563,3.11.849C1656.848,1062.405,1656.9,1062.45,1657,1062.482Z" transform="translate(-1472.943 -959.923)"></path><path d="M1197.923,77.334a21.627,21.627,0,0,1,1.208-1.977,4.758,4.758,0,0,1,.974-.88c.087-.067.284-.005.43,0a3.452,3.452,0,0,1-.026.356,18.115,18.115,0,0,1-.411,2.2q-.788,2.563-1.7,5.089c-.506,1.387-1.086,2.752-1.67,4.112-.451,1.05-.966,2.075-1.443,3.115-.386.84-.7,1.714-1.154,2.519a8,8,0,0,1-1.343,2.211.57.57,0,0,1-.271.17c-.7.082-.764.64-.959,1.109-.118.284-.274.554-.392.837a.6.6,0,0,1-.7.41.654.654,0,0,1-.589-.711,17.118,17.118,0,0,1,.409-2.531c.507-1.761,1.085-3.5,1.682-5.239a18.218,18.218,0,0,1,2-4.264,1.567,1.567,0,0,1,.825-.639c.695-.165.831-.685,1.053-1.181C1196.528,80.484,1197.226,78.933,1197.923,77.334Z" transform="translate(-1071.476 -67.409)"></path><path d="M1660.043,778.9a4.706,4.706,0,0,1-2.106.724c-1.75.373-3.505.725-5.267,1.04-1.133.2-2.279.346-3.425.474-.9.1-1.8.137-2.7.195a.747.747,0,0,1-.844-.527c-.121-.415.186-.569.544-.715a33.585,33.585,0,0,1,5.326-1.589c.8-.181,1.619-.318,2.429-.478a.644.644,0,0,0,.15-.073,1.094,1.094,0,0,0-.128-.185c-.186-.179-.468-.32-.55-.532-.165-.426.292-.964.78-1,.033,0,.066,0,.1,0,3.767-.031,7.534-.1,11.3-.076,1.389.009,2.774.255,4.164.351a3.141,3.141,0,0,1,2.008.769c.166.152.111.222-.053.277a8.4,8.4,0,0,1-2.529.481q-4.188.07-8.374.2c-.187.006-.378.2-.545.325A2.189,2.189,0,0,0,1660.043,778.9Z" transform="translate(-1481.932 -702.783)"></path><path d="M15.706,776.686c-2.091-.49-4.13-.989-6.174-1.467q-2.8-.655-5.613-1.272c-1.061-.235-2.128-.443-3.192-.664A.79.79,0,0,1,0,772.549c-.01-.379.492-.766.93-.774a21.621,21.621,0,0,1,2.3.009c1.229.11,2.457.266,3.673.47s2.434.5,3.652.743a.732.732,0,0,0,.394,0,5.639,5.639,0,0,1,2.7-.152,22.225,22.225,0,0,1,3.541.644c1.968.49,3.922,1.032,5.863,1.611a9.01,9.01,0,0,1,1.628.822c.08.043.112.168.166.255a.924.924,0,0,1-.29.13,15.224,15.224,0,0,1-2,.085c-.912-.064-1.816-.235-2.724-.354-.332-.044-.668-.059-1-.107a.447.447,0,0,0-.517.293,1.482,1.482,0,0,1-1.79.731C16.271,776.877,16.015,776.776,15.706,776.686Z" transform="translate(0 -698.798)"></path><path d="M124.981,481.336a4.537,4.537,0,0,1-2.286-.911c-2.465-1.546-4.875-3.173-7.364-4.682-1.253-.759-2.631-1.331-3.952-1.989-.109-.054-.215-.114-.324-.168a.613.613,0,0,1-.375-.794.973.973,0,0,1,.686-.5,4.5,4.5,0,0,1,1.578.229,33.016,33.016,0,0,1,6.1,3.124c1.175.722,2.343,1.457,3.549,2.13.926.517,1.906.948,2.866,1.407a.321.321,0,0,0,.268-.024,1.494,1.494,0,0,1,2.251.065c.8.718,1.607,1.432,2.383,2.174,1.244,1.188,2.463,2.4,3.7,3.6a.768.768,0,0,1,.2.992.79.79,0,0,1-1.068.154,22.221,22.221,0,0,1-2.175-1.506c-.87-.713-1.663-1.512-2.507-2.254a.965.965,0,0,0-.616-.268,2.143,2.143,0,0,1-1.418-.41A2.185,2.185,0,0,0,124.981,481.336Z" transform="translate(-99.624 -427.646)"></path><path d="M316.537,220.384c-.224-.276-.437-.52-.62-.782-.373-.537-.37-1.221.061-1.481a1.083,1.083,0,0,1,1.219.151c1.032,1.1,2.074,2.2,3.091,3.32.871.957,1.723,1.931,2.568,2.91.808.937,1.589,1.9,2.4,2.835s1.671,1.852,2.452,2.818c1.143,1.414,2.235,2.866,3.346,4.3a.23.23,0,0,1,.038.126c.048,1.1,1.057,1.556,1.686,2.266.093.105.173.222.258.333a1.47,1.47,0,0,1-.509-.006c-.565-.226-1.114-.487-1.669-.735a2.887,2.887,0,0,0-.668-.287,3.735,3.735,0,0,1-1.944-1.356c-.4-.377-.733-.811-1.1-1.218-.177-.2-.343-.407-.536-.591-1.307-1.247-2.109-2.848-3.281-4.2-1.3-1.494-2.471-3.086-3.709-4.628C318.609,222.907,317.582,221.66,316.537,220.384Z" transform="translate(-284.24 -197.391)"></path><path d="M613.12,43.174a.738.738,0,0,1,.813.436c.881,1.638,1.828,3.245,2.652,4.908.853,1.723,1.6,3.493,2.377,5.251.649,1.476,1.293,2.956,1.882,4.454a1.125,1.125,0,0,1-.708,1.67.375.375,0,0,0-.118.359c.343.763.727,1.508,1.075,2.269.469,1.027.921,2.062,1.368,3.1a.905.905,0,0,1,.075.484c-.028.166-.111.413-.232.452a.635.635,0,0,1-.551-.127,15.994,15.994,0,0,1-1.383-1.862c-.8-1.334-1.53-2.7-2.285-4.058-.625-1.123-1.263-2.241-1.856-3.379-.406-.779-.08-1.631.864-1.592.352.015.332-.166.243-.366-.567-1.273-1.134-2.545-1.72-3.81-.975-2.1-1.983-4.194-2.934-6.308a1.326,1.326,0,0,1,0-1.459A4.6,4.6,0,0,1,613.12,43.174Z" transform="translate(-551.521 -39.086)"></path><path d="M1562.932,483.9c.77-.291,1.509-.575,2.261-.822a2.685,2.685,0,0,1,2.186-.115c.336.17.327.218,0,.41-2.794,1.655-5.559,3.356-8.367,4.989-1.55.9-3.164,1.705-4.755,2.544a.723.723,0,0,1-1.037-.229c-.171-.339-.4-.263-.621-.168-.881.375-1.746.782-2.626,1.16-1.368.587-2.734,1.179-4.12,1.722a1.841,1.841,0,0,1-1.069.058c-.446-.12-.508-.487-.142-.761.779-.583,1.573-1.153,2.4-1.666,1-.616,2.019-1.207,3.069-1.737,1.245-.629,2.52-1.209,3.805-1.759a22.994,22.994,0,0,1,2.621-.938,7.106,7.106,0,0,1,1.393-.11,1.414,1.414,0,0,0,.574-.092c1.123-.663,2.223-1.36,3.347-2.021A11.173,11.173,0,0,1,1562.932,483.9Z" transform="translate(-1390.74 -437.138)"></path><path d="M1397.464,240.625c1.15-1.282,2.263-2.55,3.4-3.794.918-1,1.869-1.976,2.81-2.959,1.075-1.122,2.149-2.245,3.237-3.355.506-.516,1.038-1.011,1.577-1.5a1.094,1.094,0,0,1,1.314.029.874.874,0,0,1-.051,1.226c-1.038,1.132-2.061,2.276-3.1,3.409-.554.6-1.128,1.193-1.685,1.795-1.163,1.257-2.32,2.521-3.484,3.777-.2.212-.43.394-.625.608-.059.065-.048.188-.07.284a1.394,1.394,0,0,0,.269-.014c.515-.127.977.261.79.719-.147.361-.316.767-.831.844a.707.707,0,0,0-.31.195q-1.369,1.2-2.732,2.4c-.575.509-1.127,1.044-1.723,1.53a1.077,1.077,0,0,1-1.344.166,1,1,0,0,1-.3-1.351c.644-1,1.336-1.965,2.02-2.939C1396.887,241.341,1397.17,241,1397.464,240.625Z" transform="translate(-1255.72 -207.186)"></path><path d="M934.317,22.52a5.148,5.148,0,0,1-.359-1.258c-.071-1.482-.158-2.969-.092-4.449.062-1.388.3-2.77.48-4.152a7.928,7.928,0,0,1,.314-1.578,2.933,2.933,0,0,1,.63-.78c.111-.129.3-.238.33-.382a5.548,5.548,0,0,0,.11-1c.042-.821.049-1.645.107-2.465.079-1.112.148-2.228.308-3.331a19.958,19.958,0,0,1,.6-2.551c.062-.218.321-.386.489-.577a3.017,3.017,0,0,1,.217.551,7.115,7.115,0,0,1,.166,1.256q.02,5.128,0,10.255c0,1.106-.056,2.211-.1,3.316-.018.492-.056.983-.1,1.473a1.058,1.058,0,0,1-.76.991c-.389.106-.416.292-.438.594-.085,1.175-.145,2.354-.308,3.52A.93.93,0,0,1,934.317,22.52Z" transform="translate(-840.928)"></path></svg>