<svg xmlns="http://www.w3.org/2000/svg" width="79" height="83.771" viewBox="0 0 79 83.771"><defs><style>.a{fill:#c9dcf9;}</style></defs><g transform="translate(-158 -1176.831)"><path class="a" d="M-1904.136,2016.72l47.051.881,8.255-4.258v-7.656l-2.948-15.343-2.028-43.6-3.279-8.906H-1891.9l-10.046,3.444-5.264,5.462v8.25l-1.86,26.1-1.488,25.577,1.488,5.6Z" transform="translate(2074 -757)"></path><g transform="translate(158 1176.831)"><path d="M10.594,81.49c-.137-.019-.245-.052-.354-.056-.613-.024-1.228-.012-1.838-.067-1.031-.093-2.057-.233-3.087-.341a8.09,8.09,0,0,1-2.924-.88A4.828,4.828,0,0,1,.578,78.712a2.386,2.386,0,0,1-.458-1.2c-.036-.524-.044-1.051-.062-1.576-.021-.593-.085-1.19-.047-1.779.047-.71.184-1.414.278-2.121.044-.332.088-.665.115-1,.064-.79.15-1.581.166-2.372C.585,68.051.5,67.442.466,66.834c0-.068,0-.136,0-.2,0-.621-.006-1.242,0-1.863q.022-1.851.058-3.7c.015-.817.04-1.633.057-2.45C.6,57.578.619,56.538.641,55.5Q.665,54.375.7,53.252c.015-.506.038-1.012.057-1.518q.029-.73.058-1.46c.039-.964.1-1.927.112-2.891C.96,45.422.967,43.46.991,41.5c.012-.991.034-1.982.058-2.973.012-.506.035-1.012.058-1.518.036-.8.064-1.6.119-2.4.064-.929.149-1.857.231-2.785.053-.6.115-1.194.174-1.79q.116-1.174.233-2.348c.057-.568.12-1.135.174-1.7.081-.85.149-1.7.236-2.552.067-.658.132-1.317.236-1.969.156-.988.333-1.973.522-2.955.2-1.03.435-2.053.631-3.083.075-.394.08-.8.123-1.2.075-.705.159-1.41.231-2.116.047-.458.068-.92.121-1.377.065-.561.145-1.121.23-1.68.091-.6.186-1.2.293-1.8A5.036,5.036,0,0,1,6.3,4.094a4.149,4.149,0,0,1,1.712-.778c.681-.164,1.361-.332,2.049-.462.573-.108,1.159-.15,1.735-.242.643-.1,1.28-.237,1.923-.343.34-.056.685-.082,1.028-.119.734-.079,1.468-.159,2.2-.231.183-.018.369.005.553-.006a1.175,1.175,0,0,0,.29-.071c.028-.009.067-.058.062-.078a.125.125,0,0,0-.079-.078,2.7,2.7,0,0,0-.412-.059c-.651-.024-1.306-.011-1.954-.069a16.541,16.541,0,0,1-1.915-.3A1.467,1.467,0,0,1,12.93.892.3.3,0,0,1,12.879.61a.339.339,0,0,1,.25-.142c.251-.019.5,0,.756-.008Q14.848.436,15.81.4c.458-.016.915-.042,1.373-.057C17.9.323,18.622.307,19.342.287S20.8.233,21.53.231Q33.77.2,46.01.169c.836,0,1.672-.034,2.508-.057C48.976.1,49.433.07,49.891.055,50.63.032,51.369-.009,52.108,0c1.177.018,2.355.062,3.531.115.645.029.842.329.717.972a.413.413,0,0,0,.129.343A3.435,3.435,0,0,1,57.8,3.739q.23,1.162.408,2.334c.131.852.24,1.707.351,2.562q.154,1.19.291,2.382c.065.567.121,1.135.175,1.7.08.831.156,1.662.233,2.494.058.626.121,1.251.174,1.878.063.742.119,1.484.175,2.227.041.546.07,1.094.119,1.64.07.783.159,1.565.229,2.349.049.555.071,1.113.12,1.668.07.783.155,1.565.23,2.348.026.273.042.546.059.82.04.634.073,1.268.118,1.9.031.431.074.861.117,1.29a.563.563,0,0,0,.065.153c.055-.04.137-.067.161-.121.275-.623.538-1.252.809-1.877.292-.675.582-1.35.885-2.02.554-1.227,1.078-2.463,1.518-3.737.43-1.246.9-2.477,1.363-3.713.337-.908.684-1.812,1.016-2.722.584-1.6,1.159-3.206,1.741-4.808.484-1.332.964-2.666,1.465-3.991.39-1.031.808-2.052,1.221-3.074.144-.357.3-.711.466-1.058a.984.984,0,0,1,1.509-.555,11.791,11.791,0,0,1,2.718,1.662q1.179,1,2.383,1.975a2.492,2.492,0,0,1,1.013,1.323,2.9,2.9,0,0,1-.181,1.768c-.276.691-.58,1.372-.91,2.038-.58,1.168-1.171,2.331-1.79,3.478-.788,1.461-1.616,2.9-2.412,4.357-.349.639-.668,1.294-.991,1.946-.358.724-.7,1.456-1.059,2.181s-.73,1.464-1.1,2.194q-.715,1.421-1.433,2.841c-.4.787-.8,1.569-1.183,2.362q-.5,1.043-.955,2.107c-.591,1.375-1.154,2.763-1.758,4.132-.261.591-.6,1.146-.894,1.726a1.155,1.155,0,0,0-.082.655,5.02,5.02,0,0,1-.052,1.4,13.447,13.447,0,0,1-.5,1.885c-.229.669-.538,1.31-.791,1.971-.276.721-.529,1.45-.788,2.177a7.145,7.145,0,0,0-.393,1.2,6.142,6.142,0,0,0,0,1.256c.011.248.071.494.1.741.1.755.2,1.51.289,2.266.056.5.073,1,.121,1.494.071.725.153,1.449.231,2.174.057.529.106,1.059.177,1.586.086.631.2,1.258.286,1.888.071.527.11,1.059.18,1.586.065.493.16.983.228,1.476.051.37.1.743.115,1.116a16.2,16.2,0,0,0,.482,2.857c.133.58.237,1.167.333,1.754a20.038,20.038,0,0,1,.281,2,16.825,16.825,0,0,1-.049,1.9c-.019.373-.068.745-.114,1.116a7.63,7.63,0,0,1-.5,1.976,7.759,7.759,0,0,1-2.148,2.945,5.534,5.534,0,0,1-2.868,1.35c-.5.069-1.011.041-1.517.068q-1.507.081-3.013.175c-.431.028-.86.083-1.291.113-.907.063-1.814.116-2.721.177-.508.034-1.015.087-1.524.113-.9.047-1.792.08-2.687.119-.429.019-.857.042-1.286.057-.632.022-1.264.04-1.9.059-.681.02-1.361.053-2.042.056-5.163.023-10.325.052-15.488.056-3.174,0-6.348-.031-9.522-.056-1.234-.009-2.467-.034-3.7-.058-.5-.01-1-.037-1.525-.057M56.406,42.751c.116-.273.238-.544.348-.82.435-1.09.875-2.18,1.3-3.275.171-.444.318-.9.444-1.358a4.979,4.979,0,0,1,.135-.817,3.489,3.489,0,0,0,.342-1.88c-.044-.494-.039-.993-.064-1.489-.034-.683-.075-1.365-.116-2.047-.013-.206-.03-.412-.059-.616-.093-.659-.195-1.316-.289-1.975-.063-.441-.11-.884-.178-1.324-.11-.719-.243-1.435-.343-2.155-.078-.565-.114-1.136-.18-1.7-.09-.766-.209-1.529-.285-2.3-.079-.8-.131-1.6-.176-2.4-.036-.641-.04-1.284-.062-1.926-.015-.419-.036-.838-.058-1.256-.037-.692-.073-1.384-.117-2.076-.032-.508-.067-1.017-.117-1.523-.069-.7-.14-1.393-.235-2.086a12.3,12.3,0,0,0-.306-1.736c-.494-1.713-1.027-3.414-1.557-5.117-.1-.313-.179-.672-.6-.726-.185-.024-.371-.046-.558-.058-.956-.061-1.911-.131-2.867-.171-.613-.026-1.229-.009-1.843,0q-2.927.026-5.855.059c-.584.007-1.167.039-1.751.056-.787.022-1.575.058-2.362.055-1.981-.008-3.961-.04-5.942-.051-.554,0-1.109.031-1.664.056-.741.034-1.481.075-2.222.116-1.033.057-2.067.113-3.1.176-.489.03-.977.075-1.465.115l-2.843.232c-.5.04-1,.077-1.494.117-.7.057-1.408.108-2.11.177-.687.067-1.377.124-2.056.238a14.77,14.77,0,0,0-2.663.661,11.227,11.227,0,0,0-2.307,1.039,8.469,8.469,0,0,0-2.1,1.81c-.491.62-.988,1.235-1.458,1.871A7.269,7.269,0,0,0,6.615,10.4c-.283.746-.632,1.466-.9,2.215A11.072,11.072,0,0,0,5.194,16.3c-.018,1.332.08,2.664.1,4,.011.845-.025,1.691-.055,2.537-.026.722-.069,1.443-.115,2.164-.052.811-.113,1.621-.174,2.431-.056.752-.116,1.5-.174,2.256s-.121,1.5-.173,2.256q-.068.979-.116,1.96c-.028.574-.032,1.148-.062,1.722-.028.537-.081,1.074-.113,1.611-.044.74-.074,1.481-.12,2.222-.029.479-.079.957-.114,1.436q-.091,1.23-.175,2.46c-.042.624-.082,1.248-.116,1.873-.043.8-.08,1.6-.117,2.4-.022.477-.036.954-.06,1.431q-.018.367-.058.732c-.074.676-.16,1.352-.23,2.028-.049.478-.073.958-.12,1.436-.072.744-.16,1.487-.229,2.232-.05.536-.08,1.074-.119,1.61-.058.8-.125,1.6-.172,2.4q-.074,1.241-.116,2.484c-.03.884-.042,1.769-.06,2.653-.02.972-.036,1.944-.06,2.915-.009.361-.046.721-.054,1.082a4.868,4.868,0,0,0,.016,1.314A26.543,26.543,0,0,0,4.06,74.28a13.3,13.3,0,0,0,1.279,2.181A5.307,5.307,0,0,0,8.085,78.4a20.543,20.543,0,0,0,4.046.7c.514.063,1.034.085,1.552.119q.98.064,1.96.116c.837.043,1.675.079,2.513.117.458.021.915.043,1.373.058.71.023,1.42.057,2.129.055.972,0,1.943-.036,2.915-.054,1.156-.021,2.312-.038,3.468-.059.933-.017,1.866-.03,2.8-.06.77-.025,1.54-.071,2.309-.115.537-.031,1.073-.082,1.611-.114.76-.044,1.52-.078,2.28-.118.712-.037,1.423-.078,2.134-.116.75-.04,1.5-.081,2.251-.116q.817-.037,1.635-.058c.9-.023,1.808-.041,2.711-.059q1.5-.031,3-.058c1.2-.021,2.409-.03,3.614-.063.557-.015,1.115-.052,1.668-.117q1.226-.145,2.445-.348a8.019,8.019,0,0,0,2.879-.986,5.606,5.606,0,0,0,1.547-1.308,6.408,6.408,0,0,0,1.141-2.056,6.2,6.2,0,0,0,.395-1.788,11.754,11.754,0,0,0-.173-2.228c-.089-.475-.092-.966-.188-1.438-.148-.729-.341-1.448-.516-2.171-.278-1.146-.552-2.293-.836-3.437-.137-.552-.328-1.093-.438-1.65-.253-1.287-.491-2.577-.7-3.872-.134-.837-.2-1.684-.3-2.526a.968.968,0,0,0-.051-.168c-.06.035-.148.055-.175.106-.074.142-.114.3-.183.447-.2.421-.4.842-.617,1.258-.337.656-.661,1.322-1.033,1.958-.7,1.19-1.412,2.367-2.137,3.539q-1.592,2.574-3.212,5.13a2.34,2.34,0,0,1-.6.755,9.953,9.953,0,0,0-.887.726c-.308.249-.505.269-.763-.051a1.045,1.045,0,0,1-.223-.542,7.256,7.256,0,0,1,.182-2.249q.349-1.452.744-2.893c.236-.86.5-1.712.753-2.569.352-1.2.7-2.407,1.052-3.61.277-.942.563-1.882.842-2.823.118-.4.037-.545-.345-.637-.139-.033-.178-.091-.123-.237.7-1.862,1.4-3.728,2.1-5.59.34-.9.693-1.789,1.05-2.679.23-.574.478-1.141.718-1.769M66.68,32.361c.192-.425.381-.851.576-1.274q.552-1.2,1.111-2.392,1-2.134,2-4.265c.287-.609.592-1.209.883-1.817.654-1.368,1.3-2.74,1.956-4.107.33-.688.68-1.367,1.005-2.057.631-1.339,1.251-2.683,1.874-4.025.385-.83.783-1.654,1.148-2.493.311-.713.3-.724-.269-1.282-.515-.506-1.012-1.035-1.566-1.5a14.367,14.367,0,0,0-2.762-1.544.287.287,0,0,0-.435.159c-.321.779-.658,1.551-.984,2.328-.462,1.1-.928,2.2-1.377,3.3-.645,1.585-1.279,3.176-1.915,4.765q-.814,2.035-1.619,4.073c-.42,1.068-.843,2.135-1.237,3.212q-.8,2.2-1.564,4.415c-.455,1.326-.878,2.663-1.321,3.993-.23.69-.465,1.378-.712,2.062Q60.9,35.5,60.3,37.069c-.132.348-.095.515.225.7.038.023.082.037.121.059.489.271.984.532,1.465.818.376.224.734.478,1.1.72.255.169.4.131.527-.156.162-.379.309-.764.468-1.145.457-1.091.91-2.184,1.376-3.271.346-.807.711-1.607,1.1-2.439m-9.75,25.292c.136-.458.294-.911.4-1.376.05-.222.2-.508-.125-.679-.119-.063-.237-.13-.36-.184a18.352,18.352,0,0,1-3-1.6.447.447,0,0,0-.361-.073.421.421,0,0,0-.145.329.481.481,0,0,0,.137.341.45.45,0,0,1,.138.5c-.281,1.133-.58,2.261-.871,3.392-.33,1.28-.664,2.558-.982,3.841-.173.7-.309,1.4-.481,2.1-.194.791-.418,1.574-.6,2.367-.025.107.107.251.167.378a1.178,1.178,0,0,0,.2-.181c.152-.216.287-.444.435-.663.918-1.347,1.842-2.689,2.754-4.039.562-.832,1.127-1.663,1.651-2.518.376-.613.686-1.266,1.055-1.931M1.514,75.465c0,.446-.014.892,0,1.337a1.6,1.6,0,0,0,.623,1.34A6.244,6.244,0,0,0,4.69,79.215c.515.1,1.038.171,1.56.23a1.937,1.937,0,0,0,.491-.069,2.015,2.015,0,0,0-.39-.268,4,4,0,0,1-1.261-.884,7.751,7.751,0,0,1-1.557-1.913c-.387-.708-.734-1.439-1.086-2.166-.171-.354-.308-.725-.473-1.083-.035-.075-.122-.126-.185-.188a.876.876,0,0,0-.1.21,11.833,11.833,0,0,0-.221,1.272,9.082,9.082,0,0,0,.048,1.109m1.863-50.41c-.058.577-.118,1.154-.174,1.732-.06.606-.116,1.213-.175,1.819q-.116,1.188-.233,2.377c-.057.568-.129,1.134-.171,1.7-.069.926-.131,1.852-.174,2.779-.036.777-.042,1.555-.062,2.332,0,.046-.013.093-.015.139-.015.547-.031,1.094-.04,1.641,0,.037.05.075.077.112.031-.031.088-.06.09-.093.01-.138-.005-.279.006-.417.055-.674.118-1.348.172-2.023.044-.546.084-1.092.116-1.639.044-.73.08-1.461.117-2.192.021-.419.037-.837.059-1.256.015-.273.03-.547.059-.82.073-.676.16-1.351.229-2.028.05-.5.074-1,.12-1.493.073-.783.161-1.565.229-2.348.051-.584.083-1.17.115-1.756,0-.054-.053-.112-.081-.168-.03.043-.08.084-.086.13-.063.47-.12.941-.178,1.469M7.946,4.944a.559.559,0,0,0-.136.022A2.575,2.575,0,0,0,6.348,6.813C6.216,7.3,6.1,7.8,6,8.3a1.182,1.182,0,0,0,.046.371l.213-.235A.579.579,0,0,0,6.3,8.393c.432-.587.826-1.209,1.307-1.753.6-.673,1.264-1.282,1.9-1.919l.183-.185A.755.755,0,0,0,9.4,4.489c-.477.132-.949.282-1.452.455m51.487,40.6c-.116-.349-.239-.7-.348-1.047-.237-.764-.465-1.531-.7-2.295-.02-.065-.1-.11-.157-.164-.024.077-.084.165-.066.23.3,1.048.592,2.1.91,3.138.2.651.433,1.292.657,1.935.169.482.346.96.526,1.438.017.045.074.074.113.111.03-.04.085-.078.087-.119a1.291,1.291,0,0,0-.011-.466c-.316-.914-.65-1.822-1.007-2.761M72.093,4.886a2.176,2.176,0,0,1,.472.121c.624.319,1.24.655,1.857.986.135.073.262.161.4.227.037.018.1-.02.152-.032a.433.433,0,0,0-.068-.116,9.509,9.509,0,0,0-.817-.694q-.784-.542-1.607-1.026c-.38-.224-.5-.1-.652.281-.016.042-.052.08-.055.121-.009.129-.006.259-.008.389a1.581,1.581,0,0,1,.325-.257m-16.5,47.47c.15.325.279.663.459.97a2,2,0,0,0,.444.448c.035.03.126,0,.19-.009a.913.913,0,0,0-.047-.145c-.074-.144-.161-.281-.23-.427-.489-1.036-.973-2.075-1.464-3.11a.826.826,0,0,0-.161-.177c-.041.1-.082.2-.119.3,0,.008.031.024.038.041.288.694.575,1.388.89,2.112m3.143-3.26c-.116-.291-.244-.578-.347-.873-.355-1.016-.7-2.035-1.053-3.051a.775.775,0,0,0-.131-.18.7.7,0,0,0-.033.263c.119.4.246.807.386,1.205q.67,1.9,1.354,3.8a5.767,5.767,0,0,0,.294.662c.03.058.121.085.184.126a.7.7,0,0,0-.016-.181c-.21-.571-.425-1.141-.638-1.769m1.193-13.417c-.165.377-.341.75-.487,1.134-.041.107-.03.334.024.358A.257.257,0,0,0,59.842,37c.341-1.01.691-2.018,1.032-3.028a1.543,1.543,0,0,0,.037-.33c-.086.088-.175.173-.257.265a.4.4,0,0,0-.057.121c-.214.541-.427,1.081-.67,1.651m2.008,8.237c-.039-.081-.082-.16-.116-.242-.209-.514-.413-1.029-.624-1.542a.67.67,0,0,0-.121-.149.626.626,0,0,0,0,.194q.427,1.333.867,2.661c.019.058.1.095.154.142.025-.058.081-.123.069-.171-.067-.28-.15-.556-.228-.892m-7.16,8.848a5.6,5.6,0,0,0,.335.5c.038.046.151.031.23.044a.548.548,0,0,0-.027-.119q-.471-.982-.946-1.961a.5.5,0,0,0-.1-.107c-.025.048-.069.1-.069.144a.533.533,0,0,0,.046.211c.175.412.354.822.532,1.291m1.863-6.4-.2-.2c-.007.091-.048.2-.017.27.3.7.608,1.395.918,2.089a.632.632,0,0,0,.1.127c.013-.054.051-.117.034-.159-.275-.69-.557-1.377-.837-2.123m3.493-6.636c.116.28.229.562.352.839.022.05.086.081.131.121.013-.041.048-.089.037-.121q-.314-.855-.64-1.706c-.013-.035-.063-.056-.1-.083-.025.057-.086.126-.071.169.085.244.188.482.285.78M56.813,54.859a3.95,3.95,0,0,0,.381.2c.032.013.138-.073.137-.075-.173-.327-.318-.681-.7-.827a.124.124,0,0,0-.114.02.162.162,0,0,0-.014.135c.088.176.187.347.312.549M77.361,8.349a2.059,2.059,0,0,0,.282.16.855.855,0,0,0,.234.023c-.029-.073-.037-.171-.09-.214-.272-.22-.554-.43-.839-.634-.044-.031-.123-.012-.186-.016.013.06.007.141.044.178.169.165.35.318.555.5m-21.538,46.1c.014.006.035.02.04.016.026-.025.073-.068.067-.078-.118-.2-.236-.407-.369-.6-.029-.042-.114-.044-.173-.065-.01.063-.052.15-.025.185.134.178.286.344.46.542M49.886,67.665c-.019.04-.059.083-.055.121.015.146.031.337.229.3.108-.018.2-.164.292-.253-.107-.067-.212-.137-.322-.2-.03-.016-.076,0-.144.027m13.563-26.6-.2-.146c0,.078-.027.169,0,.231a2.732,2.732,0,0,0,.237.34,2.32,2.32,0,0,0-.04-.426m-4.133-1.048.043.146c.024-.038.076-.086.067-.113A.075.075,0,0,0,59.316,40.015Z" transform="translate(0 0)"></path><path d="M215.4,698.466c.352-.044.688-.079,1.026-.1.692-.043,1.384-.078,2.076-.118.634-.037,1.267-.1,1.9-.112,1.262-.033,2.525-.055,3.788-.053a2.875,2.875,0,0,1,.914.176.626.626,0,0,1,.379.646.83.83,0,0,1-.649.567h-.029q-1.254.029-2.508.059c-.71.018-1.42.03-2.129.06-.615.026-1.229.073-1.843.115q-.777.053-1.552.116c-.684.056-1.368.117-2.052.174-.713.059-1.426.114-2.139.176q-1.291.112-2.581.233-1.189.112-2.377.233c-.744.075-1.491.134-2.231.239-.55.078-1.09.226-1.637.327-.418.077-.841.124-1.26.191-.435.07-.868.157-1.3.22-.379.055-.761.084-1.141.129-.637.075-1.274.157-1.912.231-.224.026-.449.039-.674.059-.87.077-1.74.153-2.61.234-.578.054-1.155.117-1.732.173-.8.079-1.6.154-2.406.234-.568.056-1.135.123-1.7.172-.761.066-1.522.129-2.285.173-.622.036-1.245.058-1.867.053a2.169,2.169,0,0,1-.625-.168.338.338,0,0,1-.244-.414c.035-.141.132-.336.246-.375.545-.188,1.1-.341,1.662-.486.7-.182,1.4-.385,2.117-.5a11.5,11.5,0,0,1,2.119-.4,12.986,12.986,0,0,0,1.946-.266c.261-.036.527-.042.79-.061.839-.059,1.679-.112,2.518-.176.675-.051,1.349-.114,2.023-.174.86-.076,1.72-.157,2.581-.232.713-.062,1.427-.112,2.139-.177.8-.072,1.6-.154,2.406-.232l1.79-.175,2.348-.233c.606-.059,1.212-.121,1.819-.174.732-.063,1.465-.12,2.2-.175.566-.043,1.132-.08,1.7-.117.331-.022.663-.039,1.009-.073m-26.093,3.216-.2.135c.05.013.114.051.147.033S189.309,701.759,189.307,701.682Z" transform="translate(-173.27 -657.446)"></path><path d="M226.6,419.478c.952-.019,1.876-.03,2.8-.061.809-.027,1.617-.072,2.425-.117a.47.47,0,0,0,.3-.094,2.052,2.052,0,0,1,1.265-.534,8.4,8.4,0,0,1,1.323-.177c.708-.042,1.419-.044,2.129-.064.622-.018,1.245-.057,1.867-.054,2.087.01,4.174.05,6.261.048.993,0,1.986-.06,2.978-.114.724-.039,1.446-.115,2.169-.17.35-.026.7-.043,1.053-.059.516-.022,1.032-.066,1.547-.05a6.5,6.5,0,0,1,1.091.172.665.665,0,0,1,.3.182c.134.129.138.228-.061.343a3.231,3.231,0,0,1-1.348.407c-.709.069-1.413.195-2.121.281-.448.054-.9.089-1.348.117-.721.046-1.442.095-2.163.115-1.156.032-2.315.1-3.467.042a10.731,10.731,0,0,0-2.21.332c-.338.052-.674.11-1.013.152q-1.013.125-2.028.233c-.458.048-.919.077-1.377.119-.822.076-1.643.156-2.464.231-.273.025-.546.046-.82.058-.574.024-1.148.04-1.722.06-.545.019-1.09.037-1.635.059-.438.017-.876.044-1.315.056-.855.024-1.711.038-2.566.06-.661.017-1.322.05-1.984.056q-4.062.036-8.124.055a4.149,4.149,0,0,1-1.026-.121.528.528,0,0,1-.42-.633.627.627,0,0,1,.569-.4c.564-.02,1.129-.034,1.693-.06.741-.034,1.481-.076,2.222-.115.7-.038,1.4-.082,2.105-.115.925-.044,1.85-.078,2.774-.118.438-.019.876-.037,1.314-.059C225.911,419.519,226.243,419.5,226.6,419.478Z" transform="translate(-202.388 -393.695)"></path><path d="M242.637,562.367c.9-.078,1.769-.156,2.639-.232q.366-.032.732-.058c.566-.04,1.133-.068,1.7-.119.735-.067,1.47-.143,2.2-.233.67-.083,1.335-.2,2-.284.5-.06,1-.075,1.493-.122.744-.071,1.486-.182,2.232-.224.892-.05,1.788-.056,2.682-.06a.614.614,0,0,1,.557.532c-.006.293-.213.481-.58.509-.566.043-1.133.064-1.7.122s-1.119.157-1.679.226c-.4.049-.8.068-1.2.121-.66.087-1.316.194-1.975.288-.441.063-.883.119-1.324.175-.774.1-1.549.2-2.324.29-.733.085-1.468.157-2.2.234s-1.488.156-2.232.233c-.587.06-1.173.123-1.761.173-.742.064-1.484.119-2.227.176q-.82.062-1.64.116c-.653.042-1.306.084-1.96.116-.886.044-1.772.081-2.658.117-.584.024-1.167.038-1.751.059-.5.018-.993.039-1.489.058-.525.02-1.051.044-1.576.057-.962.024-1.924.039-2.886.06-.8.018-1.594.051-2.391.054-.613,0-1.226-.02-1.838-.058-.675-.041-1.351-.1-2.022-.182-.161-.02-.306-.175-.459-.268a2,2,0,0,1,.279-.371,1.964,1.964,0,0,1,1.109-.334c.563-.063,1.131-.083,1.7-.123.518-.037,1.035-.083,1.552-.115.721-.044,1.442-.078,2.163-.118.682-.038,1.365-.074,2.047-.117.527-.033,1.054-.079,1.582-.115.614-.042,1.229-.082,1.843-.116q.671-.038,1.344-.058c.807-.023,1.614-.038,2.42-.06.545-.015,1.09-.039,1.635-.057.632-.021,1.265-.034,1.9-.06.857-.034,1.714-.071,2.571-.117C241.632,562.455,242.119,562.406,242.637,562.367Z" transform="translate(-206.256 -528.377)"></path><path d="M221.281,847.911c-1.593.019-3.157.019-4.719.074a5.2,5.2,0,0,0-1.022.326.909.909,0,0,1-.559,0,.467.467,0,0,1-.264-.595.906.906,0,0,1,.432-.442,7.356,7.356,0,0,1,1.348-.463c.7-.154,1.413-.255,2.124-.354.456-.064.918-.086,1.377-.12.82-.061,1.64-.117,2.459-.175.547-.039,1.093-.081,1.64-.116.965-.061,1.931-.111,2.9-.177.685-.047,1.368-.12,2.052-.171.858-.064,1.717-.118,2.576-.176.585-.039,1.171-.076,1.756-.117q.805-.055,1.611-.116c.781-.058,1.562-.121,2.343-.173.682-.046,1.365-.079,2.047-.118s1.365-.075,2.047-.117c.576-.035,1.153-.063,1.727-.119.883-.085,1.763-.195,2.645-.286.458-.048.918-.09,1.378-.116.837-.047,1.681-.032,2.511-.133a9.441,9.441,0,0,1,2.175.136c.072.008.137.086.206.132a1.126,1.126,0,0,1-.206.093c-.443.1-.887.2-1.333.3-.582.12-1.166.231-1.748.346-.484.1-.965.205-1.452.287-.349.059-.7.078-1.057.121q-1.177.142-2.353.291c-.755.1-1.51.2-2.266.289-.881.1-1.763.194-2.644.293-.667.075-1.332.158-2,.231-.743.082-1.488.158-2.232.233-.6.061-1.193.116-1.79.175-.783.077-1.565.158-2.348.232-.664.063-1.329.123-1.994.174-.624.047-1.248.082-1.872.117-.428.024-.857.042-1.285.059-.555.022-1.109.039-1.664.059-.5.018-.993.036-1.489.059C221.992,847.869,221.651,847.892,221.281,847.911Z" transform="translate(-202.188 -795.061)"></path><path d="M252.639,155.314c.72-.019,1.41-.047,2.1-.057,1.719-.024,3.437-.039,5.156-.06,1.428-.017,2.855-.041,4.283-.057,1.864-.022,3.728-.036,5.593-.06.952-.012,1.9-.059,2.857-.05.809.007,1.618.063,2.425.116a1.472,1.472,0,0,1,.54.166.445.445,0,0,1,.208.546c-.068.272-.332.331-.555.379a4.309,4.309,0,0,1-.789.065c-.894.024-1.788.04-2.682.06-.758.018-1.517.044-2.275.057-1.486.024-2.972.04-4.458.06-1.418.019-2.836.045-4.254.057-2.728.024-5.455.037-8.183.061-1.049.009-2.1.037-3.148.057-1.069.02-2.137.042-3.206.057-1.622.023-3.243.052-4.865.053-.624,0-1.248-.07-1.872-.112a.544.544,0,0,1-.208-.058c-.172-.089-.37-.16-.347-.417s.233-.322.428-.394a.283.283,0,0,1,.087,0c.855-.019,1.711-.031,2.566-.06.877-.03,1.753-.074,2.629-.115.351-.016.7-.043,1.053-.057.574-.023,1.148-.038,1.722-.06.467-.017.935-.041,1.4-.057.632-.022,1.264-.039,1.9-.059Z" transform="translate(-225.047 -146.005)"></path><path d="M217.63,296.349c-.264-.019-.5-.044-.733-.057-1.053-.06-2.105-.121-3.158-.174-.535-.027-1.071-.031-1.605-.063a8.233,8.233,0,0,1-.854-.115.307.307,0,0,1-.285-.355c.016-.2.164-.2.324-.232a12.208,12.208,0,0,1,2.631-.1c.741,0,1.481.086,2.222.105q1.865.049,3.73.058c.768,0,1.536-.041,2.3-.053,1.486-.024,2.972-.055,4.458-.055s2.991.044,4.487.05c.778,0,1.555-.035,2.333-.054s1.575-.037,2.362-.059c.632-.017,1.264-.049,1.9-.056,2.4-.024,4.8-.038,7.193-.061,1.321-.013,2.642-.055,3.963-.048a7.059,7.059,0,0,1,1.438.18.654.654,0,0,1,.448.376c.034.193-.233.214-.416.263a9.408,9.408,0,0,1-2.659.4c-.922-.022-1.846.034-2.77.048-1.486.023-2.972.038-4.458.06q-1.792.026-3.585.058c-.943.017-1.885.048-2.828.056q-4.222.037-8.445.056c-1.069,0-2.138-.033-3.206-.055-.7-.015-1.4-.033-2.1-.059C219.431,296.43,218.545,296.387,217.63,296.349Z" transform="translate(-198.712 -277.9)"></path><path d="M610.5,956.7c.447.68.878,1.345,1.312,2.009a1.186,1.186,0,0,0,.122.137c.016-.086.063-.181.041-.255-.066-.223-.177-.433-.237-.657-.137-.508-.275-1.016-.373-1.532a.84.84,0,0,1,.372-.919.61.61,0,0,1,.793.114c.344.393.654.814.984,1.219a.878.878,0,0,0,.18.132c0-.068,0-.137-.009-.2a4.961,4.961,0,0,1-.131-1.567.992.992,0,0,1,1.457-.709,2.287,2.287,0,0,1,.995.692c.136.167.166.271-.066.4a1.163,1.163,0,0,1-.9.12c-.305-.074-.387,0-.334.356a13.044,13.044,0,0,1,.133,1.981.72.72,0,0,1-1.061.559,6.852,6.852,0,0,1-.651-.467,1.174,1.174,0,0,0-.143-.076c-.015.059-.054.125-.04.177a9.649,9.649,0,0,1,.312,1.147,1.34,1.34,0,0,1-.113,1.07.686.686,0,0,1-1.127.05c-.627-.679-1.25-1.368-1.806-2.1-.446-.591-.79-1.26-1.181-1.893a1.2,1.2,0,0,0-.086-.11c-.029.045-.077.088-.085.137a2.159,2.159,0,0,1-.363,1.016,1.144,1.144,0,0,1-1.249.458c-.212-.068-.255-.009-.254.177a4.985,4.985,0,0,1-.009.784,1.692,1.692,0,0,1-.235.655.887.887,0,0,1-.978.236,4.858,4.858,0,0,1-1.511-.988c-.127-.118-.242-.247-.369-.364a.492.492,0,0,0-.139-.064.687.687,0,0,0-.018.147c.056.6.137,1.193.164,1.791a.96.96,0,0,1-.344.868.709.709,0,0,1-.367.087c-.046,0-.108-.078-.139-.134-.009-.016.057-.1.1-.117a.417.417,0,0,0,.226-.511,17.232,17.232,0,0,0-.411-1.779c-.189-.606-.453-1.189-.69-1.779-.106-.264-.191-.515.05-.758a.491.491,0,0,1,.795-.028c.338.344.655.71.958,1.086a7.28,7.28,0,0,0,1.806,1.613c.17.107.255.082.234-.13-.035-.343-.091-.685-.112-1.029-.045-.737.525-.855,1.024-.78.1.016.2.086.305.1a.377.377,0,0,0,.477-.281,3,3,0,0,0,.024-1.576,16.844,16.844,0,0,0-1.52-3.851c-.292-.6-.6-1.189-.854-1.8a.568.568,0,0,1,.071-.664.526.526,0,0,1,.729-.023,2.189,2.189,0,0,1,.321.5c.606,1.184,1.184,2.383,1.813,3.555.653,1.217,1.353,2.409,2.031,3.612C610.448,956.584,610.461,956.637,610.5,956.7Z" transform="translate(-567.114 -893.504)"></path><path d="M580.54,1208.145c1.164,0,2.3.007,3.433,0q2.359-.019,4.718-.057c.9-.013,1.807-.042,2.711-.056q2.228-.035,4.456-.056c.321,0,.643.05.965.051.283,0,.566-.043.849-.052a.5.5,0,1,1,.056.987c-.029,0-.058,0-.087,0-1.447.019-2.893.036-4.34.059-.826.013-1.652.035-2.478.058-.5.014-.992.038-1.489.057-.516.02-1.031.041-1.547.058q-1.021.033-2.041.058c-1.613.04-3.226.1-4.839.109-.973.005-1.947-.057-2.919-.113-.521-.03-1.039-.108-1.557-.171a.408.408,0,1,1,.026-.813Z" transform="translate(-542.47 -1137.657)"></path></g></g></svg>