<svg xmlns="http://www.w3.org/2000/svg" width="215.353" height="40.646" viewBox="0 0 215.353 40.646"><defs><style>.a{fill:#c0d841;fill-rule:evenodd;}</style></defs><path class="a" d="M77.694,466.17c.2-.03.27-.256.075-.464.092-.1.179.064.268.144.258-.25.182-.451.347-.687.4-.044.809.065,1.22-.343.483.854.991-.027,1.483.164-.038.734-.762.366-.825,1.017.754-.39,1.2.192,2.033-.633.2.371.328.694.674.092a.824.824,0,0,1-.218,1.026c.108.238.227-.074.336.047-.129-.287.31-.646.015-.909.465.41.95-.32,1.422-.263-.624.461-1.024.9-1.163.956.194.636.995-.394,1.427-.625.026.467.5.278.74.185.059-.129-.084-.232.006-.364.071-.064.137-.017.206-.115.022.148-.091.312.06.445a12.177,12.177,0,0,0,1.7-.655c.041.084,0,.181.064.262-.6.265-.806.607-1.365.889.467.354.946-.065,1.415.1.165-.35-.207-.081-.265-.33.117-.243.228-.206.343-.315.308.228.08.717.394.68.132-.168.065-.312.21-.48-.065-.078-.135.056-.2.114-.153-.191-.108-.915-.265-.33-.393-.445.086-.72.349-.676-.342.32.383.275.123.709.177.145.369-.521.547-.427.194.323-.294.625-.484.694-.171.26.159.463-.013.726.244.2.5-.249.742,0-.018.4-.274.312-.418.773.238.49.5-.239.739.191.127-.343-.3-.125-.4-.5.2-.01.406-.1.606.028-.3-.339-.132-.568-.05-.993.068-.063.135-.014.2-.112.3.151-.173.381.125.532.3-.625,1.881-.36,1.749.36.185-.352.414-.2.416-.591.352.238.111.534.323.783-.337-.057-.682.351-1.016.2.2.378.983.339,1.415.122.13.167-.106.374.124.531.292-.312.593-.656,1.016-.2.045-.471.33-.44.153-.923.194.371.458-.248.807.1-.188-.64.559-.333.554-.784.486.223-.293.573.052.811.211-.39.414-.428.613-.329a2.836,2.836,0,0,1-.079.64c-.7.3-1.367.039-1.9.556.151.332.319-.233.469.223.9-1.137,1.747.4,2.641-.525.842.832,2.43-.285,2.822.65a5.8,5.8,0,0,1,.808.107c.155-.706.612-.25.953-.45.023.149-.092.312.059.448.033-.478.516-.539.475-.134.755-.623,1.483.127,2.233-.269-.21-.241.17-.433.282-.565.119.2-.288.445-.216.652.622.4,1.266-.236,1.9-.326a.449.449,0,0,0,.874.206c.127.322.267.085.4.332.355-1.027,1.719.28,2.511-.643.578.956,1.705-.766,2.155.222-.2-.09-.406.067-.61.127.144.491.831-.26,1.353-.08.213.073.973.578,1.011.028.14-.219.265.263.4.339.482-.388.948-.1,1.43-.538a6.735,6.735,0,0,0,2.631.114c22.757.823,45.615-1.017,68.48-1.585.189.226.017.424-.09.628-1.683-.675-3.444.447-5.138-.114-.134.371-.222.322-.489.427-.064-.176.116-.072.213-.26-.263-.226-.559.444-.811-.044-.211.231.028.485-.161.717-.711-.892-1.872-.623-2.837-.152a2.858,2.858,0,0,0-2.3.055.236.236,0,0,1-.059-.275c-1.209.5-2.881-.141-3.673.579-.183-.246-.012-.336-.258-.371-.073.12.059.243.123.366-1.517-.579-2.755.581-4.325-.139-.151.6-.914.044-1.288.048-.626.007-1.079.618-1.357.137a1.175,1.175,0,0,1-1.622-.051c-.307.171.155.367-.153.538-.068.211-.419-.293-.257-.37-.377.471-.724.051-1.094.34-.135-.124-.067-.243.012-.363-.488.488-.951.169-1.434.435-.036-.68-.035-.071-.394-.367-.008.236-.177.45-.351.45a.791.791,0,0,0-.189-.455c-.333.69-.977-.228-1.638.522a.428.428,0,0,1-.055-.453c-.8.229-2.649.074-2.855.511-.409.105-.8-.49-1.222.167-.366-.424-1.036-.662-1.212-.2-2.539-.285-4.872.353-7.5.115-.131.122-.059.242-.145.364-.2-.259-.277-.159-.6-.45-1.417.64-3.368-.376-5.018.6-.125-.148-.052-.3-.19-.447a4.132,4.132,0,0,1-1.9.228c.023.26.164,1.035-.439,1.282-.174-.354-.017-.576-.386-.714-.094-.279.37-.66.48-.286.256-.45-.441-.612-.4-.171-.839-.652-1.721.384-2.56-.3-.2.636-.771.461-1.147-.061-.143.124-.081.243-.01.363-.757-.272-1.531-.006-2.289-.3-.069.152.006.3-.079.455-1.1-.26-2.623.487-3.435-.313-.066.094.026.179.059.269-1.212-.1-2.437.282-3.641-.205-.871.458-2.3.145-3.381.152-.262.226.047.42-.216.646-.092.047-.183.094-.271.017.277-1.02-.828-.407-1.2-.655-.134.5.3.071.4.341.113.377-.312.3-.414.386-.431-1.144-1.35-.352-2.007-.787-.263.228.046.421-.217.647-.092.083-.176-.107-.27.017-.068-.147.119-.31.212-.467-.2-.226-.4-.2-.611.128-.012.182.221.35-.012.544.131.174.274-.148.4.158-.233.386-.447-.1-.683.4-.213-.519-.445-.248-.668-.323-.05-.447.443.068.614-.307-.426-.578.19-.246.348-.475-.642-.609-.592.131-1.208-.29-.118.189.179.35.122.538-.07.088-.134-.034-.2-.08-.107.245-.045.337.129.354-.35.532-.684.359-1.033.878-.205-.171-.322-.178-.258-.527-.293.023-.6.794-.889.505-.153-.172.218-.377.283-.561-.219-.236-.415.236-.347.474-.21.29-.4-.346-.606-.054-.073-.175.162-.374-.124-.535-.32.72-1.357.971-1.355.283-.294.08-.581-.219-.884.341-.356-.7-.915.2-1.07-.464-.373,1.116-1.239-.477-1.831.41-.558-.2-1.128.135-1.684-.145-.184-.24.346-.055.008-.361-.92.918-1.8-.176-2.707.408.109.164.224.06.332.242.054.117-.093.252-.007.364-.4-.044-.8-.445-1.205-.435-.075.235.11.169.2.255.116.317-.3-.046-.412.4-.017-.238-.084-.326-.262-.339-.367,1.067-1.068-.253-1.629.511-.239-.221-.234-.462.013-.727-.173-.312-.359.039-.536-.131-.073.156.109.292.2.435-.188.4-.367.316-.549.413-.1-.172-.03-.36.146-.558-.479.393-.946.124-1.42.219-.074-.174.162-.377-.124-.532-.283.962-1.713.472-2.177.948-.146-.431-.686-.255-.256-.7-.289-.065-.318.185-.346.491-.284.093-.343-.831-.735-.376.13.3.271-.027.4.137a.253.253,0,0,0-.071.282c-.676.038-1.341-.41-2.03.394.025-.507-.031-.435-.255-.879-.212.295.06.539.188.8-.372.781-.712-.364-1.083.3-.409-.289.18-.684-.05-.99-.252.356-.123.676-.221,1.019-.263.356-.262-.322-.4-.139-.068-.145.118-.315.211-.477a.4.4,0,0,0-.48.508c-.466-.555-.464,0-.8-.63-.447.414-.488.279-.947.114-.062.247.181.462-.147.741l.331.417c.246-.019.124-.491.4-.05.142-.137.079-.252.007-.363.417-.023,1.723-.386,1.472.551.131.2.276-.31.411-.406a.586.586,0,0,1-.217.838c.139.1.829-.027.548-.42.295-.174.579.2.882-.366.12.2-.286.454-.214.657.229.342.93-.44.735.376.169.195.244-.306.141-.377a.745.745,0,0,1,.738.195c.067-.159-.008-.3.076-.462.161-.174.314.034.475-.139a1.251,1.251,0,0,1-.076.461,2.18,2.18,0,0,1,1.76-.369c.153.241-.21.054-.277.393.2.238.407-.189.6.209a.478.478,0,0,1-.807-.1c-.215.787-.927-.023-1.357.505.892.14,1.689-.156,2.427-.074.164-.349-.207-.084-.263-.334.441-.555.432.734.872.179-.133-.074-.269-.065-.4-.138.189-.5.358.073.547-.42.172.137.027.3-.076.461.112.024.228-.137.336.06.121-.633,1.281-.379,1.825-.256.114.424-.3-.169-.408.218a6.112,6.112,0,0,1,2.767-.161c.068.145-.119.313-.21.472.281.43.506-.222.481-.5.4-.145-.008.537.39.689.379-.243-.26-.4-.054-.63.562-.021,1.136-.63,1.685-.061.215-.657.461-.387.823-.612.243.161.072.356.259.524a1.6,1.6,0,0,1,1.289-.37c.094.334-.358.256-.479.307.277.349.79.05,1.154-.359.255.192-.063.428.191.62-.193.316-.48.1-.483.49a3.578,3.578,0,0,0,2.178-.889c.374.242-.25.564.049.813a2.8,2.8,0,0,1,2.154.2c.369-.622.61-.148.809-.058.137-.195-.089-.357.147-.558.513.553,1.753-.5,1.813.336.841-.157,2.01.314,2.637-.248.416.487.857-.094,1.269.559.3-.535.586-.094.893-.689.242.167.071.36.258.529,1.575-.087,3.156-.4,4.719.115.045-.238.218-.461-.057-.451a7.31,7.31,0,0,0,3.914.013c.32-.245.619.41.936.322.059-.122-.083-.238.009-.363a1.341,1.341,0,0,0,1.485-.064l.391.528a7.541,7.541,0,0,1,4.118-.03c.044-.092.005-.181.075-.275,2.377.326,4.775-.168,7.154,0,.376-.573,2.006-.083,3.043-.111.562-.016,1.007-.371,1.414.081l.282-.366c.26.663.883-.26,1.339.354,1.146-.663,2.772.078,4.132-.484l.26.36c1.753-.646,3.465.122,5.219-.572.748.561,1.542-.34,2.29.208.467-.532.9.108,1.361-.347a7.894,7.894,0,0,0,3.788-.112c2.788.208,5.6-.467,8.391-.27l.283-.354c.122-.091.118.157.058.273,1.491-.312,2.568-.253,4.077-.549l.257.376c.282-.048.122-.66.552-.333.066.178-.115.074-.211.259a.3.3,0,0,0,.482-.243c2.748.018,5.476-.077,8.194-.24l8.053-.366c5.382-.167,10.79-.282,16.272-.013l.215-.238c1.477.426,3.006-.323,4.472.354.265-.084.508-.662.548-.09a.922.922,0,0,1,1.225.03l.287-.316a2.156,2.156,0,0,0,1.566,0c2.484.737,5.047-.188,7.511,1.037l.288-.31a.871.871,0,0,0,1.36.063c.123.175.046.31.182.487.2-.653.418-.2.612.02.665-.481,1.452-.236,2.323-.125a.449.449,0,0,1,.046.462c.2.114.251-.61.622-.159.068-.08-.022-.186-.054-.283.211-.134.4.229.622-.159.134.144.062.253-.018.359a1.452,1.452,0,0,1,1.107-.343c.174.488-.234.208-.431.465a22.1,22.1,0,0,1,2.486-.626l.317.514c-.079.4.2-.194-.118-.386.389-.4.728-.242,1.251-.491.08.4.568.319.245.591.226.174.242-.5.676.127.327-.324-.159-.313-.253-.41.5-.4.95.1,1.45-.364.062.132-.078.228-.153.335.129.128.281-.157.4.256-.108-.521.245-.165.5-.542,1.156.851,2.529-.861,3.532.3.244-.783.967-.532,1.4-.639-.033.575-.591.068-.838.384.1.194.221.122.324.334-.4.185-.807.656-1.2.767.063-.935-1.014-.15-1.225-.053a2.344,2.344,0,0,0,2.812-.276c.064.164-.127.278-.225.41.423-.055,1.293.065,1.334-.741.264-.137.16.379.316.516.792-.467,1.283-.4,2.162-.946a3.94,3.94,0,0,0,3.165-.48,2.035,2.035,0,0,0,2.01-.6c1.309.562,3.638-1.407,5.32.144-.393-1.208,1.03-.5.966-1.535.357.138.772-.862,1.1-.142a3.638,3.638,0,0,1,4.283.41c.193-.263.4-.524.316-.845.231-.073.448.111.657.5.226-.384.418-.155.623-.146.107-.481.295-.383.452-.817-.123-.262-.278.105-.406-.081a3.032,3.032,0,0,1,3.444.791c.152-.642.545-.73.983-.525a5.524,5.524,0,0,1,3.115-2.089l.378.625c-.1-.6.615-.347.92-.629a.476.476,0,0,1-.018.359,4.4,4.4,0,0,0,2.707-.8,4.508,4.508,0,0,0,3.267-1.046c.695.2,2.01-.672,2.581-1a9.037,9.037,0,0,0,2.556-1.823c-.259-.047-.252-.359-.378-.625.2-.249.365,0,.56-.246-.328-.231-.483.087-.667-.323-.351.574-.9-.4-1.038.238-.166.154-.3-.411-.449-.549a4.676,4.676,0,0,1-1.3,0,7.511,7.511,0,0,0,1.148-1.03c-1.618-.017-3.819-.2-5.713.714-.187.078-.361-.076-.531-.292a1.223,1.223,0,0,0,.044.464,1.434,1.434,0,0,0-.623.142c-.271-.871-1.092.34-1.481.872-.186-.34.115-.582.318-.841-.193.078-.474-.223-.45-.548.348-.337.4.016.64-.5-.144-.3-.346.522-.477-.007-.257.127-.1.343-.3.482a.234.234,0,0,1-.271-.055c.012-.3.315-.542.318-.842.07-.044.135.027.207-.048-.175.525.417.194.676.139.124.178.046.313.181.492.6-.181.746-1.093,1.291-1.185.043.343-.48.568-.659.861.245.055.765-.053.641-.5.64.417,1.335-.248,2.013-.582-.391-.35-.836.29-1.254.467.271-.83,1.1-.965,1.525-.41.544-.393,1.087-.726,1.589-.3,1.668-.955,3.254-.33,4.911-1.059-.339-.5-.717-.243-1.045-.946a.96.96,0,0,1-1.137-.511c-.134.092-.064.228-.153.332-.262-.657-.586-.137-.864-.455-.128-.241.046-.414.234-.588-.342-.428-.727-.054-1.082-.226-.266-.269.152-.393-.034-.643-.519-.361-.829.278-1.454.33-.157-.527.555-.788.8-1.012a.675.675,0,0,1-.325-.34c-.069.075.022.185.055.283-.28.181-.422-.229-.56.248-.122-.178-.044-.313-.18-.492a1.632,1.632,0,0,1-1.363-.1.582.582,0,0,0-.036.717.525.525,0,0,1-.425.278,5.845,5.845,0,0,1-.215-1.136,1.934,1.934,0,0,0,1.572-1.308,4.252,4.252,0,0,1,2.518.253c-.187-.758.43-.414.768-.293.083.4-.354-.084-.488.169.341.46.742-.26,1.11-.312.247.287-.174.416.179.492.1-.6,1.035-.462,1.518-.226.422-.5.885-.159,1.452-.33.072-.6-.485-.215-.666-.322.478-.285-.44-.774.376-.023.592-.653,2.523.413,2.728-1.146.491.3.705-.472,1.1-.128,0,.313-.275.166-.236.586,1.106-.443,2.208-1.19,2.318-2.408-.246-.324-.693-.684-.558-1.121-.571-.517-1.492-.541-1.623-1.712-.288.455-.78.165-.86.724.086.11.185-.048.281-.122.121.372-.038.231-.226.407-.163-.38-.339-.5-.523-.475a.4.4,0,0,1,.1-.615c-.172-.094-.338-.038-.353.2-.4-.721-1.378-.3-2.05-.071-.726-.953.535.078-.269.591l-.127-.211c.348-.911-.983-.828-.577-1.406-.123-.282,1.819-.088,1.7-.445-1.195.808-1.9.333-3.052.811-.037-.1.009-.181-.055-.285a1.861,1.861,0,0,0,1.275-.823c-.167-.306-.364-.016-.532-.292.068.4-.117.454-.353.2a1.4,1.4,0,0,1-.037.721c-.388-.279-1.285-.091-1.131.669-.175.259-.053-.576-.324-.34-.036-.191.276-.139.163-.511-.272-.11-.536.546-.453.813-.187.1-.134-.5-.306-.7-.371.195-.148.514-.379.737-.184.175-.223-.326-.117-.388-.278-.222-.232.364-.3.484a1.023,1.023,0,0,1-.379-.625c.176-.306.328-.169.5-.35-.392-.391-.594.231-.58.606-.482.007-.917-.03-1.265.645-.341-.313.059-.471-.1-.747.28-.1.554-.115.831-.191a.828.828,0,0,1,.056-1.079c-.167-.219-.338-.036-.352.2-.019-.441-.322-.087-.378-.625-.391.423-.736.349-1.247.287-.088-.278.378-.4.479.009.073-.046.043-.112.01-.179l.143-.151c-.254-.374-.542-.1-.822.01-.119-.388.044-.719-.079-1.107-.157.356-.159.181-.435.455-.244-.263-.156-.457-.306-.7-.177.117-.148.273-.225.407-.183-.219-.006-.366-.243-.6a2.351,2.351,0,0,1-1.227-.073c-.164-.435.169-.2.37-.558-.19-.28-.423.229-.6-.216,0,.148-.16.268-.09.435-.977-.521-2.017.174-3-.255-.075.105.053.253.116.387-.17.2-.339.381-.5.354-.21-1.474-1.341.152-1.9-.211.219-1.255.936-.776,1.5-1.237-.282-.339-.651.245-.731-.421l-.434.455c-.162-.185-.117-.329-.18-.492.181.048.382-.326.552-.067-.084-.418.178-.2.235-.589-.28-.761-.679.791-.957-.013-.324.447-.662.894-.959,1.348-.262-.3-.109-.508.037-.72-.2-.5-.445-.2-.668-.319a.64.64,0,0,1-.308.665c.13.129.282-.151.4.262q-.355.263-.677-.138l-.651.686c-.089-.552.144-.407-.316-.521-.312-.3.171-.45-.1-.746-.129.861-.495.525-.949,1.171a6.785,6.785,0,0,1-1.2-.606c-.344.8-.745.9-1.229,1.3-.3-.3.247-.435.173-.692-.622-.031-1.286,1.087-1.59,1.678.629.32.862-.848,1.282-1.013a.445.445,0,0,1,.045.463c.17.2.458-.319.3-.485.546.808,1.721-1.164,2.465-.048a1.711,1.711,0,0,1-2.221.643c-.471,1.178-1.43.921-2.3.9a3.943,3.943,0,0,0,.488-1.537c-.2.347-.371.138-.57.43-.573-1.077-.856.388-1.408-.556a3.743,3.743,0,0,1-1.047.424c.179.189-.048.293.045.464-.188.1-.365-.04-.561.252-.3-.393.091-.539.3-.487-.05-.421-.846-.029-.839.38-.27-.083-.559.233-.8-.342-.381-.115-.812.751-1.183.4-.23-.561.2-.992.417-1.463-.494-.016-.728.7-1.391.453-.23-.391-.1-.448-.389-.44-.236.3.417.194.181.49.2.068.4.161.613.03.083.482.025.425.389.443.062.132-.079.225-.154.332-.189.128-.336-.548-.523-.467,0,.151-.161.27-.09.435-.234.105-.451-.119-.677-.134-.092-.258-.022-.339.153-.332.134-.07.053.161.188.309a1.052,1.052,0,0,0-.026-.822c-.977,1.278-1.879,1.089-2.817,1.624-.1-.141-.192-.28-.118-.389a1.647,1.647,0,0,1-1.263.66c-.044-.475.7-.592.659-.87.176.43.353.242.073-.075a4.007,4.007,0,0,1-2.068.322c-.2-.648.725-.287.731-.951-.264-.018-.344-.222-.487.178-.878-.613-2.522.545-3.45.609-.192-.279.548-.379.172-.694a.914.914,0,0,1-.787.666c.2.127.4.307.606.209.037.1-.009.178.053.282-.423.258-.8-.461-1.237.124-.122-.174-.044-.31-.18-.488-.339.369-.64.027-.967.177a.447.447,0,0,1-.046-.463c-.151-.167-.329.218-.469-.182-.146.094-.088.226-.018.36a11.216,11.216,0,0,0-3.342-.181.4.4,0,0,1,.163-.515c-.2-.078-.415.1-.616-.026-.336.181.125.508-.17.694-.3-.42-.622-.314-.956,0-.183-.218-.008-.366-.246-.592-.127.188.031.43-.1.618-.359-.575-.313,0-.822.027-.182-.215-.006-.364-.244-.591a.456.456,0,0,0,.046.464c-.436.2-1.343-.545-1.311-1.156-.65.242.5.616.083,1.107-.233-.048-.155-.28-.452-.539-.328.3-.695-.1-.848.568-.3-.04-.637-.029-.724-.591l-.36.387c.232.522.1-.369.334.154-.206.645-1.189.01-1.8.391.108-.349.058-.662.378-.748-.453-.569-.572.61-1.055.626-.288-.623-.63-.162-.957.011-.359-.564-.756-.384-1.148-.3-.084-.407.36-.087.495-.366-.126-.295.207-.507.109-.8-.389.485-.93.5-1.281,1.04-.1-.188-.274-.058-.533-.278-.131-.551.815.02.306-.67.22-.332.4.169.623-.161-.187-.46-.779.2-.732-.4-.231.289-.47.114-.841.391.04-.733-.391-.067-.724-.583-.434.471-.832.252-1.254.5-.019.369.315.692.525.458-.057.62-.644.172-.895.111a.609.609,0,0,1,.234-.593c-.04-.3-.235-.34-.237-.768-.047.808-.406.159-.785.676.135.5.32-.019.461.356-.228.007-.47.3-.677-.122-.062-.185.118-.06.216-.233-.092-.192-.286-.134-.189-.306-.244-.315-.11.573-.343.028.06.315.184.638-.043.9-.326-.05-.01-.306-.245-.588-.191.178-.128.4-.1.618-.115.013-.222-.152-.343.031-.342-.453.233-.747-.012-1.182a1.43,1.43,0,0,0-.17.7c-.246.367-.433-.467-.687.064-.246-.255-.157-.451-.308-.687-.313.322-.6.047-.887-.061-.185.6-.683.353-1.038.275-.18-.213.364-.3.026-.541-.32.515-.651.185-1.1.174-.288.164.111.443-.1.62-.4.04-.055-.546-.373-.793-.18,0-.254.081-.288.315-.63-1.1-1.383.329-2.035-.349-.251.572-.4.454-.855.761-.123,0-.2-.383-.463-.351-.06-.465.412-.182.568-.445-.411-.346-.734-.02-1.039.277-.334-.2-.171-.4-.374-.787-.274.091-.424-.191-.56.273l-.254-.4c.1.5-.624.6-.886-.051-.233.632-.417.324-.759.149-.286.286.027.111.12.383-.17.215-.318-.034-.479.014-.25-.468-.068-.444.034-.72-.294-.043-.584-.191-.853-.774.072-.107.142-.117.208-.055-.033-.349-.669-.259-.942-.332.706.36.562.932,1.244,1.2-.661.686-.714-.64-1.206-.555.006.394.5.867.422,1.247-.173-.37-.64-.369-.781-.85-.2.36-.217.75-.394,1.117.1-.636-.245-.643-.5-.989-.126-.263.3-.435.033-.721a.968.968,0,0,0-.169.7c-.18-.006-.423-.377-.28.138-.2-.036-.395-.316-.589-.549,0-.28.621.057.5-.555-.373.272-2.03.837-1.7-.178-.2-.057-.426.347-.615,0-.314.824-1.018.061-1.546.864-.1-.613-.533-.277-.374-.78-.228-.169-.189.447-.5.562-.519-.113-1.03-.431-1.576.045-.043-.512-.494-.418-.543-.08-.183-.505-.4-.221-.592-.538.054.3.158.322.24.76-.265.023-.558-.376-.656-.639-.357-.132-.2.511-.678-.1-.032.147.072.312-.089.44.3-.081.588.093.871.4a12.154,12.154,0,0,0-1.494-.212c-.039-.1.007-.181-.057-.279.236-.149.652.283.7-.268-.348-.329-.68.361-1.152-.242-.1.124-.194.246-.281.147a.441.441,0,0,0,.048.46c-.31.28-.591-.085-.9.161-.241-.211-.065-.37-.25-.573-.27.2.133.467-.224.424-.25-.265.171-.428-.184-.474-.2.125.02.3-.088.441-1.029-1.191-2.336-.236-3.183-.844-.109-.194.2-.336.158-.524-.378-.221-.8.559-1.155-.232a.449.449,0,0,0,.049.46c-.149.31-.277.08-.424.32-.172-.167-.02-.3.087-.445-.2-.256-.413.011-.614-.144-.074.112.058.246.123.371-.149.3-.274-.021-.419.144-.018-.152.1-.293-.05-.457l-.289.337c-.186-.2-.009-.363-.253-.566a7.1,7.1,0,0,1-2,.1l.194.289c-.182-.027-.381.372-.555.132-.173-.167-.022-.3.085-.445-.4-.246-1.13.172-1.32.337-.1-.383-.261-.49-.54-.226.341.367.029.361-.157.535.627-.152.886.4,1.571.221.076-.164-.064-.075-.13-.193.153-.391.265.249.419-.144.2.464.212.344.52.771-.789-.435-1.9.236-2.457-.387-.046.088-.006.184-.078.269-.266.175.069-.343-.186-.462-.436.724-.827.26-1.231.114-.126.5-.411.448-.692.327.106-.359.356-.707.175-1.079.2-.105.544.048.557-.333-.263.053-.269-.033-.395-.383-.12.4-.3.306-.363.613-.232.131-.447-.222-.688.145-.257-.672-.871-.333-1.358-.073,0-.551-.244-.514-.61-.124a.433.433,0,0,1,.085-.448c-.444-.276-.92.32-1.367.108-.126.174.165.373-.019.542-.144.246-.255-.475-.407-.021a.432.432,0,0,1-.052-.457c-.216-.09,0,.5-.35.255-.167-.191-.226-.376-.117-.551-.349.252-.958-.26-1.1.3-.186-.191-.01-.364-.254-.556-.015.561-.357.073-.342.073-.481.057-.65.771-1.165.209-.1.528-.661.252-.965.31-.019-.151.1-.295-.053-.455-.224.583-.542,0-.906.585a.281.281,0,0,0,.466.3c.121.083-.322.4-.419.342-.138.425.3.117.4.2.066.155-.124.3-.22.443-.11.047-.374-.586-.678-.033-.171-.218-.329-.434-.183-.64-.239-.329-.5.146-.738-.3-.068.238,0,.552-.29.535a2.765,2.765,0,0,1,1.207-1.5,5.136,5.136,0,0,1-.666-.384c-.1.177-.141.547-.349.262-.072.146,0,.3-.083.45-.31.238-.169-.218-.46-.468.038.761-1.166.842-1.3.05-.01.45-.288-.007-.49.437.215.33.457-.128.672.2-.015.339-.586,0-.815-.028a.894.894,0,0,1-.29.535c-.168.206-.152-.286.012-.363-.235-.144-.262.467-.089.632.163-.128.314.107.484-.256.061.182.061.366.119.548-.325.256-.625-.307-.951-.03-.064-.353.494-1.006.036-1.087.071.492-.1.248-.356.443-.028-.538.236-.235-.254-.552-.035.35-.063.47-.36.622-.1-.69-.514.231-.8-.387.823-.08,1.475-.635,2.389-.2-.325-.62.63-.266.508-.982-.107-.178-.224-.088-.329-.283-.14.592-.7.147-.811-.206.185.525-.328.467-.1.992-.181-.033-.372.26-.545-.016-.131-.295.546.044.084-.451.149-.4.265.233.414-.167-.126-.158-.05-.3-.189-.46-.409.593-.513.122-.6-.292-.025.757-.88.24-1.306.41-.15.34.017.239.189.46-.466.6-1.206.02-1.448.589-.272-.221.048-.421-.048-.636a2.251,2.251,0,0,1,1.088.034.76.76,0,0,0,.024-.724c-.1.185-.185.1-.271-.01a.5.5,0,0,0-.013.364c-.368-.555-1.4-.024-1.649.492.187-.915-.485-.454-.645-1.111-.119.155-.232.162-.344.081-.138.487.306.1.4.376.109.38-.289.62-.65,1.157-.3-.507.3-.512.3-.9-.333-.357-.268.038-.621.252.111.215.031.425.048.636-.164.134-.308-.29-.479.077.283.373.6-.38.875.3.352-.369.7-.68,1.041-.6.116.225-.312.142-.413.168-.135.323.347.337.272.008.058,1.777-1.949.248-3.022.81.1.125.2.249.124.367.15.27.328-.27.474.107.031.258-.513.578-.686.158.133.428-.457,1-.7.536-.079-.1.413-.39.549-.175-.083-.536.157-.531.236-.993-.292-.213-.2-.341-.527-.551.49-.2.769.172,1.378-.509-.28-.434.033-.428-.385-.737,0,.3.253.612-.164.9a3.557,3.557,0,0,0-1.36-.024.432.432,0,0,1,.119.545,1.437,1.437,0,0,0,.608.1c-.019.256-.284.418-.425.541-.135-.124-.067-.245.012-.363-.386-.245-.111.519-.555.356-.02-.272.153-.542.095-.815-.493.682-1.4,0-1.927.7-.094-.212.085-.423-.183-.638-.256.209-.5-.037-.763.445a.873.873,0,0,1,.257.546c-.324.212-.637.043-.964.35-.148-.361.25-1.046.56-.536-.148-.275.114-.542-.042-.815-.292.638-.6.384-1.181.8.148.373.324-.169.474.1-.023.445-.4.07-.626.445-.126-.151-.05-.3-.19-.455-.171.982-.795-.03-1.169.438-.179-.67.531-.48.571-.9-.065-.084-.138.04-.206.09-.3-.184.178-.36-.12-.545-.247.276-.609-.026-.49.448-.239.4-.448-.185-.68-.009-.049-.239.081-.583.282-.36-.04-.628-.885.505-.941-.373l-.424.538c.167.152.124.3.191.457-.267.218-.267-.128-.4-.369-.433.723-.828.033-1.556-.29-.411.505-1.284-.233-1.909.181-.019.43.286.1.468.268-.107.481-.78.384-1.1.371-.106-.451.428-.007.353-.457-.208-.2-.372-.334-.391-.539-.167.186-.477.741-.712,1.093-.312.138-.228-.472-.458-.632-.162-.058-.686.5-.608-.087a1.573,1.573,0,0,1-1.572.285c-.307-.27.263-.545-.045-.815-.4.275.1.544-.227.818-.31.272-.321-.457-.524-.721-.186.186-.359-.075-.544,0a.715.715,0,0,0-.25-.723c-.012.135-.093.39-.212.273-.165.256.21.03.261.36-.19.327-.362.03-.543,0-.149.241.25.327.333.269a2.974,2.974,0,0,1-.086.636c-.261.024-.262-.309-.413.184-.288-.407.078-.323.085-.635-.276-.243-.255.215-.352.455-.321.152-.634-.068-.953.009-.015-.273.212-.546.228-.818-.3-.132-.569-.847-.937-.535-.258-.551-.313-.847-.927-.9.176.182.409.195.394.542-.212.26-.412.132-.615.094-.139.184.088.362-.151.545.263-.044.753.445.816-.007.035.212.1.424-.086.636-.236.051-.153-.507-.478.094-.3-.178.178-.363-.12-.542.042.548-.33.531-.621.277-.176.35.08.426.262.359-.118.176-.229.084-.348.279-.073-.209-.47-.41-.322-.626-.119-.045-.593.521-.473-.078-.22-.162-.36.817-.695.562-.067-.151.123-.306.216-.46-.339-.047-.95-.531-1.088.027-.1.08-.579-.065-.262-.353a2.163,2.163,0,0,0-1.611,1.763c-.159.036-.315-.058-.479.1-.263-.294.253-.61-.11-.9.329-.369.325-.125.542-.016.325-.31.4-.613.161-.909-.067.091.026.179.062.27-.21.175-.419.4-.615.107-.152-.25.212-.037.282-.37-.171-.374-.371.262-.54-.168-.14.885-.878.289-1.355-.147-.228.333-.423.963.04,1-.1-.464.176-.312.413-.192.068.158-.118.172-.206.1.1.407.812.085,1.148.24-1.107.667-2.768.238-4.094.652-.066-.12.072-.243.145-.366-.178-.128-.357-.194-.548.2-.1-.578-.273-.071-.535-.35-.2-.2.456-.435.084-.635-.259.6-.393.258-.887.122-.214.468-.476.785-.82.216-.237.428-.456.144-.694.574-.7-1.218-2.011-.212-3.241-.764.023.4-.294.748-.413.2-.28.225-.209.432-.22.646-.091.043-.184.088-.271.01.038-.275-.039-.542.224-.827-.386-.336-.113.763-.549.206-.119.65-.234.428-.623.481-.134-.206.035-.425.219-.645-.659.522-1.648.145-2.137,1.271-.326.218-.321-.081-.54-.155-.182-.266.184-.554-.049-.815a.692.692,0,0,0-.153.734c-.332-.077-.25.211-.553.4a.916.916,0,0,1,.571-1.121c-.138-.13-.069-.268,0-.182-.454-.489-1.1-1.015-1.835.02-.243-.228.324-.5.018-.726-.249.528-.911-.01-1.361.083-.135.158-.067.306-.215.465-.02-.149.093-.307-.056-.45-.25.044-.085.128-.282.38-.054-.117.095-.247.008-.364-.286-.359-.59-.018-.553.4-.064-.117-.132-.134-.2-.078-.065-.117.073-.248.144-.371-.635.02-1.615-.585-2.04.124-.609-.458-.459.193-.812-.134-.361.737-.574.632-1.044,1.06.154.231.314.12.471.243-.212.333-.405-.135-.614.128-.066-.115.071-.246.143-.371-.43-.016-.852-.356-1.283-.364-.066-.117.072-.248.145-.376-.2-.021-.405-.137-.616.139-.234,1.01-1.572-.259-2.252.444a22.023,22.023,0,0,1,2.372.272c-.277.255-.545.078-.817.063-.112.438.353.074.47.236l-.42.576c-.127-.141-.053-.3-.193-.44-.574.28-.56,1.121-1.241.821-.054-.314.456-.418.626-.683-.017-.211-.179-.408-.054-.63-.139.144-.5,1.288-1.039.9-.1-.174-.029-.36.148-.555-.277-.3-.546.821-.965.618-.278-.221.2-.5-.12-.716-.072.064-.041.122,0,.179.01.246-.365.073-.285.566-.119-.068-.574-.154-.481.309-.157-.061-.322.176-.474-.054-.01-.331.47-.7.361-1.025a4.424,4.424,0,0,0-.622.5c-.188-.168-.016-.362-.261-.524a4.155,4.155,0,0,1-1.225.093c-.136-.2.262-.131.351-.481-.52-.235-.652,1.022-1.162.364-.138.1-.284.6-.417.4-.164.27.21.011.264.34l-.209.29c-.4-.307-.817.09-1.217-.252a.386.386,0,0,1,.75-.158c.186-.241.371-.417.553-.414-.222.051-.743-.569-1.09.1-.272-.248.085-.552-.187-.8-.271.672-1.077.7-1.714.791-.152-.316.212-.127.279-.387-.29.034-.153-.29-.4-.508-.368.3-.726.091-1.1.462-.493-.514-.495.168-1.24.84.3-.081.594-.326.886-.172.144-.135.081-.249.008-.364a.42.42,0,0,1,.544-.048c.157.142-.216.262-.276.2.088.283.748,1.049,1.079.447.212.519.972.408,1.424.142.156.248.072.477.338.06a1.892,1.892,0,0,0,2.1.263c.015.622.742.078.529.686.113-.2.341-.192.62-.322-.111-.164-.226-.063-.335-.246.138-.1.274-.112.411-.212a.454.454,0,0,1-.076.458c.175.277.36.048.536.323.132-.131.058-.246.144-.374.153.252.306.461.474.056.111.127.219.371.335.246.185.167-.356.39-.012.545.278-.726,1.449-.5,1.7-.037.243.192.086-.287.28-.386.068-.061.135-.008.205-.107.253.192.074.418.326.611.454-.612,1.324-.179,1.971-.06.167-.356.322-.263.486-.49-.335-.373-.274.35-.614.137.17-.3.122-.216-.053-.63.448-.623.832-.339.948.11-.188.344-.353-.39-.544.041.3-.013.437.5.186.8.431-.037.856.2,1.285.186-.132.508-.069.3.26.528-.229.134-.453.006-.672-.322-.124.188.17.35-.012.544.252-.147.5.11.746.047.172-.253-.082-.478-.254-.71.387-.152.765.1,1.161-.343.057-.245-.078-.48.017-.726.408-.161,0,.472.324.616.068.168-.115.085-.209.283.386.6,1.293.139,1.748.8.557-.615,1.092-.256,1.635-.279.177.454-.38.427-.429.934.408.336.523-.64.607.235a1.173,1.173,0,0,0,.021-.908,1.617,1.617,0,0,1,1.425.006c.159-.711.623-.475.961-.423.065.118-.073.248-.145.373-.116.1-.224-.139-.334-.253a.247.247,0,0,0-.075.278l-.14.189c.244.215.505-.336.741.228-.165.253-.317.036-.477.118-.093.5.4.208.536.332-.458.794.523.105.872.4-.021-.283.075-.808.358-.831-.194.474.167.453.181.988.071-.122.14-.144.206-.1-.117-.5.339-.455.43-.925.183.061.75.555,1.153.038.24.235.009.485-.018.729.377.214.733.228.938.5l.281-.374-.263-.353c-.263.525-.5-.058-.746-.058.326-.406.63.154.956-.222-.031,1.107.731.438,1.266.942-.2-.112-.41.159-.608-.064-.029.457.532.26.741.24a4.661,4.661,0,0,1,.154-.733c.371-.154.177.465.324.622.1-.192.183-.11.271-.013.021-.568.343-.583.679-.03-.194-.591.105-.2.426-.744.377.487-.494.464-.022.908.129-.674.383-.505.566-.931.326.411-.4.447-.291.737.33-.01.4-.018.624-.48.3.374-.23.223-.15.551.581.613.778-.152,1.368-.423.155.2.073.42.324.62.306-.435.589-.047.89-.3.082.239-.064.484-.019.724-.1.176-.183.075-.276.189-.225-.176.019-.364.014-.545-.411.107-.543.44-1.026.316.291.132.577.44.877.232.225.246-.371.048-.147.37-.312-.161-.632-.058-.946-.141-.061.125.082.239-.009.363-.263.2-.074-.341-.329-.438-.117.165-.23.178-.342.105-.048,1.133-.657-.226-1.03.5-.241-.229.068-.555-.259-.531-.2.371.049.721-.163,1.1.174.26.363-.078.539.155.071-.122-.061-.239-.128-.356.235-.327.455-.091.679-.03.035.329-.218.165-.285.555-.273.077-.541-.061-.819.218-.241-.229.069-.555-.258-.532-.461,1.349-1.925.464-2.8.575-.04-.239.278-.5.153-.733a8.856,8.856,0,0,0,2.436.256c.131-.33-.3-.312-.407.02-.2-.3-.482-.2-.189-.626a3.328,3.328,0,0,1-.683.209c-.053-.238.2-.491-.118-.719-.223.532-.291.364-.618.3-.254-.2.066-.426-.187-.625a1.508,1.508,0,0,0-1.372.6c.008-.152-.139-.3-.057-.451.2-.26.012.461.272-.011-.4-.336-.815,0-1.214-.31l-.491.657c-.131-.238-.135-.481-.39-.71-.289.629.165.588.251.9-.258.336-.483-.6-.746-.058-.312-.344.286-.743-.109-1.081-.067.094.025.181.06.269-.528.35-1.042.093-1.56,0a.437.437,0,0,0,.391.7c-.254.185-.524,1.067-.763.679-.115-.336.283-.125.215-.467-.126-.4-.276.242-.4-.155-.16.36.017.471-.355.656a.369.369,0,0,1,.013-.545c-.368-.344-.347.75-.689.4-.1-.265.382-.566.089-.82-.262.228-.188.435-.354.655-.093.047-.183.094-.272.017-.008-.293.37-.32.289-.743-.346.063-.262-.229-.6-.6-.63-.293-1.311.216-1.77.287.4-.682-1.085-.3-1.549-.542.038-.484.63.031.895-.507-.546-.413-1.045.564-1.426-.006-.071.127.062.239.128.354-.191.448-.363.055-.552.4-.494-.868-1.181.031-1.479-.623-.629.467-.994,0-1.507.657.247.011.077.118.263.344-.76.647-.958-.356-.993-1.1-.177.376-.042.729-.16,1.1-.293-.085-.588-.01-.877-.208-.1-.233.359-.239.484-.49.067.2-1.024-.246-1.219-.088-.159-.071-.148-.563.008-.364,0-.435-.272.014-.408.031-.072.127.061.238.127.353-.557.078-1.4-.946-2.163-.379l-.331-.428c-.14.189-.27-.111-.412.214-.57-.916-1.179.105-1.75-.75-.621.528-1.226.229-1.827-.287.377-.324.4-.526.695-.788-.678.09-1.376.785-1.7.246.007.768-.484,1.177-.312,2.023-.338-.068-.673-.277-1.011-.361.02.805,1.24.178,1.2,1.16-.14.225-.265-.255-.4-.324-.06.573-.554.087-.826.618a.8.8,0,0,0-.254-.884c.022.438-.194.553-.492.862-.206-.329-.589-.749-.607-.216-.243-.219-.107-.545-.4-.507-.133-.329.029-.242.213-.475a.9.9,0,0,0-.887.184c-.23-.277.258-.632.017-.909-.123.154-.228.9-.484.505-.043.216-.217.445.057.63-.388.246-.325.159-.488.686-.142.326-.264-.465-.406-.139-.317.381.166.343.262.517-.182.1-.359-.145-.544.057-.135-.226.291-.515.014-.726-.089.4-.484.223-.339-.054-.417.753-1.111.492-1.7-.094-.024.214-.192.444-.216.657.287.155.157.181.4.5.18-.169.038-.307-.059-.448.568-.2,1.125.285,1.689.455-.483.376-.946-.3-1.427.061a1.981,1.981,0,0,1,.739.374c-.276.243-.539-.2-.823.451-.135-.228.118-.5-.123-.712-.116.184-.228.1-.346.307-.174-.131-.026-.3.076-.461-.132-.165-.274.161-.4-.14-.075.528-.515.262-.558.784-.365-.262.018-.6-.256-.879a.613.613,0,0,1-.946-.26c-.426.384-.415-.189-.816.1-.153-.312.212-.131.278-.4-.379-.341-.771.1-1.151-.134a1.707,1.707,0,0,0-.218.841.642.642,0,0,0-.69.628c-.3-.145.174-.383-.126-.528-.2-.087-.412.278-.612-.018-.26.268-.09.463-.347.5-.219-.275.325-.643.288-.942.164-.289.307.558.474.034-.059-.416-.6-.295-.883.016-.245-.154-.074-.354-.263-.511-.347.357-1.051.81-1.16.408-.118-.08-.128.168-.073.282-.25.1-.5.248-.744-.178-.165.366-.32.154-.484.518.3-.342.58.548.883-.026.195.427-.093.643.393.859-.4.66-.508.017-.611-.014-.275.481.267.29.261.69q.212-.461.408-.047c.183-.367.34-.154.348-.5-.223-.176-.414.088-.332-.413.16-.182.311.343.473.033.115.337-.191.5.194.612-.133-.6.3-.02.543-.064.041.1-.036.646-.211.477.189-.036.619.509.946.25.245.75.673.185.867.894.351-.208.312-.593.689-.626.07.142-.119.316-.211.478.284.544.584.156.876.35.107-.252.043-.34-.13-.349.195-.474.483-.058.483-.512.02.081.083.566.266.332.132.329-.029.242-.212.48.357.283.727-.2,1.077.42.138-.972.5.386.822-.45-.077.575.285.194.329.6-.25.094-.5.239-.742-.192-.232.783-.865.238-1.287-.129a1.26,1.26,0,0,1-.353.859c.667-.953,1.931,1.063,2.588-.649.429.044.862-.135,1.286.135.107-.25.044-.34-.129-.349l.418-.589c.136-.075.271,0,.4.138-.209.315-.408.017-.62.519.2.221.4.169.6.39l.278-.391a.492.492,0,0,1,.337.056c.135.195-.032.425-.216.657.5.108.283-.911.825-.632a.419.419,0,0,0-.059-.448c.14-.171.277-.272.412-.225-.281.825.771.926,1.129,1.239-.4.266-1.393-.174-1.365.51-.408.055-.81-.216-1.219-.054-.049.524.491.1.673.293-.325.28-.324.078-.555.6-.155-.771-.4-.047-.526-.85-.345.369-.194.685-.086,1-.263.192-.262-.381-.4-.5-.162.23-.319.144-.483.5-.246-.154-.074-.354-.262-.517-.308.481-.176.038-.474-.04-.322.315-.635.118-.958.464-.274-.181.044-.427-.056-.629.334-.188.94.178.891-.548-.181-.038-.368.326-.551.423a.613.613,0,0,0-.129-.35c-.3.431-.365.468-.612.155-.393.376.035.659-.358,1.037-.069.065-.136.017-.206.117-.241-.213-.012-.482.013-.727-.173-.415-.362.009-.538-.3-.141.137-.078.25-.006.363-.411.27-.8-.535-1.226.327-.735-.223-1.3.245-1.893-.317-.235.485-.455.169-.683.263-.086.451.009.535-.217.844.314.36.318.242.532.662.154-.464.029-.33.283-.758.3-.161.585.127.888-.38.169.313-.3.7-.357,1.042.16.215.674-.164.6.38.45.087.915-.626,1.355.02-.276.314-.545.178-.821.46.179.06.363-.066.537.3.079-.391.141-.4.271-.033.532-.714,1.036.206,1.56-.1.27.149-.038.369-.144.562.173.306.361-.047.539.121a1.763,1.763,0,0,0-.458-.948,1.247,1.247,0,0,1,.075-.462c.16-.053.317.027.474.041.075.172-.161.379.127.528.173-.168.139-.316.212-.474.091-.085.178.1.271-.03.16.371-.148.229-.146.561-.207.26-.4-.276-.612.155,2.1.175,4.2-.078,6.293.33.15-.764.823-.437.946.1.147-.407-.063-.78.091-1.185.393-.223.348.512.742.2.066.115-.071.248-.143.376.338.075.686-.381,1.02-.182-.422,1.02.8.467,1.332,1.146.276-.206-.024-.36-.124-.531.548-.014.3.108.806.289.086-.159-.173-.287-.058-.448.136-.075.271,0,.4.144a1.017,1.017,0,0,1,.282-.569c.305-.316.2.457.543-.051.1.174.03.361-.147.558.809.195.677.48,1.691.118a.463.463,0,0,1-.076.461c.644-.583,1.266-.114,1.906-.511a.5.5,0,0,1-.008.366c.249,0,.5-.315.76-.694.213.165-.012.545-.012.545s.212.509.436,1.2a2.916,2.916,0,0,1,.165,1.153l-.547,1.451c-.026.731-.475.34-.673-.129.132.542-.318.973-.694.778-.109-.444.427-.036.349-.481-.11-.165-.225-.063-.334-.246-.1.243.061.447-.212.47-.079-.145.184-.316.077-.46-.426-.2-.571.08-.55.406-.34.184.012-.573-.329-.428.037.44-.261.616-.557.773-.111-.529-.211.007-.465-.41-.007.393-.351.387-.546.231-.021-.214.143-.122.077-.46-.116.579-1.164.05-1.034.911-.243-.233-.508.6-.75.339-.188-.381.229-.3.421-.763-.246-.122-.5.1-.744-.023-.13,1.157-1.045.7-1.3.935.027-.346.359-.514.488-.679.136.108.07.236-.007.363.294.179.215-.289.55-.413-.45-.073-.562.06-.936-.639-.281.236.027.42-.08.64-.394-.625-1.985.228-2.573.054-.09.068-.566.415-.351.67-.358.441-.663-.31-.685.435-.2-.221.03-.487.014-.727.115-.107.223.13.334.239.219-.384-.152-.561.284-.757-.347.027-.4.293-.823.63a.639.639,0,0,0-.13-.349c-.229.336.14.209.056.629-.206.194-.4-.115-.615.337a9.181,9.181,0,0,0,3.108.233c.3.154-.176.379.124.532.256-.026.182-.233.347-.484.267.337-.178.741-.428,1.127-.576.029-1.212-.739-1.96-.083-.2.038-.4-.31-.605-.209.185.386.13.336-.274.211-.238.208-.008.364-.146.559-.5-.64-.625-.1-1.081-.067-.187-.162-.017-.36-.261-.516.023.394-.194.683-.483.5-.186-.162.353-.4.01-.545-.094.2-.183.12-.271.03a.913.913,0,0,1-.212.474,2.691,2.691,0,0,1-1.342-.582c-.127.787-.446-.139-.749.352-.136-.329.26-.14.347-.491-.25.051-.5.161-.744-.013-.137.1-.282.609-.414.411.08.467,0,.425-.353.859.52-.167.728.381,1.151-.043.245.386-.171.343.056.63a.784.784,0,0,0,.217-.838c.162-.152.318-.067.48-.323.008.6.446.25.674.108.168.376-.294.376-.353.855.259.048.272-.112.413-.407a.811.811,0,0,0,.668.474c0-.242.235-.507.419-.77.081.293-.026.608.254.881.186-.29.361-.01.542-.058-.077.221.085.416.056.629a4.273,4.273,0,0,1,2.163-.045c.418-.626.809.141,1.223-.3.7.877,1.748-.72,2.222.433.142-.347.274-.134.414-.4.174.33.353.327.531.5-.279.246-.5-.1-.618.509.124-.5-.162-.213-.4-.326-.174.4.087.275.263.337-.325.465-.636.245-.951.269-.12-.169.312-.326.409-.218-.106-.461-.811.1-1.149.013.152.333.318-.1.469.23-.623-.057-.863.416-1.432.583-.2-.194.452-.464.082-.643l-.279.39a1.592,1.592,0,0,0-1.7.448c.4-.551-.251-.332-.6-.39-.043.239-.217.472.06.447-.48.74-.537-.306-.95.282-.19-.252-.088-.535-.053-.811-.185-.118-.49.525-.487.687-.283.252-.8-.506-.88.184-.121.01-.573-.192-.466-.4a1.283,1.283,0,0,1-1.629.353c.358-.242.319-.158.621-.7l-.668-.474c-.2.132.2.619-.076.464-.13.487.307-.048.407-.046.05.586-.749,1.083-1.09.49-.45.016-.922,1.258-1.364.707l-.276.394c-.226-.152.016-.363.009-.544-.268-.118-.551.632-.816.279-.136-.327.262-.27.346-.5-.764.334-1.478.788-1.962.142-.226.055-.451.006-.683.447a.285.285,0,0,1,.06.444c-.266-.413-1.006.285-1.483-.168.16-.259.322-.5.477-.334-.132-.293-.851-.206-1.213-.2-.318.5.234-.029.332.41-.232.334-.453.077-.683.455a.466.466,0,0,1-.076.463c.176.233.249,0,.265.327a.511.511,0,0,0-.273.218c-.336-.645-.437-.445-.867-.7.231-.478.447.2.679-.273-.153-.322-.314-.068-.467-.39.136.346-.49.721-.754.733-.067-.111.071-.25.141-.38-.174-.414-.36.016-.536-.292-.118.2.182.337.127.528-.477.381-.944-.009-1.422.289-.008.481.344-.125.538.105.041.084,0,.181.064.263-.342-.128-.439.238-.817.481.012.514.343.3.474-.161.31.2-.306.6.128.526C77.833,465.615,77.363,465.778,77.694,466.17Zm25.686,1.615c.256-.4.5-.031.742.033C103.868,468.128,103.624,467.981,103.38,467.785Zm20.614,1.971c-.217.418-.679.1-.354.65a1.035,1.035,0,0,1-1.147-.041c.2-.384.232-.144.424-.743.109.114.216.357.33.258.092-.125-.049-.24.009-.363C123.5,469.667,123.76,469.173,123.994,469.756Zm154.149-16.1c.247-.229.2-.609.487-.172C278.624,453.747,278.316,453.976,278.144,453.652Zm-.041-9.819c.431-.138.482-.222.859-.732.137.424.307.235.478.009a3.161,3.161,0,0,1,.361.983c.367-.287.138-.7.055-1.079.548.3.467,1.158.124,1.57-.44-.751-.977.376-1.436-.026-.226-.435.271-.158.164-.511C278.485,444.22,278.093,444.183,278.1,443.833Zm-42.128-2.708c-.265.279-.494-.174-.751-.048C235.491,440.772,235.736,440.863,235.975,441.125Zm-21.388-1.611c-.106-.33-.566-.315-.445-.706C214.314,439.244,214.815,438.983,214.587,439.514Zm-16.171-2.263c.178.1.375-.2.539.249A.3.3,0,0,1,198.415,437.252Zm-95-.206a.9.9,0,0,1-.878-.206C102.784,436.853,103.394,436.6,103.411,437.045Zm5.653,5.463c-.029.407-1.233.4-1.014-.2C108.381,442.743,108.735,442.037,109.064,442.508Zm-23.9,1c.073-.159.039-.307.212-.48.11.179.225.073.336.233C85.52,443.567,85.335,443.817,85.159,443.513ZM103.5,455.624c-.206-.037-.765.138-.74-.216C102.965,455.382,103.525,455.167,103.5,455.624Zm-6.7-.036c0,.132-.242.8-.413.4C96.267,455.762,96.7,455.378,96.8,455.588ZM80.016,464.4c-.141-.1-.076.148-.208.3-.194-.555-.411.363-.6-.194C79.44,463.987,80.016,464.085,80.016,464.4Zm9.5,1.1c-.181.046-.367.366-.541.055C89.274,465.047,89.48,465.467,89.517,465.5Zm9.279,1.969c-.026.357-.456.4-.675.063C98.353,467.142,98.575,467.335,98.8,467.467Zm1.96-.087c-.234.249-.809.146-.805-.29C100.217,467.307,100.5,466.915,100.757,467.381ZM87.083,450c.452,0,.909-.333,1.358-.162A.912.912,0,0,1,87.083,450Zm19.493,23.075c-.042.411-.508.44-.745.149C106.088,472.721,106.333,472.839,106.576,473.071ZM97.7,461.582c-.225,0-.457.327-.677.063C97.209,461.363,97.744,461.117,97.7,461.582ZM87.111,448.36c-.1-.262-.532.193-.4-.315C86.893,448.112,87.316,447.8,87.111,448.36Zm.48-.329c.112.505.211.087.47.215-.113.167.146.286.06.447-.331-.01-.237-.357-.542.065l-.2-.249C87.453,448.348,87.417,448.2,87.591,448.031Zm1.269,1.03c-.227.071-.459.435-.679.078C88.417,448.663,88.641,448.755,88.861,449.061Zm8.515,8.2c.138-.169.276-.268.409-.219-.308.326-.119,1.174-.559.958C97.115,457.583,97.613,457.531,97.375,457.259Zm-6.4-8.693-.279.391-.2-.25C90.659,448.32,90.814,448.529,90.971,448.566Zm-4.047-5.083c-.1-.618-.277.081-.541-.117C86.348,442.783,87.376,442.909,86.924,443.483ZM98.87,456.942c.433.347.977-.573,1.212.253.046-.551.513-.579.751-.342-.654.184-.548.817-1.176,1.285-.25-.714-.246.107-.394-.507-.344.169-1.048.636-1.154.2.059.054.429-.064.275-.206a.522.522,0,0,1-.676-.121c.188-.342.363-.13.54.132C98.463,457.341,98.852,457.438,98.87,456.942Zm7.222,10.273c-.017.458-.4.369-.615.319A.383.383,0,0,1,106.092,467.214ZM97.4,455.807l.265.337c-.139.245-.277.344-.41.218C97.563,456.155,97.1,456.015,97.4,455.807ZM89.29,444.026c-.212.433-.4-.376-.613.155-.214-.228.031-.649-.329-.6C88.827,442.881,88.887,443.992,89.29,444.026Zm3.914,4.757c-.208.3-.419.694-.617.337C92.792,449.068,93.007,448.465,93.2,448.784Zm-2.654-3.166c-.234-.49.457-1.21.764-.9a.755.755,0,0,1-.352.673C90.959,444.923,90.693,445.25,90.55,445.617Zm12.491,12.4c0-.467-.266-.151-.41.215-.178-.014-.247-.1-.264-.337-.483.485-.944-.12-1.427.4-.213-.2.035-.8-.334-.242-.23-.245-.228-.975.15-.739-.077.127-.144.253-.007.363.069-1.036.854-.793,1.309-1.117l.329.424c.271-.071.554-.628.817-.249a.9.9,0,0,1-1.1.638c.065.122-.036.159-.139.194.225.008.444.371.67.3.35-.548.7-.965,1.027-.531C103.118,457.367,103.255,457.763,103.042,458.016Zm-9.357-9.557c.125-.195-.17-.346.011-.545.128.391.277-.255.4.139-.211.324-.157.62-.424.951l-.2-.25Zm19.7,24.767c.1.273-.368.672-.479.3C113.066,473.387,113.236,472.838,113.384,473.226Zm-3.11-5.784c-.171.632-.882-.118-.607-.046C109.868,467.472,110.078,467.107,110.274,467.442ZM93,445.175l-.278.394c-.068-.115-.2-.221-.13-.35C92.728,445.333,92.749,444.771,93,445.175Zm2.543,1.732a.291.291,0,0,0,.059.45l-.347.484c-.2-.051-.4-.27-.6-.39A6.7,6.7,0,0,0,95.543,446.907Zm-2.4-1.928a1.666,1.666,0,0,0,.083-.824c.133.164.275-.161.4.138-.558.7.486.259.324.781-.269-.238-.907.427-.944-.262Zm3.6,3.088c-.1-.643-.45.013-.742-.2C96.188,447.028,96.946,447.349,96.742,448.066Zm.54.134c.247.06.069.568.265.339.122-.224-.043-.42.08-.643l.266.339c-.1.162-.252.326-.078.461-.162.252-.325.485-.48.314.078-.127.145-.255.007-.363-.252.206-.088.37-.283.571C96.752,448.913,97.209,448.537,97.282,448.2Zm1.854,2.189c-.3.4-.594.411-.88-.011A.585.585,0,0,1,99.135,450.389Zm-4.974-5.608c.344-.256.673.276,1.018-.017-.29.421-.48.352-.89.367C94.36,445,94.26,444.892,94.161,444.781Zm10.6,12.11-.28.383c-.171-.37-.353-.356-.542.04l-.2-.255C104.084,456.71,104.419,456.875,104.757,456.89Zm-9.115-11.535c-.2-.179-.409.034-.607-.214A.323.323,0,0,1,95.643,445.356Zm18,22.415c-.366.273-.718-.114-1.083.065C112.7,467.233,113.309,467.585,113.643,467.771ZM94.2,442.964c-.04-.208.129-.438.216-.659a.673.673,0,0,1,.544-.058,2.113,2.113,0,0,1-.083.827c.329-.686.642-.509.962-.636.278.612.548.485,1,.724-.213.494-.938.195-1.36.124a.423.423,0,0,1,.059.448c-.407.04-.522-.107-.332-.423-.315.138-1.291.568-1.554-.29C93.981,443.237,93.9,442.909,94.2,442.964Zm3.519,3.929c-.113.467-.238.731-.62.509C97.55,447.375,97.26,446.86,97.715,446.892Zm-2.589-2.938c.157.117.317,0,.471.229C95.4,444.525,94.917,444.376,95.126,443.954Zm10.579,12.862c.112.07.224.053.341-.115l.329.427c.465-.471.573-.1,1.092-.445-.138.192.091.356-.147.555-.264-.33-.54-.111-.813.063a.851.851,0,0,1-.156.919c-.2-.117-.4-.134-.6-.408.209-.319.408-.093.619-.5C106.264,456.953,105.744,457.191,105.705,456.816Zm.193.44c-.232.295-.455.228-.673-.131C105.456,456.895,105.675,457.176,105.9,457.256Zm-9.019-12.737c.3.154-.175.378.125.532-.185.238-.367.253-.543.05C96.46,444.862,96.7,444.526,96.879,444.519Zm19.614,25.53c-.186.232-.371.471-.545.213C116.136,469.923,116.316,469.983,116.493,470.049Zm-20.008-26.22c.141.138.068.295.194.435-.162.282-.319.2-.473-.047Zm5.908,6.263a.708.708,0,0,1,.194.434c-.3.127-.595.39-.88-.009C101.942,450.078,102.157,450.559,102.393,450.091Zm-4.768-5.551c.355.316.728-.215,1.084.084-.362-.048-.737.655-1.091.282C97.709,444.776,97.565,444.668,97.625,444.54Zm1.591,1.851.279-.388c.079.2.239.4.19.617C99.534,446.288,99.367,446.723,99.216,446.391ZM97.3,443.574c.093-.252-.437-.445-.122-.716.339-.038-.006.384.327.606l-.349.484c-.076-.208-.479-.067-.33-.423C96.991,443.413,97.146,443.621,97.3,443.574Zm10.9,13.506c-.289-.182-.263.4-.613.138C107.763,456.832,108.275,456.574,108.2,457.08ZM101.044,446.5c-.25.08-.5.27-.748.161C100.552,446.194,100.8,446.433,101.044,446.5Zm18.345,23.832c-.161.145-.324.377-.475.12C118.916,470.1,119.212,469.941,119.389,470.328Zm-16.345-22.194c-.247-.1-.5.1-.742-.211C102.518,447.55,103.067,447.832,103.044,448.133Zm6.65,8.833a1.976,1.976,0,0,1,.943.111C110.346,457.485,109.535,457.664,109.694,456.966ZM100,441.06c-.28.357.029.1.129.35-.166.386-.314-.145-.478.135.217.48.448.258.669.484.055.157.3.743-.081.642.147-.357-.258-.088-.332-.423-.282.569-.542-.038-.819.255-.195-.421-.33-.515-.668-.482-.114.161.144.289.059.445-.594-.441-.244-.851.033-1.632.151.137.036.3.059.448.116-.159.223.178.337.06a.7.7,0,0,1-.194-.435c.252-.315.428-.014.348-.485.16-.01.319-.125.471.226-.094.2-.277.124-.21.292A1.367,1.367,0,0,1,100,441.06Zm1.976,2.9c0-.329.233-.246.415-.4.111.528.5.12.807.3-.32.565.294-.02.4.512-.3.222-.584-.159-.881-.024-.538.576-.411,1.611-.977,1.357C102.136,445.346,102.618,444.211,101.977,443.961ZM121.7,469.674c.052.208-.357.438-.083.639.372-.29.2-.554.357-.832.108.186.224.088.332.258-.219.7-.492.862-.71,1.481a1.8,1.8,0,0,0-1.06-.861C120.829,470.02,121.229,469.616,121.7,469.674ZM111.32,456.851c-.115.38-.345.489-.616.312A1.609,1.609,0,0,1,111.32,456.851ZM98.457,440.2c-.125.192.171.347-.011.545C98.122,440.892,98.138,440.085,98.457,440.2Zm4.786,4.833-.558.768c-.088-.105-.18,0-.268-.159C102.359,445.245,102.929,444.809,103.243,445.035ZM111.858,457c.173.2.34.091.193.443-.131-.171-.273.149-.4-.158Zm-11.327-15.262c.135-.021.4.346.19.616C100.548,442.158,100.388,441.96,100.531,441.737Zm11.4,14.985C112.048,456.594,112.154,456.9,111.932,456.722ZM98.4,436.4c-.132.406.277.147.206-.11.176.195.1.414.054.63-.305-.067-.245.181-.68.063C98.078,436.687,98.2,436.449,98.4,436.4Zm27.885,33.621c-.188.334-.362.043-.54.024Q126.025,469.543,126.283,470.02ZM117.4,457.393c.306.259-.083.787-.281.38C117.314,457.521,117.149,457.435,117.4,457.393Zm12.319,12.935c-.3.125-.592.27-.876-.054C129.127,470.026,129.664,469.828,129.718,470.328Zm-25.3-32.907c-.139-.131-.622-.135-.533-.505C104.036,436.752,104.512,437.094,104.422,437.421Zm5.6,4.649c.216.441.447.219.667.494-.256.353-.494-.145-.757.512-.131-.246-.271-.011-.4-.333A2.014,2.014,0,0,0,110.023,442.07Zm-.718-4.3c-.257.334-.513.619-.759.511C108.8,437.953,109.063,437.449,109.305,437.774Zm5.655,7.979c-.165.276-.321.191-.473-.063C114.652,445.414,114.808,445.5,114.96,445.753ZM113,442.424c-.256.3-.508.479-.75.137C112.508,442.278,112.753,442.409,113,442.424Zm1.729,1.53c.354.339.728-.185,1.087-.065-.238.672-.657.431-1.165.521-.073.14-.041.33-.206.1A.974.974,0,0,1,114.73,443.954Zm-3.842-7.115c-.187.233-.366.176-.549.221.136-.313-.023-.6.157-.918C110.78,436.362,110.645,436.614,110.888,436.839Zm-1.1.445c-.1-.448-.27-.232-.532-.5.468-.128.849-1.153,1.1-.445C109.962,436.509,109.985,436.889,109.791,437.284Zm1.146.37c-.134-.366-.629.172-.536-.327.25-.03.5-.171.742.223-.134.159-.1.307.058.451a.6.6,0,0,1-.684.225C110.621,438.031,111.052,437.994,110.937,437.654Zm4.639,4.978c-.178-.176-.368.169-.54-.149C115.185,442.179,115.663,442.357,115.576,442.632Zm-.817.051c.2-.225-.2-.411.083-.64C115.138,442.187,115.018,442.8,114.76,442.683Zm1.523,1.629c.188-.341.367-.248.551-.4.172.376.356.26.536.332-.3.2-.165.2-.42.569-.113-.343-.2-.479-.474-.064A.732.732,0,0,1,116.283,444.313Zm18.991,25.326c.172.131.338-.1.331.265C135.416,470.285,135.082,469.923,135.274,469.639ZM111.56,437.163a.623.623,0,0,1-.606-.236C111.129,436.433,111.623,437,111.56,437.163Zm2.638.474c-.141-.107-.076.142-.211.285-.287-.063-.294-.6-.677-.14-.035.315.4.2.19.623-.269.024-.428-.128-.532-.512C113.346,437.355,114.073,437.084,114.2,437.637Zm4.082,5.376c.135.02.268.107.4.339C118.485,443.785,118.077,443.3,118.281,443.013Zm-3.065-5.346a.757.757,0,0,0-.145.373.575.575,0,0,1-.4-.34Q114.952,437.356,115.216,437.667Zm4.418,5.446c-.2.043-.422.636-.618.309C119.227,443.129,119.433,443.018,119.634,443.113Zm1.933,1.456c-.275.454-.352-.07-.487.475a.745.745,0,0,1-.194-.445C121.122,444.246,121.348,444.236,121.567,444.569Zm-1.49-.115c.262.369.552-.386.809.145A.412.412,0,0,1,120.077,444.453Zm-3.934-5.755c-.193.484-.364.078-.541-.148C115.791,438.231,115.963,438.638,116.143,438.7Zm4.433,4.737c-.189.374-.365.125-.547.2C120.037,443.22,120.386,443.12,120.576,443.436Zm.834-.763c-.362.4-.512.431-.566.931-.247.018-.161-.3-.258-.534.189-.336.367-.241.553-.386-.089-.091-.274-.031-.2-.263.416-.225.6.117.872.415-.075.154-.04.3-.214.461C121.329,443.1,121.5,442.881,121.41,442.673Zm.995.953a1.43,1.43,0,0,1-1.364.24C121.121,443.008,121.946,443.358,122.4,443.627ZM116,435.9c-.345.184-.68-.014-1.019-.03C115.33,435.651,115.674,435.53,116,435.9Zm1.976,2.6c-.03.242-.064.7-.351.474C117.634,438.865,117.808,438.32,117.981,438.5Zm-.427-2.06c.372.191-.28.441-.083.64.176.175.372-.4.544-.033-.372.444-.732.285-1.092.248C117.02,436.892,117.387,437.04,117.554,436.438Zm5.367,8.255c.455-.583.913.232.727.784C123.447,445.125,123.493,444.943,122.921,444.692Zm.1-1.182-.35.468c-.066-.12-.2-.232-.128-.357C122.691,443.883,122.872,443.013,123.017,443.51Zm-2.612-4.239c.2.2.024.424-.083.639-.088-.107-.18,0-.268-.169Zm-1.1-2.029a.993.993,0,0,1-.093,1C118.9,437.936,119.046,437.3,119.3,437.242Zm3.4,5.284c.21-.428.542.063.535.339C122.893,443.3,122.995,442.79,122.7,442.525Zm-2.243-5.432c.111.161.22.253.334.256-.336.236-.4-.132-.623.481-.1-.565-.333-.091-.6-.425C119.871,437.051,120.154,437.476,120.459,437.094Zm1.882.825c-.416-.608-1.228.26-1.417-.393C121.321,437.549,122.415,436.933,122.341,437.919Zm-.409.017c-.137.188.09.359-.148.551-.112-.09-.226-.034-.334-.258C121.753,438.084,121.637,437.782,121.932,437.936Zm2.388-.376c.149.34.319-.088.47.25-.188.189-.371.316-.55.2C124.325,437.861,124.251,437.713,124.32,437.56Zm5.963,5.739c-.238.051-.941.484-.74-.25C129.739,443.432,130.311,442.912,130.283,443.3Zm-.193-.448c-.165.272-.317.054-.472-.077.185-.168.178-.777.357-.643C129.91,442.373,130.074,442.611,130.09,442.851Zm.226-.821c.34.245.021.9-.221.64C130.106,442.46,130.035,442.249,130.316,442.03Zm-2.678-4.161c.191.511.413-.176.606.245a1.394,1.394,0,0,1-1.026.316Zm2.7,3.437-.281.369-.2-.268C130.024,441.033,130.177,441.256,130.334,441.306Zm1.176,1.78c.361-.468.295.295.67.346A.445.445,0,0,1,131.51,443.086Zm.871.433.262.354c-.15.33-.636.464-.543.016C132.274,444.093,132.357,443.6,132.381,443.518Zm-.837-1.7c.3.5.633.061.942.339-.188.371.044.669-.362.825-.318-.233-.063-.481-.117-.721-.206.115-.407,0-.618.287C131.151,442.31,131.329,442.063,131.544,441.817Zm-2.348-3.744c-.234.306-.471.7-.689.393C128.738,438.31,128.977,437.794,129.2,438.073Zm4.9,7.212-.282.37-.2-.266C133.785,445.122,133.946,445.023,134.1,445.284Zm2.095-2.228c.117-.081.228-.074.337.081-.5.487-.734-.647-1-.79l-.351.463a1.292,1.292,0,0,0-1.555-.231,1.546,1.546,0,0,1-.432.918c-.018-.7-.259.25-.538-.168a4.921,4.921,0,0,0,1.055-1.389c.42.791,1.219-.121,1.771-.226-.067.184-.44.373-.287.551.256-.266.5-.172.76-.472-.088-.091-.274-.037-.2-.268.245.3.864-.313.875.249-.328-.235-.854.474-.568.922.05-.66.934-.317.95-.026C136.767,442.658,136.04,442.41,136.194,443.056Zm.3-.915c0-.2.3-.458.488-.465-.131.292.305.065.4.352C137.073,442.357,136.783,442.2,136.49,442.141Zm-7.3-3.886a1.307,1.307,0,0,1,1.018.063C129.884,438.508,129.282,438.758,129.192,438.255Zm2.7,3.1c-.133-.1-.277.215-.4-.171C131.6,440.708,132.024,441.115,131.895,441.354Zm1.283.238c-.17.258-.682.406-.609-.073C132.77,441.661,132.979,441.449,133.178,441.592Zm-2.355-3.382c-.006.27-.358.487-.549.2C130.464,438.073,130.643,438.137,130.823,438.209Zm4.187,3.428c-.167.077-.683.424-.609-.075C134.6,441.657,134.814,441.381,135.011,441.637Zm-1.215-2.782c-.167.27-.327.369-.478.105C133.483,438.693,133.644,438.595,133.8,438.855Zm3.974,3.707c.18.033.362-.048.542-.014-.229.32-.242.666-.559.556C137.88,442.921,137.585,442.747,137.769,442.562Zm1.4.778c.109.161.22.256.333.262l-.141.186c.036.058.067.12-.006.181-.366-.4-.1.394-.286.552-.155-.13-.319.1-.468-.259C138.932,443.951,138.942,443.649,139.172,443.341Zm-.769-1.611c.084.148.266.293.191.448-.312-.161-.644.377-.947-.158C138,441.726,138.189,442.12,138.4,441.73ZM157.869,468.8c.236.246.057.485-.157.724a.4.4,0,0,0-.265-.184C157.448,469.1,157.69,468.792,157.869,468.8Zm-11.821-16.729c.232-.192.455-.111.673.176-.218.333-.25,1.02-.628.639C146.3,452.517,146.451,452.213,146.048,452.072Zm-5.322-8.481c-.259.01-.312-.3-.257-.542a.967.967,0,0,1-1.549-.425,1.351,1.351,0,0,0,1.635-.209.865.865,0,0,0,.116.726c.035-.391.059-.423.353-.455.149.148.034.3.054.451.153-.491.153-.158.414-.185-.187-.373.236-.46.412-.184,0,.312-.294.226-.495.639C140.942,443.309,140.916,443.043,140.727,443.591Zm-4.95-7.686c.349.366.627-.512.831-.566.279.458-.141.408-.3.915-.126-.361-.274.048-.414.192A.427.427,0,0,1,135.777,435.905Zm4.86,6.055a4.826,4.826,0,0,0,.876.265.837.837,0,0,1-.619.278C141.021,442.36,140.343,442.445,140.636,441.96Zm-2.452-4.667c0,.241-.306.709-.488.465C137.858,437.647,138.032,437.108,138.184,437.293Zm-.358-1.8c-.168.346-.318.117-.488.465.173.212.34.1.192.447-.2-.11-.767.094-.736-.434C137.089,435.695,137.4,435.2,137.826,435.49Zm4.415,7.364c.11.43.586-.252.468.269C142.516,443.225,142.024,443.409,142.24,442.854Zm-1.331-3.343c-.276.137-.546.081-.821.188C140.116,439.446,140.9,439.063,140.909,439.511Zm-2.422-3.316a.744.744,0,0,0-.146.369c-.159-.176-.671-.063-.6-.438C137.983,436.382,138.248,435.813,138.487,436.2Zm6.611,6.456a4.819,4.819,0,0,1-1.64.376c.094.211.255.421.049.635-.064-.767-.283-.185-.663-.539.259-.36.46-.366.368-1C143.638,443.119,144.457,442.275,145.1,442.652Zm17.166,26.113c-.22-.147-.464.4-.676-.009C161.778,468.613,162.317,468.333,162.265,468.765Zm-11.4-16.815c.129.29.263.293.408,0,.252.558-.468,1.2-.841.9A.958.958,0,0,0,150.864,451.95Zm-11.021-15.6c-.414.216-.816,0-1.225.029l.212-.279C139.162,436.331,139.509,436.107,139.842,436.347Zm6.324,9.288c-.273-.028-.906.149-.94-.356C145.494,445.5,146.136,445,146.167,445.634Zm-.626-1.807c.35.391.722.043,1.076.354a.9.9,0,0,1-1.288-.08C145.449,444.217,145.527,443.964,145.541,443.827Zm-5.15-7.664c-.115.149.143.3.056.451-.176-.185-.367.149-.538-.178C140.074,436.2,140.237,435.978,140.391,436.163Zm1.285.26c-.237.366-.463.33-.685.188C141.219,436.512,141.454,436.211,141.675,436.423Zm3.967,6.224c.4-.423.462.026.734.45a.824.824,0,0,0-.218.451l-.13-.179C146.167,442.927,145.979,442.773,145.642,442.648Zm-4.612-7.488c.36.105.734-.3,1.083.174-.358.09-.258.682-.564.729-.365-.186.029-.835-.252-.723-.106.212.059.423-.221.636C140.889,435.7,140.993,435.432,141.03,435.16Zm1.6,1.257a.925.925,0,0,1-.287.547c-.17-.434-.361-.033-.534-.36l.141-.181C142.142,436.775,142.29,436.331,142.627,436.416Zm5.32,6.395c-.319-.011-1.225.86-1.088.009C147.21,443.205,147.6,442.384,147.946,442.811Zm1.994,1.434c-.186.184-.37.3-.548.186A.3.3,0,0,1,149.94,444.246Zm.1-1c-.412-.2-1.463.505-1.412-.443C149.042,443.268,149.848,442.713,150.037,443.25Zm2.309,2.281c-.191.326-.37.253-.548.175A.311.311,0,0,1,152.346,445.531Zm-.435-1.363c.361.771.765.142,1.142.465-.241.559-.985.09-1.429.074C151.82,444.527,151.658,444.345,151.911,444.167Zm.147-.361c.386.491.456-.682.891-.263-.377.309-.195.222-.359.632C152.39,444.2,151.841,444.311,152.058,443.806Zm2.3.208c-.215.366-.42.386-.62.265C153.76,443.945,154.163,443.548,154.361,444.014Zm-4.348-6.839c-.241.487-.459.208-.685.188C149.558,437.263,149.793,436.963,150.013,437.175Zm-.125-.362c-.149.28-.631.2-.538-.178C149.524,436.862,149.722,436.341,149.888,436.813Zm.99,1c-.121.179.177.364.12.545-.167.262-.328.353-.479.085C150.742,438.282,150.522,437.669,150.878,437.809Zm-.011-1.9c-.034.145-.306.444-.229.814.165-.184.317.037.468.276-.348.24-.7.787-1.033.451C150.6,437.005,150.236,435.477,150.867,435.905Zm5.958,9.678c-.133.4-.586.25-.472-.1C156.507,445.626,156.678,445.21,156.825,445.583Zm-4.979-8.307c-.166.262-.328.354-.479.085C151.534,437.1,151.7,437.01,151.847,437.276Zm4.226,6.305c.322-.083.924-.209,1.011.285.253-.3.706.2.759-.445l.26.366c-.186.341-.341.105-.353.45-.383-.233-.585-.241-.689.354-.286-.185-.047-.364-.119-.546l-.354.45C156.265,443.968,156.609,443.7,156.072,443.581Zm2.427.572c.363.544-.476.925-.7.535.085-.151.012-.3.082-.452C158.329,444.177,158.18,444.893,158.5,444.153Zm.767-.626c.325.336-.027.664-.236.995-.108-.137-.23.156-.337-.094C158.957,443.826,159.084,444.193,159.266,443.527Zm1.631,2.1c-.209.168-.42.384-.613.083C160.5,445.4,160.7,445.391,160.9,445.632Zm18.857,22.189c.168-.176.682-.337.6.122-.171-.231-.416.1-.418.34A.809.809,0,0,1,179.755,467.82Zm-15.146-23.543c.379.546-.682,1.194-.626.431C164.27,444.951,164.25,444.331,164.609,444.277ZM180.841,467.7c.369-.159,1.1-.454,1.21.245-.479-.295-.22.448-.431.7-.244-.343-.138-.672-.167-1.006C181.226,468.066,180.832,468.21,180.841,467.7Zm2.1.021c-.177-.088-.366.165-.541-.03C182.374,467.123,183.2,467.285,182.94,467.719Zm-18.3-30.784a.431.431,0,0,1-.68-.023C164.2,436.509,164.421,436.729,164.642,436.936Zm1.241-.505c.2-.7.325-.01.543.017-.162-.484.183-.811.308-1.079.321.4-.427.773-.107,1.175.076-.147.043-.3.219-.447.1,0,.519.322.39.558-.38-.322-1.86,1.316-1.5-.05-.274-.013-.916.377-.945-.209C164.965,436.048,165.739,435.967,165.883,436.431Zm.437-.892a1.22,1.22,0,0,1-1.028.239C165.64,435.521,165.991,435.227,166.321,435.538Zm21.123,31c.283.258.955-.5,1,.181C188.132,466.642,187.52,467.237,187.443,466.541Zm-19.887-31.327c.085.154.265.312.19.46-.33-.29-.477-.2-.621.252C166.927,435.406,167.3,435.376,167.556,435.214Zm1.259,1.039c.146.351.324-.192.467.286C169.085,436.732,168.6,436.616,168.815,436.253Zm-.478-2.011c.168.186.227.37.117.548-.087-.1-.172-.279-.265-.189-.07.048-.142.172-.207.082ZM190.8,466.66c-.075.145-.045.3-.218.434-.142-.378-.307-.164-.458-.313C190.353,466.532,190.584,466.346,190.8,466.66Zm-19.526-30.512c-.05.178.294.211.33.283.087-.148.014-.3.083-.45.36-.067.465.433.177.82-.361-.093-.727.006-1.081-.215C171.047,436.395,171.146,436.149,171.269,436.149Zm20.7,31.343-.253-.384C191.939,466.706,192.291,467.243,191.97,467.492Zm-18.946-30.923c.208-.144.415-.2.608.109-.214.3-.416.228-.614.073C173.057,436.691,173.091,436.63,173.024,436.569Zm21.965,29.837c.151.152.313.07.46.327-.1.1.043.648-.221.427.147-.221-.005-.457-.191-.3a.851.851,0,0,1-.023.544c-.127-.2-.274.1-.4-.231C194.965,466.945,194.642,466.633,194.989,466.406Zm-19.9-30.656c.291.193.955-.122,1.011.326-.2-.141-.411.067-.615.055.106.2.222.112.33.292-.194.152-.491.256-.5.608A4.965,4.965,0,0,1,175.093,435.75Zm21.243,30.822c-.109.2-.043.417-.23.6C195.958,466.905,196.021,466.264,196.335,466.572Zm-19.83-30.294a1.2,1.2,0,0,1,.163,1.187.431.431,0,0,0-.265-.2C176.564,436.946,176.153,436.591,176.505,436.278ZM196.921,467.1c-.168.242-.328.317-.475.031C196.614,466.888,196.775,466.813,196.921,467.1ZM177.4,436.055c-.366.08-.734.209-1.089-.06.39-.078.473-.242.758-.231a.236.236,0,0,0,.059.275C177.221,435.945,177.313,435.861,177.4,436.055Zm.531.39c-.084.147.061.306.051.455a.851.851,0,0,1-1.158.03c.225-.231.073-.481.3-.71C177.387,436.386,177.664,436.248,177.93,436.445Zm20.7,30.229c-.256.24-.447.49-.372.77-.191-.26-.405,0-.6-.164.4-.542-.18-.374.031-.721C197.987,466.938,198.324,466.478,198.63,466.673Zm-20.191-31.2c.138.159.063.306.189.464.072-.087.032-.179.077-.269.288.229.114.43-.09.63-.087-.1-.171-.282-.265-.2.063.124-.042.239-.148.354l-.194-.282C178.384,435.8,178.318,435.914,178.44,435.474Zm.908,1.318c.234-.213.452.041.68.037C179.784,437.269,179.348,437.331,179.348,436.792Zm1.521-.643c.206-.06.418-.266.615-.058-.2.423-.367.083-.551.152.035.092.126.188.059.276A.7.7,0,0,1,180.868,436.149Zm1.54.717c-.219-.2-.458.128-.673-.218C181.93,436.416,182.464,436.429,182.409,436.866Zm-.142.174c.066.056.135.037.206-.08.168.189.228.376.117.551-.109-.114-.226-.016-.336-.109C182.346,437.286,182.205,437.158,182.266,437.04Zm1.56.174a.739.739,0,0,1-1.093.124C183.109,436.953,183.457,437.374,183.826,437.213Zm.24-.985c-.154.626-.579.521-.9.406C183.475,436.246,183.78,435.971,184.066,436.228Zm1.656,1.268c.064.155.022.3.187.463-.307.323-.607.487-.887.044C185.376,437.982,185.706,437.738,185.722,437.5Zm4.086-1.032c-.171.242.211.051.259.386-.133.279-.583-.054-.47-.312C189.739,436.7,189.681,436.344,189.808,436.465Zm28.077,2.7c.175.169.36.1.526.454a1,1,0,0,1-.84.4l-.19-.3C217.772,439.578,217.709,439.648,217.885,439.166ZM220.1,440c-.276-.488-.7.209-.588-.556C219.667,439.685,220.185,439.528,220.1,440Zm25.469,30.734c-.654.525.656.295-.054,1.079-.213-.431-.146-.451-.451-.541C245.131,471.031,245.267,470.407,245.57,470.736Zm-.73.948c-.086-.11-.167-.306-.263-.233-.105.171.008.839-.306.669-.043-.219.134-.4-.036-.643.366-.017.357-.781.721-.768C245.02,471.052,245.146,471.409,244.841,471.684Zm-18.054-31.42c.217-.219.413-.054.615.021-.009.312-.3.171-.5.545C226.671,440.608,226.912,440.47,226.787,440.264Zm19.8,30.577c.178.336.045.612.089.924-.17-.216-.378.3-.541-.1C246.348,471.237,246.386,471.305,246.589,470.841ZM228.2,440.792c-.324-.232-.264.384-.55.083C227.59,440.657,228.31,440.206,228.2,440.792Zm18.59,30.179c.146-.186.28-.161.405.075-.083.209-.153.354-.289.309C246.977,471.248,246.882,471.109,246.787,470.971Zm1.4-29.248c-.233-.332-.511.2-.748-.056C247.666,441.226,248.224,441.262,248.183,441.723Zm1.093.028c-.337-.1-.687.064-1.011-.287C248.621,441.166,248.961,441.213,249.276,441.751Zm.5-.359-.289.307-.189-.307C249.471,441.055,249.618,441.308,249.773,441.392ZM271,459.628c.205.343.036.613-.181.87-.331.176-.806.061-1.317.367-.064-.134-.192-.282-.118-.388A4.282,4.282,0,0,1,271,459.628Zm1.832.285a.747.747,0,0,1,.107.566c-.457,0-.924.233-1.371.083C271.99,460.284,272.405,460.189,272.83,459.913ZM262.2,441.855c-.068.344-.589.621-.841.376C261.652,441.8,261.92,441.908,262.2,441.855Zm12.708,17.573c-.6.371-1.118.458-1.427,1.161l-.252-.414C273.639,460.057,274.154,458.949,274.905,459.427Zm-7.822-19.5a.447.447,0,0,1,.353-.2c.328.491-.262.8.206,1.314-.253.027-.522.4-.749-.06C267.335,441.084,267.484,440.493,267.083,439.931ZM279.9,460.648c.19.28-.046.475-.035.72-.151-.167-.321.028-.46-.367C279.574,460.819,279.726,460.954,279.9,460.648Zm-2.4-7.856c.187.147.342-.467.443-.635.281.238.04.371.107.566.071-.034.136,0,.2.132-.342.031-.63-.105-.506.531C277.581,453.36,277.478,453.026,277.5,452.792Zm-2.335-9.116c-.144-.294-.33.212-.47-.186A.254.254,0,1,1,275.169,443.676Zm1.9.393c-.353.218-.706.414-1.029.06C276.375,444.162,276.742,443.7,277.065,444.069Zm1.344.463c-.189.141-.38.287-.542-.114Q278.156,444.147,278.409,444.532Zm-.042-1.827c.164.325.234.339.271.057.293.356-.326.612-.425.276A.612.612,0,0,0,278.367,442.7Zm9.864,5.693a.481.481,0,0,1-.57.424C287.673,448.577,288.047,448.1,288.232,448.4Z" transform="translate(-77.442 -433.492)"></path></svg>