<svg xmlns="http://www.w3.org/2000/svg" width="48" height="48" viewBox="0 0 48 48"><g id="build-sms-icon" transform="translate(-98 -3283.463)" opacity="0.551"><g id="Group_106" data-name="Group 106" transform="translate(98 3283.961)" opacity="0.54"><circle id="Ellipse_16" data-name="Ellipse 16" cx="24" cy="24" r="24" transform="translate(0 -0.498)" fill="#405e73"></circle><g id="Group_103" data-name="Group 103" transform="translate(11.729 13.723)"><g id="Speech_Bubble_48_" transform="translate(0 0)"><g id="Group_5" data-name="Group 5"><path id="Path_18" data-name="Path 18" d="M3.415,51.2H1.753l1.175-1.175a3.977,3.977,0,0,0,1.136-2.352A8.383,8.383,0,0,1,0,40.609c0-4.99,4.586-10.061,11.769-10.061,7.609,0,11.689,4.666,11.689,9.624,0,4.99-4.123,9.653-11.689,9.653a15.855,15.855,0,0,1-3.943-.5A6.16,6.16,0,0,1,3.415,51.2Z" transform="translate(0 -30.548)" fill="#fff"></path></g></g><text id="SMS" transform="translate(3.774 12.838)" fill="#405e73" font-size="7" font-family="Lato-Bold, Lato" font-weight="700"><tspan x="0" y="0">SMS</tspan></text></g></g></g></svg>