<svg xmlns="http://www.w3.org/2000/svg" width="179.566" height="129.436" viewBox="0 0 179.566 129.436"><defs><style>.a{fill:#f28f84;}.b{fill:#e4d1a0;}.c{fill:#92acac;}.d{fill:#fff;font-size:14px;font-family:ProximaNova-Bold, Proxima Nova;font-weight:700;}</style></defs><g transform="translate(-256.827 -1067.771)"><g transform="translate(0 1)"><path d="M-6245.874-2174.053c1.726.415,14.015,11.47,14.86,12.215s8.815,14.99,8.815,14.99l-4.087,4.446-4.729,4.26-1.164,12.081s4.446,13.415,5,13.671,8.454,7.287,9.324,7.306,10.327.82,10.327.82,6.79-1.213,7.094-1.815,0-4.469,0-4.469l1.277-2.875s7.865-1.337,8.708-1.12,6.972,4,6.972,4l7.044,10.917v10.109s-2.356,9.328-2.956,9.487-4.408,2.127-7.117,2.772a64.649,64.649,0,0,1-7.967.977l-11.092-.977-17.619-10.632-21.787-22.653-9.331-26.247v-18.034l5.442-16.837Z" transform="translate(6514 3261)"/><path d="M27.089,108.136c-.322,1.744-.977,3.347-.887,4.906a38.6,38.6,0,0,0,1.259,6.859,23.289,23.289,0,0,0,1.6,4.48,9.406,9.406,0,0,0,1.991,3.054A38.062,38.062,0,0,1,37.26,134.5a4.816,4.816,0,0,0,2.207,1.589,18.17,18.17,0,0,0,8.451,1.325,22.05,22.05,0,0,0,6.577-1.586,1.664,1.664,0,0,0,.807-1.905,31.714,31.714,0,0,1-.508-3.328,2.158,2.158,0,0,1,1.36-2.187,8.159,8.159,0,0,1,4.3-1.3c.807.036,1.643-.352,2.438-.27a29.035,29.035,0,0,1,12.971,4.056,27.5,27.5,0,0,1,6,4.864,18.678,18.678,0,0,1,4.241,7.084,10.064,10.064,0,0,1,.566,2.832,9.837,9.837,0,0,0,.342,1.942,7.231,7.231,0,0,1,.266,1.011c.041.749-.023,1.5.019,2.252.152,2.7-1.164,4.848-2.554,6.995a24.626,24.626,0,0,1-3.775,4.705,20.722,20.722,0,0,1-5.344,3.8c-2.209,1.022-4.395,2.175-6.936,2.312-1.528.082-3.054.63-4.559.553a31.386,31.386,0,0,1-4.1-.5,30.349,30.349,0,0,1-4.062-.726c-.846-.279-1.681-.6-2.5-.964-2.63-1.162-5.287-2.275-7.861-3.553-2.055-1.02-4.019-2.228-6-3.4-1.471-.87-2.938-1.757-4.335-2.738-1.47-1.032-2.858-2.181-4.276-3.286q-2.253-1.756-4.491-3.531a10.051,10.051,0,0,1-.8-.792c-1.669-1.669-3.356-3.321-5-5.011a64.188,64.188,0,0,1-6.87-8.407c-1.548-2.245-2.98-4.537-4.3-6.919A96.359,96.359,0,0,1,4.479,118a82.607,82.607,0,0,1-2.774-8.82c-.583-2.156-.643-4.449-1.029-6.665A45.7,45.7,0,0,1,.088,91.833a35.847,35.847,0,0,1,1.435-8.882,49.7,49.7,0,0,1,3.541-8.677,2.316,2.316,0,0,0,.125-1.07,5.175,5.175,0,0,1,2.548-4.343,8.288,8.288,0,0,1,4.8-1.534,10.152,10.152,0,0,1,5.1,1.586,33.552,33.552,0,0,1,7.875,6.968,49.835,49.835,0,0,1,7.691,12.248c1.13,2.483,2.366,4.925,3.334,7.469a10.381,10.381,0,0,1,.9,4,2.155,2.155,0,0,1-1.344,2.087,14.95,14.95,0,0,1-5.118,1.637,1.8,1.8,0,0,0-1.667,1.066c-.621,1.256-1.468,2.4-2.219,3.753M18.235,75.617a24.141,24.141,0,0,0-4.275-3.667c-1.918-1.168-2.351-1.169-3.573.576-.052.074.007.227-.046.3A26.147,26.147,0,0,0,7.63,78.143,33.865,33.865,0,0,0,4.62,89.751a61.771,61.771,0,0,0,.162,9.854c.222,2,.548,3.995.748,6a15.859,15.859,0,0,0,.484,2.533,66.125,66.125,0,0,0,2.713,8.856c1.068,2.508,1.992,5.08,3.106,7.567a43.909,43.909,0,0,0,2.612,4.872c1.338,2.2,2.735,4.361,4.216,6.461a48.539,48.539,0,0,0,3.173,3.841c1.5,1.72,2.943,3.5,4.584,5.08,2.11,2.025,4.358,3.914,6.613,5.78,1.656,1.37,3.394,2.646,5.145,3.895,2.02,1.44,4.041,2.892,6.16,4.177a48.187,48.187,0,0,0,6.59,3.51c2.615,1.073,5.384,1.773,8.091,2.619a5.432,5.432,0,0,0,1.475.313c1.877.037,3.756.018,5.634.012a4.172,4.172,0,0,0,1.1-.064,35.131,35.131,0,0,0,5.681-1.833,5.153,5.153,0,0,0,2.8-2.789c.519-1.287,1.118-2.544,1.594-3.847,1.083-2.963,2.395-5.884,1.948-9.177a12.819,12.819,0,0,0-.133-1.558,20.009,20.009,0,0,0-5.36-8.873c-1.649-1.675-3.53-3.12-5.281-4.7a2.61,2.61,0,0,0-2.02-1.018,23.541,23.541,0,0,1-2.48-.541,37.236,37.236,0,0,0-4.494-.026c-.719.037-.857.505-.68,1.278.115.5.076,1.036.169,1.544a5.075,5.075,0,0,0,.432,1.587c.68,1.2.693,1.475-.065,2.442a9.11,9.11,0,0,1-3.726,2.673,17.271,17.271,0,0,1-6.826,1.4c-1.5-.012-3.007.042-4.507-.018a12.487,12.487,0,0,1-2.9-.371,20.4,20.4,0,0,1-8.844-5.022,33.973,33.973,0,0,1-4.754-5.749,32.753,32.753,0,0,1-4.147-9.216,22.01,22.01,0,0,1-1.064-7.132c.123-1.94-.007-3.875.276-5.831a10.19,10.19,0,0,1,2.577-5.7,27.731,27.731,0,0,1,5.291-4.69,1,1,0,0,0,.537-1.2,10.761,10.761,0,0,0-.685-1.647c-1.79-3.232-3.664-6.419-5.394-9.682a45.423,45.423,0,0,0-6.939-9.748M82.147,145a9.089,9.089,0,0,1,.307,1.631c.021,2.526.222,5.077-.939,7.463a4.912,4.912,0,0,0-.322,1.306.424.424,0,0,0,.182.366.438.438,0,0,0,.407-.118c.672-1.323,1.347-2.647,1.959-4a2.461,2.461,0,0,0,.295-1.453c-.153-.6-.766-1.1-.876-1.7-.1-.57.648-1.152.029-1.852a1.816,1.816,0,0,1-.373-1.264c.162-1.5-.837-2.55-1.327-3.794-.052-.133-.29-.193-.441-.286-.048.176-.184.388-.13.522C81.306,142.783,81.733,143.729,82.147,145Z" transform="translate(256.827 1017.592)"/><path d="M718.995,42.633a3.575,3.575,0,0,1-2.916.271c-2.555-.467-4.5-1.819-5.122-4.534-.206-.9-.528-.994-1.407-.683a11.624,11.624,0,0,1-3.041.427c-2.046.142-4.112.1-6.139.368-1.967.261-3.99-.053-5.911.6a1.183,1.183,0,0,1-.32,0c-2.907.107-5.814.2-8.719.331-.978.045-1.951.2-2.925.313-.921.106-1.852-.184-2.784.28-.473.235-1.164,0-1.749.054-.444.041-.889.321-1.314.283-.8-.071-.807.345-.8.936.015,4.721-.209,9.457.087,14.159.187,2.969.152,5.925.228,8.886.02.778.216,1.173,1.07,1.17a49.855,49.855,0,0,0,7.621-.651,1.547,1.547,0,0,1,.482,0c2,.326,4-.11,6.012-.023,2.035.088,4.077.02,6.116.02,2.092,0,4.186.042,6.277-.012,2-.051,3.989-.205,5.983-.308.668-.034.975-.465,1.234-1.013a27.459,27.459,0,0,1,2-3.989,6.048,6.048,0,0,1,3.851-2.286c1.827-.388,3.711-.63,5.36.548a11.6,11.6,0,0,1,1.773,1.875c.122.138.25.412.192.546-.371.864.047,1.568.32,2.35a7.076,7.076,0,0,1-1.4,7.008,3.869,3.869,0,0,1-2.454,1.326,15.188,15.188,0,0,1-4.061-.168,7.555,7.555,0,0,1-4.559-3.24c-.5-.642-.956-.824-1.517-.68-2.62.673-5.307.4-7.943.671-4.63.475-9.255.077-13.875.288a62.334,62.334,0,0,0-7.45.685,30.845,30.845,0,0,1-3.579.262,1.314,1.314,0,0,0-1.432,1.45c-.015,2.522.021,5.044-.019,7.565a9.11,9.11,0,0,1-.247,2.946c-.22.649.238,1.5.246,2.26.034,3.38-.008,6.76.029,10.14a24.5,24.5,0,0,0,.309,2.764c.116.92-.263,1.882.3,2.778.145.231.047.632.018.952-.173,1.889.527,3.617.959,5.4a.892.892,0,0,0,.963.786,30.136,30.136,0,0,0,5.01.253c2.219-.27,4.483.047,6.664-.576a2.364,2.364,0,0,1,.642-.007c2.294.015,4.549-.428,6.819-.591,4.127-.3,8.277-.283,12.418-.359.6-.011,1.2.27,1.8.289a1.254,1.254,0,0,0,1.425-1.433c-.128-3.639,2.236-5.648,5.106-6.918,2.829-1.252,5.105.047,7.323,1.623a7.675,7.675,0,0,1,2.94,4.721,7.172,7.172,0,0,1-.962,5.819,20.874,20.874,0,0,1-1.609,2.222,6.55,6.55,0,0,1-5.785,1.48c-.636-.169-1.314-.182-1.946-.36a6.63,6.63,0,0,1-4.916-4.256c-.133-.387-.241-.8-.838-.633-2.39.67-4.9-.054-7.3.633a4.641,4.641,0,0,1-1.283.015,27.309,27.309,0,0,0-6.5.638,3.849,3.849,0,0,1-.642.008c-1.941.1-3.9.071-5.818.349-4.353.631-8.715.143-13.07.271a4.16,4.16,0,0,1-3.659-3.211,2.166,2.166,0,0,0-.323-.828A9.512,9.512,0,0,1,673,100.75a43.384,43.384,0,0,1-.365-5.17c-.674-12.559.022-25.135-.409-37.689-.2-5.756-.139-11.5-.2-17.254a39.478,39.478,0,0,1,.607-7.781,2.329,2.329,0,0,0,0-.321,70.95,70.95,0,0,1,.376-7.1,49.263,49.263,0,0,0,.258-5.991c.026-1.04-.375-1.464-1.438-1.6a8.756,8.756,0,0,1-6.655-4.078,5.1,5.1,0,0,1-.916-2.841c.01-.8-.008-1.61,0-2.414A8.4,8.4,0,0,1,669.106.59a5.242,5.242,0,0,1,3.721-.426,26.578,26.578,0,0,1,5.771,1.6,8.779,8.779,0,0,1,4.4,9.808,15.337,15.337,0,0,1-1.2,3.373,6.526,6.526,0,0,1-4.01,3.066c-1.115.346-1.284.626-1.291,1.815a51.036,51.036,0,0,1-.043,5.468c-.284,2.481-.114,4.969-.346,7.43a33.238,33.238,0,0,0-.248,3.414c.008.9.158.97,1.068.754a2.561,2.561,0,0,1,.462-.051c2.209-.109,4.432-.1,6.623-.354,2.64-.312,5.294-.1,7.912-.359,1.519-.149,3.043-.075,4.538-.28,2.641-.362,5.286-.514,7.944-.659a56.531,56.531,0,0,0,6.521-.941c1-.174,1.087-1.2,1.276-1.923.65-2.5,1.5-3.122,4.125-3.24,2.063-.092,3.91.419,5.084,2.049a10.055,10.055,0,0,1,2.086,5.235,5.559,5.559,0,0,1-1.114,4.377,5.451,5.451,0,0,1-3.389,1.89M668.606,11.079c.4.429.788.872,1.2,1.285.913.905,2.165.949,3.293,1.344,1.371.48,2.713.107,4.056.256.117.013.263-.135.379-.23a5.461,5.461,0,0,0,.624-7.915c-1.409-1.547-3.378-1.907-5.241-2.438a2.61,2.61,0,0,0-2.6.626c-.571.567-1.372,1.18-1.488,1.871-.278,1.651-1.183,3.3-.227,5.2M722.053,109.6a4.522,4.522,0,0,0,3.05-1.844,5.263,5.263,0,0,0,.682-4.618,4.257,4.257,0,0,0-2.742-2.8c-1.068-.387-1.923.421-2.729,1.031-.991.751-1.041,1.827-1.014,2.961.024,1.038-.533,1.344-1.342.865a13.223,13.223,0,0,0-1.228-.574c-.1.493-.242.982-.3,1.48a2.062,2.062,0,0,0,.7,1.794,6.278,6.278,0,0,0,4.922,1.706m-7.888-46.525a4.86,4.86,0,0,0-.3,1.467,3.665,3.665,0,0,0,1.709,2.78,4.986,4.986,0,0,0,3.79.849,2.65,2.65,0,0,0,2.035-1.308,3.461,3.461,0,0,0,.433-2.671c-.446-1.346-.693-2.814-1.744-3.936-.278-.3-.352-.629-.879-.576a6.5,6.5,0,0,0-5.049,3.394m.8-23.665a.9.9,0,0,1,.319,0c2.6,1.076,4.834-.4,4.661-3.114a3.98,3.98,0,0,0-.347-1.773c-.49-.8-.9-1.721-1.924-2.081a1.962,1.962,0,0,0-2.557,1.311,8.335,8.335,0,0,1-.678,1.963C713.571,37.277,713.593,37.849,714.97,39.413Z" transform="translate(-300.493 1074.08)"/><path d="M-6146.415-1795.536h10.76l7.029,7.267v7.984l-3.812,9.1-13.978,3.693-8.013-3.693-4.423-9.1v-6.413Z" transform="translate(6518 2865)"/><path class="a" d="M-6146.415-1795.536h10.76l7.029,7.267v7.984l-3.812,9.1-13.978,3.693-8.013-3.693-4.423-9.1v-6.413Z" transform="translate(6563 2886)"/><path class="b" d="M-6146.415-1795.536h10.76l7.029,7.267v7.984l-3.812,9.1-13.978,3.693-8.013-3.693-4.423-9.1v-6.413Z" transform="translate(6563 2924)"/><path class="c" d="M-6146.415-1795.536h10.76l7.029,7.267v7.984l-3.812,9.1-13.978,3.693-8.013-3.693-4.423-9.1v-6.413Z" transform="translate(6563 2962)"/><text class="d" transform="translate(370 1088)"><tspan x="0" y="0">2</tspan></text><text class="d" transform="translate(415 1109)"><tspan x="0" y="0">1</tspan></text><text class="d" transform="translate(415 1147)"><tspan x="0" y="0">2</tspan></text><text class="d" transform="translate(415 1185)"><tspan x="0" y="0">3</tspan></text><path d="M634.584,1117.287c1.246,2.722,1.1,5.553.8,8.259a14.249,14.249,0,0,1-2.723,6.405c-1.894,2.7-4.635,4.19-7.6,5.283a25.749,25.749,0,0,1-6.057,1.624,16.78,16.78,0,0,1-5.045.16,12.828,12.828,0,0,1-4.3-1.291,14.935,14.935,0,0,1-7.375-9.718,14.187,14.187,0,0,1,.778-8.6,17.873,17.873,0,0,1,7.568-9.124,24.071,24.071,0,0,1,6.778-3.052c3.938-.908,7.768-.728,11.148,1.547a14.7,14.7,0,0,1,4.048,4.381,14.555,14.555,0,0,1,1.986,4.121m-26.482.242c-.215.286-.453.558-.64.862a15.93,15.93,0,0,0-1.66,4.792,8.268,8.268,0,0,0,.21,4.826,13.888,13.888,0,0,0,3.219,5.092,6.64,6.64,0,0,0,4.508,2.256,25.876,25.876,0,0,0,5.508-.228,24.6,24.6,0,0,0,8.2-3.156,5.828,5.828,0,0,0,1.565-1.253c2.348-2.9,3.674-6.179,2.86-9.934a15.977,15.977,0,0,0-1.353-4.1c-.557-1.062-1.314-1.928-1.944-2.9a8.269,8.269,0,0,0-4.735-3.336c-1.48-.468-3.049-1.021-4.568.066-.218.156-.612.055-.922.094-2.055.261-4.006.755-5.433,2.426-.678.794-1.359,1.586-2.053,2.367-.131.148-.347.361-.49.337C609.151,1115.533,608.769,1116.584,608.1,1117.529Z" transform="translate(-244.199 -39.957)"/><path d="M634.584,1117.287c1.246,2.722,1.1,5.553.8,8.259a14.249,14.249,0,0,1-2.723,6.405c-1.894,2.7-4.635,4.19-7.6,5.283a25.749,25.749,0,0,1-6.057,1.624,16.78,16.78,0,0,1-5.045.16,12.828,12.828,0,0,1-4.3-1.291,14.935,14.935,0,0,1-7.375-9.718,14.187,14.187,0,0,1,.778-8.6,17.873,17.873,0,0,1,7.568-9.124,24.071,24.071,0,0,1,6.778-3.052c3.938-.908,7.768-.728,11.148,1.547a14.7,14.7,0,0,1,4.048,4.381,14.555,14.555,0,0,1,1.986,4.121m-26.482.242c-.215.286-.453.558-.64.862a15.93,15.93,0,0,0-1.66,4.792,8.268,8.268,0,0,0,.21,4.826,13.888,13.888,0,0,0,3.219,5.092,6.64,6.64,0,0,0,4.508,2.256,25.876,25.876,0,0,0,5.508-.228,24.6,24.6,0,0,0,8.2-3.156,5.828,5.828,0,0,0,1.565-1.253c2.348-2.9,3.674-6.179,2.86-9.934a15.977,15.977,0,0,0-1.353-4.1c-.557-1.062-1.314-1.928-1.944-2.9a8.269,8.269,0,0,0-4.735-3.336c-1.48-.468-3.049-1.021-4.568.066-.218.156-.612.055-.922.094-2.055.261-4.006.755-5.433,2.426-.678.794-1.359,1.586-2.053,2.367-.131.148-.347.361-.49.337C609.151,1115.533,608.769,1116.584,608.1,1117.529Z" transform="translate(-199.199 -18.957)"/><path d="M634.584,1117.287c1.246,2.722,1.1,5.553.8,8.259a14.249,14.249,0,0,1-2.723,6.405c-1.894,2.7-4.635,4.19-7.6,5.283a25.749,25.749,0,0,1-6.057,1.624,16.78,16.78,0,0,1-5.045.16,12.828,12.828,0,0,1-4.3-1.291,14.935,14.935,0,0,1-7.375-9.718,14.187,14.187,0,0,1,.778-8.6,17.873,17.873,0,0,1,7.568-9.124,24.071,24.071,0,0,1,6.778-3.052c3.938-.908,7.768-.728,11.148,1.547a14.7,14.7,0,0,1,4.048,4.381,14.555,14.555,0,0,1,1.986,4.121m-26.482.242c-.215.286-.453.558-.64.862a15.93,15.93,0,0,0-1.66,4.792,8.268,8.268,0,0,0,.21,4.826,13.888,13.888,0,0,0,3.219,5.092,6.64,6.64,0,0,0,4.508,2.256,25.876,25.876,0,0,0,5.508-.228,24.6,24.6,0,0,0,8.2-3.156,5.828,5.828,0,0,0,1.565-1.253c2.348-2.9,3.674-6.179,2.86-9.934a15.977,15.977,0,0,0-1.353-4.1c-.557-1.062-1.314-1.928-1.944-2.9a8.269,8.269,0,0,0-4.735-3.336c-1.48-.468-3.049-1.021-4.568.066-.218.156-.612.055-.922.094-2.055.261-4.006.755-5.433,2.426-.678.794-1.359,1.586-2.053,2.367-.131.148-.347.361-.49.337C609.151,1115.533,608.769,1116.584,608.1,1117.529Z" transform="translate(-199.199 19.043)"/><path d="M634.584,1117.287c1.246,2.722,1.1,5.553.8,8.259a14.249,14.249,0,0,1-2.723,6.405c-1.894,2.7-4.635,4.19-7.6,5.283a25.749,25.749,0,0,1-6.057,1.624,16.78,16.78,0,0,1-5.045.16,12.828,12.828,0,0,1-4.3-1.291,14.935,14.935,0,0,1-7.375-9.718,14.187,14.187,0,0,1,.778-8.6,17.873,17.873,0,0,1,7.568-9.124,24.071,24.071,0,0,1,6.778-3.052c3.938-.908,7.768-.728,11.148,1.547a14.7,14.7,0,0,1,4.048,4.381,14.555,14.555,0,0,1,1.986,4.121m-26.482.242c-.215.286-.453.558-.64.862a15.93,15.93,0,0,0-1.66,4.792,8.268,8.268,0,0,0,.21,4.826,13.888,13.888,0,0,0,3.219,5.092,6.64,6.64,0,0,0,4.508,2.256,25.876,25.876,0,0,0,5.508-.228,24.6,24.6,0,0,0,8.2-3.156,5.828,5.828,0,0,0,1.565-1.253c2.348-2.9,3.674-6.179,2.86-9.934a15.977,15.977,0,0,0-1.353-4.1c-.557-1.062-1.314-1.928-1.944-2.9a8.269,8.269,0,0,0-4.735-3.336c-1.48-.468-3.049-1.021-4.568.066-.218.156-.612.055-.922.094-2.055.261-4.006.755-5.433,2.426-.678.794-1.359,1.586-2.053,2.367-.131.148-.347.361-.49.337C609.151,1115.533,608.769,1116.584,608.1,1117.529Z" transform="translate(-199.199 57.043)"/></g></g></svg>