<svg xmlns="http://www.w3.org/2000/svg" width="59" height="59" viewBox="0 0 59 59">
  <g id="Group_17699" data-name="Group 17699" transform="translate(-661 -2181)">
    <g id="Rectangle_5482" data-name="Rectangle 5482" transform="translate(661 2181)" stroke="#151515" stroke-width="2">
      <rect width="59" height="59" rx="7" stroke="none"/>
      <rect x="1" y="1" width="57" height="57" rx="6" fill="none"/>
    </g>
    <g id="Group_17679" data-name="Group 17679">
      <g id="Group_17678" data-name="Group 17678" transform="translate(677 2196)">
        <path id="path72" d="M453.239,347.834c-.71-.636-3.552-2.729-9.944-2.767,0,0-7.515-.449-11.179,2.916-2.056,2.056-2.767,5.01-2.841,8.711s-.187,10.618,6.505,12.525V372.1s-.037,1.159.71,1.383c.935.3,1.458-.6,2.355-1.533.486-.523,1.159-1.271,1.645-1.869a25.435,25.435,0,0,0,8.487-.636c.935-.3,6.132-.972,6.991-7.889.9-7.178-.374-11.7-2.729-13.721Zm.785,13.16c-.71,5.8-4.935,6.169-5.72,6.393a24.3,24.3,0,0,1-7.29.636s-2.878,3.476-3.813,4.412a.573.573,0,0,1-.411.187c-.15-.037-.187-.224-.187-.486,0-.374.037-4.787.037-4.787-5.646-1.57-5.309-7.477-5.271-10.58.075-3.1.636-5.608,2.355-7.328,3.1-2.8,9.5-2.393,9.5-2.393,5.385.037,7.963,1.645,8.562,2.206,1.944,1.72,2.953,5.8,2.243,11.739Z" transform="translate(-429.259 -345.047)" fill="#fff"/>
        <path id="path74" d="M470.169,372.043A2.081,2.081,0,0,0,468,369.8" transform="translate(-453.516 -360.546)" fill="none" stroke="#fff" stroke-linecap="round" stroke-linejoin="round" stroke-width="0.93"/>
        <path id="path76" d="M471.223,369.39a4.555,4.555,0,0,0-1.159-3.29,4.877,4.877,0,0,0-3.365-1.5" transform="translate(-452.701 -357.293)" fill="none" stroke="#fff" stroke-linecap="round" stroke-linejoin="round" stroke-width="0.93"/>
        <path id="path78" d="M471.9,367.059a7.191,7.191,0,0,0-2.056-5.385,6.966,6.966,0,0,0-5.047-1.98" transform="translate(-451.512 -354.216)" fill="none" stroke="#fff" stroke-linecap="round" stroke-linejoin="round" stroke-width="0.93"/>
        <path id="path80" d="M453.86,371.272a1,1,0,0,0,.785-.3l.523-.673a1.178,1.178,0,0,1,1.5-.224,11.155,11.155,0,0,1,1.309.86c.411.3,1.234.972,1.234.972a1.022,1.022,0,0,1,.224,1.346,4.681,4.681,0,0,1-1.121,1.346,2.272,2.272,0,0,1-1.122.561h-.15a2.186,2.186,0,0,1-.486-.075,17.132,17.132,0,0,1-3.1-1.421,19.281,19.281,0,0,1-2.58-1.72,9.774,9.774,0,0,1-1.159-1.047l-.15-.15a13.953,13.953,0,0,1-1.047-1.159,19.273,19.273,0,0,1-1.72-2.58,15.072,15.072,0,0,1-1.421-3.1,1.894,1.894,0,0,1-.075-.486v-.15a2,2,0,0,1,.561-1.121,6.316,6.316,0,0,1,1.346-1.122,1.023,1.023,0,0,1,1.346.224s.673.823.972,1.234c.262.374.636.972.86,1.309a1.238,1.238,0,0,1-.187,1.5l-.673.523a1,1,0,0,0-.3.785,6.86,6.86,0,0,0,4.636,4.673Z" transform="translate(-439.301 -354.951)" fill="#fff"/>
      </g>
    </g>
  </g>
</svg>
