<svg xmlns="http://www.w3.org/2000/svg" width="179" height="279.425" viewBox="0 0 179 279.425"><defs><style>.a{fill:#f28f84;}.b{fill:#bae4e3;}.c{fill:#fad9e8;}</style></defs><g transform="translate(-898.977 -938.941)"><path class="a" d="M4690.51-1052.376l6.2-7.295,19.332-2.006,26.99.912s6.565,3.83,7.478,6.2a69.779,69.779,0,0,1,2.371,11.672c.182,2.188-1.277,33.374-2.371,37.021s-9.666,8.207-9.666,8.207-37.933.365-40.669,0-7.66-8.207-7.66-8.207Z" transform="translate(-3789.423 2064.256)"></path><path class="b" d="M4690.51-1052.376l6.2-7.295,19.332-2.006,26.99.912s6.565,3.83,7.478,6.2a69.779,69.779,0,0,1,2.371,11.672c.182,2.188-1.277,33.374-2.371,37.021s-9.666,8.207-9.666,8.207-37.933.365-40.669,0-7.66-8.207-7.66-8.207Z" transform="translate(-3676.113 2053.425)"></path><path class="c" d="M4690.51-1052.376l6.2-7.295,19.332-2.006,26.99.912s6.565,3.83,7.478,6.2a69.779,69.779,0,0,1,2.371,11.672c.182,2.188-1.277,33.374-2.371,37.021s-9.666,8.207-9.666,8.207-37.933.365-40.669,0-7.66-8.207-7.66-8.207Z" transform="translate(-3789.423 2153.404)"></path><g transform="translate(898.977 938.941)"><path d="M162.508,237.9c0,1.611.021,3.14-.005,4.667-.033,1.867-.084,3.733-.167,5.6-.084,1.9-.165,3.8-.34,5.7-.226,2.446-.494,4.89-.837,7.322a39.653,39.653,0,0,1-1.013,5.247,14.572,14.572,0,0,1-3.549,6.048,16.91,16.91,0,0,1-7.367,4.4,29.641,29.641,0,0,1-5,1.012,19.8,19.8,0,0,1-3.677.166c-1.215-.054-2.418-.342-3.633-.448a2.86,2.86,0,0,0-1.287.274,1.186,1.186,0,0,1-1.512-.213,2.134,2.134,0,0,0-1.326-.563c-2.416-.054-4.834-.047-7.251-.02-2.894.032-5.788.1-8.682.162q-3.591.075-7.182.168c-1.589.043-3.177.11-4.765.164-1.672.057-3.343.123-5.015.164-2.672.066-5.343.13-8.016.166-4.95.067-9.9.105-14.85.175-1.783.025-3.566.091-5.348.166-2.261.1-4.52.228-6.78.326-1.671.072-3.343.125-5.015.168-2.561.065-5.121.146-7.682.157a44.125,44.125,0,0,1-4.845-.187,2.879,2.879,0,0,0-2.457.451,2.3,2.3,0,0,1-1.547.229,33.857,33.857,0,0,1-6.611-1.124c-1.779-.563-3.626-.909-5.441-1.359a22.879,22.879,0,0,1-5.965-2.089,4.124,4.124,0,0,0-2.448-.769c-.695.05-.99-.633-1.064-1.159-.239-1.7-.377-3.413-.523-5.124-.184-2.152-.352-4.306-.492-6.461-.029-.444.153-.9.145-1.347-.036-2.255-.1-4.511-.16-6.765-.043-1.478-.111-2.954-.164-4.432-.058-1.644-.1-3.288-.17-4.932-.1-2.427-.232-4.853-.327-7.28-.075-1.921-.127-3.843-.168-5.765-.066-3.061-.108-6.122-.176-9.182a2.564,2.564,0,0,0-.2-1.322,1.714,1.714,0,0,0-1.194-.686,23.112,23.112,0,0,1-5.8-.715,10.5,10.5,0,0,1-4.732-2.848,13.009,13.009,0,0,1-3.326-4.119,17.08,17.08,0,0,1-1.4-5.084c-.2-2.29-.36-4.583-.5-6.877-.091-1.475-.11-2.954-.175-4.431-.1-2.371-.22-4.742-.332-7.113-.11-2.343-.229-4.686-.331-7.03-.069-1.588-.008-3.189-.189-4.763A118.633,118.633,0,0,1,1.333,163.5a4.906,4.906,0,0,1,.644-1.887A14.112,14.112,0,0,1,5.7,156.746c.83-.71,1.719-1.349,2.57-2.033.193-.155.468-.358.486-.558.095-1.082.943-1.283,1.719-1.416,1.418-.244,2.858-.363,4.29-.52,1.12-.123,2.253-.164,3.355-.373a1.27,1.27,0,0,0,.813-.882c.13-1.917.156-3.841.2-5.763.063-2.672.106-5.344.171-8.015.041-1.644.1-3.288.17-4.932.014-.34.137-.675.155-1.015.051-1.02-.254-1.258-1.226-1.345-1.333-.12-2.678-.092-4.013-.19a11.321,11.321,0,0,1-7.454-3.117A22.435,22.435,0,0,1,3.978,123.4a13.663,13.663,0,0,1-2.029-5.489,44.958,44.958,0,0,1-.66-7.978c.018-1.254-.1-2.51-.154-3.765Q.968,102.448.8,98.725C.691,96.27.572,93.816.47,91.362Q.368,88.9.3,86.43C.187,82.17.047,77.91,0,73.649A4.8,4.8,0,0,1,.65,71.6a13.154,13.154,0,0,1,3.242-4.408c.556-.461,1.151-.877,1.681-1.364.759-.7,1.741-1.124,2.15-2.246.3-.835,1.348-.867,2.117-1.026a27.177,27.177,0,0,1,3.274-.357c2.18-.179,4.365-.314,6.541-.532a1.2,1.2,0,0,0,.788-.678,4.309,4.309,0,0,0,.191-1.42c.069-2.088.1-4.177.178-6.265.089-2.316.2-4.632.332-6.946.089-1.622.226-3.242.327-4.863.12-1.926.253-3.852.328-5.78.088-2.254.157-4.51.162-6.765,0-1.838-.21-3.682-.128-5.514.117-2.608.334-5.218.668-7.806a42.262,42.262,0,0,1,1.164-5.681A10.032,10.032,0,0,1,27.114,4.8a.919.919,0,0,1,.545-.271C29.2,4.693,30.451,3.7,31.9,3.476c1.883-.291,3.741-.748,5.611-1.128Q40.36,1.769,43.208,1.2a3.254,3.254,0,0,1,.491-.024C46.3,1.068,48.9.968,51.507.842c1.927-.093,3.852-.236,5.78-.326,2.731-.127,5.464-.224,8.2-.339C66.6.131,67.715.022,68.832.02c7.14-.015,14.28-.04,21.42.008,3.066.02,6.131.2,9.2.32,1.228.046,2.454.114,3.682.164,2.76.114,5.52.232,8.28.331,1.949.07,3.9.123,5.849.168,2.755.064,5.511.105,8.266.172,1.617.039,3.233.1,4.848.166,2.51.1,5.02.223,7.53.33,1.449.062,2.9.049,4.347.183,2.13.2,4.319.1,6.333,1A16.451,16.451,0,0,1,151.1,4.22a5.386,5.386,0,0,0,2.232.753,4.849,4.849,0,0,1,3.285,2.782c1.083,2.009,2.021,4.1,2.9,6.213a47.9,47.9,0,0,1,2.05,5.731,16.048,16.048,0,0,1,.278,6.753c-.013.081.033.213-.007.243-1.27.966-.792,2.473-1.076,3.717a19.712,19.712,0,0,0-.244,3.989c-.034,1.861.033,3.724-.018,5.584-.072,2.622-.208,5.243-.329,7.863-.018.4-.121.786-.159,1.182-.122,1.284.243,1.791,1.858,1.823,1.416.028,2.835-.036,4.25.019a10.108,10.108,0,0,1,3.261.367c2.212.878,4.271,2.051,5.474,4.3a37.3,37.3,0,0,1,3.528,8.123,12.554,12.554,0,0,1,.447,2.56c.108,2.364.2,4.733.167,7.1-.034,2.678-.2,5.354-.317,8.03-.05,1.172-.121,2.343-.163,3.515-.065,1.81-.113,3.621-.169,5.432-.055,1.755-.117,3.51-.165,5.265-.061,2.227-.107,4.455-.17,6.682-.045,1.589-.112,3.177-.164,4.765a6.658,6.658,0,0,1-1.656,4.162,23.561,23.561,0,0,1-7.989,5.88,15.368,15.368,0,0,1-2.647,1.441,12.576,12.576,0,0,1-3.334.2c-.783-.008-1.055.262-1.06,1.048-.025,3.672-.11,7.344-.148,11.016-.025,2.361.053,4.725-.028,7.084a4.186,4.186,0,0,0,1.286,3.065A14.964,14.964,0,0,1,166,148.438a19.749,19.749,0,0,1,.475,3.708A33.453,33.453,0,0,1,165,161.108c-.628,2.069-1.27,4.138-2.016,6.166-.4,1.08-1.078,2.052-1.538,3.113a7.313,7.313,0,0,0-.739,2.431c-.1,2.106-.055,4.221-.03,6.333.036,2.978.1,5.955.165,8.932q.052,2.258.168,4.515a38.3,38.3,0,0,0,.383,5.269,25.658,25.658,0,0,0,1.519,3.859,68.909,68.909,0,0,1,2.544,7.19,28.025,28.025,0,0,1,.7,8.794,22.143,22.143,0,0,1-1.745,7.855,10.55,10.55,0,0,1-1.126,1.946,3.969,3.969,0,0,0-.818,2.8c.124,2.5.039,5.006.039,7.594m-76.935,11c3.092-.056,6.184-.162,9.276-.155,4.978.012,9.956.149,14.934.143,6.867-.008,13.734-.094,20.6-.157q7.509-.069,15.017-.169c2.005-.028,4.01-.107,6.015-.162.111,0,.259.044.325-.01.115-.094.284-.311.249-.371-.644-1.108-.05-2.261-.123-3.388a28.1,28.1,0,0,1,.14-3.346q.16-2.89.336-5.779c.029-.472-.187-.725-.622-.6a19.518,19.518,0,0,1-5.533.3,8.59,8.59,0,0,1-2.331-.39,19.32,19.32,0,0,1-6.611-3.133,18.129,18.129,0,0,1-5.024-5.64,22.507,22.507,0,0,1-3.053-12.738,17.643,17.643,0,0,1,.4-3.839,40.256,40.256,0,0,1,2.526-6.363,19.367,19.367,0,0,1,6.185-6.553c2.613-1.908,5.752-2.625,8.691-3.767a8.4,8.4,0,0,1,3.594-.058c.864.078,1.122,0,1.106-.871-.048-2.7-.117-5.4-.16-8.1-.022-1.361,0-2.723,0-4.084,0-.89-.384-1.179-1.239-.973a3.475,3.475,0,0,1-.577.019,15.584,15.584,0,0,1-5.365-.932,29.985,29.985,0,0,1-7.584-3.416,8.017,8.017,0,0,1-3.236-3.037c-.789-1.589-1.539-3.2-2.341-4.781A18.51,18.51,0,0,1,129,157.368a13.625,13.625,0,0,1,.168-1.68,28.113,28.113,0,0,1,.622-3.327,25.116,25.116,0,0,1,4.26-8.556,28.12,28.12,0,0,1,4.209-4.23c2.181-1.805,4.927-2.568,7.542-3.491,1.538-.543,3.22-.667,4.815-1.069.345-.087.6-.549.877-.858.055-.062.009-.215.008-.326q-.083-6.967-.166-13.933a.914.914,0,0,0-1.07-1.021c-1.589.052-3.176.133-4.765.161-3.866.069-7.733.167-11.6.152-2.4-.009-4.8-.176-7.2-.329a12.775,12.775,0,0,1-2.564-.442,10.281,10.281,0,0,1-4.292-2.483,13.5,13.5,0,0,1-3.556-4.264,16.181,16.181,0,0,1-1.479-5.143c-.173-2.024-.457-4.038-.646-6.06-.107-1.139-.126-2.287-.175-3.431q-.172-3.973-.335-7.947c-.055-1.311-.1-2.622-.17-3.931-.1-1.844-.253-3.685-.323-5.53-.136-3.593-.239-7.186-.335-10.78-.033-1.222.016-2.445-.01-3.667a9.239,9.239,0,0,1,1.137-5.293,19.751,19.751,0,0,1,4.545-5.042c.745-.613,1.762-.925,2.069-2.077.1-.393.827-.748,1.33-.883a18.537,18.537,0,0,1,3.037-.517q3.266-.309,6.543-.5c1.78-.1,3.565-.14,5.348-.172,3.783-.069,7.566-.117,11.35-.169.722-.01,1.445,0,2.167,0,.853,0,1.175-.313,1.15-1.186-.033-1.172-.119-2.343-.158-3.515-.066-1.977-.133-3.954-.164-5.932-.027-1.75-.039-3.5.009-5.25a12.089,12.089,0,0,1,.333-2.359c.174-.755.053-1.053-.682-1.09-1.476-.073-2.954-.126-4.432-.17-2.172-.064-4.344-.114-6.515-.169-2.255-.057-4.511-.1-6.765-.169-1.45-.042-2.9-.112-4.348-.163-1.7-.06-3.4-.123-5.1-.165q-3.924-.1-7.849-.168c-3.255-.061-6.511-.108-9.766-.169-2.644-.049-5.288-.119-7.932-.163-3.866-.064-7.733-.141-11.6-.164q-17.885-.1-35.77-.162c-4.116-.009-8.233.115-12.35.147-1.088.008-2.177-.157-3.265-.143a10.075,10.075,0,0,1-3.677-.594c-.875-.323-2.118.794-1.99,1.68.255,1.766.516,3.536.641,5.314.105,1.493.037,3,.019,4.5-.047,3.922-.122,7.844-.159,11.766-.025,2.667-.014,5.334,0,8,.005,1.038.321,1.344,1.345,1.318.534-.013,1.066-.157,1.6-.148,1.089.018,2.176.132,3.265.15,4.2.069,8.4.09,12.6.183,2.178.048,4.365.11,6.527.349a8.168,8.168,0,0,1,5.968,3.682,42.9,42.9,0,0,1,2.532,4.777,21.06,21.06,0,0,1,2.153,9.1c.043,1.586-.079,3.177-.153,4.764-.1,2.066-.24,4.13-.325,6.2-.13,3.176-.23,6.353-.337,9.53-.062,1.838-.121,3.677-.166,5.515q-.1,3.966-.165,7.932c-.02,1.194-.036,2.39,0,3.584a7.312,7.312,0,0,1-2.188,5.353,22.808,22.808,0,0,1-5.776,4.383,13.219,13.219,0,0,0-2.422,1.357,4.171,4.171,0,0,1-2.792,1.133c-4.172.085-8.344.117-12.516.181-2.95.045-5.9.109-8.849.164a1.328,1.328,0,0,0-.25,0c-1,.216-1.23.745-1.229,1.381q.015,9.71,0,19.42c0,.714.354,1.033,1.058,1.038,7.728.052,15.457.079,23.185.186a12.679,12.679,0,0,1,5.522.941,8.3,8.3,0,0,1,3.9,3.244c.92,1.609,1.751,3.271,2.563,4.938a18.426,18.426,0,0,1,1.94,8.025c.012,2.171-.078,4.344-.158,6.515-.088,2.4-.225,4.8-.326,7.2-.119,2.815-.238,5.631-.331,8.447-.077,2.338-.121,4.677-.17,7.015-.061,2.95-.087,5.9-.179,8.849a6.349,6.349,0,0,1-1.281,4.318,19.838,19.838,0,0,1-4.746,4.294c-1.579.954-3.128,1.959-4.737,2.859a4.789,4.789,0,0,1-2.047.658c-3.058.122-6.121.133-9.181.2-2.033.043-4.066.11-6.1.164q-3.216.086-6.432.165c-.806.019-1.156.329-1.138,1.119.042,1.811.151,3.621.155,5.432q.027,11.544.008,23.087a3.07,3.07,0,0,0,0,.5c.085.512.227.871.9.571a8.662,8.662,0,0,1,3.947-.537,1.576,1.576,0,0,0,.8-.078A6.306,6.306,0,0,1,40,249.03c2.633.265,5.293.319,7.942.36,2.032.031,4.065-.11,6.1-.146q5.758-.1,11.516-.167c6.617-.067,13.234-.114,20.018-.17M157.006,33.271c-.056-.839-.091-1.679-.171-2.515-.211-2.215-.333-4.446-.7-6.637a29.8,29.8,0,0,0-1.419-5.574,54.083,54.083,0,0,0-2.483-4.888,10.613,10.613,0,0,0-4.9-4.918c-.351-.175-.577-.619-.835-.958a4.853,4.853,0,0,0-2.877-2.239c-1.378-.232-2.792-.258-4.192-.358-1.676-.12-3.355-.206-5.029-.341-1.794-.144-3.584-.339-5.378-.492-2.1-.179-4.2-.342-6.294-.5-1.593-.121-3.186-.228-4.78-.334q-2.6-.173-5.2-.334c-1.843-.114-3.686-.242-5.53-.329-1.726-.081-3.454-.121-5.182-.171q-3.091-.09-6.182-.166c-2.672-.062-5.344-.167-8.016-.157-6.09.021-12.179.091-18.269.161-2.2.025-4.4.1-6.6.164-1.478.043-2.956.091-4.432.169-1.705.091-3.409.213-5.113.33q-2.307.158-4.613.333c-.672.05-1.345.092-2.014.169-1.854.212-3.71.416-5.558.673a15.444,15.444,0,0,0-3.474.664c-1.624.633-3.121,1.58-4.712,2.306a10.4,10.4,0,0,0-4.908,4.381,54.262,54.262,0,0,0-2.646,5.237,12.553,12.553,0,0,0-.844,3.393c-.212,1.72-.269,3.46-.354,5.194-.082,1.671-.114,3.343-.173,5.015-.052,1.477-.125,2.954-.163,4.432-.067,2.672-.107,5.344-.173,8.016-.042,1.7-.113,3.4-.163,5.1-.06,2.033-.132,4.066-.162,6.1q-.041,2.833,0,5.668a3.423,3.423,0,0,0,.281,1.62c.118.2.847.047,1.3.048,1.334,0,2.667.01,4-.01a1.744,1.744,0,0,0,.567-.23,5.689,5.689,0,0,0-.56-.418c-.083-.049-.22.006-.328-.01-.914-.133-1.14-.391-1.1-1.32.016-.34.149-.676.154-1.015.066-4.45.147-8.9.162-13.351.008-2.505-.1-5.011-.154-7.516-.011-.528.018-1.057-.006-1.583-.039-.839-.087-1.679-.166-2.515-.157-1.643-.712-3.348.833-4.69.089-.077.108-.231.172-.342A2.964,2.964,0,0,1,32.2,26.989a1.944,1.944,0,0,0,.488.029c5.45.057,10.9.124,16.351.165,8.785.066,17.569.107,26.354.172q8.884.065,17.768.169c2.145.025,4.288.107,6.433.162,2.227.057,4.455.122,6.683.164,3.422.065,6.845.108,10.267.171q3.842.07,7.683.167c1.922.047,3.844.117,5.766.163,2.672.063,5.344.1,8.016.174.756.02,1.509.121,2.265.158,2.4.119,4.8.242,7.2.329,1.175.042,2.354-.034,3.529.018a2.362,2.362,0,0,1,2.512,2.483c.009.561.1,1.121.16,1.681.22,2.048.547,4.09.64,6.143.112,2.468.041,4.945.019,7.417-.008.922-.132,1.843-.151,2.765-.017.827.354,1.168,1.162,1.171.361,0,.723-.008,1.084,0a.915.915,0,0,0,1.078-1.014c.007-1.538.024-3.076,0-4.613s-.1-3.066-.163-4.6c-.1-2.344-.22-4.687-.331-7.2M23.474,257.992c-.011,2.915.064,5.8,1.316,8.54a9.787,9.787,0,0,0,2.406,3.829,42.746,42.746,0,0,0,3.893,2.876,8.74,8.74,0,0,0,3.129,1.453,45.044,45.044,0,0,0,6.785.53c5.311.026,10.622-.127,15.934-.129,5.033,0,10.067.142,15.1.142,4.867,0,9.733-.116,14.6-.151,9.59-.068,19.18-.106,28.77-.175,3.672-.027,7.344-.111,11.016-.161,4.478-.061,8.956-.1,13.433-.172,2.311-.035,4.622-.088,6.932-.182a2.127,2.127,0,0,0,1.22-.439,20.6,20.6,0,0,0,2.916-2.762,31.918,31.918,0,0,0,4.425-7.91,30.141,30.141,0,0,1,2.209-4.825,5.437,5.437,0,0,0,.786-3.189q-.1-6.758-.167-13.517c-.024-2.834-.007-5.668,0-8.5,0-.431-.052-.855-.614-.636a13.842,13.842,0,0,0-2.219,1.07,1.449,1.449,0,0,0-.643.957c-.117,1.723-.168,3.452-.188,5.18-.028,2.389-.007,4.779-.007,7.168,0,.222-.011.445,0,.666a2.094,2.094,0,0,0,.1.9c.656,1.075.424,1.838-.779,2a54.847,54.847,0,0,1-6.473.65c-4.588.055-9.177-.113-13.766-.121-3.366-.006-6.733.091-10.1.158-1.811.036-3.621.109-5.432.163-1.95.058-3.9.117-5.849.166-2.45.061-4.9.111-7.349.169q-3.341.079-6.682.167c-1.866.05-3.732.114-5.6.165-2.2.06-4.4.133-6.6.164-4.894.069-9.789.11-14.684.173-3.672.047-7.344.117-11.016.163-5.061.063-10.122.148-15.184.157-3.505.006-7.011-.078-10.516-.168-1.012-.026-2.018-.239-3.03-.31a14.862,14.862,0,0,0-2.194,0c-1.106.086-1.548-.428-1.211-1.492.039-.123.067-.25.1-.373.284-.918.038-1.911-.637-2.061a1.208,1.208,0,0,1-.94-1.1,24.74,24.74,0,0,1-.5-4.039c-.038-2.393.08-4.788.142-7.182.048-1.866.139-3.732.158-5.6.027-2.722-.008-5.445.011-8.168s.243-2.7-2.677-2.67c-.861.008-1.171.307-1.159,1.182q.076,5.675.168,11.35c.035,1.922.106,3.844.163,5.765.054,1.811.107,3.621.168,5.432.049,1.45.116,2.9.164,4.349.062,1.866.13,3.732.163,5.6.027,1.528.005,3.056.005,4.751M42.228,154.55c-.81-.056-1.621-.159-2.43-.155-1.014.005-2.028.121-3.043.15-2.449.069-4.9.109-7.347.173-1.644.043-3.287.1-4.931.167-1.116.044-2.234.08-3.347.171-1.738.142-3.478.291-5.209.5A13.631,13.631,0,0,0,9.9,157.9c-1.515,1.028-2.941,2.193-4.359,3.354-.522.428-1.155.859-1.075,1.713.123,1.314.268,2.628.328,3.945.138,3.036.233,6.074.341,9.111.06,1.671.111,3.343.168,5.014.055,1.616.092,3.232.172,4.847.089,1.788.225,3.574.326,5.362.12,2.12.291,4.24.317,6.362.027,2.226-.032,4.457-.165,6.679a12.224,12.224,0,0,0,1.765,6.443,17.171,17.171,0,0,0,3.717,4.188,2.824,2.824,0,0,0,1.329.783,23.932,23.932,0,0,0,4.121.5c3.643.02,7.287-.077,10.93-.144,2.144-.039,4.287-.111,6.431-.163,2.477-.059,4.953-.141,7.431-.161,3.472-.028,6.945.03,10.415-.037a4.1,4.1,0,0,0,2.122-.664c2.135-1.462,4.178-3.058,6.287-4.56a4.1,4.1,0,0,0,1.863-3.739c-.044-3.424.183-6.851.285-10.277.068-2.282.105-4.565.172-6.847.038-1.311.1-2.621.164-3.931.109-2.4.207-4.8.338-7.195.083-1.511.284-3.018.313-4.529.052-2.7.038-5.408-.008-8.111a2.881,2.881,0,0,0-.488-1.37c-1.2-1.927-2.482-3.8-3.644-5.745a7.365,7.365,0,0,0-5.088-3.79,39.379,39.379,0,0,0-5.68-.38c-2.109-.059-4.222-.014-6.5-.014M59.983,71.28c-.556-.909-1.1-1.826-1.67-2.725a7.009,7.009,0,0,0-4.718-3.486,40.418,40.418,0,0,0-6.454-.515c-6.589-.015-13.179.079-19.768.147-1.311.014-2.622.1-3.932.163-2.038.1-4.085.137-6.11.357a36.151,36.151,0,0,0-5.03.926,12.3,12.3,0,0,0-4.511,2.381C6.406,69.616,5,70.672,3.652,71.8a1.542,1.542,0,0,0-.49,1.105c.111,1.99.361,3.973.459,5.963.116,2.336.119,4.677.183,7.015.045,1.644.109,3.288.165,4.932s.093,3.289.172,4.932c.09,1.872.23,3.742.325,5.614.124,2.454.278,4.908.319,7.364.031,1.865-.028,3.737-.167,5.6a12.241,12.241,0,0,0,1.415,6.006c1,2.216,2.852,3.754,4.643,5.3a2.624,2.624,0,0,0,1.42.557q2.967.246,5.945.34c.984.03,1.972-.123,2.96-.147q4.341-.1,8.683-.169,6.967-.1,13.934-.168c.889-.01,1.778,0,2.667,0,.194,0,.389.007.583,0a30.036,30.036,0,0,1,3.927-.118,2.714,2.714,0,0,0,1.962-.418c2.04-1.459,4.083-2.914,6.081-4.428a6.384,6.384,0,0,0,2.073-2.024,8.5,8.5,0,0,0,.392-3.109c.093-2.17.125-4.343.177-6.515.058-2.394.1-4.788.17-7.182q.062-2.258.166-4.515c.1-2.26.2-4.521.337-6.78.141-2.322.355-4.639.486-6.962.1-1.78.141-3.565.165-5.348a13.442,13.442,0,0,0-.167-2.1,4.963,4.963,0,0,0-.414-1.656c-.662-1.207-1.432-2.355-2.243-3.609m60.265-13.253c-1.22.943-2.467,1.854-3.642,2.85a1.671,1.671,0,0,0-.42,1.136c-.018.836.11,1.675.14,2.514.069,1.949.11,3.9.177,5.847a3.184,3.184,0,0,0,.163.764c.136.464.371.537.765.218.7-.568,1.407-1.138,2.15-1.648a5.408,5.408,0,0,1,4.895-.764,8.753,8.753,0,0,1,5.357,5.334,17.767,17.767,0,0,1,1.019,7.253,7.2,7.2,0,0,1-1.832,4.921c-.354.4-.734.883-.211,1.487.826.954,1.651,1.913,2.413,2.918a12.922,12.922,0,0,1,2.11,4.206c.232.794.416,1.6.684,2.384a3.054,3.054,0,0,0,.574.758,6.063,6.063,0,0,0,.572-.588,7.389,7.389,0,0,0,.534-.86,19.514,19.514,0,0,1,3.958-4.938c.513-.469.38-.875.055-1.323-.761-1.048-1.607-2.042-2.281-3.142a10.272,10.272,0,0,1-1.606-8.063,7.957,7.957,0,0,1,7.088-5.928,21.164,21.164,0,0,1,8.531,1.336,7.6,7.6,0,0,1,4.135,3.2,11.532,11.532,0,0,1,1.254,4.973,10.681,10.681,0,0,1-1.049,5.478c-.422.862-.229,1.274.522,1.864a10.45,10.45,0,0,1,1.688,1.651c.537.668.936,1.444,1.423,2.153s.912.72,1.373-.024c.928-1.5,1.748-3.072,2.754-4.515.426-.611.136-.855-.192-1.176-.524-.514-1.121-.956-1.628-1.485a8.361,8.361,0,0,1-1.963-7.547,9.844,9.844,0,0,1,3.263-5.449,10.157,10.157,0,0,1,6.424-3.006,11.967,11.967,0,0,1,4.93.493c.612.226,1.239-.017,1.3-.531a17.149,17.149,0,0,0,.161-2.1,20.672,20.672,0,0,0-.179-3.011,7.007,7.007,0,0,0-.726-2.273c-.792-1.433-1.685-2.813-2.593-4.177a18.874,18.874,0,0,0-2.486-3.366,7.422,7.422,0,0,0-4.82-2c-2.343-.113-4.685-.308-7.028-.315-4.116-.012-8.232.083-12.347.152-1.7.029-3.4.107-5.1.162-1.755.056-3.51.105-5.264.169-1.227.045-2.46.054-3.68.178-1.663.169-3.331.358-4.972.671a14.109,14.109,0,0,0-6.392,3.15m13.087,160.623c.056.255.105.511.168.764.918,3.746,2.508,7.088,5.713,9.448a14.288,14.288,0,0,0,7.89,2.869,15.4,15.4,0,0,0,8.6-2.35,13.256,13.256,0,0,0,4.14-3.6c1.9-2.608,2.31-5.667,2.635-8.733a12.435,12.435,0,0,0-.16-3.174,33.321,33.321,0,0,0-.97-4.678,42.085,42.085,0,0,0-2.256-6.057,9.515,9.515,0,0,0-3.052-3.819,20.992,20.992,0,0,0-5.058-2.681,11.775,11.775,0,0,0-3.126-.849,7.036,7.036,0,0,0-2.411.748,22.162,22.162,0,0,0-6.948,4.32,15.521,15.521,0,0,0-3.787,5.415,18.1,18.1,0,0,0-1.838,6.971,35.273,35.273,0,0,0,.46,5.408m19.088-79.269c-2.384.278-4.775.506-7.148.857a8.935,8.935,0,0,0-2.876.875,15.157,15.157,0,0,0-5.335,5.124,19.982,19.982,0,0,0-2.936,6.279,26.6,26.6,0,0,0-.919,4.271,25.991,25.991,0,0,0,.081,5.571,13.379,13.379,0,0,0,1.419,4.057,4.5,4.5,0,0,0,2.21,2.482c.954.376,1.861.868,2.8,1.283a50.5,50.5,0,0,0,7.388,3.086,6.8,6.8,0,0,0,3.762.015,14.806,14.806,0,0,0,5.639-3.668c1.785-1.613,2.578-3.825,3.326-6.028a50.727,50.727,0,0,0,2.226-8.254,15.779,15.779,0,0,0-.1-6.048,13.589,13.589,0,0,0-5.908-8.422c-1.046-.708-2.038-1.627-3.631-1.483m4.251-40.927A15.647,15.647,0,0,0,156,96.9c-.814-1.444-1.637-2.885-2.522-4.286a1.1,1.1,0,0,0-1.448-.332,9.3,9.3,0,0,1-3.862,1.325,12.42,12.42,0,0,1-3.506-.231c-1.512-.436-1.446-.5-2.341.642a26.847,26.847,0,0,0-5.3,9.791,43.248,43.248,0,0,0-1.144,5.766,40.177,40.177,0,0,0-.031,5.078.97.97,0,0,0,1.114,1.049c1.338-.045,2.676-.122,4.014-.161,2.282-.067,4.564-.133,6.847-.164,1.953-.027,3.908.016,5.861-.012,1.588-.023,3.181-.054,4.76-.2a1.277,1.277,0,0,0,.855-.9c.021-.923-.269-1.851-.269-2.777a35.626,35.626,0,0,0-.875-8.4c-.368-1.519-.977-2.98-1.477-4.634m-39.01-3.5c0,3.137.094,6.278-.035,9.41a11.522,11.522,0,0,0,1.284,5.147c.717,1.65,2.1,2.82,3.248,4.165a6.343,6.343,0,0,0,4.925,2.029c1.364.073,2.73.118,4.1.168.6.022,1.229-.088,1.295-.771a12.779,12.779,0,0,0,0-3.075,23.375,23.375,0,0,1,.278-6.671c.173-1.272,1.2-2.708-.552-3.716-.109-.063-.142-.267-.2-.409-.682-1.661-1.234-3.391-2.073-4.968a69.234,69.234,0,0,0-3.7-6.046c-.924-1.375-1.23-1.245-2.49-1.009a13.756,13.756,0,0,1-1.865.312,6.506,6.506,0,0,1-3.213-.877,1.483,1.483,0,0,0-1.154-.139.807.807,0,0,0-.2,1.183c.111.182,0,.49.021.738.106,1.454.22,2.906.331,4.526m45.178,7.669a1.746,1.746,0,0,1,.161.432c.175,1.9.443,3.8.475,5.71.03,1.785-.208,3.574-.3,5.362-.036.744.344,1.154,1.082,1.059a4.349,4.349,0,0,0,1.906-.6c2.227-1.572,4.4-3.221,6.57-4.874.772-.588,1.587-1.189,1.6-2.316.057-3.7.1-7.4.171-11.1q.052-2.8.171-5.6c.029-.689-.541-1.09-.914-.949a12.921,12.921,0,0,1-5.477.4,2.659,2.659,0,0,0-2.684,1.721c-1.14,2.1-2.188,4.258-3.266,6.4a1.7,1.7,0,0,0-.2,1.553,17.149,17.149,0,0,1,.695,2.8M139.669,81.949a5.852,5.852,0,0,0,.3.791,29.112,29.112,0,0,0,2.062,3.63c1.457,1.934,3.734,3.6,6.535,2.815a4.8,4.8,0,0,0,3.663-3.268,8.989,8.989,0,0,0,.141-4.007,3.515,3.515,0,0,0-2.763-3.213c-1.819-.5-3.622-1.06-5.459-1.471a4.649,4.649,0,0,0-2.419.015c-1.529.535-2.428,2.729-2.059,4.708m-22.839-1c.056.782.068,1.57.188,2.341a1.263,1.263,0,0,0,.526.842c2.115,1.08,4.244,2.161,6.717,1.071,1.192-.525,2.2-1.139,2.426-2.615a14.081,14.081,0,0,0,.176-4.212,9.676,9.676,0,0,0-1.848-4.993,3.359,3.359,0,0,0-4.033-.788,10.38,10.38,0,0,0-3.412,3.309,4.556,4.556,0,0,0-.865,1.954,20.031,20.031,0,0,0,.125,3.089m50.012,4a11.946,11.946,0,0,0,5.708,1.082,5.993,5.993,0,0,0,1.667-.193c.672-.264.753-.987.785-1.626.08-1.584.092-3.172.184-4.756.062-1.066.2-2.128.327-3.19.11-.953-.177-1.545-1.124-1.71a14.823,14.823,0,0,0-3.763-.307,9.048,9.048,0,0,0-2.9,1,7.974,7.974,0,0,0-2.951,3.039,4.577,4.577,0,0,0,2.062,6.661M22.64,138.63c-.056,1.781-.138,3.561-.16,5.342-.028,2.275-.015,4.551,0,6.826,0,.561.193.987.9.926.5-.043,1,0,1.5-.009,1.129-.011,1.427-.306,1.428-1.411,0-5.3-.009-10.6.008-15.9,0-1.143.112-2.285.156-3.428a.96.96,0,0,0-.989-1.089,6.384,6.384,0,0,0-1.823.027,1.244,1.244,0,0,0-.816.8,35.33,35.33,0,0,0-.2,3.59c-.028,1.387-.007,2.775-.007,4.329m135.2-8.5c.056-3.389.092-6.779.184-10.167a1.121,1.121,0,0,0-.775-1.242,2.541,2.541,0,0,0-2.4.486,1.258,1.258,0,0,0-.165.511c-.12,2.339-.276,4.678-.327,7.019-.056,2.551-.03,5.1.006,7.656a1.515,1.515,0,0,0,.424,1.12,14.16,14.16,0,0,0,2.376,1.075.588.588,0,0,0,.493-.289,14.982,14.982,0,0,0,.181-2.008c.025-1.331.007-2.663.007-4.161m-3.5,54.347c0,2.471-.022,4.943.013,7.414a2.452,2.452,0,0,0,.818,2.229,11.977,11.977,0,0,0,1.591.776c.527.252.757.147.755-.5-.016-6.109-.007-12.218-.019-18.328,0-.219-.1-.584-.227-.623a1.013,1.013,0,0,0-.719.166c-.447.278-.827.675-1.29.917a1.552,1.552,0,0,0-.929,1.531C154.351,180.142,154.339,182.225,154.339,184.474Z" transform="translate(0 0)"></path><path d="M81.861,1008.9c5.978.056,11.872.109,17.766.173.311,0,.619.135.931.154,1.075.067,2.108.093,2.872-.941a.933.933,0,0,1,1.571.013,4.283,4.283,0,0,1,1.227,2.666c.049,1.184.326,2.357.488,3.537.119.871.248,1.744.311,2.62.135,1.9.2,3.8.348,5.695.191,2.438.45,4.871.655,7.309.136,1.619.228,3.241.338,4.862.058.866.167,1.733.15,2.6a11.808,11.808,0,0,1-.292,2.04,2.389,2.389,0,0,1-2.314,1.933c-1,.126-2.008.13-3.013.181-2.232.114-4.463.272-6.7.324-4.032.093-8.066.127-12.1.174-1.472.017-2.945-.015-4.417.007q-4.341.064-8.682.167c-1.228.029-2.454.133-3.682.156a2.368,2.368,0,0,1-2.625-2.276c-.25-2.044-.444-4.094-.676-6.14-.27-2.386-.554-4.771-.83-7.156-.01-.082,0-.167,0-.25-.055-2.894-.032-5.792-.195-8.68a21.458,21.458,0,0,0-.774-5.585,2.367,2.367,0,0,1,2.276-3.242c1.141-.087,2.287-.15,3.431-.167,4.616-.069,9.233-.117,13.933-.172m-14.837,11.086c.056.672.129,1.342.163,2.015.068,1.366.108,2.732.173,4.1.036.768.325.915.961.465a16.843,16.843,0,0,0,1.439-1.154,3.075,3.075,0,0,1,3.494-.8,7.57,7.57,0,0,1,2.249,1.931c.71.822,1.33.947,2.115.189a17.157,17.157,0,0,1,1.524-1.352c1.5-1.136,3.35-1.53,4.935-.19.71.6,1.445,1.177,2.211,1.7a5.983,5.983,0,0,0,5.123.726,60.682,60.682,0,0,0,6.519-1.986,15.761,15.761,0,0,1,5.173-1.412,1.22,1.22,0,0,0,1.092-1.245,8.447,8.447,0,0,1-.157-.934c-.069-.837-.085-1.68-.177-2.514-.2-1.827-.568-3.647-.615-5.477a1.821,1.821,0,0,0-2.011-2c-5.76.03-11.521.013-17.281.013q-7.793,0-15.586-.007c-.561,0-1.122-.156-1.681-.143-.438.01-.767.252-.6.791a23.558,23.558,0,0,1,.942,7.278m18.588,19.088,18.85-.167h.083c.8-.026,1.162-.372,1.146-1.187-.013-.672-.1-1.344-.159-2.015q-.331-3.737-.667-7.475c-.12-1.325-.585-1.561-1.834-1.089-2.091.789-4.187,1.58-6.32,2.243a36.526,36.526,0,0,1-5.365,1.313,6.988,6.988,0,0,1-4.254-.2,20.835,20.835,0,0,1-3.585-2.4c-1.472-1.187-2.1-1.356-3.138-.579a13.3,13.3,0,0,0-2.233,2.217c-1.148,1.4-2.219,1.295-3.4-.041-.643-.727-1.245-1.49-1.893-2.213a1,1,0,0,0-1.536-.115c-.893.727-1.781,1.461-2.682,2.178a2.327,2.327,0,0,0-.951,2.2c.21,2.288.325,4.586.531,6.874a.885.885,0,0,0,1.04.792c2-.07,4.01-.115,6.015-.173,1.866-.054,3.732-.128,5.6-.161C82.389,1039.052,83.917,1039.073,85.612,1039.073Z" transform="translate(-51.719 -839.845)"></path><path d="M105.152,493.9c-2.119.458-4.192.9-6.277,1.281a16.3,16.3,0,0,1-2.944.325c-2.209-.006-4.4.323-6.636-.1-2.893-.545-4.385-2.176-5.244-4.9a49.7,49.7,0,0,1-1.431-6.816c-.4-2.406-.71-4.83-1.006-7.252-.215-1.759-.4-3.525-.5-5.293-.116-2.085-.091-4.178-.205-6.263a2.44,2.44,0,0,0-.574-1.488,2.481,2.481,0,0,1,.074-3.264c1.793-1.635,3.642-3.213,5.375-4.909,1.3-1.275,2.888-2.272,3.751-4A2.462,2.462,0,0,1,91.92,450.2c2.616-.005,5.233.08,7.849.149,1.145.03,2.288.1,3.432.164,2.765.161,5.531.309,8.293.511a18.155,18.155,0,0,1,2.813.447c1.476.347,1.967,1.665,2.45,2.848a19.388,19.388,0,0,1,1.363,7.689c-.029,2,.035,4-.015,6-.075,2.983-.218,5.964-.322,8.947-.066,1.894-.067,3.791-.183,5.681-.1,1.6-.294,3.2-.493,4.794a3.814,3.814,0,0,1-2.4,3.041c-1.938.879-3.934,1.64-5.935,2.367-1.163.423-2.385.683-3.623,1.058m-21.3-20.213q.375,3.011.75,6.021c.221,1.769.343,3.558.694,5.3a50.271,50.271,0,0,0,1.5,5.539,2.258,2.258,0,0,0,1.564,1.653,17.253,17.253,0,0,0,2.812.633,34.586,34.586,0,0,0,7.884-.653c1.935-.323,3.88-.645,5.769-1.158,2.733-.742,5.427-1.632,8.121-2.512a2.4,2.4,0,0,0,1.807-1.829,28.591,28.591,0,0,0,.342-3.608c.093-2.614.12-5.23.179-7.845.052-2.31.146-4.619.154-6.929.006-1.671-.173-3.343-.138-5.012a28.429,28.429,0,0,0-1.2-8.094c-.222-.815-.551-1.59-1.614-1.685-2.16-.194-4.312-.476-6.474-.645-1.582-.124-3.174-.157-4.762-.173-2.693-.026-5.387-.018-8.081,0-.618,0-.911.388-.648.971.3.657.72,1.255,1.042,1.9a28.711,28.711,0,0,1,3,7.669,3.112,3.112,0,0,1-1.578,3.432,8.267,8.267,0,0,1-3.551.414,29.542,29.542,0,0,1-6.681-1.217c-.592-.171-.983.187-.985.828-.006,2.3,0,4.61.081,7m7.168-8.835a22.224,22.224,0,0,0,2.843-.066c.234-.032.494-.667.543-1.05a3.538,3.538,0,0,0-.278-1.115,28.073,28.073,0,0,0-3.362-7.341.977.977,0,0,0-1.65-.19c-.423.4-.81.838-1.24,1.23-1.685,1.533-3.389,3.046-5.061,4.593a.76.76,0,0,0-.155.705,3.14,3.14,0,0,0,.95,1.048A15.312,15.312,0,0,0,91.024,464.852Z" transform="translate(-66.467 -375.151)"></path><path d="M843.275,1244.217a8.02,8.02,0,0,1-4.927-.864c-2.074-.892-4.131-1.835-6.138-2.867a18.9,18.9,0,0,1-3.129-2.081,1.86,1.86,0,0,1-.025-2.651c2.339-2.643,5.26-4.562,8.1-6.584q2.672-1.9,5.322-3.836a1.811,1.811,0,0,1,2.2.056c.538.445,1.2.923.774,1.821a.816.816,0,0,0-.048.313c-.058,1.559-.16,3.118-.156,4.677a45.864,45.864,0,0,0,.2,5.588,11.27,11.27,0,0,1-.234,4.122,3.027,3.027,0,0,1-1.934,2.306m-8.71-6.46c.229.117.454.242.686.351q2.992,1.412,5.986,2.819a.741.741,0,0,0,1.15-.55,8.725,8.725,0,0,0,.332-2.021c.037-2.717.021-5.434.006-8.151a3.635,3.635,0,0,0-.2-.828,3.134,3.134,0,0,0-.846.284c-2.9,2.043-5.788,4.105-8.679,6.162-.586.417-.595.841.017,1.177C833.485,1237.258,833.991,1237.452,834.565,1237.757Z" transform="translate(-690.395 -1020.775)"></path><path d="M852.914,851.315a7.88,7.88,0,0,1,6.64,3.1,6.331,6.331,0,0,1,1.317,3.528,12.954,12.954,0,0,1-1.048,5.815c-.593,1.449-1.034,2.961-1.631,4.409-.538,1.305-1.194,2.561-1.8,3.839a20.637,20.637,0,0,0-1.165,2.516,6.029,6.029,0,0,1-2.2,2.645c-.519.448-.933-.122-1.135-.529a12.4,12.4,0,0,1-1-2.5,31.64,31.64,0,0,0-2.954-7.029,15.5,15.5,0,0,1-1.787-5.863,12.011,12.011,0,0,1,.923-6.173,6.107,6.107,0,0,1,3.974-3.3c.6-.182,1.216-.285,1.867-.465m.875,3.292c-.25,0-.5-.006-.749,0a3.755,3.755,0,0,0-3.631,2.724,10.043,10.043,0,0,0,.28,6.318c.794,1.972,1.737,3.885,2.629,5.817a11.547,11.547,0,0,0,.768,1.427c.257.4.469.214.62-.129.665-1.5,1.342-2.994,2-4.5a29.057,29.057,0,0,0,2.034-5.987C858.319,857.334,856.872,855.137,853.789,854.607Z" transform="translate(-705.035 -709.393)"></path><path d="M223.011,1053.487c.708-2.285,2.626-3.173,4.495-3.957,1.372-.576,3.426.483,4.188,1.674a3.85,3.85,0,0,1-.439,4.927c-1.842,1.661-5.864,2.131-7.629-.128a2.374,2.374,0,0,1-.614-2.517m6.085-1.667a3.994,3.994,0,0,0-3.519,1.352,1.172,1.172,0,0,0-.212,1.422,2.606,2.606,0,0,0,2.762.845c.678-.222,1.463-.258,1.742-1.2A2.082,2.082,0,0,0,229.1,1051.82Z" transform="translate(-185.701 -874.431)"></path><path d="M139.807,615.033c.264-.987,1-.834,1.672-.834,1.563,0,3.126.02,4.689-.007,1-.018,2.007-.145,3.011-.152,3.107-.021,6.215-.024,9.322.007a6.319,6.319,0,0,1,1.689.331c.382.113.842.354.6.849a1.464,1.464,0,0,1-.861.773c-1.246.191-2.509.282-3.769.36-2.172.133-4.346.253-6.52.333-2.306.085-4.616.188-6.921.141a3.468,3.468,0,0,1-2.726-1.214A1.548,1.548,0,0,1,139.807,615.033Z" transform="translate(-116.5 -511.662)"></path><path d="M156.1,569.075c.959.1,1.835.206,2.712.291a.893.893,0,0,1,.9.987c-.043.285-.612.609-.995.7a12.547,12.547,0,0,1-2.092.191c-2.231.119-4.462.261-6.7.328-3.032.091-6.065.128-9.1.164a1.687,1.687,0,0,1-1.043-.259,1.623,1.623,0,0,1-.633-1.093c.025-.291.553-.714.906-.769a26.332,26.332,0,0,1,3.009-.2q2.632-.1,5.264-.168C150.9,569.179,153.46,569.13,156.1,569.075Z" transform="translate(-115.959 -474.206)"></path><path d="M146.807,650.6a.881.881,0,0,1,.63-1.357c.854-.186,1.738-.228,2.607-.354,2.251-.326,4.5-.674,6.751-.994,1.316-.187,2.64-.323,3.957-.508,1.017-.143,2.026-.344,3.044-.487a3.106,3.106,0,0,1,1.079.006c.569.125,1.348.188,1.388.88.018.308-.62.825-1.049.955a29.933,29.933,0,0,1-3.582.809c-2.105.367-4.212.76-6.334.987-2.448.262-4.912.375-7.372.5A2.892,2.892,0,0,1,146.807,650.6Z" transform="translate(-122.208 -539.021)"></path><path d="M880.417,884.3a1.967,1.967,0,0,1-2.534,1.216,2.291,2.291,0,0,1-1.282-2.725,2.587,2.587,0,0,1,1.916-1.868,1.725,1.725,0,0,1,1.788.871A2.244,2.244,0,0,1,880.417,884.3Z" transform="translate(-730.37 -734.046)"></path></g></g></svg>