<svg xmlns="http://www.w3.org/2000/svg" width="12.123" height="14.198" viewBox="0 0 12.123 14.198"><path id="Path_24999" data-name="Path 24999" d="M431.671,35.584c-1.285,1.42-2.548,2.851-3.767,4.323q1.428-2.069,2.861-4.136c.207-.3-.285-.586-.488-.285-2.42,3.579-4.857,7.147-7.277,10.725a44.353,44.353,0,0,1-.931-5.835c-.034-.37-.586-.393-.615-.06q-.075-.2-.157-.389v0h0l-.023-.056c-.114-.267-.462-.056-.428.181.077.536.159,1.071.243,1.605-.111-.462-.237-.921-.384-1.373-.065-.2-.417-.181-.391.053l0,.044c-.033-.126-.066-.251-.1-.377-.04-.143-.289-.122-.27.037.191,1.587.516,3.162.817,4.731a35.828,35.828,0,0,0,1.034,4.589.283.283,0,0,0,.545-.15q-.144-.582-.281-1.169a13.245,13.245,0,0,0,.485,1.287c.082.185.313.105.37-.048a.2.2,0,0,0,.079-.086l.11-.2c.013.04.025.081.039.121l-.03.048c-.133.219.2.409.341.2l.017-.026a.277.277,0,0,0,.252-.363l0-.01c2.668-3.979,5.23-8.028,7.791-12.076a.226.226,0,0,0,.036-.132q.254-.439.491-.889C432.159,35.642,431.857,35.378,431.671,35.584ZM422.68,47.465q.109.458.237.911l-.107.213q-.1-.513-.2-1.026Zm.462-.648q1.824-2.54,3.772-4.989a50.285,50.285,0,0,0-3.582,5.743Q423.234,47.195,423.141,46.817Zm-.6.074-.044.064q-.114-.607-.224-1.214C422.355,46.125,422.445,46.509,422.539,46.891Zm.979,1.368q.281-.494.567-.984c.578-.917,1.212-1.8,1.862-2.674q-1.2,1.906-2.383,3.827C423.549,48.372,423.534,48.316,423.518,48.259Z" transform="translate(-419.943 -35.358)" fill="#222"></path></svg>