<svg width="114" height="24" viewBox="0 0 114 24" fill="none" xmlns="http://www.w3.org/2000/svg">
<g clip-path="url(#clip0_9141_29199)">
<path fill-rule="evenodd" clip-rule="evenodd" d="M27.054 9.056C26.986 9.35835 26.8588 9.64425 26.6798 9.89722C26.5008 10.1502 26.2735 10.3653 26.011 10.53C25.3415 10.8797 24.5902 11.0424 23.836 11.001H20.868L21.91 7.11301H24.878C25.5541 7.04183 26.2339 7.20798 26.801 7.583C26.9808 7.77814 27.1003 8.02111 27.1452 8.28263C27.1901 8.54415 27.1584 8.81307 27.054 9.057V9.056ZM30.128 8.973C30.3396 8.4392 30.4077 7.85926 30.3254 7.29096C30.2432 6.72266 30.0134 6.18584 29.659 5.734C29.1636 5.30806 28.5862 4.9882 27.9624 4.79418C27.3385 4.60017 26.6815 4.53613 26.032 4.606H19.407L15.421 19.486H18.64L20.248 13.486H22.359C22.7451 13.4671 23.1297 13.5462 23.477 13.716C23.6178 13.8021 23.7354 13.9214 23.8194 14.0635C23.9035 14.2056 23.9514 14.3661 23.959 14.531L24.533 19.484H27.982L27.422 14.865C27.4311 14.4455 27.2953 14.0357 27.0376 13.7045C26.7799 13.3734 26.4159 13.1412 26.007 13.047C27.008 12.7731 27.9223 12.2478 28.663 11.521C29.3718 10.8179 29.8785 9.93715 30.13 8.971" fill="#DDDDDD"/>
<path fill-rule="evenodd" clip-rule="evenodd" d="M37.95 14.156C37.7565 15.0229 37.3262 15.8191 36.707 16.456C36.4405 16.7139 36.1259 16.9167 35.781 17.053C35.4361 17.1892 35.0678 17.2562 34.697 17.25C34.3805 17.287 34.06 17.2328 33.7733 17.0939C33.4865 16.9551 33.2453 16.7372 33.078 16.466C32.7832 15.7407 32.7725 14.9309 33.048 14.198C33.2494 13.3226 33.6885 12.5198 34.317 11.878C34.585 11.6102 34.9035 11.3984 35.2541 11.2549C35.6046 11.1114 35.9802 11.039 36.359 11.042C36.6721 11.0056 36.9889 11.0621 37.2702 11.2043C37.5515 11.3465 37.7847 11.5683 37.941 11.842C38.2216 12.5856 38.2245 13.4055 37.949 14.151L37.95 14.156ZM39.361 8.889L38.961 10.389C38.7908 9.84846 38.432 9.38708 37.95 9.089C37.3906 8.75243 36.7455 8.58534 36.093 8.608C35.1764 8.61082 34.2762 8.85207 33.481 9.30801C32.6169 9.80071 31.8694 10.4744 31.29 11.283C30.654 12.1567 30.1879 13.1421 29.916 14.188C29.633 15.119 29.5734 16.1036 29.742 17.062C29.8729 17.8183 30.2785 18.4995 30.881 18.975C31.5372 19.4436 32.3314 19.6792 33.137 19.644C33.8651 19.6461 34.5849 19.4891 35.246 19.184C35.8989 18.8882 36.4792 18.453 36.946 17.909L36.526 19.476H39.64L42.479 8.876L39.361 8.889Z" fill="#DDDDDD"/>
<path fill-rule="evenodd" clip-rule="evenodd" d="M53.671 8.88899H44.621L43.988 11.251H49.255L42.292 17.27L41.698 19.486H51.041L51.674 17.124H46.031L53.1 11.024L53.671 8.88899Z" fill="#DDDDDD"/>
<path fill-rule="evenodd" clip-rule="evenodd" d="M61.64 14.135C61.4499 15.0154 61.0192 15.8257 60.396 16.476C59.8596 16.9864 59.1433 17.2643 58.403 17.249C56.7724 17.249 56.2353 16.211 56.792 14.135C56.9842 13.2571 57.4174 12.4502 58.043 11.805C58.5894 11.2868 59.3181 11.0051 60.071 11.021C60.3816 10.9841 60.6963 11.0387 60.9764 11.1779C61.2565 11.3172 61.4899 11.5351 61.648 11.805C61.9258 12.5573 61.9229 13.3846 61.64 14.135V14.135ZM63.462 9.286C62.6271 8.80989 61.6753 8.57807 60.715 8.61699C59.6329 8.60715 58.5619 8.83555 57.578 9.286C56.6209 9.72808 55.7794 10.3864 55.12 11.209C54.4306 12.0699 53.9317 13.0671 53.656 14.135C53.363 15.0841 53.3284 16.0941 53.556 17.061C53.7603 17.865 54.2735 18.556 54.984 18.984C55.8298 19.4611 56.7918 19.6928 57.762 19.653C58.8341 19.6625 59.8949 19.434 60.868 18.984C61.8209 18.5395 62.6585 17.8815 63.316 17.061C64.005 16.2 64.5037 15.2028 64.779 14.135C65.0716 13.1858 65.106 12.1759 64.879 11.209C64.6749 10.4077 64.1662 9.71776 63.461 9.286" fill="#DDDDDD"/>
<path fill-rule="evenodd" clip-rule="evenodd" d="M96.0311 14.156C95.8375 15.0229 95.4072 15.8191 94.788 16.456C94.5214 16.7139 94.2066 16.9168 93.8615 17.0531C93.5164 17.1893 93.148 17.2562 92.777 17.25C92.4607 17.2869 92.1403 17.2327 91.8537 17.0938C91.5671 16.9549 91.3261 16.7371 91.159 16.466C90.8642 15.7406 90.8535 14.9309 91.129 14.198C91.3303 13.3226 91.7695 12.5198 92.398 11.878C92.6659 11.6102 92.9844 11.3984 93.335 11.2549C93.6856 11.1114 94.0612 11.039 94.44 11.042C94.7531 11.0056 95.07 11.0621 95.3512 11.2043C95.6325 11.3465 95.8658 11.5683 96.022 11.842C96.3027 12.5856 96.3054 13.4055 96.03 14.151L96.0311 14.156ZM97.4419 8.889L97.042 10.389C96.8718 9.84845 96.513 9.38708 96.0311 9.08899C95.4716 8.75237 94.8265 8.58528 94.174 8.60799C93.2574 8.61082 92.3573 8.85206 91.5621 9.308C90.6979 9.80071 89.9505 10.4744 89.371 11.283C88.735 12.1566 88.2688 13.1421 87.997 14.188C87.7143 15.1191 87.6547 16.1036 87.823 17.062C87.9535 17.8184 88.3592 18.4998 88.962 18.975C89.6182 19.4436 90.4123 19.6792 91.2179 19.644C91.9461 19.6463 92.6659 19.4893 93.327 19.184C93.9799 18.8882 94.5603 18.453 95.027 17.909L94.607 19.476H97.721L100.56 8.876L97.4419 8.889Z" fill="#DDDDDD"/>
<path fill-rule="evenodd" clip-rule="evenodd" d="M74.564 11.732L75.358 8.848C75.0218 8.69477 74.6542 8.62316 74.285 8.639C73.5661 8.64105 72.8593 8.82437 72.23 9.172C71.6586 9.48519 71.1618 9.91847 70.7739 10.442L71.187 8.889H68.074L65.213 19.489H68.37L69.854 13.951C70.0276 13.2113 70.4364 12.5478 71.019 12.06C71.6157 11.5949 72.357 11.3545 73.113 11.381C73.6185 11.3786 74.1167 11.5005 74.564 11.736" fill="#DDDDDD"/>
<path fill-rule="evenodd" clip-rule="evenodd" d="M83.351 14.198C83.1598 15.0545 82.7323 15.8403 82.117 16.466C81.577 16.9815 80.8554 17.2633 80.1089 17.25C79.7949 17.2853 79.4773 17.2292 79.1944 17.0883C78.9114 16.9475 78.6751 16.7279 78.514 16.456C78.2218 15.7186 78.214 14.8989 78.492 14.156C78.6877 13.2845 79.1226 12.4848 79.748 11.847C80.2903 11.3232 81.0181 11.0355 81.772 11.047C82.0863 11.0138 82.4033 11.0758 82.6819 11.2248C82.9606 11.3739 83.1882 11.6032 83.335 11.883C83.6169 12.6297 83.6225 13.4525 83.351 14.203V14.198ZM85.5569 9.323C84.9147 8.83794 84.1242 8.59056 83.32 8.62301C82.5319 8.62126 81.7548 8.80741 81.053 9.166C80.3599 9.50688 79.7613 10.0131 79.31 10.64L79.32 10.57L79.85 8.88201H76.768L75.983 11.812C75.974 11.846 75.966 11.878 75.957 11.912L72.72 23.992H75.876L77.506 17.91C77.6627 18.4477 78.0209 18.9042 78.506 19.184C79.0725 19.5069 79.7173 19.6661 80.369 19.644C81.2862 19.6448 82.189 19.4147 82.994 18.975C83.8489 18.5075 84.5882 17.8541 85.157 17.063C85.7859 16.1991 86.2457 15.2239 86.512 14.189C86.7949 13.2475 86.8575 12.2536 86.695 11.284C86.5699 10.5101 86.1676 9.80816 85.563 9.30901" fill="#DDDDDD"/>
<path fill-rule="evenodd" clip-rule="evenodd" d="M113.627 8.892H111.714C111.653 8.892 111.599 8.892 111.543 8.892H110.551L110.044 9.599C110.003 9.652 109.963 9.70601 109.919 9.76801L109.864 9.85001L105.832 15.466L104.996 8.88899H101.696L103.369 18.883L99.675 24H102.966L103.866 22.732L103.943 22.623L104.988 21.142L105.018 21.1L109.692 14.474L113.63 8.897H113.635L113.627 8.892Z" fill="#DDDDDD"/>
<path fill-rule="evenodd" clip-rule="evenodd" d="M7.30599 6.31L6.36099 9.787L11.768 6.287L8.23199 19.479H11.823L17.046 0L7.30599 6.31Z" fill="#DDDDDD"/>
<path fill-rule="evenodd" clip-rule="evenodd" d="M1.486 13.937L0 19.485H7.36L10.371 8.202L1.486 13.937Z" fill="#DDDDDD"/>
</g>
<defs>
<clipPath id="clip0_9141_29199">
<rect width="113.629" height="24" fill="white"/>
</clipPath>
</defs>
</svg>
