<svg xmlns="http://www.w3.org/2000/svg" id="Layer_1" data-name="Layer 1" viewBox="0 0 570 380"><defs><style>.cls-1{fill:#e9abca;}</style></defs><path d="M473.12,63.9c-1.89-1.82-3.78-3.65-5.74-5.41a23.62,23.62,0,0,0-8.85-4.89,29.56,29.56,0,0,0-32.37,10.93,38.48,38.48,0,0,0-6.37,14.67,20.09,20.09,0,0,0,1.14,12.88c4.09,8.82,10.2,15.51,19.65,18.67,1,.34,2,.72,3.1,1.1,0,.59-.05,1-.09,1.44-.52,6.43-1.17,12.85-1.52,19.29-.27,5.25-.2,10.52-.24,15.78-.07,8.1-.11,16.17,1.71,24.19.92,4.08.34,8.43,0,12.67a17.55,17.55,0,0,1-2,.33c-6.34.26-12.68.45-19,.75-5.57.25-11.13.8-16.71.88-16.09.24-32.19.26-48.28.48-10,.13-19.93.47-29.89.72-4.37.11-8.75.25-13.13.32q-12.48.2-25,.3a14.77,14.77,0,0,1-2.71-.43,10,10,0,0,1-.5-1.16C283.8,177,277.36,169.9,267.39,166c-.81-.31-1.54-.81-2.34-1.13a16,16,0,0,0-3.64-1.21c-9.31-1.17-17.79,1.45-25.8,5.91-8.19,4.55-11.09,12-10.92,20.94,0,.73,0,1.46,0,2.45H189.57c-1.2-5.41-2.2-10.79-3.61-16.06s-3.28-10.54-5.05-16.14c3.53-.24,6.79-.62,10.05-.64q41.89-.24,83.79-.37c5.69,0,11.42-.35,17.07.13a314.17,314.17,0,0,0,34.43,1.22c4.91-.11,9.83,0,14.31,0a59,59,0,0,0,4.41,6.49c6,6.65,17.57,8.62,25.78,4.62a14.92,14.92,0,0,0,8.53-15.35A18.85,18.85,0,0,0,373,144.16c-1.37-1.23-2.82-2.38-4.43-3.73l0-.09a6,6,0,0,1-1.13-.68l-.09.23c-6.26-3-12.24-2.67-17.86,1.11s-8.4,9.34-9.12,16.3c-9.16.27-18,.65-26.86.77-10.83.15-21.64.44-32.49-.3-14.08-1-28.22-1.13-42.33-1.61-4.93-.16-9.87-.57-14.77-.3-9.6.53-19.19,1.4-28.78,2.27a55.93,55.93,0,0,1-13.06.06,5,5,0,0,1-4.27-2.92,87.84,87.84,0,0,0-14.46-20.67,10.67,10.67,0,0,0-2.16-2c-.4-.24-1.16.11-2.25.27,1.83,2.29,3.31,4,4.67,5.86,8.43,11.35,14.46,24,19.45,37.14a42.31,42.31,0,0,1,1.84,6.63,98.15,98.15,0,0,1,.58,36c-2.52,14.78-7.13,28.63-17.36,40.17C164.29,263,161.33,268,158,272.75c-.58.83-1.21,1.63.3,2.63a11.25,11.25,0,0,0,2.11-1.78,13.31,13.31,0,0,1,4.82-4.27,5.25,5.25,0,0,1,1.38-1.62c0-.07.06-.15.1-.22l-.25,0a6.26,6.26,0,0,1,.64-.69l.12-.19a4.42,4.42,0,0,1,.5-.85l.42-.7a3.92,3.92,0,0,1,.65-.81,7.77,7.77,0,0,1,.62-1.16c7-9.52,11.84-20.21,16.74-30.84A57,57,0,0,0,191,200.54c-.25-1.92-.39-3.85-.62-6.16h35c.31,1.61.8,3.39,1,5.2.41,4,1.42,7.77,4,10.94a32.66,32.66,0,0,0,17.9,11.56c8.7,2.07,16.93.16,24.72-4a22.89,22.89,0,0,0,9.73-9.94,40,40,0,0,0,3.94-12.48c.19-1.26.26-2.53.4-4,9.22-.2,18.18-.48,27.15-.58q37.77-.42,75.56-.74c1.2,0,2.4-.17,3.6-.25,8.95-.55,17.89-1.26,26.85-1.61,7-.27,14-.07,21-.11,3.69,0,5.56-2,5.36-5.57a27.67,27.67,0,0,0-.6-4.54,41.46,41.46,0,0,1-.86-10.77c.26-8.66.45-17.31.64-26,.12-5.26.16-10.52.29-15.78,0-1.37.3-2.74.48-4.26h.1A5.42,5.42,0,0,1,447,120h-.29v-7.55a4.38,4.38,0,0,1,.58-.1c.44,0,.88,0,1.31,0,9.66.77,17-3,22.23-11.16a51.62,51.62,0,0,0,7.75-21.12C479.37,73.93,477.75,68.35,473.12,63.9ZM364.91,140.19c6.57,3.05,11.44,7.64,12.91,15,1.05,5.27-.21,10-4.29,13.69a10.93,10.93,0,0,1-1.71.89c2.6-4.86,4.57-9.15,3.27-14.19a21.47,21.47,0,0,0-5.15-9.71,19.54,19.54,0,0,0-10.46-5.64C361.42,139,363.17,139.38,364.91,140.19Zm-3.09,1.93c7,2.2,12.49,9.54,12.47,16.86,0,4.74-2.16,8.65-5.48,11.89-1.71,1.67-3.37,1.95-7.68,1.93A15.44,15.44,0,0,1,350.18,169c-4.34-3.65-6.06-8.38-4.49-13.81a36.66,36.66,0,0,1,4.31-9.13A10.12,10.12,0,0,1,361.82,142.12ZM352.76,141c-6.1,5.92-11.35,15.42-7.17,25.1C338.52,158.92,342.3,144.59,352.76,141Zm-12.64,18.06c-9.88.68-19.77,1.32-29.69.71C320.3,158.57,330.21,158.85,340.12,159.09Zm-76.43-.35H204.4C224.16,155.39,243.93,158,263.69,158.74Zm-77.3,68.68a133.31,133.31,0,0,0,2.74-29.55A50.26,50.26,0,0,1,186.39,227.42Zm55.59-58a44.7,44.7,0,0,0-14.66,19.66C226.76,178.78,233.05,171.91,242,169.39Zm38.91,37.26a20.6,20.6,0,0,1-9.18,9.52c-7.09,3.67-14.51,5.61-22.48,3.86-5.92-1.29-10.79-4.56-14.93-8.86,18.7,11.47,35.66,7.5,47.4-7.12A21.73,21.73,0,0,1,280.89,206.65Zm-.46-6.53a14.86,14.86,0,0,1-5,7.52c-10.81,9.29-22.22,10.45-36,3.56-5-2.51-8.36-7-10.36-12.3-.94-2.52-.34-5,.25-7.42a33.83,33.83,0,0,1,7.5-14.07c.64-.74,1.16-1.55,2.42-1.24.38.09,1-.36,1.38-.71,4-3.72,9-5.34,14.1-6.54a18.18,18.18,0,0,1,10.35.87A34.46,34.46,0,0,1,278,178a15.53,15.53,0,0,1,4.82,11.62C282,193.11,281.32,196.64,280.43,200.12ZM333,189.54c20.07-.39,40.14-1.74,60.26-.78C373.2,190.22,353.09,189.52,333,189.54ZM434.17,187v-.22h8.36c0,.07.05.14.07.22Zm2.77-128.47a39.41,39.41,0,0,0-13.14,16.2C426.1,67.61,429.89,61.71,436.94,58.51Zm8.63,126-.62.12-.25-2.3.32-.07C445.2,183,445.38,183.76,445.57,184.51ZM444,165l-.93-.06c0-17-.51-34.07,2.15-51Q444.65,139.49,444,165Zm-8.82-59.84c9.23,2.62,18.48,3.93,28.5.25C458.34,111.38,444.2,112.15,435.22,105.2Zm31-4.4c-3.54,3.58-8.65,4.79-17.13,4.74a48.17,48.17,0,0,1-15.74-3.68,13.76,13.76,0,0,1-9-11.53C422.42,77,431,62.69,443.67,58.2a11.46,11.46,0,0,1,6.69-.73c3.71.89,7.53,1.32,11.25,2.19,8.53,2,12.44,8.38,13.76,16.24C477,85.72,473,94,466.19,100.8Z"></path><path d="M556.14,223.52c-3.63-4.49-7.75-8.32-13.36-10.24-3.42-1.17-6.8-2.43-10.18-3.68-.68-.25-1.64-.45-1.93-1-.86-1.57-2.16-1.28-3.44-1.11-2.59.35-5.17.83-7.77,1.15A18.68,18.68,0,0,0,508.8,214c-3.68,3.45-6,7.81-8.21,12.2a4.39,4.39,0,0,1-4.5,2.85c-8.65.08-17.29.41-25.94.58-4.27.08-8.53,0-13.09,0l-.06-.1a9.8,9.8,0,0,1-2.05.28,1.52,1.52,0,0,1,.06.2c-1.46,0-2.88,0-4.3,0-10.29.26-20.58.6-30.87.74a6.69,6.69,0,0,0-6.14,3.35c-8,11.93-16.14,23.73-24.25,35.58-.67,1-1.38,1.92-2.21,3.07L350.85,253.3a30.08,30.08,0,0,0,5.35-15c1-10.51-1.92-19.78-9.24-27.4-2.6-2.71-5.53-5.63-8.89-6.94-4.27-1.67-8.94-3.08-13.78-2.4-1.94.28-3.88.58-5.83.85-14.62,2.09-23.06,10.12-25.5,24.28-.24,1.37-.34,2.77-.54,4.42h-3.73l-97.58-.29a15,15,0,0,0-2.93.15c-.37.08-.74.74-.84,1.19-.05.23.48.8.81.85a22.1,22.1,0,0,0,2.94.14l97.59.13h3.84c.21,1.4.37,2.37.48,3.34,1.18,9.64,6.51,16.61,14.37,21.72,12.21,8,29.52,6.83,40.88-2.38.33-.27.71-.48,1.21-.81l53.21,28.48c-.35,1.89-.62,3.51-.95,5.1-1,5,.34,9.79,1.15,14.62a20.55,20.55,0,0,0,10.85,15.23,31.32,31.32,0,0,0,18.95,4.09c10.56-1.16,18.46-6,22-16.45a37.1,37.1,0,0,0,1.54-7.38c1.07-8.35-1.5-15.34-8-20.78-.49-.41-.95-.85-1.4-1.28-.22-.1-.44-.18-.66-.29a7.54,7.54,0,0,1-1.85-1.29l0,.06c-1.34-.8-2.34-1.42-3.35-2-7.09-4.05-14.56-5.71-22.72-4.09a18.43,18.43,0,0,0-13.75,10.57c-.23.48-.51.94-.94,1.73l-14.13-7.57c9.38-13.7,18.57-27.15,27.85-40.7l82.2-2.06c-.32,3.73-.62,7.19-.95,11.06a18.57,18.57,0,0,1,1.21,4.6.88.88,0,0,0,0,.15c.71,2.52,1.68,5,2.39,7.5a22,22,0,0,0,8.55,12.11,32.15,32.15,0,0,0,25.47,6c10.57-1.86,18.39-7.32,22.28-17.67a63.2,63.2,0,0,0,2.16-6.2C563,239.64,562.28,231.09,556.14,223.52ZM308.86,208c-9.69,7.74-12.8,18-13.12,29.44C292.56,225.19,299.73,210.6,308.86,208Zm-4,45a10.11,10.11,0,0,1-2.88-3.5c-4.29-7.46-4.66-15.36-2.39-23.5a42.13,42.13,0,0,1,1.55-4.33c3.8-9.36,10.82-14.67,20.74-16a35.55,35.55,0,0,1,10.74-.22c7.6,1.38,12.18,6.67,14.64,13.66,1.25,3.56,1.61,7.44,2.38,11.17-.82,16.37-13,28.28-29.11,28C314.83,258.11,309.65,256,304.89,253Zm39.91,2.88c-6.67,4.64-14.19,5.73-22,5.52-.06-.22-.11-.44-.17-.65.78-.16,1.55-.34,2.33-.48,12.21-2.24,21.33-8.31,25.15-20.71a33.94,33.94,0,0,0,.78-15.62c-.19-1.18-.4-2.35-.6-3.53a30.46,30.46,0,0,1,.69,28.33A18.05,18.05,0,0,1,344.8,255.85Zm107.1,31.3h.87a54,54,0,0,1,1.22,6,28.52,28.52,0,0,1-2.64,15.32,20,20,0,0,1-12.65,10.69c-9,2.82-17.49,1.53-25.42-3.51a8,8,0,0,1-2.6-2.6,18.94,18.94,0,0,1,1.81.72,33.69,33.69,0,0,0,15.06,4.08c9.42.19,16.38-4.27,20.85-12.35C451.51,299.86,453.24,293.76,451.9,287.15Zm-44.73-7.71.51.24c-.48.91-.95,1.82-1.43,2.72l-.37-.17Zm-1.89,15.66c2.22-10.75,8-18.58,18.62-22.22a8.11,8.11,0,0,1,4.41-.45,79.56,79.56,0,0,1,12.76,4,14.4,14.4,0,0,1,8.76,12.93c.48,9.59-2.79,17.61-11,23.11a16.77,16.77,0,0,1-10.31,3.05,32,32,0,0,1-14.69-3.7,18.16,18.16,0,0,1-3-2C405.93,306.1,404,301.19,405.28,295.1Zm95.77-55.58c-.31-7.1,2.54-13.06,6.89-19.06C505.48,227.27,503.27,233.39,501.05,239.52Zm3.17,12.77a5.94,5.94,0,0,1-.64-2.51A44.71,44.71,0,0,1,514.37,217a22.46,22.46,0,0,1,4-3.41,12.55,12.55,0,0,1,9.91-2.35A47.24,47.24,0,0,1,550,220.67a11.37,11.37,0,0,1,3.62,5.73,35.13,35.13,0,0,1,.78,18.17c-3,15.17-11,21.82-26.49,22-2.49-.33-5-.54-7.45-1C512.68,264.06,508,258.7,504.22,252.29Zm55.17-9.09a40.78,40.78,0,0,1-5.86,16.26,19,19,0,0,1-6.38,6.51,31.44,31.44,0,0,1-26.49,3.34,13.48,13.48,0,0,1-4.32-2.33c2.07.44,4.12,1,6.2,1.3A38.23,38.23,0,0,0,539.41,267c7-2.05,11.73-6.68,14.51-13.27a41.11,41.11,0,0,0,3.15-22.47,7.85,7.85,0,0,1,0-1C559.72,234.28,560,238.73,559.39,243.2Z"></path><path d="M337.86,108.44c0-4,.11-7.77,0-11.58q-.37-10.33-1-20.67c-.17-2.61-.77-5.19-1.15-7.79-.5-3.34-1.06-6.68-1.44-10A3.14,3.14,0,0,1,339,55.14a6.13,6.13,0,0,0,4,.71,15.57,15.57,0,0,1,3.92,0c5.05.84,10,.14,15.16-.48.07-1.17.1-2.24.22-3.31C363.42,42,372.11,36.27,381,39.4c5.57,2,9.72,5.16,10.48,11.35a13,13,0,0,1-.81,6c-2,5.13-6.06,8.24-11.24,9.78a9.55,9.55,0,0,1-7-.67c-3.26-1.57-6.62-2.86-8.75-6.1-.35-.54-1.53-.63-2.35-.75-3-.43-6.06-1-9.1-1.13-3.7-.2-7.41,0-10.84,0a8.79,8.79,0,0,1-.92,1.09c-2.53,1.94-2.26,4.67-2.15,7.38.36,8.87.55,17.75,1.08,26.61.26,4.47,1,8.91,1.7,13.35.78,5.13-.15,6.61-5.31,6.43-6-.2-12-.94-18-1.45-1.52-.12-3.05-.3-4.57-.34-4.71-.09-9.42-.13-14.13-.19-1,0-1.91,0-3.1,0a34.41,34.41,0,0,1-.32,18.23c-4.14,14-15.24,22.55-30.07,23.18A49.8,49.8,0,0,1,242,147.8c-2.17-1-4.57-1.57-6.72-2.63a103.9,103.9,0,0,1-11-5.89c-5.72-3.69-9.56-8.7-9.24-16.38-31-.57-61.8.72-92.78,1.55.8.28,1.59.6,2.4.84,20,5.88,34.1,18.27,41.35,38,4.53,12.34,7.21,25.11,7,38.26-.49,29-12.82,52-36.63,68.43-13.49,9.33-28.66,13.71-45.12,14.08-8.92.2-17.71-.15-26.38-2.19a80.57,80.57,0,0,1-27.09-12.24A51.22,51.22,0,0,1,20,248.49c-4.61-10-8.64-20.37-10.93-31.26a56.58,56.58,0,0,1-.9-6.49c0-.43.64-.91,1-1.37.35.36.92.67,1,1.09.44,2,.71,4.1,1.12,6.14a80.51,80.51,0,0,0,63.66,63.77,75.77,75.77,0,0,0,19,1.39,19.09,19.09,0,0,0,5.45-1.06c7.07-2.62,14.2-5.16,21.11-8.18,9.31-4.08,17.37-10.18,24.84-17,3.71-3.39,7-7.23,10.42-10.94,8.86-9.66,13.31-21.27,14.62-34.15,2.26-22.18-3.38-42.18-17.25-59.67a77.25,77.25,0,0,0-38.46-26.34,57.26,57.26,0,0,0-20.39-2.59,19,19,0,0,1-5.18-.62,9.73,9.73,0,0,1-2.49-1.42c1.22-1.86,2.74-1.55,4.06-1.51a95.44,95.44,0,0,1,19.84,2.49,24,24,0,0,0,5.82.8c13.8-.1,27.6-.35,41.4-.49q26.79-.28,53.57-.47c1.29,0,2.59,0,4.18,0,.59-2.37,1.21-4.57,1.69-6.78,3.84-17.43,16.75-29.47,34.45-32.09,1.19-.17,2.38-.41,3.55-.68,1.62-.38,3.2-.79,4.69.42a2.88,2.88,0,0,0,1.24.33c10.21,1.68,18.61,6.8,26,13.78A32.6,32.6,0,0,1,295,107.76C309.22,109.64,323.27,110.23,337.86,108.44Zm-48.4,6.82c-.09-6.25-1.46-10.9-4.24-15.14-5-7.66-12.16-12.39-20.82-15.08a21.86,21.86,0,0,0-18,2.11,64.38,64.38,0,0,0-17.61,15.08,45.42,45.42,0,0,0-8.12,14.17c-1.85,5.29-1.18,10.18,2.32,14.53a46.14,46.14,0,0,0,5.91,6.11,60,60,0,0,0,7.23,5.1,34.91,34.91,0,0,0,53.32-26.88Zm-28.17,34.13c10.88,1.81,23.68-3.72,29.4-14.12,5.83-10.57,5.07-24.56-.88-31.55,3.65,10.7,1.47,20.16-4,29S271.8,146.9,261.29,149.39ZM366.92,53.91A11.19,11.19,0,0,0,370.69,63a5.16,5.16,0,0,0,2.85,1.25A15,15,0,0,0,385,60.41,10.46,10.46,0,0,0,387.36,47c-2.75-4.92-7.54-6.92-12.73-5.32C370.29,43.06,366.85,48.5,366.92,53.91Zm-209.23,191c-5,4.87-9.76,10.07-15.12,14.51a116.92,116.92,0,0,1-16.94,11.8c-5.92,3.35-12.41,5.68-18.65,8.46Q139.56,272.84,157.69,244.86ZM21.49,248c8.17,17.75,23.35,26.47,41.14,31.78A89.5,89.5,0,0,1,21.49,248Zm143.37-83.57c-5.4-16.49-16.44-27.8-32.12-34.79a100.44,100.44,0,0,1,18.32,15.25A99.15,99.15,0,0,1,164.86,164.42ZM367.4,61.77c-2.91-7.68-3.16-14.73,4.08-20.49-3.59.73-6.51,4.21-7.74,8.88S364,58.61,367.4,61.77Zm-40.21,48.38.05,1.06c3.66.25,7.31.68,11,.17a1.91,1.91,0,0,0,1.86-2.25c-.17-1.62-.5-3.21-.75-4.82l-.24.08c-.18,1.79-.35,3.59-.57,5.76Zm-101.87-9.5,11.19-10.56A27.9,27.9,0,0,0,225.32,100.65ZM336.64,67.38l.66-.18c-.2-2,.45-4.14-.7-6l-.86.13Zm-118,61.18c.36,2.88,1,3.88,3.82,5.71Zm143.65-70.9-.06-.87-4,.24C359.6,57.64,360.93,58.59,362.28,57.66Zm-26.92-.58.35.62,1.85-1.11-.33-.57Z"></path><path d="M390.32,51.55h0v1.52h0Z"></path><path d="M90.61,270.83c-18.75-.26-34-6.1-47.26-17.49C35.88,246.9,29.92,239.22,24.67,231a61.72,61.72,0,0,1-8.43-21.61c-1.15-6-.37-12,.63-18,.57-3.33,1.37-6.64,2.27-9.91,5-18.12,16.36-30.86,33.13-39,3.64-1.77,7.19-3.76,10.92-5.29a69.33,69.33,0,1,1,37.23,132.67C96.76,270.48,93,270.6,90.61,270.83Zm56-35.75c-.56.65-1.19,1.26-1.68,1.95a68.34,68.34,0,0,1-44,28.5c-6.29,1.24-12.72,1.72-19.08,2.55a17.09,17.09,0,0,1,3.43.31,9.47,9.47,0,0,0,1.3.09q37.67.47,59-30.62a20.94,20.94,0,0,0,1.26-2.61,5.76,5.76,0,0,0,1.93-4.46ZM84.9,138.45c-5.63.68-11.31,1.1-16.87,2.12a47.27,47.27,0,0,0-22.12,10.16c-11.71,9.74-18.2,22.66-22,36.93-3,11.1-2.2,22.46,1.39,33.4,7.53,22.93,22.6,38.13,46.33,44,9.21,2.28,18.52,1.54,27.67-.35,10.67-2.21,20.9-5.75,29.61-12.65,13.65-10.8,22.86-24.35,25.53-41.85.77-5.07,1.65-10.12,1.2-15.33-.76-8.94-4.29-16.89-8-24.86a38.49,38.49,0,0,0-11.9-14.19,94.71,94.71,0,0,0-18.87-11.19A67.65,67.65,0,0,0,84.9,138.45ZM41.4,150.73a53.61,53.61,0,0,0-13.68,14.32c-5.63,8.25-8.26,17.58-9.73,27.26a68.18,68.18,0,0,0-.82,14.33c.47,7.77,3.83,14.75,7.25,21.62a10.49,10.49,0,0,0,1,1.41C14.54,200,19.86,173.79,41.4,150.73Zm96.44,5c-20.2-23-54.23-26.18-75.75-15.18,1.24-.19,1.86-.26,2.47-.39a67.76,67.76,0,0,1,8.34-1.7c5.77-.45,11.57-.5,17.36-.78,8.93-.42,17.33,1.75,25.48,5.19A97,97,0,0,1,137.84,155.71Z"></path><path d="M327.5,322.65a5.3,5.3,0,0,1-5.14,5.27,5.21,5.21,0,1,1-.12-10.42A5.32,5.32,0,0,1,327.5,322.65Zm-5.29-2.79a2.82,2.82,0,0,0-2.74,3,2.77,2.77,0,0,0,2.75,2.67,2.85,2.85,0,1,0,0-5.7Z"></path><path d="M178.09,82a5.15,5.15,0,0,1-5,5,4.94,4.94,0,0,1-4.82-5.15A4.75,4.75,0,0,1,173,77,5,5,0,0,1,178.09,82Zm-2.35-.15a2.64,2.64,0,0,0-5.28.15,2.64,2.64,0,1,0,5.28-.15Z"></path><path d="M313.47,37.65a3.34,3.34,0,0,1,3.5,3.51c.08,2.45-2,4.91-4.31,5a3.56,3.56,0,0,1-3.6-3.82A4.44,4.44,0,0,1,313.47,37.65Zm-1.31,6.08a2.26,2.26,0,0,0,2.39-2.47,1.94,1.94,0,0,0-1-1.37c-.92-.3-2.29,1.11-2.19,2.31C311.37,42.79,311.94,43.34,312.16,43.73Z"></path><path d="M129.05,316.05l-.51-3.28h-3.3c-.54-2.29,1.7-2,2.54-3.07v-3.39c1.81.4,1.81.4,2.85,3.17a13,13,0,0,1,2.43-.33c.42,0,1.1.44,1.17.79a1.56,1.56,0,0,1-.69,1.25,9.5,9.5,0,0,1-2,.64C130.2,313,132.34,316,129.05,316.05Z"></path><path d="M499.63,315.06c.09-1.05.14-2,.3-3a.9.9,0,0,1,.69-.56c.37,0,1,.24,1,.5a25.27,25.27,0,0,1,.57,3l3.34,1c-.55,2.24-2.43,1.07-3,1.69-1.33,1.16.22,3.8-2.7,3.67-.12-1.13-.24-2.17-.36-3.29l-3.61-1C496.39,314.78,498.31,315.88,499.63,315.06Z"></path><path d="M516.82,31.74c1.74-.2,2.9-1.92,4.56-.54-.28,2-2.34,1.81-3.38,3V38c-2-1.21-3-3.49-5.74-1.62l0-1.14a7.37,7.37,0,0,0,1.47-1.77,9.31,9.31,0,0,0,.31-2.51C515.32,29.57,515.91,31.56,516.82,31.74Z"></path><path d="M548.72,162.5l1.57,2.43c-.49.31-1,.79-1.13.71-1.51-1.2-2.88-.58-4.41.59-.77-2.31,1-4.52-.93-6.47a8.55,8.55,0,0,0,5.84-.48Z"></path><path class="cls-1" d="M84.9,138.45a67.65,67.65,0,0,1,32,6.19,94.71,94.71,0,0,1,18.87,11.19A38.49,38.49,0,0,1,147.64,170c3.7,8,7.23,15.92,8,24.86.45,5.21-.43,10.26-1.2,15.33-2.67,17.5-11.88,31-25.53,41.85C120.19,259,110,262.5,99.29,264.71c-9.15,1.89-18.46,2.63-27.67.35-23.73-5.87-38.8-21.07-46.33-44-3.59-10.94-4.35-22.3-1.39-33.4,3.81-14.27,10.3-27.19,22-36.93A47.27,47.27,0,0,1,68,140.57C73.59,139.55,79.27,139.13,84.9,138.45Zm9.74,53c1.09-2.36,2-4.44,3-6.49,2.64-5.41,5.32-10.81,8-16.22,1-2.07.85-3.73-.38-4.85a4.64,4.64,0,0,0-5.23-.38,10,10,0,0,0-2,1.69c-1.08,1.09-2.09,2.24-3.15,3.35-9,9.34-17.82,18.75-26.9,28-3,3.06-2.71,5.69,1.9,7,4.31,1.22,8.56,2.66,12.84,4,.7.22,1.38.55,2.21.89-.58,1.12-1.07,2.09-1.58,3C80,217.69,76.56,224,73.22,230.24c-1,2-.76,4,.52,5.14a4.11,4.11,0,0,0,4.9-.14,24.67,24.67,0,0,0,3.48-3q14.75-14.77,29.43-29.61c2.12-2.13,1.69-4.72-1.16-6a41.13,41.13,0,0,0-4.66-1.57Z"></path><path d="M274.46,194.59a10.41,10.41,0,0,1-4.27,8.48,4.9,4.9,0,0,0-2,3.51c-.23,1.55-.29,3.48-2.16,4.12s-3.12-.75-4.15-2-2.15-1.26-3.51-1.14a17.71,17.71,0,0,1-11.23-2.8c-6.9-4.36-7.5-13.52-1.12-18.59a20.16,20.16,0,0,1,5.11-2.85A26,26,0,0,1,265,182.18C271.4,183.2,274.46,187.21,274.46,194.59Zm-9.18,13.51c.14-.22.4-.46.43-.74a9.66,9.66,0,0,1,3.76-6.82c3.32-2.7,3.31-6.63,2.14-10.56-1.08-3.65-3.74-5.12-7.26-5.64a26.72,26.72,0,0,0-10.39.47c-3.34.83-6.38,2.27-8.47,5.2A9.18,9.18,0,0,0,247,201.89c2.8,2.25,6.12,3.84,9.65,3.44,3.29-.36,5.89-.08,7.91,2.7C264.66,208.14,265,208.08,265.28,208.1Z"></path><path d="M452.76,91.74c-2.84,0-5.69.08-8.53,0a4.57,4.57,0,0,0-4.07,1.54,9.16,9.16,0,0,1-2.53,2.07,19.14,19.14,0,0,1-3.21,1.16,10.64,10.64,0,0,1-.95-3c0-5,.06-10.06.17-15.09,0-1.31.25-2.61.41-3.92a7.51,7.51,0,0,1,5.74-6.84,27.64,27.64,0,0,1,6.76-1.23c5.35-.09,10.71,0,16.05.31,3.88.27,5.78,2.18,6,6.1a109.24,109.24,0,0,1,0,13.78c-.21,3.65-1.77,5.11-5.42,5.38-3.48.25-7,0-10.5,0ZM436.12,93.6a18.14,18.14,0,0,0,2.47-2c1.57-1.85,3.43-2.27,5.83-2.13,5.79.31,11.59.35,17.39.35,3.67,0,4.51-.66,4.74-4.34A77,77,0,0,0,466.46,74c-.36-4.21-1.4-5.13-5.58-5.26-5-.16-10.06-.13-15.09.05a24.46,24.46,0,0,0-5.74,1.2,4.42,4.42,0,0,0-3.52,3.92c-.42,6.1-.66,12.21-.94,18.31C435.58,92.51,435.81,92.82,436.12,93.6Z"></path><path d="M354.67,155.8c-1,1.08-1.77,1.89-2.71,2.87l1.31,4,7.84-3.25c-.17-1-.32-1.95-.51-3,.55,0,1.15-.18,1.32,0,2,2.24,1.67,4.14-1,5.4-2.07,1-4.18,1.89-6.31,2.76a2.21,2.21,0,0,1-3.21-1.31,16.69,16.69,0,0,1-1.24-3.71C349.84,157.17,351.37,155.81,354.67,155.8Z"></path><path d="M366.05,148.66a46.35,46.35,0,0,1,2.45,4.88c1.19,3.24.94,3.62-2.43,5-1.41-1.57.64-1.87,1.13-3-.6-1.32-1.26-2.79-2.08-4.62l-6.85,3.14c-.54,1.87,1.71,3.06.11,4.8-1.64-.87-2.06-2.49-2.48-4-.14-.48.5-1.49,1-1.78C359.81,151.63,362.76,150.26,366.05,148.66Z"></path><path d="M323.91,246.61a23.26,23.26,0,0,1-3.84-.73,8.78,8.78,0,0,0-8.11.67,15.6,15.6,0,0,1-4.6,1.7c-2.1.51-2.88-.36-2.39-2.45a19.93,19.93,0,0,1,.92-2.8c1-2.65,1.89-5.18,1.24-8.23-.7-3.28.5-6.48,2.11-9.43,4.51-8.29,14.34-12.8,23.06-10.55,8,2.05,12.26,9.09,10.41,17.08C340.77,240.24,332.7,246.51,323.91,246.61Zm-16.36-1.42.44.61a50.81,50.81,0,0,0,5.27-2.34,5.19,5.19,0,0,1,5.17-.36c8.74,3.75,19.43-2.86,21.67-10.13,2.41-7.82-1.48-14.79-9.53-16.23-9.42-1.68-19.55,5.38-21.17,14.83a8.25,8.25,0,0,0,0,3.89,8.43,8.43,0,0,1-.5,6C308.42,242.72,308,244,307.55,245.19Z"></path><path d="M518.76,246l-3.18-1a36.85,36.85,0,0,1-2.63,3.27c-1.35,1.36-2.6,1-3.07-.88a4.16,4.16,0,0,1-.15-1.31c.25-4.25.21-8.55.86-12.75,1.09-7,5.87-10.78,12.39-12.45a29.87,29.87,0,0,1,17.76,1,12.76,12.76,0,0,1,6.67,18.1,6.55,6.55,0,0,0-.81,4,99.6,99.6,0,0,1,.14,11.46c-.17,3.28-2,4.24-4.92,2.55a10.49,10.49,0,0,0-6.44-1.24,21.16,21.16,0,0,1-7.4-1C523.21,254.4,519.64,251.54,518.76,246Zm-6.39-1c1.29-3.48,3.41-2.3,5.54-1.72a52.13,52.13,0,0,0,7.7,1.6c5.17.58,10.28.38,15.08-2,4.59-2.3,6.17-4.85,5.85-9.61-.31-4.59-2.31-7.87-6.91-9.34a30,30,0,0,0-15.24-1c-4.94,1-9,3.36-10.95,8.41C511.84,235.65,512.2,240.11,512.37,245.05Zm31.76,11.17c.94-4.56.84-9.34-.1-11.82-3.7,1-7.31,2.36-11,2.8s-7.57-.08-11.35-.18c1.2,6,8.84,8.93,17.65,6.83C541,254.38,542,256.49,544.13,256.22Z"></path><path d="M428.48,311.15l-6.3-5.88c-.9.88-1.7,1.74-2.58,2.5s-1.84,2.45-3.21,1.43c-.62-.47-.54-2.16-.45-3.26a39.45,39.45,0,0,1,.84-4.35c-1.31-2.63-4.82-2.88-5.78-5.94a11.63,11.63,0,0,1,1.8-1.32c8-3.75,16.06-7.48,24.13-11.13a8.1,8.1,0,0,1,2.73-.23,8.57,8.57,0,0,1,.08,2.8,59.56,59.56,0,0,1-2.32,5.78q-4,9.18-8,18.34A10.51,10.51,0,0,1,428.48,311.15Zm-.7-3.47c2.91-6.6,5.57-12.62,8.22-18.64a68.9,68.9,0,0,0-13.14,12.45C424.56,303.63,426,305.48,427.78,307.68Zm4.38-19.39-.24-.38-17,7.84,5.36,5Z"></path><path d="M255.2,129.93c-5.91,0-11.82,0-17.73,0-3.19,0-3.53-.24-3.4-3.32q.42-11,1.13-22c.2-3,.67-3.5,3.62-3.48q18.38.14,36.76.51c2.46,0,2.92.45,2.83,3-.18,5.57-.62,11.14-1,16.71-.13,1.86-.34,3.71-.51,5.56-.23,2.47-.55,2.84-3,2.85-6.24,0-12.47,0-18.71,0Zm-2.92-14.79-13.42,11.78.29.74c11.31-.51,22.63.26,34.48-.39a46.12,46.12,0,0,0-13.73-11.34C257.05,118.58,254.75,116.56,252.28,115.14Zm-12.79-11.57a8.71,8.71,0,0,0,1,1.18c4.95,3.19,9.94,6.34,14.86,9.57a2.77,2.77,0,0,0,3.33-.23q7-4.55,13.93-9.17c.27-.18.38-.62.8-1.35Zm10.67,10.37-12.68-8.33c-.72,6.79-1,13.25-1.27,19.72l.65.25Zm26.1-8.59-13.44,9.36c2.17,1.63,4.22,3,6.13,4.62s3.64,3.29,5.92,5.36c.5-5.75,1-10.84,1.38-15.94C276.33,107.81,276.26,106.87,276.26,105.35Z"></path><path d="M372.78,60.78c-2-3.57-.45-8.09-4.25-10.15,0-1.88,1.22-2.3,2.38-2.57,3.5-.79,7-1.63,10.56-2.19,2.65-.42,3.59.31,4,3a50.24,50.24,0,0,1,.4,6.84,3,3,0,0,1-2.25,2.93A31.46,31.46,0,0,1,372.78,60.78ZM383.56,47a54,54,0,0,0-13.83,2.74c3.14,2.73,2.38,6.59,3.78,9.8a26.84,26.84,0,0,0,9.29-1.81,3.12,3.12,0,0,0,1.84-2C384.9,52.93,385.12,50.07,383.56,47Z"></path><path d="M94.64,191.4l11.09,3.65a41.13,41.13,0,0,1,4.66,1.57c2.85,1.31,3.28,3.9,1.16,6q-14.72,14.81-29.43,29.61a24.67,24.67,0,0,1-3.48,3,4.11,4.11,0,0,1-4.9.14c-1.28-1.11-1.57-3.16-.52-5.14C76.56,224,80,217.69,83.34,211.42c.51-.95,1-1.92,1.58-3-.83-.34-1.51-.67-2.21-.89-4.28-1.37-8.53-2.81-12.84-4-4.61-1.31-4.93-3.94-1.9-7,9.08-9.21,18-18.62,26.9-28,1.06-1.11,2.07-2.26,3.15-3.35a10,10,0,0,1,2-1.69,4.64,4.64,0,0,1,5.23.38c1.23,1.12,1.39,2.78.38,4.85-2.64,5.41-5.32,10.81-8,16.22C96.66,187,95.73,189,94.64,191.4Z"></path><path d="M250.08,198.17a2.9,2.9,0,0,1-2.81-2.95,2.56,2.56,0,0,1,2.35-2.6,3.81,3.81,0,0,1,3.11,2.87A2.65,2.65,0,0,1,250.08,198.17Z"></path><path d="M268.73,194.31a2.91,2.91,0,0,1-2.8,2.58,2.56,2.56,0,0,1-2.19-2.73c0-1.33,1.13-2.16,2.71-2.06A2.2,2.2,0,0,1,268.73,194.31Z"></path><path d="M256.35,194.83a2.1,2.1,0,0,1,2-2.39,2.46,2.46,0,0,1,2.41,2.16,2.53,2.53,0,0,1-2.17,2.42A2.15,2.15,0,0,1,256.35,194.83Z"></path><path d="M458.22,85.79c-2.63-1.72-1.6-4.56-2.59-6.47l-4.14.31c-1.08,1.61.77,4.54-1.52,6.5-1.39-2.87-1.09-9.74.58-12.39l3.1,2.69c.2-.16.44-.37.69-.55l2-1.37a8.66,8.66,0,0,1,1.38,2.33c.51,2.34.85,4.72,1.14,7.1C458.94,84.46,458.5,85,458.22,85.79Z"></path><path d="M447.87,74.55,443,76.65c1.31,1,2.08,1.47,2.78,2,1.95,1.62,2.47,4.11,1.24,5.8s-4.13,1.91-6.32.38c.4-1.54,1.72-.88,2.67-1.16.66-.19,1.73-.63,1.75-1a4.05,4.05,0,0,0-.87-2.24c-.27-.41-.93-.54-1.36-.86-1.84-1.34-2.1-3-.76-4.76C443.66,72.93,445.79,72.7,447.87,74.55Z"></path><path d="M459.54,85.39a6.58,6.58,0,0,1,.75-1.08c2.17-1.75,2.2-2,.2-3.8a4.24,4.24,0,0,1-.1-6.48c1.43-1.27,2.47-1,3.8,1.08-.44.25-.88.46-1.3.73s-1.48.67-1.59,1.15a2.18,2.18,0,0,0,.86,1.78,4.28,4.28,0,0,1,2.06,4.14,3.37,3.37,0,0,1-2.74,3.22C460.91,86.19,460.26,85.69,459.54,85.39Z"></path><path d="M324.65,230.72c1.08,0,2,.28,2.66,0,3-1.54,5.17-.13,7.54,1.85a9.43,9.43,0,0,1-8,5.88,8.77,8.77,0,0,1-9.1-4.59c-1.94-3.26-1.12-6.55.91-9.54.85-1.25,1.91-2.53,3.73-2.09a4.62,4.62,0,0,1,3,4.61A35.61,35.61,0,0,1,324.65,230.72Zm6.84,2.55c-1.06-1.3-2.11-.83-3.12-.47a5,5,0,0,1-5.25-.72c-1.48-1.25-.61-2.78-.23-4.24.34-1.29.44-2.59-1.16-3.19-3.35,3.11-3.66,6.76-.9,9.44C324,237.22,328.13,237,331.49,233.27Z"></path><path d="M336.07,230c-.95-2.17-1.47-4.49-2.83-6.09s-3.59-2.47-5.45-3.67c1.64-1.55,3.82-1.13,6.33,1.12C336.88,223.79,337.89,227.61,336.07,230Z"></path><path d="M326.8,224.17c.67-1.81,1.74-1.4,2.66-.82,1.39.88,2.54,2,1.62,4.37Z"></path><path d="M540.46,228.23c.27,1.68-.82,1.63-1.81,1.72-6.11.53-12.21,1.07-18.33,1.55a13.14,13.14,0,0,1-2.81-.56c1.15-.82,1.66-1.49,2.22-1.54,6.54-.59,13.09-1.1,19.64-1.59C539.74,227.78,540.13,228.1,540.46,228.23Z"></path><path d="M539.18,234.11c-1.95,1.07-16.23,2-19.69,1.37-.46-1.4.44-1.72,1.51-1.8,2.61-.18,5.23-.32,7.85-.47s5-.29,7.53-.41C537.42,232.75,538.62,232.37,539.18,234.11Z"></path><path d="M520.78,239.39c.58-.29,1.16-.8,1.75-.82,3.26-.12,6.54-.14,9.81-.1.4,0,.8.56,1.2.86-.31.38-.59,1-.95,1.08a53.93,53.93,0,0,1-11.57.11Z"></path><path d="M374.36,51.67c2.64-1.62,5.61-1.92,8.6-2.15C380.33,51.14,377.34,51.39,374.36,51.67Z"></path><path d="M374.38,53.5l7.42-1.44c-1.31,1.51-4.34,2.22-7.33,2.21Z"></path><path d="M381.36,55.83l-6.14,1.55L375,56.7c1.81-1.26,4-1.35,6-1.75Z"></path></svg>