<svg xmlns="http://www.w3.org/2000/svg" id="Layer_1" data-name="Layer 1" viewBox="0 0 570 380"><defs><style>.cls-1{fill:#cce3ff;}.cls-2{fill:#ddce7c;}</style></defs><path d="M403.8,80.76c6.36-.34,12.29-.6,18.21-1,12.19-.78,24.32.08,36.42,1.53,4.64.55,9.26,1.73,11.51,6.42a24,24,0,0,1,2.33,8.05c1.23,13.87,2.48,27.75,3.21,41.65s.88,27.58,1.15,41.37c.41,21.36.67,42.73,1.05,64.1.11,6.21.39,12.43.6,18.64A22.15,22.15,0,0,1,474.63,275a53,53,0,0,0-7.32,17c-1.87,7.6-4,15.15-6.15,22.68a59.46,59.46,0,0,1-3,7.95c-.95,2.1-2.23,2.34-3.62.56a26.71,26.71,0,0,1-3.67-6.25c-4.37-10.62-8.56-21.31-12.84-32-1.21-3-2.53-6-3.85-9.08-28.11-1.56-56.07,0-84.25,0-.6,1.93-1.19,3.71-1.7,5.51-7.89,28-25.91,48.19-49.55,64a39,39,0,0,1-4.67,2.44,10,10,0,0,1-8.19.36c-8.54-3-17-6.21-24.85-10.82-18.19-10.66-30-26.59-37.8-45.73-2.24-5.48-3.84-11.23-5.9-17.36-1.2,0-2.64,0-4.08,0-8.38-.25-16.76-.52-25.14-.76a16.24,16.24,0,0,1-14.33-8.37,14.73,14.73,0,0,1-1.6-5.34c-1-6.82-1.78-13.66-2.68-20.49a30.78,30.78,0,0,0-.76-3.15l-30.53-1.66c-1.47,5.13-3,10.13-4.34,15.18-2.06,7.7-4.12,15.42-7.89,22.51a62,62,0,0,1-4.6,7.63c-2.32,3.17-3.89,3-5.29-.5-1.48-3.76-2.61-7.66-3.72-11.55-3.47-12.22-6.82-24.47-10.31-36.68a13.39,13.39,0,0,0-2.25-4.74c-4.05-5-5.34-10.86-6.18-16.91A215.53,215.53,0,0,1,92,170.24c.37-8.23,1.46-16.42,2-24.64.93-13.21,1.44-26.45,2.63-39.64,1.1-12.23,2.9-24.4,4.32-36.6.71-6.18,1.09-12.4,1.91-18.56.75-5.62,2.29-7.08,8-8a373.73,373.73,0,0,1,57.26-5.55q22.5-.33,45-1.55c14.44-.78,28.84-2.19,43.27-3.14a541,541,0,0,1,60-1c9.06.4,18.13.37,27.17,1,7,.46,13.94,1.58,20.91,2.4q3.81.45,7.62.82c5,.48,10,.74,14.9,1.44,6.69.93,10.57,5.29,12.15,11.54a148.07,148.07,0,0,1,2.72,15.14C402.6,69.25,403.11,74.75,403.8,80.76Zm-4-10.9c-.14,2-.27,3.93-.41,5.89h.7l-.3-5.89L399,64.7C399,66.47,397.63,68.51,399.84,69.86Zm-26.9,159.6c5.8-.49,11.44-.87,17.06-1.47,4.37-.47,6.68-3.73,6.29-7.84a18.44,18.44,0,0,1,.16-4.39c.27-1.83,1-3.62,1.14-5.45.38-6.48.77-13,.8-19.46.15-29.23.18-58.45.25-87.68,0-6.49,0-13-.06-19.48a77.51,77.51,0,0,0-.51-8.06c-.91-7.9-1.94-15.79-2.9-23.69-.25-2-.61-4.06-2.51-5.3-6.9-4.48-14.29-7.71-22.62-8.07-7.16-.31-14.34-.41-21.5-.35-18.81.16-37.61.43-56.41.7-19.62.27-39.24.38-58.85.93-26.37.75-52.73,1.86-79.09,2.79-6.76.24-13.52.25-20.27.6-6.07.32-12.13.9-18.19,1.5a8.23,8.23,0,0,0-7.56,5.77c-1.74,4.83-3.75,9.55-4.09,14.77-.57,8.77-1.4,17.53-1.82,26.31-.58,12-1,24-1.26,36.08q-.75,39-1.16,77.91a106.72,106.72,0,0,0,1,13.34,10.44,10.44,0,0,0,1.79,5.25c3.11,3.77,4.76,8.16,6,12.72,3.12,11.05,6.11,22.13,9.17,33.2.55,2,1.18,3.92,2,6.8.93-2.12,1.58-3.29,2-4.54,2.2-7.24,4.42-14.47,6.47-21.75,1.5-5.33,2.68-10.75,4.15-16.09,1-3.58,1.71-4,5.5-4q35.72.07,71.44.19h3.35v-5.89c4-.74,7.76-1.16,11.38-2.18,25.37-7.19,46.58-20,59.32-44.22a3.34,3.34,0,0,1,2.09-1.41c.29-.07,1.13,1.06,1.27,1.74,1.13,5.4,4.41,9.52,7.93,13.47,2.43,2.73,4.93,5.41,7.54,8a82.27,82.27,0,0,0,23.05,16.2c11.95-9.81,24.64-12,38.16-4.25.49-.22.79-.26,1-.44,1.67-1.77,3.3-3.58,5-5.34,1.49-1.56,2.95-3.18,4.59-4.59,3-2.63,4.64-1.11,7.78,1.32,1.68,1.3,1.34,2.11-1.25,5-3.46,3.79-6.86,7.63-10.13,11.26C371.25,222.66,372,225.66,372.94,229.46Zm80.64,87.6,1.19-.15c1-3.2,1.93-6.43,3.06-9.6,2.35-6.6,4.82-13.17,7.24-19.75,1.12-3,2.29-6.05,3.35-9.11s2-6.14,3-9.21c.8-2.43,2-4.8,2.36-7.29a167.8,167.8,0,0,0,.57-36.81c-.69-8.34-2-16.63-2.48-25-.6-11.2-.74-22.43-.87-33.65-.2-17.18-.1-34.35-.39-51.53-.11-7-.79-14-1.39-21-.39-4.47-1.59-5.72-5.94-6.3-5.36-.72-10.73-1.45-16.12-1.71-13.09-.63-26.19-1-39.29-1.45-1.17,0-2.34,0-3.74,0,0,2.31,0,4.19,0,6.06.08,11.9.36,23.79.21,35.68-.16,13.12-.65,26.22-1.12,39.33-.22,5.94-.77,11.87-1.1,17.81-.71,12.69-1.35,25.37-2.07,38a61,61,0,0,1-.86,7.64c-.79,4.21-2.47,5.87-6.74,6.3a85,85,0,0,1-10.1.19c-3.47-.06-6.93-.32-10.33-.49-3,9.38-8.27,16.27-16.53,20.78-.56.3-1.28.8-1.4,1.33-.94,4.26-1.76,8.55-2.63,12.93,8.34.23,16.16.49,24,.65,15.14.3,30.28.48,45.42.86,5.12.13,10.22.85,15.34,1.07,4.56.19,5,.29,6.22,4.68,2,7.31,3.61,14.7,5.64,22C449.73,305.29,451.73,311.15,453.58,317.06ZM215.77,227a60.07,60.07,0,0,0-.52,6.16c.1,4.59.13,9.21.64,13.76,1.69,15,4.24,30,10,44.06,6.37,15.64,15.63,29.3,29.49,39.42,9.16,6.67,19.38,11.15,30.05,14.8,3.55,1.21,6.62,1.13,9.56-.9,5.33-3.68,10.85-7.17,15.76-11.36,14.51-12.37,26.38-26.8,32.44-45.22,2.66-8.06,4.59-16.37,6.79-24.58.4-1.49.53-3.06.86-5a20.41,20.41,0,0,1-17.95-2.35,9.19,9.19,0,0,0-1.11-.5C321.27,250.28,317,242,319.52,230.74c.89-4,2.47-7.9,3.78-12a100,100,0,0,1-38.78-35.89,86.23,86.23,0,0,1-29.24,29.4C243.24,219.65,230.43,225.29,215.77,227Zm-4,9.69H176.08q.67,9.61,1.37,19.25c0,.27,0,.62.15.79,1.45,1.63.89,3.56.86,5.41-.09,4.55,0,4.71,4.4,5.63,9.73,2,19.58,1.9,29.44,1.57,1.29-.05,2.57-.25,3.82-.38C214.68,258.18,213.28,247.8,211.79,236.65ZM364.32,227c-1.22,1.39-2,2.3-2.8,3.19-4.63,5.11-9.18,10.29-13.9,15.31-3.42,3.65-4.74,3.65-8.56.6-1.91-1.52-3.8-3.06-5.72-4.54-1.56-1.21-3.17-2.35-5.15-3.81,1.85-2.13,3.45-3.91,5-5.74,1.39-1.66,2.85-1.7,4.62-.58s3.92,2.26,6.09,3.49L359.84,217a10.47,10.47,0,0,0-.85-1.36c-5-5.44-13.87-6.22-21.26-1.69-7.07,4.33-10.39,11-11.69,19a19.59,19.59,0,0,0,6.17,18.38,9.1,9.1,0,0,0,3.36,2.16A20.1,20.1,0,0,0,355,249.67a29.29,29.29,0,0,0,8.44-11.75C364.73,234.64,365.6,231.25,364.32,227Zm-7.4-191.88c-22-2-44.15-2.63-66.28-2.64-13.3,0-61.5,3.51-66.34,4.66ZM97.1,219c-1-39.39,1.23-78.45,1.58-117.52-.76,7.11-1.44,14.21-2,21.33-1,13.86-1.76,27.74-2.84,41.59a216.83,216.83,0,0,0,1.3,46.05C95.58,213.32,96.45,216.14,97.1,219Zm282.13-13.91c-1.41-2-2.75-2.14-4.33-.41-3.91,4.28-7.9,8.48-11.78,12.79-5.23,5.82-10.36,11.72-15.57,17.56-2.81,3.14-3.53,3.22-7.26,1.18-1.51-.83-3-1.71-4.7-2.67-1.12,1.32-2.12,2.47-3.21,3.75l10.95,8.41C356.59,232.89,367.17,218.39,379.23,205.08Zm21.23-46.31c1.16-24.54,2.29-49.08,0-73.62C400.7,109.69,399.25,134.23,400.46,158.77Zm74.22,50-1.8-66.39C473,164.49,471.48,186.67,474.68,208.73Zm-102,23.63v1c2.87.24,5.74.63,8.62.69a85.47,85.47,0,0,0,11.32-.25c3.61-.42,4.82-2.3,4.71-6C389.82,232.89,381,231.2,372.71,232.36Zm-160.46,2.25,0-1q-17.47-.27-35-.52c-.41,0-.82.39-1.44.71C178.87,235.09,208.57,235.6,212.25,234.61Zm251-150.33c-4.55-2.46-32.55-4.44-44.15-2.67ZM173.84,261.76l1.09,0q-.83-11.67-1.65-23.35c0-.4,0-1-.27-1.16a18.77,18.77,0,0,0-2.61-1.42C171.63,245.07,172.73,253.42,173.84,261.76ZM436,276l7.29,18.43.77-.27q-2.14-8.13-4.28-16.27C439.27,276,438.37,275,436,276Zm-73.84-29.52c6-4.14,10-18.05,5.57-23.67-1.76,2.83.68,5.53,0,8.2s-.81,5.35-1.7,7.84A65.83,65.83,0,0,1,362.12,246.43Zm-38.7-2.06c0-4.84-.44-8.9.12-12.82s2.1-7.4,3.22-11.09C322.69,227.74,319.71,235.19,323.42,244.37Zm-154.91-9.72a10.12,10.12,0,0,0-.23-1.2c-5,0-10,0-14.95,0l0,.43ZM394.31,45.59c-2.63-5.24-7.42-6-12.82-6.58ZM136.43,235.11l-1-.36a70,70,0,0,0-4.11,18.31Q133.87,244.08,136.43,235.11Zm215,37c0,.28,0,.56,0,.85a204.09,204.09,0,0,0,24.08-.85ZM175.71,39.46l0-.38H154.84v.38Zm22-.86v-.22H182.23v.22ZM458.94,309.13q-1.8,5.36-3.61,10.72l.78.25A21.28,21.28,0,0,0,458.94,309.13Zm17.45-44.19c-1.56,3.63-2.78,6.48-4,9.34C474.8,271.88,476.52,269.21,476.39,264.94ZM397.31,52.54l-.8.14,1.56,8.39.65-.12Zm-189.09-15v.25h7.25v-.25Zm6.66,233.93,0-.17h-4.23v.17ZM105.35,51.23l.8.31c.57-1.38,1.14-2.75,1.7-4.12l-.85-.34Zm67.39,183-.08-1-2.2.22,0,.8ZM191,270.85v-.28h-2.15v.28Z"></path><path class="cls-1" d="M215.77,227c14.66-1.67,27.47-7.31,39.51-14.74a86.23,86.23,0,0,0,29.24-29.4,100,100,0,0,0,38.78,35.89c-1.31,4.13-2.89,8-3.78,12-2.49,11.29,1.75,19.54,12.24,24.47a9.19,9.19,0,0,1,1.11.5,20.41,20.41,0,0,0,17.95,2.35c-.33,2-.46,3.55-.86,5-2.2,8.21-4.13,16.52-6.79,24.58-6.06,18.42-17.93,32.85-32.44,45.22-4.91,4.19-10.43,7.68-15.76,11.36-2.94,2-6,2.11-9.56.9-10.67-3.65-20.89-8.13-30.05-14.8-13.86-10.12-23.12-23.78-29.49-39.42-5.74-14.1-8.29-29-10-44.06-.51-4.55-.54-9.17-.64-13.76A60.07,60.07,0,0,1,215.77,227Zm42.43,29.8c-4.78.61-6,3.84-6.3,7.8a19.55,19.55,0,0,0-.12,2c.26,7.29.44,14.59.86,21.88a76.48,76.48,0,0,0,1.4,9.61,5.5,5.5,0,0,0,5.3,4.76c2.15.21,4.3.5,6.46.57A185.7,185.7,0,0,0,301,301c2.26-.36,4.49-1,6.71-1.51,3.88-1,5.94-3.49,6.35-7.44.2-1.89.47-3.76.68-5.64a73,73,0,0,0-.54-22.61c-.73-3.57-2.11-6.71-5.91-7.72,0-4.17.27-8.11-.07-12a79.77,79.77,0,0,0-2-12c-1.91-7.84-8-13-16-14a26.55,26.55,0,0,0-28.75,18.15,46.51,46.51,0,0,0-1.63,7.51C259.17,248.07,258.73,252.35,258.2,256.76Z"></path><path class="cls-2" d="M364.32,227c1.28,4.25.41,7.64-.88,10.92A29.29,29.29,0,0,1,355,249.67a20.1,20.1,0,0,1-19.43,3.83,9.1,9.1,0,0,1-3.36-2.16A19.59,19.59,0,0,1,326,233c1.3-8,4.62-14.71,11.69-19,7.39-4.53,16.25-3.75,21.26,1.69a10.47,10.47,0,0,1,.85,1.36l-15.95,17.95c-2.17-1.23-4.19-2.27-6.09-3.49s-3.23-1.08-4.62.58c-1.54,1.83-3.14,3.61-5,5.74,2,1.46,3.59,2.6,5.15,3.81,1.92,1.48,3.81,3,5.72,4.54,3.82,3.05,5.14,3.05,8.56-.6,4.72-5,9.27-10.2,13.9-15.31C362.32,229.3,363.1,228.39,364.32,227Z"></path><path d="M365,81.23c1.09,7.06.45,8-6.13,8-18,0-36-.25-54-.2q-74.48.18-149,.5c-4.19,0-8.38-.2-12.57-.4-1.62-.08-3.23-.31-4.05-2.12-1.57-3.49.16-6.22,4-6.2,25,.1,50,.28,75.07.26q69.61,0,139.21-.23C360.07,80.79,362.59,81.08,365,81.23ZM142,83.7c-.59,2.16.7,2.54,2.17,2.6,4.46.19,8.92.45,13.38.43,43.14-.16,86.29-.45,129.43-.56,20.56,0,41.12.21,61.68.3,3.78,0,7.57-.07,11.35-.17,1.78,0,2.36-.87,1.41-2.6Z"></path><path d="M142.66,125.35c32.72,0,65.73.12,98.74,0,31.79-.16,63.59-.66,95.38-.91,6.22-.05,12.44.28,18.66.55,2.93.13,3.31.57,3.5,2.84.27,3.22-.21,4.1-3,4.65a31.4,31.4,0,0,1-6,.62c-26.39,0-52.77,0-79.15,0-25.17.06-50.34.28-75.5.31-10.42,0-20.84-.34-31.25-.4-4.87,0-9.74.24-14.6.37-1.08,0-2.17.16-3.25.09C141.29,133.16,139.76,130,142.66,125.35Zm.75,3.73c1.19.79,1.76,1.47,2.35,1.5,1.89.1,3.78-.05,5.68-.1,4.59-.12,9.18-.35,13.77-.31,5.95.05,11.9.47,17.85.45,20.15-.07,40.3-.39,60.46-.38,32.19,0,64.38.28,96.58.35,4.72,0,9.44-.43,14.16-.73a11.36,11.36,0,0,0,2.6-1.08,12.73,12.73,0,0,0-2.67-1.17,34.82,34.82,0,0,0-4.45-.23q-37.94.27-75.88.57-63.92.39-127.82.72A21.49,21.49,0,0,0,143.41,129.08Z"></path><path d="M144.07,179.23c1.89,0,3.64.09,5.37,0,21.91-1.39,43.78-.63,65.68.51,15.12.79,30.27.89,45.41,1.18a53.86,53.86,0,0,0,8.47-.82,2.27,2.27,0,0,0,1.51-1.43c.26-1.17-.62-1.65-1.71-1.67s-2.44,0-3.66,0c-30.83,0-61.66,0-92.5-.08-8.11,0-16.22-.42-24.32-.68a9.09,9.09,0,0,1-3.17-.52c-.58-.23-.91-1.1-1.35-1.69.65-.31,1.31-.91,1.95-.89,10.53.33,21.05,1,31.58,1.06,28.94.16,57.89.08,86.83.1,1.75,0,3.51,0,5.27.07,1.47.05,3.36-.13,3.71,1.69a15.16,15.16,0,0,1-.19,5.53c-.1.53-1.51,1.05-2.37,1.13a117.38,117.38,0,0,1-13.72,1.08c-15.28-.3-30.56-.61-45.81-1.44-21.36-1.15-42.7-1.59-64.06-.18-.67,0-1.35.1-2,.08-3.33-.12-4.62-1.8-3.77-5.06a2.3,2.3,0,0,1,1.29-1.23c.21-.09.92.52,1.09.93A14.06,14.06,0,0,1,144.07,179.23Z"></path><path d="M258.2,256.76c.53-4.41,1-8.69,1.59-12.94a46.51,46.51,0,0,1,1.63-7.51,26.55,26.55,0,0,1,28.75-18.15c8,1,14.09,6.12,16,14a79.77,79.77,0,0,1,2,12c.34,3.88.07,7.82.07,12,3.8,1,5.18,4.15,5.91,7.72a73,73,0,0,1,.54,22.61c-.21,1.88-.48,3.75-.68,5.64-.41,3.95-2.47,6.48-6.35,7.44-2.22.55-4.45,1.15-6.71,1.51a185.7,185.7,0,0,1-35.16,2.4c-2.16-.07-4.31-.36-6.46-.57a5.5,5.5,0,0,1-5.3-4.76,76.48,76.48,0,0,1-1.4-9.61c-.42-7.29-.6-14.59-.86-21.88a19.55,19.55,0,0,1,.12-2C252.17,260.6,253.42,257.37,258.2,256.76Zm15,43.53v.5c6.34-.45,12.69-.72,19-1.41,4.82-.53,9.6-1.51,14.37-2.48,2.55-.52,4.36-1.92,4.59-4.89s.9-6.16,1.15-9.25c.53-6.63.52-13.25-1.29-19.72-.92-3.32-1.66-4-4.72-4q-23.52.29-47,.8c-3.62.08-4.27.82-4.42,4.38a153,153,0,0,0,1.63,31.93c.52,3.1,1.38,3.94,4.56,4.06C265.07,300.41,269.13,300.29,273.18,300.29Zm24.86-44c0-2.15.11-3.75,0-5.34-.5-5.64-.84-11.3-3.38-16.55-1.88-3.87-4.85-5.54-9.09-5.41-6.85.21-11.51,3.3-13.88,9.82-2,5.61-2.24,11.52-2.45,17.48Zm-32.07.37c.67-5.1,1.17-9.79,1.91-14.44,1.7-10.7,8.67-16.31,19.42-15.89,4,.15,7.14,1.8,8.91,5.32a35.67,35.67,0,0,1,3.29,9c1,5,1.31,10.1,1.95,15.4.78.05,1.56.15,2.34.13a5.27,5.27,0,0,0,1.3-.39,62.73,62.73,0,0,0-1.5-22.84c-1.66-7-6.49-10.79-13.22-12.07-8.88-1.69-19.44,3.32-24,11.09-4.45,7.62-4.47,16.13-5.1,24.65Z"></path><path class="cls-1" d="M298,256.31H269.22c.21-6,.42-11.87,2.45-17.48,2.37-6.52,7-9.61,13.88-9.82,4.24-.13,7.21,1.54,9.09,5.41,2.54,5.25,2.88,10.91,3.38,16.55C298.15,252.56,298,254.16,298,256.31Z"></path><path d="M281.59,282c-1.07-.57-1.81-.91-2.48-1.34-3.36-2.12-4.43-5.12-3.11-8.66a8.6,8.6,0,0,1,9.26-5.65,7.3,7.3,0,0,1,6.65,6.57c.17,2.79-.53,5.54-3,7.15a4.37,4.37,0,0,0-2,4.43c.13,2.83.32,5.66.33,8.49,0,2.53-.58,3.21-2.5,3.32-2.18.13-3.05-.64-3.11-3.17C281.52,289.51,281.59,285.87,281.59,282Z"></path></svg>