<svg xmlns="http://www.w3.org/2000/svg" id="Layer_1" data-name="Layer 1" viewBox="0 0 570 380"><defs><style>.cls-1{fill:#9ed67b;}</style></defs><path class="cls-1" d="M317.27,129.78a15.89,15.89,0,0,0-.42,2.66c-.47,6.26,1.26,12.49,3.86,18.12,1.3,2.82,3,6.07,5.62,7.89,2.77,1.92,7.24,2.23,10.53,2.46a3.6,3.6,0,0,0,1.5-.11,3.82,3.82,0,0,0,1.63-1.51l9-12.53c2.45-3.41,4.95-6.87,8.28-9.42,2.29-1.75,5.46-3.23,6.95-5.82,1.23-2.14.6-6.55-.38-8.72-1.05-2.36-3.16-3.8-5.33-5s-4.31-3.23-6.9-3.74a17.77,17.77,0,0,0-3.65-.14c-4.09,0-7.45-1.12-11.52-.22a29.52,29.52,0,0,0-10.79,5.2C321.56,121.82,318.42,125.15,317.27,129.78Z"></path><path d="M328.29,369.58l-2.14,1.25c0-.85-.21-1.3-.08-1.63,2.55-6.45,5-13,7.76-19.31a38.59,38.59,0,0,1,12.28-15.58c10.85-8.23,20.14-18.08,28.71-28.62a31.28,31.28,0,0,0,2.5-3.64c1.12-1.86,2.09-3.81,3.22-5.66,4.93-8.14,7.64-17.07,9.26-26.35a29.72,29.72,0,0,0,.27-7.77,10.75,10.75,0,0,0-4.8-8.28c-1.47-1-3-2-4.69-3.11a11.19,11.19,0,0,0,.19,5.77c.58,1.68,1.34,3.31,2,4.92-1.13.89-1.59.25-2-.47a15.59,15.59,0,0,1-2.22-7.91c.06-3.55-.13-7.11-.3-10.66a9.5,9.5,0,0,0-4.39-7.6,61.21,61.21,0,0,0-7.7-4.87c-.19,5.14,2.93,9.05,3.87,13.5l-.59.31c-.39-.22-1-.35-1.13-.68-2.1-4.76-4.29-9.48-4.26-14.89a34.93,34.93,0,0,0-1.55-10.53c-1.19-3.89-3.46-6.76-7.38-8.16L347,206.7c-2.54,4-3.9,8.13-5.29,12.65a2.52,2.52,0,0,1-.86-3.13,46.21,46.21,0,0,1,2.33-6.06c2.68-5.35,5.51-10.62,8.27-15.94a27.4,27.4,0,0,0,1.45-3.05c3.24-8.74,8.25-16.63,12.06-25.09,3-6.64,5.65-13.43,8.68-20.69-4,2.14-7,.35-9.91-1.5s-3.58-4.19-2.2-7.39c.44-1,1-2,1.74-3.53A10.8,10.8,0,0,0,361.5,134c-2.65,2.62-5.55,5-7.83,8a222.76,222.76,0,0,0-16.84,24.41c-2.54,4.32-4.34,9.07-6.62,13.56a97.78,97.78,0,0,1-5.09,9c-3.92,6-8,12-12.06,17.92-2.61,3.79-5.16,7.64-8.08,11.18a209.45,209.45,0,0,0-18,24.58,17.39,17.39,0,0,1-7.37,6.39,6.38,6.38,0,0,1-1.78.33l-.28-.54L306.43,210a7.69,7.69,0,0,0-2.19.22,40.27,40.27,0,0,0-6.85,3.62,87.2,87.2,0,0,0-15.86,15.74,41.82,41.82,0,0,0-9.07,23.7,238.78,238.78,0,0,1-3.84,29.68,77.53,77.53,0,0,1-2.11,8.33,24.06,24.06,0,0,0-.56,13.83,31.11,31.11,0,0,1,.54,3.44c-.95,0-1.14-1.5-2.3-.66-.62.45-1-.66-1-1.37,0-2.6,0-5.2.08-7.8.07-2.08.35-4.16.34-6.23a81.25,81.25,0,0,1,2-18.32c1.67-7.53,3.07-15.12,4.73-22.65,1.3-5.85,2.63-11.73,5.76-16.93a113.45,113.45,0,0,1,6.55-9.69c2.39-3.19,5-6.24,7.62-9.24a63.88,63.88,0,0,1,5.67-5.73,11.51,11.51,0,0,1,8.66-2.86c4.38.25,3.45.66,5.86-2.88,4.84-7.1,9.72-14.17,14.35-21.41,3.36-5.26,6.35-10.76,9.48-16.16a16.32,16.32,0,0,0,.75-1.68,35.13,35.13,0,0,1-5-2.38c-3.14-2.14-6.17-4.46-9.14-6.83a3.73,3.73,0,0,0-2.78-1c-3.63.25-7.28.45-10.92.59-10.06.4-20.13.88-30.19,1.1a21.72,21.72,0,0,1-14.72-5.64c-2.67-2.26-3.57-5.54-3.86-8.87-.79-9.06,3.07-16,10.26-21.19a14,14,0,0,1,8.34-2.46c15.28-.09,30.56-.29,45.85-.43a4.53,4.53,0,0,0,2.87-.93,34.14,34.14,0,0,1,16.3-6.36,6.16,6.16,0,0,1,4,.55,12.35,12.35,0,0,0,3.25.86,28.12,28.12,0,0,1,10.21,5,14.53,14.53,0,0,1,4.64,5.85c.83,1.8,1.63,3.61,2.51,5.55,3.26-1.4,6.19-.62,9,1.05a5.68,5.68,0,0,1,3,5.9,22.15,22.15,0,0,1-1,4.57c-3.43,9.73-6.85,19.47-10.45,29.14-1.48,4-3.35,7.81-5.18,11.65-2,4.23-4.08,8.44-6.33,12.55-2,3.57-4.21,7-6.32,10.46-.22.36-.41.74-.75,1.34a7.37,7.37,0,0,0,1,.22c10.69.23,18,9.92,17,19.34a13.3,13.3,0,0,1-.11,1.55,2.38,2.38,0,0,0,1.47,2.94c2.22,1.19,4.3,2.64,6.55,3.75,5.15,2.54,7.85,6.57,7.3,12.32-.3,3.26.62,5.34,3.55,6.93,2.1,1.14,3.84,3,5.69,4.52a7.86,7.86,0,0,1,2.67,5.73c.33,4.13-.71,8.11-1.26,12.14-1.37,10.1-5.78,18.85-11.89,26.83-4,5.17-7.81,10.43-12,15.37-3.43,4-7.31,7.64-11.08,11.36s-7.68,7-11.23,10.86c-5.78,6.19-10.75,12.94-13.16,21.27-.82,2.83-2,5.56-3.06,8.3a4,4,0,0,1-1.29,1.87c-.7.44-.83-.16-.59-.78a21.61,21.61,0,0,0,1.44-2.62c1.35-3.59,2.61-7.21,3.9-10.82.27-.76.55-1.5.82-2.25l-.57-.11-.18,2.42c-.41.46-1,.85-1.2,1.39-1.38,3.51-2.69,7.06-4,10.6A6.46,6.46,0,0,0,328.29,369.58Zm-34-141.36-1.64,1.56.5.38c.36-.66.72-1.33,1.09-2l1.55-2.11,2.09-2.59c.22-.11.51-.16.65-.33q4.81-6,9.58-12a12.79,12.79,0,0,0,.9-1.54c-1.09-.37-1.39.31-1.79.85q-4.35,5.83-8.68,11.67a6.68,6.68,0,0,0-.6,1.36l-2.1,2.59Zm27.83-108.37c-.89-.06-1.58-.16-2.27-.16l-41.38.3c-.95,0-1.91,0-2.86.07a11.29,11.29,0,0,0-6.5,2.38c-5.21,4.08-8.77,9.23-9,16-.33,8.55,2.93,12,9,14.35a26.54,26.54,0,0,0,11.22,1.7c2.42-.16,4.85-.21,7.28-.31L315.69,153c.67,0,1.32-.18,2.15-.29C311.05,140.73,313.93,130.13,322.14,119.85Zm42.11,9.94a36.07,36.07,0,0,0-1.71-4.16c-3.35-6-7.87-10.66-15.12-11.36-6.33-.62-12.28.39-16.95,5.36-2.25,2.39-4.63,4.68-7,7-.78.76-2,1.25-2.45,2.15A21.29,21.29,0,0,0,318.23,141c.45,5.19,6.25,13.47,10.91,15.75a22.74,22.74,0,0,0,8,1.9,3.63,3.63,0,0,0,3.66-1.83c3.64-5.28,7.39-10.48,11.16-15.67a40.55,40.55,0,0,1,9.39-9.28Zm12.5,5.52a4.1,4.1,0,0,0-2.25-4.54c-2-1-4-2.06-6.37-.93a1.92,1.92,0,0,0-.79.64c-1.51,2.51-3,5-4.44,7.56a2.78,2.78,0,0,0,.79,3.53,12.16,12.16,0,0,0,5.93,3,2.6,2.6,0,0,0,1.92-.43C374.36,141.75,376.8,139.09,376.75,135.31ZM336,163.58l1.37-2.16c-13.48-2.9-20.43-11.31-21.38-24.84-.9,5.14-.18,9.81,2.16,13.4C322.4,156.53,328.44,160.81,336,163.58ZM264.72,289.79c3.23-10.44,4.53-21.19,5.35-32-2,9-3.7,18.1-5.31,27.2A28.69,28.69,0,0,0,264.72,289.79Zm118.46,3.88c3-3.53,5.84-10.37,6.93-16.05.55-2.89,1.18-5.78,1.49-8.7a55.65,55.65,0,0,0,.16-7.75,10.32,10.32,0,0,0-1.08-2.87c-.2.62-.33.79-.29.92,1.37,4.45,1,8.9-.08,13.33C388.6,279.8,387,287.1,383.18,293.67ZM354.53,193c3.84-8,8.75-15.58,11.5-24.16C361.64,176.6,357.24,184.37,354.53,193Zm-7.12,142.7c-5.58,3.83-9.26,9.05-12.2,15.62C339.49,345.81,343.41,340.8,347.41,335.68ZM304,209.15c-4.28-.46-9.77,3.21-12,7.91C295.7,213.74,299.17,210.76,304,209.15ZM281.85,245l.6.43c3.76-3.9,6.14-8.82,9.23-13.22l-.45-.33Zm46.37-66q-4.14,6.66-8.27,13.32C323.4,188.32,326.93,184.33,328.22,179.05ZM316.73,197.8c-2.86,2.43-6.08,7.49-5.77,9.13ZM319.62,128c.89-1.36,1.74-2.76,2.68-4.09s2-2.57,3-3.85C322.39,122,320.19,124.37,319.62,128Zm60.64,120.3.54,0c.74-3.59.37-6.77-1.14-8.77.22,1.64.48,3.07.58,4.51S380.26,246.83,380.26,248.26Zm-15.59-31.62-.53.13q.6,2.43,1.21,4.88l.48-.12Zm-37.4-98.8.22.31,1.53-1.1-.22-.31Z"></path><path d="M256.14,104.48c-.62,3.26-1.19,7.31-2.21,11.24a27.28,27.28,0,0,1-8.09,13.13,68.64,68.64,0,0,1-16.16,10.83c-6.49,3.28-13.52,3.5-20.61,2.29-1.54-.26-3.07-.58-4.59-.92A17.35,17.35,0,0,1,193.16,133a38.92,38.92,0,0,1-5.54-23.18c.35-6.65,1.71-13.06,5.21-18.89,3.39-5.66,7.59-10.33,14-12.59a22.82,22.82,0,0,0,2.49-1.4c2.55-1.29,5.08-2.62,7.68-3.81,2-.93,4.1-1.33,6.24-.12a4.84,4.84,0,0,0,2,.35,27.67,27.67,0,0,1,10.93,3.08c1.86.94,3.71,1.89,5.55,2.88C251.48,84.53,255.37,93.14,256.14,104.48Zm-61.69,6.72c0,9.4.72,13.13,2.79,17.82a12.78,12.78,0,0,0,5.49,6.43c6,3.22,12.25,4.84,18.88,1.77a77.76,77.76,0,0,0,16.13-10,33.29,33.29,0,0,0,8.93-11.07,17.44,17.44,0,0,0,1.3-3.65c1.9-7.58.47-14.82-2.46-21.85a17.72,17.72,0,0,0-8.13-8.86,34.15,34.15,0,0,0-18.54-4.15A18.91,18.91,0,0,0,208,81.58c-2.46,1.92-4.85,3.93-7.25,5.92a9.72,9.72,0,0,0-2.9,4.54A68.15,68.15,0,0,0,194.45,111.2Zm59.37-10.86A84.06,84.06,0,0,1,242.58,129C251.19,123.33,254.87,110.45,253.82,100.34Zm-12.68-18.4c7,6,8.51,14.23,9.61,22.83C253.38,93.64,249.62,85.62,241.14,81.94ZM241,127.42,225,138C232,136.79,237.46,133.53,241,127.42Zm-47.37-26.6c-2.87,9-2,24,1.79,28.71C191.48,119.91,192.49,110.37,193.62,100.82Zm-1.26-4.55c-2.9,5.78-3.77,16-2,24.17,0-4.1-.27-8.14.07-12.14S191.68,100.34,192.36,96.27Zm3.54-6.73.33.35,1.06-1.54-.28-.21Z"></path><path d="M384.65,69.87c-.2,5.87-1,11.15-3.34,16.12a16.33,16.33,0,0,1-1.62,3c-5.16,7-11.39,12.16-20.48,13.32-9.28,1.19-17.14-1.29-23.74-7.84-3.94-3.92-5.73-8.87-6.21-14.26a46.58,46.58,0,0,1,1.3-14.72,23.25,23.25,0,0,1,6.92-11.69,8.59,8.59,0,0,0,2-2.31c3.38-7.19,13.54-10.52,20-9.24,6,1.2,11.72,3.25,16.18,7.74a47.78,47.78,0,0,1,3.15,3.78c.27.33.36.87.68,1.09,3.71,2.58,4,6.7,4.77,10.57A36,36,0,0,1,384.65,69.87Zm-47.58,4.55c0,2.26,0,4.51,0,6.76A9.13,9.13,0,0,0,338.72,86C346,97.48,364,99.44,372.84,88a48.94,48.94,0,0,0,5-7.89,21.14,21.14,0,0,0,.29-19.51c-2-4.11-5-7.21-8.39-10.14-4.3-3.74-9.35-4.43-14.64-3.26s-9.81,4.23-14,7.63a7.43,7.43,0,0,0-2.61,4.35A57.3,57.3,0,0,0,337.07,74.42Zm13.36,26.17.11-.37c-.46-.22-.91-.46-1.39-.66-6.74-2.73-11.55-7.23-13.32-14.53a7.39,7.39,0,0,0-.47-1.21,29,29,0,0,1-2.56-12.4c.05-3,.49-6,.8-9.34-.4,1.06-.73,1.8-1,2.58a43.3,43.3,0,0,0-1.75,13.12c.25,10.24,5.18,17.41,14.72,21.28C347.16,99.69,348.82,100.09,350.43,100.59ZM343.62,94c4.42,4.06,9.65,5.94,15.65,4.56a90.87,90.87,0,0,0,9.84-3.17c6-2.13,8.07-7.3,9.86-12.67C370.34,98.68,356.22,100.43,343.62,94Zm18.85-48.84c-6.23-2.58-14.46-.9-18.35,3.7C349.94,46.07,355.81,43.54,362.47,45.15Zm14.71,9.62c-.94-2.25-4.3-5.49-5.82-5.84ZM334.37,72.54l.49,0q.3-3.33.61-6.68l-.64,0Zm48.33-4h-.11V70.3h.11Z"></path><path d="M287.32,9.21a13.64,13.64,0,0,1,12.91,6.31,6.76,6.76,0,0,0,1.63,1.66,14.9,14.9,0,0,1,5.46,7.74c3.43,10.36,3.44,20.59-1,30.73A47.7,47.7,0,0,1,291,75.37a25.39,25.39,0,0,1-14.92,5.36A19.55,19.55,0,0,1,263.21,76a26.93,26.93,0,0,1-9-14,42.36,42.36,0,0,0-1.7-4.9,34.91,34.91,0,0,1-1.06-25.66,26.39,26.39,0,0,1,9.42-13.11C268.75,12.4,277.65,9.66,287.32,9.21ZM254.53,50.35a25.56,25.56,0,0,0,5.26,15.41,12.75,12.75,0,0,0,10.93,5.53,68,68,0,0,0,10.84-1.09c6.54-1.22,12.69-3.53,17.93-7.8a6.74,6.74,0,0,0,1.85-2.07,42,42,0,0,0,3.92-12.08c1.48-9.38-.41-18.25-3.85-26.95a8,8,0,0,0-6.18-5.22c-9.76-2.21-18.91-.29-27.77,3.84a16.32,16.32,0,0,0-8,8.17A51.09,51.09,0,0,0,254.53,50.35Zm33.85,24.33a41.06,41.06,0,0,1-14.94.66,25.92,25.92,0,0,1-13.38-6.13C266,79.7,278.65,81.9,288.38,74.68ZM265.92,17.54c-10.82,4.24-17.35,20.53-13.42,33,.08-1,.13-1.65.19-2.29.31-3.7.48-7.43,1-11.11a24.34,24.34,0,0,1,7.85-15.4C262.87,20.48,264.16,19.2,265.92,17.54ZM297.64,66c-7.49,4.52-15.29,6.23-23.3,7.32C283.57,75.3,294.17,71.88,297.64,66ZM275,14.85c7.17-1.41,14.3-2.37,21.54-.49a8.55,8.55,0,0,0-7.11-3.25A31,31,0,0,0,275,14.85Zm29.22,8.5a54.46,54.46,0,0,1,3.27,18.56C308.77,38,306.87,26.78,304.24,23.35Z"></path><path d="M199.83,192.27a35.07,35.07,0,0,1,10-22.58,19.63,19.63,0,0,1,11-5.49,25.68,25.68,0,0,1,13.83.93,13.65,13.65,0,0,1,2.81,1.33A26.81,26.81,0,0,1,248.88,183c1.6,6.91-1.32,12.53-6,17.38-1.32,1.36-2.71,2.68-3.94,4.12-5.91,6.93-13.27,9.09-22,6.77-1.75-.46-3.47-1.07-5.23-1.54C205.49,208,199.3,199.45,199.83,192.27Zm18.32,16.59c7.06,0,16.21-3.53,21-8a4.42,4.42,0,0,0,.83-1c3.3-5.58,4.88-11.53,3.22-18-1.88-7.27-6.82-11.93-13.59-14.74-6.3-2.61-14.3-.3-18.54,5-3.73,4.73-5.54,10.15-6.39,16-.21,1.41-1,2.85-.84,4.19a21.67,21.67,0,0,0,5.19,12.28C211.57,207.41,214.55,209.22,218.15,208.86Zm17.75-41.33-.53.45c9.18,7,12.51,15.88,9.08,27.09,2.71-3.74,3.76-7.79,2.61-12.22a27.33,27.33,0,0,0-7.76-12.69A36.62,36.62,0,0,0,235.9,167.53ZM203.53,199c-.57-2.24-1.15-4.48-1.75-6.82C201.55,195.12,201.94,196.85,203.53,199Zm23,10.57.22.54,3.71-1.29-.17-.51Z"></path><path d="M270.87,197.5a4.16,4.16,0,0,1,4.15,4.11,4.06,4.06,0,0,1-4,4.16,4.17,4.17,0,0,1-4.2-4.06A4.3,4.3,0,0,1,270.87,197.5Zm.07,1.92a2.16,2.16,0,0,0-2.27,2.25,2.27,2.27,0,0,0,2.26,2.3,2.4,2.4,0,0,0,2.32-2.3A2.24,2.24,0,0,0,270.94,199.42Z"></path><path d="M312.94,79.71a3.93,3.93,0,0,1,3.88,4,3.83,3.83,0,0,1-3.73,3.85A3.93,3.93,0,0,1,309,83.74,4.09,4.09,0,0,1,312.94,79.71Zm-.07,2a1.93,1.93,0,0,0-2,1.93A2.1,2.1,0,0,0,313,85.73a2.23,2.23,0,0,0,2-2A2,2,0,0,0,312.87,81.71Z"></path><path d="M225.79,42.29c-.36-.85-.79-1.69-1.07-2.58a1.16,1.16,0,0,1,.34-1.05,1.12,1.12,0,0,1,1.08.27A17.36,17.36,0,0,1,227.41,41c1.42.09,2.21-1.75,3.75-.88.13,1.86-1.89,1.78-2.53,2.86-.52,1.44,2,2.64.08,4.47l-2-3.05c-1.26-.45-2.27,2.18-3.94.21Z"></path><path d="M173.61,161.35a10.14,10.14,0,0,1,.49,2,6.36,6.36,0,0,1-.35,1.56c-.44-.29-1-.5-1.29-.91a7.5,7.5,0,0,1-.66-1.73c-1.23-.65-2.54,1.19-3.61-.82L171,159.9a13.82,13.82,0,0,1-.46-2.13c0-.35.27-.73.42-1.1.42.19,1,.27,1.23.6a10.25,10.25,0,0,1,.82,2.07,11.67,11.67,0,0,1,2-.37,1.2,1.2,0,0,1,1,.53,1.23,1.23,0,0,1-.46,1A11.15,11.15,0,0,1,173.61,161.35Z"></path><path d="M403.82,100.59A2.67,2.67,0,0,1,400.93,98a2.86,2.86,0,0,1,2.75-3.09,3,3,0,0,1,2.94,2.68A2.82,2.82,0,0,1,403.82,100.59Zm1.23-2.74c-.55-.45-.91-1-1.24-.94s-.7.52-1.05.81c.3.34.57.92.92,1S404.43,98.25,405.05,97.85Z"></path><path d="M206.92,247.78a2.43,2.43,0,0,1-2.28-2.37,2.3,2.3,0,1,1,4.59,0A2.41,2.41,0,0,1,206.92,247.78Z"></path><path d="M167.92,89.89a2.36,2.36,0,0,1-2.41,2.19,2.25,2.25,0,0,1,.11-4.49A2.37,2.37,0,0,1,167.92,89.89Z"></path><path d="M390.24,34.23a2.11,2.11,0,0,1-2.06,2.19,2.15,2.15,0,0,1-2.26-2.26,2.12,2.12,0,0,1,2.2-2.06A2.1,2.1,0,0,1,390.24,34.23Z"></path><path d="M331.7,143.52l5.39,4.86c1.2-1.44,2.18-2.62,3.18-3.79a15.6,15.6,0,0,1,1.25-1.32c.54-.52,1.24-.91,1.76-.15a1.72,1.72,0,0,1-.17,1.56q-1.91,2.46-4,4.76c-1.29,1.4-2.14,1.54-3.6.35a63.82,63.82,0,0,1-5.11-4.76,2.25,2.25,0,0,1-.12-3.28c2.28-2.71,4.48-5.5,6.89-8.1,1.73-1.86,2.08-1.76,4.17-.31.5.35,1,.69,1.47,1.07s1.11,1.09.43,1.72a1.88,1.88,0,0,1-1.6.06,17,17,0,0,1-2.35-1.52A56.4,56.4,0,0,0,331.7,143.52Z"></path><path d="M343.88,139.32c2.39-3.06,4.56-5.85,6.81-8.72l-4.57-4.18-2.92,3a6.14,6.14,0,0,1-1.29,1.26,4.39,4.39,0,0,1-1.57.21,5.28,5.28,0,0,1,.08-1.65,4.09,4.09,0,0,1,1-1.17c1.15-1.18,2.31-2.36,3.47-3.52a1.59,1.59,0,0,1,2.5,0c1.64,1.54,3.31,3.06,5,4.59a1.68,1.68,0,0,1,.25,2.53c-2.35,3-4.66,6-7.11,9-1.1,1.32-1.74,1.32-3.13.32a18.74,18.74,0,0,1-2.93-2.55c-.27-.3,0-1.06,0-1.6.47,0,1.06-.13,1.4.1C341.79,137.55,342.68,138.36,343.88,139.32Z"></path><path d="M207,119c-.86-3.13-1.79-5.75-2.27-8.45-.78-4.52-1.3-9.09-1.89-13.65-.36-2.79,0-3.2,2.72-4a126.1,126.1,0,0,1,20.23-3.33c3-.32,6-.61,9.07-.73s4.26.68,5.15,3.65a54.33,54.33,0,0,1,1.53,7.36c.44,2.91.7,5.85,1,8.78.32,3.15-.24,4.39-3.27,5.32a116.15,116.15,0,0,1-12.59,3.09c-4.51.84-9.08,1.36-13.64,1.87A56.87,56.87,0,0,1,207,119Zm1.54-1.58a132.32,132.32,0,0,0,30.43-5c-3-4.24-6-8-10.28-10.56l-2.93,2.33a5.31,5.31,0,0,1-6.51.51c-1.48-.87-3-1.64-4.75-2.57A46.2,46.2,0,0,0,208.57,117.39Zm-1.76-23-.22.64c1.21.81,2.37,1.69,3.63,2.42,2.84,1.66,5.72,3.26,8.6,4.85,3.51,2,4.38,2,7.33-.86,3.26-3.11,6.29-6.46,9.41-9.71a10.94,10.94,0,0,0,.79-1.28C226.11,91.2,216.37,92.15,206.81,94.43ZM238,91.9l-7.57,8.15,10.39,10.86C240.29,104.37,240,98.22,238,91.9Zm-33.18,4.33c-.06,3.58,1.78,15.06,2.63,16.77l5.24-11.91Z"></path><path d="M369.31,63.65c4.1.63,5.21,1.92,5.2,5.87a11.93,11.93,0,0,1-3.36,8.72,31.24,31.24,0,0,0-3.35,4.91c-.33.5-.44,1.16-.8,1.63a7.82,7.82,0,0,1-1.34,1.06,5.64,5.64,0,0,1-1.11-1.52,18.8,18.8,0,0,1-.48-2.88c-1.43.59-2.67,1.18-4,1.61-4,1.32-5.88.68-8.25-2.65a2.8,2.8,0,0,0-2.31,1.8c-.54,1-1,2-1.56,3-.37.69-.79,1.63-1.67,1.22a2.65,2.65,0,0,1-1-1.84c-.44-3-.8-6-1.1-9-.24-2.33-.38-4.66-.49-7a7.71,7.71,0,0,1,3.68-7,25.64,25.64,0,0,1,11-4.48c5.17-.79,7.73.47,10.19,5.12C368.79,62.62,369,63.08,369.31,63.65ZM346.78,82.22l.68.17c.84-2.73,3.1-3.66,5.34-4.64,2.54-1.11,5.12-2.15,7.57-3.43a60.36,60.36,0,0,0,6.6-4.08,3.36,3.36,0,0,0,1.15-4.2A38.59,38.59,0,0,0,366,61.33a5.12,5.12,0,0,0-4.76-2.62c-4.61-.08-8.62,1.56-12.41,4a6.52,6.52,0,0,0-3.34,6.32C345.81,73.45,346.33,77.83,346.78,82.22Zm23.15-16.61a5.18,5.18,0,0,1-1.42,5.66,16.26,16.26,0,0,1-3.27,2.53c-2.19,1.2-4.49,2.21-6.74,3.3l-4.78,2.28c.66,2.13,2.09,2.73,3.73,2.37a43.31,43.31,0,0,0,5.34-1.86c.83-.31,1.64-.66,2.57-1l.92,2.57c1.58-1.92,3.08-3.69,4.51-5.52a10.24,10.24,0,0,0,1.78-8.11C372.41,66.6,371.76,65.71,369.93,65.61Z"></path><path d="M271.74,57.54c-.81,1.14-1.64,2.46-2.62,3.65a7.08,7.08,0,0,1-1.83,1.17c-.33-.66-.92-1.31-1-2-.11-2.42-.13-4.86,0-7.28a4,4,0,0,0-.74-2.89C261.7,45,263.81,36.68,268.24,33a28.06,28.06,0,0,1,13.11-5.92,40.72,40.72,0,0,1,7.24-.57,7.76,7.76,0,0,1,7.17,4.36,31.2,31.2,0,0,1,3.54,15.28c0,4.3-2.23,7.39-6.25,9.05a35.34,35.34,0,0,1-19.59,2.42l-1.27-.19A1.8,1.8,0,0,0,271.74,57.54Zm-3.57,1.59a7.08,7.08,0,0,0,1.11-1.31c1-2.14,2.59-2.59,4.69-2a4.91,4.91,0,0,0,.76.17,33.87,33.87,0,0,0,18-2.65c2.51-1.11,4.35-3,4.59-5.85a27.56,27.56,0,0,0-3.48-16.26,5,5,0,0,0-4.15-2.79,35.68,35.68,0,0,0-6.7.17A26,26,0,0,0,269,34.81c-3.25,2.91-5.35,10-1.66,14.69a4.54,4.54,0,0,1,.9,3.37C268.07,54.75,268.17,56.64,268.17,59.13Z"></path><path d="M220.08,187.9c1.13,1.19,2.18,2.3,3.42,3.63,1.19-1.23,2.18-2.28,3.2-3.31,1.76-1.77,2.89-1.88,4.59,0,1.86,2,3.47,4.3,5.3,6.61a28.86,28.86,0,0,1-2,3.42c-4,5.09-13.57,6.25-18.65,2.14-5.82-4.73-8.44-12.83-5.95-19.62a12.84,12.84,0,0,1,.85-1.89c1.5-2.72,3.12-3.33,6-2.35a13.32,13.32,0,0,1,5.57,3.7c1.34,1.44,1.41,2.22.32,4C222,185.35,221.14,186.44,220.08,187.9Zm9.14.47c-1.43,1.43-2.45,2.48-3.51,3.5-1.9,1.8-2.5,1.83-4.32.06a22.21,22.21,0,0,1-2.23-2.51c-1.29-1.69-1.25-1.7,0-3.36.91-1.23,1.8-2.48,2.65-3.66a11.5,11.5,0,0,0-4.8-3.89c-2.64-1.12-3.74-.71-4.92,1.86-2.54,5.56-1.26,12.15,3.33,17a12.17,12.17,0,0,0,16.24,1.18,30.22,30.22,0,0,0,3-3.32Z"></path><path d="M222.31,174.37a10,10,0,0,1,1.9,0,12.09,12.09,0,0,1,6.91,3.9,74.92,74.92,0,0,1,4.95,7c.26.39.16,1,.31,2.21a10.34,10.34,0,0,1-1.8-1.39c-.84-1.21-1.56-2.5-2.37-3.73a14.08,14.08,0,0,0-8.58-6.31,7.19,7.19,0,0,1-1.61-.82Z"></path><path d="M230.82,184.79l-7.1-4.95c1.89-1.33,3.18-.09,4.36.62,1.54.92,3.11,2,3.25,4Z"></path><path d="M232.25,175.49c-2.11-1.26-4.14-2.47-6.15-3.71-.12-.07,0-.47-.06-1,2.5-.21,4.21,1.23,5.93,2.57C232.57,173.82,233.24,174.38,232.25,175.49Z"></path><path d="M357.1,69.83A2.13,2.13,0,0,1,355,67.66a2.25,2.25,0,0,1,2.49-2.08,1.87,1.87,0,0,1,1.92,2A2.21,2.21,0,0,1,357.1,69.83Z"></path><path d="M350.91,72.32A2.07,2.07,0,0,1,349,70a2.11,2.11,0,0,1,2.32-1.93,1.87,1.87,0,0,1,1.93,2A2.32,2.32,0,0,1,350.91,72.32Z"></path><path d="M363,67.15a2,2,0,0,1-2-1.94A2,2,0,0,1,362.67,63a1.89,1.89,0,0,1,2,1.92A2,2,0,0,1,363,67.15Z"></path><path d="M284.16,38.75c-1.74,2.37-1.74,2.37-3.86,1.68-.48,1.94,1.46,3.88-.05,6.15a6.11,6.11,0,0,1-1-1.54c-.46-1.75-.78-3.54-1.21-5.31-.22-.87-.5-1.86.51-2.24.56-.21,1.38.22,2.06.44a4.77,4.77,0,0,1,1,.68,10,10,0,0,1,.9-1.49,18.77,18.77,0,0,1,1.64-1.44c.48.56,1,1.11,1.43,1.69a2.27,2.27,0,0,1,.29.72c.65,2,1.33,3.93,1.92,5.92.09.31-.19.74-.31,1.12-.43-.15-1.11-.17-1.26-.47a19.5,19.5,0,0,1-1.11-2.9C284.78,40.86,284.53,40,284.16,38.75Z"></path><path d="M275.46,47c-.17-1.73-1.35-1.92-2.3-2-3-.4-3.16-3.37-1.67-5.16a9.41,9.41,0,0,1,2.62-2.06c1.06-.58,1.93-.17,2.64,1.07-2,.83-4.43,1-4.26,4,.84.28,1.66.51,2.45.83,1.84.75,2.71,2.31,2.19,3.88-.35,1.05-2.91,2.52-4.09,2.28a1.06,1.06,0,0,1-.65-.67,1,1,0,0,1,.46-.83C273.67,47.83,274.54,47.47,275.46,47Z"></path><path d="M291.67,34.53a2.87,2.87,0,0,1-.84.42,1.2,1.2,0,0,0-1.15,1.64c.15.54.77,1,1.28,1.36s1,.27,1.44.52a3.17,3.17,0,0,1,1.4,3.81c-.53,1.33-1.77,1.91-4,1.58.6-.63,1-1.1,1.44-1.49,1.29-1.13,1.18-1.94-.42-2.59a4.85,4.85,0,0,0-.75-.19A2.65,2.65,0,0,1,287.9,37a3.71,3.71,0,0,1,1.39-3.69C290.31,32.58,291,32.9,291.67,34.53Z"></path></svg>