<svg xmlns="http://www.w3.org/2000/svg" width="76" height="76" viewBox="0 0 76 76"><g id="engineer-icon" transform="translate(-271 -3485)"><circle id="Ellipse_2" data-name="Ellipse 2" cx="38" cy="38" r="38" transform="translate(271 3485)" fill="#222"></circle><g id="trust" transform="translate(288.426 3214.477)"><path id="Path_24596" data-name="Path 24596" d="M20.547,285.351a1.176,1.176,0,0,0-.118.018,1.158,1.158,0,0,0-.6.282l-.017.017a42.608,42.608,0,0,1-5.347,3.153c-3.242,1.626-7.463,3.219-11.2,3.219H2.116v16.569c0,8.461,4.6,14.284,9.114,17.877a32.849,32.849,0,0,0,9.037,5.1l.359.12.366-.12a32.843,32.843,0,0,0,9.037-5.1c4.51-3.594,9.114-9.416,9.114-17.877V292.04H37.98c-3.732,0-7.946-1.593-11.188-3.22a42.865,42.865,0,0,1-5.381-3.177,1.155,1.155,0,0,0-.615-.283h-.017q-.052-.007-.1-.009h-.017q-.055,0-.111,0Zm.081,11.579A11.57,11.57,0,1,1,9.058,308.5a11.57,11.57,0,0,1,11.57-11.57Zm6.334,5.776a1.735,1.735,0,0,0-1.2.522L18.9,310.105,15.492,306.7a1.736,1.736,0,0,0-2.452,2.459l4.63,4.63a1.736,1.736,0,0,0,2.45,0l8.1-8.106a1.736,1.736,0,0,0-1.254-2.974Z" transform="translate(0)" fill="#fff" fill-rule="evenodd"></path></g></g></svg>