<svg xmlns="http://www.w3.org/2000/svg" width="333.875" height="339.2" viewBox="0 0 333.875 339.2"><defs><style>.a{fill:#b9e199;}.a,.b{stroke:#707070;}.b{fill:#45ac3d;}</style></defs><g transform="translate(-850 -1455)"><g transform="translate(69 42.102)"><path class="a" d="M-2651.009,2204.078s-.478,20.777,18.462,27.989a37.738,37.738,0,0,0,11.82,2.2c30.948,1.232-11.82,6.352-11.82,6.352s-12.758,13.258,11.82,19.388,27.294,21.521,27.294,21.521,2.263,43.142,7.739,50.969,8.712,26.1,16.854,9.3a88.407,88.407,0,0,0,8.285-33.829s10.789,2.889,10.886-5,2.6-42.962,2.6-42.962-22.74-31.727-36.562-38.694-33.267-17.9-43.725-17.24S-2651.009,2204.078-2651.009,2204.078Z" transform="translate(3630 -699)"></path><path class="b" d="M-2751.8,2266.9s12.04-22.025,31.646-35.394,26.274-15.462,26.274-15.462,6.437,10.238,3.914,16.763-3.388,13.761,7.271,20.917,13.437,9.669,7.759,31.27-15.03,30.588-15.03,30.588l5.169-23.444s-12.87,10.162-19.923,6.863-27.092-12.808-27.092-12.808Z" transform="translate(3630 -699)"></path><g transform="translate(781 1412.898)"><path d="M343.607,340.518c-2.135,3.984-4.121,7.958-6.31,11.817-2.15,3.79-4.388,7.542-6.81,11.161a99.345,99.345,0,0,1-6.667,8.81c-2.677,3.17-5.535,6.2-8.443,9.158a14.138,14.138,0,0,1-3.584,2.375,2.061,2.061,0,0,1-1.754-.139c-1.525-1-1.536-1.117-2.926.086a59.085,59.085,0,0,1-14.386,8.951,150.944,150.944,0,0,1-15.535,6.142c-5.089,1.661-10.35,2.831-15.584,4-3.458.773-6.994,1.21-10.508,1.714-2.75.394-5.519.659-8.28.979-2.8.324-5.6.685-8.4.954-3.03.291-6.065.586-9.105.712-4.143.171-8.306.427-12.436.2a56.029,56.029,0,0,1-16.423-3.677,108.519,108.519,0,0,1-18.036-8.564c-2.772-1.656-5.532-3.332-8.312-4.973-.442-.261-.989-.339-1.444-.583a21,21,0,0,1-2.517-1.486q-3.529-2.583-6.986-5.263c-2.321-1.8-4.676-3.559-6.881-5.491-2.248-1.969-4.39-4.069-6.473-6.213a62.238,62.238,0,0,1-9.883-13.144c-2.517-4.534-5.035-9.076-7.319-13.729a86.06,86.06,0,0,1-6.46-17.582c-1.188-4.879-2.582-9.708-3.79-14.582-1.2-4.858-2.28-9.748-3.431-14.619-.622-2.633-1.377-5.237-1.9-7.889a62.322,62.322,0,0,1-.969-7.073c-.328-4.154-.592-8.317-.71-12.481-.056-1.977.3-3.964.432-5.95a7.011,7.011,0,0,0-.164-1.34c-.406.184-.83.337-1.216.556q-4.59,2.605-9.169,5.23c-1.04.592-2.1,1.154-3.127,1.764a.66.66,0,0,0-.139,1.172,44.235,44.235,0,0,0,3.593,3.533c1.31,1.038,2.306,2.043,2.356,3.88.016.584.905,1.261,1.536,1.687,1.587,1.074,3.329,1.926,4.862,3.066a2.411,2.411,0,0,1,.756,3.08,2.73,2.73,0,0,1-3.444,1.161q-11.487-4-22.966-8.017c-4.243-1.493-8.469-3.035-12.693-4.58-1.045-.382-2.047-.881-3.082-1.292a1.953,1.953,0,0,0-2.451.732,8.156,8.156,0,0,1-6.019,3.2c-2,.078-4,.184-5.894-.9a9.394,9.394,0,0,1-4.957-5.983,5.635,5.635,0,0,1,.442-4.58,31.143,31.143,0,0,0,1.341-3.655c1.705-3.833,5.959-5.5,9.988-4.671a10.215,10.215,0,0,1,7.516,5.5,1.327,1.327,0,0,0,1.881.761c3.837-1.224,7.693-2.389,11.54-3.584a7.192,7.192,0,0,0,3.692-1.932,3,3,0,0,1,2.219-.906c3.529.342,6.721-.971,10.025-1.768,3.15-.76,6.3-1.532,9.491-2.1a38.246,38.246,0,0,1,4.493-.084,1.208,1.208,0,0,0,.78-.838,57.021,57.021,0,0,1,4.6-15.106,98.025,98.025,0,0,1,7.526-13.755,79.976,79.976,0,0,1,5.943-7.905c3.167-3.756,6.474-7.4,9.794-11.02,1.759-1.919,3.656-3.713,5.521-5.533a2.475,2.475,0,0,0,.9-2.168,10.466,10.466,0,0,1-.008-1.325c.079-7.041.147-14.082.247-21.122.039-2.7.146-5.4.237-8.1.067-1.977.156-3.953.239-5.929q.239-5.748.48-11.5c.091-2.257.192-4.515.237-6.773.1-4.99.155-9.982.257-14.972a1.888,1.888,0,0,0-1.285-2.011,9.213,9.213,0,0,1-5.241-6.155,6.71,6.71,0,0,1,.483-5.4,2.3,2.3,0,0,1,3.335-.883c.494.289.987.342,1.246-.288,1.407-3.413,6-2.971,8.148-.92.639.611,1.208,1.306,1.9,1.847a1.455,1.455,0,0,0,1.237.223c1.489-.684,2.9-1.538,4.388-2.221,1.006-.461.749-.972.2-1.519a38.7,38.7,0,0,0-6.295-5.437,17.783,17.783,0,0,0-7.609-2.635c-4.506-.59-8.688.606-12.808,2.113a4.618,4.618,0,0,0-3.306,3.226,1.643,1.643,0,0,1-2.225,1.175,2.272,2.272,0,0,1-1.722-1.937c-.366-2.172.754-3.648,2.36-4.774a24.047,24.047,0,0,1,11.7-4.329,41.4,41.4,0,0,1,7.77-.206,17.2,17.2,0,0,1,9.362,3.806c2.53,2.084,4.871,4.406,7.21,6.709a1.91,1.91,0,0,0,2.668.349c1.969-1.149,3.942-2.3,5.987-3.3a12.813,12.813,0,0,1,3.136-.858c1.4-.278,2.184.688,2.855,1.659.633.916.17,2.063-.976,2.662a2.8,2.8,0,0,1-.849.274c-2.428.382-4.179,2.136-6.316,3.1-3.862,1.734-7.766,3.375-11.638,5.088a12.151,12.151,0,0,0-2.742,1.5,3.667,3.667,0,0,0-1.264,1.973,6.356,6.356,0,0,1-3.477,4.758c-2.029.958-1.654,2.488-1.646,4.035,0,.691.209,1.38.217,2.071.028,2.451.042,4.9,0,7.355-.047,2.942-.142,5.883-.237,8.823-.059,1.816-.161,3.631-.236,5.447q-.245,5.869-.483,11.738c-.078,1.9-.188,3.791-.235,5.688-.1,4.026-.163,8.052-.248,12.079-.075,3.544-.167,7.088-.227,10.632a3.723,3.723,0,0,0,.255.974c.256-.193.52-.376.766-.58,2.815-2.328,5.595-4.7,8.449-6.978,2.7-2.157,5.476-4.227,8.231-6.319a228.073,228.073,0,0,1,19.064-13.341,79.2,79.2,0,0,1,19.115-8.881,72.8,72.8,0,0,1,9.49-2.1c3.985-.595,8.019-.87,12.035-1.242a29.62,29.62,0,0,1,4.6-.211,3.1,3.1,0,0,0,3.088-1.573q4.929-7.609,9.882-15.2a2.4,2.4,0,0,0,.269-2.216c-.763-2.21.263-3.784,2.51-3.681,1.139.052,1.408-.784,1.808-1.39,1.491-2.259,2.865-4.6,4.3-6.892a1.075,1.075,0,0,0-.218-1.594,11.729,11.729,0,0,1-3.553-9.964c.106-1.4.495-2.777.651-4.175a1.436,1.436,0,0,0-.457-1.194c-2-.981-4.033-1.9-6.112-2.7-.235-.09-1.05.657-1.2,1.138a24.942,24.942,0,0,0-1.292,5.359,22.956,22.956,0,0,0,1.1,9.764,4.773,4.773,0,0,0,3,2.941c.875.357,1.845.506,2.384,1.535a2.011,2.011,0,0,1-1.445,3.028c-2.382.188-4.545-.244-6.217-2.177a4.908,4.908,0,0,0-2.881-1.8,4.267,4.267,0,0,1-2.978-3.348,21.567,21.567,0,0,1,1.921-16.321c.088-.168.253-.295.348-.46.122-.211.209-.442.312-.665a4.11,4.11,0,0,0-.721-.294,6.122,6.122,0,0,1-1.785-.338,1.887,1.887,0,0,1-1.007-2.293,2.7,2.7,0,0,1,2.429-1.712,7.31,7.31,0,0,1,1.924.015c1.8.393,2.551-.867,3.592-1.935a78.679,78.679,0,0,1,6.491-6.005,2.384,2.384,0,0,1,3.644.6c.754,1,.552,2.252-.562,3.377-1.358,1.371-2.735,2.722-4.088,4.1-.987,1-.917,1.065.343,1.554,1.175.455,2.256,1.15,3.422,1.635.786.327,1.462.56,2.255-.445a9.981,9.981,0,0,1,8.4-4.113c3.673.095,8.159,3.4,9.234,6.865.74,2.384-.885,5.779-3,5.873a33.947,33.947,0,0,1-5.332-.472,3.794,3.794,0,0,1-1.137-.446,1.968,1.968,0,0,0-2.349.3,3.168,3.168,0,0,1-2.09.564c-1.017-.091-1.6.075-1.478,1.037.208,1.63.416,3.334,1.588,4.625a2.439,2.439,0,0,0,1.5.68,2.015,2.015,0,0,1,1.862,1.292c.964,2.24,2.97,2.877,4.932,1.45a15.617,15.617,0,0,0,2.041-2.017,10.117,10.117,0,0,1,1.482-1.645,2.322,2.322,0,0,1,1.759-.3,1.881,1.881,0,0,1,1.462,1.749c.154,2.451-1.26,4.061-2.893,5.5A9.963,9.963,0,0,1,268.512,124a1.037,1.037,0,0,0-.669,1.4,42.134,42.134,0,0,1,1.673,9.195,1.858,1.858,0,0,0,.24.741c.938,1.607.377,3.346.5,5.029.251,3.529.622,7.05.943,10.575q.243,2.673.482,5.347a14.767,14.767,0,0,0,.292,2.9,2.647,2.647,0,0,0,1.305,1.56c3.075,1.217,6.275,2.133,9.3,3.459,4.289,1.88,8.568,3.834,12.66,6.1,6.328,3.507,12.588,7.158,18.7,11.031a58.893,58.893,0,0,1,12.377,10.86,84.789,84.789,0,0,1,9.048,12.878c.147.246.476.383.721.571,0-.275.01-.551-.013-.824-.072-.852-.224-1.7-.227-2.553-.021-5.641-.1-11.284.02-16.922.078-3.722.444-7.438.7-11.156.145-2.145.323-4.288.478-6.432.09-1.252.11-2.512.258-3.757.133-1.12-.467-1.657-1.281-2.271-2.518-1.9-4.69-4.033-5.536-7.3a4.94,4.94,0,0,1,2.184-5.538,2.344,2.344,0,0,0,1.282-1.993c.451-2.625,1.66-5.152,4.361-5.8a5.364,5.364,0,0,1,4.474,1.241c2.88,2.153,5.326,4.712,6.4,8.283,1.427,4.757-1.056,10.7-6.054,12.309-.746.24-1,.542-1.031,1.284q-.194,4.544-.475,9.085c-.13,2.146-.337,4.287-.471,6.433q-.273,4.36-.483,8.723c-.1,2.1-.24,4.194-.229,6.291.018,3.424.132,6.847.229,10.27a46.142,46.142,0,0,0,.294,5.679,6.831,6.831,0,0,0,1.415,3.006A100.749,100.749,0,0,1,351.25,226.8a52.791,52.791,0,0,1,5.572,12.761c.7,2.776,1.411,5.559,1.882,8.378a72.948,72.948,0,0,1,.965,8.76c.212,4.784.369,9.584.219,14.366-.111,3.54-.754,7.064-1.144,10.6a24.967,24.967,0,0,0-.233,3.034,75.106,75.106,0,0,1-1.226,16.863c-.849,3.942-1.607,7.913-2.682,11.795a120.216,120.216,0,0,1-6.391,17.484c-1.463,3.232-3.027,6.418-4.606,9.685M200.174,291.743c.231.311.443.639.7.931,2,2.3,4.651,3.3,7.545,3.91,2.494.526,3.764,1.4,4.416,4.064a2.02,2.02,0,0,0,1.46,1.722,10.85,10.85,0,0,1,1.633.708c4.928,2.257,9.6,4.832,13.059,9.222a28.908,28.908,0,0,1,5.048,8.769,15.61,15.61,0,0,1,.756,8.175c-.409,1.969-.642,3.979-1.136,5.925a34.145,34.145,0,0,1-5.635,11.158c-3.2,4.536-6.478,9.038-10,13.328a73.077,73.077,0,0,1-7.1,6.912,7.44,7.44,0,0,1-1.9.9c-.739.351-1.732.529-2.158,1.114a31.479,31.479,0,0,0-3.848,6.108,93.245,93.245,0,0,0-5.154,16.076,70.5,70.5,0,0,1-1.981,6.772c-.248.761.226.861.655,1.028.866.337,1.754.616,2.631.926a61.781,61.781,0,0,0,17.392,3.4,37.935,37.935,0,0,0,4.239-.219c2.666-.159,5.335-.285,8-.492,2.476-.192,4.947-.453,7.417-.718q4.2-.45,8.4-.963c3.211-.387,6.429-.738,9.626-1.22a86.738,86.738,0,0,0,9.539-1.718c6.019-1.614,12.059-3.246,17.909-5.367a127.546,127.546,0,0,0,13.347-6.184,60.321,60.321,0,0,0,13.782-10.054,99.051,99.051,0,0,0,8.439-8.915c3.169-3.764,6.132-7.71,9.058-11.67a124.816,124.816,0,0,0,12.132-20.53,179.257,179.257,0,0,0,7.045-17.942c.407-1.158.125-1.744-1.031-2.294a4.394,4.394,0,0,1-2.612-4.148c-.056-3.093,1.1-5.847,2.314-8.572,1.254-2.819,2.7-5.552,3.975-8.362a23.253,23.253,0,0,0,1.923-8.124,76.765,76.765,0,0,0,.435-7.756c-.109-3.17-.522-6.336-.943-9.485a22.425,22.425,0,0,0-1.168-4.935c-.923-2.44-1.688-2.5-3.235-.443-2.78,3.7-5.609,7.375-8.254,11.174-3.527,5.065-6.885,10.247-10.342,15.362a68.637,68.637,0,0,0-6.651,13.523c-.61,1.55-1.377,3.242-3.18,3.546a17.493,17.493,0,0,1-5.33.022c-4.532-.653-7.7-3.3-9.8-7.289-2.854-5.4-4.522-11.236-6.308-17.044-2.031-6.607-2.767-13.414-3.559-20.218-.37-3.181-.489-6.39-.75-9.584-.218-2.675-.361-5.364-.75-8.015a78.9,78.9,0,0,0-1.686-8.581c-1.669-6.349-5.979-10.352-12.035-12.376-3.974-1.328-8.135-2.085-12.183-3.2-5.674-1.567-10.711-4.167-13.642-9.589a8.944,8.944,0,0,1-.392-7.582c.452-1.179.161-1.12-.764-1.169a5.874,5.874,0,0,1-2.545-.512c-1.655-.951-1.377-3.584-.286-4.723,1.135-1.185,2.267-2.38,3.488-3.472a12.83,12.83,0,0,1,4.983-3.092,2.783,2.783,0,0,0,.585-.332,2.6,2.6,0,0,0-.642-.374c-1.318-.319-2.661-.547-3.964-.916a19.137,19.137,0,0,1-9.185-5.778c-.887-.987-.962-.957-1.373.382a3.749,3.749,0,0,1-6.641,1.529,15.54,15.54,0,0,1-2.989-5.525,43.2,43.2,0,0,1-2.277-14.114c0-.14-.242-.385-.4-.409a3.1,3.1,0,0,0-1.2-.007c-4.61,1.186-9.264,2.234-13.8,3.647-5.394,1.68-10.691,3.675-16.024,5.55-.708.249-1.032.63-.63,1.5a36.364,36.364,0,0,1,1.877,4.765,15.059,15.059,0,0,1,.344,8.133c-.613,2.429-1.38,4.819-2,7.247a9,9,0,0,0-.525,3.56,9.912,9.912,0,0,0,5.017,6.809c2.693,1.61,5.48,3.061,8.227,4.58a13.459,13.459,0,0,1,6.162,7.393,18.412,18.412,0,0,1,.732,9.5c-.557,3.465-1.055,6.942-1.7,10.391-1.368,7.3-4.1,14.166-6.886,21.017-2.194,5.4-4.227,10.868-6.374,16.29-.912,2.3-1.761,4.562.115,6.8a.95.95,0,0,1,.134.185c.395.813.352,2.874-.3,3.423a2.167,2.167,0,0,1-2.99.244c-.14-.1-.381-.063-.575-.09a1.767,1.767,0,0,0-.024.663c.72,1.871,1.466,3.733,2.326,5.718m-67.767,32.316c.228,1.032.385,2.086.7,3.092,1.147,3.7,2.219,7.434,3.556,11.067a136.238,136.238,0,0,0,5.371,13.2,120.208,120.208,0,0,0,6.5,10.694,14.756,14.756,0,0,0,5.221,5.268c1.285.718,2.833,1.379,3.6,2.514a38,38,0,0,0,3.394,4.248c1.344,1.487,2.513,3.132,3.775,4.694a24.152,24.152,0,0,0,3.45,4.081,83.913,83.913,0,0,0,7.823,5.235c2.516,1.545,5.135,2.922,7.714,4.364a5.03,5.03,0,0,0,.73.274,7.489,7.489,0,0,0,.136-.775c.167-2.3.205-4.625.514-6.91a19.551,19.551,0,0,1,3.764-9.143,136.135,136.135,0,0,1,9.7-11.416c3.385-3.586,7-6.974,10.7-10.233,2.973-2.616,6.225-4.914,9.361-7.343,1.823-1.412,3.789-2.667,5.458-4.24a15.783,15.783,0,0,0,3.792-6.124,14.189,14.189,0,0,0,.593-9.234,11.964,11.964,0,0,0-4.8-6.543c-3.368-2.322-6.7-4.731-10.631-6.056a9.124,9.124,0,0,0-4.887-.7c-4.2.84-7.177,3.554-9.62,6.66a104.624,104.624,0,0,0-8.571,12.71,93,93,0,0,0-7.54,17.122,47.637,47.637,0,0,0-2.667,11.68c-.264,3.93-.775,7.848-.909,11.781-.122,3.577.136,7.166.19,10.75a2.247,2.247,0,0,1-2.163,2.464A2.7,2.7,0,0,1,174,384.758c-.051-1.254-.166-2.505-.232-3.759-.168-3.189-.413-6.377-.451-9.567a49.582,49.582,0,0,1,.457-5.707c.2-1.954.4-3.914.731-5.848.753-4.338,1.581-8.663,2.4-12.989.479-2.529.833-5.1,1.54-7.565,1.211-4.224,2.477-8.449,4.055-12.545a90.013,90.013,0,0,1,5.066-10.915,13.356,13.356,0,0,1,8.105-6.822c2.419-.682,4.887-1.191,7.3-1.881,2.168-.62,4.58-.944,4.842-4.027.1-1.224.024-1.726-1.232-1.986a15.861,15.861,0,0,1-9.065-4.863,21.467,21.467,0,0,1-4.463-8.873,12.106,12.106,0,0,1-.16-6.909,5.45,5.45,0,0,0-.076-4.251c-.336-.745-.685-1.487-.96-2.254a28.268,28.268,0,0,0-4.569-8.585c-3.088-3.745-7.217-6.064-11.644-7.933a105.478,105.478,0,0,1-10.641-4.857c-6.1-3.42-11.489-7.911-17.044-12.135-2.271-1.727-4.55-3.451-6.719-5.3-1.781-1.52-3.4-3.231-5.1-4.841-.33-.312-.772-.806-1.089-.756-.379.06-.8.558-.99.966-.6,1.316-1.145,2.662-1.631,4.025-.476,1.335-1.487,2.554-.9,4.155a2.151,2.151,0,0,1-.22,1.213,23.854,23.854,0,0,0-.934,2.622c-.47,2.271-.774,4.576-1.241,6.848-.926,4.512-2.045,8.988-2.831,13.523a50.874,50.874,0,0,0-.511,7.75c-.077,4.3-.037,8.6-.01,12.9a20.954,20.954,0,0,0,.249,3.394c.422,2.463.976,4.9,1.421,7.363q1.006,5.561,1.93,11.137c.438,2.641.791,5.3,1.22,7.938.285,1.762.666,3.508.949,5.27.28,1.743.491,3.5.853,5.366m168.574-40.033c1.166,3.414,2.163,6.9,3.543,10.222,1.457,3.51,3.433,6.621,7.692,7.447a2.1,2.1,0,0,0,2.6-1.009A39.079,39.079,0,0,0,317,295.927c2.234-5.913,2.8-12.144,3.407-18.367a61.281,61.281,0,0,1,.992-7.188,11.272,11.272,0,0,1,3.824-6.724,5.594,5.594,0,0,1,4.428-1.137c.958.13,2.219.422,2.857-.036a5.82,5.82,0,0,0,2.267-3.081,56.1,56.1,0,0,0,.8-7.4q.294-3.513.483-7.034c.187-3.509.411-7.019.469-10.531.08-4.821-.014-9.645.037-14.467a9.965,9.965,0,0,0-1.2-5.181,45.5,45.5,0,0,0-5.586-8.529c-3.631-4.019-7.242-8.062-11.018-11.942a100.713,100.713,0,0,0-7.705-6.995c-2.533-2.114-5.156-4.141-7.883-6q-4.709-3.2-9.682-6.016a97.733,97.733,0,0,0-8.8-4.355c-3.228-1.416-6.559-2.6-9.842-3.891-.939-.37-1.673-.481-2.239.685-.814,1.678-2.13,1.987-3.578.843a5.617,5.617,0,0,1-1.658-2.166,3.1,3.1,0,0,0-2.666-2.271c-1.4-.16-2.769-.521-4.165-.695-3.486-.435-6.972-.938-10.474-1.173a58.109,58.109,0,0,0-6.889.206c-2.307.121-4.61.307-6.914.475a3.173,3.173,0,0,0-3.134,3.439c.353,2.738.993,5.439,1.547,8.149a33.287,33.287,0,0,0,.84,3.269,4.318,4.318,0,0,0,.729,1.057,6.89,6.89,0,0,0,.2-1.182,5.808,5.808,0,0,0-.222-.986c-.487-2.693-1.033-5.378-1.409-8.087a4.633,4.633,0,0,1,.432-2.567,1.932,1.932,0,0,1,2.463-1.1,5.028,5.028,0,0,1,2.309,2.181c1.064,2.366,1.785,4.884,2.726,7.309a16.1,16.1,0,0,0,4.034,6.154c2.774,2.543,6.315,3.455,9.887,4.024a64.549,64.549,0,0,0,8.857.734,19.306,19.306,0,0,1,11.572,4.119c1.224.927,1.644,1.991,1.089,3.071a2.343,2.343,0,0,1-3.247,1.282,5.211,5.211,0,0,1-1.23-.514c-.608-.393-.9-.237-1.074.423a2.716,2.716,0,0,1-2.238,2.05c-2.653.645-5.264,1.461-7.911,2.135-2.725.694-5.369,1.446-6.762,4.257-1.079,2.178-1.8,4.428-.421,6.674a14.36,14.36,0,0,0,6.578,5.22c3.6,1.667,7.524,2.261,11.354,3.148,5.768,1.335,11.015,3.581,15.109,8.083a22.369,22.369,0,0,1,5.236,10.009,85.674,85.674,0,0,1,1.468,8.8c.413,3.15.7,6.319.973,9.485.151,1.729.162,3.47.258,5.2.056,1.013.119,2.028.244,3.034.3,2.4.607,4.8.966,7.2.317,2.108.608,4.229,1.091,6.3.671,2.88,1.51,5.72,2.4,8.7M191.13,252.071c1.264-1.023,2.518-2.057,3.794-3.065a40.229,40.229,0,0,1,4.31-3.286c1.819-1.072,4.438.484,4.162,2.581a42.711,42.711,0,0,1-1.15,5.181c-1.108,4.238-2.277,8.46-3.373,12.7-.089.343.2.783.312,1.179.209-.3.423-.6.62-.9.037-.057-.017-.165.008-.237.88-2.528,1.709-5.076,2.663-7.576,1.311-3.433,2.921-6.764,4.036-10.256,1.49-4.666,2.639-9.44,3.913-14.174a41.965,41.965,0,0,0,1.438-10.372,10.618,10.618,0,0,0-6.555-10.485c-3.946-1.872-7.847-3.8-10.744-7.261a11.614,11.614,0,0,1-3.14-7.842,26.264,26.264,0,0,1,1.016-5.589c.6-2.387,1.6-4.694,2-7.107.494-2.95-.707-5.69-1.884-8.346a1.267,1.267,0,0,0-1.938-.767c-1.973.949-4.05,1.69-5.993,2.692-4.111,2.12-8.294,4.143-12.212,6.585a93.919,93.919,0,0,0-19.394,15.74,3.352,3.352,0,0,0-.924,1.883c-.17,3.136-.232,6.279-.273,9.421-.04,3.093-.2,6.2.06,9.276a21.227,21.227,0,0,1-.052,6c-.319,1.623-1.984,3.244-3.949,1.959-1.092-.714-1.048-1.933-1.1-3-.063-1.366.166-2.743.2-4.118.1-4.225.169-8.451.248-12.677.007-.394.005-.789.008-1.183a7.188,7.188,0,0,0-1.117,1.013c-.869,1.195-1.711,2.413-2.5,3.663-1.889,2.99-3.77,5.986-5.575,9.026a1.736,1.736,0,0,0,.056,1.582c1.6,1.977,3.241,3.937,5.019,5.756a46.706,46.706,0,0,0,4.022,3.349,41.135,41.135,0,0,0,11.088,6.988c1.872.719,3.732,1.473,5.624,2.134,2.424.848,4.95,1.445,7.3,2.459a89.232,89.232,0,0,1,12.848,7.406c1.529.989,3.157,1.95,5.085.987a17.769,17.769,0,0,0,2.037-1.316m-63.185,77.9c.643,1.9,1.254,3.82,1.941,5.708.431,1.185.961,2.335,1.486,3.482.073.16.371.218.565.323a2.247,2.247,0,0,0-.045-.5c-1.07-3.334-2.247-6.637-3.193-10.006-.793-2.826-1.4-5.713-1.935-8.6-.443-2.376-.628-4.8-1-7.19-.525-3.39-1.1-6.772-1.684-10.152-.466-2.694-.859-5.409-1.5-8.062a62.888,62.888,0,0,1-1.6-11.62c-.154-3.006-.059-6.027-.018-9.04.019-1.387.1-2.749-1.075-3.785a.614.614,0,0,1-.138-.418,51.441,51.441,0,0,1,.041-6.305c.385-3.2,1.145-6.361,1.625-9.557a77.431,77.431,0,0,1,3.09-12.47c.759-2.332,1.531-4.671,2.5-6.92,1.426-3.309,3.044-6.536,4.548-9.812a6.143,6.143,0,0,0,.283-1.4,4.373,4.373,0,0,0-.984.852c-1.656,2.684-3.2,5.441-4.915,8.084a57.319,57.319,0,0,0-6.1,13.022,75.56,75.56,0,0,0-2.693,12.261,91,91,0,0,0-.975,10.927c-.122,3.295.08,6.6.215,9.9a33.439,33.439,0,0,0,.487,4.62c.488,2.674,1.073,5.332,1.674,7.984q1.685,7.434,3.439,14.851,1.614,6.8,3.315,13.577c.842,3.342,1.76,6.664,2.644,10.236M261.912,140.05c.3-.241.61-.474.9-.725,1.06-.91,2.418-1.631,2.115-3.4-.411-2.4-.735-4.815-1.239-7.194a12.158,12.158,0,0,0-1.271-3.312c-.434-.784-1.33-.68-1.827.107-2.025,3.208-4.041,6.423-6.009,9.667a1.314,1.314,0,0,0,.076,1.178c1.11,1.522,2.252,3.027,3.476,4.457,1.1,1.288,1.482,1.237,2.741.028.273-.262.609-.459,1.037-.806m-64.27,232.362c-1.135,1.376-2.381,2.676-3.376,4.146a43.066,43.066,0,0,0-3.466,5.9,20.654,20.654,0,0,0-1.552,5.241,8.554,8.554,0,0,0,.359,5.4c.389.786.8,1.7,1.693,1.521.449-.092.832-1.127,1.013-1.8.916-3.4,1.669-6.844,2.644-10.226a49.33,49.33,0,0,1,4.379-11.186c.1-.177-.032-.492-.057-.742-.222.1-.518.131-.652.3-.328.408-.582.877-.986,1.442M87.068,270.279a8.848,8.848,0,0,0,1.623-.709,1.021,1.021,0,0,0,.293-.939c-.819-1.162-1.7-2.283-2.63-3.359-.148-.172-.646-.109-.964-.053a20.9,20.9,0,0,0-2.083.483q-5.43,1.553-10.848,3.143c-.182.053-.31.29-.463.441a2.183,2.183,0,0,0,.524.263c2.82.554,5.659,1.021,8.459,1.664,2.131.489,4.183.973,6.09-.933M244.548,153.555a9.079,9.079,0,0,1,.941-.928c2.389-1.77,4.818-3.488,7.163-5.315a1.61,1.61,0,0,0,.249-1.5c-.55-1.182-1.3-2.271-1.96-3.4-.352-.6-.6-.53-.976.029-2.555,3.837-5.141,7.654-7.7,11.486-.136.2-.274.542-.193.716a.9.9,0,0,0,.668.345c.939.074,1.491-.407,1.813-1.433M188.477,259.547c2.063,2.078,4.153,4.135,5.111,7.022.048.145.3.224.451.334a1.631,1.631,0,0,0,.219-.447c.174-1.214.235-2.452.509-3.642.613-2.66,1.333-5.3,2-7.944.089-.352.125-.717.185-1.076a10.477,10.477,0,0,0-.932.629c-2.216,1.854-4.313,3.907-7.465,4.065-.269.014-.521.391-.78.6a6.62,6.62,0,0,1,.7.46m152.9-25.563c-.08,1.011-.194,2.02-.235,3.033-.1,2.536-.165,5.074-.252,7.61-.006.187-.086.371-.1.558-.13,1.635-.264,3.269-.362,4.905-.012.192.187.4.288.6.14-.144.353-.264.409-.436.821-2.505,1.734-4.99,1.471-7.711a2.279,2.279,0,0,1,1.15-2.288c.552-.354,1.128-.774.8-1.762-.75-2.268-1.327-4.594-1.959-6.9-.189-.689-.287-1.4-.506-2.082-.087-.268-.389-.467-.593-.7-.117.232-.342.468-.335.7.046,1.414.143,2.825.224,4.479M56.922,270.761a26.24,26.24,0,0,0,2.571,1.336,2,2,0,0,0,2.366-.855c.693-.863-.182-1.226-.618-1.7a21.057,21.057,0,0,1-1.662-1.7,3.123,3.123,0,0,1,.7-4.086,3.271,3.271,0,0,0,.625-.664,7.176,7.176,0,0,0-.865-.28,2.881,2.881,0,0,0-.719-.007,3.994,3.994,0,0,0-3.98,3.988,7.75,7.75,0,0,0,1.585,3.968m296.994-17c.161.616.305,1.237.493,1.844.052.168.234.3.357.441.119-.152.3-.289.34-.458a2.167,2.167,0,0,0,.008-.838c-.389-2.044-.762-4.091-1.207-6.123a84.682,84.682,0,0,0-2.049-8.667c-1.11-3.335-2.622-6.536-3.987-9.784-.1-.247-.419-.4-.636-.6-.067.3-.259.643-.18.9.378,1.243.863,2.454,1.247,3.7.925,2.991,1.843,5.984,2.712,8.992,1,3.445,1.937,6.906,2.9,10.6m-140.6,55.95a21.168,21.168,0,0,1,3.108,1.217c2.925,1.695,5.784,3.5,8.68,5.25a2.929,2.929,0,0,0,.832.207c-.091-.279-.1-.642-.286-.824-1.047-1.023-2.109-2.034-3.216-2.991a27.615,27.615,0,0,0-8.97-5.11,2.548,2.548,0,0,0-2.7,1.219.755.755,0,0,0,.363.642c.675.149,1.374.189,2.184.39M91.891,263.285c-.042.279-.212.63-.1.823.263.465.69.833.991,1.281,1.073,1.6,1.282,1.42,2.912.6q3.59-1.807,7.147-3.679a6.332,6.332,0,0,0,.991-.8,6.65,6.65,0,0,0-1.435-.022c-1.177.233-2.324.638-3.507.817-2.283.345-4.582.581-6.995.983m104.424-94.3c1.727-.682,3.463-1.339,5.178-2.049A101.022,101.022,0,0,1,217.044,162c1.43-.336,2.871-.629,4.3-.983.246-.061.44-.332.658-.506a1.767,1.767,0,0,0-.592-.19,14.994,14.994,0,0,0-2.788.252c-3.592.912-7.231,1.71-10.722,2.925-3.92,1.364-7.7,3.135-11.54,4.725-.389.161-.926.24-.043.769m-2.05,148.919c1.382-1.3,2.768-2.6,4.139-3.909a3.656,3.656,0,0,0,.443-.656c-.339-.046-.745-.235-1.007-.114a12.278,12.278,0,0,0-5.021,3.52,52.968,52.968,0,0,0-5.052,9.352,3.8,3.8,0,0,0-.165,1.062,3.381,3.381,0,0,0,.862-.648c1.911-2.816,3.792-5.654,5.8-8.606M338.6,148.732a3.466,3.466,0,0,0,.98.227,3.59,3.59,0,0,1,3.606,2.23,3.752,3.752,0,0,1-.7,4.44,2.449,2.449,0,0,0-.624,2.038c.008.16.095.415.2.447a.586.586,0,0,0,.523-.126c1.014-1.358,2.193-2.675,2.15-4.506-.076-3.231-2.2-5.195-4.532-6.976-.533-.408-1.1-.4-1.255.5a13.39,13.39,0,0,0-.35,1.725m-71.988,3.5c-.168-1.374-.346-2.746-.5-4.121s-.283-2.747-.421-4.121c-.014-.141.027-.374-.038-.406a.548.548,0,0,0-.476-.024c-.834.717-1.665,1.442-2.444,2.217a.857.857,0,0,0-.066.794q1.526,2.8,3.145,5.551c.12.2.527.238.8.11m61.738,125.406q1.809-2.44,3.617-4.88c1.091-1.473,2.194-2.938,3.257-4.432.142-.2.079-.547.111-.826a2.113,2.113,0,0,0-.739.3,12.5,12.5,0,0,0-1.116,1.336c-1.956,2.6-3.921,5.189-5.84,7.813a8.4,8.4,0,0,0-.943,1.891c-.074.186.13.482.207.728a1.981,1.981,0,0,0,.584-.365,6.649,6.649,0,0,0,.862-1.565m21.464-20.981c-.08-.328-.159-.656-.241-.983-.4-1.6-.793-3.2-1.218-4.791a2.26,2.26,0,0,0-.428-.617,4.1,4.1,0,0,0-.278.631c-.383,1.487-.784,2.971-1.094,4.474a1.03,1.03,0,0,0,.461.888,11.561,11.561,0,0,0,2.8.4M263.841,104.117c1.04.4,2.074.813,3.126,1.177a2.216,2.216,0,0,0,.8-.042c-.08-.274-.075-.646-.256-.805a10.9,10.9,0,0,0-2.1-1.61,4.49,4.49,0,0,0-4.22-.151c-.231.115-.357.439-.532.666a5.789,5.789,0,0,0,.727.278c.733.176,1.472.327,2.45.488M207.771,362.525a3.487,3.487,0,0,0,1.148-.455c2.065-1.928,4.094-3.894,6.116-5.866.108-.105.053-.376.075-.57a1.842,1.842,0,0,0-.643.033,2.261,2.261,0,0,0-.533.456c-1.778,1.616-3.572,3.214-5.319,4.863a3.622,3.622,0,0,0-.842,1.539M348.852,305.61c.4-1.155.839-2.3,1.179-3.472.077-.264-.183-.626-.288-.943a2.737,2.737,0,0,0-.5.661q-1.211,3.464-2.361,6.949c-.07.212.075.5.12.745.214-.158.536-.271.624-.482a36.288,36.288,0,0,0,1.224-3.458m-20.5-37.381.293-.672c-.271,0-.682-.124-.789.007a16.162,16.162,0,0,0-1.178,1.762,1.17,1.17,0,0,0,.283.218c.434-.386.851-.792,1.391-1.314M263,157.052a2.96,2.96,0,0,0-.8.1,2.2,2.2,0,0,0-.544.481l1.522.205a2.356,2.356,0,0,0-.176-.789m-6.15-5.667c-.489.006-.978.008-1.465.037a2.4,2.4,0,0,0-.036.392c.512-.074,1.025-.148,1.537-.226C256.915,151.582,256.94,151.534,256.848,151.385Z" transform="translate(-37.394 -68.329)"></path><path d="M374.184,15.71c2.044,1.964,4.036,3.86,6.01,5.775,1.038,1.007,1.375,2.982.245,3.813a2.456,2.456,0,0,1-3.4-.223c-1.511-1.41-2.993-2.852-4.508-4.257A84.692,84.692,0,0,0,358.3,9.773a40.139,40.139,0,0,0-18.256-5.035,42.289,42.289,0,0,0-6.951.926,36.525,36.525,0,0,0-11.275,3.89,81.8,81.8,0,0,0-8.833,6.029,41.659,41.659,0,0,0-8.592,9.307,2.166,2.166,0,0,0-.187,1.393,2.182,2.182,0,0,1-1.261,2.326,2.488,2.488,0,0,1-2.133-.256c-1.548-1.154-1.938-2.557-.92-4.448a44.221,44.221,0,0,1,3.7-5.458,39.561,39.561,0,0,1,3.23-3.727A47.821,47.821,0,0,1,322.24,3.934,55.178,55.178,0,0,1,332.277.8a41.265,41.265,0,0,1,12-.636,36.093,36.093,0,0,1,15.812,5.125,99.691,99.691,0,0,1,8.281,5.616C370.37,12.369,372.211,14.059,374.184,15.71Z" transform="translate(-227.14 0)"></path><path d="M42.861,877.063a28.668,28.668,0,0,1-14.142,7.67,29.952,29.952,0,0,1-8.978.672,20.3,20.3,0,0,1-11.644-4.7,55.027,55.027,0,0,1-5.67-5.68c-1.027-1.17-2.163-2.715-1.732-4.26.49-1.757-.028-3.084-.513-4.63A2.778,2.778,0,0,1,.946,863a2.779,2.779,0,0,1,3.189-.382,13.407,13.407,0,0,1,2.052,2.031c.686.789.462,1.687.234,2.614a1.632,1.632,0,0,0,.336,1.274,22.885,22.885,0,0,0,7.644,5.952,20.066,20.066,0,0,0,6.724,1.828c4.9.358,9.369-1.222,13.871-2.727A50.967,50.967,0,0,0,45.86,868.1a2.537,2.537,0,0,1,3.163.551,2.38,2.38,0,0,1-.531,3.037,15.991,15.991,0,0,1-2.813,2.238C44.228,874.579,44.024,876.155,42.861,877.063Z" transform="translate(0 -654.312)"></path><path d="M1146.267,113.707c2.68-.623,5.279-1.332,7.926-1.706a45.58,45.58,0,0,1,7.628-.484,34.817,34.817,0,0,1,14.517,3.331,23.626,23.626,0,0,1,11.184,10.441,71.639,71.639,0,0,1,3.523,9.743,32.187,32.187,0,0,1,1.19,4.684,2.359,2.359,0,0,1-1.483,2.389,2.426,2.426,0,0,1-2.8-1.317,49.851,49.851,0,0,1-1.932-5.466c-1.227-4.429-2.635-8.789-6.027-12.077a22.755,22.755,0,0,0-11.5-5.936,44.4,44.4,0,0,0-8.392-.951,40.761,40.761,0,0,0-11.846,1.907c-3,.887-6.026,1.868-8.515,3.854a30.751,30.751,0,0,0-3.688,3.786c-.254.287-.194.887-.207,1.345a2.254,2.254,0,0,1-2.086,2.314,2.873,2.873,0,0,1-2.521-2.27c-.295-1.946.7-3.431,1.731-4.831a21.438,21.438,0,0,1,8.476-6.807C1142.995,114.948,1144.616,114.392,1146.267,113.707Z" transform="translate(-858.382 -84.612)"></path><path d="M55.435,653.642c-1.552.809-2.679.012-3.665-.92a11.9,11.9,0,0,0-6.656-2.84,38.725,38.725,0,0,0-6.663-.482,24.448,24.448,0,0,0-9.583,2.14,37.775,37.775,0,0,0-5.022,2.691,4.016,4.016,0,0,0-1.354,2.034,2.77,2.77,0,0,1-3.241,1.778,2.4,2.4,0,0,1-1.874-2.291c-.167-2.063,1.31-3.179,2.607-4.2a45.1,45.1,0,0,1,6.074-3.93c1.449-.8,3.1-1.233,4.628-1.907.31-.137.73-.723.651-.934-.589-1.578-.022-3.088.381-4.5a67.911,67.911,0,0,1,5.2-13.268c.992-1.874,1.842-3.824,2.876-5.673a6.727,6.727,0,0,1,1.668-1.7,1.892,1.892,0,0,1,2.768.282,2.342,2.342,0,0,1,.408,2.87c-1.595,3.117-3.325,6.171-4.785,9.349-1.378,3-2.532,6.1-3.668,9.2a6.449,6.449,0,0,0-.173,2.677,1.244,1.244,0,0,0,.992.713,29.453,29.453,0,0,1,8.388.251,18.224,18.224,0,0,1,7.41,2.482,14.668,14.668,0,0,1,3.147,2.8C56.608,651,56.263,652.681,55.435,653.642Z" transform="translate(-13.176 -469.84)"></path><path d="M403.5,78.335a10.4,10.4,0,0,1,2.011.952,2.257,2.257,0,0,1,.553,3.1,2.605,2.605,0,0,1-3.462,1,49.809,49.809,0,0,1-4.634-2.77,30.178,30.178,0,0,0-11.493-5.1,31.62,31.62,0,0,0-7.015-.059,26.262,26.262,0,0,0-9.84,2.7,60.927,60.927,0,0,0-7.649,4.5,25.759,25.759,0,0,0-2.494,2.4c-.4.345-1.132.8-1.442.65a3.434,3.434,0,0,1-1.737-1.593,2.684,2.684,0,0,1,.865-2.957,53.657,53.657,0,0,1,6.435-5.139,50.211,50.211,0,0,1,8.479-3.929,31.38,31.38,0,0,1,6.506-1.437,30.387,30.387,0,0,1,5.677-.248,25.709,25.709,0,0,1,9.11,2.125A62.535,62.535,0,0,1,403.5,78.335Z" transform="translate(-270.26 -53.4)"></path><path d="M1158.055,205.247a3.844,3.844,0,0,1,.446-4.888c3.01-3.521,6.967-5.583,11.2-7.253a33.074,33.074,0,0,1,8.989-2.143,42.637,42.637,0,0,1,5.7-.451c6.369.244,12.188,2.029,16.888,6.6.83.807,1.682,1.6,2.446,2.464.9,1.025.4,2.034-.33,2.851a2.144,2.144,0,0,1-2.666.379,5.015,5.015,0,0,1-1.5-1.018,20.982,20.982,0,0,0-12-6.215,24.847,24.847,0,0,0-8.015.157,41.728,41.728,0,0,0-12.212,3.7,28.839,28.839,0,0,0-4.353,2.848,1.964,1.964,0,0,0-.636,1.5,2.478,2.478,0,0,1-1.375,2.539C1159.669,206.791,1158.779,206.111,1158.055,205.247Z" transform="translate(-878.249 -144.559)"></path><path d="M983.377,119.05c-.9-.259-1.779-.368-2.577-.679a1.886,1.886,0,0,1-1.217-2.225,3.2,3.2,0,0,1,2.188-1.991,5.539,5.539,0,0,1,4.253,1.352,13.14,13.14,0,0,1,4.886,7.467,28.419,28.419,0,0,1,.418,9.317,30.83,30.83,0,0,1-3.1,10.867,29.319,29.319,0,0,1-6.328,8.829,15.974,15.974,0,0,1-1.694,1.443,2.283,2.283,0,0,1-3.286-.315,2.723,2.723,0,0,1,.393-3.539c1.657-1.875,3.4-3.695,4.884-5.7a22.749,22.749,0,0,0,3.6-8.857,36.349,36.349,0,0,0,.946-7.906C986.731,124.1,985.964,121.188,983.377,119.05Z" transform="translate(-740.953 -86.579)"></path><path d="M1181.289,268.508a18.975,18.975,0,0,1,8.13-3.229,30.333,30.333,0,0,1,6.938.126c4.615.487,8.4,3.007,12.235,5.352a5.592,5.592,0,0,1,1.638,1.537,1.83,1.83,0,0,1-.12,2.341c-.635.728-1.344,1.6-2.463,1.031-1.534-.775-3.018-1.656-4.492-2.544a24.774,24.774,0,0,0-8.713-3.148c-3.3-.571-6.309.37-9.149,1.639-2.27,1.015-4.491,2.485-5.4,5.086a4.254,4.254,0,0,0,.023,1.854,1.466,1.466,0,0,1-.977,1.791,3.552,3.552,0,0,1-2.283-.036,2.734,2.734,0,0,1-1.36-2.412c-.289-3.634,2-5.865,4.273-8.11A16.7,16.7,0,0,1,1181.289,268.508Z" transform="translate(-891.837 -201.188)"></path><path d="M168.47,456.67a1.742,1.742,0,0,1-2.606-.09,2.149,2.149,0,0,1-.531-2.755,58.535,58.535,0,0,1,3.657-6.31c2.54-3.673,5.16-7.3,7.93-10.8a20.021,20.021,0,0,1,4.574-4.294c1.8-1.187,4.307.682,3.877,2.467a2.654,2.654,0,0,1-1.212,1.755,5.982,5.982,0,0,0-2.748,2.3q-4.343,5.517-8.522,11.162C171.344,452.208,169.978,454.439,168.47,456.67Z" transform="translate(-125.247 -327.854)"></path><path d="M310.083,292.851c-1.319.706-2.085-.1-2.656-.9a1.8,1.8,0,0,1,.334-2.417c1.281-1.21,2.652-2.325,3.958-3.509s2.587-2.343,3.814-3.581c2.075-2.094,4.087-4.25,6.144-6.362a12.139,12.139,0,0,1,5.02-3.277,3.124,3.124,0,0,1,2.388.19c1.794,1.242,1.174,3.028-.588,4.139a35.565,35.565,0,0,0-6.3,5.148c-2.216,2.236-4.461,4.451-6.808,6.546A63.423,63.423,0,0,1,310.083,292.851Z" transform="translate(-233.037 -206.901)"></path><path d="M669.2,120.644c2.153.02,4.254.011,6.335.212a2.459,2.459,0,0,1,2.046,2.915,2.488,2.488,0,0,1-2.51,1.636,45.452,45.452,0,0,0-4.93.032c-3,.331-5.975.849-8.96,1.3-1.81.272-3.611.632-5.43.816a2.137,2.137,0,0,1-2.287-1.952,2.892,2.892,0,0,1,2.043-2.37c2.411-.463,4.811-.983,7.225-1.433C664.866,121.4,667.008,121.066,669.2,120.644Z" transform="translate(-495.873 -91.549)"></path></g></g></g></svg>