<svg xmlns="http://www.w3.org/2000/svg" width="38.144" height="56" viewBox="0 0 38.144 56"><defs><style>.a{fill:#222;}</style></defs><g transform="translate(-9.471 -1.5)"><path class="a" d="M9.471,17.808c6.234-1.859,3.2.043,5.568-4.357.551-1.022-.462-1.619-1.953-4.4L17,5.139l3.19,1.925a1.22,1.22,0,0,0,1.2.032,16.9,16.9,0,0,1,2.689-1.127c1.072-.352.8-1.466,1.694-4.469h5.531c.9,3.008.608,4.127,1.7,4.473A16.281,16.281,0,0,1,35.688,7.1a1.215,1.215,0,0,0,1.2-.036L40.063,5.14l3.912,3.913c-3.031,5.6-2.359,2.247-.833,7.058.345,1.088,1.442.8,4.474,1.7v1.554H39.6a11.472,11.472,0,0,0-11.051-8.651,11.325,11.325,0,0,0-11.072,8.651h-8Zm11.2,29.481H36.488c-2.047,7.948-.715,10.182-2.273,10.182-12.057-.006-11.744.216-12.09-.484-.107-.215-.144-1.543-.339-3.389,5.313-.344,8.411.881,8.411-1.217s-3.1-.865-8.743-1.217C21.233,49.794,21.052,48.81,20.671,47.289Zm16.52-2.434H19.964C15.946,32,10.231,31.373,9.519,21.8H47.56C46.94,30.18,40.672,34.085,37.191,44.855Z" transform="translate(0 0)"></path></g></svg>