<svg xmlns="http://www.w3.org/2000/svg" width="142.184" height="81.519" viewBox="0 0 142.184 81.519"><defs><style>.a{fill:#b2d4fe;}</style></defs><g transform="translate(-174 -1118.512)"><ellipse class="a" cx="40" cy="40.5" rx="40" ry="40.5" transform="translate(174 1119)"></ellipse><path d="M12.3,69.811a18.97,18.97,0,0,0,1.379,1.449,18.7,18.7,0,0,0,2.193,1.659A22.841,22.841,0,0,0,18.938,74.6c1.429.615,2.925,1.071,4.382,1.625a8.571,8.571,0,0,1,1.159.626c.4.226.782.467,1.176.7.5.291.722.7.542,1.044-.2.387-.51.433-.932.393a2.835,2.835,0,0,1-1.771-.887A.731.731,0,0,0,23,77.913,6.7,6.7,0,0,1,20.3,77.26a29.242,29.242,0,0,1-3.1-1.407c-1.267-.664-2.5-1.4-3.73-2.128a3.9,3.9,0,0,1-.718-.622c-1.05-1.041-2.1-2.078-3.135-3.136a18.074,18.074,0,0,1-2.976-4.132C5.984,64.6,5.375,63.346,4.735,62.1A44.28,44.28,0,0,1,1.727,54.66c-.364-1.2-.695-2.41-.967-3.632a10.541,10.541,0,0,1-.186-2.007C.526,47.156.5,45.291.484,43.426c0-.342.089-.687.071-1.027a1.06,1.06,0,0,0-.237-.6.962.962,0,0,1,.246-1.591.61.61,0,0,0,.26-.39c.081-.8.112-1.607.192-2.408.1-1.017.241-2.03.349-3.046a58.524,58.524,0,0,1,1.279-5.715,16.6,16.6,0,0,1,1.431-3.671A31.777,31.777,0,0,1,7.6,19.383c.844-1.119,1.637-2.277,2.46-3.412a6.227,6.227,0,0,1,.557-.656c.957-1,1.9-2,2.888-2.97a37.583,37.583,0,0,1,2.851-2.653A28.866,28.866,0,0,1,19.8,7.311a46.516,46.516,0,0,1,4.318-2.2A48.882,48.882,0,0,1,28.868,3.2c2.411-.8,4.858-1.485,7.3-2.169A14.891,14.891,0,0,1,38.5.672a6.185,6.185,0,0,1,.938.074A1.768,1.768,0,0,0,40.1.706a5.463,5.463,0,0,0,.991-.494A1.6,1.6,0,0,1,42.388.074a5.5,5.5,0,0,0,2.047.26,11.067,11.067,0,0,1,3.843.319c1.7.445,3.426.778,5.11,1.266a18.952,18.952,0,0,1,4.506,1.851c1.32.79,2.61,1.632,3.9,2.473,1.027.671,2.052,1.349,3.04,2.075a20.286,20.286,0,0,1,1.867,1.6c.753.709,1.48,1.447,2.2,2.193.562.585,1.111,1.185,1.627,1.81.333.4.735.325,1.15.285.081-.008.16-.056.24-.058,1.244-.033,2.488-.058,3.732-.092.89-.024,1.779-.047,2.668-.091s1.784-.109,2.676-.176c1.117-.083,2.233-.169,3.348-.266,1.267-.11,2.533-.233,3.8-.353.909-.086,1.818-.188,2.728-.263,1.2-.1,2.409-.182,3.614-.268.862-.062,1.724-.128,2.587-.176q1.869-.1,3.74-.178c.978-.04,1.956-.068,2.934-.089,1.584-.035,3.168-.072,4.752-.088,3.535-.037,7.07-.073,10.6-.085,1.451,0,2.9.064,4.353.081q4.615.055,9.23.086c.86,0,1.721-.092,2.579-.07a3.345,3.345,0,0,1,1.7.378,2.791,2.791,0,0,1,1.137,1.784c.327,1.143.573,2.312.808,3.479s.419,2.37.628,3.555c.235,1.336.494,2.668.7,4.008.13.844.184,1.7.274,2.549.117,1.1.24,2.207.351,3.312.023.234,0,.473,0,.709a14.81,14.81,0,0,0,.43,3.322c.162.67.186,1.372.281,2.059.113.824.243,1.645.35,2.47.05.384.072.773.09,1.16.036.771.076,1.542.088,2.313.037,2.308.086,4.616.081,6.925,0,1.217-.083,2.436-.175,3.651-.082,1.077-.2,2.154-.355,3.222-.2,1.343-1.078,1.747-2.322,1.5a7.058,7.058,0,0,0-1.416-.113c-1.569.013-3.139.048-4.708.084-.875.02-1.749.067-2.624.085-1.835.036-3.671.056-5.506.093-.919.018-1.84.029-2.756.1a2.564,2.564,0,0,0-1.678.531,4.371,4.371,0,0,0-.79,1.022c-.652,1.175-1.316,2.348-1.878,3.567-.428.927-.712,1.922-1.056,2.887a12.407,12.407,0,0,1-1.9,3.815c-.5.606-.875,1.273-1.329,1.9a1.412,1.412,0,0,1-2.368-.171,10.581,10.581,0,0,1-1.486-3.73c-.376-1.775-.739-3.548-1.239-5.3-.4-1.382-.646-2.805-1-4.2a2.131,2.131,0,0,0-1.786-1.656,14.608,14.608,0,0,0-1.84-.263c-1.393-.086-2.788-.15-4.183-.177-.874-.017-1.749.041-2.623.082q-1.538.073-3.075.177c-1.117.078-2.232.175-3.349.264l-2.232.177-3.348.266c-1.131.089-2.261.19-3.393.263-1.157.075-2.316.122-3.474.181a17.582,17.582,0,0,0-1.822.109,1.263,1.263,0,0,0-.767.466c-.754,1.083-1.428,2.221-2.188,3.3-.556.789-1.2,1.516-1.809,2.268A60.1,60.1,0,0,1,66.6,70.088a24.277,24.277,0,0,1-5.348,4c-1.04.556-2.079,1.113-3.136,1.637a11.256,11.256,0,0,1-1.635.65.868.868,0,0,1-.7-.087.659.659,0,0,0-.858-.019q-.974.6-1.933,1.221a19.8,19.8,0,0,1-5.831,2.618c-1.384.356-2.8.595-4.2.9-.66.145-1.308.346-1.97.481a1.389,1.389,0,0,1-.739-.053.57.57,0,0,1-.233-.978,12.343,12.343,0,0,1,1.514-1.044c.278-.174.534-.28.653-.669a3.56,3.56,0,0,1,.735-1.2c.672-.784,1.425-1.5,2.084-2.292.969-1.167,1.9-2.366,2.819-3.576.607-.8,1.162-1.644,1.731-2.474.074-.109.157-.283.118-.378s-.233-.145-.359-.145c-2.38-.008-4.759-.006-7.139-.006h-.044c-.412.017-.611.2-.595.6.051,1.276.126,2.552.171,3.829a36.161,36.161,0,0,1,.053,3.729c-.032.475.229,1.009-.136,1.452-.12.146-.247.353-.4.388a.81.81,0,0,0-.712.719c-.023.133-.175.243-.267.364-.142-.114-.286-.227-.425-.345-.029-.025-.062-.077-.054-.107a6.833,6.833,0,0,0-.173-1.982c-.029-1.049.015-2.1-.014-3.148-.032-1.159-.1-2.317-.176-3.474a11.731,11.731,0,0,0-.19-1.564.569.569,0,0,0-.405-.36c-1.818-.024-3.636-.023-5.454-.012-.564,0-1.128.055-1.693.084-.344.018-.457.183-.324.478.472,1.046.916,2.106,1.426,3.134a28.327,28.327,0,0,0,2.7,4.2c.6.809,1.16,1.645,1.715,2.483a.461.461,0,0,1-.045.425,3.979,3.979,0,0,1-.751.749,1.708,1.708,0,0,1-.8.31,5.771,5.771,0,0,1-2.713-.5c-.95-.384-1.972-.589-2.948-.912a12.915,12.915,0,0,1-3.615-1.971c-1.127-.837-2.246-1.69-3.306-2.608-.845-.732-1.613-1.556-2.383-2.37-.877-.927-1.708-1.9-2.586-2.822a.982.982,0,0,0-.646-.232c-.579-.007-1.158.062-1.737.073-.827.015-1.655,0-2.483,0a4.64,4.64,0,0,0-.62.005c-.276.038-.5.14-.258.5M80.737,41.677c-.03.564-.043,1.129-.092,1.692-.108,1.238-.219,2.476-.356,3.71-.092.826-.188,1.656-.359,2.468a14.271,14.271,0,0,1-1.878,5.12c-.043.065.055.33.118.342a7.444,7.444,0,0,0,1.387.183c1.3,0,2.606-.052,3.91-.079,1.569-.032,3.139-.056,4.708-.091.963-.022,1.926-.059,2.89-.087,1.081-.031,2.163-.058,3.244-.09.934-.027,1.867-.062,2.8-.087,1.214-.033,2.429-.085,3.643-.083,1.436,0,2.874.02,4.308.1a4.729,4.729,0,0,1,1.648.394,6.13,6.13,0,0,1,2.649,2.949,15.937,15.937,0,0,1,1.353,5.156c.105.622.163,1.256.326,1.862a19.986,19.986,0,0,0,.844,2.575,14.186,14.186,0,0,0,1.061,1.821c.121.2.247.154.342-.045.53-1.111,1.018-2.245,1.607-3.323a22.624,22.624,0,0,0,1.581-4,25.578,25.578,0,0,1,1.6-4.3,3.841,3.841,0,0,1,2.1-1.88,17.509,17.509,0,0,1,4.948-.677c1.151-.085,2.31-.07,3.465-.1,2.3-.059,4.593-.1,6.888-.187a14.839,14.839,0,0,0,2.415-.27c1.277-.261,1.64-.587,1.635-1.995,0-.523-.126-1.044-.165-1.567-.1-1.337-.241-2.675-.258-4.013q-.088-6.7-.088-13.4a11.4,11.4,0,0,0-.432-2.62c-.294-1.251-.624-2.494-.906-3.747-.292-1.3-.492-2.627-.829-3.916q-.667-2.549-1.493-5.056a5.364,5.364,0,0,0-2.772-3.379,6.582,6.582,0,0,0-2.873-.551q-2.487.014-4.974.088c-1.232.036-2.464.11-3.7.174-1.01.053-2.02.125-3.03.174-1.364.067-2.73.118-4.094.18q-1.848.084-3.7.177c-1.158.057-2.316.124-3.474.176-1.453.065-2.907.119-4.36.179l-2.092.089q-2.069.088-4.139.177-1.223.05-2.446.089c-1.022.033-2.045.06-3.067.09l-2.978.089-2.934.089c-.978.03-1.956.072-2.934.086q-3.75.055-7.5.086c-.431,0-.862-.065-1.294-.078-.132,0-.352.036-.378.11a.575.575,0,0,0,.093.413c.808,1.352,1.678,2.669,2.425,4.053.661,1.225,1.213,2.51,1.764,3.79.616,1.429,1.195,2.875,1.758,4.326a26.182,26.182,0,0,1,1.361,5.022c.139.8.251,1.614.355,2.425.13,1.014.268,2.028.348,3.046.053.676.01,1.359.01,2.128M51.25,29.039c-.475-.03-.951-.074-1.426-.086-1.495-.037-2.99-.071-4.485-.089-1.226-.014-2.453-.005-3.68,0-.459,0-.642.186-.651.638-.03,1.451-.075,2.9-.085,4.353-.015,2.054-.006,4.108,0,6.163,0,.464.187.644.648.64q3.994-.042,7.988-.089,3.2-.039,6.392-.088c.044,0,.089,0,.133,0,.619-.053.812-.247.8-.852-.015-.638-.053-1.276-.086-1.914-.057-1.084-.109-2.168-.18-3.252q-.062-.94-.178-1.877c-.1-.84-.264-1.673-.343-2.514-.083-.888-.2-1.03-1.073-1.03H51.25m5.631,14.766c0-.846-.086-.942-.935-.928-1.155.019-2.309.059-3.464.085-1.45.033-2.9.055-4.35.092-.668.017-1.334.059-2,.086-1.512.061-3.023.124-4.535.175-.529.018-.683.145-.675.661q.039,2.641.089,5.281c.021,1.052.047,2.1.094,3.154.014.308.125.573.532.578q2.463.03,4.927.087c.7.016,1.393.072,2.091.084,2.307.037,4.614.071,6.921.073a.669.669,0,0,0,.491-.41c.162-.814.278-1.639.369-2.464.112-1.01.2-2.022.267-3.036.077-1.141.122-2.285.182-3.516M37.061,28.951c-1.849.03-3.7.056-5.546.09-1.347.024-2.693.063-4.04.084a.5.5,0,0,0-.567.459c-.122.792-.251,1.584-.353,2.379-.132,1.027-.245,2.057-.356,3.087-.045.414-.07.831-.09,1.248-.063,1.3-.128,2.609-.171,3.914a.389.389,0,0,0,.43.451c1.214.013,2.427.081,3.641.076,2.646-.011,5.292-.054,7.939-.082.528-.006.575-.048.575-.574q0-5.184,0-10.368c0-.776-.408-1.054-1.167-.8a1.293,1.293,0,0,1-.3.033M53.511,61.63c.031-.09.063-.181.094-.271.616-1.8,1.236-3.6,1.846-5.4a.407.407,0,0,0-.374-.582c-.7-.034-1.394-.076-2.091-.087q-3.639-.056-7.278-.09c-1.271-.012-2.542-.007-3.813,0-.565,0-.809.251-.8.807.023,1.081.057,2.163.087,3.244s.06,2.192.089,3.288c.03,1.14.057,2.281.09,3.421.012.408.2.587.612.588.8,0,1.6.008,2.394,0,2.16-.025,4.32-.053,6.48-.1a.692.692,0,0,0,.515-.218c.3-.518.559-1.066.814-1.611.451-.965.889-1.937,1.332-2.995m-38.8-20.885h3.014c1.507,0,3.014,0,4.521,0,.38,0,.639-.132.665-.536.042-.667.062-1.335.092-2,.029-.638.043-1.277.092-1.913.075-.969.146-1.94.269-2.9.148-1.157.344-2.307.527-3.459.055-.344-.1-.546-.479-.538-.934.022-1.867.077-2.8.082q-3.413.019-6.826,0a.588.588,0,0,0-.621.362,7.439,7.439,0,0,0-.272.907,29.937,29.937,0,0,0-.888,5.084c-.117,1.355-.262,2.708-.345,4.065-.051.834.092.952.915.938.682-.012,1.364-.055,2.135-.085M45.4,26.822c1.613.03,3.225.062,4.838.087.65.01,1.3-.009,1.95,0,.963.02,1.926.076,2.888.067.158,0,.461-.276.445-.386a10.619,10.619,0,0,0-.417-1.771c-.5-1.475-1.017-2.945-1.569-4.4-.353-.931-.773-1.836-1.175-2.748a.871.871,0,0,0-.918-.61c-.891.069-1.782.133-2.674.177s-1.777.066-2.666.091c-1.2.033-2.4.056-3.6.093a4.114,4.114,0,0,0-.934.1.625.625,0,0,0-.368.369,3.1,3.1,0,0,0-.1.845q-.053,3.66-.091,7.319a.679.679,0,0,0,.754.762c1.182,0,2.363,0,3.634,0M27.66,43.583c-.414,0-.828.013-1.241,0-.356-.014-.505.13-.491.488.038.948.057,1.9.094,2.844.017.446.041.893.09,1.337.139,1.284.3,2.566.437,3.851a.689.689,0,0,0,.727.706c1.982.031,3.965.069,5.948.086,1.64.014,3.28-.007,4.92.01.416,0,.57-.134.563-.555-.041-2.736-.065-5.472-.094-8.208,0-.015,0-.03,0-.044a.531.531,0,0,0-.6-.6c-.4.012-.8.069-1.2.082-1.14.037-2.281.089-3.421.085-1.879-.007-3.758-.053-5.726-.082m3.459,12.593c-1.125.03-2.25.053-3.375.093a.446.446,0,0,0-.476.536c.071.525.164,1.049.285,1.564.275,1.169.517,2.349.875,3.493.457,1.459,1.005,2.89,1.536,4.325a.789.789,0,0,0,.87.545c.445-.039.891-.08,1.337-.088,2.144-.037,4.288-.062,6.432-.092h.044a.517.517,0,0,0,.5-.57c-.065-.906-.135-1.811-.176-2.718-.046-1.021-.066-2.043-.092-3.064-.033-1.317-.074-2.634-.081-3.951,0-.386-.175-.522-.508-.512-.358.011-.714.057-1.071.084-.8.061-1.6.129-2.408.175-1.2.069-2.4.121-3.692.18M59.586,37.553q.022,1.1.044,2.2c.01.463.189.633.649.642,1.435.026,2.87.059,4.306.087,1.509.03,3.018.052,4.527.094.39.011.589-.121.538-.526-.115-.912-.238-1.822-.353-2.733a26.867,26.867,0,0,0-.374-2.862c-.408-1.71-.918-3.4-1.408-5.086a.681.681,0,0,0-.743-.506c-.726.036-1.452.081-2.179.087-1.684.013-3.368,0-5.051.008a2.146,2.146,0,0,0-.754.1.513.513,0,0,0-.262.414c.2,1.328.479,2.646.649,3.978.173,1.347.248,2.707.411,4.105M13.382,51.3a2.2,2.2,0,0,0,.141.561c.181.326.113.861.709.86,2.9,0,5.791,0,8.686,0a.469.469,0,0,0,.525-.538c-.013-.313-.063-.625-.084-.938-.063-.935-.131-1.871-.176-2.807-.069-1.452-.125-2.905-.178-4.358a.681.681,0,0,0-.72-.755c-1.009-.064-2.019-.118-3.029-.179-.936-.057-1.871-.129-2.807-.174-1.423-.069-2.846-.125-4.27-.177-.336-.012-.5.205-.44.529.179,1.034.34,2.072.537,3.1.177.926.389,1.846.591,2.768.151.69.312,1.377.513,2.11m56.092-5.9c.084-.527.139-1.06.257-1.579.159-.7-.013-.96-.72-.945s-1.424.078-2.136.081c-2.231.011-4.463,0-6.694,0-.486,0-.628.157-.643.65-.016.52-.038,1.041-.089,1.559-.106,1.061-.235,2.119-.35,3.179-.063.581-.1,1.166-.183,1.743-.13.887-.3,1.768-.433,2.655-.055.374.17.581.561.59,1.17.028,2.34.073,3.51.085,1.507.015,3.015,0,4.522.006a.389.389,0,0,0,.453-.349q.3-1.377.65-2.745c.41-1.632.834-3.26,1.3-4.934M57.768,56.132c-.355,1.153-.671,2.319-1.075,3.455-.411,1.156-.921,2.277-1.363,3.423-.354.917-.674,1.848-1,2.774a.467.467,0,0,0,.49.677q3.523.008,7.045-.006a.669.669,0,0,0,.484-.2,23.033,23.033,0,0,0,2.585-4.243,37.729,37.729,0,0,0,1.881-5.778c.116-.465-.052-.672-.524-.68q-2.8-.048-5.591-.088c-.709-.01-1.419.02-2.127-.009-.45-.018-.734.115-.8.673M38.613,24.295q.044-2.974.089-5.949c0-.044,0-.089,0-.133,0-.533-.08-.62-.625-.612-1.6.025-3.2.071-4.8.081-.786,0-1.571-.062-2.358-.079a.723.723,0,0,0-.783.442c-.277.713-.61,1.408-.829,2.139-.606,2.028-1.163,4.071-1.742,6.108-.14.493.007.714.516.7.712-.014,1.424-.063,2.136-.083,1.3-.036,2.606-.072,3.909-.087,1.256-.015,2.512,0,3.769,0,.542,0,.7-.155.712-.71.008-.576,0-1.153,0-1.818M26.463,19.772c.167-.492.319-.991.506-1.475.181-.467.1-.608-.423-.608-2.483,0-4.966-.01-7.449.015a1.028,1.028,0,0,0-.726.346,11.73,11.73,0,0,0-1.035,1.695c-.618,1.235-1.2,2.486-1.778,3.741-.455.993-.885,2-1.307,3.006-.184.438.1.757.574.688a6.021,6.021,0,0,1,.85-.087c2.675-.007,5.35,0,8.025,0,.676,0,.86-.247.985-.716.583-2.183,1.156-4.37,1.776-6.6M23.714,56.487a3.359,3.359,0,0,0-.425-.042c-1.022.025-2.044.071-3.067.083-1.359.015-2.719.008-4.078,0-1.133,0-1.137-.072-.855,1.065,0,.014,0,.031,0,.044.636,1.495,1.231,3.009,1.923,4.478.63,1.338,1.385,2.617,2.046,3.942a1.126,1.126,0,0,0,1.133.673q2.837-.005,5.674,0c.059,0,.118,0,.177,0,.426-.023.529-.175.4-.583-.473-1.459-.992-2.905-1.406-4.381-.388-1.385-.645-2.805-1-4.2-.092-.358.041-.858-.519-1.079M57.768,26.335c.135.257.172.61.554.637.174.012.353-.055.53-.058,2.4-.033,4.794-.072,7.191-.081.42,0,.388-.208.284-.444C65.85,25.3,65.4,24.2,64.853,23.142c-1-1.939-2.057-3.85-3.1-5.766a1.161,1.161,0,0,0-1.223-.674c-1.066.1-2.137.132-3.207.187-.712.036-1.424.061-2.136.09-.359.014-.462.157-.343.5.629,1.838,1.269,3.673,1.888,5.514.362,1.078.693,2.167,1.038,3.339M4.026,53.649c.209-.031.419-.054.625-.095.955-.187,1.9-.424,2.866-.556a22.481,22.481,0,0,1,2.265-.1c.545-.019.714-.2.629-.7-.121-.7-.256-1.406-.351-2.113-.163-1.207-.324-2.414-.44-3.626-.1-1.006-.123-2.018-.186-3.026-.04-.652-.227-.857-.87-.91-.577-.048-1.157-.062-1.735-.093-1.083-.058-2.166-.11-3.249-.18-.663-.043-.938.1-.973.54a11.411,11.411,0,0,0-.083,1.2c.046,1.777.063,3.558.19,5.33a20.483,20.483,0,0,0,.536,3.187c.1.434.081,1.046.776,1.139M70.671,29.039c-.036.111-.123.234-.1.332.107.484.26.958.363,1.442.177.83.354,1.662.485,2.5.122.785.191,1.579.272,2.37.124,1.22.238,2.442.356,3.663a3.773,3.773,0,0,0,.107.887.724.724,0,0,0,.46.405,6.8,6.8,0,0,0,1.333.1c1.435-.015,2.87-.052,4.3-.088a.483.483,0,0,0,.257-.121c.329-.264.144-.582.109-.9-.112-1.024-.169-2.054-.28-3.078A19.626,19.626,0,0,0,77.972,34c-.359-1.466-.8-2.915-1.244-4.357a.842.842,0,0,0-.555-.491,22.308,22.308,0,0,0-2.316-.192c-.708-.029-1.417-.011-2.126,0a7.229,7.229,0,0,0-1.06.087M4.026,32.1c-.236,1.157-.516,2.308-.7,3.474-.153.987-.191,1.992-.279,2.989-.033.371-.043.746-.094,1.114-.059.425.07.6.5.628.817.055,1.634.132,2.452.172.947.046,1.9.051,2.842.1a.508.508,0,0,0,.591-.521c.105-1.158.17-2.319.278-3.477.066-.7.169-1.4.281-2.1.126-.785.265-1.569.428-2.348.156-.743.357-1.477.52-2.219a.428.428,0,0,0-.084-.365.982.982,0,0,0-.509-.147c-1.137-.012-2.274.011-3.411-.014a11.8,11.8,0,0,1-1.477-.173.622.622,0,0,0-.723.528c-.2.759-.41,1.513-.617,2.357m8.38,34.719c.845-.03,1.69-.049,2.533-.1a.9.9,0,0,0,.565-.2c.065-.068-.049-.353-.133-.513-.7-1.336-1.431-2.656-2.119-4a22.239,22.239,0,0,1-1.691-4.839c-.1-.394-.254-.721-.749-.729-.535-.009-1.068-.065-1.6-.082-1.155-.037-2.31-.059-3.464-.093-.139,0-.277-.067-.414-.061-.22.009-.5-.019-.637.1a.673.673,0,0,0-.036.6q.856,2.039,1.765,4.055a34.809,34.809,0,0,0,2.919,5.4,1.057,1.057,0,0,0,1.019.561c.485-.033.975,0,1.462-.011.166,0,.33-.055.584-.085M73.154,42.785c-.6-.069-.866.176-.857.847a13.14,13.14,0,0,1-.166,1.788c-.169,1.361-.319,2.726-.54,4.078-.186,1.137-.451,2.261-.705,3.386-.1.444.046.7.5.72.786.033,1.571.071,2.357.086.724.015,1.448-.01,2.172.009a.476.476,0,0,0,.514-.352c.077-.2.168-.4.229-.614.3-1.043.547-2.105.9-3.13a21.281,21.281,0,0,0,.788-4.106c.083-.6.151-1.2.271-1.795.174-.857,0-1.1-.86-1.092-1.48.021-2.96.057-4.441.088-.039,0-.076.028-.159.087m1.375-18.49c-.325-.663-.6-1.355-.984-1.983C72.3,20.269,71,18.255,69.75,16.216a.6.6,0,0,0-.628-.292c-1.24.127-2.477.292-3.716.43-.442.049-.561.246-.341.607.439.718.9,1.423,1.3,2.165a53.377,53.377,0,0,1,3.118,6.9c.136.377.256.859.781.875,1.671.048,3.342.066,5.013.1.3.005.378-.092.243-.394-.333-.747-.633-1.51-.99-2.31M46.9,9.086c-.094-.094-.2-.181-.281-.283-.838-1.011-1.642-2.052-2.517-3.029-.738-.824-1.556-1.577-2.343-2.357a1.134,1.134,0,0,0-.341-.244.345.345,0,0,0-.262.054c-.03.018-.007.135,0,.205.124.879.281,1.754.364,2.637a10.764,10.764,0,0,1-.074,1.38c-.036.977-.063,1.955-.09,2.932-.031,1.11-.065,2.221-.087,3.331a.68.68,0,0,0,.777.783c.886,0,1.773,0,2.659,0q2.615,0,5.229,0c.429,0,.547-.173.324-.532-.527-.849-1.063-1.692-1.629-2.516-.541-.787-1.123-1.545-1.731-2.36M7.13,23.94c-.47.854-.947,1.7-1.407,2.564-.246.46-.078.757.422.759,1.581.006,3.161.009,4.742,0,.567,0,.74-.19.948-.711.785-1.965,1.564-3.932,2.4-5.874.373-.866.883-1.673,1.325-2.51.2-.372.065-.624-.349-.653-.578-.041-1.157-.058-1.736-.095-.152-.01-.3-.083-.451-.081-.632.006-1.27-.15-1.705.605-.474.823-1.122,1.544-1.668,2.327C8.816,21.471,8,22.686,7.13,23.94M37.415,4.918c-.34.406-.712.789-1.015,1.221a60.289,60.289,0,0,0-4.342,7.6c-.215.427-.065.669.428.67,1.95.005,3.9,0,5.85,0,.3,0,.44-.117.458-.432.042-.745.127-1.487.168-2.232.046-.844.064-1.689.092-2.534.031-.948.059-1.9.091-2.844,0-.069.04-.137.037-.2a15.219,15.219,0,0,0-.108-1.869c-.069-.408-.314-.452-.652-.2s-.643.519-1.007.825M22.827,12.411c-.543.573-1.094,1.14-1.624,1.725-.09.1-.093.276-.136.417a1.277,1.277,0,0,0,.394.113c.907-.047,1.813-.13,2.72-.166,1.184-.048,2.371-.105,3.554-.076a1.085,1.085,0,0,0,1.13-.729,33.922,33.922,0,0,1,2.657-4.84c.662-.929,1.357-1.835,2.044-2.745.495-.655,1-1.3,1.5-1.95A1.964,1.964,0,0,0,35.2,3.94c-.106-.029-.229-.107-.316-.078a8.058,8.058,0,0,0-1.143.447,1.083,1.083,0,0,0-.353.442,1.329,1.329,0,0,1-.648.71,16.131,16.131,0,0,0-3.985,2.364c-1.039.828-2.032,1.714-3.081,2.528-.907.7-1.864,1.345-2.843,2.058M62.6,9.263C61.679,8.637,60.765,8,59.833,7.387a24.755,24.755,0,0,0-4.126-2.446,31.764,31.764,0,0,0-5.592-1.795,2.939,2.939,0,0,0-.329-.031c.078.128.125.323.237.374A24.754,24.754,0,0,1,53.965,5.85a45.311,45.311,0,0,1,6.325,5.366c.774.79,1.541,1.59,2.245,2.441a1.418,1.418,0,0,0,1.279.662c1.085-.092,2.172-.171,3.256-.274a2.111,2.111,0,0,0,.533-.205,2.369,2.369,0,0,0-.268-.456A28.3,28.3,0,0,0,62.6,9.263M28.237,69.789a1.182,1.182,0,0,0-1.358-.946c-1.67.077-3.344.071-5.016.108-.147,0-.409.058-.417.116a.713.713,0,0,0,.112.5,19.317,19.317,0,0,0,1.664,1.922c.983.923,2.016,1.8,3.07,2.639A24.925,24.925,0,0,0,32.878,77.7c.091.036.216-.013.325-.023a1.026,1.026,0,0,0-.1-.269c-.275-.376-.559-.745-.843-1.114a38.533,38.533,0,0,1-4.025-6.508m28.777-58.22c-.652-.564-1.285-1.153-1.962-1.685C54,9.057,52.935,8.246,51.843,7.473q-1.7-1.2-3.471-2.315c-.624-.393-1.3-.7-1.961-1.036a.963.963,0,0,0-.256-.052c.038.1.05.228.12.3.214.212.474.381.674.6A22.447,22.447,0,0,1,48.6,6.9c1.048,1.475,2.053,2.981,3.038,4.5.554.853,1.044,1.749,1.537,2.64a.68.68,0,0,0,.687.369c1.595-.006,3.189,0,4.784,0a1.457,1.457,0,0,0,.265,0c.343-.065.441-.273.2-.541-.672-.763-1.372-1.5-2.105-2.294m2.128,57.023c-1.683,0-3.367.031-5.048-.017a1.076,1.076,0,0,0-1.117.693c-.469.943-.907,1.9-1.426,2.818a20.618,20.618,0,0,1-3.182,4.263c-.248.253-.512.491-.744.758-.073.084-.066.237-.1.359a1.058,1.058,0,0,0,.332.006A16.342,16.342,0,0,0,51.785,75.5a22.4,22.4,0,0,1,2.128-1.389,10.9,10.9,0,0,0,2.945-2.083c.894-.9,1.8-1.793,2.69-2.7.188-.191.346-.412.518-.619-.278-.042-.556-.083-.923-.125m15.918-12.46c.186-.275.085-.393-.219-.4l-4.176-.088a.716.716,0,0,0-.756.546q-.558,1.541-1.169,3.063c-.391.976-.8,1.943-1.222,2.908-.267.614-.532,1.232-.851,1.819-.4.727-.851,1.421-1.272,2.135-.166.281-.046.51.274.522a7.28,7.28,0,0,0,1.239-.012,1.149,1.149,0,0,0,.646-.344q1.112-1.232,2.169-2.513,1.006-1.214,1.963-2.468c.606-.793,1.171-1.616,1.777-2.409.222-.291-.057-.336-.179-.4a1.285,1.285,0,0,0-.534-.1.658.658,0,0,1-.7-.6.625.625,0,0,1,.511-.725,6.335,6.335,0,0,1,1.254-.182,1.247,1.247,0,0,0,1.242-.761M21.674,10.46c.384-.355.761-.719,1.155-1.063A16.777,16.777,0,0,1,25.88,7.04c.063-.034.08-.156.118-.237-.092-.012-.2-.059-.274-.029-.28.107-.543.259-.826.358a25.362,25.362,0,0,0-4.956,2.575,29.02,29.02,0,0,0-5.123,4.415c-.219.22-.256.386.11.463a2.2,2.2,0,0,0,.406.084,21.1,21.1,0,0,0,2.124-.016,1.309,1.309,0,0,0,.866-.43,29.045,29.045,0,0,1,3.349-3.762m41.06,60.215c.7-.585,1.408-1.168,2.1-1.762a.248.248,0,0,0-.038-.226,1.5,1.5,0,0,0-1.612.3c-.8.846-1.59,1.7-2.384,2.557-.039.042-.092.083-.105.133a2.07,2.07,0,0,0-.04.295.865.865,0,0,0,.3-.064c.58-.388,1.152-.789,1.77-1.23m72.9-55.16a2.677,2.677,0,0,1,.263.333c.215.381.413.772.628,1.153.037.066.124.1.188.154a1.443,1.443,0,0,0,.072-.217.528.528,0,0,0,0-.22c-.2-.755-.379-1.52-.639-2.255a.973.973,0,0,0-.609-.48,3.222,3.222,0,0,0-.967-.014.775.775,0,0,0-.258.119,1.02,1.02,0,0,0,.143.242c.389.37.786.732,1.18,1.185m3.9,40.617c-.4.1-.8.195-1.194.318-.119.037-.21.161-.314.245a1.042,1.042,0,0,0,.277.1c.377.022.756.042,1.133.032a.632.632,0,0,0,.415-.146.489.489,0,0,0,.107-.42C139.921,56.167,139.711,56.142,139.533,56.132Z" transform="translate(174 1118.512)"></path><path d="M1259.37,337.7a6,6,0,0,1-1.8-2.609,7.124,7.124,0,0,1-.057-3.673c.344-1.72,1.7-2.214,3.041-2.724a8.463,8.463,0,0,1,3.126-.382,4.739,4.739,0,0,1,3.1,1.2,6.05,6.05,0,0,1,1.99,3.069,5.4,5.4,0,0,1-1.238,5.357,4.61,4.61,0,0,1-3.6,1.484,6.783,6.783,0,0,1-4.554-1.717m.022-2.993a1.489,1.489,0,0,0,.106.45,4.057,4.057,0,0,0,1.6,1.626,3.646,3.646,0,0,0,1.893.661c.15-.011.289-.171.433-.262-.132-.057-.263-.115-.4-.168a.152.152,0,0,0-.088,0,.6.6,0,0,1-.709-.385c-.088-.2.02-.488.056-.735a.8.8,0,0,1,.109-.22.871.871,0,0,0-.331,0c-.262.117-.5.281-.767.4a.809.809,0,0,1-1.066-.565c-.066-.6-.134-.675-.843-.8m.843-2.35a8.318,8.318,0,0,0-1.1.956c-.135.163-.05.514-.05.779,0,.028.108.083.156.074s.067-.09.1-.137c.35-.454.7-.907,1.049-1.363.069-.091.128-.189.192-.284a.891.891,0,0,0-.355-.025m5.277,4.478a.694.694,0,0,0-.152.158,1.946,1.946,0,0,0-.093.306c.1-.027.238-.023.3-.088.389-.39.767-.793,1.136-1.2.061-.067.063-.188.092-.284-.122.034-.28.03-.358.107-.308.305-.59.636-.927,1m-1.6-6.119c.137-.059.275-.116.411-.178.086-.04.169-.087.254-.131-.072-.073-.134-.189-.218-.209a2.3,2.3,0,0,0-.707-.088c-.141.011-.364.139-.383.245a1.447,1.447,0,0,0,.124.552,3.3,3.3,0,0,1,.519-.19m3.015,2.572c-.073.073-.174.134-.211.222a.442.442,0,0,0-.024.325c.046.094.177.146.271.216a1.5,1.5,0,0,0,.091-.357,1.025,1.025,0,0,0-.126-.405m-1.153-1.6.31-.253-.1-.1A.94.94,0,0,0,1265.777,331.688Z" transform="translate(-971.799 819.322)"></path><path d="M977.028,349.6a6.907,6.907,0,0,1-3.638.821,6.67,6.67,0,0,1-4.977-2.236,4.7,4.7,0,0,1-1.223-3.084,6.117,6.117,0,0,1,.647-3.2,5.028,5.028,0,0,1,2.248-2.155,3.439,3.439,0,0,1,2-.4,12.481,12.481,0,0,1,1.724.432,8.607,8.607,0,0,1,4.006,2.415,4.9,4.9,0,0,1,1.533,3.748,4.26,4.26,0,0,1-2.32,3.656m.377-4.279c-.073-.191-.092-.465-.231-.555-.232-.15-.359.1-.477.281a1.279,1.279,0,0,1-.248.252.381.381,0,0,0-.063.62.808.808,0,0,1,.055,1.077q-.306.38-.593.774a1.027,1.027,0,0,0-.1.243c.092,0,.2.044.272.007A2.393,2.393,0,0,0,977.2,346.8a1.825,1.825,0,0,0,.2-1.483m-7.671,1.463c.137.037.156.4.41.128.555-.6,1.125-1.187,1.685-1.783a.9.9,0,0,0,.113-.217c-.111,0-.245-.04-.329.007-.171.1-.3.264-.471.363a5.114,5.114,0,0,1-1.307.678c-.543.124-.6.1-.319.587a1.61,1.61,0,0,0,.219.238m.754-3.326a.808.808,0,0,0,.093-.094c.072-.1.141-.208.21-.312a1.119,1.119,0,0,0-.448.034c-.3.169-.563.416-.868.577a.938.938,0,0,0-.491,1.074,1,1,0,0,0,.116.26,1.763,1.763,0,0,0,.186-.162c.388-.443.772-.888,1.2-1.377m1.064,4.611a1.931,1.931,0,0,0,.455.177c.108.014.228-.074.343-.116-.276-.384.1-.642.185-.956a.666.666,0,0,0,0-.156c-.042,0-.093-.006-.124.014-.36.236-.719.476-1.067.728a2.326,2.326,0,0,0,.2.31m2-6.518a4.02,4.02,0,0,0-.5-.17.454.454,0,0,0-.239.075,3.586,3.586,0,0,0,.181.587c.026.061.171.14.2.12.2-.135.39-.294.582-.446a.473.473,0,0,0-.222-.166m2.35,1.375-.329.063a1.14,1.14,0,0,0,.1.147A.449.449,0,0,0,975.9,342.923Z" transform="translate(-707.415 809.284)"></path></g></svg>