<svg xmlns="http://www.w3.org/2000/svg" width="249" height="163.073" viewBox="0 0 249 163.073"><defs><style>.a{fill:#e9adca;}.b{fill:#bf941f;opacity:0.69;}.c{fill:#f18377;}.d{fill:#9bdbdb;opacity:0.994;}</style></defs><g transform="translate(-977 -3779)"><g transform="translate(-1 261.712)"><path class="a" d="M14635.555,4581.854l4.411-4.6,2.242,1.266,2.008,3.337h2.55l2.589-3.337,1.751-3.278h22.919l.85,12.766v21.042l-.85,11.6-4.405,2.584s-23.273,1.973-23.744,1.949-5.909-.971-5.909-.971l-2.308-5.337Z" transform="translate(-13523 -983.791)"></path><path class="b" d="M14695.4,4580.93l30.282-3.038,2.388,11.654-1.272,31.692-19.277,3.507-12.12-2.583-3.072-23.686Z" transform="translate(-13519 -986)"></path><path class="c" d="M14588.354,4567.954l26.358-.959.83,47.393-24.64,3.141Z" transform="translate(-13528 -987)"></path><path class="d" d="M14521.8,4581.431s7.359-2.821,8.869-2.5,30.527,0,30.527,0l5.045,10.595,1.415,31.355-1.415,3.415-17.1,2.66h-14.913l-8.324-2.66-2.27-10.742Z" transform="translate(-13531 -987)"></path><g transform="translate(978 3517.288)"><path d="M173.119,57.928c-.907,1.417-1.738,2.823-2.659,4.169-.782,1.142-1.675,2.208-2.5,3.319a17.391,17.391,0,0,1-1.879,2.537,25.438,25.438,0,0,1-2.981,2.04,2.8,2.8,0,0,0-.459.518c.187,0,.374-.007.561,0,1.158.061,2.318.111,3.474.2.694.051,1.386.141,2.075.242,1.228.18,2.452.382,3.679.572a.678.678,0,0,0,.216,0c1.653-.287,3.361.027,5-.655a9.471,9.471,0,0,1,3.056-.488c2.544-.145,5.094-.307,7.639-.273a49.516,49.516,0,0,1,5.489.556c1.6.2,3.194.431,4.776.729,1.6.3,3.188.7,4.781,1.06.087.02.173.092.252.082a3.761,3.761,0,0,0,.491-.126c-.114-.094-.213-.23-.344-.275A9.6,9.6,0,0,1,199.8,69.7a18.475,18.475,0,0,1-2.745-3.571,39.35,39.35,0,0,1-2.528-5.619,49.841,49.841,0,0,1-1.282-4.911,12.9,12.9,0,0,1-.416-1.78,3.459,3.459,0,0,1,.154-1.451c.1-.287.474-.48.728-.711.229-.209.594-.372.673-.625a14.87,14.87,0,0,1,2.625-4.93,42.081,42.081,0,0,1,3.336-3.763,16.1,16.1,0,0,1,8.355-4.328,15.591,15.591,0,0,1,11.405,2.356,13.95,13.95,0,0,1,4.745,5.155,37.736,37.736,0,0,1,1.917,4.063,14.659,14.659,0,0,1-.414,11.255c-.634,1.429-1.213,2.883-1.855,4.309a10.144,10.144,0,0,1-4.487,4.891c-1.688.909-3.485,1.618-5.252,2.373-.574.245-1.211.342-1.811.533-.139.044-.245.2-.366.3.145.058.308.19.434.162,3.084-.7,6.214-.358,9.324-.409.856-.014,1.715.179,2.575.236a1.009,1.009,0,0,0,.679-.2c.4-.359.67-.214.962.114.193.216.406.414.614.617.245.24.442.562.882.255a.632.632,0,0,1,.592.083c.507.462.742.373.981-.271.754-2.032,1.5-4.071,2.369-6.053.936-2.129,2-4.2,3.033-6.287,1.213-2.442,2.528-4.822,3.975-7.14a10.26,10.26,0,0,0,1.074-3.529c.334-1.793.519-3.614.743-5.426.084-.677.123-1.361.147-2.043.06-1.72.114-3.441.135-5.162a1.416,1.416,0,0,0-.289-.814,17.713,17.713,0,0,0-2.434-2.958c-1.1-.915-.522-1.7-.161-2.545.417-.974.368-1.144-.326-1.953-1.337-1.557-2.618-3.163-3.9-4.763-.416-.518-.654-.557-1.167-.091q-2.318,2.105-4.64,4.207c-1.143,1.039-2.288,2.076-3.415,3.133a1.217,1.217,0,0,1-1.335.33c-.5-.183-.984-.43-1.489-.605a5.972,5.972,0,0,1-2.268-1.862c-.767-.817-1.412-1.748-2.173-2.572a23.032,23.032,0,0,1-4.225-6.015,1.624,1.624,0,0,1-.007-.744c.011-.13.141-.266.118-.379-.371-1.761,1.183-2.233,2.107-3.088.9-.835,1.919-1.545,2.874-2.324,1.393-1.138,2.774-2.291,4.164-3.434,1.6-1.319,3.194-2.656,4.824-3.944,1.832-1.448,3.709-2.839,5.552-4.273,1.248-.971,2.477-1.968,3.7-2.967a1.592,1.592,0,0,1,2.442.1c1.709,2.032,3.457,4.03,5.17,6.059.795.941,1.579,1.9,2.3,2.891.886,1.219.687,2.158-.519,3.038a14.138,14.138,0,0,0-1.518,1.233c-2.369,2.295-4.718,4.61-7.075,6.917a1.2,1.2,0,0,1-.319.281.726.726,0,0,0-.285,1.251c1.912,2.207,3.187,4.821,4.75,7.25a6.358,6.358,0,0,0,.606.61c.521.6,1.011,1.233,1.549,1.82a10.76,10.76,0,0,0,1,.869c1.287,1.095,2.616,2.145,3.843,3.3a1.245,1.245,0,0,1,.1,1.805,7.112,7.112,0,0,1-1.393,1.5c-1.3.819-2.117.583-2.957-.651-.219-.322-.449-.638-.684-.95-.309-.41-.525-.313-.655.139a2.16,2.16,0,0,0-.106.462c-.017.289,0,.58-.006.87-.046,1.769-.06,3.54-.154,5.307-.1,1.949-.219,3.9-.445,5.838a11.967,11.967,0,0,1-1,4.369c-.8,1.506-1.617,3-2.394,4.521-1.45,2.831-2.9,5.665-4.3,8.517-.682,1.382-1.223,2.834-1.92,4.207-.742,1.463-1.605,2.865-2.387,4.309a1.97,1.97,0,0,0-.292,1.029c.207,2.224.48,4.442.7,6.665.128,1.287.247,2.577.286,3.869.081,2.687.141,5.375.144,8.063,0,2.3-.08,4.6-.137,6.9-.037,1.5-.093,3.006-.143,4.509-.047,1.406-.093,2.813-.146,4.219-.043,1.141-.043,2.286-.156,3.42-.2,2.007-.422,4.016-.736,6.007-.14.885-.537.974-1.238.488a.644.644,0,0,0-.382-.118c-1.73.135-3.461.266-5.185.452-.208.023-.55.374-.543.563.043,1.195.166,2.387.262,3.58.006.072,0,.145,0,.218.048,1.334.121,2.667.14,4,.061,4.356.1,8.712.151,13.068.04,3.2.007,6.4.182,9.585a25.086,25.086,0,0,0,.9,4.476c.108.444.4.827,1.047.484a.957.957,0,0,1,1.2.585c.121.606-.277.883-.757.978-1.17.23-2.347.448-3.531.575a1.029,1.029,0,0,1-1.21-1.172c.107-1.587.337-3.166.4-4.754.05-1.185-.07-2.377-.129-3.566-.029-.585-.108-1.168-.139-1.754-.059-1.116-.106-2.232-.147-3.349-.054-1.479-.1-2.958-.147-4.437-.048-1.455-.083-2.91-.148-4.364-.082-1.822-.125-3.65-.3-5.463a60.493,60.493,0,0,1-.409-8.234c.028-.715-.314-.907-.922-.9-.266,0-.532,0-.8,0-2.688-.047-5.376-.083-8.063-.155-.551-.015-.689.174-.683.7q.036,3.626.006,7.253c-.033,3.776-.088,7.552-.143,11.327-.04,2.76,0,5.527-.171,8.279-.159,2.548-.523,5.084-.853,7.618a2.862,2.862,0,0,1-2.7,2.539,5.246,5.246,0,0,1-1.55,0,.755.755,0,0,1-.492-.543c-.009-.2.239-.475.445-.593a5.063,5.063,0,0,1,1.35-.58,1.663,1.663,0,0,0,1.347-1.528c.236-1.655.417-3.318.586-4.981.088-.87.144-1.748.146-2.623.012-6.488.042-12.976-.014-19.463-.018-2.141-.271-4.28-.414-6.42a1.215,1.215,0,0,1,0-.433c.2-.615-.158-.68-.632-.693a26.3,26.3,0,0,1-6.033-1.019c-.516-.137-1-.389-1.515-.539-.333-.1-.652-.1-.695.419a.8.8,0,0,1-.406.584.871.871,0,0,1-.681-.205,4.069,4.069,0,0,1-1.192-2.686c-.4-2.339-.707-4.7-1.034-7.047-.3-2.175-.607-4.35-.865-6.531-.187-1.579-.291-3.168-.445-4.751a148.235,148.235,0,0,1-.253-15.256,49.961,49.961,0,0,1,.66-5.659c.014-.112.035-.316,0-.326a.794.794,0,0,0-.478-.054c-1.108.418-2.187.919-3.312,1.281-1.668.537-3.352,1.05-5.061,1.424a3.136,3.136,0,0,1-1.766-.4c-2.238-1.022-4.446-2.109-6.673-3.155a2.269,2.269,0,0,0-.687-.087,6.558,6.558,0,0,0,0,.691q.14,1.316.305,2.629c.187,1.468.4,2.933.573,4.4a18.6,18.6,0,0,1,.145,1.97c.059,4.38.117,8.76.142,13.141.008,1.406-.075,2.813-.139,4.219-.084,1.822-.169,3.645-.293,5.465-.116,1.707-.244,3.415-.441,5.114-.188,1.623-.5,3.231-.7,4.852a24.775,24.775,0,0,0-.149,2.477c-.018.651-.32.909-.963.945-2.117.121-4.232.281-6.348.426-.681.047-1.362.125-2.043.134-.423.006-.554.18-.517.564.052.536.135,1.072.139,1.608.017,1.934-.031,3.869.017,5.8.05,1.992.159,3.983.287,5.972.111,1.731.282,3.459.428,5.188.144,1.7.309,3.408.43,5.115.121,1.723.153,3.453.308,5.173a11.261,11.261,0,0,0,1.147,4.961,1.038,1.038,0,0,0,.942.609c.457.011,1.022.039,1.087.711a1.308,1.308,0,0,1-1.052,1.278,5.082,5.082,0,0,1-1.188-.262c-1.8-.4-1.649-2-1.948-3.275-.282-1.2-.432-2.437-.631-3.658-.188-1.157-.392-2.312-.54-3.474-.218-1.706-.4-3.416-.582-5.127-.076-.727-.112-1.458-.147-2.188-.058-1.213-.12-2.425-.143-3.639-.061-3.2-.093-6.391-.153-9.587-.023-1.238-.112-2.474-.132-3.712a3.765,3.765,0,0,1,.167-1.522c.207-.472,0-.5-.311-.523-.873-.063-1.748-.108-2.623-.149-2.136-.1-4.272-.192-6.408-.293-.827-.039-1.652-.1-2.479-.142-.471-.024-.7.212-.688.684q.009.4,0,.8c-.047,2.47-.088,4.941-.148,7.411-.029,1.189-.091,2.378-.142,3.567-.1,2.208-.183,4.417-.293,6.625-.081,1.629-.149,3.26-.3,4.884-.2,2.2-.473,4.394-.715,6.591,0,.024.01.055,0,.071a6.988,6.988,0,0,0-1.015,3.279,2.018,2.018,0,0,1-1.145,1.4c-.422.268-.85.53-1.254.823a2.283,2.283,0,0,1-2.522-.8c-.11-.4.389-.951,1.01-1.1.488-.113.983-.195,1.475-.294a1.545,1.545,0,0,0,1.4-1.668c-.075-1.418-.274-2.83-.414-4.245-.019-.192,0-.387,0-.58,0-5.392-.013-10.783.007-16.175.008-2.084.085-4.167.14-6.25.039-1.455.085-2.91.148-4.364.025-.577-.2-.8-.788-.817a31.642,31.642,0,0,1-10.026-1.876c-.314-.117-.62-.259-.94-.357-.947-.289-1.187-1.063-1.3-1.9-.3-2.175-.6-4.351-.87-6.53-.214-1.706-.42-3.415-.577-5.127-.178-1.944-.348-3.89-.432-5.84q-.207-4.833-.294-9.671c-.078-4.041-.168-8.084-.123-12.125a41.012,41.012,0,0,1,.579-5.413c.065-.445,0-.609-.366-.763-1.36-.568-2.711-1.161-4.074-1.721-1.694-.7-3.392-1.385-5.1-2.05a31.829,31.829,0,0,0-3.91-1.4,8.882,8.882,0,0,0-2.558.053c-.483.029-.96.144-1.443.184-.8.066-.933.285-.648,1.016.577,1.478,1.225,2.937,1.672,4.454.531,1.8.944,3.639,1.3,5.483.408,2.143.7,4.309,1.029,6.467.253,1.663.457,3.334.736,4.993.249,1.482.547,2.958.868,4.427.41,1.88.838,3.758,1.305,5.624.85,3.392,1.707,6.783,2.613,10.16.933,3.477,1.917,6.94,2.9,10.4a62.48,62.48,0,0,0,3.231,8.6c.283.629.433,1.12-.345,1.624-.654.423-1.064,1.2-1.668,1.728a11.865,11.865,0,0,1-2.076,1.454,36.774,36.774,0,0,1-6.917,3.086,24.92,24.92,0,0,1-5.622,1.129c-1.845.116-3.693.176-5.535.321-.233.018-.628.409-.623.62.025,1.026.186,2.047.251,3.072.076,1.187.049,2.383.164,3.565.2,2.032.45,4.059.72,6.083.207,1.549.472,3.089.722,4.632.06.368.132.752.656.716.578-.04,1.13,0,1.221.738.06.489-.612,1.058-1.272,1.15a1.633,1.633,0,0,1-1.762-1.184,20.648,20.648,0,0,1-1.176-5.246c-.151-1.64-.4-3.271-.564-4.911-.176-1.8-.294-3.6-.443-5.4-.091-1.1-.138-2.2-.326-3.282a1.184,1.184,0,0,0-.855-.69c-1.107-.128-2.234-.079-3.344-.188-1.472-.145-2.936-.373-4.4-.569-1.053-.141-2.107-.274-3.156-.439a26.453,26.453,0,0,1-2.693-.507c-.615-.164-.752.017-.751.589.012,4.038.087,8.077-.026,12.112a44.16,44.16,0,0,1-.732,6.584,3.76,3.76,0,0,1-2.732,2.936.746.746,0,0,1-1.015-.367,1.514,1.514,0,0,1,.141-.923.775.775,0,0,1,.405-.392,2.867,2.867,0,0,0,1.621-2.868c.158-4.068.244-8.139.3-12.209.025-1.816-.057-3.636-.161-5.451a1.074,1.074,0,0,0-.633-.777c-2.254-.532-4.518-1.03-6.793-1.467-1.8-.346-3.633-.554-5.438-.892a35.209,35.209,0,0,0-6.3-.736,12.553,12.553,0,0,0-3.813.625c-.471.146-.975.315-1.255-.175a1.5,1.5,0,0,1-.054-1.114c1.564-4.4,3.249-8.766,4.721-13.2.935-2.818,1.64-5.72,2.308-8.616.549-2.38.914-4.8,1.322-7.216q.484-2.858.87-5.732c.273-2.023.5-4.053.728-6.082.167-1.509.277-3.024.444-4.533.224-2.029.406-4.067.738-6.08.516-3.131,1.147-6.243,1.722-9.364.3-1.619.581-3.241.873-4.861.051-.283.111-.563.168-.845a6.1,6.1,0,0,0-.714.531c-1.632,1.616-3.262,3.235-4.874,4.871-1.568,1.592-3.1,3.217-4.674,4.805a19.611,19.611,0,0,1-3.027,2.274,3.6,3.6,0,0,1-2.034.475,6.775,6.775,0,0,1-5.4-1.483c-.5-.447-.954-.949-1.434-1.42a.41.41,0,0,0-.194-.067c-.06.144-.17.3-.147.441.134.785.312,1.563.454,2.348.24,1.329.477,2.659.693,3.992.209,1.3.408,2.593.578,3.894q.19,1.457.291,2.926c.116,1.675.2,3.353.3,5.029.1,1.725.252,3.449.279,5.175.08,4.984.115,9.969.144,14.954a8.571,8.571,0,0,1-.257,1.265,11.373,11.373,0,0,0-.159,1.528,3.3,3.3,0,0,1-2.2,3.065,37.991,37.991,0,0,1-6.471,1.9c-.324.06-.695.267-.52.92a29.792,29.792,0,0,1,.488,3.432c.177,1.228.393,2.45.574,3.677.159,1.074.278,2.154.442,3.228.228,1.5.5,2.989.716,4.488.129.874.2,1.757.3,2.635.191,1.661.4,3.32.576,4.982.114,1.046.171,2.1.3,3.143.167,1.35.393,2.692.569,4.04.12.924.2,1.853.293,2.781.059.608.044,1.228.161,1.823.151.766.893.493,1.376.638.333.1.737-.048,1.077.039a3.631,3.631,0,0,1,.87.5c-.14.232-.226.553-.431.678a4.463,4.463,0,0,1-1.3.525,9.581,9.581,0,0,1-1.156.023,1.908,1.908,0,0,1-2.037-1.5c-.329-1.272-.608-2.558-.875-3.845-.311-1.5-.617-2.993-.866-4.5-.237-1.436-.387-2.886-.592-4.327-.231-1.618-.5-3.231-.717-4.85-.174-1.29-.28-2.589-.445-3.88-.173-1.349-.4-2.691-.57-4.04-.084-.652-.122-1.312-.147-1.97-.06-1.527-.095-3.055-.151-4.582-.038-1.02-.06-2.043-.171-3.056a.865.865,0,0,0-.614-.562c-.553-.042-1.118.108-1.678.109q-8.3.016-16.61.006a1.482,1.482,0,0,0-.5.016.385.385,0,0,0-.146.34,8.581,8.581,0,0,1,.409,1.634c.045,2.538,0,5.077.026,7.615.012,1.383.08,2.765.141,4.147.087,1.967.2,3.933.285,5.9.109,2.619.214,5.238.288,7.858.071,2.518.165,5.038.12,7.555a3.954,3.954,0,0,1-1,3.063c-.618.584-1.39.519-2.093.745a3.265,3.265,0,0,1-.737.145c-.865.068-1.182-.13-1.349-.75-.121-.452.436-1.025,1.053-1.128.388-.065.782-.1,1.172-.148.743-.1,1.081-.477,1.086-1.6.008-2.107-.073-4.215-.134-6.323-.015-.513-.118-1.023-.135-1.536-.061-1.744-.085-3.49-.154-5.234-.078-1.992-.2-3.981-.284-5.973-.106-2.45-.217-4.9-.287-7.351-.074-2.59-.109-5.182-.148-7.773-.016-1.055,0-1.056-1.118-1.056-.314,0-.631-.026-.943,0a11.744,11.744,0,0,1-4.6-.626c-1.1-.336-2.268-.468-3.35-.848-1.845-.648-1.845-1.05-2.043-2.678-.149-1.226-.4-2.44-.615-3.659-.176-1.015-.366-2.027-.531-3.043-.251-1.542-.5-3.085-.722-4.632-.128-.9-.2-1.8-.3-2.708-.2-1.878-.4-3.755-.575-5.635-.08-.847-.133-1.7-.145-2.551-.06-4.09-.15-8.18-.128-12.27.009-1.73.271-3.458.405-5.188a1.19,1.19,0,0,0-.131-.411c-.107.081-.271.14-.314.246-.777,1.927-1.629,3.83-2.277,5.8-.577,1.755-.947,3.579-1.365,5.383-.272,1.177-.5,2.366-.685,3.56q-.412,2.671-.726,5.357c-.138,1.164-.208,2.336-.3,3.506-.151,1.995-.29,3.99-.438,5.985A1.128,1.128,0,0,0,5.41,111a4.5,4.5,0,0,1,1.218,7.362c-.7.735-1.346,1.616-2.507,1.635a3.056,3.056,0,0,1-1.417-.189,4.629,4.629,0,0,1-2.677-4.074,4.855,4.855,0,0,1,.433-2.862,5.076,5.076,0,0,1,1.15-1.6c.548-.379.46-.744.451-1.238a48.781,48.781,0,0,1,.018-5.027,50.624,50.624,0,0,1,.856-5.586c.466-2.331.977-4.659,1.6-6.953.8-2.947,1.62-5.9,2.629-8.775a59.734,59.734,0,0,1,2.608-5.735c.289-.609.688-1.165,1.007-1.761a.638.638,0,0,0-.03-.466c-.244-.608-.108-.965.537-1.155.757-.223,1.527-.408,2.3-.584,1.614-.369,3.229-.734,4.849-1.074,1.383-.291,2.769-.568,4.162-.806.846-.144,1.708-.2,2.561-.3.089-.011.168-.1.251-.149-.094-.094-.171-.228-.285-.274-1.176-.487-2.4-.879-3.529-1.457a27.352,27.352,0,0,1-3.947-2.364,15.6,15.6,0,0,1-4.211-4.609,32.867,32.867,0,0,1-3.409-7.872,21.332,21.332,0,0,1-.544-7.157,16.354,16.354,0,0,1,1.77-6.147,22.722,22.722,0,0,1,2.938-4.656,2.3,2.3,0,0,0,.355-2.066c-.3-1.776-.545-3.564-.726-5.356a22.074,22.074,0,0,1-.009-2.924c.022-.693.771-1.23,1.515-.478a11.848,11.848,0,0,1,1.4,1.95c.552.854,1.046,1.746,1.6,2.6.313.477.756.406,1.244.212,2.512-1,5.023-2,7.562-2.928a4.361,4.361,0,0,1,1.629.025c.176.01.351.144.52.13.977-.079,1.951-.256,2.927-.263,1.254-.009,2.512.079,3.763.186a16.059,16.059,0,0,1,2.376.388c1.048.252,2.084.564,3.111.893.415.133.626.209.8-.347a23.08,23.08,0,0,0,1-4.88,5.905,5.905,0,0,1,.313-1.753c.167-.4.58-.917.949-.978a1.2,1.2,0,0,1,1.193.876c.589,1.594,1.254,3.167,1.721,4.8.579,2.021.974,4.094,1.488,6.135a2.506,2.506,0,0,0,.593,1.123A18.674,18.674,0,0,1,54.561,42.9a36.125,36.125,0,0,1,.854,4.431,28.549,28.549,0,0,1,.29,4.084,21.492,21.492,0,0,1-1.658,7.937,30.952,30.952,0,0,1-3.384,6.286,11.8,11.8,0,0,1-7.03,5.178c-.145.033-.257.207-.384.316.151.085.3.245.453.243,2.035-.031,4.07-.115,6.105-.116a1.839,1.839,0,0,0,1.458-.7,12.857,12.857,0,0,1,1.869-1.958,6.957,6.957,0,0,1,2.184-.827c1.566-.433,3.146-.818,4.724-1.206,1.954-.481,3.906-.974,5.871-1.406,1.736-.382,3.491-.677,5.234-1.027,1.873-.376,3.742-.768,5.612-1.159a12.8,12.8,0,0,0,2.648-.608,55.066,55.066,0,0,1,5.3-1.744c.385-.129.8-.17,1.2-.26a1.682,1.682,0,0,0,.283-.12c-.083-.1-.145-.255-.254-.305-.85-.4-1.746-.711-2.558-1.173a34.628,34.628,0,0,1-4.145-2.58,33.541,33.541,0,0,1-3.545-3.363A22.555,22.555,0,0,1,71.1,45.36a19.77,19.77,0,0,1-1.332-6.42,25.085,25.085,0,0,1,1.2-9.549A18.556,18.556,0,0,1,74.6,23.137c.727-.823,1.505-1.6,2.251-2.407a1.543,1.543,0,0,0-.156-2.144c-.62-.556-1.223-1.13-1.841-1.689a6.981,6.981,0,0,1-.995-.889,2.416,2.416,0,0,1-.208-.924,3.2,3.2,0,0,1,.975.015,3,3,0,0,1,.768.564c-.029-.286-.056-.573-.088-.859a12.112,12.112,0,0,1,.75-4.552c.061-.22.451-.35.689-.522a2.5,2.5,0,0,1,.29.7c.078.9.1,1.8.167,2.694a1.7,1.7,0,0,0,.245.526,2.527,2.527,0,0,0,.32-.457,8.045,8.045,0,0,1,4.57-4.337,12.752,12.752,0,0,1,6.084-.69,14.71,14.71,0,0,1,6.565,2.166c3.1,1.857,6.173,3.753,9.328,5.508a15.478,15.478,0,0,0,3.28,1c.391.112.8.179,1.182.3a.546.546,0,0,1,.315.3c.031.094-.065.268-.154.355a1.63,1.63,0,0,1-.552.407c-1.393.472-1.6,1.953-2.453,2.879-.082.088-.023.417.08.549,1.164,1.482,2.446,2.881,3.508,4.431a26.332,26.332,0,0,1,4.1,9.4,26.981,26.981,0,0,1,.543,7.3,17.844,17.844,0,0,1-1.892,7.039,23.916,23.916,0,0,1-3.057,4.622,18.03,18.03,0,0,1-6.661,4.768c-.448.2-.936.308-1.391.495-.134.055-.217.232-.323.353.15.058.312.187.447.162.939-.172,1.866-.428,2.811-.548a4.142,4.142,0,0,1,1.6.14c1.164.327,2.318.7,3.445,1.134a7.441,7.441,0,0,1,1.165.836,2.109,2.109,0,0,0,.961.456c1.116.013,2.232-.1,3.349-.115,1.571-.024,3.148-.081,4.713.014,1.714.1,3.42.36,5.128.562,1.126.133,2.255.256,3.373.441,1.349.224,2.7.468,4.029.779,2.044.477,4.072,1.022,6.11,1.528a1.275,1.275,0,0,0,.415-.04,2.424,2.424,0,0,0-.157-.493c-1.385-2.425-2.876-4.8-4.141-7.282a20.988,20.988,0,0,1-2.49-7.668,29.978,29.978,0,0,1-.259-4.157c.086-1.6.447-3.189.667-4.785a1.9,1.9,0,0,0-.122-.586,10.688,10.688,0,0,1,.451-5.5,22.02,22.02,0,0,1,4.417-7.679,22.946,22.946,0,0,1,6.624-5.378,11.708,11.708,0,0,1,4.651-1.546,33.216,33.216,0,0,1,3.578-.261,16.229,16.229,0,0,1,5.492,1.25,10.672,10.672,0,0,1,5.032,4.024,2.446,2.446,0,0,0,2.389,1.107A9.714,9.714,0,0,1,168.939,28a10.224,10.224,0,0,1,3.343,2.919,6,6,0,0,1,1.385,3.561,7.445,7.445,0,0,1-.658,3.868,1.031,1.031,0,0,0,.2.863,12,12,0,0,1,2.182,5.336,18.627,18.627,0,0,1,.418,3.516,19.047,19.047,0,0,1-1.69,7.7c-.325.707-.644,1.417-1,2.162m-.326,15.848c.028-.508.057-1.024-.647-1.086q-1.02-.089-2.043-.145-1.565-.085-3.131-.146c-2.547-.1-5.094-.27-7.64-.259a23.054,23.054,0,0,0-3.676.55,10.949,10.949,0,0,1-5-.131c-.483-.142-.972-.056-1.088.638a7.838,7.838,0,0,1-.42,1.2,15.352,15.352,0,0,1-6.675,8.193,1.372,1.372,0,0,1-2.228-.651,3.336,3.336,0,0,1,.123-1.691c.566-2.415,1.45-4.772,1.106-7.333-.1-.781-.411-1.041-1.2-.863-.716.161-1.459.2-2.177.356a4.845,4.845,0,0,0-1.707.571c-.222.152-.11.792-.147,1.212-.006.072.006.146,0,.217-.241,2.173-.523,4.341-.712,6.518-.158,1.816-.231,3.641-.3,5.464-.076,2.155-.142,4.311-.141,6.467,0,2.277.094,4.553.133,6.83.056,3.316.076,6.633.157,9.948.039,1.581.141,3.164.293,4.738.132,1.376.345,2.747.58,4.111.124.722.287,1.488,1.345,1.363a2.217,2.217,0,0,1,.79.177,37.029,37.029,0,0,0,9.572,1.409c1.963.029,3.925.082,5.887.144,2.716.086,5.432.258,8.148.271,3.7.018,7.406-.08,11.109-.129.048,0,.116.021.142,0,.241-.22.632-.418.682-.679a11.207,11.207,0,0,0,.167-2.182q-.046-5.374-.141-10.747c-.026-1.528-.119-3.054-.136-4.582-.061-5.4-.1-10.791-.156-16.186-.007-.609-.089-1.217-.14-1.826-.192-2.289-.417-4.576-.569-6.868-.1-1.572-.107-3.15-.156-4.871m-159.355,8.2c-.017.017-.049.034-.049.051.039,3.458.071,6.916.126,10.374.023,1.431.083,2.861.143,4.291q.131,3.1.289,6.189c.091,1.846.2,3.691.287,5.536.059,1.212.091,2.426.15,3.638q.049,1.023.145,2.043c.186,1.975.4,3.948.569,5.925a.976.976,0,0,0,.778.981,29,29,0,0,0,6.846,1.126c2.223.088,4.455-.059,6.683-.12.778-.021,1.557-.078,2.333-.144,2.193-.186,4.384-.386,6.577-.576.656-.057,1.314-.089,1.97-.148,2.1-.189,4.191-.386,6.286-.578,1.072-.1,2.147-.165,3.215-.3,1.764-.218,3.517-.552,5.286-.689.986-.077,1.3-.431,1.227-1.556-.066-1.05-.2-2.095-.28-3.144-.111-1.482-.181-2.967-.3-4.448-.127-1.609-.282-3.216-.432-4.824-.139-1.488-.293-2.974-.433-4.461-.151-1.607-.282-3.216-.439-4.823-.183-1.879-.391-3.755-.576-5.634q-.3-3.069-.581-6.141c-.15-1.631-.322-3.262-.428-4.9-.13-1.988-.2-3.981-.3-5.97a3.37,3.37,0,0,0-.167-.654,2.6,2.6,0,0,0-.544.486,44.065,44.065,0,0,0-3.655,7.549c-.26.676-.176.767.559.77.919,0,1.838-.023,2.755.019a.823.823,0,0,1,.595.384.684.684,0,0,1-.207.6,5.017,5.017,0,0,1-.983.587c-1.015.516-1.038.551-.812,1.615a2.544,2.544,0,0,1-3.186,3.2,3.119,3.119,0,0,1-1.673-1.046.693.693,0,0,0-1.15-.012c-.689.707-1.439,1.359-2.08,2.105-.921,1.074-1.773,2.208-2.645,3.324-1.041,1.331-2.037,2.7-3.123,3.994-.624.744-1.4.526-1.646-.458a17.134,17.134,0,0,1-.307-2.413,4.9,4.9,0,0,0-1.433-3.4c-1.79-1.6-4.019-2.186-6.277-2.7-1.721-.4-3.446-.777-5.161-1.2-.863-.212-1.657-.8-2.62-.411-.067.027-.268-.118-.315-.223a1.091,1.091,0,0,1,.956-1.357,10.179,10.179,0,0,0,1.553,0c1.306-.206,2.6-.49,3.9-.727.88-.16,1.761-.328,2.648-.43a7.4,7.4,0,0,1,3.725.159,21.137,21.137,0,0,1,2.715,1.5c.654.391,1.034.312,1.4-.36.151-.278.338-.536.5-.808.639-1.068,1.109-1.072,1.751-.041a3.117,3.117,0,0,0,.6.561,2.468,2.468,0,0,0,.394-.538,2.253,2.253,0,0,1,2.063-1.636c1.555-.1,3.112-.174,4.664-.314a.964.964,0,0,0,.66-.534c.544-1.493.944-3.043,1.563-4.5a32.746,32.746,0,0,1,1.872-3.358,4.23,4.23,0,0,1,.3-.412,2.2,2.2,0,0,0-.584-.158c-4.728.063-9.459-.174-14.182.4-2.355.284-4.752.2-7.127.33-2.045.11-4.1.194-6.126.452-2.222.282-4.423.733-6.626,1.152-.4.075-.957.256-1.091.549a5.143,5.143,0,0,0-.323,1.819c-.081,1.453-.107,2.908-.228,4.435m215.351,24.008c.034-.228.081-.454.1-.683a16.035,16.035,0,0,0,.171-2.387c-.139-2.123-.375-4.24-.559-6.361-.11-1.264-.14-2.538-.306-3.794-.238-1.8-.575-3.58-.855-5.371-.253-1.615-.431-3.243-.741-4.846-.431-2.227-.967-4.434-1.428-6.656a.933.933,0,0,0-1.025-.876c-5.056.05-10.114.067-15.169.164a40.1,40.1,0,0,0-4.822.434,47.058,47.058,0,0,0-5.663,1.036c-1.566.422-1.948.687-1.931,2.328.014,1.385-.19,2.771-.263,4.159-.114,2.183-.29,4.368-.275,6.551.029,4.191.169,8.381.273,12.571.031,1.262.087,2.523.145,3.783.032.682.076,1.364.146,2.043.183,1.782.385,3.563.576,5.344.147,1.366.252,2.738.456,4.1a1.257,1.257,0,0,0,.932,1.056,36.866,36.866,0,0,0,9.377,1.682c1.715.125,3.44.157,5.16.149,3.824-.018,7.647-.088,11.471-.135a6.032,6.032,0,0,1,1.684.028c.733.211.783-.194.959-.688a26.84,26.84,0,0,0,1.133-6.559c.217-2.3.306-4.616.451-7.07M105.917,68.119c-1.064,1.372-2.077,2.787-3.207,4.1-1.014,1.18-2.159,2.248-3.239,3.371-.215.223-.4.473-.6.711.325-.044.651-.08.974-.137.106-.019.2-.116.3-.136.592-.115.929.274.773.864a2.988,2.988,0,0,0-.078.62,13.514,13.514,0,0,1-.121,2.445,26.039,26.039,0,0,1-2.929,6.975c-.712,1.239-1.987,1.705-2.918.962a16.078,16.078,0,0,1-2.989-2.918,10.963,10.963,0,0,1-2.018-4.242c-.2-.923-.018-1.3.645-1.724.285-.184.536-.456.119-.795a12.556,12.556,0,0,1-2.984-4.492c-1.235-2.472-2.628-4.793-5.186-6.137a6.327,6.327,0,0,0-.686-.267A3.879,3.879,0,0,0,81.7,68c.085,1.435.2,2.868.282,4.3q.16,2.694.289,5.39c.064,1.357.1,2.715.148,4.073.05,1.454.1,2.908.144,4.363.053,1.817.093,3.634.148,5.45.04,1.31.1,2.619.143,3.928q.074,2.036.146,4.073.07,1.891.145,3.783c.094,2.256.186,4.512.293,6.768a1.945,1.945,0,0,0,1.326,1.96,8.1,8.1,0,0,0,4.108.526c1.772-.309,3.6-.311,5.4-.48,1.2-.113,2.4-.245,3.589-.438,2.033-.331,4.02-.9,6.07-1.158q2.574-.318,5.135-.738c.231-.038.58-.314.6-.513a35.336,35.336,0,0,0,.3-3.72c.02-1.5-.083-3-.128-4.508-.052-1.744-.12-3.488-.142-5.233-.061-4.862-.093-9.724-.154-14.586-.021-1.72-.08-3.441-.144-5.16-.084-2.232-.2-4.463-.284-6.7-.061-1.575-.1-3.15-.151-4.725a4.415,4.415,0,0,0-.083-.537,2.175,2.175,0,0,0-.488.375c-.835,1.149-1.651,2.311-2.473,3.614M72.117,36.2a30.478,30.478,0,0,0,.185,4.43,20.4,20.4,0,0,0,2.363,6.7A23.928,23.928,0,0,0,80.43,54.06a25.194,25.194,0,0,0,6.2,3.743,20.146,20.146,0,0,0,4.594,1.475,16.962,16.962,0,0,0,4.438-.243,20.557,20.557,0,0,0,6.395-2.053,16.785,16.785,0,0,0,5.529-4.153,19.948,19.948,0,0,0,3.28-5.028,15.582,15.582,0,0,0,1.392-6.513,27.675,27.675,0,0,0-.718-5.5,19.343,19.343,0,0,0-2.986-7.1c-1.1-1.533-2.213-3.064-3.391-4.54-1.065-1.333-1.162-1.329-2.4-.457a16.106,16.106,0,0,1-9.117,2.856,24.393,24.393,0,0,1-5.492-.568,12.889,12.889,0,0,1-7.665-4.763c-.334-.416-.74-.534-1.138-.082-.51.58-1.014,1.167-1.487,1.777a30.705,30.705,0,0,0-3.926,5.914,19.687,19.687,0,0,0-1.531,5.314c-.1.637-.193,1.274-.29,2.056m39.676,67.963c-.024.522-.019,1.047-.078,1.565-.178,1.565-.34,3.134-.589,4.689a18.572,18.572,0,0,1-.741,3.1,12.038,12.038,0,0,1-1.142,2.134.862.862,0,0,1-.527.392c-.651.092-1.321.061-1.963.187-.259.051-.669.4-.658.587.086,1.514.281,3.022.4,4.535.125,1.65.2,3.3.3,4.955.095,1.579.2,3.158.287,4.738.107,2.014.21,4.028.284,6.043.021.564.267.761.8.733,1.917-.1,3.847-.1,5.75-.32a39.578,39.578,0,0,0,5.587-1.03,38.426,38.426,0,0,0,9.443-4.5c.232-.136.545-.353.213-.744a21.177,21.177,0,0,1-3.834-7.472c-.729-2.291-1.339-4.62-1.986-6.937q-.889-3.187-1.74-6.385c-.548-2.072-1.091-4.145-1.591-6.229-.334-1.392-.58-2.805-.881-4.205-.32-1.485-.689-2.959-.983-4.449-.332-1.683-.626-3.374-.894-5.068-.227-1.437-.384-2.885-.59-4.326-.231-1.617-.467-3.235-.727-4.847a38.132,38.132,0,0,0-.795-4.386c-.656-2.3-1.474-4.557-2.271-6.816a.882.882,0,0,0-.735-.429.87.87,0,0,0-.519.646,14.5,14.5,0,0,0,.112,1.533c.06,2.493.1,4.987.15,7.481.048,2.469.144,4.939.136,7.408-.019,5.781-.087,11.562-.208,17.415M79.225,70.73l-.188-.363c-.083.077-.226.145-.238.231-.113.828-.16,1.666-.308,2.487-.412,2.289-.9,4.565-1.287,6.858q-.577,3.4-1.016,6.83c-.243,1.871-.388,3.755-.593,5.631-.232,2.125-.466,4.249-.728,6.37-.218,1.764-.434,3.53-.731,5.282-.443,2.61-.942,5.211-1.444,7.811a59.915,59.915,0,0,1-2.581,9.444c-1.41,3.812-2.925,7.586-4.391,11.377a3.436,3.436,0,0,0-.109.443c.148-.019.3-.028.444-.058a16.485,16.485,0,0,1,2.934-.584,37.647,37.647,0,0,1,4.808.271q3.129.341,6.238.866c2.611.437,5.22.9,7.8,1.475.65.143.522-.12.522-.457q0-9.5.006-19c0-.411-.112-.677-.558-.749-.812-.132-1.618-.3-2.432-.425-.555-.083-1.262-.068-1.444-.641-.217-.682-.7-.669-1.185-.837a1.243,1.243,0,0,1-.606-.6,2.793,2.793,0,0,1-.162-.874c-.292-2.2-.6-4.4-.866-6.6-.222-1.85-.441-3.7-.573-5.561-.152-2.131-.2-4.27-.3-6.4-.038-.8-.106-1.6-.141-2.405-.1-2.3-.191-4.609-.3-6.913-.029-.633-.1-1.265-.14-1.9-.149-2.526-.31-5.051-.428-7.578-.051-1.094-.009-2.191-.009-3.432M197.454,60a2.39,2.39,0,0,0,.056.485c.361,1.106.679,2.231,1.117,3.306a10.744,10.744,0,0,0,3.095,4.36,11.549,11.549,0,0,0,7.061,2.317,13.214,13.214,0,0,0,4.061-.65,19.965,19.965,0,0,0,8.257-5.227,16.008,16.008,0,0,0,3.159-4.4,12.006,12.006,0,0,0,1.057-8.778,17.913,17.913,0,0,0-3.638-6.749,11.471,11.471,0,0,0-4.552-3.326,17.045,17.045,0,0,0-7.454-1.42,1.408,1.408,0,0,0-.484.224c-.32.162-.627.353-.958.486-.5.2-1.037.308-1.513.546a22.369,22.369,0,0,0-8.011,6.99,9.808,9.808,0,0,0-2.1,6.8A49.762,49.762,0,0,0,197.454,60m23.138-44.318c-1.757,1.419-3.52,2.832-5.269,4.261-.559.457-.218.941.041,1.387a24.551,24.551,0,0,0,4.5,5.541c1.046.98,2.014,2.048,2.966,3.122.459.518.813.679,1.3.273,1.3-1.078,2.594-2.165,3.862-3.282,1.177-1.036,2.315-2.117,3.475-3.174,2.158-1.968,4.309-3.942,6.481-5.893.924-.83,1.9-1.607,2.841-2.416,1.072-.918,2.136-1.847,3.206-2.767.369-.317.43-.585.075-1.012-.689-.831-1.279-1.743-1.943-2.6-1.466-1.887-2.963-3.75-4.424-5.641-.5-.647-1.04-.465-1.557-.033-.909.76-1.849,1.484-2.776,2.222-1.218.971-2.43,1.948-3.655,2.91-1.42,1.116-2.85,2.221-4.278,3.328-1.591,1.234-3.185,2.466-4.85,3.772m-49.54,29.956c-.1.468-.167.943-.294,1.4-.847,3.05-2.208,5.726-5.053,7.457a7.987,7.987,0,0,1-5.237,1.353c-1.824-.226-3.66-.512-4.937-2.082-.274-.337-.494-.338-.736.094a7.362,7.362,0,0,1-2.933,2.756,11.83,11.83,0,0,1-3.87,1.01c-.176.034-.451.393-.415.533a15.514,15.514,0,0,0,.714,2.093c.1.235.246.425.7.284,2.317-.725,4.665-1.354,7-2.013,2.122-.6,4.241-1.208,6.371-1.773.335-.089.89-.181.591.578a1.144,1.144,0,0,0,.2.84,1.784,1.784,0,0,1-.079,1.822,8.529,8.529,0,0,1-.725,1.222,9.913,9.913,0,0,1-3.632,3.467,12.62,12.62,0,0,1-5.323,1.3,10.174,10.174,0,0,1-2.868-.569c-.38-.1-.788-.266-.762.25.057,1.106.256,2.2.405,3.3.06.441.36.58.762.531.153-.019.3-.123.449-.136a24.6,24.6,0,0,0,5.9-1.169,33.956,33.956,0,0,0,4.472-1.626A17.877,17.877,0,0,0,167.477,62a27.633,27.633,0,0,0,4.64-7.441,16.724,16.724,0,0,0,1.389-6.527,9.99,9.99,0,0,0-.3-2.556c-.5-1.715-1.116-3.4-1.757-5.072a.715.715,0,0,0-1.04-.416,2.456,2.456,0,0,1-1.3-.081c-1.219-.237-2-1.174-2.919-1.884-1.075-.827-2.166-1.638-3.289-2.4a1.249,1.249,0,0,0-1.045-.188,2.2,2.2,0,0,1-2.281-.122,2.243,2.243,0,0,0-2.3.065,32.355,32.355,0,0,0-4.646,2.971A11.068,11.068,0,0,0,148.86,43.9c-.04.137-.037.41.023.434a10.9,10.9,0,0,0,2.446.9,4.551,4.551,0,0,1,2.207.639,1.431,1.431,0,0,0,1.916.011c.457-.313,1.027-.46,1.488-.768a3.9,3.9,0,0,0,.9-.924,9.367,9.367,0,0,0,.591-1.057c.962-1.714,2.427-2.31,4.08-1.505.951.463,1.793.8,2.708.024.042-.036.144.008.213-.006,1.355-.288,2.7-.613,4.067-.853.615-.108,1.336-.159,1.541.688a5.913,5.913,0,0,1,.147,1.46c-.012.851-.087,1.7-.135,2.7m-66.005,89.8a4.385,4.385,0,0,0,0-.507c-.189-1.612-.392-3.223-.575-4.836-.113-1-.195-2-.293-3-.192-1.95-.411-3.9-.571-5.851-.1-1.184-.086-2.377-.16-3.564-.076-1.223-.2-1.3-1.436-1.325-1.914-.033-3.831-.035-5.739-.158-1.786-.115-3.563-.365-5.343-.567-.587-.067-.862.073-.837.76.087,2.4.12,4.793.158,7.19.056,3.484.1,6.969.147,10.453,0,.145-.009.291,0,.435.09,1.181.221,1.311,1.371,1.479.541.079,1.075.211,1.615.3q3.2.509,6.4,1c.661.1,1.322.221,1.988.271q1.6.122,3.2.143c.121,0,.36-.31.348-.46-.044-.544-.173-1.082-.27-1.767m-73.4-80.947c.514-1.144.474-1.095,1.485-.293.527.419.427.643.009.98a1.807,1.807,0,0,0-.4.414c-.062.1-.029.256-.039.387a1.053,1.053,0,0,0,.3-.086,6.136,6.136,0,0,0,.95-.672.917.917,0,0,1,1.112-.259,5.253,5.253,0,0,0,1.968.306c1.635-.08,3.265-.267,4.9-.415a6.852,6.852,0,0,0,1.87-.211,14.85,14.85,0,0,0,5.833-3.448c.827-.9,1.863-1.613,2.71-2.5.27-.283.239-.854.345-1.294-.181-.018-.462-.12-.528-.041-1.081,1.284-2.128,2.6-3.2,3.885-.118.141-.353.185-.534.274a1.612,1.612,0,0,1,.066-.544,5.51,5.51,0,0,0,.709-3.184c-.085-.75-.258-1.49-.364-2.238-.034-.238-.077-.578.051-.718a20.088,20.088,0,0,1,1.906-1.864,1.5,1.5,0,0,0-.02-2.133.406.406,0,0,0-.379.008c-.745.8-1.473,1.608-2.2,2.421a4.109,4.109,0,0,0-.291.417,2.909,2.909,0,0,1-.288-.346,2.455,2.455,0,0,0-2.361-1.246c-.489.022-.975.112-1.463.13a1.48,1.48,0,0,1-.5-.178,2.787,2.787,0,0,1,.3-.356c.535-.451,1.092-.878,1.618-1.339.961-.844,1.918-1.693,2.843-2.575a.759.759,0,0,0,.124-.679c-.312-.749-.786-.843-1.334-.248-1.234,1.34-2.517,2.649-3.61,4.1a1.105,1.105,0,0,1-1.52.387,3.122,3.122,0,0,0-2.162-.25c-.138.049-.274.1-.41.153a1.431,1.431,0,0,1,.187-.5C40.572,39.4,41.843,38.1,43.1,36.78a1.97,1.97,0,0,0,.3-.453c.035-.066,0-.168,0-.253-.068.011-.155,0-.2.036a9.9,9.9,0,0,0-.863.717c-1.972,1.96-3.92,3.943-5.916,5.878a2.071,2.071,0,0,1-1.221.512c-1.107.07-2.222.031-3.334.017a5.572,5.572,0,0,1-.593-.135c-.47-.06-.943-.1-1.415-.146a4.571,4.571,0,0,0-.462,0,1.733,1.733,0,0,1,.208-.5c.5-.574,1.02-1.127,1.532-1.689,1.436-1.58,2.877-3.157,4.3-4.75a1.755,1.755,0,0,0,.215-.591,2.5,2.5,0,0,0-.5.319q-3.215,3.341-6.41,6.7a.935.935,0,0,1-1.249.222,5.732,5.732,0,0,0-3.977-.456c-.152.036-.342-.089-.514-.14a1.438,1.438,0,0,1,.182-.447c.686-.757,1.392-1.5,2.087-2.244q2.771-2.985,5.539-5.973c.648-.7,1.306-1.39,1.94-2.1.085-.1.054-.294.076-.445a1.207,1.207,0,0,0-.355.168c-1.353,1.341-2.691,2.7-4.048,4.036-2.692,2.655-5.417,5.277-8.072,7.969a1.555,1.555,0,0,1-1.679.457,1.563,1.563,0,0,0-1.737.474A4.418,4.418,0,0,0,15.7,47.141a1.42,1.42,0,0,1-.457,1.127,16.142,16.142,0,0,0-1.682,1.7,2.082,2.082,0,0,0-.458,1.17,7.032,7.032,0,0,0,.269,1.618,1.255,1.255,0,0,0,.208.348c.074-.088.148-.176.22-.265.542-.67,1.079-1.344,1.631-2.005.076-.091.259-.191.337-.157a.506.506,0,0,1,.2.335,4.478,4.478,0,0,0,.322,1.528c1.149,1.662.462,2.821-.908,3.835-.633.468-.438.993-.181,1.54.067.143.176.265.252.4.314.569.447.574.815.084.392-.521.817-1.017,1.229-1.523.243-.3.456-.418.817-.084a1.766,1.766,0,0,0,1.011.493,24.575,24.575,0,0,0,2.477-.121c.137-.009.273-.041.41-.063-.07.164-.1.378-.219.483-.311.268-.712.442-.991.736-.9.946-1.736,1.944-2.629,2.892-.776.823-.795.8-.142,1.764.793,1.165.786,1.159,1.728.146a3.1,3.1,0,0,0,.973-2.439c-.1-1.609.443-2.258,1.9-2.768a41.524,41.524,0,0,1,5.836-1.51,3.737,3.737,0,0,0,2.971-1.924m5.077,2.176c-.941.121-1.888.209-2.823.37q-2.293.394-4.572.869c-1.731.362-3.467.715-5.174,1.171-1.466.392-1.455.454-1.357,1.926q.134,2.008.294,4.014c.014.174.048.427.163.5.711.456.587,1.159.544,1.81a.987.987,0,0,0,.722,1.069,18.91,18.91,0,0,0,6.167,1.371,34.579,34.579,0,0,0,7.295-.376,13.09,13.09,0,0,0,7.134-3.606,1.78,1.78,0,0,0,.427-1.249c-.067-1.153-.306-2.3-.4-3.449-.1-1.257-.056-2.527-.183-3.781-.047-.468.076-1.219-.722-1.281a12.955,12.955,0,0,0-2.174,0c-1.76.16-3.516.376-5.346.642M74.8,65.29c-.262.068-.522.141-.785.2-2.354.562-4.7,1.136-7.062,1.677-1.968.452-3.947.852-5.917,1.3-1.875.424-3.749.858-5.614,1.328a2.535,2.535,0,0,0-1.844,1.158c-.192.354-.082.392.18.423a12.193,12.193,0,0,1,1.673.175,1.4,1.4,0,0,1,.832.658c.083.175-.18.6-.4.8-.154.14-.489.072-.74.115a3.217,3.217,0,0,0-.418.129c.1.125.167.3.294.366.478.241,1,.4,1.461.67,1.7.977,3.406,1.949,5.065,2.995.7.444,1.125.572,1.8.047,1.485-1.159,2.974-2.316,4.405-3.539q3.148-2.693,6.211-5.485c.966-.876,1.847-1.843,2.779-2.757.283-.278.621-.5.9-.781.1-.1.095-.288.138-.435a3.591,3.591,0,0,0-.35.085c-.823.287-1.645.579-2.612.869m110.54,6.818c-1.313.1-2.637.118-3.937.308-1.828.267-3.64.645-5.452,1.008-.432.086-.923.309-.672.879a2,2,0,0,0,.836.969c.722.343,1.541.476,2.282.788,1.913.807,3.8,1.683,5.712,2.486a2.573,2.573,0,0,0,1.463.257c2.381-.585,4.739-1.265,7.107-1.906a3.736,3.736,0,0,0,1.84-1.016,3.279,3.279,0,0,1,1.444-.85c1.461-.4,2.952-.7,4.429-1.042a1.741,1.741,0,0,0,.36-.178c-.1-.12-.169-.294-.294-.345a1.976,1.976,0,0,0-.558-.053c-.606-.054-1.216-.079-1.816-.17-1.428-.217-2.848-.487-4.277-.692-.969-.138-1.947-.245-2.924-.289-1.8-.081-3.6-.106-5.546-.154m-71.227-4.5c1.207-.231,2.32-.9,3.616-.735a7.93,7.93,0,0,0,1.473,0c1.311-.082,2.412.6,3.574,1.005,3.311,1.159,6.58,2.433,9.89,3.6a4.825,4.825,0,0,0,2.139.214c1.768-.227,3.514-.619,5.279-.879.868-.128.925-.128.648-.953a1.983,1.983,0,0,0-.147-.374c-.357-.609-.355-1.458-1.352-1.606-1.874-.278-3.736-.646-5.6-1-2.46-.47-4.907-1.018-7.377-1.429-1.74-.289-3.508-.418-5.267-.593-.822-.082-1.651-.108-2.477-.15-2.014-.1-4.028-.2-6.042-.282-.189-.008-.505.071-.546.187a.871.871,0,0,0,.122.625,18.875,18.875,0,0,0,1.139,1.845,2.162,2.162,0,0,0,.928.526m41.779-15.522a6.28,6.28,0,0,0,6.591,1.871,7.661,7.661,0,0,0,3.8-2.16,10.608,10.608,0,0,0,2.568-4.576c.4-1.543.61-3.137.89-4.711.063-.353-.056-.676-.483-.569q-1.867.465-3.713,1.016c-.43.129-.76.288-.475.951a9.407,9.407,0,0,1,.809,2.726,6.963,6.963,0,0,1-.788,4.076,3.766,3.766,0,0,1-4.315,2.063,4.451,4.451,0,0,1-2.46-1.129,6.2,6.2,0,0,1-1.152-2.751,8.321,8.321,0,0,1,.1-2.252c.009-.133.02-.267.03-.4-.159.014-.351-.024-.472.051-.523.324-1.037.664-1.532,1.03a1.284,1.284,0,0,1-1.424.116c-.464-.227-.9-.513-1.358-.75a1.41,1.41,0,0,0-.441-.068,1.266,1.266,0,0,0,.055.39,5.093,5.093,0,0,1,.039,4.39,4.5,4.5,0,0,1-2.256,2.582,4.419,4.419,0,0,1-2.073.434c-.563-.03-.933.44-.86,1.086.05.442.393.528.791.506s.778.035,1.159-.012a5.416,5.416,0,0,0,3.63-1.738c.632-.729,1.254-1.469,1.9-2.184.413-.456.861-.43,1.43.012M35.27,91.039c.048.077.128.149.14.231.152.978.29,1.958.446,2.935a1.321,1.321,0,0,0,.182.358,2.027,2.027,0,0,0,.245-.274,9.215,9.215,0,0,1,.478-.814c.894-1.156,1.819-2.288,2.708-3.448A24.368,24.368,0,0,1,44,85.328a2.027,2.027,0,0,0,.538-.843,9.9,9.9,0,0,1,.318-1.1c.268-.474.144-.578-.334-.546-.825.055-1.655.062-2.476.156-1.136.13-2.311.211-2.738,1.614a1.967,1.967,0,0,1-.681.867c-.394.31-.935.531-1.3.046-.509-.67-.68-.3-.926.17a1.482,1.482,0,0,1-1.845.9,6.476,6.476,0,0,1-1.427-.748c-1.347-.82-2.719-1.664-4.356-1.53s-3.281.456-4.919.709c-.118.018-.22.142-.329.217a1.186,1.186,0,0,0,.349.2c1.444.252,2.906.424,4.333.752a18.115,18.115,0,0,1,3.447,1.115,6.85,6.85,0,0,1,3.615,3.724M100.985,62.9c.222-.222.448-.44.663-.668a1.407,1.407,0,0,0,.156-.254c-.1-.055-.192-.151-.294-.16a18.378,18.378,0,0,0-2.184-.138c-1.386.051-2.771.156-4.153.283-1.854.17-3.7.378-5.554.58-.132.014-.365.106-.364.16a.775.775,0,0,0,.156.5,17.115,17.115,0,0,1,2.823,3.976,17.513,17.513,0,0,1,2.524,7.941c0,.154.145.3.222.457a2.334,2.334,0,0,0,.2-.5,7.237,7.237,0,0,1,.231-1.644c.748-1.791,1.6-3.537,2.377-5.317a20.1,20.1,0,0,1,3.2-5.223M91.918,18.724c-.535.051-1.073.08-1.6.158-1.2.176-2.4.387-3.606.565-1.073.159-2.151.288-3.225.446-.121.018-.227.139-.34.213.115.072.225.195.347.208,1.924.2,3.846.449,5.776.567a24.6,24.6,0,0,0,3.345-.131,36.784,36.784,0,0,0,4.6-.459c2.249-.461,4.455-1.127,6.677-1.718.112-.03.194-.175.29-.266a1.324,1.324,0,0,0-.29-.225,6.1,6.1,0,0,1-.7-.232c-2.081-1.163-4.16-2.33-6.227-3.517-1.544-.887-3.05-1.843-4.615-2.69-.482-.261-1.3-.545-1.617-.323a10.618,10.618,0,0,1-1.742.737c-1.128.544-2.253,1.1-3.366,1.671-.136.07-.195.291-.289.442a1.9,1.9,0,0,0,.492-.089,12.51,12.51,0,0,1,6.236-.842,14.763,14.763,0,0,1,2.371.553c.5.115.814.474.567.888a1.265,1.265,0,0,1-1.066.371,10.414,10.414,0,0,0-3.963.2c-.112.026-.2.162-.3.246.123.06.245.172.369.173,1.144.013,2.288-.01,3.431.014a13.476,13.476,0,0,1,2.4.161,18.814,18.814,0,0,1,2.827.865.816.816,0,0,1,.515,1.1,1.261,1.261,0,0,1-.892.6c-2.083.146-4.171.219-6.4.315M90.1,69.134c.222.416.446.831.666,1.248a1.114,1.114,0,0,1,.191.423,1.788,1.788,0,0,1-.142.515c-.12-.078-.277-.131-.352-.24-.257-.372-.48-.767-.726-1.148-1.228-1.9-2.268-3.949-4.093-5.4a3.792,3.792,0,0,0-2.506-1.116,14.425,14.425,0,0,0-1.838.282,2.424,2.424,0,0,0-.438.166c.1.088.209.17.3.266.131.134.363.282.357.416-.032.772.556,1.024,1.071,1.273a13.427,13.427,0,0,1,6.2,6.344c.555,1.1,1.108,2.21,1.752,3.26a15.164,15.164,0,0,0,1.683,2.2c.439.486.591.382.774-.25a8.291,8.291,0,0,0,.157-3.523,14.782,14.782,0,0,0-1.653-5.118c-1.031-1.868-2.377-3.56-3.525-5.367a1.2,1.2,0,0,0-1.226-.527,3.363,3.363,0,0,0-.869.259c.2.228.4.456.6.683.048.054.1.1.154.154a18.729,18.729,0,0,1,3.457,5.2m6.963,4.5c-.193.5-.409.994-.57,1.5a2.323,2.323,0,0,0-.009.674,2.019,2.019,0,0,0,.549-.275c1.153-1.131,2.359-2.22,3.416-3.436,1.261-1.451,2.376-3.027,3.581-4.527a26.182,26.182,0,0,1,4.432-4.75c.283-.214.116-.347-.048-.462-.508-.357-.929.044-1.218.305-1.314,1.186-2.618,2.391-3.827,3.682a27.7,27.7,0,0,0-1.919,2.6,5.285,5.285,0,0,1-.458.486c-.036-.262-.088-.523-.1-.786,0-.1.086-.2.146-.3.462-.728.875-1.494,1.4-2.171A12.967,12.967,0,0,1,106,62.518c.077-.044.109-.166.162-.251-.1-.056-.192-.153-.293-.161a7.345,7.345,0,0,1-1.069-.055,1.66,1.66,0,0,0-2.033.667c-.657.935-1.351,1.848-1.939,2.825-.9,1.5-1.8,3.017-2.57,4.592a24.141,24.141,0,0,0-1.185,3.5m40.619-22.775c.068.455.1.919.211,1.364.4,1.62.769,3.251,1.254,4.845q.85,2.791,1.886,5.524c.5,1.335,1.219,2.591,1.71,3.93a22.956,22.956,0,0,1,1.327,7.572,3.284,3.284,0,0,0,.133.628,2.26,2.26,0,0,0,.286-.63c.165-1.46.326-2.921.439-4.386a15.912,15.912,0,0,0-.818-5.747,72.336,72.336,0,0,0-4.209-10,24.156,24.156,0,0,1-2.079-6.1,1.011,1.011,0,0,0-.136-.266c-.093.115-.273.237-.265.345.067.926.169,1.849.26,2.919m10.88-17.7.64-.666a3.264,3.264,0,0,0-.989.312,26.874,26.874,0,0,0-4.949,4.319,19.11,19.11,0,0,0-3.508,5.869,7.661,7.661,0,0,0-.39,4.039,13.266,13.266,0,0,0,2.38,5.026,2.685,2.685,0,0,0,.312.322c.04-.167.152-.356.11-.5a9.739,9.739,0,0,1-.135-4.314c.245-1.662.433-3.335.74-4.985a17.636,17.636,0,0,1,1.93-4.993,14.619,14.619,0,0,1,3.858-4.431m-7.4,20.164c.41.8.854,1.579,1.224,2.394.943,2.075,1.926,4.135,2.752,6.257a15.7,15.7,0,0,1,1.244,5.214,19.928,19.928,0,0,1-.442,5.691c-.409,1.557-.708,3.177-2.063,4.3a2.529,2.529,0,0,0-.527.933c-.042.095.052.25.084.378.129-.039.309-.038.378-.125a11.718,11.718,0,0,0,1.395-1.886c1.517-3.045,2.63-6.2,2.037-9.688-.274-1.609-.625-3.211-1.043-4.789-.616-2.324-1.367-4.612-1.971-6.938a23.314,23.314,0,0,1-.47-3.215,18.976,18.976,0,0,1-.247-3.15c.075-1.377.385-2.739.545-4.113a18.206,18.206,0,0,1,1.677-5.4,15.569,15.569,0,0,1,3.529-4.7,2.074,2.074,0,0,0,.443-.471c.062-.12-.022-.315-.04-.477a1.3,1.3,0,0,0-.346.175c-.586.57-1.184,1.131-1.734,1.735a14.6,14.6,0,0,0-3.074,5.25,24.992,24.992,0,0,0-1.458,9.065c.061,1.339.193,2.676.278,4.014a3.282,3.282,0,0,1-.081.633c-.277-.089-.645-.1-.815-.282-.414-.454-.73-1-1.1-1.493a3.639,3.639,0,0,0-.4-.4c.023.213.032.429.073.639.02.106.1.2.148.445M95.762,85.672c.3-.105.747-.123.87-.332a12.411,12.411,0,0,0,1.231-2.527c.436-1.395,1.078-2.779.668-4.326-.107-.4-.214-.478-.615-.353-1.094.342-2.235.55-3.3.96-1,.383-2.134.574-2.859,1.472a1.083,1.083,0,0,0-.2.876,6.914,6.914,0,0,0,4.2,4.23M155.6,60.358a29.532,29.532,0,0,1-5.934,1.6c-.23.052-.642.2-.634.249a1.406,1.406,0,0,0,.32.86,2.781,2.781,0,0,0,2.284.781,3.175,3.175,0,0,1,.789.009,7.844,7.844,0,0,0,2.114.1,16.059,16.059,0,0,0,6.074-2.816,4.051,4.051,0,0,0,1.432-2.445c.052-.227.148-.668-.375-.481-1.978.706-3.95,1.429-6.069,2.146m-.145-32.64c.62.137,1.238.285,1.862.4a1.218,1.218,0,0,0,.442-.095,1.23,1.23,0,0,0-.186-.354c-.414-.387-.829-.776-1.271-1.129a7.369,7.369,0,0,0-4.083-1.863A12.448,12.448,0,0,0,141.9,29.97a1.46,1.46,0,0,0-.142.44,1.332,1.332,0,0,0,.49-.085c.5-.321.961-.706,1.469-1.012a15.178,15.178,0,0,1,9.165-2.017c.816.06,1.621.277,2.576.422M96.27,22.205c-1.047.1-2.093.2-3.14.288-.214.019-.431.015-.646.016-1.342,0-2.685.045-4.024,0-.925-.034-1.846-.2-2.77-.293a1.132,1.132,0,0,0-.373.1c.1.11.182.264.307.324a10.2,10.2,0,0,0,1.656.719,39.843,39.843,0,0,0,4.738,1.134,10.6,10.6,0,0,0,3.406-.138C96.738,24.1,98,23.59,99.3,23.225c2.034-.572,3.512-2.047,5.2-3.174.114-.076.134-.292.2-.443a1.344,1.344,0,0,0-.5.048,11.532,11.532,0,0,1-2.061,1.14c-1.885.548-3.813.949-5.868,1.409m38.805,30.681a16.221,16.221,0,0,0,.939,2.215c.809,1.342,1.721,2.622,2.6,3.925.041.062.155.141.2.123.077-.033.181-.138.175-.2a1.6,1.6,0,0,0-.138-.519,24.4,24.4,0,0,1-1.876-5.957c-.155-.839-.184-1.7-.362-2.534a3.694,3.694,0,0,1,.426-2.859,3.639,3.639,0,0,0,.5-2.261c0-.091-.129-.18-.2-.271-.076.083-.185.153-.222.251-.072.188-.09.4-.154.588a13.433,13.433,0,0,1-.6,1.7c-.263.535-.755.49-1.032-.051a4.39,4.39,0,0,1-.519-1.156c-.156-.891-.2-1.8-.315-2.7a2.2,2.2,0,0,0-.189-.5,1.626,1.626,0,0,0-.228.51c-.031.489-.011.981-.011,1.473,0,.974.01,1.948,0,2.922a20.639,20.639,0,0,0,1.018,5.3m5.73-14.579a23.217,23.217,0,0,1,4.13-4.589,21.434,21.434,0,0,1,6.752-3.831,2.412,2.412,0,0,0,.505-.343c-.227-.067-.475-.228-.678-.185-.635.136-1.245.382-1.878.528a13.938,13.938,0,0,0-5.87,3.145,17.613,17.613,0,0,0-3.718,4.766,6.482,6.482,0,0,0-1.2,3.266,7.22,7.22,0,0,0,.11.87c.147-.257.308-.508.437-.774.451-.924.89-1.853,1.406-2.853m20.89,8.414c-.236-.188-.462-.515-.71-.533-.487-.035-1.142-.784-1.44-.015a6.912,6.912,0,0,0-.427,2.719c.042.991.9,1.562,1.7,1.993a2.055,2.055,0,0,0,2.043-.1c.575-.329.261-.8.221-1.24a3.5,3.5,0,0,0-1.385-2.82M5.314,116.353a2.727,2.727,0,0,0-.208-3.183c-.631-.825-2.161-1.027-2.605-.219a3.866,3.866,0,0,0-.137,3.894c.528.942,1.161,1.328,2.2.51a5.74,5.74,0,0,0,.751-1m16.9-82.325c.2-.253.4-.512.616-.757.169-.194.357-.371.537-.556-.31.025-.621.039-.928.08a.587.587,0,0,0-.3.15c-1.329,1.224-2.649,2.457-3.979,3.681a12.088,12.088,0,0,0-3.432,4.732c-.166.46-.429.885-.593,1.346-.059.165.043.387.072.583.085-.02.206-.01.251-.064,1.064-1.294,2.1-2.61,3.182-3.89,1.483-1.758,3-3.489,4.571-5.3M163.8,29.821c.181.923.147,1.946,1.167,2.473.155.08.307.167.461.25a2.41,2.41,0,0,0-.142-.644c-.318-.6-.722-1.148-1-1.759-.3-.649-.031-.9.673-.994.608-.079.888.321,1.287.6a6.277,6.277,0,0,1,2.173,2.741,18.3,18.3,0,0,1,1.49,5.325c.012.115.306.322.384.288a2.7,2.7,0,0,0,.883-1.917c-.139-.546-.285-1.091-.41-1.64a6.048,6.048,0,0,0-1.718-3.321,24.407,24.407,0,0,0-3.742-2.471c-1-.582-1.505-.226-1.505,1.073m-12.4-6.891a3.8,3.8,0,0,0-.589.154c-.091.039-.141.173-.209.263.1.054.209.154.315.156a14.925,14.925,0,0,1,2.775.037c2.248.466,3.788,2.064,5.287,3.659a1.137,1.137,0,0,1,.3.933c-.326.834.143,1.081.763,1.336a10.8,10.8,0,0,1,.927.564,4.5,4.5,0,0,0,.649.235c-.129-.233-.253-.47-.391-.7a.4.4,0,0,0-.169-.111.956.956,0,0,1-.593-1.087,2.318,2.318,0,0,0-.42-1.567,7.639,7.639,0,0,0-4.51-3.527,14.2,14.2,0,0,0-4.134-.348m-15.885,21.4c.048.487.08.977.156,1.46.02.129.177.236.272.354a2.351,2.351,0,0,0,.15-.326c.1-.346.192-.694.282-1.043.343-1.331.7-2.658,1.018-4,.147-.624.194-1.272.3-1.906.137-.811.3-1.617.422-2.43.02-.13-.115-.284-.179-.427a2.259,2.259,0,0,0-.242.281,17.627,17.627,0,0,0-1.008,1.684,15.327,15.327,0,0,0-1.3,4.89,8.714,8.714,0,0,0,.131,1.46M27.073,31.925c-1.366,1.56-2.722,3.128-4.1,4.676s-2.8,3.09-4.19,4.646c-.085.095-.052.294-.074.445a1.156,1.156,0,0,0,.354-.169c1.117-1.152,2.21-2.327,3.338-3.468q3.057-3.091,6.149-6.148c.314-.311.684-.565,1.019-.856.149-.129.275-.285.411-.429a1.781,1.781,0,0,0-.66-.136,2.968,2.968,0,0,0-2.245,1.437M80.023,14.517a8.027,8.027,0,0,0-.35.869c-.029.1.087.245.138.369.1-.061.235-.1.278-.185A5.865,5.865,0,0,1,82.6,13.093a13.2,13.2,0,0,1,6.546-2.066,2.364,2.364,0,0,0,.644-.186c-.222-.128-.445-.368-.666-.366a33.744,33.744,0,0,0-3.564.141,6.773,6.773,0,0,0-5.539,3.9M56.159,95.1c.1,1.169.2,2.337.29,3.506.147,1.825.288,3.651.442,5.475a1.268,1.268,0,0,0,.169.376c.087-.125.25-.252.246-.374-.012-.416-.1-.829-.128-1.246-.1-1.531-.2-3.062-.293-4.593-.1-1.507-.19-3.014-.291-4.521-.039-.585-.082-1.17-.146-1.753-.186-1.685-.37-3.371-.583-5.053-.121-.957-.288-1.908-.456-2.857-.023-.128-.177-.232-.27-.348-.046.137-.146.28-.131.41.181,1.613.4,3.222.565,4.837.134,1.334.185,2.676.3,4.012.059.664.187,1.322.284,2.128m172.048-9.574c.1.878.2,1.756.289,2.635.2,2,.385,4,.589,5.995a1.45,1.45,0,0,0,.2.424c.077-.129.207-.252.22-.387a5.5,5.5,0,0,0,.006-1.014c-.185-2.048-.383-4.094-.576-6.141-.1-1.023-.175-2.049-.294-3.07-.177-1.517-.353-3.035-.586-4.544-.152-.986-.393-1.959-.623-2.932-.038-.162-.228-.288-.347-.43a1.852,1.852,0,0,0-.143.638c.262,1.7.571,3.391.827,5.091.179,1.192.3,2.392.442,3.734M139.79,30.764c.871-1.113,1.745-2.224,2.61-3.342a1.814,1.814,0,0,0,.177-.4,1.481,1.481,0,0,0-.49.149,15.938,15.938,0,0,0-3.79,4.364c-1.116,1.831-2,3.8-2.958,5.729-.1.2-.011.5-.01.752.157-.18.381-.334.46-.543a13.966,13.966,0,0,1,2.716-4.182,12.886,12.886,0,0,0,1.284-2.528M193.972,92.2v2.921a1.376,1.376,0,0,0,.009.431,2.905,2.905,0,0,0,.281.492,1.584,1.584,0,0,0,.137-.476c-.031-.777-.15-1.555-.125-2.329.057-1.731.176-3.46.279-5.19.089-1.481.158-2.964.3-4.44.154-1.637.385-3.267.561-4.9.017-.16-.114-.337-.176-.506-.131.129-.344.239-.379.389a14.364,14.364,0,0,0-.3,1.759c-.208,2.066-.459,4.132-.566,6.2-.095,1.829-.02,3.667-.02,5.646M88.582,17.273a6.472,6.472,0,0,1-.664.142,17.823,17.823,0,0,0-5.259,1.29,4.223,4.223,0,0,0-.532.331,2.114,2.114,0,0,0,.642.113c1.568-.224,3.127-.512,4.7-.707,2.237-.277,4.482-.484,6.721-.747a2.265,2.265,0,0,0,.693-.361,2.172,2.172,0,0,0-.638-.2c-1.839.031-3.677.087-5.661.135M236.4,23.8a3.578,3.578,0,0,0-.363-.5c-.194-.191-.519-.535-.621-.484a2.676,2.676,0,0,0-.945.8c-.081.113.129.514.294.709.971,1.148,1.979,2.265,2.953,3.411.585.688,1.122,1.417,1.7,2.112.072.087.259.08.392.116a1.409,1.409,0,0,0,.026-.4,1.66,1.66,0,0,0-.2-.494c-1.051-1.735-2.108-3.467-3.236-5.272m4.932-18.423Q239.824,3.5,238.31,1.629a.878.878,0,0,0-1.335-.006.3.3,0,0,0-.053.257c.038.075.152.115.239.161a5.6,5.6,0,0,1,1.122.6,10.668,10.668,0,0,1,1.239,1.364c1.122,1.392,2.248,2.782,3.329,4.205.69.908,1.292,1.884,1.967,2.8.137.187.427.262.646.388-.019-.265.053-.588-.074-.783-.4-.619-.865-1.2-1.318-1.778-.883-1.135-1.776-2.262-2.737-3.465M42.015,32.65a6.948,6.948,0,0,0-.805.671c-1.021,1.14-2.008,2.312-3.032,3.449-1.129,1.255-2.289,2.481-3.422,3.732-.09.1-.076.295-.11.446a1.315,1.315,0,0,0,.4-.184c1.729-1.715,3.436-3.452,5.176-5.155.794-.777,1.657-1.483,2.464-2.247.078-.074.037-.378-.053-.5s-.314-.149-.624-.217m204.108,5.658c.732.163,1.027-.4,1.262-.88.086-.176-.177-.6-.378-.828-.776-.871-1.588-1.709-2.4-2.549a.327.327,0,0,0-.288-.018c-.044.018-.045.158-.052.245-.037.458-.081.915-.1,1.373a.655.655,0,0,0,.119.381,22.992,22.992,0,0,0,1.832,2.276M144.65,30.4c-1.239.852-2.5,1.677-3.711,2.563-1.144.836-1.222,2.185-1.505,3.421-.022.1.045.217.071.326a1.356,1.356,0,0,0,.341-.214,1.193,1.193,0,0,0,.161-.364,9.639,9.639,0,0,1,2.735-3.624,31.5,31.5,0,0,1,3.36-2.331,1.683,1.683,0,0,0,.289-.343c-.154-.029-.333-.124-.457-.075a10.358,10.358,0,0,0-1.284.641m5,20.092a9.52,9.52,0,0,0-.773-.76c-.311-.247-.665-.441-1-.658-.11.413-.252.82-.323,1.239-.119.7-.2,1.417-.282,2.127-.014.111-.01.314.028.325a.714.714,0,0,0,.475.022c.612-.335,1.182-.752,1.81-1.05.736-.35.631-.718.065-1.244m17.771-17.335a8.314,8.314,0,0,0-1.947-2.957,1.47,1.47,0,0,0-.294-.162,1,1,0,0,0-.046.384,4.586,4.586,0,0,0,.254.473c.733,1.676,1.436,3.365,2.2,5.024a11.809,11.809,0,0,0,1.068,1.657c.073.107.232.154.352.229a1.507,1.507,0,0,0,.034-.542c-.124-.38-.311-.739-.463-1.111-.39-.949-.775-1.9-1.161-2.995m72.243.29c.186.29.32.616.792.518.361-.074.539.032.2.393a.389.389,0,0,0,.028.38,3.223,3.223,0,0,0,.561.377,3.166,3.166,0,0,1,.161-.462c.146-.278.285-.751.481-.78.819-.122.469-.6.3-.92a6.586,6.586,0,0,0-.913-1.21c-.1-.108-.324-.1-.492-.143.032.151.065.3.1.452.027.13.051.261.076.392a1.789,1.789,0,0,1-.348-.088c-.946-.45-.945-.452-.945.656v.434M147.7,40.266a18.342,18.342,0,0,0-1.871,6.908c-.02.175.177.375.273.563.049-.159.1-.317.146-.476a3.471,3.471,0,0,0,.142-.52,18.539,18.539,0,0,1,1.933-6.381,11.63,11.63,0,0,0,.561-1.29,1.5,1.5,0,0,0,.02-.472c-.16.1-.371.165-.47.307a7.7,7.7,0,0,0-.735,1.361M30.773,36.93a6.14,6.14,0,0,0-.554.569c-.073.1-.055.261-.078.394.119-.036.274-.037.353-.114q2.16-2.138,4.3-4.292c.782-.782,1.567-1.559,2.336-2.353.054-.055-.017-.23-.029-.35-.261.055-.589.03-.77.181a11.838,11.838,0,0,0-.937,1.047c-1.513,1.618-3.033,3.231-4.623,4.917m77.1,77.248.6-.017c-.1-.137-.2-.27-.3-.411a1.079,1.079,0,0,1,.21-1.54,1.558,1.558,0,0,0,.216-.355c-.148-.045-.307-.149-.442-.124a16.692,16.692,0,0,0-1.922.432c-.28.087-.7.333-.718.538a1.208,1.208,0,0,0,.968,1.336c.416.028.83.093,1.39.141M83.577,13.719a13.819,13.819,0,0,0-1.4.983,6.246,6.246,0,0,0-1.989,2.575,2.118,2.118,0,0,0,.089.83,3,3,0,0,0,.453-.536,4.531,4.531,0,0,1,1.365-1.684A34.948,34.948,0,0,0,84.8,13.5c.1-.091.125-.262.185-.4a2.018,2.018,0,0,0-.441.091,8.577,8.577,0,0,0-.971.528m.363,2.974a11.778,11.778,0,0,1,1.439-.713c1.1-.377,2.226-.678,3.332-1.038.185-.06.325-.256.486-.39a1.761,1.761,0,0,0-.594-.045c-1.485.425-2.991.8-4.433,1.344a11.718,11.718,0,0,0-2.182,1.357c-.074.049-.064.224-.093.34.127,0,.279.057.376.006.516-.273,1.017-.572,1.669-.862m16.973,97.339h.794c.144,0,.289-.006.433,0,.466.025.918-.034.864-.635-.06-.669-.645-.4-.959-.36-1.518.195-3.027.457-4.537.712a1.524,1.524,0,0,0-.439.246,1.6,1.6,0,0,0,.511.172c1.063-.03,2.126-.088,3.333-.136m-55.633-83.2a2.049,2.049,0,0,0,.708-2.31c-.011-.073-.365-.188-.4-.145a7.5,7.5,0,0,0-1.154,1.459c-.39.774-.137,1.062.849,1m111.048.508a3.407,3.407,0,0,0-2.357.488c-.114.045-.161.26-.24.4a2.212,2.212,0,0,0,.494.05,8.524,8.524,0,0,1,1.359-.193c.759.035,1.513.181,2.27.269a1.782,1.782,0,0,0,.412-.048c-.072-.134-.113-.342-.222-.388a14.143,14.143,0,0,0-1.717-.575m72.9-23.718c-.843.7-1.688,1.394-2.526,2.1-.052.044-.044.16-.065.242a1.228,1.228,0,0,0,.2-.1c1.01-.764,2.028-1.517,3.022-2.3.859-.678,1.693-1.388,2.528-2.1.083-.071.094-.227.138-.343a1.273,1.273,0,0,0-.346.134c-.965.76-1.923,1.529-2.955,2.368M158.939,31.2c-.379-.3-.482-.117-.457.264.007.109.112.229.086.32-.209.725.252.718.745.729a6.6,6.6,0,0,1,.81.136c.208.031.419.047.629.069a2.124,2.124,0,0,0-.372-.635,7.662,7.662,0,0,0-1.441-.883m6.455,2.684a7.108,7.108,0,0,0-.825-.8,1.859,1.859,0,0,0-.686-.155c.044.294-.017.7.153.861a13.04,13.04,0,0,0,1.588,1.184,1.461,1.461,0,0,0,.437.128c-.012-.147.024-.323-.045-.436a7.016,7.016,0,0,0-.622-.783M99.679,80.595c.193-.717.4-1.431.566-2.155.033-.146-.111-.332-.174-.5-.131.119-.345.218-.379.36-.266,1.1-.5,2.211-.727,3.323-.02.1.13.229.2.344.074-.087.18-.163.216-.264a8.01,8.01,0,0,0,.3-1.11m49.613,46.711c.145-1.145.3-2.289.42-3.437.013-.125-.183-.271-.282-.407-.143.169-.4.334-.409.508-.037,1.132-.021,2.265-.007,3.4,0,.029.181.056.278-.061M47.818,86.035c.349-.177.808-.341.589-.84-.245-.556-.63-.178-.956-.029a.66.66,0,0,0-.225.146c-.156.179-.459.463-.414.542.185.33.493.513,1.007.181m105.1-50.7c-.138-.073-.342-.244-.4-.2-.646.428-1.274.884-1.887,1.359-.048.037.065.28.1.427a1.563,1.563,0,0,0,.3-.139c.607-.453,1.208-.914,1.884-1.444m-19,40.473c0,.216-.007.432,0,.647,0,.052.067.1.1.151.061-.049.16-.088.176-.15.2-.733.4-1.467.579-2.206a1.092,1.092,0,0,0-.064-.4c-.121.089-.312.154-.352.27a15.192,15.192,0,0,0-.447,1.687M16.846,31.417c-.152-.641-.571-.339-.823-.165-.36.248-.65.617-.387,1.106.03.056.339.051.42-.028.264-.255.482-.557.79-.913m28.143-6.238-.2-.927c-.119.109-.331.211-.339.327a4.692,4.692,0,0,0,.09.875.765.765,0,0,0,.451-.274M162.13,43.385l.348-.2a1.884,1.884,0,0,0-.617-.334,1.636,1.636,0,0,0-.682.192c-.041.016-.046.128-.068.2.2.049.389.106.587.145a3,3,0,0,0,.432,0m-13.274,4.279.229-.352c-.144-.052-.356-.19-.42-.14a4.034,4.034,0,0,0-.534.6,2.917,2.917,0,0,0,.725-.107m76.015-16.538c-.291-.391-.545-.134-.773.067-.053.046,0,.218.011.331.2-.075.395-.148.589-.228.04-.017.067-.064.173-.17M2.63,110.623l.406.029L3,110.119C2.9,110.263,2.8,110.407,2.63,110.623Z" transform="translate(0 0)"></path><path d="M654.783,216.954a8.513,8.513,0,0,1-1.572,2.687c-1.633,1.6-3.594,1.017-4.8-.473a9.242,9.242,0,0,1-.418-9.847,2.94,2.94,0,0,1,4.05-.974,5.32,5.32,0,0,1,2.715,3.186,7.919,7.919,0,0,1,.029,5.421m-5.585.435a4.253,4.253,0,0,1,.355.505c.737,1.447,2.19,1.479,3.145.045.4-.6.72-1.245,1.065-1.876a.5.5,0,0,0,.023-.306.709.709,0,0,0-.435-.041,3.012,3.012,0,0,1-4.372-1.884,1.1,1.1,0,0,0-.116-.215c-.078.045-.2.073-.225.138a.946.946,0,0,0-.085.468c.179,1.033.379,2.063.645,3.166m2.1-3.409a1.115,1.115,0,0,0,1.319.269,1.446,1.446,0,0,0,.242-.3c-.12-.061-.239-.174-.359-.174A3,3,0,0,0,651.3,213.98Z" transform="translate(-552.928 -177.776)"></path><path d="M556.347,216.391a8.251,8.251,0,0,1,.961-4.41,3.824,3.824,0,0,1,3.844-2.077.942.942,0,0,1,.495.194c1.159,1.088,2.418,2.159,2.837,3.744a9.159,9.159,0,0,1,.2,3.236,10.236,10.236,0,0,1-.861,3.182c-1.051,2.27-3.569,2.393-5.238.836a7.192,7.192,0,0,1-2.239-4.705m4.823,1.632c-.8-.409-1.592-.815-2.385-1.227-.159-.083-.308-.185-.461-.278a4.2,4.2,0,0,0-.117.671,1.567,1.567,0,0,0,.135.446c.39,1.274.843,2.524,2.263,2.985a1.71,1.71,0,0,0,1.207-.085c.8-.428.885-1.341,1.149-2.108.027-.078-.255-.363-.418-.386a10.482,10.482,0,0,0-1.372-.019m-.8-3.554-.5-.943q.031.527.061,1.054c0,.024-.01.055,0,.071.177.245.356.489.535.733A4.391,4.391,0,0,0,560.372,214.469Z" transform="translate(-475.635 -179.425)"></path><path d="M599.639,331.8a13.442,13.442,0,0,1-4.436,1.013,20.6,20.6,0,0,1-2.838.124,7.447,7.447,0,0,1-3.72-.982,3.908,3.908,0,0,1-1.617-2.316c-.209-.747.756-1.662,1.682-1.766q3.449-.389,6.889-.866c1.89-.26,3.772-.569,5.656-.868.471-.075.936-.188,1.4-.287.82-.175,1.307.3,1.193,1.127a5.552,5.552,0,0,1-2.533,3.8,17.028,17.028,0,0,1-1.678,1.021m-6.6-2.756c-1.412.145-2.826.283-4.234.458a.629.629,0,0,0-.118.522,1.75,1.75,0,0,0,.587.471,7.257,7.257,0,0,0,3.551.841,19.354,19.354,0,0,0,2.992-.263,8.349,8.349,0,0,0,5.808-2.931,4.249,4.249,0,0,0,.311-.5,2.576,2.576,0,0,0-.629-.037c-.937.175-1.864.41-2.805.563C596.707,328.46,594.908,328.708,593.038,329.047Z" transform="translate(-501.845 -278.554)"></path><path d="M1382.063,340.253a4.917,4.917,0,0,1,2.739-4.128,2.706,2.706,0,0,1,2.783,1.238,5.868,5.868,0,0,1,.732,4.592,4.75,4.75,0,0,1-1.061,2.466,2.277,2.277,0,0,1-2.564.424c-.457-.235-.934-.433-1.389-.672a2.272,2.272,0,0,1-1.233-2.01c-.036-.61-.007-1.225-.007-1.91m2.684-.145-.307-.419c-.067.093-.19.184-.193.279a3.6,3.6,0,0,0,.515,2.6,1.524,1.524,0,0,0,.9.544c.18.018.582-.428.569-.647a1.337,1.337,0,0,0-.525-.884,2.39,2.39,0,0,1-.956-1.471m1.813-.073a.632.632,0,0,0-.125.879c.026.042.155.018.236.025A3.423,3.423,0,0,0,1386.56,340.036Z" transform="translate(-1181.563 -287.294)"></path><path d="M1415.671,426.289c2.074-.254,4.111-.472,6.148-.689a1.943,1.943,0,0,1,.7-.059c1.15.349,1.23.568.657,1.919a4.692,4.692,0,0,1-3.266,2.988c-1.667.389-3.348.685-4.975-.2a4.6,4.6,0,0,1-1.97-2.419c-.187-.445.2-.772.589-.908.679-.235,1.383-.4,2.113-.628m.979,2.793a7.138,7.138,0,0,0,4.266-.876,2.469,2.469,0,0,0,.409-.4,1.7,1.7,0,0,0-.576-.167c-.782.07-1.558.212-2.341.271-1.039.078-2.082.1-3.122.159-.1.006-.2.108-.3.166.071.087.125.217.217.255C1415.653,428.679,1416.117,428.84,1416.65,429.081Z" transform="translate(-1207.954 -363.791)"></path><path d="M1469.956,340.048a2.656,2.656,0,0,1,2.7-.987,3.313,3.313,0,0,1,2.487,2.512,4.258,4.258,0,0,1-.608,3.526,2.219,2.219,0,0,1-1.251.872c-2.307.546-4.037-.171-4.238-2.994a4.662,4.662,0,0,1,.91-2.93m2.792,4.026a3.283,3.283,0,0,0,.346-.788c.043-.269.037-.729-.107-.807a2.351,2.351,0,0,0-1.151-.207,1.618,1.618,0,0,0-.163.822C1471.734,343.93,1472.051,344.233,1472.749,344.073Z" transform="translate(-1255.929 -289.808)"></path><path d="M1401.874,408.667a8.5,8.5,0,0,1,3.467-1.546c.754-.062,1.027.268,1.073,1.028a3.311,3.311,0,0,0,.138.521.684.684,0,0,1-.54.9q-2.5.711-5,1.407c-.437.122-.94.14-1.1-.332a.772.772,0,0,1,.469-1.093,8.868,8.868,0,0,0,1.5-.887m3.663-.181c-.471-.013-.942-.036-1.412-.026-.063,0-.123.175-.184.27.094.04.2.127.28.111A8.969,8.969,0,0,0,1405.536,408.486Z" transform="translate(-1196.768 -348.056)"></path><path d="M1452.628,405.452a6.156,6.156,0,0,1,1.184-.275c1.236.008,2.472.066,3.707.14.351.021.76.068.77.595s-.263.643-.743.717c-1.6.247-3.19.573-4.786.848-.409.07-.759.025-.722-.57C1452.071,406.36,1451.962,405.789,1452.628,405.452Z" transform="translate(-1241.393 -346.399)"></path><path d="M146.454,297.75a4.034,4.034,0,0,1-2.463,4.065,13.97,13.97,0,0,1-5.343,1.488,18.941,18.941,0,0,1-5.2-.513c-1.225-.212-1.392-1.3-1.626-2.25a15.188,15.188,0,0,1-.3-2.269c-.038-.41-.068-.53-.576-.4-1.3.329-1.321.276-1.317,1.683,0,1.3-.167,2.613-1.347,3.333a10.592,10.592,0,0,1-3.341,1.351,33.958,33.958,0,0,1-4.816.467c-1.931.108-2.93-1.215-3.418-2.8a13.778,13.778,0,0,1-.569-4.259c.029-2.434,1.065-3.475,3.351-3.83a2.557,2.557,0,0,0,1.248-.628,2.044,2.044,0,0,1,1.551-.678,7.461,7.461,0,0,0,1.258-.262,2.7,2.7,0,0,1,2,.6,2.909,2.909,0,0,0,1.275.4,14.54,14.54,0,0,0,1.521.018c.753.019.875.369.885,1.13a4.188,4.188,0,0,0,.606,1.972c.12.2.827.115,1.252.056.119-.017.244-.4.266-.622.042-.431,0-.87.015-1.3.02-.566.353-.729.9-.574a2.8,2.8,0,0,0,1.159.051c.624-.1,1.235-.277,1.853-.421.089-.021.2,0,.267-.053a20.809,20.809,0,0,0,2.185-1.737,2.621,2.621,0,0,1,2.738-.475,4.237,4.237,0,0,1,1.444,1.03,1.551,1.551,0,0,0,1.687.486c1.8-.388,1.879.1,2.25,1.357a22.245,22.245,0,0,1,.462,2.858c.035.224.095.444.143.738m-26.4,2.1a6.08,6.08,0,0,1-.256-3.948c.021-.139.124-.378.1-.393a1.552,1.552,0,0,0-.629-.215,1.615,1.615,0,0,0-.731.144c-.242.116-.609.308-.626.495a10.645,10.645,0,0,0-.012,2.266,17.894,17.894,0,0,0,.588,3.087c.276.9.78,1.671,1.98,1.555a18.2,18.2,0,0,1,2.559-.009,10.46,10.46,0,0,0,3.716-.655,1.872,1.872,0,0,0,1.4-1.422,3.809,3.809,0,0,0,.168-1.369c-.238-1.506-.553-3-.863-4.494-.027-.129-.234-.219-.358-.328-.054.182-.192.386-.15.543a7.619,7.619,0,0,1-.219,4.716,3.4,3.4,0,0,1-4.434,2.261,3.815,3.815,0,0,1-2.224-2.233m24.516-1.015a2.081,2.081,0,0,0,.136-.591c-.079-1.144-.2-2.284-.276-3.428-.049-.717-.227-.874-.969-.846-.763.028-.538.631-.462.943a6.25,6.25,0,0,1-.324,3.455,4.353,4.353,0,0,1-1.489,2.417c-.108.077-.117.291-.172.442.153,0,.332.054.454-.007a13.409,13.409,0,0,0,1.828-.994,6.115,6.115,0,0,0,1.274-1.39m-11.17-.58c.145.807.252,1.623.453,2.415a2.056,2.056,0,0,0,.579.9c.125.121.436.049.663.065-.072-.15-.14-.3-.216-.45-.062-.119-.141-.23-.2-.35a5.935,5.935,0,0,1,.256-5.577c.053-.108.048-.363-.008-.39-.5-.245-1.685.509-1.665,1.061.026.727.091,1.453.14,2.324m3.627-.145c-.1-.465-.184-.933-.3-1.394a2.015,2.015,0,0,0-.21-.417,1.29,1.29,0,0,0-.213.341,9.924,9.924,0,0,0-.287,1.4,2.109,2.109,0,0,0,.705,2.078,2.355,2.355,0,0,0,2.227.24c.093-.031.157-.15.234-.227-.068-.067-.132-.186-.206-.194-1.05-.1-1.486-.905-1.954-1.821m-14.071-1.161q.031-.9.062-1.8c0-.1.009-.2.013-.3-.113.015-.287-.011-.329.052a1.465,1.465,0,0,0-.312.657,12.13,12.13,0,0,0,.009,2.234c.082.611.3,1.281,1.064,1.388a2.871,2.871,0,0,0,.942-.2,4.031,4.031,0,0,0-.545-.393,1.594,1.594,0,0,1-.905-1.638M139.2,292.89l.31.218.125-.194A.833.833,0,0,0,139.2,292.89Z" transform="translate(-99.289 -248.852)"></path><path d="M185.2,401.784a8.808,8.808,0,0,1-5.762,2.664,11.594,11.594,0,0,1-6.689-.894,6.188,6.188,0,0,1-3.5-3.157c-.491-1.269-.354-1.785.456-2.11a9.4,9.4,0,0,1,1.738-.52c2.177-.41,4.357-.813,6.546-1.157,1.083-.17,2.187-.218,3.283-.3.9-.066,1.8-.142,2.692-.132a8.068,8.068,0,0,1,1.473.275c.12.024.244.107.353.087.665-.118.993.151,1.046.8a5.79,5.79,0,0,1-1.638,4.446m-.617-2.865c.085-.182.167-.366.257-.546s.186-.342.279-.513a3.56,3.56,0,0,0-.733-.041c-.724.106-1.44.261-2.163.372-1.343.207-2.69.389-4.033.594-1.179.18-2.355.388-3.534.566-1.05.159-2.1.286-3.151.457-.055.009-.138.392-.087.427a13.907,13.907,0,0,0,2,1.28,10.519,10.519,0,0,0,6.243.744A6.129,6.129,0,0,0,184.583,398.919Z" transform="translate(-144.453 -338.707)"></path></g></g></g></svg>