<svg xmlns="http://www.w3.org/2000/svg" width="90.448" height="73.713" viewBox="0 0 90.448 73.713"><defs><style>.a{fill:#f0aea7;}</style></defs><g transform="translate(-544.412 -2931.444)"><ellipse class="a" cx="10.5" cy="13" rx="10.5" ry="13" transform="translate(602 2968)"></ellipse><g transform="translate(-138 1298.958)"><path d="M1158.77,110.841a1.236,1.236,0,0,0-1.569.315,11.26,11.26,0,0,1-4.3,2.552,41.52,41.52,0,0,1-4.828,1.639,24.33,24.33,0,0,1-4.363.827,29.014,29.014,0,0,1-5.094,0,47.485,47.485,0,0,1-6.748-1.034,16.72,16.72,0,0,1-4.493-1.894c-2.077-1.23-4.026-2.678-6-4.07a21.1,21.1,0,0,1-7.386-8.863,13.826,13.826,0,0,0-2.8-3.909,13.27,13.27,0,0,1-3.594-7.214c-.323-2.074-.63-4.152-.862-6.238a32.28,32.28,0,0,1-.272-4.59,32.871,32.871,0,0,1,.563-4.616,42.149,42.149,0,0,1,1.184-5.455,39.252,39.252,0,0,1,2.069-4.721,25.171,25.171,0,0,1,3.987-6.036,33.9,33.9,0,0,1,6.284-5.819c1.935-1.3,3.909-2.554,5.921-3.735,1.113-.653,2.351-1.088,3.51-1.668.724-.362,1.394-.83,2.107-1.218a18.822,18.822,0,0,1,10.082-2.247,44.168,44.168,0,0,1,6.706.631,22.442,22.442,0,0,1,4.8,2.026,29.811,29.811,0,0,1,6.8,4.436,29.158,29.158,0,0,1,6.2,6.845c1.162,1.961,2.123,4.044,3.114,6.1a42.91,42.91,0,0,1,1.725,4.068,6.5,6.5,0,0,1,.167,1.888c.028.685.2.826.879.589,1.139-.4,2.278-.8,3.405-1.231a1.825,1.825,0,0,1,2.538,1.675c.039.923.14,1.846.127,2.767a1.748,1.748,0,0,0,.637,1.485c.774.654,1.535,1.323,2.29,2,.41.366.61.271.916-.19a24.834,24.834,0,0,0,2.278-4.5c.559-1.385,1.728-1.579,2.906-.693,1.982,1.492,3.095,3.647,4.426,5.634a4.2,4.2,0,0,1,.609,1.624c.2,1.229-.594,1.953-1.519,2.531a14.379,14.379,0,0,1-1.9,1c-.406.176-.384.419-.267.724.281.729.581,1.451.867,2.178.183.465.432.571.91.315.647-.347,1.348-.594,2.018-.9,1.027-.47,2.679-.483,3.133.435a6.968,6.968,0,0,1,.671,2.034,28.36,28.36,0,0,1,.167,2.982c.055,1.406.148,2.812.13,4.217a23.594,23.594,0,0,1-.286,3.141,2.2,2.2,0,0,1-2.048,1.727,12.634,12.634,0,0,1-3.826-.579c-.423-.154-.816-.052-.807.623a11.5,11.5,0,0,1-.268,1.909c-.1.648.207.986.9,1.081a11.92,11.92,0,0,1,2.493.456,2.357,2.357,0,0,1,1.131,3.193c-.9,1.469-1.851,2.905-2.757,4.37-.425.688-.751,1.439-1.2,2.11-.739,1.106-1.9,1.83-3.183.367-.7-.79-1.362-1.606-2.024-2.424-.392-.484-.791-.251-1.162-.024-.832.51-1.644,1.053-2.463,1.583a1.1,1.1,0,0,1-.114.076c-1.194.575-1.2.579-.613,1.749.722,1.433.167,2.628-1.484,3.179a10.938,10.938,0,0,1-5.2.3c-1.049-.16-2.117-.229-3.151-.452a2.268,2.268,0,0,1-1.883-3.131c.182-.646.39-1.287.616-1.919a.725.725,0,0,0-.445-1.054c-.571-.26-1.1-.614-1.655-.908-.3-.159-.556-.161-.732.231q-.535,1.193-1.141,2.355a2.35,2.35,0,0,1-2.376,1.382,5.43,5.43,0,0,1-1.389-.488c-1.008-.487-1.995-1.016-3.062-1.528m-3.843-61.048a.932.932,0,0,1-.194-.052c-1.931-1-3.835-2.049-5.8-2.977a13.856,13.856,0,0,0-5.5-.891c-.44-.018-.881-.148-1.317-.128-.694.033-1.638-.106-2.024.28a5.97,5.97,0,0,1-3.273,1.439,27.074,27.074,0,0,0-7.091,2.483c-.719.38-1.385.86-2.073,1.3a30.923,30.923,0,0,0-5.929,4.384c-.892.925-1.538,2.082-2.387,3.056A24.525,24.525,0,0,0,1115,66.893a36.59,36.59,0,0,0-1.743,7.9c-.255,2.15-.313,4.323-.456,6.486-.013.192,0,.386,0,.58,0,1.361-.061,2.726.02,4.083a18.23,18.23,0,0,0,.48,2.985,59.909,59.909,0,0,0,2.531,8.01,20.873,20.873,0,0,0,4.509,7.248,34.3,34.3,0,0,0,4.44,3.6c1.636,1.185,3.337,2.29,5.068,3.333a13.364,13.364,0,0,0,5.419,1.608c1.683.2,3.363.453,5.052.559a17.975,17.975,0,0,0,3.415-.142,35,35,0,0,0,4.3-.808,27.17,27.17,0,0,0,3.266-1.208c1.262-.509,2.53-1.015,3.752-1.611a1.536,1.536,0,0,0,1-1.308,2.322,2.322,0,0,1,.76-1.258c.911-.894,1.887-1.723,2.84-2.576a.612.612,0,0,0,.156-.854c-.4-.821-.693-1.693-1.046-2.537-.158-.378-.4-.515-.759-.186-.329.3-.661.6-1.016.87-1.376,1.042-3.084.943-3.663-1a7.934,7.934,0,0,1-.21-1.653c-.155-2.017-.338-4.034-.407-6.054a2.443,2.443,0,0,1,.583-1.475c.768-.932,1.816-.763,2.827-.47.79.229,1.107.136,1.277-.643.306-1.4.509-2.831.8-4.239.109-.522.126-.964-.38-1.249a4.274,4.274,0,0,1-1.685-2.264.891.891,0,0,1,.336-1.23,3.474,3.474,0,0,0,.838-.927c1.035-1.645,2.057-3.3,3.048-4.97a1.922,1.922,0,0,1,3.162-.432c.53.53,1.036,1.086,1.6,1.573a.981.981,0,0,0,.776.156c1-.265,1.973-.6,2.961-.894.389-.116.459-.26.154-.571a12.341,12.341,0,0,1-.924-1.065,2.227,2.227,0,0,1,.656-3.606,1.168,1.168,0,0,0,.448-.757c.147-.808-.36-1.417-.7-2.1-1.457-2.946-2.715-6-4.346-8.845a24.086,24.086,0,0,0-4.034-5.055,60.307,60.307,0,0,0-5.191-4.11m6.308,49.955c.547,1.272,1.07,2.554,1.648,3.812a1.565,1.565,0,0,1-.73,2.254c-.835.53-1.584,1.193-2.386,1.776-.44.32-.234.6.076.753.876.444,1.783.828,2.674,1.244.461.215.776.148,1-.361.376-.86.773-1.713,1.208-2.544a2.15,2.15,0,0,1,2.7-1.042,52.281,52.281,0,0,1,4.807,2.387,1.78,1.78,0,0,1,.752,2.371,20.166,20.166,0,0,1-.877,1.955c-.306.569,0,.761.449.8q1.633.127,3.274.151c1.607.024,1.608.006,1.149-1.583-.006-.02-.046-.033-.048-.052a2.446,2.446,0,0,1,1.214-2.728c1.481-.867,2.91-1.828,4.417-2.646,1.689-.916,2.563-1,3.76.421.428.508.777,1.083,1.19,1.6a9.49,9.49,0,0,0,.763.774c.124-.256.245-.514.375-.767.031-.061.1-.1.137-.161.753-1.138,1.511-2.273,2.243-3.424a.455.455,0,0,0-.156-.407c-.907-.267-1.836-.464-2.737-.75a2.054,2.054,0,0,1-1.381-2.231c.316-1.639.677-3.277.853-4.933.192-1.8,1.264-1.875,2.528-1.53,1.109.3,2.22.6,3.342.848.14.031.5-.267.512-.434.093-1.088.145-2.181.158-3.273.007-.608-.1-1.216-.132-1.825-.058-1.043-.1-2.087-.149-3.13-.027-.538-.359-.545-.729-.363-.624.306-1.218.675-1.849.963-1.708.778-3.1.295-3.759-1.241-.645-1.5-1.218-3.025-1.771-4.558a1.844,1.844,0,0,1,.633-2.043c.711-.426,1.453-.8,2.191-1.184.679-.35.92-.754.642-1.2q-.946-1.5-1.925-2.973c-.469-.705-.72-.666-1.155.068-.68,1.148-1.426,2.258-2.087,3.415a2.336,2.336,0,0,1-3.17.815,17.352,17.352,0,0,1-1.767-1.332c-.316-.264-.584-.448-1.008-.23-1.022.526-1.667.285-2.028-.775a3.917,3.917,0,0,1-.188-1.152c-.025-1.039,0-2.078-.01-3.117,0-.666-.393-.91-1.009-.712-1.345.433-2.7.852-4.055,1.235-.485.137-.606.3-.261.7.292.337.6.664.869,1.019a2.042,2.042,0,0,1-.31,3.11,6.371,6.371,0,0,1-1.381.683c-1.267.5-2.527,1.031-3.825,1.439-1.149.361-1.753.374-2.363-.854a5.459,5.459,0,0,0-.877-1.227.451.451,0,0,0-.792.079c-.766,1.254-1.522,2.515-2.312,3.754-.384.6-.165.952.348,1.321a11.955,11.955,0,0,1,1.553,1.322c.733.747.663,1.12-.18,1.75a1.215,1.215,0,0,0-.469.6c-.32,1.347-.584,2.707-.887,4.058-.59,2.623-1.958,3.366-4.019,3.108-.687-.086-.8.135-.758.656.128,1.536.29,3.07.426,4.606.048.542.318.3.5.135.378-.337.709-.727,1.085-1.067,1.342-1.215,2.733-1.156,3.495.625.167.39.338.778.58,1.24M1110.12,78.07c.169-1.426.31-2.855.516-4.276a31.549,31.549,0,0,1,.674-3.7c.418-1.551,1-3.059,1.485-4.592a3.584,3.584,0,0,0,.074-.77,2.889,2.889,0,0,0-.493.583,23.761,23.761,0,0,0-2.186,7.056c-.278,2.2-.658,4.386-.838,6.59a31.643,31.643,0,0,0,.127,4.135c.008.167.183.325.281.487.1-.188.275-.377.272-.564-.01-.68-.125-1.36-.119-2.039A26.148,26.148,0,0,1,1110.12,78.07Z" transform="translate(-424.032 1589.669)"></path><path d="M1299.234,129.741c-.242-1.422-.472-2.774-.728-4.121-.276-1.453-.6-2.9-.86-4.353q-.478-2.712-.868-5.439c-.147-1.04-.242-2.092-.29-3.141-.081-1.767-.134-3.536-.146-5.3a10.4,10.4,0,0,1,1.167-5.093,3.607,3.607,0,0,1,3.071-2.09,3.676,3.676,0,0,1,3.152,1.7,11.141,11.141,0,0,1,2.032,6.265c.027,1.358.171,2.717.123,4.071-.08,2.238-.264,4.472-.421,6.707-.077,1.1-.169,2.194-.291,3.287-.226,2.028-.449,4.057-.729,6.078-.248,1.795-.583,3.577-.857,5.368-.182,1.194-.778,1.837-1.732,1.711a1.788,1.788,0,0,1-1.448-1.418c-.39-1.294-.69-2.615-1.033-3.924-.022-.084-.093-.154-.142-.3m3.118-10.586c.024-.473.033-.948.075-1.419.188-2.119.437-4.235.557-6.357a30.107,30.107,0,0,0-.13-3.563,8.894,8.894,0,0,0-1.456-4.4.77.77,0,0,0-1.336.041,4.9,4.9,0,0,0-.831,2.774c-.038,1.309-.19,2.623-.117,3.925.085,1.521.345,3.033.561,4.544.152,1.065.359,2.121.538,3.182.207,1.219.419,2.438.614,3.66.2,1.271.386,2.546.588,3.818.016.1.119.191.181.286.083-.091.23-.177.237-.272.026-.417-.018-.84.016-1.256C1301.982,122.49,1302.134,120.859,1302.352,119.155Z" transform="translate(-586.392 1540.608)"></path><path d="M1315.207,381.233a4.333,4.333,0,0,1-4.867.614,7.046,7.046,0,0,1-4.086-4.715,3.275,3.275,0,0,1,.562-3.2,15.257,15.257,0,0,0,1.038-1.806,4.7,4.7,0,0,1,3.974-1.63c1.76.2,2.7,1.335,3.611,2.623a8.373,8.373,0,0,1,1.683,4.227,4.086,4.086,0,0,1-1.366,3.342c-.173.168-.342.341-.549.548m-5.547-4.314a.845.845,0,0,0,.047,1.108,3.736,3.736,0,0,0,2.268,1.515,2.039,2.039,0,0,0,2.036-.74,1.621,1.621,0,0,0,.059-1.962,3.811,3.811,0,0,0-2.9-1.491c-1.576-.145-1.583-.068-1.442,1.424C1309.735,376.8,1309.733,376.822,1309.66,376.919Z" transform="translate(-594.716 1309.526)"></path><path d="M1493.217,301.36a15.411,15.411,0,0,1,1.8-7.806,14.792,14.792,0,0,1,3.544-4.1,11.351,11.351,0,0,1,4.776-2.617,7.067,7.067,0,0,1,6.106.822,39.241,39.241,0,0,1,3.334,2.616,10.246,10.246,0,0,1,2.8,5.069,14.2,14.2,0,0,0,.887,1.514,4.8,4.8,0,0,1,.384,1.5c.277,3.19-.753,6.1-2.023,8.94a39.124,39.124,0,0,1-1.9,3.991,7.4,7.4,0,0,1-5.367,3.4,14.636,14.636,0,0,1-2.849.284,9.889,9.889,0,0,1-6.02-2.255c-2.251-1.744-3.45-4.125-4.482-6.69a10.9,10.9,0,0,1-.982-4.666m18.706-7.033a9.526,9.526,0,0,0-3.71-3.7,4.847,4.847,0,0,0-5.338-.115,13.389,13.389,0,0,0-5.438,5.419,2.635,2.635,0,0,0-.38,1.462,2.059,2.059,0,0,1-.2,1.438,3.631,3.631,0,0,0-.559,2.5,29.854,29.854,0,0,0,1.141,3.943,9.162,9.162,0,0,0,5.171,5.676,6.927,6.927,0,0,0,6.579-.486,4.86,4.86,0,0,0,2.618-4.523,16.7,16.7,0,0,1,.278-2.92c.162-1.181.468-2.349.547-3.533A9.919,9.919,0,0,0,1511.923,294.327Z" transform="translate(-754.709 1381.315)"></path><path d="M1536.775,366.062a19.068,19.068,0,0,0,2.285-1.746c.968-1,1.789-2.147,2.687-3.22.409-.49.838-.965,1.28-1.425a1.329,1.329,0,0,1,1.882-.194,1.4,1.4,0,0,1,.3,1.769,27.74,27.74,0,0,1-1.954,2.81c-.958,1.191-1.967,2.347-3.022,3.454a9.08,9.08,0,0,1-2.1,1.751c-1.63.895-3.216.744-4.235-1.207-.447-.857-.958-1.68-1.44-2.519-.412-.718-.424-1.684.027-1.988a1.542,1.542,0,0,1,2.265.287c.433.529.77,1.137,1.2,1.669A2.55,2.55,0,0,0,1536.775,366.062Z" transform="translate(-788.008 1319.186)"></path></g></g></svg>