<svg xmlns="http://www.w3.org/2000/svg" width="111.073" height="77.759" viewBox="0 0 111.073 77.759"><defs><style>.a{fill:#aafffd;}.b{fill:#cba94b;}</style></defs><g transform="translate(-182.385 -2938.444)"><path class="a" d="M4034.631,108.445v18.468l2.869,2.673h26.394l3.063-7.777-3.063-16.389H4037.5Z" transform="translate(-3802 2873)"></path><path class="b" d="M4009.116,88.376c1.38.018,32.808,0,32.808,0v4.792l-10.507.517-4.5,2.159s.234,8.188,0,8.68a9.52,9.52,0,0,0-.455,1.365s-6.856.8-7.243.814-8.014,0-8.014,0-2.177-3.078-2.09-3.476S4009.116,88.376,4009.116,88.376Z" transform="translate(-3802 2873)"></path><g transform="translate(-264.772 1315.062)"><path d="M68.871,17.844c.212,1.357.389,2.683.572,4.008.111.8.273,1.6.34,2.4.072.869.239,1.1,1.11,1.065q4.663-.172,9.323-.389a1.046,1.046,0,0,0,.63-.3,3.669,3.669,0,0,1,4.047-.765,6.748,6.748,0,0,1,4.53,4.619,11.715,11.715,0,0,1,.358,5.222,3.689,3.689,0,0,0,0,.445c-.041.958-.134,1.918-.112,2.874s.208,1.923.227,2.886c.024,1.173-.056,2.348-.083,3.523a6.517,6.517,0,0,0,.015,1.818,8.443,8.443,0,0,1,.34,2.529c-.021.678,0,1.357,0,2.036-.005,1.787.416,1.927,1.789,2.47a95.85,95.85,0,0,0,12.449,3.6c1.819.447,3.612,1.006,5.414,1.52a2.049,2.049,0,0,1,.651.265c.4.294.762.731.543,1.206a1.948,1.948,0,0,1-1,1.03,13.458,13.458,0,0,1-2.492.294q-2.98.263-5.962.51c-1.067.09-2.139.139-3.2.264-1.1.13-2.193.333-3.29.5-1.138.173-2.281.32-3.415.516q-1.534.265-3.053.617c-.742.172-.844.374-.723,1.125.089.558.2,1.115.249,1.677.106,1.321.187,2.644.258,3.967.058,1.085.122,2.171.116,3.256a5.27,5.27,0,0,1-.266,1.6c-.082.247-.415.428-.662.6a8.517,8.517,0,0,0-.915.543,5.749,5.749,0,0,1-3.14,1.479c-1.634.21-3.284.3-4.931.4-1.317.078-2.637.092-3.956.134q-3.956.127-7.913.256c-.895.031-1.789.123-2.684.117q-2.615-.02-5.229-.125c-1.281-.051-2.565-.117-3.839-.258a30.278,30.278,0,0,1-7.64-1.521,6.447,6.447,0,0,1-4.065-3.438,7.4,7.4,0,0,1-.487-4.113,6.448,6.448,0,0,0-.088-1.589c-.076-.835-.193-1.668-.247-2.5-.1-1.6-.174-3.2-.261-4.794-.038-.7-.1-1.407-.124-2.111-.051-1.276-.08-2.553-.133-3.829-.02-.492-.113-.983-.115-1.475s-.255-.5-.609-.43c-1.1.206-2.2.469-3.313.6-1.617.184-3.243.3-4.868.388a36.713,36.713,0,0,1-4.273.11,16.917,16.917,0,0,1-5.293-.873c-.692-.274-1.345-.644-2.027-.945-.394-.174-.811-.3-1.214-.448a2.5,2.5,0,0,1-1.556-1.817c-.268-1.093-.358-2.23-.535-3.346-.161-1.013-.311-2.029-.518-3.033-.12-.581-.63-.688-1.279-.333-1.089.6-2.154,1.245-3.277,1.768-1.313.612-2.677,1.115-4.019,1.663-1.361.556-2.723,1.107-4.083,1.666a8.072,8.072,0,0,1-3.26.892,1.628,1.628,0,0,1-1.491-.9A1.414,1.414,0,0,1,.5,45.181c.982-.875,2-1.705,3.015-2.546.992-.824,2.02-1.608,2.984-2.464A46.6,46.6,0,0,0,10.2,36.7c1.931-2.135,3.754-4.369,5.582-6.594a2.239,2.239,0,0,0,.4-1.221,25.64,25.64,0,0,0-.484-5.9,12.55,12.55,0,0,1-.132-1.855c-.053-2.846-.113-5.692-.124-8.538A19.933,19.933,0,0,1,16.3,6.906c.634-2.179,2.22-3.2,4.092-3.974,1.322-.546,2.685-1,4.051-1.433A22.036,22.036,0,0,1,29.579.37C30.648.3,31.714.153,32.783.128,35.713.057,38.645,0,41.576,0c2.57,0,5.141.069,7.711.12,1.446.029,2.9.034,4.337.136a21.275,21.275,0,0,1,6.545,1.09c.584.233,1.3.124,1.908.315,1.771.555,2.565,1.964,3.01,3.642a2.126,2.126,0,0,0,.3.885,10.19,10.19,0,0,1,1.951,3.78,22.945,22.945,0,0,1,1.186,5.557c.069.765.206,1.525.344,2.319M53.309,28.759c-.407.042-.812.108-1.22.123a23.5,23.5,0,0,0-5.22.768,3.64,3.64,0,0,0-3.014,2.9,32.6,32.6,0,0,0-.27,4.472c-.016,2.018.064,4.037.117,6.056.016.6.073,1.2.125,1.793.166,1.9.369,3.8.5,5.708.095,1.4.093,2.807.138,4.21.04,1.255.08,2.51.128,3.765q.054,1.406.128,2.811c.079,1.45.169,2.9.253,4.349.085,1.471.112,2.948.273,4.411a3.031,3.031,0,0,0,1.813,2.649,20.661,20.661,0,0,0,5.7,1.294c1.533.172,3.074.276,4.614.387,1.406.1,2.813.191,4.222.253,1.445.064,2.892.129,4.338.123,2.358-.009,4.716-.073,7.074-.119,1.955-.038,3.911-.07,5.865-.136a3.668,3.668,0,0,0,1.416-.257c1.651-.783,3.278-1.617,4.892-2.474a1,1,0,0,0,.5-.72c-.062-1.012-.3-2.015-.337-3.026-.061-1.695-.052-3.394,0-5.09a2.4,2.4,0,0,1,1.444-2.315,23.181,23.181,0,0,1,5.984-1.373c1.04-.185,2.1-.263,3.149-.392,1.372-.168,2.742-.36,4.117-.5.827-.085,1.661-.085,2.491-.143.126-.009.245-.119.367-.182a1.632,1.632,0,0,0-.365-.187c-.564-.128-1.141-.207-1.7-.359-1.694-.462-3.379-.959-5.072-1.426a30.531,30.531,0,0,1-6-2.263,3.526,3.526,0,0,1-1.766-1.85c-.714-1.811-.306-3.752-.7-5.617a21.714,21.714,0,0,1,.056-3.944,37.533,37.533,0,0,0-.277-4.98,40.808,40.808,0,0,0-1.254-5.2,6.515,6.515,0,0,0-3.247-4.143,9.723,9.723,0,0,0-5.086-.756c-1.864.1-3.719.341-5.581.486-1.469.114-2.941.193-4.412.257-2.3.1-4.6.17-6.894.261-.7.028-1.407.087-2.111.124-1.683.088-3.366.171-5.176.256M19.195,26.6c-.021.609-.06,1.218-.06,1.828a5.3,5.3,0,0,1-.89,2.815,43.164,43.164,0,0,1-5.334,6.306c-1.5,1.635-3.208,3.08-4.818,4.615a1.612,1.612,0,0,0-.218.356,1.247,1.247,0,0,0,.476,0c2.485-1.069,4.97-2.138,7.442-3.237a2.855,2.855,0,0,1,4.038,1.39,17.055,17.055,0,0,1,1.3,5.5c.126,1.054.359,1.9,1.391,2.337,1.281.541,2.526,1.543,3.969.365a.5.5,0,0,1,.2-.119c2.131-.388,4.258-.8,6.4-1.141a19.685,19.685,0,0,1,3.2-.25c1.45.011,2.9.117,4.348.25.76.07.843.037.765-.714-.142-1.367-.279-2.735-.373-4.106-.027-.4-.114-.586-.538-.543-.919.094-1.837.194-2.758.253-1.618.1-3.238.211-4.858.25-1.8.043-3.609.074-5.408-.008a3.416,3.416,0,0,1-3.5-2.535c-.846-2.152-.725-4.449-.873-6.694-.09-1.374.086-2.763.1-4.146.02-2.553-.044-5.107.02-7.658.059-2.367.211-4.734.384-7.1.055-.752.205-1.674,1.076-1.856a11.1,11.1,0,0,0,2.235-.923,1.445,1.445,0,0,1,.581-.127c2.91.034,5.82.069,8.73.126A2.3,2.3,0,0,1,38.586,13.8a17.529,17.529,0,0,1-.125,2.935c-.071.645-.006.845.664.82,1.79-.065,3.578-.185,5.368-.242,2.1-.067,4.208-.072,6.311-.139,1.748-.056,3.494-.171,5.241-.245a2.2,2.2,0,0,1,1.628.672,4.074,4.074,0,0,1,1.068,2.489,28.462,28.462,0,0,1,.614,5.149c-.008.466.245.622.673.6.788-.046,1.579-.066,2.365-.136.463-.041.838-.24.779-.809-.029-.281-.094-.558-.123-.839-.174-1.69-.4-3.377-.493-5.072-.084-1.53-.05-3.069-.01-4.6.053-2.045.229-4.088.218-6.131a12.109,12.109,0,0,0-.5-3.03A1.656,1.656,0,0,0,59.7,4.166a1.3,1.3,0,0,1-.446.148c-1.6.135-3.2.316-4.806.374-2.526.091-5.056.094-7.584.141-2,.037-4,.087-5.993.125-2.443.046-4.887.082-7.33.13-1.786.035-3.571.118-5.357.117a27.485,27.485,0,0,0-6.085.54c-1.18.266-2.625.205-3.123,1.734a12,12,0,0,0-.7,2.5,21.859,21.859,0,0,0,.1,3.126q.116,2.3.254,4.6c.076,1.259.179,2.517.25,3.777.1,1.683.172,3.366.321,5.113M28.36,39.961q5.286-.064,10.573-.132a7.326,7.326,0,0,0,1.407-.141.65.65,0,0,0,.414-.441c.117-1.234.188-2.473.272-3.71.086-1.258.169-2.517.258-3.775a.967.967,0,0,1,.08-.22,5.95,5.95,0,0,1,4.231-4.161,35.911,35.911,0,0,1,4.718-.89c1.823-.221,3.666-.289,5.5-.4,1.147-.069,1.147-.048,1-1.231a2.162,2.162,0,0,1,0-.254c0-.483-.348-.545-.708-.541-.238,0-.477.11-.714.107-2.634-.033-5.267-.109-7.9-.116-6.723-.017-13.446,0-20.169-.011-.258,0-.515-.092-.775-.119-.373-.038-.741-.009-.788.472a18.181,18.181,0,0,0-.123,1.919c.007.916.082,1.831.117,2.747.089,2.34.118,4.684.279,7.019a17.965,17.965,0,0,0,.644,3.293c.065.248.5.445.8.569a2.789,2.789,0,0,0,.884.017M40.2,22.013c.87,0,1.74-.016,2.609.005.662.016,1.324.126,1.983.111.9-.021,1.906.308,2.6-.66a1.072,1.072,0,0,1,.675-.335c1.089-.154,2.181-.331,3.277-.378,1.5-.063,3.011-.007,4.517-.026.192,0,.5-.1.553-.236a1.257,1.257,0,0,0-1.2-1.656c-.577.01-1.153.081-1.729.121-1.237.086-2.474.194-3.713.249-1.551.068-3.1.085-4.656.136-.853.028-1.7.095-2.556.122-1.615.052-3.231.1-4.847.125a1.7,1.7,0,0,1-1.52-1.124c-.367-1.052.092-2.054.221-3.06s.036-1.3-.941-1.279c-.874.019-1.746.107-2.62.117-1.7.019-3.394-.013-5.09.012-1.324.02-1.751.254-1.864,1.593-.139,1.657-.2,3.322-.262,4.984-.032.816.23,1.053,1.046,1.054,2.553,0,5.105-.016,7.658.006,1.913.016,3.825.08,5.865.122M66.1,16.73c-.042-.237-.081-.474-.128-.71-.082-.41-.165-.821-.257-1.229a1.619,1.619,0,0,0-.127-.289,1.073,1.073,0,0,0-.118.357c.027.555.111,1.109.115,1.663.014,2.394.009,4.787,0,7.181,0,.217-.108.435-.1.651.011.4-.237.983.247,1.121a4.068,4.068,0,0,0,1.529-.116c.048-.006.12-.177.107-.259-.161-.969-.3-1.944-.516-2.9a23.442,23.442,0,0,1-.75-5.471M34.852,2.791c.952,0,1.9,0,2.857-.007.088,0,.174-.1.262-.15-.064-.075-.128-.215-.193-.216q-1.9-.019-3.809,0c-.067,0-.132.137-.2.211.064.054.125.15.193.155.253.019.507.007.889.007M86.47,28.568a1.155,1.155,0,0,0,.129.2c.114.116.24.221.361.331.006-.194.1-.46,0-.569-.5-.581-1.04-1.128-1.582-1.671-.064-.064-.226-.029-.343-.041a1.008,1.008,0,0,0,.122.309C85.569,27.591,85.99,28.046,86.47,28.568Z" transform="translate(447.157 1623.382)"></path><path d="M414.323,298.721a7.169,7.169,0,0,1,3.293,4.707,27.623,27.623,0,0,1,.337,6.65,48.1,48.1,0,0,1-1.525,9.35,12.894,12.894,0,0,1-1.292,2.7c-.152.278-.3.443-.09.76.322.5.092.883-.4,1.055a13.857,13.857,0,0,1-2.216.632c-1.537.261-3.086.449-4.633.646-.593.075-1.194.1-1.792.13-1,.051-2,.088-3,.129-2.043.085-4.086.181-6.13.251-1.742.06-3.491.2-5.226.1a17.6,17.6,0,0,1-5.284-.733,4.646,4.646,0,0,1-3.386-4.381c-.024-1.086-.085-2.17-.123-3.256-.046-1.318-.073-2.638-.131-3.955-.071-1.6-.172-3.2-.25-4.794-.052-1.064-.155-2.131-.111-3.191a22.507,22.507,0,0,1,.392-3.654,4.345,4.345,0,0,1,1.92-2.542,3.414,3.414,0,0,1,1.525-.437c1.062-.13,2.132-.208,3.2-.262,1.36-.068,2.722-.074,4.082-.138,1.323-.063,2.644-.174,3.967-.247,1.042-.057,2.085-.09,3.128-.13,1.212-.045,2.425-.123,3.637-.119,1.594.005,3.189.057,4.782.124q1.985.084,3.966.259a7.366,7.366,0,0,1,1.365.339m-15.88,2.2c-2.378.042-4.757.064-7.134.135-1.556.046-3.112.135-4.664.256a1.838,1.838,0,0,0-1.886,2.111c0,1.251-.021,2.5.013,3.752a1.627,1.627,0,0,0,.291,1.067,7.154,7.154,0,0,0,1.926,1.309c2.93,1.218,5.894,2.354,8.841,3.528a2.971,2.971,0,0,0,2.962.062c.485-.322.944-.685,1.429-1.006a2.44,2.44,0,0,1,1.813-.6,3.136,3.136,0,0,1,1.714,1.254,3.731,3.731,0,0,0,2.487,1.76,8.226,8.226,0,0,0,1.7-.142c1.119-.154,2.25-.268,3.346-.525a3.458,3.458,0,0,1,2.5.336c.114.06.234.109.352.163a2.308,2.308,0,0,0,.028-.431q-.114-.967-.252-1.93c-.169-1.18-.258-2.379-.537-3.533-.525-2.167-1.148-4.31-1.765-6.454-.116-.4-.253-.861-.866-.867-2.527-.025-5.053-.084-7.579-.117-1.293-.017-2.586,0-3.879-.009-.237,0-.474-.079-.838-.122m13.62,15.148c-.8.12-1.6.227-2.4.362-.968.164-1.925.431-2.9.512-1.945.161-3.308-.952-4.508-2.291-.539-.6-.737-.665-1.365-.148a5.166,5.166,0,0,1-5.523.9c-3.166-1.262-6.313-2.571-9.47-3.857-.382-.156-.667-.111-.635.4.038.619.107,1.237.122,1.856.053,2.23.089,4.46.131,6.69a.327.327,0,0,0,0,.064,2.373,2.373,0,0,0,.821,1.628,7.023,7.023,0,0,0,4.039.977c2.1.077,4.2-.034,6.307-.1,1.683-.055,3.365-.161,5.047-.249,1.534-.081,3.067-.19,4.6-.248,1.763-.067,3.527-.089,5.29-.134a2.914,2.914,0,0,0,1.106-.088c.172-.081.151-.543.245-.823.367-1.1.8-2.179,1.1-3.293a21.466,21.466,0,0,0,.451-2.611c.019-.133-.111-.287-.172-.431a1.258,1.258,0,0,0-.347.213,2.4,2.4,0,0,1-1.952.67m3.628-9.738c-.127-.749-.205-1.511-.4-2.244a19.556,19.556,0,0,0-.77-2.212c-.055-.14-.28-.212-.427-.316a1.164,1.164,0,0,0-.056.416c.371,1.449.756,2.894,1.14,4.339C415.279,306.673,415.411,306.708,415.691,306.327Z" transform="translate(113.48 1363.317)"></path><path d="M559.289,346.7c0-1.781,1.611-2.7,3.318-1.968a2.494,2.494,0,0,1,1.5,2.151,4.238,4.238,0,0,1-.1,1.627,1.942,1.942,0,0,1-2.848,1.015A3.162,3.162,0,0,1,559.289,346.7Z" transform="translate(-40.938 1322.753)"></path></g></g></svg>