<svg xmlns="http://www.w3.org/2000/svg" width="494.516" height="356.169" viewBox="0 0 494.516 356.169"><defs><style>.a{fill:#cf381e;}.b{fill:#fff;}.c{fill:#156bb3;}.d,.f,.i{font-size:8px;}.d{font-family:ProximaNova-Regular, Proxima Nova;}.d,.e,.f,.g,.h,.i{isolation:isolate;}.e,.g{font-size:12px;}.e{font-family:Lato-Bold, Lato;font-weight:700;}.f,.g,.h,.i{font-family:Lato-Regular, Lato;}.h{font-size:16px;}.i{fill:#0f66cc;}</style></defs><g transform="translate(-755.484 -211.902)"><path d="M16.367,381.165a2.79,2.79,0,0,1-.606,1.352,8.27,8.27,0,0,1-1.308,1.627A7.312,7.312,0,0,1,11,386.083a10.144,10.144,0,0,1-2.428.3,9.4,9.4,0,0,1-5.2-1.669A7.62,7.62,0,0,1,.23,380.293a7.836,7.836,0,0,1-.078-3.427,9.851,9.851,0,0,1,1.429-3.679,7.277,7.277,0,0,1,4.485-3.106,13.359,13.359,0,0,1,2.423-.13c.284-.021.552.01.744-.278.233-.349.637-.242.92-.175a7.154,7.154,0,0,1,3.2,1.441,17.4,17.4,0,0,1,1.362,1.36,9.5,9.5,0,0,1,1.458,2.5,8.842,8.842,0,0,1,.608,4.4,11.661,11.661,0,0,1-.412,1.974M1.42,380.427a8.242,8.242,0,0,0,.633,1.364,7.624,7.624,0,0,0,3.79,2.944,10.351,10.351,0,0,0,3.468.429,5.881,5.881,0,0,0,2.914-.827,5.386,5.386,0,0,0,2.023-1.833,6.305,6.305,0,0,0,1.169-3.482,15.676,15.676,0,0,0-.364-2.736,7.763,7.763,0,0,0-.959-2.47,7.093,7.093,0,0,0-2.418-2.378c-.295-.185-.618-.449-1.008-.122a.422.422,0,0,1-.355-.019,5.537,5.537,0,0,0-3.581-.444,6.592,6.592,0,0,0-3.22,1.6,7.742,7.742,0,0,0-2.234,3.8,9.066,9.066,0,0,0-.306,1.964,6.369,6.369,0,0,0,.183,1.47C1.193,379.89,1.329,380.077,1.42,380.427Z" transform="matrix(0.07, 0.998, -0.998, 0.07, 1148.6, 408.764)"></path><g transform="translate(0 -3)"><path d="M36.288,395.451a6.185,6.185,0,0,1-1.343,3,18.338,18.338,0,0,1-2.9,3.607,16.211,16.211,0,0,1-7.659,4.3,22.484,22.484,0,0,1-5.383.67,20.831,20.831,0,0,1-11.523-3.7,16.9,16.9,0,0,1-6.97-9.807,17.375,17.375,0,0,1-.174-7.6A21.842,21.842,0,0,1,3.5,377.762a16.134,16.134,0,0,1,9.945-6.886c1.813-.459,3.586-.159,5.373-.289.629-.046,1.223.021,1.649-.617.516-.774,1.413-.537,2.041-.388a15.863,15.863,0,0,1,7.091,3.2,38.589,38.589,0,0,1,3.02,3.016,21.064,21.064,0,0,1,3.233,5.536,19.6,19.6,0,0,1,1.347,9.746,25.855,25.855,0,0,1-.914,4.376m-33.14-1.635a18.277,18.277,0,0,0,1.4,3.025,16.9,16.9,0,0,0,8.4,6.527,22.949,22.949,0,0,0,7.689.952,13.039,13.039,0,0,0,6.46-1.833,11.943,11.943,0,0,0,4.486-4.064c1.457-2.37,2.651-4.784,2.593-7.721a34.757,34.757,0,0,0-.807-6.066,17.211,17.211,0,0,0-2.127-5.477,15.727,15.727,0,0,0-5.361-5.272c-.654-.41-1.369-.995-2.235-.27a.937.937,0,0,1-.787-.043,12.276,12.276,0,0,0-7.941-.985,14.616,14.616,0,0,0-7.14,3.538,17.167,17.167,0,0,0-4.954,8.428,20.1,20.1,0,0,0-.678,4.355,14.122,14.122,0,0,0,.406,3.259C2.645,392.625,2.946,393.039,3.148,393.816Z" transform="translate(1033.557 -109.716)"></path><g transform="translate(755.484 214.902)"><path d="M989.217,183.772c0-2.22-.026-4.329.006-6.437.053-3.484.148-6.967.215-10.451.081-4.223.2-8.447.215-12.671q.135-41.461.238-82.922c.022-6.517.13-13.035.218-19.552.055-4.113.109-8.226.23-12.338.087-2.937.28-5.871.433-8.806.143-2.75.273-5.5.452-8.25.1-1.533.283-3.06.443-4.588.013-.124.139-.236.214-.353,1.588-2.474,2.581-5.379,5.039-7.223a16.682,16.682,0,0,1,3.371-2.029,73.83,73.83,0,0,1,7.565-2.893,72.028,72.028,0,0,1,8.193-1.915c2.819-.507,5.678-.793,8.525-1.134,2.722-.326,5.448-.637,8.178-.884,2.974-.268,5.953-.538,8.935-.658,5.3-.213,10.6-.308,15.907-.466,1.672-.05,3.343-.216,5.013-.2q5.393.039,10.784.219c2.678.09,5.355.253,8.029.441,2.574.181,5.148.395,7.714.667,3.07.326,6.135.7,9.2,1.107,3.113.411,6.219.876,9.327,1.326,3.035.439,6.069.889,9.1,1.33,3.071.447,6.144.881,9.214,1.336a31.73,31.73,0,0,1,4.041.7c.734.209,1.295,1.1,2.021,1.248,4.566.909,6.318,4.408,7.643,8.229a29.772,29.772,0,0,1,1.825,8.465c.119,2.724.429,5.44.642,8.16.16,2.046.324,4.093.44,6.142q.257,4.512.446,9.027c.1,2.225.139,4.452.229,6.678.137,3.38.321,6.757.433,10.138.11,3.3.207,6.6.214,9.9.005,2.67-.155,5.339-.2,8.01-.091,5.3-.145,10.593-.229,15.889q-.092,5.781-.223,11.561c-.053,2.337-.136,4.674-.221,7.011-.06,1.672-.164,3.342-.215,5.013-.089,2.891-.145,5.784-.228,8.675-.062,2.152-.185,4.3-.213,6.456-.093,7.368-.143,14.736-.234,22.1-.045,3.669-.21,7.338-.2,11.006.013,5.482.126,10.963.208,16.444.065,4.372.185,8.743.2,13.115.011,2.447-.025,4.9-.226,7.342-.667,8.071-.282,16.156-.449,24.233-.074,3.573-.412,7.142-.644,10.712-.133,2.048-.372,4.093-.425,6.143-.124,4.74-.151,9.483-.244,14.224-.037,1.894-.3,3.8-.174,5.676.147,2.17.6,4.321.945,6.476.317,1.972.823,3.926.977,5.909.268,3.444.384,6.9.464,10.357a18.308,18.308,0,0,1-3.923,11.582c-1.156,1.556-2.054,3.3-3.17,4.892a18.021,18.021,0,0,1-8.124,6.308,94.1,94.1,0,0,1-9.125,3.146,38.924,38.924,0,0,1-6.561,1.3c-3.711.418-7.442.778-11.172.861-2.054.045-4.113-.628-6.184-.79-1.85-.145-3.721-.036-5.582-.037-2.257,0-4.513-.019-6.77,0-6.332.064-12.664.181-19,.2-3.3.012-6.6-.1-9.9-.215-3.2-.109-6.388-.291-9.583-.434-1.819-.082-3.639-.138-5.457-.226-2.862-.138-5.723-.28-8.583-.446-2.16-.125-4.32-.252-6.474-.448-3.7-.338-7.415-.57-11.074-1.155a20.382,20.382,0,0,1-7.689-2.318,31.033,31.033,0,0,1-7.525-6.443,22.342,22.342,0,0,1-3.937-7.14,24.534,24.534,0,0,1-.662-4.393,3.4,3.4,0,0,0-.424-1.261,3.659,3.659,0,0,1-.246-2.942,17.433,17.433,0,0,0,.429-3.922c-.041-2.308-.29-4.612-.408-6.92-.17-3.3-.284-6.611-.456-9.915-.115-2.2-.3-4.39-.434-6.586-.233-3.94-.448-7.88-.669-11.821-.077-1.375-.178-2.749-.217-4.125-.092-3.335-.192-6.671-.221-10.007-.093-10.882-.145-21.765-.237-32.647-.022-2.6-.21-5.192-.2-7.788.02-4.633.133-9.265.207-14.008m96.887-66.145c2.225.074,4.449.173,6.674.217,4.629.091,9.259.152,13.889.228,4.408.072,8.815.167,13.223.215,3.144.034,6.288.025,9.432,0a12.381,12.381,0,0,0,3.113-.257,2.142,2.142,0,0,1,2.15.343,2.3,2.3,0,0,0,.685.256,2.841,2.841,0,0,0,.212-.686c.089-1.892.155-3.785.231-5.678.073-1.819.151-3.637.221-5.456.078-2.04.161-4.081.22-6.122.086-3,.2-6,.215-9.007q.051-8.452,0-16.9c-.04-6.22-.129-12.44-.221-18.66-.027-1.782-.129-3.564-.217-5.345q-.207-4.181-.445-8.36c-.13-2.233-.283-4.465-.443-6.7-.213-2.979-.464-5.955-.657-8.934a27.036,27.036,0,0,0-1.568-7.786c-.819-2.191-2.222-3.972-4.548-4.526a65.231,65.231,0,0,0-7.408-1.142c-2-.238-4.016-.355-6.028-.452-2.445-.118-4.894-.173-7.342-.229a44.83,44.83,0,0,0-9.82.669c-1.241.247-2.523.544-3.233,1.726-1.544,2.571-3.059,5.161-4.514,7.784a6.077,6.077,0,0,1-4.041,3.265,10.208,10.208,0,0,0-3.157,1,5.408,5.408,0,0,1-2.19.833c-1.929.117-3.87.066-5.805.033-2.966-.05-5.931-.135-8.9-.218-2.189-.062-4.377-.148-6.566-.219-2.373-.077-4.749-.112-7.12-.236a36.948,36.948,0,0,1-4.252-.45c-1.414-.24-2.936-.587-3.76-1.83-1.408-2.121-2.595-4.39-3.869-6.6-1.188-2.059-2.307-4.162-3.581-6.166a2.784,2.784,0,0,0-2.555-1.349c-2.095.165-4.18.445-6.273.644-1.823.173-3.656.249-5.473.46-3.482.405-6.958.873-10.435,1.322a44.7,44.7,0,0,0-9.733,2.219,3.366,3.366,0,0,0-2.544,2.644c-.191,1.433-.193,2.894-.243,4.343-.089,2.595-.143,5.191-.229,7.786q-.21,6.344-.443,12.688c-.063,1.745-.157,3.489-.218,5.234-.084,2.41-.223,4.821-.211,7.231.038,7.7.14,15.4.207,23.1.08,9.216.137,18.432.23,27.648.035,3.447.13,6.893.225,10.338a3.974,3.974,0,0,0,.314,2.063c.229.317,1.185.125,1.815.136,4.593.078,9.186.146,13.778.226,3.816.067,7.632.211,11.448.2,4.963-.008,9.925-.14,14.888-.2q9.718-.124,19.437-.208a1.855,1.855,0,0,0,1.71-.71,1.605,1.605,0,0,1,1.511-.654c5.517.1,11.034.169,16.552.234,1.812.021,3.625,0,5.659,0M1112.3,271.669c2.817.074,5.634.177,8.452.214,2.848.037,5.7,0,8.544.018a5.97,5.97,0,0,1,1.239.215c1.043.234,1.8-.123,1.848-.917.091-1.6.156-3.193.226-4.79.077-1.745.155-3.489.221-5.234.08-2.114.144-4.229.225-6.344.065-1.671.153-3.341.218-5.012.081-2.077.149-4.155.224-6.233.073-2,.164-4.007.218-6.011.087-3.224.191-6.448.218-9.673.093-11.065.145-22.131.237-33.2.019-2.3.232-4.6.2-6.9-.1-6.116-.273-12.232-.429-18.347-.057-2.263-.24-4.527-.2-6.787.065-3.491.274-6.979.422-10.469q.109-2.562.222-5.123.222-5.123.444-10.246c.07-1.6.173-3.193.216-4.791.091-3.409.149-6.818.23-10.227.019-.794-.369-1.138-1.132-1.079-.784.06-1.568.217-2.349.205-2.522-.038-5.044-.12-7.564-.212-3.712-.135-7.422-.326-11.135-.431-4.037-.114-8.076-.214-12.114-.215-3.927,0-7.854.144-11.781.2-5.739.086-11.479.139-17.218.23-2.818.045-5.635.146-8.452.216-3.113.078-6.226.157-9.34.221-4.075.083-8.15.222-12.225.209-8.772-.026-17.544-.148-26.317-.2-5.178-.031-10.356,0-15.535-.014-.861,0-1.194.393-1.126,1.2.066.784.217,1.567.209,2.349q-.075,6.779-.213,13.556c-.059,3.151-.14,6.3-.221,9.451-.066,2.6-.149,5.191-.22,7.786q-.115,4.226-.221,8.452-.122,5.224-.223,10.449c-.078,3.89-.17,7.78-.216,11.67-.035,2.922-.017,5.844-.005,8.766q.106,26.751.228,53.5c.021,3.964.13,7.928.218,11.892.053,2.374.132,4.748.223,7.12.045,1.191.164,2.379.209,3.57.026.7.278,1.005,1.025.966,2.039-.108,4.08-.192,6.121-.228,5.258-.093,10.517-.152,15.775-.229,4.852-.071,9.7-.165,14.555-.209,1.189-.011,2.379.193,3.57.2,13.063.088,26.125.145,39.188.236,6.11.043,12.218.165,18.328.209,4.919.035,9.839.007,14.98.007m-8.656,23.972q3.5-.111,7.01-.223c2.115-.07,4.23-.135,6.344-.227.969-.042,1.94-.112,2.9-.222,2.432-.278,4.871-.518,7.286-.908a24.711,24.711,0,0,0,4.081-1.122,1.391,1.391,0,0,0,.647-1.069c.12-3.741.187-7.484.245-11.227.028-1.775-.02-3.552.015-5.327.018-.9-.351-1.234-1.238-1.218-1.936.037-3.872.029-5.808.008q-9-.1-18-.22c-4.852-.066-9.7-.164-14.557-.216-8.292-.089-16.585-.222-24.877-.211-15.617.022-31.234.124-46.85.215-2.818.016-5.636.125-8.453.217-4.082.134-8.163.319-12.246.423-1.136.029-1.208.67-1.163,1.512.08,1.486.177,2.971.218,4.458.092,3.372.1,6.748.264,10.116.042.86-.077,2.08,1.195,2.34,2.092.427,4.192.849,6.31,1.1,2.671.319,5.361.484,8.045.684,2.3.172,4.611.326,6.918.443,3.378.171,6.757.306,10.137.448,1.967.083,3.933.169,5.9.219,3.483.089,6.967.212,10.451.216q27.022.032,54.045.005a3.8,3.8,0,0,0,1.175-.217M1056.583,3.315c3.04-.074,6.08-.175,9.12-.208,1.152-.012,2.305.169,3.459.2,3.372.093,6.745.147,10.118.231,2.374.06,4.748.142,7.122.224.242.008.481.116.722.122q2.2.061,4.4.083c.078,0,.158-.169.238-.259-.075-.058-.145-.156-.226-.167-1.232-.157-2.463-.348-3.7-.439-1.643-.12-3.295-.129-4.939-.242-1.545-.107-3.082-.332-4.628-.424-2-.12-4.007-.184-6.011-.228-4.112-.091-8.225-.2-12.338-.211-3.188-.006-6.376.108-9.563.212-3.676.121-7.352.254-11.025.448-3.2.17-6.4.4-9.6.665-2.952.247-5.9.576-8.843.89-.209.022-.4.225-.6.344.215.1.437.308.643.293,1.606-.119,3.207-.3,4.812-.424,2.941-.234,5.881-.477,8.825-.659,2.038-.126,4.081-.179,6.122-.227q5.724-.135,11.45-.223c1.406-.023,2.811,0,4.439,0m5.438,299.983a9.791,9.791,0,0,0,.54-1,8.87,8.87,0,0,0,.295-1.054,3.631,3.631,0,0,0-.989.681c-.98,1.357-1.889,2.765-2.842,4.142-2.19,3.162-4.395,6.314-6.572,9.484-.12.174-.147.631-.042.7a2.582,2.582,0,0,0,2.723-.793c.79-1.482,1.489-3.014,2.318-4.473,1.449-2.549,2.969-5.058,4.57-7.695m-13.651.555a6.441,6.441,0,0,0,.542-.882,2.432,2.432,0,0,0,.075-.721c-.209.094-.491.131-.614.291-.724.945-1.412,1.919-2.111,2.883q-3.329,4.6-6.655,9.195c-.243.336-.448.7-.67,1.049.34-.017.679-.042,1.019-.046.1,0,.207.1.292.08.434-.106,1.011-.106,1.258-.388a11.106,11.106,0,0,0,.823-1.634c1.964-3.247,3.951-6.479,6.042-9.828m-2.885,9.323c-.235.383-.45.781-.711,1.146-.29.4-.622.779-.936,1.167.437.152.869.321,1.311.454a1.288,1.288,0,0,0,1.786-.948,16.264,16.264,0,0,1,1-2.689c1.387-2.576,2.863-5.1,4.283-7.661.1-.179.024-.455.03-.686-.22.09-.535.116-.648.28-2.017,2.932-4.009,5.88-6.118,8.936m10.21-11.764c-.182.33-.354.667-.549.99-1.691,2.806-3.393,5.605-5.069,8.421a2.189,2.189,0,0,0-.114.8c.246-.151.578-.245.725-.463,1.666-2.478,3.256-5.008,4.964-7.457,1.189-1.705,2.531-3.3,3.792-4.959a.762.762,0,0,0,.118-.483c0-.066-.2-.165-.314-.17-.839-.039-1.665-.111-2.124.878a23.041,23.041,0,0,1-1.429,2.444m66.367,4.217c.548-.844,1.125-1.672,1.625-2.543.133-.231.029-.6.034-.9a2.634,2.634,0,0,0-.695.5q-3.938,5.676-7.818,11.392c-.109.161.137.562.218.851.7-.425,1.656-.686,2.039-1.3,1.59-2.569,3.006-5.247,4.6-8m3,4.106c-.654.876-1.328,1.738-1.946,2.638-.144.209-.1.547-.139.826.209-.077.421-.149.627-.231a4.132,4.132,0,0,0,1.986-2.127c1.311-2.292,2.871-4.443,4.345-6.641,1.244-1.855,2.521-3.688,3.749-5.553a2.684,2.684,0,0,0,.185-.97,3.241,3.241,0,0,0-.8.573c-.626.839-1.193,1.722-1.79,2.583-2.033,2.931-4.068,5.861-6.214,8.9m-10.654,0c-.261.335-.524.669-.784,1.006-.993,1.288-1.991,2.574-2.971,3.872a.69.69,0,0,0-.137.523c.035.118.346.286.416.242a8.864,8.864,0,0,0,2.126-1.469,29.943,29.943,0,0,0,2.072-3.118c1.3-1.975,2.62-3.939,3.9-5.926.136-.211.078-.548.11-.827-.235.112-.552.161-.693.345-1.328,1.734-2.625,3.491-4.042,5.352m-31.519-1.332a2.855,2.855,0,0,1-.227.57c-1.461,2.17-2.939,4.328-4.389,6.5a3.208,3.208,0,0,0-.268.885,3.986,3.986,0,0,0,.7.136c.887.016,1.775.02,2.661,0a2.419,2.419,0,0,0,.635-.2c-.134-.153-.238-.364-.406-.449a1.425,1.425,0,0,1-.626-1.925,19.913,19.913,0,0,1,1.458-2.832c.688-1.233,1.418-2.443,2.1-3.68.1-.176.023-.446.028-.672a2.157,2.157,0,0,0-.528.318c-.361.394-.687.821-1.138,1.346M1050.257,16.966c-.836,1.058-1.607,2.176-2.528,3.154-.712.756-.271,1.412,0,2.041.176.4.5.406.823-.13,1.943-3.267,3.954-6.494,5.926-9.744a9.368,9.368,0,0,0,.523-1.2,6.341,6.341,0,0,0-1.18.935c-1.219,1.551-2.382,3.146-3.566,4.947M1102.2,311.29c.235-.383.464-.769.705-1.147,1.041-1.636,2.093-3.266,3.118-4.913a1.791,1.791,0,0,0,.1-.671c-.2.1-.478.158-.6.323-.756,1.008-1.467,2.05-2.213,3.066-1.686,2.294-3.388,4.576-5.072,6.872-.262.357-.458.762-.685,1.144a13.085,13.085,0,0,0,1.635-.146c.212-.043.418-.309.549-.521.8-1.291,1.572-2.6,2.465-4.007M1076.781,10.2c.941-1.237,1.877-2.478,2.828-3.707a3.727,3.727,0,0,1,.537-.475c-.3-.086-.614-.28-.887-.231a1.645,1.645,0,0,0-.989.512q-4,5.6-7.925,11.246a2.449,2.449,0,0,0-.185.9c.261-.139.529-.269.781-.424.081-.05.117-.17.18-.254,1.849-2.488,3.7-4.975,5.66-7.574m3.44,5.438c1.258-1.657,2.487-3.337,3.782-4.963,1.068-1.34,2.227-2.607,3.31-3.935.128-.157.026-.5.031-.757-.734.016-1.516-.156-2.021.63-.657,1.023-1.34,2.029-2.007,3.045-1.256,1.915-2.515,3.829-3.75,5.758a2.153,2.153,0,0,0-.148.751,9.592,9.592,0,0,0,.8-.529M1030.946,303.3c-.888,1.44-1.789,2.873-2.651,4.329a2.533,2.533,0,0,0-.15.861c.256-.165.6-.273.756-.506.966-1.438,1.845-2.936,2.841-4.352,1.251-1.777,2.591-3.492,3.875-5.247a.462.462,0,0,0-.067-.447,1.549,1.549,0,0,0-1.958.7c-.835,1.507-1.759,2.964-2.647,4.663M1078,13.637c.522-.744,1.035-1.495,1.568-2.231,1.195-1.649,2.407-3.286,3.589-4.944.116-.163.067-.444.094-.67a3.114,3.114,0,0,0-.673.177,1.215,1.215,0,0,0-.359.4c-1.868,2.587-3.75,5.164-5.592,7.769-.841,1.19-1.614,2.429-2.391,3.664a2.517,2.517,0,0,0-.186.769,2.688,2.688,0,0,0,.542-.424c1.108-1.458,2.2-2.928,3.407-4.505m-11.875-5.66c-1.514,2.106-3.04,4.2-4.527,6.327a3.351,3.351,0,0,0-.293,1.06c.312-.208.625-.414.934-.626.017-.012-.014-.083,0-.106,2.166-2.8,4.338-5.588,6.491-8.395a2.234,2.234,0,0,0,.217-.762c-.278.022-.677-.065-.815.086-.672.733-1.273,1.53-2.011,2.416m-13.54,11.764a11.35,11.35,0,0,0-1.3,1.792c-.2.416-1.126.835-.323,1.373.167.112.976-.437,1.255-.843,1.28-1.856,2.479-3.768,3.7-5.662.658-1.019,1.319-2.037,1.946-3.074.1-.173.044-.445.06-.671-.152.067-.365.09-.448.206-1.6,2.25-3.193,4.51-4.9,6.879m87.786,272.46a4.3,4.3,0,0,0,.208-1.016c-.037-1.042-.167-2.082-.2-3.124-.037-1.194,0-2.391-.024-3.585,0-.128-.221-.251-.339-.376-.1.14-.289.274-.3.42-.1,1.372-.218,2.747-.218,4.12s.2,2.749.181,4.121c-.013.865-.313,1.722-.4,2.59-.029.306.207.637.322.957.125-.2.329-.394.361-.611.159-1.088.274-2.182.4-3.5m-72.8,24.416c.586-.29,1.433-.425,1.715-.9,1.547-2.586,2.958-5.252,4.4-7.9.06-.109-.028-.3-.048-.45-.156.032-.361.012-.459.105a3.908,3.908,0,0,0-.5.67c-.9,1.357-1.836,2.7-2.7,4.08a42.509,42.509,0,0,0-2.408,4.391m-20.088-15.2c.677-.825,1.36-1.646,2.028-2.478a9.01,9.01,0,0,0,.5-.766,4.271,4.271,0,0,0-.957-.067,1.021,1.021,0,0,0-.608.37c-.521.7-1.008,1.419-1.493,2.143-1.332,1.99-2.668,3.977-3.966,5.989-.143.222-.049.6-.065.9.182-.1.43-.155.537-.308,1.317-1.883,2.613-3.78,4.025-5.784m17.535,5.105c-.078.078-.192.143-.228.237-.1.271-.174.553-.258.831.256-.155.6-.25.755-.474.86-1.22,1.67-2.475,2.506-3.712q1.519-2.248,3.053-4.485c.155-.227.331-.44.5-.66-.3-.058-.627-.226-.879-.145a1.959,1.959,0,0,0-.882.638,10.493,10.493,0,0,0-.71,1.248c-1.245,2.138-2.5,4.274-3.855,6.521m39.287,8.435c1.073-2.061,2.163-4.113,3.2-6.191a4.5,4.5,0,0,0,.225-1.258,6.214,6.214,0,0,0-.865.886q-2.012,3.083-3.964,6.205a8.511,8.511,0,0,0-.545,1.3c.482-.145.971-.271,1.441-.448.157-.059.265-.249.506-.49m-5.882-6.1c-1.306,1.9-2.635,3.78-3.9,5.7a6.984,6.984,0,0,0-.566,1.594,6.836,6.836,0,0,0,1.553-1.178c.736-1,1.3-2.118,1.964-3.167.949-1.495,1.935-2.966,2.886-4.46a3.122,3.122,0,0,0,.244-.752,2.269,2.269,0,0,0-.682.335,11.337,11.337,0,0,0-1.5,1.923m-60.374,4c.962-1.633,1.933-3.261,2.871-4.908.1-.168-.01-.45-.023-.679-.178.055-.444.054-.522.175-1.609,2.469-3.206,4.947-4.767,7.447a.793.793,0,0,0,.252.705,4.032,4.032,0,0,0,1.32.016c.13-.015.307-.237.34-.39.162-.747.283-1.5.529-2.366m35.736-12.43c.391-.539.785-1.077,1.172-1.618.107-.149.2-.312.292-.469-.225-.081-.493-.281-.665-.218a1.744,1.744,0,0,0-.847.6q-2.5,3.883-4.931,7.81a2.2,2.2,0,0,0-.14.763,2.5,2.5,0,0,0,.668-.475c1.46-2.084,2.9-4.185,4.45-6.393m14.65,4.439a12.873,12.873,0,0,1,.712-1.146c1.317-1.709,2.659-3.4,3.967-5.114a.553.553,0,0,0-.174-.491c-.781-.254-1.285.265-1.64.8-1.629,2.461-3.21,4.954-4.788,7.448-.087.138.01.392.021.593.179-.094.41-.146.526-.29.442-.548.846-1.125,1.376-1.8m-27.967,5.993c-1.066,1.658-2.143,3.309-3.174,4.988-.073.119.187.443.293.672.369-.219.858-.354,1.079-.674a19.617,19.617,0,0,0,.958-1.915c.974-1.808,1.977-3.6,2.943-5.412.09-.168,0-.434-.013-.655-.176.109-.411.177-.517.334a22.877,22.877,0,0,0-1.57,2.663m30.742,3.662a4.577,4.577,0,0,0-.537.777,7.039,7.039,0,0,0-.284,1.066c.336-.158.676-.307,1-.482.076-.041.1-.177.152-.264,1.493-2.415,2.993-4.826,4.476-7.247a11.463,11.463,0,0,0,.545-1.147,4.779,4.779,0,0,0-1.145.9c-1.4,2.074-2.739,4.187-4.21,6.4m19.533-8.657c-1.221,2.292-2.449,4.58-3.651,6.882a2.884,2.884,0,0,0-.148.861c.268-.2.633-.336.788-.6,1.358-2.3,2.685-4.627,4-6.956a2.8,2.8,0,0,0,.175-.8c-.473-.089-.959-.207-1.164.612m-40.952,2.109c-1.628,2.423-3.268,4.839-4.871,7.278-.263.4-1.109.731-.4,1.333.092.078.953-.53,1.251-.962,1.019-1.48,1.966-3.011,2.9-4.547.587-.966,1.107-1.973,1.64-2.971a1.227,1.227,0,0,0,.044-.452,3.279,3.279,0,0,0-.567.321m19.533-295.433q2.264-2.708,4.522-5.419a3.406,3.406,0,0,0,.327-.608,2.42,2.42,0,0,0-.737-.06,1.2,1.2,0,0,0-.608.378c-.643.756-1.288,1.515-1.875,2.315-1.155,1.576-2.279,3.176-3.393,4.782-.1.138-.025.39-.032.589a1.374,1.374,0,0,0,.461-.213,10.365,10.365,0,0,0,1.334-1.764m-59.264,300.538c-.313.535-.646,1.06-.922,1.614-.053.107.1.462.193.473.695.085,1.2-.021,1.435-.889a11.46,11.46,0,0,1,1.156-2.175c.66-1.24,1.315-2.483,1.951-3.736a2.394,2.394,0,0,0,.123-.674c-.23.123-.469.233-.687.375-.074.048-.086.183-.142.268-1,1.545-2,3.089-3.106,4.744m-7.1-13.984c-1.11,1.789-2.233,3.571-3.313,5.378a2.481,2.481,0,0,0-.116.948,3.184,3.184,0,0,0,.753-.563c.552-.756,1.025-1.57,1.572-2.33,1.1-1.533,2.238-3.042,3.332-4.581.053-.074-.141-.476-.257-.5-1.179-.193-1.441.772-1.969,1.644m17.2,5.66-.274.836c.231-.122.531-.189.68-.376.522-.659.973-1.373,1.485-2.04,1.14-1.485,2.3-2.952,3.448-4.434a.465.465,0,0,0,.083-.392.573.573,0,0,0-.361-.245c-1.1-.244-1.331.617-1.747,1.322-1.037,1.757-2.131,3.481-3.314,5.329m7.436-294.656q1.29-1.623,2.578-3.247c.254-.322.489-.659.733-.989a10.569,10.569,0,0,0-1.712.23,1.5,1.5,0,0,0-.7.684c-.618,1.03-1.2,2.083-1.785,3.131a17.821,17.821,0,0,0-.869,1.631c-.074.171.088.443.142.669a2.225,2.225,0,0,0,.5-.361,9.935,9.935,0,0,0,1.117-1.748m31.3,300.76c.26-.408.541-.8.771-1.227a5.018,5.018,0,0,0,.281-.828c-.256.146-.6.231-.755.449-1.477,2.031-2.938,4.074-4.364,6.141a4.491,4.491,0,0,0-.4,1.213c.412-.248.964-.4,1.212-.761,1.094-1.592,2.1-3.245,3.251-4.986m-13.429-.777.121-.989a4.68,4.68,0,0,0-.694.687c-1.261,1.9-2.513,3.811-3.734,5.74a3.812,3.812,0,0,0-.3,1.058,8.468,8.468,0,0,0,1.213-.471c.184-.1.276-.386.391-.6.965-1.771,1.925-3.544,3-5.428m.222-9.1c.52-.668,1.041-1.334,1.558-2,.189-.244.367-.5.55-.746a2.825,2.825,0,0,0-1.025-.107,1.53,1.53,0,0,0-.828.628c-1.182,1.971-2.326,3.963-3.463,5.96-.086.151-.017.389-.02.587.182-.1.431-.158.536-.312.876-1.288,1.724-2.595,2.693-4.006m16.98-.111c-.651,1.021-1.321,2.029-1.943,3.067a13.148,13.148,0,0,0-.652,1.441,9.533,9.533,0,0,0,1.251-1.151c1.323-1.727,2.6-3.488,3.889-5.242a8.13,8.13,0,0,0,.417-.7c-.378.03-.921-.087-1.1.117-.649.727-1.175,1.563-1.859,2.469m-30.3-290.217a9.805,9.805,0,0,0-.762,1.125,2.883,2.883,0,0,0-.142.857c.23-.146.465-.286.689-.44a1.151,1.151,0,0,0,.236-.233q2.232-2.782,4.456-5.571a3.027,3.027,0,0,0,.275-.531c-.172-.03-.366-.126-.511-.077a1.948,1.948,0,0,0-.906.455c-1.1,1.412-2.154,2.865-3.334,4.414m-22.529,290.217c.545-.767,1.1-1.529,1.631-2.306a6.272,6.272,0,0,0,.392-.777c-.377.064-.875,0-1.106.22a7.894,7.894,0,0,0-1.188,1.59q-1.39,2.232-2.717,4.5c-.094.16,0,.432.013.653.15-.083.352-.129.441-.255.819-1.165,1.618-2.344,2.534-3.63m42.839,14.428c1.071-1.885,2.148-3.767,3.207-5.659a4.9,4.9,0,0,0,.29-.832c-.278.173-.654.282-.818.53-1.339,2.026-2.657,4.068-3.931,6.135-.178.288-.083.745-.114,1.124a5.077,5.077,0,0,0,.775-.5,8.383,8.383,0,0,0,.59-.794m-63.7-5.993a13.688,13.688,0,0,0-1.135,1.851c-.114.264.165.7.265,1.052.29-.136.7-.2.844-.425.282-.454.373-1.023.619-1.505.592-1.157,1.26-2.276,1.829-3.444a3.647,3.647,0,0,0,.139-1.183,5.464,5.464,0,0,0-.777.748,26.223,26.223,0,0,0-1.785,2.905M1065.794,5.868a1.015,1.015,0,0,0-1.732.2c-1.152,1.686-2.26,3.4-3.349,5.13a2.677,2.677,0,0,0-.167.966,3.661,3.661,0,0,0,.8-.584c1.461-1.854,2.9-3.73,4.449-5.71m2.442,4.439c-.37.583-.752,1.159-1.1,1.755-.069.118-.006.312,0,.47.13-.06.3-.087.384-.186.585-.71,1.153-1.433,1.723-2.156q1.641-2.081,3.274-4.168a1.618,1.618,0,0,0,.162-.373c-.131-.038-.286-.141-.387-.1a1.833,1.833,0,0,0-.806.43c-1.068,1.388-2.094,2.809-3.246,4.33m-9.544-.888q1.251-1.584,2.5-3.17a5.523,5.523,0,0,0,.3-.468c-.187-.082-.384-.247-.56-.228-.3.032-.712.092-.854.3-1.208,1.74-2.372,3.511-3.525,5.287-.089.137,0,.391.008.591.178-.089.409-.134.525-.275.516-.626,1-1.279,1.606-2.033m1.887,292.215c.779-1,1.567-1.994,2.321-3.013a.583.583,0,0,0-.106-.515,1.287,1.287,0,0,0-1.5.6c-.311.494-.571,1.019-.868,1.523-.752,1.277-1.523,2.544-2.256,3.832-.1.174-.028.445-.036.671.178-.1.418-.158.525-.31.621-.882,1.211-1.785,1.922-2.793m-45.724-4.661c-.259.175-.614.291-.761.534-1.089,1.793-2.144,3.607-3.187,5.426a4.275,4.275,0,0,0-.282.907c.256-.173.6-.291.756-.529q1.872-2.811,3.672-5.669a.6.6,0,0,0-.2-.669m65.812-274.458c.888-1.366,1.79-2.723,2.65-4.106a2.424,2.424,0,0,0,.152-.861,2.332,2.332,0,0,0-.68.423q-2.021,2.639-3.989,5.318c-.073.1-.014.3-.016.449.16,0,.371.064.473-.014.45-.344.87-.729,1.411-1.21m-4.994-15.87a5.426,5.426,0,0,0,.581-.9c-.56-.525-.955-.081-1.335.325a.947.947,0,0,0-.078.079c-1.24,1.7-2.486,3.394-3.707,5.107-.1.135-.024.39-.031.59a1.461,1.461,0,0,0,.462-.218c.245-.254.443-.552.668-.825,1.108-1.349,2.219-2.7,3.44-4.154m-71.139,292.881c-.389.685-.8,1.356-1.155,2.06a6.185,6.185,0,0,0-.322,1.125c.308-.211.622-.415.918-.641.069-.053.061-.2.116-.278q1.692-2.5,3.388-5a2.114,2.114,0,0,0,.161-.374c-.13-.038-.285-.141-.387-.1a1.776,1.776,0,0,0-.8.429c-.637.863-1.21,1.773-1.917,2.777m19.866,10.987c-.625,1-1.289,1.969-1.851,3-.159.291-.023.743-.022,1.121.282-.143.692-.212.827-.441.975-1.655,1.9-3.339,2.819-5.027.066-.122-.06-.349-.1-.527-.156.076-.365.111-.46.234-.387.5-.739,1.019-1.214,1.642m25.526-6.881.234.431c.255-.3.52-.593.763-.9q1.7-2.174,3.386-4.358c.114-.147.206-.312.307-.469-.224-.084-.49-.286-.662-.225a1.745,1.745,0,0,0-.849.594c-1.048,1.589-2.05,3.209-3.178,4.929M1066.238,20.3c-.7.924-1.41,1.842-2.095,2.778a.515.515,0,0,0,.011.44c.03.062.259.079.37.039.287-.1.675-.174.817-.392,1-1.529,1.944-3.09,2.893-4.648a1.816,1.816,0,0,0,.13-.529c-.178.093-.407.143-.524.285-.514.625-1,1.276-1.6,2.029m21.087-2.664c-1.43,1.8-2.869,3.593-4.273,5.412-.12.156-.009.49,0,.742.182-.068.443-.08.535-.211q2.013-2.857,3.977-5.749c.034-.05-.078-.2-.234-.194m-14.872,5.549c.38.6,1.17.467,1.688-.373.722-1.171,1.386-2.38,2.033-3.594.1-.2-.005-.505-.016-.762a2.432,2.432,0,0,0-.589.431c-1.015,1.386-2.006,2.79-3.116,4.3M1050.7,314.619c.592-.973,1.208-1.932,1.759-2.927a2.7,2.7,0,0,0,.125-.957,8.016,8.016,0,0,0-.685.477,2.053,2.053,0,0,0-.31.421q-1.334,1.938-2.664,3.879a2.826,2.826,0,0,0-.206.454c.171.032.407.151.5.081a7.129,7.129,0,0,0,1.479-1.428m-31.3-4.883c.026-.1.058-.2.077-.3.063-.33.123-.662.183-.993a4.048,4.048,0,0,0-.7.634c-.907,1.32-1.8,2.651-2.655,4-.13.206-.048.546-.064.824a2.115,2.115,0,0,0,.757-.247,3.183,3.183,0,0,0,.619-.843c.567-.983,1.114-1.978,1.78-3.079m-2.775-8.99q.94-1.494,1.877-2.99c.089-.143.152-.3.227-.455-.207-.035-.48-.171-.608-.087a2.961,2.961,0,0,0-.924.847,26.585,26.585,0,0,0-1.338,2.545,16.708,16.708,0,0,0-.584,1.675c.413-.475.826-.949,1.35-1.535m61.817,1c-.13.13-.331.24-.377.4a7.767,7.767,0,0,0-.172,1.047,4.676,4.676,0,0,0,.762-.668q1.281-1.728,2.5-3.5a2.663,2.663,0,0,0,.234-.763,3.309,3.309,0,0,0-.9.146,1.4,1.4,0,0,0-.484.559,28.1,28.1,0,0,0-1.558,2.786m-50.608,9.766c-.572.868-1.176,1.717-1.695,2.616-.144.25-.033.647-.039.977.282-.162.679-.254.827-.5.819-1.347,1.585-2.727,2.347-4.107a1.6,1.6,0,0,0,.062-.593c-.178.064-.423.076-.521.2-.319.408-.584.858-.981,1.4m96.887-13.651a1.926,1.926,0,0,0,.347-.226c.2-.2.381-.422.569-.634a4.635,4.635,0,0,0-.893-.239,5.734,5.734,0,0,0-1.691.012,2.818,2.818,0,0,0-2.177,1.614,1.41,1.41,0,0,0,.006.518c.126-.009.32.032.368-.034a2.6,2.6,0,0,1,3.282-.826c.015.005.051-.048.188-.185m-62.483-276.9c-.416.564-.851,1.115-1.237,1.7a2.027,2.027,0,0,0-.156.682c.256-.068.626-.051.75-.217.891-1.2,1.743-2.435,2.577-3.679.086-.129-.023-.39-.042-.589-.152.074-.352.11-.447.229-.46.575-.892,1.173-1.445,1.874m37.4,277.343c-.571.941-1.164,1.87-1.7,2.832a2.582,2.582,0,0,0-.13.889,2.541,2.541,0,0,0,.755-.451c.63-.794,1.206-1.631,1.807-2.448.229-.312.472-.614.709-.921-.418-.03-.836-.061-1.254-.086-.024,0-.052.048-.189.185M1089.323,7.866c.286-.36.595-.7.846-1.086a1.724,1.724,0,0,0,.127-.6c-.256.051-.634.011-.748.166-1.1,1.485-2.15,3-3.207,4.514a1.109,1.109,0,0,0-.092.373,1.546,1.546,0,0,0,.385-.24c.866-1,1.72-2.007,2.688-3.123m-76.244,305.976c.757-1.275,1.524-2.545,2.259-3.833.083-.145-.013-.393-.026-.593-.178.1-.429.145-.524.294-.726,1.136-1.438,2.282-2.106,3.451-.083.146.11.45.4.681M1044.708,11.2c.233-.455.48-.9.692-1.369a1.764,1.764,0,0,0,.067-.517c-.2.056-.483.047-.579.177a34.046,34.046,0,0,0-2.005,2.924c-.125.214.2.691.312,1.046a3.32,3.32,0,0,0,.613-.6c.3-.5.529-1.03.9-1.659m14.871,9.988a9.166,9.166,0,0,0,.651-1.053,1.943,1.943,0,0,0,.037-.7c-.182.093-.422.14-.536.286-.732.939-1.453,1.887-2.141,2.858-.267.377-.2.793.355.687a1.716,1.716,0,0,0,.947-.67,15.124,15.124,0,0,0,.687-1.409m9.988.222a10.345,10.345,0,0,0-.923,1.171,3.58,3.58,0,0,0-.254.982,2.853,2.853,0,0,0,.985-.445,7.171,7.171,0,0,0,1.063-1.545,7.04,7.04,0,0,0,.4-1.333q-.5.451-1,.9c-.055.049-.1.1-.268.267m37.512,279.23c.646-.72,1.307-1.428,1.92-2.175.078-.094-.1-.394-.152-.6-.416.233-1.043.37-1.2.72-.313.689-1.272,1.188-.783,2.164.007.015.069,0,.217-.109m-87.343,11.875a3.656,3.656,0,0,0-.673.934c-.09.279.078.641.132.967.156-.165.322-.322.466-.5a5.645,5.645,0,0,0,.832-1.092,7.348,7.348,0,0,0,.356-1.419l-1.113,1.107m20.532-11.875c.514-.662,1.059-1.3,1.521-2,.107-.161-.069-.51-.115-.773-.246.11-.606.154-.718.343a22.076,22.076,0,0,0-1.076,2.178c-.03.067.179.241.388.254m92-287.553c-.4-.18-.8-.386-1.211-.53a1.5,1.5,0,0,0-.669-.016c-.061.008-.142.283-.139.284a26.067,26.067,0,0,0,2.4,1.109c.1.036.4-.485.606-.748-.255-.033-.51-.066-.987-.1m-99.995,302.425c.058.037.167.108.168.106.541-.811,1.08-1.623,1.594-2.451.029-.047-.132-.3-.227-.314a.457.457,0,0,0-.378.185,14.812,14.812,0,0,0-1.157,2.474m42.95-289.773-.333.394c.115.091.227.256.345.26q1.1.036,2.206,0c.114,0,.223-.176.334-.27-.115-.128-.224-.359-.345-.365-.66-.036-1.323-.017-2.207-.017m39.62,273.57q-.012-.456-.024-.912c-.1.046-.258.063-.3.143-.346.591-.694,1.184-.987,1.8-.075.158.048.408.08.616.178-.094.413-.144.523-.29a5.368,5.368,0,0,0,.714-1.36m-76.466-1.443c-.407.566-.829,1.122-1.207,1.707-.068.105.052.331.084.5a1.352,1.352,0,0,0,.447-.215,6.513,6.513,0,0,0,.919-1.161c.116-.209-.007-.55-.243-.831m7.88-280.895-.353,1.423a8.373,8.373,0,0,0,1.051-1.044,2.893,2.893,0,0,0,.265-.969c-.284.16-.568.319-.964.59m45.946,291.216.759-1.665a15.463,15.463,0,0,0-1.278,1.1c-.14.147-.1.464-.147.7a1.792,1.792,0,0,0,.666-.143M1055.7,21.738l-.343-.444c-.366.488-.747.967-1.082,1.476-.044.066.147.287.229.436.13-.072.3-.113.38-.222.254-.365.473-.754.816-1.246m-50.164,287.443a4.565,4.565,0,0,0-.672.927c-.1.236.029.563.055.849.243-.194.7-.411.686-.579-.044-.43.942-.722-.068-1.2m-5.993-2.886c.077-.077.2-.142.222-.232a10.166,10.166,0,0,0,.2-1.114c.006-.053-.142-.124-.218-.187a7.368,7.368,0,0,0-.728,1.108c-.054.12-.335.842.527.425M1097.979,7.2c-.033-.181-.082-.521-.1-.519a4.5,4.5,0,0,0-1.106.2c-.091.033-.069.372-.1.57a6.653,6.653,0,0,0,1.3-.253m18.978,3.218,1.144-.256c-.15-.137-.28-.354-.453-.4-.623-.149-.81,0-.691.651m-39.287,288.774.213-.9c-.128-.014-.336-.084-.37-.034-.227.333-.417.691-.62,1.041a2.161,2.161,0,0,0,.777-.11m-76.466,8.546a1.674,1.674,0,0,0-.2.564c0,.146.173.29.269.434l.6-1.147a1.821,1.821,0,0,0-.666.149M1129.054,296.2l-.287,1.044.51-.191c-.15-.309,1.034-.771-.222-.854M1039.27,9.308l1-.858-.251-.251c-.286.3-.573.592-.856.892-.018.019,0,.071.109.218m48.388,305.865c-.078.078-.2.144-.226.236a6.685,6.685,0,0,0-.173.909c0,.037.145.094.223.142a9.715,9.715,0,0,0,.5-.9c.042-.1-.062-.258-.32-.39m-89.34-21.2c-.172-.111-.349-.319-.513-.308-.2.013-.385.211-.577.328a7.977,7.977,0,0,0,.876.512.754.754,0,0,0,.213-.533m4,2,.21-.234c-.229-.059-.608-.228-.662-.155a3.7,3.7,0,0,0-.38.889,1.674,1.674,0,0,0,.832-.5m7.991,16.647.176.333a9.01,9.01,0,0,0,.7-.731c.048-.061-.067-.249-.107-.378a2.55,2.55,0,0,0-.768.777m103.99-302.2.977-.311c-.157-.118-.3-.3-.475-.342-.416-.1-.724.006-.5.653m-93.78,287.775a8,8,0,0,0,.656-.46c.021-.018-.1-.207-.155-.317a2.337,2.337,0,0,0-.5.777m-22.529,6.326a6.794,6.794,0,0,0,.206-.67c.005-.024-.187-.09-.287-.137a1.035,1.035,0,0,0,.08.807m138.505-7.1a1.876,1.876,0,0,0,.54-.221c.045-.037-.085-.291-.135-.445a1.354,1.354,0,0,0-.405.666m-24.194.888-.2-.444-.35.35a.837.837,0,0,0,.555.094M1130.5,10.2l-.5.384.232.232A1.054,1.054,0,0,0,1130.5,10.2Z" transform="translate(-769.486 0)"></path><path d="M122.511,5.24c1.462.222,2.812.45,4.164.665,2.362.375,4.722.756,7.087,1.106,1.68.248,3.365.46,5.051.667a5.514,5.514,0,0,1,3.371,1.29c.477.446,1.346.451,2.014.717a9.559,9.559,0,0,1,5.367,6.045,74.913,74.913,0,0,1,2.213,7.181,23.088,23.088,0,0,1,.469,4.025c.178,2.378.3,4.76.455,7.14.136,2.048.319,4.093.436,6.142q.257,4.512.445,9.027c.1,2.262.138,4.526.23,6.788.134,3.306.321,6.609.432,9.916.11,3.26.224,6.523.214,9.785-.016,5.222-.121,10.445-.211,15.667-.048,2.818-.148,5.636-.216,8.454-.079,3.225-.146,6.449-.224,9.674-.07,2.929-.137,5.858-.225,8.786-.054,1.783-.159,3.564-.215,5.346-.087,2.78-.145,5.562-.227,8.342-.064,2.189-.185,4.377-.213,6.567-.093,7.294-.144,14.588-.234,21.882-.047,3.78-.21,7.559-.2,11.339.012,5.444.126,10.889.208,16.333.065,4.3.187,8.595.2,12.893.011,2.521-.02,5.053-.227,7.564-.661,8-.281,16.008-.448,24.011-.075,3.61-.455,7.214-.631,10.823-.191,3.895-.32,7.793-.449,11.691-.1,2.965-.142,5.932-.231,8.9-.052,1.746-.3,3.5-.18,5.233.152,2.251.556,4.486.891,6.722.249,1.663.681,3.307.822,4.977.3,3.564.631,7.138.636,10.709a18.2,18.2,0,0,1-1.305,7.759,39.225,39.225,0,0,1-2.381,4.008c-1.11,1.8-2.166,3.638-3.379,5.366a18.07,18.07,0,0,1-8.134,6.3c-2.687,1.1-5.452,2.047-8.234,2.888a33.958,33.958,0,0,1-8.114,1.611c-3.287.167-6.56.737-9.845.795-2.128.037-4.259-.66-6.4-.791-2.445-.149-4.906-.035-7.361-.035h-.888c-9.1,0-18.2.019-27.3-.01-3.3-.011-6.6-.108-9.9-.22-3.2-.109-6.389-.283-9.582-.437-2.935-.142-5.871-.283-8.805-.446-2.344-.13-4.687-.284-7.03-.443-2.011-.136-4.032-.2-6.028-.462-3.034-.391-6.064-.845-9.069-1.413a16.068,16.068,0,0,1-7.582-3.953A26.785,26.785,0,0,1,6.412,306.5c-2.014-3.178-3.605-6.552-3.769-10.422a1.161,1.161,0,0,0-.224-.677c-.966-1.1-.461-2.238-.248-3.44a33.02,33.02,0,0,0,.256-4.046c.015-.3.008-.592,0-.888-.073-3.336-.113-6.673-.232-10.007-.092-2.567-.275-5.131-.435-7.7-.212-3.386-.463-6.77-.657-10.157q-.267-4.678-.444-9.36c-.1-2.632-.146-5.266-.231-7.9-.061-1.893-.2-3.786-.211-5.679Q.084,212.253,0,188.272c-.012-4.926.129-9.853.211-14.779.064-3.854.166-7.707.216-11.561q.134-10.275.222-20.55Q.783,122.34.864,103.3c.008-1.893-.208-3.786-.2-5.679C.715,87,.8,76.372.874,65.749c.01-1.529-.014-3.059,0-4.588.067-5.666.109-11.333.233-17,.073-3.344.272-6.685.433-10.026q.2-4.126.445-8.25.193-3.239.452-6.474a2.517,2.517,0,0,1,.337-1.075c1.4-2.292,2.416-4.788,4.414-6.748a15.254,15.254,0,0,1,5.049-3.15A57.653,57.653,0,0,1,18.593,6.1c2.8-.788,5.653-1.421,8.515-1.945,3.05-.559,6.134-.949,9.211-1.344,1.742-.224,3.5-.3,5.252-.46,3.06-.286,6.113-.666,9.178-.862,2.811-.18,5.634-.2,8.452-.238,7.479-.093,14.958-.207,22.437-.2,3.194,0,6.391.231,9.581.432,2.5.158,5,.4,7.493.66,3.327.342,6.653.7,9.972,1.112,2.627.323,5.245.723,7.864,1.1,1.952.283,3.9.589,5.962.885m.333,267.244c1.413.074,2.825.189,4.239.215,5.111.093,10.223.148,15.333.238.676.012.974-.147.98-.909.012-1.819.135-3.638.2-5.457.152-4.193.293-8.386.447-12.578.063-1.708.155-3.416.218-5.124.083-2.226.148-4.452.225-6.678.071-2.078.164-4.155.218-6.234.088-3.446.189-6.893.219-10.34.093-10.7.144-21.394.236-32.091.023-2.67.235-5.341.193-8.009-.073-4.638-.276-9.274-.422-13.911-.077-2.46-.209-4.921-.206-7.382,0-2.707.111-5.414.211-8.12.126-3.417.286-6.832.44-10.248.142-3.157.3-6.314.441-9.471.154-3.453.313-6.905.44-10.359.1-2.669.149-5.34.228-8.009q.1-3.45.223-6.9c.063-1.745.155-3.49.217-5.235q.125-3.5.222-7.011c.084-3.261.223-6.524.211-9.785-.035-9.218-.122-18.435-.215-27.652-.029-2.855-.129-5.71-.22-8.564-.046-1.45-.134-2.9-.219-4.347q-.325-5.578-.666-11.155c-.136-2.2-.247-4.4-.454-6.585-.244-2.583-.479-5.174-.907-7.729a11.82,11.82,0,0,0-2.5-5.843c-1.808-2.146-4.432-2.357-6.826-2.794a71,71,0,0,0-9.144-.728c-2.888-.145-5.782-.18-8.675-.233a39.806,39.806,0,0,0-9.268.66,4.764,4.764,0,0,0-3.544,2.134c-1.362,2.4-2.828,4.742-4.164,7.157a5.9,5.9,0,0,1-4.14,3.4,7.8,7.8,0,0,0-2.543.8,7,7,0,0,1-3.855,1.165c-3.557-.094-7.115-.148-10.673-.231q-4.116-.1-8.231-.222c-2.226-.066-4.454-.114-6.677-.23-1.9-.1-3.81-.2-5.695-.46a4.979,4.979,0,0,1-3.812-2c-1.362-2.158-2.615-4.385-3.883-6.6-1.06-1.851-2.02-3.761-3.132-5.579a3.582,3.582,0,0,0-3.629-1.776c-2.054.215-4.105.466-6.162.658-2.643.247-5.3.392-7.934.688s-5.265.617-7.86,1.121c-3.23.627-6.438,1.387-9.62,2.224a3.059,3.059,0,0,0-2.487,2.68c-.166,1.959-.172,3.932-.244,5.9q-.113,3.061-.222,6.123-.225,6.511-.447,13.022c-.059,1.635-.157,3.268-.217,4.9-.085,2.3-.223,4.6-.212,6.9.042,8.663.134,17.325.209,25.988q.109,12.55.228,25.1c.031,2.781.146,5.561.214,8.342.079,3.225.215,6.449.207,9.674-.012,4.594-.124,9.187-.209,13.78-.06,3.225-.139,6.45-.221,9.674-.065,2.559-.149,5.118-.219,7.676q-.116,4.226-.221,8.453-.122,5.225-.223,10.451c-.077,3.78-.22,7.559-.211,11.339q.074,31.3.219,62.61c.014,3.151.136,6.3.215,9.452.069,2.744.136,5.488.225,8.231.053,1.635.075,3.276.265,4.9.049.416.687,1.095,1.044,1.089,2.012-.034,4.019-.326,6.032-.373,5.258-.123,10.518-.162,15.777-.239,4.889-.071,9.778-.167,14.668-.209,1.3-.011,2.6.191,3.9.2,12.917.088,25.833.145,38.75.236,6.332.045,12.664.163,19,.21,4.7.035,9.4.007,14.316.007m-73.026,1.776c-6.035.074-12.069.136-18.1.227-2.929.044-5.857.126-8.784.221-4.081.132-8.161.307-12.243.428-.836.025-1.214.348-1.156,1.179.076,1.079.189,2.157.215,3.237.093,3.889.148,7.779.238,11.669a5.016,5.016,0,0,0,.24,1.563,1.273,1.273,0,0,0,.745.76c2.767.491,5.534,1.011,8.323,1.334,2.927.339,5.877.494,8.82.685,2.784.181,5.572.321,8.359.447,3.673.166,7.347.325,11.022.441,3.408.108,6.818.226,10.226.217q29.245-.075,58.49-.228c3.231-.018,6.463-.24,9.69-.437q4.083-.249,8.156-.667,3.432-.35,6.841-.9a3.885,3.885,0,0,0,1.835-.86c.218-.188-.031-.884-.018-1.349.063-2.226.154-4.451.214-6.676.085-3.15.142-6.3.23-9.45.023-.829-.314-1.19-1.157-1.18q-3.181.037-6.362,0-8.941-.1-17.882-.22c-4.888-.066-9.776-.164-14.665-.216-8.328-.089-16.655-.184-24.983-.217-9.357-.037-18.714-.009-28.293-.009M75.344,2.8c-5.3.074-10.591.112-15.885.235-3.528.082-7.055.244-10.578.444-2.833.161-5.665.39-8.489.664-3.328.324-6.648.725-9.97,1.107a3.055,3.055,0,0,0-.69.256,2.743,2.743,0,0,0,.771.17c2.683-.2,5.362-.467,8.047-.646,2.821-.189,5.646-.321,8.47-.448q3.336-.15,6.676-.222c4.222-.09,8.445-.223,12.668-.211,7.736.021,15.473.121,23.209.214q3.672.044,7.342.226c1.865.091,3.724.291,5.587.42.153.011.318-.156.478-.24-.143-.138-.274-.381-.43-.4C99.567,4.05,96.586,3.7,93.6,3.48c-2.966-.221-5.941-.342-8.914-.452-3.038-.112-6.078-.156-9.339-.23m-4.55,304.645c.913-1.431,1.845-2.85,2.724-4.3a3.959,3.959,0,0,0,.284-1.126,4.257,4.257,0,0,0-.991.771q-4.727,6.783-9.388,13.611c-.1.143.012.643.115.674a2.173,2.173,0,0,0,2.823-1.274c1.459-2.721,2.953-5.423,4.433-8.354M58.475,306c.495-.791,1-1.573,1.471-2.381.086-.149-.007-.4-.017-.6-.156.075-.369.108-.461.232-.751,1.012-1.465,2.05-2.217,3.062q-3.617,4.868-7.266,9.712c-.3.391-.221.528.168.631,1.436.38,2.248-.037,2.9-1.452.158-.342.353-.667.544-.992,1.586-2.7,3.176-5.4,4.876-8.207m.333,7.436a1.257,1.257,0,0,1,.081-.3c1.435-2.55,2.881-5.093,4.3-7.654.108-.2.007-.506,0-.763a2.139,2.139,0,0,0-.6.408c-.91,1.282-1.8,2.581-2.683,3.879-1.6,2.333-3.2,4.665-4.772,7.014-.126.188-.176.648-.064.738a2.241,2.241,0,0,0,2.678-.72c.34-.821.633-1.661,1.058-2.6M63.8,307.11c-.925,1.536-1.859,3.067-2.763,4.614a1.936,1.936,0,0,0-.094.713c.249-.148.589-.235.735-.452,1.664-2.479,3.248-5.013,4.958-7.459,1.211-1.732,2.589-3.346,3.862-5.036.065-.086-.144-.557-.251-.566-.836-.074-1.663-.135-2.132.848-.4.836-.92,1.613-1.389,2.415-.938,1.6-1.876,3.208-2.926,4.924m65.368,3.44c-.966,1.41-1.942,2.813-2.885,4.238a1.482,1.482,0,0,0-.1.749c0,.047.232.168.293.135.824-.444,1.822-.556,2.281-1.629a31.329,31.329,0,0,1,1.989-3.718c1.3-2.166,2.657-4.292,3.961-6.453.127-.21.045-.546.06-.823-.235.131-.554.2-.692.4-1.613,2.318-3.2,4.656-4.9,7.1m6.215,1.11c-.47.544-.949,1.079-1.4,1.638a.475.475,0,0,0-.048.438c.083.126.365.281.424.238a6.852,6.852,0,0,0,1.664-1.364c1.125-1.617,2.1-3.338,3.183-4.983,1.8-2.729,3.652-5.425,5.455-8.153a2.81,2.81,0,0,0,.208-.969,2.842,2.842,0,0,0-.815.54c-1,1.385-1.963,2.8-2.926,4.209-1.883,2.762-3.756,5.529-5.745,8.406m-9.1-2.442c-.131.2-.249.419-.394.613-1.356,1.806-2.723,3.6-4.066,5.42a1.176,1.176,0,0,0-.136.671c0,.062.3.212.364.17a6.186,6.186,0,0,0,1.977-1.323c2.009-2.918,3.9-5.916,5.807-8.9a3.335,3.335,0,0,0,.246-1.062,3.709,3.709,0,0,0-.851.6c-.968,1.216-1.894,2.465-2.946,3.813m-67.033-289A9.063,9.063,0,0,0,58.2,22.217c-.084.323.456.807.713,1.218a4.515,4.515,0,0,0,.758-.766c.48-.792.858-1.647,1.352-2.43,1.611-2.553,3.259-5.082,4.88-7.629a2.268,2.268,0,0,0,.174-.656,4.467,4.467,0,0,0-.752.213,1.181,1.181,0,0,0-.394.383c-1.859,2.518-3.713,5.04-5.679,7.672M94.766,308.109c-1.856,2.744-3.717,5.484-5.557,8.237a1.361,1.361,0,0,0-.181.794c0,.072.408.167.63.172.924.019,1.849.017,2.772,0a2.2,2.2,0,0,0,.56-.163c-.093-.146-.15-.36-.283-.429-1.139-.594-1.007-1.542-.556-2.416,1.04-2.016,2.187-3.975,3.271-5.968a2.574,2.574,0,0,0,.147-.755,9.586,9.586,0,0,0-.8.528m21.974-1.554a2.317,2.317,0,0,0,.228-.459,6.968,6.968,0,0,0,.111-.756,2.125,2.125,0,0,0-.6.387c-.743.979-1.45,1.985-2.177,2.976-1.706,2.326-3.423,4.643-5.117,6.978a8.356,8.356,0,0,0-.593,1.144,10.478,10.478,0,0,0,1.435-.19,1.264,1.264,0,0,0,.668-.5c.452-.692.82-1.439,1.272-2.131,1.581-2.417,3.183-4.82,4.778-7.45M84.777,14.9q1.221-1.6,2.442-3.2Q88.86,9.542,90.5,7.4c.172-.224.38-.42.572-.629a3.24,3.24,0,0,0-1.115-.124,1.6,1.6,0,0,0-.738.647c-1.644,2.236-3.284,4.475-4.9,6.733q-1.585,2.216-3.083,4.494c-.127.192-.024.535-.027.808.183-.1.426-.16.54-.314.983-1.325,1.944-2.667,3.022-4.115m8.213-.888c.666-.87,1.324-1.747,2-2.609.921-1.174,1.857-2.337,2.783-3.507.259-.327.508-.661.761-.992a6.536,6.536,0,0,0-1.482-.024c-.276.055-.537.388-.725.653-.869,1.224-1.729,2.456-2.557,3.709q-1.637,2.476-3.211,4.993a2.174,2.174,0,0,0-.144.751,2.191,2.191,0,0,0,.605-.356,22.422,22.422,0,0,0,1.969-2.619m57.267,270.129a2.555,2.555,0,0,1,.209.794c-.122,1.64-.358,3.274-.413,4.915-.074,2.226-.025,4.457-.008,6.686a1.789,1.789,0,0,0,.239.591c.139-.185.379-.359.4-.557.176-1.672.34-3.346.443-5.024.032-.517-.274-1.073-.181-1.565a14.333,14.333,0,0,0-.254-6.265c-.033-.131-.172-.235-.262-.352a4.165,4.165,0,0,0-.175.777M44.6,301.672c.623-.771,1.26-1.532,1.857-2.323.109-.145.15-.544.07-.6a1.544,1.544,0,0,0-1.936.609c-.42.864-.861,1.721-1.349,2.548-1.316,2.232-2.668,4.443-3.983,6.675a1.97,1.97,0,0,0-.09.745c.2-.133.477-.219.6-.4,1.585-2.372,3.149-4.759,4.829-7.253m41.951-285c-.314.462-.654.908-.933,1.39-.238.409-.406.858-.605,1.289A9.04,9.04,0,0,0,86.1,18.323c1.176-1.539,2.323-3.1,3.464-4.665q2.327-3.193,4.618-6.412c.109-.154.027-.443.034-.67-.226.076-.527.086-.665.24-.372.418-.674.9-1,1.353-2,2.76-4,5.52-5.993,8.5M77.342,9.9c.731-.879,1.476-1.747,2.184-2.644a5.069,5.069,0,0,0,.467-.92,8.838,8.838,0,0,0-1.143.3,1.313,1.313,0,0,0-.472.458c-.868,1.152-1.735,2.305-2.585,3.471-1.157,1.586-2.31,3.175-3.429,4.788-.136.2-.05.545-.067.823.209-.1.492-.147.615-.313,1.453-1.94,2.882-3.9,4.429-5.963M67.686,14.9c-1.822,2.488-3.67,4.957-5.434,7.485-.237.339-1.112.857-.27,1.362.181.109.959-.476,1.242-.892,1.227-1.8,2.369-3.656,3.549-5.487.695-1.077,1.415-2.138,2.093-3.226.105-.169.042-.444.056-.669a3.24,3.24,0,0,0-.564.382,3.336,3.336,0,0,0-.672,1.045M82.114,311.216c-.234.382-.463.768-.7,1.146-.947,1.488-1.9,2.97-2.841,4.464a1.5,1.5,0,0,0-.1.513,3.557,3.557,0,0,1,.487-.015c.974.1,1.245-.664,1.6-1.308q1.987-3.6,3.95-7.21a1.818,1.818,0,0,0,.06-.685c-.182.1-.429.155-.537.308-.62.879-1.208,1.782-1.917,2.787M59.141,299.563c-1.073,1.619-2.158,3.231-3.214,4.861-.694,1.071-1.356,2.163-2,3.261-.092.155-.028.4-.037.605.182-.082.423-.117.536-.255.307-.376.549-.8.837-1.2q2.589-3.518,5.185-7.03c.2-.269.361-.563.54-.845a7.964,7.964,0,0,0-1.259.039c-.178.031-.316.292-.584.559m21.419-.111c0,.074.028.165,0,.219-1.582,2.626-3.174,5.246-4.75,7.875a4.631,4.631,0,0,0-.306.83c.256-.139.6-.212.754-.426,1.015-1.451,1.982-2.936,2.976-4.4.879-1.3,1.772-2.584,2.663-3.873.137-.2.295-.381.443-.572-.248-.069-.513-.229-.739-.185a3.435,3.435,0,0,0-1.037.533m37.845,8.99a7.057,7.057,0,0,0-.551.66q-2.163,3.316-4.3,6.649a.89.89,0,0,0-.112.7.661.661,0,0,0,.613.181c.4-.148.93-.315,1.1-.637,1.248-2.323,2.429-4.683,3.6-7.048.066-.133-.154-.408-.352-.507m-11.653,6.77q2.35-3.682,4.7-7.367a1.75,1.75,0,0,0,.136-.454c-.178.065-.425.076-.525.2-.984,1.249-1.981,2.49-2.9,3.786-1.086,1.533-2.114,3.108-3.126,4.691-.143.224-.052.6-.07.9a2.268,2.268,0,0,0,.758-.313,5.6,5.6,0,0,0,1.031-1.449m-58.709-1.665c-.34.488-.7.962-1.012,1.468-.25.407-.437.853-.652,1.281.42.046.839.092,1.259.136.073.008.148,0,.222,0,.5.015.691-.02.578-.706a3.409,3.409,0,0,1,.529-1.961c.936-1.727,1.974-3.4,2.95-5.1.082-.143,0-.382-.011-.576-.179.046-.45.033-.522.147-1.092,1.725-2.157,3.466-3.339,5.314M80.782,307q2.542-3.652,5.081-7.307a4.526,4.526,0,0,0,.306-.624,3.348,3.348,0,0,0-.971-.006,1.2,1.2,0,0,0-.549.528c-1.519,2.358-3.039,4.715-4.519,7.1a6.416,6.416,0,0,0-.477,1.4c.339-.327.678-.654,1.128-1.091m16.647.444c.364.772.633.048.75-.116.887-1.246,1.7-2.547,2.587-3.79.963-1.345,1.982-2.651,2.989-3.964a2.567,2.567,0,0,1,.5-.4c-.22-.093-.448-.278-.657-.258a1.325,1.325,0,0,0-.838.336,22.858,22.858,0,0,0-1.555,2.117c-1.274,1.94-2.521,3.9-3.779,6.07m-27.745,9.1c.312-.608.614-1.221.938-1.823.957-1.779,1.932-3.549,2.872-5.336.1-.193.027-.478.034-.72a2.646,2.646,0,0,0-.508.459q-2.346,3.614-4.656,7.251a2.691,2.691,0,0,0-.192.878,4.973,4.973,0,0,0,1.037-.038c.183-.043.318-.292.474-.671m35.292-4c.811-1.255,1.632-2.5,2.421-3.771a2.3,2.3,0,0,0,.159-.751,2.016,2.016,0,0,0-.6.344,21.882,21.882,0,0,0-1.416,1.852q-2.079,3.127-4.1,6.291c-.1.159-.061.41-.087.618a2.381,2.381,0,0,0,.686-.109,1.226,1.226,0,0,0,.472-.46c.8-1.3,1.575-2.6,2.471-4.015m16.647-3.773c.37-.658.752-1.31,1.1-1.979a3.616,3.616,0,0,0,.207-.707c-.352.071-.912.027-1.024.23-1.377,2.485-2.693,5-4,7.525-.077.147.034.392.057.591a1.579,1.579,0,0,0,.447-.243,3.78,3.78,0,0,0,.4-.606c.939-1.529,1.876-3.059,2.814-4.811m-43.061,4.883c.885-1.477,1.779-2.949,2.646-4.437a2.465,2.465,0,0,0,.158-.75,2.609,2.609,0,0,0-.576.461c-1.715,2.458-3.424,4.92-5.1,7.4a3.32,3.32,0,0,0-.272,1.059,8.839,8.839,0,0,0,1-.494,1.58,1.58,0,0,0,.373-.5c.558-.875,1.111-1.752,1.777-2.739m-37.29,0c-.392.614-.792,1.223-1.169,1.846-.074.123-.134.376-.07.44.335.336,1.557-.086,1.687-.548a4.949,4.949,0,0,1,.343-.966c.91-1.732,1.846-3.45,2.752-5.184a2.884,2.884,0,0,0,.162-.762c-.231.129-.552.2-.678.4-.993,1.542-1.948,3.109-3.026,4.779M102.978,8.68c-.676.9-1.36,1.791-2.027,2.7-.788,1.07-1.573,2.143-2.331,3.235a1.787,1.787,0,0,0-.128.682,2.876,2.876,0,0,0,.542-.239,2.407,2.407,0,0,0,.471-.463q2.737-3.393,5.462-6.8a2.314,2.314,0,0,0,.224-.453c-.17-.035-.4-.157-.5-.09a8.074,8.074,0,0,0-1.713,1.428M35.058,299.9c.234-.308.454-.63.709-.921a4.669,4.669,0,0,1,.561-.474c-.331-.09-.691-.3-.986-.237a1.481,1.481,0,0,0-.824.641q-1.991,3.26-3.907,6.566a2.067,2.067,0,0,0-.1.749c.2-.13.479-.212.6-.4,1.293-1.93,2.563-3.876,3.95-5.929m20.976-1c-.378.156-.922.2-1.106.485-1.376,2.109-2.685,4.261-4,6.41-.093.153-.044.393-.061.593.178-.065.423-.077.523-.2.567-.714,1.091-1.463,1.646-2.188,1.136-1.481,2.291-2.948,3.4-4.446.082-.11-.118-.429-.409-.651M57.254,11.344a5.162,5.162,0,0,0-.427.924,2.1,2.1,0,0,0,.081.728,2.337,2.337,0,0,0,.559-.388c.279-.351.474-.769.758-1.115,1.152-1.4,2.329-2.774,3.482-4.171a1.043,1.043,0,0,0,.186-.574c0-.05-.266-.147-.418-.171a1.841,1.841,0,0,0-2.024,1.215c-.64,1.177-1.386,2.3-2.2,3.552M89.106,311.327c-1.2,1.713-2.4,3.417-3.57,5.149-.154.229-.1.6-.147.9.282-.1.678-.11.826-.308.643-.859,1.213-1.773,1.812-2.665.908-1.354,1.828-2.7,2.716-4.066a2.319,2.319,0,0,0,.177-.748,2.15,2.15,0,0,0-.6.32c-.391.413-.737.867-1.212,1.416m-14.65,3.108c.7-1.219,1.422-2.426,2.083-3.665.125-.235.013-.6.01-.9a2.61,2.61,0,0,0-.614.442c-.272.352-.471.759-.713,1.136-1.1,1.714-2.221,3.421-3.307,5.146a1.973,1.973,0,0,0-.116.735c.271,0,.588.083.8-.03a1.782,1.782,0,0,0,.626-.678c.4-.678.749-1.381,1.23-2.185m18.978-12.541c-.74,1.2-1.487,2.405-2.212,3.619a2.449,2.449,0,0,0-.174.654c.2-.094.475-.133.6-.29.616-.767,1.192-1.567,1.785-2.353,1-1.32,1.991-2.642,3-3.954a2.588,2.588,0,0,1,.5-.395c-.22-.093-.456-.289-.655-.255a1.583,1.583,0,0,0-.917.414c-.646.782-1.216,1.627-1.926,2.559m-17.868,1.665c1.035-1.332,2.074-2.66,3.1-4a.756.756,0,0,0,.1-.495c-.006-.065-.206-.136-.326-.161a1.309,1.309,0,0,0-1.5.628c-1.176,2.012-2.329,4.038-3.476,6.066-.072.128-.028.322-.037.486.156-.063.373-.08.458-.2.539-.727,1.049-1.476,1.679-2.328m-54.048,3.884c-.962,1.561-1.933,3.117-2.874,4.691-.12.2-.177.682-.111.714a5.414,5.414,0,0,0,1.349.423c.062.011.226-.393.3-.618a19.335,19.335,0,0,1,.652-2.059c.469-1.028,1.07-2,1.557-3.017a3.8,3.8,0,0,0,.167-1.091l-.849.77c-.027.025-.052.052-.19.189M66.021,9.235c.7-.776,1.415-1.543,2.091-2.341.076-.09-.05-.352-.082-.534-.325.1-.786.086-.954.3-1.543,2-3.04,4.028-4.53,6.065-.121.166-.091.443-.13.668.2-.093.477-.132.6-.289C64,11.867,64.949,10.6,66.021,9.235M40.5,302.227c.675-.971,1.356-1.939,2.021-2.916a5.956,5.956,0,0,0,.356-.7c-.351.024-.836-.089-1.027.1a8.848,8.848,0,0,0-1.265,1.669c-.906,1.459-1.782,2.937-2.642,4.424a2.126,2.126,0,0,0-.112.748,4.191,4.191,0,0,0,.556-.512c.678-.892,1.337-1.8,2.114-2.811M82.78,315.877c-.21.456-.431.908-.614,1.374-.018.046.192.181.3.275.328-.38.656-.759.982-1.141a1.157,1.157,0,0,0,.111-.175c1.118-1.932,2.243-3.86,3.346-5.8a3.591,3.591,0,0,0,.237-.829c-.256.162-.6.265-.754.5-1.222,1.846-2.407,3.716-3.6,5.8M73.346,9.679C72.8,10.448,72.224,11.2,71.722,12a2.857,2.857,0,0,0-.2.967,3.17,3.17,0,0,0,.812-.55c1.332-1.725,2.634-3.474,3.938-5.221.179-.24.319-.51.477-.766a3.512,3.512,0,0,0-.96-.054,1.175,1.175,0,0,0-.681.457c-.578.9-1.106,1.824-1.763,2.851M81.67,7.57c-1.066,1.51-2.151,3.007-3.183,4.54a4.528,4.528,0,0,0-.387,1.213,7.3,7.3,0,0,0,.9-.809q1.758-2.189,3.467-4.417c.414-.539.769-1.124,1.151-1.688-1.009-.343-1.247.659-1.946,1.161M68.352,10.678a11.549,11.549,0,0,0-.687,1.151,2.261,2.261,0,0,0-.073.736,3.221,3.221,0,0,0,.532-.434q1.957-2.44,3.888-4.9a6.587,6.587,0,0,0,.484-.841,3.959,3.959,0,0,0-1.248.106c-.287.12-.47.511-.674.8-.746,1.05-1.482,2.108-2.222,3.384m1.776,293.879c.757-1.127,1.509-2.257,2.273-3.379.354-.521.716-1.038,1.1-1.536a3.46,3.46,0,0,1,.558-.475c-.332-.09-.693-.3-.988-.236a1.49,1.49,0,0,0-.824.644q-1.431,2.334-2.774,4.722a6.02,6.02,0,0,0-.384,1.22c.309-.283.618-.566,1.038-.96m-48.61,0c.3-.2.686-.342.872-.618,1.163-1.723,2.289-3.471,3.4-5.226a3.792,3.792,0,0,0,.295-.906c-.339.159-.829.225-.994.492-1.228,1.99-2.392,4.019-3.575,6.259M82,12.343a.391.391,0,0,0-.076.08.079.079,0,0,0,.012.075c.782.571.907-.365,1.139-.626,1.37-1.54,2.642-3.167,3.939-4.772a3.338,3.338,0,0,0,.3-.544,2.193,2.193,0,0,0-.891-.147c-.248.07-.46.363-.629.6C84.558,8.743,83.338,10.489,82,12.343m9.211,11.431c.392-.54.8-1.067,1.172-1.624q1-1.52,1.956-3.074A2.212,2.212,0,0,0,94.5,18.4a3.308,3.308,0,0,0-.609.266,1.97,1.97,0,0,0-.454.473c-1.11,1.536-2.221,3.071-3.308,4.623a3.352,3.352,0,0,0-.3.843,7.619,7.619,0,0,0,.988-.233c.158-.058.266-.249.4-.6m-54.381,287,.185-1.369a8.765,8.765,0,0,0-.929,1.019q-1.324,1.988-2.573,4.025a4.759,4.759,0,0,0-.35,1.093c.4-.179.815-.344,1.208-.546.109-.056.171-.216.238-.337.705-1.257,1.407-2.515,2.221-3.885m-19.755-11.1c.312-.534.64-1.058.928-1.6a7.006,7.006,0,0,0,.334-.907c-.33.154-.8.218-.967.477-1.1,1.67-2.136,3.378-3.171,5.088a2.623,2.623,0,0,0-.185.766c.256-.139.6-.214.753-.427.76-1.074,1.47-2.184,2.308-3.392m44.837,3.107a7.931,7.931,0,0,0-.655.95,8.442,8.442,0,0,0-.389,1.114,5.409,5.409,0,0,0,1.031-.8c1.166-1.465,2.29-2.964,3.421-4.458a4.585,4.585,0,0,0,.334-.611,2.413,2.413,0,0,0-.739-.063,1.079,1.079,0,0,0-.608.38c-.779,1.113-1.527,2.248-2.4,3.487M76.232,24.107c.961-1.479,1.929-2.952,2.874-4.441a3.857,3.857,0,0,0,.293-.827c-.256.142-.592.224-.754.437C77.605,20.639,76.6,22.027,75.6,23.42a6.511,6.511,0,0,0-.466.919,4.893,4.893,0,0,0,1.1-.232M86.664,21a7.776,7.776,0,0,0,.534-1,1.982,1.982,0,0,0,0-.687c-.215.1-.512.148-.632.318q-1.392,1.964-2.717,3.975a2.985,2.985,0,0,0-.249.765c.3-.038.678.02.9-.137a3.118,3.118,0,0,0,.719-.907c.46-.73.893-1.478,1.448-2.329M62.692,312.215c-.831,1.275-1.684,2.535-2.472,3.836-.148.244-.034.647-.041.976.283-.154.677-.235.829-.473.838-1.3,1.631-2.629,2.4-3.969a3.559,3.559,0,0,0,.237-.968c-.282.162-.564.324-.956.6m-31.963-2.442-.091-.535c-.157.069-.382.095-.46.215-1.007,1.573-2.005,3.153-2.968,4.754-.106.177.022.494.042.746.209-.111.508-.167.612-.341.937-1.564,1.84-3.149,2.864-4.839m66.478-290q-.39.5-.78,1c-.805,1.028-1.628,2.044-2.4,3.1-.114.156.013.49.029.741.182-.079.437-.107.535-.246,1.328-1.874,2.636-3.763,3.945-5.65a2.928,2.928,0,0,0,.172-.327c-.126.012-.306-.025-.368.044-.357.4-.685.816-1.134,1.339M91.1,299.563c-.7,1.143-1.418,2.275-2.082,3.437a2.977,2.977,0,0,0-.174.966,3.248,3.248,0,0,0,.8-.571c.918-1.227,1.8-2.483,2.684-3.733.122-.171.216-.362.323-.544-.263-.074-.552-.25-.783-.193-.248.061-.441.342-.77.638m-62.7.777c.365-.587.733-1.173,1.094-1.763.089-.146.159-.3.238-.455-.206-.038-.434-.148-.611-.094a1.091,1.091,0,0,0-.589.424q-1.2,2.044-2.338,4.127c-.066.121.045.339.074.511.178-.088.427-.129.523-.272.521-.775,1-1.576,1.61-2.478M38.054,315.1c.7-1.219,1.413-2.433,2.094-3.664a2.55,2.55,0,0,0,.152-.749c-.23.139-.54.223-.677.424-.832,1.232-1.649,2.476-2.411,3.752a2.686,2.686,0,0,0-.114,1.056c.282-.236.564-.472.957-.819m97-17.535c-.332,0-.667-.027-1,0a2.689,2.689,0,0,0-2.175,1.628c-.071.137-.008.342-.006.516.152-.031.378-.009.445-.1a2.286,2.286,0,0,1,2.76-.947.9.9,0,0,0,.645-.023,8.581,8.581,0,0,0,.97-.767c-.363-.1-.724-.214-1.09-.307a3.282,3.282,0,0,0-.553,0M53.592,13.452a7.04,7.04,0,0,0,.272,1.119c.024.06.58.046.637-.065.657-1.268,1.269-2.559,1.879-3.851a2.117,2.117,0,0,0,.1-.53c-.225.076-.543.082-.661.238-.73.974-1.416,1.981-2.227,3.089M73.79,21c-.624.846-1.259,1.684-1.861,2.545-.1.15-.067.4-.1.6.23-.036.574.013.672-.12.933-1.26,1.831-2.547,2.713-3.843.069-.1-.051-.332-.083-.5a1.33,1.33,0,0,0-.447.211c-.283.313-.528.661-.9,1.106m36.624,278.564c-.519.815-1.061,1.618-1.543,2.455a2.058,2.058,0,0,0-.075.811c.178-.061.421-.069.523-.192q1.352-1.637,2.652-3.318c.063-.081-.023-.278-.04-.422-.488.137-1.232-.377-1.518.666m-84.9,12.985c.259-.555.541-1.1.765-1.67a1.826,1.826,0,0,0,0-.66c-.176.108-.412.174-.519.329-.746,1.085-1.479,2.179-2.173,3.3a.738.738,0,0,0,.143.646.609.609,0,0,0,.57-.086c.4-.557.744-1.158,1.219-1.855M70.9,20.333c-.8,1.024-1.607,2.047-2.4,3.076a3.892,3.892,0,0,0-.27.465c.188.078.4.253.559.213.356-.091.831-.2,1-.459a26.289,26.289,0,0,0,1.476-2.795c.064-.135-.157-.4-.357-.5M100.315,8.68c.261-.335.536-.659.775-1.008a3.549,3.549,0,0,0,.272-.608c-.3.045-.747-.02-.876.153C99.4,8.673,98.378,10.17,97.342,11.66a1.251,1.251,0,0,0-.11.375,1.4,1.4,0,0,0,.386-.224c.869-1,1.725-2.012,2.7-3.131M81.892,21.332c-.357-.768-.6-.053-.748.111a16.38,16.38,0,0,0-1.473,1.916,3.265,3.265,0,0,0-.25,1.052c.333-.166.778-.248.977-.514a15.576,15.576,0,0,0,1.493-2.565m2.886,5.327c-.109.529.183.572.611.563,1.137-.025,2.275.007,3.412-.022.215-.006.426-.191.638-.294-.233-.119-.462-.336-.7-.342a36.846,36.846,0,0,0-3.963.095M119.4,299.9a3.461,3.461,0,0,0,.538-.556,2.83,2.83,0,0,0,.218-.686c-.274.007-.686-.1-.8.04-.618.752-1.173,1.556-1.717,2.365-.067.1.059.33.095.5a1.513,1.513,0,0,0,.45-.238c.384-.424.739-.874,1.216-1.425m24.527-286c-.672-.154-1.342-.316-2.017-.457a3.579,3.579,0,0,0-.61-.024c.031.2-.012.5.107.6a6.512,6.512,0,0,0,1.373.934c.648.3,1.232-.184,1.147-1.049M52.7,298.675c-.471.113-2,2.3-1.874,2.71a.366.366,0,0,0,.319.162,4.2,4.2,0,0,0,1.555-2.872m-21.087,13.54c-.515.663-1.064,1.3-1.525,2-.138.209-.045.583-.019.877,0,.056.281.141.283.137a16.3,16.3,0,0,0,1.261-3.017M57.476,18.89c.259-.407.542-.8.762-1.228.066-.128-.044-.347-.073-.525-.13.04-.311.04-.381.128a19.359,19.359,0,0,0-1.308,1.772c-.1.161.067.488.112.74a2.9,2.9,0,0,0,.537-.33c.117-.11.163-.295.351-.557M44.38,313.88c-.37.657-.75,1.308-1.1,1.975-.065.124-.006.313,0,.472.178-.033.452-.005.518-.109.42-.666.8-1.356,1.16-2.058.021-.041-.3-.256-.573-.279M7.09,138.529a1.794,1.794,0,0,0,.006.437c.069.266.174.523.265.783a2.83,2.83,0,0,0,.378-.79,4.61,4.61,0,0,0,0-1.421,3.235,3.235,0,0,0-.488-.9c-.052.3-.121.6-.151.9-.025.254-.005.512-.005.99M125.619,300.784a.575.575,0,0,1,0-.218c.2-.436.787-.813.192-1.362-.232.323-.464.646-.695.97a.978.978,0,0,0-.163.261c-.13.437-.246.878-.366,1.318.306-.286.612-.572,1.028-.969M10.642,305.667a14.493,14.493,0,0,0-.988,1.239.853.853,0,0,0,.023.654.476.476,0,0,0,.428.18c.593-.181,1.008-1.631.537-2.072M48.6,300.784a8.639,8.639,0,0,0,.684-.921,8.731,8.731,0,0,0,.438-1.065,4.722,4.722,0,0,0-1.052.62,2.263,2.263,0,0,0-.49.986c-.035.125.2.325.421.38m-32.851,10.21c-.051.125-.154.255-.143.375a5.692,5.692,0,0,0,.162.753,3.37,3.37,0,0,0,.537-.367,1.244,1.244,0,0,0,.236-.447c.16-.425.307-.855.459-1.283-.38.286-.76.572-1.251.969m87.787-2.331c.037-.1.082-.188.11-.285.1-.348.192-.7.287-1.046-.3.24-.6.479-.895.721-.057.046-.132.094-.152.157-.11.348-.206.7-.306,1.052.282-.162.563-.324.956-.6M65.467,23.108l.019.907c.207-.146.493-.248.606-.447a13.968,13.968,0,0,0,.625-1.43c-.38.286-.759.573-1.25.97M12.084,308.664a1.117,1.117,0,0,0-.141.371c0,.3.049.6.077.9a3.167,3.167,0,0,0,.6-.495,1.32,1.32,0,0,0,.226-.656,1.765,1.765,0,0,0-.14-.561,7.331,7.331,0,0,0-.623.444m95.888-301.2L107.7,8.3a3.3,3.3,0,0,0,.959,0c.205-.059.347-.342.516-.525a9.024,9.024,0,0,0-1.2-.313M89.106,299.341a4.647,4.647,0,0,0-.583-.265c-.217.353-.389.734-.571,1.109a4.747,4.747,0,0,0,.81-.3c.121-.069.158-.284.344-.544m39.953-288.33c-.193-.8-.759-.41-1.191-.336-.091.016-.131.328-.195.5.367.018.735.041,1.1.048.057,0,.115-.069.283-.217m11.209,286.666.352-.98a5.9,5.9,0,0,0-.826.591c-.127.126-.132.376-.191.569a.777.777,0,0,0,.666-.18M21.3,313.214l.007.894c.146-.086.359-.138.424-.265a10.99,10.99,0,0,0,.433-1.1,7.107,7.107,0,0,0-.864.468M50.928,9.013c-.259.364-.523.725-.767,1.1-.021.032.095.153.147.233.3-.318.618-.626.9-.964.053-.063-.034-.242-.278-.368M9.31,304.779l-.286-.333c-.2.314-.42.619-.589.95-.044.086.067.252.107.382a3.893,3.893,0,0,0,.768-1M7.2,114a4.241,4.241,0,0,0-.317.841,2.318,2.318,0,0,0,.109.713c.1-.029.264-.034.284-.091a2.6,2.6,0,0,0,.179-.752A1.529,1.529,0,0,0,7.2,114M98.1,316.765l.381.506a7.441,7.441,0,0,0,.49-.885c.037-.092-.12-.264-.187-.4-.191.222-.382.444-.684.777m27.191-306.2-.29.6a5.61,5.61,0,0,0,.939.05c.114-.011.208-.229.312-.352a5.054,5.054,0,0,0-.961-.3M8.533,294.458a5.866,5.866,0,0,0,.413.821c.024.035.336-.124.514-.194l-.626-.549c-.028-.024-.052-.052-.3-.078M7.312,303l.449.439.217-.875a1.158,1.158,0,0,0-.666.436m5.771-6.659c-.148.267-.3.532-.43.808a2.255,2.255,0,0,0,.293.191,2.72,2.72,0,0,0,.137-1m18.423,2.22.283.555.382-.7a1.786,1.786,0,0,0-.666.141m91.227.666.666-.236-.178-.319a1.235,1.235,0,0,0-.488.555m25.193-1.443a1.322,1.322,0,0,0-.456.036c-.055.024-.028.233-.039.357A.882.882,0,0,0,147.926,297.787Z" transform="translate(0 -0.815)"></path><path d="M789.464,637.982c-.074-2.707-.136-5.3-.229-7.9-.031-.871-.22-1.742-.19-2.609.023-.683.372-1.354.4-2.037.117-2.779.184-5.56.233-8.341.033-1.849-.022-3.7.013-5.548.045-2.337.154-4.673.21-7.01.03-1.233-.068-2.473.036-3.7a4.371,4.371,0,0,1,.69-1.8c.1-.161.773-.173,1.014-.007a30.388,30.388,0,0,1,2.406,1.927c.562.479,1.08,1.01,1.633,1.5.438.388.894.755,1.353,1.119.354.281.946.476,1.048.823.47,1.595,1.864,2.442,2.846,3.58,3.112,3.6,6.4,7.058,9.61,10.575a11.782,11.782,0,0,1,1.094,1.323c.975,1.446.977,2.182-.122,3.7-.856,1.18-1.782,2.315-2.741,3.415-2.779,3.186-5.586,6.347-8.39,9.51-1.849,2.086-3.623,4.251-5.614,6.193a8.29,8.29,0,0,1-3.132,1.48c-.99.337-1.7-.71-1.921-2.178-.195-1.283-.173-2.6-.247-4.011m15.981-20.088.261-.849c-.331.083-.794.055-.971.267q-1.671,2-3.229,4.088c-1.177,1.573-2.313,3.176-3.443,4.784-.114.163-.06.444-.084.67.178-.085.412-.124.526-.262.773-.929,1.526-1.875,2.276-2.823,1.52-1.919,3.035-3.843,4.662-5.875m-8.99,3q-2.111,2.444-4.22,4.889a3.17,3.17,0,0,0-.764,2.663,2.518,2.518,0,0,0,.306.645c.116-.2.241-.394.348-.6a22.806,22.806,0,0,1,1.148-2.175c1.053-1.565,2.184-3.078,3.255-4.631.11-.16.03-.451-.073-.792m-3.329,14.428a23.06,23.06,0,0,0-1.542,1.8,2.406,2.406,0,0,0-.323,1.179c-.018.245.176.506.274.76a3.684,3.684,0,0,0,.583-.57c.3-.458.519-.97.827-1.422,1.2-1.755,2.414-3.494,3.618-5.243a2.1,2.1,0,0,0,.175-.437c-.152.038-.365.025-.446.122-1.029,1.225-2.039,2.466-3.165,3.814m5.66-1c1.05-1.144,2.495-2.009,2.669-3.775a4.11,4.11,0,0,1,.124-.536,2.179,2.179,0,0,0-.592.35c-.724.838-1.416,1.7-2.126,2.553-.78.935-1.58,1.855-2.338,2.807-.123.154-.076.442-.107.669a1.794,1.794,0,0,0,.529-.239c.591-.559,1.157-1.143,1.843-1.829M804,624.442c1.194-1.416,2.4-2.823,3.572-4.259a3.214,3.214,0,0,0,.357-.913c-.329.078-.8.043-.965.251-1.235,1.53-2.419,3.1-3.592,4.682a2.088,2.088,0,0,0-.184.758,9.069,9.069,0,0,0,.813-.519m-3.441-9.655a9.746,9.746,0,0,0,.921-1.172,2.441,2.441,0,0,0,.125-.889c-.3.046-.737-.018-.878.157-.879,1.1-1.7,2.237-2.515,3.383-.1.135-.019.391-.023.591a1.835,1.835,0,0,0,.528-.243c.59-.558,1.155-1.142,1.84-1.827m-4.772-4.106c.495-.716,1.018-1.415,1.464-2.161.12-.2,0-.544-.007-.822-.256.1-.624.123-.75.31-.614.914-1.167,1.869-1.731,2.816a2.263,2.263,0,0,0-.154.453,1.568,1.568,0,0,0,.592-.032c.188-.09.32-.3.587-.565M792.46,631.1a8.887,8.887,0,0,0-.773,1.013,4.492,4.492,0,0,0-.43,1.149c-.029.118.161.291.251.439a2.407,2.407,0,0,0,.391-.379c.455-.7.925-1.387,1.321-2.116a5.841,5.841,0,0,0,.357-1.207l-.771.756c-.079.078-.157.157-.346.346m4.994-18.09c.6-.748,1.22-1.482,1.785-2.255.129-.176.069-.491.1-.742-.225.079-.537.091-.662.249-.631.8-1.217,1.63-1.792,2.469a1.074,1.074,0,0,0,.573.278m-4,7.325-.17-.333c-.609.736-1.223,1.47-1.815,2.22-.027.035.118.291.215.315a.456.456,0,0,0,.375-.155,14.262,14.262,0,0,0,1.395-2.048m.888-14.428a1.633,1.633,0,0,0,.218-.452,3.771,3.771,0,0,0-.018-.68c-.2.068-.509.077-.586.214-.307.554-.542,1.147-.8,1.726.36-.232.719-.465,1.19-.808m8.546,10.1a3.517,3.517,0,0,0,.587-.619c.056-.094-.115-.323-.183-.491-.35.241-1.1.274-.4,1.11m-10.987-12.985.275.333.169-.439A.36.36,0,0,0,791.905,603.023Z" transform="translate(-613.904 -465.975)"></path><path d="M1837.984,187.946c-.852,2.8-3.082,2.624-4.8,1.1-.407-.361-.964-.548-1.385-.9a2.085,2.085,0,0,1-.652-.962c-.031-.108.482-.413.777-.569a6.749,6.749,0,0,0,1.55-.76c.961-.918,2.037-1.39,3.235-.768A2.517,2.517,0,0,1,1837.984,187.946Z" transform="translate(-1424.701 -113.789)"></path><path d="M1824.6,871.4a9.542,9.542,0,0,1-.235,1.674,1.871,1.871,0,0,1-3.229.921,4.917,4.917,0,0,0-2.471-1.282c-.271-.07-.484-.369-.724-.563.264-.25.547-.73.788-.71a2.334,2.334,0,0,0,2.292-1.187,2.694,2.694,0,0,1,3.137-.37C1824.478,870.155,1824.465,870.813,1824.6,871.4Z" transform="translate(-1414.426 -676.535)"></path><path d="M1689.385,880.809c1.441,0,2.771-.008,4.1.007a1.567,1.567,0,0,1,.813.162,10.075,10.075,0,0,1,1.079.943,6.417,6.417,0,0,1-1.307.427c-1.745.185-3.5.319-5.246.452a1.532,1.532,0,0,1-.944-.1,6.461,6.461,0,0,1-.938-1.127,7.029,7.029,0,0,1,1.231-.742A4,4,0,0,1,1689.385,880.809Z" transform="translate(-1312.504 -685.274)"></path><path d="M1747.7,193.5c.218.263.38.471.542.679a3.63,3.63,0,0,1-.773.255c-1.7.165-3.4.307-5.107.451-.651.055-1.3.005-1.359-.824-.052-.736.467-.848,1.116-.979A10.33,10.33,0,0,1,1747.7,193.5Z" transform="translate(-1354.561 -120.063)"></path><path d="M1744.928,880.921a8.353,8.353,0,0,1-2.108.692,30.678,30.678,0,0,1-3.872,0c-.29-.013-.827-.42-.8-.532.108-.431.39-1.158.624-1.164,1.973-.056,3.974-.266,5.891.427C1744.814,880.4,1744.88,880.687,1744.928,880.921Z" transform="translate(-1352.343 -684.553)"></path><path d="M1788.52,195.4c-.518-.219-1.262-.437-1.262-.655a.878.878,0,0,1,1.02-.922c1.708.074,3.424-.021,5.132.064.307.015.588.563.881.865a3.429,3.429,0,0,1-.989.409C1791.747,195.277,1790.188,195.329,1788.52,195.4Z" transform="translate(-1390.552 -120.803)"></path><path d="M1785.162,877.937a7.741,7.741,0,0,1,.888,1.1c-.327.225-.637.607-.985.646-1.292.145-2.6.173-3.9.252-.64.039-1.189-.211-1.058-.87a1.477,1.477,0,0,1,1.046-.869C1782.441,878.021,1783.75,878.01,1785.162,877.937Z" transform="translate(-1384.975 -683.067)"></path><path d="M1696.557,196.857a6.174,6.174,0,0,1-1.652-.037,1.25,1.25,0,0,1-.738-.848c-.035-.266.38-.848.6-.849,1.522,0,3.047.076,4.564.208.276.024.521.41.78.629a3.673,3.673,0,0,1-.854.44C1698.4,196.586,1697.531,196.709,1696.557,196.857Z" transform="translate(-1318.123 -121.812)"></path><path d="M1230.791,692.815a9.744,9.744,0,0,0-.213,1.24c-.013,7.1.01,14.2-.02,21.3-.01,2.485-.209,4.97-.187,7.453a39.875,39.875,0,0,0,.433,4.919,5.57,5.57,0,0,1-3.047,5.69,12.782,12.782,0,0,1-4.877,1.359c-6.844.8-13.712.271-20.568.431-3.039.071-6.084.065-9.117.243-3.4.2-6.784.571-10.175.863-.257.022-.517,0-.777,0-6.1,0-12.206.025-18.309-.01-3.409-.019-6.82-.1-10.227-.222-2.826-.1-5.648-.291-8.472-.432-1.707-.085-3.416-.135-5.123-.227-2.491-.135-4.982-.294-7.473-.44a23.633,23.633,0,0,1-3.825-.249c-2.67-.607-3.8-2-4.122-4.692-.305-2.577-.618-5.152-.88-7.733-.131-1.3-.2-2.6-.224-3.9q-.138-7.776-.217-15.554a27.13,27.13,0,0,1,.224-3.568,9.63,9.63,0,0,0-.769-4.239,2.85,2.85,0,0,1-.13-.722c-.154-2.86-.369-5.72-.433-8.582-.125-5.59-.214-11.183-.212-16.774,0-2.343.236-4.689.428-7.028.261-3.172.607-6.337.869-9.51a44.94,44.94,0,0,0,.213-4.789,5.973,5.973,0,0,1,5.584-6.324c2.8-.314,5.6-.628,8.4-.879,1.591-.143,3.192-.206,4.79-.226,7.367-.092,14.734-.195,22.1-.215,4.075-.011,8.15.136,12.225.206,4.593.078,9.186.142,13.778.225,3.409.062,6.82.115,10.228.228,3.195.106,6.388.274,9.581.439,2.455.127,4.908.285,7.362.442q3.238.207,6.474.443a6.437,6.437,0,0,1,6.067,5.751c.984,5.883.557,11.8.615,17.7.019,1.971-.332,3.944-.389,5.92-.024.858.39,1.725.4,2.589.037,6.25.02,12.5.02,18.863m-2-40.952c-.148-1.381-.191-2.784-.466-4.14-.549-2.7-1.771-3.516-4.711-3.726-2.073-.148-4.156-.135-6.232-.244-2.2-.115-4.389-.308-6.586-.432q-4.456-.251-8.916-.445-3.171-.141-6.345-.223c-3.187-.086-6.375-.151-9.563-.225-3.151-.074-6.3-.139-9.452-.225-2.041-.056-4.081-.176-6.123-.212-5.222-.093-10.444-.173-15.666-.215-1.375-.011-2.749.171-4.125.2-4.075.093-8.151.188-12.226.218a44.977,44.977,0,0,0-9.53,1.11,3.9,3.9,0,0,0-2.838,5.71,2.354,2.354,0,0,1,.221,1.013c-.057,3.632-.148,7.263-.208,10.895-.084,5.037-.163,10.074-.2,15.112a1.263,1.263,0,0,0,.624.979,5.491,5.491,0,0,0,1.891.252c5.74-.055,11.48-.208,17.22-.2,11.585.024,23.169.153,34.754.194,3.15.011,6.3-.161,9.452-.2q10-.137,19.994-.215c1.412-.01,2.823.186,4.236.2,3.255.032,6.51-.006,9.766.02a28.388,28.388,0,0,1,2.9.219c1.048.117,1.477-.223,1.451-1.318-.056-2.374-.144-4.748-.216-7.122a4.478,4.478,0,0,1,.7-3.266,1.029,1.029,0,0,0,.185-.583c.086-1.966.218-3.934.213-5.9-.005-2.337-.132-4.674-.206-7.232m-103.324,34.071a1.667,1.667,0,0,0-.106.4c-.079,5.555-.164,11.109-.221,16.664-.029,2.737-.005,5.474-.005,8.211,0,2.094,0,2.094,1.977,2.029q3.339-.111,6.677-.221c2.374-.076,4.747-.166,7.121-.219,4.038-.089,8.076-.224,12.114-.212q17.32.052,34.64.214c4.482.036,8.964.148,13.446.214,5.517.081,11.035.164,16.553.218,3.181.031,6.363-.031,9.542.028.944.018,1.177-.274,1.162-1.183q-.163-9.385-.228-18.772c-.011-1.6.2-3.194.194-4.79-.016-2.559-.14-5.117-.2-7.676-.026-1.077-.463-1.595-1.559-1.549-2.64.109-5.278.282-7.917.432-2.6.147-5.2.413-7.805.419-5.036.011-10.073-.131-15.11-.2q-9.608-.123-19.216-.22-15.211-.131-30.423-.219c-6.436-.032-12.872,0-19.308-.016-.895,0-1.243.34-1.223,1.232.038,1.7.011,3.4-.1,5.215m82.126,47.5c2.188-.074,4.377-.213,6.565-.206a34.24,34.24,0,0,0,8.5-.929c1.25-.315,2.735-.6,3.576-1.439a8.339,8.339,0,0,0,2.3-5.541c.135-2.878.01-5.768.05-8.651.011-.771-.22-1-1-1.008q-7.443-.061-14.885-.21c-2.226-.041-4.45-.139-6.675-.217-1.967-.069-3.932-.174-5.9-.215-4.333-.092-8.666-.226-13-.214q-20.368.056-40.734.217c-1.93.013-3.858.147-5.788.212-2.447.082-4.894.148-7.341.225-2.262.071-4.524.171-6.787.209-.862.015-1.169.4-1.128,1.21.085,1.67.2,3.34.215,5.011a36.258,36.258,0,0,0,1.1,8.752c.531,2.068.718,2.284,2.721,2.131a2.829,2.829,0,0,1,.443,0c1.788.146,3.574.319,5.364.437,2.6.171,5.2.329,7.8.442,2.52.11,5.042.209,7.563.214,2.151,0,4.3-.152,6.454-.2,3.926-.09,7.853-.14,11.779-.232,1.671-.039,3.341-.156,5.012-.213,2.557-.087,5.117-.245,7.673-.2,3.638.06,7.273.349,10.911.4,4.991.074,9.985.018,15.2.018m-84.235-58.043c.074.708.146,1.417.224,2.124a3.936,3.936,0,0,0,.087.407c.118-.121.306-.225.342-.367a5.193,5.193,0,0,0,.222-1.345c-.043-1.78-.129-3.56-.22-5.338-.008-.162-.16-.317-.246-.474a2.194,2.194,0,0,0-.181.542c-.087,1.409-.155,2.82-.229,4.452m.444,6.659c.074-1.149.151-2.3.214-3.447,0-.068-.112-.144-.172-.216-.088.081-.253.164-.252.244A29.132,29.132,0,0,0,1123.8,682.05Z" transform="translate(-872.998 -497.945)"></path><path d="M1152.881,1133.358c-5.036.074-9.962.136-14.887.228-2.115.04-4.234.263-6.342.181a12.813,12.813,0,0,1-5.776-1.294,10.1,10.1,0,0,1-4.681-5.809c-1.391-4.08-.161-7.673,2.93-10.572a9.17,9.17,0,0,1,6.635-2.748c4.183.068,8.371-.112,12.557-.184,4.408-.076,8.815-.17,13.223-.218,8.291-.09,16.6-.505,24.87-.145,12.815.558,25.624.174,38.433.38,1.2.019,2.39.316,3.59.414a12.878,12.878,0,0,1,2.466.054,13.368,13.368,0,0,1,3.664,1.568,9.521,9.521,0,0,1,4.1,5.135,6.97,6.97,0,0,1-1.581,6.9,18.845,18.845,0,0,1-6.795,5.256,9.374,9.374,0,0,1-3.2.815c-6.181.147-12.365.176-18.548.266-.969.014-1.936.209-2.9.2q-12.6-.083-25.207-.212c-7.478-.069-14.955-.147-22.544-.221m-23.861-16.2a18.62,18.62,0,0,0-2.975,2.367,6.74,6.74,0,0,0,1.812,9.935,16.639,16.639,0,0,0,4.274,1.441,13.741,13.741,0,0,0,3.6.646c2.751-.024,5.5-.274,8.25-.4,2.224-.1,4.451-.226,6.677-.214,6.221.034,12.441.125,18.661.212,3.965.055,7.929.217,11.893.205q19.04-.057,38.08-.217c1.265-.009,2.529-.131,3.792-.222a1.246,1.246,0,0,0,.571-.219c2.115-1.418,4.406-2.616,6.077-4.61.978-1.167,1.982-2.472,1.682-4.048-.656-3.44-4.694-6.288-7.782-6.405-4.552-.172-9.111-.188-13.667-.242-2.638-.031-5.278.012-7.917-.009-8-.065-15.992-.187-23.988-.2-4.926-.01-9.852.122-14.778.21-2.966.053-5.93.172-8.9.212-6.812.092-13.624.19-20.437.2A7.228,7.228,0,0,0,1129.02,1117.155Z" transform="translate(-871.888 -865.685)"></path><path d="M1491.777,1259.248a7.844,7.844,0,0,1,1.33,5.254c-.082.793-1.007,1.277-1.861,1.334-1.885.125-3.775.2-5.663.2a1.466,1.466,0,0,1-.992-.693,8.058,8.058,0,0,1-.729-4.776,1.01,1.01,0,0,1,.471-.693,4.288,4.288,0,0,1,1.6-.643c1.843-.149,3.7-.188,5.545-.255.077,0,.16.138.3.268m-3.607,4.828h.884c2,0,2.336-.452,1.651-2.347-.134-.371-.515-.942-.765-.933a18.235,18.235,0,0,0-3.564.429c-.734.173-1.131,2.612-.6,3.118a.341.341,0,0,0,.231.112C1486.657,1264.337,1487.3,1264.2,1488.17,1264.076Z" transform="translate(-1154.461 -979.533)"></path><path d="M1152.3,1256.936c-.148,1.562-.238,3.022-.462,4.461a1.5,1.5,0,0,1-2.416.943,12.95,12.95,0,0,1-2.972-3.511,2.041,2.041,0,0,1,.411-2.717,63.731,63.731,0,0,1,5.22-3.678,1.181,1.181,0,0,1,1.08.219,1.018,1.018,0,0,1,.049.987c-1.133.854-.9,2.047-.91,3.3m-2.663-.777a.956.956,0,0,0-.172.112c-.513.517-1.708.6-1.3,1.7a8.486,8.486,0,0,0,1.22,1.907c.128.177.394.256.6.379.034-.206.082-.41.1-.617.08-.885.189-1.769.206-2.655C1150.294,1256.631,1150.662,1255.932,1149.641,1256.16Z" transform="translate(-891.732 -974.391)"></path><path d="M1313.789,1256a5.111,5.111,0,0,1,2.785-2.257.952.952,0,0,1,.844.042,18.1,18.1,0,0,1,2.789,2.818,3.04,3.04,0,0,1,.043,3.812,3.915,3.915,0,0,1-4.531.956c-2.12-.92-2.874-2.938-1.93-5.371m2.83,3.385a1.381,1.381,0,0,0,1.837-.827c.156-.327-.287-1.067-.633-1.473a8.43,8.43,0,0,0-1.486-1.14,5.2,5.2,0,0,0-1.008,1.538C1315.144,1258.341,1315.709,1258.943,1316.619,1259.389Z" transform="translate(-1021.864 -975.401)"></path><path d="M135.4,911.34c-2.485-.09-4.872-.021-7.229-.313-2.548-.316-4.864-1.423-5.694-4.783a29.682,29.682,0,0,1-.812-5.386c-.3-5.234-.534-10.476-.667-15.719-.071-2.806.112-5.623.2-8.433.051-1.628.04-3.273.24-4.876.387-3.1,1.14-6.019,3.4-7.981.53-.46.9-1.272,1.465-1.574a7.335,7.335,0,0,1,2.706-.825c2-.191,4.005-.236,6.01-.3,3.705-.109,7.411-.176,11.117-.278,2.707-.074,5.414-.172,8.121-.268q3.506-.125,7.011-.27c1.967-.082,3.934-.2,5.9-.265,5.45-.19,10.9-.432,16.352-.527,8.514-.15,17.03-.181,25.544-.294,2.633-.035,5.269-.316,7.9-.224,3.056.108,6.11.449,9.157.785,4.016.442,5.727,3.895,6.006,8.484.24,3.952.136,7.945.024,11.914-.1,3.446-.43,6.882-.636,10.325-.167,2.8-.2,5.622-.481,8.406-.2,2-.826,3.931-1.045,5.927a5.389,5.389,0,0,1-2.836,4.325,3.371,3.371,0,0,1-1.485.507c-2.187.138-4.377.266-6.566.278-6.449.035-12.9.012-19.349.012-4.513,0-9.027-.034-13.539.011-3.558.036-7.116.157-10.673.263-2.263.067-4.526.177-6.789.265q-3.505.137-7.011.271c-2.189.087-4.377.223-6.567.261-6.554.113-13.108.188-19.774.278m64.7-49.113c-1.856.09-3.711.227-5.568.261-6.073.113-12.146.174-18.218.285-2.818.052-5.636.158-8.453.267q-6.511.25-13.022.538c-1.782.077-3.563.192-5.346.265-2.521.1-5.043.179-7.565.274-2.226.084-4.452.179-6.677.268a1.389,1.389,0,0,0-.332,0c-4.861,1.442-8.146,5.058-9.693,10.811a40.769,40.769,0,0,0-1.113,6.986,47.338,47.338,0,0,0-.2,7.837c.313,3.9.956,7.765,1.519,11.632.148,1.015.277,2.336.836,2.9a13.264,13.264,0,0,0,4.079,2.926,12.218,12.218,0,0,0,4.343.6c4.518.147,9.038.228,13.557.274,1.411.014,2.823-.185,4.236-.249,2.373-.107,4.748-.179,7.121-.276q2.951-.122,5.9-.269c3.564-.176,7.126-.417,10.692-.524q7.332-.22,14.667-.273c7.472-.044,14.944-.021,22.416,0,.894,0,1.791.269,2.681.228.794-.037,1.575-.381,2.37-.5,2.013-.3,4.06-.381,6.041-.865a4.841,4.841,0,0,0,3.819-4.7c.183-2.86.482-5.71.645-8.571.2-3.474.3-6.956.458-10.434.06-1.358.2-2.713.21-4.071a99.789,99.789,0,0,0-.081-10.96c-.286-2.774-1.706-4.706-4.684-4.683-8.138.063-16.276.022-24.636.022M123.863,871a3.011,3.011,0,0,0-.205.831,6.185,6.185,0,0,0,.232,1.09,3.039,3.039,0,0,0,.613-.835,12.06,12.06,0,0,1,4.276-6.361c.18-.135.272-.444.4-.672-.231-.073-.492-.27-.688-.2a5.611,5.611,0,0,0-3.983,4.452C124.408,869.812,124.085,870.254,123.863,871Z" transform="translate(-94.132 -676.626)"></path><path d="M126.937,1125.588a8.189,8.189,0,0,1,.36-5.326,10.98,10.98,0,0,1,7.392-6.751,2.43,2.43,0,0,1,.612-.126c3.261-.081,6.522-.173,9.783-.223q8.775-.134,17.55-.223c8.328-.085,16.672-.507,24.981-.142,12.741.558,25.476.168,38.211.378,1.235.021,2.464.312,3.7.415a12.188,12.188,0,0,1,2.355.051,13.694,13.694,0,0,1,3.671,1.552,9.507,9.507,0,0,1,4.119,5.119,7.03,7.03,0,0,1-1.624,7,19.583,19.583,0,0,1-6.8,5.249,8.752,8.752,0,0,1-3.109.766c-6.034.142-12.07.171-18.1.263-1.265.019-2.528.21-3.792.2-8.291-.052-16.583-.137-24.874-.211-8.365-.074-16.73-.183-25.1-.207-4.112-.012-8.224.122-12.335.212-2.115.047-4.235.274-6.342.178a12.249,12.249,0,0,1-5.665-1.292,10.314,10.314,0,0,1-4.773-6.2c-.061-.2-.146-.383-.22-.685m31.408-9.988c-4.777.074-9.553.155-14.33.218-1.775.024-3.55.01-5.325,0-2.644-.01-4.533,1.652-6.295,3.21a5.986,5.986,0,0,0-1.724,5.033,6.4,6.4,0,0,0,2.954,5.228,17.789,17.789,0,0,0,4.752,1.607,12.4,12.4,0,0,0,3.38.644c2.75-.029,5.5-.275,8.248-.4,2.224-.1,4.45-.226,6.675-.214,6.219.034,12.438.125,18.656.212,4.037.056,8.074.217,12.111.205q18.758-.055,37.515-.217c1.375-.01,2.75-.132,4.123-.221a1.265,1.265,0,0,0,.571-.218c2.164-1.412,4.472-2.646,6.157-4.676.946-1.14,1.909-2.42,1.624-3.96-.632-3.423-4.659-6.306-7.759-6.424-4.772-.182-9.552-.188-14.329-.245-2.416-.029-4.833.011-7.249-.008-8.1-.066-16.209-.186-24.314-.2-4.813-.01-9.627.125-14.44.209C165.753,1115.442,162.16,1115.526,158.345,1115.6Z" transform="translate(-98.538 -865.683)"></path><path d="M492.757,1261.859c0-1.965.3-2.4,2.248-2.637a48.688,48.688,0,0,1,5-.238c1.166-.022,1.222,1.083,1.49,1.794a10.453,10.453,0,0,1,.558,2.867,1.9,1.9,0,0,1-1.811,2.189c-1.959.148-3.928.189-5.893.215-.243,0-.587-.311-.72-.564a5.6,5.6,0,0,1-.877-3.626m7.325,1.221c-.074-.264-.165-.524-.219-.792-.131-.654-.289-1.48-1.018-1.493a14.6,14.6,0,0,0-3.562.432c-.73.172-1.125,2.63-.579,3.115.065.057.251-.029.382-.039,1.036-.076,2.073-.21,3.109-.205A1.929,1.929,0,0,0,500.082,1263.08Z" transform="translate(-383.342 -979.536)"></path><path d="M160.043,1262.215a1.394,1.394,0,0,1-2.255-.16c-.918-1.086-1.8-2.2-2.668-3.33a1.745,1.745,0,0,1,.357-2.533,64.2,64.2,0,0,1,5.312-3.763c.233-.153.864.089,1.157.333.142.118.056.806-.148.991a2.842,2.842,0,0,0-.833,2.23c-.073,1.753-.256,3.5-.438,5.25a3,3,0,0,1-.483.982m-3.052-4.051c.413.635.814,1.278,1.256,1.891.043.06.492-.051.5-.106q.156-1.708.232-3.422c.007-.153-.127-.422-.245-.453C158.082,1255.9,156.777,1257.318,156.991,1258.164Z" transform="translate(-120.38 -974.398)"></path><path d="M322.19,1258.4a4.521,4.521,0,0,1,3.123-4.549c.292-.1.766-.158.941,0a17.5,17.5,0,0,1,2.792,2.814,3.048,3.048,0,0,1,.057,3.812,3.967,3.967,0,0,1-4.534.975,3.833,3.833,0,0,1-2.379-3.052m2.275-1.72a1.769,1.769,0,0,0,.59,2.577,1.412,1.412,0,0,0,1.9-.156c.686-.523.41-.982.066-1.5a7.977,7.977,0,0,0-.612-.96C325.841,1256.013,325.221,1255.674,324.465,1256.683Z" transform="translate(-250.675 -975.469)"></path><path d="M1562.936,1152.514c0-.924-.005-1.736,0-2.549a1.483,1.483,0,0,1,2.139-1.427c1.171.472,2.375.864,3.553,1.321a3.265,3.265,0,0,1,.976.574c.663.589.614,1.246-.181,1.622-1.511.715-3.035,1.42-4.606,1.982C1563.649,1154.456,1563.162,1153.636,1562.936,1152.514Z" transform="translate(-1216.02 -893.497)"></path><path d="M573.947,1149.712a6.643,6.643,0,0,1,1.547.8c.689.564.634,1.248-.146,1.631-1.439.707-2.9,1.389-4.388,1.977-1.207.475-2-.193-2.107-1.723a22.662,22.662,0,0,1,0-2.658,1.417,1.417,0,0,1,1.9-1.14C571.77,1148.994,572.807,1149.342,573.947,1149.712Z" transform="translate(-442.557 -893.58)"></path><g transform="translate(232.492 221.852)"><ellipse class="a" cx="7.173" cy="7.173" rx="7.173" ry="7.173" transform="translate(0 0)"></ellipse></g><g transform="translate(9.492 221.852)"><ellipse class="a" cx="7.173" cy="7.173" rx="7.173" ry="7.173" transform="translate(0 0)"></ellipse></g><path class="b" d="M405.958,412.577c-.272.908.171,1.815,1.109,1.452a7.058,7.058,0,0,0-.726,2.652s0,.685.5.857c0,0,.706.171.554-.454a3.018,3.018,0,0,1-.091-1.2,12.241,12.241,0,0,1,.776-2.44s1.079-2.251,1.7-3.3c0,0,.262-.535-.272-.535a.524.524,0,0,0-.414.209l-1.523,2.713c-.232.424-.454.555-.625.555-.383,0-.3-.615-.242-.838a9.007,9.007,0,0,1,.806-2.179c.273-.595-.272-.645-.272-.645-.343-.091-.6.471-.6.471l-.605,1.23a21.5,21.5,0,0,1-1.291,1.977s-.081.1-.141.061a.157.157,0,0,1-.03-.151,16.182,16.182,0,0,1,.5-2.481.684.684,0,0,0,.02-.141.4.4,0,0,0-.091-.3.352.352,0,0,0-.282-.141c-.272-.03-.4.1-.646.393-.535.656-1.16,1.644-1.462,2.088-.03.052-.091.04-.091-.03,0-.2.706-2.38.706-2.38s.081-.3-.161-.4a.489.489,0,0,0-.676.221l-1.452,1.977c-.111.151-.171.1-.171.1v-.131l.232-1.291c.181-.988-.162-1.039-.383-1.079a.9.9,0,0,0-.474.141c-.453.222-.8,1.119-.8,1.119s-.1.323.121.454a.38.38,0,0,0,.232.06c.323-.02.383-.615.615-.615.04,0,.04.052.04.061l-.747,3.137a.437.437,0,0,0,.182.474.454.454,0,0,0,.323.052.475.475,0,0,0,.252-.192l.272-.424a9.748,9.748,0,0,1,1.19-1.694c.03,0,.04,0,.04.03l-.272,1.846a.379.379,0,0,0,.209.4.517.517,0,0,0,.423-.03,1.435,1.435,0,0,0,.373-.443c.151-.242.878-1.1,1.321-1.885.03-.052.061,0,.052.03a15.883,15.883,0,0,0-.172,1.785.512.512,0,0,0,.4.595A.758.758,0,0,0,404.9,414" transform="translate(-164.926 -183)"></path><path class="b" d="M405.958,412.577c-.272.908.171,1.815,1.109,1.452a7.058,7.058,0,0,0-.726,2.652s0,.685.5.857c0,0,.706.171.554-.454a3.018,3.018,0,0,1-.091-1.2,12.241,12.241,0,0,1,.776-2.44s1.079-2.251,1.7-3.3c0,0,.262-.535-.272-.535a.524.524,0,0,0-.414.209l-1.523,2.713c-.232.424-.454.555-.625.555-.383,0-.3-.615-.242-.838a9.007,9.007,0,0,1,.806-2.179c.273-.595-.272-.645-.272-.645-.343-.091-.6.471-.6.471l-.605,1.23a21.5,21.5,0,0,1-1.291,1.977s-.081.1-.141.061a.157.157,0,0,1-.03-.151,16.182,16.182,0,0,1,.5-2.481.684.684,0,0,0,.02-.141.4.4,0,0,0-.091-.3.352.352,0,0,0-.282-.141c-.272-.03-.4.1-.646.393-.535.656-1.16,1.644-1.462,2.088-.03.052-.091.04-.091-.03,0-.2.706-2.38.706-2.38s.081-.3-.161-.4a.489.489,0,0,0-.676.221l-1.452,1.977c-.111.151-.171.1-.171.1v-.131l.232-1.291c.181-.988-.162-1.039-.383-1.079a.9.9,0,0,0-.474.141c-.453.222-.8,1.119-.8,1.119s-.1.323.121.454a.38.38,0,0,0,.232.06c.323-.02.383-.615.615-.615.04,0,.04.052.04.061l-.747,3.137a.437.437,0,0,0,.182.474.454.454,0,0,0,.323.052.475.475,0,0,0,.252-.192l.272-.424a9.748,9.748,0,0,1,1.19-1.694c.03,0,.04,0,.04.03l-.272,1.846a.379.379,0,0,0,.209.4.517.517,0,0,0,.423-.03,1.435,1.435,0,0,0,.373-.443c.151-.242.878-1.1,1.321-1.885.03-.052.061,0,.052.03a15.883,15.883,0,0,0-.172,1.785.512.512,0,0,0,.4.595A.758.758,0,0,0,404.9,414" transform="translate(-387.926 -183)"></path></g><g transform="translate(550.296 162)"><circle class="a" cx="13.7" cy="13.7" r="13.7" transform="translate(488.48 102.85)"></circle><path class="b" d="M504.789,117.605c-.52,1.734.327,3.467,2.118,2.774a13.481,13.481,0,0,0-1.386,5.066s0,1.309.963,1.637c0,0,1.348.327,1.059-.867a5.765,5.765,0,0,1-.173-2.292,23.382,23.382,0,0,1,1.483-4.661s2.061-4.3,3.255-6.3c0,0,.5-1.021-.52-1.021a1,1,0,0,0-.789.4l-2.909,5.181c-.443.809-.867,1.06-1.194,1.06-.732,0-.578-1.175-.462-1.6a17.2,17.2,0,0,1,1.54-4.161c.521-1.136-.52-1.232-.52-1.232-.655-.174-1.155.9-1.155.9l-1.156,2.35a40.819,40.819,0,0,1-2.465,3.775s-.155.193-.27.116a.3.3,0,0,1-.058-.289,30.909,30.909,0,0,1,.963-4.739,1.315,1.315,0,0,0,.039-.269.77.77,0,0,0-.174-.578.673.673,0,0,0-.539-.27c-.52-.058-.771.193-1.233.751-1.021,1.252-2.215,3.14-2.793,3.988-.057.1-.173.077-.173-.058,0-.386,1.348-4.546,1.348-4.546s.154-.578-.308-.77a.934.934,0,0,0-1.291.423l-2.773,3.776c-.212.289-.327.192-.327.192v-.25l.443-2.466c.346-1.887-.309-1.984-.732-2.061a1.717,1.717,0,0,0-.906.27c-.866.424-1.521,2.138-1.521,2.138s-.193.617.231.867a.726.726,0,0,0,.443.115c.616-.038.732-1.175,1.175-1.175.077,0,.077.1.077.116l-1.426,5.991a.834.834,0,0,0,.347.9.867.867,0,0,0,.617.1.907.907,0,0,0,.481-.366l.52-.809a18.618,18.618,0,0,1,2.273-3.236c.058,0,.077,0,.077.058l-.52,3.525a.724.724,0,0,0,.4.77.987.987,0,0,0,.808-.058,2.741,2.741,0,0,0,.713-.847c.289-.462,1.676-2.1,2.523-3.6.058-.1.116,0,.1.058a30.322,30.322,0,0,0-.328,3.409.977.977,0,0,0,.771,1.136,1.447,1.447,0,0,0,1.31-.616"></path></g><g transform="translate(550.296 162)"><path class="c" d="M519.582,123.871h-.034a.336.336,0,0,0-.175.08l-.005.006a12.577,12.577,0,0,1-1.562.9,7.824,7.824,0,0,1-3.26.9h-.336l-.046,4.812a6.557,6.557,0,0,0,2.6,5.218,9.556,9.556,0,0,0,2.611,1.506l.1.036.106-.034a9.539,9.539,0,0,0,2.639-1.455,6.554,6.554,0,0,0,2.7-5.167l.047-4.812h-.338a7.817,7.817,0,0,1-3.24-.967,12.177,12.177,0,0,1-1.554-.938.334.334,0,0,0-.178-.083h-.072Z"></path><path class="c" d="M519.573,127.235a3.36,3.36,0,0,1,3.328,3.392h0a3.361,3.361,0,0,1-3.393,3.328h0a3.361,3.361,0,0,1-3.328-3.393h0a3.36,3.36,0,0,1,3.393-3.327Z"></path><circle class="b" cx="3.353" cy="3.353" r="3.353" transform="translate(516.188 127.242)"></circle><path class="c" d="M521.391,128.924a.5.5,0,0,0-.349.148l-2.013,1.978-.981-1a.505.505,0,0,0-.729.7l.01.011,1.332,1.358a.506.506,0,0,0,.712.007l2.374-2.332a.5.5,0,0,0-.356-.867Z"></path></g><path d="M16.367,381.165a2.79,2.79,0,0,1-.606,1.352,8.27,8.27,0,0,1-1.308,1.627A7.312,7.312,0,0,1,11,386.083a10.144,10.144,0,0,1-2.428.3,9.4,9.4,0,0,1-5.2-1.669A7.62,7.62,0,0,1,.23,380.293a7.836,7.836,0,0,1-.078-3.427,9.851,9.851,0,0,1,1.429-3.679,7.277,7.277,0,0,1,4.485-3.106,13.359,13.359,0,0,1,2.423-.13c.284-.021.552.01.744-.278.233-.349.637-.242.92-.175a7.154,7.154,0,0,1,3.2,1.441,17.4,17.4,0,0,1,1.362,1.36,9.5,9.5,0,0,1,1.458,2.5,8.842,8.842,0,0,1,.608,4.4,11.661,11.661,0,0,1-.412,1.974M1.42,380.427a8.242,8.242,0,0,0,.633,1.364,7.624,7.624,0,0,0,3.79,2.944,10.351,10.351,0,0,0,3.468.429,5.881,5.881,0,0,0,2.914-.827,5.386,5.386,0,0,0,2.023-1.833,6.305,6.305,0,0,0,1.169-3.482,15.676,15.676,0,0,0-.364-2.736,7.763,7.763,0,0,0-.959-2.47,7.093,7.093,0,0,0-2.418-2.378c-.295-.185-.618-.449-1.008-.122a.422.422,0,0,1-.355-.019,5.537,5.537,0,0,0-3.581-.444,6.592,6.592,0,0,0-3.22,1.6,7.742,7.742,0,0,0-2.234,3.8,9.066,9.066,0,0,0-.306,1.964,6.369,6.369,0,0,0,.183,1.47C1.193,379.89,1.329,380.077,1.42,380.427Z" transform="translate(986.792 65.605)"></path><text class="d" transform="translate(1012 374.683)"><tspan x="0" y="0">Hi, Jake</tspan></text><text class="d" transform="translate(791 415.683)"><tspan x="0" y="0">Hi, Jake</tspan></text><text class="d" transform="translate(1012 385.683)"><tspan x="0" y="0">Thanks for booking with us!</tspan></text><text class="d" transform="translate(791 426.683)"><tspan x="0" y="0">Thanks for booking with us!</tspan></text><text class="e" transform="translate(1014 416.808)"><tspan x="0" y="0">Review booking</tspan></text><text class="f" transform="translate(1014 443.071)"><tspan x="0" y="0">makemytrip.com/booking</tspan></text><text class="g" transform="translate(1174 291.071)"><tspan x="0" y="0">Verified badge</tspan></text><text class="h" transform="translate(787 568.071)"><tspan x="0" y="0">Regular SMS</tspan></text><text class="h" transform="translate(1007 568.071)"><tspan x="0" y="0">Verified SMS</tspan></text><text class="g" transform="translate(1173.676 413.071)"><tspan x="0" y="0">Link preview</tspan></text><text class="i" transform="translate(791 439.071)"><tspan x="0" y="0">makemytrip.com/booking</tspan></text></g></g></svg>