<svg xmlns="http://www.w3.org/2000/svg" width="179.563" height="199.308" viewBox="0 0 179.563 199.308"><g id="Group_17694" data-name="Group 17694" transform="translate(-171.656 -1464.692)"><path id="Path_28041" data-name="Path 28041" d="M4067.021-421.191a40.387,40.387,0,0,1-10.929-24.973c-1.015-15.573-4.866-38.745,13.99-56.054s25.8-20.543,25.8-20.543,30.629-1.812,48,4.939,25.881,15.6,25.881,15.6l16.642,34.756s-37.319.575-14.152,38.685c-14.381,8.294-11.231,4.922-11.231,4.922l-9.569,10.252-2.66,9.987v15.634l-4.911,2.69-16.665,1.493-20.25-4.182-21.714-12.707Z" transform="translate(-3863 2009)" fill="#25d266"></path><path id="Path_28042" data-name="Path 28042" d="M4087.3-494.631c1.414-1.97,20.611-12.138,20.611-12.138l3.223,1.642,11.19,18.8-6.775,5.55-4.415,4.807s-.262,35.611,20.006,39.805,18.454-2.9,18.454-2.9h1.856l9.73,14.858s-11.6,9.836-12.625,19.34c-7.653,1.316-16.081-5.435-16.081-5.435s-29.767-20.575-39.432-45.3S4085.884-492.66,4087.3-494.631Z" transform="translate(-3863 2009)" fill="#fff"></path><path id="Familiar_Platform" data-name="Familiar Platform" d="M4.667,157.439c.511-1.555,1-3.055,1.538-4.534.974-2.66,2-5.3,2.971-7.961q1.726-4.744,3.369-9.519a1.318,1.318,0,0,0-.226-.9,55.766,55.766,0,0,1-3.7-7.79c-.885-2.356-1.911-4.666-2.673-7.06-.883-2.774-1.578-5.61-2.29-8.436-.449-1.782-.82-3.587-1.148-5.4-.275-1.518-.46-3.053-.646-4.585-.235-1.931-.439-3.865-.641-5.8-.141-1.35-.279-2.7-.38-4.054-.11-1.474-.183-2.95-.259-4.426-.055-1.067-.157-2.138-.115-3.2.072-1.843.193-3.687.38-5.522.2-1.943.447-3.884.767-5.81q.552-3.325,1.278-6.62a21.127,21.127,0,0,1,1.939-5.513,12.659,12.659,0,0,1,1-1.624,1.391,1.391,0,0,1,.831-.548c.444-.045.554-.253.7-.61.807-2.027,1.609-4.058,2.489-6.054.953-2.16,1.932-4.313,3.009-6.412a52.361,52.361,0,0,1,2.772-4.723c1.451-2.221,2.962-4.4,4.514-6.555a34.571,34.571,0,0,1,2.612-3.131c2.006-2.182,3.995-4.385,6.1-6.465,1.684-1.66,3.514-3.175,5.32-4.706s3.66-3.046,5.537-4.511c1.32-1.03,2.7-1.991,4.079-2.938,1.752-1.2,3.54-2.346,5.3-3.529a28.219,28.219,0,0,1,5.492-2.924,3.047,3.047,0,0,1,1.267-.3,4.634,4.634,0,0,0,2.311-.614A51.633,51.633,0,0,1,67.161,1.58,47.1,47.1,0,0,1,71.817.8c1.562-.214,3.131-.42,4.7-.5,2.643-.142,5.29-.2,7.937-.266,1.148-.03,2.3-.049,3.446,0,2.013.093,4.026.206,6.033.385,1.747.156,3.5.338,5.223.644,2.482.44,4.976.878,7.4,1.545,3.271.9,6.5,1.955,9.711,3.055a59.392,59.392,0,0,1,5.56,2.291q3.408,1.569,6.731,3.319c1.84.97,3.642,2.02,5.411,3.115,1.737,1.075,3.438,2.212,5.1,3.394a46.184,46.184,0,0,1,4.2,3.247c2.441,2.194,4.836,4.445,7.151,6.772a54.936,54.936,0,0,1,3.89,4.51c1.727,2.162,3.427,4.349,5.049,6.591a45.583,45.583,0,0,1,2.694,4.307c.7,1.232,1.2,2.572,1.9,3.805.8,1.422,1.775,2.748,2.573,4.173,1.323,2.36,2.676,4.715,3.813,7.166a77.67,77.67,0,0,1,3.19,7.93c1.151,3.427,2.122,6.918,3.07,10.409a45.023,45.023,0,0,1,.91,4.858c.3,1.888.62,3.78.751,5.683.182,2.639.28,5.291.251,7.935-.021,1.889-.305,3.775-.484,5.661q-.174,1.837-.384,3.671c-.11.949-.269,1.893-.369,2.843a7.746,7.746,0,0,0,.111.84,30.049,30.049,0,0,1-.015,3.275,25.6,25.6,0,0,1-.671,4.188c-.522,1.938-1.192,3.841-1.888,5.726a12.7,12.7,0,0,1-1.257,2.284.751.751,0,0,0-.068.848,40.342,40.342,0,0,1,2.082,4.623,56.4,56.4,0,0,1,1.549,6.188c.351,1.7.558,3.441.776,5.17.172,1.367.282,2.743.388,4.117.145,1.882.262,3.766.387,5.65.089,1.348.178,2.7.254,4.043.092,1.624.19,3.248.253,4.873.1,2.581.177,5.164.258,7.746.049,1.557.122,3.114.12,4.671,0,1.812-.07,3.625-.121,5.437q-.045,1.6-.128,3.2c-.074,1.412-.111,2.83-.265,4.234a26.629,26.629,0,0,1-1.283,6.87,12.493,12.493,0,0,1-1.4,2.543c-.512.738-1.436.891-2.217,1.241-.881.395-1.725.87-2.59,1.3a19.4,19.4,0,0,1-5.262,1.631c-1.365.243-2.72.541-4.089.752a21.46,21.46,0,0,1-2.829.257q-7.734.157-15.469.256c-1.407.017-2.817-.059-4.224-.124-1.328-.061-2.656-.136-3.979-.258-1.486-.137-2.968-.316-4.448-.507-1.833-.237-3.69-.382-5.485-.793a69.106,69.106,0,0,1-6.664-1.935,21.722,21.722,0,0,1-2.657-1.442,1.007,1.007,0,0,0-.809.018,1.306,1.306,0,0,1-1.826-.467,4.75,4.75,0,0,1-.646-2.163c-.132-1.762-.338-3.519-.5-5.279-.1-1.155-.17-2.313-.261-3.468a7.636,7.636,0,0,0-.136-1.158c-.094-.4-.368-.346-.67-.187a14.653,14.653,0,0,1-4.17,1.488c-.954.177-1.914.34-2.878.447-1.778.2-3.56.348-5.341.518-.063.006-.128,0-.191,0-2.046.042-4.093.113-6.139.118-1.514,0-3.03-.045-4.543-.127-1.715-.092-3.432-.2-5.138-.389s-3.407-.5-5.11-.752c-1.163-.173-2.332-.313-3.49-.518q-2.639-.466-5.264-1-2.963-.611-5.912-1.29a53.26,53.26,0,0,1-8.871-2.775c-1.956-.827-3.914-1.664-5.8-2.635a32.2,32.2,0,0,1-3.46-2.282,1.677,1.677,0,0,0-1.606-.253q-2.379.809-4.771,1.582c-3.567,1.15-7.133,2.3-10.709,3.424q-3.226,1.01-6.484,1.915c-2.54.709-5.087,1.4-7.644,2.039-1.569.395-3.177.635-4.74,1.05-1.157.307-2.242.9-3.405,1.161-1.829.412-3.625.335-4.977-1.253a4.1,4.1,0,0,1-.91-2.114c-.272-1.81.5-3.4.937-5.066a17.57,17.57,0,0,0,.351-1.962c.256-1.79.426-3.6.76-5.372.35-1.857.822-3.693,1.3-5.525.361-1.4.806-2.771,1.212-4.156a2.228,2.228,0,0,0,.056-.373m117.582-47.812a7.187,7.187,0,0,1,.633.78c1.5,2.463,3,4.926,4.463,7.408.272.459.514.513.989.314a24.62,24.62,0,0,1,5.637-1.805c.878-.138,1.13-.729.66-1.426a1.893,1.893,0,0,0-.155-.191,21.129,21.129,0,0,1-3.787-6.729,31.771,31.771,0,0,1-1.445-5.536,33.764,33.764,0,0,1-.58-6.251,46.222,46.222,0,0,1,.485-5.086,14.494,14.494,0,0,1,1.782-4.939,21.987,21.987,0,0,1,3.08-4.414,15.936,15.936,0,0,1,4.681-3.792,20.919,20.919,0,0,1,9.878-2.346c.614.006.813-.12.5-.724a8.193,8.193,0,0,1-.269-.909c-.464-1.233-.891-2.484-1.427-3.685-.843-1.886-1.885-3.691-2.625-5.615a75.99,75.99,0,0,0-4.634-10.209A68.123,68.123,0,0,0,135,46.062c-1.6-2.065-3.245-4.107-5.021-6.018a33.974,33.974,0,0,0-4.248-3.748A28.358,28.358,0,0,0,121.4,33.5c-2.046-1.042-4.185-1.911-6.317-2.772-2.589-1.046-5.2-2.029-7.823-3a44.149,44.149,0,0,0-7.377-1.912c-2.777-.51-5.565-.964-8.354-1.407-1.825-.29-3.657-.539-5.491-.766-1.628-.2-3.26-.38-4.9-.508s-3.247-.209-4.873-.253c-.9-.024-1.794.083-2.692.114-1.514.051-3.029.091-4.543.129-1.812.046-3.624.086-5.437.13a.928.928,0,0,0-.3.035c-1.67.643-3.379,1.2-5,1.956a58.31,58.31,0,0,0-8.883,5.382,78.112,78.112,0,0,0-7.871,6.4,47.129,47.129,0,0,0-6.578,7.409A62.55,62.55,0,0,0,29.443,53.9c-.757,1.6-1.458,3.226-2.12,4.866a92.677,92.677,0,0,0-3.15,8.976,67.037,67.037,0,0,0-2,9.76,42.65,42.65,0,0,0-.379,4.946c-.036,2.322.045,4.646.116,6.968.038,1.243.124,2.487.257,3.723.174,1.618.336,3.245.648,4.839a62.688,62.688,0,0,0,1.542,6.573c1.02,3.278,2.039,6.571,4.168,9.383,1.16,1.532,2.133,3.2,3.24,4.779,2.3,3.267,4.644,6.5,6.94,9.767a59.107,59.107,0,0,0,5.8,6.781c1.408,1.472,2.941,2.827,4.444,4.206a24.9,24.9,0,0,0,2.509,2.113q3.253,2.275,6.588,4.431a79.175,79.175,0,0,0,9.281,5.174,67.908,67.908,0,0,0,9.875,3.9c2.376.7,4.751,1.43,7.169,1.943,2.8.594,5.639,1.046,8.48,1.407a60.756,60.756,0,0,0,6.286.388,24.8,24.8,0,0,0,3.976-.253c1.709-.239,3.4-.607,5.095-.943a16.372,16.372,0,0,1,2.446-.528c.565-.022.628-.129.63-.629q.032-5.623.127-11.245a13.157,13.157,0,0,1,.252-2.063c.166-.934.017-1.2-.955-1.416a2.59,2.59,0,0,0-.722-.005,11.806,11.806,0,0,1-4.6-.762c-2.063-.7-4.054-1.611-6.076-2.432-2.095-.851-4.171-1.75-6.288-2.542a61.8,61.8,0,0,1-8.485-3.712A31.69,31.69,0,0,1,77.476,127c-2.23-2.231-4.358-4.564-6.508-6.874-.759-.816-1.485-1.667-2.164-2.55-1.1-1.428-2.137-2.9-3.214-4.346a69.189,69.189,0,0,1-5.5-8.767c-1.011-1.891-1.915-3.842-2.795-5.8a59.973,59.973,0,0,1-3.618-9.991c-.941-3.761-1.915-7.515-2.777-11.294-.6-2.64-1.121-5.306-1.523-7.983-.305-2.037-.388-4.109-.525-6.169a14.207,14.207,0,0,1,.115-1.861c.086-1.284.105-2.576.271-3.85.237-1.821.522-3.64.9-5.436a5.255,5.255,0,0,1,1.672-3.137c.989-.82,1.929-1.7,2.92-2.517a23.522,23.522,0,0,1,2.714-2.081c1.605-.97,3.28-1.826,4.944-2.7a38.214,38.214,0,0,0,5.669-3.284,33.29,33.29,0,0,1,4.052-2.533,2.464,2.464,0,0,1,3.123.465c1.133,1.392,2.457,2.651,3.438,4.14,1.869,2.838,3.56,5.793,5.31,8.709,1.2,1.992,2.359,4,3.55,6a8.128,8.128,0,0,0,1.7,2.237A1.761,1.761,0,0,1,88.8,60.22a4.039,4.039,0,0,0-.9.286c-1.615,1.151-3.194,2.353-4.812,3.5a3.021,3.021,0,0,1-2.192.895.8.8,0,0,0-.629.355c-.545,1-1.09,2.014-1.537,3.064-.816,1.916-.728,3.99-.881,6.01a27.093,27.093,0,0,0,.109,3.583c.109,1.884.206,3.771.393,5.649a27.965,27.965,0,0,0,.647,4.2,31.345,31.345,0,0,0,3.427,8.789c1.843,2.992,3.741,5.939,6.621,8.091a17.33,17.33,0,0,0,5.177,2.6c1.831.582,3.7,1.056,5.577,1.481a17.352,17.352,0,0,0,3.784.541,30.825,30.825,0,0,0,4.188-.486,3.1,3.1,0,0,0,1.906-1.113,4.68,4.68,0,0,1,1.011-.782q2.248-1.421,4.516-2.811a2.2,2.2,0,0,1,2.614-.01,20.56,20.56,0,0,1,1.747,1.953c.917,1.143,1.794,2.319,2.687,3.608M57.968,153.737c-.492-.279-1-.529-1.473-.843-2.369-1.582-4.792-3.093-7.07-4.8-2.431-1.821-4.806-3.736-7.044-5.786-2.018-1.848-3.855-3.9-5.7-5.926-1.358-1.491-2.623-3.069-3.889-4.64a56.358,56.358,0,0,1-5.556-8.612,49.223,49.223,0,0,1-3.673-8.692c-.616-1.958-1.1-3.968-1.863-5.868a46.857,46.857,0,0,1-2.455-8.361c-.42-2.129-.669-4.3-.9-6.457a46.647,46.647,0,0,1-.257-4.744c-.012-2.45.035-4.9.126-7.351.06-1.609.219-3.216.378-4.82.135-1.359.272-2.722.519-4.063.321-1.746.678-3.493,1.152-5.2q.949-3.422,2.116-6.782c.52-1.5,1.169-2.963,1.834-4.409.88-1.914,1.73-3.854,2.779-5.675,1.176-2.042,2.546-3.975,3.858-5.938a55.263,55.263,0,0,1,5.795-7.547c2.125-2.229,4.365-4.356,6.662-6.409,1.813-1.62,3.767-3.086,5.7-4.572a42.707,42.707,0,0,1,6.749-4.349,49.641,49.641,0,0,1,9.207-3.521A62.232,62.232,0,0,1,74.9,16.5c1.341-.146,2.7-.159,4.042-.272,1.162-.1,2.32-.252,3.48-.376,1.61-.173,3.217-.411,4.832-.49,1.318-.064,2.645.057,3.967.109a15.4,15.4,0,0,1,1.988.136c1.8.308,3.6.63,5.386,1.019a42.06,42.06,0,0,1,8.849,3.133,78.483,78.483,0,0,1,12.325,7.074q2.569,1.829,5.1,3.71c.87.647,1.709,1.338,2.54,2.036,1.472,1.235,2.964,2.45,4.377,3.751a32.549,32.549,0,0,1,2.358,2.59c1.049,1.2,2.156,2.357,3.1,3.635,1.758,2.38,3.493,4.785,5.1,7.272,1.689,2.62,3.341,5.279,4.776,8.042,2.159,4.157,4.119,8.418,6.157,12.639a16.087,16.087,0,0,1,1.932,5.268,1.074,1.074,0,0,0,.689.976,15.578,15.578,0,0,1,7.123,5.1,24.454,24.454,0,0,1,3.9,6.358,19.153,19.153,0,0,1,1.13,3.991c.243,1.687.207,3.414.295,5.123a2.88,2.88,0,0,0,.061.485,16.066,16.066,0,0,1,.728,5.925,14.12,14.12,0,0,1-1.419,4.335,25.154,25.154,0,0,1-5.094,6.76,11.513,11.513,0,0,0-.879.781c-.155.187-.322.449.175.607a11.811,11.811,0,0,1,2.216.958c1.419.8,2.8,1.664,4.192,2.519.567.349.825.279,1.044-.325a12.472,12.472,0,0,1,.558-1.364c.631-1.251,1.233-2.521,1.949-3.723.975-1.637.916-3.478,1.185-5.255.165-1.09.254-2.192.392-3.287.249-1.98.591-3.953.739-5.94.124-1.658.006-3.332.03-5a41.368,41.368,0,0,0-.384-6.48c-.188-1.31-.291-2.634-.527-3.935-.332-1.829-.683-3.661-1.152-5.459-.784-3.007-1.633-6-2.52-8.977-.539-1.812-1.141-3.609-1.819-5.373-.98-2.55-2.008-5.084-3.106-7.585-.641-1.46-1.446-2.85-2.2-4.26a35.461,35.461,0,0,0-1.773-3.155c-.939-1.394-1.985-2.717-3-4.06-1.578-2.093-3.143-4.2-4.757-6.262-1.164-1.49-2.379-2.941-3.608-4.378-1.5-1.751-2.975-3.526-4.57-5.186-1.574-1.638-3.23-3.207-4.947-4.693a62.451,62.451,0,0,0-5.668-4.5,67.014,67.014,0,0,0-9.1-5.587c-2.1-.986-4.164-2.068-6.267-3.055a60.908,60.908,0,0,0-8.856-3.272c-2.34-.683-4.7-1.314-7.058-1.914-1.7-.432-3.412-.856-5.143-1.136-1.7-.275-3.427-.4-5.147-.523-1.919-.132-3.843-.24-5.766-.252-2.557-.016-5.114.051-7.67.122-1.158.032-2.317.125-3.468.255-2,.226-4.012.443-6,.777A43.789,43.789,0,0,0,64.927,7a85.856,85.856,0,0,0-12.2,4.907,47.091,47.091,0,0,0-9.185,5.869c-2.238,1.748-4.481,3.491-6.68,5.287C35.052,24.54,33.217,26,31.55,27.634c-2.194,2.145-4.292,4.4-6.321,6.7-1.426,1.617-2.71,3.366-3.982,5.11a71.246,71.246,0,0,0-6,9.833c-.986,1.947-1.9,3.936-2.752,5.944-.917,2.152-1.8,4.322-2.565,6.532-.778,2.259-1.451,4.559-2.052,6.872C7.36,70.614,6.96,72.64,6.6,74.666c-.323,1.8-.526,3.616-.779,5.425a18.368,18.368,0,0,0-.242,1.937c-.022.684.078,1.37.1,2.057.025.726.384,1.478-.231,2.158a1.227,1.227,0,0,0-.255.776c.015,1.3.068,2.6.117,3.9q.051,1.346.129,2.692.043.741.127,1.479c.164,1.441.339,2.881.508,4.321.129,1.1.206,2.2.395,3.286.3,1.717.634,3.43,1.019,5.13.536,2.367,1.05,4.745,1.725,7.074.746,2.573,1.61,5.115,2.522,7.635.762,2.106,1.588,4.2,2.531,6.227,1.237,2.662,2.619,5.257,3.937,7.881a6.5,6.5,0,0,1,.739,1.539,16.551,16.551,0,0,1,.268,2.889,21.109,21.109,0,0,1-.141,3.581,41.485,41.485,0,0,1-1.112,5.024,85.812,85.812,0,0,1-3.675,9.838c-.964,2.26-1.816,4.567-2.772,6.831-.7,1.666-1.47,3.308-2.252,4.939-.733,1.528-1.439,3.081-2.318,4.524-.709,1.164-1.467,2.4-3.074,2.591-.133.016-.306.461-.29.7.011.171.092.5.572.326a21.039,21.039,0,0,1,3.121-.786,30.27,30.27,0,0,0,5.894-1.8c.82-.335,1.593-.873,2.561-.517a.928.928,0,0,0,.548-.045c.958-.3,1.905-.642,2.865-.939,2.943-.911,5.886-1.82,8.836-2.708,3.2-.962,6.4-1.92,9.611-2.84a24.817,24.817,0,0,1,8.485-1.241,1.626,1.626,0,0,1,.525.116c2.1.9,4.183,1.819,6.287,2.7a47.255,47.255,0,0,0,4.5,1.755c2.562.773,5.164,1.412,7.757,2.082,1.254.324,2.52.605,3.787.873,1.315.278,2.639.514,3.958.771,1.732.338,3.458.71,5.2,1.012,1.479.257,2.969.449,4.458.644,2.063.27,4.126.535,6.194.762,1.173.129,2.354.19,3.532.26,1.624.1,3.248.22,4.873.244,1.492.022,2.988-.037,4.478-.124,1.375-.08,2.746-.243,4.119-.374a16.7,16.7,0,0,0,5.007-1.163c1.039-.443,1.221-.352,1.161-1.6-.016-.324-.106-.645-.119-.969-.053-1.3-.092-2.6-.131-3.9-.045-1.472-.094-2.943-.126-4.415-.05-2.3-.107-4.6-.116-6.9,0-.586-.231-.495-.571-.319A16.89,16.89,0,0,1,108.9,161a23.778,23.778,0,0,1-7.01,1.391c-2.062.092-4.137-.005-6.2-.116-1.7-.091-3.4-.284-5.086-.507-1.5-.2-3-.426-4.468-.77-2.785-.651-5.546-1.4-8.322-2.091a1.035,1.035,0,0,0-.757.035,2.121,2.121,0,0,1-1.56.41c-.43-.037-.862-.064-1.287-.13-1.336-.21-2.694-.343-4-.68-1.755-.453-3.476-1.048-5.2-1.62a55.5,55.5,0,0,1-7.042-3.187m91.474,16.533c-.3.345-.6.7-.908,1.032-.747.8-1.473,1.623-2.265,2.376a1.46,1.46,0,0,1-2.036-.058,2.393,2.393,0,0,0-.443-.316,1.294,1.294,0,0,1-.766-1.023,2.517,2.517,0,0,0-.683-1.295c-1.209-1.24-2.463-2.437-3.731-3.617a1.62,1.62,0,0,1-.517-1.57c.228-1.215.54-2.413.8-3.622.417-1.935.819-3.874,1.229-5.81.356-1.682.678-3.372,1.083-5.042.585-2.411,1.256-4.8,1.846-7.211q.768-3.137,1.43-6.3c.376-1.811.669-3.639,1-5.458q.376-2.045.767-4.087a1.379,1.379,0,0,0-.238-1.394,48.234,48.234,0,0,1-4.51-5.973,11.528,11.528,0,0,0-2.078-1.988c-.436-.361-1.015-.546-1.477-.881-.59-.428-1.027-.42-1.4.17a3.355,3.355,0,0,1-1.751,1.328,64.964,64.964,0,0,0-6.161,2.528,19.8,19.8,0,0,0-6.568,5.095,22.047,22.047,0,0,0-3.09,4.915c-.677,1.548-1.238,3.147-1.816,4.736a29.5,29.5,0,0,0-1.545,6.952c-.182,1.686-.286,3.381-.387,5.074-.075,1.257-.133,2.518-.127,3.776q.037,7.346.122,14.691.047,4.633.129,9.266c.018,1.068.075,2.135.127,3.2.027.558.073,1.115.127,1.67.165,1.7.351,3.39.5,5.087.107,1.175.152,2.357.277,3.53a1,1,0,0,0,.44.69,40.429,40.429,0,0,0,3.853,1.786,25.366,25.366,0,0,0,5.665,1.432c2.051.263,4.089.634,6.143.872,1.7.2,3.423.3,5.138.389,1.6.083,3.2.135,4.8.128,3.344-.014,6.688-.07,10.032-.123,1.047-.017,2.094-.054,3.138-.129,2.08-.151,4.167-.257,6.232-.529,1.683-.221,3.338-.655,5.005-1a4.175,4.175,0,0,0,3.13-2.618,25.62,25.62,0,0,0,1.548-6.312c.194-1.406.3-2.827.387-4.244.083-1.32.092-2.645.137-3.968.039-1.153.068-2.306.132-3.457.065-1.179.14-2.358.257-3.532.142-1.422.327-2.839.506-4.257.249-1.98.545-3.955.754-5.939.18-1.707.283-3.424.389-5.138s.18-3.418.259-5.128c.091-1.964.246-3.93.233-5.894a35.4,35.4,0,0,0-.379-4.626,31.4,31.4,0,0,0-.825-3.867c-.433-1.6-.926-3.186-1.463-4.754a11.028,11.028,0,0,0-2.964-4.758,35.586,35.586,0,0,0-4.068-3.11c-1.787-1.185-3.682-2.207-5.5-3.352-.667-.42-1.261-.818-2.069-.38-.2.109-.485.058-.7.147a1.64,1.64,0,0,0-.759.45c-1.345,2.054-2.626,4.149-3.985,6.193a15.481,15.481,0,0,1-2.027,2.51,1.064,1.064,0,0,0-.364,1.006c.016.157.089.309.1.466.133,1.5.269,3,.383,4.5.139,1.84.258,3.681.386,5.522.042.6.056,1.2.133,1.8.2,1.51.412,3.017.635,4.523.16,1.079.328,2.157.526,3.229.276,1.5.591,2.99.873,4.487.231,1.226.373,2.473.671,3.682a23.382,23.382,0,0,1,.6,6.447,1.307,1.307,0,0,1-.094.279,5.458,5.458,0,0,1-1.713,3.123c-.056.043-.061.146-.106.208-.806,1.113-1.616,2.225-2.424,3.464M77.565,44.516c-.255-.447-.484-.911-.771-1.337C76,42,75.175,40.828,74.362,39.654a.869.869,0,0,0-1.084-.406,12.769,12.769,0,0,0-2.057,1.038c-1.28.84-2.489,1.786-3.768,2.628q-3.227,2.125-6.507,4.169c-2.38,1.484-4.793,2.916-7.177,4.395a1.528,1.528,0,0,0-.693.775,33.017,33.017,0,0,0-.768,4.02c-.179,1.678-.245,3.374-.26,5.062a20.771,20.771,0,0,0,.258,3.465c.209,1.3.557,2.57.877,3.845.619,2.465,1.2,4.943,1.911,7.381.592,2.02,1.284,4.018,2.059,5.975q1.856,4.687,3.9,9.3A44.31,44.31,0,0,0,63.3,95.6c1.1,1.894,2.188,3.8,3.44,5.593,1.8,2.576,3.686,5.1,5.637,7.559,1.806,2.28,3.656,4.539,5.651,6.653,2.113,2.239,4.391,4.325,6.65,6.422,1.563,1.452,3.182,2.849,4.836,4.2,1.831,1.492,3.671,2.987,5.615,4.323a56.688,56.688,0,0,0,9.191,5.383c1.116.49,2.26.915,3.372,1.414,1.346.605,2.669,1.262,4.007,1.886.236.11.455.314.611-.2.5-1.638,1.026-3.274,1.657-4.866a50.563,50.563,0,0,1,2.4-5.386,19.871,19.871,0,0,1,2.6-3.64,20.509,20.509,0,0,1,5.8-4.777c.412-.216.367-.436.149-.723-.959-1.264-1.944-2.508-2.883-3.787-1.805-2.46-3.6-4.927-5.361-7.421-.336-.476-.613-.544-1.068-.266-1.07.652-2.146,1.292-3.216,1.944a2.239,2.239,0,0,0-1.021,1.356A2.047,2.047,0,0,1,109,112.7a2.908,2.908,0,0,0-1.9-.044,12.06,12.06,0,0,1-1.7.346,21.907,21.907,0,0,1-6.549-.517,56.508,56.508,0,0,1-6.083-1.8,31.231,31.231,0,0,1-4.788-2.3,19.308,19.308,0,0,1-5.471-5.212,39.21,39.21,0,0,1-5-8.645,36.535,36.535,0,0,1-2.593-9.707,50.721,50.721,0,0,1-.382-6.03c-.012-2.581.113-5.165.249-7.745a14.774,14.774,0,0,1,.47-2.865,15.269,15.269,0,0,1,2.106-4.168c.846-1.361,1.9-2.364,3.667-2.208a1.013,1.013,0,0,0,.584-.264c1.105-.833,2.173-1.717,3.3-2.513,1.29-.907,1.314-.875.352-2.092a64.724,64.724,0,0,1-5.4-8.551c-.72-1.28-1.485-2.534-2.294-3.864m85.921,45.067c-.511-.959-.952-1.963-1.547-2.867a19.942,19.942,0,0,0-3.989-4.857,14.364,14.364,0,0,0-8.628-3.051,16.127,16.127,0,0,0-2.753.13c-1.2.153-2.389.365-3.565.634a11.785,11.785,0,0,0-5.246,2.57,19.539,19.539,0,0,0-4.78,6.436,17.639,17.639,0,0,0-1.524,6.895,28.751,28.751,0,0,0,.61,6.376,27.314,27.314,0,0,0,2.246,6.922,20.718,20.718,0,0,0,4.439,5.894c.826.794,1.6,1.529,2.862,1.291.16-.03.344.1.52.113,1.624.093,3.248.241,4.872.241a46.855,46.855,0,0,0,4.87-.261,5.321,5.321,0,0,0,2.376-.694,32.92,32.92,0,0,0,4.02-3.234,31.561,31.561,0,0,0,3.072-3.444,14.175,14.175,0,0,0,1.843-2.869,23.116,23.116,0,0,0,1.691-8.484,27.949,27.949,0,0,0-.118-3.073,5.375,5.375,0,0,0-.176-1.139c-.327-1.16-.685-2.311-1.095-3.529M59.373,94.243c-.447-.964-.888-1.93-1.347-2.888-.059-.123-.208-.2-.315-.3a1.279,1.279,0,0,0,.017.389c.336.9.641,1.82,1.04,2.7,1.453,3.185,2.869,6.389,4.438,9.517a41.68,41.68,0,0,0,3.151,5.2q2.843,4.055,5.908,7.952c1.409,1.791,2.968,3.467,4.5,5.157a36.5,36.5,0,0,0,2.7,2.7,45.823,45.823,0,0,0,3.8,3.147,35.7,35.7,0,0,0,4.173,2.547c1.318.693,2.728,1.213,4.1,1.8.578.248,1.158.492,1.745.715a1.459,1.459,0,0,0,.47.014c-.075-.133-.12-.309-.232-.39-.306-.22-.663-.369-.96-.6-2.352-1.826-4.731-3.62-7.027-5.513-1.735-1.43-3.407-2.945-5.022-4.509-1.931-1.87-3.832-3.778-5.635-5.769-1.98-2.186-3.879-4.451-5.732-6.747-1.437-1.781-2.782-3.639-4.109-5.506-1.043-1.467-2.062-2.96-2.969-4.513-.954-1.633-1.762-3.35-2.7-5.095m113.88,95.751c-.286.711-.578,1.42-.851,2.136a1.459,1.459,0,0,0-.027.433c.12-.046.243-.087.361-.139.234-.1.465-.214.7-.314a1.914,1.914,0,0,0,1.05-1.139,22.56,22.56,0,0,0,1.37-6.511c.159-1.574.2-3.16.265-4.743.064-1.619.11-3.24.127-4.86.021-2-.011-4,.01-6,.017-1.62.1-3.24.11-4.861a4.065,4.065,0,0,0-.247-1.042c-.016-.06-.087-.1-.133-.157-.039.058-.107.113-.114.175-.051.449-.093.9-.131,1.351-.129,1.521-.265,3.041-.381,4.563-.138,1.8-.278,3.594-.379,5.393-.076,1.363-.092,2.729-.134,4.094,0,.064,0,.128,0,.191-.169,1.886-.317,3.775-.519,5.658-.108,1-.3,2-.475,2.992-.162.907-.357,1.808-.6,2.776m-160.8-36.449c.128-.309.261-.615.382-.927.611-1.576,1.246-3.144,1.821-4.733a16.23,16.23,0,0,0,1.229-5.484,16.844,16.844,0,0,0-.252-2.381,1.971,1.971,0,0,0-.3-.575c-.066.18-.136.359-.2.541-.019.057-.012.122-.029.18-.926,3.19-1.843,6.382-2.784,9.568q-1.452,4.916-2.946,9.82c-.4,1.321-.845,2.628-1.259,3.945a1.3,1.3,0,0,0,0,.4c.105-.112.257-.206.309-.339.71-1.812,1.384-3.638,2.114-5.442.6-1.494,1.27-2.963,1.908-4.57M102.142,21.983c-.394-.128-.789-.252-1.181-.384A55.587,55.587,0,0,0,94.1,19.653a31.865,31.865,0,0,0-5.623-.72c-1.47-.028-2.942.064-4.413.117-.685.024-1.369.076-2.052.132-.084.007-.159.114-.239.175.073.067.142.185.22.193.619.057,1.241.083,1.86.138,1.351.121,2.708.205,4.05.394,1.391.2,2.769.492,4.15.754,1.793.34,3.6.62,5.372,1.053,3.081.754,6.137,1.607,9.2,2.415a1.571,1.571,0,0,0,.294.022.918.918,0,0,0-.111-.333.945.945,0,0,0-.351-.219c-1.419-.579-2.84-1.152-4.325-1.79m46.6,133.03c.277-.172.73-.3.793-.525a5.013,5.013,0,0,0,.028-1.477c0-.1-.124-.2-.19-.3a1.155,1.155,0,0,0-.211.225,7.857,7.857,0,0,1-.507,1c-.7.951-1.437,1.869-2.136,2.818-.1.132-.055.365-.078.552a2.778,2.778,0,0,0,.439-.312c.606-.633,1.2-1.278,1.862-1.983m1.851,8.618c-.184-.348-.369-.207-.507.022-.746,1.238-1.487,2.48-2.212,3.73a1.815,1.815,0,0,0-.113.565,1.823,1.823,0,0,0,.487-.327c.571-.755,1.141-1.513,1.663-2.3.313-.473.8-.893.682-1.689m-4.532-11.937c-.254.381-.5.77-.764,1.143-.455.639-.931,1.264-1.38,1.907-.065.092-.03.254-.041.384a1.042,1.042,0,0,0,.3-.155c.516-.544,1.051-1.074,1.52-1.657a8.448,8.448,0,0,0,.921-1.457,2.265,2.265,0,0,0,.08-.8l-.639.637m2.745-7.6-.1-.575c-.112.039-.268.043-.327.122q-.674.894-1.307,1.818c-.054.078-.007.225-.006.34a.973.973,0,0,0,.341-.06c.207-.126.427-.441.582-.407,1.057.229.905-.421.818-1.046,0-.021,0-.042,0-.191m.447,14.746c-.224.309-.462.609-.659.935-.038.063.094.329.138.326.493-.028,1.249-1.2,1.092-1.669-.024-.072-.1-.182-.149-.179a.312.312,0,0,0-.218.139c-.068.116-.1.255-.2.449M145.23,144.1l.178.433c.074-.108.154-.212.222-.323a7.327,7.327,0,0,1,.591-.954c.255-.3.039-.395-.151-.348a1.16,1.16,0,0,0-.572.419,2.12,2.12,0,0,0-.267.773m-1.6,6.575a2.522,2.522,0,0,0-.183.49,1.285,1.285,0,0,0,.065.4,1.342,1.342,0,0,0,.341-.234,7.5,7.5,0,0,0,.448-.7,1.489,1.489,0,0,0,.092-.222c-.109-.042-.243-.144-.321-.112a1.951,1.951,0,0,0-.442.37m1.085,17.554c-.3.228-.6.446-.882.7-.032.029.078.251.163.349.024.028.235-.039.284-.113a3.28,3.28,0,0,0,.435-.933m-3.192-2.043-.155.355c.185,0,.465.084.538-.005a4.12,4.12,0,0,0,.429-.815c-.249.134-.5.267-.812.465m.128-5.745c.11-.188.222-.375.324-.566,0,0-.11-.065-.168-.1-.088.186-.176.372-.261.559,0,.007.027.028.106.107m7.66-9.064-.255.067.1.253A.715.715,0,0,0,149.315,151.375Z" transform="translate(171.656 1464.692)"></path></g></svg>