<svg xmlns="http://www.w3.org/2000/svg" id="Layer_1" data-name="Layer 1" viewBox="0 0 570 380"><defs><style>.cls-1{fill:#b3d4ff;}</style></defs><path class="cls-1" d="M184.15,207.13c-1.11-.71-2.63-.84-3.43-1.89a3.49,3.49,0,0,1,.08-3.68c.59-1.15,1.49-2.14,2-3.35,1.25-3.1-.57-6.55-2.62-9.18-1.72-2.21-3.9-4.37-6.67-4.75-1-.15-2,0-3-.26-3.26-.72-4.73-4.45-5.68-7.65a43.63,43.63,0,0,0-12-2.9,4.07,4.07,0,0,0-3,.55c-.9.75-1,2-1.45,3.13a5.27,5.27,0,0,1-4.58,3.18,5.5,5.5,0,0,1-4.88-2.76c-.25-.44-.5-1-1-1.11a1.61,1.61,0,0,0-.94.11l-7.32,2.31a3.16,3.16,0,0,0-1.37.68c-.86.84-.56,2.24-.38,3.43a13,13,0,0,1-.63,6.5,2.12,2.12,0,0,1-.62,1,2.29,2.29,0,0,1-1,.34c-2.62.4-5,1-7.65,1.45a15.5,15.5,0,0,1-1.77,8.76c-.73,1.35-1.7,2.85-1.19,4.31.6,1.74,2.84,2.17,4.16,3.46a5.4,5.4,0,0,1,1.07,5.26,16.15,16.15,0,0,1-2.74,4.88c1,4.26,2.36,9.05,6.29,11,2.17,1.06,4.71,1,7,1.65a2,2,0,0,1,.92.47,2.26,2.26,0,0,1,.45,1c.49,1.93.92,3.89,1.48,5.8a3.14,3.14,0,0,0,.6,1.25c.48.52,1.12.56,2.21,1.11.82.41,1.57,1,2.41,1.32a13.34,13.34,0,0,0,3.82.8c2.85.3,4.51.42,6.18-2.19a11.1,11.1,0,0,1,3.63-3.94,4.46,4.46,0,0,1,5.08.21c1.42,1.28,1.6,3.65,3.21,4.7l8.76-3.91a14,14,0,0,0,3.58-2,7.08,7.08,0,0,0,2.37-4.59c.12-1.32-.12-2.65-.08-4a4.24,4.24,0,0,1,1.61-3.46c1.66-1.05,4.12-.15,5.63-1.41a4.59,4.59,0,0,0,1.13-1.79,36.44,36.44,0,0,0,2-6.44C186.37,211.85,186.4,208.58,184.15,207.13Zm-24.28,3.75a6.26,6.26,0,0,1-1,2.12,10.61,10.61,0,0,1-3.05,3.24c-2.25,1.41-5.15,1.32-7.72.65a18,18,0,0,1-5.51-2.47c-1.34-.92-3.81-2.88-3.39-4.77a2.35,2.35,0,0,1,1-1.43c.48-.3.25-1.55.26-1.78a5.69,5.69,0,0,1,.33-1.91,6.44,6.44,0,0,1,2.54-3.08,17.15,17.15,0,0,1,7.08-2.73,4.15,4.15,0,0,1,1.49,0,4.81,4.81,0,0,1,1.67.85,15.79,15.79,0,0,1,4.35,3.9,13.07,13.07,0,0,1,1.72,4.47A6.72,6.72,0,0,1,159.87,210.88Z"></path><path d="M397.89,230.35a23.68,23.68,0,0,1-.33,4,6.3,6.3,0,0,0,.7,5,42.39,42.39,0,0,0,2.19,3.76c5.41,7.33,8,15.83,10.16,24.51.85,3.46,1.44,7,2,10.54a46.28,46.28,0,0,1-2.95,24.21c-1,2.61-1.89,5.29-3.05,7.83a42.84,42.84,0,0,1-12.19,15.33c-3.16,2.59-6.59,4.25-10.93,3.61-1.75-.25-3.62.51-5.44.66-4.63.37-9.27.72-13.9.95-3.48.18-7,.17-10.46.21a32.41,32.41,0,0,0-18.46,6.09c-5.68,4-10.51,8.85-15.31,13.78a83.75,83.75,0,0,1-23.12,16.87,64.44,64.44,0,0,1-26,6.4,105.2,105.2,0,0,1-41.86-6.85c-13-4.91-23.81-13.23-29.14-27-1.61-4.15-3.81-8.08-4.36-12.56-.49-3.93-.71-7.9-1-11.85-.08-1,0-2.1,0-3.16-2.32-.54-4.42-.89-6.44-1.53a16.77,16.77,0,0,1-4.12-2c-2.15-1.42-2.67-2.82-1.89-5.2s1.8-4.82,5-4.6v-15a15.55,15.55,0,0,0-1.92-1c-3.27-1.09-3.27-1.08-3.46-4.31-4-1.89-4-6.06-2.41-9.73-3-2.66-2.29-6.05-1.8-9.42a4.61,4.61,0,0,0,0-2.12c-1.47-3.94-.81-6.3,2.76-8.81L174,236.92a40.88,40.88,0,0,1-14.66,7.62c-1.19-2.59-1.78-5.74-5.6-5.3-2.94.34-4.16,1.7-5.56,6.38-6.08,0-11.61-2-17.09-4.89.22-.92.47-1.73.62-2.56.75-4.15-2.53-7-6.53-5.73-3,1-3,1-4.88-1.5a36.14,36.14,0,0,1-5.56-10.79c-.42-1.32-.52-2.29,1.08-3.06,2.3-1.1,3.71-3.52,3.31-5.28-.55-2.38-2.34-3.43-4.56-3.93-.45-.1-.92-.17-1.58-.29a36.71,36.71,0,0,1,5.54-18.25c2.47.57,5,1.6,7-.85s1.19-4.7-.1-7.27a35.23,35.23,0,0,1,13.36-7.53c.61.91,1.11,1.71,1.67,2.47,2.47,3.29,6.39,2.93,8.12-.78a6,6,0,0,0,.31-5.27,103.89,103.89,0,0,1-7.41-27.65c-.09-.67-.31-1.31-.5-2.1-1.47-.4-3-.7-4.42-1.22-5-1.8-5.33-4.33-4.72-9.2.19-1.48,1.59-2,2.88-2.56,5.27-2.42,10.94-2.37,16.51-2.59,23.9-.93,47.81-1.52,71.71-2.54a399.5,399.5,0,0,1,40.36.12c1.54.09,3.07.38,4.6.55a3.34,3.34,0,0,1,3.11,3c0,.19.11.37.15.56.89,3.86.17,5.69-3.15,7.86-1.95,14.35-5.07,28.52-8.21,42.69-1.72,7.73-2.52,15.7-4.65,23.3-3,10.6-6.78,21-10.31,31.41-1.95,5.76-4.06,11.47-6,17.06a8.69,8.69,0,0,1,1.32,9.27c2.21,2.62,1.29,5.6.85,8.55-.17,1.11-.32,2.23-.41,3.36-.2,2.47.4,5.07-1.27,7.29a1.61,1.61,0,0,0-.21,1.07c.25,2.55-.91,4-3.36,4.6a5.79,5.79,0,0,0-1.09.62l-.8,15.65c2.51,1,5.43.3,6.82,2.66a11.64,11.64,0,0,1,1.31,4.68c.23,2.43-2.15,4.88-5.7,6,.25,1,.43,2,.77,2.93,2.48,6.88,6.92,11.64,14.15,13.79,12.11,3.6,22.57.15,32-7.34a95.36,95.36,0,0,0,10-10.05,71.28,71.28,0,0,1,12.26-10.62,36.63,36.63,0,0,1,27.93-6,50.23,50.23,0,0,0,14.16.88c5.92-.66,11.4-2.32,15.31-7.24a14.94,14.94,0,0,0,3.35-11c-.32-3.82.18-7.71.23-11.56a16.28,16.28,0,0,0-.42-4.25c-.68-2.52-1.67-5-2.4-7.46a20.59,20.59,0,0,1-1-5.1,5.63,5.63,0,0,0-2.23-4.46c-2-1.73-1.91-2.5.47-3.38,10.87-4.06,21.61-8.52,33-10.89C395,230.55,396.24,230.52,397.89,230.35ZM129.94,180.47l2.69-1.18-.4-.66-2.23,1.9-1.93,1,.47.6Zm11-.42-1.51-1.88-.41.45,2,1.37,2.37,1,.17-.69Zm10.41,57.27c-3.39,1-4.16,1.78-4.15,3.9,1.28-1.24,2.68-2.59,4.1-3.94l6.09.14c1.12,1.47,2.24,2.93,3.45,4.53l1.46-.57c-.66-.83-1.19-1.59-1.82-2.27-.84-.9-1.67-1.89-3.14-1.64A9.18,9.18,0,0,0,151.31,237.32Zm-31.83-20.24a5,5,0,0,0,3-4.74,3.51,3.51,0,0,0-2.08-3.56c1.23,3.94,1.23,4-.59,7.54a3.75,3.75,0,0,0-.23.81A24.37,24.37,0,0,0,117,219c-.22.19-.07.81-.09,1.24l.53.17ZM221.23,361.81l2.38,1.77.31-.57-2.74-1.14a6.87,6.87,0,0,0-.92-1A79.1,79.1,0,0,1,206,348.23a5,5,0,0,0-.67-.53l-.45.49a99.42,99.42,0,0,0,7,7.64C214.6,358.32,217.54,360.7,221.23,361.81ZM237.12,280a10.9,10.9,0,0,0-.81-1c-2.3-2-2.28-2.06-.15-4.15a2.39,2.39,0,0,0,.79-1.67c-.17-1.55-.58-3.08-.9-4.62a8.54,8.54,0,0,1,1.44-3.19c1.3-2.23.73-3.74-1.66-4.76-.83-.35-1.6-.86-2.87-1.55l3.08-3.14c1.25-1.26,1.09-4.07-.27-4.84l-2.26.36c-.08-.74-.34-1.37-.17-1.83,1.82-5,3.77-9.93,5.58-14.91,5.82-16,11.82-31.94,16.27-48.39,2.14-7.93,4.5-15.82,5.26-24.06.69-7.41,1.44-14.82,2.08-22.23a51.81,51.81,0,0,0,0-5.29c-3.69.59-7,1.33-10.35,1.62-9.06.79-18.13,1.45-27.2,2.06-7,.48-13.91.94-20.87,1.18-10.25.36-20.51.57-30.77.74-9,.14-18,.12-27,.19a14.14,14.14,0,0,0-1.79.24,251.51,251.51,0,0,0,7.05,31c2.83.53,5.34.84,7.76,1.5s4.88,1.72,7.31,2.59c0,.8,0,1.28,0,1.75-.13,4.26,1.74,6.11,5.93,5.86a4.49,4.49,0,0,0,1.43-.18c1.69-.67,2.82.1,3.69,1.4,1.88,2.81,3.78,5.61,5.52,8.5,1.4,2.32,2,4.34-.63,6.76-3,2.78-1.55,6.56,2.4,7.81.53.17,1.07.32,1.82.54-.13,6.22-1.15,12.07-4.25,17.39-4.38-.73-6.24,0-7.34,3a8,8,0,0,0-.34,4,17.84,17.84,0,0,0,1.69,4.89c2.16,4.21,4.48,8.34,6.71,12.51.12.22,0,.55,0,1-.56.15-1.21.13-1.57.45a5.45,5.45,0,0,0-1.67,2.08,2,2,0,0,0,1.11,2.42c3,1.86,2.93,1.89.59,4.36a7,7,0,0,0-.92,1.12c-1.67,2.82-.83,4.88,2.32,5.72.1,0,.2,0,.29.05,1.83.57,2.35,2.1,1.18,3.59-.42.52-1,.88-1.49,1.37-2.11,2.32-1.47,4.51,1.49,5.36a16.68,16.68,0,0,1,2.18,1.09l-3.38,2a9.65,9.65,0,0,0,4.77.84c5.13.14,10.27.13,15.38.49,10.1.71,20.12-.07,30.14-1.16A29.81,29.81,0,0,0,237.12,280Zm127.45-32.77c.41,1.37.78,2.53,1.11,3.71a43.66,43.66,0,0,1,1.84,7,34.36,34.36,0,0,0,1.86,7.86,32.26,32.26,0,0,1,1.77,12.85c-.41,6.65-3.19,11.86-9,15.28a31.45,31.45,0,0,1-16.61,4.48c-4.82-.1-9.62-.86-14.42-1.41-10.52-1.21-19.86,1.11-27.14,9.23-2.71,3-5.08,6.34-7.58,9.54-1.84,2.37-3.47,4.92-5.47,7.14-6.74,7.42-14.85,12.21-25.1,13a29.91,29.91,0,0,1-30.94-20.51c-.32-1-.69-1.93-.91-2.56H196.78c-.09,1.37-.24,2.5-.21,3.63.07,2.52.14,5,.36,7.54a34.75,34.75,0,0,0,6,17c14,20.39,41.18,34.12,68.56,29.65a160.94,160.94,0,0,0,21.35-5.33,52.29,52.29,0,0,0,21.23-12.14c4.37-4.23,8.29-8.93,12.29-13.52,3-3.48,6.26-6.6,10.72-8.16a56.58,56.58,0,0,1,17.29-3.38c6.39-.15,12.78,0,19.16,0a29.62,29.62,0,0,0,11.3-2.28c10-4,16.44-11.54,21.39-20.78,3-5.64,3.68-11.5,2.93-17.7s-1.34-12.29-2.12-18.42a51.84,51.84,0,0,0-1.55-8.24,79.06,79.06,0,0,0-3.81-10.34c-1.87-4.1-4.1-8-6.2-12.1C385,241.1,374.8,243.73,364.57,247.21ZM179.83,196.46c-.61-2.07-1.23-3.81-1.63-5.59a3.3,3.3,0,0,0-3.47-2.81,27.57,27.57,0,0,1-4.88-.68c-3.47-.81-5.28-3-5.64-6.49,0-.29,0-.58,0-.87-.23-2.65-.43-2.9-2.9-3.62a38.7,38.7,0,0,1-3.89-1.14,4.18,4.18,0,0,0-5.55,1.54,16.74,16.74,0,0,1-4,3.75c-3.52,2.33-6.73,1.8-9.58-1.31-.38-.42-.77-.82-1.38-1.48l-7.68,5.06c1.06,3.2,1.29,6.08-.7,8.6-2.36,3-5.33,1.68-8.17.63a35.58,35.58,0,0,0-3.16,9.82c-.69,3.81-.73,3.93,2.86,5.42a5.53,5.53,0,0,1,2.6,8.2,24.69,24.69,0,0,1-2,2.51c-.78,1-1.58,1.92-2.42,2.95L122,229c8.27,0,11.6,2.64,13.35,10.47.12.51.42,1.23.81,1.39a30.24,30.24,0,0,0,8.77,2.43c2.12-5.59,3.39-6.92,7.62-7.48,4-.52,7.53.27,9.91,4.08l9.72-4.28c-.27-1.49-.55-2.8-.75-4.12-.73-4.81,2.17-9.58,7-10.1,3.38-.37,4.43-1.94,4.83-4.79.16-1.15.48-2.27.73-3.4a2.5,2.5,0,0,0-1-2.79,28.21,28.21,0,0,1-3.54-3c-3-3.13-3.11-6.82-.29-10.13C179.32,197,179.58,196.74,179.83,196.46Zm22.24-62v0c2.22-.11,4.44-.25,6.67-.33l53.67-1.83a11.64,11.64,0,0,0,1.45-.06,4.59,4.59,0,0,0,3.1-3.14c.15-1.69-1-2.5-2.35-2.9a16.54,16.54,0,0,0-4.8-.85c-11,0-22.06.2-33.09.28-13.55.11-27.1.17-40.64.27-1.84,0-3.68.1-5.51.22-9.65.6-19.3,1.3-28.95,1.81-3.66.19-7.35,0-11-.08-2.31,0-3.18.46-3.85,2.28-1.21,3.26-.22,5,3.24,5.54a12.49,12.49,0,0,0,1.73.15c3.67.09,7.35.33,11,.23C169.19,135.59,185.63,135,202.07,134.5ZM232.5,284.07c-14.65,3.18-29,1.94-43.77,1,.18,4.74.35,9.42.53,14.19h42.41C232,294.14,232.22,289.25,232.5,284.07Zm-48.63,22.64c2.2,1.45,4.36,1.49,6.45,1.64a400.75,400.75,0,0,0,40.57.54,50.84,50.84,0,0,0,6.63-.68,3.33,3.33,0,0,0,2.16-1.19c1-1.57-.6-4.67-2.5-5a32.91,32.91,0,0,0-5.76-.59c-14.4,0-28.81,0-43.21,0-1.7,0-2.79.55-3.35,2.12C184.52,304.53,184.24,305.54,183.87,306.71Zm70.4-171.61,0-.58L144,138.46c.6.51.86.92,1.13.93A1086.81,1086.81,0,0,0,254.27,135.1Zm46,172.21-.51-.46c-1.74,1.71-3.49,3.41-5.21,5.14-3.54,3.57-6.77,7.52-10.66,10.66-8.6,6.94-18.3,10.76-29.64,8.38-1.55-.33-3.08-.72-4.62-1.07a21.27,21.27,0,0,0,11.64,4c10.79.66,19.78-3.43,26.94-11.18C292.58,318,296.23,312.48,300.22,307.31Zm61.54-63.89c1.89,1.9,1.89,1.88,3.49,1.42q13.06-3.75,26.12-7.5c1.29-.37,2.55-.8,3.94-1.24.14-1.19.26-2.26.41-3.63C383.71,234.78,373,239.33,361.76,243.42Zm-125,5.35c.2,0,.53,0,.55,0,1.33-3.39,2.75-6.74,3.93-10.18,5.06-14.74,11.1-29.17,14.25-44.52-6.44,18.07-12.74,36.18-19,54.29C236.41,248.45,236.65,248.64,236.74,248.77Zm-8.8,34.65c-12.61,1.91-25.23.09-38.51-.06C196.06,285.47,221.33,285.49,227.94,283.42ZM363.66,290c5.51-4,7.48-15.82,3.66-22.46a14.52,14.52,0,0,0-.29,2.11c0,2.6-.06,5.21.15,7.8a16.16,16.16,0,0,1-3.16,11.7A4,4,0,0,0,363.66,290Zm46.69-1.82.64,0A57.23,57.23,0,0,0,408.06,267c.13,3.55.43,7.09.84,10.61S409.86,284.66,410.35,288.18ZM197.22,311l-.08.35a9.26,9.26,0,0,0,1.75.47c10.09.73,31.53.24,34.42-.82Zm65.19-158.3a117.11,117.11,0,0,0,3.44-18.27c-1.82-.48-2.08.36-2.15,1.61-.18,3.37-.43,6.74-.69,10.11C262.84,148.34,262.61,150.53,262.41,152.71ZM134.85,128.93l-.6-.44c-.49.6-1.33,1.17-1.39,1.82a13.47,13.47,0,0,0,.19,4.83c.68,2.38,5,4.08,7.62,3.25-1.87-1-4.08-1.66-5.5-3.1C133.47,133.58,134.59,131.09,134.85,128.93Zm86.43-4.48v.23l28.26-.55a113,113,0,0,0-14.12-.43C230.7,123.83,226,124.19,221.28,124.45ZM385.53,327.91c4.75.2,11.8-4.89,15-10.8C396.23,322.16,391.19,325.11,385.53,327.91ZM275.05,371.47c4.76.37,15.54-2.55,18.49-5Zm-94-174.8c-3.29,3.62-3.78,5.7-1.86,8-.48-3.39,1.17-5.83,3.38-8.12L180,191.19l-.6.25Zm83.44-71.82c3.54,1.67,4.35,3.84,2.54,6.79,2.15-.49,2.67-1.2,2.33-3.43C269,125.49,268.72,124.4,264.52,124.85ZM177,187.34c-.7-1.44-1.21-2.22-2.55-2.19-2.34,0-4.68-.08-7.08-.13C170.05,187.18,173.42,186.74,177,187.34ZM338.49,332.53a13.7,13.7,0,0,0-8.94,6ZM173.78,226.2c2-2.14,4.21-3.62,7.35-3,.18,0,.5-.68,1-1.31C178.39,222.18,175.3,222.73,173.78,226.2Zm-45.07-38.61L124.77,192C127.58,191.66,128.29,190.87,128.71,187.59ZM180.58,275c.66-1.5,1.28-2.89,1.89-4.26C180.05,271.32,179.84,271.76,180.58,275Zm57.64-22.93L237.14,257C239.1,255.91,239.22,255.39,238.22,252.08ZM225.76,364.2l-.22.44,3.57,1.87.23-.45ZM152.58,174.28c-1.41.26-1.41.26-1.41,1.62Zm83.35,136.48.14.51,2.26-.61-.15-.53Zm-41.34.55.1-.64-2.28.22.13.3Z"></path><path d="M181.21,62.18c-5.08-.63-10.16-1.24-15.23-1.89a9,9,0,0,1-1.67-.47c-6.79-2.25-10.37-6.33-10.26-15.23,0-1.63-.19-3.26-.13-4.89a64.93,64.93,0,0,1,.61-9.79,16.72,16.72,0,0,1,6.76-10.51A33.13,33.13,0,0,1,166,16.52c3.53-1.77,7.07-3.53,10.72-5A17.07,17.07,0,0,1,182.85,10c6.57-.08,13.21,0,19.57,1.89,14.74,4.37,22.47,17.42,21,31.15a15.36,15.36,0,0,1-8.53,12.4,42.78,42.78,0,0,1-11.23,3.8A139.58,139.58,0,0,1,181.21,62.18Zm3.49-4.91c9.53,0,16.34-1.26,22.88-3.86A22.4,22.4,0,0,0,219.8,42a12.42,12.42,0,0,0,1.06-7.89,20.16,20.16,0,0,0-9.31-13.81c-9.81-6.34-20.55-7.56-31.75-4.89-12.46,3-19.73,11.13-22.88,23.33a9.69,9.69,0,0,0,.76,7c2.76,5.57,7.47,8.59,13.36,9.67C176.36,56.39,181.76,56.88,184.7,57.27Zm2.28,2c-.94-.05-1.88,0-2.81-.16-4.69-.59-9.43-1-14.07-1.87a19.32,19.32,0,0,1-12.7-8,7.11,7.11,0,0,0-.9-.84c.6,4.11,1.82,6.22,4.93,7.92a21.94,21.94,0,0,0,5.36,2.12C173.44,60,180.2,59.88,187,59.24ZM156.41,33A34.53,34.53,0,0,1,168,18.22C161.19,20.22,156.27,26.44,156.41,33Zm64.23,12.21A29.26,29.26,0,0,1,206.74,56C214.13,55,219,51.13,220.64,45.19Z"></path><path d="M239.77,108.18a92.25,92.25,0,0,1-19.33-2.06c-1-.25-2.05-.55-3.06-.88-5.28-1.74-8.48-5.34-9.27-10.84C207,87,208.06,80.11,212.74,74a20.57,20.57,0,0,1,6.88-5.69,53.46,53.46,0,0,1,19.95-5.78,92.08,92.08,0,0,1,26.31,1.35,41.26,41.26,0,0,1,11.52,4.55A15.5,15.5,0,0,1,282.79,74a32.14,32.14,0,0,1,4.91,14.44,22.19,22.19,0,0,1-.62,6.59c-1.05,4.41-4.18,7.06-8.22,8.76a41.62,41.62,0,0,1-13,2.8C257.17,107.25,248.47,107.66,239.77,108.18Zm6.06-3A56.94,56.94,0,0,0,272,100.43c6-2.62,9.53-7.46,11-13.73a11.85,11.85,0,0,0-.61-8.53c-2.07-3.88-4.85-7.27-8.91-9.28a30.8,30.8,0,0,0-12.51-3.41c-6.28-.23-12.59-.27-18.86.12a72.79,72.79,0,0,0-12.83,2.2c-10.53,2.63-14.72,12.71-14.83,20-.09,6.3,2.74,10.78,8.47,13.29a28,28,0,0,0,6.9,2.12C235.93,104.08,242,104.7,245.83,105.17Zm-17.12.61.16-.37a75.64,75.64,0,0,1-8.27-3.35,14.58,14.58,0,0,1-8-13.17A24.5,24.5,0,0,1,217,74.15c.45-.66.88-1.34,1.33-2l-.44-.37A34.16,34.16,0,0,0,215,74.43c-4.73,5.61-6,12.1-5,19.26.7,4.79,3.14,8.12,7.74,9.52C221.35,104.29,225.06,104.94,228.71,105.78ZM285.39,87c-1.55,3.76-2.77,7.29-5.34,10.11s-5.95,4.79-9.42,6.59A29.24,29.24,0,0,0,277,102.3C284,99.84,286.74,94.88,285.39,87Z"></path><path d="M386.88,221.6c-11.37-.25-19.87-7.21-22.06-18.31a32.59,32.59,0,0,1-.31-11c.5-3.44.65-6.94,1.4-10.32a23,23,0,0,1,9.92-14.16,35.72,35.72,0,0,1,19-6.33c2.87-.13,5.69.18,8.21,2.12s5.59,3.14,8,5.17a29.26,29.26,0,0,1,10.71,22.31,22.93,22.93,0,0,1-3.93,13.45,33.14,33.14,0,0,1-17.29,13.49c-1.92.67-3.78,1.51-5.74,2C392.2,220.71,389.52,221.1,386.88,221.6Zm28-31.52c-.68-9.68-6.21-18.67-17.22-24a14.14,14.14,0,0,0-11.54-.45,25,25,0,0,0-10.29,7.3,45.07,45.07,0,0,0-8.6,16,9.77,9.77,0,0,0-.58,3.4,22.86,22.86,0,0,0,5.42,14.38,30.8,30.8,0,0,0,13.3,9c7.64,2.65,14.64,1.72,20.7-4C411.59,206.42,415.11,200.33,414.91,190.08Zm-2.13,17.21c4.64-4,7.7-11.38,7-17.33-1.12-10.19-6-18-15-23.16a16.22,16.22,0,0,0-1.93-.78C415.72,175.51,421.75,192.93,412.78,207.29Zm-45.44-3.56c1.75,10.14,12.7,17.77,21.72,15.06C379.74,216.5,372.42,211.71,367.34,203.73Z"></path><path d="M163,119.24c-4.18-.68-8.36-1.34-12.54-2.08a13.45,13.45,0,0,1-2.73-1c-6.83-2.81-10.09-7.66-10-15.07a23.76,23.76,0,0,1,2.44-10.66A37.61,37.61,0,0,1,153.78,75.4a20.55,20.55,0,0,1,26.09,2.78,33.46,33.46,0,0,1,7.41,10.66c4.73,10.88,1.64,21.69-10.67,27.78C172.31,118.74,167.72,119.15,163,119.24ZM143.55,98.08c-.07,9.68,4.45,14.76,12.85,17.61a15.48,15.48,0,0,0,9.68,0,33.11,33.11,0,0,0,11.21-5.92c5.86-4.6,8.47-10.44,6.73-17.86-2-8.38-6.89-14.11-15.26-16.62a4.59,4.59,0,0,0-2.51-.13c-6.54,2-12.67,4.73-17.54,9.75A17.18,17.18,0,0,0,143.55,98.08Zm-1.76-5.9a19.09,19.09,0,0,0-1.25,14.55c1.14,3.7,3.89,6,7.67,7.21C141,108.12,141.12,100.28,141.79,92.18Zm30,23.63c9.15-1.34,18.69-11.87,14.62-22.11C187.73,105,180.41,110.71,171.78,115.81ZM155.92,76.6l.13.27c.51-.19,1-.36,1.52-.59a11.2,11.2,0,0,0,1.1-.64,1.21,1.21,0,0,0-1.13,0C157,75.92,156.46,76.27,155.92,76.6Z"></path><path d="M331.3,197.48c8,.18,14.07,2.9,18.31,9.21,3.05,4.55,4,9.61,2.16,14.67-3.68,9.93-10,17.65-20.55,20.87-9.37,2.86-16.87-.88-20.62-9.92-1.15-2.75-2.67-5.44-3.27-8.31-2.34-11.37,3.87-21.44,15.12-24.92a43.42,43.42,0,0,1,5.08-1.14C329,197.69,330.4,197.58,331.3,197.48Zm-20.61,24.41c.12,8,1.83,10.9,9.32,14.21a4.94,4.94,0,0,0,.83.25,24.7,24.7,0,0,0,20.05-2.91,10.26,10.26,0,0,0,2.93-3.11,25.66,25.66,0,0,0,4-12.58c.56-8.56-4.17-15.12-12.41-17.19a19.71,19.71,0,0,0-4.87-.67c-3.93,0-7.79.65-10.83,3.39A26.27,26.27,0,0,0,310.69,221.89Zm4.86,14.63c3.8,5.35,13.74,5.92,18.22,2.2C322.87,239.7,323.51,239.42,315.55,236.52Zm34.27-17a10.9,10.9,0,0,0-.41-8.73Z"></path><path d="M431.45,258.54c-2.14-.32-5-.59-7.85-1.24a17.42,17.42,0,0,1-5-2.16c-6.31-3.84-8.84-10-7-17.2a29,29,0,0,1,9.2-15.48c1.47-1.25,2.91-2.56,4.46-3.72a16.65,16.65,0,0,1,10-3.49,9.56,9.56,0,0,1,6,1.74c2.73,2,5.84,3.43,8.47,5.52a18.58,18.58,0,0,1,7.06,11.33,17.86,17.86,0,0,1-3.39,14.56C448.07,255.3,441,258.79,431.45,258.54Zm-.58-2.4c5.18-.19,9.43-1.36,13.06-4.22,4.71-3.72,7.17-8.63,6.72-14.67-.62-8.36-7.87-16.48-16.07-18.17a7.5,7.5,0,0,0-3.43,0c-5.13,1.47-9.37,4.16-11.68,9.21a41.72,41.72,0,0,0-2.14,5.08c-1.82,5.93-1.14,11.54,2.81,16.45A17,17,0,0,0,430.87,256.14Zm18.44-6.56c9.61-8.26,6.47-23.86-5.71-28.6C454,230.08,454.83,241,449.31,249.58Zm-34.76-13.87c-3.49,7.44-.24,16.67,5.91,17.64C415.27,247.28,414.13,244,414.55,235.71Z"></path><path d="M257.1,141.16a15.81,15.81,0,0,1-.15,2.93c-1.8,7.91-3.66,15.82-5.5,23.72q-4.65,19.92-9.3,39.82c-.42,1.78-1,3.55-1.48,5.3-.22.76-.56,1.5-1.77,1.15-.07-.27-.32-.65-.25-1q8.41-35.7,16.89-71.39c.07-.29.5-.5.76-.75Z"></path><path d="M187.06,256.61a14.22,14.22,0,0,1,2.08,0c12,1.8,23.9.77,35.85-.18a5.92,5.92,0,0,1,1.71-.13c.47.11.85.59,1.26.92-.37.36-.71,1-1.12,1-2.3.29-4.61.53-6.93.61-6.75.26-13.51.59-20.26.59a106.54,106.54,0,0,1-11-1C187.86,258.4,186.89,258.31,187.06,256.61Z"></path><path d="M225.27,270c-.21,1.8-1.11,1.76-2,1.79-4,.12-8.11.42-12.16.32-7.42-.17-14.88,0-22.24-1.39a20.68,20.68,0,0,1-2.49-.82c.67-1.75,1.72-1.16,2.61-1.09,5.2.39,10.39,1,15.59,1.14,5.4.17,10.82-.06,16.22-.09C222.24,269.83,223.67,269.92,225.27,270Z"></path><path d="M237.32,221.78c.1.41.37.88.28,1.27-.56,2.42-1.14,4.84-1.85,7.22a1.79,1.79,0,0,1-1.41,1c-.83-.1-.78-.78-.54-1.55.7-2.19,1.29-4.41,1.88-6.63C235.89,222.26,236.14,221.6,237.32,221.78Z"></path><path d="M232.15,269.25c-.73.67-1,1.17-1.48,1.33a3.8,3.8,0,0,1-3.46-.4C228.29,268.63,228.66,268.54,232.15,269.25Z"></path><path d="M268.31,365.88c-.39-1.44.24-1.72,1.14-1.74,9.07-.25,16.73-4.4,24.21-8.92a107.58,107.58,0,0,0,17.77-13.51,78.7,78.7,0,0,1,17.23-12.24,51.24,51.24,0,0,1,24.6-5.77c4.06,0,8.13,0,12.19-.16A41.39,41.39,0,0,0,380,320c.89-.38,1.75-.84,2.66-1.16.75-.28,1.73-1,2.18.21.12.32-.7,1.22-1.27,1.51a48.08,48.08,0,0,1-20.08,5.15c-2.81.09-5.63.17-8.42,0-15-.84-27.54,5-38.78,14.32-2.68,2.23-5.19,4.66-7.87,6.89-8.38,7-17.28,13.12-27.63,16.84a64.13,64.13,0,0,1-9.27,2.2A13.5,13.5,0,0,1,268.31,365.88Z"></path><path d="M403.5,288.57c-1.79-.49-1.46-1.67-1.5-2.65-.17-3.67-.23-7.34-.48-11a46.25,46.25,0,0,0-4.23-16.18c-.54-1.17-.91-2.42-1.39-3.71,1.65-.63,2.06.3,2.47,1.15a45.07,45.07,0,0,1,4.59,14.3c.63,5.45.68,11,1,16.47A6.14,6.14,0,0,1,403.5,288.57Z"></path><path d="M202.87,321.85c2.2,5.14,4.26,10.21,6.53,15.18s6.44,8.59,10.62,11.91c-.78,1.81-1.66,1.26-2.39.57-2.51-2.41-5.3-4.62-7.36-7.36-4.11-5.47-6.4-11.88-8.42-18.36C201.59,323,201.55,322.27,202.87,321.85Z"></path><path d="M402.34,292.64c1.29,1.28.8,2.15-.06,2.84-.21.17-1.1-.05-1.17-.27C400.72,294.06,401.36,293.32,402.34,292.64Z"></path><path d="M224.57,352c-.24.23-.29.32-.37.35-1,.4-1.91.36-2.34-.8a1,1,0,0,1,.51-.86A1.58,1.58,0,0,1,224.57,352Z"></path><path d="M149.49,219.31a16.16,16.16,0,0,1-9-2.88,7.16,7.16,0,0,1-3.13-7.28,13.91,13.91,0,0,1,6.06-9.8c5.09-3.6,13-1.11,15.69,4.76.47,1,.82,2.17,1.38,3.17,1.48,2.66.93,5.06-.9,7.22A13.15,13.15,0,0,1,149.49,219.31Zm1.62-3.42c.85,0,1.86.3,2.52-.06A8.12,8.12,0,0,0,158,209.1a5.07,5.07,0,0,0-3.32-5.74c-.71-.3-1.42-.61-2.1-1-3.5-1.8-6.51-.73-9.34,1.54a4,4,0,0,0-1.45,4.38C142.87,213.41,145.9,215.89,151.11,215.89Zm-12.51-6.38c-.49,2.32.16,4.15,2.31,5.87Zm14.78-8.13.13-.7-4.64-1-.11.51Z"></path><path d="M228.14,305.47c3.2-1.31,5.8-1.36,7.66-.24-.59,1.81-2.21,1.2-3.37,1.26C231.07,306.56,229.42,307.36,228.14,305.47Z"></path><path d="M170.55,38c0,2.68,0,5.28,0,7.88a10.4,10.4,0,0,1-.13,2,1.09,1.09,0,0,1-.79.65,1,1,0,0,1-.86-.55,8.69,8.69,0,0,1-.32-2.26q0-8.85.14-17.68a10.59,10.59,0,0,1,.62-2.29c2.15,1.35,1.26,3.15,1.42,4.61a47.11,47.11,0,0,1,0,4.77c.67,0,1.13,0,1.58-.09,3.36-.43,5.1.59,5.53,3.89a72,72,0,0,1,.26,9c0,.38-.44.76-.66,1.11-1.33-.2-1.34-1.11-1.35-2,0-2.13.06-4.26,0-6.38C175.8,36.84,174.46,36.11,170.55,38Z"></path><path d="M192.27,50.46c-.08-1.1-.19-1.82-.18-2.55,0-5.7.09-11.4.14-17.1,0-2.25,1.1-3.08,3.32-2.57A5.5,5.5,0,0,1,199.66,33a6.71,6.71,0,0,1-3.77,6.88c-.42.2-.87.37-1.29.56-.35,3.22-.69,6.35-1.07,9.47C193.51,50,193.07,50.1,192.27,50.46Zm2.31-20.37V38c2.4-1.1,3.21-2.26,3.08-4.39A3.53,3.53,0,0,0,194.58,30.09Z"></path><path d="M177.87,32.27l2.56-.8c.75-1.82-.49-4,.8-5.84,1.8.41,1.49,1.74,1.5,2.81,0,1.61-.08,3.22,2,4.31-2.14.77-1.94,2.26-1.93,3.7,0,3.47,0,6.95,0,10.5l2.41.83c-.62,1.85-2,1.55-3.14,1.41s-1.47-1.13-1.47-2.17c0-2.23.06-4.45.08-6.68,0-2,0-4,0-6.15l-2.83-1.06Z"></path><path d="M188.73,31l2.51,1.31L188.66,34v13l2.46.73c-.1,2-1.56,1.45-2.56,1.59a1.55,1.55,0,0,1-2-1.26,14.08,14.08,0,0,1-.14-2.6c0-3.09.08-6.19.09-9.28,0-1.33.42-2.83-1-3.17.53-2.52,1-4.69,1.49-7C188.49,27.31,188.49,27.31,188.73,31Z"></path><path d="M215.44,25.42a9.78,9.78,0,0,1,0,2.17q-2.76,11.82-5.64,23.62c0,.14-.49.17-1.19.4a10.55,10.55,0,0,1,0-2.5c1.61-7.26,3.27-14.51,4.93-21.76C213.7,26.47,213.66,25.33,215.44,25.42Z"></path><path d="M204.64,51c-.32-2.6,4.68-24.06,6.08-26.16,1.35.29,1.13,1.22.9,2.19q-1.77,7.47-3.5,15c-.55,2.36-1,4.72-1.64,7.06C206.26,49.82,206.3,51,204.64,51Z"></path><path d="M204.6,43.79c-1.12.75-1.61,1.31-1.94,1.23a1.5,1.5,0,0,1-.93-1.13,1.48,1.48,0,0,1,1-1C203.24,42.86,203.74,43.34,204.6,43.79Z"></path><path d="M203.33,29.43c.37.75.82,1.26.78,1.73s-.65.72-1,1.07c-.36-.37-.86-.69-1-1.13C202,30.88,202.55,30.44,203.33,29.43Z"></path><path d="M231.81,95c-1.7.73-2.95,1.6-4.29,1.76A4.87,4.87,0,0,1,222,92c-.09-4.23.4-8.48.67-12.71a2.06,2.06,0,0,1,.47-1c.15-.19.48-.25.72-.36,1.31.78.65,1.9.59,2.89-.17,3.08-.41,6.17-.55,9.25a8.69,8.69,0,0,0,.27,2.59,3,3,0,0,0,2.8,2.17,2.45,2.45,0,0,0,2.61-1.46,24.93,24.93,0,0,0,1-2.69c.29-.77.3-1.79,1.72-1.81a7.15,7.15,0,0,1,.47,1.44c.09.67,0,1.36.05,2a2.8,2.8,0,0,0,2.16,2.46,2.41,2.41,0,0,0,3-1.28,23.67,23.67,0,0,0,1.82-6,78.24,78.24,0,0,0,.14-8.11c0-.93-.27-2,1.16-2.57.27.38.83.79.84,1.21.06,4.53.61,9.11-.89,13.53a14.19,14.19,0,0,1-1.25,2.91c-1.7,2.72-4.61,3.2-7.22,1.28A9.81,9.81,0,0,1,231.81,95Z"></path><path d="M253.68,89.28c.53.81,1,1.45,1.38,2.13.51.94.9,2.08,2.24,1.9s1.7-1.45,1.77-2.62c.2-3.08.26-6.17.46-9.25.07-.93-.57-2.53,1-2.5,1.3,0,.83,1.51.84,2.38,0,2.61,0,5.22-.11,7.83a14.43,14.43,0,0,1-.15,1.73c-.5,3.92-3.63,6.47-7.84,2.36A8.56,8.56,0,0,1,252,95a3.8,3.8,0,0,1-6.2-1.51,14.25,14.25,0,0,1-.93-5.36c.08-3.18.55-6.35.87-9.52a2.23,2.23,0,0,1,.35-1.08A1.21,1.21,0,0,1,247,77a1.09,1.09,0,0,1,.75.71,9,9,0,0,1-.14,1.71c-.27,3.07-.61,6.15-.73,9.23a9.7,9.7,0,0,0,.62,3.68c.71,2,2.52,2.19,3.77.53a22.93,22.93,0,0,0,1.35-2.55A6.76,6.76,0,0,1,253.68,89.28Z"></path><path d="M272.51,91c-.42.47-.65.77-.93,1-2.3,2.27-5,1.69-6-1.39s-.81-6.1-.48-9.18a11.67,11.67,0,0,1,.57-2.82c.15-.41.79-.64,1.21-.94.21.47.62,1,.6,1.41-.1,2.79-.36,5.57-.43,8.36,0,1.52.15,3.09,2,4.2l3.46-4.37c1.2,1.46,2.24,2.71,3.59,4.36,2.58-4.58.67-9.06,1.08-13.21,1.61-.35,1.91.62,1.93,1.43a68.49,68.49,0,0,1,0,9.82c-.45,3.78-3,4.53-5.83,2Z"></path><path d="M381.2,195.65l-3.81-.52c.79-2.34,2.65-1.37,4.05-2.13.07-.74.15-1.65.25-2.73-1.35,0-2.48,0-3.61,0s-2.34.67-3.26-1c2.07-1.89,4.83-.59,7.19-1.53,1.09-4.32,2.62-8.48,7.68-9.84,3.09-.82,7.66.13,9.78,2-.25,1-.85,1-1.75.79a27.6,27.6,0,0,0-4.81-1c-4.8-.41-8.19,2.84-8.32,8h3.11a9.15,9.15,0,0,1,2-.05c.46.1.83.61,1.23.94-.37.35-.71.93-1.13,1a26.72,26.72,0,0,1-3.47.22c-.67,0-1.35,0-2.28,0-.2,1.07-.39,2-.65,3.4a36.39,36.39,0,0,1,4-.18c.41,0,.79.6,1.18.92-.31.32-.59.85-.95.92-1.22.22-2.47.28-4,.44a11.48,11.48,0,0,0,1.83,8.22,5,5,0,0,0,5,1.78c2.3-.27,4.56-.83,6.85-1.16a4.84,4.84,0,0,1,1.69.45c-.37.48-.65,1.25-1.12,1.39a23.42,23.42,0,0,1-9.43,1.24,6.71,6.71,0,0,1-6-5.18A63.71,63.71,0,0,1,381.2,195.65Z"></path><path d="M164.07,96.91l4.82,2.76c3.48-3.66,5.82-8.11,9-12.46l-5.08-4.39c-3.06,1.9-4.51,5.3-7.29,7.22l-.58-.35c.1-.59,0-1.34.34-1.73,1.85-2.22,3.79-4.37,5.75-6.5a2,2,0,0,1,2.87-.18,58,58,0,0,1,4.67,3.89c1.35,1.3,1.47,2.33.43,3.89-2.41,3.62-4.85,7.22-7.47,10.68-1.85,2.46-2.72,2.44-5.35.7a12.42,12.42,0,0,1-2.1-1.53c-.35-.35-.36-1-.52-1.57Z"></path><path d="M167.33,103.39c-.31,1.26-.29,2-.63,2.37a51.22,51.22,0,0,1-4.41,5,4.28,4.28,0,0,1-2.82,1.11,9.15,9.15,0,0,1-7.13-4.4,2.93,2.93,0,0,1,.17-2.63c2.7-4,5.53-7.92,8.37-11.82a2.53,2.53,0,0,1,1.41-.88c1.2-.26,4.35,1.39,4.93,2.55.14.26-.05.69-.14,1.42l-4.5-2c-2.91,4-5.79,8-8.8,12.16a25.51,25.51,0,0,0,2.1,2.08c2.87,2.22,4.2,2.08,6.57-.62.9-1,1.74-2.08,2.69-3A11.91,11.91,0,0,1,167.33,103.39Z"></path><path d="M325.55,229.55c1.64-.47,3.3-.91,4.93-1.41a7.35,7.35,0,0,0,4.42-3.1c1.4-2.29.37-4.56-2.29-4.9a16.2,16.2,0,0,0-3.17.18,31.15,31.15,0,0,1-4.9.26c-4.37-.44-6-4.24-3.48-7.81a29.81,29.81,0,0,1,2.36-2.6c.43-1.5-1.78-2.81-.45-4.6,1.88.34,1.59,2.3,2.36,3,1.85,0,3.53,0,5.19,0,.19,0,.34.58.66,1.16-1,.23-1.83.38-2.61.61-2.24.68-4.43,1.47-5.87,3.49-1.59,2.23-.89,4.15,1.82,4.7a12.38,12.38,0,0,0,3.16,0c1.54-.11,3.08-.39,4.61-.41a4.89,4.89,0,0,1,4.75,2.77,5.21,5.21,0,0,1-.82,5.71,20.92,20.92,0,0,1-2.38,2.29,20.9,20.9,0,0,1,.94,2.44,1.38,1.38,0,0,1-.39,1.21,1.28,1.28,0,0,1-1.2-.31,15.82,15.82,0,0,1-1.28-2.13c-2.21-.33-4.31,2-6.37.31Z"></path><path d="M442,249c-.34.22-.71.7-1.07.68a40.21,40.21,0,0,1-7.47-.54c-5.55-1.31-7.33-6.58-7.57-10.52-.08-1.44.57-1.89,2-1.64,3.91.66,4.74,0,5-3.89-1.52-1.31-3.7,1.44-5.45-1.14l5.27-1.68c-.32-.86-.62-1.69-.89-2.46-3.07-.13-5.76,1.66-9.09.64.61-.66.9-1.27,1.3-1.35,5.1-1.12,10.22-2.16,15.33-3.2.24,0,.54.17.8.26-.21,1.42-.21,1.42-6.11,3.14.22.78.43,1.57.66,2.43,1.82.46,3.56-1.34,5.46-.05-.93,2.33-3.46,1.33-4.83,2.5-1,7.24-3.29,7.23-7.09,7.39.23,4.08,2.31,6.87,6,7.76a42.35,42.35,0,0,0,5.17.57C440.4,248,441.52,247.51,442,249Z"></path></svg>