<svg width="58" height="30" viewBox="0 0 58 30" fill="none" xmlns="http://www.w3.org/2000/svg">
<g clip-path="url(#clip0_9141_29185)">
<path fill-rule="evenodd" clip-rule="evenodd" d="M6.04599 2.275H51.746C54.289 2.275 55.354 3.375 55.354 5.834V24.192C55.354 26.627 54.159 27.751 51.746 27.751H6.04599C2.90599 27.751 2.43799 26.44 2.43799 24.192V5.834C2.43799 3.56 3.26899 2.275 6.04599 2.275ZM25.954 7.49L26.092 7.106C26.138 7.006 26.231 7.006 26.368 7.006H27.06C27.151 7.006 27.29 7.199 27.29 7.199V7.488H25.954V7.49ZM29.696 7.49L29.827 5.854C29.7808 5.56016 29.6455 5.28757 29.4396 5.07299C29.2336 4.85841 28.9667 4.71217 28.675 4.654C27.5114 4.53393 26.3386 4.53393 25.175 4.654C24.623 4.702 24.069 4.754 23.884 5.329L23.239 7.494H21.789L21.389 9.3H23.977L23.77 10.33C20.913 10.33 19.621 11.871 19.805 13.412C20.036 15.262 22.248 15.967 25.105 15.659L25.52 13.368H23.266C22.53 13.368 22.806 12.619 23.22 12.488L25.709 12.444L26.367 9.3H26.909L25.681 15.558L28.081 15.515L29.173 9.3H29.968L30.363 7.494H29.702L29.696 7.49ZM36.781 7.49L36.92 7.106C36.966 7.006 37.059 7.006 37.196 7.006H37.887C37.979 7.006 38.118 7.199 38.118 7.199L38.083 7.488H36.783L36.781 7.49ZM48.215 7.49L48.354 7.106C48.4 7.006 48.492 7.006 48.63 7.006H49.321C49.413 7.006 49.551 7.199 49.551 7.199L49.516 7.488H48.216L48.215 7.49ZM34.215 11.455C33.522 11.755 33.058 11.531 33.236 10.98L33.542 9.296H34.642L34.215 11.455ZM30.927 9.296C30.656 10.774 30.04 12.749 30.472 13.49C30.841 14.152 31.624 14.196 32.454 14.02C32.9419 13.9192 33.4066 13.7279 33.824 13.456L33.413 15.556L35.813 15.513L37.131 9.298H37.738L36.509 15.556L38.814 15.513L40.133 9.298H40.565L40.96 7.492H40.526L40.656 5.856C40.6099 5.56211 40.4747 5.28944 40.2687 5.07484C40.0627 4.86023 39.7958 4.71404 39.504 4.656C38.076 4.609 36.923 4.609 36.004 4.656C35.452 4.656 34.898 4.756 34.712 5.331L34.067 7.496H30.867L30.472 9.302H30.931L30.927 9.296ZM45.406 12.687H43.199L43.137 12.843L44.337 13.899L43.091 15.528L39.543 13.237L40.234 11.872C41.617 11.343 42.123 10.243 41.34 9.361L43.794 9.293H41.164L41.559 7.487H45.498L46.143 5.328C46.328 4.75 46.88 4.653 47.434 4.653C48.447 4.606 49.647 4.606 50.934 4.653C51.2255 4.71135 51.4922 4.85767 51.698 5.07224C51.9038 5.2868 52.0388 5.5593 52.085 5.853L51.954 7.488H52.387L51.987 9.294H51.557L50.238 15.509L47.938 15.552L49.166 9.294H48.564L47.245 15.509L44.845 15.552L45.406 12.687ZM43.97 10.75H45.786L46.071 9.296H44.554L43.97 10.75ZM20.708 17.269H29.008L28.408 20.096H25.586L24.341 25.701H21.591L22.577 20.096H20.112L20.708 17.269ZM32.447 19.969L32.161 21.134H33.823C34.0188 21.1368 34.2101 21.0757 34.368 20.96C34.55 20.96 34.783 20.66 34.783 20.44C34.783 20.14 34.498 19.969 33.797 19.969H32.447ZM29.903 17.269H34.678C36.002 17.269 37.844 18.583 37.844 20.021C37.844 22.478 36.572 23.791 34.393 23.791H31.486L31.045 25.701H28.191L29.903 17.269ZM10.222 17.269H13.577L15.814 21.856L16.691 17.269H19.754L17.836 25.7H14.429L12.245 21.683L11.579 25.7H8.49099L10.222 17.269ZM48.864 22.269C48.449 24.08 46.321 25.542 43.804 25.542C40.922 25.542 38.588 23.658 38.588 21.378C38.588 19.098 40.923 17.187 43.804 17.187C46.347 17.187 48.526 18.7 48.942 20.659L45.442 20.709C45.2781 20.4223 45.0394 20.1855 44.7515 20.0238C44.4635 19.8621 44.1371 19.7817 43.807 19.791C43.36 19.7622 42.9195 19.9097 42.58 20.2019C42.2405 20.4941 42.029 20.9077 41.991 21.354C42.0288 21.8004 42.2402 22.2142 42.5797 22.5064C42.9193 22.7987 43.3599 22.9461 43.807 22.917C44.3307 22.9197 44.8341 22.7148 45.207 22.347L48.864 22.269ZM5.88999 9.296L5.10899 13.896L9.39499 16.407L10.501 14.557L8.01199 12.619L8.64699 9.3H9.82799C9.94079 9.878 9.91525 10.4745 9.75344 11.0407C9.59163 11.607 9.29816 12.1269 8.89699 12.558L10.189 13.526C11.37 12.832 12.189 11.491 12.569 9.3H17.469L17.103 10.78L12.714 10.824L12.345 12.762C12.4745 13.1151 12.6832 13.4339 12.955 13.6939C13.2268 13.9539 13.5545 14.1482 13.913 14.262C14.1764 14.2717 14.4366 14.201 14.659 14.0593C14.8813 13.9177 15.0554 13.7118 15.158 13.469C15.2613 13.2452 15.3388 13.0103 15.389 12.769H16.613L15.923 15.569H18.504L20.054 9.296H20.754L21.154 7.49H5.85399L5.45399 9.296H5.88899H5.88999ZM4.43699 -0.0039978H53.017C54.2038 0.0330104 55.3293 0.532106 56.1534 1.38691C56.9776 2.24171 57.4353 3.38461 57.429 4.572V25.451C57.4121 26.6288 56.9459 27.7556 56.1259 28.6012C55.3058 29.4467 54.1937 29.9471 53.017 30H4.43699C3.25021 29.9703 2.12201 29.478 1.29309 28.6281C0.464172 27.7783 0.000141484 26.6382 -7.71537e-06 25.451V4.576C-0.013688 3.38219 0.444986 2.23134 1.27608 1.37421C2.10717 0.517087 3.24332 0.0231423 4.43699 2.38419e-06V-0.0039978Z" fill="#DDDDDD"/>
</g>
<defs>
<clipPath id="clip0_9141_29185">
<rect width="57.43" height="30" fill="white"/>
</clipPath>
</defs>
</svg>
