<svg xmlns="http://www.w3.org/2000/svg" width="213.418" height="294.21" viewBox="0 0 213.418 294.21"><defs><style>.a{fill:#ececec;}.b{fill:#fd9385;}.c{fill:#fff;}.d,.e{fill:#90b8e8;}.e,.f{stroke:#707070;}.f{fill:#2680eb;}</style></defs><g transform="translate(14304.703 17418.486)"><g transform="translate(-14304.703 -17418.486)"><g transform="translate(0 0)"><path d="M7400.571,2273.676s-5.526-8.035,3.158-13.131,54.679-22.342,54.679-22.342l41.058-14.11,3.948,3.723,16.384,27.633,6.119,14.895s-6.908,1.764-7.7,1.764h-75.8l-24.082,1.568s4.146-12.935-6.909-9.6c-4.189,1.262-3.842,2.991-3.947,4.7a9.21,9.21,0,0,0,1.382,4.9Z" transform="translate(-7312.521 -1980.954)"></path><g transform="translate(0 0)"><path class="a" d="M7207.617,1575.431s-1.58-8.427,13.422-9.407c0,0-9.87-24.5,27.043-22.538,0,0,10.659,4.117,11.646,8.819,0,0,22.108-9.211,27.24,6.861v3.724s16.186,2.156,15.988,9.211c0,0,0,11.759-15.988,11.367s-51.718-1.176-51.718-1.176-1.972-16.266-21.516-4.507Z" transform="translate(-7189.335 -1540.81)"></path><path class="a" d="M7162.33,1647.44l42.516,1.206s14.577-1.055,3.948-7.99l-3.948-1.206s1.672-22.915-22.32-7.689c0,0-9.87-7.085-14.425,6.633,0,0-9.415-4.07-7.29,7.387Z" transform="translate(-7159.021 -1594.584)"></path><path class="b" d="M7419.743,1808.927s-9.7,7.226-3.863,18.733,20.484.446,20.484.446,6.2-10.169-.985-15.523-8.985-5.174-8.985-5.174Z" transform="translate(-7322.291 -1711.531)"></path><path class="c" d="M7431.079,1833.273s6.892,4.987,12.614,0v-1.855s-3.27-3.595-2.219-6.726-2.22-4.522-2.22-4.522.7-4.175-3.854-2.319v2.319l-2.1,1.391-1.286,5.334-.935,4.523Z" transform="translate(-7333.284 -1717.975)"></path><path class="d" d="M7455.16,1876.493l4.657-1.739v10.668l-4.657,1.391Z" transform="translate(-7348.793 -1755.076)"></path><path class="e" d="M7353.725,1844.542s-.456-6.049,3.037-6.049,18.221,1.055,18.221,1.055v4.994Z" transform="translate(-7283.453 -1731.63)"></path><path class="f" d="M7327.215,1855.606a29.13,29.13,0,0,0,0,23.125h4.935s3.751,8.427,3.751,12.739l4.54-9.8,25.463-1.176s5.33.588,5.33-6.861v-9.8s-13.817-.98-15-8.233Z" transform="translate(-7264.866 -1742.693)"></path><path d="M87.141,270.169c.141-.557.29-.976.422-1.4a7.773,7.773,0,0,1,3.714-4.288c.831-.5.806-.5.192-1.153A49.4,49.4,0,0,1,87.1,258.1a42.378,42.378,0,0,0-2.834-3.295,12.477,12.477,0,0,1-2.444-3.441,2.448,2.448,0,0,0-.632-.882c-.852-.76-1.723-1.5-2.623-2.213-2.187-1.721-4.4-3.414-6.588-5.13-.787-.616-1.52-1.3-2.316-1.9-1.8-1.356-3.632-2.664-5.421-4.031-1.32-1.006-2.581-2.081-3.888-3.1-1-.781-1.988-1.579-3.057-2.264a3.6,3.6,0,0,0-2.283-.605,22.1,22.1,0,0,1-2.692.01c-1.905-.075-3.829-.048-5.709-.305a64.321,64.321,0,0,1-12.981-2.815,20.5,20.5,0,0,1-4.4-2.258,6.821,6.821,0,0,1-.932-.606,3.961,3.961,0,0,1-1.705-2.9c-.11-2.664-.363-5.337-.6-8-.111-1.244-.153-2.484-.214-3.724-.123-2.468-.193-4.94-.317-7.408a8.962,8.962,0,0,0-.307-1.726c-.036-.145-.274-.281-.45-.349A41.02,41.02,0,0,1,14.226,195.7a30.33,30.33,0,0,1-4.4-3.928,9.433,9.433,0,0,1-2.4-8.662,16.091,16.091,0,0,1,3.28-6.1.963.963,0,0,0,.017-1.409,47.469,47.469,0,0,1-3.755-6.188,18.189,18.189,0,0,1-1.895-8.078,12.882,12.882,0,0,1,1.571-6.214,9.951,9.951,0,0,1,3.324-3.988c.147-.09.147-.672-.006-.878-.5-.672-1.1-1.277-1.67-1.906a19.006,19.006,0,0,1-4.717-8.807,24.308,24.308,0,0,1-.479-3.753,19.665,19.665,0,0,1,.6-4.705,21.007,21.007,0,0,1,2.054-5.719,15.211,15.211,0,0,1,2.4-3.31,18.544,18.544,0,0,1,6.537-4.544,59.771,59.771,0,0,1,8.25-2.7c.593-.147,1.215-.185,1.818-.3a1.522,1.522,0,0,0,.425-.241c-.117-.106-.214-.261-.354-.31-.476-.168-.972-.287-1.452-.447a19.361,19.361,0,0,1-6.072-3.222,44.064,44.064,0,0,1-3.777-3.325,14.062,14.062,0,0,1-1.815-2.542A19.558,19.558,0,0,1,8.957,97.4,16.038,16.038,0,0,1,10.33,87.349c1.017-2.088,3.12-3.2,5.459-3.792a9.553,9.553,0,0,1,2.444-.527c.925.022,1.327-.53,1.817-1.016,1.222-1.212,2.368-2.495,3.621-3.677a2.487,2.487,0,0,0,.933-2.068c-.081-2.27-.059-4.545-.02-6.816.077-4.46.2-8.916.289-13.374.024-1.21,0-1.188-1.2-1.218-3.252-.082-6.5-.189-9.754-.277-.748-.02-1.5.022-2.245-.008-2-.08-4.009-.169-6.012-.287A17.91,17.91,0,0,1,3.247,54,2.869,2.869,0,0,1,2,53.443,5.005,5.005,0,0,1,0,49.4a7.881,7.881,0,0,1,2.744-6.025,5.366,5.366,0,0,1,4.093-1.564,5.27,5.27,0,0,1,1.369.286c.737.266.916.214,1.111-.376.274-.836.576-1.666.895-2.487a7.344,7.344,0,0,1,3.4-3.583,6.775,6.775,0,0,1,2.549-.639c.686-.081.931-.3.943-.948.058-2.82,1.481-4.886,3.81-6.589a17.486,17.486,0,0,1,6.021-2.689,18.064,18.064,0,0,1,3.011-.309c.815-.07,1.107-.372.848-1.053a22.261,22.261,0,0,1-1.1-9.355A12.1,12.1,0,0,1,31.536,8.7,16.19,16.19,0,0,1,34.98,4.5a19.152,19.152,0,0,1,5.266-3.033c3.69-1.5,7.6-1.617,11.5-1.372a26.016,26.016,0,0,1,4.436.746c.986.239,2.022.369,3.039.587a20.737,20.737,0,0,1,6.415,2.8,23.572,23.572,0,0,1,4.927,4.12,10.828,10.828,0,0,1,1.282,2.045c.11.19-.033.652.435.214a12.922,12.922,0,0,1,7.741-3.173,16.317,16.317,0,0,1,3.016-.257A23.747,23.747,0,0,1,89.6,8.559a15.881,15.881,0,0,1,4.674,2.666,12.232,12.232,0,0,1,3.335,5.36,18.82,18.82,0,0,1,1.158,3.51c.163,1,.811,1.192,1.554,1.233a19.726,19.726,0,0,1,6.218,1.549c1.276.507,2.468,1.2,3.715,1.778a2.181,2.181,0,0,0,.853.1c.948.011,1.9-.015,2.843.008,3.7.086,7.411.059,11.1.34,1.61.123,3.241.012,4.812.27,1.518.249,3.057.006,4.511.3a11.519,11.519,0,0,1,3.353,1.536,10.663,10.663,0,0,1,1.607,1.478c.477.432.81,1.049,1.741.659.557-.233.9.372,1.154.83a51.372,51.372,0,0,1,4.119,8.888,18.686,18.686,0,0,1,.659,3.148,46.5,46.5,0,0,1,.625,8.569,11.819,11.819,0,0,1-.6,4.314,1.1,1.1,0,0,0,0,.838,5.579,5.579,0,0,1,.272,2.731c.016,8.379.155,16.761-.053,25.135q-.154,6.19-.25,12.381c-.015.956-.207,1.909-.273,2.866a2.052,2.052,0,0,0,.228.7,3.868,3.868,0,0,0,.352-.6c.9-2.416,2.035-4.721,4.856-5.5a8.21,8.21,0,0,1,4.053-.233,34.4,34.4,0,0,1,7.4,2.634c.965.453,1.111.962.352,1.623-.477.415-.283.787-.169,1.122a42.612,42.612,0,0,1,1.527,6.795c.465,2.813.075,5.612.251,8.41-.783,2.018.135,3.869.581,5.782.479,2.051.789,4.137,1.223,6.2.359,1.7.778,3.383,1.193,5.069q.575,2.327,1.2,4.642c.519,1.925,1.04,3.848,1.6,5.762.742,2.545,1.48,5.093,2.3,7.617s1.488,5.1,2.17,7.672c.606,2.277,1.2,4.55,1.766,6.837a33.83,33.83,0,0,1,.476,9.432,25.017,25.017,0,0,1-1.215,5.892c-1.084,3.777-2.347,7.507-3.446,11.278-.364,1.25-.422,2.578-.669,3.859s-.572,2.522-.829,3.789c-.153.753-.265,1.514-.356,2.275-.214,1.765-.347,3.542-.617,5.3-.463,3.033-.46,6.089-.651,9.136-.112,1.761-.129,3.524-.25,5.282a36.334,36.334,0,0,1-.623,5.578c-.63,2.755-.943,5.6-2.266,8.19a1.267,1.267,0,0,0-.066.382,1.646,1.646,0,0,0,.509.034,10.908,10.908,0,0,1,6.879.077,5.853,5.853,0,0,1,2.473,2.008,16.855,16.855,0,0,1,2.991,6.069c.12.425.141,1.029.437,1.208s.868-.094,1.317-.187c.867-.182,1.747-.328,2.592-.575,2.064-.605,3.64.159,5.119,1.449a29.451,29.451,0,0,1,5.056,6.542c4.848,7.452,8.709,15.4,12.8,23.226,1.269,2.428,2.386,4.931,3.493,7.43.912,2.058,1.708,4.16,2.558,6.238.016.043.1.069.1.1-.036.631-.079,1.261-.121,1.89a6.7,6.7,0,0,1-1.223-1.214,46.053,46.053,0,0,1-2.184-4.11c-1.16-2.525-2.17-5.113-3.358-7.625-1.154-2.437-2.455-4.81-3.688-7.215-1.352-2.64-2.634-5.314-4.062-7.916-1.392-2.538-3-4.97-4.384-7.512a45.867,45.867,0,0,0-4.581-6.857,12.636,12.636,0,0,0-2.358-2.45,2.587,2.587,0,0,0-2.058-.138c-4.921,1.913-10.009,3.361-15.024,5.012-3.875,1.277-7.647,2.828-11.495,4.175-3.465,1.213-6.978,2.3-10.457,3.473-1.215.41-2.406.889-3.6,1.361-3.445,1.365-6.891,2.728-10.325,4.117-3.01,1.219-5.988,2.511-9.011,3.7-2.938,1.158-5.93,2.187-8.87,3.337-2,.784-3.945,1.707-5.932,2.525-2.368.973-4.76,1.891-7.137,2.85-1.315.53-2.6,1.119-3.929,1.629a12.808,12.808,0,0,1-1.639.361,3.346,3.346,0,0,0-.783.26,66.92,66.92,0,0,0-7.936,4.434,3.788,3.788,0,0,0-1.844,3.247c.018.668-.3,1.349-.255,2.009q.186,2.447.608,4.874a.869.869,0,0,0,1.046.81c1-.155,2.01-.2,3.016-.3s2.012-.195,3.019-.281c.343-.028.4-.05.154-.366-2.873-3.688-.331-8.916,3.921-10.159a6.607,6.607,0,0,1,8.585,4.782c.322,1.365.631,2.68-.328,3.9a15.787,15.787,0,0,1-1.138,1.1c-.063.065.009.247.018.375.07-.014.141-.03.212-.043a37.288,37.288,0,0,1,6.54-.463,55.246,55.246,0,0,0,7.051-.327c1.423-.2,2.838-.03,4.221-.25,1.855-.294,3.745-.031,5.558-.313a64.538,64.538,0,0,1,6.47-.229c11.178-.619,22.367-.139,33.551-.271,1.1-.013,2.221.313,3.317.249,8.087-.477,16.187-.036,24.271-.334,3.053-.114,6.135.094,9.146-.294,1.515-.195,3.087.16,4.562-.467.624-.265,1.058.314,1.256.734a1.107,1.107,0,0,1-.311,1.087,7.4,7.4,0,0,1-2.7.96,84.163,84.163,0,0,1-10.2.271c-7.048-.455-14.1.115-21.129-.28-7.7-.432-15.389-.238-23.076-.162-3.945.04-7.906.043-11.846.268a39.128,39.128,0,0,0-4.659.277c-1.523.274-3.045.014-4.519.268-1.861.322-3.747,0-5.561.3-2.367.381-4.717.1-7.068.24-1.307.075-2.611.2-3.917.277A8.1,8.1,0,0,1,114,292.7a2.649,2.649,0,0,0-1.733-.055,5.513,5.513,0,0,1-2.142.235c-2.952.108-5.922.038-8.849.349-1.717.183-3.42.1-5.12.236-2.634.219-5.257.567-7.894.733a1.63,1.63,0,0,1-1.722-1.085,10.183,10.183,0,0,1-.575-1.613,51.41,51.41,0,0,1-.575-5.587,10.66,10.66,0,0,1,.618-3.149c.413-1.41,1.732-2.113,2.85-2.931,1.029-.751,1.035-.69.53-1.727-.754-1.549-1.859-2.97-2.015-4.747-.09-1.017-.154-2.036-.229-3.2m7.633-53.115c1.006-.094,2.01-.246,3.018-.274,4.347-.118,8.7-.31,13.044-.267,5.845.058,11.692-.3,17.539.217a45.619,45.619,0,0,0,5.559-.236c1.244-.043,2.494,0,3.741-.01.954,0,1.13-.149,1.251-1.047.206-1.531.463-3.058.585-4.594.162-2.038.227-4.084.312-6.128.178-4.266-.133-8.531.242-12.809.41-4.674-.117-9.382.313-14.081.375-4.107.053-8.244.265-12.379.338-6.574-.09-13.175.379-19.758a45.388,45.388,0,0,1,.24-5,30.44,30.44,0,0,0,.336-5.978c-.108-5.5.1-10.993-.2-16.5-.377-6.9-.108-13.833-.3-20.755-.176-6.436-.156-12.885.138-19.337a130.969,130.969,0,0,0-.158-16.345c-.312-3.917-.014-7.872-.335-11.807-.214-2.6-.217-5.221-.328-7.832-.009-.214-.055-.563-.187-.615-.878-.349-1.367-1.194-2.366-1.449a16.05,16.05,0,0,0-3.384-.172c-5.388-.251-10.788-.271-16.184-.349-2.244-.033-4.491.043-6.732-.024a6.027,6.027,0,0,0-3.256.793,27.236,27.236,0,0,1-13.714,3.2q-6.6-.023-13.2-.236c-6.029-.2-12.07-.028-18.105-.063a22.444,22.444,0,0,1-4.825-.224,16.3,16.3,0,0,0-3.431-.046c-1.1,0-2.2-.029-3.292.009a29.551,29.551,0,0,0-3.2-.043c-.542.077-.669.2-.623.664a5.474,5.474,0,0,1,0,1.135c-.054.481.2.523.61.515a5.786,5.786,0,0,1,5.477,2.8c1.656,2.765,1,5.283-2.535,6.256a26.5,26.5,0,0,1-7.4.9c-3.441-.045-6.883,0-10.325-.021a8.041,8.041,0,0,1-2.286-.226c-1.467-.426-2.151.193-1.748,1.575a9.576,9.576,0,0,1,.245,2.734c.021,4.638.01,9.277.01,13.915,0,.331-.006.663,0,.994.009.4.129.3.392.118a8.355,8.355,0,0,1,3.071-1.539c1.167-.247,1.952-.086,2.519.838.491.8.941,1.62,1.438,2.416,1.329,2.129,2.679,4.249,4.017,6.373a67.814,67.814,0,0,1,4.228,7.426c.772,1.656.114,2.516-1.735,2.307a2.709,2.709,0,0,1-.515-.186q-3-1.006-6.008-2.006a10.367,10.367,0,0,1-2.215-.735c-.928-.578-1.665.122-2.494.117-1.629-.009-2.182.536-1.753,1.91a7.793,7.793,0,0,1,.232,2.594c-.037,1.808-.251,3.613-.267,5.421-.041,4.733.05,9.467-.032,14.2s.315,9.488-.246,14.228a16.092,16.092,0,0,0,.277,3.569,2.193,2.193,0,0,0,.349.852c.328.537.729,1.036,1.046,1.579a18.15,18.15,0,0,1,2.787,10.833,4.438,4.438,0,0,0,.012.993c.017.119.214.214.331.322.086-.09.214-.169.241-.273.06-.241-.117-.665.376-.554a.858.858,0,0,1,.508.582,2.865,2.865,0,0,1-.018,1.26c-.346,1.23-.726,2.455-1.165,3.659a31.2,31.2,0,0,1-2.061,4.729,14.285,14.285,0,0,1-2.586,2.81c-.3.3-.476.432-.045.829.943.872,1.761,1.863,2.669,2.771a18.479,18.479,0,0,1,3.061,4.339A21.069,21.069,0,0,1,38.8,171.35c.148.672-.143,1.53.2,2.044a2.917,2.917,0,0,1,.3,2.723c-.4,1.434-.32,2.984-.691,4.428a10.215,10.215,0,0,1-1.471,3.1,4.746,4.746,0,0,1-2.518,1.378,8.937,8.937,0,0,1-5.82.527c-.544-.159-.9.155-.935.765-.065,1.1-.262,2.194-.273,3.291a7.633,7.633,0,0,1-1.6,4.342,8.036,8.036,0,0,1-2,1.9,2.679,2.679,0,0,1-2.734.031,31.444,31.444,0,0,1-7.41-5,4.5,4.5,0,0,1-1.838-4.408c.007-.045-.008-.1,0-.142a7.651,7.651,0,0,1,1.831-4.108c.508-.5,1.368-1.047,1.352-1.551-.017-.527-.876-1.05-1.407-1.534-.3-.277-.72-.693-1.024-.651-.349.048-.631.536-.943.831a4.28,4.28,0,0,0-.42.4,8.664,8.664,0,0,0-2.06,4.577,8.079,8.079,0,0,0,2.648,6.475,29.6,29.6,0,0,0,6.783,5.026,29.966,29.966,0,0,0,7.6,3.511c1.687.413,4.336-.314,5.3-1.636a8.927,8.927,0,0,0,1.569-4.343c.214-1.984.217-3.988.339-5.985.018-.3.315-.606.264-.872-.15-.781.614-.651.938-.949.194.373.557.746.557,1.117-.008,3.006.267,6.03-.565,9-.614,2.187-1.57,4.126-3.916,5.072a.764.764,0,0,0-.587.9c.113,1.758.16,3.522.323,5.274.091.976.472,1.93.528,2.9a38.748,38.748,0,0,0,.934,3.9,3.645,3.645,0,0,0,3,3.056,35.6,35.6,0,0,0,9.073,1.143c6.643-.094,13.29.317,19.931-.241,3.238-.271,6.491.068,9.757-.243,3.774-.359,7.59-.281,11.392-.337,3.092-.045,6.185-.01,9.577-.01m52.231-89.614c.18,7.153-.226,14.307.235,21.467a47.521,47.521,0,0,1-.19,9.966c-.336,2.3.053,4.644-.294,6.982-.334,2.25.057,4.55-.3,6.84-.331,2.108-.091,4.265-.274,6.414-.35,4.107-.142,8.246-.3,12.374-.268,7.185-.061,14.387-.088,21.58a29.739,29.739,0,0,1-.3,3.43c-.091.754-.26,1.5-.422,2.245a27.332,27.332,0,0,1-2.233,5.228,3.036,3.036,0,0,1-.843,1.079c-.76.612-1.6,1.138-2.383,1.723-3.628,2.705-7.868,3.661-12.356,3.919a2.072,2.072,0,0,1-.89-.014c-1.313-.6-2.747-.112-4.119-.487a9.659,9.659,0,0,0-3,.214c-2.61.2-5.219.44-7.833.557-4.045.181-8.109-.283-12.146.3-12.728.021-25.458-.109-38.184.284-.2.006-.4,0-.6,0a.818.818,0,0,0-.3.007c-.112.048-.268.136-.281.224a.392.392,0,0,0,.166.329,25.615,25.615,0,0,1,3.861,2.822c1.682,1.337,3.488,2.532,5.2,3.84,1.434,1.1,2.754,2.329,4.214,3.391a84.686,84.686,0,0,1,9.117,7.547c2.389,2.316,4.744,4.658,7.09,7.01a24.246,24.246,0,0,1,4.413,5.656c.3.571.372.434.768.186a18.3,18.3,0,0,1,2.058-1.111c4.987-2.286,9.967-4.586,14.98-6.818,2.419-1.078,4.909-2.009,7.357-3.028,3.125-1.3,6.32-2.436,9.481-3.65,4.791-1.838,9.654-3.481,14.5-5.182,3.892-1.366,7.733-2.886,11.683-4.078,3.6-1.085,6.832-2.873,10.284-4.217a1.077,1.077,0,0,0,.772-1.4,23.441,23.441,0,0,1-.549-3.032,47.987,47.987,0,0,1,.335-7.115c.2-1.342.168-2.707.5-4.04.244-.969.165-2.007.34-3,.462-2.6,1.087-5.182,1.455-7.8q.5-3.549,1.221-7.053c.429-2.062.612-4.188,1.244-6.191,1.341-4.259,1.989-8.7,3.821-12.834a26.115,26.115,0,0,0,1.453-4.82,21.448,21.448,0,0,0,.976-6.3c-.126-1.758.186-3.522-.274-5.285-.343-1.308-.242-2.731-.665-4.006-.937-2.828-1.544-5.731-2.378-8.576-1.115-3.81-2.458-7.563-3.547-11.379-1.012-3.546-1.816-7.145-2.72-10.72-.489-1.936-1.022-3.862-1.486-5.8-.343-1.435-.627-2.884-.9-4.331-.144-.758-.195-1.531-.31-2.295-.147-.953-1.19-1-1.762-1.526a25.84,25.84,0,0,1-3.59-3.988c-2.69-3.78-4.358-7.858-3.9-12.512a5.231,5.231,0,0,1,.636-2.012,1.98,1.98,0,0,1,1.606-.733c1.123-.133,2.233-.364,3.352-.53.386-.057.786-.018,1.172-.07.118-.016.214-.188.32-.288a1.813,1.813,0,0,0-.35-.212c-1.878-.624-3.724-1.3-5.66-1.8a6.046,6.046,0,0,0-6.135,2.251,18.358,18.358,0,0,0-2.444,6.557c-.116.664-.007,1.521-.407,1.946a2.311,2.311,0,0,0-.479,1.961c.149,5.261-.339,10.53.266,15.788a38.237,38.237,0,0,1,.022,4.117M22.034,36.12c.566-.016,1.072.086,1.394-.657a5.115,5.115,0,0,1,1.533-1.8,22.779,22.779,0,0,1,2.573-1.625,10.619,10.619,0,0,1,5.433-1.6,22.728,22.728,0,0,1,3.622.241,10.852,10.852,0,0,1,6.253,2.793,18.661,18.661,0,0,1,4.46,7.314c.116.343.182.494.538.439a14.292,14.292,0,0,1,1.672-.271c2.751-.09,5.5,0,8.258-.236a41.23,41.23,0,0,1,6.757.161c4.027.32,8.087.125,12.139.28,6.621.253,13.261.091,19.892.043a14.291,14.291,0,0,0,3.063.113,27.974,27.974,0,0,0,6.241-1.848,34.5,34.5,0,0,0,4.545-2.6,5.01,5.01,0,0,0,1.869-2.513c1.158-3.141-.615-6.382-2.845-8.123a12.391,12.391,0,0,0-3.355-1.529,25.794,25.794,0,0,0-6.6-1.685,2.445,2.445,0,0,1-2.512-2.073,26.017,26.017,0,0,0-1.851-5.221c-1.524-3.442-4.651-5.024-8.2-6.014A17.563,17.563,0,0,0,80.826,9.1a17.238,17.238,0,0,0-4.993,1.266,10.641,10.641,0,0,0-3.961,2.907,1.154,1.154,0,0,1-2.049-.572,2.048,2.048,0,0,0-.651-1.176,22.235,22.235,0,0,1-1.689-1.891,17.067,17.067,0,0,0-8.546-6.073,17.273,17.273,0,0,0-6.194-1.252c-1.111.055-2.211.118-3.322.246a21.716,21.716,0,0,0-6.884,2.078,23.967,23.967,0,0,0-6.432,4.479c-.57.557-1.282.979-1.87,1.52-1.5,1.377-2.977,2.764-2.787,5.009.105,1.238.024,2.471.253,3.723a15.149,15.149,0,0,0,.888,3.5,4.213,4.213,0,0,1,.353,1.558c.027.992-.382,1.349-1.411,1.476-1.415.174-2.839.317-4.238.576-3.06.567-5.754,1.8-7.454,4.393a5.283,5.283,0,0,0-.963,3.6.829.829,0,0,0,.772.82,14.1,14.1,0,0,1,2.387.835M92.679,229.267c2.75-.149,5.495.065,8.265-.214,3.271-.332,6.593-.04,9.9-.313,3.334-.274,6.7-.229,10.049-.322a1.409,1.409,0,0,0,.446-.007,16.649,16.649,0,0,1,6.066-.858,21.444,21.444,0,0,0,3.166-.288c1.841-.322,3.682-.674,5.489-1.138,1.935-.5,3.744-1.267,4.765-3.068a24.948,24.948,0,0,0,1.672-3.176,19.11,19.11,0,0,0,1.2-6.622c.017-.953-.289-1.912-.261-2.863.129-4.46-.309-8.919.252-13.379.273-2.166-.1-4.365.281-6.561.29-1.679.013-3.416.3-5.137s.12-3.511.273-5.277c.3-3.4.082-6.825.321-10.249.363-5.2-.266-10.431.319-15.647.257-2.311-.156-4.658.29-6.986a12.6,12.6,0,0,0-.25-2.291c-.077-8.008.125-16.018-.284-24.025-.166-3.259-.088-6.533-.014-9.8.121-5.262-.229-10.524.237-15.792.346-3.918.316-7.87.334-11.807q.064-13.491,0-26.982a46.859,46.859,0,0,0-.214-5.855c-.28-2.177-.4-4.384-.64-6.576a33.7,33.7,0,0,0-1.186-5.218,19.236,19.236,0,0,0-2.766-5.868c-1.136-1.642-2.079-3.5-4.021-4.506-1.094-.569-2.058-1.387-3.422-1.428a45.1,45.1,0,0,1-5.423-.217c-2.215-.33-4.491,0-6.759-.289-2.771-.357-5.617.271-8.4-.324a.419.419,0,0,0-.361.146.39.39,0,0,0,.1.367,7.006,7.006,0,0,1,1.4,2.15,7.21,7.21,0,0,1-1.069,8.409c-.137.155-.245.333-.366.5.19.021.38.055.571.062,4,.143,8-.161,12,.239,3.276.326,6.6.239,9.9.329a9.726,9.726,0,0,0,1.793-.012c2.224-.36,3.539,1.1,5.028,2.2.156.116.172.4.257.6.69,1.572.257,3.256.523,4.888.418,2.569.09,5.206.3,7.829.365,4.533.068,9.1.3,13.656.226,4.49-.032,9.009-.137,13.514-.161,6.911-.292,13.835.162,20.759.4,6.147-.049,12.317.265,18.487a84.457,84.457,0,0,1-.192,14.509c-.229,1.887-.129,3.8-.257,5.706-.346,5.156.14,10.331-.323,15.5-.368,4.108,0,8.244-.265,12.38-.337,5.2-.055,10.427-.343,15.644-.179,3.259.028,6.532-.05,9.8-.079,3.322.233,6.642-.239,9.971-.313,2.2.1,4.464-.311,6.7-.268,1.447-.212,2.947-.343,4.42a2.967,2.967,0,0,1-.353,1.415c-.407.579-.935,1.372-1.536,1.485a33.239,33.239,0,0,1-5.726.608c-14.126.192-28.259-.307-42.38.308-2.5.109-5-.06-7.516.223-3.021.338-6.1-.063-9.153.307-2.53.305-5.092-.007-7.661.257-3.272.337-6.6.146-9.9.271a71.172,71.172,0,0,1-12.3-.185c-1.634-.222-3.3-.067-4.969-.24a31.263,31.263,0,0,1-6.083-1.2,4.3,4.3,0,0,1-2.862-2.647A36.4,36.4,0,0,1,28.8,207.73c-.283-1.828-.231-3.7-.339-5.557-.019-.322.219-.789-.5-.754-.557.027-.968.123-.991.741-.007.189-.008.379,0,.568a33.8,33.8,0,0,0,.244,4.151c.283,1.729-.035,3.512.317,5.274.26,1.3.052,2.654.276,4,.271,1.632.091,3.32.311,4.992a4.05,4.05,0,0,0,1.755,2.973,23.4,23.4,0,0,0,5.989,2.724,64.047,64.047,0,0,0,12.713,2.379c2.873.315,5.8.257,8.7.317,2.045.043,4.09.009,6.136.009,1,0,2,.04,2.993-.012.968-.05,1.916.114,2.9.05,3.094-.2,6.2-.278,9.3-.31,4.588-.047,9.179-.013,14.068-.013m52.684,14.486c-1.832.6-3.688,1.148-5.492,1.819-4.548,1.694-9.158,3.231-13.7,4.943-4.16,1.566-8.342,3.087-12.362,4.924-6.87,3.145-13.768,6.256-20.357,9.92a15.223,15.223,0,0,0-3.169,2.308,5.451,5.451,0,0,0-1.55,4.581,13.131,13.131,0,0,0,2.2,5.36c.37.569.726.686,1.325.349,2.837-1.587,5.673-3.173,8.647-4.526,2.249-1.024,4.425-2.2,6.69-3.186,2.594-1.133,5.242-2.156,7.882-3.194,2-.785,4.018-1.536,6.04-2.273,2.5-.909,5-1.789,7.509-2.677,3.369-1.194,6.735-2.4,10.111-3.572,2.6-.9,5.244-1.7,7.813-2.669,3.337-1.264,6.612-2.676,9.928-3.991,2.848-1.13,5.755-2.135,8.567-3.337,3.754-1.6,7.653-2.815,11.531-4.092.569-.187,1.15-.338,1.726-.5a16.033,16.033,0,0,0-.567-1.59c-.775-1.638-1.491-3.309-2.414-4.868-.838-1.417-2.046-2.579-4-2.223a36.666,36.666,0,0,0-4.16,1.085c-2.284.7-4.556,1.439-6.818,2.2-3,1.014-5.979,2.069-8.968,3.1-2.037.706-4.074,1.406-6.412,2.108M25.327,53.162c2.9.095,5.8.234,8.7.273,3.538.048,7.075,0,10.616.014A19.129,19.129,0,0,0,51.18,52.33c1.693-.6,1.811-1.379,1.337-2.89-.519-1.66-2.034-2.668-4.215-2.5-1.772.138-2.612-.53-3.329-2.444a35.365,35.365,0,0,1-1.789-6.382c-.429-2.5-2.924-4.192-5.339-4.513a12.853,12.853,0,0,0-6.928,1.2,21.919,21.919,0,0,0-5.086,3.093c-1.208.994-1.86.975-3.3.221a18.271,18.271,0,0,0-2.12-.963c-1.691-.628-3.456-1.123-5.221-.439A6.409,6.409,0,0,0,11.41,40.53c-.313.824-.539,1.682-.914,2.478-.69,1.466-1.25,1.587-2.632.686-.991-.643-1.125-.632-2.257.052a9.761,9.761,0,0,0-1.217.623c-1.574,1.307-3.042,2.69-2.26,4.964.7,2.036,1.379,3.205,4.155,3.275,1.9.048,3.8.032,5.715.2,3.225.281,6.5-.008,9.74.337,1.083.115,2.191.018,3.587.018M27.123,129c-.882-1.026-1.771-2.046-2.641-3.081-.4-.472-.247-1.014.311-1.544a1.122,1.122,0,0,0,.368-.7c.026-2.555.018-5.111.014-7.666,0-.408-.184-.432-.557-.272-1.092.466-2.195.914-3.312,1.322-3.465,1.268-7,2.289-9.956,4.661a15.933,15.933,0,0,0-4.765,6.509,51.139,51.139,0,0,0-1.438,5.11,8.211,8.211,0,0,0-.3,2.431,16.818,16.818,0,0,0,.292,2.72c.1.557.381,1.088.493,1.647a14.519,14.519,0,0,0,3.114,6.01,27.893,27.893,0,0,0,3.578,3.7c1.847,1.616,3.8,3.122,5.753,4.627a28.132,28.132,0,0,0,3.342,2.288,5.208,5.208,0,0,0,2.262.609,7.325,7.325,0,0,0,5.737-2.836,15.12,15.12,0,0,0,3.943-7.959,18.992,18.992,0,0,0-.175-6.295c-.548-2.906-2.16-5.489-3.8-8-.689-1.057-1.408-2.1-2.262-3.287m4.637,33.089c-.776-.736-1.564-1.458-2.322-2.213a1.18,1.18,0,0,0-1.483-.257c-1.327.46-2.795.787-4.031-.395-.135-.129-.455-.081-.686-.119-.371-.063-.741-.132-1.112-.193-2.573-.425-4.331-2.114-6.194-3.62-1.193-.964-2.329-1.991-3.473-3.008a.756.756,0,0,0-1.135-.065,11.416,11.416,0,0,0-4.366,7.358,13.3,13.3,0,0,0,.709,6.372,31.1,31.1,0,0,0,2.824,5.991c1.606,2.551,3.216,5.1,5.749,6.928a25.178,25.178,0,0,0,3.9,2.367,28.642,28.642,0,0,0,4.514,1.64c3.074.864,6.171,1.538,9.37.4a3.394,3.394,0,0,0,2.23-2.076,12.548,12.548,0,0,0,.911-5.326,22.537,22.537,0,0,0-.06-3.254,33.009,33.009,0,0,0-1.452-4.1,24.51,24.51,0,0,0-3.891-6.419M25.327,108.55a3.078,3.078,0,0,0,.143-.651q.013-6.175.006-12.354c0-.237.086-.512-.014-.7a6.261,6.261,0,0,1-.2-3.853c.114-.823-.048-1.175-.672-1.455a1.6,1.6,0,0,1-.907-1.544,7.884,7.884,0,0,1,0-1.56,1.068,1.068,0,0,0-.741-1.11,10.653,10.653,0,0,0-4.708-.555,11.558,11.558,0,0,0-3.995,1.407,4.731,4.731,0,0,0-2.268,2.177,19.023,19.023,0,0,0-1.441,5.818,12.745,12.745,0,0,0,.261,2.293,14.2,14.2,0,0,0,2.121,6.266,16.408,16.408,0,0,0,4.94,5.848c2.114,1.378,4.09,2.951,6.69,3.553.7.163.629-.026.628-.452a22.3,22.3,0,0,1,.149-3.124m-1.648,75.98-4.8-2c-.686-.286-1.524-.956-2.022-.775-.744.268-1.256,1.128-1.854,1.748a1.951,1.951,0,0,0-.392.552c-.643,1.474-1.589,2.926-.505,4.569a3.64,3.64,0,0,0,.617.746,32.028,32.028,0,0,0,2.735,2.292c1.4.969,2.858,1.859,4.342,2.7a1.506,1.506,0,0,0,2.027-.321,9.52,9.52,0,0,0,2.253-5.207,7.166,7.166,0,0,1,.785-3.093.524.524,0,0,0-.153-.484c-.954-.222-1.92-.4-3.032-.729m3.293-83.508v21.87a11.679,11.679,0,0,0,.06,2.968,7.369,7.369,0,0,0,1.445,2.119,2.438,2.438,0,0,0,.5.395,3.431,3.431,0,0,0,.083-.534c0-4.591-.064-9.184.023-13.774.086-4.552-.2-9.1.22-13.662.306-3.288.062-6.622.054-9.935,0-.218-.008-.53-.149-.638-.426-.325-2.262.093-2.385.574-.1.382.135.828.137,1.247.015,3.03.008,6.059.008,9.372m129.615,3.409c.07.067.189.125.2.2.883,4.318,3.36,7.789,6.448,10.935a4.233,4.233,0,0,0,.421.331,1.549,1.549,0,0,0,.1-.522,28.977,28.977,0,0,1-.563-3.453,54.423,54.423,0,0,0-.9-7.164c-.326-1.934-.466-3.9-.6-5.859-.037-.554-.235-.65-.7-.574-1.115.182-2.235.343-3.333.588a1.174,1.174,0,0,0-.756.631,5.44,5.44,0,0,0-.539,2.573c.156.691.094,1.359.214,2.311M100.162,292.04a16.405,16.405,0,0,1,1.67-.271c.744-.048,1.495.009,2.24-.03.15-.007.426-.26.409-.364-.148-.888.48-1.45.954-2.044a1.963,1.963,0,0,0-.024-2.809c-1.8-1.869-4.184-2.244-6.677-2.117a4.679,4.679,0,0,0-2.048.746c-.866.523-.924,1.474-1.224,2.344a3.446,3.446,0,0,0,.565,3.126,2.9,2.9,0,0,0,3.24,1.426,6,6,0,0,1,.9-.006M34.008,74.183c-1.337.7-2.682,1.387-4.006,2.109-.429.233-.441.531-.039.883,1.7,1.487,3.413,2.961,5.045,4.512,1.7,1.617,3.374,3.272,4.953,5,1.023,1.118,2.6,1.749,3.171,3.254a.2.2,0,0,0,.1.1c.238.093.48.179.72.268a2.3,2.3,0,0,0-.166-.581q-1.407-2.354-2.842-4.693-2.734-4.452-5.481-8.9a8.7,8.7,0,0,0-1.461-1.952M26.375,60.691q0,7.951-.007,15.9a1.372,1.372,0,0,0,.8,1.4,29.6,29.6,0,0,1,3.587,2.77c1.217,1.011,2.387,2.074,3.59,3.1a2.979,2.979,0,0,0,.611.307c.108.054.212.113.318.172-.017-.162.032-.383-.061-.476-.757-.753-1.511-1.514-2.324-2.211-1.624-1.395-3.316-2.719-4.918-4.136-.875-.775-.832-1.247,0-2.138a1.4,1.4,0,0,0,.515-1.085c-.2-4.786.333-9.584-.3-14.365-.181-1.372-.235-2.759-.3-4.141-.026-.539-.143-.948-.8-.914s-.724.472-.717.986c.018,1.515.006,3.029.006,4.828m-4.789,21.87c.09.257-.253.662.386.729a10.034,10.034,0,0,1,1.745.442c2.291.677,4.5,1.587,6.76,2.316a56.054,56.054,0,0,1,7.087,2.279c.114.054.323-.069.488-.109-.086-.135-.139-.337-.265-.394-2.4-1.089-4.245-2.882-6.292-4.412-1.6-1.2-3.084-2.533-4.631-3.8-.914-.746-1.364-.732-2.266.1-.968.887-1.907,1.8-3.009,2.848M169.015,212.225c-.151,0-.356-.582-.429-.034a29.766,29.766,0,0,1-.371,3.832c-.317,1.2-.307,2.409-.515,3.6-.237,1.353-.04,2.791-.379,4.113-.419,1.629-.111,3.237-.245,4.849a1.068,1.068,0,0,0,.121.373,1.122,1.122,0,0,0,.166-.314c.407-2.532.9-5.056,1.17-7.6.186-1.741-.024-3.511.311-5.262a15.668,15.668,0,0,0,.172-3.559M37.9,5.444a3.494,3.494,0,0,1,.654-.557c1.386-.7,2.792-1.361,4.182-2.052.156-.078.254-.26.38-.393-.182-.04-.386-.15-.541-.106-.44.122-.861.3-1.286.467a17.36,17.36,0,0,0-5.021,2.836A25.5,25.5,0,0,0,33.49,8.78a1.243,1.243,0,0,0-.142.3c.135.005.327.068.4.006.614-.553,1.188-1.146,1.81-1.69.713-.623,1.462-1.208,2.346-1.951M30.116,87.534l-3.963-1.2c-.2-.06-.472-.192-.605-.118a1.046,1.046,0,0,0-.32,1.385c.124.339.818.823,1.052.736,1.158-.429,2.332-.129,3.486-.235.292-.027.292-.029.35-.568M32.361,32a13.538,13.538,0,0,0-4.846,1.849,6.965,6.965,0,0,0-2.744,2.513,1.575,1.575,0,0,0-.074.3c.1.009.211.054.282.018a1.387,1.387,0,0,0,.331-.265,18.232,18.232,0,0,1,7.335-3.981c.241-.079.686.118.578-.348-.028-.12-.466-.154-.864-.086m67.5,250.664c-.214.263-.292.585.169.551a8.286,8.286,0,0,1,3.675.808c.129.051.329-.057.5-.091-.082-.138-.127-.335-.251-.406a6.237,6.237,0,0,0-4.09-.862m63.909-176.815c.027.12.052.239.079.359.064-.017.186-.043.186-.048C164.006,106.01,163.963,105.86,163.772,105.852Z" transform="translate(0 0.004)"></path><path d="M88.288,407.23a3.3,3.3,0,0,1-1.412-2.929c.018-.535-.567-1.078,0-1.592a.971.971,0,0,1,.584-.214c.1,0,.268.2.3.338.286,1.372.552,2.751.809,4.13C88.572,407.014,88.431,407.092,88.288,407.23Z" transform="translate(-73.661 -345.329)"></path><path d="M106.572,453.247a2.8,2.8,0,0,1-2.316-2.387c0-.123.082-.352.131-.353.332-.009.937-.026.958.064C105.573,451.54,106.631,452.129,106.572,453.247Z" transform="translate(-88.653 -386.518)"></path><path d="M138.846,488.773c-.686-.253-1.466-.383-1.8-1.029a3.1,3.1,0,0,1-.111-1.134,2.841,2.841,0,0,1,1,.337,8.934,8.934,0,0,1,1.154,1.368C139.132,488.375,138.981,488.569,138.846,488.773Z" transform="translate(-116.437 -417.5)"></path><path d="M412.219,712.792a2.743,2.743,0,0,0-1.706,1.961c-.744,1.982-1.4,3.994-2.118,5.984-.253.7-.61,1.372-.883,2.066a.815.815,0,0,1-.864.579c-.508,0-.839-.129-.946-.643-.063-.3-.28-.587-.279-.878.01-3.416-1.129-6.6-2.116-9.824-.366-1.2-.914-1.346-2.256-1.2a15.105,15.105,0,0,1-3.388-.095,2.355,2.355,0,0,1-2.094-2.505c-.1-1.867-.7-3.641-.9-5.47a60.155,60.155,0,0,1-.312-6.552,38.463,38.463,0,0,1,.318-5.557,20.919,20.919,0,0,1,1.2-4.065,1.412,1.412,0,0,1,1.009-.686c1.4-.152,2.759-.588,4.258-.095a9.938,9.938,0,0,0,3.269.049c.51-.017.734-.339.714-.847a14.334,14.334,0,0,1,.012-2.269,5.046,5.046,0,0,1,.549-2.044,2.55,2.55,0,0,1,2.345-1.094c4.838.036,9.676,0,14.514.029.957.006,1.912.18,2.869.27a.858.858,0,0,0,.976-.61c.844-1.846,1.69-3.7,2.68-5.476a11.149,11.149,0,0,1,7.51-5.267c3.742-.93,6.885.379,9.685,2.579a21.851,21.851,0,0,1,3.767,3.606,9.973,9.973,0,0,1,2.392,5.867,17.6,17.6,0,0,1,.263,2.01c-.273,2.853-1.029,5.541-3.256,7.662-.261.249-.363.68-.653.864-1.438.914-1.566,2.23-1.473,3.7.084,1.32-.021,2.65.029,3.974a31.868,31.868,0,0,1,.257,3.43c-.178,2.429-1.024,3.259-3.7,3.509-.148.014-.3,0-.449,0-1.024,0-.858.065-1.262,1.044-.367.887-.067,1.844-.7,2.718a5.071,5.071,0,0,1-2.464,1.913c-.862.313-1.738.6-2.625.838a2.3,2.3,0,0,1-1.038.01c-2.787-.591-5.606-.165-8.408-.261-2.042-.07-4.09-.051-6.132,0-2.154.05-4.309.153-6.459.289a10.671,10.671,0,0,0-2.135.482m9.8-2.2c4.389,0,8.779.015,13.169-.013a7.885,7.885,0,0,0,2.556-.306c1.274-.456,2.654-.938,2.854-2.539a8.415,8.415,0,0,0,.125-.943c.013-1.467,0-2.934.008-4.4a16.017,16.017,0,0,0-.569-3.6,7.177,7.177,0,0,1-.136-2.936c.136-.66-.051-.579-.5-.6a22.854,22.854,0,0,1-3.476-.239c-3.781-.76-6.983-2.25-8.778-5.681a3.586,3.586,0,0,0-3.624-2.051c-5.536.061-11.073-.009-16.609.035-3,.024-6,.185-9.005.264a1.094,1.094,0,0,0-1.056.692,5.715,5.715,0,0,0-.572,2.626c-.138,1.536-.477,3.058-.557,4.595a27.1,27.1,0,0,0,.557,6.3c.389,2.139.662,4.3.894,6.461.081.747.386.953,1.109.93,1.146-.035,2.3.021,3.441-.017a2.763,2.763,0,0,1,2.726,1.615,25.479,25.479,0,0,1,2.331,7.747c.039.2.109.54.219.561.5.1.3-.314.383-.545.692-1.858,1.31-3.747,2.151-5.542a3.1,3.1,0,0,1,2.433-1.822c2.3-.249,4.62-.416,6.933-.576.893-.061,1.8-.01,2.992-.01m8.082-20.167c.849.568,1.656,1.207,2.557,1.688a16.946,16.946,0,0,0,4.891,1.509,9.892,9.892,0,0,0,5.121-.153,13.8,13.8,0,0,0,7.062-5.705,9.187,9.187,0,0,0,1.187-5.364,10.745,10.745,0,0,0-1.537-5.36,16.188,16.188,0,0,0-5.192-5.308,9.6,9.6,0,0,0-5.065-1.737,10.3,10.3,0,0,0-7.155,2.771,10.9,10.9,0,0,0-3.1,4.88c-.892,2.566-1.47,5.105-.491,7.765a.914.914,0,0,1-.1.753c-.566.765-.29,1.329.272,1.982s.938,1.422,1.544,2.283m-19.457-9.373c-.9,0-1.792-.013-2.688,0q-1.316.024-1.349,1.254c-.02.755-.008,1.512,0,2.267.009,1.295.011,1.3,1.427,1.3l16.428.007a11.1,11.1,0,0,1,1.286.126c.172.021.341.071.511.108-.037-.195-.086-.388-.108-.584a9.188,9.188,0,0,1-.086-.958c-.012-.85-.028-1.7,0-2.551.026-.71-.289-1.044-1.035-.972a23.4,23.4,0,0,1-2.564.262c-1.4-.022-2.8-.226-4.208-.252-2.438-.043-4.878-.012-7.617-.012m31.88,15.48c0,2.355.014,4.711-.01,7.066-.006.542.04.756.686.481a5.606,5.606,0,0,1,1.506-.3c1.076-.129,1.134-.131,1.1-1.179-.071-2.27-.191-4.538-.29-6.807a1.877,1.877,0,0,0,0-.282c-.315-1.592-.316-1.591-1.968-.828-.165.076-.333.148-.5.214-.961.389-.961.388-.516,1.632Z" transform="translate(-335.331 -573.348)"></path><path d="M403.9,739.753c.174.926.286,1.78.366,2.638a1.561,1.561,0,0,1-.112.659c-.043.12-.2.2-.3.3-.057-.1-.122-.2-.172-.312-.2-.438-.429-.869-.594-1.32-.288-.783-.5-1.59-.815-2.364-.221-.55-.072-.946.475-1.072a.7.7,0,0,1,.939.752A1.943,1.943,0,0,0,403.9,739.753Z" transform="translate(-341.972 -633.401)"></path><path d="M374.61,699.1a16.527,16.527,0,0,0-1.553-1.443c-.429-.31-.144-.581,0-.731.166-.169.664-.326.75-.243.871.853,1.7,1.745,2.5,2.659.1.113-.056.424-.093.643a1.887,1.887,0,0,1-.5-.129C375.362,699.646,375.028,699.4,374.61,699.1Z" transform="translate(-317.029 -597.718)"></path><path d="M332.53,660.287c.975-.1,1.367.6,1.973.906a3.54,3.54,0,0,1,.845.78c.247.254.472.528.706.793a5.2,5.2,0,0,1-1.2-.152,16.878,16.878,0,0,1-1.969-.915,2.248,2.248,0,0,1-.874-.667C331.856,660.78,331.674,660.27,332.53,660.287Z" transform="translate(-282.207 -566.502)"></path><path d="M495.744,1558.609c-4.407.071-8.739.086-13.07.061a5.76,5.76,0,0,1-2.436-.232,3.125,3.125,0,0,0-1.727.068c-1.167.263-2.1-.249-2.123-1.415-.023-1.139.212-2.282.257-3.425.026-.656.714-.6.922-.619,1.577-.109,3.1-.529,4.669-.688a112.253,112.253,0,0,1,12.281-.149c1.737.016,3.5.179,5.254.233a13.8,13.8,0,0,1,2.264.283,3.726,3.726,0,0,1,2.492,2.7c.142,1.94-.711,2.439-2.625,2.663-2.015.234-4.056.3-6.16.517m5.313-4.474c-.9-.094-1.807-.234-2.714-.275-2.646-.115-5.289-.018-7.947-.223a63.678,63.678,0,0,0-8.382.237,12.754,12.754,0,0,0-2.588.555c-.96.26-1.161.713-.971,1.875.133.815.785.67,1.349.67,6.074,0,12.148.017,18.222-.011,1.154,0,2.309-.16,3.46-.28a2.478,2.478,0,0,0,1.056-.3c.264-.168.778-.4.277-.865a9.611,9.611,0,0,0-1.761-1.379Z" transform="translate(-405.085 -1331.683)"></path><path d="M80,956.292a10.99,10.99,0,0,1,.809,1.059,6.9,6.9,0,0,1,.58,5.894A4.508,4.508,0,0,1,80.21,964.9a18.4,18.4,0,0,1-3.045,2.791c-2.785,1.768-4.434.888-6.533-.695s-4.211-3.173-6.256-4.823a14.377,14.377,0,0,1-1.9-2.082,1.172,1.172,0,0,1-.2-.763,11.978,11.978,0,0,1,2.759-7.13,5.8,5.8,0,0,1,3.544-1.771,3.106,3.106,0,0,1,1.509.266,26.26,26.26,0,0,1,6.046,2.563c1.327.9,2.532,1.972,3.867,3.036m-13.845-.355c-.2.206-.488.38-.583.622-.368.943-.586,1.952-1.035,2.858-.31.628-.132.875.38,1.217,1.09.729,2.172,1.473,3.191,2.286a41.947,41.947,0,0,0,4.277,3.228c1.589.97,2.55.943,4.3-.352a19.509,19.509,0,0,0,2.108-1.979,4.261,4.261,0,0,0,.011-6.132,14.746,14.746,0,0,0-6.861-3.838c-1.509-.449-3.208-.8-4.576.528a6.573,6.573,0,0,0-1.214,1.561Z" transform="translate(-52.951 -815.429)"></path><path d="M81.231,1145.878a4.488,4.488,0,0,1-.927-4.4c.238-.868.222-1.8.414-2.677a9.4,9.4,0,0,1,3.069-5.464,4.185,4.185,0,0,1,5.075-.594,37.432,37.432,0,0,1,7.909,5.791,11.432,11.432,0,0,1,2.606,3.207,4.446,4.446,0,0,1,.228,3.388,12.431,12.431,0,0,1-2.625,4.911c-1.809,2.01-2.981,2.514-5.69,1.723a21.5,21.5,0,0,1-8.626-4.53c-.462-.418-.9-.855-1.431-1.355m1.871-5.61a17.129,17.129,0,0,0-.725,1.844,4.784,4.784,0,0,0-.334,2.187,3.392,3.392,0,0,0,1.323,1.587,23.054,23.054,0,0,0,8.424,4.346,3.556,3.556,0,0,0,3.647-.967,20.027,20.027,0,0,0,2.2-3.532c.457-1,1.069-2.193.325-3.238a22.3,22.3,0,0,0-3.167-3.575c-1.276-1.155-2.764-2.1-4.15-3.143a1.405,1.405,0,0,0-1.623-.214c-.57.274-1.244.349-1.833.6a6.593,6.593,0,0,0-3.454,2.656,6.716,6.716,0,0,0-.636,1.453m1.946-4.687c.87-.378,1.738-.761,2.612-1.132a3.845,3.845,0,0,1,.529-.144c-.183-.143-.35-.383-.552-.413a3.207,3.207,0,0,0-3.288,1.237c-.3.408-1.126.515-.839,1.266a7.137,7.137,0,0,1,1.537-.812Z" transform="translate(-68.102 -971.355)"></path><path d="M439.2,901.265a24.6,24.6,0,0,0-2.731.217,12.754,12.754,0,0,1-3.3-.221.6.6,0,0,1-.242-.129,4.886,4.886,0,0,1-.911-3.045,3.613,3.613,0,0,1,2.187-1.38c1.994-.357,4.017-.115,6.006-.3,6.187-.569,12.382-.092,18.568-.25,1.338-.034,1.66.294,1.672,1.516.007.615.023,1.23,0,1.844a1.815,1.815,0,0,1-1.323,1.712,9.5,9.5,0,0,1-2.106.3c-3.588.03-7.188.179-10.763-.045C443.953,901.345,441.654,901.313,439.2,901.265Z" transform="translate(-367.326 -768.852)"></path><path d="M448.88,838.244c1.595,0,3.042-.043,4.484.012a2.677,2.677,0,0,1,2.129,3.626c-.416.889-1.24.8-1.893.876-5.175.567-10.377.257-15.566.3a3.791,3.791,0,0,1-3.82-3.283c-.029-1.051.37-1.475,1.514-1.526.8-.035,1.594-.007,2.391-.007Z" transform="translate(-369.222 -719.18)"></path><path d="M657.025,697.988c1.092,1.018,1.072,2.337,1.4,3.516a11.11,11.11,0,0,1,.312,2.429,10.855,10.855,0,0,0,1.767,5.127c.887,1.472.47,2.366-1.394,3.25a11.5,11.5,0,0,1-6.123,1.365,7.72,7.72,0,0,1-3.379-.823c-.691-.416-1.611-.4-2.247-1.013-1-.967-1.076-1.223-.407-2.444A8.966,8.966,0,0,0,648,705.829a45.175,45.175,0,0,1,.893-5.457,4.078,4.078,0,0,1,1.522-2.237c.335-.27.621-.447.314-1.109-.472-1.015,1.2-2.838,2.4-2.95,2.655-.248,2.94.774,3.526,2.966a5.306,5.306,0,0,0,.371.946m2.469,12a14.412,14.412,0,0,1-2.262-7.915,5.951,5.951,0,0,0-.3-1.863,2.16,2.16,0,0,0-.741-1.227c-.265-.153-.847.186-1.286.31a3.093,3.093,0,0,1-2.63-.107c-.706-.45-1.158-.159-1.534.38a2.822,2.822,0,0,0-.368.846,24.265,24.265,0,0,0-.934,4.752,10.489,10.489,0,0,1-.738,3.106c-.891,2.168-.956,2.16,1.321,3.226a6.281,6.281,0,0,0,2.058.734,10.29,10.29,0,0,0,5.262-.573c.815-.386,2-.4,2.153-1.667m-4.34-12.924c-.1-.148-.261-.285-.289-.444-.2-1.14-.194-1.1-1.307-1.131a1.191,1.191,0,0,0-1.37.931,1.37,1.37,0,0,0,.569,1.643,1.294,1.294,0,0,0,1.77-.121,2.167,2.167,0,0,0,.629-.879Z" transform="translate(-549.753 -595.471)"></path><path d="M7233.463,1784.766s.258,16.306,3.336,16.815,22.582,1.783,22.582,1.783l31.307-1.783h51.835l1.8-7.643,1.8-81.527v-68.021l-1.731-17.2s2.822-4.841-10.778-4.586-19.76,0-19.76,0,7.185-6.369,0-12.483h22.325s10.778,4.585,12.317,14.012,1.54,34.14,1.54,34.14v93.335l-1.607,24.105V1795.7s-.79,16.658-8.884,15.678-9.277,1.959-9.277,1.959h-48.954l-21.926,1.372s-25.4-1.813-28.162-6.712-1.185-23.234-1.185-23.234Z" transform="translate(-7203.514 -1583.969)"></path><path d="M7229.58,1788.65v36.844l3.412,3.92,1.185-20.774v-19.99Z" transform="translate(-7203.512 -1699.402)"></path><path d="M7227.537,1689.39h3.018v20.774l-4.146,3.135Z" transform="translate(-7201.469 -1635.222)"></path></g></g></g></g></svg>